<svg version="1.1" xmlns="http://www.w3.org/2000/svg" xmlns:xlink="http://www.w3.org/1999/xlink" width="23.95" height="23.95" viewBox="0,0,23.95,23.95"><g transform="translate(-228.025,-168.025)"><g data-paper-data="{&quot;isPaintingLayer&quot;:true}" fill-rule="nonzero" stroke="none" stroke-linecap="butt" stroke-linejoin="miter" stroke-miterlimit="10" stroke-dasharray="" stroke-dashoffset="0" style="mix-blend-mode: normal"><path d="M240,168.025c3.3043,0 6.298,1.3416 8.4652,3.5099c2.1682,2.1671 3.5098,5.1609 3.5098,8.4651c0,3.3043 -1.3416,6.298 -3.5098,8.4652c-2.1672,2.1682 -5.1609,3.5098 -8.4652,3.5098c-3.3043,0 -6.298,-1.3416 -8.4652,-3.5098c-2.1682,-2.1672 -3.5098,-5.1609 -3.5098,-8.4652c0,-3.3042 1.3416,-6.298 3.5098,-8.4651c2.1672,-2.1683 5.1609,-3.5099 8.4652,-3.5099z" fill="#5ec565" stroke-width="1.05973"/><g fill="#ffffff" stroke-width="0"><path d="M237.92804,186.56297c0,0.93295 -1.11645,1.68925 -2.49366,1.68925c-1.37721,0 -2.49365,-0.7563 -2.49365,-1.68925c0,-0.93295 1.11645,-1.68925 2.49365,-1.68925c1.37721,0 2.49366,0.7563 2.49366,1.68925z"/><path d="M237.20523,186.69089l-0.08639,-10.44483l7.90587,-2.93361l0.37385,11.67388l-0.77188,-0.17742l-0.23517,-7.60343l-6.42837,2.21193l0.04084,7.10359z"/><path d="M245.42963,185.21157c0,0.93295 -1.11645,1.68925 -2.49366,1.68925c-1.37721,0 -2.49365,-0.7563 -2.49365,-1.68925c0,-0.93295 1.11645,-1.68925 2.49365,-1.68925c1.37721,0 2.49366,0.7563 2.49366,1.68925z"/></g></g></g></svg>