<svg version="1.1" xmlns="http://www.w3.org/2000/svg" xmlns:xlink="http://www.w3.org/1999/xlink" width="720" height="540" viewBox="0,0,720,540"><defs><linearGradient x1="233.50032" y1="154.59375" x2="233.50032" y2="205.40626" gradientUnits="userSpaceOnUse" id="color-1"><stop offset="0" stop-color="#fad000"/><stop offset="1" stop-color="#ffbc00"/></linearGradient><clipPath id="clip-1"><rect x="-240" y="-180" transform="scale(0.5,0.5)" width="1440" height="1080" fill="none" fill-rule="nonzero" stroke="none" stroke-width="0.5" stroke-linecap="butt"/></clipPath></defs><g transform="translate(120,90)"><g clip-path="url(#clip-1)" data-paper-data="{&quot;isPaintingLayer&quot;:true}" stroke-linejoin="miter" stroke-miterlimit="10" stroke-dasharray="" stroke-dashoffset="0" style="mix-blend-mode: normal"><path d="M-110.76904,0.30708h701.5381v359.38583h-701.5381z" fill-opacity="0" fill="#000000" fill-rule="evenodd" stroke="none" stroke-width="1" stroke-linecap="square"/><path d="M247.13017,154.59375c1.0625,0 2.02605,0.03646 2.5573,0.10938c0.54167,0.0625 1.14583,0.28125 1.8125,0.65625c0.66667,0.36458 1.30209,1.32291 1.57292,2.20834c0.28125,0.875 0.25521,1.71874 0.25521,3.19791c0,1.47917 -0.14062,2.65625 -0.42187,3.53125c-0.27083,0.87499 -0.75521,1.48957 -1.45312,1.84373c-0.6875,0.34375 -1.29687,0.55208 -1.82812,0.625c-0.53125,0.0625 -1.34896,0.09375 -2.45312,0.09375h-21.21875v7h13.65625c1.10417,0 1.92188,0.03646 2.45313,0.10938c0.53125,0.0625 1.14583,0.28125 1.84375,0.65625c1.19792,0.69792 1.79688,2.52083 1.79688,5.46875c0,3.23958 -0.875,5.16146 -2.625,5.76563c-0.73958,0.22917 -1.92187,0.34375 -3.54687,0.34375h-13.57812v13.10938c0,1.10417 -0.03646,1.91146 -0.10937,2.42188c-0.0625,0.51042 -0.28125,1.10938 -0.65625,1.79688c-0.64583,1.25 -2.44792,1.875 -5.40625,1.875c-3.23958,0 -5.13542,-0.88021 -5.6875,-2.64062c-0.28125,-0.73958 -0.42187,-1.91667 -0.42187,-3.53125v-38.54686c0,-2.35417 0.4375,-3.95833 1.3125,-4.8125c0.88542,-0.85417 2.55208,-1.28125 5,-1.28125h27.3125z" fill="#f9ea00" fill-rule="nonzero" stroke="url(#color-1)" stroke-width="6.5" stroke-linecap="square"/><path d="M220.30893,156.71687c0.02525,0.70831 -0.99827,1.31973 -2.28611,1.36565c-1.28785,0.04592 -2.35233,-0.49106 -2.37758,-1.19938c-0.02525,-0.70831 0.99828,-1.31974 2.28613,-1.36566c1.28785,-0.04592 2.35232,0.49107 2.37757,1.19939z" fill="#ffffff" fill-rule="nonzero" stroke="none" stroke-width="0" stroke-linecap="butt"/></g></g></svg>