<svg version="1.1" xmlns="http://www.w3.org/2000/svg" xmlns:xlink="http://www.w3.org/1999/xlink" width="52.72817" height="35.86833" viewBox="0,0,52.72817,35.86833"><g transform="translate(-199.0462,-162.17956)"><g data-paper-data="{&quot;isPaintingLayer&quot;:true}" fill="#000000" fill-rule="nonzero" stroke-linecap="butt" stroke-linejoin="miter" stroke-miterlimit="10" stroke-dasharray="" stroke-dashoffset="0" style="mix-blend-mode: normal"><path d="M208.86815,185.83208c1.59971,-1.5997 3.49215,-1.29237 5.70491,-1.38551c1.77905,-0.07491 4.61678,0.15299 5.7089,1.24511c1.33122,1.33122 1.12224,3.31276 1.23968,5.15838c0.12,1.88582 0.25672,4.47827 -1.38006,5.83426c-1.12987,0.93605 -4.08716,0.57494 -5.38818,0.61391c-2.31533,0.06935 -4.30989,0.39988 -5.88526,-1.17549c-1.49974,-1.49974 -1.07169,-3.19488 -1.10012,-5.28931c-0.02377,-1.75133 -0.02013,-3.88111 1.10012,-5.00136z" data-paper-data="{&quot;index&quot;:null}" stroke="#000000" stroke-width="1.5"/><path d="M239.00162,182.73229c1.77905,-0.07491 4.61679,0.15299 5.70891,1.24511c1.33122,1.33122 1.12224,3.31275 1.23968,5.15837c0.12,1.88582 0.25672,4.47828 -1.38006,5.83427c-1.12988,0.93604 -4.08716,0.57494 -5.38818,0.61391c-2.31533,0.06935 -4.30989,0.39988 -5.88526,-1.17549c-1.49974,-1.49974 -1.0717,-3.19487 -1.10013,-5.2893c-0.02376,-1.75133 -0.02012,-3.88111 1.10013,-5.00136c1.59971,-1.5997 3.49215,-1.29237 5.70491,-1.38551z" data-paper-data="{&quot;index&quot;:null}" stroke="#000000" stroke-width="1.5"/><path d="M214.00162,175.85739c-2.21276,-0.09314 -4.1052,0.2142 -5.70491,-1.38551c-1.12025,-1.12024 -1.1239,-3.25003 -1.10013,-5.00136c0.02843,-2.09443 -0.39961,-3.78957 1.10013,-5.28931c1.57537,-1.57537 3.56993,-1.24484 5.88526,-1.17549c1.30102,0.03896 4.2583,-0.32214 5.38818,0.61391c1.63677,1.35598 1.50005,3.94844 1.38006,5.83426c-0.11743,1.84562 0.09154,3.82716 -1.23968,5.15838c-1.09211,1.09212 -3.92985,1.32002 -5.7089,1.24512z" data-paper-data="{&quot;index&quot;:null}" stroke="#000000" stroke-width="1.5"/><path d="M238.7159,177.14311c-2.21276,-0.09314 -4.1052,0.2142 -5.70491,-1.38551c-1.12024,-1.12025 -1.12388,-3.25003 -1.10012,-5.00136c0.02842,-2.09443 -0.39962,-3.78957 1.10012,-5.28931c1.57537,-1.57537 3.56993,-1.24485 5.88526,-1.17549c1.30102,0.03897 4.25831,-0.32214 5.38818,0.61391c1.63677,1.35599 1.50005,3.94845 1.38006,5.83427c-0.11743,1.84561 0.09154,3.82715 -1.23968,5.15837c-1.09212,1.09211 -3.92985,1.32001 -5.7089,1.24511z" data-paper-data="{&quot;index&quot;:null}" stroke="#000000" stroke-width="1.5"/><path d="M199.17494,180.31942c-0.18681,-5.24798 2.79348,-11.08006 2.79348,-11.08006l3.15252,-1.18676l0.15043,24.38676l-3.364,-1.51036c0,0 -2.6068,-7.08015 -2.73244,-10.60958z" stroke="#fff900" stroke-width="0"/><path d="M218.44144,189.53105l0.38303,-18.41251l15.81897,-3.30862l12.7908,0.10928c0,0 4.16219,2.85865 4.33407,11.18896c0.18449,8.9421 -3.90724,13.12253 -3.90724,13.12253l-13.21915,-0.18211z" data-paper-data="{&quot;index&quot;:null}" stroke="none" stroke-width="0"/><path d="M204.84215,192.33788c0,0 -4.09174,-4.22389 -3.90724,-13.25897c0.17187,-8.41692 4.33407,-11.3053 4.33407,-11.3053l11.37403,-0.09918l17.23573,2.2745l0.76608,19.94049l-17.23827,2.27524z" stroke="none" stroke-width="0"/><path d="M233.36965,166.86888c0.23762,0.31183 1.4677,1.45323 0.73356,2.01264c-0.3801,0.28963 -1.74054,-0.76975 -2.97143,-1.48247c-1.61428,-0.9347 -3.08148,-1.67724 -2.58301,-2.05707c0.87858,-0.66946 3.37544,-0.37002 4.82087,1.5269z" stroke="none" stroke-width="0"/><path d="M229.39945,194.08757c-0.47646,-0.40712 1.02998,-1.06644 2.69401,-1.90939c1.26882,-0.64276 2.68638,-1.6244 3.04969,-1.31397c0.70171,0.5996 -0.59029,1.67042 -0.84497,1.96846c-1.54926,1.81312 -4.05896,1.97245 -4.89872,1.2549z" data-paper-data="{&quot;index&quot;:null}" stroke="none" stroke-width="0"/><path d="M200.3862,192.45005v-24.79007l2.5125,1.005l0.1675,23.11507z" stroke="none" stroke-width="0"/><path d="M199.57371,192.47506v-24.79007l2.5125,1.005l0.1675,23.11507z" stroke="none" stroke-width="0"/><path d="M199.0462,185.75002v-10.88753l2.5125,0.44139l0.1675,10.15189z" stroke="none" stroke-width="0"/></g></g></svg>