<svg version="1.1" xmlns="http://www.w3.org/2000/svg" xmlns:xlink="http://www.w3.org/1999/xlink" width="46.27079" height="57.73433" viewBox="-0.5,-0.5,46.27079,57.73433"><defs><linearGradient x1="246.16666" y1="156.63284" x2="246.16666" y2="207.86717" gradientUnits="userSpaceOnUse" id="color-1"><stop offset="0" stop-color="#fad000"/><stop offset="1" stop-color="#ffbc00"/></linearGradient></defs><g transform="translate(-223.53127,-153.88284)"><g data-paper-data="{&quot;isPaintingLayer&quot;:true}" fill-rule="nonzero" stroke-linejoin="miter" stroke-miterlimit="10" stroke-dasharray="" stroke-dashoffset="0" style="mix-blend-mode: normal"><path d="M265.02081,198.51821c0.6875,1.66667 1.03125,3.70312 1.03125,4.44271c0,1.75 -1.26562,2.72917 -4.1302,3.9375c-1.47917,0.64583 -2.67187,0.96875 -3.57812,0.96875c-0.89583,0 -1.63542,-0.21875 -2.21875,-0.65625c-0.57292,-0.44792 -0.99479,-0.90104 -1.26562,-1.35937c-0.46875,-0.875 -2.27604,-5.05729 -5.42187,-12.54687l-2.14062,0.14063h-8.73437v7.82813c0,1.0625 -0.03646,1.85938 -0.10937,2.39063c-0.0625,0.53125 -0.28125,1.14583 -0.65625,1.84375c-0.64583,1.25 -2.44792,1.875 -5.40625,1.875c-3.23958,0 -5.13542,-0.85937 -5.6875,-2.57812c-0.28125,-0.78125 -0.42187,-1.97917 -0.42187,-3.59375v-38.48437c0,-1.0625 0.03646,-1.85937 0.10938,-2.39062c0.07292,-0.53125 0.29167,-1.14583 0.65625,-1.84375c0.64583,-1.23958 2.44792,-1.85937 5.40625,-1.85937h14.98438c4.0625,0 8.01042,1.47917 11.84375,4.4375c1.85417,1.42708 3.38021,3.36979 4.57813,5.82813c1.20833,2.44792 1.8125,5.17188 1.8125,8.17188c0,5.21875 -1.73437,9.51563 -5.20312,12.89063c1.02083,2.44792 2.59375,6.07813 4.71875,10.89063zM238.56248,181.16404h8.875c1.33333,0 2.67188,-0.50521 4.01563,-1.51562c1.34375,-1.02083 2.01563,-2.54687 2.01563,-4.57812c0,-2.03125 -0.67187,-3.56771 -2.01562,-4.60937c-1.34375,-1.04167 -2.72917,-1.5625 -4.15625,-1.5625h-8.73437z" fill="#f9ea00" stroke="url(#color-1)" stroke-width="6.5" stroke-linecap="square"/><path d="M232.35893,159.16686c0.02525,0.70831 -0.99827,1.31973 -2.28611,1.36565c-1.28785,0.04592 -2.35233,-0.49106 -2.37758,-1.19938c-0.02525,-0.70831 0.99828,-1.31974 2.28613,-1.36566c1.28785,-0.04592 2.35232,0.49107 2.37757,1.19939z" fill="#ffffff" stroke="none" stroke-width="0" stroke-linecap="butt"/></g></g></svg>