<svg version="1.1" xmlns="http://www.w3.org/2000/svg" xmlns:xlink="http://www.w3.org/1999/xlink" width="600.78942" height="434.9019" viewBox="0,0,600.78942,434.9019"><defs><linearGradient x1="256.99308" y1="306.42708" x2="256.99308" y2="385.16976" gradientUnits="userSpaceOnUse" id="color-1"><stop offset="0" stop-color="#211f21" stop-opacity="0"/><stop offset="1" stop-color="#211f21"/></linearGradient><linearGradient x1="-41.99791" y1="167.12443" x2="43.53662" y2="167.12443" gradientUnits="userSpaceOnUse" id="color-2"><stop offset="0" stop-color="#211f21"/><stop offset="1" stop-color="#211f21" stop-opacity="0"/></linearGradient><linearGradient x1="443.01109" y1="166.18449" x2="521.96605" y2="166.18449" gradientUnits="userSpaceOnUse" id="color-3"><stop offset="0" stop-color="#211f21" stop-opacity="0"/><stop offset="1" stop-color="#211f21"/></linearGradient><linearGradient x1="253.14322" y1="-25.24861" x2="253.14322" y2="24.87882" gradientUnits="userSpaceOnUse" id="color-4"><stop offset="0" stop-color="#211f21"/><stop offset="1" stop-color="#211f21" stop-opacity="0"/></linearGradient></defs><g transform="translate(60.39471,37.45095)"><g data-paper-data="{&quot;isPaintingLayer&quot;:true}" fill-rule="nonzero" stroke="none" stroke-linecap="butt" stroke-linejoin="miter" stroke-miterlimit="10" stroke-dasharray="" stroke-dashoffset="0" style="mix-blend-mode: normal"><g><path d="M5.55734,310.76287l502.70588,-4.33579l0.1656,74.40689l-502.70588,4.33579z" fill="url(#color-1)" stroke-width="0"/><g fill="#211f21"><path d="M30.48693,28.63444v-13.01711h13.01711c0,0 -0.9401,0.18604 -2.74673,0.7586c-0.52176,0.16535 -1.26874,0.51591 -1.89739,0.7147c-1.98377,0.62728 -3.48625,1.91048 -3.9187,2.24898c-0.28016,0.21928 -1.55247,1.01316 -2.75673,3.59203c-1.22645,2.62638 -1.69755,5.70282 -1.69755,5.70282z" stroke-width="NaN"/><path d="M32.0026,310.92702c1.13338,2.55754 2.33077,3.34484 2.59444,3.56232c0.40699,0.3357 1.82102,1.60828 3.68801,2.23037c0.59165,0.19715 1.29465,0.54479 1.7857,0.70878c1.70027,0.56782 2.58503,0.75231 2.58503,0.75231h-12.25078v-12.90943c0,0 0.44336,3.05098 1.59762,5.65563z" data-paper-data="{&quot;index&quot;:null}" stroke-width="NaN"/><path d="M456.69936,301.91092v13.01711h-13.01711c0,0 0.9401,-0.18604 2.74673,-0.7586c0.52176,-0.16535 1.26875,-0.5159 1.89739,-0.7147c1.98377,-0.62728 3.48625,-1.91048 3.9187,-2.24898c0.28016,-0.21929 1.55247,-1.01316 2.75673,-3.59203c1.22645,-2.62638 1.69754,-5.70281 1.69754,-5.70281z" data-paper-data="{&quot;index&quot;:null}" stroke-width="NaN"/><path d="M454.98678,20.72451c-1.20426,-2.57886 -2.47657,-3.37275 -2.75673,-3.59203c-0.43246,-0.33849 -1.93493,-1.6217 -3.9187,-2.24898c-0.62864,-0.19879 -1.37564,-0.54935 -1.89739,-0.7147c-1.80663,-0.57257 -2.74673,-0.7586 -2.74673,-0.7586h13.01711v13.01711c0,0 -0.4711,-3.07644 -1.69755,-5.70282z" data-paper-data="{&quot;index&quot;:null}" stroke-width="NaN"/><path d="M-60.39471,357.23289v-379.49865h91.11973v379.49865z" stroke-width="0"/><path d="M456.28419,356.23157v-379.49865h84.11052v379.49865z" stroke-width="0"/><path d="M-12.41673,-34.51055l532.69483,-2.9404l0.17548,50.46024l-532.69483,2.9404z" stroke-width="0"/><path d="M-8.41147,318.60531l532.69483,-4.59445l0.17548,78.84564l-532.69483,4.59445z" stroke-width="0"/></g><g stroke-width="0"><path d="M-41.99791,345.24305v-356.23723h85.53453v356.23723z" fill="url(#color-2)"/><path d="M443.01109,344.3031v-356.23723h78.95496v356.23723z" fill="url(#color-3)"/><path d="M3.03924,-22.48845l500.04324,-2.76016l0.16472,47.36727l-500.04324,2.76016z" fill="url(#color-4)"/></g></g></g></g></svg>