<svg version="1.1" xmlns="http://www.w3.org/2000/svg" xmlns:xlink="http://www.w3.org/1999/xlink" width="67.88848" height="43.75284" viewBox="0,0,67.88848,43.75284"><defs><linearGradient x1="238.57821" y1="167.24837" x2="238.57821" y2="198.48237" gradientUnits="userSpaceOnUse" id="color-1"><stop offset="0" stop-color="#000000"/><stop offset="1" stop-color="#000000" stop-opacity="0"/></linearGradient><linearGradient x1="238.57821" y1="167.24837" x2="238.57821" y2="198.48237" gradientUnits="userSpaceOnUse" id="color-2"><stop offset="0" stop-color="#000000"/><stop offset="1" stop-color="#000000" stop-opacity="0"/></linearGradient><linearGradient x1="260.47543" y1="167.44542" x2="260.47543" y2="198.72642" gradientUnits="userSpaceOnUse" id="color-3"><stop offset="0" stop-color="#000000"/><stop offset="1" stop-color="#000000" stop-opacity="0"/></linearGradient><linearGradient x1="260.47543" y1="167.44542" x2="260.47543" y2="198.72642" gradientUnits="userSpaceOnUse" id="color-4"><stop offset="0" stop-color="#000000"/><stop offset="1" stop-color="#000000" stop-opacity="0"/></linearGradient><linearGradient x1="225.05476" y1="183.75049" x2="225.05476" y2="191.25049" gradientUnits="userSpaceOnUse" id="color-5"><stop offset="0" stop-color="#000000"/><stop offset="1" stop-color="#000000" stop-opacity="0"/></linearGradient><linearGradient x1="217.95334" y1="179.80598" x2="217.95334" y2="187.30598" gradientUnits="userSpaceOnUse" id="color-6"><stop offset="0" stop-color="#000000"/><stop offset="1" stop-color="#000000" stop-opacity="0"/></linearGradient><linearGradient x1="217.95334" y1="179.80598" x2="217.95334" y2="187.30598" gradientUnits="userSpaceOnUse" id="color-7"><stop offset="0" stop-color="#000000"/><stop offset="1" stop-color="#000000" stop-opacity="0"/></linearGradient><linearGradient x1="218.01109" y1="181.36613" x2="218.01109" y2="191.5554" gradientUnits="userSpaceOnUse" id="color-8"><stop offset="0" stop-color="#000000"/><stop offset="1" stop-color="#000000" stop-opacity="0"/></linearGradient><linearGradient x1="218.01109" y1="181.36613" x2="218.01109" y2="191.5554" gradientUnits="userSpaceOnUse" id="color-9"><stop offset="0" stop-color="#000000"/><stop offset="1" stop-color="#000000" stop-opacity="0"/></linearGradient></defs><g transform="translate(-206.01207,-158.72358)"><g data-paper-data="{&quot;isPaintingLayer&quot;:true}" fill-rule="nonzero" stroke-linejoin="miter" stroke-miterlimit="10" stroke-dasharray="" stroke-dashoffset="0" style="mix-blend-mode: normal"><path d="M245.96121,194.40437c0.583,0 1.072,0.203 1.468,0.609c0.407,0.396 0.61,0.87 0.61,1.422c0,0.563 -0.203,1.047 -0.61,1.453c-0.396,0.396 -0.885,0.594 -1.468,0.594h-14.797c-0.584,0 -1.073,-0.198 -1.469,-0.594c-0.386,-0.406 -0.578,-0.89 -0.578,-1.453c0,-0.583 0.187,-1.062 0.562,-1.437l11.36,-13.281c1.687,-1.917 2.531,-3.584 2.531,-5c0,-1.73 -0.448,-3.115 -1.344,-4.157c-0.896,-1.041 -2.114,-1.562 -3.656,-1.562c-0.99,0 -1.901,0.26 -2.734,0.781c-0.823,0.521 -1.469,1.224 -1.938,2.109c-0.458,0.875 -0.687,1.818 -0.687,2.829c0,0.541 -0.198,1.01 -0.594,1.406c-0.386,0.396 -0.87,0.594 -1.453,0.594c-0.563,0 -1.047,-0.198 -1.453,-0.594c-0.396,-0.396 -0.594,-0.865 -0.594,-1.406c0,-1.782 0.411,-3.391 1.234,-4.829c0.833,-1.448 1.964,-2.583 3.391,-3.406c1.427,-0.823 3.036,-1.234 4.828,-1.234c1.781,0 3.344,0.385 4.687,1.156c1.355,0.771 2.396,1.87 3.125,3.297c0.73,1.427 1.094,3.099 1.094,5.016c0,1.177 -0.338,2.401 -1.015,3.671c-0.678,1.261 -1.521,2.464 -2.532,3.61l-9.172,10.406z" fill="url(#color-1)" stroke="url(#color-2)" stroke-width="7.5" stroke-linecap="butt"/><path d="M260.47593,167.44542c2,0 3.718,0.63 5.156,1.891c1.437,1.25 2.531,3.046 3.281,5.39c0.75,2.344 1.125,5.13 1.125,8.36c0,3.229 -0.375,6.015 -1.125,8.359c-0.75,2.344 -1.844,4.146 -3.281,5.406c-1.438,1.25 -3.156,1.875 -5.156,1.875c-3.042,0 -5.396,-1.37 -7.063,-4.109c-1.667,-2.75 -2.5,-6.594 -2.5,-11.531c0,-4.938 0.833,-8.776 2.5,-11.516c1.667,-2.75 4.021,-4.125 7.063,-4.125zM260.47593,171.57042c-1.792,0 -3.146,1.062 -4.063,3.187c-0.917,2.115 -1.375,4.891 -1.375,8.329c0,3.468 0.464,6.25 1.391,8.343c0.937,2.094 2.286,3.141 4.047,3.141c1.781,0 3.13,-1.052 4.046,-3.156c0.927,-2.115 1.391,-4.891 1.391,-8.328c0,-3.417 -0.469,-6.188 -1.406,-8.313c-0.927,-2.135 -2.271,-3.203 -4.031,-3.203z" fill="url(#color-3)" stroke="url(#color-4)" stroke-width="7.5" stroke-linecap="butt"/><path d="M206.09945,186.39843l37.91062,2.20411" fill="url(#color-5)" stroke="none" stroke-width="7.5" stroke-linecap="round"/><path d="M212.85871,183.55598h10.18927" fill="url(#color-6)" stroke="url(#color-7)" stroke-width="12" stroke-linecap="round"/><path d="M218.01109,181.36613v10.18927" fill="url(#color-8)" stroke="url(#color-9)" stroke-width="12" stroke-linecap="round"/><path d="M246.07383,189.63253c0.583,0 1.072,0.203 1.468,0.609c0.407,0.396 0.61,0.87 0.61,1.422c0,0.563 -0.203,1.047 -0.61,1.453c-0.396,0.396 -0.885,0.594 -1.468,0.594h-14.797c-0.584,0 -1.073,-0.198 -1.469,-0.594c-0.386,-0.406 -0.578,-0.89 -0.578,-1.453c0,-0.583 0.187,-1.062 0.562,-1.437l11.36,-13.281c1.687,-1.917 2.531,-3.584 2.531,-5c0,-1.73 -0.448,-3.115 -1.344,-4.157c-0.896,-1.041 -2.114,-1.562 -3.656,-1.562c-0.99,0 -1.901,0.26 -2.734,0.781c-0.823,0.521 -1.469,1.224 -1.938,2.109c-0.458,0.875 -0.687,1.818 -0.687,2.829c0,0.541 -0.198,1.01 -0.594,1.406c-0.386,0.396 -0.87,0.594 -1.453,0.594c-0.563,0 -1.047,-0.198 -1.453,-0.594c-0.396,-0.396 -0.594,-0.865 -0.594,-1.406c0,-1.782 0.411,-3.391 1.234,-4.829c0.833,-1.448 1.964,-2.583 3.391,-3.406c1.427,-0.823 3.036,-1.234 4.828,-1.234c1.781,0 3.344,0.385 4.687,1.156c1.355,0.771 2.396,1.87 3.125,3.297c0.73,1.427 1.094,3.099 1.094,5.016c0,1.177 -0.338,2.401 -1.015,3.671c-0.678,1.261 -1.521,2.464 -2.532,3.61l-9.172,10.406z" fill="#ffee40" stroke="#4f422f" stroke-width="7.5" stroke-linecap="butt"/><path d="M260.58855,162.47358c2,0 3.718,0.63 5.156,1.891c1.437,1.25 2.531,3.046 3.281,5.39c0.75,2.344 1.125,5.13 1.125,8.36c0,3.229 -0.375,6.015 -1.125,8.359c-0.75,2.344 -1.844,4.146 -3.281,5.406c-1.438,1.25 -3.156,1.875 -5.156,1.875c-3.042,0 -5.396,-1.37 -7.063,-4.109c-1.667,-2.75 -2.5,-6.594 -2.5,-11.531c0,-4.938 0.833,-8.776 2.5,-11.516c1.667,-2.75 4.021,-4.125 7.063,-4.125zM260.58855,166.59858c-1.792,0 -3.146,1.062 -4.063,3.187c-0.917,2.115 -1.375,4.891 -1.375,8.329c0,3.468 0.464,6.25 1.391,8.343c0.937,2.094 2.286,3.141 4.047,3.141c1.781,0 3.13,-1.052 4.046,-3.156c0.927,-2.115 1.391,-4.891 1.391,-8.328c0,-3.417 -0.469,-6.188 -1.406,-8.313c-0.927,-2.135 -2.271,-3.203 -4.031,-3.203z" fill="#ffee40" stroke="#4f422f" stroke-width="7.5" stroke-linecap="butt"/><path d="M206.01207,179.02659l37.91062,2.20411" fill="none" stroke="none" stroke-width="7.5" stroke-linecap="round"/><path d="M212.77133,178.78414h10.18927" fill="none" stroke="#4f422f" stroke-width="12" stroke-linecap="round"/><path d="M218.12371,183.98356v-10.18927" fill="none" stroke="#4f422f" stroke-width="12" stroke-linecap="round"/><path d="M246.07383,189.63253c0.583,0 1.072,0.203 1.468,0.609c0.407,0.396 0.61,0.87 0.61,1.422c0,0.563 -0.203,1.047 -0.61,1.453c-0.396,0.396 -0.885,0.594 -1.468,0.594h-14.797c-0.584,0 -1.073,-0.198 -1.469,-0.594c-0.386,-0.406 -0.578,-0.89 -0.578,-1.453c0,-0.583 0.187,-1.062 0.562,-1.437l11.36,-13.281c1.687,-1.917 2.531,-3.584 2.531,-5c0,-1.73 -0.448,-3.115 -1.344,-4.157c-0.896,-1.041 -2.114,-1.562 -3.656,-1.562c-0.99,0 -1.901,0.26 -2.734,0.781c-0.823,0.521 -1.469,1.224 -1.938,2.109c-0.458,0.875 -0.687,1.818 -0.687,2.829c0,0.541 -0.198,1.01 -0.594,1.406c-0.386,0.396 -0.87,0.594 -1.453,0.594c-0.563,0 -1.047,-0.198 -1.453,-0.594c-0.396,-0.396 -0.594,-0.865 -0.594,-1.406c0,-1.782 0.411,-3.391 1.234,-4.829c0.833,-1.448 1.964,-2.583 3.391,-3.406c1.427,-0.823 3.036,-1.234 4.828,-1.234c1.781,0 3.344,0.385 4.687,1.156c1.355,0.771 2.396,1.87 3.125,3.297c0.73,1.427 1.094,3.099 1.094,5.016c0,1.177 -0.338,2.401 -1.015,3.671c-0.678,1.261 -1.521,2.464 -2.532,3.61l-9.172,10.406z" fill="#fac800" stroke="none" stroke-width="1" stroke-linecap="butt"/><path d="M260.58855,162.47358c2,0 3.718,0.63 5.156,1.891c1.437,1.25 2.531,3.046 3.281,5.39c0.75,2.344 1.125,5.13 1.125,8.36c0,3.229 -0.375,6.015 -1.125,8.359c-0.75,2.344 -1.844,4.146 -3.281,5.406c-1.438,1.25 -3.156,1.875 -5.156,1.875c-3.042,0 -5.396,-1.37 -7.063,-4.109c-1.667,-2.75 -2.5,-6.594 -2.5,-11.531c0,-4.938 0.833,-8.776 2.5,-11.516c1.667,-2.75 4.021,-4.125 7.063,-4.125zM260.58855,166.59858c-1.792,0 -3.146,1.062 -4.063,3.187c-0.917,2.115 -1.375,4.891 -1.375,8.329c0,3.468 0.464,6.25 1.391,8.343c0.937,2.094 2.286,3.141 4.047,3.141c1.781,0 3.13,-1.052 4.046,-3.156c0.927,-2.115 1.391,-4.891 1.391,-8.328c0,-3.417 -0.469,-6.188 -1.406,-8.313c-0.927,-2.135 -2.271,-3.203 -4.031,-3.203z" fill="#fac800" stroke="none" stroke-width="1" stroke-linecap="butt"/><path d="M206.01207,179.02659l37.91062,2.20411" fill="none" stroke="none" stroke-width="0" stroke-linecap="round"/><path d="M212.77133,178.78414h10.18927" fill="none" stroke="#fac800" stroke-width="5" stroke-linecap="round"/><path d="M218.12371,183.98356v-10.18927" fill="none" stroke="#fac800" stroke-width="5" stroke-linecap="round"/></g></g></svg>