<svg version="1.1" xmlns="http://www.w3.org/2000/svg" xmlns:xlink="http://www.w3.org/1999/xlink" width="720" height="540" viewBox="0,0,720,540"><defs><clipPath id="clip-1"><rect x="-240" y="-180" transform="scale(0.5,0.5)" width="1440" height="1080" fill="none" fill-rule="nonzero" stroke="none" stroke-width="0.5" stroke-linecap="butt" stroke-linejoin="miter"/></clipPath></defs><g transform="translate(120,90)"><g clip-path="url(#clip-1)" data-paper-data="{&quot;isPaintingLayer&quot;:true}" stroke-miterlimit="10" stroke-dasharray="" stroke-dashoffset="0" style="mix-blend-mode: normal"><g fill-rule="evenodd"><path d="M280.58005,179.9752h-40.61417c0,-10.77155 4.27898,-21.10192 11.89561,-28.71856c7.61664,-7.61663 17.94701,-11.89561 28.71856,-11.89561v0z" data-paper-data="{&quot;index&quot;:null}" fill-opacity="0" fill="#000000" stroke="none" stroke-width="1" stroke-linecap="square" stroke-linejoin="miter"/><path d="M239.96588,179.9752c0,-10.77155 4.27898,-21.10192 11.89561,-28.71856c7.61664,-7.61663 17.94701,-11.89561 28.71856,-11.89561v0" data-paper-data="{&quot;index&quot;:null}" fill-opacity="0" fill="#000000" stroke="none" stroke-width="1" stroke-linecap="square" stroke-linejoin="miter"/><path d="M239.96588,179.9752c0,-10.77155 4.27898,-21.10192 11.89561,-28.71856c7.61664,-7.61663 17.94701,-11.89561 28.71856,-11.89561v0" data-paper-data="{&quot;index&quot;:null}" fill="none" stroke="#514f51" stroke-width="24" stroke-linecap="butt" stroke-linejoin="round"/><path d="M291.22572,139.30328c0,5.80117 -4.76624,10.50394 -10.64568,10.50394v0c-5.87944,0 -10.64566,-4.70278 -10.64566,-10.50394v0c0,-2.78581 1.1216,-5.45753 3.11804,-7.4274c1.99646,-1.96987 4.70422,-3.07654 7.52763,-3.07654v0c5.87944,0 10.64568,4.70278 10.64568,10.50394v0z" data-paper-data="{&quot;index&quot;:null}" fill="#000000" stroke="none" stroke-width="1" stroke-linecap="square" stroke-linejoin="miter"/><path d="M291.22572,139.30328c0,5.80117 -4.76624,10.50394 -10.64568,10.50394v0c-5.87944,0 -10.64566,-4.70278 -10.64566,-10.50394v0c0,-2.78581 1.1216,-5.45753 3.11804,-7.4274c1.99646,-1.96987 4.70422,-3.07654 7.52763,-3.07654v0c5.87944,0 10.64568,4.70278 10.64568,10.50394v0z" data-paper-data="{&quot;index&quot;:null}" fill="#514f51" stroke="#514f51" stroke-width="3" stroke-linecap="butt" stroke-linejoin="round"/><path d="M239.80971,190.47913v0c-5.87944,0 -10.64567,-4.70276 -10.64567,-10.50393v0c0,-2.78581 1.12159,-5.45754 3.11804,-7.4274c1.99645,-1.96987 4.70422,-3.07654 7.52763,-3.07654v0c5.87944,0 10.64567,4.70278 10.64567,10.50394v0c0,5.80117 -4.76623,10.50393 -10.64567,10.50393z" data-paper-data="{&quot;index&quot;:null}" fill="#000000" stroke="none" stroke-width="1" stroke-linecap="square" stroke-linejoin="miter"/><path d="M239.80971,190.47913v0c-5.87944,0 -10.64567,-4.70276 -10.64567,-10.50393v0c0,-2.78581 1.12159,-5.45754 3.11804,-7.4274c1.99645,-1.96987 4.70422,-3.07654 7.52763,-3.07654v0c5.87944,0 10.64567,4.70278 10.64567,10.50394v0c0,5.80117 -4.76623,10.50393 -10.64567,10.50393z" data-paper-data="{&quot;index&quot;:null}" fill="#514f51" stroke="#514f51" stroke-width="3" stroke-linecap="butt" stroke-linejoin="round"/></g><g fill-rule="nonzero" stroke-linecap="butt" stroke-linejoin="miter"><path d="M262.18939,167.88629c0,-2.65808 2.15481,-4.81289 4.81289,-4.81289c2.65808,0 4.81288,2.15481 4.81288,4.81289c0,2.65808 -2.15481,4.81288 -4.81288,4.81288c-2.65808,0 -4.81289,-2.15481 -4.81289,-4.81288z" fill="#9966ff" stroke="#000000" stroke-width="1.5"/><g stroke="#000000" stroke-width="0"><path d="M262.11542,168.0402c0,0 0.09756,-1.14729 0.09756,-2.02922c0,-0.7847 1.17071,-1.73654 1.17071,-1.73654c0,0 0.67217,-0.97558 1.3343,-0.97558c0.89917,0 2.30238,-0.29267 2.30238,-0.29267v5.03402z" fill="#fdd200"/><path d="M266.99335,168.13776v-5.03402c0,0 1.4032,0.29267 2.30238,0.29267c0.66212,0 1.3343,0.97558 1.3343,0.97558c0,0 1.17071,0.95185 1.17071,1.73654c0,0.88193 0.09756,2.02922 0.09756,2.02922z" data-paper-data="{&quot;index&quot;:null}" fill="#feaa01"/><path d="M271.89829,167.68899c0,0 -0.09756,1.14729 -0.09756,2.02922c0,0.7847 -1.1707,1.73654 -1.1707,1.73654c0,0 -0.67217,0.97558 -1.3343,0.97558c-0.89918,0 -2.30238,0.29267 -2.30238,0.29267v-5.03402z" data-paper-data="{&quot;index&quot;:null}" fill="#fdc308"/><path d="M267.02037,167.68899v5.03402c0,0 -1.4032,-0.29267 -2.30238,-0.29267c-0.66212,0 -1.3343,-0.97558 -1.3343,-0.97558c0,0 -1.1707,-0.95185 -1.1707,-1.73654c0,-0.88193 -0.09756,-2.02922 -0.09756,-2.02922z" data-paper-data="{&quot;index&quot;:null}" fill="#ffdd00"/></g><path d="M264.90477,167.85377c0,-1.19434 0.96821,-2.16254 2.16255,-2.16254c1.19434,0 2.16254,0.9682 2.16254,2.16254c0,1.19434 -0.9682,2.16255 -2.16254,2.16255c-1.19434,0 -2.16255,-0.96821 -2.16255,-2.16255z" fill="#ff6703" stroke="#dc2a19" stroke-width="1"/><path d="M262.18939,167.83751c0,-2.68503 2.17664,-4.86166 4.86167,-4.86166c2.68503,0 4.86167,2.17664 4.86167,4.86167c0,2.68503 -2.17664,4.86167 -4.86166,4.86167c-2.68503,0 -4.86166,-2.17664 -4.86166,-4.86166z" fill="none" stroke="#feaa01" stroke-width="1.5"/></g><path d="M219.66338,167.7252h-40.61417c0,-10.77155 4.27898,-21.10192 11.89561,-28.71856c7.61664,-7.61663 17.94701,-11.89561 28.71856,-11.89561v0z" data-paper-data="{&quot;index&quot;:null}" fill-opacity="0" fill="#000000" fill-rule="evenodd" stroke="none" stroke-width="1" stroke-linecap="square" stroke-linejoin="miter"/><path d="M178.71588,167.7252c0,-10.77155 4.27898,-21.10192 11.89561,-28.71856c7.61664,-7.61663 17.94701,-11.89561 28.71856,-11.89561v0" data-paper-data="{&quot;index&quot;:null}" fill-opacity="0" fill="#000000" fill-rule="evenodd" stroke="none" stroke-width="1" stroke-linecap="square" stroke-linejoin="miter"/><path d="M372.28873,163.68898v0c25.98703,0 50.9097,10.32331 69.28531,28.69892c18.37561,18.37561 28.69895,43.2983 28.69895,69.28533h-97.98425z" fill-opacity="0" fill="#000000" fill-rule="evenodd" stroke="none" stroke-width="1" stroke-linecap="square" stroke-linejoin="miter"/><path d="M372.28873,163.68898v0c25.98703,0 50.9097,10.32331 69.28531,28.69892c18.37561,18.37561 28.69895,43.2983 28.69895,69.28533" fill-opacity="0" fill="#000000" fill-rule="evenodd" stroke="none" stroke-width="1" stroke-linecap="square" stroke-linejoin="miter"/><path d="M239.78873,180.50656c0,-10.9581 4.3531,-21.46739 12.10165,-29.21594c7.74855,-7.74855 18.25784,-12.10164 29.21594,-12.10164v0" data-paper-data="{&quot;index&quot;:null}" fill="none" fill-rule="evenodd" stroke="#5b595b" stroke-width="12" stroke-linecap="butt" stroke-linejoin="round"/><path d="M233.75501,190.5973v-10.26151h12v10.26151c0,0 -3.84739,1.62738 -5.77083,1.62738c-2.06631,0 -6.22917,-1.62738 -6.22917,-1.62738z" fill="#5b595b" fill-rule="nonzero" stroke="#646264" stroke-width="0" stroke-linecap="butt" stroke-linejoin="miter"/><path d="M280.80501,145.22467v-12.01273h10.4536c0,0 2.2714,4.07753 2.2714,6.05354c0,2.02694 -2.2714,5.95919 -2.2714,5.95919z" fill="#5b595b" fill-rule="nonzero" stroke="#646264" stroke-width="0" stroke-linecap="butt" stroke-linejoin="miter"/></g></g></svg>