<svg version="1.1" xmlns="http://www.w3.org/2000/svg" xmlns:xlink="http://www.w3.org/1999/xlink" width="234.29353" height="293.24996" viewBox="0,0,234.29353,293.24996"><defs><linearGradient x1="235.39387" y1="53.76103" x2="235.39387" y2="308.16341" gradientUnits="userSpaceOnUse" id="color-1"><stop offset="0" stop-color="#181818" stop-opacity="0"/><stop offset="1" stop-color="#181818" stop-opacity="0"/></linearGradient><linearGradient x1="239.71613" y1="49.26339" x2="239.71613" y2="303.66577" gradientUnits="userSpaceOnUse" id="color-2"><stop offset="0" stop-color="#000000" stop-opacity="0"/><stop offset="1" stop-color="#000000" stop-opacity="0"/></linearGradient><linearGradient x1="245.0384" y1="53.66981" x2="245.0384" y2="308.07219" gradientUnits="userSpaceOnUse" id="color-3"><stop offset="0" stop-color="#000000" stop-opacity="0"/><stop offset="1" stop-color="#000000" stop-opacity="0"/></linearGradient></defs><g transform="translate(-122.0626,-33.8294)"><g data-paper-data="{&quot;isPaintingLayer&quot;:true}" fill-rule="nonzero" stroke-linecap="butt" stroke-linejoin="miter" stroke-miterlimit="10" stroke-dasharray="" stroke-dashoffset="0" style="mix-blend-mode: normal"><path d="M139.64792,310.23181c-17.53837,-0.85723 -13.50613,-19.24104 -14.02256,-118.42929c-0.62087,-119.24744 -1.10708,-135.42421 14.25949,-138.55859c1.92202,-19.38253 15.74509,-13.2127 97.3933,-13.30246c80.47719,-0.08847 93.24595,-4.18298 94.68918,12.78536c14.77946,5.32308 14.14567,14.98417 13.91766,139.5788c-0.18462,100.88243 1.14941,110.30428 -13.91766,116.89198c-2.28027,18.89486 -15.51821,16.35561 -97.78646,16.93502c-83.36058,0.58711 -92.6415,1.95313 -94.53295,-15.90083z" fill="url(#color-1)" stroke="#252525" stroke-width="7"/><path d="M143.97018,305.73418c-17.53837,-0.85723 -13.50613,-19.24104 -14.02256,-118.42929c-0.62087,-119.24744 -1.10708,-135.42421 14.25949,-138.55859c1.92202,-19.38253 15.74509,-13.2127 97.3933,-13.30246c80.47719,-0.08847 93.24595,-4.18299 94.68918,12.78536c14.77946,5.32308 14.14567,14.98417 13.91766,139.5788c-0.18462,100.88243 1.14941,110.30428 -13.91766,116.89198c-2.28027,18.89486 -15.51821,16.35561 -97.78646,16.93502c-83.36058,0.58711 -92.6415,1.95313 -94.53295,-15.90083z" fill="url(#color-2)" stroke="#d7ffd9" stroke-width="1.5"/><path d="M149.29245,310.14061c-17.53837,-0.85723 -13.50613,-19.24104 -14.02256,-118.42929c-0.62087,-119.24744 -1.10708,-135.42421 14.25949,-138.5586c1.92202,-19.38254 15.74509,-13.2127 97.3933,-13.30246c80.47719,-0.08847 93.24595,-4.18299 94.68918,12.78536c14.77946,5.32308 14.14567,14.98417 13.91766,139.5788c-0.18462,100.88243 1.14941,110.30428 -13.91766,116.89198c-2.28027,18.89486 -15.51821,16.35561 -97.78646,16.93502c-83.36058,0.58711 -92.6415,1.95313 -94.53295,-15.90083z" fill="url(#color-3)" stroke="#d5ffd7" stroke-width="1.5"/></g></g></svg>