<svg version="1.1" xmlns="http://www.w3.org/2000/svg" xmlns:xlink="http://www.w3.org/1999/xlink" width="71.09132" height="37.95408" viewBox="0,0,71.09132,37.95408"><defs><linearGradient x1="341.58199" y1="46.516" x2="341.57949" y2="46.516" gradientUnits="userSpaceOnUse" id="color-1"><stop offset="0" stop-color="#7a727a"/><stop offset="1" stop-color="#211f21"/></linearGradient><linearGradient x1="218.9414" y1="187.82241" x2="218.64323" y2="190.23373" gradientUnits="userSpaceOnUse" id="color-2"><stop offset="0" stop-color="#000000"/><stop offset="1" stop-color="#363636"/></linearGradient><linearGradient x1="219.29585" y1="172.183" x2="218.99768" y2="169.77168" gradientUnits="userSpaceOnUse" id="color-3"><stop offset="0" stop-color="#000000"/><stop offset="1" stop-color="#363636"/></linearGradient><linearGradient x1="225.03507" y1="180.00685" x2="235.76972" y2="180.00685" gradientUnits="userSpaceOnUse" id="color-4"><stop offset="0" stop-color="#000000"/><stop offset="1" stop-color="#363636"/></linearGradient><linearGradient x1="229.49017" y1="179.20084" x2="235.61878" y2="179.20084" gradientUnits="userSpaceOnUse" id="color-5"><stop offset="0" stop-color="#6d6d6d" stop-opacity="0"/><stop offset="1" stop-color="#6d6d6d"/></linearGradient><linearGradient x1="229.41268" y1="185.30866" x2="235.54129" y2="185.30866" gradientUnits="userSpaceOnUse" id="color-6"><stop offset="0" stop-color="#6d6d6d" stop-opacity="0"/><stop offset="1" stop-color="#6d6d6d"/></linearGradient><linearGradient x1="243.77177" y1="184.25851" x2="243.77177" y2="188.41282" gradientUnits="userSpaceOnUse" id="color-7"><stop offset="0" stop-color="#ff2727"/><stop offset="1" stop-color="#fc5151"/></linearGradient><linearGradient x1="221.07635" y1="182.88856" x2="221.07635" y2="187.04287" gradientUnits="userSpaceOnUse" id="color-8"><stop offset="0" stop-color="#ff2727"/><stop offset="1" stop-color="#fc5151"/></linearGradient><linearGradient x1="203.62539" y1="182.16484" x2="203.62539" y2="186.31915" gradientUnits="userSpaceOnUse" id="color-9"><stop offset="0" stop-color="#ff2727"/><stop offset="1" stop-color="#fc5151"/></linearGradient></defs><g transform="translate(-198.4819,-159.20686)"><g data-paper-data="{&quot;isPaintingLayer&quot;:true}" fill-rule="nonzero" stroke-width="0" stroke-linecap="butt" stroke-linejoin="miter" stroke-miterlimit="10" stroke-dasharray="" stroke-dashoffset="0" style="mix-blend-mode: normal"><path d="M198.4902,180.26724c-0.18398,-5.24798 2.75124,-11.08006 2.75124,-11.08006l3.10484,-1.18676l0.14815,24.38676l-3.31313,-1.51036c0,0 -2.56738,-7.08015 -2.69112,-10.60958z" fill="#800000" stroke="#fff900"/><path d="M269.57322,159.20686z" fill="url(#color-1)" stroke="none"/><path d="M217.75683,189.47888l0.38303,-18.41251l15.81897,-3.30862l12.7908,0.10928c0,0 4.16219,2.85865 4.33407,11.18896c0.18449,8.9421 -3.90724,13.12253 -3.90724,13.12253l-13.21915,-0.18211z" data-paper-data="{&quot;index&quot;:null}" fill="#b50000" stroke="none"/><path d="M230.43388,179.82384c-0.01669,-7.32571 -2.90834,-9.80616 1.58933,-9.81573c1.48959,-0.00317 13.64171,0.1527 13.64171,0.1527c0,0 2.40044,0.98464 2.99883,2.11787c1.22266,2.31547 2.12781,4.22098 2.13532,7.51053c0.00656,2.88107 -0.5513,4.91863 -1.50425,7.09579c-0.71721,1.63859 -2.81859,3.02643 -2.81859,3.02643c0,0 -13.64742,0.00562 -15.04496,0.00859c-4.49767,0.00957 -0.98069,-2.77047 -0.9974,-10.09617z" data-paper-data="{&quot;index&quot;:null}" fill="#fd0000" stroke="#fff900"/><path d="M204.15756,192.28571c0,0 -4.09174,-4.22389 -3.90724,-13.25897c0.17187,-8.41692 4.33407,-11.3053 4.33407,-11.3053l11.37403,-0.09918l17.23573,2.2745l0.76608,19.94049l-17.23827,2.27524z" fill="#b50000" stroke="none"/><path d="M215.52283,179.49894c-0.01308,4.76597 4.21711,8.69792 0.69632,8.6917c-2.13613,-0.00377 -13.98366,2.50586 -13.98366,2.50586c0,0 -2.3828,-5.56069 -2.65462,-11.31241c-0.17875,-5.74052 2.99341,-10.49601 2.99341,-10.49601c0,0 11.61095,2.19051 13.55076,2.19394c3.52079,0.00622 -0.58916,3.65096 -0.60223,8.41693z" data-paper-data="{&quot;index&quot;:null}" fill="#fd0000" stroke="#fff900"/><path d="M209.022,186.61625c0,0 2.64389,0.41528 4.94315,0.75777c0.39493,0.05883 1.19379,0.16409 1.68828,0.2303c1.29803,0.17383 2.44769,0.31684 3.26814,0.42668c2.58885,0.29131 4.496,0.48835 5.42419,0.58614c2.65001,0.27921 4.52846,0.42547 4.52846,0.42547l-0.06472,0.97074c0,0 -8.15848,0.45847 -10.23408,0.21209c-2.09764,-0.25313 -4.01633,-0.55376 -4.78806,-0.68847c-2.34149,-0.40874 -5.01469,-1.0268 -5.01469,-1.0268l0.24935,-1.89392z" data-paper-data="{&quot;index&quot;:null}" fill="url(#color-2)" stroke="none"/><path d="M209.37646,173.38916l-0.24935,-1.89392c0,0 2.67321,-0.61807 5.01469,-1.0268c0.77173,-0.13471 2.69042,-0.43535 4.78806,-0.68847c2.0756,-0.24638 10.23408,0.21209 10.23408,0.21209l0.06472,0.97074c0,0 -1.87844,0.14626 -4.52846,0.42547c-0.92819,0.09779 -2.83534,0.29483 -5.42419,0.58614c-0.82045,0.10984 -1.9701,0.25285 -3.26814,0.42668c-0.49448,0.06621 -1.29335,0.17148 -1.68828,0.2303c-2.29926,0.34249 -4.94315,0.75777 -4.94315,0.75777z" fill="url(#color-3)" stroke="none"/><path d="M199.45878,182.04287c0,0 -0.09198,-1.50786 -0.09198,-2.21563c0,-0.70777 0.09198,-2.03099 0.09198,-2.03099h51.51413c0,0 0.09199,1.41554 0.09199,2.12331c0,0.70777 -0.09199,2.12331 -0.09199,2.12331z" fill="#ff8800" stroke="none"/><path d="M225.03509,170.0144l8.43939,-0.01505c0,0 1.28508,2.72886 1.82901,5.10281c0.17927,0.78243 0.47456,2.72351 0.46604,4.83637c-0.02634,2.09015 -0.33488,4.20595 -0.61805,5.64437c-0.66744,3.39034 -1.62261,4.4164 -1.62261,4.4164l-8.43939,0.01505c0,0 0.36033,-1.8822 0.54901,-4.54645c0.0661,-0.93318 0.219,-2.85009 0.322,-5.45513c-0.04419,-0.82773 -0.05828,-1.98625 -0.12842,-3.29581c-0.02671,-0.49887 -0.06234,-1.30462 -0.10973,-1.70378c-0.27587,-2.32392 -0.68726,-4.99879 -0.68726,-4.99879z" fill="url(#color-4)" stroke="none"/><path d="M213.78485,180.08272c2.29934,2.84296 0.83875,7.99326 0.83875,7.99326l-7.94168,-0.56435c0,0 -1.97425,-4.54926 -2.03014,-6.63931c-0.02966,-2.11281 1.43882,-7.35971 1.43882,-7.35971l7.84297,-1.58307c0,0 -1.09054,6.22125 -0.14873,8.15318z" data-paper-data="{&quot;index&quot;:null}" fill="#000000" stroke="none"/><path d="M233.71209,167.1318c0.00087,0.39204 0.29113,2.04481 -0.63185,2.04685c-0.47787,0.00105 -0.92156,-1.66515 -1.47153,-2.97686c-0.72128,-1.72027 -1.44151,-3.19855 -0.81481,-3.19993c1.10457,-0.00243 2.91294,1.74508 2.91819,4.12994z" fill="#fd0000" stroke="none"/><path d="M212.97044,187.95574c0,0 -0.73056,-1.53181 -1.35897,-4.52814c-0.46168,-2.20135 -0.43597,-3.30322 -0.44091,-4.18953c-0.00574,-1.03166 0.07431,-2.45325 0.62585,-4.33588c0.37935,-1.29485 0.99338,-2.79921 0.99338,-2.79921l12.55134,-2.03813c0,0 0.63359,6.77998 0.64677,9.80654c0.01549,3.55455 -0.5596,10.19262 -0.5596,10.19262z" fill="#fd0000" stroke="none"/><path d="M246.01632,170.71329c1.43572,0.30523 2.41601,1.41619 2.18955,2.4814c-0.22646,1.06521 -0.36931,-0.226 -1.80503,-0.53123c-1.43572,-0.30523 -3.62062,0.4911 -3.39416,-0.57411c0.22646,-1.06521 1.57392,-1.68129 3.00964,-1.37606z" fill="#ffffff" stroke="none"/><path d="M230.55905,197.16094c-0.6267,-0.00138 0.09353,-1.47966 0.81481,-3.19993c0.54997,-1.31171 0.99366,-2.97791 1.47153,-2.97686c0.92299,0.00204 0.63272,1.65481 0.63185,2.04685c-0.00525,2.38486 -1.81362,4.13237 -2.91819,4.12994z" data-paper-data="{&quot;index&quot;:null}" fill="#fd0000" stroke="none"/><path d="M229.49017,184.30802l0.12768,-5.23486l5.49021,-4.9795c0,0 0.41941,1.2064 0.63918,2.39197c0.19428,1.3978 0.05617,2.1829 0.05617,2.1829z" fill="url(#color-5)" stroke="none"/><path d="M229.96659,187.92325l-0.05696,-1.44982l5.76717,-5.44109l-0.04319,1.25142z" fill="url(#color-6)" stroke="none"/><path d="M211.45595,182.04287c0,0 -0.18013,-1.42341 -0.18013,-2.12331c0,-0.68452 0.18013,-2.031 0.18013,-2.031h14.40223c0,0 0.18013,1.27089 0.18013,1.93868c0,0.7139 -0.18013,2.21563 -0.18013,2.21563z" fill="#ff8800" stroke="none"/><path d="M235.09387,189.336l1.10782,-5.26213c0,0 4.70129,0.53765 6.82949,0.47935c2.34378,-0.06421 7.01821,-0.94094 7.01821,-0.94094c0,0 -0.47431,1.62347 -0.64615,2.25796c-0.2174,0.80268 -3.23121,3.55807 -3.23121,3.55807z" fill="url(#color-7)" stroke="none"/><path d="M243.15822,187.89529c-0.22646,-1.06521 1.75768,0.03227 3.1934,-0.27295c1.43572,-0.30523 1.77934,-1.89759 2.0058,-0.83238c0.22646,1.06521 -0.75383,2.17617 -2.18955,2.4814c-1.43572,0.30523 -2.78319,-0.31085 -3.00965,-1.37606z" data-paper-data="{&quot;index&quot;:null}" fill="#ffffff" stroke="none"/><path d="M213.137,187.50446l-0.92317,-4.43127c0,0 5.99374,0.16838 8.12194,0.11008c2.34378,-0.06421 4.8949,0.62847 4.8949,0.62847l-0.27695,5.26213c0,0 -3.25507,-0.89845 -5.59531,-1.4382c-2.27534,-0.26037 -6.22141,-0.13121 -6.22141,-0.13121z" fill="url(#color-8)" stroke="none"/><path d="M201.616,186.13451l-1.20406,-3.60041l3.78504,0.09232l1.36513,4.80054c0,0 -1.13124,0.11705 -2.07729,-0.4227c-0.91982,-0.26037 -1.86881,-0.86975 -1.86881,-0.86975z" fill="url(#color-9)" stroke="none"/><path d="M235.6626,182.79624v-0.36927h14.87881v0.36927z" fill="#ff8800" stroke="none"/><path d="M235.83242,177.42697v-0.36927h14.70978v0.36927z" fill="#ff8800" stroke="none"/></g></g></svg>