<svg version="1.1" xmlns="http://www.w3.org/2000/svg" xmlns:xlink="http://www.w3.org/1999/xlink" width="720" height="540" viewBox="0,0,720,540"><defs><linearGradient x1="235.5" y1="154.59374" x2="235.5" y2="205.40626" gradientUnits="userSpaceOnUse" id="color-1"><stop offset="0" stop-color="#fad000"/><stop offset="1" stop-color="#ffbc00"/></linearGradient><clipPath id="clip-1"><rect x="-240" y="-180" transform="scale(0.5,0.5)" width="1440" height="1080" fill="none" fill-rule="nonzero" stroke="none" stroke-width="0.5" stroke-linecap="butt"/></clipPath></defs><g transform="translate(120,90)"><g clip-path="url(#clip-1)" data-paper-data="{&quot;isPaintingLayer&quot;:true}" stroke-linejoin="miter" stroke-miterlimit="10" stroke-dasharray="" stroke-dashoffset="0" style="mix-blend-mode: normal"><path d="M294.13123,66.54855h114.45667v108.03149h-114.45666z" fill-opacity="0" fill="#000000" fill-rule="evenodd" stroke="none" stroke-width="1" stroke-linecap="square"/><path d="M229.35937,160.68748c0,-1.0625 0.03646,-1.85937 0.10938,-2.39062c0.07292,-0.53125 0.29167,-1.14583 0.65625,-1.84375c0.64583,-1.23958 2.44792,-1.85937 5.40625,-1.85937c3.23958,0 5.16146,0.85417 5.76563,2.5625c0.22917,0.78125 0.34375,1.98438 0.34375,3.60938v38.54688c0,1.10417 -0.03646,1.91146 -0.10937,2.42188c-0.0625,0.51042 -0.28125,1.10938 -0.65625,1.79688c-0.64583,1.25 -2.44792,1.875 -5.40625,1.875c-3.23958,0 -5.13542,-0.88021 -5.6875,-2.64062c-0.28125,-0.73958 -0.42187,-1.91667 -0.42187,-3.53125z" fill="#f9ea00" fill-rule="nonzero" stroke="url(#color-1)" stroke-width="6.5" stroke-linecap="square"/><path d="M234.73248,157.24032c-0.08514,0.69517 -1.02961,1.24067 -2.10955,1.2184c-1.07994,-0.02227 -1.88638,-0.60387 -1.80125,-1.29904c0.08514,-0.69517 1.02961,-1.24067 2.10955,-1.2184c1.07994,0.02227 1.88638,0.60387 1.80125,1.29904z" fill="#ffffff" fill-rule="nonzero" stroke="none" stroke-width="0" stroke-linecap="butt"/></g></g></svg>