<svg version="1.1" xmlns="http://www.w3.org/2000/svg" xmlns:xlink="http://www.w3.org/1999/xlink" width="23.95" height="23.95" viewBox="0,0,23.95,23.95"><g transform="translate(-227.9897,-168.0482)"><g data-paper-data="{&quot;isPaintingLayer&quot;:true}" fill-rule="nonzero" stroke="none" stroke-linejoin="miter" stroke-miterlimit="10" stroke-dasharray="" stroke-dashoffset="0" style="mix-blend-mode: normal"><path d="M248.4299,171.5581c2.1682,2.1671 3.5098,5.1609 3.5098,8.4651c0,3.3043 -1.3416,6.298 -3.5098,8.4652c-2.1672,2.1682 -5.1609,3.5098 -8.4652,3.5098c-3.3043,0 -6.298,-1.3416 -8.4652,-3.5098c-2.1682,-2.1672 -3.5098,-5.1609 -3.5098,-8.4652c0,-3.3042 1.3416,-6.298 3.5098,-8.4651c2.1672,-2.1683 5.1609,-3.5099 8.4652,-3.5099c3.3043,0 6.298,1.3416 8.4652,3.5099z" data-paper-data="{&quot;index&quot;:null}" fill="#5ec565" stroke-width="1.05973" stroke-linecap="butt"/><path d="M238.7794,191.95l-1.25,-0.1l-1.2,-0.3l-1.1,-0.45l-1.05,-0.45l-1.05,-0.7l-1,-0.75l-0.6,-0.65l-0.6,-0.7l-0.55,-0.65l-0.55,-0.85l-0.65,-1.2l-0.4,-1.15l-0.35,-0.9l7.8,-9l9.45,10.2z" data-paper-data="{&quot;index&quot;:null}" fill="#5ec565" stroke-width="1" stroke-linecap="round"/><path d="M243.4915,176.7199c0.937,0.9365 1.5168,2.2303 1.5168,3.6582c0,1.4279 -0.5798,2.7217 -1.5168,3.6582c-0.9365,0.937 -2.2303,1.5168 -3.6582,1.5168c-1.428,0 -2.7217,-0.5798 -3.6582,-1.5168c-0.937,-0.9365 -1.5168,-2.2303 -1.5168,-3.6582c0,-1.4279 0.5798,-2.7217 1.5168,-3.6582c0.9365,-0.937 2.2302,-1.5168 3.6582,-1.5168c1.4279,0 2.7217,0.5798 3.6582,1.5168z" data-paper-data="{&quot;index&quot;:null}" fill="#5ec565" stroke-width="0.45796" stroke-linecap="butt"/><path d="M243.8424,186.2752l-10.5269,-5.8431l10.5269,-6.3533z" data-paper-data="{&quot;index&quot;:null}" fill="#ffffff" stroke-width="0.92748" stroke-linecap="round"/><path d="M246.4924,186.2252l-10.5269,-5.8431l10.5269,-6.3533z" data-paper-data="{&quot;index&quot;:null}" fill="#5ec565" stroke-width="0.92748" stroke-linecap="round"/><path d="M243.8116,183.0074l-4.8751,-2.7061l4.8751,-2.9423z" data-paper-data="{&quot;index&quot;:null}" fill="#ffffff" stroke-width="0.42953" stroke-linecap="round"/></g></g></svg>