<svg version="1.1" xmlns="http://www.w3.org/2000/svg" xmlns:xlink="http://www.w3.org/1999/xlink" width="26.954" height="42.609" viewBox="0,0,26.954,42.609"><defs><linearGradient x1="239.9375" y1="166.3205" x2="239.9375" y2="197.5545" gradientUnits="userSpaceOnUse" id="color-1"><stop offset="0" stop-color="#000000"/><stop offset="1" stop-color="#000000" stop-opacity="0"/></linearGradient><linearGradient x1="239.9375" y1="166.3205" x2="239.9375" y2="197.5545" gradientUnits="userSpaceOnUse" id="color-2"><stop offset="0" stop-color="#000000"/><stop offset="1" stop-color="#000000" stop-opacity="0"/></linearGradient></defs><g transform="translate(-226.523,-158.6955)"><g data-paper-data="{&quot;isPaintingLayer&quot;:true}" fill-rule="nonzero" stroke-linecap="butt" stroke-linejoin="miter" stroke-miterlimit="10" stroke-dasharray="" stroke-dashoffset="0" style="mix-blend-mode: normal"><path d="M232.32,170.3985c-0.593,0 -1.083,-0.193 -1.468,-0.578c-0.386,-0.386 -0.579,-0.875 -0.579,-1.469c0,-0.583 0.193,-1.068 0.579,-1.453c0.385,-0.386 0.875,-0.578 1.468,-0.578h15.235c0.562,0 1.041,0.198 1.437,0.594c0.406,0.395 0.61,0.875 0.61,1.437c0,0.292 -0.094,0.651 -0.282,1.078l-12.812,27c-0.188,0.354 -0.453,0.63 -0.797,0.828c-0.344,0.198 -0.703,0.297 -1.078,0.297c-0.531,0 -1,-0.198 -1.406,-0.594c-0.396,-0.406 -0.594,-0.89 -0.594,-1.453c0,-0.364 0.12,-0.786 0.359,-1.265l11.485,-23.844z" fill="url(#color-1)" stroke="url(#color-2)" stroke-width="7.5"/><path d="M232.445,166.5235c-0.593,0 -1.083,-0.193 -1.468,-0.578c-0.386,-0.386 -0.579,-0.875 -0.579,-1.469c0,-0.583 0.193,-1.068 0.579,-1.453c0.385,-0.386 0.875,-0.578 1.468,-0.578h15.235c0.562,0 1.041,0.198 1.437,0.594c0.406,0.395 0.61,0.875 0.61,1.437c0,0.292 -0.094,0.651 -0.282,1.078l-12.812,27c-0.188,0.354 -0.453,0.63 -0.797,0.828c-0.344,0.198 -0.703,0.297 -1.078,0.297c-0.531,0 -1,-0.198 -1.406,-0.594c-0.396,-0.406 -0.594,-0.89 -0.594,-1.453c0,-0.364 0.12,-0.786 0.359,-1.265l11.485,-23.844z" fill="#ca6c00" stroke="#ffffff" stroke-width="7.5"/><path d="M232.445,166.5235c-0.593,0 -1.083,-0.193 -1.468,-0.578c-0.386,-0.386 -0.579,-0.875 -0.579,-1.469c0,-0.583 0.193,-1.068 0.579,-1.453c0.385,-0.386 0.875,-0.578 1.468,-0.578h15.235c0.562,0 1.041,0.198 1.437,0.594c0.406,0.395 0.61,0.875 0.61,1.437c0,0.292 -0.094,0.651 -0.282,1.078l-12.812,27c-0.188,0.354 -0.453,0.63 -0.797,0.828c-0.344,0.198 -0.703,0.297 -1.078,0.297c-0.531,0 -1,-0.198 -1.406,-0.594c-0.396,-0.406 -0.594,-0.89 -0.594,-1.453c0,-0.364 0.12,-0.786 0.359,-1.265l11.485,-23.844z" fill="#ca6c00" stroke="#ffffff" stroke-width="0"/></g></g></svg>