<svg version="1.1" xmlns="http://www.w3.org/2000/svg" xmlns:xlink="http://www.w3.org/1999/xlink" width="71.0913" height="37.95408" viewBox="0,0,71.0913,37.95408"><defs><linearGradient x1="341.58202" y1="46.516" x2="341.57952" y2="46.516" gradientUnits="userSpaceOnUse" id="color-1"><stop offset="0" stop-color="#7a727a"/><stop offset="1" stop-color="#211f21"/></linearGradient><linearGradient x1="218.94143" y1="187.82241" x2="218.64326" y2="190.23373" gradientUnits="userSpaceOnUse" id="color-2"><stop offset="0" stop-color="#000000"/><stop offset="1" stop-color="#363636"/></linearGradient><linearGradient x1="219.29588" y1="172.183" x2="218.99771" y2="169.77168" gradientUnits="userSpaceOnUse" id="color-3"><stop offset="0" stop-color="#000000"/><stop offset="1" stop-color="#363636"/></linearGradient><linearGradient x1="225.0351" y1="180.00685" x2="235.76975" y2="180.00685" gradientUnits="userSpaceOnUse" id="color-4"><stop offset="0" stop-color="#000000"/><stop offset="1" stop-color="#363636"/></linearGradient><linearGradient x1="229.4902" y1="179.20084" x2="235.61881" y2="179.20084" gradientUnits="userSpaceOnUse" id="color-5"><stop offset="0" stop-color="#6d6d6d" stop-opacity="0"/><stop offset="1" stop-color="#6d6d6d"/></linearGradient><linearGradient x1="229.41271" y1="185.30866" x2="235.54132" y2="185.30866" gradientUnits="userSpaceOnUse" id="color-6"><stop offset="0" stop-color="#6d6d6d" stop-opacity="0"/><stop offset="1" stop-color="#6d6d6d"/></linearGradient><linearGradient x1="218.72228" y1="183.07319" x2="218.72228" y2="189.07387" gradientUnits="userSpaceOnUse" id="color-7"><stop offset="0" stop-color="#8d76ff"/><stop offset="1" stop-color="#9f8cff"/></linearGradient><linearGradient x1="242.57168" y1="183.61228" x2="242.57168" y2="189.42831" gradientUnits="userSpaceOnUse" id="color-8"><stop offset="0" stop-color="#8d76ff"/><stop offset="1" stop-color="#9f8cff"/></linearGradient></defs><g transform="translate(-198.48192,-159.20686)"><g data-paper-data="{&quot;isPaintingLayer&quot;:true}" fill-rule="nonzero" stroke-linecap="butt" stroke-linejoin="miter" stroke-miterlimit="10" stroke-dasharray="" stroke-dashoffset="0" style="mix-blend-mode: normal"><path d="M198.49023,180.26724c-0.18398,-5.24798 2.75124,-11.08006 2.75124,-11.08006l3.10484,-1.18676l0.14815,24.38676l-3.31313,-1.51036c0,0 -2.56738,-7.08015 -2.69112,-10.60958z" fill="#2d2652" stroke="#fff900" stroke-width="0"/><path d="M269.57322,159.20686z" fill="url(#color-1)" stroke="none" stroke-width="0"/><path d="M217.75686,189.47888l0.38303,-18.41251l15.81897,-3.30862l12.7908,0.10928c0,0 4.16219,2.85865 4.33407,11.18896c0.18449,8.9421 -3.90724,13.12253 -3.90724,13.12253l-13.21915,-0.18211z" data-paper-data="{&quot;index&quot;:null}" fill="#514494" stroke="none" stroke-width="0"/><path d="M230.43391,179.82384c-0.01669,-7.32571 -2.90834,-9.80616 1.58933,-9.81573c1.67984,-0.00357 15.65902,-0.17488 15.65902,-0.17488c0,0 0.77527,0.7918 1.25848,1.70691c1.22266,2.31547 1.85086,4.95952 1.85837,8.24907c0.00656,2.88107 -0.5513,4.91863 -1.50425,7.09579c-0.24829,0.56727 -1.67698,3.25192 -1.67698,3.25192c0,0 -13.91863,-0.22172 -16.18657,-0.2169c-4.49767,0.00957 -0.98069,-2.77047 -0.9974,-10.09617z" data-paper-data="{&quot;index&quot;:null}" fill="#8067ff" stroke="#fff900" stroke-width="0"/><path d="M204.15759,192.28571c0,0 -4.09174,-4.22389 -3.90724,-13.25897c0.17187,-8.41692 4.33407,-11.3053 4.33407,-11.3053l11.37403,-0.09918l17.23573,2.2745l0.76608,19.94049l-17.23827,2.27524z" fill="#514494" stroke="none" stroke-width="0"/><path d="M209.02203,186.61625c0,0 2.64389,0.41528 4.94315,0.75777c0.39493,0.05883 1.19379,0.16409 1.68828,0.2303c1.29803,0.17383 2.44769,0.31684 3.26814,0.42668c2.58885,0.29131 4.496,0.48835 5.42419,0.58614c2.65001,0.27921 4.52846,0.42547 4.52846,0.42547l-0.06472,0.97074c0,0 -8.15848,0.45847 -10.23408,0.21209c-2.09764,-0.25313 -4.01633,-0.55376 -4.78806,-0.68847c-2.34149,-0.40874 -5.01469,-1.0268 -5.01469,-1.0268l0.24935,-1.89392z" data-paper-data="{&quot;index&quot;:null}" fill="url(#color-2)" stroke="none" stroke-width="0"/><path d="M209.37649,173.38916l-0.24935,-1.89392c0,0 2.67321,-0.61807 5.01469,-1.0268c0.77173,-0.13471 2.69042,-0.43535 4.78806,-0.68847c2.0756,-0.24638 10.23408,0.21209 10.23408,0.21209l0.06472,0.97074c0,0 -1.87844,0.14626 -4.52846,0.42547c-0.92819,0.09779 -2.83534,0.29483 -5.42419,0.58614c-0.82045,0.10984 -1.9701,0.25285 -3.26814,0.42668c-0.49448,0.06621 -1.29335,0.17148 -1.68828,0.2303c-2.29926,0.34249 -4.94315,0.75777 -4.94315,0.75777z" fill="url(#color-3)" stroke="none" stroke-width="0"/><path d="M215.43056,179.77589c-0.01308,4.76597 4.21711,8.69792 0.69632,8.6917c-2.13613,-0.00377 -13.98366,2.50586 -13.98366,2.50586c0,0 -2.3828,-5.56069 -2.65462,-11.31241c-0.17875,-5.74052 2.99341,-10.49601 2.99341,-10.49601c0,0 11.61095,2.19051 13.55076,2.19394c3.52079,0.00622 -0.58916,3.65096 -0.60223,8.41693z" data-paper-data="{&quot;index&quot;:null}" fill="#8067ff" stroke="#fff900" stroke-width="0"/><path d="M201.23364,188.55058c0,0 -1.73348,-4.79805 -1.86681,-8.72334c-0.1302,-3.83337 1.61326,-7.86257 1.61326,-7.86257c0,0 1.72218,5.83158 4.78182,5.83158c8.19439,0 45.21103,0 45.21103,0c0,0 0.09199,1.41554 0.09199,2.12331c0,0.70777 -0.09199,2.12331 -0.09199,2.12331c0,0 -36.78815,0 -45.042,0c-3.12875,0 -4.6973,6.50771 -4.6973,6.50771z" fill="#534699" stroke="none" stroke-width="0"/><path d="M225.03512,170.0144l8.43939,-0.01505c0,0 1.28508,2.72886 1.82901,5.10281c0.17927,0.78243 0.47456,2.72351 0.46604,4.83637c-0.02634,2.09015 -0.33488,4.20595 -0.61805,5.64437c-0.66744,3.39034 -1.62261,4.4164 -1.62261,4.4164l-8.43939,0.01505c0,0 0.36033,-1.8822 0.54901,-4.54645c0.0661,-0.93318 0.219,-2.85009 0.322,-5.45513c-0.04419,-0.82773 -0.05828,-1.98625 -0.12842,-3.29581c-0.02671,-0.49887 -0.06234,-1.30462 -0.10973,-1.70378c-0.27587,-2.32392 -0.68726,-4.99879 -0.68726,-4.99879z" fill="url(#color-4)" stroke="none" stroke-width="0"/><path d="M213.78488,180.08272c2.29934,2.84296 0.83875,7.99326 0.83875,7.99326l-7.94168,-0.56435c0,0 -1.97425,-5.22539 -2.03014,-7.31544c-0.02966,-2.11281 1.43882,-6.68358 1.43882,-6.68358l7.84297,-1.58307c0,0 -1.09054,6.22125 -0.14873,8.15318z" data-paper-data="{&quot;index&quot;:null}" fill="#000000" stroke="none" stroke-width="0"/><path d="M233.71212,167.1318c0.00087,0.39204 0.29113,2.04481 -0.63185,2.04685c-0.47787,0.00105 -0.92156,-1.66515 -1.47153,-2.97686c-0.72128,-1.72027 -1.44151,-3.19855 -0.81481,-3.19993c1.10457,-0.00243 2.91294,1.74508 2.91819,4.12994z" fill="#8067ff" stroke="none" stroke-width="0"/><path d="M212.97047,187.95574c0,0 -0.73056,-1.53181 -1.35897,-4.52814c-0.46168,-2.20135 -0.43597,-3.30322 -0.44091,-4.18953c-0.00574,-1.03166 0.07431,-2.45325 0.62585,-4.33588c0.37935,-1.29485 0.99338,-2.79921 0.99338,-2.79921l12.55134,-2.03813c0,0 0.63359,6.77998 0.64677,9.80654c0.01549,3.55455 -0.5596,10.19262 -0.5596,10.19262z" fill="#8067ff" stroke="none" stroke-width="0"/><path d="M230.55908,197.16094c-0.6267,-0.00138 0.09353,-1.47966 0.81481,-3.19993c0.54997,-1.31171 0.99366,-2.97791 1.47153,-2.97686c0.92299,0.00204 0.63272,1.65481 0.63185,2.04685c-0.00525,2.38486 -1.81362,4.13237 -2.91819,4.12994z" data-paper-data="{&quot;index&quot;:null}" fill="#8067ff" stroke="none" stroke-width="0"/><path d="M229.4902,184.30802l0.12768,-5.23486l5.49021,-4.9795c0,0 0.41941,1.2064 0.63918,2.39197c0.19428,1.3978 0.05617,2.1829 0.05617,2.1829z" fill="url(#color-5)" stroke="none" stroke-width="0"/><path d="M229.96662,187.92325l-0.05696,-1.44982l5.76717,-5.44109l-0.04319,1.25142z" fill="url(#color-6)" stroke="none" stroke-width="0"/><path d="M211.45598,182.04287c0,0 -0.18013,-1.42341 -0.18013,-2.12331c0,-0.68452 0.18013,-2.031 0.18013,-2.031h14.40223c0,0 0.18013,1.27089 0.18013,1.93868c0,0.7139 -0.18013,2.21563 -0.18013,2.21563z" fill="#534699" stroke="none" stroke-width="0"/><path d="M213.13703,187.50446l-0.92317,-4.43127c0,0 5.99374,0.16838 8.12194,0.11008c2.34378,-0.06421 4.8949,0.62847 4.8949,0.62847l-0.27695,5.26213c0,0 -3.25507,-0.89845 -5.59531,-1.4382c-2.27534,-0.26037 -6.22141,-0.13121 -6.22141,-0.13121z" fill="url(#color-7)" stroke="none" stroke-width="0"/><path d="M235.09392,189.336l1.10782,-5.26213c0,0 4.70129,0.53765 6.82949,0.47935c2.34378,-0.06421 7.01821,-0.94094 7.01821,-0.94094c0,0 -0.47431,1.62347 -0.64615,2.25796c-0.12077,0.44591 -1.10455,1.49445 -1.95521,2.33845c-0.68061,0.67527 -1.276,1.21962 -1.276,1.21962z" fill="url(#color-8)" stroke="none" stroke-width="0"/><path d="M235.83244,177.42697v-0.36927h15.04784v0.36927z" fill="#534699" stroke="none" stroke-width="0"/><path d="M235.66262,182.79624v-0.36927h15.04784v0.36927z" fill="#534699" stroke="none" stroke-width="0"/><path d="M203.64902,184.54061c0,0 -0.5071,-3.08136 -0.5071,-4.30013c0,-1.54477 0.5071,-4.23595 0.5071,-4.23595h0.59161c0,0 -0.50709,2.87688 -0.50709,4.23595c0,1.47654 0.50709,4.30013 0.50709,4.30013z" fill="#8067ff" stroke="none" stroke-width="0"/><path d="M202.56388,186.07547c0,0 -0.5071,-4.02712 -0.5071,-5.61998c0,-2.0189 0.5071,-5.53609 0.5071,-5.53609h0.59161c0,0 -0.50709,3.75988 -0.50709,5.53609c0,1.92974 0.50709,5.61998 0.50709,5.61998z" fill="#8067ff" stroke="none" stroke-width="0"/><path d="M201.7323,187.35677c0,0 -0.76065,-5.07844 -0.76065,-7.15397c0,-2.63069 0.67613,-7.12917 0.67613,-7.12917l0.50709,0.42258c0,0 -0.67613,4.39214 -0.67613,6.7066c0,2.5145 0.76065,7.15397 0.76065,7.15397z" fill="#8067ff" stroke="none" stroke-width="0"/><path d="M250.46487,176.18857c-0.25,0 -0.25,-0.25 -0.25,-0.25l0.00038,-0.28733c-0.15614,-1.39294 -0.48169,-3.11738 -1.5333,-4.15356c0,0 -0.17678,-0.17678 0,-0.35355c0.17678,-0.17678 0.35355,0 0.35355,0c1.13224,1.1458 1.51057,2.95111 1.67899,4.47947l0.00038,0.31498c0,0 0,0.25 -0.25,0.25z" fill="#ffffff" stroke="none" stroke-width="0.5"/><path d="M250.59529,183.94475l-0.00038,0.31498c-0.16842,1.52836 -0.54675,3.33366 -1.67899,4.47947c0,0 -0.17678,0.17677 -0.35356,0c-0.17677,-0.17677 0,-0.35356 0,-0.35356c1.05161,-1.03618 1.37717,-2.76062 1.53331,-4.15356l-0.00038,-0.28733c0,0 0,-0.25 0.25,-0.25c0.25,0 0.25,0.25 0.25,0.25z" data-paper-data="{&quot;index&quot;:null}" fill="#ffffff" stroke="none" stroke-width="0.5"/></g></g></svg>