<svg version="1.1" xmlns="http://www.w3.org/2000/svg" xmlns:xlink="http://www.w3.org/1999/xlink" width="50.32831" height="37.2445" viewBox="0,0,50.32831,37.2445"><g transform="translate(-205.10194,-158.53742)"><g data-paper-data="{&quot;isPaintingLayer&quot;:true}" fill-rule="nonzero" stroke-linecap="butt" stroke-linejoin="miter" stroke-miterlimit="10" stroke-dasharray="" stroke-dashoffset="0" style="mix-blend-mode: normal"><g stroke="#000000"><path d="M223.7856,171.21112c-4.40621,-0.02649 -7.96271,-2.61422 -7.94369,-5.77984c0.01904,-3.16563 0.35132,-5.42012 4.75752,-5.39363c2.16645,0.01303 8.31394,0.05073 9.74556,1.06637c1.48006,1.05001 1.92297,3.59143 1.91329,5.20057c-0.01904,3.16563 -4.06649,4.93303 -8.4727,4.90653z" fill="#662bc2" stroke-width="3"/><path d="M223.65862,166.56273c-4.40621,-0.02649 -7.96958,-1.47367 -7.959,-3.23235c0.01057,-1.75868 0.33683,-3.01033 4.74303,-2.98384c2.16645,0.01303 2.73979,-0.44788 4.17409,0.12021c0.77237,0.30591 1.60657,0.96685 1.71176,3.19216c0.10931,2.31278 -0.72734,1.9019 -0.72991,2.33022c-0.01057,1.75868 2.46625,0.60009 -1.93996,0.57358z" fill="#3a147c" stroke-width="0"/><path d="M223.94052,171.21207c-4.40621,-0.02649 -7.96271,-2.61422 -7.94369,-5.77984c0.01904,-3.16563 0.35132,-5.42012 4.75752,-5.39363c2.16645,0.01303 8.31394,0.05073 9.74556,1.06637c1.48006,1.05001 1.92297,3.59143 1.91329,5.20057c-0.01904,3.16563 -4.06649,4.93303 -8.4727,4.90653z" fill="none" stroke-width="3"/></g><path d="M226.27802,192.09852c-8.44284,-0.05078 -16.61867,0.40528 -19.24549,0.12553c-1.45049,-0.15447 -2.6861,-5.03311 -0.18908,-6.69612c1.20863,-0.80494 4.49795,-1.26995 6.26204,-1.3816c0.61842,-0.03913 1.08068,1.57251 1.12861,1.61211c0.02522,0.02084 0.1418,-1.76998 0.02775,-2.56479c-0.0873,-0.60829 0.0295,0.39257 0.03944,-0.07508c0.10092,-4.74614 -0.07523,-4.9096 -0.07293,-5.29362c0.00508,-0.84405 -6.29655,-1.66566 -7.56327,-2.61775c-2.34095,-1.7595 -0.66368,-5.52872 0.48673,-6.74709c3.19092,-3.37946 12.16331,-2.17201 18.50658,-2.13387c9.86763,0.05934 16.74319,6.64149 16.70272,13.37201c-0.04047,6.73052 -6.21545,12.4596 -16.08308,12.40027z" fill="#662bc2" stroke="#000000" stroke-width="3"/><path d="M221.16302,192.53253c0,0 -11.81349,-0.03058 -14.44033,-0.31033c-1.45049,-0.15447 -2.6861,-5.03311 -0.18908,-6.69612c1.20863,-0.80494 4.49795,-1.26995 6.26204,-1.3816c0.61842,-0.03913 1.08068,1.57251 1.12861,1.61211c0.02522,0.02084 0.1418,-1.76998 0.02775,-2.56479c-0.0873,-0.60829 0.0295,0.39257 0.03944,-0.07508c0.10092,-4.74614 -0.07523,-4.9096 -0.07293,-5.29362c0.00508,-0.84405 -6.29655,-1.66566 -7.56327,-2.61775c-2.34095,-1.7595 -0.66368,-5.52872 0.48673,-6.74709c3.19092,-3.37946 11.85442,-2.32879 18.19767,-2.29065c4.84591,0.02914 5.0478,1.34666 5.0478,1.34666c0,0 -8.06687,2.81335 -9.99041,4.76883c-4.08123,3.93389 -4.29364,7.07042 -3.51057,11.57434c1.31878,6.22945 4.57655,8.67509 4.57655,8.67509z" fill="#3a147c" stroke="#000000" stroke-width="0"/><path d="M225.96912,191.94174c-8.44284,-0.05078 -16.61867,0.40528 -19.24549,0.12553c-1.45049,-0.15447 -2.6861,-5.03311 -0.18908,-6.69612c1.20863,-0.80494 4.49795,-1.26995 6.26204,-1.3816c0.61842,-0.03913 1.08068,1.57251 1.12861,1.61211c0.02522,0.02084 0.1418,-1.76998 0.02775,-2.56479c-0.0873,-0.60829 0.0295,0.39257 0.03944,-0.07508c0.10092,-4.74614 -0.07523,-4.9096 -0.07293,-5.29362c0.00508,-0.84405 -6.29655,-1.66566 -7.56327,-2.61775c-2.34095,-1.7595 -0.66368,-5.52872 0.48673,-6.74709c3.19092,-3.37946 12.16331,-2.17201 18.50658,-2.13387c9.86763,0.05934 16.74319,6.64149 16.70272,13.37201c-0.04047,6.73052 -6.21545,12.4596 -16.08308,12.40027z" fill="none" stroke="#000000" stroke-width="3"/><path d="M226.28462,193.60217c-0.98858,-0.37813 -1.58443,-1.08962 -1.93589,-1.54333c-0.83009,-1.07154 -0.28709,-2.34161 -0.26416,-6.1559c0.00887,-1.47492 0.05103,-5.73368 0.36582,-6.9874c0.84398,-3.36129 2.79756,-3.18201 4.88511,-3.16946c1.69908,0.01022 3.05612,-0.57983 3.98843,1.81649c0.64041,1.64605 0.96508,12.20935 0.32993,14.29647c-2.03151,2.91484 -4.65001,2.78322 -7.36924,1.74312z" fill="#98c5d9" stroke="#000000" stroke-width="3"/><path d="M226.43581,194.22278c-0.98858,-0.37813 -1.58909,-0.31506 -1.94057,-0.76875c-0.83009,-1.07154 -0.28244,-3.1162 -0.2595,-6.93048c0.00887,-1.47492 0.05103,-5.73368 0.36582,-6.9874c0.84398,-3.36129 2.79756,-3.18201 4.88511,-3.16946c1.69908,0.01022 3.20731,0.04076 4.13962,2.43708c0.27059,0.69548 -3.44549,-0.32153 -4.67218,1.31145c-1.6766,2.23192 -1.26173,6.62747 -1.62852,7.83274c-0.64099,3.54289 1.82944,7.3149 -0.8898,6.27481z" fill="#4b6271" stroke="#000000" stroke-width="0"/><path d="M226.28462,193.60219c-0.98858,-0.37813 -1.58443,-1.08962 -1.93589,-1.54333c-0.83009,-1.07154 -0.28709,-2.34161 -0.26416,-6.1559c0.00887,-1.47492 0.05103,-5.73368 0.36582,-6.9874c0.84398,-3.36129 2.79756,-3.18201 4.88511,-3.16946c1.69908,0.01022 3.05612,-0.57983 3.98843,1.81649c0.64041,1.64605 0.96508,12.20935 0.32993,14.29647c-2.03151,2.91484 -4.65001,2.78322 -7.36924,1.74312z" fill="none" stroke="#000000" stroke-width="3"/><path d="M232.12551,192.3046c-0.63788,0.06983 -1.44536,1.03293 -1.59899,-0.37041c-0.15362,-1.40334 -0.64907,-3.59127 -0.01118,-3.66111c0.63788,-0.06983 1.236,-1.16585 1.38964,0.23748c0.15362,1.40334 0.85841,3.7242 0.22054,3.79403z" fill="#fcfafc" stroke="none" stroke-width="NaN"/><g><g stroke-width="1.5"><path d="M244.09306,181.11469c0.03445,-4.11765 2.81584,-9.99182 2.81584,-9.99182l5.60075,1.20606c0,0 -2.0774,2.8833 -3.12668,6.59356c-1.22878,4.34491 0.51812,8.7046 0.51812,8.7046c0,0 -5.08849,-2.21631 -5.80804,-6.5124z" data-paper-data="{&quot;index&quot;:null}" fill="#b5873b" stroke="#000000"/><path d="M245.41586,184.18784c0,0 1.45847,0.34145 2.13273,0.28896c0.52485,-0.04086 1.57804,-0.57782 1.57804,-0.57782l-0.60982,3.50532z" data-paper-data="{&quot;index&quot;:null}" fill="#362c22" stroke="none"/><path d="M247.32408,183.24467c-0.25706,-0.08609 -0.37698,-0.35111 -0.26784,-0.59193c0.10914,-0.24082 0.40601,-0.36626 0.66307,-0.28016c0.25706,0.08609 0.37699,0.3511 0.26784,0.59192c-0.10914,0.24082 -0.40602,0.36626 -0.66308,0.28017z" fill="#402b11" stroke="none"/><path d="M244.02719,181.26004c0.03445,-4.11765 2.81585,-9.99182 2.81585,-9.99182l5.60075,1.20606c0,0 -2.0774,2.8833 -3.12668,6.59356c-0.21465,0.75899 -0.3385,1.51842 -0.39671,2.25499c-0.27505,3.48001 0.91483,6.4496 0.91483,6.4496c0,0 -5.08849,-2.2163 -5.80804,-6.5124z" data-paper-data="{&quot;index&quot;:null}" fill="none" stroke="#000000"/><path d="M246.1477,180.05595c-0.08495,-0.28304 0.10116,-0.58903 0.41572,-0.68344c0.31455,-0.09442 0.63842,0.0585 0.72337,0.34154c0.08495,0.28304 -0.10116,0.58903 -0.41572,0.68344c-0.31455,0.09442 -0.63842,-0.0585 -0.72337,-0.34154z" fill="#402b11" stroke="none"/></g><g stroke-width="1.5"><path d="M239.93927,170.82154c-1.90349,-4.44304 1.41565,-8.71269 1.41565,-8.71269c0,0 1.09236,5.09985 4.63259,8.45598c3.02312,2.86591 6.41421,4.35942 6.41421,4.35942l-3.92237,4.38581c0,0 -5.09244,-3.00754 -7.51462,-6.84506z" data-paper-data="{&quot;index&quot;:null}" fill="#b5873b" stroke="#000000"/><path d="M240.29282,162.95959l2.5412,2.92939c0,0 -1.18156,0.1092 -1.63859,0.37604c-0.58712,0.3428 -1.52756,1.13625 -1.52756,1.13625z" data-paper-data="{&quot;index&quot;:null}" fill="#362c22" stroke="none"/><path d="M242.48546,167.58957c0.2301,0.16216 0.28516,0.48015 0.123,0.71024c-0.16216,0.2301 -0.48015,0.28516 -0.71025,0.123c-0.2301,-0.16216 -0.28516,-0.48015 -0.123,-0.71025c0.16216,-0.2301 0.48015,-0.28516 0.71025,-0.123z" fill="#402b11" stroke="none"/><path d="M240.4189,171.60234c-1.90349,-4.44304 1.00871,-9.47748 1.00871,-9.47748c0,0 0.74407,3.47374 2.99419,6.57405c0.47625,0.65621 1.01998,1.29567 1.6384,1.88194c3.02312,2.86591 6.41421,4.35942 6.41421,4.35942l-3.92236,4.3858c0,0 -5.71095,-3.88621 -8.13314,-7.72374z" data-paper-data="{&quot;index&quot;:null}" fill="none" stroke="#000000"/><path d="M243.05642,170.64326c0.31455,-0.09442 0.64608,0.08405 0.74049,0.3986c0.09442,0.31455 -0.08405,0.64608 -0.3986,0.74049c-0.31455,0.09442 -0.64608,-0.08404 -0.74049,-0.39859c-0.09442,-0.31455 0.08405,-0.64609 0.3986,-0.74049z" fill="#402b11" stroke="none"/></g><path d="M242.32562,173.06526c-4.67051,-1.24508 -6.83364,-6.64391 -6.83364,-6.64391c0,0 4.68655,2.28866 9.51229,1.57513c4.12085,-0.60931 7.38913,-2.35529 7.38913,-2.35529l1.02926,5.79318c0,0 -6.58272,2.09412 -11.09703,1.6309z" data-paper-data="{&quot;index&quot;:null}" fill="#b5873b" stroke="#000000" stroke-width="1.5"/><path d="M236.80164,167.9707l3.87331,-0.19098c0,0 -0.64344,0.99699 -0.71564,1.52128c-0.09273,0.6735 0.20531,2.1854 0.20531,2.1854z" data-paper-data="{&quot;index&quot;:null}" fill="#362c22" stroke="none" stroke-width="1.5"/><path d="M241.03829,168.94297c0.26961,-0.08093 0.55378,0.07204 0.63471,0.34165c0.08093,0.26961 -0.07203,0.55379 -0.34165,0.63471c-0.26961,0.08093 -0.55378,-0.07204 -0.63471,-0.34165c-0.08093,-0.26961 0.07204,-0.55378 0.34165,-0.63471z" fill="#402b11" stroke="none" stroke-width="1.5"/><path d="M242.1629,173.1141c-4.67051,-1.24508 -6.83364,-6.64391 -6.83364,-6.64391c0,0 3.19223,1.55891 7.02033,1.70243c0.81024,0.03038 1.64897,-0.00266 2.49196,-0.1273c4.12085,-0.60931 7.38913,-2.35529 7.38913,-2.35529l1.02926,5.79317c0,0 -6.58272,2.09412 -11.09703,1.6309z" data-paper-data="{&quot;index&quot;:null}" fill="none" stroke="#000000" stroke-width="1.5"/><path d="M248.36185,172.95335c0.22468,-0.06744 0.46148,0.06003 0.52892,0.28471c0.06744,0.22468 -0.06003,0.46148 -0.28471,0.52892c-0.22468,0.06744 -0.46148,-0.06003 -0.52892,-0.28471c-0.06744,-0.22468 0.06003,-0.46149 0.28471,-0.52893z" fill="#402b11" stroke="none" stroke-width="0"/><path d="M244.40708,170.41525c0.22468,-0.06744 0.46149,0.06003 0.52893,0.28471c0.06744,0.22468 -0.06003,0.46148 -0.28471,0.52892c-0.22468,0.06744 -0.46148,-0.06003 -0.52892,-0.28471c-0.06744,-0.22468 0.06003,-0.46148 0.28471,-0.52892z" fill="#402b11" stroke="none" stroke-width="0"/><path d="M241.5104,170.22036c0.31455,-0.09442 0.64608,0.08405 0.74049,0.3986c0.09442,0.31455 -0.08405,0.64608 -0.3986,0.74049c-0.31455,0.09442 -0.64608,-0.08405 -0.74049,-0.3986c-0.09442,-0.31455 0.08405,-0.64608 0.3986,-0.74049z" fill="#402b11" stroke="none" stroke-width="0"/><path d="M246.53909,171.90397c3.2453,-2.62526 6.29703,-5.61517 6.29703,-5.61517c0,0 1.44131,3.56022 1.10741,6.05354c-0.37784,2.82135 -1.03304,4.15132 -4.0105,6.87276c-1.21385,1.10948 -3.37027,2.5249 -4.98246,4.30978c-2.2371,2.47675 -3.81194,5.25529 -3.81194,5.25529c0,0 -1.23241,-4.61387 -0.76649,-8.394c0.32352,-2.62484 1.39837,-4.6247 6.16696,-8.48221z" fill="none" stroke="#000000" stroke-width="3"/><path d="M246.44141,171.57852c3.2453,-2.62526 6.29702,-5.61517 6.29702,-5.61517c0,0 1.44131,3.56022 1.10741,6.05354c-0.37784,2.82135 -1.03304,4.15132 -4.0105,6.87276c-1.21385,1.10948 -3.37026,2.5249 -4.98245,4.30977c-2.2371,2.47675 -3.81194,5.2553 -3.81194,5.2553c0,0 -1.23241,-4.61387 -0.76649,-8.394c0.32352,-2.62484 1.39837,-4.6247 6.16695,-8.48221z" fill="#ffe35a" stroke="#000000" stroke-width="1.5"/><path d="M245.71189,180.67514c-1.79843,2.04229 -3.92163,4.45111 -3.92163,4.45111c0,0 -1.24182,-2.95257 0.55661,-4.99486c1.79843,-2.04229 6.65534,-5.98118 6.65534,-5.98118c0,0 -1.49189,4.48264 -3.29032,6.52493z" fill="#d8b218" stroke="#000000" stroke-width="0"/><g stroke="none" stroke-width="0"><path d="M244.20822,179.24623c0.53923,-0.16186 1.10757,0.14408 1.26941,0.68331c0.16186,0.53923 -0.14408,1.10756 -0.68331,1.26941c-0.53923,0.16186 -1.10756,-0.14408 -1.26941,-0.68331c-0.16186,-0.53923 0.14408,-1.10757 0.68331,-1.26941z" fill="#402b11"/><path d="M247.62549,178.22054c0.26961,-0.08093 0.55378,0.07204 0.63471,0.34165c0.08093,0.26961 -0.07204,0.55378 -0.34165,0.63471c-0.26961,0.08093 -0.55378,-0.07204 -0.63471,-0.34165c-0.08093,-0.26961 0.07203,-0.55379 0.34165,-0.63471z" fill="#402b11"/><path d="M248.03194,175.43774c0.26961,-0.08093 0.55378,0.07204 0.63471,0.34165c0.08093,0.26961 -0.07204,0.55378 -0.34165,0.63471c-0.26961,0.08093 -0.55378,-0.07204 -0.63471,-0.34165c-0.08093,-0.26961 0.07204,-0.55378 0.34165,-0.63471z" fill="#402b11"/><path d="M245.50979,177.08169c0.44937,-0.13487 0.92297,0.12007 1.05784,0.56943c0.13487,0.44937 -0.12006,0.92297 -0.56942,1.05784c-0.44937,0.13487 -0.92297,-0.12007 -1.05785,-0.56942c-0.13487,-0.44937 0.12007,-0.92297 0.56942,-1.05785z" fill="#402b11"/><path d="M250.9447,174.20871c0.22468,-0.06744 0.46149,0.06003 0.52893,0.28471c0.06744,0.22468 -0.06003,0.46148 -0.28471,0.52892c-0.22468,0.06744 -0.46148,-0.06003 -0.52892,-0.28471c-0.06744,-0.22468 0.06003,-0.46148 0.28471,-0.52892z" fill="#402b11"/><path d="M240.72134,182.42146c0,0 0.93144,1.22762 1.49626,1.60602c0.43968,0.29456 1.61224,0.47653 1.61224,0.47653l-2.71728,2.76684z" fill="#362c22"/></g></g></g></g></svg>