<svg version="1.1" xmlns="http://www.w3.org/2000/svg" xmlns:xlink="http://www.w3.org/1999/xlink" width="720" height="540" viewBox="0,0,720,540"><defs><clipPath id="clip-1"><rect x="-240" y="-180" transform="scale(0.5,0.5)" width="1440" height="1080" fill="none" fill-rule="nonzero" stroke="none" stroke-width="0.5" stroke-linecap="butt" stroke-linejoin="miter"/></clipPath></defs><g transform="translate(120,90)"><g clip-path="url(#clip-1)" data-paper-data="{&quot;isPaintingLayer&quot;:true}" stroke-miterlimit="10" stroke-dasharray="" stroke-dashoffset="0" style="mix-blend-mode: normal"><path d="M-34.52493,52.62598h549.04987v254.74803h-549.04987z" fill-opacity="0" fill="#000000" fill-rule="evenodd" stroke="none" stroke-width="1" stroke-linecap="square" stroke-linejoin="miter"/><path d="M372.28873,163.68898v0c25.98703,0 50.9097,10.32331 69.28531,28.69892c18.37561,18.37561 28.69894,43.29829 28.69894,69.28532h-97.98425z" fill-opacity="0" fill="#000000" fill-rule="evenodd" stroke="none" stroke-width="1" stroke-linecap="square" stroke-linejoin="miter"/><path d="M372.28873,163.68898v0c25.98703,0 50.9097,10.32331 69.28531,28.69892c18.37561,18.37561 28.69894,43.29829 28.69894,69.28532" fill-opacity="0" fill="#000000" fill-rule="evenodd" stroke="none" stroke-width="1" stroke-linecap="square" stroke-linejoin="miter"/><path d="M229.28873,123.68898v0c25.98703,0 50.9097,10.32331 69.28531,28.69892c18.37561,18.37561 28.69894,43.29829 28.69894,69.28532" fill="none" fill-rule="evenodd" stroke="#000000" stroke-width="24" stroke-linecap="butt" stroke-linejoin="round"/></g></g></svg>