<svg version="1.1" xmlns="http://www.w3.org/2000/svg" xmlns:xlink="http://www.w3.org/1999/xlink" width="720" height="540" viewBox="0,0,720,540"><defs><clipPath id="clip-1"><rect x="-240" y="-180" transform="scale(0.5,0.5)" width="1440" height="1080" fill="none" fill-rule="nonzero" stroke="none" stroke-width="0.5" stroke-linecap="butt" stroke-linejoin="miter"/></clipPath></defs><g transform="translate(120,90)"><g clip-path="url(#clip-1)" data-paper-data="{&quot;isPaintingLayer&quot;:true}" stroke-miterlimit="10" stroke-dasharray="" stroke-dashoffset="0" style="mix-blend-mode: normal"><g data-paper-data="{&quot;index&quot;:null}" fill-rule="evenodd"><path d="M199.0866,139.36103v0c10.77155,0 21.10192,4.27898 28.71856,11.89561c7.61663,7.61664 11.89561,17.94701 11.89561,28.71856h-40.61417z" data-paper-data="{&quot;index&quot;:null}" fill-opacity="0" fill="#000000" stroke="none" stroke-width="1" stroke-linecap="square" stroke-linejoin="miter"/><path d="M199.0866,139.36103v0c10.77155,0 21.10192,4.27898 28.71856,11.89561c7.61663,7.61664 11.89561,17.94701 11.89561,28.71856" data-paper-data="{&quot;index&quot;:null}" fill-opacity="0" fill="#000000" stroke="none" stroke-width="1" stroke-linecap="square" stroke-linejoin="miter"/><path d="M199.0866,139.36103v0c10.77155,0 21.10192,4.27898 28.71856,11.89561c7.61663,7.61664 11.89561,17.94701 11.89561,28.71856" data-paper-data="{&quot;index&quot;:null}" fill="none" stroke="#514f51" stroke-width="24" stroke-linecap="butt" stroke-linejoin="round"/><path d="M188.44092,139.30328v0c0,-5.80116 4.76624,-10.50394 10.64568,-10.50394v0c2.82341,0 5.53117,1.10667 7.52763,3.07654c1.99644,1.96987 3.11804,4.64159 3.11804,7.4274v0c0,5.80116 -4.76622,10.50394 -10.64566,10.50394v0c-5.87944,0 -10.64568,-4.70277 -10.64568,-10.50394z" data-paper-data="{&quot;index&quot;:null}" fill="#000000" stroke="none" stroke-width="1" stroke-linecap="square" stroke-linejoin="miter"/><path d="M188.44092,139.30328v0c0,-5.80116 4.76624,-10.50394 10.64568,-10.50394v0c2.82341,0 5.53117,1.10667 7.52763,3.07654c1.99644,1.96987 3.11804,4.64159 3.11804,7.4274v0c0,5.80116 -4.76622,10.50394 -10.64566,10.50394v0c-5.87944,0 -10.64568,-4.70277 -10.64568,-10.50394z" data-paper-data="{&quot;index&quot;:null}" fill="#514f51" stroke="#514f51" stroke-width="3" stroke-linecap="butt" stroke-linejoin="round"/><path d="M229.21127,179.9752v0c0,-5.80116 4.76623,-10.50394 10.64567,-10.50394v0c2.82341,0 5.53118,1.10667 7.52763,3.07654c1.99645,1.96986 3.11804,4.64159 3.11804,7.4274v0c0,5.80117 -4.76623,10.50393 -10.64567,10.50393v0c-5.87944,0 -10.64567,-4.70276 -10.64567,-10.50393z" data-paper-data="{&quot;index&quot;:null}" fill="#000000" stroke="none" stroke-width="1" stroke-linecap="square" stroke-linejoin="miter"/><path d="M229.21127,179.9752v0c0,-5.80116 4.76623,-10.50394 10.64567,-10.50394v0c2.82341,0 5.53118,1.10667 7.52763,3.07654c1.99645,1.96986 3.11804,4.64159 3.11804,7.4274v0c0,5.80117 -4.76623,10.50393 -10.64567,10.50393v0c-5.87944,0 -10.64567,-4.70276 -10.64567,-10.50393z" data-paper-data="{&quot;index&quot;:null}" fill="#514f51" stroke="#514f51" stroke-width="3" stroke-linecap="butt" stroke-linejoin="round"/></g><g fill-rule="nonzero" stroke-linecap="butt" stroke-linejoin="miter"><path d="M206.20036,168.41119c0,-2.65808 2.15481,-4.81289 4.81289,-4.81289c2.65808,0 4.81288,2.15481 4.81288,4.81289c0,2.65808 -2.15481,4.81288 -4.81288,4.81288c-2.65808,0 -4.81289,-2.15481 -4.81289,-4.81288z" fill="#9966ff" stroke="#000000" stroke-width="1.5"/><g stroke="#000000" stroke-width="0"><path d="M206.12639,168.5651c0,0 0.09756,-1.14729 0.09756,-2.02922c0,-0.7847 1.17071,-1.73654 1.17071,-1.73654c0,0 0.67217,-0.97558 1.3343,-0.97558c0.89917,0 2.30238,-0.29267 2.30238,-0.29267v5.03402z" fill="#fdd200"/><path d="M211.00432,168.66266v-5.03402c0,0 1.4032,0.29267 2.30238,0.29267c0.66212,0 1.3343,0.97558 1.3343,0.97558c0,0 1.17071,0.95185 1.17071,1.73654c0,0.88193 0.09756,2.02922 0.09756,2.02922z" data-paper-data="{&quot;index&quot;:null}" fill="#feaa01"/><path d="M215.90926,168.21389c0,0 -0.09756,1.14729 -0.09756,2.02922c0,0.7847 -1.1707,1.73654 -1.1707,1.73654c0,0 -0.67217,0.97558 -1.3343,0.97558c-0.89918,0 -2.30238,0.29267 -2.30238,0.29267v-5.03402z" data-paper-data="{&quot;index&quot;:null}" fill="#fdc308"/><path d="M211.03134,168.21389v5.03402c0,0 -1.4032,-0.29267 -2.30238,-0.29267c-0.66212,0 -1.3343,-0.97558 -1.3343,-0.97558c0,0 -1.1707,-0.95185 -1.1707,-1.73654c0,-0.88193 -0.09756,-2.02922 -0.09756,-2.02922z" data-paper-data="{&quot;index&quot;:null}" fill="#ffdd00"/></g><path d="M208.91574,168.37867c0,-1.19434 0.96821,-2.16254 2.16255,-2.16254c1.19434,0 2.16254,0.9682 2.16254,2.16254c0,1.19434 -0.9682,2.16255 -2.16254,2.16255c-1.19434,0 -2.16255,-0.96821 -2.16255,-2.16255z" fill="#ff6703" stroke="#dc2a19" stroke-width="1"/><path d="M206.20036,168.36241c0,-2.68503 2.17664,-4.86166 4.86167,-4.86166c2.68503,0 4.86167,2.17664 4.86167,4.86167c0,2.68503 -2.17664,4.86167 -4.86166,4.86167c-2.68503,0 -4.86166,-2.17664 -4.86166,-4.86166z" fill="none" stroke="#feaa01" stroke-width="1.5"/></g><path d="M198.78873,138.85565v0c10.9581,0 21.46739,4.35309 29.21594,12.10164c7.74855,7.74855 12.10165,18.25784 12.10165,29.21594" data-paper-data="{&quot;index&quot;:null}" fill="none" fill-rule="evenodd" stroke="#5b595b" stroke-width="12" stroke-linecap="butt" stroke-linejoin="round"/><path d="M234.13001,190.72085v-10.63506h12v10.63506c0,0 -3.89157,1.65383 -5.94583,1.65383c-1.93908,0 -6.05417,-1.65383 -6.05417,-1.65383z" fill="#5b595b" fill-rule="nonzero" stroke="#646264" stroke-width="0" stroke-linecap="butt" stroke-linejoin="miter"/><path d="M188.2075,144.84967c0,0 -1.65366,-3.89494 -1.65366,-5.91493c0,-1.984 1.65366,-6.09896 1.65366,-6.09896h10.67251v12.01389z" data-paper-data="{&quot;index&quot;:null}" fill="#5b595b" fill-rule="nonzero" stroke="#646264" stroke-width="0" stroke-linecap="butt" stroke-linejoin="miter"/></g></g></svg>