<svg version="1.1" xmlns="http://www.w3.org/2000/svg" xmlns:xlink="http://www.w3.org/1999/xlink" width="59.82842" height="25.22077" viewBox="0,0,59.82842,25.22077"><g transform="translate(-228.025,-166.50427)"><g data-paper-data="{&quot;isPaintingLayer&quot;:true}" stroke="none" stroke-linejoin="miter" stroke-miterlimit="10" stroke-dasharray="" stroke-dashoffset="0" style="mix-blend-mode: normal"><path d="M250.16209,166.50428h37.69133v19.77471h-37.69133z" fill-opacity="0" fill="#000000" fill-rule="evenodd" stroke-width="1" stroke-linecap="square"/><path d="M255.89881,175.43832c-0.32958,0 -0.64028,-0.06351 -0.93209,-0.19053c-0.28839,-0.12702 -0.54243,-0.30383 -0.76215,-0.53042c-0.21628,-0.23002 -0.38622,-0.49266 -0.50982,-0.7879c-0.12359,-0.29869 -0.18538,-0.61795 -0.18538,-0.95784c0,-0.33644 0.06008,-0.65229 0.18024,-0.94754c0.12016,-0.29869 0.29009,-0.55959 0.50981,-0.78275c0.21972,-0.22659 0.47376,-0.4034 0.76215,-0.53042c0.29182,-0.13046 0.60423,-0.19568 0.93724,-0.19568c0.29525,0 0.56303,0.04291 0.80334,0.12874c0.24375,0.08583 0.47892,0.22316 0.70551,0.41198c0.03776,0.02747 0.05836,0.0618 0.0618,0.10299c0.00687,0.03776 0.00172,0.07381 -0.01545,0.10814c-0.01373,0.03432 -0.03777,0.06009 -0.0721,0.07725c-0.00687,0.03089 -0.02745,0.05494 -0.06179,0.0721c-0.03089,0.01717 -0.06867,0.02403 -0.11329,0.0206c-0.0412,-0.00687 -0.08239,-0.02574 -0.12359,-0.05665c-0.16136,-0.14076 -0.33644,-0.24375 -0.52526,-0.30899c-0.18881,-0.06867 -0.40853,-0.10299 -0.65915,-0.10299c-0.26435,0 -0.51325,0.05322 -0.7467,0.15964c-0.23002,0.10643 -0.43428,0.25234 -0.61281,0.43773c-0.17508,0.18195 -0.31241,0.39481 -0.41197,0.63856c-0.09956,0.24032 -0.14934,0.49608 -0.14934,0.7673c0,0.27808 0.04978,0.539 0.14934,0.78275c0.09956,0.24032 0.23689,0.45317 0.41197,0.63856c0.17853,0.18538 0.38279,0.3313 0.61281,0.43773c0.23345,0.10299 0.48236,0.15449 0.7467,0.15449c0.22658,0 0.43944,-0.03605 0.63856,-0.10814c0.20256,-0.07553 0.39481,-0.18367 0.57677,-0.32443c0.04807,-0.0412 0.09957,-0.05664 0.15449,-0.04634c0.05493,0.00687 0.10299,0.0309 0.14419,0.0721c0.0412,0.0412 0.0618,0.09441 0.0618,0.15964c0,0.03089 -0.00516,0.06008 -0.01545,0.08754c-0.0103,0.02747 -0.02746,0.05493 -0.0515,0.08239c-0.20942,0.19226 -0.44287,0.32958 -0.70035,0.41197c-0.25748,0.07896 -0.52699,0.11844 -0.8085,0.11844zM258.72379,175.37653c-0.06523,0 -0.12187,-0.02232 -0.16994,-0.06695c-0.04807,-0.04463 -0.07209,-0.10299 -0.07209,-0.17508v-4.32057c0,-0.06523 0.02402,-0.12187 0.07209,-0.16994c0.04807,-0.04806 0.10471,-0.07209 0.16994,-0.07209c0.06523,0 0.12187,0.02403 0.16994,0.07209c0.04807,0.04806 0.07208,0.10471 0.07208,0.16994v4.10944h2.39975c0.06523,0 0.12187,0.02232 0.16994,0.06694c0.04807,0.0412 0.0721,0.0944 0.0721,0.15964c0,0.06523 -0.02403,0.12016 -0.0721,0.16479c-0.04807,0.0412 -0.10471,0.0618 -0.16994,0.0618zM262.61591,175.37653c-0.06867,0 -0.12702,-0.02232 -0.17509,-0.06695c-0.04464,-0.04463 -0.06694,-0.10299 -0.06694,-0.17508v-4.32057c0,-0.06867 0.02232,-0.1253 0.06694,-0.16994c0.04807,-0.04806 0.10643,-0.07209 0.17509,-0.07209c0.06867,0 0.1253,0.02403 0.16994,0.07209c0.04807,0.04463 0.07209,0.10128 0.07209,0.16994v4.32057c0,0.07209 -0.02402,0.13046 -0.07209,0.17508c-0.04464,0.04463 -0.10128,0.06695 -0.16994,0.06695zM266.24091,175.43832c-0.32957,0 -0.64028,-0.06351 -0.93209,-0.19053c-0.28839,-0.12702 -0.54242,-0.30383 -0.76214,-0.53042c-0.21629,-0.23002 -0.38623,-0.49266 -0.50982,-0.7879c-0.12359,-0.29869 -0.18538,-0.61795 -0.18538,-0.95784c0,-0.33644 0.06008,-0.65229 0.18024,-0.94754c0.12016,-0.29869 0.2901,-0.55959 0.50982,-0.78275c0.21972,-0.22659 0.47377,-0.4034 0.76216,-0.53042c0.29181,-0.13046 0.60422,-0.19568 0.93723,-0.19568c0.29525,0 0.56304,0.04291 0.80335,0.12874c0.24375,0.08583 0.47891,0.22316 0.70549,0.41198c0.03776,0.02747 0.05836,0.0618 0.0618,0.10299c0.00687,0.03776 0.00172,0.07381 -0.01545,0.10814c-0.01373,0.03432 -0.03776,0.06009 -0.07209,0.07725c-0.00687,0.03089 -0.02746,0.05494 -0.0618,0.0721c-0.03089,0.01717 -0.06866,0.02403 -0.11329,0.0206c-0.0412,-0.00687 -0.08239,-0.02574 -0.12359,-0.05665c-0.16136,-0.14076 -0.33645,-0.24375 -0.52526,-0.30899c-0.18881,-0.06867 -0.40853,-0.10299 -0.65915,-0.10299c-0.26436,0 -0.51325,0.05322 -0.7467,0.15964c-0.23001,0.10643 -0.43429,0.25234 -0.61281,0.43773c-0.17509,0.18195 -0.31241,0.39481 -0.41197,0.63856c-0.09956,0.24032 -0.14934,0.49608 -0.14934,0.7673c0,0.27808 0.04978,0.539 0.14934,0.78275c0.09956,0.24032 0.23689,0.45317 0.41197,0.63856c0.17852,0.18538 0.38279,0.3313 0.61281,0.43773c0.23345,0.10299 0.48235,0.15449 0.7467,0.15449c0.22658,0 0.43944,-0.03605 0.63856,-0.10814c0.20256,-0.07553 0.39482,-0.18367 0.57677,-0.32443c0.04807,-0.0412 0.09956,-0.05664 0.15449,-0.04634c0.05493,0.00687 0.103,0.0309 0.14419,0.0721c0.0412,0.0412 0.0618,0.09441 0.0618,0.15964c0,0.03089 -0.00515,0.06008 -0.01545,0.08754c-0.0103,0.02747 -0.02746,0.05493 -0.05149,0.08239c-0.20942,0.19226 -0.44287,0.32958 -0.70036,0.41197c-0.25748,0.07896 -0.52698,0.11844 -0.80849,0.11844zM269.06588,175.37653c-0.06523,0 -0.12186,-0.02232 -0.16992,-0.06695c-0.04807,-0.04806 -0.0721,-0.10643 -0.0721,-0.17508v-4.32057c0,-0.06523 0.02403,-0.12187 0.0721,-0.16994c0.04807,-0.04806 0.1047,-0.07209 0.16992,-0.07209c0.06523,0 0.12187,0.02403 0.16994,0.07209c0.04807,0.04806 0.07209,0.10471 0.07209,0.16994v2.09076l2.24011,-2.24526c0.03433,-0.03089 0.06523,-0.05321 0.0927,-0.06695c0.03089,-0.01373 0.06351,-0.0206 0.09785,-0.0206c0.07552,0 0.13045,0.02403 0.16479,0.07209c0.03776,0.04463 0.05493,0.09956 0.05149,0.16479c0,0.06179 -0.02402,0.12017 -0.07208,0.17509l-1.68394,1.6891l1.69939,2.32249c0.03776,0.05149 0.05322,0.10815 0.04635,0.16994c-0.00344,0.05837 -0.02574,0.10815 -0.06694,0.14935c-0.0412,0.0412 -0.09098,0.0618 -0.14934,0.0618c-0.08927,0 -0.15621,-0.03433 -0.20085,-0.103l-1.67364,-2.26585l-0.54587,0.55616v1.57065c0,0.06867 -0.02402,0.12703 -0.07209,0.17508c-0.04807,0.04463 -0.10471,0.06695 -0.16994,0.06695zM276.04839,175.37653c-0.06523,0 -0.12187,-0.02232 -0.16994,-0.06695c-0.04464,-0.04806 -0.06694,-0.10643 -0.06694,-0.17508v-4.5626h0.47893v4.5626c0,0.06867 -0.02232,0.12703 -0.06695,0.17508c-0.04464,0.04463 -0.103,0.06695 -0.17509,0.06695zM274.35414,171.00961c-0.06523,0 -0.11845,-0.0206 -0.15963,-0.06179c-0.0412,-0.0412 -0.0618,-0.09269 -0.0618,-0.15449c0,-0.06523 0.0206,-0.11845 0.0618,-0.15965c0.0412,-0.0412 0.0944,-0.0618 0.15963,-0.0618h3.39878c0.06523,0 0.11844,0.0206 0.15964,0.0618c0.0412,0.0412 0.0618,0.09441 0.0618,0.15965c0,0.06179 -0.0206,0.11329 -0.0618,0.15449c-0.0412,0.0412 -0.09441,0.06179 -0.15964,0.06179zM280.59212,175.43832c-0.35362,0 -0.68148,-0.06179 -0.98358,-0.18538c-0.29868,-0.12359 -0.55788,-0.29525 -0.7776,-0.51496c-0.21972,-0.22315 -0.38966,-0.48408 -0.50982,-0.78276c-0.12016,-0.29869 -0.18023,-0.62654 -0.18023,-0.98358c0,-0.35361 0.06007,-0.67976 0.18023,-0.97843c0.12016,-0.29869 0.2901,-0.55788 0.50982,-0.77761c0.21972,-0.22315 0.47893,-0.39481 0.7776,-0.51497c0.30212,-0.12359 0.62998,-0.18539 0.98358,-0.18539c0.35362,0 0.67976,0.0618 0.97843,0.18539c0.29868,0.12016 0.55788,0.29181 0.77761,0.51497c0.22314,0.21972 0.39481,0.47892 0.51497,0.77761c0.12359,0.29869 0.18538,0.62483 0.18538,0.97843c0,0.35704 -0.0618,0.68491 -0.18538,0.98358c-0.12016,0.29869 -0.29182,0.5596 -0.51497,0.78276c-0.21972,0.21972 -0.47893,0.39137 -0.77761,0.51496c-0.29868,0.12359 -0.62482,0.18538 -0.97843,0.18538zM280.59212,174.98516c0.28495,0 0.54758,-0.04979 0.78789,-0.14935c0.24375,-0.10299 0.4549,-0.24547 0.63342,-0.42742c0.17852,-0.18195 0.31583,-0.39481 0.41196,-0.63856c0.09956,-0.24375 0.14935,-0.50981 0.14935,-0.79819c0,-0.28152 -0.04979,-0.54416 -0.14935,-0.7879c-0.09614,-0.24375 -0.23344,-0.4566 -0.41196,-0.63857c-0.17852,-0.18538 -0.38967,-0.32785 -0.63342,-0.42741c-0.24032,-0.09956 -0.50295,-0.14934 -0.78789,-0.14934c-0.28495,0 -0.54929,0.04978 -0.79304,0.14934c-0.24032,0.09956 -0.44975,0.24203 -0.62827,0.42741c-0.17852,0.18195 -0.31757,0.39482 -0.41712,0.63857c-0.09614,0.24375 -0.14419,0.50638 -0.14419,0.7879c0,0.28839 0.04805,0.55444 0.14419,0.79819c0.09956,0.24375 0.2386,0.4566 0.41712,0.63856c0.17852,0.18195 0.38795,0.32443 0.62827,0.42742c0.24375,0.09956 0.50809,0.14935 0.79304,0.14935z" fill="#ffffff" fill-rule="nonzero" stroke-width="1" stroke-linecap="square"/><path d="M257.08532,182.68905c-0.26091,0 -0.50465,-0.03776 -0.73125,-0.11329c-0.22314,-0.07553 -0.41712,-0.18195 -0.58191,-0.31928c-0.16136,-0.14076 -0.28495,-0.30384 -0.37078,-0.48922c-0.03432,-0.06523 -0.03604,-0.12531 -0.00515,-0.18024c0.03089,-0.05837 0.0841,-0.09613 0.15964,-0.11329c0.05492,-0.01717 0.10986,-0.01201 0.1648,0.01546c0.05836,0.02747 0.10127,0.07037 0.12874,0.12874c0.06179,0.12016 0.15106,0.2283 0.26778,0.32443c0.12016,0.09269 0.26263,0.16479 0.42742,0.21628c0.1648,0.05149 0.34503,0.07725 0.54071,0.07725c0.21629,0 0.40855,-0.03605 0.57677,-0.10815c0.16822,-0.07209 0.3004,-0.17681 0.39652,-0.31412c0.09614,-0.13733 0.14419,-0.30554 0.14419,-0.50466c0,-0.24719 -0.0927,-0.46003 -0.27809,-0.63856c-0.18195,-0.18195 -0.47033,-0.29869 -0.86514,-0.35019c-0.48064,-0.05494 -0.85656,-0.20255 -1.12778,-0.44287c-0.26778,-0.24032 -0.40167,-0.53557 -0.40167,-0.88575c0,-0.24719 0.06523,-0.46346 0.19568,-0.64885c0.13389,-0.18538 0.31756,-0.32786 0.55101,-0.42742c0.23688,-0.09956 0.50638,-0.14934 0.8085,-0.14934c0.22658,0 0.43086,0.03605 0.61282,0.10815c0.18538,0.06867 0.34674,0.16136 0.48406,0.27808c0.13732,0.11672 0.2489,0.24546 0.33473,0.38622c0.0412,0.06523 0.05493,0.12874 0.0412,0.19054c-0.01373,0.06179 -0.04978,0.10815 -0.10814,0.13904c-0.0618,0.03089 -0.12531,0.03605 -0.19054,0.01545c-0.0618,-0.0206 -0.10814,-0.06008 -0.13903,-0.11845c-0.0618,-0.09269 -0.13904,-0.18024 -0.23173,-0.26263c-0.0927,-0.08583 -0.20599,-0.15278 -0.33988,-0.20084c-0.13045,-0.05149 -0.28666,-0.07895 -0.46862,-0.08238c-0.32615,0 -0.58706,0.06866 -0.78276,0.20599c-0.19569,0.13733 -0.29352,0.33645 -0.29352,0.59736c0,0.14076 0.03604,0.2695 0.10814,0.38622c0.07552,0.11672 0.19741,0.218 0.36563,0.30383c0.17165,0.08239 0.39995,0.14419 0.68491,0.18539c0.51497,0.07209 0.89604,0.2283 1.14322,0.46861c0.24719,0.24032 0.37077,0.55273 0.37077,0.93724c0,0.22315 -0.03947,0.42056 -0.11845,0.59221c-0.07896,0.17165 -0.19226,0.31584 -0.33987,0.43257c-0.14419,0.11672 -0.31412,0.20599 -0.50982,0.26777c-0.19569,0.06179 -0.4034,0.09269 -0.62312,0.09269zM260.46164,182.62725c-0.05836,0 -0.10985,-0.01717 -0.15449,-0.05149c-0.0412,-0.03776 -0.07037,-0.08584 -0.08754,-0.14419l-1.26167,-4.26392c-0.02747,-0.09613 -0.02233,-0.1768 0.01545,-0.24203c0.0412,-0.06867 0.10471,-0.10299 0.19054,-0.10299c0.04807,0 0.0927,0.01373 0.13389,0.0412c0.04464,0.02747 0.07723,0.07552 0.09784,0.14418l1.13808,3.96009h-0.13904l1.07627,-3.85195c0.0103,-0.04806 0.03604,-0.08583 0.07724,-0.1133c0.04464,-0.02747 0.09441,-0.0412 0.14934,-0.0412c0.04807,0 0.09442,0.01373 0.13905,0.0412c0.04464,0.02403 0.07382,0.06351 0.08754,0.11845l1.08143,3.8468h-0.13904l1.14323,-3.98068c0.02747,-0.10986 0.10471,-0.16479 0.23174,-0.16479c0.08583,0 0.14419,0.03433 0.17508,0.10299c0.03433,0.06867 0.03948,0.14934 0.01545,0.24203l-1.25137,4.25878c-0.0206,0.06523 -0.0532,0.11502 -0.09784,0.14934c-0.0412,0.03432 -0.09098,0.05149 -0.14934,0.05149c-0.05836,0 -0.10985,-0.01717 -0.15449,-0.05149c-0.0412,-0.03776 -0.07037,-0.08583 -0.08754,-0.14419l-1.07114,-3.90345h0.14934l-1.06083,3.89829c-0.0206,0.06179 -0.05322,0.11158 -0.09784,0.14934c-0.0412,0.03432 -0.09097,0.05149 -0.14934,0.05149zM265.44123,182.62725c-0.06867,0 -0.12703,-0.02232 -0.17509,-0.06695c-0.04464,-0.04463 -0.06695,-0.10299 -0.06695,-0.17508v-4.32057c0,-0.06867 0.02232,-0.1253 0.06695,-0.16994c0.04807,-0.04806 0.10643,-0.07208 0.17509,-0.07208c0.06867,0 0.1253,0.02402 0.16994,0.07208c0.04807,0.04463 0.07208,0.10128 0.07208,0.16994v4.32057c0,0.07209 -0.02402,0.13045 -0.07208,0.17508c-0.04464,0.04463 -0.10128,0.06695 -0.16994,0.06695zM268.3041,182.62725c-0.06523,0 -0.12187,-0.02232 -0.16993,-0.06695c-0.04464,-0.04806 -0.06694,-0.10642 -0.06694,-0.17508v-4.5626h0.47891v4.5626c0,0.06867 -0.02232,0.12702 -0.06694,0.17508c-0.04464,0.04463 -0.10299,0.06695 -0.17509,0.06695zM266.60985,178.26035c-0.06523,0 -0.11846,-0.0206 -0.15965,-0.0618c-0.0412,-0.0412 -0.06179,-0.09269 -0.06179,-0.15449c0,-0.06523 0.0206,-0.11845 0.06179,-0.15964c0.0412,-0.0412 0.09442,-0.0618 0.15965,-0.0618h3.39878c0.06523,0 0.11846,0.02061 0.15965,0.0618c0.0412,0.0412 0.0618,0.09441 0.0618,0.15964c0,0.06179 -0.02061,0.11329 -0.0618,0.15449c-0.0412,0.0412 -0.09442,0.0618 -0.15965,0.0618zM272.78603,182.68905c-0.32957,0 -0.64027,-0.06351 -0.93208,-0.19053c-0.28839,-0.12702 -0.54243,-0.30383 -0.76215,-0.53042c-0.21629,-0.23002 -0.38623,-0.49266 -0.50982,-0.78789c-0.12359,-0.29869 -0.18538,-0.61796 -0.18538,-0.95784c0,-0.33644 0.06007,-0.65228 0.18023,-0.94753c0.12016,-0.29869 0.2901,-0.5596 0.50982,-0.78276c0.21972,-0.22659 0.47377,-0.4034 0.76215,-0.53042c0.29181,-0.13046 0.60422,-0.1957 0.93723,-0.1957c0.29525,0 0.56302,0.04291 0.80334,0.12874c0.24375,0.08583 0.47893,0.22315 0.70551,0.41197c0.03776,0.02747 0.05836,0.06179 0.0618,0.10299c0.00687,0.03776 0.00171,0.07382 -0.01546,0.10815c-0.01373,0.03432 -0.03776,0.06009 -0.07209,0.07725c-0.00687,0.03089 -0.02745,0.05492 -0.06179,0.07208c-0.03089,0.01717 -0.06867,0.02403 -0.1133,0.0206c-0.0412,-0.00687 -0.08238,-0.02575 -0.12358,-0.05665c-0.16136,-0.14076 -0.33644,-0.24375 -0.52526,-0.30898c-0.18881,-0.06867 -0.40854,-0.103 -0.65916,-0.103c-0.26436,0 -0.51326,0.05322 -0.74671,0.15965c-0.23001,0.10643 -0.43429,0.25233 -0.6128,0.43773c-0.17509,0.18195 -0.3124,0.39481 -0.41196,0.63856c-0.09956,0.24032 -0.14934,0.49609 -0.14934,0.76731c0,0.27808 0.04978,0.539 0.14934,0.78275c0.09956,0.24032 0.23688,0.45317 0.41196,0.63856c0.17852,0.18538 0.38279,0.3313 0.6128,0.43773c0.23345,0.10299 0.48236,0.15449 0.74671,0.15449c0.22658,0 0.43944,-0.03604 0.63856,-0.10815c0.20256,-0.07553 0.39481,-0.18366 0.57677,-0.32442c0.04807,-0.0412 0.09957,-0.05665 0.15449,-0.04635c0.05493,0.00687 0.10299,0.03089 0.14419,0.07209c0.0412,0.0412 0.0618,0.09441 0.0618,0.15965c0,0.03089 -0.00515,0.06007 -0.01545,0.08754c-0.0103,0.02747 -0.02746,0.05494 -0.05149,0.08239c-0.20942,0.19226 -0.44288,0.32958 -0.70036,0.41197c-0.25748,0.07896 -0.52697,0.11845 -0.80849,0.11845zM275.611,182.62725c-0.06867,0 -0.12702,-0.02232 -0.17509,-0.06695c-0.04464,-0.04463 -0.06694,-0.10299 -0.06694,-0.17508v-4.32057c0,-0.06867 0.02232,-0.1253 0.06694,-0.16994c0.04807,-0.04806 0.10643,-0.07208 0.17509,-0.07208c0.06867,0 0.1253,0.02402 0.16994,0.07208c0.04807,0.04463 0.07209,0.10128 0.07209,0.16994v1.92083h2.9971v-1.92083c0,-0.06867 0.02232,-0.1253 0.06695,-0.16994c0.04464,-0.04806 0.10299,-0.07208 0.17509,-0.07208c0.06867,0 0.12531,0.02402 0.16993,0.07208c0.04464,0.04463 0.06694,0.10128 0.06694,0.16994v4.32057c0,0.07209 -0.02232,0.13045 -0.06694,0.17508c-0.04464,0.04463 -0.10128,0.06695 -0.16993,0.06695c-0.07209,0 -0.13045,-0.02232 -0.17509,-0.06695c-0.04464,-0.04463 -0.06695,-0.10299 -0.06695,-0.17508v-1.97233h-2.9971v1.97233c0,0.07209 -0.02403,0.13045 -0.07209,0.17508c-0.04464,0.04463 -0.10128,0.06695 -0.16994,0.06695z" fill="#ffffff" fill-rule="nonzero" stroke-width="1" stroke-linecap="square"/><path d="M255.21906,189.93979c-0.26091,0 -0.50466,-0.03777 -0.73126,-0.11329c-0.22315,-0.07553 -0.41712,-0.18195 -0.58192,-0.31928c-0.16136,-0.14076 -0.28495,-0.30384 -0.37078,-0.48922c-0.03432,-0.06523 -0.03604,-0.1253 -0.00515,-0.18024c0.03089,-0.05837 0.08411,-0.09612 0.15964,-0.11329c0.05494,-0.01717 0.10986,-0.01202 0.16479,0.01545c0.05837,0.02747 0.10127,0.07037 0.12874,0.12874c0.06179,0.12016 0.15106,0.2283 0.26778,0.32442c0.12016,0.09269 0.26263,0.16479 0.42742,0.21628c0.16479,0.05149 0.34503,0.07725 0.54071,0.07725c0.21628,0 0.40855,-0.03604 0.57676,-0.10815c0.16822,-0.07209 0.30041,-0.17681 0.39653,-0.31412c0.09614,-0.13733 0.14418,-0.30555 0.14418,-0.50467c0,-0.24719 -0.09269,-0.46003 -0.27808,-0.63856c-0.18195,-0.18195 -0.47033,-0.29868 -0.86514,-0.35017c-0.48064,-0.05494 -0.85656,-0.20256 -1.12778,-0.44288c-0.26778,-0.24032 -0.40168,-0.53556 -0.40168,-0.88574c0,-0.24719 0.06524,-0.46347 0.1957,-0.64885c0.13389,-0.18538 0.31756,-0.32787 0.55101,-0.42742c0.23689,-0.09956 0.50638,-0.14934 0.80849,-0.14934c0.22658,0 0.43086,0.03605 0.61281,0.10815c0.18538,0.06867 0.34675,0.16137 0.48407,0.27809c0.13732,0.11672 0.2489,0.24546 0.33472,0.38622c0.0412,0.06523 0.05493,0.12874 0.0412,0.19053c-0.01373,0.06179 -0.04978,0.10815 -0.10814,0.13905c-0.0618,0.03089 -0.12531,0.03604 -0.19054,0.01545c-0.0618,-0.0206 -0.10814,-0.06008 -0.13903,-0.11844c-0.0618,-0.09269 -0.13904,-0.18024 -0.23173,-0.26263c-0.0927,-0.08583 -0.206,-0.15278 -0.33989,-0.20084c-0.13046,-0.05149 -0.28667,-0.07896 -0.46863,-0.08239c-0.32614,0 -0.58706,0.06866 -0.78275,0.20598c-0.19569,0.13733 -0.29352,0.33644 -0.29352,0.59735c0,0.14076 0.03603,0.2695 0.10814,0.38623c0.07553,0.11672 0.19741,0.218 0.36562,0.30383c0.17165,0.08239 0.39996,0.14419 0.68491,0.18539c0.51496,0.07209 0.89604,0.22829 1.14322,0.46861c0.24719,0.24032 0.37078,0.55273 0.37078,0.93724c0,0.22315 -0.03947,0.42056 -0.11845,0.59221c-0.07896,0.17165 -0.19226,0.31584 -0.33988,0.43257c-0.14419,0.11672 -0.31412,0.206 -0.50982,0.26778c-0.19569,0.06179 -0.4034,0.09269 -0.62312,0.09269zM260.03104,189.93979c-0.35362,0 -0.68147,-0.0618 -0.98359,-0.18539c-0.29868,-0.12359 -0.55787,-0.29525 -0.7776,-0.51497c-0.21972,-0.22315 -0.38966,-0.48407 -0.50981,-0.78275c-0.12016,-0.29869 -0.18023,-0.62654 -0.18023,-0.98358c0,-0.35361 0.06008,-0.67976 0.18023,-0.97844c0.12016,-0.29869 0.29009,-0.55787 0.50981,-0.7776c0.21972,-0.22315 0.47892,-0.39481 0.7776,-0.51496c0.30212,-0.12359 0.62998,-0.18539 0.98359,-0.18539c0.35362,0 0.67976,0.0618 0.97843,0.18539c0.29868,0.12016 0.55787,0.29181 0.7776,0.51496c0.22314,0.21972 0.3948,0.47892 0.51496,0.7776c0.12359,0.29869 0.1854,0.62483 0.1854,0.97844c0,0.35704 -0.06181,0.68491 -0.1854,0.98358c-0.12016,0.29869 -0.29181,0.5596 -0.51496,0.78275c-0.21972,0.21972 -0.47892,0.39138 -0.7776,0.51497c-0.29868,0.12359 -0.62482,0.18539 -0.97843,0.18539zM260.03104,189.48661c0.28495,0 0.54758,-0.04978 0.78789,-0.14934c0.24375,-0.10299 0.45489,-0.24547 0.63341,-0.42742c0.17852,-0.18195 0.31585,-0.39481 0.41197,-0.63856c0.09956,-0.24375 0.14935,-0.50982 0.14935,-0.7982c0,-0.28152 -0.04979,-0.54415 -0.14935,-0.78789c-0.09614,-0.24375 -0.23345,-0.4566 -0.41197,-0.63856c-0.17852,-0.18538 -0.38966,-0.32786 -0.63341,-0.42742c-0.24032,-0.09956 -0.50295,-0.14934 -0.78789,-0.14934c-0.28495,0 -0.5493,0.04978 -0.79305,0.14934c-0.24032,0.09956 -0.44974,0.24204 -0.62826,0.42742c-0.17852,0.18195 -0.31756,0.39481 -0.41712,0.63856c-0.09614,0.24375 -0.14419,0.50638 -0.14419,0.78789c0,0.28839 0.04807,0.55445 0.14419,0.7982c0.09956,0.24375 0.23861,0.45659 0.41712,0.63856c0.17852,0.18195 0.38795,0.32443 0.62826,0.42742c0.24375,0.09956 0.5081,0.14934 0.79305,0.14934zM263.71652,189.87799c-0.06867,0 -0.12703,-0.02232 -0.17509,-0.06694c-0.04464,-0.04463 -0.06694,-0.103 -0.06694,-0.17509v-4.32056c0,-0.06867 0.02232,-0.1253 0.06694,-0.16993c0.04807,-0.04806 0.10643,-0.0721 0.17509,-0.0721c0.07209,0 0.13389,0.02918 0.18538,0.08754l2.94045,3.86225v-3.70775c0,-0.06867 0.02233,-0.1253 0.06696,-0.16993c0.04464,-0.04806 0.10127,-0.0721 0.16992,-0.0721c0.06523,0 0.12187,0.02403 0.16994,0.0721c0.04807,0.04463 0.0721,0.10127 0.0721,0.16993v4.32056c0,0.07209 -0.02403,0.13046 -0.0721,0.17508c-0.04807,0.04463 -0.10471,0.06695 -0.16994,0.06695c-0.03089,0 -0.06351,-0.00514 -0.09784,-0.01544c-0.03433,-0.01373 -0.0618,-0.03605 -0.08239,-0.06695l-2.94046,-3.85711v3.69746c0,0.07209 -0.02402,0.13046 -0.07209,0.17508c-0.04807,0.04463 -0.10471,0.06694 -0.16994,0.06694zM270.70488,189.93979c-0.32957,0 -0.64028,-0.06352 -0.93209,-0.19054c-0.28839,-0.12702 -0.54243,-0.30383 -0.76215,-0.53042c-0.21629,-0.23002 -0.38623,-0.49265 -0.50982,-0.78789c-0.12359,-0.29869 -0.18538,-0.61795 -0.18538,-0.95784c0,-0.33644 0.06009,-0.65229 0.18024,-0.94754c0.12016,-0.29869 0.29009,-0.5596 0.50981,-0.78275c0.21972,-0.22659 0.47376,-0.40339 0.76215,-0.53042c0.29181,-0.13046 0.60423,-0.19568 0.93724,-0.19568c0.29525,0 0.56302,0.04291 0.80334,0.12874c0.24375,0.08583 0.47893,0.22315 0.70551,0.41197c0.03776,0.02747 0.05835,0.0618 0.06179,0.10299c0.00687,0.03776 0.00172,0.07382 -0.01545,0.10815c-0.01373,0.03432 -0.03776,0.06008 -0.07209,0.07724c-0.00687,0.03089 -0.02745,0.05494 -0.06179,0.0721c-0.03089,0.01717 -0.06867,0.02402 -0.11329,0.0206c-0.0412,-0.00687 -0.08239,-0.02575 -0.12359,-0.05666c-0.16136,-0.14076 -0.33644,-0.24374 -0.52526,-0.30898c-0.18881,-0.06867 -0.40853,-0.103 -0.65915,-0.103c-0.26436,0 -0.51326,0.05322 -0.74671,0.15965c-0.23001,0.10643 -0.43429,0.25234 -0.61281,0.43772c-0.17509,0.18195 -0.31241,0.39482 -0.41197,0.63857c-0.09956,0.24032 -0.14934,0.49608 -0.14934,0.76729c0,0.27808 0.04978,0.53901 0.14934,0.78276c0.09956,0.24032 0.23689,0.45317 0.41197,0.63856c0.17852,0.18538 0.38279,0.3313 0.61281,0.43773c0.23345,0.10299 0.48236,0.15449 0.74671,0.15449c0.22658,0 0.43944,-0.03604 0.63856,-0.10815c0.20256,-0.07553 0.39481,-0.18367 0.57677,-0.32443c0.04807,-0.0412 0.09957,-0.05664 0.15449,-0.04634c0.05493,0.00687 0.10299,0.03089 0.14419,0.07209c0.0412,0.0412 0.0618,0.09441 0.0618,0.15964c0,0.03089 -0.00516,0.06009 -0.01546,0.08755c-0.00687,0.02747 -0.02403,0.05492 -0.0515,0.08239c-0.20942,0.19226 -0.44288,0.32958 -0.70036,0.41197c-0.25748,0.07896 -0.52697,0.11845 -0.80849,0.11845zM272.28067,189.23942l-0.46862,-0.09784v-1.23593h-0.95785c-0.06867,0 -0.1253,-0.0206 -0.16993,-0.06179c-0.04464,-0.0412 -0.06695,-0.09269 -0.06695,-0.15449c0,-0.06179 0.02232,-0.11158 0.06695,-0.14934c0.04464,-0.0412 0.10127,-0.06179 0.16993,-0.06179h1.18958c0.06867,0 0.1253,0.02232 0.16994,0.06695c0.04464,0.0412 0.06694,0.09784 0.06694,0.16993zM274.76576,189.93979c-0.26091,0 -0.50466,-0.03777 -0.73126,-0.11329c-0.22314,-0.07553 -0.41711,-0.18195 -0.58191,-0.31928c-0.16136,-0.14076 -0.28495,-0.30384 -0.37078,-0.48922c-0.03433,-0.06523 -0.03604,-0.1253 -0.00515,-0.18024c0.03089,-0.05837 0.08411,-0.09612 0.15965,-0.11329c0.05493,-0.01717 0.10986,-0.01202 0.16479,0.01545c0.05836,0.02747 0.10127,0.07037 0.12874,0.12874c0.0618,0.12016 0.15106,0.2283 0.26778,0.32442c0.12016,0.09269 0.26263,0.16479 0.42742,0.21628c0.1648,0.05149 0.34503,0.07725 0.54072,0.07725c0.21629,0 0.40853,-0.03604 0.57676,-0.10815c0.16822,-0.07209 0.3004,-0.17681 0.39653,-0.31412c0.09614,-0.13733 0.14419,-0.30555 0.14419,-0.50467c0,-0.24719 -0.0927,-0.46003 -0.27808,-0.63856c-0.18195,-0.18195 -0.47034,-0.29868 -0.86515,-0.35017c-0.48064,-0.05494 -0.85656,-0.20256 -1.12777,-0.44288c-0.26778,-0.24032 -0.40168,-0.53556 -0.40168,-0.88574c0,-0.24719 0.06522,-0.46347 0.19569,-0.64885c0.13389,-0.18538 0.31757,-0.32787 0.55102,-0.42742c0.23688,-0.09956 0.50637,-0.14934 0.80849,-0.14934c0.22658,0 0.43086,0.03605 0.61281,0.10815c0.18538,0.06867 0.34674,0.16137 0.48406,0.27809c0.13732,0.11672 0.2489,0.24546 0.33473,0.38622c0.0412,0.06523 0.05494,0.12874 0.0412,0.19053c-0.01373,0.06179 -0.04978,0.10815 -0.10814,0.13905c-0.0618,0.03089 -0.12531,0.03604 -0.19054,0.01545c-0.0618,-0.0206 -0.10815,-0.06008 -0.13904,-0.11844c-0.0618,-0.09269 -0.13904,-0.18024 -0.23173,-0.26263c-0.0927,-0.08583 -0.20598,-0.15278 -0.33988,-0.20084c-0.13045,-0.05149 -0.28667,-0.07896 -0.46861,-0.08239c-0.32615,0 -0.58706,0.06866 -0.78276,0.20598c-0.19569,0.13733 -0.29353,0.33644 -0.29353,0.59735c0,0.14076 0.03604,0.2695 0.10814,0.38623c0.07552,0.11672 0.19741,0.218 0.36563,0.30383c0.17165,0.08239 0.39995,0.14419 0.68491,0.18539c0.51497,0.07209 0.89605,0.22829 1.14322,0.46861c0.24719,0.24032 0.37077,0.55273 0.37077,0.93724c0,0.22315 -0.03948,0.42056 -0.11844,0.59221c-0.07896,0.17165 -0.19226,0.31584 -0.33988,0.43257c-0.14419,0.11672 -0.31412,0.206 -0.50982,0.26778c-0.19569,0.06179 -0.4034,0.09269 -0.62312,0.09269z" fill="#ffffff" fill-rule="nonzero" stroke-width="1" stroke-linecap="square"/><g fill-rule="nonzero" stroke-linecap="butt"><path d="M239.75,168.27505c3.23532,0 6.1665,1.31359 8.28847,3.43662c2.12292,2.12186 3.43653,5.05316 3.43653,8.28838c0,3.23532 -1.3136,6.1665 -3.43653,8.28847c-2.12196,2.12292 -5.05315,3.43653 -8.28847,3.43653c-3.23532,0 -6.1665,-1.3136 -8.28847,-3.43653c-2.12292,-2.12196 -3.43653,-5.05315 -3.43653,-8.28847c0,-3.23522 1.3136,-6.16652 3.43653,-8.28838c2.12196,-2.12302 5.05315,-3.43662 8.28847,-3.43662z" fill="#5ec565" stroke-width="1.05973"/><g fill="#ffffff" stroke-width="0"><path d="M237.7213,186.426c0,0.91347 -1.09314,1.65397 -2.4416,1.65397c-1.34846,0 -2.44159,-0.7405 -2.44159,-1.65397c0,-0.91347 1.09313,-1.65399 2.44159,-1.65399c1.34846,0 2.4416,0.74052 2.4416,1.65399z"/><path d="M237.01359,186.55126l-0.08459,-10.22678l7.74081,-2.87237l0.36605,11.43018l-0.75577,-0.17371l-0.23026,-7.4447l-6.29417,2.16575l0.04,6.95529z"/><path d="M245.06629,185.10282c0,0.91347 -1.09314,1.65398 -2.4416,1.65398c-1.34846,0 -2.44159,-0.74051 -2.44159,-1.65398c0,-0.91347 1.09313,-1.65398 2.44159,-1.65398c1.34846,0 2.4416,0.74051 2.4416,1.65398z"/></g></g></g></g></svg>