<svg version="1.1" xmlns="http://www.w3.org/2000/svg" xmlns:xlink="http://www.w3.org/1999/xlink" width="720" height="540" viewBox="0,0,720,540"><defs><linearGradient x1="240" y1="153.79689" x2="240" y2="206.20312" gradientUnits="userSpaceOnUse" id="color-1"><stop offset="0" stop-color="#fad000"/><stop offset="1" stop-color="#ffbc00"/></linearGradient><clipPath id="clip-1"><rect x="-240" y="-180" transform="scale(0.5,0.5)" width="1440" height="1080" fill="none" fill-rule="nonzero" stroke="none" stroke-width="0.5" stroke-linecap="butt"/></clipPath></defs><g transform="translate(120,90)"><g clip-path="url(#clip-1)" data-paper-data="{&quot;isPaintingLayer&quot;:true}" stroke-linejoin="miter" stroke-miterlimit="10" stroke-dasharray="" stroke-dashoffset="0" style="mix-blend-mode: normal"><path d="M-110.76904,0.30708h701.5381v359.38583h-701.5381z" fill-opacity="0" fill="#000000" fill-rule="evenodd" stroke="none" stroke-width="1" stroke-linecap="square"/><path d="M444.92389,122.42519h114.45667v108.0315h-114.45667z" fill-opacity="0" fill="#000000" fill-rule="evenodd" stroke="none" stroke-width="1" stroke-linecap="square"/><path d="M294.13123,66.54855h114.45667v108.03149h-114.45666z" fill-opacity="0" fill="#000000" fill-rule="evenodd" stroke="none" stroke-width="1" stroke-linecap="square"/><path d="M111.0866,50.87401h114.45671v108.03149h-114.45671z" fill-opacity="0" fill="#000000" fill-rule="evenodd" stroke="none" stroke-width="1" stroke-linecap="square"/><path d="M56.13123,170.42518h114.4567v108.03149h-114.4567z" fill-opacity="0" fill="#000000" fill-rule="evenodd" stroke="none" stroke-width="1" stroke-linecap="square"/><path d="M270.83988,221.44357h114.4567v108.03148h-114.4567z" fill-opacity="0" fill="#000000" fill-rule="evenodd" stroke="none" stroke-width="1" stroke-linecap="square"/><path d="M245.18228,174.87499h12.03646c2.5,0.09375 4.02604,0.73958 4.57813,1.9375c0.46875,0.875 0.70313,2.17188 0.70313,3.89063v15.25c0,1.47917 -0.65104,2.88542 -1.95312,4.21875c-3.875,4.02083 -9.69792,6.03125 -17.46875,6.03125c-6.88542,0 -12.86979,-2.59896 -17.95312,-7.79687c-5.08333,-5.19792 -7.625,-11.46875 -7.625,-18.8125c0,-7.35417 2.58854,-13.48958 7.76563,-18.40624c5.17708,-4.92708 11.27604,-7.39062 18.29688,-7.39062c5.45833,0 10.61458,1.80208 15.46875,5.40625c1.23958,0.92708 1.85938,1.95833 1.85938,3.09375c0,1.125 -0.53125,2.42708 -1.59375,3.90623c-1.80208,2.44792 -3.44271,3.67188 -4.92187,3.67188c-0.875,0 -2.28646,-0.63542 -4.23437,-1.90625c-1.9375,-1.27083 -4.24479,-1.90625 -6.92187,-1.90625c-3.51042,0 -6.63021,1.23958 -9.35937,3.71875c-2.72917,2.46875 -4.09375,5.70313 -4.09375,9.70313c0,4 1.38542,7.40104 4.15625,10.20313c2.78125,2.79167 5.92708,4.1875 9.4375,4.1875c2.54167,0 4.82813,-0.41667 6.85938,-1.25v-7.5625h-5.46875c-1.4375,0 -2.45833,-0.18229 -3.0625,-0.54687c-0.59375,-0.375 -0.98437,-0.91667 -1.17187,-1.625c-0.1875,-0.71875 -0.28125,-1.69271 -0.28125,-2.92187c0,-1.22917 0.10417,-2.21354 0.3125,-2.95312c0.20833,-0.73958 0.58854,-1.24479 1.14063,-1.51562c0.83333,-0.41667 1.94271,-0.625 3.32813,-0.625z" fill="#f9ea00" fill-rule="nonzero" stroke="url(#color-1)" stroke-width="6.5" stroke-linecap="square"/><path d="M230.66144,159.75126c0.31856,0.63314 -0.35638,1.61593 -1.50754,2.19514c-1.15116,0.57921 -2.34261,0.53549 -2.66117,-0.09766c-0.31856,-0.63314 0.35639,-1.61594 1.50756,-2.19515c1.15116,-0.57921 2.34261,-0.53548 2.66117,0.09766z" fill="#ffffff" fill-rule="nonzero" stroke="none" stroke-width="0" stroke-linecap="butt"/></g></g></svg>