<svg version="1.1" xmlns="http://www.w3.org/2000/svg" xmlns:xlink="http://www.w3.org/1999/xlink" width="71.0913" height="34.83263" viewBox="0,0,71.0913,34.83263"><defs><linearGradient x1="341.58201" y1="46.516" x2="341.57951" y2="46.516" gradientUnits="userSpaceOnUse" id="color-1"><stop offset="0" stop-color="#7a727a"/><stop offset="1" stop-color="#211f21"/></linearGradient><linearGradient x1="218.94142" y1="187.82241" x2="218.64325" y2="190.23373" gradientUnits="userSpaceOnUse" id="color-2"><stop offset="0" stop-color="#000000"/><stop offset="1" stop-color="#363636"/></linearGradient></defs><g transform="translate(-198.48192,-159.20686)"><g data-paper-data="{&quot;isPaintingLayer&quot;:true}" fill-rule="nonzero" stroke-width="0" stroke-linecap="butt" stroke-linejoin="miter" stroke-miterlimit="10" stroke-dasharray="" stroke-dashoffset="0" style="mix-blend-mode: normal"><path d="M198.49022,180.26724c-0.18398,-5.24798 2.75124,-11.08006 2.75124,-11.08006l3.10484,-1.18676l0.14815,24.38676l-3.31313,-1.51036c0,0 -2.56738,-7.08015 -2.69112,-10.60958z" fill="#000000" stroke="#fff900"/><path d="M269.57322,159.20686z" fill="url(#color-1)" stroke="none"/><path d="M217.75685,189.47888l0.38303,-18.41251l15.81897,-3.30862l12.12743,1.43603l6.65587,10.35975l-6.61802,10.47013l-12.1668,1.97276z" data-paper-data="{&quot;index&quot;:null}" fill="#000000" stroke="none"/><path d="M209.02202,186.61625c0,0 2.64389,0.41528 4.94315,0.75777c0.39493,0.05883 1.19379,0.16409 1.68828,0.2303c1.29803,0.17383 2.44769,0.31684 3.26814,0.42668c2.58885,0.29131 4.496,0.48835 5.42419,0.58614c2.65001,0.27921 4.52846,0.42547 4.52846,0.42547l-0.06472,0.97074c0,0 -8.15848,0.45847 -10.23408,0.21209c-2.09764,-0.25313 -4.01633,-0.55376 -4.78806,-0.68847c-2.34149,-0.40874 -5.01469,-1.0268 -5.01469,-1.0268l0.24935,-1.89392z" data-paper-data="{&quot;index&quot;:null}" fill="url(#color-2)" stroke="none"/><path d="M209.37648,173.38916l-0.24935,-1.89392c0,0 2.67321,-0.61807 5.01469,-1.0268c0.77173,-0.13471 2.69042,-0.43535 4.78806,-0.68847c2.0756,-0.24638 10.23408,0.21209 10.23408,0.21209l0.06472,0.97074c0,0 -1.87844,0.14626 -4.52846,0.42547c-0.92819,0.09779 -2.83534,0.29483 -5.42419,0.58614c-0.82045,0.10984 -1.9701,0.25285 -3.26814,0.42668c-0.49448,0.06621 -1.29335,0.17148 -1.68828,0.2303c-2.29926,0.34249 -4.94315,0.75777 -4.94315,0.75777z" fill="#000000" stroke="none"/><path d="M215.43055,179.77589c-0.01308,4.76597 4.21711,8.69792 0.69632,8.6917c-2.13613,-0.00377 -13.98366,2.50586 -13.98366,2.50586c0,0 -2.3828,-5.56069 -2.65462,-11.31241c-0.17875,-5.74052 2.99341,-10.49601 2.99341,-10.49601c0,0 11.61095,2.19051 13.55076,2.19394c3.52079,0.00622 -0.58916,3.65096 -0.60223,8.41693z" data-paper-data="{&quot;index&quot;:null}" fill="#000000" stroke="#fff900"/><path d="M232.36643,166.67174c0.31628,0.23165 1.81953,0.97741 1.27415,1.72203c-0.28237,0.38552 -1.88737,-0.24462 -3.26983,-0.57906c-1.81306,-0.4386 -3.4306,-0.73463 -3.06028,-1.24022c0.65269,-0.89111 3.13198,-1.31196 5.05596,0.09725z" fill="#000000" stroke="none"/><path d="M227.16263,193.14002c-0.35235,-0.51827 1.27458,-0.75736 3.10192,-1.13207c1.39335,-0.28572 3.01946,-0.85915 3.28814,-0.46396c0.51892,0.76331 -1.00957,1.45585 -1.33379,1.67626c-1.97225,1.34082 -4.43525,0.83324 -5.05626,-0.08023z" data-paper-data="{&quot;index&quot;:null}" fill="#000000" stroke="none"/><path d="M201.61602,185.96867l-1.20406,-3.60041l3.78504,0.09232l1.36513,4.80054c0,0 -1.13124,0.11705 -2.07729,-0.4227c-0.91982,-0.26037 -1.86881,-0.86975 -1.86881,-0.86975z" fill="#000000" stroke="none"/><path d="M201.80659,174.57477c0,0 0.94899,-0.60938 1.86881,-0.86975c0.94605,-0.53975 2.07729,-0.4227 2.07729,-0.4227l-1.36513,4.80054l-3.78504,0.09232l1.20406,-3.60041z" data-paper-data="{&quot;index&quot;:null}" fill="#000000" stroke="none"/><path d="M211.96971,173.63185l0.2845,-1.56477h13.51389z" fill="#000000" stroke="none"/><path d="M225.7893,188.73171h-13.51389l-0.2845,-1.56476z" data-paper-data="{&quot;index&quot;:null}" fill="#000000" stroke="none"/><path d="M204.15758,192.28571c0,0 -4.09174,-4.22389 -3.90724,-13.25897c0.17187,-8.41692 4.33407,-11.3053 4.33407,-11.3053l11.37403,-0.09918l17.23573,2.2745l0.76608,19.94049l-17.23827,2.27524z" fill="#000000" stroke="none"/></g></g></svg>