<svg version="1.1" xmlns="http://www.w3.org/2000/svg" xmlns:xlink="http://www.w3.org/1999/xlink" width="26.469" height="42.328" viewBox="0,0,26.469,42.328"><defs><linearGradient x1="239.9375" y1="166.2735" x2="239.9375" y2="197.4765" gradientUnits="userSpaceOnUse" id="color-1"><stop offset="0" stop-color="#000000"/><stop offset="1" stop-color="#000000" stop-opacity="0"/></linearGradient><linearGradient x1="239.9375" y1="166.2735" x2="239.9375" y2="197.4765" gradientUnits="userSpaceOnUse" id="color-2"><stop offset="0" stop-color="#000000"/><stop offset="1" stop-color="#000000" stop-opacity="0"/></linearGradient></defs><g transform="translate(-226.7655,-158.8985)"><g data-paper-data="{&quot;isPaintingLayer&quot;:true}" fill-rule="nonzero" stroke-linecap="butt" stroke-linejoin="miter" stroke-miterlimit="10" stroke-dasharray="" stroke-dashoffset="0" style="mix-blend-mode: normal"><path d="M239.9685,178.4765c1.812,0 3.432,0.406 4.859,1.219c1.427,0.812 2.537,1.943 3.328,3.391c0.803,1.437 1.204,3.072 1.204,4.906c0,1.812 -0.401,3.442 -1.204,4.89c-0.791,1.438 -1.901,2.563 -3.328,3.375c-1.427,0.813 -3.047,1.219 -4.859,1.219c-1.844,0 -3.479,-0.406 -4.906,-1.219c-1.427,-0.812 -2.542,-1.937 -3.344,-3.375c-0.802,-1.448 -1.203,-3.078 -1.203,-4.89c0,-2.052 0.51,-3.875 1.531,-5.469l9.078,-15.125c0.479,-0.75 1.094,-1.125 1.844,-1.125c0.604,0 1.104,0.203 1.5,0.609c0.406,0.396 0.609,0.875 0.609,1.438c0,0.396 -0.104,0.755 -0.312,1.078l-5.485,9.078zM239.9215,193.8825c1.656,0 3,-0.546 4.031,-1.64c1.042,-1.094 1.563,-2.511 1.563,-4.25c0,-1.729 -0.521,-3.146 -1.563,-4.25c-1.031,-1.115 -2.375,-1.672 -4.031,-1.672c-1.625,0 -2.958,0.557 -4,1.672c-1.042,1.104 -1.562,2.521 -1.562,4.25c0,1.739 0.51,3.156 1.531,4.25c1.031,1.094 2.375,1.64 4.031,1.64z" fill="url(#color-1)" stroke="url(#color-2)" stroke-width="7.5"/><path d="M240.0935,174.8515c1.812,0 3.432,0.406 4.859,1.219c1.427,0.812 2.537,1.943 3.328,3.391c0.803,1.437 1.204,3.072 1.204,4.906c0,1.812 -0.401,3.442 -1.204,4.89c-0.791,1.438 -1.901,2.563 -3.328,3.375c-1.427,0.813 -3.047,1.219 -4.859,1.219c-1.844,0 -3.479,-0.406 -4.906,-1.219c-1.427,-0.812 -2.542,-1.937 -3.344,-3.375c-0.802,-1.448 -1.203,-3.078 -1.203,-4.89c0,-2.052 0.51,-3.875 1.531,-5.469l9.078,-15.125c0.479,-0.75 1.094,-1.125 1.844,-1.125c0.604,0 1.104,0.203 1.5,0.609c0.406,0.396 0.609,0.875 0.609,1.438c0,0.396 -0.104,0.755 -0.312,1.078l-5.485,9.078zM240.0465,190.2575c1.656,0 3,-0.546 4.031,-1.64c1.042,-1.094 1.563,-2.511 1.563,-4.25c0,-1.729 -0.521,-3.146 -1.563,-4.25c-1.031,-1.115 -2.375,-1.672 -4.031,-1.672c-1.625,0 -2.958,0.557 -4,1.672c-1.042,1.104 -1.562,2.521 -1.562,4.25c0,1.739 0.51,3.156 1.531,4.25c1.031,1.094 2.375,1.64 4.031,1.64z" fill="#ca6c00" stroke="#ffffff" stroke-width="7.5"/><path d="M240.0935,174.7265c1.812,0 3.432,0.406 4.859,1.219c1.427,0.812 2.537,1.943 3.328,3.391c0.803,1.437 1.204,3.072 1.204,4.906c0,1.812 -0.401,3.442 -1.204,4.89c-0.791,1.438 -1.901,2.563 -3.328,3.375c-1.427,0.813 -3.047,1.219 -4.859,1.219c-1.844,0 -3.479,-0.406 -4.906,-1.219c-1.427,-0.812 -2.542,-1.937 -3.344,-3.375c-0.802,-1.448 -1.203,-3.078 -1.203,-4.89c0,-2.052 0.51,-3.875 1.531,-5.469l9.078,-15.125c0.479,-0.75 1.094,-1.125 1.844,-1.125c0.604,0 1.104,0.203 1.5,0.609c0.406,0.396 0.609,0.875 0.609,1.438c0,0.396 -0.104,0.755 -0.312,1.078l-5.485,9.078zM240.0465,190.1325c1.656,0 3,-0.546 4.031,-1.64c1.042,-1.094 1.563,-2.511 1.563,-4.25c0,-1.729 -0.521,-3.146 -1.563,-4.25c-1.031,-1.115 -2.375,-1.672 -4.031,-1.672c-1.625,0 -2.958,0.557 -4,1.672c-1.042,1.104 -1.562,2.521 -1.562,4.25c0,1.739 0.51,3.156 1.531,4.25c1.031,1.094 2.375,1.64 4.031,1.64z" fill="#ca6c00" stroke="#ffffff" stroke-width="0"/></g></g></svg>