<svg version="1.1" xmlns="http://www.w3.org/2000/svg" xmlns:xlink="http://www.w3.org/1999/xlink" width="26.063" height="43.187" viewBox="0,0,26.063,43.187"><defs><linearGradient x1="240.0625" y1="166.4065" x2="240.0625" y2="197.8435" gradientUnits="userSpaceOnUse" id="color-1"><stop offset="0" stop-color="#000000"/><stop offset="1" stop-color="#000000" stop-opacity="0"/></linearGradient><linearGradient x1="240.0625" y1="166.4065" x2="240.0625" y2="197.8435" gradientUnits="userSpaceOnUse" id="color-2"><stop offset="0" stop-color="#000000"/><stop offset="1" stop-color="#000000" stop-opacity="0"/></linearGradient></defs><g transform="translate(-226.9685,-158.4065)"><g data-paper-data="{&quot;isPaintingLayer&quot;:true}" fill-rule="nonzero" stroke-linecap="butt" stroke-linejoin="miter" stroke-miterlimit="10" stroke-dasharray="" stroke-dashoffset="0" style="mix-blend-mode: normal"><path d="M245.0005,180.3285c1.333,0.833 2.38,1.922 3.14,3.265c0.761,1.344 1.141,2.854 1.141,4.532c0,1.812 -0.401,3.463 -1.203,4.953c-0.802,1.479 -1.907,2.645 -3.313,3.5c-1.396,0.843 -2.958,1.265 -4.687,1.265c-1.73,0 -3.302,-0.416 -4.719,-1.25c-1.417,-0.843 -2.526,-1.989 -3.328,-3.437c-0.792,-1.459 -1.188,-3.094 -1.188,-4.906c0,-1.678 0.38,-3.204 1.141,-4.579c0.76,-1.375 1.807,-2.474 3.141,-3.296c-0.938,-0.698 -1.667,-1.568 -2.188,-2.61c-0.521,-1.042 -0.781,-2.172 -0.781,-3.39c0,-1.5 0.344,-2.855 1.031,-4.063c0.698,-1.219 1.651,-2.172 2.859,-2.859c1.219,-0.698 2.589,-1.047 4.11,-1.047c1.469,0 2.797,0.344 3.984,1.031c1.188,0.677 2.12,1.615 2.797,2.813c0.677,1.197 1.016,2.546 1.016,4.046c0,1.25 -0.261,2.396 -0.782,3.438c-0.52,1.042 -1.244,1.906 -2.171,2.594zM236.1255,174.3285c0,1.198 0.375,2.213 1.125,3.047c0.76,0.822 1.703,1.234 2.828,1.234c1.114,0 2.047,-0.432 2.797,-1.297c0.75,-0.865 1.125,-1.911 1.125,-3.141c0,-1.177 -0.375,-2.145 -1.125,-2.906c-0.75,-0.76 -1.683,-1.14 -2.797,-1.14c-1.146,0 -2.094,0.395 -2.844,1.187c-0.74,0.781 -1.109,1.786 -1.109,3.016zM245.2815,188.1715c0,-1.573 -0.495,-2.885 -1.485,-3.937c-0.989,-1.052 -2.229,-1.578 -3.718,-1.578c-1.521,0 -2.776,0.541 -3.766,1.625c-0.979,1.073 -1.469,2.422 -1.469,4.047c0,1.073 0.224,2.057 0.672,2.953c0.458,0.885 1.083,1.588 1.875,2.109c0.802,0.521 1.698,0.781 2.688,0.781c0.989,0 1.875,-0.265 2.656,-0.796c0.792,-0.532 1.411,-1.256 1.859,-2.172c0.459,-0.927 0.688,-1.938 0.688,-3.032z" fill="url(#color-1)" stroke="url(#color-2)" stroke-width="7.5"/><path d="M244.8755,176.0785c1.333,0.833 2.38,1.922 3.14,3.265c0.761,1.344 1.141,2.854 1.141,4.532c0,1.812 -0.401,3.463 -1.203,4.953c-0.802,1.479 -1.907,2.645 -3.313,3.5c-1.396,0.843 -2.958,1.265 -4.687,1.265c-1.73,0 -3.302,-0.416 -4.719,-1.25c-1.417,-0.843 -2.526,-1.989 -3.328,-3.437c-0.792,-1.459 -1.188,-3.094 -1.188,-4.906c0,-1.678 0.38,-3.204 1.141,-4.579c0.76,-1.375 1.807,-2.474 3.141,-3.296c-0.938,-0.698 -1.667,-1.568 -2.188,-2.61c-0.521,-1.042 -0.781,-2.172 -0.781,-3.39c0,-1.5 0.344,-2.855 1.031,-4.063c0.698,-1.219 1.651,-2.172 2.859,-2.859c1.219,-0.698 2.589,-1.047 4.11,-1.047c1.469,0 2.797,0.344 3.984,1.031c1.188,0.677 2.12,1.615 2.797,2.813c0.677,1.197 1.016,2.546 1.016,4.046c0,1.25 -0.261,2.396 -0.782,3.438c-0.52,1.042 -1.244,1.906 -2.171,2.594zM236.0005,170.0785c0,1.198 0.375,2.213 1.125,3.047c0.76,0.822 1.703,1.234 2.828,1.234c1.114,0 2.047,-0.432 2.797,-1.297c0.75,-0.865 1.125,-1.911 1.125,-3.141c0,-1.177 -0.375,-2.145 -1.125,-2.906c-0.75,-0.76 -1.683,-1.14 -2.797,-1.14c-1.146,0 -2.094,0.395 -2.844,1.187c-0.74,0.781 -1.109,1.786 -1.109,3.016zM245.1565,183.9215c0,-1.573 -0.495,-2.885 -1.485,-3.937c-0.989,-1.052 -2.229,-1.578 -3.718,-1.578c-1.521,0 -2.776,0.541 -3.766,1.625c-0.979,1.073 -1.469,2.422 -1.469,4.047c0,1.073 0.224,2.057 0.672,2.953c0.458,0.885 1.083,1.588 1.875,2.109c0.802,0.521 1.698,0.781 2.688,0.781c0.989,0 1.875,-0.265 2.656,-0.796c0.792,-0.532 1.411,-1.256 1.859,-2.172c0.459,-0.927 0.688,-1.938 0.688,-3.032z" fill="#ca6c00" stroke="#ffffff" stroke-width="7.5"/><path d="M244.8755,176.2035c1.333,0.833 2.38,1.922 3.14,3.265c0.761,1.344 1.141,2.854 1.141,4.532c0,1.812 -0.401,3.463 -1.203,4.953c-0.802,1.479 -1.907,2.645 -3.313,3.5c-1.396,0.843 -2.958,1.265 -4.687,1.265c-1.73,0 -3.302,-0.416 -4.719,-1.25c-1.417,-0.843 -2.526,-1.989 -3.328,-3.437c-0.792,-1.459 -1.188,-3.094 -1.188,-4.906c0,-1.678 0.38,-3.204 1.141,-4.579c0.76,-1.375 1.807,-2.474 3.141,-3.296c-0.938,-0.698 -1.667,-1.568 -2.188,-2.61c-0.521,-1.042 -0.781,-2.172 -0.781,-3.39c0,-1.5 0.344,-2.855 1.031,-4.063c0.698,-1.219 1.651,-2.172 2.859,-2.859c1.219,-0.698 2.589,-1.047 4.11,-1.047c1.469,0 2.797,0.344 3.984,1.031c1.188,0.677 2.12,1.615 2.797,2.813c0.677,1.197 1.016,2.546 1.016,4.046c0,1.25 -0.261,2.396 -0.782,3.438c-0.52,1.042 -1.244,1.906 -2.171,2.594zM236.0005,170.2035c0,1.198 0.375,2.213 1.125,3.047c0.76,0.822 1.703,1.234 2.828,1.234c1.114,0 2.047,-0.432 2.797,-1.297c0.75,-0.865 1.125,-1.911 1.125,-3.141c0,-1.177 -0.375,-2.145 -1.125,-2.906c-0.75,-0.76 -1.683,-1.14 -2.797,-1.14c-1.146,0 -2.094,0.395 -2.844,1.187c-0.74,0.781 -1.109,1.786 -1.109,3.016zM245.1565,184.0465c0,-1.573 -0.495,-2.885 -1.485,-3.937c-0.989,-1.052 -2.229,-1.578 -3.718,-1.578c-1.521,0 -2.776,0.541 -3.766,1.625c-0.979,1.073 -1.469,2.422 -1.469,4.047c0,1.073 0.224,2.057 0.672,2.953c0.458,0.885 1.083,1.588 1.875,2.109c0.802,0.521 1.698,0.781 2.688,0.781c0.989,0 1.875,-0.265 2.656,-0.796c0.792,-0.532 1.411,-1.256 1.859,-2.172c0.459,-0.927 0.688,-1.938 0.688,-3.032z" fill="#ca6c00" stroke="#ffffff" stroke-width="0"/></g></g></svg>