<svg version="1.1" xmlns="http://www.w3.org/2000/svg" xmlns:xlink="http://www.w3.org/1999/xlink" width="679" height="407" viewBox="0,0,679,407"><g transform="translate(101.30557,25.34377)"><g data-paper-data="{&quot;isPaintingLayer&quot;:true}" fill-rule="nonzero" stroke="none" stroke-width="0" stroke-linecap="butt" stroke-linejoin="miter" stroke-miterlimit="10" stroke-dasharray="" stroke-dashoffset="0" style="mix-blend-mode: normal"><path d="M499.69443,373.65624v-399h78v399z" fill="#00a71e"/><path d="M-101.30557,381.65623v-399h78v399z" fill="#00a71e"/><path d="M-30.43505,371.17647v-379.96324h15.1348v379.96324z" fill="#848484"/><path d="M-36.01103,194.33823v-26.28676h26.28676v26.28676z" fill="#595959"/><path d="M-36.01103,134.59559v-26.28676h26.28676v26.28676z" fill="#595959"/><path d="M-36.01103,254.08088v-26.28676h26.28676v26.28676z" fill="#595959"/><path d="M-36.01103,74.85294v-26.28676h26.28676v26.28676z" fill="#595959"/><path d="M-36.01103,313.82352v-26.28676h26.28676v26.28676z" fill="#595959"/><path d="M-36.01103,15.11029v-26.28676h26.28676v26.28676z" fill="#595959"/><path d="M495.30025,371.17647v-379.96324h15.1348v379.96324z" fill="#848484"/><path d="M489.72427,194.33823v-26.28676h26.28676v26.28676z" fill="#595959"/><path d="M489.72427,134.59558v-26.28676h26.28676v26.28676z" fill="#595959"/><path d="M489.72427,254.08088v-26.28676h26.28676v26.28676z" fill="#595959"/><path d="M489.72427,74.85293v-26.28676h26.28676v26.28676z" fill="#595959"/><path d="M489.72427,313.82352v-26.28676h26.28676v26.28676z" fill="#595959"/><path d="M489.72427,15.11029v-26.28676h26.28676v26.28676z" fill="#595959"/></g></g></svg>