<svg version="1.1" xmlns="http://www.w3.org/2000/svg" xmlns:xlink="http://www.w3.org/1999/xlink" width="328" height="188.68227" viewBox="0,0,328,188.68227"><g transform="translate(-76,-85.65887)"><g data-paper-data="{&quot;isPaintingLayer&quot;:true}" stroke-miterlimit="10" stroke-dasharray="" stroke-dashoffset="0" style="mix-blend-mode: normal"><path d="M167.96313,162.67932h144.07381c4.22409,0 7.64818,3.31781 7.64818,7.41081v19.81973c0,4.09269 -3.42408,7.41081 -7.64818,7.41081h-144.07381c-4.22399,0 -7.64825,-3.31813 -7.64825,-7.41081v-19.81973c0,-4.09299 3.42425,-7.41081 7.64825,-7.41081z" fill="#4c4c4c" fill-rule="evenodd" stroke="none" stroke-width="14" stroke-linecap="round" stroke-linejoin="round"/><path d="M76,274.34114v-188.68227h328v188.68227z" fill="none" fill-rule="nonzero" stroke="none" stroke-width="0" stroke-linecap="butt" stroke-linejoin="miter"/><path d="M167.96313,162.67932h144.07381c4.22409,0 7.64818,7.7379 7.64818,17.28372h-159.37024c0,-9.5458 3.42425,-17.28372 7.64825,-17.28372z" fill="#000000" fill-rule="evenodd" stroke="none" stroke-width="14" stroke-linecap="round" stroke-linejoin="round"/><path d="M167.96313,162.67932h144.07381c4.22409,0 7.64818,3.31781 7.64818,7.41081v19.81973c0,4.09269 -3.42408,7.41081 -7.64818,7.41081h-144.07381c-4.22399,0 -7.64825,-3.31813 -7.64825,-7.41081v-19.81973c0,-4.09299 3.42425,-7.41081 7.64825,-7.41081z" fill="none" fill-rule="evenodd" stroke="#ffffff" stroke-width="5" stroke-linecap="round" stroke-linejoin="round"/><path d="M234.354,187.24214c-0.20833,0 -0.38542,-0.06771 -0.53125,-0.20312c-0.13542,-0.13542 -0.20312,-0.3125 -0.20312,-0.53125v-13.10937c0,-0.20833 0.06771,-0.38021 0.20313,-0.51562c0.14583,-0.14583 0.32292,-0.21875 0.53125,-0.21875h8.75c0.19792,0 0.36979,0.06771 0.51563,0.20313c0.14583,0.13542 0.21875,0.30729 0.21875,0.51563c0,0.1875 -0.07292,0.34896 -0.21875,0.48438c-0.14583,0.13542 -0.31771,0.20313 -0.51562,0.20313h-8.01562v5.15625h5.82813c0.21875,0 0.39583,0.06771 0.53125,0.20313c0.13542,0.13542 0.20313,0.30208 0.20313,0.5c0,0.19792 -0.06771,0.36458 -0.20312,0.5c-0.13542,0.13542 -0.3125,0.20313 -0.53125,0.20313h-5.82812v5.20313h8.01563c0.19792,0 0.36979,0.07292 0.51563,0.21875c0.14583,0.13542 0.21875,0.29688 0.21875,0.48438c0,0.20833 -0.07292,0.38021 -0.21875,0.51563c-0.14583,0.125 -0.31771,0.1875 -0.51562,0.1875zM252.92288,187.24214c-0.15625,0 -0.28125,-0.02604 -0.375,-0.07812c-0.09375,-0.05208 -0.1875,-0.13542 -0.28125,-0.25l-3.23437,-4.10937l-0.5625,-0.48437l-3.23437,-4.125c-0.13542,-0.16667 -0.20312,-0.33333 -0.20312,-0.5c0.01042,-0.17708 0.06771,-0.32812 0.17188,-0.45312c0.11458,-0.13542 0.27604,-0.20312 0.48438,-0.20312c0.21875,0 0.40104,0.07292 0.54688,0.21875l3.14063,4.01563l0.5,0.40625l3.46875,4.4375c0.16667,0.19792 0.23438,0.38542 0.20313,0.5625c-0.02083,0.17708 -0.09896,0.31771 -0.23438,0.42188c-0.125,0.09375 -0.25521,0.14063 -0.39062,0.14063zM245.53225,187.24214c-0.19792,0 -0.35937,-0.0625 -0.48437,-0.1875c-0.11458,-0.125 -0.17708,-0.27083 -0.1875,-0.4375c0,-0.17708 0.06771,-0.34896 0.20313,-0.51562l3.4375,-4.28125l0.79688,1.0625l-3.26562,4.14063c-0.11458,0.14583 -0.28125,0.21875 -0.5,0.21875zM249.89163,182.39839l-0.90625,-0.9375l3.21875,-4.09375c0.09375,-0.125 0.19271,-0.20833 0.29688,-0.25c0.10417,-0.05208 0.21354,-0.07812 0.32813,-0.07812c0.20833,0 0.36458,0.06771 0.46875,0.20313c0.11458,0.125 0.16667,0.28125 0.15625,0.46875c0,0.17708 -0.0625,0.34375 -0.1875,0.5zM260.00589,187.24214c-0.65625,0 -1.24479,-0.15625 -1.76562,-0.46875c-0.51042,-0.3125 -0.91667,-0.73958 -1.21875,-1.28125c-0.30208,-0.54167 -0.45312,-1.15625 -0.45312,-1.84375v-9.125c0,-0.21875 0.0625,-0.39583 0.1875,-0.53125c0.13542,-0.13542 0.3125,-0.20312 0.53125,-0.20312c0.20833,0 0.38021,0.06771 0.51563,0.20313c0.13542,0.13542 0.20313,0.3125 0.20313,0.53125v9.125c0,0.625 0.1875,1.14063 0.5625,1.54688c0.375,0.40625 0.85417,0.60938 1.4375,0.60938h0.5c0.19792,0 0.35938,0.06771 0.48438,0.20313c0.125,0.13542 0.1875,0.3125 0.1875,0.53125c0,0.20833 -0.07292,0.38021 -0.21875,0.51563c-0.14583,0.125 -0.33333,0.1875 -0.5625,0.1875zM255.36526,178.66402c-0.1875,0 -0.34375,-0.05729 -0.46875,-0.17187c-0.125,-0.125 -0.1875,-0.27604 -0.1875,-0.45312c0,-0.1875 0.0625,-0.33854 0.1875,-0.45312c0.125,-0.11458 0.28125,-0.17187 0.46875,-0.17187h4.75c0.1875,0 0.34375,0.05729 0.46875,0.17188c0.125,0.11458 0.1875,0.26563 0.1875,0.45313c0,0.17708 -0.0625,0.32813 -0.1875,0.45313c-0.125,0.11458 -0.28125,0.17188 -0.46875,0.17188zM264.11508,180.96089c0.03125,-0.77083 0.22917,-1.45833 0.59375,-2.0625c0.375,-0.61458 0.85417,-1.09375 1.4375,-1.4375c0.59375,-0.35417 1.25,-0.53125 1.96875,-0.53125c0.57292,0 1.01563,0.08333 1.32813,0.25c0.3125,0.15625 0.43229,0.39063 0.35938,0.70313c-0.05208,0.1875 -0.14062,0.3125 -0.26562,0.375c-0.11458,0.05208 -0.25521,0.07292 -0.42187,0.0625c-0.16667,-0.01042 -0.35417,-0.02083 -0.5625,-0.03125c-0.69792,-0.0625 -1.31771,0.01042 -1.85937,0.21875c-0.54167,0.19792 -0.97396,0.51042 -1.29687,0.9375c-0.3125,0.42708 -0.46875,0.93229 -0.46875,1.51563zM264.22445,187.24214c-0.22917,0 -0.40625,-0.0625 -0.53125,-0.1875c-0.125,-0.125 -0.1875,-0.29687 -0.1875,-0.51562v-8.79687c0,-0.21875 0.0625,-0.39062 0.1875,-0.51562c0.125,-0.125 0.30208,-0.1875 0.53125,-0.1875c0.21875,0 0.39063,0.0625 0.51563,0.1875c0.125,0.125 0.1875,0.29688 0.1875,0.51563v8.79688c0,0.21875 -0.0625,0.39063 -0.1875,0.51563c-0.125,0.125 -0.29687,0.1875 -0.51562,0.1875zM275.94422,187.33589c-1.01042,0 -1.90625,-0.21875 -2.6875,-0.65625c-0.77083,-0.44792 -1.38021,-1.0625 -1.82812,-1.84375c-0.4375,-0.78125 -0.65625,-1.67708 -0.65625,-2.6875c0,-1.02083 0.20833,-1.91667 0.625,-2.6875c0.41667,-0.78125 0.98958,-1.39583 1.71875,-1.84375c0.73958,-0.44792 1.58854,-0.67187 2.54688,-0.67187c0.9375,0 1.75521,0.21354 2.45313,0.64063c0.70834,0.42708 1.25522,1.02083 1.64063,1.78125c0.38542,0.76042 0.57813,1.625 0.57813,2.59375c0,0.19792 -0.0625,0.35938 -0.1875,0.48438c-0.125,0.11458 -0.28646,0.17188 -0.48437,0.17188h-7.92188v-1.20312h8.07813l-0.79688,0.57813c0.01042,-0.71875 -0.125,-1.36458 -0.40625,-1.9375c-0.27083,-0.57292 -0.65625,-1.02083 -1.15625,-1.34375c-0.5,-0.32292 -1.09896,-0.48437 -1.79687,-0.48437c-0.70833,0 -1.33333,0.17188 -1.875,0.51563c-0.53125,0.33333 -0.94271,0.79688 -1.23437,1.39063c-0.29167,0.58333 -0.4375,1.25521 -0.4375,2.01563c0,0.76042 0.16146,1.43229 0.48438,2.01563c0.33333,0.58333 0.78646,1.04688 1.35938,1.39063c0.57292,0.33333 1.23438,0.5 1.98438,0.5c0.44792,0 0.89583,-0.07812 1.34375,-0.23437c0.45833,-0.15625 0.82292,-0.35417 1.09375,-0.59375c0.13542,-0.11458 0.29167,-0.17187 0.46875,-0.17187c0.17709,-0.01042 0.32292,0.03646 0.43751,0.14063c0.16667,0.14583 0.25,0.30729 0.25,0.48438c0.01042,0.16667 -0.05729,0.3125 -0.20312,0.4375c-0.41667,0.35417 -0.94272,0.64583 -1.57813,0.875c-0.625,0.22917 -1.22917,0.34375 -1.8125,0.34375zM296.55542,187.24214c-0.20833,0 -0.38542,-0.0625 -0.53125,-0.1875c-0.13542,-0.13542 -0.20312,-0.30729 -0.20312,-0.51562v-5.375c0,-0.88542 -0.22917,-1.58333 -0.6875,-2.09375c-0.45833,-0.52083 -1.04687,-0.78125 -1.76562,-0.78125c-0.77083,0 -1.40625,0.26042 -1.90625,0.78125c-0.48958,0.51042 -0.72917,1.19271 -0.71875,2.04688h-1.28125c0.01042,-0.83333 0.1875,-1.5625 0.53125,-2.1875c0.35417,-0.63542 0.83333,-1.125 1.4375,-1.46875c0.61458,-0.35417 1.30729,-0.53125 2.07813,-0.53125c0.73958,0 1.39063,0.17708 1.95313,0.53125c0.5625,0.34375 1,0.83333 1.3125,1.46875c0.32292,0.625 0.48438,1.36979 0.48438,2.23438v5.375c0,0.20833 -0.06771,0.38021 -0.20312,0.51563c-0.125,0.125 -0.29167,0.1875 -0.5,0.1875zM283.49292,187.24214c-0.21875,0 -0.39583,-0.0625 -0.53125,-0.1875c-0.13542,-0.13542 -0.20312,-0.30729 -0.20312,-0.51562v-8.78125c0,-0.20833 0.06771,-0.38021 0.20313,-0.51562c0.13542,-0.13542 0.3125,-0.20312 0.53125,-0.20312c0.20833,0 0.375,0.06771 0.5,0.20313c0.13542,0.13542 0.20313,0.30729 0.20313,0.51563v8.78125c0,0.20833 -0.06771,0.38021 -0.20312,0.51563c-0.125,0.125 -0.29167,0.1875 -0.5,0.1875zM290.0398,187.24214c-0.20833,0 -0.38021,-0.0625 -0.51562,-0.1875c-0.13542,-0.13542 -0.20312,-0.30729 -0.20312,-0.51562v-5.375c0,-0.88542 -0.23437,-1.58333 -0.70312,-2.09375c-0.45833,-0.52083 -1.04687,-0.78125 -1.76562,-0.78125c-0.77083,0 -1.40625,0.25521 -1.90625,0.76563c-0.5,0.5 -0.75,1.15104 -0.75,1.95313h-1.01562c0.02083,-0.79167 0.19271,-1.49479 0.51563,-2.10937c0.33333,-0.61458 0.78646,-1.09375 1.35938,-1.4375c0.57292,-0.35417 1.21875,-0.53125 1.9375,-0.53125c0.73958,0 1.39063,0.17708 1.95313,0.53125c0.57292,0.34375 1.01562,0.83333 1.32812,1.46875c0.3125,0.625 0.46875,1.36979 0.46875,2.23438v5.375c0,0.20833 -0.06771,0.38021 -0.20312,0.51563c-0.125,0.125 -0.29167,0.1875 -0.5,0.1875zM305.06664,187.33589c-1.01042,0 -1.90625,-0.21875 -2.6875,-0.65625c-0.77083,-0.44792 -1.38021,-1.0625 -1.82812,-1.84375c-0.4375,-0.78125 -0.65625,-1.67708 -0.65625,-2.6875c0,-1.02083 0.20833,-1.91667 0.625,-2.6875c0.41667,-0.78125 0.98958,-1.39583 1.71875,-1.84375c0.73958,-0.44792 1.58854,-0.67187 2.54688,-0.67187c0.9375,0 1.75521,0.21354 2.45313,0.64063c0.70833,0.42708 1.25521,1.02083 1.64063,1.78125c0.38542,0.76042 0.57813,1.625 0.57813,2.59375c0,0.19792 -0.0625,0.35938 -0.1875,0.48438c-0.125,0.11458 -0.28646,0.17188 -0.48437,0.17188h-7.92187v-1.20312h8.07813l-0.79687,0.57813c0.01042,-0.71875 -0.125,-1.36458 -0.40625,-1.9375c-0.27083,-0.57292 -0.65625,-1.02083 -1.15625,-1.34375c-0.5,-0.32292 -1.09896,-0.48437 -1.79687,-0.48437c-0.70833,0 -1.33333,0.17188 -1.875,0.51563c-0.53125,0.33333 -0.94271,0.79688 -1.23437,1.39063c-0.29167,0.58333 -0.4375,1.25521 -0.4375,2.01563c0,0.76042 0.16146,1.43229 0.48438,2.01563c0.33333,0.58333 0.78646,1.04688 1.35938,1.39063c0.57292,0.33333 1.23438,0.5 1.98438,0.5c0.44792,0 0.89583,-0.07812 1.34375,-0.23437c0.45833,-0.15625 0.82292,-0.35417 1.09375,-0.59375c0.13542,-0.11458 0.29167,-0.17187 0.46875,-0.17187c0.17708,-0.01042 0.32292,0.03646 0.4375,0.14063c0.16667,0.14583 0.25,0.30729 0.25,0.48438c0.01042,0.16667 -0.05729,0.3125 -0.20312,0.4375c-0.41667,0.35417 -0.94271,0.64583 -1.57812,0.875c-0.625,0.22917 -1.22917,0.34375 -1.8125,0.34375z" fill="#ffffff" fill-rule="nonzero" stroke="#ffffff" stroke-width="0.5" stroke-linecap="square" stroke-linejoin="miter"/></g></g></svg>