<svg version="1.1" xmlns="http://www.w3.org/2000/svg" xmlns:xlink="http://www.w3.org/1999/xlink" width="173" height="329.05882" viewBox="0,0,173,329.05882"><defs><linearGradient x1="157.5" y1="139.52941" x2="157.5" y2="164.52941" gradientUnits="userSpaceOnUse" id="color-1"><stop offset="0" stop-color="#ffffff" stop-opacity="0"/><stop offset="1" stop-color="#ffffff"/></linearGradient><linearGradient x1="157.5" y1="199.52941" x2="157.5" y2="224.52941" gradientUnits="userSpaceOnUse" id="color-2"><stop offset="0" stop-color="#ffffff" stop-opacity="0"/><stop offset="1" stop-color="#ffffff"/></linearGradient><linearGradient x1="157.5" y1="259.52941" x2="157.5" y2="284.52941" gradientUnits="userSpaceOnUse" id="color-3"><stop offset="0" stop-color="#ffffff" stop-opacity="0"/><stop offset="1" stop-color="#ffffff"/></linearGradient><linearGradient x1="157.5" y1="79.52941" x2="157.5" y2="104.52941" gradientUnits="userSpaceOnUse" id="color-4"><stop offset="0" stop-color="#ffffff" stop-opacity="0"/><stop offset="1" stop-color="#ffffff"/></linearGradient><linearGradient x1="157.5" y1="319.52941" x2="157.5" y2="344.52941" gradientUnits="userSpaceOnUse" id="color-5"><stop offset="0" stop-color="#ffffff" stop-opacity="0"/><stop offset="1" stop-color="#ffffff"/></linearGradient><linearGradient x1="322.5" y1="139.52941" x2="322.5" y2="164.52941" gradientUnits="userSpaceOnUse" id="color-6"><stop offset="0" stop-color="#ffffff" stop-opacity="0"/><stop offset="1" stop-color="#ffffff"/></linearGradient><linearGradient x1="322.5" y1="199.52941" x2="322.5" y2="224.52941" gradientUnits="userSpaceOnUse" id="color-7"><stop offset="0" stop-color="#ffffff" stop-opacity="0"/><stop offset="1" stop-color="#ffffff"/></linearGradient><linearGradient x1="322.5" y1="259.52941" x2="322.5" y2="284.52941" gradientUnits="userSpaceOnUse" id="color-8"><stop offset="0" stop-color="#ffffff" stop-opacity="0"/><stop offset="1" stop-color="#ffffff"/></linearGradient><linearGradient x1="322.5" y1="79.52941" x2="322.5" y2="104.52941" gradientUnits="userSpaceOnUse" id="color-9"><stop offset="0" stop-color="#ffffff" stop-opacity="0"/><stop offset="1" stop-color="#ffffff"/></linearGradient><linearGradient x1="322.5" y1="319.52941" x2="322.5" y2="344.52941" gradientUnits="userSpaceOnUse" id="color-10"><stop offset="0" stop-color="#ffffff" stop-opacity="0"/><stop offset="1" stop-color="#ffffff"/></linearGradient><linearGradient x1="157.5" y1="15.47059" x2="157.5" y2="40.47059" gradientUnits="userSpaceOnUse" id="color-11"><stop offset="0" stop-color="#ffffff" stop-opacity="0"/><stop offset="1" stop-color="#ffffff"/></linearGradient><linearGradient x1="322.5" y1="15.47059" x2="322.5" y2="40.47059" gradientUnits="userSpaceOnUse" id="color-12"><stop offset="0" stop-color="#ffffff" stop-opacity="0"/><stop offset="1" stop-color="#ffffff"/></linearGradient></defs><g transform="translate(-153.5,-15.47059)"><g data-paper-data="{&quot;isPaintingLayer&quot;:true}" fill-rule="nonzero" stroke="none" stroke-width="0" stroke-linecap="butt" stroke-linejoin="miter" stroke-miterlimit="10" stroke-dasharray="" stroke-dashoffset="0" style="mix-blend-mode: normal"><path d="M153.5,164.52941v-25h8v25z" fill="url(#color-1)"/><path d="M153.5,224.52941v-25h8v25z" fill="url(#color-2)"/><path d="M153.5,284.52941v-25h8v25z" fill="url(#color-3)"/><path d="M153.5,104.52941v-25h8v25z" fill="url(#color-4)"/><path d="M153.5,344.52941v-25h8v25z" fill="url(#color-5)"/><path d="M318.5,164.52941v-25h8v25z" fill="url(#color-6)"/><path d="M318.5,224.52941v-25h8v25z" fill="url(#color-7)"/><path d="M318.5,284.52941v-25h8v25z" fill="url(#color-8)"/><path d="M318.5,104.52941v-25h8v25z" fill="url(#color-9)"/><path d="M318.5,344.52941v-25h8v25z" fill="url(#color-10)"/><path d="M153.5,40.47059v-25h8v25z" fill="url(#color-11)"/><path d="M318.5,40.47059v-25h8v25z" fill="url(#color-12)"/></g></g></svg>