<svg version="1.1" xmlns="http://www.w3.org/2000/svg" xmlns:xlink="http://www.w3.org/1999/xlink" width="328" height="188.68227" viewBox="0,0,328,188.68227"><g transform="translate(-76,-85.65887)"><g data-paper-data="{&quot;isPaintingLayer&quot;:true}" stroke-miterlimit="10" stroke-dasharray="" stroke-dashoffset="0" style="mix-blend-mode: normal"><path d="M167.96313,162.67932h144.07381c4.22409,0 7.64818,3.31781 7.64818,7.41081v19.81973c0,4.09269 -3.42408,7.41081 -7.64818,7.41081h-144.07381c-4.22399,0 -7.64825,-3.31813 -7.64825,-7.41081v-19.81973c0,-4.09299 3.42425,-7.41081 7.64825,-7.41081z" fill="#4c4c4c" fill-rule="evenodd" stroke="none" stroke-width="14" stroke-linecap="round" stroke-linejoin="round"/><path d="M76,274.34114v-188.68227h328v188.68227z" fill="none" fill-rule="nonzero" stroke="none" stroke-width="0" stroke-linecap="butt" stroke-linejoin="miter"/><path d="M167.96313,162.67932h144.07381c4.22409,0 7.64818,7.7379 7.64818,17.28372h-159.37024c0,-9.5458 3.42425,-17.28372 7.64825,-17.28372z" fill="#000000" fill-rule="evenodd" stroke="none" stroke-width="14" stroke-linecap="round" stroke-linejoin="round"/><path d="M167.96313,162.67932h144.07381c4.22409,0 7.64818,3.31781 7.64818,7.41081v19.81973c0,4.09269 -3.42408,7.41081 -7.64818,7.41081h-144.07381c-4.22399,0 -7.64825,-3.31813 -7.64825,-7.41081v-19.81973c0,-4.09299 3.42425,-7.41081 7.64825,-7.41081z" fill="none" fill-rule="evenodd" stroke="#ffffff" stroke-width="5" stroke-linecap="round" stroke-linejoin="round"/><path d="M259.87048,187.24216c-0.20833,0 -0.38542,-0.06771 -0.53125,-0.20312c-0.13542,-0.13542 -0.20312,-0.3125 -0.20312,-0.53125v-13.10937c0,-0.20833 0.06771,-0.38021 0.20313,-0.51562c0.14583,-0.14583 0.32292,-0.21875 0.53125,-0.21875c0.20833,0 0.38021,0.07292 0.51563,0.21875c0.14583,0.13542 0.21875,0.30729 0.21875,0.51563v5.82813h9.09375v-5.82812c0,-0.20833 0.06771,-0.38021 0.20313,-0.51562c0.13542,-0.14583 0.3125,-0.21875 0.53125,-0.21875c0.20833,0 0.38021,0.07292 0.51563,0.21875c0.13542,0.13542 0.20313,0.30729 0.20313,0.51563v13.10938c0,0.21875 -0.06771,0.39583 -0.20312,0.53125c-0.13542,0.13542 -0.30729,0.20313 -0.51562,0.20313c-0.21875,0 -0.39583,-0.06771 -0.53125,-0.20312c-0.13542,-0.13542 -0.20312,-0.3125 -0.20312,-0.53125v-5.98437h-9.09375v5.98438c0,0.21875 -0.07292,0.39583 -0.21875,0.53125c-0.13542,0.13542 -0.30729,0.20313 -0.51562,0.20313zM279.19448,187.33591c-0.95833,0 -1.81771,-0.22396 -2.57812,-0.67187c-0.75,-0.45833 -1.34896,-1.07812 -1.79687,-1.85937c-0.4375,-0.79167 -0.65625,-1.67708 -0.65625,-2.65625c0,-0.98958 0.22396,-1.875 0.67188,-2.65625c0.45833,-0.79167 1.07813,-1.41146 1.85938,-1.85937c0.78125,-0.45833 1.66667,-0.6875 2.65625,-0.6875c0.97917,0 1.85417,0.22917 2.625,0.6875c0.78125,0.44792 1.40104,1.06771 1.85938,1.85938c0.45833,0.78125 0.69271,1.66667 0.70313,2.65625l-0.57812,0.45313c0,0.89583 -0.20833,1.70313 -0.625,2.42188c-0.41667,0.70833 -0.98437,1.27083 -1.70312,1.6875c-0.71875,0.41667 -1.53125,0.625 -2.4375,0.625zM279.35073,186.02341c0.71875,0 1.35938,-0.16667 1.92188,-0.5c0.57292,-0.33333 1.02083,-0.79687 1.34375,-1.39062c0.33333,-0.59375 0.5,-1.25521 0.5,-1.98437c0,-0.75 -0.16667,-1.41667 -0.5,-2c-0.32292,-0.58333 -0.77083,-1.04687 -1.34375,-1.39062c-0.5625,-0.34375 -1.20312,-0.51562 -1.92187,-0.51562c-0.70833,0 -1.34896,0.17188 -1.92187,0.51563c-0.57292,0.34375 -1.03125,0.80729 -1.375,1.39063c-0.33333,0.58333 -0.5,1.25 -0.5,2c0,0.72917 0.16667,1.39063 0.5,1.98438c0.34375,0.59375 0.80208,1.05729 1.375,1.39063c0.57292,0.33333 1.21354,0.5 1.92188,0.5zM283.80386,187.24216c-0.20833,0 -0.38021,-0.0625 -0.51562,-0.1875c-0.13542,-0.13542 -0.20312,-0.30729 -0.20312,-0.51562v-3.20312l0.34375,-1.46875l1.10938,0.28125v4.39063c0,0.20833 -0.07292,0.38021 -0.21875,0.51563c-0.13542,0.125 -0.30729,0.1875 -0.51562,0.1875zM287.93414,180.96091c0.03125,-0.77083 0.22917,-1.45833 0.59375,-2.0625c0.375,-0.61458 0.85417,-1.09375 1.4375,-1.4375c0.59375,-0.35417 1.25,-0.53125 1.96875,-0.53125c0.57292,0 1.01563,0.08333 1.32813,0.25c0.3125,0.15625 0.43229,0.39063 0.35938,0.70313c-0.05208,0.1875 -0.14062,0.3125 -0.26562,0.375c-0.11458,0.05208 -0.25521,0.07292 -0.42187,0.0625c-0.16667,-0.01042 -0.35417,-0.02083 -0.5625,-0.03125c-0.69792,-0.0625 -1.31771,0.01042 -1.85937,0.21875c-0.54167,0.19792 -0.97396,0.51042 -1.29687,0.9375c-0.3125,0.42708 -0.46875,0.93229 -0.46875,1.51563zM288.04351,187.24216c-0.22917,0 -0.40625,-0.0625 -0.53125,-0.1875c-0.125,-0.125 -0.1875,-0.29687 -0.1875,-0.51562v-8.79687c0,-0.21875 0.0625,-0.39062 0.1875,-0.51562c0.125,-0.125 0.30208,-0.1875 0.53125,-0.1875c0.21875,0 0.39063,0.0625 0.51563,0.1875c0.125,0.125 0.1875,0.29688 0.1875,0.51563v8.79688c0,0.21875 -0.0625,0.39063 -0.1875,0.51563c-0.125,0.125 -0.29687,0.1875 -0.51562,0.1875zM299.77891,187.33591c-0.98958,0 -1.875,-0.22396 -2.65625,-0.67187c-0.78125,-0.45833 -1.40104,-1.07812 -1.85937,-1.85937c-0.44792,-0.79167 -0.67187,-1.68229 -0.67187,-2.67187c0,-0.97917 0.21875,-1.85937 0.65625,-2.64062c0.44792,-0.79167 1.04688,-1.41146 1.79688,-1.85937c0.76042,-0.45833 1.61979,-0.6875 2.57813,-0.6875c0.83333,0 1.58333,0.17708 2.25,0.53125c0.67708,0.35417 1.22396,0.82292 1.64063,1.40625v-5.48437c0,-0.21875 0.06771,-0.39583 0.20313,-0.53125c0.13542,-0.13542 0.30729,-0.20312 0.51563,-0.20312c0.20833,0 0.38021,0.06771 0.51563,0.20313c0.14583,0.13542 0.21875,0.3125 0.21875,0.53125v8.8125c-0.03125,0.96875 -0.27604,1.84375 -0.73438,2.625c-0.44792,0.77083 -1.0625,1.38021 -1.84375,1.82813c-0.77083,0.44792 -1.64062,0.67188 -2.60937,0.67188zM299.77891,186.02341c0.71875,0 1.35938,-0.16667 1.92188,-0.5c0.57292,-0.34375 1.02083,-0.80729 1.34375,-1.39062c0.33333,-0.59375 0.5,-1.26042 0.5,-2c0,-0.73958 -0.16667,-1.40104 -0.5,-1.98437c-0.32292,-0.59375 -0.77083,-1.05729 -1.34375,-1.39062c-0.5625,-0.34375 -1.20312,-0.51562 -1.92187,-0.51562c-0.70833,0 -1.34896,0.17188 -1.92187,0.51563c-0.57292,0.33333 -1.03125,0.79688 -1.375,1.39063c-0.33333,0.58333 -0.5,1.24479 -0.5,1.98438c0,0.73958 0.16667,1.40625 0.5,2c0.34375,0.58333 0.80208,1.04688 1.375,1.39063c0.57292,0.33333 1.21354,0.5 1.92188,0.5z" fill="#ffffff" fill-rule="nonzero" stroke="#ffffff" stroke-width="0.5" stroke-linecap="square" stroke-linejoin="miter"/></g></g></svg>