<svg version="1.1" xmlns="http://www.w3.org/2000/svg" xmlns:xlink="http://www.w3.org/1999/xlink" width="328" height="188.68227" viewBox="0,0,328,188.68227"><g transform="translate(-76,-85.65887)"><g data-paper-data="{&quot;isPaintingLayer&quot;:true}" stroke-miterlimit="10" stroke-dasharray="" stroke-dashoffset="0" style="mix-blend-mode: normal"><path d="M167.96313,162.67932h144.07381c4.22409,0 7.64818,3.31781 7.64818,7.41081v19.81973c0,4.09269 -3.42408,7.41081 -7.64818,7.41081h-144.07381c-4.22399,0 -7.64825,-3.31813 -7.64825,-7.41081v-19.81973c0,-4.09299 3.42425,-7.41081 7.64825,-7.41081z" fill="#4c4c4c" fill-rule="evenodd" stroke="none" stroke-width="14" stroke-linecap="round" stroke-linejoin="round"/><path d="M76,274.34114v-188.68227h328v188.68227z" fill="none" fill-rule="nonzero" stroke="none" stroke-width="0" stroke-linecap="butt" stroke-linejoin="miter"/><path d="M167.96313,162.67932h144.07381c4.22409,0 7.64818,7.7379 7.64818,17.28372h-159.37024c0,-9.5458 3.42425,-17.28372 7.64825,-17.28372z" fill="#000000" fill-rule="evenodd" stroke="none" stroke-width="14" stroke-linecap="round" stroke-linejoin="round"/><path d="M167.96313,162.67932h144.07381c4.22409,0 7.64818,3.31781 7.64818,7.41081v19.81973c0,4.09269 -3.42408,7.41081 -7.64818,7.41081h-144.07381c-4.22399,0 -7.64825,-3.31813 -7.64825,-7.41081v-19.81973c0,-4.09299 3.42425,-7.41081 7.64825,-7.41081z" fill="none" fill-rule="evenodd" stroke="#ffffff" stroke-width="5" stroke-linecap="round" stroke-linejoin="round"/><path d="M220.35215,185.07031c-0.20833,0 -0.38541,-0.06771 -0.53125,-0.20312c-0.13541,-0.13542 -0.20312,-0.3125 -0.20312,-0.53125v-13.10937c0,-0.20834 0.06771,-0.38021 0.20313,-0.51562c0.14584,-0.14584 0.32292,-0.21875 0.53125,-0.21875h3.73438c0.91666,0 1.72916,0.20313 2.4375,0.60938c0.70833,0.40625 1.26041,0.96354 1.65625,1.67188c0.40625,0.70833 0.60938,1.53125 0.60938,2.46875c0,0.90625 -0.20312,1.71354 -0.60937,2.42188c-0.39584,0.69791 -0.94792,1.25 -1.65625,1.65625c-0.70834,0.39583 -1.52084,0.59375 -2.4375,0.59375h-3v4.42188c0,0.21875 -0.07291,0.39583 -0.21875,0.53125c-0.13541,0.13541 -0.30729,0.20313 -0.51562,0.20313zM221.08652,178.52344h3c0.63541,0 1.19791,-0.14062 1.6875,-0.42187c0.5,-0.28125 0.89063,-0.66667 1.17188,-1.15625c0.28125,-0.5 0.42188,-1.06771 0.42188,-1.70312c0,-0.66667 -0.14062,-1.24479 -0.42187,-1.73437c-0.28125,-0.5 -0.67187,-0.89062 -1.17187,-1.17187c-0.48959,-0.29167 -1.05209,-0.4375 -1.6875,-0.4375h-3zM233.05103,185.07031c-0.48959,0 -0.93229,-0.13542 -1.32812,-0.40625c-0.39584,-0.28125 -0.70312,-0.66146 -0.92187,-1.14062c-0.20834,-0.48959 -0.3125,-1.05209 -0.3125,-1.6875v-10.625c0,-0.20834 0.0625,-0.38021 0.1875,-0.51562c0.13541,-0.13542 0.30729,-0.20312 0.51563,-0.20312c0.20833,0 0.375,0.06771 0.5,0.20313c0.13541,0.13541 0.20313,0.30729 0.20313,0.51563v10.625c0,0.54166 0.10938,0.97916 0.32813,1.3125c0.21875,0.33333 0.49479,0.5 0.82813,0.5h0.46875c0.1875,0 0.33854,0.06771 0.45313,0.20313c0.11458,0.125 0.17188,0.29688 0.17188,0.51563c0,0.20833 -0.07812,0.38021 -0.23437,0.51563c-0.15625,0.125 -0.35937,0.1875 -0.60937,0.1875zM240.04897,185.16406c-0.95833,0 -1.81771,-0.22396 -2.57812,-0.67187c-0.75,-0.45834 -1.34896,-1.07812 -1.79687,-1.85937c-0.4375,-0.79167 -0.65625,-1.67709 -0.65625,-2.65625c0,-0.98959 0.22396,-1.875 0.67188,-2.65625c0.45834,-0.79167 1.07813,-1.41146 1.85938,-1.85937c0.78125,-0.45834 1.66667,-0.6875 2.65625,-0.6875c0.97917,0 1.85417,0.22916 2.625,0.6875c0.78125,0.44791 1.40104,1.06771 1.85938,1.85938c0.45834,0.78125 0.69271,1.66666 0.70313,2.65625l-0.57812,0.45313c0,0.89583 -0.20833,1.70313 -0.625,2.42188c-0.41666,0.70833 -0.98437,1.27083 -1.70312,1.6875c-0.71875,0.41666 -1.53125,0.625 -2.4375,0.625zM240.20522,183.85156c0.71875,0 1.35938,-0.16667 1.92188,-0.5c0.57292,-0.33334 1.02084,-0.79687 1.34375,-1.39062c0.33334,-0.59375 0.5,-1.25521 0.5,-1.98437c0,-0.75 -0.16666,-1.41667 -0.5,-2c-0.32291,-0.58334 -0.77083,-1.04687 -1.34375,-1.39062c-0.5625,-0.34375 -1.20312,-0.51562 -1.92187,-0.51562c-0.70833,0 -1.34896,0.17188 -1.92187,0.51563c-0.57291,0.34375 -1.03125,0.80729 -1.375,1.39063c-0.33333,0.58333 -0.5,1.25 -0.5,2c0,0.72916 0.16667,1.39063 0.5,1.98438c0.34375,0.59375 0.80209,1.05729 1.375,1.39063c0.57292,0.33333 1.21354,0.5 1.92188,0.5zM244.65834,185.07031c-0.20833,0 -0.38021,-0.0625 -0.51562,-0.1875c-0.13541,-0.13542 -0.20312,-0.30729 -0.20312,-0.51562v-3.20312l0.34375,-1.46875l1.10938,0.28125v4.39063c0,0.20833 -0.07291,0.38021 -0.21875,0.51563c-0.13541,0.125 -0.30729,0.1875 -0.51562,0.1875zM249.94487,189.50781c-0.10417,0 -0.21875,-0.02604 -0.34375,-0.07812c-0.41667,-0.1875 -0.53125,-0.48437 -0.34375,-0.89062l6.01563,-13.28125c0.1875,-0.39584 0.48438,-0.51042 0.89063,-0.34375c0.42708,0.17708 0.54688,0.47396 0.35938,0.89063l-6.04687,13.28125c-0.125,0.28125 -0.30209,0.42188 -0.53125,0.42188zM252.00737,184.75781c-0.1875,0.08333 -0.36459,0.09896 -0.53125,0.04688c-0.15625,-0.0625 -0.28125,-0.1875 -0.375,-0.375l-4.17187,-8.60937c-0.08334,-0.1875 -0.09375,-0.35937 -0.03125,-0.51562c0.0625,-0.16667 0.1875,-0.29687 0.375,-0.39062c0.1875,-0.08334 0.35938,-0.09375 0.51563,-0.03125c0.16666,0.05208 0.29166,0.17188 0.375,0.35938l4.09375,8.60938c0.09375,0.1875 0.11979,0.36458 0.07813,0.53125c-0.03125,0.15625 -0.14062,0.28125 -0.32812,0.375zM272.61917,185.07031c-0.20833,0 -0.38021,-0.06771 -0.51562,-0.20312c-0.13541,-0.13542 -0.20312,-0.30209 -0.20312,-0.5v-4.85937c0,-0.77084 -0.14583,-1.40104 -0.4375,-1.89062c-0.29166,-0.5 -0.69271,-0.875 -1.20312,-1.125c-0.5,-0.25 -1.06771,-0.375 -1.70312,-0.375c-0.60416,0 -1.15625,0.11979 -1.65625,0.35938c-0.48958,0.22916 -0.88021,0.55208 -1.17187,0.96875c-0.28125,0.40625 -0.42187,0.86979 -0.42187,1.39063h-1.01563c0.02084,-0.78125 0.22916,-1.47917 0.625,-2.09375c0.40625,-0.61459 0.9375,-1.09896 1.59375,-1.45312c0.65625,-0.35417 1.39063,-0.53125 2.20313,-0.53125c0.875,0 1.66146,0.18229 2.35938,0.54688c0.69792,0.36458 1.25,0.90104 1.65625,1.60938c0.40625,0.70833 0.60938,1.57291 0.60938,2.59375v4.85938c0,0.19791 -0.06771,0.36458 -0.20312,0.5c-0.13541,0.13541 -0.30729,0.20313 -0.51562,0.20313zM264.60354,185.07031c-0.21875,0 -0.39584,-0.0625 -0.53125,-0.1875c-0.13541,-0.13542 -0.20312,-0.30729 -0.20312,-0.51562v-8.78125c0,-0.21875 0.06771,-0.39062 0.20313,-0.51562c0.13541,-0.13542 0.3125,-0.20312 0.53125,-0.20312c0.20834,0 0.375,0.06771 0.5,0.20313c0.13542,0.125 0.20313,0.29688 0.20313,0.51563v8.78125c0,0.20833 -0.06771,0.38021 -0.20313,0.51563c-0.125,0.125 -0.29166,0.1875 -0.5,0.1875zM281.1557,185.16406c-1,0 -1.89062,-0.22396 -2.67187,-0.67187c-0.78125,-0.44792 -1.39584,-1.0625 -1.84375,-1.84375c-0.44791,-0.78125 -0.67187,-1.67187 -0.67187,-2.67187c0,-1.01042 0.22396,-1.90625 0.67187,-2.6875c0.44791,-0.78125 1.0625,-1.39584 1.84375,-1.84375c0.78125,-0.44792 1.67188,-0.67187 2.67188,-0.67187c0.98959,0 1.875,0.22396 2.65625,0.67188c0.78125,0.44791 1.39584,1.0625 1.84375,1.84375c0.44791,0.78125 0.67708,1.67708 0.6875,2.6875c0,1 -0.22917,1.89063 -0.6875,2.67188c-0.44791,0.78125 -1.0625,1.39583 -1.84375,1.84375c-0.78125,0.44791 -1.66666,0.67188 -2.65625,0.67188zM281.1557,183.85156c0.71875,0 1.36459,-0.16667 1.9375,-0.5c0.57291,-0.33334 1.02084,-0.79167 1.34375,-1.375c0.32291,-0.58334 0.48438,-1.25 0.48438,-2c0,-0.75 -0.16146,-1.41667 -0.48437,-2c-0.32291,-0.59375 -0.77084,-1.05729 -1.34375,-1.39062c-0.57291,-0.34375 -1.21875,-0.51562 -1.9375,-0.51562c-0.71875,0 -1.36459,0.17188 -1.9375,0.51563c-0.57291,0.33333 -1.02604,0.79688 -1.35937,1.39063c-0.33334,0.58333 -0.5,1.25 -0.5,2c0,0.75 0.16666,1.41666 0.5,2c0.33334,0.58333 0.78646,1.04166 1.35938,1.375c0.57291,0.33333 1.21875,0.5 1.9375,0.5zM290.89785,185.07031c-0.16666,0 -0.3125,-0.04167 -0.4375,-0.125c-0.125,-0.09375 -0.21354,-0.20834 -0.26562,-0.34375l-2.90625,-8.73437c-0.07291,-0.30209 -0.06771,-0.54167 0.01563,-0.71875c0.09375,-0.1875 0.27084,-0.28125 0.53125,-0.28125c0.15625,0 0.29688,0.04688 0.42188,0.14063c0.125,0.08333 0.21875,0.21875 0.28125,0.40625l2.59375,7.92188h-0.40625l2.40625,-7.90625c0.05209,-0.16667 0.13542,-0.30209 0.25,-0.40625c0.11459,-0.10417 0.26563,-0.15625 0.45313,-0.15625c0.1875,0 0.33854,0.05208 0.45313,0.15625c0.125,0.09375 0.21354,0.22916 0.26563,0.40625l2.28125,7.71875h-0.3125l2.53125,-7.73437c0.125,-0.36459 0.35938,-0.54687 0.70313,-0.54687c0.27084,0 0.45313,0.10416 0.54688,0.3125c0.10416,0.19791 0.10416,0.42708 0,0.6875l-2.90625,8.73438c-0.05209,0.13541 -0.13541,0.25 -0.25,0.34375c-0.11459,0.08333 -0.25521,0.125 -0.42188,0.125c-0.15625,0 -0.30208,-0.04167 -0.4375,-0.125c-0.125,-0.09375 -0.20833,-0.20834 -0.25,-0.34375l-2.34375,-7.79687h0.21875l-2.34375,7.79688c-0.05208,0.14583 -0.14062,0.26041 -0.26562,0.34375c-0.125,0.08333 -0.26041,0.125 -0.40625,0.125z" fill="#ffffff" fill-rule="nonzero" stroke="#ffffff" stroke-width="0.5" stroke-linecap="square" stroke-linejoin="miter"/></g></g></svg>