<svg version="1.1" xmlns="http://www.w3.org/2000/svg" xmlns:xlink="http://www.w3.org/1999/xlink" width="77.49913" height="38.55675" viewBox="0,0,77.49913,38.55675"><defs><linearGradient x1="267.8579" y1="189.20559" x2="265.99476" y2="188.59301" gradientUnits="userSpaceOnUse" id="color-1"><stop offset="0" stop-color="#1a1a1a"/><stop offset="1" stop-color="#f30000" stop-opacity="0"/></linearGradient><linearGradient x1="270.24612" y1="188.12996" x2="269.30021" y2="188.13514" gradientUnits="userSpaceOnUse" id="color-2"><stop offset="0" stop-color="#1a1a1a"/><stop offset="1" stop-color="#f30000" stop-opacity="0"/></linearGradient><linearGradient x1="270.09964" y1="188.75104" x2="264.94543" y2="188.30187" gradientUnits="userSpaceOnUse" id="color-3"><stop offset="0" stop-color="#1a1a1a"/><stop offset="1" stop-color="#f30000" stop-opacity="0"/></linearGradient><linearGradient x1="270.99001" y1="189.2581" x2="269.90819" y2="188.69361" gradientUnits="userSpaceOnUse" id="color-4"><stop offset="0" stop-color="#1a1a1a"/><stop offset="1" stop-color="#f30000" stop-opacity="0"/></linearGradient><linearGradient x1="269.66326" y1="190.03361" x2="266.06967" y2="185.93844" gradientUnits="userSpaceOnUse" id="color-5"><stop offset="0" stop-color="#1a1a1a"/><stop offset="1" stop-color="#f30000" stop-opacity="0"/></linearGradient><linearGradient x1="268.47829" y1="188.71663" x2="262.54232" y2="188.80647" gradientUnits="userSpaceOnUse" id="color-6"><stop offset="0" stop-color="#1a1a1a"/><stop offset="1" stop-color="#f30000" stop-opacity="0"/></linearGradient><linearGradient x1="266.79412" y1="189.66002" x2="261.92484" y2="189.37295" gradientUnits="userSpaceOnUse" id="color-7"><stop offset="0" stop-color="#1a1a1a"/><stop offset="1" stop-color="#f30000" stop-opacity="0"/></linearGradient><linearGradient x1="217.51608" y1="191.11365" x2="215.65874" y2="190.38032" gradientUnits="userSpaceOnUse" id="color-8"><stop offset="0" stop-color="#1a1a1a"/><stop offset="1" stop-color="#f30000" stop-opacity="0"/></linearGradient><linearGradient x1="219.06836" y1="191.28329" x2="217.30058" y2="190.99613" gradientUnits="userSpaceOnUse" id="color-9"><stop offset="0" stop-color="#1a1a1a"/><stop offset="1" stop-color="#f30000" stop-opacity="0"/></linearGradient><linearGradient x1="267.8579" y1="170.73468" x2="265.99476" y2="171.34726" gradientUnits="userSpaceOnUse" id="color-10"><stop offset="0" stop-color="#1a1a1a"/><stop offset="1" stop-color="#f30000" stop-opacity="0"/></linearGradient><linearGradient x1="270.24612" y1="171.8103" x2="269.30021" y2="171.80513" gradientUnits="userSpaceOnUse" id="color-11"><stop offset="0" stop-color="#1a1a1a"/><stop offset="1" stop-color="#f30000" stop-opacity="0"/></linearGradient><linearGradient x1="270.09964" y1="171.18923" x2="264.94543" y2="171.6384" gradientUnits="userSpaceOnUse" id="color-12"><stop offset="0" stop-color="#1a1a1a"/><stop offset="1" stop-color="#f30000" stop-opacity="0"/></linearGradient><linearGradient x1="270.99001" y1="170.68217" x2="269.90819" y2="171.24666" gradientUnits="userSpaceOnUse" id="color-13"><stop offset="0" stop-color="#1a1a1a"/><stop offset="1" stop-color="#f30000" stop-opacity="0"/></linearGradient><linearGradient x1="269.66326" y1="169.90666" x2="266.06967" y2="174.00183" gradientUnits="userSpaceOnUse" id="color-14"><stop offset="0" stop-color="#1a1a1a"/><stop offset="1" stop-color="#f30000" stop-opacity="0"/></linearGradient><linearGradient x1="268.47829" y1="171.22363" x2="262.54232" y2="171.1338" gradientUnits="userSpaceOnUse" id="color-15"><stop offset="0" stop-color="#1a1a1a"/><stop offset="1" stop-color="#f30000" stop-opacity="0"/></linearGradient><linearGradient x1="266.79412" y1="170.28025" x2="261.92484" y2="170.56732" gradientUnits="userSpaceOnUse" id="color-16"><stop offset="0" stop-color="#1a1a1a"/><stop offset="1" stop-color="#f30000" stop-opacity="0"/></linearGradient><linearGradient x1="217.51608" y1="168.8266" x2="215.65874" y2="169.55993" gradientUnits="userSpaceOnUse" id="color-17"><stop offset="0" stop-color="#1a1a1a"/><stop offset="1" stop-color="#f30000" stop-opacity="0"/></linearGradient><linearGradient x1="219.06836" y1="168.65697" x2="217.30058" y2="168.94414" gradientUnits="userSpaceOnUse" id="color-18"><stop offset="0" stop-color="#1a1a1a"/><stop offset="1" stop-color="#f30000" stop-opacity="0"/></linearGradient></defs><g transform="translate(-201.25046,-160.72164)"><g data-paper-data="{&quot;isPaintingLayer&quot;:true}" fill-rule="nonzero" stroke-dasharray="" stroke-dashoffset="0" style="mix-blend-mode: normal"><path d="M246.23373,161.41203v0.00001c0.06817,-0.0004 0.141,0.00595 0.21591,0.02009c0.02497,0.0047 0.05009,0.01133 0.07532,0.01757c0.02447,0.00608 0.05082,0.01259 0.07532,0.02009c0.05049,0.01551 0.1015,0.03387 0.15063,0.05524c0.14634,0.06375 0.28393,0.15517 0.38411,0.26612c0.0008,0.00085 0.0017,0.00166 0.00251,0.00251c0.0502,0.05607 0.08936,0.11659 0.118,0.18327l0.9766,2.51559l8.83208,-0.02009c0.06,-0.03003 0.11859,-0.05986 0.17825,-0.08787c0.23933,-0.11243 0.47488,-0.20864 0.71048,-0.29123c0.11748,-0.04118 0.23441,-0.07836 0.35148,-0.11298c0.40972,-0.1211 0.81848,-0.20498 1.23268,-0.2611c0.23669,-0.03208 0.47607,-0.05574 0.71801,-0.07281c0.12097,-0.00852 0.24374,-0.01447 0.36654,-0.02009c0.2456,-0.01124 0.49316,-0.0171 0.74814,-0.02009c0.50994,-0.00595 1.04273,0 1.60674,0c0.83633,0 1.63265,0.04268 2.39254,0.12563c0.30396,0.03314 0.60182,0.0721 0.89375,0.118c0.58387,0.09179 1.14308,0.2104 1.67955,0.35148c0.13412,0.03527 0.26798,0.0722 0.39918,0.11046c0.39358,0.11478 0.77227,0.24305 1.13978,0.38412c0.12251,0.04702 0.24439,0.09324 0.36403,0.14311c0.23927,0.09973 0.47254,0.20542 0.70044,0.31633c0.11394,0.05545 0.2278,0.11252 0.33892,0.17072c0.22225,0.11639 0.4392,0.23941 0.65023,0.36655c0.10552,0.06357 0.20856,0.12962 0.31131,0.19583c0.5137,0.33099 0.99323,0.69296 1.43854,1.08707c0.35579,0.31488 0.69104,0.64912 1.00421,1.00172c0.0004,0.00047 -0.0004,0.00203 0,0.00251c0.07796,0.0878 0.15561,0.17607 0.23096,0.26612c0.0004,0.00048 -0.0004,0.00203 0,0.00251c0.07533,0.09006 0.1507,0.18139 0.22344,0.27366c0.0004,0.00048 -0.0004,0.00203 0,0.00251c0.21896,0.27782 0.42686,0.56388 0.62261,0.86113c0.0004,0.00056 -0.00039,0.00194 0,0.00251c0.06498,0.09871 0.13086,0.19798 0.19331,0.29876c0.0004,0.00064 -0.0004,0.00194 0,0.00251c0.18803,0.30352 0.36688,0.61478 0.53223,0.93644c0.00032,0.00063 -0.00032,0.00187 0,0.00251c0.05487,0.10678 0.10828,0.21516 0.16067,0.32386c0.00032,0.00063 -0.00032,0.00187 0,0.00251c0.05238,0.10872 0.10572,0.21827 0.15566,0.32888c0.00032,0.00071 -0.00032,0.00187 0,0.00251c0.10013,0.22194 0.19586,0.44602 0.2862,0.67534c0.00032,0.00071 -0.00032,0.00178 0,0.00251c0.04501,0.11431 0.08795,0.23036 0.13055,0.34646c0.00024,0.00071 -0.00024,0.00178 0,0.00251c0.04258,0.11611 0.08535,0.23363 0.12553,0.35148c0.04017,0.11787 0.08021,0.23692 0.118,0.3565c0.00024,0.00071 -0.00024,0.00178 0,0.00251c0.03777,0.11959 0.07506,0.24025 0.11046,0.36153c0.00024,0.0008 -0.00024,0.0017 0,0.00251c0.03539,0.12128 0.0699,0.24362 0.10294,0.36655c0.00024,0.0008 -0.00024,0.0017 0,0.00251c0.09948,0.37036 0.19027,0.74763 0.26863,1.13227v0.00251c0.026,0.12769 0.0491,0.25743 0.07281,0.38662v0.00251c0.16667,0.9093 0.27814,1.85277 0.3339,2.82941c0.00004,0.00083 -0.00005,0.00169 0,0.00251c0.00787,0.13882 0.01438,0.27923 0.02009,0.41927c0.00004,0.00083 -0.00003,0.00169 0,0.00251c0.01146,0.28094 0.01986,0.56294 0.02259,0.84857c0,0.00083 -0.00001,0.00169 0,0.00251c0.00137,0.14324 0.00081,0.28745 0,0.43182c0,0.05108 -0.00169,0.10214 -0.00249,0.15314c0.00072,0.051 0.00249,0.10207 0.00249,0.15314c0.00081,0.14436 0.00137,0.28857 0,0.43182c-0.00001,0.00081 0,0.00168 0,0.00251c-0.00277,0.28563 -0.01113,0.56764 -0.02259,0.84857c-0.00003,0.00082 0.00004,0.00168 0,0.00251c-0.00572,0.14004 -0.01221,0.28045 -0.02009,0.41927c-0.00005,0.00082 0.00004,0.00168 0,0.00251c-0.05576,0.97665 -0.16722,1.92012 -0.3339,2.82941v0.00251c-0.02371,0.12919 -0.04681,0.25893 -0.07281,0.38662v0.00251c-0.07836,0.38464 -0.16915,0.7619 -0.26863,1.13227c-0.00024,0.00076 0.00024,0.0017 0,0.00251c-0.03303,0.12292 -0.06755,0.24526 -0.10294,0.36655c-0.00024,0.00077 0.00024,0.0017 0,0.00251c-0.0354,0.12127 -0.0727,0.24193 -0.11046,0.36153c-0.00024,0.00074 0.00024,0.00178 0,0.00251c-0.03778,0.11958 -0.07783,0.23864 -0.118,0.3565c-0.04019,0.11786 -0.08294,0.23537 -0.12553,0.35148c-0.00024,0.00072 0.00024,0.00178 0,0.00251c-0.0426,0.11609 -0.08554,0.23215 -0.13055,0.34646c-0.00032,0.0007 0.00032,0.00178 0,0.00251c-0.09033,0.22933 -0.18607,0.45341 -0.2862,0.67534c-0.00032,0.00068 0.00032,0.00178 0,0.00251c-0.04993,0.11061 -0.10328,0.22017 -0.15566,0.32888c-0.00032,0.00067 0.00032,0.00187 0,0.00251c-0.0524,0.10871 -0.1058,0.21708 -0.16067,0.32386c-0.00032,0.00066 0.00032,0.00187 0,0.00251c-0.16535,0.32166 -0.3442,0.63292 -0.53223,0.93644c-0.0004,0.0006 0.0004,0.00187 0,0.00251c-0.06245,0.10078 -0.12834,0.20006 -0.19331,0.29876c-0.00039,0.00058 0.0004,0.00194 0,0.00251c-0.19575,0.29724 -0.40364,0.5833 -0.62261,0.86113c-0.0004,0.00051 0.0004,0.00203 0,0.00251c-0.07274,0.09227 -0.14811,0.1836 -0.22344,0.27366c-0.0004,0.00049 0.0004,0.00203 0,0.00251c-0.07535,0.09006 -0.153,0.17832 -0.23096,0.26612c-0.0004,0.00047 0.0004,0.00203 0,0.00251c-0.31319,0.3526 -0.64843,0.68683 -1.00421,1.00172c-0.44531,0.39412 -0.92484,0.75607 -1.43854,1.08707c-0.10274,0.0662 -0.20578,0.13226 -0.31131,0.19583c-0.21104,0.12714 -0.42798,0.25015 -0.65023,0.36655c-0.11112,0.0582 -0.22498,0.11527 -0.33892,0.17072c-0.2279,0.11091 -0.46117,0.2166 -0.70044,0.31633c-0.11964,0.04987 -0.24152,0.09608 -0.36403,0.14311c-0.36751,0.14106 -0.74621,0.26933 -1.13978,0.38412c-0.13119,0.03826 -0.26506,0.07519 -0.39918,0.11046c-0.53648,0.14108 -1.09569,0.25969 -1.67955,0.35148c-0.29193,0.0459 -0.58979,0.08486 -0.89375,0.118c-0.7599,0.08285 -1.55622,0.12553 -2.39255,0.12553c-0.56401,0 -1.0968,0.00595 -1.60675,0c-0.25498,-0.00298 -0.50255,-0.00884 -0.74814,-0.02009c-0.1228,-0.00561 -0.24557,-0.01156 -0.36654,-0.02009c-0.24194,-0.01706 -0.48132,-0.04072 -0.71802,-0.07281c-0.41419,-0.05612 -0.82295,-0.13999 -1.23267,-0.2611c-0.11707,-0.0346 -0.234,-0.0718 -0.35148,-0.11298c-0.23561,-0.08259 -0.47114,-0.17879 -0.71049,-0.29123c-0.05966,-0.02801 -0.11824,-0.05784 -0.17824,-0.08787l-8.83208,-0.02009l-0.9766,2.51559c-0.02864,0.06668 -0.0678,0.1272 -0.11799,0.18327c-0.00077,0.00085 -0.00171,0.00165 -0.00251,0.00251c-0.10018,0.11096 -0.23778,0.20237 -0.38411,0.26612c-0.04912,0.02137 -0.10014,0.03973 -0.15063,0.05524c-0.0245,0.0075 -0.05084,0.01402 -0.07532,0.02009c-0.02522,0.00624 -0.05036,0.01287 -0.07532,0.01757c-0.07491,0.01413 -0.14773,0.02048 -0.21591,0.02009c-0.1212,-0.00072 -0.37928,-0.02449 -0.51968,-0.07532l-0.28118,-0.12051l0.69542,-2.88716l-10.02709,-0.02259c-0.19573,-0.00042 -0.39267,0.00113 -0.58998,0.00251c-0.39462,0.00275 -0.79253,0.0084 -1.19251,0.01757c-0.58588,0.01344 -1.17847,0.03317 -1.77244,0.05774c-0.03181,0.00131 -0.06358,0.00367 -0.0954,0.00502c-1.19964,0.05062 -2.41072,0.11984 -3.61769,0.19583c-1.63297,0.10305 -3.25531,0.2175 -4.83029,0.31131c-1.16715,0.06952 -2.30828,0.12689 -3.40429,0.16068c-0.7527,0.02319 -1.48335,0.03668 -2.18919,0.03263c-0.34672,-0.00199 -0.68833,-0.0075 -1.02179,-0.01757c-0.33346,-0.01008 -0.67325,-0.02855 -1.01677,-0.05272c-0.17176,-0.01209 -0.34367,-0.02492 -0.51718,-0.04017c-0.5197,-0.04567 -1.04801,-0.10616 -1.57411,-0.17574c-0.00081,-0.00008 -0.00169,0.00008 -0.00251,0c-0.35128,-0.04648 -0.70043,-0.09845 -1.04941,-0.15314c-0.34898,-0.05469 -0.69681,-0.1123 -1.03936,-0.17323c-0.34174,-0.06079 -0.6805,-0.12576 -1.01175,-0.19081c-0.00081,-0.00016 -0.0017,0.00016 -0.00251,0c-0.16601,-0.0326 -0.32696,-0.06461 -0.48955,-0.09791c-0.48696,-0.09975 -0.95874,-0.20213 -1.40591,-0.30377c-0.00081,-0.00016 -0.00169,0.00016 -0.00251,0c-0.29858,-0.06787 -0.58544,-0.13458 -0.86112,-0.20085c-0.55142,-0.13244 -1.05366,-0.25986 -1.48875,-0.37407c-0.65263,-0.17132 -1.15546,-0.3155 -1.45361,-0.40169c-0.19873,-0.05751 -0.30629,-0.09038 -0.30629,-0.09038l-1.09962,-0.30127c-0.0725,-0.01999 -0.14285,-0.05567 -0.21089,-0.10544c-0.02312,-0.01691 -0.04518,-0.03503 -0.06778,-0.05524c-0.08834,-0.0787 -0.17281,-0.18242 -0.25357,-0.3088c-0.00037,-0.00056 0.00037,-0.00194 0,-0.00251c-0.0402,-0.06304 -0.08215,-0.13179 -0.1205,-0.20587c-0.00034,-0.00065 0.00034,-0.00187 0,-0.00251c-0.03837,-0.07421 -0.07641,-0.15378 -0.11298,-0.23851c-0.0003,-0.00069 0.0003,-0.00178 0,-0.00251c-0.2946,-0.68363 -0.53184,-1.69765 -0.71801,-2.90975c-0.00012,-0.00078 0.00012,-0.0017 0,-0.00251c-0.00289,-0.01881 -0.00467,-0.03884 -0.00753,-0.05774c-0.04054,-0.26764 -0.0797,-0.54616 -0.11548,-0.831c-0.00245,-0.0195 -0.0051,-0.03818 -0.00753,-0.05774c-0.0403,-0.32482 -0.07606,-0.65897 -0.11046,-1.00172c-0.00008,-0.00082 0.00008,-0.00169 0,-0.00251c-0.01716,-0.17099 -0.03447,-0.34504 -0.05022,-0.51969c-0.00008,-0.00082 0.00008,-0.00168 0,-0.00251c-0.01573,-0.17468 -0.03085,-0.3494 -0.04519,-0.52721c-0.00007,-0.00081 0.00007,-0.00168 0,-0.00251c-0.02874,-0.35652 -0.05449,-0.71869 -0.07783,-1.08457c-0.00006,-0.00081 0.00006,-0.00168 0,-0.00251c-0.0701,-1.09935 -0.11726,-2.2325 -0.14311,-3.33906c-0.00002,-0.00084 0.00002,-0.00166 0,-0.00251c-0.01722,-0.73823 -0.02511,-1.46321 -0.02511,-2.1616c0,-0.07774 0.00221,-0.1577 0.00251,-0.23599c-0.0003,-0.0783 -0.00251,-0.15826 -0.00251,-0.23599c0,-0.6984 0.00789,-1.42337 0.02512,-2.16163c0.00002,-0.00084 -0.00002,-0.00167 0,-0.00251c0.02584,-1.10656 0.073,-2.2397 0.14311,-3.33906c0.00006,-0.00083 -0.00006,-0.0017 0,-0.00251c0.02334,-0.36588 0.04909,-0.72805 0.07783,-1.08457c0.00007,-0.00083 -0.00007,-0.00171 0,-0.00251c0.01435,-0.17781 0.02946,-0.35254 0.04519,-0.52721c0.00008,-0.00083 -0.00008,-0.0017 0,-0.00251c0.01573,-0.17465 0.03306,-0.34869 0.05022,-0.51969c0.00008,-0.00081 -0.00008,-0.0017 0,-0.00251c0.03441,-0.34275 0.07017,-0.6769 0.11046,-1.00172c0.00243,-0.01956 0.00509,-0.03824 0.00753,-0.05774c0.03579,-0.28484 0.07495,-0.56336 0.11548,-0.831c0.00286,-0.01891 0.00464,-0.03893 0.00753,-0.05774c0.00012,-0.00081 -0.00012,-0.0017 0,-0.00251c0.18617,-1.2121 0.42341,-2.22611 0.71801,-2.90975c0.0003,-0.00072 -0.0003,-0.00178 0,-0.00251c0.03656,-0.08473 0.07461,-0.16429 0.11298,-0.23851c0.00034,-0.00064 -0.00034,-0.00187 0,-0.00251c0.03837,-0.07408 0.08031,-0.14282 0.1205,-0.20587c0.00037,-0.00055 -0.00037,-0.00194 0,-0.00251c0.08076,-0.12638 0.16523,-0.2301 0.25357,-0.3088c0.02261,-0.02021 0.04467,-0.03832 0.06778,-0.05524c0.06803,-0.04978 0.13839,-0.08546 0.21089,-0.10544l1.09962,-0.30127c0,0 0.10756,-0.03288 0.30629,-0.09038c0.29815,-0.08618 0.80096,-0.23037 1.45361,-0.40169c0.43509,-0.11422 0.93732,-0.24164 1.48875,-0.37407c0.27567,-0.06626 0.56254,-0.13296 0.86112,-0.20085c0.00081,-0.00016 0.0017,0.00016 0.00251,0c0.44717,-0.10164 0.91894,-0.20403 1.40591,-0.30377c0.1626,-0.03331 0.32354,-0.0653 0.48955,-0.09791c0.00081,-0.00016 0.0017,0.00016 0.00251,0c0.33125,-0.06504 0.67001,-0.13002 1.01175,-0.19081c0.34256,-0.06093 0.69038,-0.11854 1.03936,-0.17323c0.34898,-0.05469 0.69813,-0.10666 1.04941,-0.15314c0.00081,-0.00008 0.0017,0.00008 0.00251,0c0.5261,-0.06958 1.05441,-0.13007 1.57411,-0.17574c0.17351,-0.01525 0.34541,-0.02807 0.51718,-0.04017c0.34352,-0.02417 0.68331,-0.04264 1.01677,-0.05272c0.33347,-0.01008 0.67507,-0.01558 1.02179,-0.01757c0.70584,-0.00404 1.43648,0.00945 2.18919,0.03263c1.096,0.03378 2.23714,0.09116 3.40429,0.16068c1.57497,0.09381 3.19731,0.20826 4.83029,0.31131c1.20696,0.07598 2.41805,0.1452 3.61769,0.19583c0.03183,0.00135 0.0636,0.00371 0.09539,0.00502c0.59397,0.02457 1.18657,0.04431 1.77244,0.05774c0.39998,0.00918 0.79788,0.01482 1.19251,0.01757c0.19731,0.00138 0.39424,0.00291 0.58998,0.00251l10.0271,-0.02259l-0.69542,-2.88716l0.28118,-0.12051c0.1404,-0.05083 0.39848,-0.07459 0.51968,-0.07532z" fill="#000000" stroke="#191919" stroke-width="1.5" stroke-linecap="butt" stroke-linejoin="miter" stroke-miterlimit="4"/><path d="M246.23373,161.41203v0.00001c0.06817,-0.0004 0.141,0.00598 0.21591,0.02009c0.02497,0.00469 0.05009,0.01134 0.07532,0.01757c0.02447,0.00606 0.05083,0.01261 0.07532,0.02009c0.05049,0.01548 0.1015,0.03391 0.15063,0.05524c0.14634,0.06363 0.28393,0.15286 0.38411,0.26361c0.0008,0.00085 0.0017,0.00167 0.00251,0.00251c0.0502,0.05596 0.08936,0.11671 0.118,0.18327l0.9766,2.51056l8.83208,-0.02009c1.92012,-0.95943 3.65628,-0.86113 5.91232,-0.86113c10.70497,0 15.07355,6.95619 15.02309,16.1781c0,0.06268 -0.00153,0.12578 -0.00249,0.18829c0.00097,0.06252 0.00249,0.12562 0.00249,0.18829c0.05047,9.22191 -4.31811,16.1781 -15.02309,16.1781c-2.25604,0 -3.99221,0.0983 -5.91232,-0.86113l-8.83208,-0.02009l-0.9766,2.51057c-0.02864,0.06656 -0.0678,0.12731 -0.118,0.18327c-0.00076,0.00084 -0.0017,0.00165 -0.00251,0.00251c-0.10018,0.11074 -0.23778,0.19997 -0.38411,0.26361c-0.04913,0.02133 -0.10014,0.03975 -0.15063,0.05524c-0.02449,0.00748 -0.05084,0.01403 -0.07532,0.02009c-0.02522,0.00623 -0.05036,0.01288 -0.07532,0.01757c-0.0749,0.01411 -0.14773,0.02048 -0.21591,0.02009c-0.1212,-0.00072 -0.37928,-0.02459 -0.51968,-0.07532l-0.28118,-0.12051l0.69542,-2.87962l-10.0271,-0.02259c-6.26339,-0.01329 -13.37811,0.92418 -18.71357,0.76321c-5.33545,-0.16097 -12.22132,-2.24947 -12.22132,-2.24947l-1.09962,-0.30377c-1.54661,-0.4255 -2.06618,-7.82229 -2.06618,-13.3989c0,-0.08942 0.00214,-0.18101 0.00251,-0.27114c-0.00037,-0.09013 -0.00251,-0.18172 -0.00251,-0.27114c0,-5.57662 0.51957,-12.97341 2.06618,-13.3989l1.09962,-0.30377c0,0 6.88586,-2.0885 12.22132,-2.24947c5.33545,-0.16098 12.45017,0.77649 18.71357,0.76321l10.0271,-0.02259l-0.69542,-2.87962l0.28118,-0.12051c0.1404,-0.05072 0.39848,-0.07459 0.51968,-0.07532z" fill="#616161" stroke="none" stroke-width="1" stroke-linecap="butt" stroke-linejoin="miter" stroke-miterlimit="10"/><path d="M229.34786,190.45775c7.93356,0 14.87213,1.25605 18.66085,3.13067c-2.56977,-0.03983 -5.77178,-0.14383 -9.76349,-0.19081c-8.6424,-0.1017 -14.45284,1.3804 -16.51434,-2.53316c2.37035,-0.26211 4.93657,-0.40671 7.61698,-0.40671z" fill="#262626" stroke="none" stroke-width="1" stroke-linecap="butt" stroke-linejoin="miter" stroke-miterlimit="10" opacity="0.9"/><path d="M229.34786,190.45775c0.10085,0 0.20074,-0.0004 0.30127,0c0.09046,1.31229 0.57465,2.43988 1.2628,3.09804c-0.39705,0.01183 -0.78457,0.02154 -1.15987,0.02761c-0.656,-0.68988 -1.10668,-1.82149 -1.17243,-3.12063c0.25542,-0.00266 0.51063,-0.00502 0.76823,-0.00502z" fill="#000000" stroke="none" stroke-width="1" stroke-linecap="butt" stroke-linejoin="miter" stroke-miterlimit="10" opacity="0.5"/><path d="M276.4732,188.60353c-0.73129,1.62626 -1.72861,3.05844 -3.00511,4.23783l-0.42177,0.38914l0.03013,-0.57241c0.12794,-2.29387 1.42489,-4.17907 3.15575,-4.38094l0.40922,-0.0477z" fill="#4d4d4d" stroke="#4d4d4d" stroke-width="1" stroke-linecap="butt" stroke-linejoin="miter" stroke-miterlimit="4"/><path d="M260.12819,189.11303c0,0 6.40112,-1.81536 8.46573,-2.56936c2.15623,-0.78746 7.94214,-3.14489 7.94214,-3.14489c0,0 -0.70223,3.41193 -2.44894,4.65303c-6.20397,4.40813 -18.69356,4.3265 -18.69356,4.3265" fill="none" stroke="#292929" stroke-width="1.5" stroke-linecap="round" stroke-linejoin="round" stroke-miterlimit="4" opacity="0.5"/><path d="M267.42097,187.91516c0.35917,0.87713 -0.45744,2.05203 -1.84776,2.7315l-1.0946,0.31131c0.12801,-0.06553 0.23214,-0.11622 0.27365,-0.13306c1.29657,-0.52584 2.54452,-1.93327 2.15907,-2.8746c-0.04656,-0.11369 -0.11134,-0.21587 -0.1908,-0.3088l0.3565,-0.18829c0.15313,0.12725 0.27034,0.28219 0.34394,0.46195z" fill="url(#color-1)" stroke="none" stroke-width="1" stroke-linecap="butt" stroke-linejoin="miter" stroke-miterlimit="10"/><path d="M268.1106,187.55677c0.35917,0.87713 -0.45744,2.05203 -1.84776,2.7315l-1.0946,0.31131c0.12801,-0.06553 0.23213,-0.11622 0.27365,-0.13306c1.29657,-0.52584 2.54452,-1.93327 2.15907,-2.8746c-0.04656,-0.11369 -0.11134,-0.21587 -0.1908,-0.3088l0.3565,-0.18829c0.15313,0.12725 0.27034,0.28219 0.34394,0.46195z" fill="url(#color-2)" stroke="none" stroke-width="1" stroke-linecap="butt" stroke-linejoin="miter" stroke-miterlimit="10"/><path d="M268.60766,187.44316c0.35917,0.87713 -0.45744,2.05203 -1.84776,2.7315l-1.0946,0.31131c0.12801,-0.06553 0.23214,-0.11622 0.27365,-0.13306c1.29657,-0.52584 2.54452,-1.93327 2.15907,-2.8746c-0.04656,-0.11369 -0.11134,-0.21587 -0.1908,-0.3088l0.3565,-0.18829c0.15313,0.12725 0.27034,0.28219 0.34394,0.46195z" fill="url(#color-3)" stroke="none" stroke-width="1" stroke-linecap="butt" stroke-linejoin="miter" stroke-miterlimit="10"/><path d="M269.94078,187.30822c0.24698,1.2695 -1.2524,2.63137 -3.36413,3.07293l-3.32914,0.97596v-0.3314c0.26303,-0.01835 2.31077,-0.65522 2.5835,-0.70733c1.77297,-0.33874 3.70763,-1.80489 3.45701,-3.09302c-0.03027,-0.15557 -0.08605,-0.30175 -0.16318,-0.43935l0.49709,-0.14812c0.16169,0.19958 0.27098,0.42435 0.31883,0.67032z" fill="url(#color-4)" stroke="none" stroke-width="1" stroke-linecap="butt" stroke-linejoin="miter" stroke-miterlimit="10"/><path d="M269.94078,187.30822c0.24698,1.2695 -1.2524,2.63137 -3.36413,3.07293l-3.32914,0.97596v-0.3314c0.26303,-0.01835 2.31077,-0.65522 2.5835,-0.70733c1.77297,-0.33874 3.70763,-1.80489 3.45701,-3.09302c-0.03027,-0.15557 -0.08605,-0.30175 -0.16318,-0.43935l0.49709,-0.14812c0.16169,0.19958 0.27098,0.42435 0.31883,0.67032z" fill="url(#color-5)" stroke="none" stroke-width="1" stroke-linecap="butt" stroke-linejoin="miter" stroke-miterlimit="10"/><path d="M266.04495,187.82434c0.13679,0.11368 0.2415,0.25209 0.30725,0.41266c0.32086,0.78357 -0.40865,1.83312 -1.65064,2.44011l-0.97783,0.2781c0.11435,-0.05853 0.20737,-0.10383 0.24446,-0.11886c1.15825,-0.46974 2.27308,-1.72704 1.92874,-2.56795c-0.04158,-0.10156 -0.09946,-0.19283 -0.17045,-0.27585l0.31847,-0.1682z" fill="url(#color-6)" stroke="none" stroke-width="1" stroke-linecap="butt" stroke-linejoin="miter" stroke-miterlimit="10"/><path d="M264.93569,188.11141c0.13679,0.11368 0.2415,0.25209 0.30725,0.41266c0.32086,0.78357 -0.40865,1.83312 -1.65064,2.44011l-0.97783,0.2781c0.11435,-0.05853 0.20737,-0.10383 0.24446,-0.11886c1.15825,-0.46975 2.27308,-1.72704 1.92874,-2.56795c-0.04158,-0.10156 -0.09946,-0.19283 -0.17045,-0.27585l0.31847,-0.1682z" fill="url(#color-7)" stroke="none" stroke-width="1" stroke-linecap="butt" stroke-linejoin="miter" stroke-miterlimit="10"/><path d="M215.92542,189.6935c0.66625,-0.16256 1.24408,-0.1188 1.59049,0.46493l-0.20031,1.43779c-0.55233,0.49595 -1.10466,0.39775 -1.65701,0.01249z" fill="url(#color-8)" stroke="none" stroke-width="1" stroke-linecap="butt" stroke-linejoin="miter" stroke-miterlimit="10"/><path d="M217.55437,189.95567c0.65477,-0.09722 1.21846,-0.04602 1.5138,0.44251l-0.19065,1.36846c-0.52091,0.23899 -1.04302,0.41853 -1.5771,0.01189z" fill="url(#color-9)" stroke="none" stroke-width="1" stroke-linecap="butt" stroke-linejoin="miter" stroke-miterlimit="10"/><path d="M248.09658,193.40876l-0.09038,0.3816c-2.57259,-0.03987 -5.77401,-0.14386 -9.76349,-0.19081c-4.30919,-0.05071 -7.91733,0.29322 -10.73256,0.16068c-1.40761,-0.06627 -2.61843,-0.25012 -3.62271,-0.67785c-1.00427,-0.42773 -1.79886,-1.1065 -2.3348,-2.12394l-0.13808,-0.2611l0.29374,-0.03263c2.37806,-0.26296 4.95194,-0.40671 7.63958,-0.40671c7.95476,0 14.9046,1.24873 18.74872,3.15076zM222.07482,191.03376c0.48319,0.78345 1.12848,1.32189 1.96827,1.67957c0.93505,0.39824 2.10416,0.58261 3.48714,0.64773c2.76596,0.13022 6.38429,-0.21418 10.7175,-0.16318c3.54287,0.0417 6.37557,0.12393 8.78187,0.17072c-3.88387,-1.62605 -10.35735,-2.7089 -17.68174,-2.7089c-2.5544,0 -4.99887,0.13443 -7.27304,0.37407z" fill="#191919" stroke="none" stroke-width="5" stroke-linecap="butt" stroke-linejoin="miter" stroke-miterlimit="10" opacity="0.9"/><path d="M220.04126,172.4736v14.99311c0,1.06818 -0.85994,1.92812 -1.9281,1.92812l-6.24622,-1.00172c-2.18121,-0.34981 -3.93232,-3.91832 -4.09721,-8.42296c0.16488,-4.50464 1.91599,-8.07315 4.09721,-8.42296l6.24622,-1.00172c1.06817,0 1.9281,0.85994 1.9281,1.92812z" fill="#262626" stroke="#191919" stroke-width="1.5" stroke-linecap="butt" stroke-linejoin="miter" stroke-miterlimit="4" opacity="0.9"/><path d="M252.77619,167.79642c3.64699,0 6.60359,4.60841 6.61276,12.17375c-0.00916,7.56533 -2.96577,12.17375 -6.61276,12.17375c-0.23854,0 -0.47345,-0.02668 -0.70546,-0.07783c-0.00084,0.00081 -0.00166,0.00169 -0.00251,0.00251l-5.12903,-0.98916c-1.42422,-0.53061 -2.57079,-1.14659 -2.57079,-2.57082v-17.07688c0,-1.42424 1.14658,-2.04022 2.57079,-2.57082l5.12903,-0.98916c0.00084,0.00082 0.00167,0.0017 0.00251,0.00251c0.23201,-0.05115 0.46692,-0.07783 0.70546,-0.07783z" fill="#262626" stroke="#191919" stroke-width="1.5" stroke-linecap="butt" stroke-linejoin="miter" stroke-miterlimit="4" opacity="0.9"/><path d="M229.34786,169.48253c-2.68041,0 -5.24664,-0.14461 -7.61698,-0.40671c2.0615,-3.91357 7.87194,-2.43147 16.51434,-2.53316c3.99171,-0.04698 7.19373,-0.15098 9.76349,-0.19081c-3.78872,1.87462 -10.72729,3.13067 -18.66085,3.13067z" fill="#262626" stroke="none" stroke-width="1" stroke-linecap="butt" stroke-linejoin="miter" stroke-miterlimit="10" opacity="0.9"/><path d="M229.34786,169.48253c-0.2576,0 -0.5128,-0.00236 -0.76823,-0.00502c0.06574,-1.29915 0.51642,-2.43075 1.17243,-3.12063c0.37529,0.00608 0.76281,0.01579 1.15987,0.02761c-0.68815,0.65816 -1.17234,1.78576 -1.2628,3.09804c-0.10053,0.0004 -0.20041,0 -0.30127,0z" fill="#000000" stroke="none" stroke-width="1" stroke-linecap="butt" stroke-linejoin="miter" stroke-miterlimit="10" opacity="0.5"/><path d="M276.64143,171.71083l-0.40922,-0.0477c-1.73087,-0.20187 -3.0278,-2.08707 -3.15575,-4.38094l-0.03013,-0.57241l0.42177,0.38914c1.27651,1.1794 2.27383,2.61159 3.00511,4.23783z" fill="#4d4d4d" stroke="#4d4d4d" stroke-width="1" stroke-linecap="butt" stroke-linejoin="miter" stroke-miterlimit="4"/><path d="M255.39358,167.56196c0,0 12.48958,-0.08163 18.69356,4.3265c1.74671,1.2411 2.44894,4.65303 2.44894,4.65303c0,0 -5.78591,-2.35743 -7.94214,-3.14489c-2.06461,-0.754 -8.46573,-2.56936 -8.46573,-2.56936" fill="none" stroke="#292929" stroke-width="1.5" stroke-linecap="round" stroke-linejoin="round" stroke-miterlimit="4" opacity="0.5"/><path d="M267.07703,172.48706l-0.3565,-0.18829c0.07946,-0.09294 0.14424,-0.19511 0.1908,-0.3088c0.38545,-0.94132 -0.8625,-2.34877 -2.15907,-2.8746c-0.04151,-0.01684 -0.14564,-0.06754 -0.27365,-0.13306l1.0946,0.31131c1.39031,0.67947 2.20693,1.85436 1.84776,2.7315c-0.0736,0.17974 -0.19082,0.33469 -0.34394,0.46195z" fill="url(#color-10)" stroke="none" stroke-width="1" stroke-linecap="butt" stroke-linejoin="miter" stroke-miterlimit="10"/><path d="M267.76666,172.84546l-0.3565,-0.18829c0.07946,-0.09294 0.14424,-0.19511 0.1908,-0.3088c0.38545,-0.94132 -0.8625,-2.34877 -2.15907,-2.8746c-0.04152,-0.01684 -0.14564,-0.06754 -0.27365,-0.13306l1.0946,0.31131c1.39031,0.67947 2.20693,1.85436 1.84776,2.7315c-0.0736,0.17974 -0.19082,0.33469 -0.34394,0.46195z" fill="url(#color-11)" stroke="none" stroke-width="1" stroke-linecap="butt" stroke-linejoin="miter" stroke-miterlimit="10"/><path d="M268.26373,172.95908l-0.3565,-0.18829c0.07946,-0.09294 0.14424,-0.19511 0.1908,-0.3088c0.38545,-0.94132 -0.8625,-2.34877 -2.15907,-2.8746c-0.04151,-0.01684 -0.14564,-0.06754 -0.27365,-0.13306l1.0946,0.31131c1.39031,0.67947 2.20693,1.85436 1.84776,2.7315c-0.0736,0.17974 -0.19082,0.33469 -0.34394,0.46195z" fill="url(#color-12)" stroke="none" stroke-width="1" stroke-linecap="butt" stroke-linejoin="miter" stroke-miterlimit="10"/><path d="M269.62193,173.30238l-0.49709,-0.14812c0.07714,-0.13761 0.13292,-0.28378 0.16318,-0.43935c0.2506,-1.28813 -1.68405,-2.75428 -3.45701,-3.09302c-0.27275,-0.05211 -2.32049,-0.68898 -2.5835,-0.70733v-0.3314l3.32914,0.97596c2.11172,0.44156 3.61111,1.80343 3.36413,3.07293c-0.04785,0.24597 -0.15714,0.47075 -0.31883,0.67032z" fill="url(#color-13)" stroke="none" stroke-width="1" stroke-linecap="butt" stroke-linejoin="miter" stroke-miterlimit="10"/><path d="M269.62193,173.30238l-0.49709,-0.14812c0.07714,-0.13761 0.13292,-0.28378 0.16318,-0.43935c0.2506,-1.28813 -1.68405,-2.75428 -3.45701,-3.09302c-0.27275,-0.05211 -2.32049,-0.68898 -2.5835,-0.70733v-0.3314l3.32914,0.97596c2.11172,0.44156 3.61111,1.80343 3.36413,3.07293c-0.04785,0.24597 -0.15714,0.47075 -0.31883,0.67032z" fill="url(#color-14)" stroke="none" stroke-width="1" stroke-linecap="butt" stroke-linejoin="miter" stroke-miterlimit="10"/><path d="M266.04495,172.11595l-0.31847,-0.1682c0.07099,-0.08302 0.12886,-0.1743 0.17045,-0.27586c0.34434,-0.84091 -0.77049,-2.09821 -1.92874,-2.56795c-0.03709,-0.01504 -0.13011,-0.06034 -0.24446,-0.11887l0.97783,0.2781c1.242,0.60699 1.9715,1.65655 1.65064,2.44011c-0.06575,0.16057 -0.17047,0.29899 -0.30725,0.41266z" fill="url(#color-15)" stroke="none" stroke-width="1" stroke-linecap="butt" stroke-linejoin="miter" stroke-miterlimit="10"/><path d="M264.93569,171.82887l-0.31847,-0.1682c0.07099,-0.08302 0.12886,-0.1743 0.17045,-0.27585c0.34434,-0.84091 -0.77049,-2.09821 -1.92874,-2.56795c-0.03709,-0.01504 -0.13011,-0.06033 -0.24446,-0.11886l0.97783,0.2781c1.242,0.60699 1.9715,1.65654 1.65064,2.44011c-0.06575,0.16057 -0.17046,0.29899 -0.30725,0.41266z" fill="url(#color-16)" stroke="none" stroke-width="1" stroke-linecap="butt" stroke-linejoin="miter" stroke-miterlimit="10"/><path d="M215.92542,170.24679l-0.26683,-1.91521c0.55233,-0.38526 1.10467,-0.48346 1.65701,0.01249l0.20031,1.43779c-0.34641,0.58374 -0.92424,0.62749 -1.59049,0.46493z" fill="url(#color-17)" stroke="none" stroke-width="1" stroke-linecap="butt" stroke-linejoin="miter" stroke-miterlimit="10"/><path d="M217.55437,169.98462l-0.25395,-1.82286c0.53408,-0.40665 1.05619,-0.2271 1.5771,0.01189l0.19065,1.36846c-0.29533,0.48853 -0.85903,0.53974 -1.5138,0.44251z" fill="url(#color-18)" stroke="none" stroke-width="1" stroke-linecap="butt" stroke-linejoin="miter" stroke-miterlimit="10"/><path d="M229.34786,169.68228c-2.68763,0 -5.26152,-0.14375 -7.63958,-0.40671l-0.29374,-0.03263l0.13808,-0.2611c0.53594,-1.01743 1.33053,-1.69622 2.3348,-2.12394c1.00428,-0.42773 2.2151,-0.61158 3.62271,-0.67785c2.81523,-0.13254 6.42337,0.21138 10.73256,0.16068c3.98948,-0.04695 7.19089,-0.15093 9.76349,-0.19081l0.09038,0.3816c-3.84412,1.90204 -10.79396,3.15076 -18.74872,3.15076zM229.34786,169.2806c7.32439,0 13.79786,-1.08285 17.68174,-2.7089c-2.40629,0.04679 -5.23901,0.12902 -8.78187,0.17072c-4.33321,0.051 -7.95154,-0.29341 -10.7175,-0.16318c-1.38298,0.06512 -2.55209,0.24949 -3.48714,0.64773c-0.83979,0.35767 -1.48508,0.89612 -1.96827,1.67957c2.27417,0.23965 4.71864,0.37407 7.27304,0.37407z" fill="#191919" stroke="none" stroke-width="5" stroke-linecap="butt" stroke-linejoin="miter" stroke-miterlimit="10" opacity="0.9"/></g></g></svg>