<svg version="1.1" xmlns="http://www.w3.org/2000/svg" xmlns:xlink="http://www.w3.org/1999/xlink" width="328" height="188.68227" viewBox="0,0,328,188.68227"><g transform="translate(-76,-85.65887)"><g data-paper-data="{&quot;isPaintingLayer&quot;:true}" stroke-miterlimit="10" stroke-dasharray="" stroke-dashoffset="0" style="mix-blend-mode: normal"><path d="M167.96313,162.67932h144.07381c4.22409,0 7.64818,3.31781 7.64818,7.41081v19.81973c0,4.09269 -3.42408,7.41081 -7.64818,7.41081h-144.07381c-4.22399,0 -7.64825,-3.31813 -7.64825,-7.41081v-19.81973c0,-4.09299 3.42425,-7.41081 7.64825,-7.41081z" fill="#4c4c4c" fill-rule="evenodd" stroke="none" stroke-width="14" stroke-linecap="round" stroke-linejoin="round"/><path d="M76,274.34114v-188.68227h328v188.68227z" fill="none" fill-rule="nonzero" stroke="none" stroke-width="0" stroke-linecap="butt" stroke-linejoin="miter"/><path d="M167.96313,162.67932h144.07381c4.22409,0 7.64818,7.7379 7.64818,17.28372h-159.37024c0,-9.5458 3.42425,-17.28372 7.64825,-17.28372z" fill="#000000" fill-rule="evenodd" stroke="none" stroke-width="14" stroke-linecap="round" stroke-linejoin="round"/><path d="M167.96313,162.67932h144.07381c4.22409,0 7.64818,3.31781 7.64818,7.41081v19.81973c0,4.09269 -3.42408,7.41081 -7.64818,7.41081h-144.07381c-4.22399,0 -7.64825,-3.31813 -7.64825,-7.41081v-19.81973c0,-4.09299 3.42425,-7.41081 7.64825,-7.41081z" fill="none" fill-rule="evenodd" stroke="#ffffff" stroke-width="5" stroke-linecap="round" stroke-linejoin="round"/><path d="M200.28145,187.22656c-0.28125,0 -0.48437,-0.11458 -0.60937,-0.34375c-0.125,-0.23958 -0.14062,-0.47396 -0.04687,-0.70313l5.48438,-13.01564c0.13542,-0.34375 0.375,-0.51562 0.71875,-0.51562c0.32292,0 0.55208,0.17188 0.6875,0.51563l5.5,13.03126c0.11458,0.23958 0.09896,0.47396 -0.04687,0.70313c-0.14583,0.21875 -0.34896,0.32813 -0.60937,0.32813c-0.14583,0 -0.28125,-0.03646 -0.40625,-0.10937c-0.11458,-0.07292 -0.20833,-0.1875 -0.28125,-0.34375l-5.125,-12.4375h0.57813l-5.17187,12.4375c-0.0625,0.15625 -0.15625,0.27083 -0.28125,0.34375c-0.11458,0.07292 -0.24479,0.10938 -0.39062,0.10938zM201.51582,183.75781l0.5625,-1.25h7.5625l0.5625,1.25zM218.45929,187.33594c-0.88542,0 -1.67708,-0.18229 -2.375,-0.54687c-0.69792,-0.36458 -1.25,-0.90104 -1.65625,-1.60938c-0.39583,-0.70833 -0.59375,-1.57292 -0.59375,-2.59375v-4.85937c0,-0.19792 0.06771,-0.36458 0.20313,-0.5c0.13542,-0.13542 0.30208,-0.20312 0.5,-0.20312c0.20833,0 0.38021,0.06771 0.51563,0.20313c0.13542,0.13542 0.20313,0.30208 0.20313,0.5v4.85938c0,0.77083 0.14583,1.40625 0.4375,1.90625c0.30208,0.48958 0.70313,0.85938 1.20313,1.10938c0.5,0.25 1.06771,0.375 1.70313,0.375c0.61458,0 1.16667,-0.11458 1.65625,-0.34375c0.48958,-0.23958 0.875,-0.5625 1.15625,-0.96875c0.29167,-0.41667 0.4375,-0.88542 0.4375,-1.40625h1.03125c-0.04167,0.78125 -0.26042,1.47917 -0.65625,2.09375c-0.38542,0.61458 -0.91146,1.09896 -1.57813,1.45313c-0.65625,0.35417 -1.38542,0.53125 -2.1875,0.53125zM222.55304,187.22656c-0.20833,0 -0.38021,-0.0625 -0.51562,-0.1875c-0.125,-0.13542 -0.1875,-0.31771 -0.1875,-0.54688v-8.76562c0,-0.20833 0.0625,-0.375 0.1875,-0.5c0.13542,-0.13542 0.30729,-0.20312 0.51563,-0.20312c0.21875,0 0.39583,0.06771 0.53125,0.20313c0.13542,0.125 0.20313,0.29167 0.20313,0.5v8.76563c0,0.22917 -0.06771,0.41146 -0.20312,0.54688c-0.13542,0.125 -0.3125,0.1875 -0.53125,0.1875zM231.2927,187.32031c-0.98958,0 -1.875,-0.22396 -2.65625,-0.67187c-0.78125,-0.45833 -1.40104,-1.07813 -1.85937,-1.85938c-0.44792,-0.79167 -0.67187,-1.68229 -0.67187,-2.67187c0,-0.97917 0.21875,-1.85937 0.65625,-2.64062c0.44792,-0.79167 1.04688,-1.41146 1.79688,-1.85937c0.76042,-0.45833 1.61979,-0.6875 2.57813,-0.6875c0.83333,0 1.58333,0.17708 2.25,0.53125c0.67708,0.35417 1.22396,0.82292 1.64063,1.40625v-5.48439c0,-0.21875 0.06771,-0.39583 0.20313,-0.53125c0.13542,-0.13542 0.30729,-0.20312 0.51563,-0.20312c0.20833,0 0.38021,0.06771 0.51563,0.20313c0.14583,0.13542 0.21875,0.3125 0.21875,0.53125v8.81251c-0.03125,0.96875 -0.27604,1.84375 -0.73437,2.625c-0.44792,0.77083 -1.0625,1.38021 -1.84375,1.82813c-0.77083,0.44792 -1.64062,0.67188 -2.60937,0.67188zM231.2927,186.00781c0.71875,0 1.35938,-0.16667 1.92188,-0.5c0.57292,-0.34375 1.02083,-0.80729 1.34375,-1.39062c0.33333,-0.59375 0.5,-1.26042 0.5,-2c0,-0.73958 -0.16667,-1.40104 -0.5,-1.98437c-0.32292,-0.59375 -0.77083,-1.05729 -1.34375,-1.39062c-0.5625,-0.34375 -1.20312,-0.51562 -1.92187,-0.51562c-0.70833,0 -1.34896,0.17188 -1.92187,0.51563c-0.57292,0.33333 -1.03125,0.79688 -1.375,1.39063c-0.33333,0.58333 -0.5,1.24479 -0.5,1.98438c0,0.73958 0.16667,1.40625 0.5,2c0.34375,0.58333 0.80208,1.04688 1.375,1.39063c0.57292,0.33333 1.21354,0.5 1.92188,0.5zM240.85767,187.22656c-0.21875,0 -0.39583,-0.0625 -0.53125,-0.1875c-0.125,-0.13542 -0.1875,-0.31771 -0.1875,-0.54688v-8.75c0,-0.21875 0.0625,-0.39062 0.1875,-0.51562c0.13542,-0.13542 0.3125,-0.20312 0.53125,-0.20312c0.20833,0 0.38021,0.06771 0.51563,0.20313c0.13542,0.125 0.20313,0.29688 0.20313,0.51563v8.75c0,0.22917 -0.06771,0.41146 -0.20312,0.54688c-0.13542,0.125 -0.30729,0.1875 -0.51562,0.1875zM240.84204,175.08594c-0.28125,0 -0.52083,-0.09896 -0.71875,-0.29687c-0.19792,-0.20833 -0.29687,-0.45312 -0.29687,-0.73437c0,-0.31251 0.10417,-0.55731 0.3125,-0.73439c0.20833,-0.17708 0.44792,-0.26562 0.71875,-0.26562c0.26042,0 0.48958,0.08854 0.6875,0.26563c0.20833,0.17708 0.3125,0.42188 0.3125,0.73439c0,0.28125 -0.09896,0.52604 -0.29687,0.73438c-0.19792,0.19792 -0.4375,0.29688 -0.71875,0.29688zM249.87434,187.32031c-1,0 -1.89062,-0.22396 -2.67187,-0.67187c-0.78126,-0.44792 -1.39584,-1.0625 -1.84376,-1.84375c-0.44792,-0.78125 -0.67187,-1.67187 -0.67187,-2.67187c0,-1.01042 0.22396,-1.90625 0.67188,-2.6875c0.44792,-0.78125 1.0625,-1.39583 1.84376,-1.84375c0.78125,-0.44792 1.67188,-0.67187 2.67188,-0.67187c0.98958,0 1.875,0.22396 2.65625,0.67188c0.78125,0.44792 1.39583,1.0625 1.84375,1.84375c0.44792,0.78125 0.67708,1.67708 0.6875,2.6875c0,1 -0.22917,1.89063 -0.6875,2.67188c-0.44792,0.78125 -1.0625,1.39583 -1.84375,1.84375c-0.78125,0.44792 -1.66667,0.67188 -2.65625,0.67188zM249.87434,186.00781c0.71875,0 1.36458,-0.16667 1.9375,-0.5c0.57292,-0.33333 1.02083,-0.79167 1.34375,-1.375c0.32292,-0.58333 0.48438,-1.25 0.48438,-2c0,-0.75 -0.16146,-1.41667 -0.48437,-2c-0.32292,-0.59375 -0.77083,-1.05729 -1.34375,-1.39062c-0.57292,-0.34375 -1.21875,-0.51562 -1.9375,-0.51562c-0.71875,0 -1.36458,0.17188 -1.9375,0.51563c-0.57292,0.33333 -1.02604,0.79688 -1.35937,1.39063c-0.33334,0.58333 -0.50001,1.25 -0.50001,2c0,0.75 0.16667,1.41667 0.50001,2c0.33333,0.58333 0.78646,1.04167 1.35938,1.375c0.57292,0.33333 1.21875,0.5 1.9375,0.5zM263.33027,179.30469c-0.30208,0 -0.5625,-0.09896 -0.78125,-0.29687c-0.21875,-0.20833 -0.32812,-0.46875 -0.32812,-0.78125c0,-0.3125 0.10417,-0.57292 0.3125,-0.78125c0.21875,-0.20833 0.48438,-0.3125 0.79688,-0.3125c0.29167,0 0.54167,0.10938 0.75,0.32813c0.20833,0.20833 0.3125,0.46354 0.3125,0.76563c0,0.30208 -0.10417,0.55729 -0.3125,0.76563c-0.20833,0.20833 -0.45833,0.3125 -0.75,0.3125zM263.36152,187.52344c-0.30208,0 -0.55729,-0.10417 -0.76562,-0.3125c-0.20833,-0.20833 -0.3125,-0.46354 -0.3125,-0.76563c0,-0.3125 0.10417,-0.57292 0.3125,-0.78125c0.21875,-0.21875 0.47396,-0.32812 0.76563,-0.32812c0.30208,0 0.55729,0.10938 0.76563,0.32813c0.20833,0.21875 0.3125,0.47917 0.3125,0.78125c0,0.28125 -0.10417,0.53125 -0.3125,0.75c-0.19792,0.21875 -0.45312,0.32813 -0.76562,0.32813zM279.34077,187.41406c-1.07292,0 -2.06771,-0.1875 -2.98437,-0.5625c-0.90625,-0.375 -1.69271,-0.89583 -2.35937,-1.5625c-0.66667,-0.67708 -1.18229,-1.46875 -1.54687,-2.375c-0.36458,-0.90625 -0.54687,-1.90104 -0.54687,-2.98437c0,-1.07292 0.18229,-2.0625 0.54688,-2.96875c0.36458,-0.90625 0.88021,-1.69271 1.54688,-2.35937c0.66667,-0.67709 1.45313,-1.19793 2.35938,-1.56252c0.91667,-0.375 1.91146,-0.5625 2.98438,-0.5625c1.07292,0 2.0625,0.1875 2.96875,0.5625c0.90625,0.36458 1.69271,0.88542 2.35938,1.56252c0.67708,0.66667 1.19792,1.45313 1.5625,2.35938c0.375,0.90625 0.5625,1.89583 0.5625,2.96875c0,1.08333 -0.1875,2.07813 -0.5625,2.98438c-0.36458,0.90625 -0.88542,1.69792 -1.5625,2.375c-0.66667,0.66667 -1.45312,1.1875 -2.35937,1.5625c-0.90625,0.375 -1.89583,0.5625 -2.96875,0.5625zM279.34077,186.03906c0.86458,0 1.66146,-0.15104 2.39063,-0.45312c0.73958,-0.3125 1.38021,-0.74479 1.92188,-1.29687c0.54167,-0.55208 0.95833,-1.19792 1.25,-1.9375c0.30208,-0.73958 0.45313,-1.54687 0.45313,-2.42187c0,-0.85417 -0.15104,-1.65104 -0.45312,-2.39062c-0.29167,-0.73958 -0.70833,-1.38542 -1.25,-1.9375c-0.54167,-0.5625 -1.18229,-0.99479 -1.92187,-1.29687c-0.72917,-0.30208 -1.52604,-0.45312 -2.39062,-0.45312c-0.86458,0 -1.66667,0.15104 -2.40625,0.45313c-0.72917,0.30208 -1.36458,0.73438 -1.90625,1.29688c-0.54167,0.55208 -0.96354,1.19792 -1.26562,1.9375c-0.29167,0.73958 -0.4375,1.53646 -0.4375,2.39063c0,0.875 0.14583,1.68229 0.4375,2.42188c0.30208,0.73958 0.72396,1.38542 1.26563,1.9375c0.54167,0.55208 1.17708,0.98438 1.90625,1.29688c0.73958,0.30208 1.54167,0.45313 2.40625,0.45313zM290.52317,187.22656c-0.20833,0 -0.38542,-0.06771 -0.53125,-0.20312c-0.13542,-0.13542 -0.20312,-0.3125 -0.20312,-0.53125v-13.10939c0,-0.20833 0.06771,-0.38021 0.20313,-0.51562c0.14583,-0.14583 0.32292,-0.21875 0.53125,-0.21875c0.21875,0 0.40625,0.08854 0.5625,0.26563l8.92188,11.71876v-11.25001c0,-0.20833 0.06771,-0.38021 0.20313,-0.51562c0.13542,-0.14583 0.30729,-0.21875 0.51563,-0.21875c0.19792,0 0.36979,0.07292 0.51563,0.21875c0.14583,0.13542 0.21875,0.30729 0.21875,0.51563v13.10939c0,0.21875 -0.07292,0.39583 -0.21875,0.53125c-0.14583,0.13542 -0.31771,0.20313 -0.51562,0.20313c-0.09375,0 -0.19271,-0.01562 -0.29687,-0.04687c-0.10417,-0.04167 -0.1875,-0.10937 -0.25,-0.20312l-8.92187,-11.70313v11.21875c0,0.21875 -0.07292,0.39583 -0.21875,0.53125c-0.14583,0.13542 -0.31771,0.20313 -0.51562,0.20313z" fill="#ffffff" fill-rule="nonzero" stroke="#ffffff" stroke-width="0.5" stroke-linecap="square" stroke-linejoin="miter"/></g></g></svg>