<svg version="1.1" xmlns="http://www.w3.org/2000/svg" xmlns:xlink="http://www.w3.org/1999/xlink" width="720" height="540" viewBox="0,0,720,540"><defs><clipPath id="clip-1"><rect x="-240" y="-180" transform="scale(0.5,0.5)" width="1440" height="1080" fill="none" fill-rule="nonzero" stroke="none" stroke-width="0.5" stroke-linecap="butt"/></clipPath></defs><g transform="translate(120,90)"><g clip-path="url(#clip-1)" data-paper-data="{&quot;isPaintingLayer&quot;:true}" stroke-linejoin="miter" stroke-miterlimit="10" stroke-dasharray="" stroke-dashoffset="0" style="mix-blend-mode: normal"><path d="M185.26429,187.2812c-0.20834,0 -0.38541,-0.06771 -0.53125,-0.20312c-0.13541,-0.13541 -0.20312,-0.3125 -0.20312,-0.53125v-13.10937c0,-0.20834 0.06771,-0.38021 0.20313,-0.51562c0.14584,-0.14584 0.32291,-0.21875 0.53125,-0.21875h3.73438c0.91666,0 1.72916,0.20313 2.4375,0.60938c0.70834,0.40625 1.26041,0.96354 1.65625,1.67188c0.40625,0.70834 0.60938,1.53125 0.60938,2.46875c0,0.90625 -0.20312,1.71354 -0.60937,2.42188c-0.39584,0.69791 -0.94791,1.25 -1.65625,1.65625c-0.70834,0.39584 -1.52084,0.59375 -2.4375,0.59375h-3v4.42188c0,0.21875 -0.07291,0.39584 -0.21875,0.53125c-0.13541,0.13541 -0.30729,0.20313 -0.51562,0.20313zM185.99867,180.73433h3c0.63541,0 1.19791,-0.14062 1.6875,-0.42187c0.5,-0.28125 0.89063,-0.66666 1.17188,-1.15625c0.28125,-0.5 0.42188,-1.06771 0.42188,-1.70312c0,-0.66666 -0.14062,-1.24479 -0.42187,-1.73437c-0.28125,-0.5 -0.67187,-0.89062 -1.17187,-1.17187c-0.48959,-0.29166 -1.05209,-0.4375 -1.6875,-0.4375h-3zM196.68192,187.2812c-0.20834,0 -0.38541,-0.06771 -0.53125,-0.20312c-0.13541,-0.13541 -0.20312,-0.3125 -0.20312,-0.53125v-13.10937c0,-0.20834 0.06771,-0.38021 0.20313,-0.51562c0.14584,-0.14584 0.32291,-0.21875 0.53125,-0.21875h8.75c0.19791,0 0.36979,0.06771 0.51563,0.20313c0.14584,0.13541 0.21875,0.30729 0.21875,0.51563c0,0.1875 -0.07291,0.34896 -0.21875,0.48438c-0.14584,0.13541 -0.31771,0.20313 -0.51562,0.20313h-8.01562v5.15625h5.82813c0.21875,0 0.39584,0.06771 0.53125,0.20313c0.13541,0.13541 0.20313,0.30209 0.20313,0.5c0,0.19791 -0.06771,0.36459 -0.20312,0.5c-0.13541,0.13541 -0.3125,0.20313 -0.53125,0.20313h-5.82812v5.20313h8.01563c0.19791,0 0.36979,0.07291 0.51563,0.21875c0.14584,0.13541 0.21875,0.29688 0.21875,0.48438c0,0.20834 -0.07291,0.38021 -0.21875,0.51563c-0.14584,0.125 -0.31771,0.1875 -0.51562,0.1875zM209.59205,187.2812c-0.20834,0 -0.38541,-0.06771 -0.53125,-0.20312c-0.13541,-0.13541 -0.20312,-0.3125 -0.20312,-0.53125v-13.10937c0,-0.20834 0.06771,-0.38021 0.20313,-0.51562c0.14584,-0.14584 0.32291,-0.21875 0.53125,-0.21875h3.48438c0.90625,0 1.71354,0.19271 2.42188,0.57813c0.71875,0.375 1.27604,0.90104 1.67188,1.57813c0.40625,0.67709 0.60938,1.45834 0.60938,2.34375c0,0.84375 -0.20312,1.59896 -0.60937,2.26563c-0.39584,0.65625 -0.95312,1.17188 -1.67187,1.54688c-0.70834,0.375 -1.51562,0.5625 -2.42187,0.5625h-2.75v4.96875c0,0.21875 -0.07291,0.39584 -0.21875,0.53125c-0.13541,0.13541 -0.30729,0.20313 -0.51562,0.20313zM217.38892,187.2812c-0.15625,0 -0.28125,-0.03125 -0.375,-0.09375c-0.09375,-0.0625 -0.18229,-0.15625 -0.26562,-0.28125l-3.57812,-5.70312l1.45313,-0.375l3.34375,5.32813c0.1875,0.30209 0.21875,0.56771 0.09375,0.79688c-0.11459,0.21875 -0.33854,0.32813 -0.67187,0.32813zM210.32642,180.17183h2.75c0.63541,0 1.19791,-0.125 1.6875,-0.375c0.48959,-0.26041 0.875,-0.61459 1.15625,-1.0625c0.29166,-0.44791 0.4375,-0.95834 0.4375,-1.53125c0,-0.60416 -0.14584,-1.14062 -0.4375,-1.60937c-0.28125,-0.46875 -0.66666,-0.83334 -1.15625,-1.09375c-0.48959,-0.26041 -1.05209,-0.39062 -1.6875,-0.39062h-2.75zM219.96537,187.2812c-0.19791,0 -0.36979,-0.06771 -0.51562,-0.20312c-0.14584,-0.14584 -0.21875,-0.32291 -0.21875,-0.53125v-13.10937c0,-0.20834 0.06771,-0.38021 0.20313,-0.51562c0.14584,-0.14584 0.32291,-0.21875 0.53125,-0.21875h8.75c0.20834,0 0.38021,0.06771 0.51563,0.20313c0.13541,0.13541 0.20313,0.30729 0.20313,0.51563c0,0.1875 -0.06771,0.34896 -0.20312,0.48438c-0.13541,0.13541 -0.30729,0.20313 -0.51562,0.20313h-8.01562v5.15625h5.82813c0.21875,0 0.39584,0.06771 0.53125,0.20313c0.13541,0.13541 0.20313,0.30209 0.20313,0.5c0,0.19791 -0.06771,0.36459 -0.20312,0.5c-0.13541,0.13541 -0.3125,0.20313 -0.53125,0.20313h-5.82812v5.875c0,0.20834 -0.07291,0.38541 -0.21875,0.53125c-0.13541,0.13541 -0.30729,0.20313 -0.51562,0.20313zM232.78178,187.2812c-0.20834,0 -0.38541,-0.06771 -0.53125,-0.20312c-0.13541,-0.13541 -0.20312,-0.3125 -0.20312,-0.53125v-13.10937c0,-0.20834 0.06771,-0.38021 0.20313,-0.51562c0.14584,-0.14584 0.32291,-0.21875 0.53125,-0.21875h8.75c0.19791,0 0.36979,0.06771 0.51563,0.20313c0.14584,0.13541 0.21875,0.30729 0.21875,0.51563c0,0.1875 -0.07291,0.34896 -0.21875,0.48438c-0.14584,0.13541 -0.31771,0.20313 -0.51562,0.20313h-8.01562v5.15625h5.82813c0.21875,0 0.39584,0.06771 0.53125,0.20313c0.13541,0.13541 0.20313,0.30209 0.20313,0.5c0,0.19791 -0.06771,0.36459 -0.20312,0.5c-0.13541,0.13541 -0.3125,0.20313 -0.53125,0.20313h-5.82812v5.20313h8.01563c0.19791,0 0.36979,0.07291 0.51563,0.21875c0.14584,0.13541 0.21875,0.29688 0.21875,0.48438c0,0.20834 -0.07291,0.38021 -0.21875,0.51563c-0.14584,0.125 -0.31771,0.1875 -0.51562,0.1875zM251.5044,187.4687c-1,0 -1.94271,-0.19271 -2.82812,-0.57812c-0.875,-0.38541 -1.64584,-0.92187 -2.3125,-1.60937c-0.65625,-0.69791 -1.17187,-1.49479 -1.54687,-2.39062c-0.375,-0.90625 -0.5625,-1.875 -0.5625,-2.90625c0,-1.02084 0.18229,-1.97916 0.54688,-2.875c0.36459,-0.90625 0.88021,-1.69791 1.54688,-2.375c0.66666,-0.6875 1.4375,-1.22396 2.3125,-1.60937c0.88541,-0.39584 1.83334,-0.59375 2.84375,-0.59375c0.89584,0 1.70834,0.13021 2.4375,0.39063c0.73959,0.26041 1.45313,0.67709 2.14063,1.25c0.11458,0.08334 0.17708,0.1875 0.1875,0.3125c0.02083,0.11459 0.00521,0.22396 -0.04687,0.32813c-0.04167,0.10416 -0.11458,0.18229 -0.21875,0.23438c-0.02084,0.09375 -0.08334,0.16666 -0.1875,0.21875c-0.09375,0.05209 -0.20834,0.07291 -0.34375,0.0625c-0.125,-0.02084 -0.25,-0.07812 -0.375,-0.17187c-0.48959,-0.42709 -1.02084,-0.73959 -1.59375,-0.9375c-0.57291,-0.20834 -1.23959,-0.3125 -2,-0.3125c-0.80209,0 -1.55729,0.16146 -2.26562,0.48438c-0.69791,0.32291 -1.31771,0.76563 -1.85937,1.32813c-0.53125,0.55209 -0.94791,1.19791 -1.25,1.9375c-0.30209,0.72916 -0.45312,1.50521 -0.45312,2.32813c0,0.84375 0.15104,1.63541 0.45313,2.375c0.30209,0.72916 0.71875,1.375 1.25,1.9375c0.54166,0.5625 1.16146,1.00521 1.85938,1.32813c0.70834,0.3125 1.46354,0.46875 2.26563,0.46875c0.6875,0 1.33334,-0.10937 1.9375,-0.32812c0.61459,-0.22916 1.19791,-0.55729 1.75,-0.98437c0.14584,-0.125 0.30209,-0.17187 0.46875,-0.14062c0.16666,0.02084 0.3125,0.09375 0.4375,0.21875c0.125,0.125 0.1875,0.28646 0.1875,0.48438c0,0.09375 -0.01562,0.18229 -0.04687,0.26563c-0.03125,0.08334 -0.08333,0.16666 -0.15625,0.25c-0.63541,0.58334 -1.34375,1 -2.125,1.25c-0.78125,0.23959 -1.59896,0.35938 -2.45312,0.35938zM263.57587,187.2812c-0.19792,0 -0.36979,-0.06771 -0.51562,-0.20312c-0.13542,-0.14584 -0.20312,-0.32291 -0.20312,-0.53125v-13.84375h1.45313v13.84375c0,0.20834 -0.06771,0.38541 -0.20312,0.53125c-0.13542,0.13541 -0.3125,0.20313 -0.53125,0.20313zM258.43525,174.0312c-0.19792,0 -0.35937,-0.0625 -0.48437,-0.1875c-0.125,-0.125 -0.1875,-0.28125 -0.1875,-0.46875c0,-0.19791 0.0625,-0.35937 0.1875,-0.48437c0.125,-0.125 0.28646,-0.1875 0.48438,-0.1875h10.3125c0.19792,0 0.35938,0.0625 0.48438,0.1875c0.125,0.125 0.1875,0.28646 0.1875,0.48438c0,0.1875 -0.0625,0.34375 -0.1875,0.46875c-0.125,0.125 -0.28646,0.1875 -0.48437,0.1875zM283.98075,187.2812c-0.15625,0 -0.28125,-0.02604 -0.375,-0.07812c-0.09375,-0.05209 -0.1875,-0.13541 -0.28125,-0.25l-3.23437,-4.10937l-0.5625,-0.48437l-3.23437,-4.125c-0.13542,-0.16666 -0.20312,-0.33334 -0.20312,-0.5c0.01042,-0.17709 0.06771,-0.32812 0.17188,-0.45312c0.11458,-0.13541 0.27604,-0.20312 0.48438,-0.20312c0.21875,0 0.40104,0.07291 0.54688,0.21875l3.14063,4.01563l0.5,0.40625l3.46875,4.4375c0.16667,0.19791 0.23438,0.38541 0.20313,0.5625c-0.02083,0.17709 -0.09896,0.31771 -0.23437,0.42188c-0.125,0.09375 -0.25521,0.14063 -0.39062,0.14063zM276.59013,187.2812c-0.19792,0 -0.35937,-0.0625 -0.48437,-0.1875c-0.11458,-0.125 -0.17708,-0.27084 -0.1875,-0.4375c0,-0.17709 0.06771,-0.34896 0.20313,-0.51562l3.4375,-4.28125l0.79688,1.0625l-3.26562,4.14063c-0.11458,0.14584 -0.28125,0.21875 -0.5,0.21875zM280.9495,182.43745l-0.90625,-0.9375l3.21875,-4.09375c0.09375,-0.125 0.19271,-0.20834 0.29688,-0.25c0.10417,-0.05209 0.21354,-0.07812 0.32813,-0.07812c0.20833,0 0.36458,0.06771 0.46875,0.20313c0.11458,0.125 0.16667,0.28125 0.15625,0.46875c0,0.17709 -0.0625,0.34375 -0.1875,0.5zM290.98563,187.37495c-0.86458,0 -1.64583,-0.1875 -2.34375,-0.5625c-0.6875,-0.38541 -1.22917,-0.90625 -1.625,-1.5625c-0.39583,-0.65625 -0.59375,-1.40104 -0.59375,-2.23437c0,-0.21875 0.0625,-0.40104 0.1875,-0.54687c0.125,-0.14584 0.29167,-0.21875 0.5,-0.21875c0.20833,0 0.375,0.07291 0.5,0.21875c0.125,0.14584 0.1875,0.32813 0.1875,0.54688c0,0.5625 0.13542,1.07291 0.40625,1.53125c0.28125,0.45834 0.66146,0.82291 1.14063,1.09375c0.47917,0.26041 1.01042,0.39063 1.59375,0.39063c0.96875,0 1.72396,-0.27084 2.26563,-0.8125c0.55208,-0.54166 0.82813,-1.23959 0.82813,-2.09375c0,-0.61459 -0.13021,-1.14584 -0.39062,-1.59375c-0.26042,-0.45834 -0.61458,-0.8125 -1.0625,-1.0625c-0.44792,-0.26041 -0.95312,-0.39062 -1.51562,-0.39062c-0.19792,0 -0.36458,-0.06771 -0.5,-0.20312c-0.13542,-0.13541 -0.20312,-0.30729 -0.20312,-0.51562c0,-0.20834 0.06771,-0.38021 0.20313,-0.51562c0.13542,-0.13541 0.30208,-0.20312 0.5,-0.20312c0.4375,0 0.83854,-0.10937 1.20313,-0.32812c0.36458,-0.21875 0.65625,-0.50521 0.875,-0.85937c0.22917,-0.36459 0.34375,-0.76562 0.34375,-1.20312c0,-0.65625 -0.22396,-1.20312 -0.67187,-1.64062c-0.44792,-0.44791 -1.04167,-0.67187 -1.78125,-0.67187c-0.53125,0 -1,0.10416 -1.40625,0.3125c-0.40625,0.20834 -0.72917,0.48438 -0.96875,0.82813c-0.22917,0.33334 -0.34375,0.71875 -0.34375,1.15625c0,0.20834 -0.06771,0.38541 -0.20312,0.53125c-0.125,0.14584 -0.28646,0.21875 -0.48437,0.21875c-0.20833,0 -0.375,-0.07291 -0.5,-0.21875c-0.125,-0.14584 -0.1875,-0.31771 -0.1875,-0.51562c0,-0.67709 0.17708,-1.29166 0.53125,-1.84375c0.35417,-0.5625 0.83333,-1 1.4375,-1.3125c0.61458,-0.3125 1.32292,-0.46875 2.125,-0.46875c0.71875,0 1.36458,0.15625 1.9375,0.46875c0.58333,0.3125 1.04688,0.75 1.39063,1.3125c0.34375,0.55209 0.51563,1.16666 0.51563,1.84375c0,0.42709 -0.10417,0.83854 -0.3125,1.23438c-0.20833,0.39584 -0.47917,0.75521 -0.8125,1.07813c-0.33333,0.3125 -0.70312,0.55729 -1.10937,0.73438c0.63542,0.1875 1.16667,0.47396 1.59375,0.85938c0.42708,0.38541 0.73958,0.83854 0.9375,1.35938c0.19792,0.51041 0.29688,1.04688 0.29688,1.60938c0,0.82291 -0.19792,1.55729 -0.59375,2.20313c-0.38542,0.63541 -0.92187,1.13541 -1.60937,1.5c-0.6875,0.36459 -1.44792,0.54688 -2.28125,0.54688z" fill="#f9ea00" fill-rule="nonzero" stroke="#4f4230" stroke-width="7.5" stroke-linecap="square"/><path d="M-240,-180h960v720h-960z" fill-opacity="0" fill="#000000" fill-rule="evenodd" stroke="none" stroke-width="1" stroke-linecap="square"/><path d="M185.26433,187.28125c-0.20834,0 -0.38541,-0.06771 -0.53125,-0.20312c-0.13541,-0.13541 -0.20312,-0.3125 -0.20312,-0.53125v-13.10937c0,-0.20834 0.06771,-0.38021 0.20313,-0.51562c0.14584,-0.14584 0.32291,-0.21875 0.53125,-0.21875h3.73438c0.91666,0 1.72916,0.20313 2.4375,0.60938c0.70834,0.40625 1.26041,0.96354 1.65625,1.67188c0.40625,0.70834 0.60938,1.53125 0.60938,2.46875c0,0.90625 -0.20312,1.71354 -0.60937,2.42188c-0.39584,0.69791 -0.94791,1.25 -1.65625,1.65625c-0.70834,0.39584 -1.52084,0.59375 -2.4375,0.59375h-3v4.42188c0,0.21875 -0.07291,0.39584 -0.21875,0.53125c-0.13541,0.13541 -0.30729,0.20313 -0.51562,0.20313zM185.99871,180.73438h3c0.63541,0 1.19791,-0.14062 1.6875,-0.42187c0.5,-0.28125 0.89063,-0.66666 1.17188,-1.15625c0.28125,-0.5 0.42188,-1.06771 0.42188,-1.70312c0,-0.66666 -0.14062,-1.24479 -0.42187,-1.73437c-0.28125,-0.5 -0.67187,-0.89062 -1.17187,-1.17187c-0.48959,-0.29166 -1.05209,-0.4375 -1.6875,-0.4375h-3zM196.68196,187.28125c-0.20834,0 -0.38541,-0.06771 -0.53125,-0.20312c-0.13541,-0.13541 -0.20312,-0.3125 -0.20312,-0.53125v-13.10937c0,-0.20834 0.06771,-0.38021 0.20313,-0.51562c0.14584,-0.14584 0.32291,-0.21875 0.53125,-0.21875h8.75c0.19791,0 0.36979,0.06771 0.51563,0.20313c0.14584,0.13541 0.21875,0.30729 0.21875,0.51563c0,0.1875 -0.07291,0.34896 -0.21875,0.48438c-0.14584,0.13541 -0.31771,0.20313 -0.51562,0.20313h-8.01562v5.15625h5.82813c0.21875,0 0.39584,0.06771 0.53125,0.20313c0.13541,0.13541 0.20313,0.30209 0.20313,0.5c0,0.19791 -0.06771,0.36459 -0.20312,0.5c-0.13541,0.13541 -0.3125,0.20313 -0.53125,0.20313h-5.82812v5.20313h8.01563c0.19791,0 0.36979,0.07291 0.51563,0.21875c0.14584,0.13541 0.21875,0.29688 0.21875,0.48438c0,0.20834 -0.07291,0.38021 -0.21875,0.51563c-0.14584,0.125 -0.31771,0.1875 -0.51562,0.1875zM209.59209,187.28125c-0.20834,0 -0.38541,-0.06771 -0.53125,-0.20312c-0.13541,-0.13541 -0.20312,-0.3125 -0.20312,-0.53125v-13.10937c0,-0.20834 0.06771,-0.38021 0.20313,-0.51562c0.14584,-0.14584 0.32291,-0.21875 0.53125,-0.21875h3.48438c0.90625,0 1.71354,0.19271 2.42188,0.57813c0.71875,0.375 1.27604,0.90104 1.67188,1.57813c0.40625,0.67709 0.60938,1.45834 0.60938,2.34375c0,0.84375 -0.20312,1.59896 -0.60937,2.26563c-0.39584,0.65625 -0.95312,1.17188 -1.67187,1.54688c-0.70834,0.375 -1.51562,0.5625 -2.42187,0.5625h-2.75v4.96875c0,0.21875 -0.07291,0.39584 -0.21875,0.53125c-0.13541,0.13541 -0.30729,0.20313 -0.51562,0.20313zM217.38896,187.28125c-0.15625,0 -0.28125,-0.03125 -0.375,-0.09375c-0.09375,-0.0625 -0.18229,-0.15625 -0.26562,-0.28125l-3.57812,-5.70312l1.45313,-0.375l3.34375,5.32813c0.1875,0.30209 0.21875,0.56771 0.09375,0.79688c-0.11459,0.21875 -0.33854,0.32813 -0.67187,0.32813zM210.32646,180.17188h2.75c0.63541,0 1.19791,-0.125 1.6875,-0.375c0.48959,-0.26041 0.875,-0.61459 1.15625,-1.0625c0.29166,-0.44791 0.4375,-0.95834 0.4375,-1.53125c0,-0.60416 -0.14584,-1.14062 -0.4375,-1.60937c-0.28125,-0.46875 -0.66666,-0.83334 -1.15625,-1.09375c-0.48959,-0.26041 -1.05209,-0.39062 -1.6875,-0.39062h-2.75zM219.96541,187.28125c-0.19791,0 -0.36979,-0.06771 -0.51562,-0.20312c-0.14584,-0.14584 -0.21875,-0.32291 -0.21875,-0.53125v-13.10937c0,-0.20834 0.06771,-0.38021 0.20313,-0.51562c0.14584,-0.14584 0.32291,-0.21875 0.53125,-0.21875h8.75c0.20834,0 0.38021,0.06771 0.51563,0.20313c0.13541,0.13541 0.20313,0.30729 0.20313,0.51563c0,0.1875 -0.06771,0.34896 -0.20312,0.48438c-0.13541,0.13541 -0.30729,0.20313 -0.51562,0.20313h-8.01562v5.15625h5.82813c0.21875,0 0.39584,0.06771 0.53125,0.20313c0.13541,0.13541 0.20313,0.30209 0.20313,0.5c0,0.19791 -0.06771,0.36459 -0.20312,0.5c-0.13541,0.13541 -0.3125,0.20313 -0.53125,0.20313h-5.82812v5.875c0,0.20834 -0.07291,0.38541 -0.21875,0.53125c-0.13541,0.13541 -0.30729,0.20313 -0.51562,0.20313zM232.78182,187.28125c-0.20834,0 -0.38541,-0.06771 -0.53125,-0.20312c-0.13541,-0.13541 -0.20312,-0.3125 -0.20312,-0.53125v-13.10937c0,-0.20834 0.06771,-0.38021 0.20313,-0.51562c0.14584,-0.14584 0.32291,-0.21875 0.53125,-0.21875h8.75c0.19791,0 0.36979,0.06771 0.51563,0.20313c0.14584,0.13541 0.21875,0.30729 0.21875,0.51563c0,0.1875 -0.07291,0.34896 -0.21875,0.48438c-0.14584,0.13541 -0.31771,0.20313 -0.51562,0.20313h-8.01562v5.15625h5.82813c0.21875,0 0.39584,0.06771 0.53125,0.20313c0.13541,0.13541 0.20313,0.30209 0.20313,0.5c0,0.19791 -0.06771,0.36459 -0.20312,0.5c-0.13541,0.13541 -0.3125,0.20313 -0.53125,0.20313h-5.82812v5.20313h8.01563c0.19791,0 0.36979,0.07291 0.51563,0.21875c0.14584,0.13541 0.21875,0.29688 0.21875,0.48438c0,0.20834 -0.07291,0.38021 -0.21875,0.51563c-0.14584,0.125 -0.31771,0.1875 -0.51562,0.1875zM251.50444,187.46875c-1,0 -1.94271,-0.19271 -2.82812,-0.57812c-0.875,-0.38541 -1.64584,-0.92187 -2.3125,-1.60937c-0.65625,-0.69791 -1.17187,-1.49479 -1.54687,-2.39062c-0.375,-0.90625 -0.5625,-1.875 -0.5625,-2.90625c0,-1.02084 0.18229,-1.97916 0.54688,-2.875c0.36459,-0.90625 0.88021,-1.69791 1.54688,-2.375c0.66666,-0.6875 1.4375,-1.22396 2.3125,-1.60937c0.88541,-0.39584 1.83334,-0.59375 2.84375,-0.59375c0.89584,0 1.70834,0.13021 2.4375,0.39063c0.73959,0.26041 1.45313,0.67709 2.14063,1.25c0.11458,0.08334 0.17708,0.1875 0.1875,0.3125c0.02083,0.11459 0.00521,0.22396 -0.04687,0.32813c-0.04167,0.10416 -0.11458,0.18229 -0.21875,0.23438c-0.02084,0.09375 -0.08334,0.16666 -0.1875,0.21875c-0.09375,0.05209 -0.20834,0.07291 -0.34375,0.0625c-0.125,-0.02084 -0.25,-0.07812 -0.375,-0.17187c-0.48959,-0.42709 -1.02084,-0.73959 -1.59375,-0.9375c-0.57291,-0.20834 -1.23959,-0.3125 -2,-0.3125c-0.80209,0 -1.55729,0.16146 -2.26562,0.48438c-0.69791,0.32291 -1.31771,0.76563 -1.85937,1.32813c-0.53125,0.55209 -0.94791,1.19791 -1.25,1.9375c-0.30209,0.72916 -0.45312,1.50521 -0.45312,2.32813c0,0.84375 0.15104,1.63541 0.45313,2.375c0.30209,0.72916 0.71875,1.375 1.25,1.9375c0.54166,0.5625 1.16146,1.00521 1.85938,1.32813c0.70834,0.3125 1.46354,0.46875 2.26563,0.46875c0.6875,0 1.33334,-0.10937 1.9375,-0.32812c0.61459,-0.22916 1.19791,-0.55729 1.75,-0.98437c0.14584,-0.125 0.30209,-0.17187 0.46875,-0.14062c0.16666,0.02084 0.3125,0.09375 0.4375,0.21875c0.125,0.125 0.1875,0.28646 0.1875,0.48438c0,0.09375 -0.01562,0.18229 -0.04687,0.26563c-0.03125,0.08334 -0.08333,0.16666 -0.15625,0.25c-0.63541,0.58334 -1.34375,1 -2.125,1.25c-0.78125,0.23959 -1.59896,0.35938 -2.45312,0.35938zM263.57591,187.28125c-0.19792,0 -0.36979,-0.06771 -0.51562,-0.20312c-0.13542,-0.14584 -0.20312,-0.32291 -0.20312,-0.53125v-13.84375h1.45313v13.84375c0,0.20834 -0.06771,0.38541 -0.20312,0.53125c-0.13542,0.13541 -0.3125,0.20313 -0.53125,0.20313zM258.43529,174.03125c-0.19792,0 -0.35937,-0.0625 -0.48437,-0.1875c-0.125,-0.125 -0.1875,-0.28125 -0.1875,-0.46875c0,-0.19791 0.0625,-0.35937 0.1875,-0.48437c0.125,-0.125 0.28646,-0.1875 0.48438,-0.1875h10.3125c0.19792,0 0.35938,0.0625 0.48438,0.1875c0.125,0.125 0.1875,0.28646 0.1875,0.48438c0,0.1875 -0.0625,0.34375 -0.1875,0.46875c-0.125,0.125 -0.28646,0.1875 -0.48437,0.1875zM283.98079,187.28125c-0.15625,0 -0.28125,-0.02604 -0.375,-0.07812c-0.09375,-0.05209 -0.1875,-0.13541 -0.28125,-0.25l-3.23437,-4.10937l-0.5625,-0.48437l-3.23437,-4.125c-0.13542,-0.16666 -0.20312,-0.33334 -0.20312,-0.5c0.01042,-0.17709 0.06771,-0.32812 0.17188,-0.45312c0.11458,-0.13541 0.27604,-0.20312 0.48438,-0.20312c0.21875,0 0.40104,0.07291 0.54688,0.21875l3.14063,4.01563l0.5,0.40625l3.46875,4.4375c0.16667,0.19791 0.23438,0.38541 0.20313,0.5625c-0.02083,0.17709 -0.09896,0.31771 -0.23437,0.42188c-0.125,0.09375 -0.25521,0.14063 -0.39062,0.14063zM276.59017,187.28125c-0.19792,0 -0.35937,-0.0625 -0.48437,-0.1875c-0.11458,-0.125 -0.17708,-0.27084 -0.1875,-0.4375c0,-0.17709 0.06771,-0.34896 0.20313,-0.51562l3.4375,-4.28125l0.79688,1.0625l-3.26562,4.14063c-0.11458,0.14584 -0.28125,0.21875 -0.5,0.21875zM280.94954,182.4375l-0.90625,-0.9375l3.21875,-4.09375c0.09375,-0.125 0.19271,-0.20834 0.29688,-0.25c0.10417,-0.05209 0.21354,-0.07812 0.32813,-0.07812c0.20833,0 0.36458,0.06771 0.46875,0.20313c0.11458,0.125 0.16667,0.28125 0.15625,0.46875c0,0.17709 -0.0625,0.34375 -0.1875,0.5zM290.98567,187.375c-0.86458,0 -1.64583,-0.1875 -2.34375,-0.5625c-0.6875,-0.38541 -1.22917,-0.90625 -1.625,-1.5625c-0.39583,-0.65625 -0.59375,-1.40104 -0.59375,-2.23437c0,-0.21875 0.0625,-0.40104 0.1875,-0.54687c0.125,-0.14584 0.29167,-0.21875 0.5,-0.21875c0.20833,0 0.375,0.07291 0.5,0.21875c0.125,0.14584 0.1875,0.32813 0.1875,0.54688c0,0.5625 0.13542,1.07291 0.40625,1.53125c0.28125,0.45834 0.66146,0.82291 1.14063,1.09375c0.47917,0.26041 1.01042,0.39063 1.59375,0.39063c0.96875,0 1.72396,-0.27084 2.26563,-0.8125c0.55208,-0.54166 0.82813,-1.23959 0.82813,-2.09375c0,-0.61459 -0.13021,-1.14584 -0.39062,-1.59375c-0.26042,-0.45834 -0.61458,-0.8125 -1.0625,-1.0625c-0.44792,-0.26041 -0.95312,-0.39062 -1.51562,-0.39062c-0.19792,0 -0.36458,-0.06771 -0.5,-0.20312c-0.13542,-0.13541 -0.20312,-0.30729 -0.20312,-0.51562c0,-0.20834 0.06771,-0.38021 0.20313,-0.51562c0.13542,-0.13541 0.30208,-0.20312 0.5,-0.20312c0.4375,0 0.83854,-0.10937 1.20313,-0.32812c0.36458,-0.21875 0.65625,-0.50521 0.875,-0.85937c0.22917,-0.36459 0.34375,-0.76562 0.34375,-1.20312c0,-0.65625 -0.22396,-1.20312 -0.67187,-1.64062c-0.44792,-0.44791 -1.04167,-0.67187 -1.78125,-0.67187c-0.53125,0 -1,0.10416 -1.40625,0.3125c-0.40625,0.20834 -0.72917,0.48438 -0.96875,0.82813c-0.22917,0.33334 -0.34375,0.71875 -0.34375,1.15625c0,0.20834 -0.06771,0.38541 -0.20312,0.53125c-0.125,0.14584 -0.28646,0.21875 -0.48437,0.21875c-0.20833,0 -0.375,-0.07291 -0.5,-0.21875c-0.125,-0.14584 -0.1875,-0.31771 -0.1875,-0.51562c0,-0.67709 0.17708,-1.29166 0.53125,-1.84375c0.35417,-0.5625 0.83333,-1 1.4375,-1.3125c0.61458,-0.3125 1.32292,-0.46875 2.125,-0.46875c0.71875,0 1.36458,0.15625 1.9375,0.46875c0.58333,0.3125 1.04688,0.75 1.39063,1.3125c0.34375,0.55209 0.51563,1.16666 0.51563,1.84375c0,0.42709 -0.10417,0.83854 -0.3125,1.23438c-0.20833,0.39584 -0.47917,0.75521 -0.8125,1.07813c-0.33333,0.3125 -0.70312,0.55729 -1.10937,0.73438c0.63542,0.1875 1.16667,0.47396 1.59375,0.85938c0.42708,0.38541 0.73958,0.83854 0.9375,1.35938c0.19792,0.51041 0.29688,1.04688 0.29688,1.60938c0,0.82291 -0.19792,1.55729 -0.59375,2.20313c-0.38542,0.63541 -0.92187,1.13541 -1.60937,1.5c-0.6875,0.36459 -1.44792,0.54688 -2.28125,0.54688z" fill="#f9ea00" fill-rule="nonzero" stroke="#fa9700" stroke-width="2" stroke-linecap="square"/></g></g></svg>