<svg version="1.1" xmlns="http://www.w3.org/2000/svg" xmlns:xlink="http://www.w3.org/1999/xlink" width="216.33743" height="52.26564" viewBox="0,0,216.33743,52.26564"><g transform="translate(-134.70629,-177.18164)"><g data-paper-data="{&quot;isPaintingLayer&quot;:true}" fill-rule="nonzero" stroke="none" stroke-width="1" stroke-linecap="square" stroke-linejoin="miter" stroke-miterlimit="10" stroke-dasharray="" stroke-dashoffset="0" style="mix-blend-mode: normal"><path d="M137.69066,229.44724c-0.84375,0 -1.55208,-0.28646 -2.125,-0.85937c-0.57292,-0.57292 -0.85937,-1.28125 -0.85937,-2.125v-38.8125c0,-0.875 0.28646,-1.58854 0.85938,-2.14062c0.57292,-0.55208 1.28125,-0.82812 2.125,-0.82812h10.375c3.28125,0 6.27083,0.54688 8.96875,1.64063c2.69792,1.08333 5.03646,2.63021 7.01563,4.64063c1.98958,2 3.52083,4.35938 4.59375,7.07813c1.07292,2.70833 1.60938,5.70313 1.60938,8.98438c0,3.29167 -0.53646,6.30729 -1.60937,9.04688c-1.07292,2.72917 -2.60417,5.09896 -4.59375,7.10937c-1.97917,2 -4.31771,3.54688 -7.01562,4.64063c-2.69792,1.08333 -5.6875,1.625 -8.96875,1.625zM140.65941,224.16599h7.40625c3.20833,0 6.04167,-0.73438 8.5,-2.20312c2.46875,-1.46875 4.41146,-3.48958 5.82813,-6.0625c1.41667,-2.58333 2.125,-5.54167 2.125,-8.875c0,-3.35417 -0.70833,-6.3125 -2.125,-8.875c-1.41667,-2.5625 -3.35937,-4.56771 -5.82812,-6.01562c-2.45833,-1.45833 -5.29167,-2.1875 -8.5,-2.1875h-7.40625zM182.57866,229.44724c-0.84375,0 -1.55208,-0.28646 -2.125,-0.85937c-0.57292,-0.57292 -0.85937,-1.28125 -0.85937,-2.125v-38.8125c0,-0.875 0.28646,-1.58854 0.85938,-2.14062c0.57292,-0.55208 1.28125,-0.82812 2.125,-0.82812h10.3125c2.86458,0 5.40625,0.60417 7.625,1.8125c2.21875,1.19792 3.94792,2.84896 5.1875,4.95313c1.23958,2.09375 1.85938,4.53646 1.85938,7.32813c0,2.60417 -0.61979,4.91667 -1.85937,6.9375c-1.23958,2.02083 -2.96875,3.60938 -5.1875,4.76563c-2.21875,1.14583 -4.76042,1.71875 -7.625,1.71875h-7.34375v14.26562c0,0.84375 -0.27604,1.55208 -0.82812,2.125c-0.55208,0.57292 -1.26562,0.85938 -2.14062,0.85938zM206.35991,229.44724c-0.53125,0 -1.01562,-0.11458 -1.45312,-0.34375c-0.4375,-0.22917 -0.8125,-0.59375 -1.125,-1.09375l-10.3125,-16.625l5.78125,-1.65625l9.40625,15.125c0.6875,1.11458 0.78125,2.16146 0.28125,3.14062c-0.48958,0.96875 -1.34896,1.45313 -2.57812,1.45313zM185.54741,206.68162h7.34375c1.76042,0 3.30729,-0.33333 4.64063,-1c1.34375,-0.66667 2.39583,-1.59896 3.15625,-2.79687c0.76042,-1.20833 1.14063,-2.57812 1.14063,-4.10937c0,-1.67708 -0.38021,-3.16667 -1.14062,-4.46875c-0.76042,-1.30208 -1.8125,-2.3125 -3.15625,-3.03125c-1.33333,-0.72917 -2.88021,-1.09375 -4.64062,-1.09375h-7.34375zM218.81011,229.44724c-0.84375,0 -1.55208,-0.28646 -2.125,-0.85937c-0.57292,-0.57292 -0.85937,-1.28125 -0.85937,-2.125v-38.8125c0,-0.875 0.28646,-1.58854 0.85938,-2.14062c0.57292,-0.55208 1.28125,-0.82812 2.125,-0.82812c0.875,0 1.58854,0.27604 2.14063,0.82813c0.55208,0.55208 0.82813,1.26563 0.82813,2.14063v38.8125c0,0.84375 -0.27604,1.55208 -0.82812,2.125c-0.55208,0.57292 -1.26562,0.85938 -2.14062,0.85938zM248.61289,229.44724c-1.21875,0 -2.11458,-0.63021 -2.6875,-1.89062l-16.79687,-38.40625c-0.54167,-1.30208 -0.60417,-2.36979 -0.1875,-3.20312c0.42708,-0.84375 1.23438,-1.26562 2.42188,-1.26562c1.33333,0 2.25,0.58854 2.75,1.76563l14.73438,35.375h-0.625l15.01564,-35.375c0.30208,-0.6875 0.65104,-1.15104 1.04688,-1.39062c0.40625,-0.25 0.95313,-0.375 1.64063,-0.375c1.14583,0 1.9375,0.41146 2.375,1.23438c0.44792,0.8125 0.44271,1.71875 -0.01562,2.71875l-16.96876,38.92188c-0.27083,0.61458 -0.625,1.08333 -1.0625,1.40625c-0.4375,0.32292 -0.98437,0.48438 -1.64062,0.48438zM278.48879,229.44724c-0.84375,0 -1.55208,-0.28646 -2.125,-0.85937c-0.57292,-0.57292 -0.85937,-1.28125 -0.85937,-2.125v-38.8125c0,-0.875 0.28646,-1.58854 0.85938,-2.14062c0.57292,-0.55208 1.28125,-0.82812 2.125,-0.82812h25.90625c0.875,0 1.57813,0.26042 2.10938,0.78125c0.54167,0.51042 0.8125,1.18229 0.8125,2.01563c0,0.80208 -0.27083,1.45313 -0.8125,1.95313c-0.53125,0.5 -1.23437,0.75 -2.10937,0.75h-22.9375v13.92188h16.45313c0.88542,0 1.59375,0.26042 2.125,0.78125c0.54167,0.51042 0.8125,1.16667 0.8125,1.96875c0,0.80208 -0.27083,1.46354 -0.8125,1.98438c-0.53125,0.52083 -1.23958,0.78125 -2.125,0.78125h-16.45312v14.32812h22.9375c0.875,0 1.57813,0.25 2.10938,0.75c0.54167,0.48958 0.8125,1.13542 0.8125,1.9375c0,0.84375 -0.27083,1.52604 -0.8125,2.04688c-0.53125,0.51042 -1.23437,0.76563 -2.10937,0.76563zM318.61855,229.44724c-0.84375,0 -1.55208,-0.28646 -2.125,-0.85937c-0.57292,-0.57292 -0.85937,-1.28125 -0.85937,-2.125v-38.8125c0,-0.875 0.28646,-1.58854 0.85938,-2.14062c0.57292,-0.55208 1.28125,-0.82812 2.125,-0.82812h10.3125c2.86458,0 5.40625,0.60417 7.625,1.8125c2.21875,1.19792 3.94792,2.84896 5.1875,4.95313c1.23958,2.09375 1.85938,4.53646 1.85938,7.32813c0,2.60417 -0.61979,4.91667 -1.85937,6.9375c-1.23958,2.02083 -2.96875,3.60938 -5.1875,4.76563c-2.21875,1.14583 -4.76042,1.71875 -7.625,1.71875h-7.34375v14.26562c0,0.84375 -0.27604,1.55208 -0.82812,2.125c-0.55208,0.57292 -1.26562,0.85938 -2.14063,0.85938zM342.3998,229.44724c-0.53125,0 -1.01562,-0.11458 -1.45312,-0.34375c-0.4375,-0.22917 -0.8125,-0.59375 -1.125,-1.09375l-10.3125,-16.625l5.78125,-1.65625l9.40625,15.125c0.6875,1.11458 0.78125,2.16146 0.28125,3.14062c-0.48958,0.96875 -1.34896,1.45313 -2.57812,1.45313zM321.5873,206.68162h7.34375c1.76042,0 3.30729,-0.33333 4.64062,-1c1.34375,-0.66667 2.39583,-1.59896 3.15625,-2.79687c0.76042,-1.20833 1.14063,-2.57812 1.14063,-4.10937c0,-1.67708 -0.38021,-3.16667 -1.14062,-4.46875c-0.76042,-1.30208 -1.8125,-2.3125 -3.15625,-3.03125c-1.33333,-0.72917 -2.88021,-1.09375 -4.64062,-1.09375h-7.34375z" fill="#6600b4"/><path d="M139.69067,226.94725c-0.84375,0 -1.55209,-0.28646 -2.125,-0.85937c-0.57291,-0.57291 -0.85937,-1.28125 -0.85937,-2.125v-38.8125c0,-0.875 0.28646,-1.58854 0.85938,-2.14062c0.57291,-0.55209 1.28125,-0.82812 2.125,-0.82812h10.375c3.28125,0 6.27084,0.54688 8.96875,1.64063c2.69791,1.08334 5.03646,2.63021 7.01563,4.64063c1.98959,2 3.52084,4.35938 4.59375,7.07813c1.07291,2.70834 1.60938,5.70313 1.60938,8.98438c0,3.29166 -0.53646,6.30729 -1.60937,9.04688c-1.07291,2.72916 -2.60416,5.09896 -4.59375,7.10938c-1.97916,2 -4.31771,3.54688 -7.01562,4.64063c-2.69791,1.08334 -5.6875,1.625 -8.96875,1.625zM142.65942,221.666h7.40625c3.20834,0 6.04166,-0.73437 8.5,-2.20312c2.46875,-1.46875 4.41146,-3.48959 5.82813,-6.0625c1.41666,-2.58334 2.125,-5.54166 2.125,-8.875c0,-3.35416 -0.70834,-6.3125 -2.125,-8.875c-1.41666,-2.5625 -3.35937,-4.56771 -5.82812,-6.01562c-2.45834,-1.45834 -5.29166,-2.1875 -8.5,-2.1875h-7.40625zM184.57867,226.94725c-0.84375,0 -1.55209,-0.28646 -2.125,-0.85937c-0.57291,-0.57291 -0.85937,-1.28125 -0.85937,-2.125v-38.8125c0,-0.875 0.28646,-1.58854 0.85938,-2.14062c0.57291,-0.55209 1.28125,-0.82812 2.125,-0.82812h10.3125c2.86459,0 5.40625,0.60416 7.625,1.8125c2.21875,1.19791 3.94791,2.84896 5.1875,4.95313c1.23959,2.09375 1.85938,4.53646 1.85938,7.32813c0,2.60416 -0.61979,4.91666 -1.85937,6.9375c-1.23959,2.02084 -2.96875,3.60938 -5.1875,4.76563c-2.21875,1.14584 -4.76041,1.71875 -7.625,1.71875h-7.34375v14.26563c0,0.84375 -0.27604,1.55209 -0.82812,2.125c-0.55209,0.57291 -1.26562,0.85938 -2.14062,0.85938zM208.35992,226.94725c-0.53125,0 -1.01562,-0.11459 -1.45312,-0.34375c-0.4375,-0.22916 -0.8125,-0.59375 -1.125,-1.09375l-10.3125,-16.625l5.78125,-1.65625l9.40625,15.125c0.6875,1.11459 0.78125,2.16146 0.28125,3.14063c-0.48959,0.96875 -1.34896,1.45313 -2.57812,1.45313zM187.54742,204.18162h7.34375c1.76041,0 3.30729,-0.33334 4.64063,-1c1.34375,-0.66666 2.39584,-1.59896 3.15625,-2.79687c0.76041,-1.20834 1.14063,-2.57812 1.14063,-4.10937c0,-1.67709 -0.38021,-3.16666 -1.14062,-4.46875c-0.76041,-1.30209 -1.8125,-2.3125 -3.15625,-3.03125c-1.33334,-0.72916 -2.88021,-1.09375 -4.64062,-1.09375h-7.34375zM220.81011,226.94725c-0.84375,0 -1.55209,-0.28646 -2.125,-0.85937c-0.57291,-0.57291 -0.85937,-1.28125 -0.85937,-2.125v-38.8125c0,-0.875 0.28646,-1.58854 0.85938,-2.14062c0.57291,-0.55209 1.28125,-0.82812 2.125,-0.82812c0.875,0 1.58854,0.27604 2.14063,0.82813c0.55209,0.55209 0.82813,1.26563 0.82813,2.14063v38.8125c0,0.84375 -0.27604,1.55209 -0.82812,2.125c-0.55209,0.57291 -1.26562,0.85938 -2.14062,0.85938zM250.61289,226.94725c-1.21875,0 -2.11459,-0.63021 -2.6875,-1.89062l-16.79687,-38.40625c-0.54166,-1.30209 -0.60416,-2.36979 -0.1875,-3.20312c0.42709,-0.84375 1.23438,-1.26562 2.42188,-1.26562c1.33334,0 2.25,0.58854 2.75,1.76563l14.73438,35.375h-0.625l15.01564,-35.375c0.30208,-0.6875 0.65104,-1.15104 1.04688,-1.39062c0.40625,-0.25 0.95313,-0.375 1.64063,-0.375c1.14583,0 1.9375,0.41146 2.375,1.23438c0.44792,0.8125 0.44271,1.71875 -0.01562,2.71875l-16.96877,38.92188c-0.27084,0.61459 -0.625,1.08334 -1.0625,1.40625c-0.4375,0.32291 -0.98437,0.48438 -1.64062,0.48438zM280.48879,226.94725c-0.84375,0 -1.55208,-0.28646 -2.125,-0.85937c-0.57292,-0.57291 -0.85937,-1.28125 -0.85937,-2.125v-38.8125c0,-0.875 0.28646,-1.58854 0.85938,-2.14062c0.57292,-0.55209 1.28125,-0.82812 2.125,-0.82812h25.90625c0.875,0 1.57813,0.26041 2.10938,0.78125c0.54167,0.51041 0.8125,1.18229 0.8125,2.01563c0,0.80209 -0.27083,1.45313 -0.8125,1.95313c-0.53125,0.5 -1.23437,0.75 -2.10937,0.75h-22.9375v13.92188h16.45313c0.88542,0 1.59375,0.26041 2.125,0.78125c0.54167,0.51041 0.8125,1.16666 0.8125,1.96875c0,0.80209 -0.27083,1.46354 -0.8125,1.98438c-0.53125,0.52084 -1.23958,0.78125 -2.125,0.78125h-16.45312v14.32813h22.9375c0.875,0 1.57813,0.25 2.10938,0.75c0.54167,0.48959 0.8125,1.13541 0.8125,1.9375c0,0.84375 -0.27083,1.52604 -0.8125,2.04688c-0.53125,0.51041 -1.23437,0.76563 -2.10937,0.76563zM320.61855,226.94725c-0.84375,0 -1.55208,-0.28646 -2.125,-0.85937c-0.57292,-0.57291 -0.85937,-1.28125 -0.85937,-2.125v-38.8125c0,-0.875 0.28646,-1.58854 0.85938,-2.14062c0.57292,-0.55209 1.28125,-0.82812 2.125,-0.82812h10.3125c2.86458,0 5.40625,0.60416 7.625,1.8125c2.21875,1.19791 3.94792,2.84896 5.1875,4.95313c1.23958,2.09375 1.85938,4.53646 1.85938,7.32813c0,2.60416 -0.61979,4.91666 -1.85937,6.9375c-1.23958,2.02084 -2.96875,3.60938 -5.1875,4.76563c-2.21875,1.14584 -4.76042,1.71875 -7.625,1.71875h-7.34375v14.26563c0,0.84375 -0.27604,1.55209 -0.82812,2.125c-0.55208,0.57291 -1.26562,0.85938 -2.14062,0.85938zM344.3998,226.94725c-0.53125,0 -1.01562,-0.11459 -1.45312,-0.34375c-0.4375,-0.22916 -0.8125,-0.59375 -1.125,-1.09375l-10.3125,-16.625l5.78125,-1.65625l9.40625,15.125c0.6875,1.11459 0.78125,2.16146 0.28125,3.14063c-0.48958,0.96875 -1.34896,1.45313 -2.57812,1.45313zM323.5873,204.18162h7.34375c1.76042,0 3.30729,-0.33334 4.64063,-1c1.34375,-0.66666 2.39583,-1.59896 3.15625,-2.79687c0.76042,-1.20834 1.14063,-2.57812 1.14063,-4.10937c0,-1.67709 -0.38021,-3.16666 -1.14062,-4.46875c-0.76042,-1.30209 -1.8125,-2.3125 -3.15625,-3.03125c-1.33333,-0.72916 -2.88021,-1.09375 -4.64062,-1.09375h-7.34375z" fill="#a600b9"/><path d="M141.69067,224.44725c-0.84375,0 -1.55209,-0.28646 -2.125,-0.85937c-0.57291,-0.57291 -0.85937,-1.28125 -0.85937,-2.125v-38.8125c0,-0.875 0.28646,-1.58854 0.85938,-2.14062c0.57291,-0.55209 1.28125,-0.82812 2.125,-0.82812h10.375c3.28125,0 6.27084,0.54688 8.96875,1.64063c2.69791,1.08334 5.03646,2.63021 7.01563,4.64063c1.98959,2 3.52084,4.35938 4.59375,7.07813c1.07291,2.70834 1.60938,5.70313 1.60938,8.98438c0,3.29166 -0.53646,6.30729 -1.60937,9.04688c-1.07291,2.72916 -2.60416,5.09896 -4.59375,7.10938c-1.97916,2 -4.31771,3.54688 -7.01562,4.64063c-2.69791,1.08334 -5.6875,1.625 -8.96875,1.625zM144.65942,219.166h7.40625c3.20834,0 6.04166,-0.73437 8.5,-2.20312c2.46875,-1.46875 4.41146,-3.48959 5.82813,-6.0625c1.41666,-2.58334 2.125,-5.54166 2.125,-8.875c0,-3.35416 -0.70834,-6.3125 -2.125,-8.875c-1.41666,-2.5625 -3.35937,-4.56771 -5.82812,-6.01562c-2.45834,-1.45834 -5.29166,-2.1875 -8.5,-2.1875h-7.40625zM186.57867,224.44725c-0.84375,0 -1.55209,-0.28646 -2.125,-0.85937c-0.57291,-0.57291 -0.85937,-1.28125 -0.85937,-2.125v-38.8125c0,-0.875 0.28646,-1.58854 0.85938,-2.14062c0.57291,-0.55209 1.28125,-0.82812 2.125,-0.82812h10.3125c2.86459,0 5.40625,0.60416 7.625,1.8125c2.21875,1.19791 3.94791,2.84896 5.1875,4.95313c1.23959,2.09375 1.85938,4.53646 1.85938,7.32813c0,2.60416 -0.61979,4.91666 -1.85937,6.9375c-1.23959,2.02084 -2.96875,3.60938 -5.1875,4.76563c-2.21875,1.14584 -4.76041,1.71875 -7.625,1.71875h-7.34375v14.26563c0,0.84375 -0.27604,1.55209 -0.82812,2.125c-0.55209,0.57291 -1.26562,0.85938 -2.14062,0.85938zM210.35992,224.44725c-0.53125,0 -1.01562,-0.11459 -1.45312,-0.34375c-0.4375,-0.22916 -0.8125,-0.59375 -1.125,-1.09375l-10.3125,-16.625l5.78125,-1.65625l9.40625,15.125c0.6875,1.11459 0.78125,2.16146 0.28125,3.14063c-0.48959,0.96875 -1.34896,1.45313 -2.57812,1.45313zM189.54742,201.68162h7.34375c1.76041,0 3.30729,-0.33334 4.64063,-1c1.34375,-0.66666 2.39584,-1.59896 3.15625,-2.79687c0.76041,-1.20834 1.14063,-2.57812 1.14063,-4.10937c0,-1.67709 -0.38021,-3.16666 -1.14062,-4.46875c-0.76041,-1.30209 -1.8125,-2.3125 -3.15625,-3.03125c-1.33334,-0.72916 -2.88021,-1.09375 -4.64062,-1.09375h-7.34375zM222.81011,224.44725c-0.84375,0 -1.55209,-0.28646 -2.125,-0.85937c-0.57291,-0.57291 -0.85937,-1.28125 -0.85937,-2.125v-38.8125c0,-0.875 0.28646,-1.58854 0.85938,-2.14062c0.57291,-0.55209 1.28125,-0.82812 2.125,-0.82812c0.875,0 1.58854,0.27604 2.14063,0.82813c0.55209,0.55209 0.82813,1.26563 0.82813,2.14063v38.8125c0,0.84375 -0.27604,1.55209 -0.82812,2.125c-0.55209,0.57291 -1.26562,0.85938 -2.14062,0.85938zM252.61289,224.44725c-1.21875,0 -2.11459,-0.63021 -2.6875,-1.89062l-16.79687,-38.40625c-0.54166,-1.30209 -0.60416,-2.36979 -0.1875,-3.20312c0.42709,-0.84375 1.23438,-1.26562 2.42188,-1.26562c1.33334,0 2.25,0.58854 2.75,1.76563l14.73438,35.375h-0.625l15.01564,-35.375c0.30208,-0.6875 0.65104,-1.15104 1.04688,-1.39062c0.40625,-0.25 0.95313,-0.375 1.64063,-0.375c1.14583,0 1.9375,0.41146 2.375,1.23438c0.44792,0.8125 0.44271,1.71875 -0.01562,2.71875l-16.96877,38.92188c-0.27084,0.61459 -0.625,1.08334 -1.0625,1.40625c-0.4375,0.32291 -0.98437,0.48438 -1.64062,0.48438zM282.48879,224.44725c-0.84375,0 -1.55208,-0.28646 -2.125,-0.85937c-0.57292,-0.57291 -0.85937,-1.28125 -0.85937,-2.125v-38.8125c0,-0.875 0.28646,-1.58854 0.85938,-2.14062c0.57292,-0.55209 1.28125,-0.82812 2.125,-0.82812h25.90625c0.875,0 1.57813,0.26041 2.10938,0.78125c0.54167,0.51041 0.8125,1.18229 0.8125,2.01563c0,0.80209 -0.27083,1.45313 -0.8125,1.95313c-0.53125,0.5 -1.23437,0.75 -2.10937,0.75h-22.9375v13.92188h16.45313c0.88542,0 1.59375,0.26041 2.125,0.78125c0.54167,0.51041 0.8125,1.16666 0.8125,1.96875c0,0.80209 -0.27083,1.46354 -0.8125,1.98438c-0.53125,0.52084 -1.23958,0.78125 -2.125,0.78125h-16.45312v14.32813h22.9375c0.875,0 1.57813,0.25 2.10938,0.75c0.54167,0.48959 0.8125,1.13541 0.8125,1.9375c0,0.84375 -0.27083,1.52604 -0.8125,2.04688c-0.53125,0.51041 -1.23437,0.76563 -2.10937,0.76563zM322.61855,224.44725c-0.84375,0 -1.55208,-0.28646 -2.125,-0.85937c-0.57292,-0.57291 -0.85937,-1.28125 -0.85937,-2.125v-38.8125c0,-0.875 0.28646,-1.58854 0.85938,-2.14062c0.57292,-0.55209 1.28125,-0.82812 2.125,-0.82812h10.3125c2.86458,0 5.40625,0.60416 7.625,1.8125c2.21875,1.19791 3.94792,2.84896 5.1875,4.95313c1.23958,2.09375 1.85938,4.53646 1.85938,7.32813c0,2.60416 -0.61979,4.91666 -1.85937,6.9375c-1.23958,2.02084 -2.96875,3.60938 -5.1875,4.76563c-2.21875,1.14584 -4.76042,1.71875 -7.625,1.71875h-7.34375v14.26563c0,0.84375 -0.27604,1.55209 -0.82812,2.125c-0.55208,0.57291 -1.26562,0.85938 -2.14062,0.85938zM346.3998,224.44725c-0.53125,0 -1.01562,-0.11459 -1.45312,-0.34375c-0.4375,-0.22916 -0.8125,-0.59375 -1.125,-1.09375l-10.3125,-16.625l5.78125,-1.65625l9.40625,15.125c0.6875,1.11459 0.78125,2.16146 0.28125,3.14063c-0.48958,0.96875 -1.34896,1.45313 -2.57812,1.45313zM325.5873,201.68162h7.34375c1.76042,0 3.30729,-0.33334 4.64063,-1c1.34375,-0.66666 2.39583,-1.59896 3.15625,-2.79687c0.76042,-1.20834 1.14063,-2.57812 1.14063,-4.10937c0,-1.67709 -0.38021,-3.16666 -1.14062,-4.46875c-0.76042,-1.30209 -1.8125,-2.3125 -3.15625,-3.03125c-1.33333,-0.72916 -2.88021,-1.09375 -4.64062,-1.09375h-7.34375z" fill="#e50065"/><path d="M143.44067,221.94725c-0.84375,0 -1.55209,-0.28646 -2.125,-0.85937c-0.57291,-0.57291 -0.85937,-1.28125 -0.85937,-2.125v-38.8125c0,-0.875 0.28646,-1.58854 0.85938,-2.14062c0.57291,-0.55209 1.28125,-0.82812 2.125,-0.82812h10.375c3.28125,0 6.27084,0.54688 8.96875,1.64063c2.69791,1.08334 5.03646,2.63021 7.01563,4.64063c1.98959,2 3.52084,4.35938 4.59375,7.07813c1.07291,2.70834 1.60938,5.70313 1.60938,8.98438c0,3.29166 -0.53646,6.30729 -1.60937,9.04688c-1.07291,2.72916 -2.60416,5.09896 -4.59375,7.10938c-1.97916,2 -4.31771,3.54688 -7.01562,4.64063c-2.69791,1.08334 -5.6875,1.625 -8.96875,1.625zM146.40942,216.666h7.40625c3.20834,0 6.04166,-0.73437 8.5,-2.20312c2.46875,-1.46875 4.41146,-3.48959 5.82813,-6.0625c1.41666,-2.58334 2.125,-5.54166 2.125,-8.875c0,-3.35416 -0.70834,-6.3125 -2.125,-8.875c-1.41666,-2.5625 -3.35937,-4.56771 -5.82812,-6.01562c-2.45834,-1.45834 -5.29166,-2.1875 -8.5,-2.1875h-7.40625zM188.32867,221.94725c-0.84375,0 -1.55209,-0.28646 -2.125,-0.85937c-0.57291,-0.57291 -0.85937,-1.28125 -0.85937,-2.125v-38.8125c0,-0.875 0.28646,-1.58854 0.85938,-2.14062c0.57291,-0.55209 1.28125,-0.82812 2.125,-0.82812h10.3125c2.86459,0 5.40625,0.60416 7.625,1.8125c2.21875,1.19791 3.94791,2.84896 5.1875,4.95313c1.23959,2.09375 1.85938,4.53646 1.85938,7.32813c0,2.60416 -0.61979,4.91666 -1.85937,6.9375c-1.23959,2.02084 -2.96875,3.60938 -5.1875,4.76563c-2.21875,1.14584 -4.76041,1.71875 -7.625,1.71875h-7.34375v14.26563c0,0.84375 -0.27604,1.55209 -0.82812,2.125c-0.55209,0.57291 -1.26562,0.85938 -2.14062,0.85938zM212.10992,221.94725c-0.53125,0 -1.01562,-0.11459 -1.45312,-0.34375c-0.4375,-0.22916 -0.8125,-0.59375 -1.125,-1.09375l-10.3125,-16.625l5.78125,-1.65625l9.40625,15.125c0.6875,1.11459 0.78125,2.16146 0.28125,3.14063c-0.48959,0.96875 -1.34896,1.45313 -2.57812,1.45313zM191.29742,199.18162h7.34375c1.76041,0 3.30729,-0.33334 4.64063,-1c1.34375,-0.66666 2.39584,-1.59896 3.15625,-2.79687c0.76041,-1.20834 1.14063,-2.57812 1.14063,-4.10937c0,-1.67709 -0.38021,-3.16666 -1.14062,-4.46875c-0.76041,-1.30209 -1.8125,-2.3125 -3.15625,-3.03125c-1.33334,-0.72916 -2.88021,-1.09375 -4.64062,-1.09375h-7.34375zM224.56011,221.94725c-0.84375,0 -1.55209,-0.28646 -2.125,-0.85937c-0.57291,-0.57291 -0.85937,-1.28125 -0.85937,-2.125v-38.8125c0,-0.875 0.28646,-1.58854 0.85938,-2.14062c0.57291,-0.55209 1.28125,-0.82812 2.125,-0.82812c0.875,0 1.58854,0.27604 2.14063,0.82813c0.55209,0.55209 0.82813,1.26563 0.82813,2.14063v38.8125c0,0.84375 -0.27604,1.55209 -0.82812,2.125c-0.55209,0.57291 -1.26562,0.85938 -2.14062,0.85938zM254.36289,221.94725c-1.21875,0 -2.11459,-0.63021 -2.6875,-1.89062l-16.79687,-38.40625c-0.54166,-1.30209 -0.60416,-2.36979 -0.1875,-3.20312c0.42709,-0.84375 1.23438,-1.26562 2.42188,-1.26562c1.33334,0 2.25,0.58854 2.75,1.76563l14.73438,35.375h-0.625l15.01564,-35.375c0.30208,-0.6875 0.65104,-1.15104 1.04688,-1.39062c0.40625,-0.25 0.95313,-0.375 1.64063,-0.375c1.14583,0 1.9375,0.41146 2.375,1.23438c0.44792,0.8125 0.44271,1.71875 -0.01562,2.71875l-16.96877,38.92188c-0.27084,0.61459 -0.625,1.08334 -1.0625,1.40625c-0.4375,0.32291 -0.98437,0.48438 -1.64062,0.48438zM284.23879,221.94725c-0.84375,0 -1.55208,-0.28646 -2.125,-0.85937c-0.57292,-0.57291 -0.85937,-1.28125 -0.85937,-2.125v-38.8125c0,-0.875 0.28646,-1.58854 0.85938,-2.14062c0.57292,-0.55209 1.28125,-0.82812 2.125,-0.82812h25.90625c0.875,0 1.57813,0.26041 2.10938,0.78125c0.54167,0.51041 0.8125,1.18229 0.8125,2.01563c0,0.80209 -0.27083,1.45313 -0.8125,1.95313c-0.53125,0.5 -1.23437,0.75 -2.10937,0.75h-22.9375v13.92188h16.45313c0.88542,0 1.59375,0.26041 2.125,0.78125c0.54167,0.51041 0.8125,1.16666 0.8125,1.96875c0,0.80209 -0.27083,1.46354 -0.8125,1.98438c-0.53125,0.52084 -1.23958,0.78125 -2.125,0.78125h-16.45312v14.32813h22.9375c0.875,0 1.57813,0.25 2.10938,0.75c0.54167,0.48959 0.8125,1.13541 0.8125,1.9375c0,0.84375 -0.27083,1.52604 -0.8125,2.04688c-0.53125,0.51041 -1.23437,0.76563 -2.10937,0.76563zM324.36855,221.94725c-0.84375,0 -1.55208,-0.28646 -2.125,-0.85937c-0.57292,-0.57291 -0.85937,-1.28125 -0.85937,-2.125v-38.8125c0,-0.875 0.28646,-1.58854 0.85938,-2.14062c0.57292,-0.55209 1.28125,-0.82812 2.125,-0.82812h10.3125c2.86458,0 5.40625,0.60416 7.625,1.8125c2.21875,1.19791 3.94792,2.84896 5.1875,4.95313c1.23958,2.09375 1.85938,4.53646 1.85938,7.32813c0,2.60416 -0.61979,4.91666 -1.85937,6.9375c-1.23958,2.02084 -2.96875,3.60938 -5.1875,4.76563c-2.21875,1.14584 -4.76042,1.71875 -7.625,1.71875h-7.34375v14.26563c0,0.84375 -0.27604,1.55209 -0.82812,2.125c-0.55208,0.57291 -1.26562,0.85938 -2.14062,0.85938zM348.1498,221.94725c-0.53125,0 -1.01562,-0.11459 -1.45312,-0.34375c-0.4375,-0.22916 -0.8125,-0.59375 -1.125,-1.09375l-10.3125,-16.625l5.78125,-1.65625l9.40625,15.125c0.6875,1.11459 0.78125,2.16146 0.28125,3.14063c-0.48958,0.96875 -1.34896,1.45313 -2.57812,1.45313zM327.3373,199.18162h7.34375c1.76042,0 3.30729,-0.33334 4.64063,-1c1.34375,-0.66666 2.39583,-1.59896 3.15625,-2.79687c0.76042,-1.20834 1.14063,-2.57812 1.14063,-4.10937c0,-1.67709 -0.38021,-3.16666 -1.14062,-4.46875c-0.76042,-1.30209 -1.8125,-2.3125 -3.15625,-3.03125c-1.33333,-0.72916 -2.88021,-1.09375 -4.64062,-1.09375h-7.34375z" fill="#ffffff"/></g></g></svg>