<svg version="1.1" xmlns="http://www.w3.org/2000/svg" xmlns:xlink="http://www.w3.org/1999/xlink" width="138.71172" height="35.40825" viewBox="0,0,138.71172,35.40825"><g transform="translate(-135.55556,-126.10224)"><g data-paper-data="{&quot;isPaintingLayer&quot;:true}" fill-rule="nonzero" stroke="none" stroke-width="1" stroke-linecap="square" stroke-linejoin="miter" stroke-miterlimit="10" stroke-dasharray="" stroke-dashoffset="0" style="mix-blend-mode: normal"><path d="M137.36926,161.15914c-0.51277,0 -0.94325,-0.17409 -1.29143,-0.52227c-0.34818,-0.34818 -0.52227,-0.77866 -0.52227,-1.29143v-23.58764c0,-0.53177 0.17409,-0.96541 0.52227,-1.30093c0.34818,-0.33552 0.77866,-0.50328 1.29143,-0.50328h15.74409c0.53177,0 0.95908,0.15826 1.28194,0.47479c0.32919,0.3102 0.49378,0.71852 0.49378,1.22496c0,0.48745 -0.16459,0.88311 -0.49378,1.18698c-0.32286,0.30387 -0.75017,0.4558 -1.28194,0.4558h-13.93988v8.46079h9.99911c0.5381,0 0.96857,0.15826 1.29143,0.47479c0.32286,0.3102 0.48429,0.70902 0.48429,1.19647c0,0.48745 -0.16143,0.88944 -0.48429,1.20597c-0.32286,0.31653 -0.75334,0.47479 -1.29143,0.47479h-9.99911v10.23651c0,0.51277 -0.17409,0.94325 -0.52227,1.29143c-0.34818,0.34818 -0.77549,0.52227 -1.28194,0.52227zM161.33797,161.15914c-0.51277,0 -0.94325,-0.17409 -1.29143,-0.52227c-0.34818,-0.34818 -0.52227,-0.77866 -0.52227,-1.29143v-23.58764c0,-0.53177 0.17409,-0.96541 0.52227,-1.30093c0.34818,-0.33552 0.77866,-0.50328 1.29143,-0.50328c0.53177,0 0.96541,0.16776 1.30093,0.50328c0.33552,0.33552 0.50328,0.76916 0.50328,1.30093v23.58764c0,0.51277 -0.16776,0.94325 -0.50328,1.29143c-0.33552,0.34818 -0.76916,0.52227 -1.30093,0.52227zM171.89143,161.15914c-0.51277,0 -0.93692,-0.17409 -1.27244,-0.52227c-0.33552,-0.34818 -0.50328,-0.77866 -0.50328,-1.29143v-23.58764c0,-0.53177 0.16776,-0.96541 0.50328,-1.30093c0.33552,-0.33552 0.75967,-0.50328 1.27244,-0.50328c0.55709,0 1.02238,0.2184 1.39589,0.65521l15.18383,20.20713v-19.05813c0,-0.53177 0.17409,-0.96541 0.52227,-1.30093c0.35451,-0.33552 0.78499,-0.50328 1.29143,-0.50328c0.5381,0 0.96857,0.16776 1.29143,0.50328c0.32286,0.33552 0.48429,0.76916 0.48429,1.30093v23.58764c0,0.51277 -0.16143,0.94325 -0.48429,1.29143c-0.32286,0.34818 -0.75334,0.52227 -1.29143,0.52227c-0.2279,0 -0.47796,-0.05064 -0.75017,-0.15193c-0.26588,-0.10762 -0.48112,-0.26588 -0.64572,-0.47479l-15.18383,-20.20713v19.02015c0,0.51277 -0.17092,0.94325 -0.51277,1.29143c-0.33552,0.34818 -0.76916,0.52227 -1.30093,0.52227zM211.22576,161.51049c-1.88017,0 -3.64007,-0.35451 -5.27968,-1.06353c-1.63328,-0.70902 -3.06082,-1.69659 -4.28262,-2.9627c-1.2218,-1.26611 -2.17455,-2.74746 -2.85825,-4.44405c-0.6837,-1.69659 -1.02555,-3.53245 -1.02555,-5.50758c0,-1.94981 0.34185,-3.76668 1.02555,-5.45061c0.6837,-1.68393 1.63645,-3.15895 2.85825,-4.42506c1.2218,-1.26611 2.64301,-2.25684 4.26363,-2.9722c1.62695,-0.72168 3.39318,-1.08252 5.29867,-1.08252c1.79155,0 3.32987,0.23423 4.61497,0.70269c1.29143,0.46213 2.58603,1.22496 3.88379,2.2885c0.18992,0.13927 0.33552,0.28487 0.43681,0.43681c0.10762,0.15193 0.17726,0.30387 0.20891,0.4558c0.03798,0.15193 0.05697,0.33235 0.05697,0.54126c0,0.43681 -0.15826,0.80715 -0.47479,1.11101c-0.3102,0.30387 -0.6932,0.46846 -1.149,0.49378c-0.44947,0.01899 -0.87362,-0.13294 -1.27244,-0.4558c-0.86096,-0.74701 -1.7504,-1.31676 -2.66833,-1.70925c-0.9116,-0.39249 -2.1239,-0.58874 -3.6369,-0.58874c-1.3674,0 -2.65567,0.27854 -3.8648,0.83563c-1.20914,0.55709 -2.27267,1.32309 -3.1906,2.29799c-0.91793,0.97491 -1.63328,2.10807 -2.14606,3.39951c-0.50644,1.2851 -0.75967,2.65883 -0.75967,4.12119c0,1.48768 0.25322,2.87724 0.75967,4.16867c0.51277,1.2851 1.22813,2.41827 2.14606,3.39951c0.91793,0.97491 1.98146,1.73457 3.1906,2.279c1.20914,0.54443 2.4974,0.81664 3.8648,0.81664c1.18381,0 2.30432,-0.20258 3.36152,-0.60773c1.0572,-0.40516 2.07326,-0.96857 3.04816,-1.69026c0.41782,-0.30387 0.8293,-0.43681 1.23446,-0.39882c0.41149,0.03165 0.7565,0.19308 1.03505,0.48429c0.27854,0.29121 0.41782,0.6932 0.41782,1.20597c0,0.2279 -0.04115,0.45263 -0.12345,0.6742c-0.0823,0.22157 -0.2279,0.42415 -0.43681,0.60773c-1.22813,1.02555 -2.56387,1.78838 -4.00724,2.2885c-1.43704,0.50011 -2.94687,0.75017 -4.52951,0.75017zM220.32276,157.18989l-3.48497,-0.70269v-6.22927h-4.81439c-0.50644,0 -0.93376,-0.15193 -1.28194,-0.4558c-0.34818,-0.30387 -0.52227,-0.68687 -0.52227,-1.149c0,-0.46846 0.17409,-0.85146 0.52227,-1.149c0.34818,-0.30387 0.77549,-0.4558 1.28194,-0.4558h6.52364c0.53177,0 0.95908,0.16776 1.28194,0.50328c0.32919,0.33552 0.49378,0.77233 0.49378,1.31042zM227.91772,161.15914c-0.51277,0 -0.94325,-0.17409 -1.29143,-0.52227c-0.34818,-0.34818 -0.52227,-0.77866 -0.52227,-1.29143v-23.58764c0,-0.53177 0.17409,-0.96541 0.52227,-1.30093c0.34818,-0.33552 0.77866,-0.50328 1.29143,-0.50328h15.74409c0.53177,0 0.95908,0.15826 1.28194,0.47479c0.32919,0.3102 0.49378,0.71852 0.49378,1.22496c0,0.48745 -0.16459,0.88311 -0.49378,1.18698c-0.32286,0.30387 -0.75017,0.4558 -1.28194,0.4558h-13.93988v8.46079h9.99911c0.5381,0 0.96857,0.15826 1.29143,0.47479c0.32919,0.3102 0.49378,0.70902 0.49378,1.19647c0,0.48745 -0.16459,0.88944 -0.49378,1.20597c-0.32286,0.31653 -0.75334,0.47479 -1.29143,0.47479h-9.99911v8.70768h13.93988c0.53177,0 0.95908,0.15193 1.28194,0.4558c0.32919,0.29754 0.49378,0.69003 0.49378,1.17748c0,0.51277 -0.16459,0.92743 -0.49378,1.24395c-0.32286,0.3102 -0.75017,0.4653 -1.28194,0.4653zM252.30591,161.15914c-0.51277,0 -0.94325,-0.17409 -1.29143,-0.52227c-0.34818,-0.34818 -0.52227,-0.77866 -0.52227,-1.29143v-23.58764c0,-0.53177 0.17409,-0.96541 0.52227,-1.30093c0.34818,-0.33552 0.77866,-0.50328 1.29143,-0.50328h6.26725c1.7409,0 3.28556,0.36717 4.63397,1.10152c1.34841,0.72801 2.39928,1.73141 3.15262,3.01018c0.75334,1.27244 1.13,2.75696 1.13,4.45354c0,1.58264 -0.37667,2.98802 -1.13,4.21615c-0.75334,1.22813 -1.80421,2.19354 -3.15262,2.89623c-1.34841,0.69636 -2.89306,1.04454 -4.63397,1.04454h-4.46304v8.66969c0,0.51277 -0.16776,0.94325 -0.50328,1.29143c-0.33552,0.34818 -0.76916,0.52227 -1.30093,0.52227zM266.75856,161.15914c-0.32286,0 -0.61723,-0.06964 -0.88311,-0.20891c-0.26588,-0.13927 -0.49378,-0.36084 -0.6837,-0.66471l-6.26725,-10.10356l3.51346,-1.00656l5.71649,9.19196c0.41782,0.67737 0.47479,1.31359 0.17092,1.90866c-0.29754,0.58874 -0.81981,0.88311 -1.56681,0.88311zM254.11012,147.32372h4.46304c1.06986,0 2.00995,-0.20258 2.82026,-0.60773c0.81664,-0.40516 1.45603,-0.97174 1.91816,-1.69975c0.46213,-0.73434 0.6932,-1.56681 0.6932,-2.4974c0,-1.01922 -0.23107,-1.92449 -0.6932,-2.71581c-0.46213,-0.79132 -1.10152,-1.40538 -1.91816,-1.84219c-0.81031,-0.44314 -1.7504,-0.66471 -2.82026,-0.66471h-4.46304z" fill="#6600b4"/><path d="M139.36927,158.65915c-0.51278,0 -0.94325,-0.17409 -1.29144,-0.52228c-0.34818,-0.34818 -0.52227,-0.77865 -0.52227,-1.29143v-23.58765c0,-0.53177 0.17409,-0.96541 0.52227,-1.30093c0.34818,-0.33552 0.77866,-0.50328 1.29144,-0.50328h15.74408c0.53177,0 0.95908,0.15827 1.28194,0.4748c0.32919,0.31019 0.49379,0.71851 0.49379,1.22496c0,0.48746 -0.16459,0.88312 -0.49379,1.18698c-0.32286,0.30387 -0.75017,0.4558 -1.28194,0.4558h-13.93987v8.46078h9.99911c0.53809,0 0.96857,0.15826 1.29143,0.47479c0.32286,0.31019 0.48429,0.70902 0.48429,1.19647c0,0.48746 -0.16143,0.88944 -0.48429,1.20597c-0.32286,0.31653 -0.75333,0.4748 -1.29143,0.4748h-9.99911v10.2365c0,0.51278 -0.17409,0.94325 -0.52228,1.29143c-0.34818,0.34818 -0.77549,0.52228 -1.28193,0.52228zM163.33797,158.65915c-0.51278,0 -0.94325,-0.17409 -1.29143,-0.52228c-0.34818,-0.34818 -0.52228,-0.77865 -0.52228,-1.29143v-23.58765c0,-0.53177 0.17409,-0.96541 0.52228,-1.30093c0.34818,-0.33552 0.77865,-0.50328 1.29143,-0.50328c0.53177,0 0.96541,0.16776 1.30093,0.50328c0.33552,0.33552 0.50328,0.76916 0.50328,1.30093v23.58765c0,0.51278 -0.16776,0.94325 -0.50328,1.29143c-0.33552,0.34818 -0.76916,0.52228 -1.30093,0.52228zM173.89143,158.65915c-0.51278,0 -0.93692,-0.17409 -1.27244,-0.52228c-0.33552,-0.34818 -0.50328,-0.77865 -0.50328,-1.29143v-23.58765c0,-0.53177 0.16776,-0.96541 0.50328,-1.30093c0.33552,-0.33552 0.75967,-0.50328 1.27244,-0.50328c0.55709,0 1.02238,0.2184 1.39589,0.65521l15.18383,20.20713v-19.05814c0,-0.53177 0.17409,-0.96541 0.52228,-1.30093c0.35451,-0.33552 0.78498,-0.50328 1.29143,-0.50328c0.53809,0 0.96858,0.16776 1.29144,0.50328c0.32286,0.33552 0.48428,0.76916 0.48428,1.30093v23.58765c0,0.51278 -0.16143,0.94325 -0.48428,1.29143c-0.32286,0.34818 -0.75334,0.52228 -1.29144,0.52228c-0.2279,0 -0.47796,-0.05065 -0.75017,-0.15194c-0.26588,-0.10762 -0.48112,-0.26588 -0.64571,-0.47479l-15.18383,-20.20713v19.02015c0,0.51278 -0.17093,0.94325 -0.51278,1.29143c-0.33552,0.34818 -0.76916,0.52228 -1.30093,0.52228zM213.22576,159.01049c-1.88018,0 -3.64007,-0.35451 -5.27969,-1.06354c-1.63329,-0.70902 -3.06083,-1.69659 -4.28262,-2.9627c-1.22179,-1.26611 -2.17455,-2.74746 -2.85825,-4.44405c-0.6837,-1.69659 -1.02555,-3.53244 -1.02555,-5.50758c0,-1.94981 0.34185,-3.76668 1.02555,-5.4506c0.6837,-1.68392 1.63645,-3.15895 2.85825,-4.42506c1.22179,-1.26611 2.64301,-2.25684 4.26363,-2.97219c1.62695,-0.72169 3.39318,-1.08253 5.29868,-1.08253c1.79155,0 3.32987,0.23424 4.61497,0.7027c1.29144,0.46213 2.58603,1.22496 3.88379,2.2885c0.18992,0.13927 0.33552,0.28487 0.43681,0.4368c0.10762,0.15194 0.17726,0.30386 0.20891,0.4558c0.03798,0.15194 0.05697,0.33236 0.05697,0.54127c0,0.43681 -0.15827,0.80714 -0.4748,1.11101c-0.31019,0.30387 -0.6932,0.46847 -1.149,0.49379c-0.44947,0.01899 -0.87362,-0.13294 -1.27244,-0.4558c-0.86095,-0.74701 -1.7504,-1.31676 -2.66833,-1.70925c-0.9116,-0.39249 -2.1239,-0.58874 -3.6369,-0.58874c-1.3674,0 -2.65567,0.27854 -3.86481,0.83563c-1.20914,0.55709 -2.27267,1.32308 -3.1906,2.29799c-0.91793,0.97491 -1.63328,2.10808 -2.14605,3.39951c-0.50645,1.2851 -0.75967,2.65883 -0.75967,4.12119c0,1.48768 0.25322,2.87723 0.75967,4.16867c0.51278,1.2851 1.22812,2.41828 2.14605,3.39951c0.91793,0.97491 1.98146,1.73456 3.1906,2.27899c1.20914,0.54443 2.49741,0.81665 3.86481,0.81665c1.18382,0 2.30431,-0.20258 3.36152,-0.60774c1.05721,-0.40516 2.07326,-0.96857 3.04817,-1.69026c0.41781,-0.30387 0.8293,-0.43681 1.23445,-0.39882c0.41148,0.03166 0.75651,0.19308 1.03505,0.48429c0.27855,0.2912 0.41781,0.6932 0.41781,1.20597c0,0.2279 -0.04115,0.45263 -0.12345,0.67421c-0.08229,0.22157 -0.2279,0.42415 -0.43681,0.60773c-1.22813,1.02555 -2.56387,1.78839 -4.00724,2.2885c-1.43704,0.50011 -2.94687,0.75017 -4.52951,0.75017zM222.32277,154.68989l-3.48497,-0.70269v-6.22927h-4.81438c-0.50645,0 -0.93376,-0.15193 -1.28194,-0.4558c-0.34818,-0.30387 -0.52227,-0.68687 -0.52227,-1.149c0,-0.46846 0.17409,-0.85146 0.52227,-1.14899c0.34818,-0.30387 0.7755,-0.4558 1.28194,-0.4558h6.52363c0.53177,0 0.95908,0.16775 1.28194,0.50328c0.32919,0.33552 0.49379,0.77233 0.49379,1.31043zM229.91772,158.65915c-0.51278,0 -0.94325,-0.17409 -1.29143,-0.52228c-0.34818,-0.34818 -0.52227,-0.77865 -0.52227,-1.29143v-23.58765c0,-0.53177 0.17409,-0.96541 0.52227,-1.30093c0.34818,-0.33552 0.77865,-0.50328 1.29143,-0.50328h15.74409c0.53177,0 0.95908,0.15827 1.28194,0.4748c0.32919,0.31019 0.49379,0.71851 0.49379,1.22496c0,0.48746 -0.1646,0.88312 -0.49379,1.18698c-0.32286,0.30387 -0.75017,0.4558 -1.28194,0.4558h-13.93988v8.46078h9.99911c0.53809,0 0.96857,0.15826 1.29143,0.47479c0.32919,0.31019 0.49378,0.70902 0.49378,1.19647c0,0.48746 -0.16459,0.88944 -0.49378,1.20597c-0.32286,0.31653 -0.75334,0.4748 -1.29143,0.4748h-9.99911v8.70767h13.93988c0.53177,0 0.95908,0.15194 1.28194,0.4558c0.32919,0.29754 0.49379,0.69003 0.49379,1.17748c0,0.51278 -0.1646,0.92742 -0.49379,1.24395c-0.32286,0.31019 -0.75017,0.4653 -1.28194,0.4653zM254.30591,158.65915c-0.51278,0 -0.94326,-0.17409 -1.29144,-0.52228c-0.34818,-0.34818 -0.52227,-0.77865 -0.52227,-1.29143v-23.58765c0,-0.53177 0.17409,-0.96541 0.52227,-1.30093c0.34818,-0.33552 0.77866,-0.50328 1.29144,-0.50328h6.26724c1.7409,0 3.28556,0.36718 4.63397,1.10152c1.34841,0.72801 2.39928,1.7314 3.15261,3.01018c0.75333,1.27244 1.13,2.75696 1.13,4.45354c0,1.58264 -0.37667,2.98802 -1.13,4.21615c-0.75333,1.22813 -1.8042,2.19354 -3.15261,2.89623c-1.34841,0.69636 -2.89307,1.04454 -4.63397,1.04454h-4.46304v8.66969c0,0.51278 -0.16775,0.94325 -0.50327,1.29143c-0.33552,0.34818 -0.76917,0.52228 -1.30093,0.52228zM268.75856,158.65915c-0.32286,0 -0.61723,-0.06964 -0.88311,-0.20891c-0.26589,-0.13927 -0.49379,-0.36084 -0.6837,-0.66471l-6.26725,-10.10357l3.51345,-1.00655l5.71649,9.19196c0.41782,0.67737 0.47479,1.31359 0.17093,1.90866c-0.29753,0.58874 -0.81981,0.88312 -1.56681,0.88312zM256.11012,144.82372h4.46304c1.06986,0 2.00995,-0.20257 2.82027,-0.60773c0.81664,-0.40516 1.45603,-0.97174 1.91816,-1.69975c0.46213,-0.73434 0.6932,-1.56682 0.6932,-2.49741c0,-1.01922 -0.23107,-1.92448 -0.6932,-2.7158c-0.46213,-0.79132 -1.10152,-1.40538 -1.91816,-1.84219c-0.81031,-0.44314 -1.7504,-0.66471 -2.82027,-0.66471h-4.46304z" fill="#a600b9"/><path d="M141.36927,156.15915c-0.51278,0 -0.94325,-0.17409 -1.29144,-0.52228c-0.34818,-0.34818 -0.52227,-0.77865 -0.52227,-1.29143v-23.58765c0,-0.53177 0.17409,-0.96541 0.52227,-1.30093c0.34818,-0.33552 0.77866,-0.50328 1.29144,-0.50328h15.74408c0.53177,0 0.95908,0.15827 1.28194,0.4748c0.32919,0.31019 0.49379,0.71851 0.49379,1.22496c0,0.48746 -0.16459,0.88312 -0.49379,1.18698c-0.32286,0.30387 -0.75017,0.4558 -1.28194,0.4558h-13.93987v8.46078h9.99911c0.53809,0 0.96857,0.15826 1.29143,0.47479c0.32286,0.31019 0.48429,0.70902 0.48429,1.19647c0,0.48746 -0.16143,0.88944 -0.48429,1.20597c-0.32286,0.31653 -0.75333,0.4748 -1.29143,0.4748h-9.99911v10.2365c0,0.51278 -0.17409,0.94325 -0.52228,1.29143c-0.34818,0.34818 -0.77549,0.52228 -1.28193,0.52228zM165.33797,156.15915c-0.51278,0 -0.94325,-0.17409 -1.29143,-0.52228c-0.34818,-0.34818 -0.52228,-0.77865 -0.52228,-1.29143v-23.58765c0,-0.53177 0.17409,-0.96541 0.52228,-1.30093c0.34818,-0.33552 0.77865,-0.50328 1.29143,-0.50328c0.53177,0 0.96541,0.16776 1.30093,0.50328c0.33552,0.33552 0.50328,0.76916 0.50328,1.30093v23.58765c0,0.51278 -0.16776,0.94325 -0.50328,1.29143c-0.33552,0.34818 -0.76916,0.52228 -1.30093,0.52228zM175.89143,156.15915c-0.51278,0 -0.93692,-0.17409 -1.27244,-0.52228c-0.33552,-0.34818 -0.50328,-0.77865 -0.50328,-1.29143v-23.58765c0,-0.53177 0.16776,-0.96541 0.50328,-1.30093c0.33552,-0.33552 0.75967,-0.50328 1.27244,-0.50328c0.55709,0 1.02238,0.2184 1.39589,0.65521l15.18383,20.20713v-19.05814c0,-0.53177 0.17409,-0.96541 0.52228,-1.30093c0.35451,-0.33552 0.78498,-0.50328 1.29143,-0.50328c0.53809,0 0.96858,0.16776 1.29144,0.50328c0.32286,0.33552 0.48428,0.76916 0.48428,1.30093v23.58765c0,0.51278 -0.16143,0.94325 -0.48428,1.29143c-0.32286,0.34818 -0.75334,0.52228 -1.29144,0.52228c-0.2279,0 -0.47796,-0.05065 -0.75017,-0.15194c-0.26588,-0.10762 -0.48112,-0.26588 -0.64571,-0.47479l-15.18383,-20.20713v19.02015c0,0.51278 -0.17093,0.94325 -0.51278,1.29143c-0.33552,0.34818 -0.76916,0.52228 -1.30093,0.52228zM215.22576,156.51049c-1.88018,0 -3.64007,-0.35451 -5.27969,-1.06354c-1.63329,-0.70902 -3.06083,-1.69659 -4.28262,-2.9627c-1.22179,-1.26611 -2.17455,-2.74746 -2.85825,-4.44405c-0.6837,-1.69659 -1.02555,-3.53244 -1.02555,-5.50758c0,-1.94981 0.34185,-3.76668 1.02555,-5.4506c0.6837,-1.68392 1.63645,-3.15895 2.85825,-4.42506c1.22179,-1.26611 2.64301,-2.25684 4.26363,-2.97219c1.62695,-0.72169 3.39318,-1.08253 5.29868,-1.08253c1.79155,0 3.32987,0.23424 4.61497,0.7027c1.29144,0.46213 2.58603,1.22496 3.88379,2.2885c0.18992,0.13927 0.33552,0.28487 0.43681,0.4368c0.10762,0.15194 0.17726,0.30386 0.20891,0.4558c0.03798,0.15194 0.05697,0.33236 0.05697,0.54127c0,0.43681 -0.15827,0.80714 -0.4748,1.11101c-0.31019,0.30387 -0.6932,0.46847 -1.149,0.49379c-0.44947,0.01899 -0.87362,-0.13294 -1.27244,-0.4558c-0.86095,-0.74701 -1.7504,-1.31676 -2.66833,-1.70925c-0.9116,-0.39249 -2.1239,-0.58874 -3.6369,-0.58874c-1.3674,0 -2.65567,0.27854 -3.86481,0.83563c-1.20914,0.55709 -2.27267,1.32308 -3.1906,2.29799c-0.91793,0.97491 -1.63328,2.10808 -2.14605,3.39951c-0.50645,1.2851 -0.75967,2.65883 -0.75967,4.12119c0,1.48768 0.25322,2.87723 0.75967,4.16867c0.51278,1.2851 1.22812,2.41828 2.14605,3.39951c0.91793,0.97491 1.98146,1.73456 3.1906,2.27899c1.20914,0.54443 2.49741,0.81665 3.86481,0.81665c1.18382,0 2.30431,-0.20258 3.36152,-0.60774c1.05721,-0.40516 2.07326,-0.96857 3.04817,-1.69026c0.41781,-0.30387 0.8293,-0.43681 1.23445,-0.39882c0.41148,0.03166 0.75651,0.19308 1.03505,0.48429c0.27855,0.2912 0.41781,0.6932 0.41781,1.20597c0,0.2279 -0.04115,0.45263 -0.12345,0.67421c-0.08229,0.22157 -0.2279,0.42415 -0.43681,0.60773c-1.22813,1.02555 -2.56387,1.78839 -4.00724,2.2885c-1.43704,0.50011 -2.94687,0.75017 -4.52951,0.75017zM224.32277,152.18989l-3.48497,-0.70269v-6.22927h-4.81438c-0.50645,0 -0.93376,-0.15193 -1.28194,-0.4558c-0.34818,-0.30387 -0.52227,-0.68687 -0.52227,-1.149c0,-0.46846 0.17409,-0.85146 0.52227,-1.14899c0.34818,-0.30387 0.7755,-0.4558 1.28194,-0.4558h6.52363c0.53177,0 0.95908,0.16775 1.28194,0.50328c0.32919,0.33552 0.49379,0.77233 0.49379,1.31043zM231.91772,156.15915c-0.51278,0 -0.94325,-0.17409 -1.29143,-0.52228c-0.34818,-0.34818 -0.52227,-0.77865 -0.52227,-1.29143v-23.58765c0,-0.53177 0.17409,-0.96541 0.52227,-1.30093c0.34818,-0.33552 0.77865,-0.50328 1.29143,-0.50328h15.74409c0.53177,0 0.95908,0.15827 1.28194,0.4748c0.32919,0.31019 0.49379,0.71851 0.49379,1.22496c0,0.48746 -0.1646,0.88312 -0.49379,1.18698c-0.32286,0.30387 -0.75017,0.4558 -1.28194,0.4558h-13.93988v8.46078h9.99911c0.53809,0 0.96857,0.15826 1.29143,0.47479c0.32919,0.31019 0.49378,0.70902 0.49378,1.19647c0,0.48746 -0.16459,0.88944 -0.49378,1.20597c-0.32286,0.31653 -0.75334,0.4748 -1.29143,0.4748h-9.99911v8.70767h13.93988c0.53177,0 0.95908,0.15194 1.28194,0.4558c0.32919,0.29754 0.49379,0.69003 0.49379,1.17748c0,0.51278 -0.1646,0.92742 -0.49379,1.24395c-0.32286,0.31019 -0.75017,0.4653 -1.28194,0.4653zM256.30591,156.15915c-0.51278,0 -0.94326,-0.17409 -1.29144,-0.52228c-0.34818,-0.34818 -0.52227,-0.77865 -0.52227,-1.29143v-23.58765c0,-0.53177 0.17409,-0.96541 0.52227,-1.30093c0.34818,-0.33552 0.77866,-0.50328 1.29144,-0.50328h6.26724c1.7409,0 3.28556,0.36718 4.63397,1.10152c1.34841,0.72801 2.39928,1.7314 3.15261,3.01018c0.75333,1.27244 1.13,2.75696 1.13,4.45354c0,1.58264 -0.37667,2.98802 -1.13,4.21615c-0.75333,1.22813 -1.8042,2.19354 -3.15261,2.89623c-1.34841,0.69636 -2.89307,1.04454 -4.63397,1.04454h-4.46304v8.66969c0,0.51278 -0.16775,0.94325 -0.50327,1.29143c-0.33552,0.34818 -0.76917,0.52228 -1.30093,0.52228zM270.75856,156.15915c-0.32286,0 -0.61723,-0.06964 -0.88311,-0.20891c-0.26589,-0.13927 -0.49379,-0.36084 -0.6837,-0.66471l-6.26725,-10.10357l3.51345,-1.00655l5.71649,9.19196c0.41782,0.67737 0.47479,1.31359 0.17093,1.90866c-0.29753,0.58874 -0.81981,0.88312 -1.56681,0.88312zM258.11012,142.32372h4.46304c1.06986,0 2.00995,-0.20257 2.82027,-0.60773c0.81664,-0.40516 1.45603,-0.97174 1.91816,-1.69975c0.46213,-0.73434 0.6932,-1.56682 0.6932,-2.49741c0,-1.01922 -0.23107,-1.92448 -0.6932,-2.7158c-0.46213,-0.79132 -1.10152,-1.40538 -1.91816,-1.84219c-0.81031,-0.44314 -1.7504,-0.66471 -2.82027,-0.66471h-4.46304z" fill="#e50065"/><path d="M143.11927,153.65915c-0.51278,0 -0.94325,-0.17409 -1.29144,-0.52228c-0.34818,-0.34818 -0.52227,-0.77865 -0.52227,-1.29143v-23.58765c0,-0.53177 0.17409,-0.96541 0.52227,-1.30093c0.34818,-0.33552 0.77866,-0.50328 1.29144,-0.50328h15.74408c0.53177,0 0.95908,0.15827 1.28194,0.4748c0.32919,0.31019 0.49379,0.71851 0.49379,1.22496c0,0.48746 -0.16459,0.88312 -0.49379,1.18698c-0.32286,0.30387 -0.75017,0.4558 -1.28194,0.4558h-13.93987v8.46078h9.99911c0.53809,0 0.96857,0.15826 1.29143,0.47479c0.32286,0.31019 0.48429,0.70902 0.48429,1.19647c0,0.48746 -0.16143,0.88944 -0.48429,1.20597c-0.32286,0.31653 -0.75333,0.4748 -1.29143,0.4748h-9.99911v10.2365c0,0.51278 -0.17409,0.94325 -0.52228,1.29143c-0.34818,0.34818 -0.77549,0.52228 -1.28193,0.52228zM167.08797,153.65915c-0.51278,0 -0.94325,-0.17409 -1.29143,-0.52228c-0.34818,-0.34818 -0.52228,-0.77865 -0.52228,-1.29143v-23.58765c0,-0.53177 0.17409,-0.96541 0.52228,-1.30093c0.34818,-0.33552 0.77865,-0.50328 1.29143,-0.50328c0.53177,0 0.96541,0.16776 1.30093,0.50328c0.33552,0.33552 0.50328,0.76916 0.50328,1.30093v23.58765c0,0.51278 -0.16776,0.94325 -0.50328,1.29143c-0.33552,0.34818 -0.76916,0.52228 -1.30093,0.52228zM177.64143,153.65915c-0.51278,0 -0.93692,-0.17409 -1.27244,-0.52228c-0.33552,-0.34818 -0.50328,-0.77865 -0.50328,-1.29143v-23.58765c0,-0.53177 0.16776,-0.96541 0.50328,-1.30093c0.33552,-0.33552 0.75967,-0.50328 1.27244,-0.50328c0.55709,0 1.02238,0.2184 1.39589,0.65521l15.18383,20.20713v-19.05814c0,-0.53177 0.17409,-0.96541 0.52228,-1.30093c0.35451,-0.33552 0.78498,-0.50328 1.29143,-0.50328c0.53809,0 0.96858,0.16776 1.29144,0.50328c0.32286,0.33552 0.48428,0.76916 0.48428,1.30093v23.58765c0,0.51278 -0.16143,0.94325 -0.48428,1.29143c-0.32286,0.34818 -0.75334,0.52228 -1.29144,0.52228c-0.2279,0 -0.47796,-0.05065 -0.75017,-0.15194c-0.26588,-0.10762 -0.48112,-0.26588 -0.64571,-0.47479l-15.18383,-20.20713v19.02015c0,0.51278 -0.17093,0.94325 -0.51278,1.29143c-0.33552,0.34818 -0.76916,0.52228 -1.30093,0.52228zM216.97576,154.01049c-1.88018,0 -3.64007,-0.35451 -5.27969,-1.06354c-1.63329,-0.70902 -3.06083,-1.69659 -4.28262,-2.9627c-1.22179,-1.26611 -2.17455,-2.74746 -2.85825,-4.44405c-0.6837,-1.69659 -1.02555,-3.53244 -1.02555,-5.50758c0,-1.94981 0.34185,-3.76668 1.02555,-5.4506c0.6837,-1.68392 1.63645,-3.15895 2.85825,-4.42506c1.22179,-1.26611 2.64301,-2.25684 4.26363,-2.97219c1.62695,-0.72169 3.39318,-1.08253 5.29868,-1.08253c1.79155,0 3.32987,0.23424 4.61497,0.7027c1.29144,0.46213 2.58603,1.22496 3.88379,2.2885c0.18992,0.13927 0.33552,0.28487 0.43681,0.4368c0.10762,0.15194 0.17726,0.30386 0.20891,0.4558c0.03798,0.15194 0.05697,0.33236 0.05697,0.54127c0,0.43681 -0.15827,0.80714 -0.4748,1.11101c-0.31019,0.30387 -0.6932,0.46847 -1.149,0.49379c-0.44947,0.01899 -0.87362,-0.13294 -1.27244,-0.4558c-0.86095,-0.74701 -1.7504,-1.31676 -2.66833,-1.70925c-0.9116,-0.39249 -2.1239,-0.58874 -3.6369,-0.58874c-1.3674,0 -2.65567,0.27854 -3.86481,0.83563c-1.20914,0.55709 -2.27267,1.32308 -3.1906,2.29799c-0.91793,0.97491 -1.63328,2.10808 -2.14605,3.39951c-0.50645,1.2851 -0.75967,2.65883 -0.75967,4.12119c0,1.48768 0.25322,2.87723 0.75967,4.16867c0.51278,1.2851 1.22812,2.41828 2.14605,3.39951c0.91793,0.97491 1.98146,1.73456 3.1906,2.27899c1.20914,0.54443 2.49741,0.81665 3.86481,0.81665c1.18382,0 2.30431,-0.20258 3.36152,-0.60774c1.05721,-0.40516 2.07326,-0.96857 3.04817,-1.69026c0.41781,-0.30387 0.8293,-0.43681 1.23445,-0.39882c0.41148,0.03166 0.75651,0.19308 1.03505,0.48429c0.27855,0.2912 0.41781,0.6932 0.41781,1.20597c0,0.2279 -0.04115,0.45263 -0.12345,0.67421c-0.08229,0.22157 -0.2279,0.42415 -0.43681,0.60773c-1.22813,1.02555 -2.56387,1.78839 -4.00724,2.2885c-1.43704,0.50011 -2.94687,0.75017 -4.52951,0.75017zM226.07277,149.68989l-3.48497,-0.70269v-6.22927h-4.81438c-0.50645,0 -0.93376,-0.15193 -1.28194,-0.4558c-0.34818,-0.30387 -0.52227,-0.68687 -0.52227,-1.149c0,-0.46846 0.17409,-0.85146 0.52227,-1.14899c0.34818,-0.30387 0.7755,-0.4558 1.28194,-0.4558h6.52363c0.53177,0 0.95908,0.16775 1.28194,0.50328c0.32919,0.33552 0.49379,0.77233 0.49379,1.31043zM233.66772,153.65915c-0.51278,0 -0.94325,-0.17409 -1.29143,-0.52228c-0.34818,-0.34818 -0.52227,-0.77865 -0.52227,-1.29143v-23.58765c0,-0.53177 0.17409,-0.96541 0.52227,-1.30093c0.34818,-0.33552 0.77865,-0.50328 1.29143,-0.50328h15.74409c0.53177,0 0.95908,0.15827 1.28194,0.4748c0.32919,0.31019 0.49379,0.71851 0.49379,1.22496c0,0.48746 -0.1646,0.88312 -0.49379,1.18698c-0.32286,0.30387 -0.75017,0.4558 -1.28194,0.4558h-13.93988v8.46078h9.99911c0.53809,0 0.96857,0.15826 1.29143,0.47479c0.32919,0.31019 0.49378,0.70902 0.49378,1.19647c0,0.48746 -0.16459,0.88944 -0.49378,1.20597c-0.32286,0.31653 -0.75334,0.4748 -1.29143,0.4748h-9.99911v8.70767h13.93988c0.53177,0 0.95908,0.15194 1.28194,0.4558c0.32919,0.29754 0.49379,0.69003 0.49379,1.17748c0,0.51278 -0.1646,0.92742 -0.49379,1.24395c-0.32286,0.31019 -0.75017,0.4653 -1.28194,0.4653zM258.05591,153.65915c-0.51278,0 -0.94326,-0.17409 -1.29144,-0.52228c-0.34818,-0.34818 -0.52227,-0.77865 -0.52227,-1.29143v-23.58765c0,-0.53177 0.17409,-0.96541 0.52227,-1.30093c0.34818,-0.33552 0.77866,-0.50328 1.29144,-0.50328h6.26724c1.7409,0 3.28556,0.36718 4.63397,1.10152c1.34841,0.72801 2.39928,1.7314 3.15261,3.01018c0.75333,1.27244 1.13,2.75696 1.13,4.45354c0,1.58264 -0.37667,2.98802 -1.13,4.21615c-0.75333,1.22813 -1.8042,2.19354 -3.15261,2.89623c-1.34841,0.69636 -2.89307,1.04454 -4.63397,1.04454h-4.46304v8.66969c0,0.51278 -0.16775,0.94325 -0.50327,1.29143c-0.33552,0.34818 -0.76917,0.52228 -1.30093,0.52228zM272.50856,153.65915c-0.32286,0 -0.61723,-0.06964 -0.88311,-0.20891c-0.26589,-0.13927 -0.49379,-0.36084 -0.6837,-0.66471l-6.26725,-10.10357l3.51345,-1.00655l5.71649,9.19196c0.41782,0.67737 0.47479,1.31359 0.17093,1.90866c-0.29753,0.58874 -0.81981,0.88312 -1.56681,0.88312zM259.86012,139.82372h4.46304c1.06986,0 2.00995,-0.20257 2.82027,-0.60773c0.81664,-0.40516 1.45603,-0.97174 1.91816,-1.69975c0.46213,-0.73434 0.6932,-1.56682 0.6932,-2.49741c0,-1.01922 -0.23107,-1.92448 -0.6932,-2.7158c-0.46213,-0.79132 -1.10152,-1.40538 -1.91816,-1.84219c-0.81031,-0.44314 -1.7504,-0.66471 -2.82027,-0.66471h-4.46304z" fill="#ffffff"/></g></g></svg>