<svg version="1.1" xmlns="http://www.w3.org/2000/svg" xmlns:xlink="http://www.w3.org/1999/xlink" width="720" height="540" viewBox="0,0,720,540"><defs><linearGradient x1="240.00001" y1="154.58593" x2="240.00001" y2="205.41407" gradientUnits="userSpaceOnUse" id="color-1"><stop offset="0" stop-color="#fad000"/><stop offset="1" stop-color="#ffbc00"/></linearGradient><clipPath id="clip-1"><rect x="-240" y="-180" transform="scale(0.5,0.5)" width="1440" height="1080" fill="none" fill-rule="nonzero" stroke="none" stroke-width="0.5" stroke-linecap="butt"/></clipPath></defs><g transform="translate(120,90)"><g clip-path="url(#clip-1)" data-paper-data="{&quot;isPaintingLayer&quot;:true}" stroke-linejoin="miter" stroke-miterlimit="10" stroke-dasharray="" stroke-dashoffset="0" style="mix-blend-mode: normal"><path d="M-110.76904,0.30708h701.5381v359.38583h-701.5381z" fill-opacity="0" fill="#000000" fill-rule="evenodd" stroke="none" stroke-width="1" stroke-linecap="square"/><path d="M224.6823,154.58593l12.16146,0.07813c6.70833,0 12.60417,2.41667 17.6875,7.25c5.08333,4.82292 7.625,10.76042 7.625,17.8125c0,7.04167 -2.48437,13.08334 -7.45312,18.12501c-4.96875,5.04167 -10.98958,7.5625 -18.0625,7.5625h-12.6875c-2.82292,0 -4.57812,-0.57812 -5.26562,-1.73437c-0.5625,-0.97917 -0.84375,-2.45833 -0.84375,-4.4375v-38.54688c0,-1.11458 0.03646,-1.92187 0.10938,-2.42187c0.07292,-0.51042 0.29167,-1.11458 0.65625,-1.8125c0.64583,-1.25 2.44792,-1.875 5.40625,-1.875zM236.84375,193.13282c3.33333,0 6.33854,-1.23437 9.01563,-3.70312c2.67708,-2.47917 4.01563,-5.58854 4.01563,-9.32813c0,-3.73958 -1.30729,-6.86979 -3.92187,-9.39062c-2.60417,-2.52083 -5.66146,-3.78125 -9.17187,-3.78125h-6.65625v26.20313z" fill="#f9ea00" fill-rule="nonzero" stroke="url(#color-1)" stroke-width="6.5" stroke-linecap="square"/><path d="M224.10893,156.91687c0.02525,0.70831 -0.99827,1.31973 -2.28611,1.36565c-1.28785,0.04592 -2.35233,-0.49106 -2.37758,-1.19938c-0.02525,-0.70831 0.99828,-1.31974 2.28613,-1.36566c1.28785,-0.04592 2.35232,0.49107 2.37757,1.19939z" fill="#ffffff" fill-rule="nonzero" stroke="none" stroke-width="0" stroke-linecap="butt"/></g></g></svg>