<svg version="1.1" xmlns="http://www.w3.org/2000/svg" xmlns:xlink="http://www.w3.org/1999/xlink" width="26.468" height="42.203" viewBox="0,0,26.468,42.203"><defs><linearGradient x1="239.9375" y1="166.1485" x2="239.9375" y2="197.3515" gradientUnits="userSpaceOnUse" id="color-1"><stop offset="0" stop-color="#000000"/><stop offset="1" stop-color="#000000" stop-opacity="0"/></linearGradient><linearGradient x1="239.9375" y1="166.1485" x2="239.9375" y2="197.3515" gradientUnits="userSpaceOnUse" id="color-2"><stop offset="0" stop-color="#000000"/><stop offset="1" stop-color="#000000" stop-opacity="0"/></linearGradient></defs><g transform="translate(-226.766,-158.8985)"><g data-paper-data="{&quot;isPaintingLayer&quot;:true}" fill-rule="nonzero" stroke-linecap="butt" stroke-linejoin="miter" stroke-miterlimit="10" stroke-dasharray="" stroke-dashoffset="0" style="mix-blend-mode: normal"><path d="M239.906,185.1485c-1.812,0 -3.432,-0.406 -4.859,-1.219c-1.427,-0.812 -2.542,-1.937 -3.344,-3.375c-0.792,-1.448 -1.187,-3.088 -1.187,-4.921c0,-1.813 0.395,-3.438 1.187,-4.875c0.802,-1.448 1.917,-2.579 3.344,-3.391c1.427,-0.813 3.047,-1.219 4.859,-1.219c1.844,0 3.479,0.406 4.906,1.219c1.428,0.812 2.542,1.943 3.344,3.391c0.802,1.437 1.203,3.062 1.203,4.875c0,2.052 -0.51,3.875 -1.531,5.468l-9.078,15.125c-0.479,0.75 -1.094,1.125 -1.844,1.125c-0.604,0 -1.109,-0.198 -1.515,-0.593c-0.396,-0.407 -0.594,-0.891 -0.594,-1.454c0,-0.395 0.104,-0.755 0.312,-1.078l5.485,-9.078zM239.953,169.7425c-1.656,0 -3.005,0.547 -4.047,1.641c-1.031,1.093 -1.547,2.51 -1.547,4.25c0,1.729 0.516,3.151 1.547,4.265c1.042,1.104 2.391,1.656 4.047,1.656c1.625,0 2.958,-0.552 4,-1.656c1.042,-1.114 1.563,-2.536 1.563,-4.265c0,-1.74 -0.516,-3.157 -1.547,-4.25c-1.021,-1.094 -2.36,-1.641 -4.016,-1.641z" fill="url(#color-1)" stroke="url(#color-2)" stroke-width="7.5"/><path d="M240.031,181.6485c-1.812,0 -3.432,-0.406 -4.859,-1.219c-1.427,-0.812 -2.542,-1.937 -3.344,-3.375c-0.792,-1.448 -1.187,-3.088 -1.187,-4.921c0,-1.813 0.395,-3.438 1.187,-4.875c0.802,-1.448 1.917,-2.579 3.344,-3.391c1.427,-0.813 3.047,-1.219 4.859,-1.219c1.844,0 3.479,0.406 4.906,1.219c1.428,0.812 2.542,1.943 3.344,3.391c0.802,1.437 1.203,3.062 1.203,4.875c0,2.052 -0.51,3.875 -1.531,5.468l-9.078,15.125c-0.479,0.75 -1.094,1.125 -1.844,1.125c-0.604,0 -1.109,-0.198 -1.515,-0.593c-0.396,-0.407 -0.594,-0.891 -0.594,-1.454c0,-0.395 0.104,-0.755 0.312,-1.078l5.485,-9.078zM240.078,166.2425c-1.656,0 -3.005,0.547 -4.047,1.641c-1.031,1.093 -1.547,2.51 -1.547,4.25c0,1.729 0.516,3.151 1.547,4.265c1.042,1.104 2.391,1.656 4.047,1.656c1.625,0 2.958,-0.552 4,-1.656c1.042,-1.114 1.563,-2.536 1.563,-4.265c0,-1.74 -0.516,-3.157 -1.547,-4.25c-1.021,-1.094 -2.36,-1.641 -4.016,-1.641z" fill="#ca6c00" stroke="#ffffff" stroke-width="7.5"/><path d="M240.031,181.6485c-1.812,0 -3.432,-0.406 -4.859,-1.219c-1.427,-0.812 -2.542,-1.937 -3.344,-3.375c-0.792,-1.448 -1.187,-3.088 -1.187,-4.921c0,-1.813 0.395,-3.438 1.187,-4.875c0.802,-1.448 1.917,-2.579 3.344,-3.391c1.427,-0.813 3.047,-1.219 4.859,-1.219c1.844,0 3.479,0.406 4.906,1.219c1.428,0.812 2.542,1.943 3.344,3.391c0.802,1.437 1.203,3.062 1.203,4.875c0,2.052 -0.51,3.875 -1.531,5.468l-9.078,15.125c-0.479,0.75 -1.094,1.125 -1.844,1.125c-0.604,0 -1.109,-0.198 -1.515,-0.593c-0.396,-0.407 -0.594,-0.891 -0.594,-1.454c0,-0.395 0.104,-0.755 0.312,-1.078l5.485,-9.078zM240.078,166.2425c-1.656,0 -3.005,0.547 -4.047,1.641c-1.031,1.093 -1.547,2.51 -1.547,4.25c0,1.729 0.516,3.151 1.547,4.265c1.042,1.104 2.391,1.656 4.047,1.656c1.625,0 2.958,-0.552 4,-1.656c1.042,-1.114 1.563,-2.536 1.563,-4.265c0,-1.74 -0.516,-3.157 -1.547,-4.25c-1.021,-1.094 -2.36,-1.641 -4.016,-1.641z" fill="#ca6c00" stroke="#ffffff" stroke-width="0"/></g></g></svg>