<svg version="1.1" xmlns="http://www.w3.org/2000/svg" xmlns:xlink="http://www.w3.org/1999/xlink" width="385.92767" height="45.92188" viewBox="0,0,385.92767,45.92188"><g transform="translate(-47.85599,-15.56713)"><g data-paper-data="{&quot;isPaintingLayer&quot;:true}" fill="#5ec565" fill-rule="nonzero" stroke="none" stroke-width="1" stroke-linecap="square" stroke-linejoin="miter" stroke-miterlimit="10" stroke-dasharray="" stroke-dashoffset="0" style="mix-blend-mode: normal"><path d="M69.98098,61.48897c-3.09375,0 -5.98958,-0.58333 -8.6875,-1.75c-2.6875,-1.16667 -5.03646,-2.79167 -7.04687,-4.875c-2.01042,-2.08333 -3.57812,-4.52083 -4.70312,-7.3125c-1.125,-2.79167 -1.6875,-5.81249 -1.6875,-9.06247c0,-3.20833 0.5625,-6.19792 1.6875,-8.96875c1.125,-2.77083 2.69271,-5.19792 4.70313,-7.28125c2.01042,-2.08333 4.34896,-3.71354 7.01563,-4.89062c2.67708,-1.1875 5.58333,-1.78125 8.71875,-1.78125c2.94792,0 5.47917,0.38542 7.59375,1.15625c2.125,0.76042 4.25521,2.01563 6.39063,3.76563c0.3125,0.22917 0.55208,0.46875 0.71875,0.71875c0.17708,0.25 0.29167,0.5 0.34375,0.75c0.0625,0.25 0.09375,0.54688 0.09375,0.89063c0,0.71875 -0.26042,1.32813 -0.78125,1.82813c-0.51042,0.5 -1.14062,0.77083 -1.89062,0.8125c-0.73958,0.03125 -1.4375,-0.21875 -2.09375,-0.75c-1.41667,-1.22917 -2.88021,-2.16667 -4.39062,-2.8125c-1.5,-0.64583 -3.49479,-0.96875 -5.98437,-0.96875c-2.25,0 -4.36979,0.45833 -6.35937,1.375c-1.98958,0.91667 -3.73958,2.17708 -5.25,3.78125c-1.51042,1.60417 -2.6875,3.46875 -3.53125,5.59375c-0.83333,2.11458 -1.25,4.375 -1.25,6.78125c0,2.4479 0.41667,4.73434 1.25,6.85934c0.84375,2.11458 2.02083,3.97917 3.53125,5.59375c1.51042,1.60417 3.26042,2.85417 5.25,3.75c1.98958,0.89583 4.10938,1.34375 6.35938,1.34375c1.94792,0 3.79167,-0.33333 5.53125,-1c1.73958,-0.66667 3.41146,-1.59375 5.01563,-2.78125c0.6875,-0.5 1.36458,-0.71875 2.03125,-0.65625c0.67708,0.05208 1.24479,0.31771 1.70313,0.79688c0.45833,0.47917 0.6875,1.14063 0.6875,1.98438c0,0.375 -0.06771,0.74479 -0.20312,1.10938c-0.13542,0.36458 -0.375,0.69792 -0.71875,1c-2.02083,1.6875 -4.21875,2.94271 -6.59375,3.76563c-2.36458,0.82292 -4.84896,1.23438 -7.45312,1.23438zM84.94973,54.3796l-5.73437,-1.15625v-10.25h-7.92187c-0.83333,0 -1.53646,-0.25 -2.10937,-0.75c-0.57292,-0.5 -0.85937,-1.13021 -0.85937,-1.89062c0,-0.77083 0.28646,-1.40103 0.85938,-1.89059c0.57292,-0.5 1.27604,-0.75 2.10938,-0.75h10.73438c0.875,0 1.57813,0.27604 2.10938,0.82813c0.54167,0.55206 0.8125,1.2708 0.8125,2.15622zM92.68127,60.91085c-1.07292,0 -1.89583,-0.45833 -2.46875,-1.375c-0.57292,-0.91667 -0.63021,-1.89062 -0.17187,-2.92187l16.10938,-38.46872c0.57292,-1.33333 1.51042,-2 2.8125,-2c1.375,0 2.3125,0.66667 2.8125,2l16.17188,38.57809c0.41667,1.07292 0.34896,2.04167 -0.20312,2.90625c-0.55208,0.85417 -1.38542,1.28125 -2.5,1.28125c-0.57292,0 -1.11979,-0.16146 -1.64062,-0.48437c-0.51042,-0.32292 -0.88021,-0.77083 -1.10937,-1.34375l-14.21875,-35.32809h1.60938l-14.45312,35.32809c-0.26042,0.60417 -0.65104,1.0625 -1.17187,1.375c-0.51042,0.30208 -1.03646,0.45313 -1.57812,0.45313zM95.72814,51.05147l2.28125,-4.9375h22.48438l2.28125,4.9375zM137.74865,60.91085c-0.84375,0 -1.55208,-0.28646 -2.125,-0.85937c-0.57292,-0.57292 -0.85937,-1.28125 -0.85937,-2.125v-38.81247c0,-0.875 0.28646,-1.58854 0.85938,-2.14062c0.57292,-0.55208 1.28125,-0.82812 2.125,-0.82812c1.14583,0 2.02083,0.53125 2.625,1.59375l17.95313,35.95309h-1.84375l17.5,-35.95309c0.60417,-1.0625 1.47917,-1.59375 2.625,-1.59375c0.84375,0 1.55208,0.27604 2.125,0.82813c0.57292,0.55208 0.85938,1.26563 0.85938,2.14063v38.81247c0,0.84375 -0.29687,1.55208 -0.89062,2.125c-0.59375,0.57292 -1.29167,0.85938 -2.09375,0.85938c-0.83333,0 -1.54167,-0.28646 -2.125,-0.85937c-0.57292,-0.57292 -0.85937,-1.28125 -0.85937,-2.125v-30.54684l1.15625,-0.29687l-15.01562,30.62497c-0.65625,0.98958 -1.52083,1.48438 -2.59375,1.48438c-1.26042,0 -2.17708,-0.59375 -2.75,-1.78125l-14.84375,-29.74997l1.14063,-0.28125v30.54684c0,0.84375 -0.28646,1.55208 -0.85937,2.125c-0.57292,0.57292 -1.27604,0.85938 -2.10937,0.85938zM194.04494,60.91085c-0.84375,0 -1.55208,-0.28646 -2.125,-0.85937c-0.57292,-0.57292 -0.85937,-1.28125 -0.85937,-2.125v-38.81247c0,-0.875 0.28646,-1.58854 0.85938,-2.14062c0.57292,-0.55208 1.28125,-0.82812 2.125,-0.82812h25.90625c0.875,0 1.57813,0.26042 2.10938,0.78125c0.54167,0.51042 0.8125,1.18229 0.8125,2.01563c0,0.80208 -0.27083,1.45313 -0.8125,1.95313c-0.53125,0.5 -1.23437,0.75 -2.10937,0.75h-22.9375v13.92188h16.45313c0.88542,0 1.59375,0.26042 2.125,0.78125c0.54167,0.51042 0.8125,1.16667 0.8125,1.96875c0,0.80206 -0.27083,1.46351 -0.8125,1.98434c-0.53125,0.52083 -1.23958,0.78125 -2.125,0.78125h-16.45312v14.32813h22.9375c0.875,0 1.57813,0.25 2.10938,0.75c0.54167,0.48958 0.8125,1.13542 0.8125,1.9375c0,0.84375 -0.27083,1.52604 -0.8125,2.04688c-0.53125,0.51042 -1.23437,0.76563 -2.10937,0.76563h-25.90625zM250.97185,60.91085c-0.84375,0 -1.55208,-0.28646 -2.125,-0.85937c-0.57292,-0.57292 -0.85937,-1.28125 -0.85937,-2.125v-38.81247c0,-0.875 0.28646,-1.58854 0.85938,-2.14062c0.57292,-0.55208 1.28125,-0.82812 2.125,-0.82812c1.14583,0 2.02083,0.53125 2.625,1.59375l17.95312,35.95309h-1.84375l17.5,-35.95309c0.60417,-1.0625 1.47917,-1.59375 2.625,-1.59375c0.84375,0 1.5521,0.27604 2.12506,0.82813c0.57292,0.55208 0.85938,1.26563 0.85938,2.14063v38.81247c0,0.84375 -0.29687,1.55208 -0.89062,2.125c-0.59379,0.57292 -1.29173,0.85938 -2.09381,0.85938c-0.83333,0 -1.54167,-0.28646 -2.125,-0.85937c-0.57292,-0.57292 -0.85937,-1.28125 -0.85937,-2.125v-30.54684l1.15625,-0.29687l-15.01562,30.62497c-0.65625,0.98958 -1.52083,1.48438 -2.59375,1.48438c-1.26042,0 -2.17708,-0.59375 -2.75,-1.78125l-14.84375,-29.74997l1.14063,-0.28125v30.54684c0,0.84375 -0.28646,1.55208 -0.85937,2.125c-0.57292,0.57292 -1.27604,0.85938 -2.10938,0.85938zM324.97131,61.48897c-3.35417,0 -6.42708,-0.5625 -9.21875,-1.6875c-2.79167,-1.13542 -5.19271,-2.72396 -7.20312,-4.76562c-2,-2.04167 -3.55729,-4.46875 -4.67187,-7.28125c-1.10417,-2.8125 -1.65625,-5.90103 -1.65625,-9.26559c0,-3.35417 0.55208,-6.42708 1.65625,-9.21875c1.11458,-2.79167 2.67188,-5.20833 4.67188,-7.25c2.01042,-2.05208 4.41146,-3.64062 7.20313,-4.76562c2.79167,-1.125 5.86458,-1.6875 9.21875,-1.6875c3.36458,0 6.43229,0.5625 9.20313,1.6875c2.77083,1.125 5.16667,2.71354 7.1875,4.76563c2.03125,2.04167 3.59896,4.45833 4.70313,7.25c1.11458,2.79167 1.67188,5.86458 1.67188,9.21875c0,3.36456 -0.55729,6.45309 -1.67187,9.26559c-1.10417,2.8125 -2.67187,5.23958 -4.70312,7.28125c-2.02083,2.04167 -4.41667,3.63021 -7.1875,4.76563c-2.77083,1.125 -5.83854,1.6875 -9.20312,1.6875zM324.97131,56.09835c2.48958,0 4.77604,-0.44792 6.85938,-1.34375c2.08333,-0.90625 3.88542,-2.15104 5.40625,-3.73437c1.53125,-1.58333 2.70833,-3.44271 3.53125,-5.57813c0.82292,-2.14583 1.23438,-4.46353 1.23438,-6.95309c0,-2.47917 -0.41146,-4.78646 -1.23437,-6.92187c-0.82292,-2.14583 -2,-4.01042 -3.53125,-5.59375c-1.52083,-1.59375 -3.32292,-2.82812 -5.40625,-3.70312c-2.08333,-0.875 -4.36979,-1.3125 -6.85937,-1.3125c-2.47917,0 -4.76042,0.4375 -6.84375,1.3125c-2.08333,0.875 -3.88021,2.10938 -5.39062,3.70313c-1.51042,1.58333 -2.6875,3.44792 -3.53125,5.59375c-0.83333,2.13542 -1.25,4.44271 -1.25,6.92188c0,2.48956 0.41667,4.80726 1.25,6.95309c0.84375,2.13542 2.02083,3.99479 3.53125,5.57813c1.51042,1.58333 3.30729,2.82813 5.39063,3.73438c2.08333,0.89583 4.36458,1.34375 6.84375,1.34375zM360.0675,60.91085c-0.84375,0 -1.55208,-0.28646 -2.125,-0.85937c-0.57292,-0.57292 -0.85937,-1.28125 -0.85937,-2.125v-38.81247c0,-0.875 0.28646,-1.58854 0.85938,-2.14062c0.57292,-0.55208 1.28125,-0.82812 2.125,-0.82812h10.375c3.28125,0 6.27083,0.54688 8.96875,1.64063c2.69792,1.08333 5.03646,2.63021 7.01563,4.64063c1.98958,2 3.52083,4.35938 4.59375,7.07813c1.07292,2.70833 1.60938,5.70313 1.60938,8.98438c0,3.29165 -0.53646,6.30726 -1.60937,9.04684c-1.07292,2.72917 -2.60417,5.09896 -4.59375,7.10938c-1.97917,2 -4.31771,3.54688 -7.01562,4.64063c-2.69792,1.08333 -5.6875,1.625 -8.96875,1.625h-10.375zM363.03625,55.6296h7.40625c3.20833,0 6.04167,-0.73437 8.5,-2.20312c2.46875,-1.46875 4.41146,-3.48958 5.82813,-6.0625c1.41667,-2.58333 2.125,-5.54166 2.125,-8.87497c0,-3.35417 -0.70833,-6.3125 -2.125,-8.875c-1.41667,-2.5625 -3.35937,-4.56771 -5.82812,-6.01562c-2.45833,-1.45833 -5.29167,-2.1875 -8.5,-2.1875h-7.40625v34.21872zM404.9555,60.91085c-0.84375,0 -1.55208,-0.28646 -2.125,-0.85937c-0.57292,-0.57292 -0.85937,-1.28125 -0.85937,-2.125v-38.81247c0,-0.875 0.28646,-1.58854 0.85938,-2.14062c0.57292,-0.55208 1.28125,-0.82812 2.125,-0.82812h25.90625c0.875,0 1.57813,0.26042 2.10938,0.78125c0.54167,0.51042 0.8125,1.18229 0.8125,2.01563c0,0.80208 -0.27083,1.45313 -0.8125,1.95313c-0.53125,0.5 -1.23437,0.75 -2.10937,0.75h-22.9375v13.92188h16.45313c0.88542,0 1.59375,0.26042 2.125,0.78125c0.54167,0.51042 0.8125,1.16667 0.8125,1.96875c0,0.80206 -0.27083,1.46351 -0.8125,1.98434c-0.53125,0.52083 -1.23958,0.78125 -2.125,0.78125h-16.45312v14.32813h22.9375c0.875,0 1.57813,0.25 2.10938,0.75c0.54167,0.48958 0.8125,1.13542 0.8125,1.9375c0,0.84375 -0.27083,1.52604 -0.8125,2.04688c-0.53125,0.51042 -1.23437,0.76563 -2.10937,0.76563h-25.90625z"/></g></g></svg>