<svg version="1.1" xmlns="http://www.w3.org/2000/svg" xmlns:xlink="http://www.w3.org/1999/xlink" width="720" height="540" viewBox="0,0,720,540"><defs><clipPath id="clip-1"><path d="M-120,450v-540h720v540z" fill="none" fill-rule="nonzero" stroke="none" stroke-width="1" stroke-linecap="butt"/></clipPath></defs><g transform="translate(120,90)"><g clip-path="url(#clip-1)" data-paper-data="{&quot;isPaintingLayer&quot;:true}" stroke-linejoin="miter" stroke-miterlimit="10" stroke-dasharray="" stroke-dashoffset="0" style="mix-blend-mode: normal"><g fill="#201f20" fill-rule="nonzero" stroke="#201f20" stroke-width="7" stroke-linecap="butt"><path d="M-0.98161,175.56902c0,0 -0.69798,-8.17311 2.42337,-10.73419c2.78526,-2.99645 10.79623,-2.51157 10.79623,-2.51157l275.58139,-0.32176l3.48656,35.20271l-292.03047,-0.0912z"/><path d="M482.58451,197.11301l-292.03047,0.0912l1.10936,-35.20271l277.95858,0.32176c0,0 8.01097,-0.48488 10.79623,2.51157c3.12134,2.56108 2.42337,10.73419 2.42337,10.73419z" data-paper-data="{&quot;index&quot;:null}"/></g><path d="M-240,-180h960v720h-960z" fill-opacity="0" fill="#000000" fill-rule="evenodd" stroke="none" stroke-width="1" stroke-linecap="square"/><g fill="#ffffff" fill-rule="nonzero" stroke="none" stroke-width="1" stroke-linecap="square"><path d="M8.42061,185.15625c-0.23958,0 -0.4375,-0.0625 -0.59375,-0.1875c-0.15625,-0.13541 -0.23437,-0.31771 -0.23437,-0.54687v-13.10937c0,-0.20834 0.06771,-0.38021 0.20313,-0.51562c0.14583,-0.14584 0.32292,-0.21875 0.53125,-0.21875h4.53125c0.75,0 1.42709,0.16146 2.03125,0.48438c0.60416,0.3125 1.08334,0.74479 1.4375,1.29688c0.35416,0.54166 0.53125,1.17709 0.53125,1.90625c0,0.66666 -0.18229,1.26041 -0.54687,1.78125c-0.36459,0.52084 -0.83854,0.92188 -1.42187,1.20313c0.83334,0.21875 1.50521,0.63541 2.01563,1.25c0.51041,0.61459 0.76563,1.39584 0.76563,2.34375c0,0.84375 -0.19271,1.59375 -0.57812,2.25c-0.38541,0.64584 -0.91666,1.15104 -1.59375,1.51563c-0.67709,0.36459 -1.45312,0.54688 -2.32812,0.54688zM9.06123,183.75h4.10938c0.60416,0 1.13541,-0.11459 1.59375,-0.34375c0.45834,-0.23959 0.81771,-0.57812 1.07813,-1.01562c0.26041,-0.4375 0.39063,-0.95312 0.39063,-1.54687c0,-0.5625 -0.13021,-1.05209 -0.39062,-1.46875c-0.26041,-0.41666 -0.61979,-0.73959 -1.07812,-0.96875c-0.45834,-0.22916 -0.98959,-0.34375 -1.59375,-0.34375h-4.10937zM9.06123,176.67188h3.79688c0.75,0 1.36459,-0.20834 1.84375,-0.625c0.48959,-0.42709 0.73438,-1.02084 0.73438,-1.78125c0,-0.75 -0.24479,-1.31771 -0.73437,-1.70312c-0.47916,-0.38541 -1.09375,-0.57812 -1.84375,-0.57812h-3.79687zM24.23295,185.15625c-0.19791,0 -0.36979,-0.06771 -0.51562,-0.20312c-0.13541,-0.14584 -0.20312,-0.32291 -0.20312,-0.53125v-13.84375h1.45313v13.84375c0,0.20834 -0.06771,0.38541 -0.20312,0.53125c-0.13541,0.13541 -0.3125,0.20313 -0.53125,0.20313zM19.09233,171.90625c-0.19791,0 -0.35937,-0.0625 -0.48437,-0.1875c-0.125,-0.125 -0.1875,-0.28125 -0.1875,-0.46875c0,-0.19791 0.0625,-0.35937 0.1875,-0.48437c0.125,-0.125 0.28646,-0.1875 0.48438,-0.1875h10.3125c0.19791,0 0.35938,0.0625 0.48438,0.1875c0.125,0.125 0.1875,0.28646 0.1875,0.48438c0,0.1875 -0.0625,0.34375 -0.1875,0.46875c-0.125,0.125 -0.28646,0.1875 -0.48437,0.1875zM36.14281,185.34375c-0.79166,0 -1.53125,-0.11459 -2.21875,-0.34375c-0.67708,-0.22916 -1.26562,-0.55209 -1.76562,-0.96875c-0.48958,-0.42709 -0.86458,-0.92187 -1.125,-1.48437c-0.10416,-0.19791 -0.10937,-0.38021 -0.01562,-0.54687c0.09375,-0.17709 0.25521,-0.29166 0.48438,-0.34375c0.16667,-0.05209 0.33334,-0.03646 0.5,0.04688c0.17709,0.08334 0.30729,0.21354 0.39063,0.39063c0.1875,0.36459 0.45834,0.69271 0.8125,0.98438c0.36459,0.28125 0.79688,0.5 1.29688,0.65625c0.5,0.15625 1.04688,0.23438 1.64063,0.23438c0.65625,0 1.23959,-0.10937 1.75,-0.32812c0.51042,-0.21875 0.91146,-0.53646 1.20313,-0.95312c0.29167,-0.41666 0.4375,-0.92709 0.4375,-1.53125c0,-0.75 -0.28125,-1.39584 -0.84375,-1.9375c-0.55208,-0.55209 -1.42708,-0.90625 -2.625,-1.0625c-1.45833,-0.16666 -2.59896,-0.61459 -3.42187,-1.34375c-0.8125,-0.72916 -1.21875,-1.625 -1.21875,-2.6875c0,-0.75 0.19792,-1.40625 0.59375,-1.96875c0.40625,-0.5625 0.96354,-0.99479 1.67188,-1.29687c0.71875,-0.30209 1.53646,-0.45312 2.45313,-0.45312c0.6875,0 1.30729,0.10938 1.85938,0.32813c0.5625,0.20834 1.05209,0.48959 1.46875,0.84375c0.41667,0.35416 0.75521,0.74479 1.01563,1.17188c0.125,0.19791 0.16667,0.39063 0.125,0.57813c-0.04166,0.1875 -0.15104,0.32813 -0.32812,0.42188c-0.1875,0.09375 -0.38021,0.10938 -0.57812,0.04688c-0.1875,-0.0625 -0.32812,-0.18229 -0.42187,-0.35937c-0.1875,-0.28125 -0.42187,-0.54687 -0.70312,-0.79687c-0.28125,-0.26041 -0.625,-0.46354 -1.03125,-0.60937c-0.39583,-0.15625 -0.86979,-0.23959 -1.42187,-0.25c-0.98958,0 -1.78125,0.20834 -2.375,0.625c-0.59375,0.41666 -0.89062,1.02084 -0.89062,1.8125c0,0.42709 0.10938,0.81771 0.32813,1.17188c0.22917,0.35416 0.59896,0.66146 1.10938,0.92188c0.52084,0.25 1.21354,0.4375 2.07813,0.5625c1.5625,0.21875 2.71875,0.69271 3.46875,1.42188c0.75,0.72916 1.125,1.67709 1.125,2.84375c0,0.67709 -0.11979,1.27604 -0.35937,1.79688c-0.23958,0.52084 -0.58333,0.95834 -1.03125,1.3125c-0.4375,0.35416 -0.95312,0.625 -1.54687,0.8125c-0.59375,0.1875 -1.22396,0.28125 -1.89062,0.28125zM51.47514,189.51563c-0.14583,0 -0.27604,-0.03646 -0.39062,-0.10937c-0.11458,-0.07291 -0.21354,-0.19791 -0.29687,-0.375c-0.72917,-1.5 -1.27604,-3 -1.64062,-4.5c-0.36458,-1.5 -0.54687,-3 -0.54687,-4.5c0,-1.51041 0.18229,-3.01041 0.54688,-4.5c0.36458,-1.48959 0.91146,-2.98437 1.64063,-4.48437c0.14583,-0.32291 0.375,-0.48437 0.6875,-0.48437c0.19792,0 0.36458,0.07291 0.5,0.21875c0.14583,0.13541 0.21875,0.30209 0.21875,0.5c0,0.14584 -0.04167,0.28125 -0.125,0.40625c-1.36458,2.77084 -2.04687,5.55729 -2.04687,8.35938c0,1.39584 0.17188,2.79688 0.51563,4.20313c0.35417,1.39584 0.875,2.78646 1.5625,4.17188c0.07292,0.14584 0.10938,0.27604 0.10938,0.39063c0,0.19791 -0.07292,0.36459 -0.21875,0.5c-0.13542,0.13541 -0.30729,0.20313 -0.51562,0.20313z"/><path d="M56.06364,174.29687v2.625c0,0.26041 0.0625,0.44271 0.1875,0.54688c0.11458,0.11458 0.30729,0.17188 0.57813,0.17188h4.04687c0.30209,0 0.52084,-0.05729 0.65625,-0.17187c0.15625,-0.10417 0.23438,-0.28646 0.23438,-0.54687v-2.625zM61.90739,171.04687c0.10417,-0.08334 0.22917,-0.125 0.375,-0.125c0.14584,0 0.27084,0.04166 0.375,0.125c0.10417,0.09375 0.15625,0.22396 0.15625,0.39063v5.625c0,0.46875 -0.15625,0.83854 -0.46875,1.10938c-0.30208,0.26041 -0.6875,0.39063 -1.15625,0.39063h-4.625c-0.47917,0 -0.85937,-0.13021 -1.14062,-0.39062c-0.30208,-0.25 -0.45312,-0.61459 -0.45312,-1.09375v-5.5625c0,-0.1875 0.05729,-0.33334 0.17188,-0.4375c0.09375,-0.10417 0.21875,-0.15625 0.375,-0.15625c0.14583,0 0.26563,0.04166 0.35938,0.125c0.125,0.11458 0.1875,0.26563 0.1875,0.45313v1.84375h5.70312v-1.90625c0,-0.16667 0.04688,-0.29687 0.14063,-0.39062zM69.31364,175.0625c0.15625,0 0.28125,0.04166 0.375,0.125c0.08334,0.10416 0.13021,0.21875 0.14063,0.34375c0,0.125 -0.03646,0.23438 -0.10937,0.32813c-0.08333,0.10416 -0.19271,0.15625 -0.32812,0.15625h-2.0625v3.60938c0,0.17708 -0.0625,0.3125 -0.1875,0.40625c-0.09375,0.09375 -0.21875,0.14063 -0.375,0.14063c-0.14583,0 -0.26562,-0.04687 -0.35937,-0.14062c-0.11458,-0.10417 -0.17187,-0.24479 -0.17187,-0.42187v-8.53125c0,-0.33334 0.17709,-0.5 0.53125,-0.5c0.375,0 0.5625,0.15625 0.5625,0.46875v4.01563zM66.17302,181.3125c0.96875,0.51041 1.45313,1.1875 1.45313,2.03125c0,0.8125 -0.48437,1.46875 -1.45312,1.96875c-1.0625,0.55209 -2.58333,0.82813 -4.5625,0.82813c-1.98958,0 -3.51562,-0.27604 -4.57812,-0.82813c-0.96875,-0.5 -1.45312,-1.15625 -1.45312,-1.96875c0,-0.84375 0.48438,-1.52084 1.45313,-2.03125c1.0625,-0.55209 2.58854,-0.82812 4.57812,-0.82812c1.97917,0 3.5,0.27604 4.5625,0.82813zM57.84489,181.96875c-0.78125,0.33333 -1.17187,0.79166 -1.17187,1.375c0,0.55209 0.39063,0.98959 1.17188,1.3125c0.86458,0.35417 2.11979,0.53125 3.76562,0.53125c1.63542,0 2.88021,-0.17708 3.73438,-0.53125c0.79167,-0.32291 1.1875,-0.76041 1.1875,-1.3125c0,-0.58333 -0.39583,-1.04166 -1.1875,-1.375c-0.85416,-0.35417 -2.09896,-0.53125 -3.73437,-0.53125c-1.65625,0 -2.91146,0.17708 -3.76562,0.53125zM82.36052,171.28125c0.09375,0.09375 0.14063,0.20313 0.14063,0.32813c0,0.125 -0.04687,0.23438 -0.14062,0.32813c-0.11459,0.10416 -0.25521,0.15625 -0.42187,0.15625h-6.09375c-0.27084,0 -0.47396,0.07291 -0.60937,0.21875c-0.11459,0.14583 -0.17187,0.35938 -0.17187,0.64063v1.9375h6.53125c0.375,0 0.5625,0.15625 0.5625,0.46875c0,0.32291 -0.1875,0.48438 -0.5625,0.48438h-6.53125v2.78125c0,0.23958 0.05209,0.41146 0.15625,0.51563c0.10416,0.125 0.29166,0.1875 0.5625,0.1875c1.72916,0 3.26041,-0.10937 4.59375,-0.32812c1.11459,-0.1875 2.23959,-0.47396 3.375,-0.85937c0.17709,-0.07292 0.33854,-0.07812 0.48438,-0.01562c0.125,0.03125 0.20834,0.10938 0.25,0.23438c0.05209,0.125 0.05209,0.24479 0,0.35938c-0.04166,0.13541 -0.14584,0.23438 -0.3125,0.29688c-1.14584,0.38541 -2.34375,0.68229 -3.59375,0.89063c-1.44791,0.25 -3.01562,0.375 -4.70312,0.375c-0.67709,0 -1.17709,-0.16667 -1.5,-0.5c-0.27084,-0.29167 -0.40625,-0.68229 -0.40625,-1.17187v-5.73437c0,-0.5 0.15625,-0.91146 0.46875,-1.23437c0.34375,-0.33334 0.80209,-0.5 1.375,-0.5h6.09375c0.1875,0 0.33854,0.04688 0.45313,0.14063zM88.34489,176.17187c0.32291,0 0.48438,0.15625 0.48438,0.46875c0,0.32291 -0.16146,0.48438 -0.48437,0.48438h-2.01562v4.23438c0,0.16666 -0.0625,0.30208 -0.1875,0.40625c-0.09375,0.09375 -0.21875,0.14063 -0.375,0.14063c-0.14584,0 -0.26562,-0.04687 -0.35937,-0.14062c-0.11459,-0.10417 -0.17187,-0.23959 -0.17187,-0.40625v-10.28125c0,-0.33334 0.17709,-0.5 0.53125,-0.5c0.375,0 0.5625,0.16666 0.5625,0.5v5.09375zM75.96989,183.85937c0,0.33334 0.0625,0.5625 0.1875,0.6875c0.125,0.10417 0.35938,0.15625 0.70313,0.15625h9.46875c0.32291,0 0.48438,0.15625 0.48438,0.46875c0,0.32291 -0.16146,0.48438 -0.48437,0.48438h-9.60937c-0.58334,0 -1.04166,-0.15625 -1.375,-0.46875c-0.3125,-0.29166 -0.46875,-0.69791 -0.46875,-1.21875v-2.45312c0,-0.20834 0.05729,-0.36979 0.17188,-0.48437c0.09375,-0.10417 0.21875,-0.15625 0.375,-0.15625c0.14584,0 0.26563,0.05208 0.35938,0.15625c0.125,0.11458 0.1875,0.27604 0.1875,0.48438zM99.51677,170.92187c0.10416,-0.09375 0.22916,-0.14062 0.375,-0.14062c0.13541,0 0.25521,0.04688 0.35938,0.14063c0.11459,0.125 0.17188,0.28646 0.17188,0.48438c0,1.90625 0.64063,3.52083 1.92188,4.84375c1.11459,1.14583 2.47916,1.88541 4.09375,2.21875c0.1875,0.04166 0.33334,0.125 0.4375,0.25c0.08334,0.11458 0.10416,0.23958 0.0625,0.375c-0.02084,0.13541 -0.09375,0.23958 -0.21875,0.3125c-0.14584,0.07291 -0.32291,0.08854 -0.53125,0.04688c-1.4375,-0.29167 -2.76562,-0.99479 -3.98437,-2.10937c-1.14584,-1.0625 -1.91666,-2.21354 -2.3125,-3.45312c-0.375,1.25 -1.14584,2.40104 -2.3125,3.45313c-1.22916,1.125 -2.59375,1.83854 -4.09375,2.14063c-0.17709,0.02083 -0.32812,-0.00521 -0.45312,-0.07812c-0.11459,-0.07292 -0.18229,-0.17187 -0.20312,-0.29687c-0.02084,-0.13542 0.01563,-0.25521 0.10938,-0.35937c0.08334,-0.125 0.22396,-0.20312 0.42188,-0.23437c1.53125,-0.3125 2.86979,-1.05729 4.01563,-2.23437c1.32291,-1.35417 1.98438,-2.98959 1.98438,-4.90625c0,-0.1875 0.05209,-0.33854 0.15625,-0.45312zM99.51677,179.65625c0.10416,-0.08334 0.22916,-0.11979 0.375,-0.10937c0.13541,0 0.25521,0.05208 0.35938,0.15625c0.11459,0.09375 0.17188,0.22916 0.17188,0.40625v3.76562h6.67188c0.16666,0 0.30209,0.04167 0.40625,0.125c0.09375,0.10417 0.14063,0.21875 0.14063,0.34375c0,0.125 -0.04687,0.23438 -0.14062,0.32813c-0.10416,0.10417 -0.23437,0.15625 -0.39062,0.15625h-14.5625c-0.13541,0 -0.23959,-0.05208 -0.3125,-0.15625c-0.08334,-0.09375 -0.11459,-0.20312 -0.09375,-0.32812c0.01041,-0.125 0.05729,-0.23958 0.14063,-0.34375c0.10416,-0.08333 0.23959,-0.125 0.40625,-0.125h6.67188v-3.84375c0,-0.15625 0.05209,-0.28125 0.15625,-0.375zM112.14177,171.21875c0.09375,-0.08334 0.21875,-0.125 0.375,-0.125c0.14584,0 0.26563,0.04166 0.35938,0.125c0.125,0.10416 0.1875,0.24479 0.1875,0.42188v6.23438c0,0.36458 0.08334,0.61979 0.25,0.76563c0.15625,0.16666 0.45834,0.25 0.90625,0.25c1.51041,0 2.80209,-0.04687 3.875,-0.14062c1.22916,-0.08334 2.20834,-0.21875 2.9375,-0.40625c0.17709,-0.05209 0.34375,-0.03646 0.5,0.04688c0.10416,0.07291 0.17709,0.17708 0.21875,0.3125c0.03125,0.13541 0.02084,0.25521 -0.03125,0.35938c-0.08334,0.14583 -0.20312,0.23438 -0.35937,0.26563c-0.79166,0.17708 -1.86979,0.30729 -3.23437,0.39063c-1.1875,0.07291 -2.57812,0.10938 -4.17187,0.10938c-0.6875,0 -1.20834,-0.19271 -1.5625,-0.57812c-0.28125,-0.33334 -0.42187,-0.78125 -0.42187,-1.34375v-6.23437c0,-0.1875 0.05729,-0.33854 0.17188,-0.45312zM124.68864,181.76562c-0.10416,0.09375 -0.22916,0.14063 -0.375,0.14063c-0.16666,0 -0.29687,-0.04687 -0.39062,-0.14062c-0.11459,-0.11459 -0.17187,-0.26562 -0.17187,-0.45312v-4.5625h-5.0625c-0.19791,0 -0.35416,-0.04687 -0.46875,-0.14062c-0.09375,-0.10417 -0.13541,-0.21875 -0.125,-0.34375c0,-0.125 0.04688,-0.23437 0.14063,-0.32812c0.125,-0.09375 0.28646,-0.14062 0.48438,-0.14062h5.03125v-2h-4.875c-0.19791,0 -0.35416,-0.04687 -0.46875,-0.14062c-0.11459,-0.10417 -0.17187,-0.21875 -0.17187,-0.34375c-0.01041,-0.125 0.03125,-0.23437 0.125,-0.32812c0.08334,-0.08334 0.21354,-0.125 0.39063,-0.125h5v-1.6875c0,-0.1875 0.05729,-0.33854 0.17188,-0.45312c0.09375,-0.08334 0.22396,-0.125 0.39063,-0.125c0.14584,0 0.27084,0.04166 0.375,0.125c0.11459,0.11458 0.17188,0.26563 0.17188,0.45313v10.14063c0,0.1875 -0.05729,0.33854 -0.17187,0.45313zM114.04802,183.85937c0,0.33334 0.0625,0.5625 0.1875,0.6875c0.125,0.10417 0.36459,0.15625 0.71875,0.15625h10c0.3125,0 0.46875,0.15625 0.46875,0.46875c0,0.32291 -0.15625,0.48438 -0.46875,0.48438h-10.1875c-0.55209,0 -0.98959,-0.13542 -1.3125,-0.40625c-0.34375,-0.28125 -0.51562,-0.69791 -0.51562,-1.25v-2.46875c0,-0.19792 0.05729,-0.34896 0.17188,-0.45312c0.09375,-0.10417 0.21875,-0.15625 0.375,-0.15625c0.15625,0 0.28125,0.05208 0.375,0.15625c0.125,0.10416 0.1875,0.25521 0.1875,0.45313zM139.18864,171.60937c-0.01041,0.32291 -0.19271,0.48438 -0.54687,0.48438h-5.625c-0.375,0 -0.63021,0.07813 -0.76562,0.23438c-0.125,0.15625 -0.1875,0.44791 -0.1875,0.875v4.03125c0,0.35416 0.08854,0.61979 0.26563,0.79688c0.15625,0.15625 0.40625,0.23438 0.75,0.23438c1.35416,0 2.625,-0.08334 3.8125,-0.25c1.41666,-0.19792 2.63021,-0.5 3.64063,-0.90625c0.15625,-0.08334 0.30209,-0.09896 0.4375,-0.04687c0.125,0.0625 0.21875,0.15625 0.28125,0.28125c0.05209,0.13541 0.05209,0.26563 0,0.39063c-0.0625,0.13541 -0.17187,0.24479 -0.32812,0.32813c-1.08334,0.41666 -2.33854,0.71354 -3.76562,0.89063c-1.15625,0.15625 -2.47396,0.23438 -3.95312,0.23438c-0.75,0 -1.30729,-0.16146 -1.67187,-0.48437c-0.375,-0.32292 -0.5625,-0.78125 -0.5625,-1.375v-4.4375c0,-0.51042 0.15625,-0.92709 0.46875,-1.25c0.33334,-0.33334 0.77604,-0.5 1.32813,-0.5h5.89063c0.35416,0 0.53125,0.15625 0.53125,0.46875zM145.34489,176.17187c0.32291,0 0.48438,0.15625 0.48438,0.46875c0,0.32291 -0.16146,0.48438 -0.48437,0.48438h-2.01562v4.23438c0,0.16666 -0.0625,0.30208 -0.1875,0.40625c-0.09375,0.09375 -0.21875,0.14063 -0.375,0.14063c-0.14584,0 -0.26562,-0.04687 -0.35937,-0.14062c-0.11459,-0.10417 -0.17187,-0.23959 -0.17187,-0.40625v-10.28125c0,-0.33334 0.17709,-0.5 0.53125,-0.5c0.375,0 0.5625,0.16666 0.5625,0.5v5.09375zM132.96989,183.85937c0,0.33334 0.0625,0.5625 0.1875,0.6875c0.125,0.10417 0.35938,0.15625 0.70313,0.15625h9.46875c0.32291,0 0.48438,0.15625 0.48438,0.46875c0,0.32291 -0.16146,0.48438 -0.48437,0.48438h-9.60937c-0.58334,0 -1.04166,-0.15625 -1.375,-0.46875c-0.3125,-0.29166 -0.46875,-0.69791 -0.46875,-1.21875v-2.45312c0,-0.20834 0.05729,-0.36979 0.17188,-0.48437c0.09375,-0.10417 0.21875,-0.15625 0.375,-0.15625c0.14584,0 0.26563,0.05208 0.35938,0.15625c0.125,0.11458 0.1875,0.27604 0.1875,0.48438z"/><path d="M148.31365,189.51562c-0.20834,0 -0.38021,-0.06771 -0.51562,-0.20312c-0.13541,-0.13542 -0.20312,-0.30209 -0.20312,-0.5c0,-0.11459 0.03125,-0.24479 0.09375,-0.39062c0.6875,-1.38542 1.20834,-2.77604 1.5625,-4.17188c0.35416,-1.40625 0.53125,-2.80729 0.53125,-4.20312c0,-2.80209 -0.69271,-5.58854 -2.07812,-8.35937c-0.0625,-0.125 -0.09896,-0.26042 -0.10937,-0.40625c0,-0.19792 0.07291,-0.36459 0.21875,-0.5c0.14584,-0.14584 0.3125,-0.21875 0.5,-0.21875c0.32291,0 0.55729,0.16146 0.70313,0.48438c0.72916,1.5 1.27604,2.99479 1.64063,4.48438c0.36459,1.48958 0.54688,2.98958 0.54688,4.5c0,1.5 -0.1875,3 -0.5625,4.5c-0.36459,1.5 -0.90625,3 -1.625,4.5c-0.10416,0.17708 -0.20834,0.30208 -0.3125,0.375c-0.10416,0.07291 -0.23437,0.10938 -0.39062,0.10938zM159.05593,180.76562c-0.19791,0 -0.36979,-0.06771 -0.51562,-0.20312c-0.13541,-0.13542 -0.20312,-0.30209 -0.20312,-0.5c0,-0.20834 0.06771,-0.38021 0.20313,-0.51562c0.14584,-0.14584 0.31771,-0.21875 0.51563,-0.21875h4.375c0.21875,0 0.39584,0.07291 0.53125,0.21875c0.13541,0.13541 0.20313,0.30729 0.20313,0.51563c0,0.19791 -0.06771,0.36458 -0.20312,0.5c-0.13541,0.13541 -0.3125,0.20313 -0.53125,0.20313zM171.83245,185.15625c-0.19791,0 -0.36979,-0.06771 -0.51562,-0.20312c-0.14584,-0.14583 -0.21875,-0.32291 -0.21875,-0.53125v-13.10937c0,-0.20834 0.06771,-0.38021 0.20313,-0.51562c0.14584,-0.14584 0.32291,-0.21875 0.53125,-0.21875h8.75c0.20834,0 0.38021,0.06771 0.51563,0.20313c0.13541,0.13541 0.20313,0.30729 0.20313,0.51563c0,0.1875 -0.06771,0.34896 -0.20312,0.48438c-0.13541,0.13541 -0.30729,0.20313 -0.51562,0.20313h-8.01562v5.15625h5.82813c0.21875,0 0.39584,0.06771 0.53125,0.20313c0.13541,0.13541 0.20313,0.30208 0.20313,0.5c0,0.19791 -0.06771,0.36458 -0.20312,0.5c-0.13541,0.13541 -0.3125,0.20313 -0.53125,0.20313h-5.82812v5.875c0,0.20834 -0.07291,0.38542 -0.21875,0.53125c-0.13541,0.13542 -0.30729,0.20313 -0.51562,0.20313zM188.22698,185.25c-0.95834,0 -1.81771,-0.22396 -2.57812,-0.67187c-0.75,-0.45833 -1.34896,-1.07812 -1.79687,-1.85937c-0.4375,-0.79166 -0.65625,-1.67709 -0.65625,-2.65625c0,-0.98959 0.22396,-1.875 0.67188,-2.65625c0.45834,-0.79167 1.07813,-1.41146 1.85938,-1.85937c0.78125,-0.45834 1.66666,-0.6875 2.65625,-0.6875c0.97916,0 1.85416,0.22916 2.625,0.6875c0.78125,0.44791 1.40104,1.06771 1.85938,1.85938c0.45834,0.78125 0.69271,1.66666 0.70313,2.65625l-0.57812,0.45313c0,0.89583 -0.20834,1.70313 -0.625,2.42187c-0.41666,0.70834 -0.98437,1.27084 -1.70312,1.6875c-0.71875,0.41667 -1.53125,0.625 -2.4375,0.625zM188.38323,183.9375c0.71875,0 1.35938,-0.16666 1.92188,-0.5c0.57291,-0.33333 1.02084,-0.79687 1.34375,-1.39062c0.33334,-0.59375 0.5,-1.25521 0.5,-1.98437c0,-0.75 -0.16666,-1.41667 -0.5,-2c-0.32291,-0.58334 -0.77084,-1.04687 -1.34375,-1.39062c-0.5625,-0.34375 -1.20312,-0.51562 -1.92187,-0.51562c-0.70834,0 -1.34896,0.17188 -1.92187,0.51563c-0.57291,0.34375 -1.03125,0.80729 -1.375,1.39063c-0.33334,0.58333 -0.5,1.25 -0.5,2c0,0.72916 0.16666,1.39063 0.5,1.98438c0.34375,0.59375 0.80209,1.05729 1.375,1.39062c0.57291,0.33334 1.21354,0.5 1.92188,0.5zM192.83635,185.15625c-0.20834,0 -0.38021,-0.0625 -0.51562,-0.1875c-0.13541,-0.13541 -0.20312,-0.30729 -0.20312,-0.51562v-3.20312l0.34375,-1.46875l1.10938,0.28125v4.39062c0,0.20834 -0.07291,0.38021 -0.21875,0.51563c-0.13541,0.125 -0.30729,0.1875 -0.51562,0.1875zM197.54476,181.73437l-0.875,-0.9375l6.375,-5.76562c0.14584,-0.13542 0.29688,-0.19792 0.45313,-0.1875c0.16666,0 0.31771,0.07291 0.45313,0.21875c0.14584,0.14583 0.21354,0.30729 0.20313,0.48438c-0.01041,0.16666 -0.08854,0.3125 -0.23437,0.4375zM197.07601,185.15625c-0.20834,0 -0.38021,-0.0625 -0.51562,-0.1875c-0.13541,-0.13541 -0.20312,-0.30729 -0.20312,-0.51562v-13.15625c0,-0.20834 0.06771,-0.38021 0.20313,-0.51562c0.13541,-0.13542 0.30729,-0.20312 0.51563,-0.20312c0.20834,0 0.375,0.06771 0.5,0.20313c0.13541,0.13541 0.20313,0.30729 0.20313,0.51563v13.15625c0,0.20834 -0.06771,0.38021 -0.20312,0.51563c-0.125,0.125 -0.29166,0.1875 -0.5,0.1875zM203.98226,185.0625c-0.16666,0.13542 -0.33854,0.19271 -0.51562,0.17188c-0.16666,-0.01041 -0.3125,-0.09896 -0.4375,-0.26562l-4.17187,-5.10937l1.01563,-0.89062l4.20313,5.15625c0.125,0.15625 0.17709,0.31771 0.15625,0.48438c-0.01041,0.16667 -0.09375,0.31771 -0.25,0.45313zM210.73592,185.25c-1.01041,0 -1.90625,-0.21875 -2.6875,-0.65625c-0.77084,-0.44791 -1.38021,-1.0625 -1.82812,-1.84375c-0.4375,-0.78125 -0.65625,-1.67709 -0.65625,-2.6875c0,-1.02084 0.20834,-1.91667 0.625,-2.6875c0.41666,-0.78125 0.98959,-1.39584 1.71875,-1.84375c0.73959,-0.44792 1.58854,-0.67187 2.54688,-0.67187c0.9375,0 1.75521,0.21354 2.45313,0.64063c0.70834,0.42708 1.25521,1.02083 1.64063,1.78125c0.38541,0.76041 0.57813,1.625 0.57813,2.59375c0,0.19791 -0.0625,0.35938 -0.1875,0.48438c-0.125,0.11458 -0.28646,0.17188 -0.48437,0.17188h-7.92187v-1.20312h8.07813l-0.79687,0.57813c0.01041,-0.71875 -0.125,-1.36459 -0.40625,-1.9375c-0.27084,-0.57292 -0.65625,-1.02084 -1.15625,-1.34375c-0.5,-0.32292 -1.09896,-0.48437 -1.79687,-0.48437c-0.70834,0 -1.33334,0.17188 -1.875,0.51563c-0.53125,0.33333 -0.94271,0.79688 -1.23437,1.39063c-0.29166,0.58333 -0.4375,1.25521 -0.4375,2.01563c0,0.76041 0.16146,1.43229 0.48438,2.01563c0.33334,0.58334 0.78646,1.04687 1.35938,1.39062c0.57291,0.33334 1.23438,0.5 1.98438,0.5c0.44791,0 0.89584,-0.07812 1.34375,-0.23437c0.45834,-0.15625 0.82291,-0.35416 1.09375,-0.59375c0.13541,-0.11458 0.29166,-0.17187 0.46875,-0.17187c0.17709,-0.01041 0.32291,0.03646 0.4375,0.14063c0.16666,0.14584 0.25,0.30729 0.25,0.48438c0.01041,0.16667 -0.05729,0.3125 -0.20312,0.4375c-0.41666,0.35417 -0.94271,0.64584 -1.57812,0.875c-0.625,0.22917 -1.22916,0.34375 -1.8125,0.34375zM223.93837,185.15625c-0.19791,0 -0.36979,-0.06771 -0.51562,-0.20312c-0.14584,-0.13541 -0.21875,-0.3125 -0.21875,-0.53125v-13.10937c0,-0.19792 0.07291,-0.36979 0.21875,-0.51562c0.14584,-0.14584 0.31771,-0.21875 0.51563,-0.21875c0.19791,0 0.36979,0.07291 0.51563,0.21875c0.14584,0.14583 0.21875,0.31771 0.21875,0.51563v12.46875h7.28125c0.19791,0 0.36979,0.06771 0.51563,0.20313c0.14584,0.125 0.21875,0.28646 0.21875,0.48438c0,0.19792 -0.07291,0.36459 -0.21875,0.5c-0.14584,0.125 -0.31771,0.1875 -0.51562,0.1875zM239.48217,185.25c-1,0 -1.89062,-0.22396 -2.67187,-0.67187c-0.78125,-0.44791 -1.39584,-1.0625 -1.84375,-1.84375c-0.44791,-0.78125 -0.67187,-1.67187 -0.67187,-2.67187c0,-1.01042 0.22396,-1.90625 0.67188,-2.6875c0.44791,-0.78125 1.0625,-1.39584 1.84375,-1.84375c0.78125,-0.44792 1.67188,-0.67187 2.67188,-0.67187c0.98959,0 1.875,0.22396 2.65625,0.67188c0.78125,0.44791 1.39584,1.0625 1.84375,1.84375c0.44791,0.78125 0.67709,1.67708 0.6875,2.6875c0,1 -0.22916,1.89063 -0.6875,2.67187c-0.44791,0.78125 -1.0625,1.39584 -1.84375,1.84375c-0.78125,0.44792 -1.66666,0.67188 -2.65625,0.67188zM239.48217,183.9375c0.71875,0 1.36459,-0.16666 1.9375,-0.5c0.57291,-0.33333 1.02084,-0.79166 1.34375,-1.375c0.32291,-0.58334 0.48438,-1.25 0.48438,-2c0,-0.75 -0.16146,-1.41667 -0.48437,-2c-0.32291,-0.59375 -0.77084,-1.05729 -1.34375,-1.39062c-0.57291,-0.34375 -1.21875,-0.51562 -1.9375,-0.51562c-0.71875,0 -1.36459,0.17188 -1.9375,0.51563c-0.57291,0.33333 -1.02604,0.79688 -1.35937,1.39063c-0.33334,0.58333 -0.5,1.25 -0.5,2c0,0.75 0.16666,1.41666 0.5,2c0.33334,0.58334 0.78646,1.04166 1.35938,1.375c0.57291,0.33334 1.21875,0.5 1.9375,0.5zM250.3962,185.15625c-0.30209,0 -0.52604,-0.16146 -0.67187,-0.48437l-4.14062,-8.78125c-0.07291,-0.16667 -0.08334,-0.32812 -0.03125,-0.48437c0.0625,-0.16667 0.1875,-0.29167 0.375,-0.375c0.17709,-0.09375 0.34375,-0.10937 0.5,-0.04687c0.16666,0.0625 0.29166,0.17708 0.375,0.34375l3.98438,8.59375h-0.76562l3.92187,-8.59375c0.07292,-0.17709 0.19792,-0.29167 0.375,-0.34375c0.17709,-0.0625 0.35417,-0.05729 0.53125,0.01563c0.17709,0.09375 0.29688,0.22396 0.35938,0.39063c0.0625,0.16666 0.05729,0.32291 -0.01562,0.46875l-4.09375,8.8125c-0.14584,0.32292 -0.38021,0.48438 -0.70312,0.48438zM261.48037,185.25c-1.01041,0 -1.90625,-0.21875 -2.6875,-0.65625c-0.77084,-0.44791 -1.38021,-1.0625 -1.82812,-1.84375c-0.4375,-0.78125 -0.65625,-1.67709 -0.65625,-2.6875c0,-1.02084 0.20834,-1.91667 0.625,-2.6875c0.41666,-0.78125 0.98959,-1.39584 1.71875,-1.84375c0.73959,-0.44792 1.58854,-0.67187 2.54688,-0.67187c0.9375,0 1.75521,0.21354 2.45313,0.64063c0.70834,0.42708 1.25521,1.02083 1.64063,1.78125c0.38541,0.76041 0.57813,1.625 0.57813,2.59375c0,0.19791 -0.0625,0.35938 -0.1875,0.48438c-0.125,0.11458 -0.28646,0.17188 -0.48437,0.17188h-7.92187v-1.20312h8.07813l-0.79687,0.57813c0.01041,-0.71875 -0.125,-1.36459 -0.40625,-1.9375c-0.27084,-0.57292 -0.65625,-1.02084 -1.15625,-1.34375c-0.5,-0.32292 -1.09896,-0.48437 -1.79687,-0.48437c-0.70834,0 -1.33334,0.17188 -1.875,0.51563c-0.53125,0.33333 -0.94271,0.79688 -1.23437,1.39063c-0.29166,0.58333 -0.4375,1.25521 -0.4375,2.01563c0,0.76041 0.16146,1.43229 0.48438,2.01563c0.33334,0.58334 0.78646,1.04687 1.35938,1.39062c0.57291,0.33334 1.23438,0.5 1.98438,0.5c0.44791,0 0.89584,-0.07812 1.34375,-0.23437c0.45834,-0.15625 0.82291,-0.35416 1.09375,-0.59375c0.13541,-0.11458 0.29166,-0.17187 0.46875,-0.17187c0.17709,-0.01041 0.32291,0.03646 0.4375,0.14063c0.16666,0.14584 0.25,0.30729 0.25,0.48438c0.01041,0.16667 -0.05729,0.3125 -0.20312,0.4375c-0.41666,0.35417 -0.94271,0.64584 -1.57812,0.875c-0.625,0.22917 -1.22916,0.34375 -1.8125,0.34375zM275.94847,189.51562c-0.14584,0 -0.27604,-0.03646 -0.39062,-0.10937c-0.11459,-0.07292 -0.21354,-0.19792 -0.29687,-0.375c-0.72917,-1.5 -1.27604,-3 -1.64062,-4.5c-0.36459,-1.5 -0.54687,-3 -0.54687,-4.5c0,-1.51042 0.18229,-3.01042 0.54688,-4.5c0.36458,-1.48959 0.91146,-2.98437 1.64063,-4.48437c0.14583,-0.32292 0.375,-0.48437 0.6875,-0.48437c0.19791,0 0.36458,0.07291 0.5,0.21875c0.14583,0.13541 0.21875,0.30208 0.21875,0.5c0,0.14583 -0.04167,0.28125 -0.125,0.40625c-1.36459,2.77083 -2.04687,5.55729 -2.04687,8.35938c0,1.39583 0.17188,2.79687 0.51563,4.20312c0.35416,1.39584 0.875,2.78646 1.5625,4.17188c0.07291,0.14583 0.10938,0.27604 0.10938,0.39063c0,0.19791 -0.07292,0.36458 -0.21875,0.5c-0.13542,0.13541 -0.30729,0.20313 -0.51562,0.20313zM282.08385,185.34375c-0.83333,0 -1.57812,-0.19271 -2.23437,-0.57812c-0.65625,-0.38541 -1.17708,-0.90625 -1.5625,-1.5625c-0.38541,-0.66666 -0.57812,-1.40625 -0.57812,-2.21875c0,-0.21875 0.06771,-0.39584 0.20313,-0.53125c0.13542,-0.13542 0.30729,-0.20312 0.51563,-0.20312c0.21875,0 0.39584,0.06771 0.53125,0.20313c0.13542,0.13541 0.20313,0.3125 0.20313,0.53125c0,0.55208 0.13021,1.05729 0.39063,1.51562c0.26042,0.44792 0.60938,0.80729 1.04688,1.07813c0.44792,0.26042 0.94271,0.39063 1.48438,0.39063c0.55209,0 1.04688,-0.13541 1.48438,-0.40625c0.44792,-0.27083 0.79688,-0.63021 1.04688,-1.07812c0.26042,-0.44791 0.39063,-0.94791 0.39063,-1.5v-9.67187c0,-0.20834 0.06771,-0.38021 0.20313,-0.51562c0.13542,-0.14584 0.30729,-0.21875 0.51563,-0.21875c0.20834,0 0.38021,0.07291 0.51563,0.21875c0.14584,0.13541 0.21875,0.30729 0.21875,0.51563v9.67188c0,0.8125 -0.19271,1.55209 -0.57812,2.21875c-0.38541,0.65625 -0.91146,1.17709 -1.57812,1.5625c-0.65625,0.38542 -1.39583,0.57813 -2.21875,0.57813zM294.49193,185.25c-0.95834,0 -1.81771,-0.22396 -2.57812,-0.67187c-0.75,-0.45833 -1.34896,-1.07812 -1.79687,-1.85937c-0.4375,-0.79166 -0.65625,-1.67709 -0.65625,-2.65625c0,-0.98959 0.22396,-1.875 0.67188,-2.65625c0.45833,-0.79167 1.07813,-1.41146 1.85938,-1.85937c0.78125,-0.45834 1.66666,-0.6875 2.65625,-0.6875c0.97916,0 1.85416,0.22916 2.625,0.6875c0.78125,0.44791 1.40104,1.06771 1.85938,1.85938c0.45833,0.78125 0.69271,1.66666 0.70313,2.65625l-0.57812,0.45313c0,0.89583 -0.20834,1.70313 -0.625,2.42187c-0.41667,0.70834 -0.98437,1.27084 -1.70312,1.6875c-0.71875,0.41667 -1.53125,0.625 -2.4375,0.625zM294.64818,183.9375c0.71875,0 1.35938,-0.16666 1.92188,-0.5c0.57291,-0.33333 1.02083,-0.79687 1.34375,-1.39062c0.33333,-0.59375 0.5,-1.25521 0.5,-1.98437c0,-0.75 -0.16667,-1.41667 -0.5,-2c-0.32292,-0.58334 -0.77084,-1.04687 -1.34375,-1.39062c-0.5625,-0.34375 -1.20312,-0.51562 -1.92187,-0.51562c-0.70834,0 -1.34896,0.17188 -1.92187,0.51563c-0.57292,0.34375 -1.03125,0.80729 -1.375,1.39063c-0.33334,0.58333 -0.5,1.25 -0.5,2c0,0.72916 0.16666,1.39063 0.5,1.98438c0.34375,0.59375 0.80208,1.05729 1.375,1.39062c0.57291,0.33334 1.21354,0.5 1.92188,0.5zM299.10131,185.15625c-0.20834,0 -0.38021,-0.0625 -0.51562,-0.1875c-0.13542,-0.13541 -0.20312,-0.30729 -0.20312,-0.51562v-3.20312l0.34375,-1.46875l1.10938,0.28125v4.39062c0,0.20834 -0.07292,0.38021 -0.21875,0.51563c-0.13542,0.125 -0.30729,0.1875 -0.51562,0.1875zM304.38787,189.59375c-0.10417,0 -0.21875,-0.02604 -0.34375,-0.07812c-0.41667,-0.1875 -0.53125,-0.48437 -0.34375,-0.89062l6.01563,-13.28125c0.1875,-0.39584 0.48438,-0.51042 0.89063,-0.34375c0.42708,0.17708 0.54688,0.47396 0.35938,0.89063l-6.04687,13.28125c-0.125,0.28125 -0.30209,0.42188 -0.53125,0.42188zM306.45037,184.84375c-0.1875,0.08334 -0.36459,0.09896 -0.53125,0.04688c-0.15625,-0.0625 -0.28125,-0.1875 -0.375,-0.375l-4.17187,-8.60937c-0.08334,-0.1875 -0.09375,-0.35937 -0.03125,-0.51562c0.0625,-0.16667 0.1875,-0.29687 0.375,-0.39062c0.1875,-0.08334 0.35938,-0.09375 0.51563,-0.03125c0.16666,0.05208 0.29166,0.17188 0.375,0.35938l4.09375,8.60937c0.09375,0.1875 0.11979,0.36459 0.07813,0.53125c-0.03125,0.15625 -0.14062,0.28125 -0.32812,0.375zM317.12877,185.25c-0.98959,0 -1.875,-0.22396 -2.65625,-0.67187c-0.78125,-0.45833 -1.40104,-1.07812 -1.85937,-1.85937c-0.44792,-0.79166 -0.67187,-1.68229 -0.67187,-2.67187c0,-0.97917 0.21875,-1.85937 0.65625,-2.64062c0.44791,-0.79167 1.04688,-1.41146 1.79688,-1.85937c0.76041,-0.45834 1.61979,-0.6875 2.57813,-0.6875c0.83333,0 1.58333,0.17708 2.25,0.53125c0.67708,0.35416 1.22396,0.82291 1.64063,1.40625v-5.48437c0,-0.21875 0.06771,-0.39584 0.20313,-0.53125c0.13541,-0.13542 0.30729,-0.20312 0.51563,-0.20312c0.20833,0 0.38021,0.06771 0.51563,0.20313c0.14583,0.13541 0.21875,0.3125 0.21875,0.53125v8.8125c-0.03125,0.96875 -0.27604,1.84375 -0.73437,2.625c-0.44792,0.77084 -1.0625,1.38021 -1.84375,1.82813c-0.77084,0.44792 -1.64062,0.67188 -2.60937,0.67188zM317.12877,183.9375c0.71875,0 1.35938,-0.16666 1.92188,-0.5c0.57291,-0.34375 1.02083,-0.80729 1.34375,-1.39062c0.33333,-0.59375 0.5,-1.26042 0.5,-2c0,-0.73959 -0.16667,-1.40104 -0.5,-1.98437c-0.32292,-0.59375 -0.77084,-1.05729 -1.34375,-1.39062c-0.5625,-0.34375 -1.20312,-0.51562 -1.92187,-0.51562c-0.70834,0 -1.34896,0.17188 -1.92187,0.51563c-0.57292,0.33333 -1.03125,0.79688 -1.375,1.39063c-0.33334,0.58333 -0.5,1.24479 -0.5,1.98438c0,0.73958 0.16666,1.40625 0.5,2c0.34375,0.58334 0.80208,1.04687 1.375,1.39062c0.57291,0.33334 1.21354,0.5 1.92188,0.5zM330.31871,185.25c-1,0 -1.89062,-0.22396 -2.67187,-0.67187c-0.78125,-0.44791 -1.39584,-1.0625 -1.84375,-1.84375c-0.44792,-0.78125 -0.67187,-1.67187 -0.67187,-2.67187c0,-1.01042 0.22396,-1.90625 0.67188,-2.6875c0.44791,-0.78125 1.0625,-1.39584 1.84375,-1.84375c0.78125,-0.44792 1.67188,-0.67187 2.67188,-0.67187c0.98958,0 1.875,0.22396 2.65625,0.67188c0.78125,0.44791 1.39583,1.0625 1.84375,1.84375c0.44791,0.78125 0.67708,1.67708 0.6875,2.6875c0,1 -0.22917,1.89063 -0.6875,2.67187c-0.44792,0.78125 -1.0625,1.39584 -1.84375,1.84375c-0.78125,0.44792 -1.66667,0.67188 -2.65625,0.67188zM330.31871,183.9375c0.71875,0 1.36458,-0.16666 1.9375,-0.5c0.57291,-0.33333 1.02083,-0.79166 1.34375,-1.375c0.32291,-0.58334 0.48438,-1.25 0.48438,-2c0,-0.75 -0.16146,-1.41667 -0.48437,-2c-0.32292,-0.59375 -0.77084,-1.05729 -1.34375,-1.39062c-0.57292,-0.34375 -1.21875,-0.51562 -1.9375,-0.51562c-0.71875,0 -1.36459,0.17188 -1.9375,0.51563c-0.57292,0.33333 -1.02604,0.79688 -1.35937,1.39063c-0.33334,0.58333 -0.5,1.25 -0.5,2c0,0.75 0.16666,1.41666 0.5,2c0.33333,0.58334 0.78646,1.04166 1.35938,1.375c0.57291,0.33334 1.21875,0.5 1.9375,0.5zM347.04277,185.15625c-0.20834,0 -0.38021,-0.06771 -0.51562,-0.20312c-0.13542,-0.13541 -0.20312,-0.30208 -0.20312,-0.5v-4.85937c0,-0.77084 -0.14584,-1.40104 -0.4375,-1.89062c-0.29167,-0.5 -0.69271,-0.875 -1.20312,-1.125c-0.5,-0.25 -1.06771,-0.375 -1.70312,-0.375c-0.60417,0 -1.15625,0.11979 -1.65625,0.35938c-0.48959,0.22916 -0.88021,0.55208 -1.17187,0.96875c-0.28125,0.40625 -0.42187,0.86979 -0.42187,1.39063h-1.01562c0.02083,-0.78125 0.22916,-1.47917 0.625,-2.09375c0.40625,-0.61459 0.9375,-1.09896 1.59375,-1.45312c0.65625,-0.35417 1.39063,-0.53125 2.20313,-0.53125c0.875,0 1.66146,0.18229 2.35938,0.54688c0.69791,0.36458 1.25,0.90104 1.65625,1.60938c0.40625,0.70833 0.60938,1.57291 0.60938,2.59375v4.85937c0,0.19792 -0.06771,0.36459 -0.20312,0.5c-0.13542,0.13542 -0.30729,0.20313 -0.51562,0.20313zM339.02715,185.15625c-0.21875,0 -0.39584,-0.0625 -0.53125,-0.1875c-0.13542,-0.13541 -0.20312,-0.30729 -0.20312,-0.51562v-8.78125c0,-0.21875 0.06771,-0.39062 0.20313,-0.51562c0.13541,-0.13542 0.3125,-0.20312 0.53125,-0.20312c0.20833,0 0.375,0.06771 0.5,0.20313c0.13541,0.125 0.20313,0.29688 0.20313,0.51563v8.78125c0,0.20834 -0.06771,0.38021 -0.20312,0.51563c-0.125,0.125 -0.29167,0.1875 -0.5,0.1875zM357.31121,185.15625c-0.19791,0 -0.36979,-0.06771 -0.51562,-0.20312c-0.14583,-0.13541 -0.21875,-0.3125 -0.21875,-0.53125v-13.10937c0,-0.19792 0.07292,-0.36979 0.21875,-0.51562c0.14584,-0.14584 0.31771,-0.21875 0.51563,-0.21875c0.19792,0 0.36979,0.07291 0.51563,0.21875c0.14584,0.14583 0.21875,0.31771 0.21875,0.51563v12.46875h7.28125c0.19792,0 0.36979,0.06771 0.51563,0.20313c0.14584,0.125 0.21875,0.28646 0.21875,0.48438c0,0.19792 -0.07291,0.36459 -0.21875,0.5c-0.14583,0.125 -0.31771,0.1875 -0.51562,0.1875zM372.83934,185.25c-1.01041,0 -1.90625,-0.21875 -2.6875,-0.65625c-0.77083,-0.44791 -1.38021,-1.0625 -1.82812,-1.84375c-0.4375,-0.78125 -0.65625,-1.67709 -0.65625,-2.6875c0,-1.02084 0.20834,-1.91667 0.625,-2.6875c0.41667,-0.78125 0.98959,-1.39584 1.71875,-1.84375c0.73959,-0.44792 1.58854,-0.67187 2.54688,-0.67187c0.9375,0 1.75521,0.21354 2.45313,0.64063c0.70834,0.42708 1.25521,1.02083 1.64063,1.78125c0.38542,0.76041 0.57813,1.625 0.57813,2.59375c0,0.19791 -0.0625,0.35938 -0.1875,0.48438c-0.125,0.11458 -0.28646,0.17188 -0.48437,0.17188h-7.92187v-1.20312h8.07813l-0.79687,0.57813c0.01042,-0.71875 -0.125,-1.36459 -0.40625,-1.9375c-0.27083,-0.57292 -0.65625,-1.02084 -1.15625,-1.34375c-0.5,-0.32292 -1.09896,-0.48437 -1.79687,-0.48437c-0.70833,0 -1.33333,0.17188 -1.875,0.51563c-0.53125,0.33333 -0.94271,0.79688 -1.23437,1.39063c-0.29166,0.58333 -0.4375,1.25521 -0.4375,2.01563c0,0.76041 0.16146,1.43229 0.48438,2.01563c0.33334,0.58334 0.78646,1.04687 1.35938,1.39062c0.57292,0.33334 1.23438,0.5 1.98438,0.5c0.44792,0 0.89584,-0.07812 1.34375,-0.23437c0.45834,-0.15625 0.82292,-0.35416 1.09375,-0.59375c0.13542,-0.11458 0.29167,-0.17187 0.46875,-0.17187c0.17709,-0.01041 0.32292,0.03646 0.4375,0.14063c0.16667,0.14584 0.25,0.30729 0.25,0.48438c0.01042,0.16667 -0.05729,0.3125 -0.20312,0.4375c-0.41666,0.35417 -0.94271,0.64584 -1.57812,0.875c-0.625,0.22917 -1.22916,0.34375 -1.8125,0.34375zM381.60844,185.15625c-0.16666,0 -0.3125,-0.04166 -0.4375,-0.125c-0.125,-0.09375 -0.21354,-0.20833 -0.26562,-0.34375l-2.90625,-8.73437c-0.07291,-0.30209 -0.06771,-0.54167 0.01563,-0.71875c0.09375,-0.1875 0.27084,-0.28125 0.53125,-0.28125c0.15625,0 0.29688,0.04688 0.42188,0.14063c0.125,0.08333 0.21875,0.21875 0.28125,0.40625l2.59375,7.92187h-0.40625l2.40625,-7.90625c0.05209,-0.16667 0.13542,-0.30209 0.25,-0.40625c0.11459,-0.10417 0.26563,-0.15625 0.45313,-0.15625c0.1875,0 0.33854,0.05208 0.45313,0.15625c0.125,0.09375 0.21354,0.22916 0.26563,0.40625l2.28125,7.71875h-0.3125l2.53125,-7.73437c0.125,-0.36459 0.35938,-0.54687 0.70313,-0.54687c0.27084,0 0.45313,0.10416 0.54688,0.3125c0.10417,0.19791 0.10417,0.42708 0,0.6875l-2.90625,8.73437c-0.05208,0.13542 -0.13541,0.25 -0.25,0.34375c-0.11458,0.08334 -0.25521,0.125 -0.42187,0.125c-0.15625,0 -0.30208,-0.04166 -0.4375,-0.125c-0.125,-0.09375 -0.20833,-0.20833 -0.25,-0.34375l-2.34375,-7.79687h0.21875l-2.34375,7.79687c-0.05208,0.14584 -0.14062,0.26042 -0.26562,0.34375c-0.125,0.08334 -0.26041,0.125 -0.40625,0.125zM394.11724,185.15625c-0.21875,0 -0.39584,-0.0625 -0.53125,-0.1875c-0.125,-0.13541 -0.1875,-0.31771 -0.1875,-0.54687v-8.75c0,-0.21875 0.0625,-0.39062 0.1875,-0.51562c0.13541,-0.13542 0.3125,-0.20312 0.53125,-0.20312c0.20833,0 0.38021,0.06771 0.51563,0.20313c0.13541,0.125 0.20313,0.29688 0.20313,0.51563v8.75c0,0.22917 -0.06771,0.41146 -0.20312,0.54688c-0.13542,0.125 -0.30729,0.1875 -0.51562,0.1875zM394.17974,173.01562c-0.28125,0 -0.52084,-0.09896 -0.71875,-0.29687c-0.19792,-0.20834 -0.29687,-0.45312 -0.29687,-0.73437c0,-0.3125 0.10416,-0.55729 0.3125,-0.73437c0.20833,-0.17709 0.44791,-0.26562 0.71875,-0.26562c0.26041,0 0.48958,0.08854 0.6875,0.26563c0.20833,0.17708 0.3125,0.42188 0.3125,0.73438c0,0.28125 -0.09896,0.52604 -0.29687,0.73438c-0.19792,0.19791 -0.4375,0.29688 -0.71875,0.29688zM402.05577,185.25c-0.73959,0 -1.46875,-0.125 -2.1875,-0.375c-0.71875,-0.25 -1.30209,-0.625 -1.75,-1.125c-0.14584,-0.14583 -0.20834,-0.3125 -0.1875,-0.5c0.03125,-0.1875 0.13021,-0.34896 0.29688,-0.48437c0.16666,-0.125 0.34375,-0.17187 0.53125,-0.14062c0.1875,0.02084 0.34375,0.09896 0.46875,0.23438c0.30208,0.35417 0.69791,0.625 1.1875,0.8125c0.48958,0.17709 1.03646,0.26563 1.64063,0.26563c0.91666,0 1.57813,-0.15625 1.98438,-0.46875c0.41666,-0.32291 0.63021,-0.70312 0.64063,-1.14062c0,-0.44792 -0.21354,-0.81771 -0.64062,-1.10937c-0.41667,-0.30209 -1.10937,-0.53125 -2.07812,-0.6875c-1.26042,-0.19792 -2.18229,-0.54687 -2.76562,-1.04687c-0.58334,-0.5 -0.875,-1.08854 -0.875,-1.76562c0,-0.63542 0.16666,-1.16146 0.5,-1.57812c0.33333,-0.42709 0.78125,-0.74479 1.34375,-0.95312c0.5625,-0.21875 1.17708,-0.32812 1.84375,-0.32812c0.83333,0 1.55208,0.14583 2.15625,0.4375c0.60416,0.28125 1.09375,0.66146 1.46875,1.14063c0.125,0.16666 0.17188,0.33854 0.14063,0.51563c-0.02084,0.16666 -0.11979,0.30729 -0.29687,0.42188c-0.14584,0.08333 -0.31771,0.10938 -0.51562,0.07813c-0.1875,-0.03125 -0.34896,-0.11979 -0.48437,-0.26562c-0.3125,-0.35417 -0.67709,-0.61459 -1.09375,-0.78125c-0.40625,-0.17709 -0.875,-0.26562 -1.40625,-0.26562c-0.6875,0 -1.23959,0.14063 -1.65625,0.42188c-0.40625,0.28125 -0.60937,0.63541 -0.60937,1.0625c0,0.28125 0.07813,0.53125 0.23438,0.75c0.15625,0.20833 0.42188,0.39583 0.79688,0.5625c0.38541,0.15625 0.92188,0.28646 1.60938,0.39063c0.92708,0.15625 1.66146,0.38021 2.20313,0.67188c0.54166,0.29166 0.92708,0.63541 1.15625,1.03125c0.22916,0.38541 0.34375,0.80729 0.34375,1.26563c0,0.58334 -0.17187,1.09896 -0.51562,1.54687c-0.33334,0.4375 -0.80209,0.78125 -1.40625,1.03125c-0.60417,0.25 -1.29687,0.375 -2.07812,0.375zM414.9215,185.15625c-0.20834,0 -0.38542,-0.06771 -0.53125,-0.20312c-0.13542,-0.13541 -0.20312,-0.3125 -0.20312,-0.53125v-13.10937c0,-0.20834 0.06771,-0.38021 0.20313,-0.51562c0.14583,-0.14584 0.32291,-0.21875 0.53125,-0.21875h3.48438c0.90625,0 1.71354,0.19271 2.42188,0.57813c0.71875,0.375 1.27604,0.90104 1.67188,1.57813c0.40625,0.67708 0.60938,1.45833 0.60938,2.34375c0,0.84375 -0.20312,1.59896 -0.60937,2.26563c-0.39584,0.65625 -0.95312,1.17188 -1.67187,1.54688c-0.70834,0.375 -1.51562,0.5625 -2.42187,0.5625h-2.75v4.96875c0,0.21875 -0.07292,0.39584 -0.21875,0.53125c-0.13542,0.13542 -0.30729,0.20313 -0.51562,0.20313zM422.71837,185.15625c-0.15625,0 -0.28125,-0.03125 -0.375,-0.09375c-0.09375,-0.0625 -0.18229,-0.15625 -0.26562,-0.28125l-3.57812,-5.70312l1.45313,-0.375l3.34375,5.32812c0.1875,0.30209 0.21875,0.56771 0.09375,0.79688c-0.11459,0.21875 -0.33854,0.32813 -0.67187,0.32813zM415.65587,178.04687h2.75c0.63541,0 1.19791,-0.125 1.6875,-0.375c0.48958,-0.26042 0.875,-0.61459 1.15625,-1.0625c0.29166,-0.44792 0.4375,-0.95834 0.4375,-1.53125c0,-0.60417 -0.14584,-1.14062 -0.4375,-1.60937c-0.28125,-0.46875 -0.66667,-0.83334 -1.15625,-1.09375c-0.48959,-0.26042 -1.05209,-0.39062 -1.6875,-0.39062h-2.75zM430.16979,185.25c-1.01042,0 -1.90625,-0.21875 -2.6875,-0.65625c-0.77084,-0.44791 -1.38021,-1.0625 -1.82812,-1.84375c-0.4375,-0.78125 -0.65625,-1.67709 -0.65625,-2.6875c0,-1.02084 0.20833,-1.91667 0.625,-2.6875c0.41666,-0.78125 0.98958,-1.39584 1.71875,-1.84375c0.73958,-0.44792 1.58854,-0.67187 2.54688,-0.67187c0.9375,0 1.75521,0.21354 2.45313,0.64063c0.70833,0.42708 1.25521,1.02083 1.64063,1.78125c0.38541,0.76041 0.57813,1.625 0.57813,2.59375c0,0.19791 -0.0625,0.35938 -0.1875,0.48438c-0.125,0.11458 -0.28646,0.17188 -0.48437,0.17188h-7.92187v-1.20312h8.07813l-0.79687,0.57813c0.01041,-0.71875 -0.125,-1.36459 -0.40625,-1.9375c-0.27084,-0.57292 -0.65625,-1.02084 -1.15625,-1.34375c-0.5,-0.32292 -1.09896,-0.48437 -1.79687,-0.48437c-0.70834,0 -1.33334,0.17188 -1.875,0.51563c-0.53125,0.33333 -0.94271,0.79688 -1.23437,1.39063c-0.29167,0.58333 -0.4375,1.25521 -0.4375,2.01563c0,0.76041 0.16146,1.43229 0.48438,2.01563c0.33333,0.58334 0.78646,1.04687 1.35938,1.39062c0.57291,0.33334 1.23438,0.5 1.98438,0.5c0.44791,0 0.89583,-0.07812 1.34375,-0.23437c0.45833,-0.15625 0.82291,-0.35416 1.09375,-0.59375c0.13541,-0.11458 0.29166,-0.17187 0.46875,-0.17187c0.17708,-0.01041 0.32291,0.03646 0.4375,0.14063c0.16666,0.14584 0.25,0.30729 0.25,0.48438c0.01041,0.16667 -0.05729,0.3125 -0.20312,0.4375c-0.41667,0.35417 -0.94271,0.64584 -1.57812,0.875c-0.625,0.22917 -1.22917,0.34375 -1.8125,0.34375zM450.78099,185.15625c-0.20833,0 -0.38541,-0.0625 -0.53125,-0.1875c-0.13541,-0.13541 -0.20312,-0.30729 -0.20312,-0.51562v-5.375c0,-0.88542 -0.22916,-1.58334 -0.6875,-2.09375c-0.45833,-0.52084 -1.04687,-0.78125 -1.76562,-0.78125c-0.77083,0 -1.40625,0.26041 -1.90625,0.78125c-0.48958,0.51041 -0.72916,1.19271 -0.71875,2.04688h-1.28125c0.01042,-0.83334 0.1875,-1.5625 0.53125,-2.1875c0.35417,-0.63542 0.83334,-1.125 1.4375,-1.46875c0.61459,-0.35417 1.30729,-0.53125 2.07813,-0.53125c0.73959,0 1.39063,0.17708 1.95313,0.53125c0.5625,0.34375 1,0.83333 1.3125,1.46875c0.32292,0.625 0.48438,1.36979 0.48438,2.23438v5.375c0,0.20834 -0.06771,0.38021 -0.20312,0.51563c-0.125,0.125 -0.29166,0.1875 -0.5,0.1875zM437.71849,185.15625c-0.21875,0 -0.39583,-0.0625 -0.53125,-0.1875c-0.13541,-0.13541 -0.20312,-0.30729 -0.20312,-0.51562v-8.78125c0,-0.20834 0.06771,-0.38021 0.20313,-0.51562c0.13542,-0.13542 0.3125,-0.20312 0.53125,-0.20312c0.20834,0 0.375,0.06771 0.5,0.20313c0.13542,0.13541 0.20313,0.30729 0.20313,0.51563v8.78125c0,0.20834 -0.06771,0.38021 -0.20312,0.51563c-0.125,0.125 -0.29166,0.1875 -0.5,0.1875zM444.26537,185.15625c-0.20833,0 -0.38021,-0.0625 -0.51562,-0.1875c-0.13541,-0.13541 -0.20312,-0.30729 -0.20312,-0.51562v-5.375c0,-0.88542 -0.23437,-1.58334 -0.70312,-2.09375c-0.45833,-0.52084 -1.04687,-0.78125 -1.76562,-0.78125c-0.77083,0 -1.40625,0.25521 -1.90625,0.76563c-0.5,0.5 -0.75,1.15104 -0.75,1.95313h-1.01562c0.02084,-0.79167 0.19271,-1.49479 0.51563,-2.10937c0.33334,-0.61459 0.78646,-1.09375 1.35938,-1.4375c0.57292,-0.35417 1.21875,-0.53125 1.9375,-0.53125c0.73959,0 1.39063,0.17708 1.95313,0.53125c0.57292,0.34375 1.01563,0.83333 1.32813,1.46875c0.3125,0.625 0.46875,1.36979 0.46875,2.23438v5.375c0,0.20834 -0.06771,0.38021 -0.20312,0.51563c-0.125,0.125 -0.29166,0.1875 -0.5,0.1875zM455.68285,185.15625c-0.21875,0 -0.39584,-0.0625 -0.53125,-0.1875c-0.125,-0.13541 -0.1875,-0.31771 -0.1875,-0.54687v-8.75c0,-0.21875 0.0625,-0.39062 0.1875,-0.51562c0.13541,-0.13542 0.3125,-0.20312 0.53125,-0.20312c0.20833,0 0.38021,0.06771 0.51563,0.20313c0.13541,0.125 0.20313,0.29688 0.20313,0.51563v8.75c0,0.22917 -0.06771,0.41146 -0.20312,0.54688c-0.13542,0.125 -0.30729,0.1875 -0.51562,0.1875zM455.74535,173.01562c-0.28125,0 -0.52084,-0.09896 -0.71875,-0.29687c-0.19792,-0.20834 -0.29687,-0.45312 -0.29687,-0.73437c0,-0.3125 0.10416,-0.55729 0.3125,-0.73437c0.20833,-0.17709 0.44791,-0.26562 0.71875,-0.26562c0.26041,0 0.48958,0.08854 0.6875,0.26563c0.20833,0.17708 0.3125,0.42188 0.3125,0.73438c0,0.28125 -0.09896,0.52604 -0.29687,0.73438c-0.19792,0.19791 -0.4375,0.29688 -0.71875,0.29688zM467.18389,185.15625c-0.15625,0 -0.28125,-0.02604 -0.375,-0.07812c-0.09375,-0.05208 -0.1875,-0.13541 -0.28125,-0.25l-3.23437,-4.10937l-0.5625,-0.48437l-3.23437,-4.125c-0.13542,-0.16667 -0.20312,-0.33334 -0.20312,-0.5c0.01041,-0.17709 0.06771,-0.32812 0.17188,-0.45312c0.11458,-0.13542 0.27604,-0.20312 0.48438,-0.20312c0.21875,0 0.40104,0.07291 0.54688,0.21875l3.14063,4.01563l0.5,0.40625l3.46875,4.4375c0.16666,0.19792 0.23438,0.38542 0.20313,0.5625c-0.02084,0.17709 -0.09896,0.31771 -0.23437,0.42188c-0.125,0.09375 -0.25521,0.14063 -0.39062,0.14063zM459.79326,185.15625c-0.19792,0 -0.35937,-0.0625 -0.48437,-0.1875c-0.11459,-0.125 -0.17709,-0.27083 -0.1875,-0.4375c0,-0.17708 0.06771,-0.34896 0.20313,-0.51562l3.4375,-4.28125l0.79688,1.0625l-3.26562,4.14062c-0.11459,0.14584 -0.28125,0.21875 -0.5,0.21875zM464.15264,180.3125l-0.90625,-0.9375l3.21875,-4.09375c0.09375,-0.125 0.19271,-0.20834 0.29688,-0.25c0.10416,-0.05209 0.21354,-0.07812 0.32813,-0.07812c0.20833,0 0.36458,0.06771 0.46875,0.20313c0.11458,0.125 0.16666,0.28125 0.15625,0.46875c0,0.17708 -0.0625,0.34375 -0.1875,0.5zM469.5169,189.51562c-0.20833,0 -0.38021,-0.06771 -0.51562,-0.20312c-0.13541,-0.13542 -0.20312,-0.30209 -0.20312,-0.5c0,-0.11459 0.03125,-0.24479 0.09375,-0.39062c0.6875,-1.38542 1.20834,-2.77604 1.5625,-4.17188c0.35417,-1.40625 0.53125,-2.80729 0.53125,-4.20312c0,-2.80209 -0.69271,-5.58854 -2.07812,-8.35937c-0.0625,-0.125 -0.09896,-0.26042 -0.10937,-0.40625c0,-0.19792 0.07292,-0.36459 0.21875,-0.5c0.14584,-0.14584 0.3125,-0.21875 0.5,-0.21875c0.32292,0 0.55729,0.16146 0.70313,0.48438c0.72917,1.5 1.27604,2.99479 1.64063,4.48438c0.36459,1.48958 0.54688,2.98958 0.54688,4.5c0,1.5 -0.1875,3 -0.5625,4.5c-0.36458,1.5 -0.90625,3 -1.625,4.5c-0.10416,0.17708 -0.20833,0.30208 -0.3125,0.375c-0.10416,0.07291 -0.23437,0.10938 -0.39062,0.10938z"/></g></g></g></svg>