<svg version="1.1" xmlns="http://www.w3.org/2000/svg" xmlns:xlink="http://www.w3.org/1999/xlink" width="52.54292" height="34.01662" viewBox="0,0,52.54292,34.01662"><g transform="translate(-199.28157,-163.24169)"><g data-paper-data="{&quot;isPaintingLayer&quot;:true}" fill-rule="nonzero" stroke-linecap="butt" stroke-linejoin="miter" stroke-miterlimit="10" stroke-dasharray="" stroke-dashoffset="0" style="mix-blend-mode: normal"><path d="M234.20393,183.7156l-19.57121,0.03054l-0.01098,-7.03402l19.57121,-0.03054z" data-paper-data="{&quot;index&quot;:null}" fill="none" stroke="#000000" stroke-width="18.5"/><path d="M237.0745,180.22877c-0.00926,-5.93705 2.83742,-10.75444 6.35822,-10.75993c3.5208,-0.00549 6.3825,4.80299 6.39177,10.74004c0.00926,5.93705 -2.83742,10.75444 -6.35822,10.75993c-3.5208,0.00549 -6.3825,-4.80299 -6.39177,-10.74004z" data-paper-data="{&quot;index&quot;:null}" fill="#000000" stroke="#000000" stroke-width="4"/><path d="M201.2816,180.28337c-0.00926,-5.93705 1.94198,-10.75304 4.35822,-10.75681c2.41625,-0.00377 4.38251,4.80611 4.39178,10.74316c0.00926,5.93705 -1.94198,10.75304 -4.35823,10.75681c-2.41625,0.00377 -4.3825,-4.80611 -4.39177,-10.74316z" data-paper-data="{&quot;index&quot;:null}" fill="#000000" stroke="#000000" stroke-width="4"/><path d="M227.01976,170.25186l6.83333,-0.01066c0,0 1.03877,2.72952 1.47767,5.10376c0.14465,0.78253 0.3825,2.72376 0.37425,4.83661c-0.02267,2.09014 -0.27385,4.20577 -0.50405,5.64404c-0.54259,3.38999 -1.31665,4.41556 -1.31665,4.41556l-6.83333,0.01066c0,0 0.29296,-1.88201 0.44745,-4.54616c0.05411,-0.93315 0.17915,-2.84997 0.26422,-5.45496c-0.03525,-0.82776 -0.04592,-1.98628 -0.10186,-3.29588c-0.02131,-0.49889 -0.04965,-1.30465 -0.08776,-1.70384c-0.22188,-2.32407 -0.55326,-4.99914 -0.55326,-4.99914z" fill="#000000" stroke="none" stroke-width="0"/><path d="M207.04704,175.06625c-0.67124,1.67303 -0.68935,2.53691 -0.71933,5.09204c0.09318,2.60471 0.22095,2.43024 0.73409,4.3625c1.25399,2.84377 1.64146,3.27017 1.64146,3.27017l-3.92055,2.36976c0,0 -1.14061,-0.84077 -2.33014,-4.22805c-0.69052,-2.25502 -0.76535,-3.64286 -0.79453,-5.73293c-0.01485,-2.11282 -0.144,-2.32695 0.6306,-5.65636c0.97423,-4.10372 2.46286,-4.38264 2.46286,-4.38264l3.65464,1.9943c0,0 -0.41691,0.76715 -1.3591,2.91121z" data-paper-data="{&quot;index&quot;:null}" fill="#000000" stroke="none" stroke-width="0"/><path d="M233.65574,167.37352c0.00372,2.38486 0.4714,2.04472 -0.63317,2.04644c-1.10457,0.00172 -3.36311,0.34467 -3.36683,-2.0402c-0.00372,-2.38486 -0.02011,-4.13633 1.08445,-4.13806c1.10457,-0.00172 2.91182,1.74695 2.91554,4.13182z" fill="#000000" stroke="none" stroke-width="0"/><path d="M230.79328,197.25832c-1.10457,0.00172 -1.09364,-1.7498 -1.09736,-4.13466c-0.00372,-2.38486 2.25588,-2.04897 3.36044,-2.0507c1.10457,-0.00172 0.63583,-0.3404 0.63955,2.04445c0.00372,2.38486 -1.79806,4.13918 -2.90263,4.1409z" data-paper-data="{&quot;index&quot;:null}" fill="#000000" stroke="none" stroke-width="0"/></g></g></svg>