<svg version="1.1" xmlns="http://www.w3.org/2000/svg" xmlns:xlink="http://www.w3.org/1999/xlink" width="27.9165" height="42.281" viewBox="0,0,27.9165,42.281"><defs><linearGradient x1="239.65875" y1="166.219" x2="239.65875" y2="197.453" gradientUnits="userSpaceOnUse" id="color-1"><stop offset="0" stop-color="#000000"/><stop offset="1" stop-color="#000000" stop-opacity="0"/></linearGradient><linearGradient x1="239.65875" y1="166.219" x2="239.65875" y2="197.453" gradientUnits="userSpaceOnUse" id="color-2"><stop offset="0" stop-color="#000000"/><stop offset="1" stop-color="#000000" stop-opacity="0"/></linearGradient></defs><g transform="translate(-225.72925,-158.922)"><g data-paper-data="{&quot;isPaintingLayer&quot;:true}" fill-rule="nonzero" stroke-linecap="butt" stroke-linejoin="miter" stroke-miterlimit="10" stroke-dasharray="" stroke-dashoffset="0" style="mix-blend-mode: normal"><path d="M239.65125,177.047c1.885,0 3.609,0.448 5.172,1.344c1.562,0.895 2.786,2.125 3.671,3.687c0.896,1.552 1.344,3.276 1.344,5.172c0,1.896 -0.448,3.625 -1.344,5.188c-0.885,1.552 -2.109,2.776 -3.671,3.671c-1.563,0.896 -3.287,1.344 -5.172,1.344c-1.896,0 -3.625,-0.448 -5.188,-1.344c-1.562,-0.895 -2.786,-2.114 -3.672,-3.656c-0.875,-1.542 -1.312,-3.276 -1.312,-5.203c0,-0.583 0.187,-1.068 0.562,-1.453c0.375,-0.386 0.854,-0.578 1.438,-0.578c0.594,0 1.088,0.192 1.484,0.578c0.406,0.385 0.61,0.87 0.61,1.453c0,1.146 0.265,2.188 0.796,3.125c0.532,0.927 1.256,1.661 2.172,2.203c0.927,0.531 1.964,0.797 3.11,0.797c1.146,0 2.182,-0.266 3.109,-0.797c0.938,-0.542 1.672,-1.276 2.203,-2.203c0.531,-0.937 0.797,-1.979 0.797,-3.125c0,-1.146 -0.266,-2.182 -0.797,-3.109c-0.531,-0.938 -1.265,-1.672 -2.203,-2.203c-0.927,-0.532 -1.963,-0.797 -3.109,-0.797h-6.688c-0.583,0 -1.062,-0.193 -1.437,-0.578c-0.375,-0.396 -0.563,-0.886 -0.563,-1.469v-10.797c0,-0.594 0.188,-1.089 0.563,-1.484c0.375,-0.396 0.854,-0.594 1.437,-0.594h13.36c0.562,0 1.041,0.208 1.437,0.625c0.406,0.406 0.609,0.89 0.609,1.453c0,0.531 -0.197,1 -0.593,1.406c-0.386,0.396 -0.87,0.594 -1.453,0.594h-11.313v6.75z" fill="url(#color-1)" stroke="url(#color-2)" stroke-width="7.5"/><path d="M239.70875,173.5c1.885,0 3.609,0.448 5.172,1.344c1.562,0.895 2.786,2.125 3.671,3.687c0.896,1.552 1.344,3.276 1.344,5.172c0,1.896 -0.448,3.625 -1.344,5.188c-0.885,1.552 -2.109,2.776 -3.671,3.671c-1.563,0.896 -3.287,1.344 -5.172,1.344c-1.896,0 -3.625,-0.448 -5.188,-1.344c-1.562,-0.895 -2.786,-2.114 -3.672,-3.656c-0.875,-1.542 -1.312,-3.276 -1.312,-5.203c0,-0.583 0.187,-1.068 0.562,-1.453c0.375,-0.386 0.854,-0.578 1.438,-0.578c0.594,0 1.088,0.192 1.484,0.578c0.406,0.385 0.61,0.87 0.61,1.453c0,1.146 0.265,2.188 0.796,3.125c0.532,0.927 1.256,1.661 2.172,2.203c0.927,0.531 1.964,0.797 3.11,0.797c1.146,0 2.182,-0.266 3.109,-0.797c0.938,-0.542 1.672,-1.276 2.203,-2.203c0.531,-0.937 0.797,-1.979 0.797,-3.125c0,-1.146 -0.266,-2.182 -0.797,-3.109c-0.531,-0.938 -1.265,-1.672 -2.203,-2.203c-0.927,-0.532 -1.963,-0.797 -3.109,-0.797h-6.688c-0.583,0 -1.062,-0.193 -1.437,-0.578c-0.375,-0.396 -0.563,-0.886 -0.563,-1.469v-10.797c0,-0.594 0.188,-1.089 0.563,-1.484c0.375,-0.396 0.854,-0.594 1.437,-0.594h13.36c0.562,0 1.041,0.208 1.437,0.625c0.406,0.406 0.609,0.89 0.609,1.453c0,0.531 -0.197,1 -0.593,1.406c-0.386,0.396 -0.87,0.594 -1.453,0.594h-11.313v6.75z" fill="#ca6c00" stroke="#ffffff" stroke-width="7.5"/><path d="M240.33375,173.375c1.885,0 3.609,0.448 5.172,1.344c1.562,0.895 2.786,2.125 3.671,3.687c0.896,1.552 1.344,3.276 1.344,5.172c0,1.896 -0.448,3.625 -1.344,5.188c-0.885,1.552 -2.109,2.776 -3.671,3.671c-1.563,0.896 -3.287,1.344 -5.172,1.344c-1.896,0 -3.625,-0.448 -5.188,-1.344c-1.562,-0.895 -2.786,-2.114 -3.672,-3.656c-0.875,-1.542 -1.312,-3.276 -1.312,-5.203c0,-0.583 0.187,-1.068 0.562,-1.453c0.375,-0.386 0.854,-0.578 1.438,-0.578c0.594,0 1.088,0.192 1.484,0.578c0.406,0.385 0.61,0.87 0.61,1.453c0,1.146 0.265,2.188 0.796,3.125c0.532,0.927 1.256,1.661 2.172,2.203c0.927,0.531 1.964,0.797 3.11,0.797c1.146,0 2.182,-0.266 3.109,-0.797c0.938,-0.542 1.672,-1.276 2.203,-2.203c0.531,-0.937 0.797,-1.979 0.797,-3.125c0,-1.146 -0.266,-2.182 -0.797,-3.109c-0.531,-0.938 -1.265,-1.672 -2.203,-2.203c-0.927,-0.532 -1.963,-0.797 -3.109,-0.797h-6.688c-0.583,0 -1.062,-0.193 -1.437,-0.578c-0.375,-0.396 -0.563,-0.886 -0.563,-1.469v-10.797c0,-0.594 0.188,-1.089 0.563,-1.484c0.375,-0.396 0.854,-0.594 1.437,-0.594h13.36c0.562,0 1.041,0.208 1.437,0.625c0.406,0.406 0.609,0.89 0.609,1.453c0,0.531 -0.197,1 -0.593,1.406c-0.386,0.396 -0.87,0.594 -1.453,0.594h-11.313v6.75z" fill="#ca6c00" stroke="#ffffff" stroke-width="0"/></g></g></svg>