<svg version="1.1" xmlns="http://www.w3.org/2000/svg" xmlns:xlink="http://www.w3.org/1999/xlink" width="71.52576" height="42.38288" viewBox="0,0,71.52576,42.38288"><defs><linearGradient x1="259.20489" y1="178.68574" x2="245.68347" y2="178.38071" gradientUnits="userSpaceOnUse" id="color-1"><stop offset="0" stop-color="#ffff99"/><stop offset="1" stop-color="#ffffff"/></linearGradient></defs><g transform="translate(-194.16306,-157.49299)"><g data-paper-data="{&quot;isPaintingLayer&quot;:true}" fill-rule="nonzero" stroke-linejoin="miter" stroke-miterlimit="10" stroke-dasharray="" stroke-dashoffset="0" style="mix-blend-mode: normal"><path d="M224.51461,184.58682l-1.10219,0.01529" fill="none" stroke="#000000" stroke-width="2.05923" stroke-linecap="round"/><path d="M223.48594,182.5341l1.09434,-0.12168" fill="none" stroke="#000000" stroke-width="2.05932" stroke-linecap="round"/><path d="M228.52157,181.08813c0,0 0.29781,-0.25824 0.37693,-0.43212c0.0816,-0.17941 0.06988,-0.38911 0.08665,-0.58554c0.01673,-0.19496 0.02029,-0.3917 0.01325,-0.5872c-0.00794,-0.22137 0.0028,-0.44936 -0.0585,-0.66225c-0.05448,-0.18953 -0.16126,-0.36466 -0.28201,-0.52042c-0.19069,-0.24576 -0.4112,-0.47105 -0.64569,-0.6755c-0.19935,-0.1737 -0.44436,-0.28997 -0.65066,-0.4553c-0.20284,-0.16261 -0.57664,-0.48095 -0.57561,-0.52705c0.00104,-0.0461 0.39516,0.14022 0.58223,0.23345c0.22541,0.1123 0.43455,0.25567 0.65232,0.38189c0.26501,0.15373 0.53306,0.30372 0.79745,0.4586c0.17018,0.0996 0.37086,0.16259 0.50716,0.30519c0.13631,0.1426 0.2647,0.3241 0.28201,0.52042c0.02411,0.27226 -0.10739,0.76279 -0.16502,0.80409c-0.05762,0.04129 -0.0629,-0.40179 -0.13355,-0.59051c-0.06898,-0.18456 -0.12064,-0.4075 -0.28201,-0.52042c-0.16136,-0.11291 -0.40739,-0.17075 -0.58554,-0.08665c-0.22119,0.10429 -0.31949,0.3729 -0.45365,0.57727c-0.12015,0.18264 -0.33279,0.3635 -0.30685,0.58057c0.04303,0.35846 0.23447,0.81749 0.49227,0.96578c0.14093,0.08102 0.33074,-0.31184 0.30519,-0.50716c-0.02679,-0.20564 -0.22857,-0.4023 -0.43046,-0.45033c-0.20306,-0.04835 -0.60523,0.2002 -0.59216,0.20695c0.01306,0.00676 0.58799,0.06938 0.73731,-0.13025c0.17596,-0.23484 0.01326,-0.58749 0.01987,-0.8808c0.00495,-0.2199 0.00994,-0.44069 0.01491,-0.66059c0.00441,-0.19554 0.02647,-0.39213 0.01325,-0.5872c-0.02365,-0.34481 -0.06934,-0.68952 -0.12362,-1.03091c-0.03164,-0.19898 -0.04392,-0.40988 -0.13355,-0.59051c-0.17167,-0.34637 -0.3806,-0.68156 -0.63907,-0.96909c-0.13182,-0.14662 -0.3203,-0.24222 -0.50716,-0.30519c-0.2099,-0.07084 -0.44745,-0.02273 -0.65894,-0.08831c-0.30367,-0.09409 -0.62255,-0.19059 -0.87252,-0.38687c-0.15499,-0.12188 -0.41151,-0.5351 -0.28201,-0.52042c0.26662,0.03041 1.0771,0.52396 1.08775,0.61204c0.01064,0.08807 -0.68869,-0.03257 -1.02594,-0.09658c-0.25066,-0.04766 -0.52176,-0.08785 -0.72903,-0.23677c-0.26709,-0.19167 -0.64899,-0.52899 -0.64403,-0.74889c0.00332,-0.1471 0.44122,-0.00062 0.6606,0.01491c0.29357,0.02072 0.61875,-0.0442 0.87914,0.09327c0.21627,0.11415 0.55156,0.43396 0.42715,0.59713c-0.1783,0.23392 -0.68476,0.15756 -1.03255,0.19701c-0.19436,0.02205 -0.39635,0.02954 -0.5872,-0.01325c-0.30192,-0.06762 -0.87437,-0.30437 -0.87417,-0.31347c0.00021,-0.0094 0.59051,0.08793 0.87748,0.16667c0.20144,0.05537 0.58212,0.23814 0.58223,0.23345c0.0001,-0.0044 -0.39245,-0.19538 -0.58057,-0.30685c-0.19856,-0.11757 -0.42505,-0.20846 -0.57891,-0.38024c-0.21261,-0.23745 -0.33888,-0.64214 -0.49558,-0.81898c-0.11738,-0.12279 -0.20846,0.38598 -0.23677,0.72903c0.0282,-0.32543 0.06109,-0.5071 0.23345,-0.58223c0.17601,-0.09385 0.36079,0.16617 0.58057,0.30685c0.1854,-0.00199 0.35968,-0.00598 0.58554,0.08665c0.13689,0.026 0.25371,0.05595 0.36534,0.08168c0.22865,-0.08326 0.30955,0.0155 0.43708,0.15674c0.26604,-0.12619 0.56921,-0.33555 0.6639,-0.13189c0.12127,0.24978 0.00083,0.5881 -0.01987,0.8808c-0.01556,0.22084 -0.01368,0.45059 -0.08831,0.65894c-0.13667,0.38085 -0.33162,0.74158 -0.53863,1.0894c-0.12518,0.21015 -0.2886,0.3968 -0.45365,0.57727c-0.18672,0.20405 -0.37192,0.41842 -0.60044,0.57395c-0.64469,0.43901 -1.29719,0.88604 -2.00993,1.20308c-0.20118,0.08946 -0.49345,0.12811 -0.66059,-0.01491c-0.17118,-0.14663 -0.12787,-0.43851 -0.13189,-0.6639c-0.00673,-0.39201 0.04238,-0.78512 0.0999,-1.17274c0.02947,-0.19938 0.06178,-0.4078 0.16004,-0.58389c0.13592,-0.2434 0.27186,-0.54024 0.5287,-0.649c0.29272,-0.12382 0.6408,-0.03225 0.95418,0.02153c0.35085,0.06019 0.71608,0.13336 1.02096,0.31677c0.38632,0.23255 0.83814,0.49126 1.00772,0.90397c0.07407,0.18027 -0.33864,0.20592 -0.52042,0.28201c-0.26392,0.11036 -0.53056,0.23654 -0.81401,0.27538c-0.33915,0.04639 -0.68954,0.03114 -1.02759,-0.02318c-0.37463,-0.06045 -0.75634,-0.14601 -1.09437,-0.31843c-0.32671,-0.16658 -0.63467,-0.39589 -0.86589,-0.68047c-0.18607,-0.22921 -0.41724,-0.52817 -0.34878,-0.81567c0.04835,-0.20306 0.38607,-0.17312 0.59216,-0.20695c0.19312,-0.03177 0.39223,-0.00349 0.5872,0.01325c0.19643,0.01677 0.39323,0.04353 0.58554,0.08665c0.41678,0.09311 0.82038,0.24968 1.24117,0.32175c0.24112,0.04127 0.73547,-0.04862 0.73398,0.01657c-0.00146,0.06518 -0.47781,0.28121 -0.74228,0.35044c-0.26122,0.06842 -0.53945,0.07126 -0.80906,0.05518c-0.39339,-0.02356 -0.79859,-0.04386 -1.17108,-0.1733c-0.3926,-0.13635 -0.74708,-0.37375 -1.08775,-0.61204c-0.3129,-0.21885 -0.64779,-0.43937 -0.86423,-0.75386c-0.11179,-0.16232 -0.18462,-0.43597 -0.06015,-0.58886c0.12448,-0.15287 0.39185,-0.0646 0.58886,-0.06016c0.44069,0.00994 0.885,0.02878 1.31954,0.1032c0.22854,0.03923 0.44517,0.13724 0.65562,0.23511c0.17879,0.08306 0.35369,0.18158 0.50717,0.30519c0.16155,0.13025 0.35966,0.25545 0.43046,0.45033c0.10039,0.27663 0.15785,0.60721 0.05352,0.88244c-0.07435,0.1966 -0.33008,0.26926 -0.52207,0.35541c-0.33148,0.14879 -0.6789,0.27578 -1.03588,0.34381c-0.3372,0.06436 -0.68633,0.05796 -1.02925,0.05022c-0.46506,-0.0105 -0.93406,-0.02871 -1.39293,-0.10486c-0.22885,-0.03806 -0.62064,-0.08039 -0.65563,-0.23511c-0.03178,-0.14055 0.34134,-0.24786 0.52207,-0.3554c0.21645,-0.12848 0.43668,-0.25512 0.66888,-0.35209c0.21411,-0.08947 0.44925,-0.12175 0.66556,-0.20529c0.20417,-0.07882 0.40141,-0.1763 0.59382,-0.28035c0.32801,-0.17767 0.8714,-0.31873 0.96743,-0.56567c0.05986,-0.15345 -0.69987,-0.21407 -0.65563,-0.23511c0.04425,-0.02104 0.63927,0.03557 0.95254,0.09493c0.27377,0.052 0.75525,0.15539 0.80243,0.23841c0.04435,0.07797 -0.39683,0.07711 -0.59051,0.13355c-0.27469,0.07987 -0.57035,0.12549 -0.81401,0.27538c-0.19184,0.11816 -0.34674,0.30473 -0.45199,0.50386c-0.10524,0.19913 -0.1055,0.7311 -0.1617,0.65728c-0.05877,-0.07682 -0.08849,-0.68701 -0.12362,-1.0309c-0.02504,-0.24438 -0.05122,-0.48995 -0.05684,-0.73564c-0.00661,-0.2933 -0.07965,-0.60985 0.01987,-0.8808c0.08503,-0.29242 0.47089,-0.1571 0.59382,-0.28035c0.06871,-0.33715 -0.05497,0.01462 -0.07671,0.14515c-0.11923,-0.02737 -0.26457,1.2592 -0.3383,1.97516c-0.00117,-0.74232 0.03391,-2.3495 -0.02373,-2.20363c-0.09387,0.30632 -0.28744,1.16586 -0.40674,1.75331c-0.07368,0.36259 -0.09619,0.73543 -0.17165,1.09768c-0.0619,0.29617 -0.16531,0.58289 -0.24007,0.87582c-0.08637,0.3391 -0.18419,0.67764 -0.24338,1.02262c-0.05379,0.31427 -0.07693,1.00082 -0.09493,0.95254c-0.018,-0.04829 -0.02092,-0.88259 -0.04359,-1.32284c-0.01146,-0.22115 -0.04438,-0.44132 -0.0585,-0.66225c-0.02194,-0.34241 -0.02093,-0.934 -0.05022,-1.02925c-0.0249,-0.08105 -0.0611,0.39019 -0.08665,0.58554c-0.06328,0.48736 -0.06077,0.98796 -0.17991,1.46467c-0.07168,0.28655 -0.29917,0.90416 -0.38521,0.7991c-0.09863,-0.12031 -0.03709,-0.88207 -0.04359,-1.32284c-0.00326,-0.22008 -0.01059,-0.44204 0.01491,-0.66059c0.06559,-0.5634 0.15669,-1.12533 0.25829,-1.68322c0.09385,-0.5143 0.24617,-1.21173 0.32838,-1.53476c0.03319,-0.12997 -0.06255,0.38987 -0.08665,0.58554c-0.03597,0.29206 -0.03418,0.59084 -0.09327,0.87914c-0.05117,0.25 -0.18301,0.70351 -0.23677,0.72903c-0.05374,0.02552 -0.05755,-0.39169 -0.06016,-0.58886c-0.0063,-0.48894 -0.11429,-1.0019 0.03311,-1.46799c0.05946,-0.18784 0.32821,-0.23846 0.52042,-0.28201c0.21465,-0.04862 0.44069,0.00994 0.66059,0.01491c0.2199,0.00495 0.44705,-0.0378 0.6606,0.01491c0.23371,0.05757 0.71737,0.23268 0.65398,0.3085c-0.06339,0.07582 -0.63724,0.04379 -0.95584,0.05188c-0.19546,0.00499 -0.5875,0.00026 -0.5872,-0.01325c0.0003,-0.01351 0.40013,-0.06705 0.59051,-0.13355c0.20637,-0.07201 0.38387,-0.21929 0.59382,-0.28035c0.26257,-0.07632 0.54357,-0.07116 0.81071,-0.12859c0.24971,-0.05342 0.48691,-0.1638 0.73896,-0.20363c0.29067,-0.04603 0.58889,-0.07484 0.88244,-0.05352c0.20118,0.01453 0.58418,0.14654 0.58389,0.16004c-0.0003,0.01351 -0.39166,-0.00884 -0.5872,-0.01325c-0.36671,-0.00828 -0.73868,-0.08217 -1.101,-0.02483c-0.19457,0.03086 -0.53617,0.17267 -0.52042,0.28201c0.01599,0.11169 0.3845,0.13058 0.58389,0.16004c0.19352,0.02875 0.39166,0.00884 0.5872,0.01325c0.19554,0.00441 0.3957,-0.02721 0.5872,0.01325c0.20435,0.04309 0.39084,0.14952 0.58223,0.23345c0.22048,0.09662 0.431,0.2177 0.65398,0.3085c0.28642,0.11662 0.63296,0.12003 0.87417,0.31347c0.19649,0.15747 0.44907,0.48512 0.35209,0.66888c-0.09481,0.17911 -0.49046,0.07411 -0.73564,0.05684c-0.27275,-0.01908 -0.75718,-0.08259 -0.80409,-0.16502c-0.04577,-0.08064 0.3906,-0.15245 0.59216,-0.20695c0.21752,-0.05883 0.4415,-0.16894 0.6639,-0.13189c0.31343,0.05201 0.57761,0.26859 0.87252,0.38687c0.28703,0.11516 0.77173,0.36198 0.87417,0.31347c0.09383,-0.04429 -0.29364,-0.34326 -0.4288,-0.52373c-0.12604,-0.16822 -0.17666,-0.41141 -0.3554,-0.52207c-0.25726,-0.15913 -0.57694,-0.19426 -0.87582,-0.24007c-0.26581,-0.04066 -0.77989,-0.0267 -0.8074,-0.01821c-0.02751,0.00848 0.40272,0.0132 0.58554,0.08665c0.21397,0.0859 0.39344,0.24299 0.57891,0.38024c0.22392,0.16573 0.46395,0.32008 0.649,0.5287c0.13091,0.14748 0.20711,0.33808 0.28201,0.52042c0.08828,0.21467 0.14484,0.44154 0.20529,0.66556c0.05259,0.19477 0.19341,0.39798 0.13355,0.59051c-0.06146,0.19806 -0.30511,0.28245 -0.45033,0.43046c-0.23031,0.23479 -0.40792,0.53012 -0.67715,0.7191c-0.2155,0.15142 -0.53444,0.39566 -0.74062,0.27704c-0.19255,-0.11068 -0.03651,-0.49078 -0.05684,-0.73564c-0.01822,-0.22072 -0.02702,-0.443 -0.0585,-0.66225c-0.03198,-0.22308 -0.09048,-0.44237 -0.13189,-0.6639c-0.04588,-0.24513 -0.04505,-0.50304 -0.13025,-0.73731c-0.07883,-0.2168 -0.30444,-0.60671 -0.35375,-0.59547c-0.04931,0.01123 0.02702,0.443 0.0585,0.66225c0.05304,0.37014 0.14025,0.73606 0.19535,1.10595c0.05103,0.3419 0.08054,0.68772 0.12362,1.03091c0.0398,0.31903 0.07959,0.63923 0.12528,0.9575c0.0599,0.41788 0.16051,1.11398 0.19205,1.25276c0.02297,0.10157 -0.02554,-0.44326 -0.0585,-0.66225c-0.05212,-0.34603 -0.09383,-0.69801 -0.19701,-1.03255c-0.1032,-0.33456 -0.24001,-0.66311 -0.41887,-0.96413c-0.17744,-0.29863 -0.38852,-0.74695 -0.64237,-0.82229c-0.14735,-0.04386 -0.13878,0.38344 -0.16004,0.58389c-0.04137,0.38887 -0.0303,0.78333 -0.02649,1.17438c0.00346,0.36755 0.01481,0.73676 0.04856,1.10264c0.02529,0.27228 0.1582,0.85221 0.12859,0.81071c-0.02962,-0.0415 -0.17257,-0.76176 -0.34216,-1.10926c-0.20804,-0.42651 -0.46129,-1.01119 -0.7809,-1.19261c-0.15168,-0.08627 -0.13316,0.4338 -0.1617,0.65728c-0.03102,0.24252 -0.01104,0.48942 -0.01657,0.73398c-0.00495,0.2199 -0.01491,0.6606 -0.01491,0.6606c0,0 -0.00092,-0.44123 0.01491,-0.6606c0.01959,-0.26922 0.00589,-0.80767 0.09161,-0.80574c0.08573,0.00193 0.30249,0.52382 0.34878,0.81567c0.04216,0.26679 -0.03257,0.81882 -0.09161,0.80574c-0.05904,-0.01307 -0.19559,-0.58809 -0.27372,-0.88741c-0.05706,-0.21807 -0.01372,-0.47207 -0.13189,-0.6639c-0.15443,-0.25082 -0.47341,-0.65574 -0.64735,-0.60209c-0.15885,0.04899 -0.0239,0.53848 -0.01821,0.8074c0.00629,0.29448 0.07249,0.58854 0.05352,0.88244c-0.01903,0.29684 -0.10422,0.81779 -0.16667,0.87748c-0.06065,0.05797 0.00564,-0.4449 -0.13355,-0.59051c-0.13918,-0.14562 -0.45849,-0.00241 -0.58389,-0.16004c-0.15539,-0.19503 -0.12379,-0.72365 -0.13025,-0.73731c-0.00644,-0.01366 0.03018,0.394 0.06016,0.58886c0.03405,0.22285 0.11199,0.43933 0.13189,0.6639c0.01943,0.21928 -0.00084,0.44089 -0.01491,0.66059c-0.02354,0.36665 0.07065,0.89194 -0.09824,1.09934c-0.09547,0.1171 -0.29746,-0.29107 -0.43046,-0.45033c-0.2008,-0.24012 -0.36175,-0.51399 -0.57063,-0.74725c-0.15043,-0.16789 -0.42873,-0.56632 -0.50386,-0.45199c-0.11498,0.17512 0.07435,0.68875 0.12362,1.0309c0.05661,0.39401 0.10582,0.7911 0.19371,1.17936c0.04623,0.20373 0.14719,0.66337 0.20695,0.59216c0.06732,-0.08014 0.07775,-0.63421 0.09493,-0.95254c0.02485,-0.46385 0.02098,-0.93011 0.03146,-1.39458c0.00441,-0.19554 -0.01286,-0.39333 0.01325,-0.5872c0.03319,-0.24717 0.11689,-0.76727 0.16336,-0.73069c0.04646,0.03659 0.07487,0.64 0.12528,0.9575c0.03522,0.22257 0.1267,0.43849 0.13189,0.6639c0.00721,0.31859 -0.03449,0.92981 -0.09493,0.95254c-0.06044,0.02273 -0.19552,-0.53933 -0.27538,-0.81401c-0.05644,-0.19368 -0.11075,-0.39024 -0.13355,-0.59051c-0.03871,-0.34104 -0.06046,-0.99188 -0.05021,-1.02925c0.01024,-0.03737 0.07521,0.49402 0.13025,0.73731c0.07853,0.34722 0.25998,0.97553 0.27042,1.03421c0.01043,0.05869 -0.13005,-0.4462 -0.20529,-0.66556c-0.08544,-0.24897 -0.19159,-0.49165 -0.27704,-0.74062c-0.07524,-0.21937 -0.09802,-0.45987 -0.20529,-0.66556c-0.15374,-0.29486 -0.39961,-0.85441 -0.56898,-0.82064c-0.16257,0.03217 -0.07336,0.6346 -0.09493,0.95254c-0.01494,0.21939 -0.00994,0.44069 -0.01491,0.66059c-0.00607,0.26893 -0.01214,0.53845 -0.01821,0.8074c-0.00607,0.26893 -0.00217,0.53897 -0.01821,0.8074c-0.02322,0.39134 -0.05891,1.02267 -0.0999,1.17274c-0.02688,0.0978 -0.05373,-0.3919 -0.06015,-0.58886c-0.008,-0.24428 0.01104,-0.48942 0.01657,-0.73398c0.00717,-0.31768 0.01436,-0.63652 0.02153,-0.95418c0.00551,-0.24456 0.01104,-0.48942 0.01657,-0.73398c0.00662,-0.2933 0.01325,-0.58749 0.01987,-0.8808c0.00551,-0.24456 0.01104,-0.48942 0.01657,-0.73398c0.00495,-0.2199 0.00994,-0.44069 0.01491,-0.6606c0.00441,-0.19554 0.00884,-0.39166 0.01325,-0.5872c0.00441,-0.19554 0.00884,-0.39166 0.01325,-0.5872c0.00495,-0.2199 0.01502,-0.6653 0.01491,-0.6606c-0.0001,0.0044 0.00128,0.49028 -0.01657,0.73398c-0.01787,0.24517 -0.07209,0.48717 -0.08995,0.73234c-0.01783,0.2437 -0.01104,0.48942 -0.01657,0.73398c-0.00662,0.2933 0.0146,0.58958 -0.01987,0.8808c-0.02649,0.22382 -0.14716,0.65056 -0.1617,0.65728c-0.01455,0.00673 0.00884,-0.39166 0.01325,-0.5872c0.00551,-0.24456 0.01104,-0.48942 0.01657,-0.73398c0.00495,-0.2199 0.01491,-0.66059 0.01491,-0.66059c0,0 -0.00994,0.44069 -0.01491,0.66059c-0.01048,0.46447 -0.03097,0.93018 -0.03146,1.39458c-0.00051,0.66063 -0.01506,1.48749 0.02868,1.98344c0.01475,0.1663 0.07422,-0.43806 0.08831,-0.65894c0.02353,-0.36606 0.02978,-0.73428 0.02483,-1.101c-0.00427,-0.31881 -0.0184,-0.95509 -0.05188,-0.95584c-0.03347,-0.00076 -0.1556,0.63451 -0.24172,0.94922c-0.07363,0.26889 -0.199,0.5266 -0.23841,0.80243c-0.04847,0.33877 -0.01546,0.68526 -0.02318,1.02759c-0.01048,0.46447 -0.03597,0.93006 -0.03146,1.39458c0.00276,0.29439 0.04923,0.87794 0.05352,0.88244c0.00459,0.00481 -0.0321,-0.54328 0.01821,-0.8074c0.06201,-0.32672 0.23022,-0.92129 0.31513,-0.94757c0.08489,-0.02629 0.08296,0.54119 0.12859,0.81071c0.06218,0.36888 0.10927,0.74212 0.19535,1.10595c0.04829,0.20318 0.19874,0.38342 0.20695,0.59216c0.00809,0.2014 -0.08503,0.39669 -0.16004,0.58389c-0.08124,0.20291 -0.16071,0.41791 -0.30685,0.58057c-0.16332,0.18197 -0.44203,0.51789 -0.59713,0.42715c-0.17105,-0.10021 -0.18596,-0.66335 -0.05518,-0.80906c0.09522,-0.10624 0.31486,0.26208 0.50716,0.30519c0.19231,0.04311 0.46928,0.09665 0.58886,-0.06015c0.14832,-0.19435 0.02338,-0.48973 0.01657,-0.73398c-0.0068,-0.24572 -0.04496,-0.74125 -0.05684,-0.73564c-0.01188,0.00561 -0.16329,0.54534 -0.09161,0.80574c0.07413,0.26868 0.39594,0.65254 0.4989,0.67218c0.09096,0.01732 -0.02811,-0.39426 -0.06015,-0.58886c-0.03282,-0.19902 -0.00695,-0.43373 -0.13355,-0.59051c-0.15832,-0.19568 -0.40551,-0.33256 -0.65232,-0.38189c-0.19768,-0.03942 -0.42595,0.24859 -0.59051,0.13355c-0.16078,-0.11261 -0.0646,-0.39185 -0.06016,-0.58886c0.00554,-0.24574 0.01918,-0.71984 0.08995,-0.73234c0.07078,-0.0125 0.21609,0.43463 0.2787,0.66722c0.05122,0.19032 0.05535,0.59344 0.06016,0.58886c0.00481,-0.00459 -0.03617,-0.64911 0.01491,-0.6606c0.05107,-0.01149 0.17987,0.39944 0.28035,0.59382c0.18099,0.35012 0.46483,1.01011 0.56401,1.04083c0.09917,0.03073 -0.0137,-0.59073 -0.05352,-0.88244c-0.04412,-0.32324 -0.17517,-0.63375 -0.19867,-0.95916c-0.01437,-0.19655 0.03785,-0.67535 0.08665,-0.58554c0.07304,0.13472 0.14232,0.73581 0.19535,1.10595c0.03149,0.21926 0.00518,0.44749 0.0585,0.66225c0.08214,0.33055 0.29238,0.90694 0.34547,0.96248c0.05309,0.05555 -0.0335,-0.44225 -0.0585,-0.66225c-0.03627,-0.31953 -0.12019,-0.63602 -0.12527,-0.9575c-0.00514,-0.31883 0.07392,-0.94596 0.09493,-0.95254c0.021,-0.00658 0.06446,0.59336 0.12693,0.8841c0.04864,0.2267 0.13686,0.444 0.20529,0.66556c0.06843,0.22155 0.13005,0.4462 0.20529,0.66556c0.08544,0.24897 0.17886,0.49636 0.27704,0.74062c0.11014,0.2742 0.30991,0.98928 0.34878,0.81567c0.07383,-0.32998 -0.08082,-1.27463 -0.10374,-1.91169c-0.00705,-0.1955 0.02941,-0.39238 0.01325,-0.5872c-0.02234,-0.27252 -0.09416,-0.53968 -0.12859,-0.81071c-0.02793,-0.21976 -0.0586,-0.65784 -0.0585,-0.66225c0.00011,-0.00499 0.02163,0.39557 0.06015,0.58886c0.04988,0.25022 0.15672,0.48792 0.20363,0.73896c0.04062,0.2177 0.02318,0.44378 0.0585,0.66225c0.07221,0.44489 0.18863,0.88345 0.26379,1.32781c0.03292,0.19432 0.02399,0.39504 0.06015,0.58886c0.0514,0.27405 0.15437,0.7872 0.20199,0.81235c0.04761,0.02516 0.07098,-0.43814 0.08831,-0.65894c0.01729,-0.21934 0.00994,-0.44069 0.01491,-0.6606c0.00828,-0.36671 0.01657,-0.73429 0.02483,-1.101c0.00717,-0.31768 0.00204,-0.6371 0.02153,-0.95418c0.01952,-0.31827 0.07511,-0.63427 0.09493,-0.95254c0.01836,-0.29274 0.00328,-0.58801 0.01987,-0.8808c0.02378,-0.4157 0.07844,-1.22403 0.10155,-1.24613c0.02312,-0.02209 0.0823,0.68746 0.12362,1.0309c0.0413,0.34344 0.07671,0.68822 0.12362,1.03091c0.03708,0.27079 0.09769,0.53917 0.12859,0.81071c0.03038,0.26829 -0.00762,0.5465 0.05518,0.80906c0.05072,0.21265 0.25128,0.59316 0.28035,0.59382c0.02907,0.00066 -0.05226,-0.39187 -0.06015,-0.58886c-0.00793,-0.19552 0.02941,-0.39237 0.01325,-0.5872c-0.02234,-0.27252 -0.09593,-0.53942 -0.12859,-0.81071c-0.02916,-0.24388 -0.02179,-0.49252 -0.05684,-0.73564c-0.04976,-0.34656 -0.19221,-1.03715 -0.19701,-1.03255c-0.0045,0.00431 0.08237,0.73652 0.12196,1.1043c0.02113,0.19611 0.03018,0.394 0.06016,0.58886c0.03405,0.22285 0.08694,0.44317 0.13189,0.6639c0.06505,0.3196 0.09906,0.64847 0.19867,0.95916c0.10704,0.33317 0.36838,0.96298 0.41887,0.96413c0.05049,0.00114 -0.03026,-0.63782 -0.05188,-0.95584c-0.01499,-0.22094 -0.04968,-0.44115 -0.0585,-0.66225c-0.02256,-0.56244 -0.00128,-1.12802 -0.03532,-1.68985c-0.01949,-0.32092 -0.08341,-0.63873 -0.12527,-0.9575c-0.04186,-0.31877 -0.11356,-0.89085 -0.12528,-0.9575c-0.01171,-0.06665 0.04019,0.39276 0.06016,0.58886c0.01996,0.19609 0.02252,0.39531 0.06016,0.58886c0.07238,0.37263 0.12244,0.7574 0.26876,1.10761c0.13601,0.32531 0.4831,0.86394 0.56732,0.89404c0.08422,0.03009 -0.1388,-0.77451 -0.13025,-0.73731c0.00856,0.0372 0.08938,0.69937 0.19701,1.03255c0.07743,0.23969 0.24299,0.6482 0.35209,0.66888c0.09623,0.01833 0.0734,-0.38903 0.08665,-0.58554c0.02328,-0.3414 0.04661,-0.68602 0.02318,-1.02759c-0.01367,-0.20123 -0.10839,-0.39048 -0.13355,-0.59051c-0.05799,-0.46337 -0.12084,-1.15422 -0.11534,-1.3979c0.00276,-0.12185 0.10663,0.39074 0.13355,0.59051c0.03597,0.26753 -0.00999,0.54703 0.05518,0.80906c0.07138,0.28654 0.27001,0.76602 0.34878,0.81567c0.07212,0.0454 0.02911,-0.39238 0.01325,-0.5872c-0.04179,-0.51706 -0.11684,-1.03221 -0.18542,-1.54636c-0.03618,-0.27106 -0.09741,-0.53917 -0.12859,-0.81071c-0.05058,-0.44 -0.11734,-1.30952 -0.11699,-1.32449c0.00033,-0.01498 0.06942,0.73799 0.12196,1.1043c0.03198,0.22308 0.08606,0.44315 0.13189,0.6639c0.08663,0.41819 0.16112,0.84023 0.26545,1.25442c0.07549,0.29986 0.16126,0.59935 0.27372,0.88741c0.11942,0.30554 0.3665,0.88951 0.42053,0.89072c0.05402,0.00122 -0.03078,-0.58907 -0.05352,-0.88244c-0.01524,-0.19656 -0.03224,-0.39376 -0.06016,-0.58886c-0.09874,-0.68841 -0.27968,-1.60018 -0.32064,-2.06346c-0.01566,-0.17778 0.12837,0.49492 0.20363,0.73896c0.06159,0.19967 0.12729,0.39913 0.20695,0.59216c0.17547,0.42461 0.38371,1.0776 0.55904,1.26103c0.09297,0.09727 0.03199,-0.44108 0.01491,-0.6606c-0.02117,-0.27249 -0.1179,-0.81575 -0.12859,-0.81071c-0.01069,0.00505 -0.02413,0.58753 -0.01987,0.8808c0.00522,0.3676 -0.03737,0.74527 0.04855,1.10264c0.1179,0.48999 0.37601,0.93702 0.55573,1.40783c0.07433,0.19526 0.08953,0.41943 0.20695,0.59216c0.1268,0.18646 0.39688,0.51978 0.50386,0.45199c0.11652,-0.07404 -0.03063,-0.49126 -0.05684,-0.73564c-0.0345,-0.31978 -0.10696,-0.63661 -0.12527,-0.9575c-0.01689,-0.29295 0.03882,-0.58809 0.01987,-0.8808c-0.01765,-0.2727 -0.09475,-0.5394 -0.12859,-0.81071c-0.04904,-0.3912 -0.0465,-0.79034 -0.1203,-1.1777c-0.05807,-0.30387 -0.27466,-0.8466 -0.27372,-0.88741c0.00092,-0.0408 0.20568,0.38828 0.28035,0.59382c0.08712,0.2399 0.10852,0.5021 0.20363,0.73896c0.11432,0.28429 0.33185,0.52449 0.42218,0.81733c0.07254,0.23487 -0.03643,0.50823 0.05684,0.73564c0.0788,0.19183 0.39053,0.4885 0.43046,0.45033c0.03993,-0.03816 -0.12413,-0.44842 -0.20529,-0.66556c-0.10363,-0.2767 -0.25138,-0.53677 -0.34878,-0.81567c-0.10983,-0.31385 -0.15099,-0.65112 -0.27207,-0.96082c-0.11136,-0.28539 -0.30639,-0.5336 -0.42218,-0.81733c-0.11692,-0.2864 -0.14998,-0.6041 -0.27372,-0.88741c-0.1799,-0.4112 -0.63388,-1.19897 -0.6341,-1.18929c-0.0002,0.00881 0.43475,0.88489 0.63079,1.33609c0.22256,0.51231 0.38724,1.05125 0.62582,1.55628c0.13596,0.28829 0.32482,0.54988 0.49558,0.81898c0.11261,0.17761 0.18305,0.40157 0.3554,0.52207c0.20908,0.1463 0.5618,0.3966 0.72903,0.23677c0.20806,-0.19887 0.02493,-0.63628 0.02153,-0.95418c-0.00441,-0.41634 -0.00289,-0.83519 -0.04525,-1.24945c-0.07794,-0.76373 -0.24354,-1.61317 -0.31566,-2.28366c-0.01895,-0.17608 0.08096,0.39574 0.13355,0.59051c0.06045,0.22402 0.12621,0.44758 0.20529,0.66556c0.08214,0.22627 0.20366,0.43847 0.2787,0.66722c0.06265,0.19147 0.13355,0.59051 0.13355,0.59051c0,0 -0.06171,-0.40206 -0.13355,-0.59051c-0.18304,-0.48029 -0.59103,-1.39306 -0.62913,-1.40949c-0.03811,-0.01642 0.27344,1.22551 0.26545,1.25441c-0.00799,0.0289 -0.21686,-0.64732 -0.34547,-0.96248c-0.10326,-0.25319 -0.23381,-0.49495 -0.35044,-0.74227c-0.09336,-0.19774 -0.1632,-0.40905 -0.28035,-0.59382c-0.12084,-0.19043 -0.26666,-0.36703 -0.4288,-0.52373c-0.15122,-0.14618 -0.4112,-0.48368 -0.50552,-0.37859c-0.13168,0.14684 0.00486,0.59201 0.05352,0.88244c0.03831,0.22881 0.16256,0.43753 0.20529,0.66556c0.04507,0.2416 0.16988,0.7382 0.05684,0.73564c-0.11802,-0.00266 -0.39018,-0.49143 -0.57063,-0.74725c-0.22258,-0.3161 -0.41409,-0.6547 -0.63907,-0.96909c-0.13128,-0.18332 -0.27808,-0.35612 -0.4288,-0.52373c-0.23125,-0.25696 -0.65941,-0.78361 -0.71744,-0.75055c-0.05803,0.03305 0.27915,0.92073 0.34547,0.96248c0.06632,0.04173 -0.08609,-0.78066 0.01657,-0.73398c0.11747,0.05347 0.34461,0.63639 0.49227,0.96578c0.08559,0.19052 0.13175,0.39718 0.20695,0.59216c0.08659,0.22461 0.27879,0.66281 0.2787,0.66722c-0.00011,0.0047 -0.18195,-0.3986 -0.28035,-0.59382c-0.08886,-0.1759 -0.19375,-0.34424 -0.28201,-0.52042c-0.12226,-0.24451 -0.20406,-0.51162 -0.35044,-0.74227c-0.13928,-0.21934 -0.3209,-0.41085 -0.50055,-0.59879c-0.20347,-0.21286 -0.52028,-0.63536 -0.64735,-0.60209c-0.1185,0.0311 0.08673,0.49164 0.13025,0.73731c0.06513,0.36836 0.10957,0.74183 0.19535,1.10595c0.07076,0.30092 0.19706,0.58783 0.27372,0.88741c0.08069,0.31613 0.0952,0.64987 0.19867,0.95916c0.10402,0.31107 0.42974,0.88624 0.42053,0.89072c-0.00921,0.00449 -0.36188,-0.56041 -0.56898,-0.82064c-0.15082,-0.18935 -0.36423,-0.32634 -0.50221,-0.52539c-0.24381,-0.35153 -0.39761,-0.76067 -0.63576,-1.1159c-0.21257,-0.31705 -0.67842,-0.87834 -0.71412,-0.89735c-0.0357,-0.01902 0.28671,0.49409 0.42383,0.74393c0.12104,0.22069 0.264,0.43306 0.35209,0.66888c0.0978,0.26099 0.11633,0.54693 0.20199,0.81235c0.09775,0.30241 0.23398,0.59218 0.34713,0.88907c0.1406,0.36918 0.2352,0.75936 0.41555,1.11092c0.12718,0.24815 0.47523,0.67958 0.4989,0.67218c0.02367,-0.0074 -0.19159,-0.49165 -0.27704,-0.74061c-0.07524,-0.21937 -0.11138,-0.45341 -0.20529,-0.66556c-0.09336,-0.21096 -0.26486,-0.38256 -0.35375,-0.59547c-0.09838,-0.23545 -0.11593,-0.49934 -0.20363,-0.73896c-0.12007,-0.32877 -0.2522,-0.65633 -0.41887,-0.96413c-0.11648,-0.215 -0.3799,-0.68654 -0.42715,-0.59713c-0.04757,0.09029 0.1272,0.68964 0.19701,1.03255c0.04019,0.19742 0.1131,0.39 0.13355,0.59051c0.01999,0.19462 -0.00884,0.39166 -0.01325,0.5872c-0.00607,0.26893 0.0078,0.53979 -0.01821,0.8074c-0.03794,0.39247 -0.02153,0.95418 -0.1733,1.17108c-0.07588,0.10844 -0.20088,-0.34087 -0.28201,-0.52042c-0.17539,-0.38936 -0.30507,-0.8 -0.4873,-1.18598c-0.0984,-0.20843 -0.2506,-0.38929 -0.35375,-0.59547c-0.10793,-0.2154 -0.19744,-0.44066 -0.2787,-0.66722c-0.14897,-0.4149 -0.23007,-0.85647 -0.41225,-1.25773c-0.1234,-0.27185 -0.43588,-0.7442 -0.49724,-0.74559c-0.06135,-0.00138 0.09704,0.4901 0.13025,0.73731c0.02971,0.21951 0.02201,0.44376 0.0585,0.66225c0.04995,0.2984 0.17716,0.58414 0.20033,0.88576c0.01524,0.19656 -0.04996,0.39191 -0.08665,0.58554c-0.04665,0.24481 -0.10647,0.48786 -0.16336,0.73068c-0.05137,0.21944 -0.04338,0.62087 -0.1617,0.65728c-0.10354,0.03203 -0.22072,-0.33309 -0.28201,-0.52042c-0.07778,-0.23705 -0.06724,-0.49619 -0.13025,-0.73731c-0.07247,-0.27687 -0.27562,-0.80374 -0.27538,-0.81401c0.00024,-0.01027 0.19033,0.44315 0.2787,0.66722c0.0967,0.24482 0.25081,0.73121 0.27704,0.74062c0.02623,0.00941 -0.04145,-0.44157 -0.0585,-0.66225c-0.02066,-0.26925 -0.01921,-0.54151 -0.05518,-0.80906c-0.02692,-0.19977 -0.11576,-0.38977 -0.13355,-0.59051c-0.02153,-0.24342 -0.05304,-0.72176 0.01657,-0.73398c0.0696,-0.01224 0.24473,0.44114 0.35209,0.66888c0.12616,0.26722 0.21104,0.55436 0.34878,0.81567c0.09803,0.18611 0.33768,0.539 0.3554,0.52207c0.01771,-0.01693 -0.14011,-0.4429 -0.20529,-0.66556c-0.09356,-0.31906 -0.20245,-0.63554 -0.27207,-0.96081c-0.04119,-0.19275 -0.02074,-0.39585 -0.06016,-0.58886c-0.07115,-0.34882 -0.23434,-0.68002 -0.27042,-1.03421c-0.04477,-0.43782 -0.16537,-1.04242 0.0298,-1.32119c0.10836,-0.155 0.38987,0.29667 0.57727,0.45365c0.1727,0.14461 0.32543,0.3143 0.50386,0.45199c0.2792,0.21545 0.67318,0.60268 0.86755,0.60706c0.12302,0.00278 -0.17312,-0.38607 -0.20695,-0.59216c-0.03177,-0.19312 0.02029,-0.3917 0.01325,-0.5872c-0.00794,-0.22137 -0.05292,-0.44093 -0.0585,-0.66225c-0.00748,-0.29333 -0.13961,-0.63441 0.01987,-0.8808c0.10714,-0.16561 0.41222,-0.14756 0.58886,-0.06016c0.23299,0.11511 0.34934,0.3874 0.50055,0.59879c0.13412,0.1875 0.21351,0.62726 0.35375,0.59547c0.155,-0.03499 0.09032,-0.67006 0.23677,-0.72903c0.11294,-0.04533 0.16545,0.36152 0.28201,0.52042c0.12283,0.16726 0.30613,0.2845 0.43046,0.45033c0.1383,0.18465 0.23602,0.39718 0.35375,0.59547c0.23575,0.39659 0.45746,0.80344 0.70749,1.19095c0.24636,0.38214 0.71318,1.08239 0.78256,1.1192c0.06938,0.03681 -0.22864,-0.59413 -0.34713,-0.88907c-0.08984,-0.2235 -0.22554,-0.43248 -0.2787,-0.66722c-0.05956,-0.26337 -0.09336,-0.80991 -0.05518,-0.80906c0.03816,0.00085 0.23271,0.54398 0.34878,0.81567c0.11606,0.27169 0.2499,0.53732 0.34878,0.81567c0.08534,0.24044 0.01414,0.84455 0.20363,0.73896c0.44267,-0.24733 0.54203,-1.14925 1.0607,-1.44481c0.21246,-0.12093 0.31217,0.38128 0.42715,0.59713c0.09836,0.18434 0.09877,0.41347 0.20695,0.59216c0.22543,0.37227 0.78421,1.0458 0.78421,1.0458" fill="none" stroke="#dede65" stroke-width="2" stroke-linecap="round"/><path d="M223.40565,193.01634c0,0 -0.55024,0.10685 -0.81235,0.20199c-0.1854,0.0672 -0.53617,0.17267 -0.52042,0.28201c0.01599,0.11169 0.38305,0.14289 0.58389,0.16004c0.19643,0.01677 0.60251,-0.0666 0.58886,-0.06015c-0.01366,0.00644 -0.48888,0.10823 -0.73731,0.13025c-0.19485,0.01734 -0.39258,-0.03323 -0.5872,-0.01325c-0.20049,0.02044 -0.39684,0.0777 -0.59051,0.13355c-0.20076,0.05774 -0.46217,0.30447 -0.59216,0.20695c-0.12277,-0.09178 0.07223,-0.38905 0.08665,-0.58554c0.02129,-0.29268 0.01325,-0.58749 0.01987,-0.8808c0.00495,-0.2199 -0.00297,-0.44128 0.01491,-0.6606c0.01588,-0.19645 0.03448,-0.39549 0.08665,-0.58554c0.05537,-0.20144 0.18567,-0.37886 0.23345,-0.58223c0.06146,-0.26298 0.07144,-0.53653 0.09161,-0.80574c0.01468,-0.19501 0.00884,-0.39166 0.01325,-0.5872c0.00495,-0.2199 0.02286,-0.4407 0.01491,-0.6606c-0.00701,-0.19697 -0.04019,-0.39276 -0.06016,-0.58885c-0.01996,-0.19609 -0.18204,-0.57632 -0.06016,-0.58886c0.17253,-0.01755 0.45645,0.32725 0.649,0.5287c0.14521,0.15191 0.29355,0.32122 0.3554,0.52207c0.05776,0.18695 0.02696,0.7059 -0.01325,0.5872c-0.08841,-0.26079 -0.17308,-0.93478 -0.26214,-1.40121c-0.0423,-0.22126 -0.08782,-0.4429 -0.13189,-0.6639c-0.04407,-0.22101 -0.00509,-0.47745 -0.13189,-0.6639c-0.12964,-0.19063 -0.36495,-0.29434 -0.57891,-0.38024c-0.18282,-0.07346 -0.39022,-0.05933 -0.58554,-0.08665c-0.21932,-0.0308 -0.43757,-0.09623 -0.65894,-0.08831c-0.20139,0.00721 -0.39387,0.08922 -0.59051,0.13355c-0.19664,0.04432 -0.38974,0.11458 -0.59051,0.13355c-0.21902,0.0209 -0.54258,0.17076 -0.6606,-0.01491c-0.15772,-0.24855 0.04501,-0.58883 0.09327,-0.87914c0.03704,-0.22242 0.13023,-0.43416 0.1617,-0.65728c0.02728,-0.19355 -0.00349,-0.39223 0.01325,-0.5872c0.01677,-0.19643 0.07076,-0.38909 0.08665,-0.58554c0.01787,-0.21932 0.00994,-0.44069 0.01491,-0.66059c0.00495,-0.2199 0.00994,-0.44069 0.01491,-0.6606c0.00551,-0.24456 0.01104,-0.48942 0.01657,-0.73398c0.00495,-0.2199 0.00994,-0.44069 0.01491,-0.66059c0.00441,-0.19554 -0.00261,-0.39221 0.01325,-0.5872c0.0179,-0.22079 0.07098,-0.43814 0.08831,-0.65893c0.01729,-0.21934 0.00994,-0.44069 0.01491,-0.6606c0.00495,-0.2199 0.00994,-0.44069 0.01491,-0.66059c0.00441,-0.19554 -0.01647,-0.59785 0.01325,-0.5872c0.02972,0.01065 0.16314,0.43754 0.20529,0.66556c0.06729,0.36371 0.04317,0.74268 0.12196,1.1043c0.07718,0.35511 0.20096,0.7016 0.34381,1.03587c0.09068,0.21208 0.19988,0.42368 0.35375,0.59547c0.20888,0.23325 0.50437,0.37739 0.72074,0.60375c0.2402,0.25128 0.44437,0.53671 0.64237,0.82229c0.1815,0.262 0.32154,0.55186 0.49558,0.81898c0.13344,0.20482 0.44282,0.7752 0.42715,0.59713c-0.04283,-0.48418 -0.34075,-1.28843 -0.54415,-1.92163c-0.20832,-0.6483 -0.45241,-1.28713 -0.69094,-1.92494c-0.0845,-0.22545 -0.23089,-0.68993 -0.2787,-0.66722c-0.04781,0.02272 -0.03066,0.53863 -0.01821,0.8074c0.02057,0.44225 0.03988,0.8886 0.11699,1.3245c0.05394,0.30466 0.21478,0.58382 0.27372,0.88741c0.05129,0.26523 0.0192,0.54151 0.05518,0.80906c0.08986,0.66531 0.20915,1.32835 0.3223,1.99006c0.03788,0.22205 0.05894,0.90284 0.13189,0.6639c0.29209,-0.95514 0.47222,-1.98683 0.58169,-2.99778c0.10767,-0.99661 0.04529,-2.00732 0.06788,-3.00937c0.01379,-0.61098 0.02761,-1.224 0.04139,-1.83498c0.00882,-0.39107 0.02413,-0.78317 0.02649,-1.17438c0.00636,-1.07585 -0.05474,-2.16997 -0.00054,-3.23123c0.01362,-0.26524 0.10639,0.44008 0.13189,0.6639c0.03604,0.3166 0.00671,0.64023 0.05188,0.95584c0.06067,0.42261 0.19299,0.83361 0.26545,1.25442c0.12207,0.70892 0.2367,1.42209 0.31898,2.13686c0.08155,0.708 0.13036,1.42204 0.17218,2.13355c0.02893,0.48886 0.02076,0.9804 0.04028,1.46965c0.01187,0.29431 0.01841,0.59026 0.05352,0.88244c0.02697,0.22386 0.13179,0.6686 0.13189,0.6639c0.0001,-0.0044 -0.09969,-0.48986 -0.13025,-0.73731c-0.09363,-0.75852 -0.1869,-1.51995 -0.24227,-2.282c-0.05668,-0.78176 -0.14106,-2.01594 -0.09381,-2.35209c0.02867,-0.20292 0.20671,0.73316 0.26876,1.10761c0.15355,0.92789 0.24662,1.86762 0.37748,2.79911c0.05872,0.41786 0.1513,0.83267 0.19205,1.25276c0.01881,0.19459 0.00813,0.74629 -0.01325,0.5872c-0.07299,-0.54067 -0.0946,-1.32751 -0.17549,-1.98675c-0.0846,-0.69015 -0.24311,-1.37229 -0.32064,-2.06346c-0.02443,-0.21881 -0.04707,-0.75188 0.01491,-0.6606c0.08899,0.13096 0.24669,0.7837 0.3405,1.18267c0.06273,0.26608 0.07323,0.54302 0.12859,0.81071c0.0771,0.37157 0.18364,1.00053 0.26876,1.10761c0.0657,0.08255 0.06483,-0.43887 0.08831,-0.65894c0.03879,-0.36542 0.10405,-0.73172 0.09824,-1.09934c-0.0044,-0.27328 -0.09769,-0.53917 -0.12859,-0.81071c-0.03038,-0.26829 -0.07945,-0.80166 -0.05518,-0.80906c0.02425,-0.00739 0.19159,0.49165 0.27704,0.74062c0.07524,0.21937 0.1336,0.4451 0.20529,0.66556c0.08844,0.27224 0.21801,0.89584 0.27538,0.81401c0.05736,-0.08183 0.03993,-0.83246 0.02815,-1.24779c-0.01543,-0.53996 -0.08788,-1.07856 -0.11036,-1.6181c-0.00914,-0.21992 0.00994,-0.44069 0.01491,-0.66059c0.00441,-0.19554 -0.10701,-0.55583 0.01325,-0.5872c0.13829,-0.03624 0.38302,0.26156 0.50386,0.45199c0.12424,0.1958 0.14041,0.44291 0.20529,0.66556c0.07143,0.24513 0.12481,0.49631 0.20363,0.73896c0.08129,0.25034 0.21052,0.48591 0.27704,0.74062c0.06924,0.26446 0.09881,0.90638 0.12859,0.81071c0.02977,-0.09568 0.08104,-0.88411 0.0298,-1.32119c-0.11361,-0.96664 -0.38426,-1.91244 -0.52261,-2.87582c-0.03452,-0.24077 0.00994,-0.44069 0.01491,-0.6606c0.00441,-0.19554 -0.09443,-0.55408 0.01325,-0.5872c0.11418,-0.03532 0.31688,0.27681 0.43046,0.45033c0.14965,0.22868 0.23916,0.49273 0.35044,0.74227c0.09814,0.21989 0.207,0.69409 0.2787,0.66722c0.07169,-0.02688 0.03016,-0.54275 0.09161,-0.80574c0.04776,-0.20337 0.04296,-0.51104 0.23345,-0.58223c0.17983,-0.06733 0.41535,0.13069 0.50716,0.30519c0.16309,0.30976 0.14962,0.68575 0.19701,1.03255c0.03656,0.26755 0.01921,0.54151 0.05518,0.80906c0.02692,0.19977 0.10633,0.39073 0.13355,0.59051c0.05673,0.41458 0.03713,0.84066 0.11864,1.25109c0.05146,0.25819 0.18715,0.49302 0.27704,0.74061c0.07136,0.19636 0.12285,0.4008 0.20695,0.59216c0.07935,0.18039 0.19315,0.34452 0.28201,0.52042c0.09841,0.19521 0.1632,0.40905 0.28035,0.59382c0.12084,0.19043 0.4512,0.29951 0.4288,0.52373c-0.02239,0.22422 -0.33727,0.30199 -0.52373,0.4288c-0.16289,0.11088 -0.34902,0.18453 -0.52042,0.28201c-0.20027,0.11416 -0.39718,0.23602 -0.59547,0.35375c-0.1983,0.11772 -0.382,0.26603 -0.59547,0.35374c-0.1865,0.07657 -0.39684,0.0777 -0.59051,0.13355c-0.20076,0.05774 -0.57914,0.28069 -0.59216,0.20695c-0.01303,-0.07373 0.36645,-0.37126 0.52705,-0.57561c0.21776,-0.27737 0.41099,-0.5744 0.60706,-0.86755c0.33562,-0.50208 0.63051,-1.03387 0.98896,-1.51987c0.12333,-0.167 0.45543,-0.43534 0.45033,-0.43046c-0.0042,0.00402 -0.34519,0.3406 -0.52539,0.50221c-0.21916,0.19656 -0.44523,0.38681 -0.67384,0.57229c-0.2699,0.21891 -0.54098,0.4384 -0.82229,0.64237c-0.34044,0.24701 -0.67731,0.50495 -1.04415,0.71081c-0.18207,0.10223 -0.58094,0.25656 -0.59216,0.20695c-0.01122,-0.0496 0.35036,-0.3349 0.52539,-0.50221c0.09997,-0.09556 0.30023,-0.28698 0.30023,-0.28698" fill="none" stroke="#dede65" stroke-width="2" stroke-linecap="round"/><path d="M217.37615,186.46273l-0.21448,-3.47558l0.29989,-7.39215l0.14237,-3.35993" fill="none" stroke="#000000" stroke-width="1.82237" stroke-linecap="round"/><g stroke="#000000"><path d="M199.22378,175.72723c0.71232,0.28749 -0.68145,3.35744 -0.37969,3.81014c0.21943,0.31221 1.03971,-2.50629 1.23068,-2.46908c0.10968,-0.08301 -0.6294,0.90699 -0.91391,1.44812c-0.15607,0.2256 -0.90383,-0.52211 -0.8808,-0.01987c0.09214,2.00925 1.05576,4.23056 1.48894,5.61478c0.03675,0.53251 -0.18193,-1.16764 -0.54746,-1.77484c-1.00135,-1.5771 -3.85621,-2.29567 -3.75339,-4.19713c0.07372,-1.47088 2.78026,-2.82334 3.75563,-2.41213z" fill="none" stroke-width="2" stroke-linecap="round"/><path d="M198.74631,169.54778l0.53529,8.82448l-0.92938,8.64456l-2.90286,-1.53422l-0.28475,-6.90947l0.62917,-8.3576z" fill="#ccd8ff" stroke-width="2" stroke-linecap="round"/><path d="M222.09077,163.32549l-14.67418,5.83042l-4.85411,-5.98938l-4.31971,-4.2025l0.3118,-0.43411l15.39574,1.08959z" fill="#ff0000" stroke-width="2" stroke-linecap="round"/><path d="M212.88298,198.46775l-15.42921,0.39419l-0.2919,-0.44774l4.50483,-4.00343l5.11928,-5.76439l14.3963,6.48623z" fill="#ff0000" stroke-width="2" stroke-linecap="round"/><path d="M245.80352,180.00927c-0.10786,2.52849 -2.06831,4.63712 -3.52871,6.67656c-0.5982,0.82574 -1.55253,1.20136 -2.38852,1.7086c-1.12575,0.68225 -2.68125,2.57501 -3.71633,1.97239c-1.09003,-0.75807 -0.27019,-3.16623 -0.53359,-4.69407c-0.36613,-2.11737 -1.18214,-3.88826 -1.12641,-6.35888c0.05573,-2.47062 1.06931,-4.18263 1.41203,-6.30162c0.20869,-1.33419 -0.98458,-3.97369 0.00412,-4.38818c1.25653,-0.33355 3.0769,2.03575 4.48784,2.89184c0.73415,0.43926 1.61201,0.5369 2.17218,1.37086c1.41016,2.17939 3.22465,4.54886 3.21741,7.12251z" fill="#ff0000" stroke-width="2" stroke-linecap="butt"/><path d="M238.33334,179.10637c-0.10096,3.6158 0.31006,8.40463 -2.59054,10.66331c-4.89311,3.80937 -11.62873,5.2034 -17.88849,5.17764c-6.27649,-0.02586 -13.34096,-0.93076 -17.95103,-5.09699c-2.89144,-2.61319 -0.73718,-7.75274 -0.6184,-11.62487c0.05172,-3.68595 -1.74739,-8.72875 1.12876,-10.99797c4.87813,-3.84906 11.84241,-4.53178 18.16262,-4.28227c6.29467,0.24863 12.83109,2.05988 17.63679,5.97907c2.66287,2.17211 2.17978,6.68492 2.12026,10.18209z" fill="#ccd8ff" stroke-width="2" stroke-linecap="round"/><path d="M233.77866,179.92819c-0.06065,2.68838 -1.32329,5.09731 -3.31373,6.81775c-1.99078,1.71998 -4.70937,2.75103 -7.68257,2.68396c-2.97323,-0.06708 -5.64253,-1.21968 -7.55375,-3.02769c-1.91083,-1.80844 -3.06355,-4.27187 -3.0029,-6.96025c0.06065,-2.68838 1.32329,-5.09735 3.31373,-6.81775c1.99082,-1.72001 4.70937,-2.75103 7.6826,-2.68396c2.97321,0.06708 5.64253,1.21965 7.55372,3.02769c1.91083,1.80841 3.06355,4.27187 3.0029,6.96025z" fill="#ffffff" stroke-width="2.59135" stroke-linecap="butt"/><path d="M232.54139,179.88201c-0.05434,2.40856 -1.18556,4.56678 -2.96882,6.10808c-1.78358,1.54097 -4.21917,2.4647 -6.88291,2.40461c-2.66374,-0.06009 -5.0552,-1.09272 -6.76748,-2.71256c-1.71191,-1.62016 -2.74467,-3.8272 -2.69034,-6.23575c0.05434,-2.40856 1.18556,-4.56675 2.96882,-6.10808c1.78358,-1.54097 4.21917,-2.4647 6.88291,-2.40461c2.66374,0.06009 5.0552,1.09272 6.76748,2.71256c1.71191,1.62019 2.74467,3.8272 2.69034,6.23575z" fill="#001966" stroke-width="2.32162" stroke-linecap="butt"/><path d="M198.85006,171.45948l-2.94922,0.52096" fill="none" stroke-width="2" stroke-linecap="round"/><path d="M199.06749,174.84246l-3.22626,-0.21966" fill="none" stroke-width="2" stroke-linecap="round"/><path d="M199.14805,177.78175l-3.52648,0.06732" fill="none" stroke-width="2" stroke-linecap="round"/><path d="M195.54871,181.07864l3.08608,-0.07725" fill="none" stroke-width="2" stroke-linecap="round"/><path d="M195.63921,183.57754l2.91942,0.80022" fill="none" stroke-width="2" stroke-linecap="round"/><path d="M206.89691,179.35186c-0.0105,0.46565 -0.24199,0.88283 -0.60766,1.18037c-0.36567,0.29754 -0.86553,0.47543 -1.41221,0.4631c-0.54667,-0.01233 -1.03801,-0.21259 -1.38989,-0.52632c-0.35188,-0.31373 -0.56432,-0.74093 -0.55381,-1.20657c0.0105,-0.46565 0.24199,-0.88283 0.60766,-1.18037c0.36567,-0.29754 0.86553,-0.47544 1.41221,-0.46311c0.54667,0.01233 1.03801,0.21259 1.38989,0.52632c0.35188,0.31373 0.56432,0.74093 0.55381,1.20657z" fill="none" stroke-width="2" stroke-linecap="butt"/><path d="M245.75886,178.3824l13.40634,2.06263l-13.56224,1.50452l0.20049,-1.64251z" fill="url(#color-1)" stroke-width="1.71206" stroke-linecap="round"/><path d="M249.65978,179.97404c-0.02478,1.09802 -0.19234,2.08967 -0.4433,2.8048c-0.25078,0.71511 -0.58476,1.15373 -0.94219,1.14565c-0.35742,-0.00806 -0.67129,-0.46129 -0.88957,-1.18698c-0.21848,-0.72573 -0.34113,-1.72391 -0.31635,-2.82193c0.02478,-1.09802 0.1923,-2.08967 0.4433,-2.8048c0.25078,-0.71511 0.58476,-1.15372 0.94219,-1.14565c0.35742,0.00806 0.67129,0.46129 0.88957,1.18698c0.21845,0.72573 0.34113,1.72391 0.31635,2.82193z" fill="none" stroke-width="1.26093" stroke-linecap="butt"/><path d="M245.91034,179.992c-0.04572,2.02638 -0.31523,3.85748 -0.71354,5.17884c-0.39831,1.32139 -0.92545,2.13284 -1.48681,2.12018c-0.56136,-0.01266 -1.05136,-0.84707 -1.38968,-2.18507c-0.33832,-1.33799 -0.525,-3.17937 -0.47928,-5.20576c0.04572,-2.02638 0.31523,-3.85745 0.71354,-5.17884c0.39831,-1.32139 0.92545,-2.13281 1.48681,-2.12015c0.56136,0.01266 1.05137,0.84703 1.38969,2.18504c0.33832,1.33801 0.525,3.17937 0.47928,5.20576z" fill="none" stroke-width="1.65149" stroke-linecap="butt"/></g><path d="M221.7594,194.37449c0,0 -0.34244,-0.00302 -0.29194,-0.08003c0.13962,-0.21246 0.42884,-0.36309 0.67218,-0.4989c0.18237,-0.10193 0.58756,-0.21175 0.59216,-0.20695c0.00459,0.00481 -0.34451,0.19315 -0.52042,0.28201c-0.19521,0.09841 -0.37537,0.27177 -0.59382,0.28035c-0.20875,0.00822 -0.56732,-0.08682 -0.58223,-0.23345c-0.01517,-0.14781 0.34134,-0.24786 0.52207,-0.3554c0.41446,-0.24621 1.05756,-0.62855 1.26435,-0.70584c0.11791,-0.04405 -0.3333,0.30797 -0.52374,0.4288c-0.18477,0.11715 -0.3836,0.21989 -0.59382,0.28035c-0.18953,0.05448 -0.39185,0.0646 -0.58886,0.06016c-0.197,-0.00445 -0.58674,-0.03351 -0.58554,-0.08665c0.00121,-0.05314 0.43513,-0.0692 0.59216,-0.20695c0.16452,-0.14405 0.26412,-0.36622 0.30685,-0.58057c0.04337,-0.21698 -0.09395,-0.63984 -0.0585,-0.66225c0.03546,-0.02241 0.25587,0.63733 0.28201,0.52042c0.04966,-0.22213 -0.07281,-0.835 -0.11864,-1.2511c-0.03539,-0.31952 -0.1331,-0.93566 -0.12527,-0.9575c0.00784,-0.02185 0.14727,0.49007 0.20363,0.73896c0.05503,0.24329 0.09881,0.48985 0.13025,0.73731c0.03093,0.24362 0.06389,0.7223 0.05684,0.73564c-0.00705,0.01336 -0.10073,-0.39148 -0.13355,-0.59051c-0.03203,-0.19459 -0.04579,-0.3923 -0.06016,-0.58886c-0.02308,-0.31807 -0.04379,-0.63724 -0.05188,-0.95584c-0.00499,-0.19546 -0.03726,-0.60096 0.01325,-0.5872c0.0505,0.01377 0.18589,0.44511 0.2787,0.66722c0.18561,0.44422 0.43798,1.1461 0.55738,1.33444c0.06779,0.10699 -0.11346,-0.43937 -0.13189,-0.6639c-0.02006,-0.24368 -0.06575,-0.87478 0.01657,-0.73398c0.18865,0.32269 0.40698,1.34808 0.54912,1.70143c0.0573,0.14259 -0.07956,-0.44476 -0.13189,-0.6639c-0.05932,-0.24838 -0.12038,-0.49768 -0.20363,-0.73896c-0.14669,-0.42484 -0.32829,-0.83841 -0.48564,-1.25937c-0.07314,-0.19552 -0.18579,-0.3843 -0.20695,-0.59216c-0.01996,-0.19609 0.0132,-0.40272 0.08665,-0.58554c0.16278,-0.4058 0.41571,-0.77111 0.61368,-1.16115c0.10913,-0.21462 0.23402,-0.42506 0.3085,-0.65398c0.0843,-0.26012 0.288,-0.56602 0.16502,-0.80409c-0.0881,-0.1706 -0.39634,0.02954 -0.5872,-0.01325c-0.30192,-0.06762 -0.60379,-0.16343 -0.87417,-0.31347c-0.19699,-0.10931 -0.37896,-0.51967 -0.50386,-0.45199c-0.13531,0.07332 0.0007,0.48999 -0.01657,0.73398c-0.019,0.26922 -0.09103,0.7799 -0.09161,0.80574c-0.00059,0.02584 0.08195,-0.58565 0.08665,-0.58554c0.0047,0.00011 -0.02118,0.39167 -0.01325,0.5872c0.0079,0.19699 0.03018,0.394 0.06016,0.58886c0.03405,0.22285 0.09786,0.44107 0.13189,0.6639c0.02997,0.19483 0.03519,0.39324 0.06016,0.58886c0.03741,0.29517 0.12716,0.87413 0.12693,0.8841c-0.00023,0.00998 -0.08171,-0.4927 -0.13025,-0.73731c-0.03931,-0.1977 -0.09838,-0.39202 -0.13355,-0.59051c-0.05185,-0.29286 -0.19485,-0.80309 -0.12693,-0.8841c0.06521,-0.07755 0.23702,0.40514 0.4288,0.52373c0.23698,0.14664 0.63212,0.33944 0.80243,0.23841c0.12744,-0.07585 -0.10354,-0.41064 -0.20695,-0.59216c-0.11161,-0.19581 -0.27957,-0.35469 -0.4288,-0.52373c-0.1372,-0.15555 -0.2586,-0.33424 -0.43046,-0.45033c-0.17302,-0.11699 -0.3868,-0.15943 -0.58223,-0.23345c-0.21699,-0.08216 -0.43105,-0.17687 -0.65562,-0.23511c-0.1907,-0.04953 -0.38909,-0.07076 -0.58554,-0.08665c-0.21932,-0.01787 -0.65578,-0.01949 -0.66059,-0.01491c-0.00481,0.00459 0.39258,0.04586 0.58554,0.08665c0.19734,0.04175 0.38247,0.1555 0.58389,0.16004c0.22549,0.00509 0.4393,-0.15019 0.6639,-0.13189c0.20817,0.01704 0.56878,0.28249 0.58223,0.23345c0.01344,-0.04905 -0.53507,-0.44858 -0.50221,-0.52539c0.03287,-0.07681 0.43816,0.10887 0.65728,0.1617c0.34036,0.082 0.67764,0.18419 1.02262,0.24338c0.31427,0.05379 0.94777,0.08513 0.95254,0.09493c0.00478,0.0098 -0.58826,0.06016 -0.88244,0.05352c-0.197,-0.00445 -0.65028,0.03586 -0.58554,-0.08665c0.12704,-0.24036 0.63597,-0.44302 0.96909,-0.63907c0.18844,-0.11089 0.39272,-0.19441 0.59382,-0.28035c0.34228,-0.1465 0.69106,-0.28109 1.03753,-0.41721c0.41819,-0.16447 1.04129,-0.32372 1.25937,-0.48564c0.10187,-0.07554 -0.3921,-0.02824 -0.5872,-0.01325c-0.29662,0.02298 -0.58666,0.11954 -0.8841,0.12693c-0.22132,0.00558 -0.64719,-0.03634 -0.65894,-0.08831c-0.01175,-0.05197 0.38925,-0.15777 0.59216,-0.20695c0.53608,-0.13008 1.0822,-0.22321 1.62307,-0.33057c0.34346,-0.06834 0.68311,-0.17582 1.03256,-0.19701c0.24532,-0.01473 0.73561,-0.05537 0.73234,0.08995c-0.00417,0.18497 -0.48744,0.39585 -0.74725,0.57063c-0.16346,0.10999 -0.34338,0.19523 -0.52042,0.28201c-0.49099,0.24066 -0.97595,0.50027 -1.48455,0.70088c-0.43154,0.17033 -1.11101,0.32832 -1.33112,0.41059c-0.11228,0.04182 0.39047,-0.1081 0.59051,-0.13355c0.29194,-0.03718 0.58975,-0.02194 0.88244,-0.05352c0.27178,-0.02911 0.53763,-0.12035 0.81071,-0.12859c0.19694,-0.00584 0.61873,0.00867 0.58554,0.08665c-0.03319,0.07798 -0.48725,0.2052 -0.74061,0.27704c-0.38788,0.10992 -0.78199,0.20972 -1.18101,0.2671c-0.19362,0.02765 -0.5875,0.00026 -0.5872,-0.01325c0.0003,-0.01351 0.39904,-0.0709 0.59051,-0.13355c0.22876,-0.07502 0.43301,-0.22258 0.66722,-0.2787c0.23893,-0.05718 0.72367,-0.12438 0.73564,-0.05684c0.01199,0.06754 -0.45556,0.27172 -0.67052,0.42549c-0.18332,0.13128 -0.32878,0.3157 -0.52373,0.4288c-0.25538,0.14846 -0.77334,0.36031 -0.81567,0.34878c-0.04233,-0.01152 0.36703,-0.26666 0.52373,-0.4288c0.14618,-0.15122 0.22667,-0.3603 0.37859,-0.50552c0.22637,-0.21637 0.49399,-0.38659 0.74725,-0.57063c0.26907,-0.19544 0.52269,-0.42149 0.82064,-0.56898c0.22873,-0.11322 0.71654,-0.25085 0.73896,-0.20363c0.02243,0.04722 -0.35639,0.40703 -0.59879,0.50055c-0.20535,0.07909 -0.65128,0.01498 -0.6606,-0.01491c-0.00932,-0.02988 0.40556,-0.11276 0.59216,-0.20695c0.18778,-0.09475 0.34446,-0.24279 0.52207,-0.3554c0.2691,-0.17076 0.54421,-0.33405 0.81898,-0.49558c0.2456,-0.14457 0.46774,-0.35575 0.74393,-0.42383c0.1559,-0.03526 0.39131,-0.02789 0.36534,0.08168c-0.05591,0.25195 -0.45393,0.36898 -0.67384,0.57229c-0.04298,0.14767 0.0546,0.37899 -0.08334,0.43874c-0.17713,0.07796 -0.39501,0.02311 -0.5872,-0.01325c-0.25066,-0.04766 -0.70351,-0.18302 -0.72903,-0.23677c-0.02552,-0.05374 0.40428,0.00882 0.58886,-0.06016c0.197,-0.07369 0.37504,-0.20479 0.52207,-0.3554c0.20839,-0.21355 0.34125,-0.49167 0.53035,-0.7224c0.26399,-0.32186 0.56145,-0.61683 0.82892,-0.93598c0.13494,-0.16115 0.40156,-0.46916 0.37859,-0.50552c-0.02298,-0.03635 -0.53056,0.24946 -0.52042,0.28201c0.01013,0.03254 0.41857,0.0394 0.58886,-0.06016c0.18158,-0.10606 0.28998,-0.31482 0.37859,-0.50552c0.09508,-0.20436 0.13082,-0.43414 0.1617,-0.65728c0.05718,-0.41231 0.10155,-1.24613 0.10155,-1.24613" fill="none" stroke="#dede65" stroke-width="2" stroke-linecap="round"/><path d="M221.19927,186.65141c0,0 -0.52991,-0.24765 -0.79967,-0.36061c-0.1909,-0.07995 -0.39105,-0.14009 -0.58256,-0.21867c-0.22061,-0.09048 -0.64794,-0.27608 -0.65442,-0.28883c-0.00646,-0.01274 0.39307,0.08971 0.5841,0.15021c0.19804,0.06257 0.38701,0.14932 0.58256,0.21867c0.2171,0.07699 0.44164,0.13713 0.65596,0.22034c0.22247,0.08641 0.71078,0.29009 0.65442,0.28883c-0.05638,-0.00128 -0.68176,-0.19653 -1.02141,-0.29711c-0.24336,-0.07208 -0.49164,-0.1344 -0.72935,-0.22198c-0.22403,-0.08261 -0.42915,-0.20893 -0.65442,-0.28883c-0.18855,-0.06674 -0.4841,0.01349 -0.5841,-0.15019c-0.10001,-0.16367 0.10105,-0.3647 0.15916,-0.54454c0.07357,-0.2277 0.17608,-0.44849 0.23565,-0.67982c0.07501,-0.29153 0.10502,-0.59259 0.16689,-0.88691c0.04774,-0.22802 0.11597,-0.45313 0.16224,-0.68148c0.03639,-0.18059 0.13626,-0.54503 0.08576,-0.54617c-0.05049,-0.00114 -0.29494,0.33946 -0.37935,0.53954c-0.09993,0.237 -0.11554,0.4992 -0.16379,0.74996c-0.03492,0.1809 -0.07152,0.55333 -0.08576,0.54617c-0.01422,-0.00717 -0.06416,-0.41143 -0.0595,-0.61798c0.00415,-0.18379 0.04733,-0.36588 0.08576,-0.54617c0.04372,-0.20619 0.15479,-0.62437 0.1607,-0.61302c0.00591,0.01138 -0.039,0.50449 -0.09039,0.75162c-0.08598,0.41269 -0.20278,1.08505 -0.3214,1.22599c-0.08059,0.09574 -0.09777,-0.4574 -0.13135,-0.68809c-0.03004,-0.20486 -0.05417,-0.41146 -0.0595,-0.61798c-0.0077,-0.29641 -0.00157,-0.59446 0.02008,-0.89022c0.01354,-0.18332 0.06929,-0.36292 0.08576,-0.54617c0.01644,-0.18187 -0.01462,-0.36728 0.01236,-0.54782c0.03113,-0.20813 0.14276,-0.40347 0.1607,-0.61302c0.0156,-0.18327 -0.04078,-0.36652 -0.06104,-0.54948c-0.02025,-0.183 -0.13433,-0.62102 -0.06104,-0.54948c0.11583,0.11306 0.34456,0.84665 0.49217,0.97027c0.08533,0.07154 0.00824,-0.36538 0.01236,-0.54782c0.00721,-0.31937 0.01443,-0.63931 0.02163,-0.95872c0.00514,-0.22814 0.0103,-0.4566 0.01545,-0.68479c0.00463,-0.20514 0.00928,-0.41113 0.0139,-0.61629c0.00566,-0.25091 0.0412,-0.74505 0.01699,-0.75328c-0.0242,-0.00822 -0.29622,0.44827 -0.23565,0.67982c0.05003,0.19077 0.41103,0.17864 0.50608,0.35399c0.11112,0.20478 0.0496,0.45743 0.05795,0.68644c0.00676,0.18243 0.04212,0.37256 -0.01236,0.54786c-0.0548,0.17662 -0.2496,0.29611 -0.30441,0.4727c-0.05448,0.17529 0.00409,0.36598 -0.01236,0.54786c-0.01647,0.18325 -0.03651,0.36833 -0.08576,0.54617c-0.05789,0.20943 -0.18147,0.40068 -0.2341,0.61136c-0.05555,0.22317 -0.14018,0.45888 -0.08884,0.68314c0.04384,0.19198 0.18759,0.3698 0.35618,0.48761c0.18594,0.13 0.43384,0.15751 0.65596,0.22036c0.216,0.06103 0.43894,0.10032 0.65751,0.15184c0.31645,0.07455 0.62989,0.16523 0.94955,0.22699c0.21701,0.04188 0.43821,0.06743 0.65905,0.08337c0.24371,0.01754 0.48942,0.01104 0.73398,0.01657c0.19554,0.00441 0.3976,0.05776 0.5872,0.01325c0.26489,-0.06226 0.4974,-0.21215 0.74171,-0.32583c0.17604,-0.0821 0.35384,-0.16412 0.51997,-0.26233c0.20632,-0.12196 0.39642,-0.2673 0.59646,-0.39761c0.17231,-0.11232 0.34238,-0.22877 0.52152,-0.3308c0.16813,-0.0957 0.35185,-0.16664 0.51997,-0.26233c0.17914,-0.102 0.36984,-0.19555 0.52152,-0.3308c0.17656,-0.15744 0.32965,-0.34115 0.45276,-0.53788c0.13256,-0.21185 0.23324,-0.44309 0.30904,-0.67816c0.05684,-0.17602 0.0523,-0.36495 0.08576,-0.54617c0.05023,-0.27346 0.11511,-0.54498 0.16534,-0.81844c0.03347,-0.18122 0.07395,-0.62152 0.08576,-0.54617c0.01336,0.08525 -0.0444,0.64002 -0.02163,0.95869c0.03308,0.46034 0.12972,0.91636 0.1893,1.37453c0.02379,0.18252 -0.08422,0.4777 0.06104,0.54952c0.14525,0.07178 0.39834,-0.11792 0.51997,-0.26233c0.12435,-0.14765 0.1177,-0.36048 0.15916,-0.54451c0.04048,-0.17997 -0.05663,-0.41922 0.08576,-0.54617c0.1424,-0.12697 0.43176,-0.16703 0.58874,-0.05525c0.18473,0.13163 0.17088,0.40726 0.2063,0.62129c0.03,0.18045 -0.02203,0.57311 -0.01236,0.54782c0.00968,-0.02528 0.07239,-0.50015 0.09039,-0.7516c0.01799,-0.25036 0.05339,-0.50442 0.01699,-0.75328c-0.02825,-0.19328 -0.07762,-0.40022 -0.20784,-0.55279c-0.12307,-0.14418 -0.37109,-0.15225 -0.50762,-0.28551c-0.13653,-0.13324 -0.18863,-0.32406 -0.28278,-0.48595c-0.09416,-0.16192 -0.35921,-0.53594 -0.28278,-0.48598c0.10248,0.067 0.50945,0.49079 0.71701,0.76981c0.17505,0.23525 0.33942,0.48808 0.4234,0.76321c0.10119,0.33222 0.16954,0.68813 0.12363,1.03049c-0.0449,0.33632 -0.2552,0.63526 -0.38863,0.9504c-0.12504,0.29511 -0.24953,0.59182 -0.38708,0.88196c-0.11937,0.2519 -0.25184,0.49883 -0.38399,0.74498c-0.09781,0.18224 -0.14166,0.40705 -0.30595,0.5412c-0.15682,0.12829 -0.40088,0.11348 -0.59182,0.19219c-0.23009,0.09486 -0.62419,0.14187 -0.66832,0.32748c-0.03699,0.15512 0.29586,0.34925 0.50608,0.35399c0.25162,0.00568 0.66391,-0.32759 0.66832,-0.32748c0.0047,0.00011 -0.42222,0.18699 -0.59492,0.32914c-0.15744,0.12966 -0.23849,0.32432 -0.37781,0.47107c-0.13721,0.14464 -0.28259,0.28661 -0.44967,0.40095c-0.15872,0.10848 -0.33553,0.19823 -0.51997,0.26231c-0.1886,0.06563 -0.39671,0.07189 -0.59029,0.12372c-0.20066,0.05357 -0.45041,0.33021 -0.59182,0.19219c-0.21786,-0.21265 -0.08791,-0.59559 -0.12672,-0.89353c-0.08638,-0.66324 -0.15683,-1.32995 -0.2488,-1.99251c-0.07629,-0.55064 -0.22529,-1.06841 -0.25653,-1.65009c-0.12552,-2.32681 -0.08861,-4.66615 -0.20942,-6.9931c-0.03005,-0.58168 -0.15464,-0.72317 -0.20012,-0.89522c-0.02636,-0.09486 0.12613,0.39859 0.06259,0.48102c-0.11182,0.04765 -0.2441,0.22115 -0.37935,0.53954c-0.14908,-0.52706 -0.13113,-1.06215 -0.19856,-0.96365c-0.09763,0.14796 -0.07357,0.68347 -0.09657,1.02553c-0.01372,0.20497 -0.00928,0.41116 -0.0139,0.61632c-0.00566,0.25087 -0.01134,0.50235 -0.01699,0.75325c-0.00463,0.20516 -0.00928,0.41116 -0.0139,0.61632c-0.00721,0.31937 0.08413,0.88023 -0.02163,0.95869c-0.09769,0.07235 -0.41661,-0.66028 -0.4265,-0.62622c-0.00987,0.03403 0.21933,0.60346 0.34691,0.89849c0.08179,0.18928 0.20181,0.3641 0.28124,0.55445c0.19924,0.47835 0.38659,0.9627 0.55476,1.45129c0.06175,0.17926 0.09749,0.36615 0.13443,0.55117c0.07283,0.36531 0.08161,0.74452 0.19548,1.10061c0.09384,0.29343 0.45224,0.8395 0.42186,0.83169c-0.03038,-0.00783 -0.5192,-0.5793 -0.71391,-0.90677c-0.13896,-0.2339 -0.1694,-0.51191 -0.27661,-0.75991c-0.10246,-0.2369 -0.32835,-0.69254 -0.35154,-0.69306c-0.0232,-0.00052 0.073,0.4618 0.13135,0.68809c0.05429,0.21061 0.07551,0.44212 0.20629,0.62129c0.11853,0.16245 0.51087,0.34971 0.50608,0.35399c-0.00449,0.00401 -0.40335,-0.16751 -0.58101,-0.28717c-0.21094,-0.14206 -0.58143,-0.50256 -0.57638,-0.49261c0.00506,0.00998 0.3956,0.45895 0.64669,0.63122c0.23835,0.1635 0.52467,0.25902 0.79967,0.36061c0.18762,0.06918 0.38434,0.12488 0.5841,0.15021c0.24224,0.03067 0.49634,0.0693 0.73398,0.01657c0.24474,-0.05422 0.49384,-0.15876 0.66832,-0.32748c0.14474,-0.14005 0.17254,-0.35651 0.23256,-0.54286c0.0717,-0.22256 0.12006,-0.45221 0.16224,-0.68148c0.04152,-0.22572 0.06139,-0.45548 0.08884,-0.68314c0.03288,-0.27276 0.08575,-0.54564 0.09193,-0.82009c0.00415,-0.18379 0.00822,-0.37719 -0.06104,-0.54948c-0.07398,-0.18395 -0.28425,-0.57729 -0.35618,-0.48764c-0.1079,0.1346 -0.01443,0.63931 -0.02163,0.95869c-0.00412,0.18244 -0.00824,0.36541 -0.01236,0.54786c-0.00412,0.18241 0.02371,0.36856 -0.01236,0.54782c-0.04729,0.23378 -0.17784,0.44788 -0.23565,0.67982c-0.05006,0.20111 -0.01563,0.4195 -0.08731,0.61466c-0.113,0.30877 -0.26752,0.60837 -0.46048,0.88028c-0.11438,0.16103 -0.42863,0.43184 -0.44967,0.40093c-0.02104,-0.03089 0.2051,-0.40674 0.3075,-0.60966c0.10239,-0.20296 0.22315,-0.39949 0.3075,-0.60969c0.09773,-0.24334 0.18239,-0.49358 0.2372,-0.74831c0.08237,-0.38263 0.19892,-0.77106 0.17305,-1.16081c-0.01231,-0.18363 -0.15378,-0.5661 -0.28278,-0.48598c-0.2434,0.15126 -0.35406,0.61658 -0.46203,0.94874c-0.07828,0.24078 -0.07122,0.50047 -0.09039,0.75162c-0.01549,0.20463 -0.00928,0.41116 -0.0139,0.61632c-0.00514,0.22814 -0.18189,0.66676 -0.01545,0.68479c0.23648,0.02534 0.63361,-0.32583 0.8213,-0.59811c0.30915,-0.44851 0.45253,-0.9835 0.62119,-1.49328c0.14691,-0.4442 0.22228,-0.90786 0.32449,-1.36295c0.06106,-0.27131 0.11715,-0.54463 0.16534,-0.81844c0.03603,-0.20363 0.12118,-0.41054 0.0873,-0.61464c-0.03334,-0.20165 -0.16917,-0.37902 -0.28124,-0.55447c-0.12512,-0.19629 -0.25876,-0.39253 -0.42804,-0.55777c-0.14544,-0.14196 -0.52376,-0.33819 -0.50608,-0.35399c0.01768,-0.01576 0.46577,0.09601 0.65596,0.22033c0.25532,0.16691 0.43861,0.41468 0.64669,0.63122c0.15068,0.15689 0.30012,0.31673 0.42959,0.48929c0.13232,0.17644 0.17619,0.41915 0.35463,0.5561c0.17931,0.13779 0.66663,0.34609 0.65596,0.22033c-0.01693,-0.20016 -0.45303,-0.62188 -0.71391,-0.90677c-0.14678,-0.16008 -0.49058,-0.42872 -0.50453,-0.42245c-0.01394,0.00624 0.24837,0.31883 0.35618,0.48761c0.1288,0.20215 0.25072,0.40962 0.35309,0.6246c0.08498,0.1784 0.13235,0.37075 0.20784,0.55279c0.08691,0.20969 0.21201,0.4071 0.2797,0.62294c0.07015,0.22357 0.10897,0.4563 0.13135,0.68809c0.01764,0.18182 0.06019,0.37844 -0.01236,0.54782c-0.09054,0.21145 -0.34998,0.33112 -0.45276,0.53788c-0.08277,0.16668 0.0457,0.40936 -0.08576,0.54617c-0.20424,0.21247 -0.56024,0.23705 -0.81667,0.39267c-0.21741,0.13213 -0.38514,0.32756 -0.59802,0.46611c-0.16129,0.10517 -0.34873,0.17165 -0.51997,0.26231c-0.20009,0.10621 -0.41678,0.19314 -0.59492,0.32914c-0.17426,0.1331 -0.29448,0.31894 -0.45121,0.46942c-0.16844,0.16173 -0.32038,0.34712 -0.5246,0.46776c-0.10509,0.06202 -0.36854,0.06018 -0.36854,0.06018" fill="none" stroke="#dede65" stroke-width="1.93413" stroke-linecap="round"/><path d="M217.93296,172.2529l-0.91645,14.45031l-1.76645,0.17614l-3.52648,0.06893l-1.02833,-0.02321l0.1446,-0.06424l-0.59167,0.05415l-0.21565,-3.52812l-0.11022,-4.63267l-0.15668,-3.36479l0.21575,-2.42498l-0.06708,-0.59547l1.10137,-0.04266l3.09396,0.0698z" fill="#01a233" stroke="#000000" stroke-width="1.55935" stroke-linecap="round"/><path d="M213.65277,186.56884l0.00931,-3.36293l0.03377,-7.39816l0.40878,-3.36737" fill="none" stroke="#000000" stroke-width="1.82237" stroke-linecap="round"/><path d="M220.55418,192.88547l0.91437,-0.25758l0.6415,-0.01129l0.60515,0.1941l0.52471,0.30755" fill="none" stroke="#000000" stroke-width="2.24774" stroke-linecap="round"/><path d="M210.64767,186.8954l-0.16541,-3.78346l0.29274,-7.4179l0.13875,-3.37164" fill="none" stroke="#000000" stroke-width="1.77401" stroke-linecap="round"/><path d="M206.57616,175.30561l0.35638,-1.90132l2.80487,0.72422" fill="none" stroke="#000000" stroke-width="1.85948" stroke-linecap="round"/><path d="M206.23073,179.26542l0.18271,-1.67424l3.13258,0.35925" fill="none" stroke="#000000" stroke-width="1.85946" stroke-linecap="round"/><path d="M206.44104,183.21063l0.08061,-1.90522l3.1491,-0.10401" fill="none" stroke="#000000" stroke-width="1.85864" stroke-linecap="round"/><path d="M230.70676,180.34571c-0.00779,1.75264 -1.60392,3.22699 -2.80367,4.59137c-0.68756,0.78057 -1.70271,1.29737 -2.66121,1.796c-0.54854,0.27824 -1.6847,-0.03481 -1.91806,0.53676c-0.5012,1.26503 -0.0815,2.72568 0.06654,4.09061c0.06932,0.79994 1.17324,1.75461 0.5817,2.37666c-0.74039,0.77098 -2.77308,1.00183 -3.732,0.61854c-0.56634,-0.22795 0.3243,-1.32357 0.35935,-1.97645c0.0887,-1.69339 0.1243,-5.0797 -0.07487,-5.19208c-0.31366,-0.17701 -0.5965,-0.64815 -0.96356,-0.68369c-0.58925,0.01397 -1.46576,0.56753 -1.76539,0.10517c-0.52582,-0.81199 -0.04032,-1.8729 -0.03149,-2.82829c0.00975,-1.05222 0.02612,-2.115 0.07128,-3.15946c0.06121,-1.36167 0.1904,-2.72323 0.25095,-4.08344c0.04203,-0.93345 -0.03391,-1.81999 0.02973,-2.72542c0.02611,-0.36974 -0.04166,-0.85788 0.24806,-1.13993c0.23561,-0.23424 0.49057,-0.13046 1.03514,-0.12163c2.17867,0.03493 4.41011,-0.21344 6.53716,0.29247c0.88881,0.21145 1.55613,1.00229 2.00892,1.7294c1.1361,1.82398 2.76928,3.67799 2.7614,5.77341z" fill="#dede65" stroke="#000000" stroke-width="1.5" stroke-linecap="butt"/><path d="M206.59404,186.78928l-0.05176,-1.84092l3.1491,-0.10401" fill="none" stroke="#000000" stroke-width="1.85864" stroke-linecap="round"/><path d="M224.88857,182.62177l-1.25109,0.11864" fill="none" stroke="#000000" stroke-width="1" stroke-linecap="round"/><path d="M223.66947,184.57706l1.24945,-0.04525" fill="none" stroke="#000000" stroke-width="1" stroke-linecap="round"/><path d="M221.14377,192.49472l0.55532,-0.20199l1.39458,0.03146l0.65398,0.3085" fill="none" stroke="#000000" stroke-width="2" stroke-linecap="round"/><path d="M215.56325,170.93289c0,0 -2.28698,2.1527 -2.63622,8.67874c0.04193,5.79356 2.09064,8.44981 2.09064,8.44981l-9.20896,-0.21333c0,0 -1.14004,-5.42261 -1.07514,-8.24556c0.06635,-2.88627 1.72246,-8.49508 1.72246,-8.49508z" fill="#ccd8ff" stroke="none" stroke-width="1" stroke-linecap="round"/></g></g></svg>