<svg version="1.1" xmlns="http://www.w3.org/2000/svg" xmlns:xlink="http://www.w3.org/1999/xlink" width="44.45237" height="41.88316" viewBox="0,0,44.45237,41.88316"><defs><linearGradient x1="254.80206" y1="170.34683" x2="255.01526" y2="204.59667" gradientUnits="userSpaceOnUse" id="color-1"><stop offset="0" stop-color="#000000"/><stop offset="1" stop-color="#000000" stop-opacity="0"/></linearGradient></defs><g transform="translate(-232.40648,-160.24668)"><g data-paper-data="{&quot;isPaintingLayer&quot;:true}" fill-rule="nonzero" stroke-width="0" stroke-linecap="butt" stroke-linejoin="miter" stroke-miterlimit="10" stroke-dasharray="" stroke-dashoffset="0" style="mix-blend-mode: normal"><path d="M254.31968,202.12984l-21.86203,-26.12997l-0.05117,-3.61987l44.39116,0.73366l0.02666,2.98237z" fill="url(#color-1)" stroke="none"/><path d="M245.44713,172.76591h17.29246l-8.35508,25.11469z" fill="#ffffff" stroke="none"/><path d="M232.51308,172.52475l7.68555,-12.27807l7.13657,12.27807z" fill="#ffffff" stroke="#000000"/><path d="M255.02074,160.29106l-7.68555,12.27807l-7.13657,-12.27807z" data-paper-data="{&quot;index&quot;:null}" fill="#ffffff" stroke="#000000"/><path d="M247.36851,172.76591l7.13657,-12.27807l7.68555,12.27807z" data-paper-data="{&quot;index&quot;:null}" fill="#ffffff" stroke="#000000"/><path d="M269.11935,160.33542l-7.68555,12.27807l-7.13657,-12.27807z" data-paper-data="{&quot;index&quot;:null}" fill="#ffffff" stroke="#000000"/><path d="M261.70832,172.81028l7.27674,-12.51924l7.83651,12.51924z" data-paper-data="{&quot;index&quot;:null}" fill="#ffffff" stroke="#000000"/><path d="M232.54641,172.48036h14.54763l7.25715,25.29218z" fill="#ffffff" stroke="none"/><path d="M254.35119,197.93751l7.96003,-25.1716h14.54763z" data-paper-data="{&quot;index&quot;:null}" fill="#ffffff" stroke="none"/><path d="M246.37375,173.13251h15.3195l-7.41557,21.51322z" fill="#ffc840" stroke="none"/><path d="M234.82233,172.89135l6.68808,-10.21499l6.32234,10.45616z" fill="#ffc840" stroke="#000000"/><path d="M254.76199,162.7989l-6.80866,10.33557l-6.32234,-10.33557z" data-paper-data="{&quot;index&quot;:null}" fill="#fffe68" stroke="#000000"/><path d="M248.07592,173.13251l6.32234,-10.45616l6.80866,10.45616z" data-paper-data="{&quot;index&quot;:null}" fill="#ff9240" stroke="#000000"/><path d="M267.77241,162.92151l-6.44692,10.45616l-6.68408,-10.45616z" data-paper-data="{&quot;index&quot;:null}" fill="#ffee40" stroke="#000000"/><path d="M261.20692,173.37568l6.32234,-10.45616l6.80866,10.21499z" data-paper-data="{&quot;index&quot;:null}" fill="#ffc940" stroke="#000000"/><path d="M234.94491,172.88934l12.88784,0.24116l6.32234,21.40067z" fill="#fffe68" stroke="none"/><path d="M254.51683,194.17143l6.69009,-21.03892h12.88784z" data-paper-data="{&quot;index&quot;:null}" fill="#ff9240" stroke="none"/></g></g></svg>