<svg version="1.1" xmlns="http://www.w3.org/2000/svg" xmlns:xlink="http://www.w3.org/1999/xlink" width="26.459" height="42.195" viewBox="0,0,26.459,42.195"><defs><linearGradient x1="240.85222" y1="165.41873" x2="240.85222" y2="196.65273" gradientUnits="userSpaceOnUse" id="color-1"><stop offset="0" stop-color="#000000"/><stop offset="1" stop-color="#000000" stop-opacity="0"/></linearGradient><linearGradient x1="240.85222" y1="165.41873" x2="240.85222" y2="196.65273" gradientUnits="userSpaceOnUse" id="color-2"><stop offset="0" stop-color="#000000"/><stop offset="1" stop-color="#000000" stop-opacity="0"/></linearGradient></defs><g transform="translate(-227.60422,-158.20773)"><g data-paper-data="{&quot;isPaintingLayer&quot;:true}" fill-rule="nonzero" stroke-linecap="butt" stroke-linejoin="miter" stroke-miterlimit="10" stroke-dasharray="" stroke-dashoffset="0" style="mix-blend-mode: normal"><path d="M248.23522,192.57473c0.583,0 1.072,0.203 1.468,0.609c0.407,0.396 0.61,0.87 0.61,1.422c0,0.563 -0.203,1.047 -0.61,1.453c-0.396,0.396 -0.885,0.594 -1.468,0.594h-14.797c-0.584,0 -1.073,-0.198 -1.469,-0.594c-0.386,-0.406 -0.578,-0.89 -0.578,-1.453c0,-0.583 0.187,-1.062 0.562,-1.437l11.36,-13.281c1.687,-1.917 2.531,-3.584 2.531,-5c0,-1.73 -0.448,-3.115 -1.344,-4.157c-0.896,-1.041 -2.114,-1.562 -3.656,-1.562c-0.99,0 -1.901,0.26 -2.734,0.781c-0.823,0.521 -1.469,1.224 -1.938,2.109c-0.458,0.875 -0.687,1.818 -0.687,2.829c0,0.541 -0.198,1.01 -0.594,1.406c-0.386,0.396 -0.87,0.594 -1.453,0.594c-0.563,0 -1.047,-0.198 -1.453,-0.594c-0.396,-0.396 -0.594,-0.865 -0.594,-1.406c0,-1.782 0.411,-3.391 1.234,-4.829c0.833,-1.448 1.964,-2.583 3.391,-3.406c1.427,-0.823 3.036,-1.234 4.828,-1.234c1.781,0 3.344,0.385 4.687,1.156c1.355,0.771 2.396,1.87 3.125,3.297c0.73,1.427 1.094,3.099 1.094,5.016c0,1.177 -0.338,2.401 -1.015,3.671c-0.678,1.261 -1.521,2.464 -2.532,3.61l-9.172,10.406z" fill="url(#color-1)" stroke="url(#color-2)" stroke-width="7.5"/><path d="M248.19822,189.11373c0.583,0 1.072,0.203 1.468,0.609c0.407,0.396 0.61,0.87 0.61,1.422c0,0.563 -0.203,1.047 -0.61,1.453c-0.396,0.396 -0.885,0.594 -1.468,0.594h-14.797c-0.584,0 -1.073,-0.198 -1.469,-0.594c-0.386,-0.406 -0.578,-0.89 -0.578,-1.453c0,-0.583 0.187,-1.062 0.562,-1.437l11.36,-13.281c1.687,-1.917 2.531,-3.584 2.531,-5c0,-1.73 -0.448,-3.115 -1.344,-4.157c-0.896,-1.041 -2.114,-1.562 -3.656,-1.562c-0.99,0 -1.901,0.26 -2.734,0.781c-0.823,0.521 -1.469,1.224 -1.938,2.109c-0.458,0.875 -0.687,1.818 -0.687,2.829c0,0.541 -0.198,1.01 -0.594,1.406c-0.386,0.396 -0.87,0.594 -1.453,0.594c-0.563,0 -1.047,-0.198 -1.453,-0.594c-0.396,-0.396 -0.594,-0.865 -0.594,-1.406c0,-1.782 0.411,-3.391 1.234,-4.829c0.833,-1.448 1.964,-2.583 3.391,-3.406c1.427,-0.823 3.036,-1.234 4.828,-1.234c1.781,0 3.344,0.385 4.687,1.156c1.355,0.771 2.396,1.87 3.125,3.297c0.73,1.427 1.094,3.099 1.094,5.016c0,1.177 -0.338,2.401 -1.015,3.671c-0.678,1.261 -1.521,2.464 -2.532,3.61l-9.172,10.406z" fill="#ca6c00" stroke="#ffffff" stroke-width="7.5"/><path d="M248.19822,189.11373c0.583,0 1.072,0.203 1.468,0.609c0.407,0.396 0.61,0.87 0.61,1.422c0,0.563 -0.203,1.047 -0.61,1.453c-0.396,0.396 -0.885,0.594 -1.468,0.594h-14.797c-0.584,0 -1.073,-0.198 -1.469,-0.594c-0.386,-0.406 -0.578,-0.89 -0.578,-1.453c0,-0.583 0.187,-1.062 0.562,-1.437l11.36,-13.281c1.687,-1.917 2.531,-3.584 2.531,-5c0,-1.73 -0.448,-3.115 -1.344,-4.157c-0.896,-1.041 -2.114,-1.562 -3.656,-1.562c-0.99,0 -1.901,0.26 -2.734,0.781c-0.823,0.521 -1.469,1.224 -1.938,2.109c-0.458,0.875 -0.687,1.818 -0.687,2.829c0,0.541 -0.198,1.01 -0.594,1.406c-0.386,0.396 -0.87,0.594 -1.453,0.594c-0.563,0 -1.047,-0.198 -1.453,-0.594c-0.396,-0.396 -0.594,-0.865 -0.594,-1.406c0,-1.782 0.411,-3.391 1.234,-4.829c0.833,-1.448 1.964,-2.583 3.391,-3.406c1.427,-0.823 3.036,-1.234 4.828,-1.234c1.781,0 3.344,0.385 4.687,1.156c1.355,0.771 2.396,1.87 3.125,3.297c0.73,1.427 1.094,3.099 1.094,5.016c0,1.177 -0.338,2.401 -1.015,3.671c-0.678,1.261 -1.521,2.464 -2.532,3.61l-9.172,10.406z" fill="#ca6c00" stroke="#ffffff" stroke-width="0"/></g></g></svg>