<svg version="1.1" xmlns="http://www.w3.org/2000/svg" xmlns:xlink="http://www.w3.org/1999/xlink" width="42.7031" height="57.31248" viewBox="0,0,42.7031,57.31248"><defs><linearGradient x1="242.25" y1="154.84376" x2="242.25" y2="205.65624" gradientUnits="userSpaceOnUse" id="color-1"><stop offset="0" stop-color="#fad000"/><stop offset="1" stop-color="#ffbc00"/></linearGradient></defs><g transform="translate(-220.89845,-151.59376)"><g data-paper-data="{&quot;isPaintingLayer&quot;:true}" fill-rule="nonzero" stroke-linejoin="miter" stroke-miterlimit="10" stroke-dasharray="" stroke-dashoffset="0" style="mix-blend-mode: normal"><path d="M236.42966,195.39061h18.85938c1.52083,0 2.625,0.17708 3.3125,0.53125c0.69792,0.34375 1.16146,0.88542 1.39063,1.625c0.23958,0.73958 0.35938,1.72396 0.35938,2.95313c0,1.21875 -0.11979,2.19792 -0.35937,2.9375c-0.22917,0.73958 -0.61979,1.25 -1.17187,1.53125c-0.875,0.45833 -2.07812,0.6875 -3.60937,0.6875h-24.95312c-3.23958,0 -5.13542,-0.88021 -5.6875,-2.64062c-0.28125,-0.73958 -0.42187,-1.91667 -0.42187,-3.53125v-38.54687c0,-1.0625 0.03646,-1.85937 0.10938,-2.39062c0.07292,-0.53125 0.29167,-1.14583 0.65625,-1.84375c0.64583,-1.23958 2.44792,-1.85937 5.40625,-1.85937c3.23958,0 5.16146,0.85417 5.76563,2.5625c0.22917,0.78125 0.34375,1.98438 0.34375,3.60938z" fill="#f9ea00" stroke="url(#color-1)" stroke-width="6.5" stroke-linecap="square"/><path d="M230.13248,158.04032c-0.08514,0.69517 -1.02961,1.24067 -2.10955,1.2184c-1.07994,-0.02227 -1.88638,-0.60387 -1.80125,-1.29904c0.08514,-0.69517 1.02961,-1.24067 2.10955,-1.2184c1.07994,0.02227 1.88638,0.60387 1.80125,1.29904z" fill="#ffffff" stroke="none" stroke-width="0" stroke-linecap="butt"/></g></g></svg>