<svg version="1.1" xmlns="http://www.w3.org/2000/svg" xmlns:xlink="http://www.w3.org/1999/xlink" width="73.69777" height="35.54425" viewBox="0,0,73.69777,35.54425"><defs><linearGradient x1="341.5821" y1="46.51602" x2="341.5796" y2="46.51602" gradientUnits="userSpaceOnUse" id="color-1"><stop offset="0" stop-color="#7a727a"/><stop offset="1" stop-color="#211f21"/></linearGradient><linearGradient x1="209.8818" y1="179.99601" x2="203.43953" y2="179.99601" gradientUnits="userSpaceOnUse" id="color-2"><stop offset="0" stop-color="#000000"/><stop offset="1" stop-color="#000000" stop-opacity="0"/></linearGradient><linearGradient x1="207.51354" y1="185.19794" x2="207.51354" y2="194.49702" gradientUnits="userSpaceOnUse" id="color-3"><stop offset="0" stop-color="#000000"/><stop offset="1" stop-color="#2d2d2d"/></linearGradient><linearGradient x1="207.51354" y1="185.19794" x2="207.51354" y2="194.49702" gradientUnits="userSpaceOnUse" id="color-4"><stop offset="0" stop-color="#000000"/><stop offset="1" stop-color="#2d2d2d"/></linearGradient><linearGradient x1="207.32633" y1="165.74157" x2="207.32633" y2="174.96056" gradientUnits="userSpaceOnUse" id="color-5"><stop offset="0" stop-color="#2d2d2d"/><stop offset="1" stop-color="#000000"/></linearGradient><linearGradient x1="207.32633" y1="165.74157" x2="207.32633" y2="174.96056" gradientUnits="userSpaceOnUse" id="color-6"><stop offset="0" stop-color="#2d2d2d"/><stop offset="1" stop-color="#000000"/></linearGradient><linearGradient x1="240.61906" y1="180.02182" x2="234.17679" y2="180.02182" gradientUnits="userSpaceOnUse" id="color-7"><stop offset="0" stop-color="#000000"/><stop offset="1" stop-color="#000000" stop-opacity="0"/></linearGradient><linearGradient x1="237.40523" y1="181.56666" x2="237.40523" y2="183.76666" gradientUnits="userSpaceOnUse" id="color-8"><stop offset="0" stop-color="#000000"/><stop offset="1" stop-color="#000000" stop-opacity="0"/></linearGradient><linearGradient x1="237.40523" y1="178.81667" x2="237.40523" y2="176.61667" gradientUnits="userSpaceOnUse" id="color-9"><stop offset="0" stop-color="#000000"/><stop offset="1" stop-color="#000000" stop-opacity="0"/></linearGradient><linearGradient x1="236.91835" y1="184.91886" x2="236.91835" y2="193.35468" gradientUnits="userSpaceOnUse" id="color-10"><stop offset="0" stop-color="#000000"/><stop offset="1" stop-color="#2d2d2d"/></linearGradient><linearGradient x1="236.91835" y1="184.91886" x2="236.91835" y2="193.35468" gradientUnits="userSpaceOnUse" id="color-11"><stop offset="0" stop-color="#000000"/><stop offset="1" stop-color="#2d2d2d"/></linearGradient><linearGradient x1="236.93315" y1="167.03145" x2="236.93315" y2="175.30973" gradientUnits="userSpaceOnUse" id="color-12"><stop offset="0" stop-color="#2d2d2d"/><stop offset="1" stop-color="#000000"/></linearGradient><linearGradient x1="236.93315" y1="167.03145" x2="236.93315" y2="175.30973" gradientUnits="userSpaceOnUse" id="color-13"><stop offset="0" stop-color="#2d2d2d"/><stop offset="1" stop-color="#000000"/></linearGradient><linearGradient x1="219.3769" y1="177.86149" x2="214.28627" y2="177.86149" gradientUnits="userSpaceOnUse" id="color-14"><stop offset="0" stop-color="#b15cb0"/><stop offset="1" stop-color="#88447a"/></linearGradient><linearGradient x1="219.25884" y1="182.12739" x2="214.16821" y2="182.12739" gradientUnits="userSpaceOnUse" id="color-15"><stop offset="0" stop-color="#b15cb0"/><stop offset="1" stop-color="#88447a"/></linearGradient><linearGradient x1="206.6219" y1="181.9" x2="206.6219" y2="184.1" gradientUnits="userSpaceOnUse" id="color-16"><stop offset="0" stop-color="#000000"/><stop offset="1" stop-color="#000000" stop-opacity="0"/></linearGradient><linearGradient x1="206.70523" y1="178.15" x2="206.70523" y2="175.95" gradientUnits="userSpaceOnUse" id="color-17"><stop offset="0" stop-color="#000000"/><stop offset="1" stop-color="#000000" stop-opacity="0"/></linearGradient><linearGradient x1="216.28023" y1="170.21491" x2="216.28023" y2="172.11898" gradientUnits="userSpaceOnUse" id="color-18"><stop offset="0" stop-color="#0067bb" stop-opacity="0"/><stop offset="1" stop-color="#0067bb"/></linearGradient><linearGradient x1="215.95193" y1="189.6157" x2="215.95193" y2="187.8657" gradientUnits="userSpaceOnUse" id="color-19"><stop offset="0" stop-color="#0067bb" stop-opacity="0"/><stop offset="1" stop-color="#0067bb"/></linearGradient></defs><g transform="translate(-195.87545,-159.20689)"><g data-paper-data="{&quot;isPaintingLayer&quot;:true}" fill-rule="nonzero" stroke-linejoin="miter" stroke-miterlimit="10" stroke-dasharray="" stroke-dashoffset="0" style="mix-blend-mode: normal"><path d="M269.57322,159.20689z" fill="url(#color-1)" stroke="none" stroke-width="0" stroke-linecap="butt"/><path d="M247.29699,187.62918l-3.62308,1.83705v-18.93187l3.62308,1.53088z" fill="#ddd8dd" stroke="none" stroke-width="0" stroke-linecap="butt"/><g stroke-width="2.5" stroke-linecap="butt"><path d="M216.49999,175.52122c-0.78974,0 -0.78974,-0.78974 -0.78974,-0.78974v-0.35274c0.01977,-4.13798 -1.49395,-4.16649 -5.207,-4.14874c0,0 -0.78974,0 -0.78974,-0.78974c0,-0.78974 0.78974,-0.78974 0.78974,-0.78974c4.47938,0.01794 6.7664,0.72062 6.78646,5.72821v0.35274c0,0 0,0.78974 -0.78974,0.78974z" fill="#0d7ad1" stroke="#0086f4"/><path d="M214.503,168.89036l0.03332,-0.79726c1.65247,0.204 2.96053,1.70678 2.99346,3.33568l-0.84694,-0.38394c0.03109,-1.00454 -2.17982,-2.15448 -2.17982,-2.15448z" data-paper-data="{&quot;index&quot;:null}" fill="#3ac4ff" stroke="none"/></g><g data-paper-data="{&quot;index&quot;:null}" stroke-width="2.5" stroke-linecap="butt"><path d="M217.22312,185.16702v0.35274c-0.02007,5.00759 -2.30709,5.71027 -6.78646,5.72821c0,0 -0.78974,0 -0.78974,-0.78973c0,-0.78974 0.78974,-0.78974 0.78974,-0.78974c3.71304,0.01775 5.22677,-0.01076 5.207,-4.14874v-0.35274c0,0 0,-0.78973 0.78974,-0.78973c0.78974,0 0.78973,0.78973 0.78973,0.78973z" fill="#0d7ad1" stroke="#0086f4"/><path d="M216.61623,188.85368l0.84694,-0.38395c-0.03292,1.6289 -1.34099,3.13168 -2.99346,3.33568l-0.03332,-0.79726c0,0 2.21093,-1.14994 2.17982,-2.15448z" data-paper-data="{&quot;index&quot;:null}" fill="#3ac4ff" stroke="none"/></g><g stroke-width="0" stroke-linecap="butt"><path d="M205.6237,175.07046h2.07391v9.8511h-2.07391z" fill="#8b8885" stroke="url(#color-2)"/><path d="M205.6237,175.07046h0.69131v9.85109h-0.69131z" fill="#505154" stroke="none"/></g><path d="M203.35176,186.20288c1.14953,-1.14952 2.50941,-0.92868 4.09947,-0.99561c1.2784,-0.05382 3.31755,0.10994 4.10233,0.89472c0.95659,0.95659 0.80643,2.3805 0.89081,3.70674c0.08623,1.35512 0.18447,3.21803 -0.9917,4.19241c-0.81191,0.67263 -2.93697,0.41315 -3.87187,0.44115c-1.66376,0.04984 -3.09702,0.28734 -4.22906,-0.84469c-1.0777,-1.0777 -0.7701,-2.29579 -0.79054,-3.80082c-0.01708,-1.25848 -0.01447,-2.78891 0.79054,-3.59391z" data-paper-data="{&quot;index&quot;:null}" fill="url(#color-3)" stroke="url(#color-4)" stroke-width="1.5" stroke-linecap="butt"/><path d="M207.26453,174.9513c-1.57636,-0.06636 -2.92453,0.1526 -4.06416,-0.98703c-0.79806,-0.79805 -0.80066,-2.31531 -0.78373,-3.56295c0.02025,-1.49206 -0.28468,-2.69967 0.78373,-3.76808c1.12229,-1.12229 2.54321,-0.88682 4.19264,-0.83741c0.92684,0.02775 3.0336,-0.22949 3.83853,0.43734c1.16603,0.966 1.06863,2.81286 0.98315,4.15631c-0.08366,1.31482 0.06521,2.72645 -0.88314,3.67482c-0.77801,0.77802 -2.79961,0.94037 -4.06701,0.88701z" data-paper-data="{&quot;index&quot;:null}" fill="url(#color-5)" stroke="url(#color-6)" stroke-width="1.5" stroke-linecap="butt"/><g stroke-width="0" stroke-linecap="butt"><path d="M236.36098,175.09626h2.07391v9.8511h-2.07391z" fill="#8b8885" stroke="url(#color-7)"/><path d="M236.36098,175.09626h0.69131v9.8511h-0.69131z" fill="#505154" stroke="none"/></g><path d="M236.3719,185.15l0.08334,-1.98334l1.95,-0.51667v1.36667z" data-paper-data="{&quot;index&quot;:null}" fill="url(#color-8)" stroke="none" stroke-width="0" stroke-linecap="butt"/><path d="M238.40523,176.45v1.11667l-1.95,-0.35l-0.08334,-1.98334z" data-paper-data="{&quot;index&quot;:null}" fill="url(#color-9)" stroke="none" stroke-width="0" stroke-linecap="butt"/><path d="M205.65986,178.35417l6.39224,-6.0889c0,0 12.74909,-0.11844 13.42497,0.07172c1.47568,0.41518 3.47761,4.00167 4.17593,4.08631c7.84986,0.9515 15.20225,2.0836 15.20225,2.0836l0.01206,3.13901c0,0 -9.3234,1.58604 -15.17275,2.25582c-1.16721,0.13366 -3.1754,3.61045 -4.73158,3.75393c-0.647,0.05966 -12.82328,0.13844 -12.82328,0.13844l-6.47985,-5.9834z" fill="#fff9ff" stroke="none" stroke-width="0" stroke-linecap="butt"/><path d="M236.8618,184.92732c1.15971,-0.04883 3.00957,0.09973 3.7215,0.81167c0.86779,0.86779 0.73157,2.1595 0.80813,3.36262c0.07823,1.22931 0.16734,2.91929 -0.89963,3.80323c-0.73654,0.61018 -2.66433,0.37479 -3.51243,0.40019c-1.50931,0.04522 -2.80951,0.26067 -3.83646,-0.76628c-0.97764,-0.97764 -0.69862,-2.08266 -0.71715,-3.44796c-0.01549,-1.14165 -0.01311,-2.53 0.71715,-3.26027c1.04281,-1.04281 2.27645,-0.84248 3.7189,-0.90319z" data-paper-data="{&quot;index&quot;:null}" fill="url(#color-10)" stroke="url(#color-11)" stroke-width="1.5" stroke-linecap="butt"/><path d="M236.87766,175.30144c-1.41551,-0.05959 -2.62612,0.13703 -3.64946,-0.88632c-0.71662,-0.71663 -0.71895,-2.07906 -0.70375,-3.19939c0.01818,-1.33982 -0.25564,-2.4242 0.70375,-3.38359c1.00777,-1.00777 2.28371,-0.79634 3.76483,-0.75197c0.83226,0.02493 2.72406,-0.20607 3.44685,0.39272c1.04704,0.86743 0.95959,2.52583 0.88283,3.7322c-0.07512,1.18064 0.05856,2.44825 -0.79303,3.29983c-0.69863,0.69863 -2.51395,0.84441 -3.65201,0.79651z" data-paper-data="{&quot;index&quot;:null}" fill="url(#color-12)" stroke="url(#color-13)" stroke-width="1.5" stroke-linecap="butt"/><path d="M207.58676,178.47802l5.4717,-5.21204c0,0 10.91309,-0.10139 11.49164,0.06138c1.26317,0.35539 2.9768,3.42539 3.57455,3.49784c6.71941,0.81447 13.01297,1.78355 13.01297,1.78355l0.01032,2.68696c0,0 -7.98074,1.35764 -12.98772,1.93095c-0.99912,0.11441 -2.71811,3.0905 -4.05019,3.21333c-0.55383,0.05107 -10.9766,0.1185 -10.9766,0.1185l-5.54668,-5.12173z" fill="#dce0fb" stroke="none" stroke-width="0" stroke-linecap="butt"/><path d="M224.60876,176.82455l19.18372,2.3253l0.0275,1.74397l-19.21121,2.17997z" fill="#09bfff" stroke="none" stroke-width="0" stroke-linecap="butt"/><path d="M226.10906,182.93082l-2.89243,2.21925c0,0 -8.03323,-0.05198 -8.46008,-0.09133c-1.02668,-0.09467 -2.21837,-0.75039 -3.25484,-2.47663c-0.49057,-1.28693 -0.45798,-1.78698 -0.43459,-2.6292c0.01899,-0.68394 -0.0858,-1.71124 0.46201,-2.62502c0.86032,-1.48146 1.91467,-2.10164 2.88824,-2.37556c0.44591,-0.12545 8.85706,-0.04731 8.85706,-0.04731l2.83463,2.28885z" data-paper-data="{&quot;index&quot;:null}" fill="#2a1117" stroke="none" stroke-width="0" stroke-linecap="butt"/><path d="M220.80659,183.2191c-1.24084,0 -2.24674,-1.43147 -2.24674,-3.19729c0,-1.76581 1.0059,-3.19729 2.24674,-3.19729c1.24084,0 2.24674,1.43147 2.24674,3.19729c0,1.76581 -1.0059,3.19729 -2.24674,3.19729z" fill="#c9d7ee" stroke="none" stroke-width="0" stroke-linecap="butt"/><path d="M222.31589,179.72315c-0.43327,0.34809 -1.18607,0.13043 -1.68143,-0.48615c-0.49536,-0.61658 -0.54569,-1.39861 -0.11242,-1.74669c0.43327,-0.34809 1.18607,-0.13043 1.68143,0.48615c0.49536,0.61658 0.54569,1.39861 0.11242,1.74669z" fill="#f7f7f7" stroke="none" stroke-width="0" stroke-linecap="butt"/><path d="M214.28627,178.89845c0,-0.64423 0.74546,-0.64423 0.74546,-0.64423l0.06659,0.06801c1.60212,-0.59459 1.20078,-2.10054 3.53312,-2.14193c0,0 0.74546,0 0.74546,0.64423c0,0.64423 -0.74546,0.64423 -0.74546,0.64423c-1.54171,-0.04226 -1.53605,1.38159 -2.86636,2.0059l-0.73335,0.06801c0,0 -0.74546,0 -0.74546,-0.64423z" fill="url(#color-14)" stroke="none" stroke-width="0.5" stroke-linecap="butt"/><path d="M214.91366,180.44621l0.73335,0.06801c1.33031,0.62431 1.32465,2.04816 2.86636,2.0059c0,0 0.74546,0 0.74546,0.64423c0,0.64423 -0.74546,0.64423 -0.74546,0.64423c-2.33234,-0.04139 -1.93101,-1.54734 -3.53312,-2.14193l-0.06659,0.06801c0,0 -0.74546,0 -0.74546,-0.64423c0,-0.64423 0.74546,-0.64423 0.74546,-0.64423z" data-paper-data="{&quot;index&quot;:null}" fill="url(#color-15)" stroke="none" stroke-width="0.5" stroke-linecap="butt"/><path d="M202.85547,185.84477l-1.28341,-1.11091c0,0 2.31561,-3.07393 2.64319,-3.05364c0.37779,0.02341 1.28341,1.11091 1.28341,1.11091z" fill="#ff9191" stroke="none" stroke-width="NaN" stroke-linecap="butt"/><path d="M201.83759,184.96371l-1.90299,-1.64721l0.5363,-0.61957l1.90299,1.64721z" fill="#ff9191" stroke="none" stroke-width="0" stroke-linecap="butt"/><path d="M203.99277,182.038c0.22545,-0.25454 0.56602,0.01392 0.56602,0.01392c0.0875,0.0775 0.43752,0.38752 0.52503,0.46503c0,0 0.25454,0.22545 0.02908,0.47999c-0.22545,0.25454 -0.47999,0.02909 -0.47999,0.02909c-0.0875,-0.0775 -0.17502,-0.15501 -0.26252,-0.23251l-0.39155,-0.23251c0,0 -0.21153,-0.26846 0.01392,-0.523z" fill="#ff7d7d" stroke="none" stroke-width="0.5" stroke-linecap="butt"/><path d="M200.72086,183.1503c0.15185,-0.15185 0.30369,0 0.30369,0l0.0783,0.0783c0.28499,0.30467 0.68859,0.57439 1.0296,0.88095c0.56077,-0.38754 1.38308,-1.68846 1.87265,-2.18011l0.08863,0.56177c-0.51087,0.5085 -1.10937,1.54873 -1.67851,1.98365c-0.01005,0.06038 -0.05028,0.13824 -0.2114,0.13824c-0.0096,0 -0.01878,-0.00043 -0.02754,-0.00125c-0.11158,0.02939 -0.20261,-0.06165 -0.20261,-0.06165c-0.38012,-0.38012 -0.80795,-0.66658 -1.17451,-1.01791l-0.0783,-0.0783c0,0 -0.15185,-0.15185 0,-0.30369z" fill="#ff7b7b" stroke="none" stroke-width="0.5" stroke-linecap="butt"/><g stroke="none" stroke-linecap="butt"><path d="M205.46208,177.28613c0,0 -0.90562,1.08751 -1.28341,1.11091c-0.32759,0.0203 -2.64319,-3.05364 -2.64319,-3.05364l1.28341,-1.11091z" data-paper-data="{&quot;index&quot;:null}" fill="#ff9191" stroke-width="NaN"/><path d="M202.3373,175.73313l-1.90299,1.64721l-0.5363,-0.61957l1.90299,-1.64721z" data-paper-data="{&quot;index&quot;:null}" fill="#ff9191" stroke-width="0"/><path d="M203.94225,177.51626l0.39155,-0.23251c0.0875,-0.0775 0.17502,-0.15501 0.26252,-0.23251c0,0 0.25454,-0.22545 0.47999,0.02909c0.22545,0.25454 -0.02908,0.47999 -0.02908,0.47999c-0.0875,0.0775 -0.43752,0.38752 -0.52503,0.46503c0,0 -0.34056,0.26846 -0.56602,0.01392c-0.22545,-0.25454 -0.01392,-0.52301 -0.01392,-0.52301z" data-paper-data="{&quot;index&quot;:null}" fill="#ff7d7d" stroke-width="0.5"/><path d="M200.68427,176.62327l0.0783,-0.0783c0.36657,-0.35134 0.79439,-0.63778 1.17451,-1.0179c0,0 0.09103,-0.09102 0.20261,-0.06165c0.00877,-0.00082 0.01794,-0.00125 0.02754,-0.00125c0.16112,0 0.20135,0.07787 0.21139,0.13824c0.56914,0.43492 1.16764,1.47514 1.67851,1.98365l-0.08863,0.56177c-0.48956,-0.49165 -1.31188,-1.79257 -1.87264,-2.18012c-0.34101,0.30656 -0.74461,0.57629 -1.0296,0.88095l-0.0783,0.0783c0,0 -0.15185,0.15184 -0.30369,0c-0.15184,-0.15184 0,-0.30369 0,-0.30369z" data-paper-data="{&quot;index&quot;:null}" fill="#ff7b7b" stroke-width="0.5"/></g><g stroke="#000000" stroke-width="0" stroke-linecap="butt"><path d="M215.5474,167.4185c0,0 0.61608,-0.77895 1.28013,-0.70377c1.624,0.18385 8.51674,1.8129 8.51674,1.8129c0,0 1.71995,0.45588 2.51065,1.96024c0.9263,1.76235 2.36288,2.62452 1.11802,4.89156c-0.08634,0.38149 -2.9034,-3.11719 -2.9034,-3.11719l-7.35682,-0.23964c0,0 -0.00746,-0.63236 -0.91704,-2.0624c-0.84597,-1.33005 -2.24827,-2.54169 -2.24827,-2.54169z" fill="#ff7b7b"/><path d="M216.51489,166.69749l9.79687,1.10912c0,0 1.71995,0.45588 2.51065,1.96024c0.9263,1.76235 0.54347,4.25241 0.54347,4.70004c0,0.39113 -2.80764,-3.02143 -2.80764,-3.02143l-6.87803,-0.14388c0,0 -0.00746,-0.63236 -0.91704,-2.0624c-0.84597,-1.33005 -2.24827,-2.54168 -2.24827,-2.54168z" fill="#ff9191"/></g><g data-paper-data="{&quot;index&quot;:null}" stroke="#000000" stroke-width="0" stroke-linecap="butt"><path d="M217.61845,190.0384c0.90958,-1.43005 0.91704,-2.0624 0.91704,-2.0624l7.35682,-0.23964c0,0 2.81706,-3.49868 2.9034,-3.11719c1.24486,2.26703 -0.19171,3.12921 -1.11802,4.89156c-0.7907,1.50436 -2.51065,1.96024 -2.51065,1.96024c0,0 -6.89274,1.62904 -8.51674,1.8129c-0.66405,0.07518 -1.28013,-0.70377 -1.28013,-0.70377c0,0 1.40229,-1.21163 2.24827,-2.54168z" fill="#ff7b7b"/><path d="M218.58593,190.75941c0.90958,-1.43005 0.91704,-2.0624 0.91704,-2.0624l6.87803,-0.14388c0,0 2.80764,-3.41257 2.80764,-3.02143c0,0.44763 0.38284,2.93769 -0.54346,4.70004c-0.7907,1.50436 -2.51065,1.96024 -2.51065,1.96024l-9.79686,1.10912c0,0 1.40229,-1.21163 2.24827,-2.54168z" fill="#ff9191"/></g><g stroke="none" stroke-width="0" stroke-linecap="butt"><path d="M195.87546,170.45146l4.36551,-1.84459v22.81136l-4.36551,-2.2135z" fill="#83a0e3"/><path d="M196.47869,170.36941l3.8847,-1.87041v23.02045l-3.8847,-2.30205z" fill="#cdd9f4"/><g><path d="M196.89875,171.40274l0.4846,-0.68946l1.85688,-0.29643l0.4304,4.66994l-0.4304,0.6292h-2.34148z" fill="#ff6fad"/><path d="M197.37302,170.682l2.34148,-0.98589v5.29914h-2.34148z" fill="#ff91c1"/></g><g data-paper-data="{&quot;index&quot;:null}"><path d="M196.84645,184.07468h2.34148l0.4304,0.6292l-0.4304,4.66993l-1.85688,-0.29642l-0.4846,-0.68946z" fill="#ff6fad"/><path d="M197.32072,184.79544h2.34148v5.29914l-2.34148,-0.98588z" fill="#ff91c1"/></g></g><path d="M247.34445,187.63968l-3.22404,1.91055v-19.10541l3.22404,1.55232z" fill="#fff9ff" stroke="none" stroke-width="0" stroke-linecap="butt"/><path d="M244.80497,173.08385c0,0 1.06487,1.02243 1.64432,1.48772c0.62782,0.50412 0.69598,10.11237 0,10.8055c-0.60063,0.59561 -1.64432,1.33111 -1.64432,1.33111z" fill="#dccc64" stroke="none" stroke-width="0" stroke-linecap="butt"/><path d="M245.91287,174.09007c0,0 0.71522,0.56015 1.01918,1.03177c0.32934,0.51098 0.28679,9.05946 -0.0783,9.76202c-0.31508,0.60372 -0.86258,0.87302 -0.86258,0.87302z" fill="#d1bd75" stroke="none" stroke-width="0" stroke-linecap="butt"/><path d="M235.15213,181.32807l7.38686,-0.79899" fill="none" stroke="#52d1ff" stroke-width="0.5" stroke-linecap="round"/><path d="M205.6219,183.6v-1.7l1.95,1.6l0.08334,1.98334z" fill="url(#color-16)" stroke="none" stroke-width="0" stroke-linecap="butt"/><path d="M207.73857,174.56667l-0.08333,1.98334l-1.95,1.6v-1.7z" data-paper-data="{&quot;index&quot;:null}" fill="url(#color-17)" stroke="none" stroke-width="0" stroke-linecap="butt"/><path d="M214.30523,172.24593l-0.06667,-0.50776c0,0 -1.03553,-1.34384 -0.71775,-1.40875c0.7368,-0.1505 4.53442,-0.3684 4.53442,-0.3684l0.26667,2.15795z" fill="url(#color-18)" stroke="none" stroke-width="0" stroke-linecap="butt"/><path d="M217.9936,187.8657l-0.26667,1.98335c0,0 -3.79761,-0.20025 -4.53442,-0.33859c-0.31778,-0.05966 0.71775,-1.29475 0.71775,-1.29475l0.06667,-0.46667z" data-paper-data="{&quot;index&quot;:null}" fill="url(#color-19)" stroke="none" stroke-width="0" stroke-linecap="butt"/></g></g></svg>