<svg version="1.1" xmlns="http://www.w3.org/2000/svg" xmlns:xlink="http://www.w3.org/1999/xlink" width="960" height="720" viewBox="0,0,960,720"><g transform="translate(240,180)"><g data-paper-data="{&quot;isPaintingLayer&quot;:true}" stroke-linejoin="miter" stroke-miterlimit="10" stroke-dasharray="" stroke-dashoffset="0" style="mix-blend-mode: normal"><path d="M-240,-180h960v720h-960z" fill="none" fill-rule="evenodd" stroke="none" stroke-width="1" stroke-linecap="square"/><path d="M224.33333,180.00346l31.33333,-0.00694" data-paper-data="{&quot;index&quot;:null}" fill="#ffffff" fill-rule="nonzero" stroke="#5ec565" stroke-width="24" stroke-linecap="round"/><path d="M226.35953,183.45133c-0.1301,0 -0.23932,-0.04417 -0.32767,-0.13251c-0.08834,-0.08834 -0.13251,-0.19757 -0.13251,-0.32767v-5.98474c0,-0.13492 0.04417,-0.24495 0.13251,-0.33008c0.08834,-0.08513 0.19757,-0.12769 0.32767,-0.12769h1.59015c0.44171,0 0.83362,0.09316 1.17575,0.27948c0.34212,0.18471 0.60875,0.4393 0.79989,0.76376c0.19114,0.32285 0.28671,0.69951 0.28671,1.12997c0,0.40156 -0.09557,0.75813 -0.28671,1.06974c-0.19114,0.31161 -0.45777,0.55655 -0.79989,0.73484c-0.34212,0.17668 -0.73404,0.26502 -1.17575,0.26502h-1.13238v2.19971c0,0.1301 -0.04257,0.23932 -0.12769,0.32767c-0.08513,0.08834 -0.19515,0.13251 -0.33008,0.13251zM230.02652,183.45133c-0.08192,0 -0.15661,-0.01767 -0.22406,-0.05301c-0.06746,-0.03534 -0.12528,-0.09155 -0.17347,-0.16865l-1.59015,-2.56351l0.89145,-0.25539l1.45041,2.33222c0.10601,0.17187 0.12046,0.33329 0.04337,0.48427c-0.07549,0.14938 -0.20801,0.22407 -0.39753,0.22407zM226.8173,179.94096h1.13238c0.27145,0 0.50997,-0.0514 0.71557,-0.1542c0.2072,-0.1028 0.36943,-0.24655 0.48668,-0.43127c0.11725,-0.18632 0.17588,-0.39753 0.17588,-0.63365c0,-0.2586 -0.05863,-0.48829 -0.17588,-0.68907c-0.11725,-0.20078 -0.27948,-0.35658 -0.48668,-0.46741c-0.20559,-0.11244 -0.44412,-0.16865 -0.71557,-0.16865h-1.13238zM231.94628,183.45133c-0.1301,0 -0.23932,-0.04417 -0.32767,-0.13251c-0.08834,-0.08834 -0.13251,-0.19757 -0.13251,-0.32767v-5.98474c0,-0.13492 0.04417,-0.24495 0.13251,-0.33008c0.08834,-0.08513 0.19757,-0.12769 0.32767,-0.12769h3.99465c0.13492,0 0.24334,0.04016 0.32526,0.12046c0.08352,0.07871 0.12528,0.18231 0.12528,0.3108c0,0.12368 -0.04176,0.22407 -0.12528,0.30117c-0.08192,0.0771 -0.19034,0.11565 -0.32526,0.11565h-3.53688v2.1467h2.53701c0.13653,0 0.24575,0.04016 0.32767,0.12046c0.08352,0.07871 0.12528,0.17989 0.12528,0.30357c0,0.12368 -0.04176,0.22567 -0.12528,0.30598c-0.08192,0.08031 -0.19114,0.12046 -0.32767,0.12046h-2.53701v2.20934h3.53688c0.13492,0 0.24334,0.03855 0.32526,0.11565c0.08352,0.07549 0.12528,0.17508 0.12528,0.29875c0,0.1301 -0.04176,0.23531 -0.12528,0.31562c-0.08192,0.07871 -0.19034,0.11806 -0.32526,0.11806zM239.71465,183.45133c-0.1285,0 -0.23692,-0.04417 -0.32526,-0.13251c-0.08834,-0.08834 -0.13251,-0.19757 -0.13251,-0.32767v-6.44251h0.91795v6.44251c0,0.1301 -0.04417,0.23932 -0.13251,0.32767c-0.08834,0.08834 -0.19757,0.13251 -0.32767,0.13251zM237.34629,177.39672c-0.12368,0 -0.22567,-0.03935 -0.30598,-0.11806c-0.07871,-0.08031 -0.11806,-0.18231 -0.11806,-0.30598c0,-0.12368 0.03935,-0.22487 0.11806,-0.30357c0.08031,-0.08031 0.18231,-0.12046 0.30598,-0.12046h4.72949c0.12368,0 0.22487,0.04016 0.30357,0.12046c0.08031,0.07871 0.12046,0.17989 0.12046,0.30357c0,0.12368 -0.04016,0.22567 -0.12046,0.30598c-0.07871,0.07871 -0.17989,0.11806 -0.30357,0.11806zM243.97724,183.45133c-0.1301,0 -0.23932,-0.04417 -0.32767,-0.13251c-0.08834,-0.08834 -0.13251,-0.19757 -0.13251,-0.32767v-5.98474c0,-0.13492 0.04417,-0.24495 0.13251,-0.33008c0.08834,-0.08513 0.19757,-0.12769 0.32767,-0.12769h1.59015c0.44171,0 0.83362,0.09316 1.17575,0.27948c0.34212,0.18471 0.60875,0.4393 0.79989,0.76376c0.19114,0.32285 0.28671,0.69951 0.28671,1.12997c0,0.40156 -0.09557,0.75813 -0.28671,1.06974c-0.19114,0.31161 -0.45777,0.55655 -0.79989,0.73484c-0.34212,0.17668 -0.73404,0.26502 -1.17575,0.26502h-1.13238v2.19971c0,0.1301 -0.04257,0.23932 -0.12769,0.32767c-0.08513,0.08834 -0.19515,0.13251 -0.33008,0.13251zM247.64422,183.45133c-0.08192,0 -0.15661,-0.01767 -0.22406,-0.05301c-0.06746,-0.03534 -0.12528,-0.09155 -0.17347,-0.16865l-1.59015,-2.56351l0.89145,-0.25539l1.45041,2.33222c0.10601,0.17187 0.12046,0.33329 0.04337,0.48427c-0.07549,0.14938 -0.20801,0.22407 -0.39753,0.22407zM244.43502,179.94096h1.13238c0.27145,0 0.50997,-0.0514 0.71557,-0.1542c0.2072,-0.1028 0.36943,-0.24655 0.48668,-0.43127c0.11725,-0.18632 0.17588,-0.39753 0.17588,-0.63365c0,-0.2586 -0.05863,-0.48829 -0.17588,-0.68907c-0.11725,-0.20078 -0.27948,-0.35658 -0.48668,-0.46741c-0.20559,-0.11244 -0.44412,-0.16865 -0.71557,-0.16865h-1.13238zM251.17102,183.45133c-0.12368,0 -0.22969,-0.04417 -0.31803,-0.13251c-0.08834,-0.08834 -0.13251,-0.19757 -0.13251,-0.32767v-2.05996l-2.35872,-3.66698c-0.0771,-0.12368 -0.10681,-0.24013 -0.08914,-0.34935c0.01767,-0.10922 0.06907,-0.19757 0.1542,-0.26502c0.08513,-0.06746 0.18391,-0.10119 0.29635,-0.10119c0.10119,0 0.1807,0.02249 0.23852,0.06746c0.05943,0.04337 0.11565,0.10601 0.16865,0.18793l2.24548,3.56338h-0.35417l2.28162,-3.59952c0.04658,-0.07067 0.10199,-0.12448 0.16624,-0.16142c0.06585,-0.03855 0.14536,-0.05782 0.23852,-0.05782c0.10601,0 0.19435,0.03694 0.26502,0.11083c0.07228,0.07228 0.11404,0.16303 0.12528,0.27225c0.01124,0.10922 -0.01847,0.22005 -0.08914,0.33249l-2.37799,3.66698v2.05997c0,0.1301 -0.04417,0.23932 -0.13251,0.32767c-0.08834,0.08834 -0.19757,0.13251 -0.32767,0.13251z" fill="#ffffff" fill-rule="nonzero" stroke="none" stroke-width="1" stroke-linecap="square"/></g></g></svg>