<svg version="1.1" xmlns="http://www.w3.org/2000/svg" xmlns:xlink="http://www.w3.org/1999/xlink" width="960" height="720" viewBox="0,0,960,720"><g transform="translate(240,180)"><g data-paper-data="{&quot;isPaintingLayer&quot;:true}" stroke="none" stroke-width="1" stroke-linecap="square" stroke-linejoin="miter" stroke-miterlimit="10" stroke-dasharray="" stroke-dashoffset="0" style="mix-blend-mode: normal"><path d="M-240,-180h960v720h-960z" fill-opacity="0" fill="#000000" fill-rule="evenodd"/><path d="M154.04699,186.77343c-0.20834,0 -0.38541,-0.06771 -0.53125,-0.20312c-0.13541,-0.13541 -0.20312,-0.3125 -0.20312,-0.53125v-13.10937c0,-0.20833 0.06771,-0.38021 0.20313,-0.51562c0.14584,-0.14583 0.32291,-0.21875 0.53125,-0.21875c0.20834,0 0.38021,0.07292 0.51563,0.21875c0.14584,0.13542 0.21875,0.30729 0.21875,0.51563v13.10937c0,0.21875 -0.07291,0.39584 -0.21875,0.53125c-0.13541,0.13541 -0.30729,0.20313 -0.51562,0.20313zM157.10842,176.85155c-0.14584,0 -0.27084,-0.06771 -0.375,-0.20312c-0.10416,-0.13542 -0.11979,-0.29167 -0.04687,-0.46875c0.1875,-0.4375 0.29688,-0.80208 0.32813,-1.09375c0.04166,-0.30208 0.04688,-0.5625 0.01563,-0.78125c-0.02084,-0.21875 -0.05729,-0.42708 -0.10937,-0.625c-0.04166,-0.19792 -0.0625,-0.42187 -0.0625,-0.67187c0,-0.30208 0.08854,-0.54167 0.26563,-0.71875c0.1875,-0.17708 0.42188,-0.26562 0.70313,-0.26562c0.3125,0 0.55729,0.13542 0.73438,0.40625c0.1875,0.26042 0.28125,0.61979 0.28125,1.07813c0,0.29167 -0.05729,0.625 -0.17187,1c-0.11459,0.36458 -0.26041,0.72917 -0.4375,1.09375c-0.17709,0.36458 -0.36459,0.66667 -0.5625,0.90625c-0.19791,0.22917 -0.38541,0.34375 -0.5625,0.34375zM166.0834,186.86718c-0.98959,0 -1.875,-0.22396 -2.65625,-0.67187c-0.78125,-0.45833 -1.40104,-1.07812 -1.85937,-1.85937c-0.44791,-0.79167 -0.67187,-1.68229 -0.67187,-2.67187c0,-0.97917 0.21875,-1.85937 0.65625,-2.64062c0.44791,-0.79167 1.04688,-1.41146 1.79688,-1.85937c0.76041,-0.45833 1.61979,-0.6875 2.57813,-0.6875c0.83334,0 1.58334,0.17708 2.25,0.53125c0.67709,0.35417 1.22396,0.82292 1.64063,1.40625v-5.48437c0,-0.21875 0.06771,-0.39583 0.20313,-0.53125c0.13541,-0.13542 0.30729,-0.20312 0.51563,-0.20312c0.20834,0 0.38021,0.06771 0.51563,0.20313c0.14584,0.13542 0.21875,0.3125 0.21875,0.53125v8.8125c-0.03125,0.96875 -0.27604,1.84375 -0.73437,2.625c-0.44791,0.77083 -1.0625,1.38021 -1.84375,1.82812c-0.77084,0.44791 -1.64062,0.67188 -2.60937,0.67188zM166.0834,185.55468c0.71875,0 1.35938,-0.16667 1.92188,-0.5c0.57291,-0.34375 1.02084,-0.80729 1.34375,-1.39062c0.33334,-0.59375 0.5,-1.26042 0.5,-2c0,-0.73958 -0.16666,-1.40104 -0.5,-1.98437c-0.32291,-0.59375 -0.77084,-1.05729 -1.34375,-1.39062c-0.5625,-0.34375 -1.20312,-0.51562 -1.92187,-0.51562c-0.70834,0 -1.34896,0.17188 -1.92187,0.51563c-0.57291,0.33333 -1.03125,0.79688 -1.375,1.39063c-0.33334,0.58333 -0.5,1.24479 -0.5,1.98438c0,0.73958 0.16666,1.40625 0.5,2c0.34375,0.58333 0.80209,1.04688 1.375,1.39063c0.57291,0.33333 1.21354,0.5 1.92188,0.5zM180.69277,180.49218c0.03125,-0.77083 0.22916,-1.45833 0.59375,-2.0625c0.375,-0.61458 0.85416,-1.09375 1.4375,-1.4375c0.59375,-0.35417 1.25,-0.53125 1.96875,-0.53125c0.57291,0 1.01563,0.08333 1.32813,0.25c0.3125,0.15625 0.43229,0.39063 0.35938,0.70313c-0.05209,0.1875 -0.14062,0.3125 -0.26562,0.375c-0.11459,0.05208 -0.25521,0.07292 -0.42187,0.0625c-0.16666,-0.01042 -0.35416,-0.02083 -0.5625,-0.03125c-0.69791,-0.0625 -1.31771,0.01042 -1.85937,0.21875c-0.54166,0.19792 -0.97396,0.51042 -1.29687,0.9375c-0.3125,0.42708 -0.46875,0.93229 -0.46875,1.51563zM180.80215,186.77343c-0.22916,0 -0.40625,-0.0625 -0.53125,-0.1875c-0.125,-0.125 -0.1875,-0.29687 -0.1875,-0.51562v-8.79687c0,-0.21875 0.0625,-0.39062 0.1875,-0.51562c0.125,-0.125 0.30209,-0.1875 0.53125,-0.1875c0.21875,0 0.39063,0.0625 0.51563,0.1875c0.125,0.125 0.1875,0.29688 0.1875,0.51563v8.79687c0,0.21875 -0.0625,0.39063 -0.1875,0.51563c-0.125,0.125 -0.29687,0.1875 -0.51562,0.1875zM192.38128,186.86718c-0.95834,0 -1.81771,-0.22396 -2.57812,-0.67187c-0.75,-0.45833 -1.34896,-1.07812 -1.79687,-1.85937c-0.4375,-0.79167 -0.65625,-1.67708 -0.65625,-2.65625c0,-0.98958 0.22396,-1.875 0.67188,-2.65625c0.45834,-0.79167 1.07813,-1.41146 1.85938,-1.85937c0.78125,-0.45833 1.66666,-0.6875 2.65625,-0.6875c0.97916,0 1.85416,0.22917 2.625,0.6875c0.78125,0.44792 1.40104,1.06771 1.85938,1.85938c0.45834,0.78125 0.69271,1.66667 0.70313,2.65625l-0.57812,0.45313c0,0.89583 -0.20834,1.70313 -0.625,2.42188c-0.41666,0.70833 -0.98437,1.27083 -1.70312,1.6875c-0.71875,0.41666 -1.53125,0.625 -2.4375,0.625zM192.53753,185.55468c0.71875,0 1.35938,-0.16667 1.92188,-0.5c0.57291,-0.33333 1.02084,-0.79687 1.34375,-1.39062c0.33334,-0.59375 0.5,-1.25521 0.5,-1.98437c0,-0.75 -0.16666,-1.41667 -0.5,-2c-0.32291,-0.58333 -0.77084,-1.04687 -1.34375,-1.39062c-0.5625,-0.34375 -1.20312,-0.51562 -1.92187,-0.51562c-0.70834,0 -1.34896,0.17188 -1.92187,0.51563c-0.57291,0.34375 -1.03125,0.80729 -1.375,1.39063c-0.33334,0.58333 -0.5,1.25 -0.5,2c0,0.72917 0.16666,1.39063 0.5,1.98438c0.34375,0.59375 0.80209,1.05729 1.375,1.39063c0.57291,0.33333 1.21354,0.5 1.92188,0.5zM196.99065,186.77343c-0.20834,0 -0.38021,-0.0625 -0.51562,-0.1875c-0.13541,-0.13541 -0.20312,-0.30729 -0.20312,-0.51562v-3.20312l0.34375,-1.46875l1.10938,0.28125v4.39062c0,0.20834 -0.07291,0.38021 -0.21875,0.51563c-0.13541,0.125 -0.30729,0.1875 -0.51562,0.1875zM204.51156,186.77343c-0.65625,0 -1.24479,-0.15625 -1.76562,-0.46875c-0.51041,-0.3125 -0.91666,-0.73958 -1.21875,-1.28125c-0.30209,-0.54167 -0.45312,-1.15625 -0.45312,-1.84375v-9.125c0,-0.21875 0.0625,-0.39583 0.1875,-0.53125c0.13541,-0.13542 0.3125,-0.20312 0.53125,-0.20312c0.20834,0 0.38021,0.06771 0.51563,0.20313c0.13541,0.13542 0.20313,0.3125 0.20313,0.53125v9.125c0,0.625 0.1875,1.14063 0.5625,1.54688c0.375,0.40625 0.85416,0.60938 1.4375,0.60938h0.5c0.19791,0 0.35938,0.06771 0.48438,0.20313c0.125,0.13542 0.1875,0.3125 0.1875,0.53125c0,0.20834 -0.07291,0.38021 -0.21875,0.51563c-0.14584,0.125 -0.33334,0.1875 -0.5625,0.1875zM199.87093,178.1953c-0.1875,0 -0.34375,-0.05729 -0.46875,-0.17187c-0.125,-0.125 -0.1875,-0.27604 -0.1875,-0.45312c0,-0.1875 0.0625,-0.33854 0.1875,-0.45312c0.125,-0.11458 0.28125,-0.17187 0.46875,-0.17187h4.75c0.1875,0 0.34375,0.05729 0.46875,0.17188c0.125,0.11458 0.1875,0.26563 0.1875,0.45313c0,0.17708 -0.0625,0.32813 -0.1875,0.45313c-0.125,0.11458 -0.28125,0.17188 -0.46875,0.17188zM212.652,186.86718c-1.01041,0 -1.90625,-0.21875 -2.6875,-0.65625c-0.77084,-0.44792 -1.38021,-1.0625 -1.82812,-1.84375c-0.4375,-0.78125 -0.65625,-1.67708 -0.65625,-2.6875c0,-1.02083 0.20834,-1.91667 0.625,-2.6875c0.41666,-0.78125 0.98959,-1.39583 1.71875,-1.84375c0.73959,-0.44792 1.58854,-0.67187 2.54688,-0.67187c0.9375,0 1.75521,0.21354 2.45313,0.64063c0.70834,0.42708 1.25521,1.02083 1.64063,1.78125c0.38541,0.76042 0.57813,1.625 0.57813,2.59375c0,0.19792 -0.0625,0.35938 -0.1875,0.48438c-0.125,0.11458 -0.28646,0.17188 -0.48437,0.17188h-7.92187v-1.20312h8.07813l-0.79687,0.57813c0.01041,-0.71875 -0.125,-1.36458 -0.40625,-1.9375c-0.27084,-0.57292 -0.65625,-1.02083 -1.15625,-1.34375c-0.5,-0.32292 -1.09896,-0.48437 -1.79687,-0.48437c-0.70834,0 -1.33334,0.17188 -1.875,0.51563c-0.53125,0.33333 -0.94271,0.79688 -1.23437,1.39063c-0.29166,0.58333 -0.4375,1.25521 -0.4375,2.01563c0,0.76042 0.16146,1.43229 0.48438,2.01563c0.33334,0.58333 0.78646,1.04688 1.35938,1.39063c0.57291,0.33333 1.23438,0.5 1.98438,0.5c0.44791,0 0.89584,-0.07812 1.34375,-0.23437c0.45834,-0.15625 0.82291,-0.35417 1.09375,-0.59375c0.13541,-0.11458 0.29166,-0.17187 0.46875,-0.17187c0.17709,-0.01042 0.32291,0.03646 0.4375,0.14063c0.16666,0.14583 0.25,0.30729 0.25,0.48438c0.01041,0.16667 -0.05729,0.3125 -0.20312,0.4375c-0.41666,0.35417 -0.94271,0.64583 -1.57812,0.875c-0.625,0.22916 -1.22916,0.34375 -1.8125,0.34375zM228.93261,186.77343c-0.65625,0 -1.24479,-0.15625 -1.76562,-0.46875c-0.51041,-0.3125 -0.91666,-0.73958 -1.21875,-1.28125c-0.30209,-0.54167 -0.45312,-1.15625 -0.45312,-1.84375v-9.125c0,-0.21875 0.0625,-0.39583 0.1875,-0.53125c0.13541,-0.13542 0.3125,-0.20312 0.53125,-0.20312c0.20834,0 0.38021,0.06771 0.51563,0.20313c0.13541,0.13542 0.20313,0.3125 0.20313,0.53125v9.125c0,0.625 0.1875,1.14063 0.5625,1.54688c0.375,0.40625 0.85416,0.60938 1.4375,0.60938h0.5c0.19791,0 0.35938,0.06771 0.48438,0.20313c0.125,0.13542 0.1875,0.3125 0.1875,0.53125c0,0.20834 -0.07291,0.38021 -0.21875,0.51563c-0.14584,0.125 -0.33334,0.1875 -0.5625,0.1875zM224.29198,178.1953c-0.1875,0 -0.34375,-0.05729 -0.46875,-0.17187c-0.125,-0.125 -0.1875,-0.27604 -0.1875,-0.45312c0,-0.1875 0.0625,-0.33854 0.1875,-0.45312c0.125,-0.11458 0.28125,-0.17187 0.46875,-0.17187h4.75c0.1875,0 0.34375,0.05729 0.46875,0.17188c0.125,0.11458 0.1875,0.26563 0.1875,0.45313c0,0.17708 -0.0625,0.32813 -0.1875,0.45313c-0.125,0.11458 -0.28125,0.17188 -0.46875,0.17188zM241.18243,186.77343c-0.20834,0 -0.38021,-0.06771 -0.51562,-0.20312c-0.13541,-0.13541 -0.20312,-0.30209 -0.20312,-0.5v-4.85937c0,-0.77083 -0.14584,-1.40104 -0.4375,-1.89062c-0.29166,-0.5 -0.69271,-0.875 -1.20312,-1.125c-0.5,-0.25 -1.06771,-0.375 -1.70312,-0.375c-0.60416,0 -1.15625,0.11979 -1.65625,0.35938c-0.48959,0.22917 -0.88021,0.55208 -1.17187,0.96875c-0.28125,0.40625 -0.42187,0.86979 -0.42187,1.39063h-1.01562c0.02084,-0.78125 0.22916,-1.47917 0.625,-2.09375c0.40625,-0.61458 0.9375,-1.09896 1.59375,-1.45312c0.65625,-0.35417 1.39063,-0.53125 2.20313,-0.53125c0.875,0 1.66146,0.18229 2.35938,0.54688c0.69791,0.36458 1.25,0.90104 1.65625,1.60938c0.40625,0.70833 0.60938,1.57292 0.60938,2.59375v4.85937c0,0.19791 -0.06771,0.36459 -0.20312,0.5c-0.13541,0.13541 -0.30729,0.20313 -0.51562,0.20313zM233.1668,186.77343c-0.21875,0 -0.39584,-0.0625 -0.53125,-0.1875c-0.13541,-0.13541 -0.20312,-0.30729 -0.20312,-0.51562v-8.78125c0,-0.21875 0.06771,-0.39062 0.20313,-0.51562c0.13541,-0.13542 0.3125,-0.20312 0.53125,-0.20312c0.20834,0 0.375,0.06771 0.5,0.20313c0.13541,0.125 0.20313,0.29688 0.20313,0.51563v8.78125c0,0.20834 -0.06771,0.38021 -0.20312,0.51563c-0.125,0.125 -0.29166,0.1875 -0.5,0.1875zM233.1668,182.61718c-0.21875,0 -0.39584,-0.06771 -0.53125,-0.20312c-0.13541,-0.14583 -0.20312,-0.32292 -0.20312,-0.53125v-8.95312c0,-0.21875 0.06771,-0.39583 0.20313,-0.53125c0.13541,-0.13542 0.3125,-0.20312 0.53125,-0.20312c0.20834,0 0.375,0.06771 0.5,0.20313c0.13541,0.13542 0.20313,0.3125 0.20313,0.53125v8.95313c0,0.20833 -0.06771,0.38542 -0.20312,0.53125c-0.125,0.13542 -0.29166,0.20313 -0.5,0.20313zM249.56271,186.86718c-0.95834,0 -1.81771,-0.22396 -2.57812,-0.67187c-0.75,-0.45833 -1.34896,-1.07812 -1.79687,-1.85937c-0.4375,-0.79167 -0.65625,-1.67708 -0.65625,-2.65625c0,-0.98958 0.22396,-1.875 0.67188,-2.65625c0.45834,-0.79167 1.07813,-1.41146 1.85938,-1.85937c0.78125,-0.45833 1.66666,-0.6875 2.65625,-0.6875c0.97916,0 1.85417,0.22917 2.625,0.6875c0.78125,0.44792 1.40104,1.06771 1.85938,1.85938c0.45833,0.78125 0.69271,1.66667 0.70313,2.65625l-0.57812,0.45313c0,0.89583 -0.20833,1.70313 -0.625,2.42188c-0.41667,0.70833 -0.98437,1.27083 -1.70312,1.6875c-0.71875,0.41666 -1.53125,0.625 -2.4375,0.625zM249.71896,185.55468c0.71875,0 1.35938,-0.16667 1.92188,-0.5c0.57292,-0.33333 1.02083,-0.79687 1.34375,-1.39062c0.33333,-0.59375 0.5,-1.25521 0.5,-1.98437c0,-0.75 -0.16667,-1.41667 -0.5,-2c-0.32292,-0.58333 -0.77083,-1.04687 -1.34375,-1.39062c-0.5625,-0.34375 -1.20312,-0.51562 -1.92187,-0.51562c-0.70834,0 -1.34896,0.17188 -1.92187,0.51563c-0.57291,0.34375 -1.03125,0.80729 -1.375,1.39063c-0.33334,0.58333 -0.5,1.25 -0.5,2c0,0.72917 0.16666,1.39063 0.5,1.98438c0.34375,0.59375 0.80209,1.05729 1.375,1.39063c0.57291,0.33333 1.21354,0.5 1.92188,0.5zM254.17208,186.77343c-0.20833,0 -0.38021,-0.0625 -0.51562,-0.1875c-0.13542,-0.13541 -0.20312,-0.30729 -0.20312,-0.51562v-3.20312l0.34375,-1.46875l1.10938,0.28125v4.39062c0,0.20834 -0.07292,0.38021 -0.21875,0.51563c-0.13542,0.125 -0.30729,0.1875 -0.51562,0.1875zM261.69299,186.77343c-0.65625,0 -1.24479,-0.15625 -1.76562,-0.46875c-0.51042,-0.3125 -0.91667,-0.73958 -1.21875,-1.28125c-0.30208,-0.54167 -0.45312,-1.15625 -0.45312,-1.84375v-9.125c0,-0.21875 0.0625,-0.39583 0.1875,-0.53125c0.13542,-0.13542 0.3125,-0.20312 0.53125,-0.20312c0.20833,0 0.38021,0.06771 0.51563,0.20313c0.13542,0.13542 0.20313,0.3125 0.20313,0.53125v9.125c0,0.625 0.1875,1.14063 0.5625,1.54688c0.375,0.40625 0.85417,0.60938 1.4375,0.60938h0.5c0.19792,0 0.35938,0.06771 0.48438,0.20313c0.125,0.13542 0.1875,0.3125 0.1875,0.53125c0,0.20834 -0.07292,0.38021 -0.21875,0.51563c-0.14583,0.125 -0.33333,0.1875 -0.5625,0.1875zM257.05236,178.1953c-0.1875,0 -0.34375,-0.05729 -0.46875,-0.17187c-0.125,-0.125 -0.1875,-0.27604 -0.1875,-0.45312c0,-0.1875 0.0625,-0.33854 0.1875,-0.45312c0.125,-0.11458 0.28125,-0.17187 0.46875,-0.17187h4.75c0.1875,0 0.34375,0.05729 0.46875,0.17188c0.125,0.11458 0.1875,0.26563 0.1875,0.45313c0,0.17708 -0.0625,0.32813 -0.1875,0.45313c-0.125,0.11458 -0.28125,0.17188 -0.46875,0.17188zM275.15908,186.86718c-0.95833,0 -1.81771,-0.22396 -2.57812,-0.67187c-0.75,-0.45833 -1.34896,-1.07812 -1.79687,-1.85937c-0.4375,-0.79167 -0.65625,-1.67708 -0.65625,-2.65625c0,-0.98958 0.22396,-1.875 0.67188,-2.65625c0.45833,-0.79167 1.07813,-1.41146 1.85938,-1.85937c0.78125,-0.45833 1.66667,-0.6875 2.65625,-0.6875c0.97917,0 1.85417,0.22917 2.625,0.6875c0.78125,0.44792 1.40104,1.06771 1.85938,1.85938c0.45833,0.78125 0.69271,1.66667 0.70313,2.65625l-0.57812,0.45313c0,0.89583 -0.20833,1.70313 -0.625,2.42188c-0.41667,0.70833 -0.98437,1.27083 -1.70312,1.6875c-0.71875,0.41666 -1.53125,0.625 -2.4375,0.625zM275.31533,185.55468c0.71875,0 1.35938,-0.16667 1.92188,-0.5c0.57292,-0.33333 1.02083,-0.79687 1.34375,-1.39062c0.33333,-0.59375 0.5,-1.25521 0.5,-1.98437c0,-0.75 -0.16667,-1.41667 -0.5,-2c-0.32292,-0.58333 -0.77083,-1.04687 -1.34375,-1.39062c-0.5625,-0.34375 -1.20312,-0.51562 -1.92187,-0.51562c-0.70833,0 -1.34896,0.17188 -1.92187,0.51563c-0.57292,0.34375 -1.03125,0.80729 -1.375,1.39063c-0.33333,0.58333 -0.5,1.25 -0.5,2c0,0.72917 0.16667,1.39063 0.5,1.98438c0.34375,0.59375 0.80208,1.05729 1.375,1.39063c0.57292,0.33333 1.21354,0.5 1.92188,0.5zM279.76846,186.77343c-0.20833,0 -0.38021,-0.0625 -0.51562,-0.1875c-0.13542,-0.13541 -0.20312,-0.30729 -0.20312,-0.51562v-3.20312l0.34375,-1.46875l1.10938,0.28125v4.39062c0,0.20834 -0.07292,0.38021 -0.21875,0.51563c-0.13542,0.125 -0.30729,0.1875 -0.51562,0.1875zM292.49001,171.77343c0.84373,0 1.59372,0.19271 2.24997,0.57813c0.66667,0.375 1.1875,0.89063 1.5625,1.54688c0.375,0.65625 0.5625,1.41146 0.5625,2.26563c0,0.83333 -0.1875,1.58333 -0.5625,2.25c-0.375,0.65625 -0.89583,1.17708 -1.5625,1.5625c-0.65625,0.375 -1.40624,0.5625 -2.24997,0.5625c-0.83333,0 -1.58333,-0.1875 -2.25,-0.5625c-0.65625,-0.38542 -1.17708,-0.90625 -1.5625,-1.5625c-0.375,-0.66667 -0.5625,-1.41667 -0.5625,-2.25c0,-0.85417 0.1875,-1.60937 0.5625,-2.26562c0.38542,-0.65625 0.90625,-1.17187 1.5625,-1.54687c0.66667,-0.38542 1.41667,-0.57812 2.25,-0.57812zM292.50564,173.11718c-0.57292,0 -1.08854,0.13021 -1.54687,0.39063c-0.44792,0.26042 -0.80208,0.61979 -1.0625,1.07813c-0.26042,0.45833 -0.39062,0.98438 -0.39062,1.57813c0,0.58333 0.13021,1.10417 0.39063,1.5625c0.26042,0.45833 0.61458,0.82292 1.0625,1.09375c0.45833,0.26042 0.97396,0.39063 1.54688,0.39063c0.5729,0 1.0833,-0.13021 1.53122,-0.39062c0.44792,-0.27083 0.80208,-0.63542 1.0625,-1.09375c0.26042,-0.45833 0.39063,-0.97917 0.39063,-1.5625c0,-0.59375 -0.13021,-1.11979 -0.39062,-1.57812c-0.26042,-0.45833 -0.61458,-0.81771 -1.0625,-1.07812c-0.44792,-0.26042 -0.95833,-0.39062 -1.53122,-0.39062zM296.33373,178.3828l-4.60935,7.5625c-0.16667,0.27084 -0.38542,0.40625 -0.65625,0.40625c-0.1875,0 -0.34896,-0.05729 -0.48437,-0.17187c-0.13542,-0.11459 -0.21875,-0.25521 -0.25,-0.42187c-0.03125,-0.17708 0,-0.34896 0.09375,-0.51562l3.0781,-5.01562zM299.32323,188.22655c-0.26042,0 -0.46354,-0.10416 -0.60937,-0.3125c-0.14583,-0.19791 -0.16146,-0.4375 -0.04687,-0.71875l5.85938,-14.59375c0.05208,-0.14583 0.14063,-0.25521 0.26563,-0.32812c0.125,-0.07292 0.26042,-0.10937 0.40625,-0.10937c0.27083,0 0.46875,0.10938 0.59375,0.32813c0.125,0.21875 0.14583,0.45313 0.0625,0.70313l-5.85937,14.625c-0.0625,0.14584 -0.15625,0.25 -0.28125,0.3125c-0.125,0.0625 -0.25521,0.09375 -0.39062,0.09375zM311.08862,186.77343c-0.19792,0 -0.36979,-0.06771 -0.51562,-0.20312c-0.13542,-0.13541 -0.20312,-0.3125 -0.20312,-0.53125v-12.125l-1.875,0.65625c-0.13542,0.0625 -0.25521,0.09375 -0.35937,0.09375c-0.21875,0 -0.39583,-0.06771 -0.53125,-0.20312c-0.13542,-0.13542 -0.20312,-0.30208 -0.20312,-0.5c0,-0.15625 0.03125,-0.29167 0.09375,-0.40625c0.07292,-0.125 0.19792,-0.21875 0.375,-0.28125l2.875,-1c0.0625,-0.02083 0.125,-0.04167 0.1875,-0.0625c0.07292,-0.02083 0.13542,-0.03125 0.1875,-0.03125c0.20833,0 0.375,0.07292 0.5,0.21875c0.13542,0.14583 0.20313,0.31771 0.20313,0.51563v13.125c0,0.21875 -0.06771,0.39584 -0.20312,0.53125c-0.13542,0.13541 -0.3125,0.20313 -0.53125,0.20313zM319.00005,186.77343c-0.91667,0 -1.70833,-0.29166 -2.375,-0.875c-0.65625,-0.58333 -1.15625,-1.41667 -1.5,-2.5c-0.33333,-1.09375 -0.5,-2.40625 -0.5,-3.9375c0,-1.51042 0.16667,-2.8125 0.5,-3.90625c0.34375,-1.09375 0.84375,-1.93229 1.5,-2.51562c0.66667,-0.58333 1.45833,-0.875 2.375,-0.875c0.94792,0 1.74479,0.29688 2.39063,0.89063c0.65625,0.59375 1.15625,1.4375 1.5,2.53125c0.34375,1.09375 0.51563,2.38542 0.51563,3.875c0,1.52083 -0.17187,2.82813 -0.51562,3.92188c-0.34375,1.08333 -0.84375,1.92188 -1.5,2.51563c-0.64583,0.58333 -1.44271,0.875 -2.39062,0.875zM319.00005,185.3203c0.67708,0 1.22917,-0.25 1.65625,-0.75c0.4375,-0.51042 0.76042,-1.20312 0.96875,-2.07812c0.21875,-0.88542 0.32813,-1.89583 0.32813,-3.03125c0,-1.125 -0.10937,-2.125 -0.32812,-3c-0.21875,-0.875 -0.54687,-1.56771 -0.98437,-2.07812c-0.42708,-0.51042 -0.97396,-0.76562 -1.64062,-0.76562c-0.65625,0 -1.19792,0.25521 -1.625,0.76563c-0.42708,0.5 -0.75,1.19271 -0.96875,2.07813c-0.21875,0.875 -0.32812,1.875 -0.32812,3c0,1.14583 0.10938,2.15625 0.32813,3.03125c0.21875,0.875 0.54167,1.56771 0.96875,2.07813c0.42708,0.5 0.96875,0.75 1.625,0.75zM325.60925,187.0703c-0.30208,0 -0.55729,-0.10416 -0.76562,-0.3125c-0.20833,-0.20834 -0.3125,-0.46354 -0.3125,-0.76562c0,-0.3125 0.10417,-0.57291 0.3125,-0.78125c0.21875,-0.21875 0.47396,-0.32812 0.76563,-0.32812c0.30208,0 0.55729,0.10938 0.76563,0.32813c0.20833,0.21875 0.3125,0.47916 0.3125,0.78125c0,0.28125 -0.10417,0.53125 -0.3125,0.75c-0.19792,0.21875 -0.45312,0.32813 -0.76562,0.32813z" fill="#000000" fill-rule="nonzero"/></g></g></svg>