<svg version="1.1" xmlns="http://www.w3.org/2000/svg" xmlns:xlink="http://www.w3.org/1999/xlink" width="720" height="540" viewBox="0,0,720,540"><defs><clipPath id="clip-1"><path d="M-120,450v-540h720v540z" fill="#5ec565" fill-rule="nonzero" stroke="none" stroke-width="1" stroke-linecap="butt"/></clipPath></defs><g transform="translate(120,90)"><g clip-path="url(#clip-1)" data-paper-data="{&quot;isPaintingLayer&quot;:true}" stroke-linejoin="miter" stroke-miterlimit="10" stroke-dasharray="" stroke-dashoffset="0" style="mix-blend-mode: normal"><path d="M-240,-180h960v720h-960z" fill-opacity="0" fill="#000000" fill-rule="evenodd" stroke="none" stroke-width="1" stroke-linecap="square"/><path d="M55.23883,107.2378h410.83466v108h-410.83466z" fill-opacity="0" fill="#000000" fill-rule="evenodd" stroke="none" stroke-width="1" stroke-linecap="square"/><path d="M-240,-180h960v720h-960z" fill="none" fill-rule="evenodd" stroke="none" stroke-width="1" stroke-linecap="square"/><path d="M192.91429,192.0815l93.56666,0.02801" data-paper-data="{&quot;index&quot;:null}" fill="#adadad" fill-rule="nonzero" stroke="#686868" stroke-width="24" stroke-linecap="round"/><path d="M207.17921,196.18488c-0.15248,0 -0.28049,-0.05177 -0.38403,-0.1553c-0.10354,-0.10354 -0.1553,-0.23155 -0.1553,-0.38403v-7.01415c0,-0.15813 0.05177,-0.28708 0.15531,-0.38685c0.10354,-0.09977 0.23155,-0.14966 0.38403,-0.14966c0.15813,0 0.28708,0.04989 0.38685,0.14966c0.09977,0.09977 0.14966,0.22872 0.14966,0.38685v7.01415c0,0.15248 -0.04989,0.28049 -0.14966,0.38403c-0.09977,0.10354 -0.22872,0.15531 -0.38685,0.15531zM210.32875,196.18488c-0.15248,0 -0.28049,-0.05177 -0.38403,-0.1553c-0.10354,-0.10354 -0.1553,-0.23155 -0.1553,-0.38403v-7.01415c0,-0.15813 0.05177,-0.28708 0.15531,-0.38685c0.10354,-0.09977 0.23155,-0.14966 0.38403,-0.14966c0.20707,0 0.3652,0.09601 0.47439,0.28802l3.24447,6.49741h-0.3332l3.16258,-6.49741c0.10918,-0.19201 0.26731,-0.28802 0.47439,-0.28802c0.15248,0 0.28049,0.04989 0.38403,0.14966c0.10354,0.09977 0.15531,0.22872 0.15531,0.38685v7.01415c0,0.15248 -0.05365,0.28049 -0.16095,0.38403c-0.1073,0.10354 -0.23343,0.15531 -0.37838,0.15531c-0.1506,0 -0.27861,-0.05177 -0.38403,-0.1553c-0.10354,-0.10354 -0.1553,-0.23155 -0.1553,-0.38403v-5.5204l0.20896,-0.05365l-2.71361,5.53452c-0.1186,0.17884 -0.27484,0.26826 -0.46874,0.26826c-0.22778,0 -0.39344,-0.1073 -0.49698,-0.32191l-2.68255,-5.37639l0.20613,-0.05083v5.5204c0,0.15248 -0.05177,0.28049 -0.1553,0.38403c-0.10354,0.10354 -0.2306,0.15531 -0.3812,0.15531zM220.50255,196.18488c-0.15248,0 -0.28049,-0.05177 -0.38403,-0.1553c-0.10354,-0.10354 -0.1553,-0.23155 -0.1553,-0.38403v-7.01415c0,-0.15813 0.05177,-0.28708 0.15531,-0.38685c0.10354,-0.09977 0.23155,-0.14966 0.38403,-0.14966h2.0698c0.51957,0 0.97889,0.11389 1.37798,0.34167c0.40097,0.22778 0.71346,0.54404 0.93748,0.94877c0.2259,0.40285 0.33885,0.86689 0.33885,1.3921c0,0.50451 -0.11295,0.95348 -0.33885,1.34692c-0.22402,0.39344 -0.53651,0.70123 -0.93748,0.92336c-0.39909,0.22025 -0.85841,0.33038 -1.37798,0.33038h-1.53329v2.26746c0,0.15248 -0.04989,0.28049 -0.14966,0.38403c-0.09977,0.10354 -0.22872,0.15531 -0.38685,0.15531zM221.03906,192.38131h1.53329c0.31814,0 0.59769,-0.06871 0.83865,-0.20613c0.24284,-0.13742 0.43297,-0.32661 0.57039,-0.56757c0.1393,-0.24284 0.20896,-0.51957 0.20896,-0.83018c0,-0.33132 -0.06965,-0.6231 -0.20896,-0.87536c-0.13742,-0.25225 -0.32755,-0.45086 -0.57039,-0.59581c-0.24096,-0.14495 -0.52051,-0.21743 -0.83865,-0.21743h-1.53329zM230.15631,196.28936c-0.60616,0 -1.1615,-0.10165 -1.666,-0.30496c-0.50451,-0.20519 -0.93842,-0.49227 -1.30174,-0.86124c-0.36144,-0.36897 -0.64287,-0.80759 -0.8443,-1.31586c-0.19954,-0.50827 -0.29932,-1.06643 -0.29932,-1.67447c0,-0.60616 0.09977,-1.1615 0.29932,-1.666c0.20143,-0.50451 0.48286,-0.94124 0.8443,-1.31021c0.36332,-0.37085 0.79723,-0.65793 1.30174,-0.86124c0.50451,-0.20331 1.05984,-0.30496 1.666,-0.30496c0.60804,0 1.16244,0.10165 1.66318,0.30496c0.50074,0.20331 0.93372,0.49039 1.29892,0.86124c0.36709,0.36897 0.6504,0.8057 0.84994,1.31021c0.20143,0.50451 0.30214,1.05984 0.30214,1.666c0,0.60804 -0.10071,1.1662 -0.30214,1.67447c-0.19954,0.50827 -0.48286,0.94689 -0.84994,1.31586c-0.3652,0.36897 -0.79818,0.65605 -1.29892,0.86124c-0.50074,0.20331 -1.05513,0.30496 -1.66318,0.30496zM230.15631,195.31517c0.44991,0 0.86312,-0.08095 1.23962,-0.24284c0.3765,-0.16378 0.70217,-0.38873 0.97701,-0.67487c0.27673,-0.28614 0.48945,-0.62216 0.63816,-1.00807c0.14872,-0.38779 0.22308,-0.80665 0.22308,-1.25656c0,-0.44803 -0.07436,-0.865 -0.22307,-1.25091c-0.14872,-0.38779 -0.36144,-0.72476 -0.63816,-1.0109c-0.27484,-0.28802 -0.60051,-0.51109 -0.97701,-0.66922c-0.3765,-0.15813 -0.7897,-0.23719 -1.23962,-0.23719c-0.44803,0 -0.8603,0.07906 -1.2368,0.23719c-0.3765,0.15813 -0.70123,0.3812 -0.97419,0.66923c-0.27296,0.28614 -0.48568,0.6231 -0.63816,1.0109c-0.1506,0.38591 -0.2259,0.80288 -0.2259,1.25091c0,0.44991 0.0753,0.86877 0.2259,1.25656c0.15248,0.38591 0.3652,0.72193 0.63816,1.00807c0.27296,0.28614 0.59769,0.5111 0.97419,0.67487c0.3765,0.16189 0.78876,0.24284 1.2368,0.24284zM238.52912,196.28936c-0.44239,0 -0.86406,-0.06871 -1.26503,-0.20613c-0.40097,-0.1393 -0.75017,-0.3332 -1.0476,-0.58169c-0.29555,-0.24849 -0.51298,-0.53557 -0.65228,-0.86124c-0.06777,-0.14495 -0.06589,-0.27955 0.00565,-0.40379c0.07342,-0.12424 0.19672,-0.20331 0.36991,-0.23719c0.12424,-0.02824 0.24661,-0.00941 0.36709,0.05647c0.12048,0.06589 0.21178,0.16472 0.2739,0.29649c0.08283,0.17131 0.21931,0.32944 0.40944,0.47439c0.19013,0.14495 0.4198,0.26261 0.68899,0.35297c0.2692,0.09036 0.55251,0.13554 0.84994,0.13554c0.33132,0 0.63628,-0.05177 0.91489,-0.1553c0.28049,-0.10354 0.50733,-0.25319 0.68052,-0.44897c0.17319,-0.19766 0.25978,-0.44144 0.25978,-0.73135c0,-0.36709 -0.14401,-0.69558 -0.43203,-0.98548c-0.28614,-0.2899 -0.7577,-0.46968 -1.41469,-0.53933c-0.85465,-0.08283 -1.52764,-0.33414 -2.01897,-0.75394c-0.48945,-0.42168 -0.73417,-0.94407 -0.73417,-1.56717c0,-0.45556 0.12707,-0.84147 0.3812,-1.15773c0.25602,-0.31814 0.60334,-0.56004 1.04196,-0.7257c0.43862,-0.16754 0.92713,-0.25131 1.46552,-0.25131c0.42168,0 0.7897,0.0593 1.10408,0.1779c0.31438,0.11671 0.58828,0.27861 0.82171,0.48568c0.23531,0.20707 0.43956,0.45274 0.61275,0.737c0.09601,0.15248 0.13554,0.29649 0.1186,0.43203c-0.01694,0.13366 -0.08377,0.23814 -0.20048,0.31344c-0.13177,0.08283 -0.2739,0.10071 -0.42638,0.05365c-0.1506,-0.04894 -0.26449,-0.1393 -0.34167,-0.27108c-0.10918,-0.19954 -0.24378,-0.36803 -0.40379,-0.50545c-0.15813,-0.1393 -0.3445,-0.24849 -0.5591,-0.32755c-0.2146,-0.08095 -0.46686,-0.12142 -0.75676,-0.12142c-0.51016,-0.00565 -0.93842,0.09036 -1.2848,0.28802c-0.3445,0.19578 -0.51674,0.49698 -0.51674,0.90359c0,0.20707 0.05365,0.40568 0.16095,0.59581c0.1073,0.19013 0.30402,0.35485 0.59016,0.49415c0.28614,0.13742 0.6984,0.23343 1.2368,0.28802c0.82265,0.08283 1.46364,0.3332 1.92296,0.75111c0.45933,0.41791 0.68899,0.96854 0.68899,1.65188c0,0.39532 -0.08189,0.73794 -0.24566,1.02784c-0.16189,0.2899 -0.37932,0.53369 -0.65228,0.73135c-0.27108,0.19578 -0.58169,0.34261 -0.93183,0.4405c-0.34826,0.09601 -0.70876,0.14401 -1.08149,0.14401zM245.657,196.28936c-0.44239,0 -0.86406,-0.06871 -1.26503,-0.20613c-0.40097,-0.1393 -0.75017,-0.3332 -1.0476,-0.58169c-0.29555,-0.24849 -0.51298,-0.53557 -0.65228,-0.86124c-0.06777,-0.14495 -0.06589,-0.27955 0.00565,-0.40379c0.07342,-0.12424 0.19672,-0.20331 0.36991,-0.23719c0.12424,-0.02824 0.24661,-0.00941 0.36709,0.05647c0.12048,0.06589 0.21178,0.16472 0.2739,0.29649c0.08283,0.17131 0.21931,0.32944 0.40944,0.47439c0.19013,0.14495 0.4198,0.26261 0.68899,0.35297c0.2692,0.09036 0.55251,0.13554 0.84994,0.13554c0.33132,0 0.63628,-0.05177 0.91489,-0.1553c0.28049,-0.10354 0.50733,-0.25319 0.68052,-0.44897c0.17319,-0.19766 0.25978,-0.44144 0.25978,-0.73135c0,-0.36709 -0.14401,-0.69558 -0.43203,-0.98548c-0.28614,-0.2899 -0.7577,-0.46968 -1.41469,-0.53933c-0.85465,-0.08283 -1.52764,-0.33414 -2.01897,-0.75394c-0.48945,-0.42168 -0.73417,-0.94407 -0.73417,-1.56717c0,-0.45556 0.12707,-0.84147 0.3812,-1.15773c0.25602,-0.31814 0.60334,-0.56004 1.04196,-0.7257c0.43862,-0.16754 0.92713,-0.25131 1.46552,-0.25131c0.42168,0 0.7897,0.0593 1.10408,0.1779c0.31438,0.11671 0.58828,0.27861 0.82171,0.48568c0.23531,0.20707 0.43956,0.45274 0.61275,0.737c0.09601,0.15248 0.13554,0.29649 0.1186,0.43203c-0.01694,0.13366 -0.08377,0.23814 -0.20048,0.31344c-0.13177,0.08283 -0.2739,0.10071 -0.42638,0.05365c-0.1506,-0.04894 -0.26449,-0.1393 -0.34167,-0.27108c-0.10918,-0.19954 -0.24378,-0.36803 -0.40379,-0.50545c-0.15813,-0.1393 -0.3445,-0.24849 -0.5591,-0.32755c-0.2146,-0.08095 -0.46686,-0.12142 -0.75676,-0.12142c-0.51016,-0.00565 -0.93842,0.09036 -1.2848,0.28802c-0.3445,0.19578 -0.51674,0.49698 -0.51674,0.90359c0,0.20707 0.05365,0.40568 0.16095,0.59581c0.1073,0.19013 0.30402,0.35485 0.59016,0.49415c0.28614,0.13742 0.6984,0.23343 1.2368,0.28802c0.82265,0.08283 1.46364,0.3332 1.92296,0.75111c0.45933,0.41791 0.68899,0.96854 0.68899,1.65188c0,0.39532 -0.08189,0.73794 -0.24566,1.02784c-0.16189,0.2899 -0.37932,0.53369 -0.65228,0.73135c-0.27108,0.19578 -0.58169,0.34261 -0.93183,0.4405c-0.34826,0.09601 -0.70876,0.14401 -1.08149,0.14401zM250.75462,196.18488c-0.15248,0 -0.28049,-0.05177 -0.38403,-0.1553c-0.10354,-0.10354 -0.1553,-0.23155 -0.1553,-0.38403v-7.01415c0,-0.15813 0.05177,-0.28708 0.15531,-0.38685c0.10354,-0.09977 0.23155,-0.14966 0.38403,-0.14966c0.15813,0 0.28708,0.04989 0.38685,0.14966c0.09977,0.09977 0.14966,0.22872 0.14966,0.38685v7.01415c0,0.15248 -0.04989,0.28049 -0.14966,0.38403c-0.09977,0.10354 -0.22872,0.15531 -0.38685,0.15531zM253.90415,196.18488c-0.15248,0 -0.28049,-0.05177 -0.38403,-0.1553c-0.10354,-0.10354 -0.1553,-0.23155 -0.1553,-0.38403v-7.01415c0,-0.15813 0.05177,-0.28708 0.15531,-0.38685c0.10354,-0.09977 0.23155,-0.14966 0.38403,-0.14966h2.47642c0.46874,0 0.881,0.0913 1.2368,0.2739c0.35579,0.1826 0.63534,0.43674 0.83865,0.76241c0.20331,0.32379 0.30496,0.69652 0.30496,1.1182c0,0.33696 -0.0913,0.64193 -0.2739,0.91489c-0.1826,0.27296 -0.43297,0.48945 -0.75111,0.64946c0.45556,0.10918 0.82171,0.32661 1.09843,0.65228c0.27673,0.32379 0.41509,0.74829 0.41509,1.2735c0,0.47627 -0.11295,0.89795 -0.33885,1.26503c-0.22402,0.3652 -0.53651,0.65322 -0.93748,0.86406c-0.39909,0.21084 -0.85747,0.31626 -1.37516,0.31626zM254.44066,195.19093h2.15733c0.31626,0 0.59487,-0.05553 0.83583,-0.1666c0.24284,-0.11107 0.43297,-0.27296 0.57039,-0.48568c0.1393,-0.2146 0.20896,-0.48098 0.20896,-0.79912c0,-0.29743 -0.06965,-0.54216 -0.20896,-0.73417c-0.13742,-0.1939 -0.32755,-0.34073 -0.57039,-0.4405c-0.24096,-0.10165 -0.51957,-0.15248 -0.83583,-0.15248h-2.15733zM254.44066,191.41842h1.93991c0.39344,0 0.71629,-0.09601 0.96854,-0.28802c0.25225,-0.1939 0.37838,-0.48757 0.37838,-0.881c0,-0.39344 -0.12613,-0.68523 -0.37838,-0.87536c-0.25225,-0.19013 -0.5751,-0.2852 -0.96854,-0.2852h-1.9399zM261.38335,196.18488c-0.15248,0 -0.27861,-0.05177 -0.37838,-0.1553c-0.09977,-0.10354 -0.14966,-0.23155 -0.14966,-0.38403v-7.01415c0,-0.1506 0.05177,-0.27767 0.15531,-0.3812c0.10354,-0.10354 0.22778,-0.1553 0.37273,-0.1553c0.15248,0 0.28049,0.05177 0.38403,0.15531c0.10354,0.10354 0.15531,0.2306 0.15531,0.3812v6.47482h3.74992c0.15248,0 0.28049,0.05177 0.38403,0.15531c0.10354,0.10354 0.15531,0.23155 0.15531,0.38403c0,0.15248 -0.05177,0.28049 -0.1553,0.38403c-0.10354,0.10354 -0.23155,0.15531 -0.38403,0.15531zM268.04596,196.18488c-0.15248,0 -0.28049,-0.05177 -0.38403,-0.1553c-0.10354,-0.10354 -0.1553,-0.23155 -0.1553,-0.38403v-7.01415c0,-0.15813 0.05177,-0.28708 0.15531,-0.38685c0.10354,-0.09977 0.23155,-0.14966 0.38403,-0.14966h4.68175c0.15813,0 0.2852,0.04706 0.3812,0.14119c0.09789,0.09224 0.14683,0.21366 0.14683,0.36426c0,0.14495 -0.04894,0.26261 -0.14683,0.35297c-0.09601,0.09036 -0.22307,0.13554 -0.3812,0.13554h-4.14524v2.51595h2.97339c0.16001,0 0.28802,0.04706 0.38403,0.14119c0.09789,0.09224 0.14683,0.21084 0.14683,0.35579c0,0.14495 -0.04894,0.26449 -0.14683,0.35862c-0.09601,0.09412 -0.22402,0.14119 -0.38403,0.14119h-2.97339v2.58936h4.14524c0.15813,0 0.2852,0.04518 0.3812,0.13554c0.09789,0.08848 0.14683,0.20519 0.14683,0.35014c0,0.15248 -0.04894,0.27578 -0.14683,0.36991c-0.09601,0.09224 -0.22307,0.13836 -0.3812,0.13836z" fill="#2f2f2f" fill-rule="nonzero" stroke="none" stroke-width="1" stroke-linecap="square"/><path d="M192.71429,166.2815l93.56666,0.02801" data-paper-data="{&quot;index&quot;:null}" fill="#adadad" fill-rule="nonzero" stroke="#5ec565" stroke-width="24" stroke-linecap="round"/><path d="M216.59856,170.8706c-0.15248,0 -0.27861,-0.05177 -0.37838,-0.1553c-0.09977,-0.10354 -0.14966,-0.23155 -0.14966,-0.38403v-7.01415c0,-0.15813 0.04989,-0.28708 0.14966,-0.38685c0.09977,-0.09977 0.2259,-0.14966 0.37838,-0.14966c0.16566,0 0.30402,0.06495 0.41509,0.19484l4.51515,6.0089v-5.66723c0,-0.15813 0.05177,-0.28708 0.15531,-0.38685c0.10542,-0.09977 0.23343,-0.14966 0.38403,-0.14966c0.16001,0 0.28802,0.04989 0.38403,0.14966c0.09601,0.09977 0.14401,0.22872 0.14401,0.38685v7.01415c0,0.15248 -0.048,0.28049 -0.14401,0.38403c-0.09601,0.10354 -0.22402,0.15531 -0.38403,0.15531c-0.06777,0 -0.14213,-0.01506 -0.22307,-0.04518c-0.07906,-0.032 -0.14307,-0.07906 -0.19201,-0.14119l-4.51515,-6.0089v5.65594c0,0.15248 -0.05083,0.28049 -0.15248,0.38403c-0.09977,0.10354 -0.22872,0.15531 -0.38685,0.15531zM228.40819,170.97508c-0.60616,0 -1.1615,-0.10165 -1.666,-0.30496c-0.50451,-0.20519 -0.93842,-0.49227 -1.30174,-0.86124c-0.36144,-0.36897 -0.64287,-0.80759 -0.8443,-1.31586c-0.19954,-0.50827 -0.29932,-1.06643 -0.29932,-1.67447c0,-0.60616 0.09977,-1.1615 0.29932,-1.666c0.20143,-0.50451 0.48286,-0.94124 0.8443,-1.31021c0.36332,-0.37085 0.79723,-0.65793 1.30174,-0.86124c0.50451,-0.20331 1.05984,-0.30496 1.666,-0.30496c0.60804,0 1.16244,0.10165 1.66318,0.30496c0.50074,0.20331 0.93372,0.49039 1.29892,0.86124c0.36709,0.36897 0.6504,0.8057 0.84994,1.31021c0.20143,0.50451 0.30214,1.05984 0.30214,1.666c0,0.60804 -0.10071,1.1662 -0.30214,1.67447c-0.19954,0.50827 -0.48286,0.94689 -0.84994,1.31586c-0.3652,0.36897 -0.79818,0.65605 -1.29892,0.86124c-0.50074,0.20331 -1.05513,0.30496 -1.66318,0.30496zM228.40819,170.00089c0.44991,0 0.86312,-0.08095 1.23962,-0.24284c0.3765,-0.16378 0.70217,-0.38873 0.97701,-0.67487c0.27673,-0.28614 0.48945,-0.62216 0.63816,-1.00807c0.14872,-0.38779 0.22308,-0.80665 0.22308,-1.25656c0,-0.44803 -0.07436,-0.865 -0.22307,-1.25091c-0.14872,-0.38779 -0.36144,-0.72476 -0.63816,-1.0109c-0.27484,-0.28802 -0.60051,-0.51109 -0.97701,-0.66922c-0.3765,-0.15813 -0.7897,-0.23719 -1.23962,-0.23719c-0.44803,0 -0.8603,0.07906 -1.2368,0.23719c-0.3765,0.15813 -0.70123,0.3812 -0.97419,0.66923c-0.27296,0.28614 -0.48568,0.6231 -0.63816,1.0109c-0.1506,0.38591 -0.2259,0.80288 -0.2259,1.25091c0,0.44991 0.0753,0.86877 0.2259,1.25656c0.15248,0.38591 0.3652,0.72193 0.63816,1.00807c0.27296,0.28614 0.59769,0.5111 0.97419,0.67487c0.3765,0.16189 0.78876,0.24284 1.2368,0.24284zM234.75073,170.8706c-0.15248,0 -0.28049,-0.05177 -0.38403,-0.1553c-0.10354,-0.10354 -0.1553,-0.23155 -0.1553,-0.38403v-7.01415c0,-0.15813 0.05177,-0.28708 0.15531,-0.38685c0.10354,-0.09977 0.23155,-0.14966 0.38403,-0.14966h1.86366c0.51768,0 0.97701,0.10918 1.37798,0.32755c0.40097,0.21649 0.71346,0.51486 0.93748,0.89512c0.22402,0.37838 0.33603,0.81982 0.33603,1.32433c0,0.47062 -0.11201,0.88854 -0.33602,1.25374c-0.22402,0.3652 -0.53651,0.65228 -0.93748,0.86124c-0.40097,0.20707 -0.8603,0.31061 -1.37798,0.31061h-1.32715v2.57807c0,0.15248 -0.04989,0.28049 -0.14966,0.38403c-0.09977,0.10354 -0.22872,0.15531 -0.38685,0.15531zM239.04845,170.8706c-0.09601,0 -0.18354,-0.02071 -0.26261,-0.06212c-0.07906,-0.04142 -0.14683,-0.1073 -0.20331,-0.19766l-1.86366,-3.00445l1.04478,-0.29932l1.69989,2.73337c0.12424,0.20143 0.14119,0.39062 0.05083,0.56757c-0.08848,0.17507 -0.24378,0.26261 -0.46592,0.26261zM235.28724,166.75642h1.32715c0.31814,0 0.59769,-0.06024 0.83865,-0.18072c0.24284,-0.12048 0.43297,-0.28896 0.57039,-0.50545c0.13742,-0.21837 0.20613,-0.46592 0.20613,-0.74264c0,-0.30308 -0.06871,-0.57228 -0.20613,-0.80759c-0.13742,-0.23531 -0.32755,-0.41791 -0.57039,-0.5478c-0.24096,-0.13177 -0.52051,-0.19766 -0.83865,-0.19766h-1.32715zM241.29844,170.8706c-0.15248,0 -0.28049,-0.05177 -0.38403,-0.1553c-0.10354,-0.10354 -0.1553,-0.23155 -0.1553,-0.38403v-7.01415c0,-0.15813 0.05177,-0.28708 0.15531,-0.38685c0.10354,-0.09977 0.23155,-0.14966 0.38403,-0.14966c0.20707,0 0.3652,0.09601 0.47439,0.28802l3.24447,6.49741h-0.3332l3.16258,-6.49741c0.10918,-0.19201 0.26731,-0.28802 0.47439,-0.28802c0.15248,0 0.28049,0.04989 0.38403,0.14966c0.10354,0.09977 0.15531,0.22872 0.15531,0.38685v7.01415c0,0.15248 -0.05365,0.28049 -0.16095,0.38403c-0.1073,0.10354 -0.23343,0.15531 -0.37838,0.15531c-0.1506,0 -0.27861,-0.05177 -0.38403,-0.1553c-0.10354,-0.10354 -0.1553,-0.23155 -0.1553,-0.38403v-5.5204l0.20896,-0.05365l-2.71361,5.53452c-0.1186,0.17884 -0.27484,0.26825 -0.46874,0.26825c-0.22778,0 -0.39344,-0.1073 -0.49698,-0.32191l-2.68255,-5.37639l0.20613,-0.05083v5.5204c0,0.15248 -0.05177,0.28049 -0.1553,0.38403c-0.10354,0.10354 -0.2306,0.15531 -0.3812,0.15531zM250.61101,170.8706c-0.1939,0 -0.34261,-0.08283 -0.44615,-0.24849c-0.10354,-0.16566 -0.11389,-0.34167 -0.03106,-0.52804l2.91127,-6.95203c0.10354,-0.24096 0.27296,-0.36144 0.50827,-0.36144c0.24849,0 0.41791,0.12048 0.50827,0.36144l2.92257,6.9718c0.0753,0.1939 0.06306,0.36897 -0.03671,0.52521c-0.09977,0.15436 -0.25037,0.23155 -0.4518,0.23155c-0.10354,0 -0.20237,-0.02918 -0.29649,-0.08753c-0.09224,-0.05836 -0.15907,-0.1393 -0.20048,-0.24284l-2.5696,-6.38446h0.29085l-2.61195,6.38446c-0.04706,0.10918 -0.11766,0.19201 -0.21178,0.24849c-0.09224,0.05459 -0.18731,0.08189 -0.2852,0.08189zM251.16164,169.08882l0.41227,-0.8923h4.06335l0.41227,0.8923zM258.74425,170.8706c-0.15248,0 -0.27861,-0.05177 -0.37838,-0.1553c-0.09977,-0.10354 -0.14966,-0.23155 -0.14966,-0.38403v-7.01415c0,-0.1506 0.05177,-0.27767 0.15531,-0.3812c0.10354,-0.10354 0.22778,-0.1553 0.37273,-0.1553c0.15248,0 0.28049,0.05177 0.38403,0.15531c0.10354,0.10354 0.15531,0.2306 0.15531,0.3812v6.47482h3.74992c0.15248,0 0.28049,0.05177 0.38403,0.15531c0.10354,0.10354 0.15531,0.23155 0.15531,0.38403c0,0.15248 -0.05177,0.28049 -0.1553,0.38403c-0.10354,0.10354 -0.23155,0.15531 -0.38403,0.15531z" fill="#ffffff" fill-rule="nonzero" stroke="none" stroke-width="1" stroke-linecap="square"/></g></g></svg>