<svg version="1.1" xmlns="http://www.w3.org/2000/svg" xmlns:xlink="http://www.w3.org/1999/xlink" width="23.95" height="23.95" viewBox="0,0,23.95,23.95"><g transform="translate(-228.025,-168.025)"><g data-paper-data="{&quot;isPaintingLayer&quot;:true}" fill-rule="nonzero" stroke="none" stroke-linecap="butt" stroke-linejoin="miter" stroke-miterlimit="10" stroke-dasharray="" stroke-dashoffset="0" style="mix-blend-mode: normal"><path d="M240,168.025c3.3043,0 6.298,1.3416 8.4652,3.5099c2.1682,2.1671 3.5098,5.1609 3.5098,8.4651c0,3.3043 -1.3416,6.298 -3.5098,8.4652c-2.1672,2.1682 -5.1609,3.5098 -8.4652,3.5098c-3.3043,0 -6.298,-1.3416 -8.4652,-3.5098c-2.1682,-2.1672 -3.5098,-5.1609 -3.5098,-8.4652c0,-3.3042 1.3416,-6.298 3.5098,-8.4651c2.1672,-2.1683 5.1609,-3.5099 8.4652,-3.5099z" fill="#5ec565" stroke-width="1.05973"/><g stroke-width="0"><path d="M235.15989,186.30555v-7h9.65447v7z" fill="#ffffff"/><path d="M233.66667,179.80555l6.33333,-6.36111l6.33333,6.36111z" fill="#ffffff"/><path d="M238.32656,186.55556v-3.41667h3.39837v3.41667z" fill="#5ec565"/></g></g></g></svg>