<svg version="1.1" xmlns="http://www.w3.org/2000/svg" xmlns:xlink="http://www.w3.org/1999/xlink" width="13.22035" height="15.81477" viewBox="0,0,13.22035,15.81477"><g transform="translate(-231.91382,-172.05109)"><g data-paper-data="{&quot;isPaintingLayer&quot;:true}" fill="#ffffff" fill-rule="nonzero" stroke="none" stroke-width="0" stroke-linecap="butt" stroke-linejoin="miter" stroke-miterlimit="10" stroke-dasharray="" stroke-dashoffset="0" style="mix-blend-mode: normal"><path d="M237.19323,186.07767c0,0.98759 -1.18184,1.78819 -2.63971,1.78819c-1.45787,0 -2.6397,-0.8006 -2.6397,-1.78819c0,-0.98759 1.18184,-1.78819 2.6397,-1.78819c1.45787,0 2.63971,0.8006 2.63971,1.78819z"/><path d="M236.42808,186.21309l-0.09144,-11.05657l8.3689,-3.10543l0.39575,12.3576l-0.81708,-0.18781l-0.24895,-8.04875l-6.80488,2.34148l0.04323,7.51964z"/><path d="M245.13417,184.64712c0,0.98759 -1.18184,1.78819 -2.63971,1.78819c-1.45787,0 -2.6397,-0.8006 -2.6397,-1.78819c0,-0.98759 1.18184,-1.78819 2.6397,-1.78819c1.45787,0 2.63971,0.8006 2.63971,1.78819z"/></g></g></svg>