<svg version="1.1" xmlns="http://www.w3.org/2000/svg" xmlns:xlink="http://www.w3.org/1999/xlink" width="71.09134" height="37.95408" viewBox="0,0,71.09134,37.95408"><defs><linearGradient x1="341.58197" y1="46.516" x2="341.57947" y2="46.516" gradientUnits="userSpaceOnUse" id="color-1"><stop offset="0" stop-color="#7a727a"/><stop offset="1" stop-color="#211f21"/></linearGradient><linearGradient x1="218.94138" y1="187.82241" x2="218.64321" y2="190.23373" gradientUnits="userSpaceOnUse" id="color-2"><stop offset="0" stop-color="#000000"/><stop offset="1" stop-color="#363636"/></linearGradient><linearGradient x1="219.29583" y1="172.183" x2="218.99766" y2="169.77168" gradientUnits="userSpaceOnUse" id="color-3"><stop offset="0" stop-color="#000000"/><stop offset="1" stop-color="#363636"/></linearGradient><linearGradient x1="225.03505" y1="180.00685" x2="235.7697" y2="180.00685" gradientUnits="userSpaceOnUse" id="color-4"><stop offset="0" stop-color="#000000"/><stop offset="1" stop-color="#363636"/></linearGradient><linearGradient x1="229.49015" y1="179.20084" x2="235.61876" y2="179.20084" gradientUnits="userSpaceOnUse" id="color-5"><stop offset="0" stop-color="#6d6d6d" stop-opacity="0"/><stop offset="1" stop-color="#6d6d6d"/></linearGradient><linearGradient x1="229.41266" y1="185.30866" x2="235.54127" y2="185.30866" gradientUnits="userSpaceOnUse" id="color-6"><stop offset="0" stop-color="#6d6d6d" stop-opacity="0"/><stop offset="1" stop-color="#6d6d6d"/></linearGradient></defs><g transform="translate(-198.48188,-159.20686)"><g data-paper-data="{&quot;isPaintingLayer&quot;:true}" fill-rule="nonzero" stroke-width="0" stroke-linecap="butt" stroke-linejoin="miter" stroke-miterlimit="10" stroke-dasharray="" stroke-dashoffset="0" style="mix-blend-mode: normal"><path d="M198.49031,180.26724c-0.18681,-5.24798 2.79348,-11.08006 2.79348,-11.08006l3.15252,-1.18676l0.15043,24.38676l-3.364,-1.51036c0,0 -2.6068,-7.08015 -2.73244,-10.60958z" fill="#d28800" stroke="#fff900"/><path d="M269.57322,159.20686z" fill="url(#color-1)" stroke="none"/><path d="M217.75681,189.47888l0.38303,-18.41251l15.81897,-3.30862l12.7908,0.10928c0,0 4.16219,2.85865 4.33407,11.18896c0.18449,8.9421 -3.90724,13.12253 -3.90724,13.12253l-13.21915,-0.18211z" data-paper-data="{&quot;index&quot;:null}" fill="#ffa400" stroke="none"/><path d="M234.11856,179.98485c-0.01307,-5.93705 -0.41759,-9.89374 -0.41759,-9.89374l13.94946,0.08612c0,0 2.4042,2.40535 2.41008,9.77955c-0.54877,7.68938 -2.46998,9.8127 -2.46998,9.8127l-13.79902,0.05944c0,0 0.34013,-3.90702 0.32705,-9.84407z" data-paper-data="{&quot;index&quot;:null}" fill="#fff900" stroke="#fff900"/><path d="M204.15754,192.28571c0,0 -4.09174,-4.22389 -3.90724,-13.25897c0.17187,-8.41692 4.33407,-11.3053 4.33407,-11.3053l11.37403,-0.09918l17.23573,2.2745l0.76608,19.94049l-17.23827,2.27524z" fill="#ffa400" stroke="none"/><path d="M209.02198,186.61625c0,0 2.64389,0.41528 4.94315,0.75777c0.39493,0.05883 1.19379,0.16409 1.68828,0.2303c1.29803,0.17383 2.44769,0.31684 3.26814,0.42668c2.58885,0.29131 4.496,0.48835 5.42419,0.58614c2.65001,0.27921 4.52846,0.42547 4.52846,0.42547l-0.06472,0.97074c0,0 -8.15848,0.45847 -10.23408,0.21209c-2.09764,-0.25313 -4.01633,-0.55376 -4.78806,-0.68847c-2.34149,-0.40874 -5.01469,-1.0268 -5.01469,-1.0268l0.24935,-1.89392z" data-paper-data="{&quot;index&quot;:null}" fill="url(#color-2)" stroke="none"/><path d="M209.37644,173.38916l-0.24935,-1.89392c0,0 2.67321,-0.61807 5.01469,-1.0268c0.77173,-0.13471 2.69042,-0.43535 4.78806,-0.68847c2.0756,-0.24638 10.23408,0.21209 10.23408,0.21209l0.06472,0.97074c0,0 -1.87844,0.14626 -4.52846,0.42547c-0.92819,0.09779 -2.83534,0.29483 -5.42419,0.58614c-0.82045,0.10984 -1.9701,0.25285 -3.26814,0.42668c-0.49448,0.06621 -1.29335,0.17148 -1.68828,0.2303c-2.29926,0.34249 -4.94315,0.75777 -4.94315,0.75777z" fill="url(#color-3)" stroke="none"/><path d="M217.27687,179.96053c-0.01308,4.76597 4.21711,8.69793 0.69632,8.69171c-2.13613,-0.00377 -13.98366,2.50586 -13.98366,2.50586c0,0 -2.38281,-5.56069 -2.65462,-11.3124c-0.17876,-5.74052 2.99342,-10.49601 2.99342,-10.49601c0,0 11.61095,2.19051 13.55076,2.19394c3.52079,0.00622 -0.58916,3.65096 -0.60223,8.41693z" data-paper-data="{&quot;index&quot;:null}" fill="#fff900" stroke="#fff900"/><path d="M225.03507,170.0144l8.43939,-0.01505c0,0 1.28508,2.72886 1.82901,5.10281c0.17927,0.78243 0.47456,2.72351 0.46604,4.83637c-0.02634,2.09015 -0.33488,4.20595 -0.61805,5.64437c-0.66744,3.39034 -1.62261,4.4164 -1.62261,4.4164l-8.43939,0.01505c0,0 0.36033,-1.8822 0.54901,-4.54645c0.0661,-0.93318 0.219,-2.85009 0.322,-5.45513c-0.04419,-0.82773 -0.05828,-1.98625 -0.12842,-3.29581c-0.02671,-0.49887 -0.06234,-1.30462 -0.10973,-1.70378c-0.27587,-2.32392 -0.68726,-4.99879 -0.68726,-4.99879z" fill="url(#color-4)" stroke="none"/><path d="M213.78483,180.08272c2.29934,2.84296 0.83875,7.99326 0.83875,7.99326l-7.94168,-0.56435c0,0 -1.97425,-4.54926 -2.03014,-6.63931c-0.02966,-2.11281 1.43882,-7.35971 1.43882,-7.35971l7.84297,-1.58307c0,0 -1.09054,6.22125 -0.14873,8.15318z" data-paper-data="{&quot;index&quot;:null}" fill="#000000" stroke="none"/><path d="M233.71207,167.1318c0.00087,0.39204 0.29113,2.04481 -0.63185,2.04685c-0.47787,0.00105 -0.92156,-1.66515 -1.47153,-2.97686c-0.72128,-1.72027 -1.44151,-3.19855 -0.81481,-3.19993c1.10457,-0.00243 2.91294,1.74508 2.91819,4.12994z" fill="#fff900" stroke="none"/><path d="M212.85567,187.7711c0,0 -0.62913,-1.34718 -1.24971,-4.34351c-0.45593,-2.20135 -0.43054,-3.30322 -0.43542,-4.18953c-0.00567,-1.03166 0.07338,-2.45325 0.61805,-4.33588c0.37462,-1.29485 0.981,-2.79921 0.981,-2.79921l12.39495,-2.03813c0,0 0.62569,6.77998 0.63871,9.80654c0.0153,3.55455 -0.55263,10.19262 -0.55263,10.19262z" fill="#ffe200" stroke="none"/><path d="M225.43427,189.79455c0,0 -11.48804,-0.64296 -12.47518,-2.25844c-0.47939,-0.78452 -1.09964,-3.2078 -1.34833,-4.95759c-0.1341,-0.94349 -0.12188,-1.86581 -0.12331,-2.17629c3.56227,0.18602 0.63714,-0.16993 6.68067,-0.08499c1.40878,0.06587 2.94304,0.00906 7.70468,-0.0539c0.00683,1.89979 -0.25561,6.28406 -0.25561,6.28406z" fill="#fff900" stroke="none"/><path d="M246.0163,170.71329c1.43572,0.30523 2.81755,2.21926 2.59109,3.28447c-0.22646,1.06521 -1.97546,0.87822 -3.41118,0.57299c-1.43572,-0.30523 -2.41601,-1.41619 -2.18955,-2.4814c0.22646,-1.06521 1.57392,-1.68129 3.00964,-1.37606z" fill="#ffffff" stroke="none"/><path d="M243.1582,187.89529c-0.22646,-1.06521 0.75384,-2.17618 2.18956,-2.4814c1.43572,-0.30523 3.08433,-0.39183 3.31079,0.67338c0.22646,1.06521 -1.05498,2.87886 -2.4907,3.18409c-1.43572,0.30523 -2.78319,-0.31085 -3.00965,-1.37606z" data-paper-data="{&quot;index&quot;:null}" fill="#ffffff" stroke="none"/><path d="M230.55903,197.16094c-0.6267,-0.00138 0.09353,-1.47966 0.81481,-3.19993c0.54997,-1.31171 0.99366,-2.97791 1.47153,-2.97686c0.92299,0.00204 0.63272,1.65481 0.63185,2.04685c-0.00525,2.38486 -1.81362,4.13237 -2.91819,4.12994z" data-paper-data="{&quot;index&quot;:null}" fill="#fff900" stroke="none"/><path d="M229.49015,184.30802l0.12768,-5.23486l5.49021,-4.9795c0,0 0.41941,1.2064 0.63918,2.39197c0.19428,1.3978 0.05617,2.1829 0.05617,2.1829z" fill="url(#color-5)" stroke="none"/><path d="M229.96657,187.92325l-0.05696,-1.44982l5.76717,-5.44109l-0.04319,1.25142z" fill="url(#color-6)" stroke="none"/></g></g></svg>