<svg version="1.1" xmlns="http://www.w3.org/2000/svg" xmlns:xlink="http://www.w3.org/1999/xlink" width="17.5627" height="41.7259" viewBox="0,0,17.5627,41.7259"><defs><linearGradient x1="240.0625" y1="166.63705" x2="240.0625" y2="197.11295" gradientUnits="userSpaceOnUse" id="color-1"><stop offset="0" stop-color="#000000"/><stop offset="1" stop-color="#000000" stop-opacity="0"/></linearGradient><linearGradient x1="240.0625" y1="166.63705" x2="240.0625" y2="197.11295" gradientUnits="userSpaceOnUse" id="color-2"><stop offset="0" stop-color="#000000"/><stop offset="1" stop-color="#000000" stop-opacity="0"/></linearGradient></defs><g transform="translate(-231.28115,-159.13705)"><g data-paper-data="{&quot;isPaintingLayer&quot;:true}" fill-rule="nonzero" stroke-linecap="butt" stroke-linejoin="miter" stroke-miterlimit="10" stroke-dasharray="" stroke-dashoffset="0" style="mix-blend-mode: normal"><path d="M238.26375,172.52165c-0.4371,0.1834 -0.8538,0.2742 -1.2499,0.2742c-0.5698,0 -1.0421,-0.1825 -1.4187,-0.5484c-0.3757,-0.3659 -0.564,-0.8332 -0.564,-1.4031c0,-0.4371 0.1015,-0.8176 0.3054,-1.1435c0.2137,-0.3249 0.5386,-0.5689 0.9757,-0.7318l6.0827,-2.1798c0.3152,-0.1015 0.564,-0.1522 0.7474,-0.1522c0.5689,0 1.0363,0.1883 1.4022,0.564c0.3659,0.3756 0.5493,0.8635 0.5493,1.4636v26.451c0,0.5493 -0.1981,1.0216 -0.5952,1.4177c-0.3854,0.3864 -0.8635,0.5796 -1.4324,0.5796c-0.5191,0 -0.9757,-0.1932 -1.3728,-0.5796c-0.3854,-0.3961 -0.5786,-0.8684 -0.5786,-1.4177v-23.798z" fill="url(#color-1)" stroke="url(#color-2)" stroke-width="7.5"/><path d="M238.26375,168.77165c-0.4371,0.1834 -0.8538,0.2742 -1.2499,0.2742c-0.5698,0 -1.0421,-0.1825 -1.4187,-0.5484c-0.3757,-0.3659 -0.564,-0.8332 -0.564,-1.4031c0,-0.4371 0.1015,-0.8176 0.3054,-1.1435c0.2137,-0.3249 0.5386,-0.5689 0.9757,-0.7318l6.0827,-2.1798c0.3152,-0.1015 0.564,-0.1522 0.7474,-0.1522c0.5689,0 1.0363,0.1883 1.4022,0.564c0.3659,0.3756 0.5493,0.8635 0.5493,1.4636v26.451c0,0.5493 -0.1981,1.0216 -0.5952,1.4177c-0.3854,0.3864 -0.8635,0.5796 -1.4324,0.5796c-0.5191,0 -0.9757,-0.1932 -1.3728,-0.5796c-0.3854,-0.3961 -0.5786,-0.8684 -0.5786,-1.4177v-23.798z" fill="#ca6c00" stroke="#ffffff" stroke-width="7.5"/><path d="M238.13875,168.77165c-0.4371,0.1834 -0.8538,0.2742 -1.2499,0.2742c-0.5698,0 -1.0421,-0.1825 -1.4187,-0.5484c-0.3757,-0.3659 -0.564,-0.8332 -0.564,-1.4031c0,-0.4371 0.1015,-0.8176 0.3054,-1.1435c0.2137,-0.3249 0.5386,-0.5689 0.9757,-0.7318l6.0827,-2.1798c0.3152,-0.1015 0.564,-0.1522 0.7474,-0.1522c0.5689,0 1.0363,0.1883 1.4022,0.564c0.3659,0.3756 0.5493,0.8635 0.5493,1.4636v26.451c0,0.5493 -0.1981,1.0216 -0.5952,1.4177c-0.3854,0.3864 -0.8635,0.5796 -1.4324,0.5796c-0.5191,0 -0.9757,-0.1932 -1.3728,-0.5796c-0.3854,-0.3961 -0.5786,-0.8684 -0.5786,-1.4177v-23.798z" fill="#ca6c00" stroke="#ffffff" stroke-width="0"/></g></g></svg>