<svg version="1.1" xmlns="http://www.w3.org/2000/svg" xmlns:xlink="http://www.w3.org/1999/xlink" width="53.50997" height="30.51427" viewBox="0,0,53.50997,30.51427"><defs><linearGradient x1="205.45966" y1="179.86309" x2="242.70788" y2="179.86309" gradientUnits="userSpaceOnUse" id="color-1"><stop offset="0" stop-color="#4070c3"/><stop offset="1" stop-color="#598dff"/></linearGradient><linearGradient x1="205.45966" y1="179.86309" x2="242.70788" y2="179.86309" gradientUnits="userSpaceOnUse" id="color-2"><stop offset="0" stop-color="#4070c3"/><stop offset="1" stop-color="#598dff"/></linearGradient><linearGradient x1="211.30367" y1="179.67331" x2="228.29669" y2="179.67331" gradientUnits="userSpaceOnUse" id="color-3"><stop offset="0" stop-color="#00dc49"/><stop offset="1" stop-color="#00b33b"/></linearGradient><linearGradient x1="238.58539" y1="180.64749" x2="238.58539" y2="186.37121" gradientUnits="userSpaceOnUse" id="color-4"><stop offset="0" stop-color="#a7bef3" stop-opacity="0"/><stop offset="1" stop-color="#a7bef3"/></linearGradient></defs><g transform="translate(-197.34002,-164.45514)"><g data-paper-data="{&quot;isPaintingLayer&quot;:true}" fill-rule="nonzero" stroke-linejoin="miter" stroke-miterlimit="10" stroke-dasharray="" stroke-dashoffset="0" style="mix-blend-mode: normal"><path d="M206.449,168.46853c1.61804,0 3.08588,0.33989 4.14846,0.88708c1.06232,0.55029 1.71882,1.30735 1.71882,2.14429c0,0.83692 -0.65652,1.594 -1.71882,2.14402c-1.06258,0.54719 -2.53045,0.88732 -4.14846,0.88732c-1.61828,0 -2.89074,-0.0827 -4.14846,-0.88732c-0.51073,-0.31921 -0.26158,-1.36628 -0.17498,-2.07009c-0.08658,-0.75422 -0.36032,-1.86926 0.17498,-2.2182c1.24765,-0.83383 2.53018,-0.88708 4.14846,-0.88708z" fill="#000000" stroke="none" stroke-width="0.98582" stroke-linecap="butt"/><path d="M206.06129,185.65686c1.61804,0 3.08588,0.33989 4.14846,0.88708c1.06232,0.55029 1.71882,1.30735 1.71882,2.14429c0,0.83692 -0.65652,1.594 -1.71882,2.14402c-1.06258,0.54719 -2.53045,0.88732 -4.14846,0.88732c-1.61828,0 -2.88454,-0.05014 -4.14846,-0.88732c-0.42828,-0.28097 -0.20599,-1.27453 -0.27811,-1.92224c0.07211,-0.79841 -0.21609,-1.99929 0.27811,-2.36605c1.23524,-0.92559 2.53018,-0.88708 4.14846,-0.88708z" fill="#000000" stroke="none" stroke-width="0.98582" stroke-linecap="butt"/><path d="M211.13819,168.46853c2.01376,0 3.84037,0.33989 5.16246,0.88708c1.32209,0.55029 2.13937,1.30735 2.13937,2.14429c0,0.83692 -0.8173,1.594 -2.13937,2.14402c-1.32209,0.54719 -3.1487,0.88732 -5.16246,0.88732c-2.01376,0 -3.58681,-0.06203 -5.1627,-0.88732c-0.66866,-0.35178 -0.67126,-1.44304 -0.60198,-2.21796c-0.06928,-0.74543 -0.01525,-1.77468 0.60198,-2.07036c1.59631,-0.76896 3.14896,-0.88708 5.1627,-0.88708z" fill="#99b2ff" stroke="none" stroke-width="1.07046" stroke-linecap="round"/><path d="M224.09795,173.67207c7.73346,-0.06152 15.6918,-0.22668 23.1332,1.48646c2.29005,0.56864 3.59533,2.97139 3.6186,4.78509c0.02068,1.78577 -1.29751,4.13812 -3.74783,4.69203c-7.26046,1.72245 -15.30927,1.68549 -23.00396,1.57951c-8.15479,-0.11346 -16.61196,-0.3846 -24.42555,-2.22983c-1.9282,-0.43863 -2.39345,-2.58678 -2.32625,-4.04172c0.07495,-1.60563 0.51435,-3.9042 2.58472,-4.4134c7.72053,-1.78759 16.11828,-1.79328 24.16709,-1.85814z" fill="#252b3e" stroke="none" stroke-width="0.87088" stroke-linecap="butt"/><path d="M205.84651,190.77358c-0.63299,-0.31352 -0.55597,-1.34585 -0.47405,-2.07036c-0.08194,-0.7718 -0.18972,-1.87495 0.47405,-2.2182c1.57048,-0.81909 3.1487,-0.88708 5.16246,-0.88708c2.01376,0 3.84037,0.34015 5.16246,0.88708c1.32209,0.55029 2.13937,1.30735 2.13937,2.14429c0,0.83692 -0.8173,1.594 -2.13937,2.14429c-1.32209,0.54693 -3.1487,0.88708 -5.16246,0.88708c-2.01376,0 -3.57931,-0.10054 -5.16246,-0.88708z" fill="#99b2ff" stroke="none" stroke-width="1.07046" stroke-linecap="round"/><path d="M223.96871,173.45521c5.60366,-0.07263 11.55626,0.00388 16.67141,1.81603c1.9437,0.69814 2.06776,3.15413 2.06776,4.84298c-0.04653,1.59425 -0.3205,3.83003 -2.197,4.43951c-5.11256,1.7072 -10.98504,1.79404 -16.54218,1.71522c-5.73549,-0.08064 -11.76821,-0.31275 -17.05912,-2.1187c-1.68007,-0.60948 -1.4552,-2.81501 -1.4216,-4.28805c0.03101,-1.44098 -0.05427,-3.63851 1.68007,-4.28829c5.17977,-1.74753 11.10394,-2.04399 16.80064,-2.1187z" fill="url(#color-1)" stroke="url(#color-2)" stroke-width="1.79417" stroke-linecap="round"/><path d="M228.49196,164.88249v4.21205l3.10166,3.24666v14.30328l-3.23089,3.68553v4.21205" fill="none" stroke="#000000" stroke-width="0.8547" stroke-linecap="round"/><path d="M227.71657,165.52556c1.20447,-0.1861 0.28432,2.5175 -0.51694,3.36012c-1.55601,1.97732 -5.42791,2.08844 -6.07408,4.52325c-0.58931,2.23578 3.57466,3.92618 3.48937,6.33255c-0.08789,2.40378 -4.45863,3.68322 -4.13554,6.07408c0.43165,2.48649 4.29839,2.83543 5.81562,4.78172c0.67461,0.86329 1.82481,3.31361 0.64618,3.23089c-4.37852,-0.31792 -9.17315,-1.44744 -12.47124,-4.34232c-2.39086,-2.09878 -3.09649,-5.89573 -3.16627,-9.09819c0.06979,-3.28517 0.77282,-7.14932 3.16627,-9.35667c3.52038,-3.24382 8.52955,-4.77397 13.24666,-5.50543z" fill="url(#color-3)" stroke="none" stroke-width="1" stroke-linecap="round"/><path d="M222.53187,172.73562c1.40635,0 2.68164,0.74492 3.60489,1.95172c0.92326,1.20447 1.49423,2.86826 1.49423,4.70393c0,1.83566 -0.57096,3.49971 -1.49423,4.70418c-0.92326,1.20654 -2.19856,1.95146 -3.60489,1.95146c-1.40609,0 -2.68139,-0.74492 -3.60465,-1.95146c-0.92326,-1.20447 -1.49423,-2.86852 -1.49423,-4.70418c0,-1.83566 0.57096,-3.49944 1.49423,-4.70393c0.92326,-1.2068 2.19856,-1.95172 3.60465,-1.95172z" fill="#000000" stroke="none" stroke-width="0.83065" stroke-linecap="butt"/><path d="M248.11926,176.55326c0.22022,-0.0716 0.48981,0.07755 0.74621,0.37479c0.25616,0.29724 0.50015,0.74543 0.67073,1.27141c0.1706,0.52625 0.23624,1.03208 0.20315,1.42314c-0.03309,0.39133 -0.16386,0.66996 -0.38436,0.74155c-0.22022,0.07134 -0.48981,-0.07755 -0.74621,-0.37479c-0.25616,-0.29724 -0.50015,-0.74543 -0.67073,-1.27168c-0.1706,-0.52598 -0.23624,-1.03182 -0.20315,-1.42314c0.03309,-0.39106 0.16386,-0.66996 0.38436,-0.7413z" fill="#e5ebff" stroke="none" stroke-width="0.85678" stroke-linecap="butt"/><path d="M198.23763,179.73296c-0.03309,-0.39133 0.03257,-0.89716 0.20315,-1.42314c0.1706,-0.52625 0.41459,-0.97444 0.67073,-1.27168c0.2564,-0.29724 0.52598,-0.44612 0.74648,-0.37479c0.22022,0.0716 0.351,0.35022 0.38409,0.74155c0.03309,0.39106 -0.03257,0.89689 -0.20315,1.42314c-0.1706,0.52598 -0.41459,0.97417 -0.67073,1.27141c-0.2564,0.29724 -0.52598,0.44639 -0.74621,0.37479c-0.22047,-0.07134 -0.35127,-0.35022 -0.38436,-0.7413z" fill="#e5ebff" stroke="none" stroke-width="0.85678" stroke-linecap="butt"/><path d="M225.00261,175.99366c0.46266,0 0.88397,0.18868 1.18639,0.49369c0.30501,0.30241 0.49369,0.72373 0.49369,1.18639c0,0.46266 -0.18868,0.88397 -0.49369,1.18639c-0.30241,0.30501 -0.72373,0.49369 -1.18639,0.49369c-0.46266,0 -0.88397,-0.18868 -1.18639,-0.49369c-0.30501,-0.30241 -0.49369,-0.72373 -0.49369,-1.18639c0,-0.46266 0.18868,-0.88397 0.49369,-1.18639c0.30241,-0.30501 0.72373,-0.49369 1.18639,-0.49369z" fill="#e5ebff" stroke="none" stroke-width="1" stroke-linecap="butt"/><path d="M232.57209,186.3712l0.34147,-5.65911c0,0 3.72774,0.23263 5.21853,0.17433c1.64179,-0.06421 4.88706,-1.11644 4.88706,-1.11644c0,0 0.02784,1.35329 -0.11187,2.38709c-0.08284,0.61301 -0.6894,1.5264 -0.73421,1.76259c-0.03897,0.20542 -1.90406,1.09286 -4.09382,1.61173c-2.56361,0.60746 -5.50717,0.83984 -5.50717,0.83984z" fill="url(#color-4)" stroke="none" stroke-width="0" stroke-linecap="butt"/></g></g></svg>