<svg version="1.1" xmlns="http://www.w3.org/2000/svg" xmlns:xlink="http://www.w3.org/1999/xlink" width="133.52566" height="19.01563" viewBox="0,0,133.52566,19.01563"><g transform="translate(-173.23717,-170.49218)"><g data-paper-data="{&quot;isPaintingLayer&quot;:true}" fill="#000000" fill-rule="nonzero" stroke="none" stroke-width="1" stroke-linecap="square" stroke-linejoin="miter" stroke-miterlimit="10" stroke-dasharray="" stroke-dashoffset="0" style="mix-blend-mode: normal"><path d="M173.97154,185.0703c-0.20833,0 -0.38542,-0.06771 -0.53125,-0.20312c-0.13542,-0.13541 -0.20312,-0.3125 -0.20312,-0.53125v-13.10937c0,-0.20834 0.06771,-0.38021 0.20313,-0.51562c0.14583,-0.14584 0.32292,-0.21875 0.53125,-0.21875c0.21875,0 0.40625,0.08854 0.5625,0.26563l8.92188,11.71875v-11.25c0,-0.20834 0.06771,-0.38021 0.20313,-0.51562c0.13542,-0.14584 0.30729,-0.21875 0.51563,-0.21875c0.19792,0 0.36979,0.07291 0.51563,0.21875c0.14583,0.13541 0.21875,0.30729 0.21875,0.51563v13.10938c0,0.21875 -0.07292,0.39584 -0.21875,0.53125c-0.14583,0.13541 -0.31771,0.20313 -0.51562,0.20313c-0.09375,0 -0.19271,-0.01562 -0.29687,-0.04687c-0.10417,-0.04166 -0.1875,-0.10937 -0.25,-0.20312l-8.92187,-11.70312v11.21875c0,0.21875 -0.07292,0.39584 -0.21875,0.53125c-0.14583,0.13541 -0.31771,0.20313 -0.51562,0.20313zM193.0817,185.16405c-1.01041,0 -1.90625,-0.21875 -2.6875,-0.65625c-0.77084,-0.44791 -1.38021,-1.0625 -1.82812,-1.84375c-0.4375,-0.78125 -0.65625,-1.67709 -0.65625,-2.6875c0,-1.02084 0.20833,-1.91666 0.625,-2.6875c0.41666,-0.78125 0.98958,-1.39584 1.71875,-1.84375c0.73959,-0.44791 1.58854,-0.67187 2.54688,-0.67187c0.9375,0 1.75521,0.21354 2.45313,0.64063c0.70834,0.42709 1.25521,1.02084 1.64063,1.78125c0.38541,0.76041 0.57813,1.625 0.57813,2.59375c0,0.19791 -0.0625,0.35938 -0.1875,0.48438c-0.125,0.11459 -0.28646,0.17188 -0.48437,0.17188h-7.92187v-1.20312h8.07813l-0.79687,0.57813c0.01041,-0.71875 -0.125,-1.36459 -0.40625,-1.9375c-0.27084,-0.57291 -0.65625,-1.02084 -1.15625,-1.34375c-0.5,-0.32291 -1.09896,-0.48437 -1.79687,-0.48437c-0.70834,0 -1.33334,0.17188 -1.875,0.51563c-0.53125,0.33334 -0.94271,0.79688 -1.23437,1.39063c-0.29166,0.58334 -0.4375,1.25521 -0.4375,2.01563c0,0.76041 0.16146,1.43229 0.48438,2.01563c0.33334,0.58334 0.78646,1.04688 1.35938,1.39063c0.57291,0.33334 1.23438,0.5 1.98438,0.5c0.44791,0 0.89584,-0.07812 1.34375,-0.23437c0.45834,-0.15625 0.82291,-0.35416 1.09375,-0.59375c0.13541,-0.11459 0.29166,-0.17187 0.46875,-0.17187c0.17709,-0.01041 0.32291,0.03646 0.4375,0.14063c0.16666,0.14584 0.25,0.30729 0.25,0.48438c0.01041,0.16666 -0.05729,0.3125 -0.20312,0.4375c-0.41666,0.35416 -0.94271,0.64584 -1.57812,0.875c-0.625,0.22916 -1.22916,0.34375 -1.8125,0.34375zM204.02267,185.16405c-0.95834,0 -1.81771,-0.22396 -2.57812,-0.67187c-0.75,-0.45834 -1.34896,-1.07812 -1.79687,-1.85937c-0.4375,-0.79166 -0.65625,-1.67709 -0.65625,-2.65625c0,-0.98959 0.22396,-1.875 0.67188,-2.65625c0.45834,-0.79166 1.07813,-1.41146 1.85938,-1.85937c0.78125,-0.45834 1.66666,-0.6875 2.65625,-0.6875c0.97917,0 1.85417,0.22916 2.625,0.6875c0.78125,0.44791 1.40104,1.06771 1.85938,1.85938c0.45833,0.78125 0.69271,1.66666 0.70313,2.65625l-0.57812,0.45313c0,0.89584 -0.20833,1.70313 -0.625,2.42188c-0.41667,0.70834 -0.98437,1.27084 -1.70312,1.6875c-0.71875,0.41666 -1.53125,0.625 -2.4375,0.625zM204.17892,183.85155c0.71875,0 1.35938,-0.16666 1.92188,-0.5c0.57292,-0.33334 1.02084,-0.79687 1.34375,-1.39062c0.33333,-0.59375 0.5,-1.25521 0.5,-1.98437c0,-0.75 -0.16667,-1.41666 -0.5,-2c-0.32292,-0.58334 -0.77083,-1.04687 -1.34375,-1.39062c-0.5625,-0.34375 -1.20312,-0.51562 -1.92187,-0.51562c-0.70834,0 -1.34896,0.17188 -1.92187,0.51563c-0.57291,0.34375 -1.03125,0.80729 -1.375,1.39063c-0.33334,0.58334 -0.5,1.25 -0.5,2c0,0.72916 0.16666,1.39063 0.5,1.98438c0.34375,0.59375 0.80209,1.05729 1.375,1.39063c0.57291,0.33334 1.21354,0.5 1.92188,0.5zM208.63205,185.0703c-0.20833,0 -0.38021,-0.0625 -0.51562,-0.1875c-0.13542,-0.13541 -0.20312,-0.30729 -0.20312,-0.51562v-3.20312l0.34375,-1.46875l1.10938,0.28125v4.39063c0,0.20834 -0.07292,0.38021 -0.21875,0.51563c-0.13542,0.125 -0.30729,0.1875 -0.51562,0.1875zM216.15295,185.0703c-0.65625,0 -1.24479,-0.15625 -1.76562,-0.46875c-0.51042,-0.3125 -0.91666,-0.73959 -1.21875,-1.28125c-0.30208,-0.54166 -0.45312,-1.15625 -0.45312,-1.84375v-9.125c0,-0.21875 0.0625,-0.39584 0.1875,-0.53125c0.13542,-0.13541 0.3125,-0.20312 0.53125,-0.20312c0.20833,0 0.38021,0.06771 0.51563,0.20313c0.13542,0.13541 0.20313,0.3125 0.20313,0.53125v9.125c0,0.625 0.1875,1.14063 0.5625,1.54688c0.375,0.40625 0.85417,0.60938 1.4375,0.60938h0.5c0.19792,0 0.35938,0.06771 0.48438,0.20313c0.125,0.13541 0.1875,0.3125 0.1875,0.53125c0,0.20834 -0.07292,0.38021 -0.21875,0.51563c-0.14583,0.125 -0.33333,0.1875 -0.5625,0.1875zM211.51232,176.49218c-0.1875,0 -0.34375,-0.05729 -0.46875,-0.17187c-0.125,-0.125 -0.1875,-0.27604 -0.1875,-0.45312c0,-0.1875 0.0625,-0.33854 0.1875,-0.45312c0.125,-0.11459 0.28125,-0.17187 0.46875,-0.17187h4.75c0.1875,0 0.34375,0.05729 0.46875,0.17188c0.125,0.11459 0.1875,0.26563 0.1875,0.45313c0,0.17709 -0.0625,0.32813 -0.1875,0.45313c-0.125,0.11459 -0.28125,0.17188 -0.46875,0.17188zM229.61905,185.16405c-0.95833,0 -1.81771,-0.22396 -2.57812,-0.67187c-0.75,-0.45834 -1.34896,-1.07812 -1.79687,-1.85937c-0.4375,-0.79166 -0.65625,-1.67709 -0.65625,-2.65625c0,-0.98959 0.22396,-1.875 0.67188,-2.65625c0.45833,-0.79166 1.07813,-1.41146 1.85938,-1.85937c0.78125,-0.45834 1.66667,-0.6875 2.65625,-0.6875c0.97917,0 1.85417,0.22916 2.625,0.6875c0.78125,0.44791 1.40104,1.06771 1.85938,1.85938c0.45833,0.78125 0.69271,1.66666 0.70313,2.65625l-0.57812,0.45313c0,0.89584 -0.20833,1.70313 -0.625,2.42188c-0.41667,0.70834 -0.98437,1.27084 -1.70312,1.6875c-0.71875,0.41666 -1.53125,0.625 -2.4375,0.625zM229.7753,183.85155c0.71875,0 1.35938,-0.16666 1.92188,-0.5c0.57292,-0.33334 1.02084,-0.79687 1.34375,-1.39062c0.33333,-0.59375 0.5,-1.25521 0.5,-1.98437c0,-0.75 -0.16667,-1.41666 -0.5,-2c-0.32292,-0.58334 -0.77083,-1.04687 -1.34375,-1.39062c-0.5625,-0.34375 -1.20312,-0.51562 -1.92187,-0.51562c-0.70833,0 -1.34896,0.17188 -1.92187,0.51563c-0.57292,0.34375 -1.03125,0.80729 -1.375,1.39063c-0.33333,0.58334 -0.5,1.25 -0.5,2c0,0.72916 0.16667,1.39063 0.5,1.98438c0.34375,0.59375 0.80209,1.05729 1.375,1.39063c0.57292,0.33334 1.21354,0.5 1.92188,0.5zM234.22842,185.0703c-0.20833,0 -0.38021,-0.0625 -0.51562,-0.1875c-0.13542,-0.13541 -0.20312,-0.30729 -0.20312,-0.51562v-3.20312l0.34375,-1.46875l1.10938,0.28125v4.39063c0,0.20834 -0.07292,0.38021 -0.21875,0.51563c-0.13542,0.125 -0.30729,0.1875 -0.51562,0.1875zM246.49933,185.0703c-0.20834,0 -0.38021,-0.06771 -0.51562,-0.20312c-0.13541,-0.13541 -0.20312,-0.30209 -0.20312,-0.5v-4.85937c0,-0.77084 -0.14584,-1.40104 -0.4375,-1.89062c-0.29166,-0.5 -0.69271,-0.875 -1.20312,-1.125c-0.5,-0.25 -1.06771,-0.375 -1.70312,-0.375c-0.60416,0 -1.15625,0.11979 -1.65625,0.35938c-0.48959,0.22916 -0.88021,0.55209 -1.17187,0.96875c-0.28125,0.40625 -0.42187,0.86979 -0.42187,1.39063h-1.01562c0.02084,-0.78125 0.22916,-1.47916 0.625,-2.09375c0.40625,-0.61459 0.9375,-1.09896 1.59375,-1.45312c0.65625,-0.35416 1.39063,-0.53125 2.20313,-0.53125c0.875,0 1.66146,0.18229 2.35938,0.54688c0.69791,0.36459 1.25,0.90104 1.65625,1.60938c0.40625,0.70834 0.60938,1.57291 0.60938,2.59375v4.85938c0,0.19791 -0.06771,0.36459 -0.20312,0.5c-0.13541,0.13541 -0.30729,0.20313 -0.51562,0.20313zM238.4837,185.0703c-0.21875,0 -0.39584,-0.0625 -0.53125,-0.1875c-0.13541,-0.13541 -0.20312,-0.30729 -0.20312,-0.51562v-8.78125c0,-0.21875 0.06771,-0.39062 0.20313,-0.51562c0.13541,-0.13541 0.3125,-0.20312 0.53125,-0.20312c0.20834,0 0.375,0.06771 0.5,0.20313c0.13541,0.125 0.20313,0.29688 0.20313,0.51563v8.78125c0,0.20834 -0.06771,0.38021 -0.20312,0.51563c-0.125,0.125 -0.29166,0.1875 -0.5,0.1875zM255.03585,185.16405c-0.98958,0 -1.875,-0.22396 -2.65625,-0.67187c-0.78125,-0.45834 -1.40104,-1.07812 -1.85937,-1.85937c-0.44791,-0.79166 -0.67187,-1.68229 -0.67187,-2.67187c0,-0.97916 0.21875,-1.85937 0.65625,-2.64062c0.44791,-0.79166 1.04688,-1.41146 1.79688,-1.85937c0.76041,-0.45834 1.61979,-0.6875 2.57812,-0.6875c0.83333,0 1.58333,0.17709 2.25,0.53125c0.67708,0.35416 1.22396,0.82291 1.64063,1.40625v-5.48437c0,-0.21875 0.06771,-0.39584 0.20313,-0.53125c0.13542,-0.13541 0.30729,-0.20312 0.51563,-0.20312c0.20833,0 0.38021,0.06771 0.51563,0.20313c0.14583,0.13541 0.21875,0.3125 0.21875,0.53125v8.8125c-0.03125,0.96875 -0.27604,1.84375 -0.73437,2.625c-0.44792,0.77084 -1.0625,1.38021 -1.84375,1.82813c-0.77083,0.44791 -1.64062,0.67188 -2.60937,0.67188zM255.03585,183.85155c0.71875,0 1.35938,-0.16666 1.92188,-0.5c0.57292,-0.34375 1.02083,-0.80729 1.34375,-1.39062c0.33333,-0.59375 0.5,-1.26041 0.5,-2c0,-0.73959 -0.16667,-1.40104 -0.5,-1.98437c-0.32292,-0.59375 -0.77083,-1.05729 -1.34375,-1.39062c-0.5625,-0.34375 -1.20312,-0.51562 -1.92187,-0.51562c-0.70833,0 -1.34896,0.17188 -1.92187,0.51563c-0.57291,0.33334 -1.03125,0.79688 -1.375,1.39063c-0.33334,0.58334 -0.5,1.24479 -0.5,1.98438c0,0.73959 0.16666,1.40625 0.5,2c0.34375,0.58334 0.80208,1.04688 1.375,1.39063c0.57292,0.33334 1.21354,0.5 1.92188,0.5zM273.03586,185.0703c-0.65625,0 -1.24479,-0.15625 -1.76562,-0.46875c-0.51042,-0.3125 -0.91667,-0.73959 -1.21875,-1.28125c-0.30208,-0.54166 -0.45312,-1.15625 -0.45312,-1.84375v-9.125c0,-0.21875 0.0625,-0.39584 0.1875,-0.53125c0.13542,-0.13541 0.3125,-0.20312 0.53125,-0.20312c0.20833,0 0.38021,0.06771 0.51563,0.20313c0.13542,0.13541 0.20313,0.3125 0.20313,0.53125v9.125c0,0.625 0.1875,1.14063 0.5625,1.54688c0.375,0.40625 0.85417,0.60938 1.4375,0.60938h0.5c0.19792,0 0.35938,0.06771 0.48438,0.20313c0.125,0.13541 0.1875,0.3125 0.1875,0.53125c0,0.20834 -0.07292,0.38021 -0.21875,0.51563c-0.14583,0.125 -0.33333,0.1875 -0.5625,0.1875zM268.39523,176.49218c-0.1875,0 -0.34375,-0.05729 -0.46875,-0.17187c-0.125,-0.125 -0.1875,-0.27604 -0.1875,-0.45312c0,-0.1875 0.0625,-0.33854 0.1875,-0.45312c0.125,-0.11459 0.28125,-0.17187 0.46875,-0.17187h4.75c0.1875,0 0.34375,0.05729 0.46875,0.17188c0.125,0.11459 0.1875,0.26563 0.1875,0.45313c0,0.17709 -0.0625,0.32813 -0.1875,0.45313c-0.125,0.11459 -0.28125,0.17188 -0.46875,0.17188zM277.56693,185.0703c-0.21875,0 -0.39583,-0.0625 -0.53125,-0.1875c-0.125,-0.13541 -0.1875,-0.31771 -0.1875,-0.54687v-8.75c0,-0.21875 0.0625,-0.39062 0.1875,-0.51562c0.13542,-0.13541 0.3125,-0.20312 0.53125,-0.20312c0.20833,0 0.38021,0.06771 0.51563,0.20313c0.13542,0.125 0.20313,0.29688 0.20313,0.51563v8.75c0,0.22916 -0.06771,0.41146 -0.20312,0.54688c-0.13542,0.125 -0.30729,0.1875 -0.51562,0.1875zM277.62943,172.92968c-0.28125,0 -0.52083,-0.09896 -0.71875,-0.29687c-0.19792,-0.20834 -0.29687,-0.45312 -0.29687,-0.73437c0,-0.3125 0.10417,-0.55729 0.3125,-0.73437c0.20833,-0.17709 0.44792,-0.26562 0.71875,-0.26562c0.26042,0 0.48958,0.08854 0.6875,0.26563c0.20833,0.17709 0.3125,0.42188 0.3125,0.73438c0,0.28125 -0.09896,0.52604 -0.29687,0.73438c-0.19792,0.19791 -0.4375,0.29688 -0.71875,0.29688zM286.58359,185.16405c-0.98959,0 -1.875,-0.22396 -2.65625,-0.67187c-0.78125,-0.45834 -1.40104,-1.07812 -1.85937,-1.85937c-0.44792,-0.79166 -0.67187,-1.68229 -0.67187,-2.67187c0,-0.97916 0.21875,-1.85937 0.65625,-2.64062c0.44792,-0.79166 1.04688,-1.41146 1.79688,-1.85937c0.76042,-0.45834 1.61979,-0.6875 2.57813,-0.6875c0.83334,0 1.58334,0.17709 2.25,0.53125c0.67709,0.35416 1.22396,0.82291 1.64063,1.40625v-5.48437c0,-0.21875 0.06771,-0.39584 0.20313,-0.53125c0.13541,-0.13541 0.30729,-0.20312 0.51563,-0.20312c0.20834,0 0.38021,0.06771 0.51563,0.20313c0.14584,0.13541 0.21875,0.3125 0.21875,0.53125v8.8125c-0.03125,0.96875 -0.27604,1.84375 -0.73437,2.625c-0.44791,0.77084 -1.0625,1.38021 -1.84375,1.82813c-0.77084,0.44791 -1.64062,0.67188 -2.60937,0.67188zM286.58359,183.85155c0.71875,0 1.35938,-0.16666 1.92188,-0.5c0.57291,-0.34375 1.02084,-0.80729 1.34375,-1.39062c0.33334,-0.59375 0.5,-1.26041 0.5,-2c0,-0.73959 -0.16666,-1.40104 -0.5,-1.98437c-0.32291,-0.59375 -0.77084,-1.05729 -1.34375,-1.39062c-0.5625,-0.34375 -1.20312,-0.51562 -1.92187,-0.51562c-0.70834,0 -1.34896,0.17188 -1.92187,0.51563c-0.57292,0.33334 -1.03125,0.79688 -1.375,1.39063c-0.33333,0.58334 -0.5,1.24479 -0.5,1.98438c0,0.73959 0.16667,1.40625 0.5,2c0.34375,0.58334 0.80208,1.04688 1.375,1.39063c0.57291,0.33334 1.21354,0.5 1.92188,0.5zM296.88294,189.5078c-0.10416,0 -0.21875,-0.02604 -0.34375,-0.07812c-0.41666,-0.1875 -0.53125,-0.48437 -0.34375,-0.89062l6.01563,-13.28125c0.1875,-0.39584 0.48438,-0.51041 0.89063,-0.34375c0.42709,0.17709 0.54688,0.47396 0.35938,0.89063l-6.04687,13.28125c-0.125,0.28125 -0.30209,0.42188 -0.53125,0.42188zM298.94544,184.7578c-0.1875,0.08334 -0.36459,0.09896 -0.53125,0.04688c-0.15625,-0.0625 -0.28125,-0.1875 -0.375,-0.375l-4.17187,-8.60937c-0.08334,-0.1875 -0.09375,-0.35937 -0.03125,-0.51562c0.0625,-0.16666 0.1875,-0.29687 0.375,-0.39062c0.1875,-0.08334 0.35938,-0.09375 0.51563,-0.03125c0.16666,0.05209 0.29166,0.17188 0.375,0.35938l4.09375,8.60938c0.09375,0.1875 0.11979,0.36459 0.07813,0.53125c-0.03125,0.15625 -0.14062,0.28125 -0.32812,0.375zM305.68469,185.36718c-0.30209,0 -0.55729,-0.10416 -0.76562,-0.3125c-0.20834,-0.20834 -0.3125,-0.46354 -0.3125,-0.76562c0,-0.3125 0.10416,-0.57291 0.3125,-0.78125c0.21875,-0.21875 0.47396,-0.32812 0.76563,-0.32812c0.30209,0 0.55729,0.10938 0.76563,0.32813c0.20834,0.21875 0.3125,0.47916 0.3125,0.78125c0,0.28125 -0.10416,0.53125 -0.3125,0.75c-0.19791,0.21875 -0.45312,0.32813 -0.76562,0.32813z"/></g></g></svg>