<svg version="1.1" xmlns="http://www.w3.org/2000/svg" xmlns:xlink="http://www.w3.org/1999/xlink" width="27.453" height="42.2185" viewBox="0,0,27.453,42.2185"><defs><linearGradient x1="240" y1="166.07825" x2="240" y2="197.35925" gradientUnits="userSpaceOnUse" id="color-1"><stop offset="0" stop-color="#000000"/><stop offset="1" stop-color="#000000" stop-opacity="0"/></linearGradient><linearGradient x1="240" y1="166.07825" x2="240" y2="197.35925" gradientUnits="userSpaceOnUse" id="color-2"><stop offset="0" stop-color="#000000"/><stop offset="1" stop-color="#000000" stop-opacity="0"/></linearGradient></defs><g transform="translate(-226.2735,-158.89075)"><g data-paper-data="{&quot;isPaintingLayer&quot;:true}" fill-rule="nonzero" stroke-linecap="butt" stroke-linejoin="miter" stroke-miterlimit="10" stroke-dasharray="" stroke-dashoffset="0" style="mix-blend-mode: normal"><path d="M240.3835,166.07825c1.541,0 2.953,0.344 4.234,1.031c1.281,0.677 2.286,1.604 3.016,2.781c0.739,1.167 1.109,2.469 1.109,3.907c0,1.437 -0.453,2.687 -1.359,3.75c-0.907,1.052 -2.042,1.885 -3.407,2.5c2.032,0.687 3.537,1.744 4.516,3.172c0.989,1.427 1.484,3.114 1.484,5.062c0,1.708 -0.442,3.255 -1.328,4.641c-0.875,1.385 -2.052,2.474 -3.531,3.265c-1.479,0.782 -3.083,1.172 -4.813,1.172c-1.979,0 -3.75,-0.417 -5.312,-1.25c-1.552,-0.844 -2.771,-1.989 -3.656,-3.437c-0.875,-1.459 -1.313,-3.094 -1.313,-4.907c0,-0.593 0.172,-1.088 0.516,-1.484c0.344,-0.406 0.786,-0.609 1.328,-0.609c0.531,0 0.969,0.203 1.312,0.609c0.344,0.396 0.516,0.891 0.516,1.484c0,1.094 0.281,2.099 0.844,3.016c0.562,0.917 1.328,1.651 2.297,2.203c0.979,0.542 2.052,0.813 3.218,0.813c1.792,0 3.219,-0.49 4.282,-1.469c1.073,-0.99 1.609,-2.354 1.609,-4.094c0,-1.094 -0.24,-2.099 -0.719,-3.015c-0.479,-0.917 -1.14,-1.636 -1.984,-2.157c-0.844,-0.521 -1.771,-0.781 -2.781,-0.781c-0.584,0 -1.073,-0.198 -1.469,-0.594c-0.386,-0.406 -0.578,-0.901 -0.578,-1.484c0,-0.594 0.192,-1.083 0.578,-1.469c0.396,-0.385 0.885,-0.578 1.469,-0.578c0.75,0 1.474,-0.193 2.172,-0.578c0.708,-0.386 1.281,-0.912 1.718,-1.578c0.448,-0.667 0.672,-1.401 0.672,-2.203c0,-1.167 -0.427,-2.151 -1.281,-2.953c-0.854,-0.803 -1.948,-1.204 -3.281,-1.204c-1.011,0 -1.938,0.204 -2.782,0.61c-0.843,0.396 -1.51,0.927 -2,1.594c-0.489,0.666 -0.734,1.411 -0.734,2.234c0,0.614 -0.177,1.13 -0.531,1.547c-0.344,0.406 -0.781,0.609 -1.313,0.609c-0.531,0 -0.974,-0.193 -1.328,-0.578c-0.344,-0.385 -0.515,-0.87 -0.515,-1.453c0,-1.521 0.401,-2.901 1.203,-4.141c0.802,-1.239 1.895,-2.213 3.281,-2.922c1.385,-0.708 2.932,-1.062 4.641,-1.062z" fill="url(#color-1)" stroke="url(#color-2)" stroke-width="7.5"/><path d="M240.3835,162.64075c1.541,0 2.953,0.344 4.234,1.031c1.281,0.677 2.286,1.604 3.016,2.781c0.739,1.167 1.109,2.469 1.109,3.907c0,1.437 -0.453,2.687 -1.359,3.75c-0.907,1.052 -2.042,1.885 -3.407,2.5c2.032,0.687 3.537,1.744 4.516,3.172c0.989,1.427 1.484,3.114 1.484,5.062c0,1.708 -0.442,3.255 -1.328,4.641c-0.875,1.385 -2.052,2.474 -3.531,3.265c-1.479,0.782 -3.083,1.172 -4.813,1.172c-1.979,0 -3.75,-0.417 -5.312,-1.25c-1.552,-0.844 -2.771,-1.989 -3.656,-3.437c-0.875,-1.459 -1.313,-3.094 -1.313,-4.907c0,-0.593 0.172,-1.088 0.516,-1.484c0.344,-0.406 0.786,-0.609 1.328,-0.609c0.531,0 0.969,0.203 1.312,0.609c0.344,0.396 0.516,0.891 0.516,1.484c0,1.094 0.281,2.099 0.844,3.016c0.562,0.917 1.328,1.651 2.297,2.203c0.979,0.542 2.052,0.813 3.218,0.813c1.792,0 3.219,-0.49 4.282,-1.469c1.073,-0.99 1.609,-2.354 1.609,-4.094c0,-1.094 -0.24,-2.099 -0.719,-3.015c-0.479,-0.917 -1.14,-1.636 -1.984,-2.157c-0.844,-0.521 -1.771,-0.781 -2.781,-0.781c-0.584,0 -1.073,-0.198 -1.469,-0.594c-0.386,-0.406 -0.578,-0.901 -0.578,-1.484c0,-0.594 0.192,-1.083 0.578,-1.469c0.396,-0.385 0.885,-0.578 1.469,-0.578c0.75,0 1.474,-0.193 2.172,-0.578c0.708,-0.386 1.281,-0.912 1.718,-1.578c0.448,-0.667 0.672,-1.401 0.672,-2.203c0,-1.167 -0.427,-2.151 -1.281,-2.953c-0.854,-0.803 -1.948,-1.204 -3.281,-1.204c-1.011,0 -1.938,0.204 -2.782,0.61c-0.843,0.396 -1.51,0.927 -2,1.594c-0.489,0.666 -0.734,1.411 -0.734,2.234c0,0.614 -0.177,1.13 -0.531,1.547c-0.344,0.406 -0.781,0.609 -1.313,0.609c-0.531,0 -0.974,-0.193 -1.328,-0.578c-0.344,-0.385 -0.515,-0.87 -0.515,-1.453c0,-1.521 0.401,-2.901 1.203,-4.141c0.802,-1.239 1.895,-2.213 3.281,-2.922c1.385,-0.708 2.932,-1.062 4.641,-1.062z" fill="#ca6c00" stroke="#ffffff" stroke-width="7.5"/><path d="M240.3835,162.64075c1.541,0 2.953,0.344 4.234,1.031c1.281,0.677 2.286,1.604 3.016,2.781c0.739,1.167 1.109,2.469 1.109,3.907c0,1.437 -0.453,2.687 -1.359,3.75c-0.907,1.052 -2.042,1.885 -3.407,2.5c2.032,0.687 3.537,1.744 4.516,3.172c0.989,1.427 1.484,3.114 1.484,5.062c0,1.708 -0.442,3.255 -1.328,4.641c-0.875,1.385 -2.052,2.474 -3.531,3.265c-1.479,0.782 -3.083,1.172 -4.813,1.172c-1.979,0 -3.75,-0.417 -5.312,-1.25c-1.552,-0.844 -2.771,-1.989 -3.656,-3.437c-0.875,-1.459 -1.313,-3.094 -1.313,-4.907c0,-0.593 0.172,-1.088 0.516,-1.484c0.344,-0.406 0.786,-0.609 1.328,-0.609c0.531,0 0.969,0.203 1.312,0.609c0.344,0.396 0.516,0.891 0.516,1.484c0,1.094 0.281,2.099 0.844,3.016c0.562,0.917 1.328,1.651 2.297,2.203c0.979,0.542 2.052,0.813 3.218,0.813c1.792,0 3.219,-0.49 4.282,-1.469c1.073,-0.99 1.609,-2.354 1.609,-4.094c0,-1.094 -0.24,-2.099 -0.719,-3.015c-0.479,-0.917 -1.14,-1.636 -1.984,-2.157c-0.844,-0.521 -1.771,-0.781 -2.781,-0.781c-0.584,0 -1.073,-0.198 -1.469,-0.594c-0.386,-0.406 -0.578,-0.901 -0.578,-1.484c0,-0.594 0.192,-1.083 0.578,-1.469c0.396,-0.385 0.885,-0.578 1.469,-0.578c0.75,0 1.474,-0.193 2.172,-0.578c0.708,-0.386 1.281,-0.912 1.718,-1.578c0.448,-0.667 0.672,-1.401 0.672,-2.203c0,-1.167 -0.427,-2.151 -1.281,-2.953c-0.854,-0.803 -1.948,-1.204 -3.281,-1.204c-1.011,0 -1.938,0.204 -2.782,0.61c-0.843,0.396 -1.51,0.927 -2,1.594c-0.489,0.666 -0.734,1.411 -0.734,2.234c0,0.614 -0.177,1.13 -0.531,1.547c-0.344,0.406 -0.781,0.609 -1.313,0.609c-0.531,0 -0.974,-0.193 -1.328,-0.578c-0.344,-0.385 -0.515,-0.87 -0.515,-1.453c0,-1.521 0.401,-2.901 1.203,-4.141c0.802,-1.239 1.895,-2.213 3.281,-2.922c1.385,-0.708 2.932,-1.062 4.641,-1.062z" fill="#ca6c00" stroke="#ffffff" stroke-width="0"/></g></g></svg>