<svg version="1.1" xmlns="http://www.w3.org/2000/svg" xmlns:xlink="http://www.w3.org/1999/xlink" width="26.625" height="43.281" viewBox="0,0,26.625,43.281"><defs><linearGradient x1="240" y1="166.672" x2="240" y2="197.953" gradientUnits="userSpaceOnUse" id="color-1"><stop offset="0" stop-color="#000000"/><stop offset="1" stop-color="#000000" stop-opacity="0"/></linearGradient><linearGradient x1="240" y1="166.672" x2="240" y2="197.953" gradientUnits="userSpaceOnUse" id="color-2"><stop offset="0" stop-color="#000000"/><stop offset="1" stop-color="#000000" stop-opacity="0"/></linearGradient></defs><g transform="translate(-226.6875,-158.422)"><g data-paper-data="{&quot;isPaintingLayer&quot;:true}" fill-rule="nonzero" stroke-linecap="butt" stroke-linejoin="miter" stroke-miterlimit="10" stroke-dasharray="" stroke-dashoffset="0" style="mix-blend-mode: normal"><path d="M240.0005,166.672c2,0 3.718,0.63 5.156,1.891c1.437,1.25 2.531,3.046 3.281,5.39c0.75,2.344 1.125,5.13 1.125,8.36c0,3.229 -0.375,6.015 -1.125,8.359c-0.75,2.344 -1.844,4.146 -3.281,5.406c-1.438,1.25 -3.156,1.875 -5.156,1.875c-3.042,0 -5.396,-1.37 -7.063,-4.109c-1.667,-2.75 -2.5,-6.594 -2.5,-11.531c0,-4.938 0.833,-8.776 2.5,-11.516c1.667,-2.75 4.021,-4.125 7.063,-4.125zM240.0005,170.797c-1.792,0 -3.146,1.062 -4.063,3.187c-0.917,2.115 -1.375,4.891 -1.375,8.329c0,3.468 0.464,6.25 1.391,8.343c0.937,2.094 2.286,3.141 4.047,3.141c1.781,0 3.13,-1.052 4.046,-3.156c0.927,-2.115 1.391,-4.891 1.391,-8.328c0,-3.417 -0.469,-6.188 -1.406,-8.313c-0.927,-2.135 -2.271,-3.203 -4.031,-3.203z" fill="url(#color-1)" stroke="url(#color-2)" stroke-width="7.5"/><path d="M240.0005,162.172c2,0 3.718,0.63 5.156,1.891c1.437,1.25 2.531,3.046 3.281,5.39c0.75,2.344 1.125,5.13 1.125,8.36c0,3.229 -0.375,6.015 -1.125,8.359c-0.75,2.344 -1.844,4.146 -3.281,5.406c-1.438,1.25 -3.156,1.875 -5.156,1.875c-3.042,0 -5.396,-1.37 -7.063,-4.109c-1.667,-2.75 -2.5,-6.594 -2.5,-11.531c0,-4.938 0.833,-8.776 2.5,-11.516c1.667,-2.75 4.021,-4.125 7.063,-4.125zM240.0005,166.297c-1.792,0 -3.146,1.062 -4.063,3.187c-0.917,2.115 -1.375,4.891 -1.375,8.329c0,3.468 0.464,6.25 1.391,8.343c0.937,2.094 2.286,3.141 4.047,3.141c1.781,0 3.13,-1.052 4.046,-3.156c0.927,-2.115 1.391,-4.891 1.391,-8.328c0,-3.417 -0.469,-6.188 -1.406,-8.313c-0.927,-2.135 -2.271,-3.203 -4.031,-3.203z" fill="#ca6c00" stroke="#ffffff" stroke-width="7.5"/><path d="M240.0005,162.047c2,0 3.718,0.63 5.156,1.891c1.437,1.25 2.531,3.046 3.281,5.39c0.75,2.344 1.125,5.13 1.125,8.36c0,3.229 -0.375,6.015 -1.125,8.359c-0.75,2.344 -1.844,4.146 -3.281,5.406c-1.438,1.25 -3.156,1.875 -5.156,1.875c-3.042,0 -5.396,-1.37 -7.063,-4.109c-1.667,-2.75 -2.5,-6.594 -2.5,-11.531c0,-4.938 0.833,-8.776 2.5,-11.516c1.667,-2.75 4.021,-4.125 7.063,-4.125zM240.0005,166.172c-1.792,0 -3.146,1.062 -4.063,3.187c-0.917,2.115 -1.375,4.891 -1.375,8.329c0,3.468 0.464,6.25 1.391,8.343c0.937,2.094 2.286,3.141 4.047,3.141c1.781,0 3.13,-1.052 4.046,-3.156c0.927,-2.115 1.391,-4.891 1.391,-8.328c0,-3.417 -0.469,-6.188 -1.406,-8.313c-0.927,-2.135 -2.271,-3.203 -4.031,-3.203z" fill="#ca6c00" stroke="#ffffff" stroke-width="0"/></g></g></svg>