<svg version="1.1" xmlns="http://www.w3.org/2000/svg" xmlns:xlink="http://www.w3.org/1999/xlink" width="70.37742" height="38.28818" viewBox="0,0,70.37742,38.28818"><defs><linearGradient x1="250.21153" y1="173.13884" x2="247.33457" y2="173.76011" gradientUnits="userSpaceOnUse" id="color-1"><stop offset="0" stop-color="#7a727a"/><stop offset="1" stop-color="#211f21"/></linearGradient><linearGradient x1="341.58197" y1="46.516" x2="341.57947" y2="46.516" gradientUnits="userSpaceOnUse" id="color-2"><stop offset="0" stop-color="#7a727a"/><stop offset="1" stop-color="#211f21"/></linearGradient><linearGradient x1="250.55353" y1="186.7723" x2="247.67386" y2="186.16369" gradientUnits="userSpaceOnUse" id="color-3"><stop offset="0" stop-color="#7a727a"/><stop offset="1" stop-color="#211f21"/></linearGradient></defs><g transform="translate(-199.19579,-159.20686)"><g data-paper-data="{&quot;isPaintingLayer&quot;:true}" fill-rule="nonzero" stroke-linecap="butt" stroke-linejoin="miter" stroke-miterlimit="10" stroke-dasharray="" stroke-dashoffset="0" style="mix-blend-mode: normal"><path d="M234.12038,183.95014l-19.57118,0.0431l-0.01549,-7.03401l19.57118,-0.0431z" data-paper-data="{&quot;index&quot;:null}" fill="none" stroke="#211f21" stroke-width="18.5"/><path d="M236.98871,180.46147c-0.01307,-5.93705 2.83052,-10.75626 6.35131,-10.76401c3.52079,-0.00775 6.38558,4.79889 6.39866,10.73594c0.01307,5.93705 -2.83052,10.75626 -6.35131,10.76401c-3.52079,0.00775 -6.38558,-4.79889 -6.39866,-10.73594z" data-paper-data="{&quot;index&quot;:null}" fill="#211f21" stroke="#211f21" stroke-width="4"/><path d="M201.19586,180.53904c-0.01307,-5.93705 1.93508,-10.75429 4.35132,-10.75961c2.41624,-0.00532 4.3856,4.80329 4.39867,10.74034c0.01307,5.93705 -1.93508,10.75429 -4.35133,10.75961c-2.41624,0.00532 -4.38559,-4.80329 -4.39866,-10.74034z" data-paper-data="{&quot;index&quot;:null}" fill="#211f21" stroke="#211f21" stroke-width="4"/><path d="M226.92757,170.49102l6.83332,-0.01505c0,0 1.04052,2.72886 1.48094,5.10281c0.14515,0.78243 0.38425,2.72351 0.37735,4.83637c-0.02133,2.09015 -0.27115,4.20595 -0.50043,5.64437c-0.54042,3.39034 -1.31382,4.4164 -1.31382,4.4164l-6.83332,0.01505c0,0 0.29176,-1.8822 0.44453,-4.54645c0.05352,-0.93318 0.17732,-2.85009 0.26072,-5.45513c-0.03578,-0.82773 -0.04719,-1.98625 -0.10398,-3.29581c-0.02163,-0.49887 -0.05048,-1.30462 -0.08885,-1.70378c-0.22337,-2.32392 -0.55647,-4.99879 -0.55647,-4.99879z" fill="#ffffff" stroke="none" stroke-width="0"/><path d="M206.95794,175.31823c-0.67017,1.67346 -0.68772,2.53735 -0.71606,5.0925c0.09486,2.60465 0.22251,2.4301 0.73689,4.36203c1.25581,2.84296 1.64356,3.26912 1.64356,3.26912l-3.91903,2.37228c0,0 -1.14115,-0.84004 -2.33285,-4.22655c-0.69197,-2.25457 -0.76768,-3.64237 -0.7982,-5.73242c-0.0162,-2.11281 -0.14549,-2.32686 0.62698,-5.65676c0.97159,-4.10434 2.46005,-4.38422 2.46005,-4.38422l3.65592,1.99195c0,0 -0.41642,0.76742 -1.35723,2.91209z" data-paper-data="{&quot;index&quot;:null}" fill="#ffffff" stroke="none" stroke-width="0"/><path d="M233.5617,167.60842c0.00525,2.38485 0.47271,2.04441 -0.63185,2.04685c-1.10457,0.00243 -3.36288,0.34683 -3.36814,-2.03804c-0.00525,-2.38485 -0.02277,-4.13632 1.0818,-4.13875c1.10457,-0.00243 2.91294,1.74508 2.91819,4.12994z" fill="#211f21" stroke="none" stroke-width="0"/><path d="M230.71842,197.49503c-1.10457,0.00243 -1.09476,-1.74909 -1.10002,-4.13396c-0.00525,-2.38485 2.25456,-2.05042 3.35913,-2.05285c1.10457,-0.00243 0.63561,-0.34081 0.64086,2.04404c0.00525,2.38485 -1.79541,4.14033 -2.89997,4.14277z" data-paper-data="{&quot;index&quot;:null}" fill="#211f21" stroke="none" stroke-width="0"/><path d="M250.83318,175.31692c-0.31379,0.17371 -0.59314,-0.04568 -0.94975,0.06641c-0.10631,0.03341 -0.90233,-0.34936 -1.01132,-0.4253c-0.31483,-0.21938 -1.04086,-0.61128 -1.26322,-1.01297c-0.22725,-0.4105 -0.77328,-0.95021 -0.78801,-1.34023c-0.02142,-0.56689 -0.01854,-1.45423 0.38285,-1.67644c0.40361,-0.22343 0.91837,-0.81522 1.3895,-0.49183c0.31976,0.2195 0.97969,1.2271 1.20512,1.63431c0.26459,0.47797 0.41928,0.79813 0.79341,1.95469c0.36186,1.11865 0.59743,1.09429 0.24141,1.29137z" fill="url(#color-1)" stroke="none" stroke-width="0"/><path d="M269.57322,159.20686z" fill="url(#color-2)" stroke="none" stroke-width="0"/><path d="M251.04046,184.52927c0.35688,0.19551 0.24634,0.23441 -0.1106,1.35464c-0.36903,1.1582 -0.45981,1.47891 -0.7223,1.95803c-0.22363,0.4082 -0.75385,1.5434 -1.07265,1.76432c-0.4697,0.32547 -1.17483,-0.38862 -1.57942,-0.61028c-0.40237,-0.22044 -0.40915,-1.10775 -0.39024,-1.67473c0.01302,-0.39008 0.55667,-0.93219 0.7821,-1.3437c0.2206,-0.40266 0.94489,-0.79776 1.25876,-1.01852c0.10864,-0.07642 0.90298,-0.4627 1.00944,-0.42975c0.35708,0.11052 0.51035,-0.17231 0.8249,0.00001z" data-paper-data="{&quot;index&quot;:null}" fill="url(#color-3)" stroke="none" stroke-width="0"/><path d="M208.61851,188.24772c0,0 -0.93104,-1.34718 -1.84943,-4.34351c-0.67472,-2.20135 -0.63716,-3.30322 -0.64436,-4.18953c-0.00839,-1.03166 0.1086,-2.45325 0.91465,-4.33588c0.55439,-1.29485 1.45177,-2.79921 1.45177,-2.79921l18.34317,-2.03813c0,0 0.92595,6.77998 0.94522,9.80654c0.02264,3.55455 -0.81784,10.19262 -0.81784,10.19262z" fill="#090909" stroke="none" stroke-width="0"/><path d="M226.98884,190.27117c0,0 -16.99403,-0.64296 -18.45428,-2.25844c-0.70914,-0.78452 -1.62668,-3.2078 -1.99456,-4.95759c-0.19837,-0.94349 -0.1803,-1.86581 -0.18241,-2.17629c5.26961,0.18602 0.9425,-0.16993 9.88259,-0.08499c2.08399,0.06587 4.35359,0.00906 11.39738,-0.0539c0.01011,1.89979 -0.37812,6.28406 -0.37812,6.28406z" fill="#323032" stroke="none" stroke-width="0"/></g></g></svg>