<svg version="1.1" xmlns="http://www.w3.org/2000/svg" xmlns:xlink="http://www.w3.org/1999/xlink" width="23.95" height="23.95" viewBox="0,0,23.95,23.95"><g transform="translate(-227.9897,-168.0482)"><g data-paper-data="{&quot;isPaintingLayer&quot;:true}" fill-rule="nonzero" stroke="none" stroke-linejoin="miter" stroke-miterlimit="10" stroke-dasharray="" stroke-dashoffset="0" style="mix-blend-mode: normal"><path d="M239.9647,168.0482c3.3043,0 6.298,1.3416 8.4652,3.5099c2.1682,2.1671 3.5098,5.1609 3.5098,8.4651c0,3.3043 -1.3416,6.298 -3.5098,8.4652c-2.1672,2.1682 -5.1609,3.5098 -8.4652,3.5098c-3.3043,0 -6.298,-1.3416 -8.4652,-3.5098c-2.1682,-2.1672 -3.5098,-5.1609 -3.5098,-8.4652c0,-3.3042 1.3416,-6.298 3.5098,-8.4651c2.1672,-2.1683 5.1609,-3.5099 8.4652,-3.5099z" fill="#5ec565" stroke-width="1.05973" stroke-linecap="butt"/><path d="M234.25,184.3l9.45,-10.2l7.8,9l-0.35,0.9l-0.4,1.15l-0.65,1.2l-0.55,0.85l-0.55,0.65l-0.6,0.7l-0.6,0.65l-1,0.75l-1.05,0.7l-1.05,0.45l-1.1,0.45l-1.2,0.3l-1.25,0.1z" fill="#5ec565" stroke-width="1" stroke-linecap="round"/><path d="M240.0961,175.2031c1.428,0 2.7217,0.5798 3.6582,1.5168c0.937,0.9365 1.5168,2.2303 1.5168,3.6582c0,1.4279 -0.5798,2.7217 -1.5168,3.6582c-0.9365,0.937 -2.2302,1.5168 -3.6582,1.5168c-1.4279,0 -2.7217,-0.5798 -3.6582,-1.5168c-0.937,-0.9365 -1.5168,-2.2303 -1.5168,-3.6582c0,-1.4279 0.5798,-2.7217 1.5168,-3.6582c0.9365,-0.937 2.2303,-1.5168 3.6582,-1.5168z" fill="#5ec565" stroke-width="0.45796" stroke-linecap="butt"/><path d="M236.087,174.0788l10.5269,6.3533l-10.5269,5.8431z" fill="#ffffff" stroke-width="0.92748" stroke-linecap="round"/><path d="M233.437,174.0288l10.5269,6.3533l-10.5269,5.8431z" fill="#5ec565" stroke-width="0.92748" stroke-linecap="round"/><path d="M236.1178,177.359l4.8751,2.9423l-4.8751,2.7061z" fill="#ffffff" stroke-width="0.42953" stroke-linecap="round"/></g></g></svg>