<svg version="1.1" xmlns="http://www.w3.org/2000/svg" xmlns:xlink="http://www.w3.org/1999/xlink" width="328.52949" height="83.21167" viewBox="0,-0.25,328.52949,83.21167"><defs><linearGradient x1="320.8929" y1="235.08384" x2="320.8929" y2="239.08384" gradientUnits="userSpaceOnUse" id="color-1"><stop offset="0" stop-color="#000000"/><stop offset="1" stop-color="#000000" stop-opacity="0"/></linearGradient><linearGradient x1="240.00002" y1="167.83573" x2="240.00002" y2="208.07699" gradientUnits="userSpaceOnUse" id="color-2"><stop offset="0" stop-color="#000000"/><stop offset="1" stop-color="#000000" stop-opacity="0"/></linearGradient><linearGradient x1="240.00001" y1="167.83573" x2="240.00001" y2="208.07699" gradientUnits="userSpaceOnUse" id="color-3"><stop offset="0" stop-color="#000000"/><stop offset="1" stop-color="#000000" stop-opacity="0"/></linearGradient></defs><g transform="translate(-156.25315,-159.37938)"><g data-paper-data="{&quot;isPaintingLayer&quot;:true}" fill-rule="nonzero" stroke-linejoin="miter" stroke-miterlimit="10" stroke-dasharray="" stroke-dashoffset="0" style="mix-blend-mode: normal"><path d="M161.00315,237.59105c0,0 115.64135,-1.0098 171.54551,-1.01441c51.69204,-0.00427 147.23398,0.98767 147.23398,0.98767" fill="none" stroke="url(#color-1)" stroke-width="9.5" stroke-linecap="round"/><path d="M176.81806,207.56978c-0.74013,0 -1.36148,-0.25128 -1.86403,-0.75383c-0.50256,-0.50256 -0.75384,-1.1239 -0.75384,-1.86403v-34.04607c0,-0.76754 0.25128,-1.39346 0.75384,-1.87774c0.50256,-0.48427 1.1239,-0.72642 1.86403,-0.72642h12.0203c2.27523,0 4.27632,0.44317 6.00329,1.32951c1.72698,0.88634 3.08389,2.11989 4.07073,3.70066c0.98685,1.57164 1.48026,3.38084 1.48026,5.42762c0,1.6356 -0.44317,3.11586 -1.3295,4.44079c-0.88634,1.32493 -2.1016,2.37573 -3.64583,3.15241c2.21125,0.52997 3.98849,1.58534 5.33169,3.16613c1.3432,1.57164 2.01482,3.63213 2.01482,6.18148c0,2.31177 -0.54825,4.35856 -1.64474,6.14035c-1.08735,1.77266 -2.60417,3.17069 -4.55045,4.19409c-1.93713,1.02339 -4.1621,1.53509 -6.67489,1.53509h-13.07567zM179.42223,202.74522h10.4715c1.53509,0 2.88743,-0.26956 4.05702,-0.80866c1.17873,-0.5391 2.10161,-1.32493 2.76864,-2.35746c0.67617,-1.04167 1.01426,-2.33462 1.01426,-3.87884c0,-1.44371 -0.33809,-2.63158 -1.01426,-3.5636c-0.66703,-0.94116 -1.58992,-1.65388 -2.76864,-2.13816c-1.16959,-0.49342 -2.52193,-0.74013 -4.05702,-0.74013h-10.4715zM179.90041,184.43379h8.93796c1.90973,0 3.4768,-0.46601 4.70121,-1.39802c1.22441,-0.94116 1.83663,-2.3666 1.83663,-4.27633c0,-1.90971 -0.61221,-3.32601 -1.83663,-4.24889c-1.22441,-0.92288 -2.79148,-1.38431 -4.7012,-1.38431h-9.41612v11.30756zM213.17626,207.56978c-0.74013,0 -1.36148,-0.25128 -1.86403,-0.75383c-0.50256,-0.50256 -0.75383,-1.1239 -0.75383,-1.86403v-34.04607c0,-0.76754 0.25128,-1.39346 0.75384,-1.87774c0.50256,-0.48427 1.1239,-0.72642 1.86403,-0.72642h22.7248c0.76754,0 1.38432,0.22844 1.85033,0.68531c0.47515,0.44774 0.71272,1.03709 0.71272,1.7681c0,0.70358 -0.23757,1.27468 -0.71272,1.71328c-0.46601,0.4386 -1.08279,0.65789 -1.85033,0.65789h-20.12063v12.21217h14.43258c0.77668,0 1.39802,0.22844 1.86403,0.68531c0.47515,0.44774 0.71272,1.02339 0.71272,1.72698c0,0.70358 -0.23757,1.2838 -0.71272,1.74068c-0.46601,0.45687 -1.08735,0.68531 -1.86403,0.68531h-14.43257v12.56854h20.12063c0.76754,0 1.38432,0.2193 1.85033,0.65789c0.47515,0.42946 0.71272,0.99599 0.71272,1.69956c0,0.74013 -0.23757,1.33863 -0.71272,1.79551c-0.46601,0.44774 -1.08279,0.67161 -1.85033,0.67161zM258.23255,208.07691c-2.1473,0 -4.19408,-0.33352 -6.14035,-1.00054c-1.94627,-0.67617 -3.64126,-1.61733 -5.08498,-2.82347c-1.43458,-1.20614 -2.48996,-2.5996 -3.16612,-4.18037c-0.32895,-0.70358 -0.31981,-1.35691 0.02741,-1.95997c0.35637,-0.60308 0.95487,-0.98685 1.79551,-1.15132c0.60308,-0.13705 1.197,-0.04568 1.7818,0.27412c0.58479,0.3198 1.02797,0.79953 1.32951,1.43915c0.40204,0.83151 1.0645,1.59905 1.98738,2.30264c0.92288,0.70358 2.03765,1.27468 3.3443,1.71327c1.30665,0.4386 2.68183,0.6579 4.12555,0.6579c1.60818,0 3.08845,-0.25128 4.44079,-0.75383c1.36147,-0.50256 2.46254,-1.22899 3.30319,-2.17928c0.84064,-0.95943 1.26097,-2.14273 1.26097,-3.54989c0,-1.7818 -0.69901,-3.37629 -2.09704,-4.78345c-1.38889,-1.40717 -3.67782,-2.27979 -6.86678,-2.61787c-4.1484,-0.40204 -7.41502,-1.62189 -9.79989,-3.65954c-2.37573,-2.04678 -3.56361,-4.58243 -3.56361,-7.60691c0,-2.21125 0.61678,-4.08442 1.85033,-5.6195c1.2427,-1.54423 2.92855,-2.71839 5.05757,-3.52248c2.12902,-0.81323 4.50019,-1.21984 7.1135,-1.21984c2.04678,0 3.83315,0.28783 5.3591,0.86349c1.52594,0.56651 2.85545,1.35234 3.98849,2.35746c1.14218,1.00511 2.1336,2.19755 2.97425,3.57731c0.46601,0.74013 0.65789,1.43913 0.57566,2.09703c-0.08224,0.64876 -0.40661,1.15589 -0.97313,1.52139c-0.63962,0.40204 -1.3295,0.48885 -2.06963,0.26042c-0.73099,-0.23757 -1.2838,-0.67617 -1.65844,-1.3158c-0.52997,-0.96857 -1.1833,-1.78635 -1.95997,-2.45339c-0.76754,-0.67617 -1.67215,-1.20614 -2.71382,-1.58992c-1.04167,-0.39291 -2.26608,-0.58937 -3.67325,-0.58937c-2.47625,-0.02741 -4.55501,0.4386 -6.23629,1.39803c-1.67215,0.95029 -2.50823,2.41227 -2.50823,4.38595c0,1.00511 0.26041,1.96912 0.78125,2.892c0.52084,0.92288 1.4757,1.72241 2.86458,2.39858c1.38889,0.66703 3.38999,1.13305 6.0033,1.39803c3.99306,0.40204 7.10436,1.61732 9.33389,3.64583c2.22954,2.02851 3.3443,4.70122 3.3443,8.0181c0,1.91886 -0.39747,3.58187 -1.19243,4.98904c-0.78582,1.40717 -1.8412,2.59046 -3.16612,3.54991c-1.31579,0.95029 -2.82347,1.66301 -4.52303,2.13815c-1.69042,0.46601 -3.44024,0.69902 -5.24945,0.69902zM289.9555,207.56978c-0.73099,0 -1.34777,-0.25128 -1.85033,-0.75383c-0.50257,-0.50256 -0.75384,-1.1239 -0.75384,-1.86403v-36.65024h5.22205v36.65024c0,0.74013 -0.25127,1.36148 -0.75383,1.86403c-0.50257,0.50256 -1.12391,0.75384 -1.86404,0.75384zM276.48236,173.12623c-0.70358,0 -1.2838,-0.22386 -1.74068,-0.67159c-0.44774,-0.45687 -0.6716,-1.0371 -0.6716,-1.74068c0,-0.70358 0.22387,-1.27923 0.6716,-1.72697c0.45687,-0.45687 1.03709,-0.68531 1.74069,-0.68531h26.90519c0.70358,0 1.27924,0.22844 1.72698,0.68531c0.45687,0.44774 0.6853,1.02339 0.6853,1.72697c0,0.70358 -0.22844,1.2838 -0.6853,1.74069c-0.44774,0.44774 -1.02339,0.67161 -1.72698,0.67161z" fill="url(#color-2)" stroke="url(#color-3)" stroke-width="7.5" stroke-linecap="square"/><path d="M176.81805,203.11343c-0.74013,0 -1.36148,-0.25128 -1.86403,-0.75383c-0.50256,-0.50256 -0.75384,-1.1239 -0.75384,-1.86403v-34.04607c0,-0.76754 0.25128,-1.39346 0.75384,-1.87774c0.50256,-0.48427 1.1239,-0.72642 1.86403,-0.72642h12.0203c2.27523,0 4.27632,0.44317 6.00329,1.32951c1.72698,0.88634 3.08389,2.11989 4.07073,3.70066c0.98685,1.57164 1.48026,3.38084 1.48026,5.42762c0,1.6356 -0.44317,3.11586 -1.3295,4.44079c-0.88634,1.32493 -2.1016,2.37573 -3.64583,3.15241c2.21125,0.52997 3.98849,1.58534 5.33169,3.16613c1.3432,1.57164 2.01482,3.63213 2.01482,6.18148c0,2.31177 -0.54825,4.35856 -1.64474,6.14035c-1.08735,1.77266 -2.60417,3.17069 -4.55045,4.19409c-1.93713,1.02339 -4.1621,1.53509 -6.67489,1.53509h-13.07567zM179.42222,198.28887h10.4715c1.53509,0 2.88743,-0.26956 4.05702,-0.80866c1.17873,-0.5391 2.10161,-1.32493 2.76864,-2.35746c0.67617,-1.04167 1.01426,-2.33462 1.01426,-3.87884c0,-1.44371 -0.33809,-2.63158 -1.01426,-3.5636c-0.66703,-0.94116 -1.58992,-1.65388 -2.76864,-2.13816c-1.16959,-0.49342 -2.52193,-0.74013 -4.05702,-0.74013h-10.4715zM188.83836,179.97744c1.90973,0 3.4768,-0.46601 4.70121,-1.39802c1.22441,-0.94116 1.83663,-2.3666 1.83663,-4.27633c0,-1.90971 -0.61221,-3.32601 -1.83663,-4.24889c-1.22441,-0.92288 -2.79148,-1.38431 -4.7012,-1.38431h-9.41612v11.30756zM213.17625,203.11343c-0.74013,0 -1.36148,-0.25128 -1.86403,-0.75383c-0.50256,-0.50256 -0.75383,-1.1239 -0.75383,-1.86403v-34.04607c0,-0.76754 0.25128,-1.39346 0.75384,-1.87774c0.50256,-0.48427 1.1239,-0.72642 1.86403,-0.72642h22.7248c0.76754,0 1.38432,0.22844 1.85033,0.68531c0.47515,0.44774 0.71272,1.03709 0.71272,1.7681c0,0.70358 -0.23757,1.27468 -0.71272,1.71328c-0.46601,0.4386 -1.08279,0.65789 -1.85033,0.65789h-20.12063v12.21217h14.43258c0.77668,0 1.39802,0.22844 1.86403,0.68531c0.47515,0.44774 0.71272,1.02339 0.71272,1.72698c0,0.70358 -0.23757,1.2838 -0.71272,1.74068c-0.46601,0.45687 -1.08735,0.68531 -1.86403,0.68531h-14.43257v12.56854h20.12063c0.76754,0 1.38432,0.2193 1.85033,0.65789c0.47515,0.42946 0.71272,0.99599 0.71272,1.69956c0,0.74013 -0.23757,1.33863 -0.71272,1.79551c-0.46601,0.44774 -1.08279,0.67161 -1.85033,0.67161zM258.23254,203.62056c-2.1473,0 -4.19408,-0.33352 -6.14035,-1.00054c-1.94627,-0.67617 -3.64126,-1.61733 -5.08498,-2.82347c-1.43458,-1.20614 -2.48996,-2.5996 -3.16612,-4.18037c-0.32895,-0.70358 -0.31981,-1.35691 0.02741,-1.95997c0.35637,-0.60308 0.95487,-0.98685 1.79551,-1.15132c0.60308,-0.13705 1.197,-0.04568 1.7818,0.27412c0.58479,0.3198 1.02797,0.79953 1.32951,1.43915c0.40204,0.83151 1.0645,1.59905 1.98738,2.30264c0.92288,0.70358 2.03765,1.27468 3.3443,1.71327c1.30665,0.4386 2.68183,0.6579 4.12555,0.6579c1.60818,0 3.08845,-0.25128 4.44079,-0.75383c1.36147,-0.50256 2.46254,-1.22899 3.30319,-2.17928c0.84064,-0.95943 1.26097,-2.14273 1.26097,-3.54989c0,-1.7818 -0.69901,-3.37629 -2.09704,-4.78345c-1.38889,-1.40717 -3.67782,-2.27979 -6.86678,-2.61787c-4.1484,-0.40204 -7.41502,-1.62189 -9.79989,-3.65954c-2.37573,-2.04678 -3.56361,-4.58243 -3.56361,-7.60691c0,-2.21125 0.61678,-4.08442 1.85033,-5.6195c1.2427,-1.54423 2.92855,-2.71839 5.05757,-3.52248c2.12902,-0.81323 4.50019,-1.21984 7.1135,-1.21984c2.04678,0 3.83315,0.28783 5.3591,0.86349c1.52594,0.56651 2.85545,1.35234 3.98849,2.35746c1.14218,1.00511 2.1336,2.19755 2.97425,3.57731c0.46601,0.74013 0.65789,1.43913 0.57566,2.09703c-0.08224,0.64876 -0.40661,1.15589 -0.97313,1.52139c-0.63962,0.40204 -1.3295,0.48885 -2.06963,0.26042c-0.73099,-0.23757 -1.2838,-0.67617 -1.65844,-1.3158c-0.52997,-0.96857 -1.1833,-1.78635 -1.95997,-2.45339c-0.76754,-0.67617 -1.67215,-1.20614 -2.71382,-1.58992c-1.04167,-0.39291 -2.26608,-0.58937 -3.67325,-0.58937c-2.47625,-0.02741 -4.55501,0.4386 -6.23629,1.39803c-1.67215,0.95029 -2.50823,2.41227 -2.50823,4.38595c0,1.00511 0.26041,1.96912 0.78125,2.892c0.52084,0.92288 1.4757,1.72241 2.86458,2.39858c1.38889,0.66703 3.38999,1.13305 6.0033,1.39803c3.99306,0.40204 7.10436,1.61732 9.33389,3.64583c2.22954,2.02851 3.3443,4.70122 3.3443,8.0181c0,1.91886 -0.39747,3.58187 -1.19243,4.98904c-0.78582,1.40717 -1.8412,2.59046 -3.16612,3.54991c-1.31579,0.95029 -2.82347,1.66301 -4.52303,2.13815c-1.69042,0.46601 -3.44024,0.69902 -5.24945,0.69902zM289.95549,203.11343c-0.73099,0 -1.34777,-0.25128 -1.85033,-0.75383c-0.50257,-0.50256 -0.75384,-1.1239 -0.75384,-1.86403v-36.65024h5.22205v36.65024c0,0.74013 -0.25127,1.36148 -0.75383,1.86403c-0.50257,0.50256 -1.12391,0.75384 -1.86404,0.75384zM276.48235,168.66986c-0.70358,0 -1.2838,-0.22386 -1.74068,-0.67159c-0.44774,-0.45687 -0.6716,-1.0371 -0.6716,-1.74068c0,-0.70358 0.22387,-1.27923 0.6716,-1.72697c0.45687,-0.45687 1.03709,-0.68531 1.74069,-0.68531h26.90519c0.70358,0 1.27924,0.22844 1.72698,0.68531c0.45687,0.44774 0.6853,1.02339 0.6853,1.72697c0,0.70358 -0.22844,1.2838 -0.6853,1.74069c-0.44774,0.44774 -1.02339,0.67161 -1.72698,0.67161z" fill="#ca6c00" stroke="#ffffff" stroke-width="8.5" stroke-linecap="square"/><path d="M176.81805,203.11344c-0.74013,0 -1.36148,-0.25128 -1.86403,-0.75383c-0.50256,-0.50256 -0.75384,-1.1239 -0.75384,-1.86403v-34.04607c0,-0.76754 0.25128,-1.39346 0.75384,-1.87774c0.50256,-0.48427 1.1239,-0.72642 1.86403,-0.72642h12.0203c2.27523,0 4.27632,0.44317 6.00329,1.32951c1.72698,0.88634 3.08389,2.11989 4.07073,3.70066c0.98685,1.57164 1.48026,3.38084 1.48026,5.42762c0,1.6356 -0.44317,3.11586 -1.3295,4.44079c-0.88634,1.32493 -2.1016,2.37573 -3.64583,3.15241c2.21125,0.52997 3.98849,1.58534 5.33169,3.16613c1.3432,1.57164 2.01482,3.63213 2.01482,6.18148c0,2.31177 -0.54825,4.35856 -1.64474,6.14035c-1.08735,1.77266 -2.60417,3.17069 -4.55045,4.19409c-1.93713,1.02339 -4.1621,1.53509 -6.67489,1.53509h-13.07567zM179.42222,198.28888h10.4715c1.53509,0 2.88743,-0.26956 4.05702,-0.80866c1.17873,-0.5391 2.10161,-1.32493 2.76864,-2.35746c0.67617,-1.04167 1.01426,-2.33462 1.01426,-3.87884c0,-1.44371 -0.33809,-2.63158 -1.01426,-3.5636c-0.66703,-0.94116 -1.58992,-1.65388 -2.76864,-2.13816c-1.16959,-0.49342 -2.52193,-0.74013 -4.05702,-0.74013h-10.4715zM188.83836,179.97745c1.90973,0 3.4768,-0.46601 4.70121,-1.39802c1.22441,-0.94116 1.83663,-2.3666 1.83663,-4.27633c0,-1.90971 -0.61221,-3.32601 -1.83663,-4.24889c-1.22441,-0.92288 -2.79148,-1.38431 -4.7012,-1.38431h-9.41612v11.30756zM213.17625,203.11344c-0.74013,0 -1.36148,-0.25128 -1.86403,-0.75383c-0.50256,-0.50256 -0.75383,-1.1239 -0.75383,-1.86403v-34.04607c0,-0.76754 0.25128,-1.39346 0.75384,-1.87774c0.50256,-0.48427 1.1239,-0.72642 1.86403,-0.72642h22.7248c0.76754,0 1.38432,0.22844 1.85033,0.68531c0.47515,0.44774 0.71272,1.03709 0.71272,1.7681c0,0.70358 -0.23757,1.27468 -0.71272,1.71328c-0.46601,0.4386 -1.08279,0.65789 -1.85033,0.65789h-20.12063v12.21217h14.43258c0.77668,0 1.39802,0.22844 1.86403,0.68531c0.47515,0.44774 0.71272,1.02339 0.71272,1.72698c0,0.70358 -0.23757,1.2838 -0.71272,1.74068c-0.46601,0.45687 -1.08735,0.68531 -1.86403,0.68531h-14.43257v12.56854h20.12063c0.76754,0 1.38432,0.2193 1.85033,0.65789c0.47515,0.42946 0.71272,0.99599 0.71272,1.69956c0,0.74013 -0.23757,1.33863 -0.71272,1.79551c-0.46601,0.44774 -1.08279,0.67161 -1.85033,0.67161zM258.23254,203.62057c-2.1473,0 -4.19408,-0.33352 -6.14035,-1.00054c-1.94627,-0.67617 -3.64126,-1.61733 -5.08498,-2.82347c-1.43458,-1.20614 -2.48996,-2.5996 -3.16612,-4.18037c-0.32895,-0.70358 -0.31981,-1.35691 0.02741,-1.95997c0.35637,-0.60308 0.95487,-0.98685 1.79551,-1.15132c0.60308,-0.13705 1.197,-0.04568 1.7818,0.27412c0.58479,0.3198 1.02797,0.79953 1.32951,1.43915c0.40204,0.83151 1.0645,1.59905 1.98738,2.30264c0.92288,0.70358 2.03765,1.27468 3.3443,1.71327c1.30665,0.4386 2.68183,0.6579 4.12555,0.6579c1.60818,0 3.08845,-0.25128 4.44079,-0.75383c1.36147,-0.50256 2.46254,-1.22899 3.30319,-2.17928c0.84064,-0.95943 1.26097,-2.14273 1.26097,-3.54989c0,-1.7818 -0.69901,-3.37629 -2.09704,-4.78345c-1.38889,-1.40717 -3.67782,-2.27979 -6.86678,-2.61787c-4.1484,-0.40204 -7.41502,-1.62189 -9.79989,-3.65954c-2.37573,-2.04678 -3.56361,-4.58243 -3.56361,-7.60691c0,-2.21125 0.61678,-4.08442 1.85033,-5.6195c1.2427,-1.54423 2.92855,-2.71839 5.05757,-3.52248c2.12902,-0.81323 4.50019,-1.21984 7.1135,-1.21984c2.04678,0 3.83315,0.28783 5.3591,0.86349c1.52594,0.56651 2.85545,1.35234 3.98849,2.35746c1.14218,1.00511 2.1336,2.19755 2.97425,3.57731c0.46601,0.74013 0.65789,1.43913 0.57566,2.09703c-0.08224,0.64876 -0.40661,1.15589 -0.97313,1.52139c-0.63962,0.40204 -1.3295,0.48885 -2.06963,0.26042c-0.73099,-0.23757 -1.2838,-0.67617 -1.65844,-1.3158c-0.52997,-0.96857 -1.1833,-1.78635 -1.95997,-2.45339c-0.76754,-0.67617 -1.67215,-1.20614 -2.71382,-1.58992c-1.04167,-0.39291 -2.26608,-0.58937 -3.67325,-0.58937c-2.47625,-0.02741 -4.55501,0.4386 -6.23629,1.39803c-1.67215,0.95029 -2.50823,2.41227 -2.50823,4.38595c0,1.00511 0.26041,1.96912 0.78125,2.892c0.52084,0.92288 1.4757,1.72241 2.86458,2.39858c1.38889,0.66703 3.38999,1.13305 6.0033,1.39803c3.99306,0.40204 7.10436,1.61732 9.33389,3.64583c2.22954,2.02851 3.3443,4.70122 3.3443,8.0181c0,1.91886 -0.39747,3.58187 -1.19243,4.98904c-0.78582,1.40717 -1.8412,2.59046 -3.16612,3.54991c-1.31579,0.95029 -2.82347,1.66301 -4.52303,2.13815c-1.69042,0.46601 -3.44024,0.69902 -5.24945,0.69902zM289.95549,203.11344c-0.73099,0 -1.34777,-0.25128 -1.85033,-0.75383c-0.50257,-0.50256 -0.75384,-1.1239 -0.75384,-1.86403v-36.65024h5.22205v36.65024c0,0.74013 -0.25127,1.36148 -0.75383,1.86403c-0.50257,0.50256 -1.12391,0.75384 -1.86404,0.75384zM276.48235,168.66987c-0.70358,0 -1.2838,-0.22386 -1.74068,-0.67159c-0.44774,-0.45687 -0.6716,-1.0371 -0.6716,-1.74068c0,-0.70358 0.22387,-1.27923 0.6716,-1.72697c0.45687,-0.45687 1.03709,-0.68531 1.74069,-0.68531h26.90519c0.70358,0 1.27924,0.22844 1.72698,0.68531c0.45687,0.44774 0.6853,1.02339 0.6853,1.72697c0,0.70358 -0.22844,1.2838 -0.6853,1.74069c-0.44774,0.44774 -1.02339,0.67161 -1.72698,0.67161z" fill="#ca6c00" stroke="#ffffff" stroke-width="0" stroke-linecap="square"/><path d="M482.78264,233.39765l-323.77949,0.02674" fill="none" stroke="#ffffff" stroke-width="4" stroke-linecap="round"/><path d="M286.02835,167.4307v-2.34437h7.84982v2.34437z" fill="#ca6c00" stroke="#ffffff" stroke-width="0" stroke-linecap="butt"/><path d="M288.62567,170.57872v-3.67558h2.66653v3.67558z" fill="#ca6c00" stroke="none" stroke-width="0" stroke-linecap="butt"/></g></g></svg>