<svg version="1.1" xmlns="http://www.w3.org/2000/svg" xmlns:xlink="http://www.w3.org/1999/xlink" width="58.78339" height="37.69855" viewBox="0,0,58.78339,37.69855"><defs><linearGradient x1="330.50762" y1="46.81701" x2="330.50512" y2="46.81701" gradientUnits="userSpaceOnUse" id="color-1"><stop offset="0" stop-color="#7a727a"/><stop offset="1" stop-color="#211f21"/></linearGradient></defs><g transform="translate(-199.71545,-159.50787)"><g data-paper-data="{&quot;isPaintingLayer&quot;:true}" fill-rule="nonzero" stroke-linejoin="miter" stroke-miterlimit="10" stroke-dasharray="" stroke-dashoffset="0" style="mix-blend-mode: normal"><path d="M258.49884,159.50787z" fill="url(#color-1)" stroke="none" stroke-width="0" stroke-linecap="butt"/><g stroke-linecap="butt"><path d="M236.53285,183.66153l-19.57118,0.0431l-0.01549,-7.03401l19.57118,-0.0431z" data-paper-data="{&quot;index&quot;:null}" fill="none" stroke="#211f21" stroke-width="18.5"/><path d="M239.40118,180.17286c-0.01307,-5.93705 2.83052,-10.75626 6.35131,-10.76401c3.52079,-0.00775 6.38558,4.79889 6.39866,10.73594c0.01307,5.93705 -2.83052,10.75626 -6.35131,10.76401c-3.52079,0.00775 -6.38558,-4.79889 -6.39866,-10.73594z" data-paper-data="{&quot;index&quot;:null}" fill="#211f21" stroke="#211f21" stroke-width="4"/><path d="M203.60833,180.25043c-0.01307,-5.93705 1.93508,-10.75429 4.35132,-10.75961c2.41624,-0.00532 4.3856,4.80329 4.39867,10.74034c0.01307,5.93705 -1.93508,10.75429 -4.35133,10.75961c-2.41624,0.00532 -4.38559,-4.80329 -4.39866,-10.74034z" data-paper-data="{&quot;index&quot;:null}" fill="#211f21" stroke="#211f21" stroke-width="4"/><path d="M235.97417,167.31981c0.00525,2.38485 0.47271,2.04441 -0.63185,2.04685c-1.10457,0.00243 -3.36288,0.34683 -3.36814,-2.03804c-0.00525,-2.38485 -0.02277,-4.13632 1.0818,-4.13875c1.10457,-0.00243 2.91294,1.74508 2.91819,4.12994z" fill="#211f21" stroke="none" stroke-width="0"/><path d="M233.13089,197.20642c-1.10457,0.00243 -1.09476,-1.74909 -1.10002,-4.13396c-0.00525,-2.38485 2.25456,-2.05042 3.35913,-2.05285c1.10457,-0.00243 0.63561,-0.34081 0.64086,2.04404c0.00525,2.38485 -1.79541,4.14033 -2.89997,4.14277z" data-paper-data="{&quot;index&quot;:null}" fill="#211f21" stroke="none" stroke-width="0"/><path d="M205.4417,180.10344c-0.01077,-4.89253 1.59464,-8.86226 3.58578,-8.86664c1.99114,-0.00439 3.61403,3.95824 3.6248,8.85077c0.01077,4.89253 -1.59464,8.86226 -3.58579,8.86665c-1.99114,0.00439 -3.61402,-3.95824 -3.62479,-8.85077z" data-paper-data="{&quot;index&quot;:null}" fill="#ffffff" stroke="#ffffff" stroke-width="4"/><path d="M239.80206,180.12337c-0.01077,-4.89253 2.33254,-8.86389 5.23391,-8.87027c2.90137,-0.00638 5.26214,3.95461 5.27292,8.84714c0.01077,4.89253 -2.33254,8.86389 -5.2339,8.87027c-2.90137,0.00638 -5.26215,-3.95461 -5.27293,-8.84714z" data-paper-data="{&quot;index&quot;:null}" fill="#ffffff" stroke="#ffffff" stroke-width="4"/><path d="M236.15788,181.73023l-18.02419,0.0204l-0.01427,-3.32998l18.02419,-0.0204z" data-paper-data="{&quot;index&quot;:null}" fill="#ffffff" stroke="#ffffff" stroke-width="18.5"/></g><path d="M252.36644,180.43509l-0.14598,2.04369h-8.46674v-2.04369z" data-paper-data="{&quot;index&quot;:null}" fill="#ff2e55" stroke="none" stroke-width="0" stroke-linecap="butt"/><path d="M243.71698,179.52248v-2.0437h8.46674l0.14598,2.0437z" fill="#0098ff" stroke="none" stroke-width="0" stroke-linecap="butt"/><path d="M214.0834,188.42716c0,0 -1.89772,-0.82522 -1.89772,-1.89772c0,-3.42512 -0.14598,-10.42306 -0.14598,-12.55414c0,-1.1138 1.75174,-2.04369 1.75174,-2.04369l18.24729,-0.29196c0,0 6.25618,-0.65485 9.78054,2.91957c1.65469,1.67819 2.30199,2.14825 2.45962,5.25552c-0.13119,3.03476 -0.76506,3.75007 -2.23873,5.55109c-2.9837,3.64649 -9.56349,3.20731 -9.56349,3.20731z" fill="#211f21" stroke="none" stroke-width="NaN" stroke-linecap="butt"/><path d="M213.65028,187.10977c0,0 -1.59697,-0.69445 -1.59697,-1.59697c0,-2.88231 -0.12284,-8.77122 -0.12284,-10.56457c0,-0.93728 1.47412,-1.71981 1.47412,-1.71981l15.35547,-0.24569c0,0 5.26471,-0.55107 8.23054,2.45687c1.39245,1.41223 1.93717,1.8078 2.06982,4.42263c-0.1104,2.55382 -0.64381,3.15576 -1.88394,4.67136c-2.51085,3.06859 -8.04788,2.69902 -8.04788,2.69902z" fill="#ffffff" stroke="none" stroke-width="NaN" stroke-linecap="butt"/><path d="M212.03971,183.90183v-7.44489l2.04369,-1.02185v9.48859z" fill="#211f21" stroke="none" stroke-width="0" stroke-linecap="butt"/><path d="M247.6584,173.17243c0,-1.65274 1.33981,-2.99255 2.99255,-2.99255c1.03055,0 0.62562,1.25081 1.16388,2.0437c0.32497,0.4787 0.66084,1.05655 0.66084,1.67874c0,1.65274 -0.17199,2.26266 -1.82473,2.26266c-1.65274,0 -2.99255,-1.33981 -2.99255,-2.99255z" fill="#211f21" stroke="none" stroke-width="0" stroke-linecap="butt"/><path d="M247.84111,186.93113c0,-1.65274 1.33981,-2.99255 2.99255,-2.99255c1.65274,0 1.82473,0.60992 1.82473,2.26266c0,0.62219 -0.33587,1.20004 -0.66084,1.67874c-0.53826,0.79289 -0.13333,2.0437 -1.16388,2.0437c-1.65274,0 -2.99255,-1.33981 -2.99255,-2.99255z" data-paper-data="{&quot;index&quot;:null}" fill="#211f21" stroke="none" stroke-width="0" stroke-linecap="butt"/><g fill="#ff2e55" stroke="none" stroke-width="0" stroke-linecap="butt"><path d="M228.76608,175.60922l2.12687,0.01183l-0.02323,4.17496l-2.12687,-0.01183z"/><path d="M224.49241,175.60527l2.12687,0.01183l-0.02322,4.17496l-2.12687,-0.01183z"/><path d="M220.29752,175.60176l2.12686,0.01183l-0.02323,4.17496l-2.12687,-0.01183z"/><path d="M226.56044,175.59695l2.20563,0.01227l-0.01227,2.20564l-2.20564,-0.01227z"/><path d="M222.35459,177.56276l2.20564,0.01227l-0.01227,2.20564l-2.20564,-0.01227z"/></g><g fill="#0098ff" stroke="none" stroke-width="0" stroke-linecap="butt"><path d="M228.65684,180.31726l2.12687,0.01183l-0.02323,4.17496l-2.12687,-0.01183z"/><path d="M224.38317,180.31331l2.12687,0.01183l-0.02322,4.17496l-2.12687,-0.01183z"/><path d="M220.18828,180.3098l2.12686,0.01183l-0.02323,4.17496l-2.12687,-0.01183z"/><path d="M226.4512,180.30499l2.20563,0.01227l-0.01227,2.20564l-2.20564,-0.01227z"/><path d="M222.24535,182.2708l2.20564,0.01228l-0.01227,2.20564l-2.20564,-0.01227z"/></g><path d="M203.46371,179.41324l0.06186,-2.0437h3.5876v2.0437z" data-paper-data="{&quot;index&quot;:null}" fill="#0098ff" stroke="none" stroke-width="0" stroke-linecap="butt"/><path d="M207.14991,180.47183v2.0437h-3.73111l-0.06433,-2.0437z" data-paper-data="{&quot;index&quot;:null}" fill="#ff2e55" stroke="none" stroke-width="0" stroke-linecap="butt"/><path d="M210.28795,179.88743c0,2.86207 -0.7516,5.18223 -1.67875,5.18223c-0.92715,0 -1.67875,-2.32016 -1.67875,-5.18223c0,-2.86207 0.7516,-5.18223 1.67875,-5.18223c0.92715,0 1.67875,2.32016 1.67875,5.18223z" fill="#ffffff" stroke="none" stroke-width="0" stroke-linecap="butt"/><path d="M206.34654,173.24542l-2.18967,2.33565" fill="none" stroke="#211f21" stroke-width="1.5" stroke-linecap="round"/><path d="M204.1936,183.93857l2.18967,2.33565" data-paper-data="{&quot;index&quot;:null}" fill="none" stroke="#211f21" stroke-width="1.5" stroke-linecap="round"/><path d="M200.33405,189.44916c-0.0357,-4.26236 -0.1186,-15.84773 -0.1186,-17.95549c0,-0.82011 5.18615,-0.88306 5.19256,-0.00065c0.0121,1.6661 -0.00274,13.62772 -0.0096,17.95586c-0.00185,1.16865 -5.05457,1.16975 -5.06437,0.00028z" fill="#655f65" stroke="#211f21" stroke-width="1" stroke-linecap="butt"/></g></g></svg>