<svg version="1.1" xmlns="http://www.w3.org/2000/svg" xmlns:xlink="http://www.w3.org/1999/xlink" width="720" height="540" viewBox="0,0,720,540"><defs><clipPath id="clip-1"><path d="M-120,450v-540h720v540z" fill="none" fill-rule="nonzero" stroke-linecap="butt"/></clipPath></defs><g transform="translate(120,90)"><g clip-path="url(#clip-1)" data-paper-data="{&quot;isPaintingLayer&quot;:true}" stroke="none" stroke-width="1" stroke-linejoin="miter" stroke-miterlimit="10" stroke-dasharray="" stroke-dashoffset="0" style="mix-blend-mode: normal"><path d="M-240,-180h960v720h-960z" fill-opacity="0" fill="#000000" fill-rule="evenodd" stroke-linecap="square"/><path d="M139.70756,187.28119c-0.19792,0 -0.36979,-0.06771 -0.51562,-0.20312c-0.13542,-0.14583 -0.20312,-0.32292 -0.20312,-0.53125v-13.84375h1.45313v13.84375c0,0.20833 -0.06771,0.38542 -0.20312,0.53125c-0.13542,0.13542 -0.3125,0.20313 -0.53125,0.20313zM134.56694,174.03119c-0.19792,0 -0.35937,-0.0625 -0.48437,-0.1875c-0.125,-0.125 -0.1875,-0.28125 -0.1875,-0.46875c0,-0.19792 0.0625,-0.35937 0.1875,-0.48437c0.125,-0.125 0.28646,-0.1875 0.48438,-0.1875h10.3125c0.19792,0 0.35938,0.0625 0.48438,0.1875c0.125,0.125 0.1875,0.28646 0.1875,0.48438c0,0.1875 -0.0625,0.34375 -0.1875,0.46875c-0.125,0.125 -0.28646,0.1875 -0.48437,0.1875zM148.42741,187.28119c-0.20833,0 -0.38542,-0.06771 -0.53125,-0.20312c-0.13542,-0.13542 -0.20312,-0.3125 -0.20312,-0.53125v-13.10937c0,-0.20833 0.06771,-0.38021 0.20313,-0.51562c0.14583,-0.14583 0.32292,-0.21875 0.53125,-0.21875c0.20833,0 0.38021,0.07292 0.51563,0.21875c0.14583,0.13542 0.21875,0.30729 0.21875,0.51563v5.82813h9.09375v-5.82812c0,-0.20833 0.06771,-0.38021 0.20313,-0.51562c0.13542,-0.14583 0.3125,-0.21875 0.53125,-0.21875c0.20833,0 0.38021,0.07292 0.51563,0.21875c0.13542,0.13542 0.20313,0.30729 0.20313,0.51563v13.10938c0,0.21875 -0.06771,0.39583 -0.20312,0.53125c-0.13542,0.13542 -0.30729,0.20313 -0.51562,0.20313c-0.21875,0 -0.39583,-0.06771 -0.53125,-0.20312c-0.13542,-0.13542 -0.20312,-0.3125 -0.20312,-0.53125v-5.98437h-9.09375v5.98438c0,0.21875 -0.07292,0.39583 -0.21875,0.53125c-0.13542,0.13542 -0.30729,0.20313 -0.51562,0.20313zM162.64204,187.28119c-0.28125,0 -0.48437,-0.11458 -0.60937,-0.34375c-0.125,-0.23958 -0.14062,-0.47396 -0.04687,-0.70312l5.48438,-13.01562c0.13542,-0.34375 0.375,-0.51562 0.71875,-0.51562c0.32292,0 0.55208,0.17188 0.6875,0.51563l5.5,13.03125c0.11458,0.23958 0.09896,0.47396 -0.04687,0.70313c-0.14583,0.21875 -0.34896,0.32813 -0.60937,0.32813c-0.14583,0 -0.28125,-0.03646 -0.40625,-0.10937c-0.11458,-0.07292 -0.20833,-0.1875 -0.28125,-0.34375l-5.125,-12.4375h0.57813l-5.17187,12.4375c-0.0625,0.15625 -0.15625,0.27083 -0.28125,0.34375c-0.11458,0.07292 -0.24479,0.10938 -0.39062,0.10938zM163.87641,183.81244l0.5625,-1.25h7.5625l0.5625,1.25zM177.28862,187.28119c-0.20833,0 -0.38542,-0.06771 -0.53125,-0.20312c-0.13542,-0.13542 -0.20312,-0.3125 -0.20312,-0.53125v-13.10937c0,-0.20833 0.06771,-0.38021 0.20313,-0.51562c0.14583,-0.14583 0.32292,-0.21875 0.53125,-0.21875c0.21875,0 0.40625,0.08854 0.5625,0.26563l8.92188,11.71875v-11.25c0,-0.20833 0.06771,-0.38021 0.20313,-0.51562c0.13542,-0.14583 0.30729,-0.21875 0.51563,-0.21875c0.19792,0 0.36979,0.07292 0.51563,0.21875c0.14583,0.13542 0.21875,0.30729 0.21875,0.51563v13.10938c0,0.21875 -0.07292,0.39583 -0.21875,0.53125c-0.14583,0.13542 -0.31771,0.20313 -0.51562,0.20313c-0.09375,0 -0.19271,-0.01562 -0.29687,-0.04687c-0.10417,-0.04167 -0.1875,-0.10937 -0.25,-0.20312l-8.92187,-11.70312v11.21875c0,0.21875 -0.07292,0.39583 -0.21875,0.53125c-0.14583,0.13542 -0.31771,0.20313 -0.51562,0.20313zM192.68003,187.28119c-0.19792,0 -0.36979,-0.06771 -0.51562,-0.20312c-0.14583,-0.14583 -0.21875,-0.32292 -0.21875,-0.53125v-13.10937c0,-0.19792 0.07292,-0.36979 0.21875,-0.51562c0.14583,-0.14583 0.31771,-0.21875 0.51563,-0.21875c0.19792,0 0.36979,0.07292 0.51563,0.21875c0.14583,0.14583 0.21875,0.31771 0.21875,0.51563v6.34375l6.79688,-6.8125c0.10417,-0.09375 0.19792,-0.16146 0.28125,-0.20312c0.09375,-0.04167 0.19271,-0.0625 0.29688,-0.0625c0.22917,0 0.39583,0.07292 0.5,0.21875c0.11458,0.13542 0.16667,0.30208 0.15625,0.5c0,0.1875 -0.07292,0.36458 -0.21875,0.53125l-5.10937,5.125l5.15625,7.04688c0.11458,0.15625 0.16146,0.32813 0.14063,0.51563c-0.01042,0.17708 -0.07812,0.32813 -0.20312,0.45313c-0.125,0.125 -0.27604,0.1875 -0.45312,0.1875c-0.27083,0 -0.47396,-0.10417 -0.60937,-0.3125l-5.07812,-6.875l-1.65625,1.6875v4.76563c0,0.20833 -0.07292,0.38542 -0.21875,0.53125c-0.14583,0.13542 -0.31771,0.20313 -0.51562,0.20313zM208.08988,187.46869c-0.79167,0 -1.53125,-0.11458 -2.21875,-0.34375c-0.67708,-0.22917 -1.26562,-0.55208 -1.76562,-0.96875c-0.48958,-0.42708 -0.86458,-0.92187 -1.125,-1.48437c-0.10417,-0.19792 -0.10937,-0.38021 -0.01562,-0.54687c0.09375,-0.17708 0.25521,-0.29167 0.48438,-0.34375c0.16667,-0.05208 0.33333,-0.03646 0.5,0.04688c0.17708,0.08333 0.30729,0.21354 0.39063,0.39063c0.1875,0.36458 0.45833,0.69271 0.8125,0.98438c0.36458,0.28125 0.79688,0.5 1.29688,0.65625c0.5,0.15625 1.04688,0.23438 1.64063,0.23438c0.65625,0 1.23958,-0.10937 1.75,-0.32812c0.51042,-0.21875 0.91146,-0.53646 1.20313,-0.95312c0.29167,-0.41667 0.4375,-0.92708 0.4375,-1.53125c0,-0.75 -0.28125,-1.39583 -0.84375,-1.9375c-0.55208,-0.55208 -1.42708,-0.90625 -2.625,-1.0625c-1.45833,-0.16667 -2.59896,-0.61458 -3.42187,-1.34375c-0.8125,-0.72917 -1.21875,-1.625 -1.21875,-2.6875c0,-0.75 0.19792,-1.40625 0.59375,-1.96875c0.40625,-0.5625 0.96354,-0.99479 1.67188,-1.29687c0.71875,-0.30208 1.53646,-0.45312 2.45313,-0.45312c0.6875,0 1.30729,0.10938 1.85938,0.32813c0.5625,0.20833 1.05208,0.48958 1.46875,0.84375c0.41667,0.35417 0.75521,0.74479 1.01563,1.17188c0.125,0.19792 0.16667,0.39063 0.125,0.57813c-0.04167,0.1875 -0.15104,0.32813 -0.32812,0.42188c-0.1875,0.09375 -0.38021,0.10938 -0.57812,0.04688c-0.1875,-0.0625 -0.32812,-0.18229 -0.42187,-0.35937c-0.1875,-0.28125 -0.42187,-0.54687 -0.70312,-0.79687c-0.28125,-0.26042 -0.625,-0.46354 -1.03125,-0.60937c-0.39583,-0.15625 -0.86979,-0.23958 -1.42187,-0.25c-0.98958,0 -1.78125,0.20833 -2.375,0.625c-0.59375,0.41667 -0.89062,1.02083 -0.89062,1.8125c0,0.42708 0.10938,0.81771 0.32813,1.17188c0.22917,0.35417 0.59896,0.66146 1.10938,0.92188c0.52083,0.25 1.21354,0.4375 2.07813,0.5625c1.5625,0.21875 2.71875,0.69271 3.46875,1.42188c0.75,0.72917 1.125,1.67708 1.125,2.84375c0,0.67708 -0.11979,1.27604 -0.35937,1.79688c-0.23958,0.52083 -0.58333,0.95833 -1.03125,1.3125c-0.4375,0.35417 -0.95312,0.625 -1.54687,0.8125c-0.59375,0.1875 -1.22396,0.28125 -1.89062,0.28125zM221.00035,187.28119c-0.19792,0 -0.36979,-0.06771 -0.51562,-0.20312c-0.14583,-0.14583 -0.21875,-0.32292 -0.21875,-0.53125v-13.10937c0,-0.20833 0.06771,-0.38021 0.20313,-0.51562c0.14583,-0.14583 0.32292,-0.21875 0.53125,-0.21875h8.75c0.20833,0 0.38021,0.06771 0.51563,0.20313c0.13542,0.13542 0.20313,0.30729 0.20313,0.51563c0,0.1875 -0.06771,0.34896 -0.20312,0.48438c-0.13542,0.13542 -0.30729,0.20313 -0.51562,0.20313h-8.01562v5.15625h5.82813c0.21875,0 0.39583,0.06771 0.53125,0.20313c0.13542,0.13542 0.20313,0.30208 0.20313,0.5c0,0.19792 -0.06771,0.36458 -0.20312,0.5c-0.13542,0.13542 -0.3125,0.20313 -0.53125,0.20313h-5.82812v5.875c0,0.20833 -0.07292,0.38542 -0.21875,0.53125c-0.13542,0.13542 -0.30729,0.20313 -0.51562,0.20313zM239.81675,187.46869c-1.07292,0 -2.06771,-0.1875 -2.98437,-0.5625c-0.90625,-0.375 -1.69271,-0.89583 -2.35937,-1.5625c-0.66667,-0.67708 -1.18229,-1.46875 -1.54687,-2.375c-0.36458,-0.90625 -0.54687,-1.90104 -0.54687,-2.98437c0,-1.07292 0.18229,-2.0625 0.54688,-2.96875c0.36458,-0.90625 0.88021,-1.69271 1.54688,-2.35937c0.66667,-0.67708 1.45313,-1.19792 2.35938,-1.5625c0.91667,-0.375 1.91146,-0.5625 2.98438,-0.5625c1.07292,0 2.0625,0.1875 2.96875,0.5625c0.90625,0.36458 1.69271,0.88542 2.35938,1.5625c0.67708,0.66667 1.19792,1.45313 1.5625,2.35938c0.375,0.90625 0.5625,1.89583 0.5625,2.96875c0,1.08333 -0.1875,2.07813 -0.5625,2.98438c-0.36458,0.90625 -0.88542,1.69792 -1.5625,2.375c-0.66667,0.66667 -1.45312,1.1875 -2.35937,1.5625c-0.90625,0.375 -1.89583,0.5625 -2.96875,0.5625zM239.81675,186.09369c0.86458,0 1.66146,-0.15104 2.39063,-0.45312c0.73958,-0.3125 1.38021,-0.74479 1.92188,-1.29687c0.54167,-0.55208 0.95833,-1.19792 1.25,-1.9375c0.30208,-0.73958 0.45313,-1.54687 0.45313,-2.42187c0,-0.85417 -0.15104,-1.65104 -0.45312,-2.39062c-0.29167,-0.73958 -0.70833,-1.38542 -1.25,-1.9375c-0.54167,-0.5625 -1.18229,-0.99479 -1.92187,-1.29687c-0.72917,-0.30208 -1.52604,-0.45312 -2.39062,-0.45312c-0.86458,0 -1.66667,0.15104 -2.40625,0.45313c-0.72917,0.30208 -1.36458,0.73438 -1.90625,1.29688c-0.54167,0.55208 -0.96354,1.19792 -1.26562,1.9375c-0.29167,0.73958 -0.4375,1.53646 -0.4375,2.39063c0,0.875 0.14583,1.68229 0.4375,2.42188c0.30208,0.73958 0.72396,1.38542 1.26563,1.9375c0.54167,0.55208 1.17708,0.98438 1.90625,1.29688c0.73958,0.30208 1.54167,0.45313 2.40625,0.45313zM250.99916,187.28119c-0.20833,0 -0.38542,-0.06771 -0.53125,-0.20312c-0.13542,-0.13542 -0.20312,-0.3125 -0.20312,-0.53125v-13.10937c0,-0.20833 0.06771,-0.38021 0.20313,-0.51562c0.14583,-0.14583 0.32292,-0.21875 0.53125,-0.21875h3.48438c0.90625,0 1.71354,0.19271 2.42187,0.57813c0.71875,0.375 1.27604,0.90104 1.67188,1.57813c0.40625,0.67708 0.60938,1.45833 0.60938,2.34375c0,0.84375 -0.20312,1.59896 -0.60937,2.26563c-0.39583,0.65625 -0.95312,1.17188 -1.67187,1.54688c-0.70833,0.375 -1.51562,0.5625 -2.42187,0.5625h-2.75v4.96875c0,0.21875 -0.07292,0.39583 -0.21875,0.53125c-0.13542,0.13542 -0.30729,0.20313 -0.51562,0.20313zM258.79603,187.28119c-0.15625,0 -0.28125,-0.03125 -0.375,-0.09375c-0.09375,-0.0625 -0.18229,-0.15625 -0.26562,-0.28125l-3.57812,-5.70312l1.45313,-0.375l3.34375,5.32813c0.1875,0.30208 0.21875,0.56771 0.09375,0.79688c-0.11458,0.21875 -0.33854,0.32813 -0.67187,0.32813zM251.73353,180.17181h2.75c0.63542,0 1.19792,-0.125 1.6875,-0.375c0.48958,-0.26042 0.875,-0.61458 1.15625,-1.0625c0.29167,-0.44792 0.4375,-0.95833 0.4375,-1.53125c0,-0.60417 -0.14583,-1.14062 -0.4375,-1.60937c-0.28125,-0.46875 -0.66667,-0.83333 -1.15625,-1.09375c-0.48958,-0.26042 -1.05208,-0.39062 -1.6875,-0.39062h-2.75zM267.99501,187.28119c-0.20833,0 -0.38542,-0.06771 -0.53125,-0.20312c-0.13542,-0.13542 -0.20312,-0.3125 -0.20312,-0.53125v-13.10937c0,-0.20833 0.06771,-0.38021 0.20313,-0.51562c0.14583,-0.14583 0.32292,-0.21875 0.53125,-0.21875h3.73438c0.91667,0 1.72917,0.20313 2.4375,0.60938c0.70833,0.40625 1.26042,0.96354 1.65625,1.67188c0.40625,0.70833 0.60938,1.53125 0.60938,2.46875c0,0.90625 -0.20312,1.71354 -0.60937,2.42188c-0.39583,0.69792 -0.94792,1.25 -1.65625,1.65625c-0.70833,0.39583 -1.52083,0.59375 -2.4375,0.59375h-3v4.42188c0,0.21875 -0.07292,0.39583 -0.21875,0.53125c-0.13542,0.13542 -0.30729,0.20313 -0.51562,0.20313zM268.72938,180.73431h3c0.63542,0 1.19792,-0.14062 1.6875,-0.42187c0.5,-0.28125 0.89063,-0.66667 1.17188,-1.15625c0.28125,-0.5 0.42188,-1.06771 0.42188,-1.70312c0,-0.66667 -0.14062,-1.24479 -0.42187,-1.73437c-0.28125,-0.5 -0.67187,-0.89062 -1.17187,-1.17187c-0.48958,-0.29167 -1.05208,-0.4375 -1.6875,-0.4375h-3zM279.41264,187.28119c-0.19792,0 -0.36979,-0.06771 -0.51562,-0.20312c-0.14583,-0.13542 -0.21875,-0.3125 -0.21875,-0.53125v-13.10937c0,-0.19792 0.07292,-0.36979 0.21875,-0.51562c0.14583,-0.14583 0.31771,-0.21875 0.51563,-0.21875c0.19792,0 0.36979,0.07292 0.51563,0.21875c0.14583,0.14583 0.21875,0.31771 0.21875,0.51563v12.46875h7.28125c0.19792,0 0.36979,0.06771 0.51563,0.20313c0.14583,0.125 0.21875,0.28646 0.21875,0.48438c0,0.19792 -0.07292,0.36458 -0.21875,0.5c-0.14583,0.125 -0.31771,0.1875 -0.51562,0.1875zM289.69078,187.28119c-0.28125,0 -0.48437,-0.11458 -0.60937,-0.34375c-0.125,-0.23958 -0.14062,-0.47396 -0.04687,-0.70312l5.48438,-13.01562c0.13542,-0.34375 0.375,-0.51562 0.71875,-0.51562c0.32292,0 0.55208,0.17188 0.6875,0.51563l5.5,13.03125c0.11458,0.23958 0.09896,0.47396 -0.04687,0.70313c-0.14583,0.21875 -0.34896,0.32813 -0.60937,0.32813c-0.14583,0 -0.28125,-0.03646 -0.40625,-0.10937c-0.11458,-0.07292 -0.20833,-0.1875 -0.28125,-0.34375l-5.125,-12.4375h0.57813l-5.17187,12.4375c-0.0625,0.15625 -0.15625,0.27083 -0.28125,0.34375c-0.11458,0.07292 -0.24479,0.10938 -0.39062,0.10938zM290.92515,183.81244l0.5625,-1.25h7.5625l0.5625,1.25zM306.29713,187.28119c-0.19792,0 -0.36979,-0.06771 -0.51562,-0.20312c-0.14583,-0.14583 -0.21875,-0.32292 -0.21875,-0.53125v-4.65625l-5.06247,-8.04687c-0.125,-0.1875 -0.17187,-0.36458 -0.14062,-0.53125c0.03125,-0.17708 0.10417,-0.32292 0.21875,-0.4375c0.125,-0.11458 0.28125,-0.17187 0.46875,-0.17187c0.15625,0 0.28125,0.03125 0.375,0.09375c0.09375,0.0625 0.17708,0.15104 0.25,0.26563l5.03122,8.125h-0.78125l5.01563,-8.07812c0.09375,-0.14583 0.19271,-0.25 0.29688,-0.3125c0.10417,-0.0625 0.22917,-0.09375 0.375,-0.09375c0.17708,0 0.32292,0.0625 0.4375,0.1875c0.125,0.11458 0.19271,0.26042 0.20313,0.4375c0.02083,0.17708 -0.02604,0.34896 -0.14062,0.51563l-5.09375,8.04688v4.65625c0,0.20833 -0.07292,0.38542 -0.21875,0.53125c-0.13542,0.13542 -0.30208,0.20313 -0.5,0.20313zM314.9333,187.28119c-0.20833,0 -0.38542,-0.06771 -0.53125,-0.20312c-0.13542,-0.13542 -0.20312,-0.3125 -0.20312,-0.53125v-13.10937c0,-0.20833 0.06771,-0.38021 0.20313,-0.51562c0.14583,-0.14583 0.32292,-0.21875 0.53125,-0.21875c0.20833,0 0.38021,0.07292 0.51563,0.21875c0.14583,0.13542 0.21875,0.30729 0.21875,0.51563v13.10938c0,0.21875 -0.07292,0.39583 -0.21875,0.53125c-0.13542,0.13542 -0.30729,0.20313 -0.51562,0.20313zM320.1197,187.28119c-0.20833,0 -0.38542,-0.06771 -0.53125,-0.20312c-0.13542,-0.13542 -0.20312,-0.3125 -0.20312,-0.53125v-13.10937c0,-0.20833 0.06771,-0.38021 0.20313,-0.51562c0.14583,-0.14583 0.32292,-0.21875 0.53125,-0.21875c0.21875,0 0.40625,0.08854 0.5625,0.26563l8.92188,11.71875v-11.25c0,-0.20833 0.06771,-0.38021 0.20313,-0.51562c0.13542,-0.14583 0.30729,-0.21875 0.51563,-0.21875c0.19792,0 0.36979,0.07292 0.51563,0.21875c0.14583,0.13542 0.21875,0.30729 0.21875,0.51563v13.10938c0,0.21875 -0.07292,0.39583 -0.21875,0.53125c-0.14583,0.13542 -0.31771,0.20313 -0.51562,0.20313c-0.09375,0 -0.19271,-0.01562 -0.29687,-0.04687c-0.10417,-0.04167 -0.1875,-0.10937 -0.25,-0.20312l-8.92187,-11.70312v11.21875c0,0.21875 -0.07292,0.39583 -0.21875,0.53125c-0.14583,0.13542 -0.31771,0.20313 -0.51562,0.20313zM341.32362,187.46869c-1,0 -1.94271,-0.19271 -2.82812,-0.57812c-0.875,-0.38542 -1.64583,-0.92187 -2.3125,-1.60937c-0.65625,-0.69792 -1.17187,-1.49479 -1.54687,-2.39062c-0.375,-0.90625 -0.5625,-1.875 -0.5625,-2.90625c0,-1.02083 0.18229,-1.97917 0.54688,-2.875c0.36458,-0.90625 0.88021,-1.69792 1.54688,-2.375c0.66667,-0.6875 1.4375,-1.22396 2.3125,-1.60937c0.88542,-0.39583 1.83333,-0.59375 2.84375,-0.59375c0.89583,0 1.70833,0.13021 2.4375,0.39063c0.73958,0.26042 1.45313,0.67708 2.14063,1.25c0.11458,0.08333 0.17708,0.1875 0.1875,0.3125c0.02083,0.11458 0.00521,0.22396 -0.04687,0.32813c-0.04167,0.10417 -0.11458,0.18229 -0.21875,0.23438c-0.02083,0.09375 -0.08333,0.16667 -0.1875,0.21875c-0.09375,0.05208 -0.20833,0.07292 -0.34375,0.0625c-0.125,-0.02083 -0.25,-0.07812 -0.375,-0.17187c-0.48958,-0.42708 -1.02083,-0.73958 -1.59375,-0.9375c-0.57292,-0.20833 -1.23958,-0.3125 -2,-0.3125c-0.80208,0 -1.55729,0.16146 -2.26562,0.48438c-0.69792,0.32292 -1.31771,0.76563 -1.85937,1.32813c-0.53125,0.55208 -0.94792,1.19792 -1.25,1.9375c-0.30208,0.72917 -0.45312,1.50521 -0.45312,2.32813c0,0.84375 0.15104,1.63542 0.45313,2.375c0.30208,0.72917 0.71875,1.375 1.25,1.9375c0.54167,0.5625 1.16146,1.00521 1.85938,1.32813c0.70833,0.3125 1.46354,0.46875 2.26563,0.46875c0.6875,0 1.33333,-0.10937 1.9375,-0.32812c0.61458,-0.22917 1.19792,-0.55729 1.75,-0.98437c0.14583,-0.125 0.30208,-0.17187 0.46875,-0.14062c0.16667,0.02083 0.3125,0.09375 0.4375,0.21875c0.125,0.125 0.1875,0.28646 0.1875,0.48438c0,0.09375 -0.01562,0.18229 -0.04687,0.26563c-0.02083,0.08333 -0.07292,0.16667 -0.15625,0.25c-0.63542,0.58333 -1.34375,1 -2.125,1.25c-0.78125,0.23958 -1.59896,0.35938 -2.45312,0.35938zM346.10487,185.34369l-1.42187,-0.29687v-3.75h-2.90625c-0.20833,0 -0.38021,-0.0625 -0.51562,-0.1875c-0.13542,-0.125 -0.20312,-0.28125 -0.20312,-0.46875c0,-0.1875 0.06771,-0.33854 0.20313,-0.45312c0.13542,-0.125 0.30729,-0.1875 0.51563,-0.1875h3.60938c0.20833,0 0.38021,0.06771 0.51563,0.20313c0.13542,0.125 0.20313,0.29688 0.20313,0.51563z" fill="#000000" fill-rule="nonzero" stroke-linecap="square"/></g></g></svg>