<svg version="1.1" xmlns="http://www.w3.org/2000/svg" xmlns:xlink="http://www.w3.org/1999/xlink" width="960" height="720" viewBox="0,0,960,720"><g transform="translate(240,180)"><g data-paper-data="{&quot;isPaintingLayer&quot;:true}" stroke="none" stroke-width="1" stroke-linecap="square" stroke-linejoin="miter" stroke-miterlimit="10" stroke-dasharray="" stroke-dashoffset="0" style="mix-blend-mode: normal"><path d="M-240,-180h960v720h-960z" fill-opacity="0" fill="#000000" fill-rule="evenodd"/><path d="M153.84163,185.10935c-0.20834,0 -0.38541,-0.06771 -0.53125,-0.20312c-0.13541,-0.13541 -0.20312,-0.3125 -0.20312,-0.53125v-13.10937c0,-0.20834 0.06771,-0.38021 0.20313,-0.51562c0.14584,-0.14584 0.32291,-0.21875 0.53125,-0.21875h8.75c0.19791,0 0.36979,0.06771 0.51563,0.20313c0.14584,0.13541 0.21875,0.30729 0.21875,0.51563c0,0.1875 -0.07291,0.34896 -0.21875,0.48438c-0.14584,0.13541 -0.31771,0.20313 -0.51562,0.20313h-8.01562v5.15625h5.82813c0.21875,0 0.39584,0.06771 0.53125,0.20313c0.13541,0.13541 0.20313,0.30209 0.20313,0.5c0,0.19791 -0.06771,0.36459 -0.20312,0.5c-0.13541,0.13541 -0.3125,0.20313 -0.53125,0.20313h-5.82812v5.20313h8.01563c0.19791,0 0.36979,0.07291 0.51563,0.21875c0.14584,0.13541 0.21875,0.29688 0.21875,0.48438c0,0.20834 -0.07291,0.38021 -0.21875,0.51563c-0.14584,0.125 -0.31771,0.1875 -0.51562,0.1875zM172.41051,185.10935c-0.15625,0 -0.28125,-0.02604 -0.375,-0.07812c-0.09375,-0.05209 -0.1875,-0.13541 -0.28125,-0.25l-3.23437,-4.10937l-0.5625,-0.48437l-3.23437,-4.125c-0.13541,-0.16666 -0.20312,-0.33334 -0.20312,-0.5c0.01041,-0.17709 0.06771,-0.32812 0.17188,-0.45312c0.11459,-0.13541 0.27604,-0.20312 0.48438,-0.20312c0.21875,0 0.40104,0.07291 0.54688,0.21875l3.14063,4.01563l0.5,0.40625l3.46875,4.4375c0.16666,0.19791 0.23438,0.38541 0.20313,0.5625c-0.02084,0.17709 -0.09896,0.31771 -0.23437,0.42188c-0.125,0.09375 -0.25521,0.14063 -0.39062,0.14063zM165.01989,185.10935c-0.19791,0 -0.35937,-0.0625 -0.48437,-0.1875c-0.11459,-0.125 -0.17709,-0.27084 -0.1875,-0.4375c0,-0.17709 0.06771,-0.34896 0.20313,-0.51562l3.4375,-4.28125l0.79688,1.0625l-3.26562,4.14063c-0.11459,0.14584 -0.28125,0.21875 -0.5,0.21875zM169.37926,180.2656l-0.90625,-0.9375l3.21875,-4.09375c0.09375,-0.125 0.19271,-0.20834 0.29688,-0.25c0.10416,-0.05209 0.21354,-0.07812 0.32813,-0.07812c0.20834,0 0.36459,0.06771 0.46875,0.20313c0.11459,0.125 0.16666,0.28125 0.15625,0.46875c0,0.17709 -0.0625,0.34375 -0.1875,0.5zM176.22789,189.46872c-0.21875,0 -0.39584,-0.06771 -0.53125,-0.20312c-0.13541,-0.125 -0.20312,-0.29687 -0.20312,-0.51562v-8.8125c0.02084,-0.96875 0.25521,-1.83854 0.70313,-2.60937c0.45834,-0.78125 1.07291,-1.39584 1.84375,-1.84375c0.78125,-0.44791 1.65625,-0.67187 2.625,-0.67187c1,0 1.89063,0.22916 2.67188,0.6875c0.78125,0.44791 1.39584,1.06771 1.84375,1.85938c0.45834,0.78125 0.6875,1.66666 0.6875,2.65625c0,0.97916 -0.21875,1.86459 -0.65625,2.65625c-0.4375,0.78125 -1.03646,1.40104 -1.79687,1.85938c-0.76041,0.44791 -1.61979,0.67188 -2.57812,0.67188c-0.83334,0 -1.58854,-0.17709 -2.26562,-0.53125c-0.67709,-0.35416 -1.22396,-0.82291 -1.64062,-1.40625v5.48438c0,0.21875 -0.06771,0.39063 -0.20312,0.51563c-0.125,0.13541 -0.29166,0.20313 -0.5,0.20313zM180.66539,183.8906c0.71875,0 1.36459,-0.16666 1.9375,-0.5c0.57291,-0.33334 1.02604,-0.79687 1.35938,-1.39062c0.33334,-0.59375 0.5,-1.25521 0.5,-1.98437c0,-0.75 -0.16666,-1.41666 -0.5,-2c-0.33334,-0.58334 -0.78646,-1.04687 -1.35937,-1.39062c-0.57291,-0.34375 -1.21875,-0.51562 -1.9375,-0.51562c-0.70834,0 -1.34896,0.17188 -1.92187,0.51563c-0.57291,0.34375 -1.02084,0.80729 -1.34375,1.39063c-0.32291,0.58334 -0.48437,1.25 -0.48437,2c0,0.72916 0.16146,1.39063 0.48438,1.98438c0.32291,0.59375 0.77084,1.05729 1.34375,1.39063c0.57291,0.33334 1.21354,0.5 1.92188,0.5zM193.32412,185.2031c-1.01041,0 -1.90625,-0.21875 -2.6875,-0.65625c-0.77084,-0.44791 -1.38021,-1.0625 -1.82812,-1.84375c-0.4375,-0.78125 -0.65625,-1.67709 -0.65625,-2.6875c0,-1.02084 0.20834,-1.91666 0.625,-2.6875c0.41666,-0.78125 0.98959,-1.39584 1.71875,-1.84375c0.73959,-0.44791 1.58854,-0.67187 2.54688,-0.67187c0.9375,0 1.75521,0.21354 2.45313,0.64063c0.70834,0.42709 1.25521,1.02084 1.64063,1.78125c0.38541,0.76041 0.57813,1.625 0.57813,2.59375c0,0.19791 -0.0625,0.35938 -0.1875,0.48438c-0.125,0.11459 -0.28646,0.17188 -0.48437,0.17188h-7.92187v-1.20312h8.07813l-0.79687,0.57813c0.01041,-0.71875 -0.125,-1.36459 -0.40625,-1.9375c-0.27084,-0.57291 -0.65625,-1.02084 -1.15625,-1.34375c-0.5,-0.32291 -1.09896,-0.48437 -1.79687,-0.48437c-0.70834,0 -1.33334,0.17188 -1.875,0.51563c-0.53125,0.33334 -0.94271,0.79688 -1.23437,1.39063c-0.29166,0.58334 -0.4375,1.25521 -0.4375,2.01563c0,0.76041 0.16146,1.43229 0.48438,2.01563c0.33334,0.58334 0.78646,1.04688 1.35938,1.39063c0.57291,0.33334 1.23438,0.5 1.98438,0.5c0.44791,0 0.89584,-0.07812 1.34375,-0.23437c0.45834,-0.15625 0.82291,-0.35416 1.09375,-0.59375c0.13541,-0.11459 0.29166,-0.17187 0.46875,-0.17187c0.17709,-0.01041 0.32291,0.03646 0.4375,0.14063c0.16666,0.14584 0.25,0.30729 0.25,0.48438c0.01041,0.16666 -0.05729,0.3125 -0.20312,0.4375c-0.41666,0.35416 -0.94271,0.64584 -1.57812,0.875c-0.625,0.22916 -1.22916,0.34375 -1.8125,0.34375zM200.74782,178.8281c0.03125,-0.77084 0.22916,-1.45834 0.59375,-2.0625c0.375,-0.61459 0.85416,-1.09375 1.4375,-1.4375c0.59375,-0.35416 1.25,-0.53125 1.96875,-0.53125c0.57291,0 1.01563,0.08334 1.32813,0.25c0.3125,0.15625 0.43229,0.39063 0.35938,0.70313c-0.05209,0.1875 -0.14062,0.3125 -0.26562,0.375c-0.11459,0.05209 -0.25521,0.07291 -0.42187,0.0625c-0.16666,-0.01041 -0.35416,-0.02084 -0.5625,-0.03125c-0.69791,-0.0625 -1.31771,0.01041 -1.85937,0.21875c-0.54166,0.19791 -0.97396,0.51041 -1.29687,0.9375c-0.3125,0.42709 -0.46875,0.93229 -0.46875,1.51563zM200.8572,185.10935c-0.22916,0 -0.40625,-0.0625 -0.53125,-0.1875c-0.125,-0.125 -0.1875,-0.29687 -0.1875,-0.51562v-8.79687c0,-0.21875 0.0625,-0.39062 0.1875,-0.51562c0.125,-0.125 0.30209,-0.1875 0.53125,-0.1875c0.21875,0 0.39063,0.0625 0.51563,0.1875c0.125,0.125 0.1875,0.29688 0.1875,0.51563v8.79688c0,0.21875 -0.0625,0.39063 -0.1875,0.51563c-0.125,0.125 -0.29687,0.1875 -0.51562,0.1875zM212.683,185.10935c-0.65625,0 -1.24479,-0.15625 -1.76562,-0.46875c-0.51042,-0.3125 -0.91667,-0.73959 -1.21875,-1.28125c-0.30208,-0.54166 -0.45312,-1.15625 -0.45312,-1.84375v-9.125c0,-0.21875 0.0625,-0.39584 0.1875,-0.53125c0.13542,-0.13541 0.3125,-0.20312 0.53125,-0.20312c0.20833,0 0.38021,0.06771 0.51563,0.20313c0.13542,0.13541 0.20313,0.3125 0.20313,0.53125v9.125c0,0.625 0.1875,1.14063 0.5625,1.54688c0.375,0.40625 0.85417,0.60938 1.4375,0.60938h0.5c0.19792,0 0.35938,0.06771 0.48438,0.20313c0.125,0.13541 0.1875,0.3125 0.1875,0.53125c0,0.20834 -0.07292,0.38021 -0.21875,0.51563c-0.14583,0.125 -0.33333,0.1875 -0.5625,0.1875zM208.04238,176.53122c-0.1875,0 -0.34375,-0.05729 -0.46875,-0.17187c-0.125,-0.125 -0.1875,-0.27604 -0.1875,-0.45312c0,-0.1875 0.0625,-0.33854 0.1875,-0.45312c0.125,-0.11459 0.28125,-0.17187 0.46875,-0.17187h4.75c0.1875,0 0.34375,0.05729 0.46875,0.17188c0.125,0.11459 0.1875,0.26563 0.1875,0.45313c0,0.17709 -0.0625,0.32813 -0.1875,0.45313c-0.125,0.11459 -0.28125,0.17188 -0.46875,0.17188zM230.39913,185.10935c-0.20833,0 -0.38021,-0.06771 -0.51562,-0.20312c-0.13542,-0.13541 -0.20312,-0.30209 -0.20312,-0.5v-4.85937c0,-0.77084 -0.14583,-1.40104 -0.4375,-1.89062c-0.29167,-0.5 -0.69271,-0.875 -1.20312,-1.125c-0.5,-0.25 -1.06771,-0.375 -1.70312,-0.375c-0.60417,0 -1.15625,0.11979 -1.65625,0.35938c-0.4896,0.22916 -0.88024,0.55209 -1.1719,0.96875c-0.28125,0.40625 -0.42187,0.86979 -0.42187,1.39063h-1.01562c0.02083,-0.78125 0.22917,-1.47916 0.625,-2.09375c0.40625,-0.61459 0.93751,-1.09896 1.59378,-1.45312c0.65625,-0.35416 1.39063,-0.53125 2.20313,-0.53125c0.875,0 1.66146,0.18229 2.35938,0.54688c0.69792,0.36459 1.25,0.90104 1.65625,1.60938c0.40625,0.70834 0.60938,1.57291 0.60938,2.59375v4.85938c0,0.19791 -0.06771,0.36459 -0.20312,0.5c-0.13542,0.13541 -0.30729,0.20313 -0.51562,0.20313zM222.38347,185.10935c-0.21875,0 -0.39583,-0.0625 -0.53125,-0.1875c-0.13542,-0.13541 -0.20312,-0.30729 -0.20312,-0.51562v-8.78125c0,-0.21875 0.06771,-0.39062 0.20313,-0.51562c0.13542,-0.13541 0.3125,-0.20312 0.53125,-0.20312c0.20833,0 0.375,0.06771 0.5,0.20313c0.13542,0.125 0.20313,0.29688 0.20313,0.51563v8.78125c0,0.20834 -0.06771,0.38021 -0.20312,0.51563c-0.125,0.125 -0.29167,0.1875 -0.5,0.1875zM238.77938,185.2031c-0.95833,0 -1.81771,-0.22396 -2.57812,-0.67187c-0.75,-0.45834 -1.34896,-1.07812 -1.79687,-1.85937c-0.4375,-0.79166 -0.65625,-1.67709 -0.65625,-2.65625c0,-0.98959 0.22396,-1.875 0.67188,-2.65625c0.45833,-0.79166 1.07813,-1.41146 1.85938,-1.85937c0.78125,-0.45834 1.66667,-0.6875 2.65625,-0.6875c0.97917,0 1.85417,0.22916 2.625,0.6875c0.78125,0.44791 1.40104,1.06771 1.85938,1.85938c0.45833,0.78125 0.69271,1.66666 0.70313,2.65625l-0.57812,0.45313c0,0.89584 -0.20833,1.70313 -0.625,2.42188c-0.41667,0.70834 -0.98437,1.27084 -1.70312,1.6875c-0.71875,0.41666 -1.53125,0.625 -2.4375,0.625zM238.93563,183.8906c0.71875,0 1.35938,-0.16666 1.92188,-0.5c0.57292,-0.33334 1.02083,-0.79687 1.34375,-1.39062c0.33333,-0.59375 0.5,-1.25521 0.5,-1.98437c0,-0.75 -0.16667,-1.41666 -0.5,-2c-0.32292,-0.58334 -0.77083,-1.04687 -1.34375,-1.39062c-0.5625,-0.34375 -1.20312,-0.51562 -1.92187,-0.51562c-0.70833,0 -1.34896,0.17188 -1.92187,0.51563c-0.57292,0.34375 -1.03125,0.80729 -1.375,1.39063c-0.33333,0.58334 -0.5,1.25 -0.5,2c0,0.72916 0.16667,1.39063 0.5,1.98438c0.34375,0.59375 0.80208,1.05729 1.375,1.39063c0.57292,0.33334 1.21354,0.5 1.92188,0.5zM243.38875,185.10935c-0.20833,0 -0.38021,-0.0625 -0.51562,-0.1875c-0.13542,-0.13541 -0.20312,-0.30729 -0.20312,-0.51562v-3.20312l0.34375,-1.46875l1.10938,0.28125v4.39063c0,0.20834 -0.07292,0.38021 -0.21875,0.51563c-0.13542,0.125 -0.30729,0.1875 -0.51562,0.1875zM249.84969,185.10935c-0.30208,0 -0.52604,-0.16146 -0.67187,-0.48437l-4.14062,-8.78125c-0.07292,-0.16666 -0.08333,-0.32812 -0.03125,-0.48437c0.0625,-0.16666 0.1875,-0.29166 0.375,-0.375c0.17708,-0.09375 0.34375,-0.10937 0.5,-0.04687c0.16667,0.0625 0.29167,0.17709 0.375,0.34375l3.98438,8.59375h-0.76562l3.92188,-8.59375c0.07292,-0.17709 0.19792,-0.29166 0.375,-0.34375c0.17708,-0.0625 0.35417,-0.05729 0.53125,0.01563c0.17708,0.09375 0.29688,0.22396 0.35938,0.39063c0.0625,0.16666 0.05729,0.32291 -0.01562,0.46875l-4.09375,8.8125c-0.14583,0.32291 -0.38021,0.48438 -0.70312,0.48438zM257.69783,185.10935c-0.21875,0 -0.39583,-0.0625 -0.53125,-0.1875c-0.125,-0.13541 -0.1875,-0.31771 -0.1875,-0.54687v-8.75c0,-0.21875 0.0625,-0.39062 0.1875,-0.51562c0.13542,-0.13541 0.3125,-0.20312 0.53125,-0.20312c0.20833,0 0.38021,0.06771 0.51563,0.20313c0.13542,0.125 0.20313,0.29688 0.20313,0.51563v8.75c0,0.22916 -0.06771,0.41146 -0.20312,0.54688c-0.13542,0.125 -0.30729,0.1875 -0.51562,0.1875zM257.76033,172.96872c-0.28125,0 -0.52083,-0.09896 -0.71875,-0.29687c-0.19792,-0.20834 -0.29687,-0.45312 -0.29687,-0.73437c0,-0.3125 0.10417,-0.55729 0.3125,-0.73437c0.20833,-0.17709 0.44792,-0.26562 0.71875,-0.26562c0.26042,0 0.48958,0.08854 0.6875,0.26563c0.20833,0.17709 0.3125,0.42188 0.3125,0.73438c0,0.28125 -0.09896,0.52604 -0.29687,0.73438c-0.19792,0.19791 -0.4375,0.29688 -0.71875,0.29688zM266.55824,185.2031c-0.97917,0 -1.84896,-0.21875 -2.60937,-0.65625c-0.76042,-0.44791 -1.35417,-1.0625 -1.78125,-1.84375c-0.42708,-0.78125 -0.64062,-1.67709 -0.64062,-2.6875c0,-1.02084 0.22396,-1.92187 0.67188,-2.70312c0.44792,-0.78125 1.0625,-1.39062 1.84375,-1.82812c0.78125,-0.44791 1.67188,-0.67187 2.67188,-0.67187c1,0 1.89063,0.22396 2.67188,0.67188c0.78125,0.4375 1.39063,1.04688 1.82813,1.82813c0.44792,0.78125 0.67708,1.68229 0.6875,2.70313l-0.84375,0.45313c0,0.91666 -0.19271,1.73438 -0.57812,2.45313c-0.38542,0.70834 -0.91667,1.26563 -1.59375,1.67188c-0.67708,0.40625 -1.45312,0.60938 -2.32812,0.60938zM266.74574,189.1406c-0.97917,0 -1.84375,-0.1875 -2.59375,-0.5625c-0.73958,-0.36459 -1.35417,-0.85937 -1.84375,-1.48437c-0.13542,-0.15625 -0.19792,-0.32291 -0.1875,-0.5c0.02083,-0.16666 0.11458,-0.30729 0.28125,-0.42187c0.15625,-0.11459 0.33333,-0.15625 0.53125,-0.125c0.20833,0.04166 0.36458,0.14063 0.46875,0.29688c0.36458,0.44791 0.82813,0.80729 1.39063,1.07813c0.57292,0.27084 1.22917,0.40625 1.96875,0.40625c0.69792,0 1.32813,-0.16666 1.89063,-0.5c0.5625,-0.33334 1.00521,-0.80729 1.32813,-1.42187c0.33333,-0.60416 0.5,-1.31771 0.5,-2.14062v-2.82812l0.54688,-1.09375l0.875,0.17188v3.8125c0,1 -0.22396,1.90104 -0.67187,2.70313c-0.44792,0.80209 -1.05729,1.4375 -1.82812,1.90625c-0.77083,0.46875 -1.65625,0.70313 -2.65625,0.70313zM266.71449,183.8906c0.72917,0 1.375,-0.16146 1.9375,-0.48437c0.57292,-0.33334 1.02083,-0.79166 1.34375,-1.375c0.32292,-0.58334 0.48438,-1.25521 0.48438,-2.01562c0,-0.76041 -0.16146,-1.43229 -0.48437,-2.01562c-0.32292,-0.59375 -0.77083,-1.05729 -1.34375,-1.39062c-0.5625,-0.33334 -1.20833,-0.5 -1.9375,-0.5c-0.73958,0 -1.39583,0.16666 -1.96875,0.5c-0.57292,0.33334 -1.02083,0.79688 -1.34375,1.39063c-0.32292,0.58334 -0.48437,1.25521 -0.48437,2.01563c0,0.76041 0.16146,1.43229 0.48438,2.01563c0.32292,0.58334 0.77083,1.04166 1.34375,1.375c0.57292,0.32291 1.22917,0.48438 1.96875,0.48438zM279.1885,185.2031c-0.95833,0 -1.81771,-0.22396 -2.57812,-0.67187c-0.75,-0.45834 -1.34896,-1.07812 -1.79687,-1.85937c-0.4375,-0.79166 -0.65625,-1.67709 -0.65625,-2.65625c0,-0.98959 0.22396,-1.875 0.67188,-2.65625c0.45833,-0.79166 1.07813,-1.41146 1.85938,-1.85937c0.78125,-0.45834 1.66667,-0.6875 2.65625,-0.6875c0.97917,0 1.85417,0.22916 2.625,0.6875c0.78125,0.44791 1.40104,1.06771 1.85938,1.85938c0.45833,0.78125 0.69271,1.66666 0.70313,2.65625l-0.57812,0.45313c0,0.89584 -0.20833,1.70313 -0.625,2.42188c-0.41667,0.70834 -0.98437,1.27084 -1.70312,1.6875c-0.71875,0.41666 -1.53125,0.625 -2.4375,0.625zM279.34475,183.8906c0.71875,0 1.35938,-0.16666 1.92188,-0.5c0.57292,-0.33334 1.02083,-0.79687 1.34375,-1.39062c0.33333,-0.59375 0.5,-1.25521 0.5,-1.98437c0,-0.75 -0.16667,-1.41666 -0.5,-2c-0.32292,-0.58334 -0.77083,-1.04687 -1.34375,-1.39062c-0.5625,-0.34375 -1.20312,-0.51562 -1.92187,-0.51562c-0.70833,0 -1.34896,0.17188 -1.92187,0.51563c-0.57292,0.34375 -1.03125,0.80729 -1.375,1.39063c-0.33333,0.58334 -0.5,1.25 -0.5,2c0,0.72916 0.16667,1.39063 0.5,1.98438c0.34375,0.59375 0.80208,1.05729 1.375,1.39063c0.57292,0.33334 1.21354,0.5 1.92188,0.5zM283.79787,185.10935c-0.20833,0 -0.38021,-0.0625 -0.51562,-0.1875c-0.13542,-0.13541 -0.20312,-0.30729 -0.20312,-0.51562v-3.20312l0.34375,-1.46875l1.10938,0.28125v4.39063c0,0.20834 -0.07292,0.38021 -0.21875,0.51563c-0.13542,0.125 -0.30729,0.1875 -0.51562,0.1875zM291.31881,185.10935c-0.65625,0 -1.24479,-0.15625 -1.76562,-0.46875c-0.51042,-0.3125 -0.91667,-0.73959 -1.21875,-1.28125c-0.30208,-0.54166 -0.45312,-1.15625 -0.45312,-1.84375v-9.125c0,-0.21875 0.0625,-0.39584 0.1875,-0.53125c0.13542,-0.13541 0.3125,-0.20312 0.53125,-0.20312c0.20833,0 0.38021,0.06771 0.51563,0.20313c0.13542,0.13541 0.20313,0.3125 0.20313,0.53125v9.125c0,0.625 0.1875,1.14063 0.5625,1.54688c0.375,0.40625 0.85417,0.60938 1.4375,0.60938h0.5c0.19792,0 0.35938,0.06771 0.48438,0.20313c0.125,0.13541 0.1875,0.3125 0.1875,0.53125c0,0.20834 -0.07292,0.38021 -0.21875,0.51563c-0.14583,0.125 -0.33333,0.1875 -0.5625,0.1875zM286.67818,176.53122c-0.1875,0 -0.34375,-0.05729 -0.46875,-0.17187c-0.125,-0.125 -0.1875,-0.27604 -0.1875,-0.45312c0,-0.1875 0.0625,-0.33854 0.1875,-0.45312c0.125,-0.11459 0.28125,-0.17187 0.46875,-0.17187h4.75c0.1875,0 0.34375,0.05729 0.46875,0.17188c0.125,0.11459 0.1875,0.26563 0.1875,0.45313c0,0.17709 -0.0625,0.32813 -0.1875,0.45313c-0.125,0.11459 -0.28125,0.17188 -0.46875,0.17188zM295.84987,185.10935c-0.21875,0 -0.39583,-0.0625 -0.53125,-0.1875c-0.125,-0.13541 -0.1875,-0.31771 -0.1875,-0.54687v-8.75c0,-0.21875 0.0625,-0.39062 0.1875,-0.51562c0.13542,-0.13541 0.3125,-0.20312 0.53125,-0.20312c0.20833,0 0.38021,0.06771 0.51563,0.20313c0.13542,0.125 0.20313,0.29688 0.20313,0.51563v8.75c0,0.22916 -0.06771,0.41146 -0.20312,0.54688c-0.13542,0.125 -0.30729,0.1875 -0.51562,0.1875zM295.91237,172.96872c-0.28125,0 -0.52083,-0.09896 -0.71875,-0.29687c-0.19792,-0.20834 -0.29687,-0.45312 -0.29687,-0.73437c0,-0.3125 0.10417,-0.55729 0.3125,-0.73437c0.20833,-0.17709 0.44792,-0.26562 0.71875,-0.26562c0.26042,0 0.48958,0.08854 0.6875,0.26563c0.20833,0.17709 0.3125,0.42188 0.3125,0.73438c0,0.28125 -0.09896,0.52604 -0.29687,0.73438c-0.19792,0.19791 -0.4375,0.29688 -0.71875,0.29688zM304.86654,185.2031c-1,0 -1.89062,-0.22396 -2.67187,-0.67187c-0.78125,-0.44791 -1.39583,-1.0625 -1.84375,-1.84375c-0.44792,-0.78125 -0.67187,-1.67187 -0.67187,-2.67187c0,-1.01041 0.22396,-1.90625 0.67188,-2.6875c0.44792,-0.78125 1.0625,-1.39584 1.84375,-1.84375c0.78125,-0.44791 1.67188,-0.67187 2.67188,-0.67187c0.98958,0 1.875,0.22396 2.65625,0.67188c0.78125,0.44791 1.39583,1.0625 1.84375,1.84375c0.44792,0.78125 0.67708,1.67709 0.6875,2.6875c0,1 -0.22917,1.89063 -0.6875,2.67188c-0.44792,0.78125 -1.0625,1.39584 -1.84375,1.84375c-0.78125,0.44791 -1.66667,0.67188 -2.65625,0.67188zM304.86654,183.8906c0.71875,0 1.36458,-0.16666 1.9375,-0.5c0.57292,-0.33334 1.02083,-0.79166 1.34375,-1.375c0.32292,-0.58334 0.48438,-1.25 0.48438,-2c0,-0.75 -0.16146,-1.41666 -0.48437,-2c-0.32292,-0.59375 -0.77083,-1.05729 -1.34375,-1.39062c-0.57292,-0.34375 -1.21875,-0.51562 -1.9375,-0.51562c-0.71875,0 -1.36458,0.17188 -1.9375,0.51563c-0.57292,0.33334 -1.02604,0.79688 -1.35937,1.39063c-0.33333,0.58334 -0.5,1.25 -0.5,2c0,0.75 0.16667,1.41666 0.5,2c0.33333,0.58334 0.78646,1.04166 1.35938,1.375c0.57292,0.33334 1.21875,0.5 1.9375,0.5zM321.59054,185.10935c-0.20833,0 -0.38021,-0.06771 -0.51562,-0.20312c-0.13542,-0.13541 -0.20312,-0.30209 -0.20312,-0.5v-4.85937c0,-0.77084 -0.14583,-1.40104 -0.4375,-1.89062c-0.29167,-0.5 -0.69271,-0.875 -1.20312,-1.125c-0.5,-0.25 -1.06771,-0.375 -1.70312,-0.375c-0.60417,0 -1.15625,0.11979 -1.65625,0.35938c-0.48958,0.22916 -0.88021,0.55209 -1.17187,0.96875c-0.28125,0.40625 -0.42187,0.86979 -0.42187,1.39063h-1.01562c0.02083,-0.78125 0.22917,-1.47916 0.625,-2.09375c0.40625,-0.61459 0.9375,-1.09896 1.59375,-1.45312c0.65625,-0.35416 1.39063,-0.53125 2.20313,-0.53125c0.875,0 1.66146,0.18229 2.35938,0.54688c0.69792,0.36459 1.25,0.90104 1.65625,1.60938c0.40625,0.70834 0.60938,1.57291 0.60938,2.59375v4.85938c0,0.19791 -0.06771,0.36459 -0.20312,0.5c-0.13542,0.13541 -0.30729,0.20313 -0.51562,0.20313zM313.57491,185.10935c-0.21875,0 -0.39583,-0.0625 -0.53125,-0.1875c-0.13542,-0.13541 -0.20312,-0.30729 -0.20312,-0.51562v-8.78125c0,-0.21875 0.06771,-0.39062 0.20313,-0.51562c0.13542,-0.13541 0.3125,-0.20312 0.53125,-0.20312c0.20833,0 0.375,0.06771 0.5,0.20313c0.13542,0.125 0.20313,0.29688 0.20313,0.51563v8.78125c0,0.20834 -0.06771,0.38021 -0.20312,0.51563c-0.125,0.125 -0.29167,0.1875 -0.5,0.1875zM325.8146,185.40622c-0.30208,0 -0.55729,-0.10416 -0.76562,-0.3125c-0.20833,-0.20834 -0.3125,-0.46354 -0.3125,-0.76562c0,-0.3125 0.10417,-0.57291 0.3125,-0.78125c0.21875,-0.21875 0.47396,-0.32812 0.76563,-0.32812c0.30208,0 0.55729,0.10938 0.76563,0.32813c0.20833,0.21875 0.3125,0.47916 0.3125,0.78125c0,0.28125 -0.10417,0.53125 -0.3125,0.75c-0.19792,0.21875 -0.45312,0.32813 -0.76562,0.32813z" fill="#000000" fill-rule="nonzero"/></g></g></svg>