<svg version="1.1" xmlns="http://www.w3.org/2000/svg" xmlns:xlink="http://www.w3.org/1999/xlink" width="701.5381" height="359.38583" viewBox="0,0,701.5381,359.38583"><defs><linearGradient x1="240.00003" y1="153.82815" x2="240.00003" y2="206.17194" gradientUnits="userSpaceOnUse" id="color-1"><stop offset="0" stop-color="#fac400"/><stop offset="1" stop-color="#ffbc00"/></linearGradient></defs><g transform="translate(110.76904,-0.30708)"><g data-paper-data="{&quot;isPaintingLayer&quot;:true}" stroke-linejoin="miter" stroke-miterlimit="10" stroke-dasharray="" stroke-dashoffset="0" style="mix-blend-mode: normal"><path d="M-110.76904,0.30708h701.5381v359.38583h-701.5381z" fill-opacity="0" fill="#000000" fill-rule="evenodd" stroke="none" stroke-width="1" stroke-linecap="square"/><path d="M223.32031,198.34375c-1.19792,-1.47917 -1.79687,-2.80729 -1.79687,-3.98437c0,-1.17708 0.99479,-2.73958 2.98438,-4.6875c1.15625,-1.10417 2.38021,-1.65625 3.67188,-1.65625c1.29167,0 3.09375,1.15625 5.40625,3.46875c0.64583,0.78125 1.56771,1.53125 2.76563,2.25c1.20833,0.71875 2.31771,1.07813 3.32813,1.07813c4.30208,0 6.45312,-1.76042 6.45312,-5.28125c0,-1.0625 -0.58854,-1.94792 -1.76562,-2.65625c-1.17708,-0.71875 -2.64583,-1.23958 -4.40625,-1.5625c-1.75,-0.32292 -3.64583,-0.84375 -5.6875,-1.5625c-2.03125,-0.71875 -3.92708,-1.5625 -5.6875,-2.53125c-1.75,-0.96875 -3.21354,-2.50521 -4.39062,-4.60937c-1.17708,-2.10417 -1.76562,-4.63542 -1.76562,-7.59375c0,-4.0625 1.51042,-7.60937 4.53125,-10.64062c3.03125,-3.03125 7.15625,-4.54687 12.375,-4.54687c2.77083,0 5.30208,0.35938 7.59375,1.07813c2.29167,0.71875 3.875,1.44792 4.75,2.1875l1.73438,1.3125c1.42708,1.34375 2.14063,2.47917 2.14063,3.40625c0,0.91667 -0.55208,2.1875 -1.65625,3.8125c-1.57292,2.3125 -3.19271,3.46875 -4.85937,3.46875c-0.96875,0 -2.16667,-0.46354 -3.59375,-1.39062c-0.14583,-0.09375 -0.41667,-0.32292 -0.8125,-0.6875c-0.38542,-0.375 -0.73958,-0.67708 -1.0625,-0.90625c-0.96875,-0.60417 -2.20833,-0.90625 -3.71875,-0.90625c-1.5,0 -2.74479,0.35938 -3.73437,1.07813c-0.98958,0.71875 -1.48437,1.71354 -1.48437,2.98438c0,1.27083 0.58854,2.30208 1.76563,3.09375c1.17708,0.78125 2.64063,1.3125 4.39063,1.59375c1.76042,0.27083 3.67708,0.69792 5.75,1.28125c2.08333,0.57292 4.00521,1.27604 5.76562,2.10938c1.76042,0.82292 3.22917,2.26563 4.40625,4.32813c1.17708,2.05208 1.76563,4.58333 1.76563,7.59375c0,3 -0.60417,5.64583 -1.8125,7.9375c-1.19792,2.28125 -2.76562,4.04688 -4.70312,5.29688c-3.75,2.44792 -7.75,3.67188 -12,3.67188c-2.16667,0 -4.22396,-0.26562 -6.17187,-0.79687c-1.9375,-0.53125 -3.50521,-1.1875 -4.70312,-1.96875c-2.45833,-1.47917 -4.17187,-2.91146 -5.14062,-4.29687z" fill="#f9ea00" fill-rule="nonzero" stroke="url(#color-1)" stroke-width="6.5" stroke-linecap="square"/><path d="M233.62313,157.56778c0.19204,0.68225 -0.65786,1.51838 -1.89832,1.86755c-1.24046,0.34917 -2.40173,0.07915 -2.59377,-0.60311c-0.19204,-0.68225 0.65787,-1.51838 1.89833,-1.86755c1.24046,-0.34917 2.40173,-0.07914 2.59377,0.60311z" fill="#ffffff" fill-rule="nonzero" stroke="none" stroke-width="0" stroke-linecap="butt"/></g></g></svg>