<svg version="1.1" xmlns="http://www.w3.org/2000/svg" xmlns:xlink="http://www.w3.org/1999/xlink" width="946.31035" height="929.22535" viewBox="0,0,946.31035,929.22535"><defs><linearGradient x1="104.16921" y1="145.62571" x2="101.93303" y2="147.53944" gradientUnits="userSpaceOnUse" id="color-1"><stop offset="0" stop-color="#7a727a"/><stop offset="1" stop-color="#211f21"/></linearGradient><linearGradient x1="110.94852" y1="157.45911" x2="108.12553" y2="158.29197" gradientUnits="userSpaceOnUse" id="color-2"><stop offset="0" stop-color="#7a727a"/><stop offset="1" stop-color="#211f21"/></linearGradient><linearGradient x1="399.50385" y1="110.8975" x2="397.79631" y2="113.29483" gradientUnits="userSpaceOnUse" id="color-3"><stop offset="0" stop-color="#7a727a"/><stop offset="1" stop-color="#211f21"/></linearGradient><linearGradient x1="408.94143" y1="120.74231" x2="406.40331" y2="122.23257" gradientUnits="userSpaceOnUse" id="color-4"><stop offset="0" stop-color="#7a727a"/><stop offset="1" stop-color="#211f21"/></linearGradient><linearGradient x1="179.65335" y1="247.32628" x2="177.70839" y2="249.53535" gradientUnits="userSpaceOnUse" id="color-5"><stop offset="0" stop-color="#7a727a"/><stop offset="1" stop-color="#211f21"/></linearGradient><linearGradient x1="188.02879" y1="258.08919" x2="185.3509" y2="259.31061" gradientUnits="userSpaceOnUse" id="color-6"><stop offset="0" stop-color="#7a727a"/><stop offset="1" stop-color="#211f21"/></linearGradient><linearGradient x1="261.15335" y1="118.32627" x2="259.20839" y2="120.53534" gradientUnits="userSpaceOnUse" id="color-7"><stop offset="0" stop-color="#7a727a"/><stop offset="1" stop-color="#211f21"/></linearGradient><linearGradient x1="269.52878" y1="129.08919" x2="266.85091" y2="130.31061" gradientUnits="userSpaceOnUse" id="color-8"><stop offset="0" stop-color="#7a727a"/><stop offset="1" stop-color="#211f21"/></linearGradient><linearGradient x1="237.22605" y1="8.83673" x2="237.22409" y2="8.83827" gradientUnits="userSpaceOnUse" id="color-9"><stop offset="0" stop-color="#7a727a"/><stop offset="1" stop-color="#211f21"/></linearGradient><linearGradient x1="184.88844" y1="83.48699" x2="184.88641" y2="83.48845" gradientUnits="userSpaceOnUse" id="color-10"><stop offset="0" stop-color="#7a727a"/><stop offset="1" stop-color="#211f21"/></linearGradient><linearGradient x1="167.91536" y1="269.82038" x2="169.08219" y2="271.95154" gradientUnits="userSpaceOnUse" id="color-11"><stop offset="0" stop-color="#000000"/><stop offset="1" stop-color="#363636"/></linearGradient><linearGradient x1="159.06566" y1="256.92078" x2="157.41485" y2="255.13803" gradientUnits="userSpaceOnUse" id="color-12"><stop offset="0" stop-color="#000000"/><stop offset="1" stop-color="#363636"/></linearGradient><linearGradient x1="168.29455" y1="259.91724" x2="177.00649" y2="253.6455" gradientUnits="userSpaceOnUse" id="color-13"><stop offset="0" stop-color="#000000"/><stop offset="1" stop-color="#363636"/></linearGradient><linearGradient x1="171.43927" y1="256.66021" x2="176.41308" y2="253.07955" gradientUnits="userSpaceOnUse" id="color-14"><stop offset="0" stop-color="#6d6d6d" stop-opacity="0"/><stop offset="1" stop-color="#6d6d6d"/></linearGradient><linearGradient x1="174.94489" y1="261.66242" x2="179.9187" y2="258.08176" gradientUnits="userSpaceOnUse" id="color-15"><stop offset="0" stop-color="#6d6d6d" stop-opacity="0"/><stop offset="1" stop-color="#6d6d6d"/></linearGradient><linearGradient x1="252.50007" y1="-43.8282" x2="252.49814" y2="-43.82661" gradientUnits="userSpaceOnUse" id="color-16"><stop offset="0" stop-color="#7a727a"/><stop offset="1" stop-color="#211f21"/></linearGradient><linearGradient x1="247.49433" y1="143.20965" x2="248.79525" y2="145.26172" gradientUnits="userSpaceOnUse" id="color-17"><stop offset="0" stop-color="#000000"/><stop offset="1" stop-color="#363636"/></linearGradient><linearGradient x1="237.83673" y1="130.90325" x2="236.07515" y2="129.22988" gradientUnits="userSpaceOnUse" id="color-18"><stop offset="0" stop-color="#000000"/><stop offset="1" stop-color="#363636"/></linearGradient><linearGradient x1="247.23857" y1="133.30257" x2="255.531" y2="126.4858" gradientUnits="userSpaceOnUse" id="color-19"><stop offset="0" stop-color="#000000"/><stop offset="1" stop-color="#363636"/></linearGradient><linearGradient x1="250.16826" y1="129.85083" x2="254.90256" y2="125.95901" gradientUnits="userSpaceOnUse" id="color-20"><stop offset="0" stop-color="#6d6d6d" stop-opacity="0"/><stop offset="1" stop-color="#6d6d6d"/></linearGradient><linearGradient x1="253.98702" y1="134.61828" x2="258.72132" y2="130.72646" gradientUnits="userSpaceOnUse" id="color-21"><stop offset="0" stop-color="#6d6d6d" stop-opacity="0"/><stop offset="1" stop-color="#6d6d6d"/></linearGradient><linearGradient x1="244.30917" y1="139.68009" x2="248.11975" y2="144.31556" gradientUnits="userSpaceOnUse" id="color-22"><stop offset="0" stop-color="#8d76ff"/><stop offset="1" stop-color="#9f8cff"/></linearGradient><linearGradient x1="263.07497" y1="124.95156" x2="266.76829" y2="129.4444" gradientUnits="userSpaceOnUse" id="color-23"><stop offset="0" stop-color="#8d76ff"/><stop offset="1" stop-color="#9f8cff"/></linearGradient><linearGradient x1="384.95246" y1="-50.87795" x2="384.95062" y2="-50.87625" gradientUnits="userSpaceOnUse" id="color-24"><stop offset="0" stop-color="#7a727a"/><stop offset="1" stop-color="#211f21"/></linearGradient><linearGradient x1="390.95459" y1="136.13058" x2="392.37393" y2="138.1026" gradientUnits="userSpaceOnUse" id="color-25"><stop offset="0" stop-color="#000000"/><stop offset="1" stop-color="#363636"/></linearGradient><linearGradient x1="380.58999" y1="124.41342" x2="378.73305" y2="122.84653" gradientUnits="userSpaceOnUse" id="color-26"><stop offset="0" stop-color="#000000"/><stop offset="1" stop-color="#363636"/></linearGradient><linearGradient x1="390.11666" y1="126.25568" x2="397.99385" y2="118.96306" gradientUnits="userSpaceOnUse" id="color-27"><stop offset="0" stop-color="#000000"/><stop offset="1" stop-color="#363636"/></linearGradient><linearGradient x1="392.83829" y1="122.63763" x2="397.33553" y2="118.47414" gradientUnits="userSpaceOnUse" id="color-28"><stop offset="0" stop-color="#6d6d6d" stop-opacity="0"/><stop offset="1" stop-color="#6d6d6d"/></linearGradient><linearGradient x1="396.9308" y1="127.17226" x2="401.42804" y2="123.00876" gradientUnits="userSpaceOnUse" id="color-29"><stop offset="0" stop-color="#6d6d6d" stop-opacity="0"/><stop offset="1" stop-color="#6d6d6d"/></linearGradient><linearGradient x1="387.56737" y1="132.79444" x2="391.64396" y2="137.1978" gradientUnits="userSpaceOnUse" id="color-30"><stop offset="0" stop-color="#00b7e5"/><stop offset="1" stop-color="#00c8f9"/></linearGradient><linearGradient x1="375.65447" y1="143.08863" x2="378.98573" y2="146.68692" gradientUnits="userSpaceOnUse" id="color-31"><stop offset="0" stop-color="#00b7e5"/><stop offset="1" stop-color="#00c8f9"/></linearGradient><linearGradient x1="405.43455" y1="116.98784" x2="409.38569" y2="121.2557" gradientUnits="userSpaceOnUse" id="color-32"><stop offset="0" stop-color="#003745"/><stop offset="1" stop-color="#00576d"/></linearGradient><linearGradient x1="126.77347" y1="-14.02579" x2="126.77128" y2="-14.02458" gradientUnits="userSpaceOnUse" id="color-33"><stop offset="0" stop-color="#7a727a"/><stop offset="1" stop-color="#211f21"/></linearGradient><linearGradient x1="87.45773" y1="168.90176" x2="88.35909" y2="171.15807" gradientUnits="userSpaceOnUse" id="color-34"><stop offset="0" stop-color="#000000"/><stop offset="1" stop-color="#363636"/></linearGradient><linearGradient x1="80.22791" y1="155.02925" x2="78.8041" y2="153.06046" gradientUnits="userSpaceOnUse" id="color-35"><stop offset="0" stop-color="#000000"/><stop offset="1" stop-color="#363636"/></linearGradient><linearGradient x1="89.02819" y1="159.1166" x2="98.43277" y2="153.94102" gradientUnits="userSpaceOnUse" id="color-36"><stop offset="0" stop-color="#000000"/><stop offset="1" stop-color="#363636"/></linearGradient><linearGradient x1="92.54268" y1="156.26248" x2="97.91193" y2="153.30765" gradientUnits="userSpaceOnUse" id="color-37"><stop offset="0" stop-color="#6d6d6d" stop-opacity="0"/><stop offset="1" stop-color="#6d6d6d"/></linearGradient><linearGradient x1="95.4196" y1="161.65088" x2="100.78885" y2="158.69604" gradientUnits="userSpaceOnUse" id="color-38"><stop offset="0" stop-color="#6d6d6d" stop-opacity="0"/><stop offset="1" stop-color="#6d6d6d"/></linearGradient><linearGradient x1="107.49322" y1="153.80779" x2="109.49616" y2="157.44736" gradientUnits="userSpaceOnUse" id="color-39"><stop offset="0" stop-color="#ff2727"/><stop offset="1" stop-color="#fc5151"/></linearGradient><linearGradient x1="86.94936" y1="163.5499" x2="88.9523" y2="167.18947" gradientUnits="userSpaceOnUse" id="color-40"><stop offset="0" stop-color="#ff2727"/><stop offset="1" stop-color="#fc5151"/></linearGradient><linearGradient x1="71.31171" y1="171.32961" x2="73.31466" y2="174.96918" gradientUnits="userSpaceOnUse" id="color-41"><stop offset="0" stop-color="#ff2727"/><stop offset="1" stop-color="#fc5151"/></linearGradient><linearGradient x1="182.3467" y1="227.15341" x2="212.43593" y2="227.15341" gradientUnits="userSpaceOnUse" id="color-42"><stop offset="0" stop-color="#d6d2d6"/><stop offset="1" stop-color="#d6d2d6" stop-opacity="0"/></linearGradient><linearGradient x1="191.32581" y1="239.08464" x2="221.79883" y2="239.08464" gradientUnits="userSpaceOnUse" id="color-43"><stop offset="0" stop-color="#d6d2d6"/><stop offset="1" stop-color="#d6d2d6" stop-opacity="0"/></linearGradient><linearGradient x1="260.6831" y1="99.56514" x2="289.83381" y2="99.56514" gradientUnits="userSpaceOnUse" id="color-44"><stop offset="0" stop-color="#a09ea1"/><stop offset="1" stop-color="#a09ea1" stop-opacity="0"/></linearGradient><linearGradient x1="270.06237" y1="110.93009" x2="300.09538" y2="110.93009" gradientUnits="userSpaceOnUse" id="color-45"><stop offset="0" stop-color="#a09ea1"/><stop offset="1" stop-color="#a09ea1" stop-opacity="0"/></linearGradient><linearGradient x1="401.98038" y1="89.9213" x2="430.31725" y2="89.9213" gradientUnits="userSpaceOnUse" id="color-46"><stop offset="0" stop-color="#898689"/><stop offset="1" stop-color="#898689" stop-opacity="0"/></linearGradient><linearGradient x1="411.67001" y1="100.80566" x2="441.29394" y2="100.80566" gradientUnits="userSpaceOnUse" id="color-47"><stop offset="0" stop-color="#898689"/><stop offset="1" stop-color="#898689" stop-opacity="0"/></linearGradient><radialGradient cx="69.5" cy="172" r="22.90356" gradientUnits="userSpaceOnUse" id="color-48"><stop offset="0" stop-color="#7d7c7d"/><stop offset="1" stop-color="#7d7c7d" stop-opacity="0"/></radialGradient><radialGradient cx="73.5" cy="181.5" r="16.90356" gradientUnits="userSpaceOnUse" id="color-49"><stop offset="0" stop-color="#7d7c7d"/><stop offset="1" stop-color="#7d7c7d" stop-opacity="0"/></radialGradient><radialGradient cx="52" cy="159" r="11.40356" gradientUnits="userSpaceOnUse" id="color-50"><stop offset="0" stop-color="#7d7c7d"/><stop offset="1" stop-color="#7d7c7d" stop-opacity="0"/></radialGradient><radialGradient cx="65" cy="174" r="11.40356" gradientUnits="userSpaceOnUse" id="color-51"><stop offset="0" stop-color="#7d7c7d"/><stop offset="1" stop-color="#7d7c7d" stop-opacity="0"/></radialGradient><radialGradient cx="49" cy="171.5" r="22.90356" gradientUnits="userSpaceOnUse" id="color-52"><stop offset="0" stop-color="#7d7c7d"/><stop offset="1" stop-color="#7d7c7d" stop-opacity="0"/></radialGradient><radialGradient cx="61.5" cy="173.5" r="13.40356" gradientUnits="userSpaceOnUse" id="color-53"><stop offset="0" stop-color="#212121"/><stop offset="1" stop-color="#212121" stop-opacity="0"/></radialGradient></defs><g transform="translate(229.40442,308.44927)"><g data-paper-data="{&quot;isPaintingLayer&quot;:true}" fill-rule="nonzero" stroke-linejoin="miter" stroke-miterlimit="10" stroke-dasharray="" stroke-dashoffset="0" style="mix-blend-mode: normal"><path d="M-0.0625,361.41736v-362h480v362z" fill="#5ec565" stroke="none" stroke-width="NaN" stroke-linecap="butt"/><g fill="#57b65e" stroke="none" stroke-width="0" stroke-linecap="butt"><path d="M-39.1937,389.19392l-19.82384,-29.78487l574.13725,-432.67644l24.1999,28.32618z"/><path d="M4.00297,446.78949l-19.82384,-29.78487l574.13726,-432.67644l24.1999,28.32619z"/><path d="M-126.78696,274.00279l-19.82385,-29.78487l574.13725,-432.67644l24.1999,28.32618z"/><path d="M-83.59028,331.59836l-19.82384,-29.78487l574.13726,-432.67644l24.1999,28.32619z"/></g><path d="M138.39262,620.77608l-19.82384,-29.78486l574.13725,-432.67644l24.1999,28.32618z" fill="#57b65e" stroke="none" stroke-width="0" stroke-linecap="butt"/><path d="M50.79937,505.58496l-19.82385,-29.78487l574.13725,-432.67644l24.1999,28.32618z" fill="#57b65e" stroke="none" stroke-width="0" stroke-linecap="butt"/><path d="M93.99604,563.18052l-19.82385,-29.78486l574.13725,-432.67644l24.1999,28.32618z" fill="#57b65e" stroke="none" stroke-width="0" stroke-linecap="butt"/><path d="M-209.58058,154.01203l-19.82384,-29.78486l574.13725,-432.67644l24.1999,28.32618z" fill="#57b65e" stroke="none" stroke-width="0" stroke-linecap="butt"/><path d="M-166.3839,211.6076l-19.82385,-29.78486l574.13725,-432.67644l24.1999,28.32619z" fill="#57b65e" stroke="none" stroke-width="0" stroke-linecap="butt"/><g><path d="M65.25005,160.83639c10.998,0 19.91364,8.91564 19.91364,19.91364c0,10.998 -8.91564,19.91364 -19.91364,19.91364c-10.998,0 -19.91364,-8.91564 -19.91364,-19.91364c0,-10.998 8.91564,-19.91364 19.91364,-19.91364z" data-paper-data="{&quot;index&quot;:null}" fill="#000000" stroke="#ffcc0d" stroke-width="0" stroke-linecap="butt"/><path d="M51.75005,165.33639c6.57972,0 11.91364,5.33392 11.91364,11.91364c0,6.57972 -5.33392,11.91364 -11.91364,11.91364c-6.57972,0 -11.91364,-5.33392 -11.91364,-11.91364c0,-6.57972 5.33392,-11.91364 11.91364,-11.91364z" data-paper-data="{&quot;index&quot;:null}" fill="#000000" stroke="#ffcc0d" stroke-width="0" stroke-linecap="butt"/><path d="M80.50005,155.83639c7.54622,0 13.66364,6.11742 13.66364,13.66364c0,7.54622 -6.11742,13.66364 -13.66364,13.66364c-7.54622,0 -13.66364,-6.11742 -13.66364,-13.66364c0,-7.54622 6.11742,-13.66364 13.66364,-13.66364z" data-paper-data="{&quot;index&quot;:null}" fill="#000000" stroke="#ffcc0d" stroke-width="0" stroke-linecap="butt"/><path d="M72.50005,168.83639c7.54622,0 13.66364,6.11742 13.66364,13.66364c0,7.54622 -6.11742,13.66364 -13.66364,13.66364c-7.54622,0 -13.66364,-6.11742 -13.66364,-13.66364c0,-7.54622 6.11742,-13.66364 13.66364,-13.66364z" data-paper-data="{&quot;index&quot;:null}" fill="#000000" stroke="#ffcc0d" stroke-width="0" stroke-linecap="butt"/><g stroke-linecap="butt"><path d="M74.68517,122.45391c0,-10.167 8.24202,-18.40903 18.40902,-18.40903c10.167,0 18.40898,8.24203 18.40898,18.40903c0,10.167 -8.24202,18.40898 -18.40898,18.40898c-10.167,0 -18.40902,-8.24202 -18.40902,-18.40898z" fill="#428a47" stroke="#428a47" stroke-width="1.5"/><path d="M76.38517,120.45391c0,-10.167 8.24202,-18.40903 18.40902,-18.40903c10.167,0 18.40898,8.24203 18.40898,18.40903c0,10.167 -8.24202,18.40898 -18.40898,18.40898c-10.167,0 -18.40902,-8.24202 -18.40902,-18.40898z" fill="#9966ff" stroke="#000000" stroke-width="1.5"/><g stroke="#000000" stroke-width="0"><path d="M76.90224,121.1168c0,0 0.3592,-4.22413 0.3592,-7.47125c0,-2.88914 4.31036,-6.39365 4.31036,-6.39365c0,0 5.47482,-4.79193 7.91268,-4.79193c3.3106,0 5.47698,-0.87756 5.47698,-0.87756v19.53442z" fill="#fdd200"/><path d="M94.86198,121.47601v-20.13443c0,0 4.16635,1.47756 7.47698,1.47756c2.43782,0 5.91268,4.79193 5.91268,4.79193c0,0 4.31036,3.50455 4.31036,6.39365c0,3.24712 0.7592,7.67126 0.7592,7.67126z" data-paper-data="{&quot;index&quot;:null}" fill="#feaa01"/><path d="M112.92115,119.82371c0,0 -0.35919,4.22414 -0.35919,7.47126c0,2.88914 -4.31032,6.39365 -4.31032,6.39365c0,0 -2.47482,3.59193 -4.91268,3.59193c-3.31063,0 -8.67698,1.87757 -8.67698,1.87757l0.2,-19.33444z" data-paper-data="{&quot;index&quot;:null}" fill="#fdc308"/><path d="M94.96146,119.62371l-0.2,19.33442c0,0 -4.96635,-1.87755 -8.27698,-1.87755c-2.43782,0 -4.91268,-3.59193 -4.91268,-3.59193c0,0 -4.31032,-3.50455 -4.31032,-6.39364c0,-3.24712 -0.35919,-7.47126 -0.35919,-7.47126z" data-paper-data="{&quot;index&quot;:null}" fill="#ffdd00"/></g><path d="M86.77134,120.32953c0,-4.56828 3.70335,-8.27159 8.27163,-8.27159c4.56828,0 8.27159,3.70331 8.27159,8.27159c0,4.56828 -3.70331,8.27162 -8.27159,8.27162c-4.56828,0 -8.27163,-3.70334 -8.27163,-8.27162z" fill="#ff6703" stroke="#dc2a19" stroke-width="1"/><path d="M76.18517,120.26733c0,-10.27008 8.32552,-18.59557 18.5956,-18.59557c10.27008,0 18.5956,8.32552 18.5956,18.5956c0,10.27008 -8.32552,18.59561 -18.59556,18.59561c-10.27008,0 -18.59557,-8.32552 -18.59557,-18.59557z" fill="none" stroke="#51aa57" stroke-width="2"/></g><g stroke-linecap="butt"><path d="M95.14816,162.78467l-17.19995,9.3378l-3.35607,-6.18177l17.19995,-9.33781z" data-paper-data="{&quot;index&quot;:null}" fill="none" stroke="#264f29" stroke-width="18.5"/><path d="M96.01421,158.35205c-2.83268,-5.21773 -2.62065,-10.80931 0.47357,-12.48915c3.09422,-1.67983 7.89894,1.18817 10.73163,6.40589c2.83268,5.21773 2.62065,10.80931 -0.47357,12.48915c-3.09422,1.67983 -7.89894,-1.18817 -10.73163,-6.40589z" data-paper-data="{&quot;index&quot;:null}" fill="#211f21" stroke="#264f29" stroke-width="4"/><path d="M64.55739,175.42844c-2.83268,-5.21773 -3.40759,-10.38208 -1.2841,-11.53492c2.12349,-1.15283 6.14127,2.1424 8.97395,7.36012c2.83268,5.21773 3.4076,10.38208 1.2841,11.53492c-2.12349,1.15283 -6.14127,-2.1424 -8.97395,-7.36012z" data-paper-data="{&quot;index&quot;:null}" fill="#264f29" stroke="#264f29" stroke-width="4"/><path d="M86.89128,148.67127c1.13786,2.0959 1.3874,1.57423 0.41667,2.10124c-0.97074,0.52701 -2.79414,1.90315 -3.93202,-0.19277c-1.13786,-2.0959 -1.98554,-3.62868 -1.0148,-4.15569c0.97074,-0.52701 3.39229,0.1513 4.53015,2.24721z" fill="#211f21" stroke="none" stroke-width="0"/><path d="M98.59111,176.3192c-0.97074,0.52701 -1.7944,-1.01879 -2.93227,-3.11471c-1.13786,-2.0959 1.00943,-2.87547 1.98018,-3.40248c0.97074,-0.52701 0.39732,-0.60191 1.53517,1.494c1.13786,2.0959 0.38765,4.49617 -0.58308,5.02319z" data-paper-data="{&quot;index&quot;:null}" fill="#264f29" stroke="none" stroke-width="0"/><path d="M105.75118,147.24678c-0.19356,0.30195 -0.5436,0.24165 -0.80411,0.50974c-0.07767,0.07992 -0.95996,0.12138 -1.09194,0.10635c-0.38126,-0.04343 -1.20631,-0.04326 -1.59284,-0.29104c-0.39502,-0.25321 -1.13192,-0.46863 -1.33021,-0.8048c-0.28823,-0.48862 -0.70734,-1.27075 -0.45975,-1.657c0.24896,-0.38838 0.42068,-1.15369 0.9889,-1.09302c0.38565,0.04119 1.44511,0.61418 1.83696,0.86536c0.45993,0.29483 0.74817,0.50303 1.62694,1.34289c0.84996,0.81234 1.04566,0.67897 0.82605,1.02155z" fill="url(#color-1)" stroke="none" stroke-width="0"/><path d="M110.31111,155.25411c0.40692,0.00245 0.32814,0.0892 0.54639,1.24448c0.22565,1.19444 0.29817,1.51977 0.29488,2.06607c-0.0028,0.46543 0.0701,1.71624 -0.10544,2.06211c-0.25862,0.50957 -1.21838,0.21631 -1.67971,0.21353c-0.45879,-0.00277 -0.88639,-0.78027 -1.13917,-1.28814c-0.1739,-0.34942 0.04685,-1.08474 0.04966,-1.55394c0.00277,-0.45912 0.45232,-1.15094 0.62358,-1.49432c0.05928,-0.11886 0.57465,-0.8362 0.68398,-0.8578c0.36671,-0.07244 0.36717,-0.39412 0.72582,-0.39197z" data-paper-data="{&quot;index&quot;:null}" fill="url(#color-2)" stroke="none" stroke-width="0"/><path d="M74.75152,178.68409c0,0 -1.45937,-0.74295 -3.69125,-2.94298c-1.63972,-1.61632 -2.13026,-2.60369 -2.55776,-3.38012c-0.49761,-0.90376 -1.07019,-2.21019 -1.25555,-4.24971c-0.12749,-1.40276 -0.05274,-3.15285 -0.05274,-3.15285l15.17144,-10.50968c0,0 4.03646,5.52562 5.49158,8.1795c1.70898,3.11684 4.12375,9.35698 4.12375,9.35698z" fill="#090909" stroke="none" stroke-width="0"/><path d="M91.87685,171.73524c0,0 -15.25835,7.50953 -17.31086,6.78198c-0.99676,-0.35332 -2.95559,-2.04953 -4.11075,-3.41434c-0.62287,-0.7359 -1.04524,-1.55603 -1.19463,-1.82822c4.72506,-2.34035 0.74854,-0.59738 8.65518,-4.77082c1.86498,-0.93232 3.83498,-2.06078 10.0028,-5.46326c0.91164,1.6668 2.65337,5.70894 2.65337,5.70894z" fill="#264f29" stroke="none" stroke-width="0"/></g><path d="M4.98923,441.54927l-81.33142,-107.92223l555.85746,-418.90058l81.33142,107.92223z" fill="#514f51" stroke="none" stroke-width="0" stroke-linecap="butt"/><path d="M-16.25315,415.26295l-42.6279,-56.75818l559.98192,-419.77814l42.63605,57.34148z" fill="#5b595b" stroke="none" stroke-width="0" stroke-linecap="butt"/><g data-paper-data="{&quot;index&quot;:null}" fill="#202020" stroke="none" stroke-linecap="butt"><path d="M81.2828,307.10728c0,0 8.06846,-6.71952 33.70555,-20.56072c24.24979,-13.09222 25.96612,-15.234 25.96612,-15.234l1.17912,2.83798c0,0 -4.45946,2.66229 -22.76983,12.89884c-26.14184,14.6148 -38.08096,20.0579 -38.08096,20.0579z" stroke-width="NaN"/><path d="M86.27926,321.22856c0,0 11.06846,-7.71951 36.70555,-21.56071c24.24979,-13.09222 25.96612,-15.23401 25.96612,-15.23401l1.17912,2.83798c0,0 -4.45946,2.66229 -22.76983,12.89884c-26.14184,14.6148 -41.08096,21.0579 -41.08096,21.0579z" stroke-width="NaN"/></g><g stroke-linecap="butt"><path d="M394.89594,129.7277l-14.43419,13.21692l-4.75025,-5.18774l14.43419,-13.21692z" data-paper-data="{&quot;index&quot;:null}" fill="none" stroke="#211f21" stroke-width="18.5"/><path d="M394.66534,125.21717c-4.00944,-4.37871 -5.1547,-9.85586 -2.55804,-12.23354c2.59667,-2.37768 7.95199,-0.75554 11.96144,3.62316c4.00944,4.37871 5.1547,9.85586 2.55804,12.23354c-2.59667,2.37768 -7.95199,0.75554 -11.96144,-3.62316z" data-paper-data="{&quot;index&quot;:null}" fill="#211f21" stroke="#211f21" stroke-width="4"/><path d="M368.26645,149.38807c-4.00944,-4.37871 -5.81511,-9.25115 -4.03307,-10.8829c1.78203,-1.63175 6.47696,0.59509 10.4864,4.97381c4.00944,4.37871 5.81511,9.25115 4.03307,10.88291c-1.78203,1.63175 -6.47695,-0.5951 -10.48639,-4.97381z" data-paper-data="{&quot;index&quot;:null}" fill="#211f21" stroke="#211f21" stroke-width="4"/><path d="M383.47368,118.02745c1.61055,1.75888 1.72665,1.19237 0.91202,1.93831c-0.81465,0.74594 -2.25153,2.52187 -3.8621,0.76298c-1.61055,-1.75888 -2.80346,-3.04143 -1.98882,-3.78737c0.81465,-0.74594 3.32834,-0.67281 4.93889,1.08608z" fill="#211f21" stroke="none" stroke-width="0"/><path d="M401.50704,142.02936c-0.81465,0.74594 -1.98739,-0.55505 -3.59796,-2.31394c-1.61055,-1.75888 0.28477,-3.03417 1.09942,-3.78011c0.81465,-0.74594 0.24011,-0.68007 1.85066,1.07881c1.61055,1.75888 1.46251,4.2693 0.64788,5.01524z" data-paper-data="{&quot;index&quot;:null}" fill="#211f21" stroke="none" stroke-width="0"/><path d="M401.43062,112.08831c-0.11487,0.33977 -0.46911,0.36584 -0.65713,0.68892c-0.05606,0.09631 -0.90219,0.34972 -1.03389,0.36703c-0.38046,0.04998 -1.18102,0.24948 -1.61597,0.10243c-0.44449,-0.15026 -1.21161,-0.18126 -1.48525,-0.45956c-0.39774,-0.40451 -0.99342,-1.0622 -0.84649,-1.49682c0.14775,-0.43703 0.12947,-1.22116 0.69551,-1.29957c0.38418,-0.05321 1.55069,0.24682 1.99162,0.39588c0.51754,0.17497 0.84754,0.30735 1.9032,0.91001c1.02105,0.58291 1.17873,0.4062 1.0484,0.79169z" fill="url(#color-3)" stroke="none" stroke-width="0"/><path d="M407.79015,118.75666c0.39545,-0.09594 0.33997,0.00727 0.83088,1.0756c0.50756,1.10453 0.65654,1.4027 0.78534,1.93361c0.10974,0.45232 0.48269,1.64845 0.39592,2.02649c-0.12784,0.55696 -1.13002,0.50428 -1.57835,0.61305c-0.44586,0.10817 -1.04866,-0.54299 -1.41665,-0.97473c-0.25318,-0.29705 -0.21663,-1.06392 -0.32727,-1.5199c-0.10825,-0.44619 0.16083,-1.22612 0.24405,-1.60072c0.0288,-0.12966 0.35559,-0.95027 0.45646,-0.99764c0.33834,-0.15889 0.26106,-0.47116 0.60961,-0.55573z" data-paper-data="{&quot;index&quot;:null}" fill="url(#color-4)" stroke="none" stroke-width="0"/><path d="M378.94517,150.08421c0,0 -1.59564,-0.36834 -4.29296,-1.96393c-1.98167,-1.17225 -2.69624,-2.01184 -3.29867,-2.66198c-0.70123,-0.75675 -1.57249,-1.88613 -2.24514,-3.82044c-0.46264,-1.3304 -0.81296,-3.04669 -0.81296,-3.04669l12.18264,-13.86395c0,0 5.25195,4.38664 7.30518,6.6103c2.41142,2.61158 6.26236,8.08339 6.26236,8.08339z" fill="#090909" stroke="none" stroke-width="0"/><path d="M393.88415,139.20349c0,0 -12.99186,10.9737 -15.15934,10.76362c-1.05259,-0.10202 -3.36322,-1.27469 -4.81392,-2.31996c-0.78222,-0.5636 -1.39023,-1.25738 -1.60096,-1.48541c4.0196,-3.41266 0.58203,-0.76054 7.24604,-6.72069c1.58446,-1.3553 3.22344,-2.92631 8.38643,-7.71823c1.28736,1.39715 3.95412,4.8987 3.95412,4.8987z" fill="#323032" stroke="none" stroke-width="0"/></g><g stroke-linecap="butt"><path d="M173.13394,265.58296l-15.71653,11.66291l-4.19173,-5.64862l15.71653,-11.66292z" data-paper-data="{&quot;index&quot;:null}" fill="none" stroke="#211f21" stroke-width="18.5"/><path d="M173.36829,261.07262c-3.53802,-4.76772 -4.11411,-10.33359 -1.28676,-12.43171c2.82736,-2.09812 7.98753,0.066 11.52556,4.83371c3.53802,4.76772 4.11411,10.33359 1.28676,12.43171c-2.82736,2.09812 -7.98753,-0.066 -11.52556,-4.83371z" data-paper-data="{&quot;index&quot;:null}" fill="#211f21" stroke="#211f21" stroke-width="4"/><path d="M144.62429,282.40139c-3.53802,-4.76772 -4.83319,-9.79998 -2.89284,-11.23987c1.94035,-1.43989 6.38146,1.25783 9.91948,6.02555c3.53802,4.76772 4.83319,9.79997 2.89283,11.23987c-1.94035,1.43989 -6.38145,-1.25783 -9.91947,-6.02555z" data-paper-data="{&quot;index&quot;:null}" fill="#211f21" stroke="#211f21" stroke-width="4"/><path d="M162.9751,252.77039c1.42119,1.91514 1.59492,1.36356 0.70791,2.0218c-0.88702,0.65823 -2.49887,2.27703 -3.92007,0.36188c-1.42118,-1.91514 -2.47592,-3.31354 -1.5889,-3.97177c0.88702,-0.65823 3.37988,-0.32707 4.80106,1.58809z" fill="#211f21" stroke="none" stroke-width="0"/><path d="M178.44528,278.49911c-0.88702,0.65823 -1.9198,-0.75643 -3.341,-2.67158c-1.42119,-1.91514 0.5952,-2.98882 1.48222,-3.64705c0.88702,-0.65823 0.30876,-0.65178 1.72995,1.26336c1.42118,1.91514 1.01584,4.39703 0.12883,5.05527z" data-paper-data="{&quot;index&quot;:null}" fill="#211f21" stroke="none" stroke-width="0"/><path d="M181.44749,248.70887c-0.14919,0.32617 -0.50423,0.31567 -0.72447,0.61771c-0.06566,0.09004 -0.93336,0.25511 -1.06615,0.25879c-0.38358,0.0106 -1.20042,0.12674 -1.61793,-0.06425c-0.42669,-0.19516 -1.18655,-0.30486 -1.43014,-0.60982c-0.35405,-0.44325 -0.87895,-1.1587 -0.68811,-1.57592c0.19189,-0.41952 0.25433,-1.20137 0.82543,-1.22118c0.38761,-0.01343 1.5171,0.40494 1.94037,0.59854c0.49681,0.22725 0.81146,0.39286 1.79956,1.10086c0.95571,0.68479 1.13072,0.52523 0.96145,0.89529z" fill="url(#color-5)" stroke="none" stroke-width="0"/><path d="M187.08775,255.99569c0.40322,-0.05478 0.33742,0.04219 0.7159,1.15532c0.39131,1.15086 0.50885,1.46276 0.58238,2.0041c0.06266,0.4612 0.31065,1.68934 0.18548,2.05645c-0.18442,0.54086 -1.17587,0.38543 -1.63301,0.44753c-0.45462,0.06176 -0.98728,-0.64792 -1.30894,-1.11521c-0.2213,-0.3215 -0.1061,-1.08056 -0.16928,-1.5455c-0.0618,-0.45495 0.28604,-1.20309 0.40733,-1.56714c0.04198,-0.12601 0.4514,-0.90868 0.55661,-0.94543c0.35289,-0.12327 0.30812,-0.44182 0.66351,-0.49011z" data-paper-data="{&quot;index&quot;:null}" fill="url(#color-6)" stroke="none" stroke-width="0"/><path d="M155.17485,284.19171c0,0 -1.54931,-0.53043 -4.0683,-2.39488c-1.85065,-1.36978 -2.47512,-2.27838 -3.00751,-2.98701c-0.61971,-0.82484 -1.37025,-2.0378 -1.84047,-4.03102c-0.32341,-1.37091 -0.49542,-3.11413 -0.49542,-3.11413l13.54343,-12.538c0,0 4.77313,4.90334 6.58686,7.32632c2.13015,2.84566 5.39813,8.68439 5.39813,8.68439z" fill="#090909" stroke="none" stroke-width="0"/><path d="M171.15332,274.90452c0,0 -14.05121,9.57986 -16.18561,9.14806c-1.03652,-0.2097 -3.21435,-1.61371 -4.54989,-2.80258c-0.72014,-0.64103 -1.2536,-1.39365 -1.43976,-1.64213c4.34915,-2.98132 0.65713,-0.69667 7.89859,-5.94012c1.7154,-1.18522 3.50721,-2.5794 9.1355,-6.81512c1.13689,1.5221 3.42954,5.27927 3.42954,5.27927z" fill="#323032" stroke="none" stroke-width="0"/></g><g stroke-linecap="butt"><path d="M254.63394,136.58296l-15.71653,11.66292l-4.19173,-5.64862l15.71653,-11.66292z" data-paper-data="{&quot;index&quot;:null}" fill="none" stroke="#211f21" stroke-width="18.5"/><path d="M254.86829,132.07261c-3.53802,-4.76772 -4.11411,-10.33359 -1.28676,-12.43171c2.82735,-2.09812 7.98753,0.066 11.52556,4.83371c3.53802,4.76772 4.11411,10.33359 1.28676,12.43171c-2.82735,2.09812 -7.98753,-0.066 -11.52556,-4.83371z" data-paper-data="{&quot;index&quot;:null}" fill="#211f21" stroke="#211f21" stroke-width="4"/><path d="M226.12429,153.40139c-3.53802,-4.76772 -4.83319,-9.79998 -2.89284,-11.23987c1.94035,-1.43989 6.38145,1.25783 9.91947,6.02555c3.53802,4.76772 4.83319,9.79998 2.89284,11.23987c-1.94035,1.43989 -6.38145,-1.25783 -9.91947,-6.02555z" data-paper-data="{&quot;index&quot;:null}" fill="#211f21" stroke="#211f21" stroke-width="4"/><path d="M244.4751,123.77039c1.42119,1.91514 1.59492,1.36357 0.70791,2.0218c-0.88702,0.65824 -2.49887,2.27703 -3.92008,0.36188c-1.42119,-1.91514 -2.47592,-3.31353 -1.5889,-3.97177c0.88702,-0.65824 3.37987,-0.32707 4.80107,1.58808z" fill="#211f21" stroke="none" stroke-width="0"/><path d="M259.94528,149.49911c-0.88702,0.65824 -1.9198,-0.75643 -3.341,-2.67158c-1.42119,-1.91514 0.5952,-2.98881 1.48222,-3.64705c0.88702,-0.65824 0.30876,-0.65178 1.72995,1.26336c1.42119,1.91514 1.01584,4.39703 0.12883,5.05527z" data-paper-data="{&quot;index&quot;:null}" fill="#211f21" stroke="none" stroke-width="0"/><path d="M262.94749,119.70886c-0.14919,0.32616 -0.50423,0.31567 -0.72448,0.61771c-0.06566,0.09004 -0.93336,0.25511 -1.06615,0.25879c-0.38358,0.0106 -1.20041,0.12674 -1.61793,-0.06424c-0.42669,-0.19517 -1.18656,-0.30486 -1.43014,-0.60982c-0.35405,-0.44325 -0.87895,-1.1587 -0.68811,-1.57592c0.19189,-0.41952 0.25433,-1.20138 0.82543,-1.22118c0.38762,-0.01343 1.5171,0.40494 1.94037,0.59854c0.49681,0.22725 0.81146,0.39286 1.79956,1.10085c0.95571,0.68479 1.13072,0.52523 0.96145,0.89528z" fill="url(#color-7)" stroke="none" stroke-width="0"/><path d="M268.58775,126.99569c0.40322,-0.05478 0.33742,0.04219 0.7159,1.15532c0.39132,1.15086 0.50885,1.46276 0.58238,2.0041c0.06266,0.46121 0.31065,1.68934 0.18548,2.05645c-0.18443,0.54087 -1.17588,0.38544 -1.63301,0.44753c-0.45462,0.06176 -0.98727,-0.64792 -1.30893,-1.11521c-0.22129,-0.3215 -0.1061,-1.08056 -0.16928,-1.5455c-0.0618,-0.45495 0.28603,-1.20309 0.40733,-1.56714c0.04198,-0.12602 0.4514,-0.90868 0.55661,-0.94543c0.35288,-0.12326 0.30812,-0.44182 0.66352,-0.49011z" data-paper-data="{&quot;index&quot;:null}" fill="url(#color-8)" stroke="none" stroke-width="0"/><path d="M236.67485,155.19171c0,0 -1.54931,-0.53043 -4.0683,-2.39487c-1.85065,-1.36978 -2.47512,-2.27839 -3.00751,-2.98701c-0.61971,-0.82483 -1.37025,-2.0378 -1.84047,-4.03102c-0.32341,-1.37091 -0.49542,-3.11412 -0.49542,-3.11412l13.54343,-12.538c0,0 4.77313,4.90334 6.58686,7.32632c2.13015,2.84566 5.39813,8.68439 5.39813,8.68439z" fill="#090909" stroke="none" stroke-width="0"/><path d="M252.65331,145.90452c0,0 -14.05121,9.57987 -16.18561,9.14806c-1.03652,-0.20969 -3.21434,-1.61371 -4.54989,-2.80258c-0.72014,-0.64104 -1.2536,-1.39364 -1.43977,-1.64213c4.34915,-2.98132 0.65714,-0.69667 7.89859,-5.94012c1.7154,-1.18522 3.50721,-2.57941 9.13549,-6.81513c1.1369,1.52209 3.42954,5.27926 3.42954,5.27926z" fill="#323032" stroke="none" stroke-width="0"/></g><path d="M250.37817,141.92136z" fill="url(#color-9)" stroke="none" stroke-width="0" stroke-linecap="butt"/><g stroke-width="0" stroke-linecap="butt"><path d="M323.92602,52.5084h8.8892l-4.23295,12.47633z" fill="#ffffff" stroke="none"/><path d="M317.15329,52.5084l3.95076,-6.31155l3.66856,6.31155z" fill="#ffffff" stroke="#000000"/><path d="M328.72337,46.34363l-3.95076,6.31155l-3.66856,-6.31155z" data-paper-data="{&quot;index&quot;:null}" fill="#ffffff" stroke="#000000"/><path d="M324.91371,52.5084l3.66856,-6.31155l3.95076,6.31155z" data-paper-data="{&quot;index&quot;:null}" fill="#ffffff" stroke="#000000"/><path d="M336.34269,46.49041l-3.95076,6.31155l-3.66856,-6.31155z" data-paper-data="{&quot;index&quot;:null}" fill="#ffffff" stroke="#000000"/><path d="M332.53303,52.65518l3.66856,-6.31155l3.95076,6.31155z" data-paper-data="{&quot;index&quot;:null}" fill="#ffffff" stroke="#000000"/><path d="M317.29439,52.36162h7.47822l3.66856,13.06345z" fill="#ffffff" stroke="none"/><path d="M328.44117,65.57185l4.09186,-13.06345h7.47822z" data-paper-data="{&quot;index&quot;:null}" fill="#ffffff" stroke="none"/><path d="M328.81658,67.99582l9.443,2.52207l-9.44477,2.42706l-9.70789,-2.36488z" fill="#454445" stroke="none"/><path d="M324.40235,52.69685h7.875l-3.75,10.625z" fill="#ffc840" stroke="none"/><path d="M318.40235,52.69685l3.5,-5.375l3.25,5.375z" fill="#ffc840" stroke="#000000"/><path d="M328.65235,47.44685l-3.5,5.375l-3.25,-5.375z" data-paper-data="{&quot;index&quot;:null}" fill="#fffe68" stroke="#000000"/><path d="M325.27735,52.69685l3.25,-5.375l3.5,5.375z" data-paper-data="{&quot;index&quot;:null}" fill="#ff9240" stroke="#000000"/><path d="M335.40235,47.57185l-3.5,5.375l-3.25,-5.375z" data-paper-data="{&quot;index&quot;:null}" fill="#ffee40" stroke="#000000"/><path d="M332.02735,52.82185l3.25,-5.375l3.5,5.375z" data-paper-data="{&quot;index&quot;:null}" fill="#ffc940" stroke="#000000"/><path d="M318.52735,52.57185h6.625l3.25,11.125z" fill="#fffe68" stroke="none"/><path d="M328.40235,63.82185l3.625,-11.125h6.625z" data-paper-data="{&quot;index&quot;:null}" fill="#ff9240" stroke="none"/></g><path d="M97.3875,121.47903l156.3,-0.24376" fill="none" stroke="#ff6703" stroke-width="5" stroke-linecap="round"/><g stroke-width="0" stroke-linecap="butt"><path d="M125.92602,237.5084h8.8892l-4.23295,12.47633z" fill="#ffffff" stroke="none"/><path d="M119.15329,237.5084l3.95076,-6.31155l3.66856,6.31155z" fill="#ffffff" stroke="#000000"/><path d="M130.72337,231.34363l-3.95076,6.31155l-3.66856,-6.31155z" data-paper-data="{&quot;index&quot;:null}" fill="#ffffff" stroke="#000000"/><path d="M126.91371,237.5084l3.66856,-6.31155l3.95076,6.31155z" data-paper-data="{&quot;index&quot;:null}" fill="#ffffff" stroke="#000000"/><path d="M138.34269,231.49041l-3.95076,6.31155l-3.66856,-6.31155z" data-paper-data="{&quot;index&quot;:null}" fill="#ffffff" stroke="#000000"/><path d="M134.53303,237.65518l3.66856,-6.31155l3.95076,6.31155z" data-paper-data="{&quot;index&quot;:null}" fill="#ffffff" stroke="#000000"/><path d="M119.29439,237.36162h7.47822l3.66856,13.06345z" fill="#ffffff" stroke="none"/><path d="M130.44117,250.57185l4.09186,-13.06345h7.47822z" data-paper-data="{&quot;index&quot;:null}" fill="#ffffff" stroke="none"/><path d="M130.81658,252.99582l9.443,2.52207l-9.44477,2.42706l-9.70789,-2.36488z" fill="#454445" stroke="none"/><path d="M126.40235,237.69685h7.875l-3.75,10.625z" fill="#ffc840" stroke="none"/><path d="M120.40235,237.69685l3.5,-5.375l3.25,5.375z" fill="#ffc840" stroke="#000000"/><path d="M130.65235,232.44685l-3.5,5.375l-3.25,-5.375z" data-paper-data="{&quot;index&quot;:null}" fill="#fffe68" stroke="#000000"/><path d="M127.27735,237.69685l3.25,-5.375l3.5,5.375z" data-paper-data="{&quot;index&quot;:null}" fill="#ff9240" stroke="#000000"/><path d="M137.40235,232.57185l-3.5,5.375l-3.25,-5.375z" data-paper-data="{&quot;index&quot;:null}" fill="#ffee40" stroke="#000000"/><path d="M134.02735,237.82185l3.25,-5.375l3.5,5.375z" data-paper-data="{&quot;index&quot;:null}" fill="#ffc940" stroke="#000000"/><path d="M120.52735,237.57185h6.625l3.25,11.125z" fill="#fffe68" stroke="none"/><path d="M130.40235,248.82185l3.625,-11.125h6.625z" data-paper-data="{&quot;index&quot;:null}" fill="#ff9240" stroke="none"/></g><g stroke-width="0" stroke-linecap="butt"><path d="M104.92602,218.5084h8.8892l-4.23295,12.47633z" fill="#ffffff" stroke="none"/><path d="M98.15329,218.5084l3.95076,-6.31155l3.66856,6.31155z" fill="#ffffff" stroke="#000000"/><path d="M109.72337,212.34363l-3.95076,6.31155l-3.66856,-6.31155z" data-paper-data="{&quot;index&quot;:null}" fill="#ffffff" stroke="#000000"/><path d="M105.91371,218.5084l3.66856,-6.31155l3.95076,6.31155z" data-paper-data="{&quot;index&quot;:null}" fill="#ffffff" stroke="#000000"/><path d="M117.34269,212.49041l-3.95076,6.31155l-3.66856,-6.31155z" data-paper-data="{&quot;index&quot;:null}" fill="#ffffff" stroke="#000000"/><path d="M113.53303,218.65518l3.66856,-6.31155l3.95076,6.31155z" data-paper-data="{&quot;index&quot;:null}" fill="#ffffff" stroke="#000000"/><path d="M98.29439,218.36162h7.47822l3.66856,13.06345z" fill="#ffffff" stroke="none"/><path d="M109.44117,231.57185l4.09186,-13.06345h7.47822z" data-paper-data="{&quot;index&quot;:null}" fill="#ffffff" stroke="none"/><path d="M109.81658,233.99582l9.443,2.52207l-9.44477,2.42706l-9.70789,-2.36488z" fill="#454445" stroke="none"/><path d="M105.40235,218.69685h7.875l-3.75,10.625z" fill="#ffc840" stroke="none"/><path d="M99.40235,218.69685l3.5,-5.375l3.25,5.375z" fill="#ffc840" stroke="#000000"/><path d="M109.65235,213.44685l-3.5,5.375l-3.25,-5.375z" data-paper-data="{&quot;index&quot;:null}" fill="#fffe68" stroke="#000000"/><path d="M106.27735,218.69685l3.25,-5.375l3.5,5.375z" data-paper-data="{&quot;index&quot;:null}" fill="#ff9240" stroke="#000000"/><path d="M116.40235,213.57185l-3.5,5.375l-3.25,-5.375z" data-paper-data="{&quot;index&quot;:null}" fill="#ffee40" stroke="#000000"/><path d="M113.02735,218.82185l3.25,-5.375l3.5,5.375z" data-paper-data="{&quot;index&quot;:null}" fill="#ffc940" stroke="#000000"/><path d="M99.52735,218.57185h6.625l3.25,11.125z" fill="#fffe68" stroke="none"/><path d="M109.40235,229.82185l3.625,-11.125h6.625z" data-paper-data="{&quot;index&quot;:null}" fill="#ff9240" stroke="none"/></g><g stroke-width="0" stroke-linecap="butt"><path d="M146.90371,275.6374c-3.21775,-4.14997 -4.20644,-10.62436 -4.20644,-10.62436l1.86513,-2.80501l14.37011,19.70372l-3.61256,0.73966c0,0 -6.2522,-4.22302 -8.41624,-7.014z" fill="#d28800" stroke="#fff900"/><path d="M192.28804,217.01503z" fill="url(#color-10)" stroke="none"/><path d="M167.92179,271.85681l-10.44669,-15.16687l10.90517,-11.92745l10.4445,-7.38437c0,0 5.04809,-0.11177 10.05459,6.54846c5.37417,7.14937 4.49586,12.93269 4.49586,12.93269l-10.83469,7.57552z" data-paper-data="{&quot;index&quot;:null}" fill="#ffa400" stroke="none"/><path d="M175.65362,254.59233c-3.47934,-4.81071 -6.11934,-7.78551 -6.11934,-7.78551l11.37131,-8.08011c0,0 3.35651,0.54746 7.66968,6.52871c4.04717,6.56111 3.72853,9.4068 3.72853,9.4068l-11.16417,8.11035c0,0 -2.00665,-3.36955 -5.486,-8.18025z" data-paper-data="{&quot;index&quot;:null}" fill="#fff900" stroke="#fff900"/><path d="M158.5249,282.08016c0,0 -5.78856,-1.03738 -10.91759,-8.4778c-4.77812,-6.93135 -3.08774,-11.70726 -3.08774,-11.70726l9.1729,-6.72579l15.31692,-8.22409l12.27201,15.73556l-12.66078,11.91802z" fill="#ffa400" stroke="none"/><path d="M159.16035,274.63692c0,0 2.38834,-1.20767 4.45445,-2.27306c0.35489,-0.18299 1.06472,-0.5643 1.50471,-0.79948c1.15501,-0.6173 2.17159,-1.17293 2.90162,-1.56314c2.27124,-1.27612 3.93415,-2.23047 4.74457,-2.6934c2.3138,-1.32168 3.92375,-2.30046 3.92375,-2.30046l0.51463,0.82564c0,0 -6.35333,5.13869 -8.18178,6.15141c-1.85028,1.02012 -3.58308,1.89713 -4.2881,2.23869c-2.1391,1.0363 -4.66969,2.09652 -4.66969,2.09652l-0.90416,-1.68274z" data-paper-data="{&quot;index&quot;:null}" fill="url(#color-11)" stroke="none"/><path d="M151.72006,263.69509l-1.30889,-1.39137c0,0 1.80839,-2.06344 3.46987,-3.76317c0.54761,-0.56021 1.92912,-1.9252 3.48362,-3.35618c1.54055,-1.41263 8.42961,-5.80716 8.42961,-5.80716l0.61968,0.75001c0,0 -1.43904,1.21618 -3.42659,2.99106c-0.69616,0.62166 -2.12883,1.89583 -4.05967,3.64479c-0.60168,0.56849 -1.45115,1.35624 -2.40304,2.2557c-0.36262,0.34264 -0.94946,0.89481 -1.23561,1.17329c-1.66591,1.6213 -3.56899,3.50303 -3.56899,3.50303z" fill="url(#color-12)" stroke="none"/><path d="M161.97117,264.41239c2.77391,3.87557 8.50427,4.59514 5.64327,6.64712c-1.73583,1.24498 -9.88469,10.20367 -9.88469,10.20367c0,0 -5.18267,-3.12074 -8.76371,-7.62986c-3.49899,-4.5544 -3.70294,-10.26718 -3.70294,-10.26718c0,0 10.70293,-5.00597 12.27923,-6.13652c2.86101,-2.05198 1.65494,3.30724 4.42886,7.1828z" data-paper-data="{&quot;index&quot;:null}" fill="#fff900" stroke="#fff900"/><path d="M162.45645,251.80764l6.84038,-4.94295c0,0 2.63728,1.46386 4.4657,3.07269c0.60263,0.53026 1.97636,1.93306 3.20389,3.65278c1.1998,1.7117 2.18556,3.60909 2.79614,4.94191c1.43914,3.14146 1.26343,4.53224 1.26343,4.53224l-6.84038,4.94295c0,0 -0.80725,-1.73806 -2.21071,-4.01053c-0.49157,-0.79596 -1.48744,-2.441 -2.92585,-4.61536c-0.51947,-0.64594 -1.20777,-1.57793 -2.02981,-2.59976c-0.31314,-0.38926 -0.81282,-1.02237 -1.08449,-1.31863c-1.58164,-1.72485 -3.47832,-3.65535 -3.47832,-3.65535z" fill="url(#color-13)" stroke="none"/><path d="M159.20851,266.55179c3.52709,0.96387 5.35079,5.99707 5.35079,5.99707l-6.77497,4.18193c0,0 -4.26016,-2.53859 -5.52664,-4.20216c-1.25849,-1.69737 -3.13222,-6.81357 -3.13222,-6.81357l5.44022,-5.86705c0,0 2.74973,5.68614 4.64281,6.70379z" data-paper-data="{&quot;index&quot;:null}" fill="#000000" stroke="none"/><path d="M167.8143,244.39864c0.22976,0.31766 1.43096,1.48942 0.68309,2.03033c-0.38721,0.28005 -1.72078,-0.81297 -2.93349,-1.55619c-1.59044,-0.97471 -3.03865,-1.75365 -2.53084,-2.12092c0.89502,-0.64732 3.38363,-0.28563 4.78125,1.64678z" fill="#fff900" stroke="none"/><path d="M162.94639,273.33432c0,0 -1.29768,-0.72576 -3.55194,-2.79493c-1.65616,-1.52018 -2.27933,-2.42926 -2.80112,-3.14571c-0.60735,-0.83395 -1.37376,-2.03386 -2.03166,-3.87998c-0.45249,-1.26974 -0.83929,-2.84491 -0.83929,-2.84491l8.86861,-8.89587c0,0 4.46901,5.13688 6.24785,7.58555c2.08917,2.87583 5.50656,8.59492 5.50656,8.59492z" fill="#ffe200" stroke="none"/><path d="M174.33703,267.62742c0,0 -9.69902,6.19011 -11.44401,5.45577c-0.84742,-0.35661 -2.7666,-1.96089 -3.99075,-3.23568c-0.66007,-0.68736 -1.18902,-1.44303 -1.37158,-1.69417c2.99972,-1.9303 0.4178,-0.51016 5.37219,-3.97217c1.18181,-0.76962 2.39378,-1.71213 6.22141,-4.54522c1.1155,1.53783 3.46403,5.24931 3.46403,5.24931z" fill="#fff900" stroke="none"/><path d="M179.89256,240.11651c1.34352,-0.59111 2.78818,-0.26222 3.22674,0.73459c0.43856,0.9968 -0.29505,2.28405 -1.63857,2.87516c-1.34352,0.59111 -2.78818,0.26222 -3.22674,-0.73459c-0.43856,-0.9968 0.29505,-2.28405 1.63857,-2.87516z" fill="#ffffff" stroke="none"/><path d="M187.61163,255.73079c-0.80614,-0.73218 -0.65964,-2.20656 0.32722,-3.29309c0.98686,-1.08654 2.44037,-1.37379 3.24651,-0.64161c0.80614,0.73218 0.65964,2.20655 -0.32721,3.29308c-0.98686,1.08654 -2.44037,1.37381 -3.24651,0.64162z" data-paper-data="{&quot;index&quot;:null}" fill="#ffffff" stroke="none"/><path d="M182.79997,270.61163c-0.50942,0.36503 -0.78859,-1.2555 -1.20829,-3.07303c-0.32003,-1.38587 -0.93342,-2.99734 -0.54498,-3.27568c0.75026,-0.5376 1.48032,0.97333 1.70867,1.29201c1.3891,1.93855 0.94246,4.41333 0.04461,5.0567z" data-paper-data="{&quot;index&quot;:null}" fill="#fff900" stroke="none"/><path d="M174.42315,260.80505l-2.95486,-4.32306l1.54642,-7.24889c0,0 1.04522,0.73404 1.91625,1.56781c0.97434,1.02091 1.32095,1.73876 1.32095,1.73876z" fill="url(#color-14)" stroke="none"/><path d="M176.92201,263.46072l-0.89329,-1.14335l1.5015,-7.78532l0.69609,1.04085z" fill="url(#color-15)" stroke="none"/></g><path d="M226.89823,150.36037c-3.47472,-3.93719 -4.9108,-10.30636 -4.9108,-10.30636l1.64484,-2.88841l15.60065,18.74449l-3.51848,0.93718c0,0 -6.47935,-3.83901 -8.81622,-6.48688z" fill="#2d2652" stroke="#fff900" stroke-width="0" stroke-linecap="butt"/><path d="M268.4354,88.95192z" fill="url(#color-16)" stroke="none" stroke-width="0" stroke-linecap="butt"/><path d="M48.83641,172.50003c0,-7.54622 6.11742,-13.66364 13.66364,-13.66364c7.54622,0 13.66364,6.11742 13.66364,13.66364c0,7.54622 -6.11742,13.66364 -13.66364,13.66364c-7.54622,0 -13.66364,-6.11742 -13.66364,-13.66364z" fill="#000000" stroke="#ffcc0d" stroke-width="2" stroke-linecap="butt"/><path d="M247.63116,145.24149l-11.39652,-14.46674l10.11897,-12.60132l9.95018,-8.03806c0,0 5.03057,-0.43481 10.4533,5.89114c5.82097,6.79054 5.31482,12.61824 5.31482,12.61824l-10.32733,8.25381z" data-paper-data="{&quot;index&quot;:null}" fill="#514494" stroke="none" stroke-width="0" stroke-linecap="butt"/><path d="M251.29289,129.73281c-4.6649,-5.64845 -8.47382,-5.72831 -5.00549,-8.59183c1.2954,-1.0695 11.98541,-10.07896 11.98541,-10.07896c0,0 1.1017,0.11934 2.0561,0.51941c2.41488,1.01226 4.57919,2.65585 6.67394,5.19223c1.83462,2.22144 2.69758,4.14969 3.34398,6.43667c0.16843,0.59588 0.7696,3.57701 0.7696,3.57701c0,0 -10.89282,8.6674 -12.64173,10.11132c-3.46834,2.86353 -2.51689,-1.5174 -7.1818,-7.16583z" data-paper-data="{&quot;index&quot;:null}" fill="#8067ff" stroke="#fff900" stroke-width="0" stroke-linecap="butt"/><path d="M238.90825,156.04562c0,0 -5.84311,-0.66456 -11.43809,-7.76125c-5.21219,-6.61114 -3.83111,-11.48549 -3.83111,-11.48549l8.72336,-7.29941l14.75882,-9.18809l13.2545,14.91738l-11.87159,12.70434z" fill="#514494" stroke="none" stroke-width="0" stroke-linecap="butt"/><path d="M239.06574,148.57697c0,0 2.3061,-1.35814 4.29974,-2.55365c0.34244,-0.20534 1.02639,-0.63133 1.45043,-0.8942c1.1131,-0.69 2.09202,-1.30959 2.79556,-1.74574c2.18485,-1.41895 3.78324,-2.47783 4.56235,-2.99171c2.22442,-1.46714 3.76838,-2.54701 3.76838,-2.54701l0.56645,0.79099c0,0 -6.01122,5.535 -7.77106,6.66273c-1.78115,1.13651 -3.45423,2.12269 -4.13593,2.5087c-2.06834,1.17116 -4.52585,2.39126 -4.52585,2.39126l-1.01007,-1.62138z" data-paper-data="{&quot;index&quot;:null}" fill="url(#color-17)" stroke="none" stroke-width="0" stroke-linecap="butt"/><path d="M230.94002,138.13406l-1.39531,-1.30469c0,0 1.67254,-2.17501 3.22176,-3.97765c0.51061,-0.59413 1.80187,-2.04479 3.26154,-3.57237c1.44693,-1.50838 8.04042,-6.33506 8.04042,-6.33506l0.66644,0.70879c0,0 -1.3582,1.30584 -3.22801,3.20436c-0.65492,0.66497 -2.00305,2.02827 -3.81793,3.89728c-0.56404,0.60586 -1.36132,1.44639 -2.25366,2.40496c-0.33994,0.36515 -0.89021,0.95378 -1.15794,1.25c-1.55867,1.72466 -3.33734,3.72439 -3.33734,3.72439z" fill="url(#color-18)" stroke="none" stroke-width="0" stroke-linecap="butt"/><path d="M239.67248,139.22327c3.01641,3.68998 8.78108,4.0411 6.05735,6.27209c-1.65254,1.35358 -9.21098,10.81573 -9.21098,10.81573c0,0 -5.37187,-2.78245 -9.23433,-7.05299c-3.78346,-4.32099 -4.35284,-10.00897 -4.35284,-10.00897c0,0 10.36039,-5.68109 11.86106,-6.91027c2.72373,-2.23098 1.86333,3.19447 4.87974,6.88444z" data-paper-data="{&quot;index&quot;:null}" fill="#8067ff" stroke="#fff900" stroke-width="0" stroke-linecap="butt"/><path d="M234.27762,155.01705c0,0 -4.38598,-2.60565 -6.98163,-5.55324c-2.53486,-2.87857 -3.7467,-7.09823 -3.7467,-7.09823c0,0 5.03357,3.41122 7.39711,1.46827c6.3301,-5.20364 34.92514,-28.71013 34.92514,-28.71013c0,0 0.96996,1.03508 1.41942,1.58182c0.44945,0.54675 1.27729,1.69866 1.27729,1.69866c0,0 -28.41854,23.36139 -34.79457,28.60279c-2.41693,1.98683 0.50393,8.01005 0.50393,8.01005z" fill="#534699" stroke="none" stroke-width="0" stroke-linecap="butt"/><path d="M240.89313,125.58347l6.5098,-5.37085c0,0 2.72561,1.29196 4.65331,2.78041c0.63535,0.49058 2.09609,1.80253 3.43123,3.44011c1.30695,1.63135 2.41219,3.46172 3.10688,4.75271c1.63736,3.04285 1.55107,4.44203 1.55107,4.44203l-6.5098,5.37085c0,0 -0.91689,-1.6828 -2.463,-3.86073c-0.54153,-0.76285 -1.6407,-2.34074 -3.2154,-4.41852c-0.55977,-0.61135 -1.30634,-1.49735 -2.19212,-2.46444c-0.33743,-0.36841 -0.87662,-0.96822 -1.16671,-1.24647c-1.68885,-1.62002 -3.70526,-3.4251 -3.70526,-3.4251z" fill="url(#color-19)" stroke="none" stroke-width="0" stroke-linecap="butt"/><path d="M238.59605,140.50534c3.58157,0.73602 5.72385,5.6421 5.72385,5.6421l-6.49326,4.60721c0,0 -4.84334,-2.78287 -6.21375,-4.36193c-1.3646,-1.61329 -3.13276,-6.0767 -3.13276,-6.0767l5.05334,-6.20339c0,0 3.10822,5.49838 5.06258,6.39271z" data-paper-data="{&quot;index&quot;:null}" fill="#000000" stroke="none" stroke-width="0" stroke-linecap="butt"/><path d="M245.76552,117.84657c0.24963,0.3023 1.5234,1.39472 0.8117,1.98242c-0.36848,0.30427 -1.76931,-0.7011 -3.02712,-1.36514c-1.6496,-0.87086 -3.14471,-1.55546 -2.66147,-1.95449c0.85173,-0.70331 3.35839,-0.50173 4.87689,1.33722z" fill="#8067ff" stroke="none" stroke-width="0" stroke-linecap="butt"/><path d="M242.96649,147.10436c0,0 -1.53709,-0.71939 -3.92527,-2.63497c-1.75456,-1.40735 -2.43441,-2.27486 -3.00106,-2.95639c-0.65956,-0.7933 -1.50047,-1.9423 -2.26993,-3.74686c-0.52922,-1.24116 -1.01019,-2.79319 -1.01019,-2.79319l8.40154,-9.54485c0,0 4.7949,4.83513 6.72702,7.16476c2.26919,2.73602 6.04028,8.22907 6.04028,8.22907z" fill="#8067ff" stroke="none" stroke-width="0" stroke-linecap="butt"/><path d="M257.54477,112.79975c1.30291,-0.67593 2.76566,-0.44023 3.26716,0.52644c0.5015,0.96667 -0.14818,2.29826 -1.45109,2.97419c-1.30291,0.67593 -2.76566,0.44023 -3.26716,-0.52644c-0.5015,-0.96667 0.14818,-2.29826 1.45109,-2.97419z" fill="#ffffff" stroke="none" stroke-width="0" stroke-linecap="butt"/><path d="M262.39907,143.04609c-0.485,0.3969 -0.86737,-1.20242 -1.4026,-2.98934c-0.40812,-1.36253 -1.12345,-2.93141 -0.75364,-3.23406c0.7143,-0.58455 1.53962,0.87653 1.7879,1.17993c1.51039,1.84562 1.22315,4.34392 0.36834,5.04347z" data-paper-data="{&quot;index&quot;:null}" fill="#8067ff" stroke="none" stroke-width="0" stroke-linecap="butt"/><path d="M253.41145,133.79608l-3.22563,-4.12497l1.07903,-7.33304c0,0 1.09008,0.6656 2.01272,1.44188c1.03772,0.95642 1.42959,1.6506 1.42959,1.6506z" fill="url(#color-20)" stroke="none" stroke-width="0" stroke-linecap="butt"/><path d="M256.07524,136.28628l-0.96467,-1.0838l0.99986,-7.86549l0.76132,0.99414z" fill="url(#color-21)" stroke="none" stroke-width="0" stroke-linecap="butt"/><path d="M238.04173,143.49845c0,0 -1.04305,-0.98519 -1.4875,-1.52585c-0.43469,-0.52879 -1.15059,-1.68332 -1.15059,-1.68332l11.1256,-9.14578c0,0 0.9462,0.86736 1.37026,1.38323c0.45334,0.55148 1.26783,1.82594 1.26783,1.82594z" fill="#534699" stroke="none" stroke-width="0" stroke-linecap="butt"/><path d="M242.80858,146.64998l-3.52711,-2.83688c0,0 4.73704,-3.6761 6.34403,-5.0726c1.76978,-1.53796 4.18036,-2.6229 4.18036,-2.6229l3.12764,4.24082c0,0 -3.08505,1.37301 -5.23562,2.44216c-1.92302,1.24376 -4.88931,3.84939 -4.88931,3.84939z" fill="url(#color-22)" stroke="none" stroke-width="0" stroke-linecap="butt"/><path d="M260.93317,134.12165l-2.4858,-4.76844c0,0 3.97313,-2.57011 5.58012,-3.9666c1.76978,-1.53796 4.82399,-5.18361 4.82399,-5.18361c0,0 0.66454,1.55532 0.93472,2.15458c0.18987,0.42115 0.09576,1.85587 -0.02541,3.04804c-0.09695,0.95384 -0.21121,1.75244 -0.21121,1.75244z" fill="url(#color-23)" stroke="none" stroke-width="0" stroke-linecap="butt"/><path d="M266.24791,127.88767c-0.85137,-0.67906 -0.79959,-2.15979 0.11567,-3.30729c0.91525,-1.14751 2.34739,-1.52725 3.19876,-0.84819c0.85137,0.67906 0.79959,2.15977 -0.11566,3.30728c-0.91525,1.14751 -2.34739,1.52727 -3.19876,0.84821z" data-paper-data="{&quot;index&quot;:null}" fill="#ffffff" stroke="none" stroke-width="0" stroke-linecap="butt"/><path d="M253.94114,124.45305l-0.2345,-0.28526l11.62433,-9.55575l0.2345,0.28526z" fill="#534699" stroke="none" stroke-width="0" stroke-linecap="butt"/><path d="M257.21957,128.70861l-0.2345,-0.28526l11.62433,-9.55575l0.2345,0.28526z" fill="#534699" stroke="none" stroke-width="0" stroke-linecap="butt"/><path d="M233.59705,150.38555c0,0 -2.34847,-2.0583 -3.12242,-2.99979c-0.98097,-1.19332 -2.2982,-3.59426 -2.2982,-3.59426l0.45701,-0.37569c0,0 1.43517,2.54438 2.29821,3.59425c0.93764,1.14061 3.12241,2.9998 3.12241,2.9998z" fill="#8067ff" stroke="none" stroke-width="0" stroke-linecap="butt"/><path d="M233.73346,152.26031c0,0 -2.94905,-2.7889 -3.96056,-4.01937c-1.28205,-1.55958 -3.12382,-4.5986 -3.12382,-4.5986l0.45701,-0.37569c0,0 1.99589,3.22649 3.12383,4.5986c1.22543,1.49071 3.96055,4.01937 3.96055,4.01937z" fill="#8067ff" stroke="none" stroke-width="0" stroke-linecap="butt"/><path d="M233.90473,153.77818c0,0 -3.81253,-3.44002 -5.13055,-5.04335c-1.67055,-2.03219 -4.0049,-5.93658 -4.0049,-5.93658l0.66007,0.00442c0,0 2.26681,3.82225 3.73655,5.61015c1.59677,1.94243 5.13055,5.04335 5.13055,5.04335z" fill="#8067ff" stroke="none" stroke-width="0" stroke-linecap="butt"/><g stroke-width="0" stroke-linecap="butt"><path d="M370.81465,144.48013c-3.70025,-3.72604 -5.5084,-9.99973 -5.5084,-9.99973l1.47214,-2.98014l16.67596,17.79462l-3.45728,1.14247c0,0 -6.6939,-3.45133 -9.18244,-5.9572z" fill="#00596f" stroke="#fff900"/><path d="M408.66867,80.73525z" fill="url(#color-24)" stroke="none"/><path d="M391.21067,138.15086l-12.22754,-13.77151l9.3604,-13.17458l9.46026,-8.60929c0,0 4.9963,-0.7299 10.78165,5.2662c6.21023,6.43647 6.04767,12.28385 6.04767,12.28385l-9.82407,8.84685z" data-paper-data="{&quot;index&quot;:null}" fill="#0088aa" stroke="none"/><path d="M393.95403,122.45369c-4.989,-5.36435 -8.79602,-5.22007 -5.50209,-8.2826c1.23026,-1.14383 11.37195,-10.76635 11.37195,-10.76635c0,0 1.10682,0.05434 2.08308,0.39759c2.47022,0.8685 4.72745,2.38196 6.96773,4.79076c1.96208,2.1097 2.93694,3.98387 3.71672,6.22889c0.20318,0.58495 0.97862,3.52555 0.97862,3.52555c0,0 -10.36427,9.29297 -12.02523,10.83725c-3.29393,3.06253 -2.60177,-1.36677 -7.59078,-6.73109z" data-paper-data="{&quot;index&quot;:null}" fill="#002b36" stroke="#fff900"/><path d="M383.13821,149.44926c0,0 -5.87208,-0.31979 -11.87471,-7.07517c-5.59195,-6.29319 -4.49992,-11.24032 -4.49992,-11.24032l8.27901,-7.79978l14.19295,-10.04011l14.10881,14.1121l-11.10393,13.38049z" fill="#0088aa" stroke="none"/><path d="M382.85622,141.98427c0,0 2.22224,-1.4914 4.14213,-2.80209c0.32977,-0.22513 0.98749,-0.6906 1.39533,-0.97795c1.0706,-0.75427 2.01139,-1.43035 2.68806,-1.90712c2.09763,-1.54498 3.63097,-2.69602 4.37852,-3.25483c2.13429,-1.59541 3.61208,-2.76422 3.61208,-2.76422l0.61198,0.75631c0,0 -5.67531,5.87893 -7.36579,7.1082c-1.71123,1.23929 -3.32342,2.32215 -3.98124,2.74758c-1.99589,1.29076 -4.37739,2.65328 -4.37739,2.65328l-1.10367,-1.55918z" data-paper-data="{&quot;index&quot;:null}" fill="url(#color-25)" stroke="none"/><path d="M374.13045,132.03729l-1.46962,-1.22038c0,0 1.54174,-2.2696 2.98227,-4.16023c0.47479,-0.62313 1.6785,-2.14721 3.04582,-3.75799c1.35572,-1.59086 7.65396,-6.79693 7.65396,-6.79693l0.70697,0.66837c0,0 -1.27906,1.38345 -3.03399,3.38864c-0.61468,0.70233 -1.88031,2.14255 -3.58213,4.11506c-0.52743,0.63798 -1.2739,1.52394 -2.10833,2.53332c-0.31787,0.38451 -0.83258,1.00448 -1.08242,1.31594c-1.45455,1.81334 -3.11254,3.91421 -3.11254,3.91421z" fill="url(#color-26)" stroke="none"/><path d="M382.91184,132.61108c3.22818,3.50621 9.00353,3.51772 6.41571,5.90501c-1.57008,1.44842 -8.55899,11.33868 -8.55899,11.33868c0,0 -5.5262,-2.46173 -9.63312,-6.49774c-4.03101,-4.09102 -4.93391,-9.73567 -4.93391,-9.73567c0,0 10.00838,-6.28052 11.43416,-7.59583c2.58782,-2.3873 2.04796,3.07936 5.27615,6.58556z" data-paper-data="{&quot;index&quot;:null}" fill="#00afda" stroke="#fff900"/><path d="M372.73168,145.12509c0,0 -1.09186,-1.044 -1.57269,-1.56337c-0.48083,-0.51937 -1.31227,-1.55285 -1.31227,-1.55285l37.80161,-34.99634c0,0 1.02915,0.97624 1.50998,1.49561c0.48083,0.51937 1.37498,1.6206 1.37498,1.6206z" fill="#fff900" stroke="none"/><path d="M383.32826,118.9231l6.18269,-5.74438c0,0 2.79687,1.12944 4.80876,2.50195c0.6631,0.45237 2.19846,1.67615 3.62759,3.23238c1.40062,1.55167 2.61159,3.31387 3.38099,4.56177c1.81347,2.94129 1.80961,4.34313 1.80961,4.34313l-6.18269,5.74438c0,0 -1.01427,-1.62597 -2.68578,-3.70921c-0.58545,-0.72968 -1.77552,-2.2402 -3.46968,-4.22178c-0.59475,-0.57738 -1.39213,-1.41794 -2.33325,-2.33126c-0.35851,-0.34793 -0.93205,-0.915 -1.23799,-1.17571c-1.7812,-1.5179 -3.90027,-3.20127 -3.90027,-3.20127z" fill="url(#color-27)" stroke="none"/><path d="M381.91267,133.95424c3.61866,0.52413 6.04574,5.29573 6.04574,5.29573l-6.21108,4.98109c0,0 -4.53928,-1.99708 -6.00018,-3.49281c-1.45711,-1.53025 -3.94403,-6.3781 -3.94403,-6.3781l4.67979,-6.48983c0,0 3.42618,5.30608 5.42976,6.08393z" data-paper-data="{&quot;index&quot;:null}" fill="#000000" stroke="none"/><path d="M387.73723,110.91307c0.26697,0.28709 1.60279,1.30272 0.92688,1.93125c-0.34995,0.32541 -1.80747,-0.59584 -3.10216,-1.18476c-1.69796,-0.77235 -3.23074,-1.36783 -2.7718,-1.7946c0.80889,-0.75218 3.32307,-0.69836 4.94709,1.04811z" fill="#00cbff" stroke="none"/><path d="M386.66362,140.28482c0,0 -1.57674,-0.62774 -4.07344,-2.39957c-1.83428,-1.30173 -2.56398,-2.12776 -3.16972,-2.77479c-0.70507,-0.75314 -1.61209,-1.85071 -2.48634,-3.60689c-0.60129,-1.20789 -1.1727,-2.72895 -1.1727,-2.72895l7.82569,-10.02241c0,0 5.07094,4.54478 7.13672,6.75675c2.42616,2.59784 6.51376,7.85962 6.51376,7.85962z" fill="#00afda" stroke="none"/><path d="M399.1993,105.18227c1.26091,-0.75138 2.73499,-0.60211 3.29246,0.3334c0.55748,0.93551 -0.01277,2.303 -1.27367,3.05438c-1.26091,0.75138 -2.73499,0.60211 -3.29246,-0.3334c-0.55748,-0.93551 0.01277,-2.303 1.27367,-3.05438z" fill="#ffffff" stroke="none"/><path d="M405.82391,135.09079c-0.46082,0.42474 -0.93658,-1.14933 -1.57597,-2.90168c-0.48754,-1.33617 -1.2939,-2.86027 -0.94252,-3.18414c0.67869,-0.62554 1.5885,0.78448 1.8542,1.07275c1.61631,1.7536 1.47649,4.26447 0.66429,5.01308z" data-paper-data="{&quot;index&quot;:null}" fill="#00cbff" stroke="none"/><path d="M396.30787,126.38534l-3.46263,-3.92813l0.64593,-7.38381c0,0 1.12734,0.60035 2.09403,1.32103c1.09217,0.89374 1.52418,1.56368 1.52418,1.56368z" fill="url(#color-28)" stroke="none"/><path d="M399.1135,128.71457l-1.02674,-1.0252l0.53558,-7.91068l0.81847,0.94765z" fill="url(#color-29)" stroke="none"/><path d="M381.53533,136.97477c0,0 -1.09918,-0.92215 -1.57466,-1.43574c-0.46503,-0.50231 -1.24759,-1.61274 -1.24759,-1.61274l10.56851,-9.78422c0,0 0.99557,0.81022 1.44923,1.30025c0.48499,0.52387 1.37302,1.74822 1.37302,1.74822z" fill="#fff900" stroke="none"/><path d="M386.47926,139.84051l-3.68784,-2.62455c0,0 4.51266,-3.94831 6.03475,-5.43689c1.67627,-1.63938 4.01888,-2.8642 4.01888,-2.8642l3.37162,4.04956c0,0 -2.99897,1.55205 -5.08294,2.74583c-1.84655,1.3547 -4.65447,4.13026 -4.65447,4.13026z" fill="url(#color-30)" stroke="none"/><path d="M377.09434,146.66207l-3.32951,-1.82404l2.84022,-2.50364l4.26301,2.59528c0,0 -0.7506,0.8544 -1.8115,1.10103c-0.85186,0.43382 -1.96222,0.63135 -1.96222,0.63135z" fill="url(#color-31)" stroke="none"/><path d="M403.83572,126.26801l-2.76192,-4.61401c0,0 3.81511,-2.79931 5.3372,-4.28789c1.67627,-1.63938 4.5108,-5.45832 4.5108,-5.45832c0,0 0.75486,1.51355 1.05981,2.09588c0.21431,0.40926 0.20473,1.84703 0.15388,3.04426c-0.04069,0.95789 -0.10779,1.76183 -0.10779,1.76183z" fill="url(#color-32)" stroke="none"/><path d="M408.77466,119.73227c-0.88983,-0.62782 -0.92522,-2.10903 -0.07902,-3.30836c0.84619,-1.19935 2.25351,-1.66265 3.14335,-1.03484c0.88983,0.62782 0.92522,2.10901 0.07903,3.30836c-0.84619,1.19935 -2.25351,1.66267 -3.14334,1.03485z" data-paper-data="{&quot;index&quot;:null}" fill="#ffffff" stroke="none"/><path d="M396.28722,117.02731l-0.25087,-0.27097l11.04227,-10.22281l0.25086,0.27098z" fill="#fff900" stroke="none"/><path d="M399.81024,121.08271l-0.25086,-0.27098l11.04226,-10.22281l0.25087,0.27097z" fill="#fff900" stroke="none"/></g><g stroke-width="0" stroke-linecap="butt"><path d="M65.89789,172.143c-2.69143,-4.50903 -2.93176,-11.03367 -2.93176,-11.03367l2.14795,-2.53668l11.88757,21.2937l-3.63082,0.27416c0,0 -5.66288,-4.96506 -7.47296,-7.99752z" fill="#800000" stroke="#fff900"/><path d="M118.01941,119.4203z" fill="url(#color-33)" stroke="none"/><path d="M87.21858,170.92411l-8.54179,-16.31579l12.26372,-10.52559l11.25865,-6.07119c0,0 5.02474,0.4977 9.19168,7.71298c4.47295,7.74518 2.90375,13.38042 2.90375,13.38042l-11.66904,6.2139z" data-paper-data="{&quot;index&quot;:null}" fill="#b50000" stroke="none"/><path d="M93.66983,156.35329c-3.54662,-6.40997 -7.2759,-7.18891 -3.34013,-9.36579c1.30349,-0.72096 12.02506,-6.4434 12.02506,-6.4434c0,0 2.57775,-0.2947 3.64837,0.40961c2.18754,1.43908 3.89926,2.67208 5.49185,5.55042c1.39482,2.52093 1.88846,4.57499 2.10328,6.94185c0.16168,1.78136 -1.0102,4.01039 -1.0102,4.01039c0,0 -11.95373,6.58486 -13.17668,7.26127c-3.93577,2.17688 -2.19493,-1.95437 -5.74156,-8.36433z" data-paper-data="{&quot;index&quot;:null}" fill="#fd0000" stroke="#fff900"/><path d="M76.6576,179.93988c0,0 -5.62125,-1.72775 -9.81576,-9.7323c-3.90754,-7.45689 -1.65365,-11.99414 -1.65365,-11.99414l9.91692,-5.57074l16.19677,-6.31731l10.28522,17.10042l-14.00539,10.30455z" fill="#b50000" stroke="none"/><path d="M80.44968,163.25783c2.28639,4.18175 7.88819,5.58698 4.80064,7.27904c-1.87327,1.02661 -11.04285,8.93742 -11.04285,8.93742c0,0 -4.76858,-3.72286 -7.77984,-8.63086c-2.92432,-4.94306 -2.43801,-10.63874 -2.43801,-10.63874c0,0 11.22843,-3.67898 12.92954,-4.61123c3.08755,-1.69206 1.2441,3.48265 3.53051,7.66439z" data-paper-data="{&quot;index&quot;:null}" fill="#fd0000" stroke="#fff900"/><path d="M78.18585,172.62756c0,0 2.51652,-0.91089 4.69602,-1.7194c0.37436,-0.13887 1.12499,-0.43181 1.59013,-0.61222c1.22101,-0.47354 2.29717,-0.90254 3.06892,-1.20188c2.40853,-0.99297 4.17438,-1.73985 5.03471,-2.10169c2.45628,-1.03305 4.1725,-1.81059 4.1725,-1.81059l0.41133,0.88166c0,0 -6.92656,4.33517 -8.86378,5.12005c-1.95978,0.78958 -3.78568,1.45128 -4.52674,1.70534c-2.24844,0.77083 -4.88841,1.5182 -4.88841,1.5182l-0.69468,-1.77948z" data-paper-data="{&quot;index&quot;:null}" fill="url(#color-34)" stroke="none"/><path d="M72.11912,160.86847l-1.13158,-1.53903c0,0 2.04399,-1.83034 3.89829,-3.31735c0.61116,-0.4901 2.14717,-1.67856 3.86286,-2.91167c1.69963,-1.21658 9.06829,-4.74842 9.06829,-4.74842l0.52473,0.81926c0,0 -1.57518,1.0338 -3.76223,2.55609c-0.76603,0.53319 -2.34188,1.62532 -4.46951,3.12872c-0.66583,0.4918 -1.60409,1.17138 -2.65748,1.94951c-0.40129,0.29641 -1.05042,0.77381 -1.36806,1.01575c-1.84924,1.40861 -3.96532,3.04716 -3.96532,3.04716z" fill="url(#color-35)" stroke="none"/><path d="M67.60256,173.23163c0,0 -0.80758,-1.27668 -1.14882,-1.89676c-0.34124,-0.62007 -0.89863,-1.82369 -0.89863,-1.82369l45.1313,-24.8369c0,0 0.76308,1.1958 1.10432,1.81587c0.34124,0.62007 0.94314,1.90457 0.94314,1.90457z" fill="#ff8800" stroke="none"/><path d="M84.21047,150.36225l7.38646,-4.08213c0,0 2.44154,1.77116 4.06264,3.58871c0.5343,0.59905 1.72887,2.15725 2.74009,4.01243c0.98466,1.84387 1.73446,3.84627 2.17989,5.24299c1.04987,3.29206 0.70775,4.65151 0.70775,4.65151l-7.38646,4.08213c0,0 -0.5918,-1.82272 -1.71103,-4.24782c-0.39201,-0.84942 -1.18227,-2.60254 -2.34802,-4.93446c-0.43779,-0.70386 -1.0087,-1.71205 -1.70154,-2.82553c-0.26392,-0.42418 -0.68362,-1.11292 -0.91759,-1.43977c-1.36214,-1.90297 -3.01221,-4.04806 -3.01221,-4.04806z" fill="url(#color-36)" stroke="none"/><path d="M79.2085,164.60722c3.38514,1.38211 4.58868,6.59847 4.58868,6.59847l-7.22976,3.33456c0,0 -3.923,-3.03373 -4.97966,-4.83786c-1.04465,-1.83672 -2.28785,-7.14152 -2.28785,-7.14152l6.10793,-5.16831c0,0 2.04408,5.9762 3.80065,7.21467z" data-paper-data="{&quot;index&quot;:null}" fill="#000000" stroke="none"/><path d="M90.42254,143.6533c0.18978,0.34305 1.24094,1.65108 0.4333,2.09787c-0.41815,0.23132 -1.61021,-1.01451 -2.72446,-1.89853c-1.46132,-1.15936 -2.80504,-2.10723 -2.25666,-2.41059c0.96654,-0.53468 3.39338,0.12442 4.54781,2.21125z" fill="#fd0000" stroke="none"/><path d="M82.29088,171.89739c0,0 -1.37858,-0.98978 -3.37377,-3.31187c-1.46583,-1.706 -1.97456,-2.68374 -2.40621,-3.45785c-0.50243,-0.90107 -1.1177,-2.18511 -1.54219,-4.10039c-0.29195,-1.31731 -0.47931,-2.93132 -0.47931,-2.93132l10.01351,-7.83707c0,0 3.82397,5.63443 5.29473,8.27963c1.72735,3.10666 4.42398,9.19951 4.42398,9.19951z" fill="#fd0000" stroke="none"/><path d="M102.929,140.8587c1.40499,-0.4248 2.79945,0.07587 3.11463,1.11828c0.31518,1.04241 -0.56829,2.23182 -1.97328,2.65662c-1.40499,0.4248 -2.79945,-0.07587 -3.11463,-1.11828c-0.31518,-1.04241 0.56829,-2.23182 1.97328,-2.65662z" fill="#ffffff" stroke="none"/><path d="M102.13836,171.4819c-0.54971,0.30095 -0.63146,-1.34142 -0.82896,-3.19629c-0.1506,-1.41434 -0.56522,-3.08801 -0.14606,-3.31749c0.80961,-0.44322 1.35217,1.14471 1.54042,1.4886c1.14523,2.0919 0.40347,4.49477 -0.56541,5.02519z" data-paper-data="{&quot;index&quot;:null}" fill="#fd0000" stroke="none"/><path d="M95.00504,160.73686l-2.41206,-4.6478l2.40914,-7.00955c0,0 0.94909,0.85471 1.71324,1.78742c0.84414,1.13094 1.10167,1.88535 1.10167,1.88535z" fill="url(#color-37)" stroke="none"/><path d="M97.16547,163.67445l-0.74892,-1.24272l2.42924,-7.54748l0.56552,1.11719z" fill="url(#color-38)" stroke="none"/><path d="M78.11323,167.44735c0,0 -0.84409,-1.1602 -1.18154,-1.77337c-0.33003,-0.5997 -0.82141,-1.8662 -0.82141,-1.8662l12.61773,-6.94386c0,0 0.77055,1.02657 1.09252,1.61162c0.3442,0.62544 0.91043,2.02795 0.91043,2.02795z" fill="#ff8800" stroke="none"/><path d="M102.3386,162.4401l-1.56651,-5.14425c0,0 4.378,-1.79564 6.2144,-2.8728c2.02242,-1.18628 5.69496,-4.2081 5.69496,-4.2081c0,0 0.3672,1.651 0.52256,2.28972c0.19654,0.80804 -1.11537,4.6751 -1.11537,4.6751z" fill="url(#color-39)" stroke="none"/><path d="M108.70912,157.28977c-0.71198,-0.82404 -0.38878,-2.27 0.72189,-3.22961c1.11067,-0.95963 2.58821,-1.06953 3.30019,-0.24549c0.71198,0.82404 0.38879,2.26998 -0.72188,3.22961c-1.11067,0.95963 -2.58821,1.06955 -3.30019,0.24551z" data-paper-data="{&quot;index&quot;:null}" fill="#ffffff" stroke="none"/><path d="M82.21923,171.42172l-2.94527,-3.43712c0,0 5.33227,-2.74229 7.16867,-3.81945c2.02242,-1.18628 4.59141,-1.80942 4.59141,-1.80942l2.29444,4.74366c0,0 -3.28493,0.78226 -5.59544,1.43771c-2.11895,0.86892 -5.51381,2.88462 -5.51381,2.88462z" fill="url(#color-40)" stroke="none"/><path d="M71.46522,175.77622l-2.79076,-2.57378l3.36057,-1.74403l3.5105,3.54755c0,0 -0.93464,0.64796 -2.0237,0.63121c-0.93138,0.21537 -2.0566,0.13904 -2.0566,0.13904z" fill="url(#color-41)" stroke="none"/><path d="M99.68379,156.43644l-0.17804,-0.32352l13.03526,-7.17363l0.17804,0.32352z" fill="#ff8800" stroke="none"/><path d="M97.24384,151.65057l-0.17804,-0.32352l12.88717,-7.09214l0.17804,0.32352z" fill="#ff8800" stroke="none"/></g><path d="M150.09254,176.68768c0,0 29.39435,10.25641 54.69697,-4.18716c23.93341,-13.66199 25.59862,-15.84376 25.59862,-15.84376l1.2459,2.8093c0,0 -4.39526,2.767 -22.45844,13.43367c-25.78894,15.22888 -59.08304,3.78795 -59.08304,3.78795z" fill="#333233" stroke="none" stroke-width="NaN" stroke-linecap="butt"/><path d="M141.42587,162.02101c0,0 29.39435,10.25641 54.69697,-4.18716c23.93341,-13.66199 25.59862,-15.84376 25.59862,-15.84376l1.2459,2.8093c0,0 -4.39526,2.767 -22.45844,13.43367c-25.78894,15.22888 -59.08304,3.78795 -59.08304,3.78795z" fill="#333233" stroke="none" stroke-width="NaN" stroke-linecap="butt"/><g data-paper-data="{&quot;index&quot;:null}" fill="#2b2b2b" stroke="none" stroke-linecap="butt"><g data-paper-data="{&quot;index&quot;:null}" stroke-width="NaN"><path d="M296.16405,146.70019c0,0 22.15896,22.5573 50.11693,14.80506c17.24935,-6.757 24.43161,-9.24164 24.43161,-9.24164l3.92588,1.36834c0,0 -0.85509,2.69793 -26.11463,11.13653c-11.48133,4.46273 -27.32181,0.54172 -33.88293,-2.83748c-19.33425,-9.9578 -19.11136,-13.82597 -19.11136,-13.82597z" stroke-width="NaN"/></g><g data-paper-data="{&quot;index&quot;:null}" stroke-width="NaN"><path d="M298.77389,125.82171c0,0 13.88996,26.86697 41.84792,19.11474c17.24935,-6.757 24.43161,-9.24164 24.43161,-9.24164l1.92588,3.36834c0,0 1.14491,0.69793 -24.11463,9.13653c-11.48133,4.46273 -19.82181,0.54172 -26.38293,-2.83748c-19.33425,-9.9578 -17.70784,-19.54049 -17.70784,-19.54049z" stroke-width="NaN"/></g></g><g stroke-linecap="butt"><path d="M371.76175,205.40136c0,-10.167 8.24202,-18.40903 18.40902,-18.40903c10.167,0 18.40898,8.24203 18.40898,18.40903c0,10.167 -8.24202,18.40898 -18.40898,18.40898c-10.167,0 -18.40902,-8.24202 -18.40902,-18.40898z" fill="#428a47" stroke="#428a47" stroke-width="1.5"/><path d="M373.46175,203.40136c0,-10.167 8.24202,-18.40903 18.40902,-18.40903c10.167,0 18.40898,8.24203 18.40898,18.40903c0,10.167 -8.24202,18.40898 -18.40898,18.40898c-10.167,0 -18.40902,-8.24202 -18.40902,-18.40898z" fill="#9966ff" stroke="#000000" stroke-width="1.5"/><g stroke="#000000" stroke-width="0"><path d="M373.97882,204.06425c0,0 0.3592,-4.22413 0.3592,-7.47125c0,-2.88914 4.31036,-6.39365 4.31036,-6.39365c0,0 5.47482,-4.79193 7.91268,-4.79193c3.3106,0 5.47698,-0.87756 5.47698,-0.87756v19.53442z" fill="#fdd200"/><path d="M391.93856,204.42346v-20.13443c0,0 4.16635,1.47756 7.47698,1.47756c2.43782,0 5.91268,4.79193 5.91268,4.79193c0,0 4.31036,3.50455 4.31036,6.39365c0,3.24712 0.7592,7.67126 0.7592,7.67126z" data-paper-data="{&quot;index&quot;:null}" fill="#feaa01"/><path d="M409.99773,202.77116c0,0 -0.35919,4.22414 -0.35919,7.47126c0,2.88914 -4.31032,6.39365 -4.31032,6.39365c0,0 -2.47482,3.59193 -4.91268,3.59193c-3.31063,0 -8.67698,1.87757 -8.67698,1.87757l0.2,-19.33444z" data-paper-data="{&quot;index&quot;:null}" fill="#fdc308"/><path d="M392.03804,202.57116l-0.2,19.33442c0,0 -4.96635,-1.87755 -8.27698,-1.87755c-2.43782,0 -4.91268,-3.59193 -4.91268,-3.59193c0,0 -4.31032,-3.50455 -4.31032,-6.39364c0,-3.24712 -0.35919,-7.47126 -0.35919,-7.47126z" data-paper-data="{&quot;index&quot;:null}" fill="#ffdd00"/></g><path d="M383.84792,203.27698c0,-4.56828 3.70335,-8.27159 8.27163,-8.27159c4.56828,0 8.27159,3.70331 8.27159,8.27159c0,4.56828 -3.70331,8.27162 -8.27159,8.27162c-4.56828,0 -8.27163,-3.70334 -8.27163,-8.27162z" fill="#ff6703" stroke="#dc2a19" stroke-width="1"/><path d="M373.26175,203.21478c0,-10.27008 8.32552,-18.59557 18.5956,-18.59557c10.27008,0 18.5956,8.32552 18.5956,18.5956c0,10.27008 -8.32552,18.59561 -18.59556,18.59561c-10.27008,0 -18.59557,-8.32552 -18.59557,-18.59557z" fill="none" stroke="#51aa57" stroke-width="2"/></g><g stroke="none" stroke-width="0" stroke-linecap="butt"><path d="M212.43593,220.02861l-26.56256,20.9514l-3.52668,-1.9755l18.89768,-25.67769z" data-paper-data="{&quot;index&quot;:null}" fill="url(#color-42)"/><path d="M221.79883,239.10885l-29.37337,12.39642l-1.09965,-3.88985l26.56257,-20.9514z" data-paper-data="{&quot;index&quot;:null}" fill="url(#color-43)"/></g><g stroke="none" stroke-width="0" stroke-linecap="butt"><path d="M289.83381,91.54881l-25.5339,22.19348l-3.61681,-1.80519l17.65249,-26.54912z" data-paper-data="{&quot;index&quot;:null}" fill="url(#color-44)"/><path d="M300.09538,110.16117l-28.74922,13.78217l-1.28378,-3.83302l25.53391,-22.19348z" data-paper-data="{&quot;index&quot;:null}" fill="url(#color-45)"/></g><g stroke="none" stroke-width="0" stroke-linecap="butt"><path d="M430.31725,81.1919l-24.65268,23.16843l-3.6842,-1.66336l16.60805,-27.21468z" data-paper-data="{&quot;index&quot;:null}" fill="url(#color-46)"/><path d="M441.29394,99.39167l-28.19225,14.88834l-1.43168,-3.78027l24.65269,-23.16843z" data-paper-data="{&quot;index&quot;:null}" fill="url(#color-47)"/></g><path d="M221.38605,166.84289z" fill="none" stroke="#737173" stroke-width="1" stroke-linecap="butt"/><path d="M46.59644,172c0,-12.64929 10.25427,-22.90356 22.90356,-22.90356c12.64929,0 22.90356,10.25427 22.90356,22.90356c0,12.64929 -10.25427,22.90356 -22.90356,22.90356c-12.64929,0 -22.90356,-10.25427 -22.90356,-22.90356z" fill="url(#color-48)" stroke="#000000" stroke-width="0" stroke-linecap="butt"/><path d="M56.59644,181.5c0,-9.88787 7.56798,-17.90356 16.90356,-17.90356c9.33558,0 16.90356,8.01569 16.90356,17.90356c0,9.88787 -7.56798,17.90356 -16.90356,17.90356c-9.33558,0 -16.90356,-8.01569 -16.90356,-17.90356z" fill="url(#color-49)" stroke="#000000" stroke-width="0" stroke-linecap="butt"/><path d="M40.59644,159c0,-6.29801 5.10554,-11.40356 11.40356,-11.40356c6.29801,0 11.40356,5.10555 11.40356,11.40356c0,6.29801 -5.10555,11.40356 -11.40356,11.40356c-6.29801,0 -11.40356,-5.10555 -11.40356,-11.40356z" fill="url(#color-50)" stroke="#000000" stroke-width="0" stroke-linecap="butt"/><path d="M53.59644,174c0,-6.29801 5.10554,-11.40356 11.40356,-11.40356c6.29801,0 11.40356,5.10555 11.40356,11.40356c0,6.29801 -5.10555,11.40356 -11.40356,11.40356c-6.29801,0 -11.40356,-5.10555 -11.40356,-11.40356z" fill="url(#color-51)" stroke="#000000" stroke-width="0" stroke-linecap="butt"/><path d="M26.09644,171.5c0,-12.64929 10.25427,-22.90356 22.90356,-22.90356c12.64929,0 22.90356,10.25427 22.90356,22.90356c0,12.64929 -10.25427,22.90356 -22.90356,22.90356c-12.64929,0 -22.90356,-10.25427 -22.90356,-22.90356z" fill="url(#color-52)" stroke="#000000" stroke-width="0" stroke-linecap="butt"/><path d="M45.83641,158.50003c0,-7.54622 6.11742,-13.66364 13.66364,-13.66364c7.54622,0 13.66364,6.11742 13.66364,13.66364c0,7.54622 -6.11742,13.66364 -13.66364,13.66364c-7.54622,0 -13.66364,-6.11742 -13.66364,-13.66364z" fill="#000000" stroke="#ffcc0d" stroke-width="0" stroke-linecap="butt"/><path d="M35.67277,129.00001c0,-5.15131 4.17596,-9.32728 9.32727,-9.32728c5.15131,0 9.32728,4.17597 9.32728,9.32728c0,5.15131 -4.17597,9.32727 -9.32728,9.32727c-5.15131,0 -9.32727,-4.17596 -9.32727,-9.32727z" fill="#ffcc0d" stroke="#ffcc0d" stroke-width="2" stroke-linecap="butt"/><path d="M32.67277,157.00002c0,-5.15131 4.17596,-9.32728 9.32727,-9.32728c5.15131,0 9.32728,4.17597 9.32728,9.32728c0,5.15131 -4.17597,9.32727 -9.32728,9.32727c-5.15131,0 -9.32727,-4.17596 -9.32727,-9.32727z" fill="#ff900d" stroke="#ff900d" stroke-width="2" stroke-linecap="butt"/><path d="M41.83642,168.00003c0,-5.06094 4.1027,-9.16364 9.16364,-9.16364c5.06094,0 9.16364,4.1027 9.16364,9.16364c0,5.06094 -4.1027,9.16364 -9.16364,9.16364c-5.06094,0 -9.16364,-4.1027 -9.16364,-9.16364z" fill="#ff610d" stroke="#ff610d" stroke-width="2" stroke-linecap="butt"/><path d="M67.12505,130.25003c0,0.89747 0.72754,1.625 1.62501,1.625c0.89746,0 1.62501,-0.72754 1.62501,-1.625c0,-0.89747 -0.72754,-1.62501 -1.62501,-1.62501c-0.89746,0 -1.62501,0.72754 -1.62501,1.62501z" fill="#f5ff0c" stroke="#f5ff0c" stroke-width="2" stroke-linecap="butt"/><path d="M54.83642,189.00003c0,-3.95637 3.20727,-7.16364 7.16364,-7.16364c3.95637,0 7.16364,3.20727 7.16364,7.16364c0,3.95637 -3.20727,7.16364 -7.16364,7.16364c-3.95637,0 -7.16364,-3.20727 -7.16364,-7.16364z" fill="#ff610d" stroke="#ff610d" stroke-width="2" stroke-linecap="butt"/><path d="M52.50533,180.50002c0,-1.65393 1.34078,-2.99472 2.99471,-2.99472c1.65393,0 2.99472,1.34079 2.99472,2.99472c0,1.65393 -1.34079,2.99471 -2.99472,2.99471c-1.65393,0 -2.99471,-1.34078 -2.99471,-2.99471z" fill="#f5ff0c" stroke="#f5ff0c" stroke-width="2" stroke-linecap="butt"/><path d="M60.67277,163.00001c0,-5.15131 4.17596,-9.32728 9.32727,-9.32728c5.15131,0 9.32728,4.17597 9.32728,9.32728c0,5.15131 -4.17597,9.32727 -9.32728,9.32727c-5.15131,0 -9.32727,-4.17596 -9.32727,-9.32727z" fill="#ffcc0d" stroke="#ffcc0d" stroke-width="2" stroke-linecap="butt"/><path d="M48.09644,173.5c0,-7.40258 6.00097,-13.40356 13.40356,-13.40356c7.40259,0 13.40356,4.50098 13.40356,11.90356c0,7.40258 -6.00097,14.90356 -13.40356,14.90356c-7.40259,0 -13.40356,-6.00098 -13.40356,-13.40356z" fill="url(#color-53)" stroke="#000000" stroke-width="0" stroke-linecap="butt"/><path d="M50.83641,168.50003c0,-2.57566 2.08799,-4.66364 4.66364,-4.66364c2.57565,0 4.66364,2.08799 4.66364,4.66364c0,2.57566 -2.08799,4.66364 -4.66364,4.66364c-2.57565,0 -4.66364,-2.08798 -4.66364,-4.66364z" fill="#f5ff0c" stroke="#f5ff0c" stroke-width="2" stroke-linecap="butt"/></g></g></g></svg>