<svg version="1.1" xmlns="http://www.w3.org/2000/svg" xmlns:xlink="http://www.w3.org/1999/xlink" width="946.31035" height="929.22535" viewBox="0,0,946.31035,929.22535"><g transform="translate(229.40442,308.44927)"><g data-paper-data="{&quot;isPaintingLayer&quot;:true}" fill="#000000" fill-rule="nonzero" stroke="none" stroke-width="0" stroke-linecap="butt" stroke-linejoin="miter" stroke-miterlimit="10" stroke-dasharray="" stroke-dashoffset="0" style="mix-blend-mode: normal"><g><path d="M-39.1937,389.19392l-19.82384,-29.78487l574.13725,-432.67644l24.1999,28.32618z"/><path d="M4.00297,446.78949l-19.82384,-29.78487l574.13726,-432.67644l24.1999,28.32619z"/><path d="M-126.78696,274.00279l-19.82385,-29.78487l574.13725,-432.67644l24.1999,28.32618z"/><path d="M-83.59028,331.59836l-19.82384,-29.78487l574.13726,-432.67644l24.1999,28.32619z"/></g><path d="M138.39262,620.77608l-19.82384,-29.78486l574.13725,-432.67644l24.1999,28.32618z"/><path d="M50.79937,505.58496l-19.82385,-29.78487l574.13725,-432.67644l24.1999,28.32618z"/><path d="M93.99604,563.18052l-19.82385,-29.78486l574.13725,-432.67644l24.1999,28.32618z"/><path d="M-209.58058,154.01203l-19.82384,-29.78486l574.13725,-432.67644l24.1999,28.32618z"/><path d="M-166.3839,211.6076l-19.82385,-29.78486l574.13725,-432.67644l24.1999,28.32619z"/></g></g></svg>