<svg version="1.1" xmlns="http://www.w3.org/2000/svg" xmlns:xlink="http://www.w3.org/1999/xlink" width="341.04581" height="45.92187" viewBox="0,0,341.04581,45.92187"><g transform="translate(-82.46173,-203.12536)"><g data-paper-data="{&quot;isPaintingLayer&quot;:true}" fill="#000000" fill-rule="nonzero" stroke="none" stroke-width="1" stroke-linecap="square" stroke-linejoin="miter" stroke-miterlimit="10" stroke-dasharray="" stroke-dashoffset="0" style="mix-blend-mode: normal"><path d="M104.58673,249.04724c-3.09375,0 -5.98958,-0.58333 -8.6875,-1.75c-2.6875,-1.16667 -5.03646,-2.79167 -7.04687,-4.875c-2.01042,-2.08333 -3.57812,-4.52083 -4.70312,-7.3125c-1.125,-2.79167 -1.6875,-5.8125 -1.6875,-9.0625c0,-3.20833 0.5625,-6.19792 1.6875,-8.96875c1.125,-2.77083 2.69271,-5.19792 4.70313,-7.28125c2.01042,-2.08333 4.34896,-3.71354 7.01563,-4.89062c2.67708,-1.1875 5.58333,-1.78125 8.71875,-1.78125c2.94792,0 5.47917,0.38542 7.59375,1.15625c2.125,0.76042 4.25521,2.01563 6.39063,3.76563c0.3125,0.22917 0.55208,0.46875 0.71875,0.71875c0.17708,0.25 0.29167,0.5 0.34375,0.75c0.0625,0.25 0.09375,0.54688 0.09375,0.89063c0,0.71875 -0.26042,1.31771 -0.78125,1.79688c-0.51042,0.47917 -1.13021,0.75 -1.85937,0.8125c-0.72917,0.05208 -1.4375,-0.1875 -2.125,-0.71875c-1.41667,-1.22917 -2.88021,-2.16667 -4.39062,-2.8125c-1.5,-0.64583 -3.49479,-0.96875 -5.98437,-0.96875c-2.25,0 -4.36979,0.45833 -6.35937,1.375c-1.98958,0.91667 -3.73958,2.17708 -5.25,3.78125c-1.51042,1.60417 -2.6875,3.46875 -3.53125,5.59375c-0.83333,2.11458 -1.25,4.375 -1.25,6.78125c0,2.44792 0.41667,4.73438 1.25,6.85938c0.84375,2.11458 2.02083,3.97917 3.53125,5.59375c1.51042,1.60417 3.26042,2.85417 5.25,3.75c1.98958,0.89583 4.10938,1.34375 6.35938,1.34375c1.94792,0 3.79167,-0.33333 5.53125,-1c1.73958,-0.66667 3.41146,-1.59375 5.01563,-2.78125c0.6875,-0.5 1.36458,-0.71875 2.03125,-0.65625c0.67708,0.05208 1.24479,0.31771 1.70313,0.79688c0.45833,0.47917 0.6875,1.14063 0.6875,1.98438c0,0.375 -0.07812,0.74479 -0.23437,1.10938c-0.15625,0.36458 -0.38542,0.69792 -0.6875,1c-2.0625,1.64583 -4.27083,2.89063 -6.625,3.73437c-2.34375,0.84375 -4.81771,1.26563 -7.42187,1.26563zM149.75577,249.04724c-3.35417,0 -6.42708,-0.5625 -9.21875,-1.6875c-2.79167,-1.13542 -5.19271,-2.72396 -7.20312,-4.76562c-2,-2.04167 -3.55729,-4.46875 -4.67187,-7.28125c-1.10417,-2.8125 -1.65625,-5.90104 -1.65625,-9.26562c0,-3.35417 0.55208,-6.42708 1.65625,-9.21875c1.11458,-2.79167 2.67188,-5.20833 4.67188,-7.25c2.01042,-2.05208 4.41146,-3.64062 7.20313,-4.76562c2.79167,-1.125 5.86458,-1.6875 9.21875,-1.6875c3.36458,0 6.43229,0.5625 9.20313,1.6875c2.77083,1.125 5.16667,2.71354 7.1875,4.76563c2.03125,2.04167 3.59896,4.45833 4.70312,7.25c1.11458,2.79167 1.67188,5.86458 1.67188,9.21875c0,3.36458 -0.55729,6.45313 -1.67187,9.26563c-1.10417,2.8125 -2.67187,5.23958 -4.70312,7.28125c-2.02083,2.04167 -4.41667,3.63021 -7.1875,4.76562c-2.77083,1.125 -5.83854,1.6875 -9.20312,1.6875zM149.75577,243.65661c2.48958,0 4.77604,-0.44792 6.85938,-1.34375c2.08333,-0.90625 3.88542,-2.15104 5.40625,-3.73437c1.53125,-1.58333 2.70833,-3.44271 3.53125,-5.57812c0.82292,-2.14583 1.23438,-4.46354 1.23438,-6.95312c0,-2.47917 -0.41146,-4.78646 -1.23437,-6.92187c-0.82292,-2.14583 -2,-4.01042 -3.53125,-5.59375c-1.52083,-1.59375 -3.32292,-2.82812 -5.40625,-3.70312c-2.08333,-0.875 -4.36979,-1.3125 -6.85937,-1.3125c-2.47917,0 -4.76042,0.4375 -6.84375,1.3125c-2.08333,0.875 -3.88021,2.10938 -5.39062,3.70313c-1.51042,1.58333 -2.6875,3.44792 -3.53125,5.59375c-0.83333,2.13542 -1.25,4.44271 -1.25,6.92188c0,2.48958 0.41667,4.80729 1.25,6.95313c0.84375,2.13542 2.02083,3.99479 3.53125,5.57813c1.51042,1.58333 3.30729,2.82813 5.39063,3.73438c2.08333,0.89583 4.36458,1.34375 6.84375,1.34375zM184.78946,248.46911c-0.84375,0 -1.54167,-0.28646 -2.09375,-0.85937c-0.55208,-0.57292 -0.82812,-1.28125 -0.82812,-2.125v-38.8125c0,-0.875 0.27604,-1.58854 0.82813,-2.14062c0.55208,-0.55208 1.25,-0.82812 2.09375,-0.82812c0.91667,0 1.68229,0.35938 2.29688,1.07813l24.98438,33.25v-31.35937c0,-0.875 0.28646,-1.58854 0.85938,-2.14062c0.58333,-0.55208 1.29167,-0.82812 2.125,-0.82812c0.88542,0 1.59375,0.27604 2.125,0.82813c0.53125,0.55208 0.79688,1.26563 0.79688,2.14063v38.8125c0,0.84375 -0.26562,1.55208 -0.79687,2.125c-0.53125,0.57292 -1.23958,0.85938 -2.125,0.85938c-0.375,0 -0.78646,-0.08333 -1.23437,-0.25c-0.4375,-0.17708 -0.79167,-0.4375 -1.0625,-0.78125l-24.98437,-33.25v31.29688c0,0.84375 -0.28125,1.55208 -0.84375,2.125c-0.55208,0.57292 -1.26562,0.85938 -2.14062,0.85938zM242.68435,248.46911c-0.83333,0 -1.53646,-0.28646 -2.10937,-0.85937c-0.57292,-0.57292 -0.85937,-1.28125 -0.85937,-2.125v-41.78125h5.95313v41.78125c0,0.84375 -0.28646,1.55208 -0.85937,2.125c-0.57292,0.57292 -1.28125,0.85938 -2.125,0.85938zM227.32498,209.20349c-0.80208,0 -1.46354,-0.25521 -1.98437,-0.76562c-0.51042,-0.52083 -0.76562,-1.18229 -0.76562,-1.98437c0,-0.80208 0.25521,-1.45833 0.76563,-1.96875c0.52083,-0.52083 1.18229,-0.78125 1.98438,-0.78125h30.67187c0.80208,0 1.45833,0.26042 1.96875,0.78125c0.52083,0.51042 0.78125,1.16667 0.78125,1.96875c0,0.80208 -0.26042,1.46354 -0.78125,1.98438c-0.51042,0.51042 -1.16667,0.76563 -1.96875,0.76563zM270.32833,248.46911c-0.84375,0 -1.55208,-0.28646 -2.125,-0.85937c-0.57292,-0.57292 -0.85937,-1.28125 -0.85937,-2.125v-38.8125c0,-0.875 0.28646,-1.58854 0.85938,-2.14062c0.57292,-0.55208 1.28125,-0.82812 2.125,-0.82812h10.3125c2.86458,0 5.40625,0.60417 7.625,1.8125c2.21875,1.19792 3.94792,2.84896 5.1875,4.95313c1.23958,2.09375 1.85938,4.53646 1.85938,7.32813c0,2.60417 -0.61979,4.91667 -1.85937,6.9375c-1.23958,2.02083 -2.96875,3.60938 -5.1875,4.76563c-2.21875,1.14583 -4.76042,1.71875 -7.625,1.71875h-7.34375v14.26563c0,0.84375 -0.27604,1.55208 -0.82812,2.125c-0.55208,0.57292 -1.26562,0.85938 -2.14062,0.85938zM294.10958,248.46911c-0.53125,0 -1.01562,-0.11458 -1.45312,-0.34375c-0.4375,-0.22917 -0.8125,-0.59375 -1.125,-1.09375l-10.3125,-16.625l5.78125,-1.65625l9.40625,15.125c0.6875,1.11458 0.78125,2.16146 0.28125,3.14062c-0.48958,0.96875 -1.34896,1.45313 -2.57812,1.45313zM273.29708,225.70349h7.34375c1.76042,0 3.30729,-0.33333 4.64063,-1c1.34375,-0.66667 2.39583,-1.59896 3.15625,-2.79687c0.76042,-1.20833 1.14063,-2.57812 1.14063,-4.10937c0,-1.67708 -0.38021,-3.16667 -1.14062,-4.46875c-0.76042,-1.30208 -1.8125,-2.3125 -3.15625,-3.03125c-1.33333,-0.72917 -2.88021,-1.09375 -4.64062,-1.09375h-7.34375zM324.2629,249.04724c-3.35417,0 -6.42708,-0.5625 -9.21875,-1.6875c-2.79167,-1.13542 -5.19271,-2.72396 -7.20312,-4.76562c-2,-2.04167 -3.55729,-4.46875 -4.67187,-7.28125c-1.10417,-2.8125 -1.65625,-5.90104 -1.65625,-9.26562c0,-3.35417 0.55208,-6.42708 1.65625,-9.21875c1.11458,-2.79167 2.67188,-5.20833 4.67188,-7.25c2.01042,-2.05208 4.41146,-3.64062 7.20313,-4.76562c2.79167,-1.125 5.86458,-1.6875 9.21875,-1.6875c3.36454,0 6.43223,0.5625 9.20306,1.6875c2.77083,1.125 5.16667,2.71354 7.1875,4.76563c2.03125,2.04167 3.59896,4.45833 4.70313,7.25c1.11458,2.79167 1.67188,5.86458 1.67188,9.21875c0,3.36458 -0.55729,6.45313 -1.67187,9.26563c-1.10417,2.8125 -2.67187,5.23958 -4.70312,7.28125c-2.02083,2.04167 -4.41667,3.63021 -7.1875,4.76562c-2.77083,1.125 -5.83852,1.6875 -9.20306,1.6875zM324.2629,243.65661c2.48954,0 4.77598,-0.44792 6.85931,-1.34375c2.08333,-0.90625 3.88542,-2.15104 5.40625,-3.73437c1.53125,-1.58333 2.70833,-3.44271 3.53125,-5.57812c0.82292,-2.14583 1.23438,-4.46354 1.23438,-6.95312c0,-2.47917 -0.41146,-4.78646 -1.23437,-6.92187c-0.82292,-2.14583 -2,-4.01042 -3.53125,-5.59375c-1.52083,-1.59375 -3.32292,-2.82812 -5.40625,-3.70312c-2.08333,-0.875 -4.36977,-1.3125 -6.85931,-1.3125c-2.47917,0 -4.76042,0.4375 -6.84375,1.3125c-2.08333,0.875 -3.88021,2.10938 -5.39062,3.70313c-1.51042,1.58333 -2.6875,3.44792 -3.53125,5.59375c-0.83333,2.13542 -1.25,4.44271 -1.25,6.92188c0,2.48958 0.41667,4.80729 1.25,6.95313c0.84375,2.13542 2.02083,3.99479 3.53125,5.57813c1.51042,1.58333 3.30729,2.82813 5.39063,3.73438c2.08333,0.89583 4.36458,1.34375 6.84375,1.34375zM359.29653,248.46911c-0.84375,0 -1.54167,-0.28646 -2.09375,-0.85937c-0.55208,-0.57292 -0.82812,-1.28125 -0.82812,-2.125v-38.8125c0,-0.83333 0.28646,-1.53646 0.85938,-2.10937c0.57292,-0.57292 1.26042,-0.85937 2.0625,-0.85937c0.84375,0 1.55208,0.28646 2.125,0.85938c0.57292,0.57292 0.85938,1.27604 0.85938,2.10938v35.82813h20.75c0.84375,0 1.55208,0.28646 2.125,0.85938c0.57292,0.57292 0.85938,1.28125 0.85938,2.125c0,0.84375 -0.28646,1.55208 -0.85937,2.125c-0.57292,0.57292 -1.28125,0.85938 -2.125,0.85938zM407.39816,249.04724c-2.44792,0 -4.78125,-0.38021 -7,-1.14062c-2.21875,-0.77083 -4.15104,-1.84375 -5.79687,-3.21875c-1.63542,-1.375 -2.83854,-2.96354 -3.60937,-4.76562c-0.375,-0.80208 -0.36458,-1.54687 0.03125,-2.23437c0.40625,-0.6875 1.08854,-1.125 2.04688,-1.3125c0.6875,-0.15625 1.36458,-0.05208 2.03125,0.3125c0.66667,0.36458 1.17188,0.91146 1.51563,1.64063c0.45833,0.94792 1.21354,1.82292 2.26563,2.625c1.05208,0.80208 2.32292,1.45313 3.8125,1.95313c1.48958,0.5 3.05729,0.75 4.70313,0.75c1.83333,0 3.52083,-0.28646 5.0625,-0.85937c1.55208,-0.57292 2.80729,-1.40104 3.76563,-2.48437c0.95833,-1.09375 1.4375,-2.44271 1.4375,-4.04687c0,-2.03125 -0.79687,-3.84896 -2.39062,-5.45312c-1.58333,-1.60417 -4.19271,-2.59896 -7.82812,-2.98437c-4.72917,-0.45833 -8.45312,-1.84896 -11.17187,-4.17187c-2.70833,-2.33333 -4.0625,-5.22396 -4.0625,-8.67187c0,-2.52083 0.70313,-4.65625 2.10938,-6.40625c1.41667,-1.76042 3.33854,-3.09896 5.76563,-4.01562c2.42708,-0.92708 5.13021,-1.39062 8.10938,-1.39062c2.33333,0 4.36979,0.32813 6.10938,0.98438c1.73958,0.64583 3.25521,1.54167 4.54688,2.6875c1.30208,1.14583 2.43229,2.50521 3.39063,4.07813c0.53125,0.84375 0.75,1.64063 0.65625,2.39063c-0.09375,0.73958 -0.46354,1.31771 -1.10937,1.73438c-0.72917,0.45833 -1.51562,0.55729 -2.35937,0.29688c-0.83333,-0.27083 -1.46354,-0.77083 -1.89062,-1.5c-0.60417,-1.10417 -1.34896,-2.03646 -2.23437,-2.79687c-0.875,-0.77083 -1.90625,-1.375 -3.09375,-1.8125c-1.1875,-0.44792 -2.58333,-0.67187 -4.1875,-0.67187c-2.82292,-0.03125 -5.19271,0.5 -7.10937,1.59375c-1.90625,1.08333 -2.85937,2.75 -2.85937,5c0,1.14583 0.29688,2.24479 0.89063,3.29688c0.59375,1.05208 1.68229,1.96354 3.26563,2.73438c1.58333,0.76042 3.86458,1.29167 6.84375,1.59375c4.55208,0.45833 8.09896,1.84375 10.64063,4.15625c2.54167,2.3125 3.8125,5.35938 3.8125,9.14063c0,2.1875 -0.45312,4.08333 -1.35937,5.6875c-0.89583,1.60417 -2.09896,2.95313 -3.60937,4.04688c-1.5,1.08333 -3.21875,1.89583 -5.15625,2.4375c-1.92708,0.53125 -3.92187,0.79688 -5.98437,0.79688z"/></g></g></svg>