<svg version="1.1" xmlns="http://www.w3.org/2000/svg" xmlns:xlink="http://www.w3.org/1999/xlink" width="71.21156" height="38.38645" viewBox="0,0,71.21156,38.38645"><defs><linearGradient x1="213.77406" y1="183.97901" x2="213.77406" y2="196.91981" gradientUnits="userSpaceOnUse" id="color-1"><stop offset="0" stop-color="#000000"/><stop offset="1" stop-color="#343434"/></linearGradient><linearGradient x1="213.77406" y1="183.97901" x2="213.77406" y2="196.91981" gradientUnits="userSpaceOnUse" id="color-2"><stop offset="0" stop-color="#000000"/><stop offset="1" stop-color="#343434"/></linearGradient><linearGradient x1="238.20262" y1="182.66713" x2="238.20262" y2="195.60793" gradientUnits="userSpaceOnUse" id="color-3"><stop offset="0" stop-color="#000000"/><stop offset="1" stop-color="#343434"/></linearGradient><linearGradient x1="238.20262" y1="182.66713" x2="238.20262" y2="195.60793" gradientUnits="userSpaceOnUse" id="color-4"><stop offset="0" stop-color="#000000"/><stop offset="1" stop-color="#343434"/></linearGradient><linearGradient x1="213.40382" y1="162.87738" x2="213.40382" y2="175.8182" gradientUnits="userSpaceOnUse" id="color-5"><stop offset="0" stop-color="#343434"/><stop offset="1" stop-color="#000000"/></linearGradient><linearGradient x1="213.40382" y1="162.87738" x2="213.40382" y2="175.8182" gradientUnits="userSpaceOnUse" id="color-6"><stop offset="0" stop-color="#343434"/><stop offset="1" stop-color="#000000"/></linearGradient><linearGradient x1="238.1181" y1="164.1631" x2="238.1181" y2="177.10391" gradientUnits="userSpaceOnUse" id="color-7"><stop offset="0" stop-color="#343434"/><stop offset="1" stop-color="#000000"/></linearGradient><linearGradient x1="238.1181" y1="164.1631" x2="238.1181" y2="177.10391" gradientUnits="userSpaceOnUse" id="color-8"><stop offset="0" stop-color="#343434"/><stop offset="1" stop-color="#000000"/></linearGradient><linearGradient x1="341.58207" y1="46.516" x2="341.57957" y2="46.516" gradientUnits="userSpaceOnUse" id="color-9"><stop offset="0" stop-color="#7a727a"/><stop offset="1" stop-color="#211f21"/></linearGradient><linearGradient x1="218.94146" y1="187.82241" x2="218.64329" y2="190.23373" gradientUnits="userSpaceOnUse" id="color-10"><stop offset="0" stop-color="#000000"/><stop offset="1" stop-color="#363636"/></linearGradient><linearGradient x1="219.29593" y1="172.183" x2="218.99776" y2="169.77168" gradientUnits="userSpaceOnUse" id="color-11"><stop offset="0" stop-color="#000000"/><stop offset="1" stop-color="#363636"/></linearGradient><linearGradient x1="225.03512" y1="180.00685" x2="235.7698" y2="180.00685" gradientUnits="userSpaceOnUse" id="color-12"><stop offset="0" stop-color="#000000"/><stop offset="1" stop-color="#363636"/></linearGradient><linearGradient x1="229.49025" y1="179.20084" x2="235.61884" y2="179.20084" gradientUnits="userSpaceOnUse" id="color-13"><stop offset="0" stop-color="#6d6d6d" stop-opacity="0"/><stop offset="1" stop-color="#6d6d6d"/></linearGradient><linearGradient x1="229.41275" y1="185.30866" x2="235.54137" y2="185.30866" gradientUnits="userSpaceOnUse" id="color-14"><stop offset="0" stop-color="#6d6d6d" stop-opacity="0"/><stop offset="1" stop-color="#6d6d6d"/></linearGradient><linearGradient x1="246.55461" y1="185.44109" x2="246.55461" y2="187.45071" gradientUnits="userSpaceOnUse" id="color-15"><stop offset="0" stop-color="#ff4f4f"/><stop offset="1" stop-color="#ff6161"/></linearGradient><linearGradient x1="218.26989" y1="182.90505" x2="218.26989" y2="184.91467" gradientUnits="userSpaceOnUse" id="color-16"><stop offset="0" stop-color="#ff4f4f"/><stop offset="1" stop-color="#ff6161"/></linearGradient></defs><g transform="translate(-198.36166,-159.20686)"><g data-paper-data="{&quot;isPaintingLayer&quot;:true}" fill-rule="nonzero" stroke-linecap="butt" stroke-linejoin="miter" stroke-miterlimit="10" stroke-dasharray="" stroke-dashoffset="0" style="mix-blend-mode: normal"><path d="M207.98241,185.3775c1.59971,-1.5997 3.49215,-1.29237 5.70491,-1.38551c1.77905,-0.07491 4.61678,0.15299 5.7089,1.24511c1.33122,1.33122 1.12224,3.31276 1.23968,5.15838c0.12,1.88582 0.25672,4.47827 -1.38006,5.83426c-1.12987,0.93605 -4.08716,0.57494 -5.38818,0.61391c-2.31533,0.06935 -4.30989,0.39988 -5.88526,-1.17549c-1.49974,-1.49974 -1.07169,-3.19488 -1.10012,-5.28931c-0.02377,-1.75133 -0.02013,-3.88111 1.10012,-5.00136z" data-paper-data="{&quot;index&quot;:null}" fill="url(#color-1)" stroke="url(#color-2)" stroke-width="1.5"/><path d="M238.11588,182.68011c1.77905,-0.07491 4.61679,0.15299 5.70891,1.24511c1.33122,1.33122 1.12224,3.31275 1.23968,5.15837c0.12,1.88582 0.25672,4.47828 -1.38006,5.83427c-1.12988,0.93604 -4.08716,0.57494 -5.38818,0.61391c-2.31533,0.06935 -4.30989,0.39988 -5.88526,-1.17549c-1.49974,-1.49974 -1.0717,-3.19487 -1.10013,-5.2893c-0.02376,-1.75133 -0.02012,-3.88111 1.10013,-5.00136c1.59971,-1.5997 3.49215,-1.29237 5.70491,-1.38551z" data-paper-data="{&quot;index&quot;:null}" fill="url(#color-3)" stroke="url(#color-4)" stroke-width="1.5"/><path d="M213.31708,175.80521c-2.21276,-0.09314 -4.1052,0.2142 -5.70491,-1.38551c-1.12025,-1.12024 -1.1239,-3.25003 -1.10013,-5.00136c0.02843,-2.09443 -0.39961,-3.78957 1.10013,-5.28931c1.57537,-1.57537 3.56993,-1.24484 5.88526,-1.17549c1.30102,0.03896 4.2583,-0.32214 5.38818,0.61391c1.63677,1.35598 1.50005,3.94844 1.38006,5.83426c-0.11743,1.84562 0.09154,3.82716 -1.23968,5.15838c-1.09211,1.09212 -3.92985,1.32002 -5.7089,1.24512z" data-paper-data="{&quot;index&quot;:null}" fill="url(#color-5)" stroke="url(#color-6)" stroke-width="1.5"/><path d="M238.03136,177.09093c-2.21276,-0.09314 -4.1052,0.2142 -5.70491,-1.38551c-1.12024,-1.12025 -1.12388,-3.25003 -1.10012,-5.00136c0.02842,-2.09443 -0.39962,-3.78957 1.10012,-5.28931c1.57537,-1.57537 3.56993,-1.24485 5.88526,-1.17549c1.30102,0.03897 4.25831,-0.32214 5.38818,0.61391c1.63677,1.35599 1.50005,3.94845 1.38006,5.83427c-0.11743,1.84561 0.09154,3.82715 -1.23968,5.15837c-1.09212,1.09211 -3.92985,1.32001 -5.7089,1.24511z" data-paper-data="{&quot;index&quot;:null}" fill="url(#color-7)" stroke="url(#color-8)" stroke-width="1.5"/><path d="M198.49041,180.26724c-0.18681,-5.24798 2.79348,-11.08006 2.79348,-11.08006l3.15252,-1.18676l0.15043,24.38676l-3.364,-1.51036c0,0 -2.6068,-7.08015 -2.73244,-10.60958z" fill="#d28800" stroke="#fff900" stroke-width="0"/><path d="M269.57322,159.20686z" fill="url(#color-9)" stroke="none" stroke-width="0"/><path d="M217.7569,189.47888l0.38303,-18.41251l15.81897,-3.30862l12.7908,0.10928c0,0 4.16219,2.85865 4.33407,11.18896c0.18449,8.9421 -3.90724,13.12253 -3.90724,13.12253l-13.21915,-0.18211z" data-paper-data="{&quot;index&quot;:null}" fill="#ffa400" stroke="none" stroke-width="0"/><path d="M234.11865,179.98485c-0.01307,-5.93705 -0.41759,-9.89374 -0.41759,-9.89374l13.94946,0.08612c0,0 2.4042,2.40535 2.41008,9.77955c-0.54877,7.68938 -2.46998,9.8127 -2.46998,9.8127l-13.79902,0.05944c0,0 0.34013,-3.90702 0.32705,-9.84407z" data-paper-data="{&quot;index&quot;:null}" fill="#fff900" stroke="#fff900" stroke-width="0"/><path d="M204.15761,192.28571c0,0 -4.09174,-4.22389 -3.90724,-13.25897c0.17187,-8.41692 4.33407,-11.3053 4.33407,-11.3053l11.37403,-0.09918l17.23573,2.2745l0.76608,19.94049l-17.23827,2.27524z" fill="#ffa400" stroke="none" stroke-width="0"/><path d="M209.02205,186.61625c0,0 2.64389,0.41528 4.94315,0.75777c0.39493,0.05883 1.19379,0.16409 1.68828,0.2303c1.29803,0.17383 2.44769,0.31684 3.26814,0.42668c2.58885,0.29131 4.496,0.48835 5.42419,0.58614c2.65001,0.27921 4.52846,0.42547 4.52846,0.42547l-0.06472,0.97074c0,0 -8.15848,0.45847 -10.23408,0.21209c-2.09764,-0.25313 -4.01633,-0.55376 -4.78806,-0.68847c-2.34149,-0.40874 -5.01469,-1.0268 -5.01469,-1.0268l0.24935,-1.89392z" data-paper-data="{&quot;index&quot;:null}" fill="url(#color-10)" stroke="none" stroke-width="0"/><path d="M209.37653,173.38916l-0.24935,-1.89392c0,0 2.67321,-0.61807 5.01469,-1.0268c0.77173,-0.13471 2.69042,-0.43535 4.78806,-0.68847c2.0756,-0.24638 10.23408,0.21209 10.23408,0.21209l0.06472,0.97074c0,0 -1.87844,0.14626 -4.52846,0.42547c-0.92819,0.09779 -2.83534,0.29483 -5.42419,0.58614c-0.82045,0.10984 -1.9701,0.25285 -3.26814,0.42668c-0.49448,0.06621 -1.29335,0.17148 -1.68828,0.2303c-2.29926,0.34249 -4.94315,0.75777 -4.94315,0.75777z" fill="url(#color-11)" stroke="none" stroke-width="0"/><path d="M217.27696,179.96053c-0.01308,4.76597 4.21711,8.69793 0.69632,8.69171c-2.13613,-0.00377 -13.98366,2.50586 -13.98366,2.50586c0,0 -2.38281,-5.56069 -2.65462,-11.3124c-0.17876,-5.74052 2.99342,-10.49601 2.99342,-10.49601c0,0 11.61095,2.19051 13.55076,2.19394c3.52079,0.00622 -0.58916,3.65096 -0.60223,8.41693z" data-paper-data="{&quot;index&quot;:null}" fill="#fff900" stroke="#fff900" stroke-width="0"/><path d="M225.03516,170.0144l8.43939,-0.01505c0,0 1.28508,2.72886 1.82901,5.10281c0.17927,0.78243 0.47456,2.72351 0.46604,4.83637c-0.02634,2.09015 -0.33488,4.20595 -0.61805,5.64437c-0.66744,3.39034 -1.62261,4.4164 -1.62261,4.4164l-8.43939,0.01505c0,0 0.36033,-1.8822 0.54901,-4.54645c0.0661,-0.93318 0.219,-2.85009 0.322,-5.45513c-0.04419,-0.82773 -0.05828,-1.98625 -0.12842,-3.29581c-0.02671,-0.49887 -0.06234,-1.30462 -0.10973,-1.70378c-0.27587,-2.32392 -0.68726,-4.99879 -0.68726,-4.99879z" fill="url(#color-12)" stroke="none" stroke-width="0"/><path d="M213.78493,180.08272c2.29934,2.84296 0.83875,7.99326 0.83875,7.99326l-7.94168,-0.56435c0,0 -1.97425,-4.54926 -2.03014,-6.63931c-0.02966,-2.11281 1.43882,-7.35971 1.43882,-7.35971l7.84297,-1.58307c0,0 -1.09054,6.22125 -0.14873,8.15318z" data-paper-data="{&quot;index&quot;:null}" fill="#000000" stroke="none" stroke-width="0"/><path d="M232.68511,166.81671c0.23762,0.31183 1.4677,1.45323 0.73356,2.01264c-0.3801,0.28963 -1.74054,-0.76975 -2.97143,-1.48247c-1.61428,-0.9347 -3.08148,-1.67724 -2.58301,-2.05707c0.87858,-0.66946 3.37544,-0.37002 4.82087,1.5269z" fill="#fff900" stroke="none" stroke-width="0"/><path d="M212.85576,187.7711c0,0 -0.62913,-1.34718 -1.24971,-4.34351c-0.45593,-2.20135 -0.43054,-3.30322 -0.43542,-4.18953c-0.00567,-1.03166 0.07338,-2.45325 0.61805,-4.33588c0.37462,-1.29485 0.981,-2.79921 0.981,-2.79921l12.39495,-2.03813c0,0 0.62569,6.77998 0.63871,9.80654c0.0153,3.55455 -0.55263,10.19262 -0.55263,10.19262z" fill="#ffe200" stroke="none" stroke-width="0"/><path d="M225.43437,189.79455c0,0 -11.48804,-0.64296 -12.47518,-2.25844c-0.47939,-0.78452 -1.09964,-3.2078 -1.34833,-4.95759c-0.1341,-0.94349 -0.12188,-1.86581 -0.12331,-2.17629c3.56227,0.18602 0.63714,-0.16993 6.68067,-0.08499c1.40878,0.06587 2.94304,0.00906 7.70468,-0.0539c0.00683,1.89979 -0.25561,6.28406 -0.25561,6.28406z" fill="#fff900" stroke="none" stroke-width="0"/><path d="M228.71491,194.03539c-0.47646,-0.40712 1.02998,-1.06644 2.69401,-1.90939c1.26882,-0.64276 2.68638,-1.6244 3.04969,-1.31397c0.70171,0.5996 -0.59029,1.67042 -0.84497,1.96846c-1.54926,1.81312 -4.05896,1.97245 -4.89872,1.2549z" data-paper-data="{&quot;index&quot;:null}" fill="#fff900" stroke="none" stroke-width="0"/><path d="M229.49025,184.30802l0.12768,-5.23486l5.49021,-4.9795c0,0 0.41941,1.2064 0.63918,2.39197c0.19428,1.3978 0.05617,2.1829 0.05617,2.1829z" fill="url(#color-13)" stroke="none" stroke-width="0"/><path d="M199.70166,192.39787v-24.79007l2.5125,1.005l0.1675,23.11507z" fill="#c27300" stroke="none" stroke-width="0"/><path d="M229.96666,187.92325l-0.05696,-1.44982l5.76717,-5.44109l-0.04319,1.25142z" fill="url(#color-14)" stroke="none" stroke-width="0"/><path d="M240.26716,186.46631c0,0 3.37819,-1.48975 1.7824,-1.81405c-2.51863,-0.51184 -4.99239,-2.79851 -2.73317,-1.93252c2.04,0.78196 5.44978,-0.40303 6.18344,-1.3653c0.16696,-0.21899 -3.38127,-1.86545 -4.21552,-1.96941c-2.10175,-0.26192 -4.27164,-0.30175 -3.81212,-0.83961c1.56926,0.23032 5.58018,-1.39969 5.94499,-2.18955c0.61608,-1.33391 -4.32252,-2.13419 -4.32252,-2.13419c0,0 3.44926,-0.663 4.46696,-1.97189c2.3596,-3.03474 5.56749,-0.03812 5.56749,-0.03812c0,0 1.27459,3.32531 1.17251,7.9837c-0.09527,4.34776 -1.675,7.94597 -1.675,7.94597c0,0 -2.63225,1.03833 -4.37218,-0.47711c-1.07074,-0.9326 -3.98726,-1.19789 -3.98726,-1.19789z" fill="#ff4646" stroke="none" stroke-width="0"/><path d="M221.7193,177.01173c1.77544,0.36082 -1.91501,0.97638 -2.43218,1.65471c-0.11769,0.15437 2.38354,1.315 2.97163,1.38829c1.48157,0.18464 3.01118,0.21271 2.68725,0.59186c-1.10621,-0.16236 -3.93361,0.98668 -4.19077,1.54347c-0.43429,0.94031 0.86954,1.33694 0.86954,1.33694c0,0 -0.25396,0.63488 -0.97137,1.55754c-1.66334,2.13926 -4.92966,-0.81063 -4.92966,-0.81063c0,0 -1.73599,-1.00409 -1.66403,-4.28791c0.06716,-3.06484 1.85076,-4.93131 1.85076,-4.93131c0,0 3.02804,-1.90445 4.25456,-0.83617c0.75479,0.65741 0.42935,2.5646 1.55427,2.7932z" data-paper-data="{&quot;index&quot;:null}" fill="#ff4646" stroke="none" stroke-width="0"/><path d="M198.88917,192.42288v-24.79007l2.5125,1.005l0.1675,23.11507z" fill="#fff900" stroke="none" stroke-width="0"/><path d="M198.36167,185.69785v-10.88753l2.5125,0.44139l0.1675,10.15189z" fill="#ff4646" stroke="none" stroke-width="0"/><path d="M249.55812,179.65094c0,-0.15353 -1.40795,-0.95253 -1.20242,-1.16466c1.28164,-1.32282 0.76536,-0.61899 1.06933,-1.88237c0.32783,-1.36255 -0.36941,-4.49049 -0.36941,-4.49049c0,0 1.34,5.08979 1.34,7.70502c0,2.83819 -1.5075,8.37502 -1.5075,8.37502c0,0 0.6914,-2.58521 0.5731,-4.84366c-0.03252,-0.62078 -1.56596,-1.59194 -1.0028,-1.36006c0.72722,0.29944 1.09969,-1.69181 1.09969,-2.3388z" fill="#ff1313" stroke="none" stroke-width="0"/><path d="M248.81543,186.3203c0,0.33995 -0.2493,0.76606 -0.85871,0.94789c-0.38541,0.11499 -0.99022,0.18252 -1.5277,0.18252c-0.7813,0 -1.88374,-0.76458 -2.58808,-1.09276c-0.54635,-0.25456 -1.17994,-0.04643 -1.17994,-0.28885c0,-0.16134 0.84162,-0.53233 0.90288,-1.01767c0.06501,-0.51503 -1.39149,-1.26857 -0.94087,-1.34412c0.58537,-0.09814 2.9988,-0.02462 3.5548,-0.02462c0.54806,0 2.04034,0.36061 2.42956,0.5272c0.59603,0.25511 0.20806,1.7747 0.20806,2.11042z" fill="url(#color-15)" stroke="none" stroke-width="0"/><path d="M216.21712,181.67385c0.38922,-0.16659 1.8815,-0.5272 2.42956,-0.5272c0.556,0 2.96944,-0.07352 3.55481,0.02462c0.45063,0.07555 -1.00588,0.82909 -0.94087,1.34412c0.06126,0.48533 0.90288,0.85633 0.90288,1.01767c0,0.24242 -0.63359,0.03429 -1.17994,0.28885c-0.70434,0.32818 -0.92758,1.46957 -1.70888,1.46957c-0.53748,0 -2.02149,-0.44433 -2.4069,-0.55933c-0.60941,-0.18183 -0.85871,-0.73354 -0.85871,-1.07349c0,0 -0.38798,-1.7297 0.20805,-1.98481z" data-paper-data="{&quot;index&quot;:null}" fill="url(#color-16)" stroke="none" stroke-width="0"/><path d="M248.54736,172.3856c0.07406,0.01896 0.18342,0.07495 0.18342,0.2403c0,0.25 -0.25,0.25 -0.25,0.25l-0.33756,-0.17095c-0.16487,-0.54057 -1.02723,-0.8396 -1.56974,-0.8329c0,0 -0.25,0 -0.25,-0.25c0,-0.25 0.25,-0.25 0.25,-0.25c0.72583,0.00687 1.63122,0.35624 1.97388,1.01355z" fill="#ff2828" stroke="none" stroke-width="0.5"/><path d="M217.74404,174.46476c0,0 0.25,0 0.25,0.25c0,0.25 -0.25,0.25 -0.25,0.25c-0.54251,-0.00671 -1.40487,0.29232 -1.56974,0.8329l-0.33756,0.17095c0,0 -0.25,0 -0.25,-0.25c0,-0.16535 0.10936,-0.22134 0.18342,-0.2403c0.34266,-0.65731 1.24804,-1.00668 1.97388,-1.01355z" data-paper-data="{&quot;index&quot;:null}" fill="#ff2828" stroke="none" stroke-width="0.5"/></g></g></svg>