<svg version="1.1" xmlns="http://www.w3.org/2000/svg" xmlns:xlink="http://www.w3.org/1999/xlink" width="73.69774" height="39.37759" viewBox="0,0,73.69774,39.37759"><defs><linearGradient x1="209.88183" y1="180.00774" x2="203.43956" y2="180.00774" gradientUnits="userSpaceOnUse" id="color-1"><stop offset="0" stop-color="#000000"/><stop offset="1" stop-color="#000000" stop-opacity="0"/></linearGradient><linearGradient x1="206.70526" y1="179.02105" x2="206.70526" y2="175.26301" gradientUnits="userSpaceOnUse" id="color-2"><stop offset="0" stop-color="#000000"/><stop offset="1" stop-color="#000000" stop-opacity="0"/></linearGradient><linearGradient x1="341.58213" y1="46.51602" x2="341.57963" y2="46.51602" gradientUnits="userSpaceOnUse" id="color-3"><stop offset="0" stop-color="#7a727a"/><stop offset="1" stop-color="#211f21"/></linearGradient><linearGradient x1="206.62468" y1="189.03128" x2="206.62468" y2="198.33036" gradientUnits="userSpaceOnUse" id="color-4"><stop offset="0" stop-color="#000000"/><stop offset="1" stop-color="#2d2d2d"/></linearGradient><linearGradient x1="206.62468" y1="189.03128" x2="206.62468" y2="198.33036" gradientUnits="userSpaceOnUse" id="color-5"><stop offset="0" stop-color="#000000"/><stop offset="1" stop-color="#2d2d2d"/></linearGradient><linearGradient x1="206.54858" y1="161.68602" x2="206.54858" y2="170.90501" gradientUnits="userSpaceOnUse" id="color-6"><stop offset="0" stop-color="#2d2d2d"/><stop offset="1" stop-color="#000000"/></linearGradient><linearGradient x1="206.54858" y1="161.68602" x2="206.54858" y2="170.90501" gradientUnits="userSpaceOnUse" id="color-7"><stop offset="0" stop-color="#2d2d2d"/><stop offset="1" stop-color="#000000"/></linearGradient><linearGradient x1="236.28575" y1="180.02182" x2="229.84348" y2="180.02182" gradientUnits="userSpaceOnUse" id="color-8"><stop offset="0" stop-color="#000000"/><stop offset="1" stop-color="#000000" stop-opacity="0"/></linearGradient><linearGradient x1="233.07192" y1="182.06666" x2="233.07192" y2="184.26666" gradientUnits="userSpaceOnUse" id="color-9"><stop offset="0" stop-color="#000000"/><stop offset="1" stop-color="#000000" stop-opacity="0"/></linearGradient><linearGradient x1="233.07192" y1="178.81667" x2="233.07192" y2="176.61667" gradientUnits="userSpaceOnUse" id="color-10"><stop offset="0" stop-color="#000000"/><stop offset="1" stop-color="#000000" stop-opacity="0"/></linearGradient><linearGradient x1="233.08504" y1="184.7522" x2="233.08504" y2="193.18802" gradientUnits="userSpaceOnUse" id="color-11"><stop offset="0" stop-color="#000000"/><stop offset="1" stop-color="#2d2d2d"/></linearGradient><linearGradient x1="233.08504" y1="184.7522" x2="233.08504" y2="193.18802" gradientUnits="userSpaceOnUse" id="color-12"><stop offset="0" stop-color="#000000"/><stop offset="1" stop-color="#2d2d2d"/></linearGradient><linearGradient x1="233.26651" y1="167.36479" x2="233.26651" y2="175.64307" gradientUnits="userSpaceOnUse" id="color-13"><stop offset="0" stop-color="#2d2d2d"/><stop offset="1" stop-color="#000000"/></linearGradient><linearGradient x1="233.26651" y1="167.36479" x2="233.26651" y2="175.64307" gradientUnits="userSpaceOnUse" id="color-14"><stop offset="0" stop-color="#2d2d2d"/><stop offset="1" stop-color="#000000"/></linearGradient><linearGradient x1="196.47872" y1="180.00923" x2="200.36342" y2="180.00923" gradientUnits="userSpaceOnUse" id="color-15"><stop offset="0" stop-color="#ff2600"/><stop offset="1" stop-color="#b31b00"/></linearGradient><linearGradient x1="206.62193" y1="181.9" x2="206.62193" y2="184.1" gradientUnits="userSpaceOnUse" id="color-16"><stop offset="0" stop-color="#000000"/><stop offset="1" stop-color="#000000" stop-opacity="0"/></linearGradient><linearGradient x1="215.89108" y1="169.96102" x2="215.89108" y2="172.24593" gradientUnits="userSpaceOnUse" id="color-17"><stop offset="0" stop-color="#080808" stop-opacity="0"/><stop offset="1" stop-color="#080808"/></linearGradient><linearGradient x1="215.56278" y1="187.74904" x2="215.56278" y2="189.84905" gradientUnits="userSpaceOnUse" id="color-18"><stop offset="0" stop-color="#080808"/><stop offset="1" stop-color="#080808" stop-opacity="0"/></linearGradient><linearGradient x1="221.04514" y1="176.2297" x2="221.04514" y2="180.14784" gradientUnits="userSpaceOnUse" id="color-19"><stop offset="0" stop-color="#ff4b2b"/><stop offset="1" stop-color="#ff4b2b" stop-opacity="0"/></linearGradient></defs><g transform="translate(-195.87548,-159.20689)"><g data-paper-data="{&quot;isPaintingLayer&quot;:true}" fill-rule="nonzero" stroke-linejoin="miter" stroke-miterlimit="10" stroke-dasharray="" stroke-dashoffset="0" style="mix-blend-mode: normal"><g data-paper-data="{&quot;index&quot;:null}" stroke="none" stroke-width="0" stroke-linecap="butt"><path d="M206.52696,183.46282l0.43803,1.25933l-7.34609,2.55516l-0.43803,-1.25933z" fill="#7e1300"/><path d="M206.19362,184.35171l0.43803,1.25933l-7.34609,2.55516l-0.43803,-1.25933z" fill="#e92300"/></g><path d="M199.5142,174.38881l0.43803,-1.25933l7.34609,2.55516l-0.43803,1.25933z" fill="#7e1300" stroke="none" stroke-width="0" stroke-linecap="butt"/><path d="M199.18087,173.49993l0.43803,-1.25933l7.34609,2.55516l-0.43803,1.25933z" fill="#e92300" stroke="none" stroke-width="0" stroke-linecap="butt"/><g stroke="none" stroke-width="0" stroke-linecap="butt"><path d="M245.83677,190.43395l-4.8295,2.44875v-25.23583l4.8295,2.04063z" fill="#b51b00"/><path d="M245.90003,190.44795l-4.29759,2.54673v-25.46716l4.29759,2.06921z" fill="#ff2500"/></g><g stroke-width="0" stroke-linecap="butt"><path d="M205.62373,171.59391h2.07391v16.82765h-2.07391z" fill="#8b8885" stroke="url(#color-1)"/><path d="M205.62373,171.59391h0.69131v16.82764h-0.69131z" fill="#505154" stroke="none"/></g><path d="M207.7386,172.90001l-0.08333,3.38794l-1.95,2.73312v-2.90394z" data-paper-data="{&quot;index&quot;:null}" fill="url(#color-2)" stroke="none" stroke-width="0" stroke-linecap="butt"/><path d="M269.57322,159.20689z" fill="url(#color-3)" stroke="none" stroke-width="0" stroke-linecap="butt"/><g stroke-width="2.5" stroke-linecap="butt"><path d="M216.50002,175.52122c-0.78974,0 -0.78974,-0.78974 -0.78974,-0.78974v-0.35274c0.01977,-4.13798 -1.49395,-4.16649 -5.207,-4.14874c0,0 -0.78974,0 -0.78974,-0.78974c0,-0.78974 0.78974,-0.78974 0.78974,-0.78974c4.47938,0.01794 6.7664,0.72062 6.78646,5.72821v0.35274c0,0 0,0.78974 -0.78974,0.78974z" fill="#0d7ad1" stroke="#9a1700"/><path d="M214.50303,168.89036l0.03332,-0.79726c1.65247,0.204 2.96053,1.70678 2.99346,3.33568l-0.84694,-0.38394c0.03109,-1.00454 -2.17982,-2.15448 -2.17982,-2.15448z" data-paper-data="{&quot;index&quot;:null}" fill="#e92300" stroke="none"/></g><g data-paper-data="{&quot;index&quot;:null}" stroke-width="2.5" stroke-linecap="butt"><path d="M217.22315,185.16702v0.35274c-0.02007,5.00759 -2.30709,5.71027 -6.78646,5.72821c0,0 -0.78974,0 -0.78974,-0.78973c0,-0.78974 0.78974,-0.78974 0.78974,-0.78974c3.71304,0.01775 5.22677,-0.01076 5.207,-4.14874v-0.35274c0,0 0,-0.78973 0.78974,-0.78973c0.78974,0 0.78973,0.78973 0.78973,0.78973z" fill="#0d7ad1" stroke="#9a1700"/><path d="M216.61626,188.85368l0.84694,-0.38395c-0.03292,1.6289 -1.34099,3.13168 -2.99346,3.33568l-0.03332,-0.79726c0,0 2.21093,-1.14994 2.17982,-2.15448z" data-paper-data="{&quot;index&quot;:null}" fill="#e92300" stroke="none"/></g><path d="M202.4629,190.03622c1.14953,-1.14952 2.50941,-0.92868 4.09947,-0.99561c1.2784,-0.05382 3.31755,0.10994 4.10233,0.89472c0.95659,0.95659 0.80643,2.3805 0.89081,3.70674c0.08623,1.35512 0.18447,3.21803 -0.9917,4.19241c-0.81191,0.67263 -2.93697,0.41315 -3.87187,0.44115c-1.66376,0.04984 -3.09702,0.28734 -4.22906,-0.84469c-1.0777,-1.0777 -0.7701,-2.29579 -0.79054,-3.80082c-0.01708,-1.25848 -0.01447,-2.78891 0.79054,-3.59391z" data-paper-data="{&quot;index&quot;:null}" fill="url(#color-4)" stroke="url(#color-5)" stroke-width="1.5" stroke-linecap="butt"/><path d="M206.48678,170.89575c-1.57636,-0.06636 -2.92453,0.1526 -4.06416,-0.98703c-0.79806,-0.79805 -0.80066,-2.31531 -0.78373,-3.56295c0.02025,-1.49206 -0.28468,-2.69967 0.78373,-3.76808c1.12229,-1.12229 2.54321,-0.88682 4.19264,-0.83741c0.92684,0.02775 3.0336,-0.22949 3.83853,0.43734c1.16603,0.966 1.06863,2.81286 0.98315,4.15631c-0.08366,1.31482 0.06521,2.72645 -0.88314,3.67482c-0.77801,0.77802 -2.79961,0.94037 -4.06701,0.88701z" data-paper-data="{&quot;index&quot;:null}" fill="url(#color-6)" stroke="url(#color-7)" stroke-width="1.5" stroke-linecap="butt"/><g stroke-width="0" stroke-linecap="butt"><path d="M232.02767,175.09626h2.07391v9.8511h-2.07391z" fill="#8b8885" stroke="url(#color-8)"/><path d="M232.02767,175.09626h0.69131v9.8511h-0.69131z" fill="#505154" stroke="none"/></g><path d="M232.03859,185.65l0.08334,-1.98334l1.95,-0.51667v1.36667z" data-paper-data="{&quot;index&quot;:null}" fill="url(#color-9)" stroke="none" stroke-width="0" stroke-linecap="butt"/><path d="M234.07192,176.45v1.11667l-1.95,-0.35l-0.08334,-1.98334z" data-paper-data="{&quot;index&quot;:null}" fill="url(#color-10)" stroke="none" stroke-width="0" stroke-linecap="butt"/><path d="M205.65989,178.35417l6.39224,-6.0889c0,0 12.74909,-0.11844 13.42497,0.07172c1.47568,0.41518 3.47761,4.00167 4.17593,4.08631c7.84986,0.9515 15.20225,2.0836 15.20225,2.0836l0.01206,3.13901c0,0 -9.3234,1.58604 -15.17275,2.25582c-1.16721,0.13366 -3.1754,3.61045 -4.73158,3.75393c-0.647,0.05966 -12.82328,0.13844 -12.82328,0.13844l-6.47985,-5.9834z" fill="#ff2500" stroke="none" stroke-width="0" stroke-linecap="butt"/><path d="M233.02849,184.76066c1.15971,-0.04883 3.00957,0.09973 3.7215,0.81167c0.86779,0.86779 0.73157,2.1595 0.80813,3.36262c0.07823,1.22931 0.16734,2.91929 -0.89963,3.80323c-0.73654,0.61018 -2.66433,0.37479 -3.51243,0.40019c-1.50931,0.04522 -2.80951,0.26067 -3.83646,-0.76628c-0.97764,-0.97764 -0.69862,-2.08266 -0.71715,-3.44796c-0.01549,-1.14165 -0.01311,-2.53 0.71715,-3.26027c1.04281,-1.04281 2.27645,-0.84248 3.7189,-0.90319z" data-paper-data="{&quot;index&quot;:null}" fill="url(#color-11)" stroke="url(#color-12)" stroke-width="1.5" stroke-linecap="butt"/><path d="M233.21102,175.63478c-1.41551,-0.05959 -2.62612,0.13703 -3.64946,-0.88632c-0.71662,-0.71663 -0.71895,-2.07906 -0.70375,-3.19939c0.01818,-1.33982 -0.25564,-2.4242 0.70375,-3.38359c1.00777,-1.00777 2.28371,-0.79634 3.76483,-0.75197c0.83226,0.02493 2.72406,-0.20607 3.44685,0.39272c1.04704,0.86743 0.95959,2.52583 0.88283,3.7322c-0.07512,1.18064 0.05856,2.44825 -0.79303,3.29983c-0.69863,0.69863 -2.51395,0.84441 -3.65201,0.79651z" data-paper-data="{&quot;index&quot;:null}" fill="url(#color-13)" stroke="url(#color-14)" stroke-width="1.5" stroke-linecap="butt"/><path d="M207.58679,178.47802l5.4717,-5.21204c0,0 10.91309,-0.10139 11.49164,0.06138c1.26317,0.35539 2.9768,3.42539 3.57455,3.49784c6.71941,0.81447 13.01297,1.78355 13.01297,1.78355l0.01032,2.68696c0,0 -7.98074,1.35764 -12.98772,1.93095c-0.99912,0.11441 -2.71811,3.0905 -4.05019,3.21333c-0.55383,0.05107 -10.9766,0.1185 -10.9766,0.1185l-5.54668,-5.12173z" fill="#ff6044" stroke="none" stroke-width="0" stroke-linecap="butt"/><path d="M224.60879,176.82455l19.18372,2.3253l0.0275,1.74397l-19.21121,2.17997z" fill="#ff2500" stroke="none" stroke-width="0" stroke-linecap="butt"/><path d="M226.10909,182.93082l-2.89243,2.21925c0,0 -8.03323,-0.05198 -8.46008,-0.09133c-1.02668,-0.09467 -2.21837,-0.75039 -3.25484,-2.47663c-0.49057,-1.28693 -0.45798,-1.78698 -0.43459,-2.6292c0.01899,-0.68394 -0.0858,-1.71124 0.46201,-2.62502c0.86032,-1.48146 1.91467,-2.10164 2.88824,-2.37556c0.44591,-0.12545 8.85706,-0.04731 8.85706,-0.04731l2.83463,2.28885z" data-paper-data="{&quot;index&quot;:null}" fill="#2a1117" stroke="none" stroke-width="0" stroke-linecap="butt"/><path d="M218.86217,184.2191c-2.56019,0 -4.63563,-1.96241 -4.63563,-4.38319c0,-2.42076 2.07545,-4.38319 4.63563,-4.38319c2.56019,0 4.63563,1.96242 4.63563,4.38319c0,2.42076 -2.07545,4.38319 -4.63563,4.38319z" fill="#c31d00" stroke="none" stroke-width="0" stroke-linecap="butt"/><path d="M219.41773,184.2191c-2.25337,0 -4.08007,-1.96241 -4.08007,-4.38319c0,-2.42076 1.82671,-4.38319 4.08007,-4.38319c2.25337,0 4.08007,1.96242 4.08007,4.38319c0,2.42076 -1.82672,4.38319 -4.08007,4.38319z" fill="#ff2500" stroke="none" stroke-width="0" stroke-linecap="butt"/><g stroke="#000000" stroke-width="0" stroke-linecap="butt"><path d="M215.54743,167.4185c0,0 0.61608,-0.77895 1.28013,-0.70377c1.624,0.18385 8.51674,1.8129 8.51674,1.8129c0,0 1.71995,0.45588 2.51065,1.96024c0.9263,1.76235 2.36288,2.62452 1.11802,4.89156c-0.08634,0.38149 -2.9034,-3.11719 -2.9034,-3.11719l-7.35682,-0.23964c0,0 -0.00746,-0.63236 -0.91704,-2.0624c-0.84597,-1.33005 -2.24827,-2.54169 -2.24827,-2.54169z" fill="#b51b00"/><path d="M216.51492,166.69749l9.79687,1.10912c0,0 1.71995,0.45588 2.51065,1.96024c0.9263,1.76235 0.54347,4.25241 0.54347,4.70004c0,0.39113 -2.80764,-3.02143 -2.80764,-3.02143l-6.87803,-0.14388c0,0 -0.00746,-0.63236 -0.91704,-2.0624c-0.84597,-1.33005 -2.24827,-2.54168 -2.24827,-2.54168z" fill="#ff2500"/></g><g data-paper-data="{&quot;index&quot;:null}" stroke="#000000" stroke-width="0" stroke-linecap="butt"><path d="M217.61848,190.0384c0.90958,-1.43005 0.91704,-2.0624 0.91704,-2.0624l7.35682,-0.23964c0,0 2.81706,-3.49868 2.9034,-3.11719c1.24486,2.26703 -0.19171,3.12921 -1.11802,4.89156c-0.7907,1.50436 -2.51065,1.96024 -2.51065,1.96024c0,0 -6.89274,1.62904 -8.51674,1.8129c-0.66405,0.07518 -1.28013,-0.70377 -1.28013,-0.70377c0,0 1.40229,-1.21163 2.24827,-2.54168z" fill="#b51b00"/><path d="M218.58596,190.75941c0.90958,-1.43005 0.91704,-2.0624 0.91704,-2.0624l6.87803,-0.14388c0,0 2.80764,-3.41257 2.80764,-3.02143c0,0.44763 0.38284,2.93769 -0.54346,4.70004c-0.7907,1.50436 -2.51065,1.96024 -2.51065,1.96024l-9.79686,1.10912c0,0 1.40229,-1.21163 2.24827,-2.54168z" fill="#ff2500"/></g><path d="M195.87549,170.45146l4.36551,-1.84459v22.81136l-4.36551,-2.2135z" fill="#b51b00" stroke="none" stroke-width="0" stroke-linecap="butt"/><path d="M196.47872,170.36941l3.8847,-1.87041v23.02045l-3.8847,-2.30205z" fill="url(#color-15)" stroke="none" stroke-width="0" stroke-linecap="butt"/><path d="M235.15216,181.32807l7.38686,-0.79899" fill="none" stroke="#ff6044" stroke-width="0.5" stroke-linecap="round"/><path d="M205.62193,183.6v-1.7l1.95,1.6l0.08334,1.98334z" fill="url(#color-16)" stroke="none" stroke-width="0" stroke-linecap="butt"/><path d="M214.30526,172.24593l-0.06667,-0.50776c0,0 -1.03553,-1.34384 -0.71775,-1.40875c0.7368,-0.1505 4.53442,-0.3684 4.53442,-0.3684l0.26667,2.15795z" fill="url(#color-17)" stroke="none" stroke-width="0" stroke-linecap="butt"/><path d="M217.99363,187.8657l-0.26667,1.98335c0,0 -3.79761,-0.20025 -4.53442,-0.33859c-0.31778,-0.05966 0.71775,-1.29475 0.71775,-1.29475l0.06667,-0.46667z" data-paper-data="{&quot;index&quot;:null}" fill="url(#color-18)" stroke="none" stroke-width="0" stroke-linecap="butt"/><path d="M222.51736,178.37007c0.11111,0.61365 0.38889,1.77778 0.38889,1.77778c0,0 -0.872,-0.82469 -1.50335,-1.93491c-0.61088,-1.07424 -2.21887,-1.31887 -2.21887,-1.62064c0,-0.61365 0.94354,-0.33334 1.72222,0c0.81799,0.35017 1.50178,1.17395 1.61111,1.77778z" fill="url(#color-19)" stroke="none" stroke-width="0" stroke-linecap="butt"/></g></g></svg>