<svg version="1.1" xmlns="http://www.w3.org/2000/svg" xmlns:xlink="http://www.w3.org/1999/xlink" width="188.22334" height="58.10324" viewBox="0,0,188.22334,58.10324"><defs><linearGradient x1="240.25" y1="161.79065" x2="240.25" y2="207.66571" gradientUnits="userSpaceOnUse" id="color-1"><stop offset="0" stop-color="#000000"/><stop offset="1" stop-color="#000000" stop-opacity="0"/></linearGradient><linearGradient x1="240.25" y1="161.79065" x2="240.25" y2="207.66571" gradientUnits="userSpaceOnUse" id="color-2"><stop offset="0" stop-color="#000000"/><stop offset="1" stop-color="#000000" stop-opacity="0"/></linearGradient></defs><g transform="translate(-146.15015,-153.31247)"><g data-paper-data="{&quot;isPaintingLayer&quot;:true}" fill-rule="nonzero" stroke-linejoin="miter" stroke-miterlimit="10" stroke-dasharray="" stroke-dashoffset="0" style="mix-blend-mode: normal"><path d="M166.55639,207.66558c-2.44792,0 -4.78125,-0.38021 -7,-1.14062c-2.21875,-0.77084 -4.15104,-1.84375 -5.79687,-3.21875c-1.63542,-1.375 -2.83854,-2.96354 -3.60937,-4.76562c-0.375,-0.80208 -0.36458,-1.54687 0.03125,-2.23437c0.40625,-0.6875 1.08854,-1.125 2.04688,-1.3125c0.6875,-0.15625 1.36458,-0.05208 2.03125,0.3125c0.66667,0.36458 1.17188,0.91146 1.51563,1.64063c0.45833,0.94792 1.21354,1.82292 2.26563,2.625c1.05208,0.80208 2.32292,1.45313 3.8125,1.95313c1.48958,0.5 3.05729,0.75 4.70313,0.75c1.83333,0 3.52083,-0.28646 5.0625,-0.85937c1.55208,-0.57292 2.80729,-1.40104 3.76563,-2.48437c0.95833,-1.09375 1.4375,-2.44271 1.4375,-4.04687c0,-2.03125 -0.79687,-3.84896 -2.39062,-5.45312c-1.58333,-1.60417 -4.19271,-2.59896 -7.82812,-2.98437c-4.72917,-0.45833 -8.45312,-1.84896 -11.17187,-4.17187c-2.70833,-2.33333 -4.0625,-5.22396 -4.0625,-8.67187c0,-2.52083 0.70313,-4.65625 2.10938,-6.40625c1.41667,-1.76042 3.33854,-3.09896 5.76563,-4.01562c2.42708,-0.92709 5.13021,-1.39062 8.10938,-1.39062c2.33333,0 4.36979,0.32813 6.10938,0.98438c1.73958,0.64584 3.25521,1.54167 4.54688,2.6875c1.30208,1.14583 2.43229,2.50521 3.39063,4.07813c0.53125,0.84375 0.75,1.64063 0.65625,2.39063c-0.09375,0.73958 -0.46354,1.31771 -1.10937,1.73438c-0.72917,0.45833 -1.51562,0.55729 -2.35937,0.29688c-0.83333,-0.27083 -1.46354,-0.77083 -1.89062,-1.5c-0.60417,-1.10417 -1.34896,-2.03646 -2.23437,-2.79687c-0.875,-0.77084 -1.90625,-1.375 -3.09375,-1.8125c-1.1875,-0.44791 -2.58333,-0.67187 -4.1875,-0.67187c-2.82292,-0.03125 -5.19271,0.5 -7.10937,1.59375c-1.90625,1.08333 -2.85937,2.75 -2.85937,5c0,1.14583 0.29688,2.24479 0.89063,3.29688c0.59375,1.05208 1.68229,1.96354 3.26563,2.73438c1.58333,0.76042 3.86458,1.29167 6.84375,1.59375c4.55208,0.45833 8.09896,1.84375 10.64063,4.15625c2.54167,2.3125 3.8125,5.35938 3.8125,9.14063c0,2.1875 -0.45312,4.08333 -1.35937,5.6875c-0.89583,1.60417 -2.09896,2.95313 -3.60937,4.04688c-1.5,1.08334 -3.21875,1.89584 -5.15625,2.4375c-1.92708,0.53125 -3.92187,0.79688 -5.98437,0.79688zM202.72051,207.08746c-0.83333,0 -1.53646,-0.28646 -2.10937,-0.85937c-0.57292,-0.57291 -0.85937,-1.28125 -0.85937,-2.125v-41.78125h5.95313v41.78125c0,0.84375 -0.28646,1.55209 -0.85937,2.125c-0.57292,0.57291 -1.28125,0.85938 -2.125,0.85938zM187.36114,167.82183c-0.80208,0 -1.46354,-0.25521 -1.98437,-0.76562c-0.51042,-0.52084 -0.76562,-1.18229 -0.76562,-1.98437c0,-0.80209 0.25521,-1.45834 0.76563,-1.96875c0.52083,-0.52084 1.18229,-0.78125 1.98438,-0.78125h30.67188c0.80208,0 1.45833,0.26041 1.96875,0.78125c0.52083,0.51041 0.78125,1.16666 0.78125,1.96875c0,0.80209 -0.26042,1.46354 -0.78125,1.98438c-0.51042,0.51041 -1.16667,0.76563 -1.96875,0.76563zM221.01214,207.08746c-1.07292,0 -1.89583,-0.45834 -2.46875,-1.375c-0.57292,-0.91666 -0.63021,-1.89062 -0.17187,-2.92187l16.10938,-38.46875c0.57292,-1.33333 1.51042,-2 2.8125,-2c1.375,0 2.3125,0.66667 2.8125,2l16.17188,38.57813c0.41667,1.07292 0.34896,2.04166 -0.20312,2.90625c-0.55208,0.85416 -1.38542,1.28125 -2.5,1.28125c-0.57292,0 -1.11979,-0.16146 -1.64062,-0.48437c-0.51042,-0.32291 -0.88021,-0.77084 -1.10937,-1.34375l-14.21875,-35.32812h1.60938l-14.45312,35.32813c-0.26042,0.60416 -0.65104,1.0625 -1.17187,1.375c-0.51042,0.30209 -1.03646,0.45313 -1.57812,0.45313zM224.05902,197.22808l2.28125,-4.9375h22.48438l2.28125,4.9375zM266.07952,207.08746c-0.84375,0 -1.55208,-0.28646 -2.125,-0.85937c-0.57292,-0.57291 -0.85937,-1.28125 -0.85937,-2.125v-38.8125c0,-0.875 0.28646,-1.58854 0.85938,-2.14062c0.57292,-0.55209 1.28125,-0.82812 2.125,-0.82812h10.3125c2.86458,0 5.40625,0.60417 7.625,1.8125c2.21875,1.19792 3.94792,2.84896 5.1875,4.95313c1.23958,2.09375 1.85938,4.53646 1.85938,7.32813c0,2.60417 -0.61979,4.91667 -1.85937,6.9375c-1.23958,2.02083 -2.96875,3.60938 -5.1875,4.76563c-2.21875,1.14583 -4.76042,1.71875 -7.625,1.71875h-7.34375v14.26563c0,0.84375 -0.27604,1.55209 -0.82812,2.125c-0.55208,0.57291 -1.26562,0.85938 -2.14062,0.85938zM289.86077,207.08746c-0.53125,0 -1.01562,-0.11459 -1.45312,-0.34375c-0.4375,-0.22916 -0.8125,-0.59375 -1.125,-1.09375l-10.3125,-16.625l5.78125,-1.65625l9.40625,15.125c0.6875,1.11458 0.78125,2.16146 0.28125,3.14063c-0.48958,0.96875 -1.34896,1.45313 -2.57812,1.45313zM269.04827,184.32183h7.34375c1.76042,0 3.30729,-0.33333 4.64063,-1c1.34375,-0.66667 2.39583,-1.59896 3.15625,-2.79687c0.76042,-1.20833 1.14063,-2.57812 1.14063,-4.10937c0,-1.67708 -0.38021,-3.16667 -1.14062,-4.46875c-0.76042,-1.30208 -1.8125,-2.3125 -3.15625,-3.03125c-1.33333,-0.72916 -2.88021,-1.09375 -4.64062,-1.09375h-7.34375zM312.56097,207.08746c-0.83333,0 -1.53646,-0.28646 -2.10937,-0.85937c-0.57292,-0.57291 -0.85937,-1.28125 -0.85937,-2.125v-41.78125h5.95313v41.78125c0,0.84375 -0.28646,1.55209 -0.85937,2.125c-0.57292,0.57291 -1.28125,0.85938 -2.125,0.85938zM297.20159,167.82183c-0.80208,0 -1.46354,-0.25521 -1.98437,-0.76562c-0.51042,-0.52084 -0.76562,-1.18229 -0.76562,-1.98437c0,-0.80209 0.25521,-1.45834 0.76563,-1.96875c0.52083,-0.52084 1.18229,-0.78125 1.98438,-0.78125h30.67188c0.80208,0 1.45833,0.26041 1.96875,0.78125c0.52083,0.51041 0.78125,1.16666 0.78125,1.96875c0,0.80209 -0.26042,1.46354 -0.78125,1.98438c-0.51042,0.51041 -1.16667,0.76563 -1.96875,0.76563z" fill="url(#color-1)" stroke="url(#color-2)" stroke-width="7.5" stroke-linecap="square"/><path d="M166.30639,202.9374c-2.44792,0 -4.78125,-0.38021 -7,-1.14062c-2.21875,-0.77084 -4.15104,-1.84375 -5.79687,-3.21875c-1.63542,-1.375 -2.83854,-2.96354 -3.60937,-4.76562c-0.375,-0.80208 -0.36458,-1.54687 0.03125,-2.23437c0.40625,-0.6875 1.08854,-1.125 2.04688,-1.3125c0.6875,-0.15625 1.36458,-0.05208 2.03125,0.3125c0.66667,0.36458 1.17188,0.91146 1.51563,1.64063c0.45833,0.94792 1.21354,1.82292 2.26563,2.625c1.05208,0.80208 2.32292,1.45313 3.8125,1.95313c1.48958,0.5 3.05729,0.75 4.70313,0.75c1.83333,0 3.52083,-0.28646 5.0625,-0.85937c1.55208,-0.57292 2.80729,-1.40104 3.76563,-2.48437c0.95833,-1.09375 1.4375,-2.44271 1.4375,-4.04687c0,-2.03125 -0.79687,-3.84896 -2.39062,-5.45312c-1.58333,-1.60417 -4.19271,-2.59896 -7.82812,-2.98437c-4.72917,-0.45833 -8.45312,-1.84896 -11.17187,-4.17187c-2.70833,-2.33333 -4.0625,-5.22396 -4.0625,-8.67187c0,-2.52083 0.70313,-4.65625 2.10938,-6.40625c1.41667,-1.76042 3.33854,-3.09896 5.76563,-4.01562c2.42708,-0.92709 5.13021,-1.39062 8.10938,-1.39062c2.33333,0 4.36979,0.32813 6.10938,0.98438c1.73958,0.64584 3.25521,1.54167 4.54688,2.6875c1.30208,1.14583 2.43229,2.50521 3.39063,4.07813c0.53125,0.84375 0.75,1.64063 0.65625,2.39063c-0.09375,0.73958 -0.46354,1.31771 -1.10937,1.73438c-0.72917,0.45833 -1.51562,0.55729 -2.35937,0.29688c-0.83333,-0.27083 -1.46354,-0.77083 -1.89062,-1.5c-0.60417,-1.10417 -1.34896,-2.03646 -2.23437,-2.79687c-0.875,-0.77084 -1.90625,-1.375 -3.09375,-1.8125c-1.1875,-0.44791 -2.58333,-0.67187 -4.1875,-0.67187c-2.82292,-0.03125 -5.19271,0.5 -7.10937,1.59375c-1.90625,1.08333 -2.85937,2.75 -2.85937,5c0,1.14583 0.29688,2.24479 0.89063,3.29688c0.59375,1.05208 1.68229,1.96354 3.26563,2.73438c1.58333,0.76042 3.86458,1.29167 6.84375,1.59375c4.55208,0.45833 8.09896,1.84375 10.64063,4.15625c2.54167,2.3125 3.8125,5.35938 3.8125,9.14063c0,2.1875 -0.45312,4.08333 -1.35937,5.6875c-0.89583,1.60417 -2.09896,2.95313 -3.60937,4.04688c-1.5,1.08334 -3.21875,1.89584 -5.15625,2.4375c-1.92708,0.53125 -3.92187,0.79688 -5.98437,0.79688zM202.47051,202.35928c-0.83333,0 -1.53646,-0.28646 -2.10937,-0.85937c-0.57292,-0.57291 -0.85937,-1.28125 -0.85937,-2.125v-41.78125h5.95313v41.78125c0,0.84375 -0.28646,1.55209 -0.85937,2.125c-0.57292,0.57291 -1.28125,0.85938 -2.125,0.85938zM187.11114,163.09365c-0.80208,0 -1.46354,-0.25521 -1.98437,-0.76562c-0.51042,-0.52084 -0.76562,-1.18229 -0.76562,-1.98437c0,-0.80209 0.25521,-1.45834 0.76563,-1.96875c0.52083,-0.52084 1.18229,-0.78125 1.98438,-0.78125h30.67188c0.80208,0 1.45833,0.26041 1.96875,0.78125c0.52083,0.51041 0.78125,1.16666 0.78125,1.96875c0,0.80209 -0.26042,1.46354 -0.78125,1.98438c-0.51042,0.51041 -1.16667,0.76563 -1.96875,0.76563zM220.76214,202.35928c-1.07292,0 -1.89583,-0.45834 -2.46875,-1.375c-0.57292,-0.91666 -0.63021,-1.89062 -0.17187,-2.92187l16.10938,-38.46875c0.57292,-1.33333 1.51042,-2 2.8125,-2c1.375,0 2.3125,0.66667 2.8125,2l16.17188,38.57813c0.41667,1.07292 0.34896,2.04166 -0.20312,2.90625c-0.55208,0.85416 -1.38542,1.28125 -2.5,1.28125c-0.57292,0 -1.11979,-0.16146 -1.64062,-0.48437c-0.51042,-0.32291 -0.88021,-0.77084 -1.10937,-1.34375l-14.21875,-35.32812h1.60938l-14.45312,35.32813c-0.26042,0.60416 -0.65104,1.0625 -1.17187,1.375c-0.51042,0.30209 -1.03646,0.45313 -1.57812,0.45313zM223.80902,192.4999l2.28125,-4.9375h22.48438l2.28125,4.9375zM265.82952,202.35928c-0.84375,0 -1.55208,-0.28646 -2.125,-0.85937c-0.57292,-0.57291 -0.85937,-1.28125 -0.85937,-2.125v-38.8125c0,-0.875 0.28646,-1.58854 0.85938,-2.14062c0.57292,-0.55209 1.28125,-0.82812 2.125,-0.82812h10.3125c2.86458,0 5.40625,0.60417 7.625,1.8125c2.21875,1.19792 3.94792,2.84896 5.1875,4.95313c1.23958,2.09375 1.85938,4.53646 1.85938,7.32813c0,2.60417 -0.61979,4.91667 -1.85937,6.9375c-1.23958,2.02083 -2.96875,3.60938 -5.1875,4.76563c-2.21875,1.14583 -4.76042,1.71875 -7.625,1.71875h-7.34375v14.26563c0,0.84375 -0.27604,1.55209 -0.82812,2.125c-0.55208,0.57291 -1.26562,0.85938 -2.14062,0.85938zM289.61077,202.35928c-0.53125,0 -1.01562,-0.11459 -1.45312,-0.34375c-0.4375,-0.22916 -0.8125,-0.59375 -1.125,-1.09375l-10.3125,-16.625l5.78125,-1.65625l9.40625,15.125c0.6875,1.11458 0.78125,2.16146 0.28125,3.14063c-0.48958,0.96875 -1.34896,1.45313 -2.57812,1.45313zM268.79827,179.59365h7.34375c1.76042,0 3.30729,-0.33333 4.64063,-1c1.34375,-0.66667 2.39583,-1.59896 3.15625,-2.79687c0.76042,-1.20833 1.14063,-2.57812 1.14063,-4.10937c0,-1.67708 -0.38021,-3.16667 -1.14062,-4.46875c-0.76042,-1.30208 -1.8125,-2.3125 -3.15625,-3.03125c-1.33333,-0.72916 -2.88021,-1.09375 -4.64062,-1.09375h-7.34375zM312.31097,202.35928c-0.83333,0 -1.53646,-0.28646 -2.10937,-0.85937c-0.57292,-0.57291 -0.85937,-1.28125 -0.85937,-2.125v-41.78125h5.95313v41.78125c0,0.84375 -0.28646,1.55209 -0.85937,2.125c-0.57292,0.57291 -1.28125,0.85938 -2.125,0.85938zM296.95159,163.09365c-0.80208,0 -1.46354,-0.25521 -1.98437,-0.76562c-0.51042,-0.52084 -0.76562,-1.18229 -0.76562,-1.98437c0,-0.80209 0.25521,-1.45834 0.76563,-1.96875c0.52083,-0.52084 1.18229,-0.78125 1.98438,-0.78125h30.67188c0.80208,0 1.45833,0.26041 1.96875,0.78125c0.52083,0.51041 0.78125,1.16666 0.78125,1.96875c0,0.80209 -0.26042,1.46354 -0.78125,1.98438c-0.51042,0.51041 -1.16667,0.76563 -1.96875,0.76563z" fill="#ca6c00" stroke="#ffffff" stroke-width="7.5" stroke-linecap="square"/><path d="M166.55639,203.1874c-2.44792,0 -4.78125,-0.38021 -7,-1.14062c-2.21875,-0.77084 -4.15104,-1.84375 -5.79687,-3.21875c-1.63542,-1.375 -2.83854,-2.96354 -3.60937,-4.76562c-0.375,-0.80208 -0.36458,-1.54687 0.03125,-2.23437c0.40625,-0.6875 1.08854,-1.125 2.04688,-1.3125c0.6875,-0.15625 1.36458,-0.05208 2.03125,0.3125c0.66667,0.36458 1.17188,0.91146 1.51563,1.64063c0.45833,0.94792 1.21354,1.82292 2.26563,2.625c1.05208,0.80208 2.32292,1.45313 3.8125,1.95313c1.48958,0.5 3.05729,0.75 4.70313,0.75c1.83333,0 3.52083,-0.28646 5.0625,-0.85937c1.55208,-0.57292 2.80729,-1.40104 3.76563,-2.48437c0.95833,-1.09375 1.4375,-2.44271 1.4375,-4.04687c0,-2.03125 -0.79687,-3.84896 -2.39062,-5.45312c-1.58333,-1.60417 -4.19271,-2.59896 -7.82812,-2.98437c-4.72917,-0.45833 -8.45312,-1.84896 -11.17187,-4.17187c-2.70833,-2.33333 -4.0625,-5.22396 -4.0625,-8.67187c0,-2.52083 0.70313,-4.65625 2.10938,-6.40625c1.41667,-1.76042 3.33854,-3.09896 5.76563,-4.01562c2.42708,-0.92709 5.13021,-1.39062 8.10938,-1.39062c2.33333,0 4.36979,0.32813 6.10938,0.98438c1.73958,0.64584 3.25521,1.54167 4.54688,2.6875c1.30208,1.14583 2.43229,2.50521 3.39063,4.07813c0.53125,0.84375 0.75,1.64063 0.65625,2.39063c-0.09375,0.73958 -0.46354,1.31771 -1.10937,1.73438c-0.72917,0.45833 -1.51562,0.55729 -2.35937,0.29688c-0.83333,-0.27083 -1.46354,-0.77083 -1.89062,-1.5c-0.60417,-1.10417 -1.34896,-2.03646 -2.23437,-2.79687c-0.875,-0.77084 -1.90625,-1.375 -3.09375,-1.8125c-1.1875,-0.44791 -2.58333,-0.67187 -4.1875,-0.67187c-2.82292,-0.03125 -5.19271,0.5 -7.10937,1.59375c-1.90625,1.08333 -2.85937,2.75 -2.85937,5c0,1.14583 0.29688,2.24479 0.89063,3.29688c0.59375,1.05208 1.68229,1.96354 3.26563,2.73438c1.58333,0.76042 3.86458,1.29167 6.84375,1.59375c4.55208,0.45833 8.09896,1.84375 10.64063,4.15625c2.54167,2.3125 3.8125,5.35938 3.8125,9.14063c0,2.1875 -0.45312,4.08333 -1.35937,5.6875c-0.89583,1.60417 -2.09896,2.95313 -3.60937,4.04688c-1.5,1.08334 -3.21875,1.89584 -5.15625,2.4375c-1.92708,0.53125 -3.92187,0.79688 -5.98437,0.79688zM202.72051,202.60928c-0.83333,0 -1.53646,-0.28646 -2.10937,-0.85937c-0.57292,-0.57291 -0.85937,-1.28125 -0.85937,-2.125v-41.78125h5.95313v41.78125c0,0.84375 -0.28646,1.55209 -0.85937,2.125c-0.57292,0.57291 -1.28125,0.85938 -2.125,0.85938zM187.36114,163.34365c-0.80208,0 -1.46354,-0.25521 -1.98437,-0.76562c-0.51042,-0.52084 -0.76562,-1.18229 -0.76562,-1.98437c0,-0.80209 0.25521,-1.45834 0.76563,-1.96875c0.52083,-0.52084 1.18229,-0.78125 1.98438,-0.78125h30.67188c0.80208,0 1.45833,0.26041 1.96875,0.78125c0.52083,0.51041 0.78125,1.16666 0.78125,1.96875c0,0.80209 -0.26042,1.46354 -0.78125,1.98438c-0.51042,0.51041 -1.16667,0.76563 -1.96875,0.76563zM221.01214,202.60928c-1.07292,0 -1.89583,-0.45834 -2.46875,-1.375c-0.57292,-0.91666 -0.63021,-1.89062 -0.17187,-2.92187l16.10938,-38.46875c0.57292,-1.33333 1.51042,-2 2.8125,-2c1.375,0 2.3125,0.66667 2.8125,2l16.17188,38.57813c0.41667,1.07292 0.34896,2.04166 -0.20312,2.90625c-0.55208,0.85416 -1.38542,1.28125 -2.5,1.28125c-0.57292,0 -1.11979,-0.16146 -1.64062,-0.48437c-0.51042,-0.32291 -0.88021,-0.77084 -1.10937,-1.34375l-14.21875,-35.32812h1.60938l-14.45312,35.32813c-0.26042,0.60416 -0.65104,1.0625 -1.17187,1.375c-0.51042,0.30209 -1.03646,0.45313 -1.57812,0.45313zM224.05902,192.7499l2.28125,-4.9375h22.48438l2.28125,4.9375zM266.07952,202.60928c-0.84375,0 -1.55208,-0.28646 -2.125,-0.85937c-0.57292,-0.57291 -0.85937,-1.28125 -0.85937,-2.125v-38.8125c0,-0.875 0.28646,-1.58854 0.85938,-2.14062c0.57292,-0.55209 1.28125,-0.82812 2.125,-0.82812h10.3125c2.86458,0 5.40625,0.60417 7.625,1.8125c2.21875,1.19792 3.94792,2.84896 5.1875,4.95313c1.23958,2.09375 1.85938,4.53646 1.85938,7.32813c0,2.60417 -0.61979,4.91667 -1.85937,6.9375c-1.23958,2.02083 -2.96875,3.60938 -5.1875,4.76563c-2.21875,1.14583 -4.76042,1.71875 -7.625,1.71875h-7.34375v14.26563c0,0.84375 -0.27604,1.55209 -0.82812,2.125c-0.55208,0.57291 -1.26562,0.85938 -2.14062,0.85938zM289.86077,202.60928c-0.53125,0 -1.01562,-0.11459 -1.45312,-0.34375c-0.4375,-0.22916 -0.8125,-0.59375 -1.125,-1.09375l-10.3125,-16.625l5.78125,-1.65625l9.40625,15.125c0.6875,1.11458 0.78125,2.16146 0.28125,3.14063c-0.48958,0.96875 -1.34896,1.45313 -2.57812,1.45313zM269.04827,179.84365h7.34375c1.76042,0 3.30729,-0.33333 4.64063,-1c1.34375,-0.66667 2.39583,-1.59896 3.15625,-2.79687c0.76042,-1.20833 1.14063,-2.57812 1.14063,-4.10937c0,-1.67708 -0.38021,-3.16667 -1.14062,-4.46875c-0.76042,-1.30208 -1.8125,-2.3125 -3.15625,-3.03125c-1.33333,-0.72916 -2.88021,-1.09375 -4.64062,-1.09375h-7.34375zM312.56097,202.60928c-0.83333,0 -1.53646,-0.28646 -2.10937,-0.85937c-0.57292,-0.57291 -0.85937,-1.28125 -0.85937,-2.125v-41.78125h5.95313v41.78125c0,0.84375 -0.28646,1.55209 -0.85937,2.125c-0.57292,0.57291 -1.28125,0.85938 -2.125,0.85938zM297.20159,163.34365c-0.80208,0 -1.46354,-0.25521 -1.98437,-0.76562c-0.51042,-0.52084 -0.76562,-1.18229 -0.76562,-1.98437c0,-0.80209 0.25521,-1.45834 0.76563,-1.96875c0.52083,-0.52084 1.18229,-0.78125 1.98438,-0.78125h30.67188c0.80208,0 1.45833,0.26041 1.96875,0.78125c0.52083,0.51041 0.78125,1.16666 0.78125,1.96875c0,0.80209 -0.26042,1.46354 -0.78125,1.98438c-0.51042,0.51041 -1.16667,0.76563 -1.96875,0.76563z" fill="#ca6c00" stroke="#ffffff" stroke-width="0" stroke-linecap="square"/><path d="M196.44447,162.07231v-3.03572h13v3.03572z" fill="#ca6c00" stroke="#ffffff" stroke-width="0" stroke-linecap="butt"/><path d="M204.46233,173.05445h-3.43572v-13.00001h3.43572z" fill="#ca6c00" stroke="#ffffff" stroke-width="0" stroke-linecap="butt"/><path d="M314.27186,174.24493h-3.43572v-13h3.43572z" fill="#ca6c00" stroke="#ffffff" stroke-width="0" stroke-linecap="butt"/><path d="M306.11114,162.07231v-3.03572h13v3.03572z" fill="#ca6c00" stroke="#ffffff" stroke-width="0" stroke-linecap="butt"/><path d="M273.64126,184.07424c0,0 3.01279,-1.81864 4.6137,-2.38649c1.73769,-0.61637 7.26913,-0.59476 7.26913,-0.59476c0,0 -0.8451,0.81952 -1.83091,1.31687c-1.04531,0.52737 -2.06032,0.95144 -2.06032,0.95144l3.86483,6.39955l-2.63283,1.64791l-4.83509,-7.23324z" fill="#ca6c00" stroke="#ffffff" stroke-width="0" stroke-linecap="butt"/><path d="M245.99652,185.4839l2.95133,-1.15241l5.0779,12.02686l-3.09418,1.15241z" fill="#ca6c00" stroke="#ffffff" stroke-width="0" stroke-linecap="butt"/><path d="M244.28393,191.47009v-2.42858h4.85715v2.42858z" fill="#ca6c00" stroke="none" stroke-width="0" stroke-linecap="butt"/><path d="M223.9907,197.01075l-3.09418,-1.15241l5.0779,-12.02686l2.95133,1.15241z" data-paper-data="{&quot;index&quot;:null}" fill="#ca6c00" stroke="#ffffff" stroke-width="0" stroke-linecap="butt"/><path d="M225.38393,191.47009v-2.42858h4.85715v2.42858z" fill="#ca6c00" stroke="none" stroke-width="0" stroke-linecap="butt"/><path d="M237.19414,163.43957l2.26033,-0.8882l1.77639,4.52065l-2.26033,0.8882z" fill="#ca6c00" stroke="none" stroke-width="0" stroke-linecap="butt"/><path d="M235.55446,168.66022l-2.26033,-0.88819l1.7764,-4.52065l2.26033,0.88819z" data-paper-data="{&quot;index&quot;:null}" fill="#ca6c00" stroke="none" stroke-width="0" stroke-linecap="butt"/></g></g></svg>