<svg version="1.1" xmlns="http://www.w3.org/2000/svg" xmlns:xlink="http://www.w3.org/1999/xlink" width="960" height="720" viewBox="0,0,960,720"><g transform="translate(240,180)"><g data-paper-data="{&quot;isPaintingLayer&quot;:true}" stroke-width="1" stroke-linecap="square" stroke-linejoin="miter" stroke-miterlimit="10" stroke-dasharray="" stroke-dashoffset="0" style="mix-blend-mode: normal"><path d="M-240,-180h960v720h-960z" fill="none" fill-rule="evenodd" stroke="none"/><path d="M164.97368,175.97542c-0.16682,0 -0.3086,-0.05672 -0.42536,-0.17015c-0.11677,-0.11677 -0.17516,-0.26022 -0.17516,-0.43037v-7.80673c0,-0.17682 0.05839,-0.32028 0.17516,-0.43037c0.11677,-0.1101 0.25856,-0.16514 0.42536,-0.16514c0.17682,0 0.32028,0.05504 0.43037,0.16514c0.11343,0.1101 0.17015,0.25355 0.17015,0.43037v3.31286h5.34961v-3.31286c0,-0.17682 0.05672,-0.32028 0.17015,-0.43037c0.11677,-0.1101 0.26022,-0.16514 0.43037,-0.16514c0.17682,0 0.31861,0.05504 0.42537,0.16514c0.10675,0.1101 0.16014,0.25355 0.16014,0.43037v7.80673c0,0.17015 -0.05338,0.3136 -0.16014,0.43037c-0.10675,0.11343 -0.24856,0.17015 -0.42537,0.17015c-0.17015,0 -0.3136,-0.05672 -0.43037,-0.17015c-0.11343,-0.11677 -0.17015,-0.26022 -0.17015,-0.43037v-3.43295h-5.34961v3.43295c0,0.17015 -0.05672,0.3136 -0.17015,0.43037c-0.1101,0.11343 -0.25355,0.17015 -0.43037,0.17015zM178.57933,176.09052c-0.67725,0 -1.29612,-0.11342 -1.8566,-0.34029c-0.56049,-0.22687 -1.04256,-0.54548 -1.44625,-0.95582c-0.40368,-0.41035 -0.71729,-0.89744 -0.94082,-1.46126c-0.22353,-0.56717 -0.33529,-1.18936 -0.33529,-1.86662c0,-0.67725 0.11176,-1.29612 0.33529,-1.8566c0.22353,-0.56049 0.53713,-1.0459 0.94082,-1.45625c0.40368,-0.41369 0.88576,-0.7323 1.44625,-0.95582c0.56049,-0.22687 1.17935,-0.3403 1.8566,-0.3403c0.67725,0 1.29445,0.11343 1.85159,0.3403c0.55715,0.22353 1.03923,0.54213 1.44625,0.95582c0.40702,0.41035 0.72228,0.89577 0.94581,1.45625c0.22353,0.56049 0.33529,1.17935 0.33529,1.8566c0,0.67725 -0.11177,1.29945 -0.33529,1.86662c-0.22353,0.56382 -0.5388,1.05091 -0.94581,1.46126c-0.40702,0.41035 -0.8891,0.72896 -1.44625,0.95582c-0.55715,0.22687 -1.17434,0.34029 -1.85159,0.34029zM178.57933,175.00459c0.50043,0 0.95915,-0.09008 1.37618,-0.27023c0.42037,-0.18015 0.78401,-0.4287 1.09094,-0.74563c0.30693,-0.32028 0.54213,-0.6956 0.7056,-1.12597c0.16682,-0.43037 0.25022,-0.89577 0.25022,-1.3962c0,-0.50043 -0.08341,-0.96583 -0.25022,-1.3962c-0.16347,-0.43037 -0.39868,-0.80403 -0.7056,-1.12097c-0.30693,-0.32028 -0.67058,-0.56883 -1.09094,-0.74564c-0.41702,-0.17682 -0.87575,-0.26523 -1.37618,-0.26523c-0.50043,0 -0.96082,0.08841 -1.38119,0.26523c-0.41702,0.17682 -0.77735,0.42536 -1.08094,0.74564c-0.30359,0.31694 -0.54047,0.6906 -0.71062,1.12097c-0.16682,0.43037 -0.25022,0.89577 -0.25022,1.3962c0,0.50043 0.0834,0.96583 0.25022,1.3962c0.17015,0.43037 0.40702,0.8057 0.71062,1.12597c0.30359,0.31694 0.66392,0.56548 1.08094,0.74563c0.42037,0.18015 0.88076,0.27023 1.38119,0.27023zM185.62531,175.97542c-0.17015,0 -0.31193,-0.05672 -0.42536,-0.17015c-0.1101,-0.11677 -0.16514,-0.26022 -0.16514,-0.43037v-7.80673c0,-0.16682 0.05838,-0.30692 0.17515,-0.42036c0.11677,-0.11677 0.25521,-0.17516 0.41536,-0.17516c0.17015,0 0.31194,0.05839 0.42537,0.17516c0.11677,0.11343 0.17515,0.25354 0.17515,0.42036v7.20621h4.17359c0.16682,0 0.30861,0.05838 0.42537,0.17515c0.11677,0.11677 0.17515,0.25856 0.17515,0.42537c0,0.17015 -0.05838,0.3136 -0.17515,0.43037c-0.11677,0.11343 -0.25856,0.17015 -0.42537,0.17015zM193.03753,175.97542c-0.16682,0 -0.30861,-0.05672 -0.42537,-0.17015c-0.11677,-0.11677 -0.17515,-0.26022 -0.17515,-0.43037v-7.80673c0,-0.17682 0.05838,-0.32028 0.17515,-0.43037c0.11677,-0.1101 0.25856,-0.16514 0.42537,-0.16514h2.08679c0.66056,0 1.26109,0.11009 1.80156,0.33029c0.5438,0.21685 1.01587,0.52712 1.41622,0.9308c0.40034,0.40368 0.70727,0.87908 0.9208,1.42622c0.21685,0.5438 0.32528,1.14599 0.32528,1.80655c0,0.66056 -0.10843,1.2661 -0.32528,1.81657c-0.21352,0.55047 -0.52045,1.02755 -0.9208,1.43124c-0.40034,0.40368 -0.87242,0.71561 -1.41622,0.93581c-0.54047,0.21685 -1.14099,0.32529 -1.80156,0.32529zM193.63805,174.9145h1.48627c0.64723,0 1.21772,-0.14679 1.71148,-0.44037c0.49709,-0.29692 0.88742,-0.70394 1.17101,-1.22106c0.28358,-0.52045 0.42536,-1.11596 0.42536,-1.78654c0,-0.67725 -0.14179,-1.27276 -0.42536,-1.78654c-0.28358,-0.51377 -0.67392,-0.91578 -1.17101,-1.20603c-0.49375,-0.29359 -1.06424,-0.44038 -1.71148,-0.44038h-1.48627zM207.7057,176.09052c-0.49375,0 -0.96416,-0.07672 -1.41121,-0.23019c-0.44372,-0.15347 -0.83071,-0.36866 -1.16099,-0.64556c-0.33029,-0.2769 -0.57216,-0.59551 -0.72563,-0.95582c-0.07673,-0.16347 -0.07506,-0.3136 0.00501,-0.45039c0.08007,-0.14012 0.21685,-0.22853 0.41035,-0.26523c0.13678,-0.03003 0.2719,-0.00835 0.40536,0.06505c0.13678,0.07006 0.2402,0.17849 0.31026,0.32529c0.09007,0.1935 0.24021,0.37199 0.45039,0.53546c0.21352,0.16015 0.47041,0.29025 0.77067,0.39034c0.30025,0.09675 0.61553,0.14513 0.94581,0.14513c0.36698,0 0.7056,-0.05672 1.01588,-0.17015c0.3136,-0.11677 0.56549,-0.28358 0.75566,-0.50043c0.1935,-0.22019 0.29025,-0.49209 0.29025,-0.81571c0,-0.40702 -0.16014,-0.77066 -0.48041,-1.09094c-0.31694,-0.32362 -0.84073,-0.52377 -1.57136,-0.60051c-0.95416,-0.09342 -1.7048,-0.37366 -2.25194,-0.84073c-0.5438,-0.4704 -0.8157,-1.05257 -0.8157,-1.7465c0,-0.5071 0.14178,-0.93747 0.42536,-1.29111c0.28692,-0.35365 0.67392,-0.6222 1.161,-0.8057c0.48709,-0.1835 1.03089,-0.27523 1.63141,-0.27523c0.4704,0 0.87908,0.06505 1.22605,0.19516c0.3503,0.1301 0.65556,0.31027 0.91578,0.54047c0.26357,0.23019 0.49209,0.50377 0.68559,0.82071c0.10675,0.17015 0.15012,0.3303 0.1301,0.48042c-0.02002,0.14679 -0.09509,0.26357 -0.22519,0.3503c-0.14679,0.09007 -0.30526,0.10843 -0.47541,0.05504c-0.16682,-0.05338 -0.29192,-0.15347 -0.37533,-0.30025c-0.12344,-0.22019 -0.27357,-0.40701 -0.45039,-0.56047c-0.17682,-0.1568 -0.38533,-0.27858 -0.62554,-0.36531c-0.23687,-0.09007 -0.51711,-0.13511 -0.84072,-0.13511c-0.56717,-0.00668 -1.04424,0.10008 -1.43124,0.32028c-0.38366,0.21685 -0.5755,0.55213 -0.5755,1.00587c0,0.23019 0.06005,0.45205 0.18015,0.66558c0.1201,0.21018 0.33863,0.39201 0.65556,0.54548c0.32028,0.15347 0.78067,0.2619 1.38119,0.32529c0.91412,0.09007 1.6264,0.36865 2.13684,0.83572c0.51044,0.46372 0.76566,1.07593 0.76566,1.83658c0,0.44037 -0.09007,0.82237 -0.27022,1.14598c-0.18015,0.32028 -0.42204,0.59051 -0.72563,0.8107c-0.30359,0.22019 -0.65056,0.38367 -1.04089,0.49043c-0.387,0.10675 -0.78734,0.16014 -1.20104,0.16014zM213.37634,175.97542c-0.16682,0 -0.3086,-0.05672 -0.42536,-0.17015c-0.11677,-0.11677 -0.17516,-0.26022 -0.17516,-0.43037v-7.80673c0,-0.17682 0.05839,-0.32028 0.17516,-0.43037c0.11677,-0.1101 0.25855,-0.16514 0.42536,-0.16514h2.30699c0.57716,0 1.08759,0.12678 1.53131,0.38033c0.44705,0.25355 0.79569,0.60553 1.04591,1.05591c0.25022,0.44705 0.37533,0.9625 0.37533,1.54633c0,0.56382 -0.12511,1.06424 -0.37533,1.50129c-0.25022,0.43705 -0.59885,0.77901 -1.04591,1.02588c-0.44372,0.24687 -0.95416,0.37032 -1.53131,0.37032h-1.70647v2.52217c0,0.17015 -0.05672,0.3136 -0.17015,0.43037c-0.1101,0.11343 -0.25355,0.17015 -0.43037,0.17015zM213.97686,171.74177h1.70647c0.35365,0 0.6639,-0.07673 0.9308,-0.2302c0.27023,-0.15347 0.48208,-0.36364 0.63555,-0.63054c0.15347,-0.27023 0.2302,-0.57883 0.2302,-0.9258c0,-0.36698 -0.07673,-0.69059 -0.2302,-0.97084c-0.15347,-0.28025 -0.36531,-0.50042 -0.63555,-0.66057c-0.2669,-0.16347 -0.57716,-0.24521 -0.9308,-0.24521h-1.70647zM219.25777,175.97542c-0.21685,0 -0.38366,-0.09175 -0.50043,-0.27524c-0.11343,-0.18682 -0.12345,-0.38366 -0.03003,-0.59051l3.23779,-7.73666c0.11677,-0.2669 0.30526,-0.40034 0.56548,-0.40034c0.2769,0 0.4654,0.13344 0.56548,0.40034l3.2528,7.76169c0.0834,0.21352 0.06839,0.40702 -0.04504,0.5805c-0.1101,0.17348 -0.27523,0.26023 -0.49543,0.26023c-0.11677,0 -0.22687,-0.03169 -0.33029,-0.09508c-0.10342,-0.06672 -0.17848,-0.15847 -0.22519,-0.27524l-2.85746,-7.10112h0.32028l-2.9025,7.10112c-0.05672,0.12344 -0.1368,0.21686 -0.24021,0.28025c-0.10342,0.06005 -0.20851,0.09008 -0.31526,0.09008zM219.86829,173.99371l0.4604,-0.99084h4.51889l0.4654,0.99084zM231.5265,176.09052c-0.62387,0 -1.20771,-0.11677 -1.75151,-0.3503c-0.54047,-0.23687 -1.01253,-0.56381 -1.41622,-0.98084c-0.40368,-0.42037 -0.71895,-0.91078 -0.94581,-1.47126c-0.22687,-0.56049 -0.3403,-1.16767 -0.3403,-1.82157c0,-0.64389 0.11343,-1.24441 0.3403,-1.80155c0.22687,-0.55715 0.54213,-1.04591 0.94581,-1.46627c0.40368,-0.42037 0.87409,-0.74898 1.41122,-0.98585c0.54047,-0.23687 1.12597,-0.35531 1.75651,-0.35531c0.59052,0 1.09928,0.07674 1.52632,0.2302c0.42704,0.15347 0.85573,0.40701 1.28611,0.76065c0.06005,0.04671 0.10676,0.09508 0.14012,0.14513c0.0367,0.04671 0.06005,0.09509 0.07005,0.14513c0.01335,0.05004 0.02003,0.1101 0.02003,0.18015c0,0.14679 -0.05172,0.26856 -0.15514,0.36531c-0.10342,0.09675 -0.22853,0.15013 -0.37534,0.16014c-0.14679,0.01 -0.28858,-0.03836 -0.42536,-0.14513c-0.28358,-0.24687 -0.57717,-0.43538 -0.88076,-0.56549c-0.30359,-0.1301 -0.7056,-0.19517 -1.20603,-0.19517c-0.45373,0 -0.88077,0.09342 -1.28111,0.28025c-0.40034,0.1835 -0.75231,0.43705 -1.05591,0.76067c-0.30359,0.32028 -0.54047,0.69394 -0.71062,1.12096c-0.16682,0.42704 -0.25022,0.88242 -0.25022,1.36617c0,0.49375 0.0834,0.95416 0.25022,1.38119c0.17015,0.42369 0.40702,0.79735 0.71062,1.12096c0.30359,0.32362 0.65556,0.5755 1.05591,0.75565c0.40034,0.18015 0.82737,0.27023 1.28111,0.27023c0.39034,0 0.76065,-0.06672 1.11096,-0.20017c0.3503,-0.13345 0.68726,-0.32028 1.01087,-0.56049c0.13678,-0.10008 0.2719,-0.14345 0.40535,-0.1301c0.1368,0.01 0.25023,0.06339 0.3403,0.16014c0.09342,0.09675 0.14012,0.22853 0.14012,0.39533c0,0.07673 -0.01502,0.15179 -0.04504,0.22519c-0.03003,0.0734 -0.07673,0.14179 -0.14012,0.20518c-0.41369,0.33029 -0.85741,0.5805 -1.33115,0.75065c-0.47374,0.16682 -0.97084,0.25021 -1.49129,0.25021zM237.0473,175.97542c-0.16682,0 -0.30861,-0.05672 -0.42537,-0.17015c-0.11677,-0.11677 -0.17515,-0.26022 -0.17515,-0.43037v-7.80673c0,-0.17682 0.05838,-0.32028 0.17515,-0.43037c0.11677,-0.1101 0.25856,-0.16514 0.42537,-0.16514h5.21448c0.17682,0 0.31861,0.05172 0.42537,0.15514c0.10675,0.10342 0.16014,0.23854 0.16014,0.40535c0,0.16347 -0.05338,0.29526 -0.16014,0.39534c-0.10675,0.10008 -0.24856,0.15012 -0.42537,0.15012h-4.61397v2.80242h3.30785c0.17682,0 0.31861,0.05172 0.42537,0.15514c0.1101,0.10342 0.16514,0.2352 0.16514,0.39533c0,0.16347 -0.05504,0.29693 -0.16514,0.40034c-0.10675,0.10342 -0.24856,0.15514 -0.42537,0.15514h-3.30785v2.88248h4.61397c0.17682,0 0.31861,0.05005 0.42537,0.15013c0.10675,0.10008 0.16014,0.23019 0.16014,0.39034c0,0.17015 -0.05338,0.30693 -0.16014,0.41035c-0.10675,0.10342 -0.24856,0.15514 -0.42537,0.15514zM248.49654,175.97542c-0.16682,0 -0.3086,-0.05672 -0.42536,-0.17015c-0.11677,-0.11677 -0.17515,-0.26022 -0.17515,-0.43037v-7.80673c0,-0.17682 0.05838,-0.32028 0.17515,-0.43037c0.11677,-0.1101 0.25856,-0.16514 0.42536,-0.16514h2.75737c0.52379,0 0.98251,0.10176 1.37618,0.30526c0.39702,0.2035 0.70895,0.48541 0.9358,0.84573c0.22687,0.3603 0.3403,0.77568 0.3403,1.24608c0,0.377 -0.10176,0.71728 -0.30526,1.02087c-0.2035,0.30359 -0.48208,0.5438 -0.83573,0.72062c0.5071,0.12344 0.91412,0.36532 1.22106,0.72563c0.30693,0.3603 0.46039,0.83238 0.46039,1.41622c0,0.53045 -0.12511,0.99919 -0.37533,1.4062c-0.25022,0.40702 -0.59885,0.72896 -1.0459,0.96583c-0.44372,0.23353 -0.95416,0.3503 -1.53131,0.3503zM249.09705,174.86946h2.39707c0.35365,0 0.66557,-0.06172 0.9358,-0.18516c0.27023,-0.12344 0.48208,-0.30359 0.63555,-0.54047c0.15347,-0.24021 0.2302,-0.53712 0.2302,-0.89077c0,-0.33029 -0.07673,-0.60218 -0.2302,-0.8157c-0.15347,-0.21685 -0.36531,-0.38033 -0.63555,-0.49043c-0.27023,-0.11343 -0.58216,-0.17015 -0.9358,-0.17015h-2.39707zM249.09705,170.67085h2.15687c0.43705,0 0.79568,-0.10675 1.07592,-0.32028c0.28025,-0.21685 0.42037,-0.54379 0.42037,-0.98084c0,-0.44037 -0.14012,-0.76567 -0.42037,-0.97585c-0.28025,-0.21018 -0.63888,-0.31526 -1.07592,-0.31526h-2.15687zM255.53095,175.97542c-0.21685,0 -0.38366,-0.09175 -0.50042,-0.27524c-0.11343,-0.18682 -0.12345,-0.38366 -0.03003,-0.59051l3.23779,-7.73666c0.11677,-0.2669 0.30526,-0.40034 0.56548,-0.40034c0.2769,0 0.46541,0.13344 0.56549,0.40034l3.2528,7.76169c0.0834,0.21352 0.06839,0.40702 -0.04504,0.5805c-0.1101,0.17348 -0.27523,0.26023 -0.49543,0.26023c-0.11677,0 -0.22687,-0.03169 -0.33029,-0.09508c-0.10342,-0.06672 -0.17849,-0.15847 -0.22519,-0.27524l-2.85747,-7.10112h0.32028l-2.9025,7.10112c-0.05672,0.12344 -0.13678,0.21686 -0.2402,0.28025c-0.10342,0.06005 -0.20851,0.09008 -0.31528,0.09008zM256.14148,173.99371l0.4604,-0.99084h4.51889l0.46541,0.99084zM264.59231,175.97542c-0.16682,0 -0.3086,-0.05672 -0.42536,-0.17015c-0.11677,-0.11677 -0.17515,-0.26022 -0.17515,-0.43037v-7.80673c0,-0.17682 0.05838,-0.32028 0.17515,-0.43037c0.11677,-0.1101 0.25856,-0.16514 0.42536,-0.16514h2.07679c0.57716,0 1.08761,0.12177 1.53132,0.36531c0.44705,0.24021 0.79569,0.57216 1.0459,0.99585c0.25022,0.42037 0.37533,0.91078 0.37533,1.47126c0,0.52379 -0.12511,0.98919 -0.37533,1.39621c-0.25022,0.40702 -0.59885,0.72563 -1.0459,0.95582c-0.44372,0.23019 -0.95417,0.34529 -1.53132,0.34529h-1.47627v2.87247c0,0.17015 -0.05672,0.3136 -0.17015,0.43037c-0.1101,0.11343 -0.25355,0.17015 -0.43038,0.17015zM269.37643,175.97542c-0.10675,0 -0.20518,-0.02335 -0.29526,-0.07006c-0.08675,-0.04671 -0.16014,-0.12011 -0.22019,-0.2202l-2.07679,-3.34287l1.166,-0.33528l1.89163,3.04761c0.13678,0.22019 0.15513,0.4287 0.05504,0.62554c-0.10008,0.19684 -0.27357,0.29526 -0.52045,0.29526zM265.19283,171.39648h1.47627c0.35364,0 0.6639,-0.06672 0.9308,-0.20018c0.27023,-0.13345 0.48208,-0.32028 0.63556,-0.56049c0.15347,-0.24354 0.23019,-0.52044 0.23019,-0.83071c0,-0.33695 -0.07672,-0.63555 -0.23019,-0.89578c-0.15347,-0.26357 -0.36532,-0.46708 -0.63556,-0.61052c-0.2669,-0.14679 -0.57717,-0.22019 -0.9308,-0.22019h-1.47627zM278.82058,176.09052c-0.67725,0 -1.29612,-0.11342 -1.8566,-0.34029c-0.56049,-0.22687 -1.04256,-0.54548 -1.44625,-0.95582c-0.40367,-0.41035 -0.71729,-0.89744 -0.94081,-1.46126c-0.22353,-0.56717 -0.33528,-1.18936 -0.33528,-1.86662c0,-0.67725 0.11176,-1.29612 0.33528,-1.8566c0.22353,-0.56049 0.53713,-1.0459 0.94081,-1.45625c0.40367,-0.41369 0.88576,-0.7323 1.44625,-0.95582c0.56049,-0.22687 1.17935,-0.3403 1.8566,-0.3403c0.67725,0 1.29445,0.11343 1.85159,0.3403c0.55715,0.22353 1.03923,0.54213 1.44625,0.95582c0.40702,0.41035 0.72228,0.89577 0.9458,1.45625c0.22353,0.56049 0.33529,1.17935 0.33529,1.8566c0,0.67725 -0.11177,1.29945 -0.33529,1.86662c-0.22353,0.56382 -0.5388,1.05091 -0.9458,1.46126c-0.40702,0.41035 -0.8891,0.72896 -1.44625,0.95582c-0.55715,0.22687 -1.17434,0.34029 -1.85159,0.34029zM278.82058,175.00459c0.50043,0 0.95916,-0.09008 1.37618,-0.27023c0.42037,-0.18015 0.78401,-0.4287 1.09094,-0.74563c0.30693,-0.32028 0.54214,-0.6956 0.70561,-1.12597c0.16682,-0.43037 0.25022,-0.89577 0.25022,-1.3962c0,-0.50043 -0.0834,-0.96583 -0.25022,-1.3962c-0.16347,-0.43037 -0.39868,-0.80403 -0.70561,-1.12097c-0.30693,-0.32028 -0.67058,-0.56883 -1.09094,-0.74564c-0.41702,-0.17682 -0.87575,-0.26523 -1.37618,-0.26523c-0.50043,0 -0.96082,0.08841 -1.38119,0.26523c-0.41702,0.17682 -0.77734,0.42536 -1.08093,0.74564c-0.30359,0.31694 -0.54047,0.6906 -0.71061,1.12097c-0.16682,0.43037 -0.25023,0.89577 -0.25023,1.3962c0,0.50043 0.08341,0.96583 0.25023,1.3962c0.17015,0.43037 0.40702,0.8057 0.71061,1.12597c0.30359,0.31694 0.6639,0.56548 1.08093,0.74563c0.42037,0.18015 0.88076,0.27023 1.38119,0.27023zM285.87658,175.97542c-0.16682,0 -0.3086,-0.05672 -0.42536,-0.17015c-0.11677,-0.11677 -0.17516,-0.26022 -0.17516,-0.43037v-7.80673c0,-0.17682 0.05839,-0.32028 0.17516,-0.43037c0.11677,-0.1101 0.25855,-0.16514 0.42536,-0.16514h2.07679c0.57716,0 1.08761,0.12177 1.53132,0.36531c0.44705,0.24021 0.79569,0.57216 1.04591,0.99585c0.25022,0.42037 0.37533,0.91078 0.37533,1.47126c0,0.52379 -0.12511,0.98919 -0.37533,1.39621c-0.25022,0.40702 -0.59885,0.72563 -1.04591,0.95582c-0.44372,0.23019 -0.95416,0.34529 -1.53132,0.34529h-1.47627v2.87247c0,0.17015 -0.05672,0.3136 -0.17015,0.43037c-0.1101,0.11343 -0.25355,0.17015 -0.43037,0.17015zM290.6607,175.97542c-0.10675,0 -0.20518,-0.02335 -0.29526,-0.07006c-0.08675,-0.04671 -0.16014,-0.12011 -0.22019,-0.2202l-2.07679,-3.34287l1.16601,-0.33528l1.89163,3.04761c0.13678,0.22019 0.15513,0.4287 0.05504,0.62554c-0.10008,0.19684 -0.27357,0.29526 -0.52045,0.29526zM286.4771,171.39648h1.47627c0.35364,0 0.6639,-0.06672 0.9308,-0.20018c0.27023,-0.13345 0.48208,-0.32028 0.63555,-0.56049c0.15347,-0.24354 0.2302,-0.52044 0.2302,-0.83071c0,-0.33695 -0.07672,-0.63555 -0.2302,-0.89578c-0.15347,-0.26357 -0.36531,-0.46708 -0.63555,-0.61052c-0.2669,-0.14679 -0.57716,-0.22019 -0.9308,-0.22019h-1.47627zM298.60854,175.97542c-0.17015,0 -0.3136,-0.05672 -0.43037,-0.17015c-0.11343,-0.11677 -0.17015,-0.26022 -0.17015,-0.43037v-8.40224h1.19603v8.40224c0,0.17015 -0.05839,0.3136 -0.17516,0.43037c-0.11343,0.11343 -0.25355,0.17015 -0.42036,0.17015zM295.51588,168.07862c-0.16014,0 -0.29192,-0.05172 -0.39533,-0.15514c-0.10342,-0.10342 -0.15514,-0.23687 -0.15514,-0.40034c0,-0.16015 0.05172,-0.29192 0.15514,-0.39533c0.10342,-0.10342 0.2352,-0.15514 0.39533,-0.15514h6.17031c0.16014,0 0.29192,0.05172 0.39533,0.15514c0.10342,0.10342 0.15514,0.2352 0.15514,0.39533c0,0.16347 -0.05172,0.29693 -0.15514,0.40034c-0.10342,0.10342 -0.2352,0.15514 -0.39533,0.15514zM302.28483,175.97542c-0.21685,0 -0.38366,-0.09175 -0.50043,-0.27524c-0.11343,-0.18682 -0.12345,-0.38366 -0.03003,-0.59051l3.23779,-7.73666c0.11677,-0.2669 0.30526,-0.40034 0.56549,-0.40034c0.2769,0 0.46541,0.13344 0.56548,0.40034l3.2528,7.76169c0.0834,0.21352 0.06839,0.40702 -0.04504,0.5805c-0.1101,0.17348 -0.27523,0.26023 -0.49542,0.26023c-0.11677,0 -0.22688,-0.03169 -0.3303,-0.09508c-0.10342,-0.06672 -0.17848,-0.15847 -0.22519,-0.27524l-2.85746,-7.10112h0.32027l-2.9025,7.10112c-0.05672,0.12344 -0.13678,0.21686 -0.2402,0.28025c-0.10342,0.06005 -0.20851,0.09008 -0.31526,0.09008zM302.89536,173.99371l0.4604,-0.99084h4.51889l0.46541,0.99084zM311.34619,175.97542c-0.16682,0 -0.30861,-0.05672 -0.42537,-0.17015c-0.11677,-0.11677 -0.17515,-0.26022 -0.17515,-0.43037v-7.80673c0,-0.17682 0.05838,-0.32028 0.17515,-0.43037c0.11677,-0.1101 0.25856,-0.16514 0.42537,-0.16514h2.30698c0.57716,0 1.08761,0.12678 1.53132,0.38033c0.44705,0.25355 0.79569,0.60553 1.04592,1.05591c0.25022,0.44705 0.37533,0.9625 0.37533,1.54633c0,0.56382 -0.12511,1.06424 -0.37533,1.50129c-0.25023,0.43705 -0.59887,0.77901 -1.04592,1.02588c-0.44372,0.24687 -0.95416,0.37032 -1.53132,0.37032h-1.70647v2.52217c0,0.17015 -0.05672,0.3136 -0.17015,0.43037c-0.1101,0.11343 -0.25355,0.17015 -0.43037,0.17015zM311.94671,171.74177h1.70647c0.35364,0 0.6639,-0.07673 0.9308,-0.2302c0.27023,-0.15347 0.48208,-0.36364 0.63555,-0.63054c0.15347,-0.27023 0.2302,-0.57883 0.2302,-0.9258c0,-0.36698 -0.07673,-0.69059 -0.2302,-0.97084c-0.15347,-0.28025 -0.36531,-0.50042 -0.63555,-0.66057c-0.2669,-0.16347 -0.57716,-0.24521 -0.9308,-0.24521h-1.70647z" fill="#ffffff" fill-rule="nonzero" stroke="#ffffff"/><path d="M176.36064,189.74728c-0.21685,0 -0.38367,-0.09175 -0.50043,-0.27524c-0.11343,-0.18682 -0.12344,-0.38366 -0.03002,-0.59051l3.23779,-7.73666c0.11677,-0.2669 0.30526,-0.40034 0.56548,-0.40034c0.2769,0 0.4654,0.13344 0.56548,0.40034l3.2528,7.76169c0.0834,0.21352 0.06839,0.40701 -0.04504,0.5805c-0.1101,0.17348 -0.27524,0.26022 -0.49543,0.26022c-0.11677,0 -0.22687,-0.03169 -0.33029,-0.09508c-0.10342,-0.06672 -0.17848,-0.15846 -0.22519,-0.27523l-2.85747,-7.10112h0.32028l-2.9025,7.10112c-0.05672,0.12344 -0.13678,0.21686 -0.2402,0.28025c-0.10342,0.06005 -0.20852,0.09007 -0.31528,0.09007zM176.97117,187.76558l0.46039,-0.99086h4.5189l0.46541,0.99086zM185.41201,189.74728c-0.17015,0 -0.31193,-0.05672 -0.42536,-0.17015c-0.1101,-0.11677 -0.16514,-0.26023 -0.16514,-0.43037v-7.80673c0,-0.17682 0.05504,-0.32028 0.16514,-0.43037c0.11343,-0.1101 0.25522,-0.16514 0.42536,-0.16514c0.1835,0 0.33696,0.07174 0.4604,0.21519l5.02934,6.69076v-6.31044c0,-0.17682 0.05671,-0.32028 0.17014,-0.43037c0.11677,-0.1101 0.25856,-0.16514 0.42537,-0.16514c0.17682,0 0.31861,0.05504 0.42536,0.16514c0.1101,0.1101 0.16514,0.25355 0.16514,0.43037v7.80673c0,0.17015 -0.05505,0.3136 -0.16514,0.43037c-0.10675,0.11343 -0.24854,0.17015 -0.42536,0.17015c-0.07673,0 -0.16014,-0.01668 -0.25022,-0.05004c-0.08675,-0.0367 -0.1568,-0.08841 -0.21018,-0.15514l-5.02433,-6.69076v6.29542c0,0.17015 -0.05672,0.3136 -0.17015,0.43037c-0.1101,0.11343 -0.25355,0.17015 -0.43037,0.17015zM197.09367,189.74728c-0.16347,0 -0.30359,-0.05672 -0.42037,-0.17015c-0.11343,-0.11677 -0.17014,-0.26023 -0.17014,-0.43037v-2.68732l-3.07766,-4.78411c-0.10008,-0.16015 -0.13845,-0.31027 -0.11509,-0.45039c0.02335,-0.14345 0.09008,-0.25855 0.20017,-0.34529c0.11343,-0.09007 0.24188,-0.13512 0.38533,-0.13512c0.1301,0 0.23353,0.02836 0.31027,0.08507c0.08007,0.05672 0.15347,0.13846 0.22019,0.24522l2.93253,4.649h-0.4654l2.97756,-4.69404c0.06005,-0.09007 0.13178,-0.16014 0.21518,-0.21018c0.08675,-0.05004 0.19183,-0.07507 0.31526,-0.07507c0.13678,0 0.25189,0.04838 0.34531,0.14513c0.09342,0.09342 0.14679,0.21186 0.16014,0.3553c0.01668,0.14012 -0.02168,0.28358 -0.11509,0.43037l-3.10268,4.78411v2.68732c0,0.17015 -0.05838,0.3136 -0.17515,0.43037c-0.11343,0.11343 -0.25355,0.17015 -0.42037,0.17015zM204.14835,189.74728c-0.14012,0 -0.26357,-0.04171 -0.37033,-0.12511c-0.10675,-0.08675 -0.18349,-0.20184 -0.23019,-0.34529l-2.317,-7.70663c-0.07673,-0.25355 -0.07173,-0.45373 0.01502,-0.60052c0.09007,-0.15012 0.2352,-0.22519 0.43537,-0.22519c0.1301,0 0.24856,0.0367 0.35531,0.1101c0.10675,0.07006 0.18349,0.18181 0.23019,0.33528l2.02174,7.03606h-0.25521l1.86662,-6.96601c0.03003,-0.11343 0.09841,-0.20851 0.20517,-0.28524c0.1101,-0.07673 0.23353,-0.11511 0.37032,-0.11511c0.12344,0 0.2402,0.03337 0.3503,0.10008c0.11343,0.06339 0.18516,0.16015 0.21519,0.29025l1.88161,6.97601h-0.23019l2.02674,-7.09111c0.07673,-0.26022 0.27358,-0.39034 0.59052,-0.39034c0.21352,0 0.3503,0.0834 0.41035,0.25022c0.06339,0.16347 0.06506,0.35531 0.00501,0.5755l-2.322,7.69162c-0.05338,0.14679 -0.13179,0.26523 -0.2352,0.35531c-0.10342,0.08675 -0.22353,0.13012 -0.3603,0.13012c-0.14679,0 -0.27191,-0.04504 -0.37533,-0.13511c-0.10342,-0.09342 -0.17848,-0.20518 -0.22519,-0.33529l-1.85659,-7.17618h0.27523l-1.87662,7.16117c-0.05338,0.14679 -0.13345,0.26523 -0.24021,0.35531c-0.10342,0.08675 -0.22352,0.13012 -0.3603,0.13012zM213.64728,189.74728c-0.16682,0 -0.3086,-0.05672 -0.42536,-0.17015c-0.11677,-0.11677 -0.17515,-0.26023 -0.17515,-0.43037v-7.80673c0,-0.17682 0.05838,-0.32028 0.17515,-0.43037c0.11677,-0.1101 0.25855,-0.16514 0.42536,-0.16514c0.17682,0 0.32028,0.05504 0.43038,0.16514c0.11343,0.1101 0.17014,0.25355 0.17014,0.43037v3.31285h5.34961v-3.31285c0,-0.17682 0.05671,-0.32028 0.17014,-0.43037c0.11677,-0.1101 0.26023,-0.16514 0.43038,-0.16514c0.17682,0 0.31861,0.05504 0.42536,0.16514c0.10675,0.1101 0.16014,0.25355 0.16014,0.43037v7.80673c0,0.17015 -0.05337,0.3136 -0.16014,0.43037c-0.10675,0.11343 -0.24854,0.17015 -0.42536,0.17015c-0.17015,0 -0.31361,-0.05672 -0.43038,-0.17015c-0.11343,-0.11677 -0.17014,-0.26023 -0.17014,-0.43037v-3.43295h-5.34961v3.43295c0,0.17015 -0.05671,0.3136 -0.17014,0.43037c-0.1101,0.11343 -0.25356,0.17015 -0.43038,0.17015zM223.68987,189.74728c-0.16682,0 -0.3086,-0.05672 -0.42536,-0.17015c-0.11677,-0.11677 -0.17516,-0.26023 -0.17516,-0.43037v-7.80673c0,-0.17682 0.05839,-0.32028 0.17516,-0.43037c0.11677,-0.1101 0.25855,-0.16514 0.42536,-0.16514h5.2145c0.17682,0 0.31861,0.05172 0.42536,0.15514c0.10675,0.10342 0.16015,0.23854 0.16015,0.40536c0,0.16347 -0.05338,0.29525 -0.16015,0.39533c-0.10675,0.10008 -0.24854,0.15013 -0.42536,0.15013h-4.61398v2.80242h3.30785c0.17682,0 0.31861,0.05172 0.42536,0.15514c0.1101,0.10342 0.16514,0.2352 0.16514,0.39534c0,0.16347 -0.05504,0.29693 -0.16514,0.40034c-0.10675,0.10342 -0.24854,0.15514 -0.42536,0.15514h-3.30785v2.88248h4.61398c0.17682,0 0.31861,0.05004 0.42536,0.15012c0.10675,0.10008 0.16015,0.23019 0.16015,0.39034c0,0.17015 -0.05338,0.30693 -0.16015,0.41035c-0.10675,0.10342 -0.24854,0.15514 -0.42536,0.15514zM231.76082,189.74728c-0.16682,0 -0.30861,-0.05672 -0.42537,-0.17015c-0.11677,-0.11677 -0.17515,-0.26023 -0.17515,-0.43037v-7.80673c0,-0.17682 0.05838,-0.32028 0.17515,-0.43037c0.11677,-0.1101 0.25856,-0.16514 0.42537,-0.16514h2.07679c0.57716,0 1.08761,0.12177 1.53132,0.36531c0.44705,0.24021 0.79569,0.57216 1.04591,0.99586c0.25022,0.42037 0.37533,0.91078 0.37533,1.47126c0,0.52379 -0.12511,0.98918 -0.37533,1.3962c-0.25022,0.40702 -0.59885,0.72563 -1.04591,0.95582c-0.44372,0.23019 -0.95416,0.34529 -1.53132,0.34529h-1.47628v2.87247c0,0.17015 -0.05671,0.3136 -0.17014,0.43037c-0.1101,0.11343 -0.25355,0.17015 -0.43037,0.17015zM236.54494,189.74728c-0.10675,0 -0.20518,-0.02335 -0.29525,-0.07006c-0.08675,-0.04671 -0.16015,-0.1201 -0.2202,-0.22019l-2.07679,-3.34287l1.166,-0.33529l1.89163,3.04763c0.13678,0.22019 0.15514,0.4287 0.05504,0.62554c-0.10008,0.19684 -0.27358,0.29526 -0.52045,0.29526zM232.36134,185.16834h1.47628c0.35365,0 0.6639,-0.06672 0.9308,-0.20017c0.27023,-0.13345 0.48208,-0.32028 0.63555,-0.56049c0.15347,-0.24354 0.2302,-0.52044 0.2302,-0.83071c0,-0.33695 -0.07673,-0.63555 -0.2302,-0.89577c-0.15347,-0.26357 -0.36531,-0.46708 -0.63555,-0.61052c-0.2669,-0.14679 -0.57716,-0.22019 -0.9308,-0.22019h-1.47628zM239.04774,189.74728c-0.16682,0 -0.30861,-0.05672 -0.42537,-0.17015c-0.11677,-0.11677 -0.17515,-0.26023 -0.17515,-0.43037v-7.80673c0,-0.17682 0.05838,-0.32028 0.17515,-0.43037c0.11677,-0.1101 0.25856,-0.16514 0.42537,-0.16514h5.21448c0.17682,0 0.31861,0.05172 0.42536,0.15514c0.10675,0.10342 0.16015,0.23854 0.16015,0.40536c0,0.16347 -0.05338,0.29525 -0.16015,0.39533c-0.10675,0.10008 -0.24854,0.15013 -0.42536,0.15013h-4.61398v2.80242h3.30785c0.17682,0 0.31861,0.05172 0.42536,0.15514c0.1101,0.10342 0.16514,0.2352 0.16514,0.39534c0,0.16347 -0.05504,0.29693 -0.16514,0.40034c-0.10675,0.10342 -0.24854,0.15514 -0.42536,0.15514h-3.30785v2.88248h4.61398c0.17682,0 0.31861,0.05004 0.42536,0.15012c0.10675,0.10008 0.16015,0.23019 0.16015,0.39034c0,0.17015 -0.05338,0.30693 -0.16015,0.41035c-0.10675,0.10342 -0.24854,0.15514 -0.42536,0.15514zM252.56374,189.74728c-0.17015,0 -0.3136,-0.05672 -0.43037,-0.17015c-0.11343,-0.11677 -0.17015,-0.26023 -0.17015,-0.43037v-8.40224h1.19603v8.40224c0,0.17015 -0.05839,0.3136 -0.17516,0.43037c-0.11343,0.11343 -0.25355,0.17015 -0.42036,0.17015zM249.47108,181.85048c-0.16015,0 -0.29192,-0.05172 -0.39533,-0.15514c-0.10342,-0.10342 -0.15514,-0.23688 -0.15514,-0.40035c0,-0.16015 0.05172,-0.29192 0.15514,-0.39533c0.10342,-0.10342 0.2352,-0.15514 0.39533,-0.15514h6.17032c0.16015,0 0.29192,0.05172 0.39533,0.15514c0.10342,0.10342 0.15514,0.2352 0.15514,0.39533c0,0.16347 -0.05172,0.29693 -0.15514,0.40035c-0.10342,0.10342 -0.2352,0.15514 -0.39533,0.15514zM261.10481,189.86238c-0.67725,0 -1.29612,-0.11343 -1.8566,-0.3403c-0.56049,-0.22687 -1.04256,-0.54548 -1.44625,-0.95582c-0.40368,-0.41035 -0.71729,-0.89744 -0.94081,-1.46126c-0.22352,-0.56717 -0.33528,-1.18935 -0.33528,-1.8666c0,-0.67725 0.11176,-1.29612 0.33528,-1.8566c0.22353,-0.56049 0.53713,-1.04591 0.94081,-1.45625c0.40368,-0.41369 0.88576,-0.7323 1.44625,-0.95582c0.56049,-0.22687 1.17935,-0.34029 1.8566,-0.34029c0.67725,0 1.29444,0.11342 1.85159,0.34029c0.55715,0.22353 1.03923,0.54213 1.44624,0.95582c0.40702,0.41035 0.72229,0.89577 0.94583,1.45625c0.22353,0.56049 0.33528,1.17935 0.33528,1.8566c0,0.67725 -0.11176,1.29945 -0.33528,1.8666c-0.22353,0.56382 -0.53881,1.05091 -0.94583,1.46126c-0.40702,0.41035 -0.8891,0.72896 -1.44624,0.95582c-0.55715,0.22687 -1.17434,0.3403 -1.85159,0.3403zM261.10481,188.77644c0.50043,0 0.95916,-0.09007 1.37618,-0.27022c0.42037,-0.18015 0.78399,-0.42871 1.09093,-0.74564c0.30693,-0.32028 0.54214,-0.6956 0.70561,-1.12597c0.16682,-0.43037 0.25021,-0.89577 0.25021,-1.3962c0,-0.50043 -0.0834,-0.96583 -0.25021,-1.3962c-0.16347,-0.43037 -0.39868,-0.80402 -0.70561,-1.12096c-0.30693,-0.32028 -0.67057,-0.56883 -1.09093,-0.74563c-0.41702,-0.17682 -0.87576,-0.26523 -1.37618,-0.26523c-0.50043,0 -0.96084,0.08841 -1.38119,0.26523c-0.41702,0.17682 -0.77734,0.42536 -1.08093,0.74563c-0.30359,0.31694 -0.54047,0.69059 -0.71061,1.12096c-0.16682,0.43037 -0.25022,0.89577 -0.25022,1.3962c0,0.50043 0.0834,0.96583 0.25022,1.3962c0.17015,0.43037 0.40702,0.8057 0.71061,1.12597c0.30359,0.31694 0.6639,0.56549 1.08093,0.74564c0.42037,0.18015 0.88076,0.27022 1.38119,0.27022zM271.53909,189.74728c-0.16682,0 -0.3086,-0.05672 -0.42536,-0.17015c-0.11677,-0.11677 -0.17515,-0.26023 -0.17515,-0.43037v-7.80673c0,-0.17682 0.05838,-0.32028 0.17515,-0.43037c0.11677,-0.1101 0.25855,-0.16514 0.42536,-0.16514h2.0868c0.66056,0 1.26108,0.1101 1.80155,0.33029c0.5438,0.21685 1.01587,0.52712 1.41622,0.93079c0.40035,0.40368 0.70728,0.87909 0.9208,1.42623c0.21685,0.5438 0.32528,1.14599 0.32528,1.80655c0,0.66056 -0.10843,1.2661 -0.32528,1.81657c-0.21352,0.55047 -0.52045,1.02755 -0.9208,1.43124c-0.40035,0.40368 -0.87242,0.71561 -1.41622,0.93581c-0.54047,0.21685 -1.14099,0.32528 -1.80155,0.32528zM272.13961,188.68637h1.48628c0.64723,0 1.21771,-0.14679 1.71146,-0.44037c0.49709,-0.29692 0.88744,-0.70394 1.17101,-1.22106c0.28358,-0.52045 0.42536,-1.11596 0.42536,-1.78654c0,-0.67725 -0.14179,-1.27276 -0.42536,-1.78654c-0.28358,-0.51377 -0.67392,-0.91578 -1.17101,-1.20603c-0.49375,-0.29359 -1.06424,-0.44037 -1.71146,-0.44037h-1.48628zM280.56702,189.74728c-0.16682,0 -0.3086,-0.05672 -0.42536,-0.17015c-0.11677,-0.11677 -0.17515,-0.26023 -0.17515,-0.43037v-7.80673c0,-0.17682 0.05838,-0.32028 0.17515,-0.43037c0.11677,-0.1101 0.25855,-0.16514 0.42536,-0.16514h2.07679c0.57716,0 1.08761,0.12177 1.53132,0.36531c0.44705,0.24021 0.79569,0.57216 1.0459,0.99586c0.25022,0.42037 0.37533,0.91078 0.37533,1.47126c0,0.52379 -0.12511,0.98918 -0.37533,1.3962c-0.25022,0.40702 -0.59885,0.72563 -1.0459,0.95582c-0.44372,0.23019 -0.95417,0.34529 -1.53132,0.34529h-1.47627v2.87247c0,0.17015 -0.05672,0.3136 -0.17015,0.43037c-0.1101,0.11343 -0.25355,0.17015 -0.43037,0.17015zM285.35114,189.74728c-0.10675,0 -0.20518,-0.02335 -0.29526,-0.07006c-0.08675,-0.04671 -0.16014,-0.1201 -0.22019,-0.22019l-2.07679,-3.34287l1.166,-0.33529l1.89163,3.04763c0.13678,0.22019 0.15514,0.4287 0.05505,0.62554c-0.10008,0.19684 -0.27358,0.29526 -0.52045,0.29526zM281.16755,185.16834h1.47627c0.35364,0 0.6639,-0.06672 0.9308,-0.20017c0.27023,-0.13345 0.48208,-0.32028 0.63555,-0.56049c0.15347,-0.24354 0.2302,-0.52044 0.2302,-0.83071c0,-0.33695 -0.07673,-0.63555 -0.2302,-0.89577c-0.15347,-0.26357 -0.36531,-0.46708 -0.63555,-0.61052c-0.2669,-0.14679 -0.57717,-0.22019 -0.9308,-0.22019h-1.47627zM287.85395,189.74728c-0.16682,0 -0.3086,-0.05672 -0.42536,-0.17015c-0.11677,-0.11677 -0.17515,-0.26023 -0.17515,-0.43037v-7.80673c0,-0.17682 0.05838,-0.32028 0.17515,-0.43037c0.11677,-0.1101 0.25856,-0.16514 0.42536,-0.16514c0.17682,0 0.32027,0.05504 0.43037,0.16514c0.11343,0.1101 0.17015,0.25355 0.17015,0.43037v7.80673c0,0.17015 -0.05672,0.3136 -0.17015,0.43037c-0.1101,0.11343 -0.25355,0.17015 -0.43037,0.17015zM290.63343,189.74728c-0.17015,0 -0.3136,-0.05672 -0.43037,-0.17015c-0.11343,-0.11677 -0.17015,-0.26023 -0.17015,-0.43037v-7.80673c0,-0.17682 0.05672,-0.32028 0.17015,-0.43037c0.11677,-0.1101 0.26023,-0.16514 0.43037,-0.16514h5.20949c0.17682,0 0.31861,0.05172 0.42536,0.15514c0.1101,0.10342 0.16513,0.23854 0.16513,0.40536c0,0.16347 -0.05504,0.29525 -0.16513,0.39533c-0.10675,0.10008 -0.24854,0.15013 -0.42536,0.15013h-4.60897v2.80242h3.30785c0.17682,0 0.31861,0.05172 0.42537,0.15514c0.1101,0.10342 0.16514,0.2352 0.16514,0.39534c0,0.16347 -0.05504,0.29693 -0.16514,0.40034c-0.10675,0.10342 -0.24856,0.15514 -0.42537,0.15514h-3.30785v3.38791c0,0.17015 -0.05838,0.3136 -0.17515,0.43037c-0.11343,0.11343 -0.25522,0.17015 -0.42536,0.17015zM300.63205,189.74728c-0.17015,0 -0.31361,-0.05672 -0.43038,-0.17015c-0.11343,-0.11677 -0.17015,-0.26023 -0.17015,-0.43037v-8.40224h1.19603v8.40224c0,0.17015 -0.05839,0.3136 -0.17516,0.43037c-0.11343,0.11343 -0.25354,0.17015 -0.42036,0.17015zM297.53938,181.85048c-0.16014,0 -0.29192,-0.05172 -0.39534,-0.15514c-0.10342,-0.10342 -0.15514,-0.23688 -0.15514,-0.40035c0,-0.16015 0.05172,-0.29192 0.15514,-0.39533c0.10342,-0.10342 0.2352,-0.15514 0.39534,-0.15514h6.17031c0.16014,0 0.29192,0.05172 0.39534,0.15514c0.10342,0.10342 0.15514,0.2352 0.15514,0.39533c0,0.16347 -0.05172,0.29693 -0.15514,0.40035c-0.10342,0.10342 -0.23521,0.15514 -0.39534,0.15514z" fill="#ffffff" fill-rule="nonzero" stroke="#ffffff"/></g></g></svg>