<svg version="1.1" xmlns="http://www.w3.org/2000/svg" xmlns:xlink="http://www.w3.org/1999/xlink" width="720" height="540" viewBox="0,0,720,540"><defs><clipPath id="clip-1"><rect x="-240" y="-180" transform="scale(0.5,0.5)" width="1440" height="1080" fill="none" fill-rule="nonzero" stroke="none" stroke-width="0.5" stroke-linecap="butt"/></clipPath></defs><g transform="translate(120,90)"><g clip-path="url(#clip-1)" data-paper-data="{&quot;isPaintingLayer&quot;:true}" stroke-linejoin="miter" stroke-miterlimit="10" stroke-dasharray="" stroke-dashoffset="0" style="mix-blend-mode: normal"><path d="M-240,-180h960v720h-960z" fill-opacity="0" fill="#000000" fill-rule="evenodd" stroke="none" stroke-width="1" stroke-linecap="square"/><path d="M55.23883,107.2378h410.83466v108h-410.83466z" fill-opacity="0" fill="#000000" fill-rule="evenodd" stroke="none" stroke-width="1" stroke-linecap="square"/><path d="M-240,-180h960v720h-960z" fill="none" fill-rule="evenodd" stroke="none" stroke-width="1" stroke-linecap="square"/><path d="M192.91429,192.0815l93.56666,0.02801" data-paper-data="{&quot;index&quot;:null}" fill="#adadad" fill-rule="nonzero" stroke="#ff3737" stroke-width="24" stroke-linecap="round"/><path d="M192.71429,166.2815l93.56666,0.02801" data-paper-data="{&quot;index&quot;:null}" fill="#adadad" fill-rule="nonzero" stroke="#686868" stroke-width="24" stroke-linecap="round"/><path d="M216.59856,170.8706c-0.15248,0 -0.27861,-0.05177 -0.37838,-0.1553c-0.09977,-0.10354 -0.14966,-0.23155 -0.14966,-0.38403v-7.01415c0,-0.15813 0.04989,-0.28708 0.14966,-0.38685c0.09977,-0.09977 0.2259,-0.14966 0.37838,-0.14966c0.16566,0 0.30402,0.06495 0.41509,0.19484l4.51515,6.0089v-5.66723c0,-0.15813 0.05177,-0.28708 0.15531,-0.38685c0.10542,-0.09977 0.23343,-0.14966 0.38403,-0.14966c0.16001,0 0.28802,0.04989 0.38403,0.14966c0.09601,0.09977 0.14401,0.22872 0.14401,0.38685v7.01415c0,0.15248 -0.048,0.28049 -0.14401,0.38403c-0.09601,0.10354 -0.22402,0.15531 -0.38403,0.15531c-0.06777,0 -0.14213,-0.01506 -0.22307,-0.04518c-0.07906,-0.032 -0.14307,-0.07906 -0.19201,-0.14119l-4.51515,-6.0089v5.65594c0,0.15248 -0.05083,0.28049 -0.15248,0.38403c-0.09977,0.10354 -0.22872,0.15531 -0.38685,0.15531zM228.40819,170.97508c-0.60616,0 -1.1615,-0.10165 -1.666,-0.30496c-0.50451,-0.20519 -0.93842,-0.49227 -1.30174,-0.86124c-0.36144,-0.36897 -0.64287,-0.80759 -0.8443,-1.31586c-0.19954,-0.50827 -0.29932,-1.06643 -0.29932,-1.67447c0,-0.60616 0.09977,-1.1615 0.29932,-1.666c0.20143,-0.50451 0.48286,-0.94124 0.8443,-1.31021c0.36332,-0.37085 0.79723,-0.65793 1.30174,-0.86124c0.50451,-0.20331 1.05984,-0.30496 1.666,-0.30496c0.60804,0 1.16244,0.10165 1.66318,0.30496c0.50074,0.20331 0.93372,0.49039 1.29892,0.86124c0.36709,0.36897 0.6504,0.8057 0.84994,1.31021c0.20143,0.50451 0.30214,1.05984 0.30214,1.666c0,0.60804 -0.10071,1.1662 -0.30214,1.67447c-0.19954,0.50827 -0.48286,0.94689 -0.84994,1.31586c-0.3652,0.36897 -0.79818,0.65605 -1.29892,0.86124c-0.50074,0.20331 -1.05513,0.30496 -1.66318,0.30496zM228.40819,170.00089c0.44991,0 0.86312,-0.08095 1.23962,-0.24284c0.3765,-0.16378 0.70217,-0.38873 0.97701,-0.67487c0.27673,-0.28614 0.48945,-0.62216 0.63816,-1.00807c0.14872,-0.38779 0.22308,-0.80665 0.22308,-1.25656c0,-0.44803 -0.07436,-0.865 -0.22307,-1.25091c-0.14872,-0.38779 -0.36144,-0.72476 -0.63816,-1.0109c-0.27484,-0.28802 -0.60051,-0.51109 -0.97701,-0.66922c-0.3765,-0.15813 -0.7897,-0.23719 -1.23962,-0.23719c-0.44803,0 -0.8603,0.07906 -1.2368,0.23719c-0.3765,0.15813 -0.70123,0.3812 -0.97419,0.66923c-0.27296,0.28614 -0.48568,0.6231 -0.63816,1.0109c-0.1506,0.38591 -0.2259,0.80288 -0.2259,1.25091c0,0.44991 0.0753,0.86877 0.2259,1.25656c0.15248,0.38591 0.3652,0.72193 0.63816,1.00807c0.27296,0.28614 0.59769,0.5111 0.97419,0.67487c0.3765,0.16189 0.78876,0.24284 1.2368,0.24284zM234.75073,170.8706c-0.15248,0 -0.28049,-0.05177 -0.38403,-0.1553c-0.10354,-0.10354 -0.1553,-0.23155 -0.1553,-0.38403v-7.01415c0,-0.15813 0.05177,-0.28708 0.15531,-0.38685c0.10354,-0.09977 0.23155,-0.14966 0.38403,-0.14966h1.86366c0.51768,0 0.97701,0.10918 1.37798,0.32755c0.40097,0.21649 0.71346,0.51486 0.93748,0.89512c0.22402,0.37838 0.33603,0.81982 0.33603,1.32433c0,0.47062 -0.11201,0.88854 -0.33602,1.25374c-0.22402,0.3652 -0.53651,0.65228 -0.93748,0.86124c-0.40097,0.20707 -0.8603,0.31061 -1.37798,0.31061h-1.32715v2.57807c0,0.15248 -0.04989,0.28049 -0.14966,0.38403c-0.09977,0.10354 -0.22872,0.15531 -0.38685,0.15531zM239.04845,170.8706c-0.09601,0 -0.18354,-0.02071 -0.26261,-0.06212c-0.07906,-0.04142 -0.14683,-0.1073 -0.20331,-0.19766l-1.86366,-3.00445l1.04478,-0.29932l1.69989,2.73337c0.12424,0.20143 0.14119,0.39062 0.05083,0.56757c-0.08848,0.17507 -0.24378,0.26261 -0.46592,0.26261zM235.28724,166.75642h1.32715c0.31814,0 0.59769,-0.06024 0.83865,-0.18072c0.24284,-0.12048 0.43297,-0.28896 0.57039,-0.50545c0.13742,-0.21837 0.20613,-0.46592 0.20613,-0.74264c0,-0.30308 -0.06871,-0.57228 -0.20613,-0.80759c-0.13742,-0.23531 -0.32755,-0.41791 -0.57039,-0.5478c-0.24096,-0.13177 -0.52051,-0.19766 -0.83865,-0.19766h-1.32715zM241.29844,170.8706c-0.15248,0 -0.28049,-0.05177 -0.38403,-0.1553c-0.10354,-0.10354 -0.1553,-0.23155 -0.1553,-0.38403v-7.01415c0,-0.15813 0.05177,-0.28708 0.15531,-0.38685c0.10354,-0.09977 0.23155,-0.14966 0.38403,-0.14966c0.20707,0 0.3652,0.09601 0.47439,0.28802l3.24447,6.49741h-0.3332l3.16258,-6.49741c0.10918,-0.19201 0.26731,-0.28802 0.47439,-0.28802c0.15248,0 0.28049,0.04989 0.38403,0.14966c0.10354,0.09977 0.15531,0.22872 0.15531,0.38685v7.01415c0,0.15248 -0.05365,0.28049 -0.16095,0.38403c-0.1073,0.10354 -0.23343,0.15531 -0.37838,0.15531c-0.1506,0 -0.27861,-0.05177 -0.38403,-0.1553c-0.10354,-0.10354 -0.1553,-0.23155 -0.1553,-0.38403v-5.5204l0.20896,-0.05365l-2.71361,5.53452c-0.1186,0.17884 -0.27484,0.26825 -0.46874,0.26825c-0.22778,0 -0.39344,-0.1073 -0.49698,-0.32191l-2.68255,-5.37639l0.20613,-0.05083v5.5204c0,0.15248 -0.05177,0.28049 -0.1553,0.38403c-0.10354,0.10354 -0.2306,0.15531 -0.3812,0.15531zM250.61101,170.8706c-0.1939,0 -0.34261,-0.08283 -0.44615,-0.24849c-0.10354,-0.16566 -0.11389,-0.34167 -0.03106,-0.52804l2.91127,-6.95203c0.10354,-0.24096 0.27296,-0.36144 0.50827,-0.36144c0.24849,0 0.41791,0.12048 0.50827,0.36144l2.92257,6.9718c0.0753,0.1939 0.06306,0.36897 -0.03671,0.52521c-0.09977,0.15436 -0.25037,0.23155 -0.4518,0.23155c-0.10354,0 -0.20237,-0.02918 -0.29649,-0.08753c-0.09224,-0.05836 -0.15907,-0.1393 -0.20048,-0.24284l-2.5696,-6.38446h0.29085l-2.61195,6.38446c-0.04706,0.10918 -0.11766,0.19201 -0.21178,0.24849c-0.09224,0.05459 -0.18731,0.08189 -0.2852,0.08189zM251.16164,169.08882l0.41227,-0.8923h4.06335l0.41227,0.8923zM258.74425,170.8706c-0.15248,0 -0.27861,-0.05177 -0.37838,-0.1553c-0.09977,-0.10354 -0.14966,-0.23155 -0.14966,-0.38403v-7.01415c0,-0.1506 0.05177,-0.27767 0.15531,-0.3812c0.10354,-0.10354 0.22778,-0.1553 0.37273,-0.1553c0.15248,0 0.28049,0.05177 0.38403,0.15531c0.10354,0.10354 0.15531,0.2306 0.15531,0.3812v6.47482h3.74992c0.15248,0 0.28049,0.05177 0.38403,0.15531c0.10354,0.10354 0.15531,0.23155 0.15531,0.38403c0,0.15248 -0.05177,0.28049 -0.1553,0.38403c-0.10354,0.10354 -0.23155,0.15531 -0.38403,0.15531z" fill="#2f2f2f" fill-rule="nonzero" stroke="none" stroke-width="1" stroke-linecap="square"/><path d="M214.28221,196.50932c-0.56018,0 -1.08493,-0.1063 -1.57425,-0.3189c-0.48594,-0.2126 -0.91451,-0.51125 -1.28572,-0.89595c-0.36783,-0.3847 -0.65636,-0.82678 -0.86558,-1.32621c-0.20585,-0.50281 -0.30878,-1.04106 -0.30878,-1.61474c0,-0.56693 0.10124,-1.10012 0.30371,-1.59956c0.20585,-0.50281 0.49269,-0.9432 0.86052,-1.32115c0.37121,-0.38133 0.79978,-0.67998 1.28572,-0.89595c0.48932,-0.21935 1.01744,-0.32902 1.58437,-0.32902c0.49607,0 0.94826,0.07255 1.35659,0.21766c0.40833,0.14511 0.80147,0.37627 1.17942,0.69348c0.06412,0.05062 0.10124,0.10967 0.11136,0.17717c0.01012,0.06412 0.00169,0.12486 -0.02531,0.18223c-0.027,0.05737 -0.06918,0.10124 -0.12655,0.13161c-0.0135,0.05399 -0.04893,0.09449 -0.1063,0.12149c-0.05399,0.027 -0.11811,0.03712 -0.19235,0.03037c-0.07087,-0.00675 -0.14005,-0.03712 -0.20754,-0.09111c-0.26997,-0.23622 -0.56356,-0.41001 -0.88077,-0.52137c-0.31721,-0.11474 -0.68673,-0.1721 -1.10855,-0.1721c-0.44882,0 -0.86896,0.08943 -1.26041,0.26828c-0.39145,0.17885 -0.73566,0.42351 -1.03263,0.73397c-0.29696,0.31046 -0.52981,0.66986 -0.69854,1.07818c-0.16873,0.40833 -0.25309,0.84027 -0.25309,1.29584c0,0.46907 0.08436,0.90777 0.25309,1.31609c0.16873,0.40833 0.40158,0.76772 0.69854,1.07818c0.29696,0.31046 0.64117,0.55512 1.03263,0.73397c0.39145,0.17548 0.81159,0.26322 1.26041,0.26322c0.37795,0 0.73566,-0.06243 1.07312,-0.18729c0.34083,-0.12486 0.66311,-0.30371 0.96682,-0.53656c0.08436,-0.07087 0.1721,-0.09955 0.26322,-0.08605c0.09449,0.0135 0.17548,0.05568 0.24297,0.12655c0.07087,0.06749 0.1063,0.15692 0.1063,0.26828c0,0.05399 -0.00675,0.10461 -0.02025,0.15186c-0.0135,0.04387 -0.04556,0.08943 -0.09618,0.13667c-0.35096,0.32733 -0.7441,0.5585 -1.17942,0.69348c-0.43532,0.13161 -0.88752,0.19741 -1.35659,0.19741zM216.93464,195.3299l-0.78965,-0.16704v-2.08044h-1.61474c-0.11811,0 -0.21597,-0.03375 -0.29359,-0.10124c-0.07424,-0.07087 -0.11136,-0.15861 -0.11136,-0.26322c0,-0.10461 0.03712,-0.18898 0.11136,-0.25309c0.07762,-0.06749 0.17548,-0.10124 0.29359,-0.10124h1.99945c0.11811,0 0.21429,0.03712 0.28853,0.11136c0.07762,0.07087 0.11642,0.16535 0.11642,0.28347zM219.04044,196.40808c-0.11811,0 -0.21597,-0.03712 -0.29359,-0.11136c-0.07424,-0.07762 -0.11136,-0.17548 -0.11136,-0.29359v-7.28912c0,-0.11474 0.03712,-0.20923 0.11136,-0.28347c0.07762,-0.07762 0.17548,-0.11642 0.29359,-0.11642h4.85941c0.11136,0 0.20585,0.03712 0.28347,0.11136c0.08099,0.07087 0.12149,0.16367 0.12149,0.2784c0,0.10461 -0.0405,0.19573 -0.12149,0.27334c-0.07762,0.07424 -0.1721,0.11136 -0.28347,0.11136h-4.45446v2.85997h3.24467c0.11474,0 0.20923,0.03881 0.28347,0.11642c0.07762,0.07424 0.11642,0.16704 0.11642,0.2784c0,0.11136 -0.03881,0.20585 -0.11642,0.28347c-0.07424,0.07424 -0.16873,0.11136 -0.28347,0.11136h-3.24467v2.89034h4.45446c0.11136,0 0.20585,0.03881 0.28347,0.11642c0.08099,0.07424 0.12149,0.16367 0.12149,0.26828c0,0.11811 -0.0405,0.21429 -0.12149,0.28853c-0.07762,0.07087 -0.1721,0.1063 -0.28347,0.1063zM228.16307,196.40808c-0.11136,0 -0.20754,-0.03881 -0.28853,-0.11642c-0.07762,-0.08099 -0.11642,-0.17717 -0.11642,-0.28853v-7.68901h0.8099v7.68901c0,0.11136 -0.03881,0.20754 -0.11642,0.28853c-0.07424,0.07762 -0.17042,0.11642 -0.28853,0.11642zM225.29804,189.04809c-0.10799,0 -0.19741,-0.03375 -0.26828,-0.10124c-0.06749,-0.07087 -0.10124,-0.15861 -0.10124,-0.26322c0,-0.11136 0.03375,-0.20079 0.10124,-0.26828c0.07087,-0.06749 0.16029,-0.10124 0.26828,-0.10124h5.73512c0.11136,0 0.20079,0.03375 0.26828,0.10124c0.07087,0.06749 0.1063,0.15692 0.1063,0.26828c0,0.10461 -0.03543,0.19235 -0.1063,0.26322c-0.06749,0.06749 -0.15692,0.10124 -0.26828,0.10124zM236.04194,196.40808c-0.11811,0 -0.21597,-0.03712 -0.29359,-0.11136c-0.07424,-0.07762 -0.11136,-0.17548 -0.11136,-0.29359v-7.28912c0,-0.11474 0.03712,-0.20923 0.11136,-0.28347c0.07762,-0.07762 0.17548,-0.11642 0.29359,-0.11642h1.9387c0.50281,0 0.95163,0.10461 1.34646,0.31384c0.39483,0.20923 0.7036,0.50281 0.92633,0.88077c0.2261,0.37795 0.33915,0.81159 0.33915,1.30091c0,0.46907 -0.11305,0.88752 -0.33915,1.25535c-0.22272,0.36446 -0.5315,0.6513 -0.92633,0.86052c-0.39483,0.20585 -0.84365,0.30878 -1.34646,0.30878h-1.53375v2.76885c0,0.11811 -0.03881,0.21597 -0.11642,0.29359c-0.07762,0.07424 -0.17379,0.11136 -0.28853,0.11136zM240.37491,196.40808c-0.09111,0 -0.16367,-0.01687 -0.21766,-0.05062c-0.05062,-0.03375 -0.09618,-0.08605 -0.13667,-0.15692l-1.98932,-3.1738l0.8099,-0.20754l1.85265,2.96627c0.10461,0.16535 0.12317,0.31046 0.05568,0.43532c-0.06412,0.12486 -0.18898,0.18729 -0.37458,0.18729zM236.44689,192.45981h1.53375c0.35096,0 0.66311,-0.07087 0.93645,-0.2126c0.27334,-0.14173 0.48932,-0.33746 0.64792,-0.58718c0.15861,-0.24972 0.23791,-0.53319 0.23791,-0.8504c0,-0.33746 -0.0793,-0.63611 -0.23791,-0.89595c-0.15861,-0.25984 -0.37458,-0.46232 -0.64792,-0.60743c-0.27334,-0.14511 -0.58549,-0.21766 -0.93645,-0.21766h-1.53375zM242.44861,196.40808c-0.11811,0 -0.21597,-0.03712 -0.29359,-0.11136c-0.07424,-0.07762 -0.11136,-0.17548 -0.11136,-0.29359v-7.28912c0,-0.11474 0.03712,-0.20923 0.11136,-0.28347c0.07762,-0.07762 0.17548,-0.11642 0.29359,-0.11642h4.85941c0.11136,0 0.20585,0.03712 0.28347,0.11136c0.08099,0.07087 0.12149,0.16367 0.12149,0.2784c0,0.10461 -0.0405,0.19573 -0.12149,0.27334c-0.07762,0.07424 -0.1721,0.11136 -0.28347,0.11136h-4.45446v2.85997h3.24467c0.11474,0 0.20923,0.03881 0.28347,0.11642c0.07762,0.07424 0.11642,0.16704 0.11642,0.2784c0,0.11136 -0.03881,0.20585 -0.11642,0.28347c-0.07424,0.07424 -0.16873,0.11136 -0.28347,0.11136h-3.24467v2.89034h4.45446c0.11136,0 0.20585,0.03881 0.28347,0.11642c0.08099,0.07424 0.12149,0.16367 0.12149,0.26828c0,0.11811 -0.0405,0.21429 -0.12149,0.28853c-0.07762,0.07087 -0.1721,0.1063 -0.28347,0.1063zM248.77201,196.40808c-0.15861,0 -0.27334,-0.0658 -0.34421,-0.19741c-0.06749,-0.13161 -0.07424,-0.25984 -0.02025,-0.3847l3.04726,-7.23344c0.07762,-0.1856 0.20923,-0.2784 0.39483,-0.2784c0.17885,0 0.30709,0.0928 0.3847,0.2784l3.05738,7.24356c0.06074,0.13161 0.05062,0.25984 -0.03037,0.3847c-0.07762,0.12486 -0.18898,0.18729 -0.33408,0.18729c-0.08099,0 -0.15523,-0.02025 -0.22272,-0.06074c-0.06412,-0.04387 -0.11811,-0.1063 -0.16198,-0.18729l-2.84984,-6.91454h0.32396l-2.87515,6.91454c-0.03375,0.08099 -0.08436,0.14342 -0.15186,0.18729c-0.06412,0.0405 -0.13667,0.06074 -0.21766,0.06074zM249.45537,194.4795l0.30878,-0.69348h4.21149l0.30878,0.69348zM256.91024,196.40808c-0.11811,0 -0.21597,-0.03712 -0.29359,-0.11136c-0.07424,-0.07762 -0.11136,-0.17548 -0.11136,-0.29359v-7.28912c0,-0.11474 0.03712,-0.20923 0.11136,-0.28347c0.07762,-0.07762 0.17548,-0.11642 0.29359,-0.11642h1.86277c0.59393,0 1.13724,0.09786 1.62993,0.29359c0.49607,0.19573 0.92295,0.47582 1.28066,0.84027c0.36108,0.36108 0.63949,0.78797 0.83521,1.28066c0.1991,0.48932 0.29865,1.03094 0.29865,1.62487c0,0.59393 -0.09955,1.13892 -0.29865,1.63499c-0.19573,0.49269 -0.47413,0.92126 -0.83521,1.28572c-0.35771,0.36108 -0.78459,0.64117 -1.28066,0.84027c-0.49269,0.19573 -1.036,0.29359 -1.62993,0.29359zM257.31519,195.68423h1.45782c0.6378,0 1.19967,-0.14342 1.68561,-0.43026c0.48594,-0.28684 0.86727,-0.67998 1.14399,-1.17942c0.27672,-0.50281 0.41507,-1.07649 0.41507,-1.72104c0,-0.64117 -0.13836,-1.21148 -0.41507,-1.71092c-0.27672,-0.50281 -0.65805,-0.89595 -1.14399,-1.17942c-0.48594,-0.28347 -1.04781,-0.4252 -1.68561,-0.4252h-1.45782zM266.39644,196.40808c-0.11136,0 -0.20754,-0.03881 -0.28853,-0.11642c-0.07762,-0.08099 -0.11642,-0.17717 -0.11642,-0.28853v-2.59169l-2.81947,-4.46965c-0.07087,-0.10124 -0.09786,-0.20079 -0.08099,-0.29865c0.01687,-0.09786 0.05905,-0.17717 0.12655,-0.23791c0.07087,-0.06074 0.15861,-0.09111 0.26322,-0.09111c0.08436,0 0.15186,0.01687 0.20248,0.05062c0.05062,0.03375 0.09786,0.08099 0.14173,0.14173l2.79922,4.51014h-0.43532l2.7891,-4.48483c0.04724,-0.07762 0.09955,-0.1333 0.15692,-0.16704c0.06074,-0.03375 0.13161,-0.05062 0.2126,-0.05062c0.09786,0 0.17885,0.03206 0.24297,0.09618c0.06749,0.06412 0.1063,0.14511 0.11642,0.24297c0.01012,0.09786 -0.01519,0.19404 -0.07593,0.28853l-2.83466,4.46965v2.59169c0,0.11136 -0.0405,0.20754 -0.12149,0.28853c-0.07762,0.07762 -0.17042,0.11642 -0.2784,0.11642z" fill="#ffffff" fill-rule="nonzero" stroke="none" stroke-width="1" stroke-linecap="square"/></g></g></svg>