<svg version="1.1" xmlns="http://www.w3.org/2000/svg" xmlns:xlink="http://www.w3.org/1999/xlink" width="309.25884" height="164.1123" viewBox="0,0,309.25884,164.1123"><defs><linearGradient x1="188.32485" y1="293.56999" x2="161.40928" y2="313.16403" gradientUnits="userSpaceOnUse" id="color-1"><stop offset="0" stop-color="#000000"/><stop offset="1" stop-color="#000000" stop-opacity="0"/></linearGradient><linearGradient x1="287.90208" y1="294.1088" x2="260.98651" y2="313.70284" gradientUnits="userSpaceOnUse" id="color-2"><stop offset="0" stop-color="#000000"/><stop offset="1" stop-color="#000000" stop-opacity="0"/></linearGradient><linearGradient x1="191.28378" y1="247.38612" x2="191.28378" y2="266.29009" gradientUnits="userSpaceOnUse" id="color-3"><stop offset="0" stop-color="#000000"/><stop offset="1" stop-color="#000000" stop-opacity="0"/></linearGradient><linearGradient x1="159.24477" y1="237.344" x2="135.84886" y2="254.3758" gradientUnits="userSpaceOnUse" id="color-4"><stop offset="0" stop-color="#000000"/><stop offset="1" stop-color="#000000" stop-opacity="0"/></linearGradient><linearGradient x1="190.93035" y1="214.01989" x2="190.93035" y2="232.92386" gradientUnits="userSpaceOnUse" id="color-5"><stop offset="0" stop-color="#000000"/><stop offset="1" stop-color="#000000" stop-opacity="0"/></linearGradient><linearGradient x1="158.89134" y1="203.97776" x2="135.49543" y2="221.00956" gradientUnits="userSpaceOnUse" id="color-6"><stop offset="0" stop-color="#000000"/><stop offset="1" stop-color="#000000" stop-opacity="0"/></linearGradient><linearGradient x1="39.4138" y1="319.9837" x2="12.49823" y2="339.57774" gradientUnits="userSpaceOnUse" id="color-7"><stop offset="0" stop-color="#000000"/><stop offset="1" stop-color="#000000" stop-opacity="0"/></linearGradient></defs><g transform="translate(-3.07324,-188.41216)"><g data-paper-data="{&quot;isPaintingLayer&quot;:true}" fill-rule="nonzero" stroke="none" stroke-width="0" stroke-linecap="butt" stroke-linejoin="miter" stroke-miterlimit="10" stroke-dasharray="" stroke-dashoffset="0" style="mix-blend-mode: normal"><path d="M151.98429,300.21731l26.91556,-19.59404l18.84996,25.89344l-26.91555,19.59404z" fill="url(#color-1)"/><path d="M251.56152,300.75612l26.91556,-19.59404l18.84996,25.89344l-26.91555,19.59404z" fill="url(#color-2)"/><g><path d="M167.92894,247.5116l144.40315,-1.01772l-27.1895,20.51527l-138.8244,-2.79454z" fill="url(#color-3)"/><path d="M131.91798,250.04721l16.20441,-11.97112l23.0422,-16.2977l-2.92825,25.48756l-23.66226,18.36357z" fill="url(#color-4)"/></g><path d="M167.57551,214.14536l144.40315,-1.01773l-27.1895,20.51528l-138.8244,-2.79454z" fill="url(#color-5)"/><path d="M131.56455,216.68098l16.20441,-11.97112l23.0422,-16.2977l-2.92825,25.48756l-23.66226,18.36356z" fill="url(#color-6)"/><path d="M3.07324,326.63102l26.91556,-19.59404l18.84997,25.89344l-26.91555,19.59404z" fill="url(#color-7)"/></g></g></svg>