<svg version="1.1" xmlns="http://www.w3.org/2000/svg" xmlns:xlink="http://www.w3.org/1999/xlink" width="720" height="540" viewBox="0,0,720,540"><defs><clipPath id="clip-1"><path d="M-120,450v-540h720v540z" fill="none" fill-rule="nonzero" stroke="none" stroke-width="1" stroke-linecap="butt"/></clipPath></defs><g transform="translate(120,90)"><g clip-path="url(#clip-1)" data-paper-data="{&quot;isPaintingLayer&quot;:true}" stroke-linejoin="miter" stroke-miterlimit="10" stroke-dasharray="" stroke-dashoffset="0" style="mix-blend-mode: normal"><g fill="#201f20" fill-rule="nonzero" stroke="#201f20" stroke-width="7" stroke-linecap="butt"><path d="M134.9801,174.56902c0,0 -0.29703,-8.17311 1.03131,-10.73419c1.18532,-2.99645 4.59454,-2.51157 4.59454,-2.51157l117.27868,-0.32176l1.48377,35.20271l-124.27889,-0.0912z"/><path d="M340.77046,196.11301l-124.27889,0.0912l0.47211,-35.20271l118.29034,0.32176c0,0 3.40921,-0.48488 4.59454,2.51157c1.32834,2.56108 1.03131,10.73419 1.03131,10.73419z" data-paper-data="{&quot;index&quot;:null}"/></g><path d="M-240,-180h960v720h-960z" fill-opacity="0" fill="#000000" fill-rule="evenodd" stroke="none" stroke-width="1" stroke-linecap="square"/><path d="M154.50428,187.24216c-0.20833,0 -0.38542,-0.06771 -0.53125,-0.20312c-0.13542,-0.13542 -0.20312,-0.3125 -0.20312,-0.53125v-13.10937c0,-0.20833 0.06771,-0.38021 0.20313,-0.51562c0.14583,-0.14583 0.32292,-0.21875 0.53125,-0.21875c0.21875,0 0.40625,0.08854 0.5625,0.26563l8.92188,11.71875v-11.25c0,-0.20833 0.06771,-0.38021 0.20313,-0.51562c0.13542,-0.14583 0.30729,-0.21875 0.51563,-0.21875c0.19792,0 0.36979,0.07292 0.51563,0.21875c0.14583,0.13542 0.21875,0.30729 0.21875,0.51563v13.10938c0,0.21875 -0.07292,0.39583 -0.21875,0.53125c-0.14583,0.13542 -0.31771,0.20313 -0.51562,0.20313c-0.09375,0 -0.19271,-0.01562 -0.29687,-0.04687c-0.10417,-0.04167 -0.1875,-0.10937 -0.25,-0.20312l-8.92187,-11.70312v11.21875c0,0.21875 -0.07292,0.39583 -0.21875,0.53125c-0.14583,0.13542 -0.31771,0.20313 -0.51562,0.20313zM173.61442,187.33591c-1.01042,0 -1.90625,-0.21875 -2.6875,-0.65625c-0.77083,-0.44792 -1.38021,-1.0625 -1.82812,-1.84375c-0.4375,-0.78125 -0.65625,-1.67708 -0.65625,-2.6875c0,-1.02083 0.20833,-1.91667 0.625,-2.6875c0.41667,-0.78125 0.98958,-1.39583 1.71875,-1.84375c0.73958,-0.44792 1.58854,-0.67187 2.54688,-0.67187c0.9375,0 1.75521,0.21354 2.45313,0.64063c0.70833,0.42708 1.25521,1.02083 1.64063,1.78125c0.38542,0.76042 0.57813,1.625 0.57813,2.59375c0,0.19792 -0.0625,0.35938 -0.1875,0.48438c-0.125,0.11458 -0.28646,0.17188 -0.48437,0.17188h-7.92187v-1.20312h8.07813l-0.79687,0.57813c0.01042,-0.71875 -0.125,-1.36458 -0.40625,-1.9375c-0.27083,-0.57292 -0.65625,-1.02083 -1.15625,-1.34375c-0.5,-0.32292 -1.09896,-0.48437 -1.79687,-0.48437c-0.70833,0 -1.33333,0.17188 -1.875,0.51563c-0.53125,0.33333 -0.94271,0.79688 -1.23437,1.39063c-0.29167,0.58333 -0.4375,1.25521 -0.4375,2.01563c0,0.76042 0.16146,1.43229 0.48438,2.01563c0.33333,0.58333 0.78646,1.04688 1.35938,1.39063c0.57292,0.33333 1.23438,0.5 1.98438,0.5c0.44792,0 0.89583,-0.07812 1.34375,-0.23437c0.45833,-0.15625 0.82292,-0.35417 1.09375,-0.59375c0.13542,-0.11458 0.29167,-0.17187 0.46875,-0.17187c0.17708,-0.01042 0.32292,0.03646 0.4375,0.14063c0.16667,0.14583 0.25,0.30729 0.25,0.48438c0.01042,0.16667 -0.05729,0.3125 -0.20312,0.4375c-0.41667,0.35417 -0.94271,0.64583 -1.57812,0.875c-0.625,0.22917 -1.22917,0.34375 -1.8125,0.34375zM182.38352,187.24216c-0.16667,0 -0.3125,-0.04167 -0.4375,-0.125c-0.125,-0.09375 -0.21354,-0.20833 -0.26562,-0.34375l-2.90625,-8.73437c-0.07292,-0.30208 -0.06771,-0.54167 0.01563,-0.71875c0.09375,-0.1875 0.27083,-0.28125 0.53125,-0.28125c0.15625,0 0.29688,0.04688 0.42188,0.14063c0.125,0.08333 0.21875,0.21875 0.28125,0.40625l2.59375,7.92188h-0.40625l2.40625,-7.90625c0.05208,-0.16667 0.13542,-0.30208 0.25,-0.40625c0.11458,-0.10417 0.26563,-0.15625 0.45313,-0.15625c0.1875,0 0.33854,0.05208 0.45313,0.15625c0.125,0.09375 0.21354,0.22917 0.26563,0.40625l2.28125,7.71875h-0.3125l2.53125,-7.73437c0.125,-0.36458 0.35938,-0.54687 0.70313,-0.54687c0.27083,0 0.45313,0.10417 0.54688,0.3125c0.10417,0.19792 0.10417,0.42708 0,0.6875l-2.90625,8.73438c-0.05208,0.13542 -0.13542,0.25 -0.25,0.34375c-0.11458,0.08333 -0.25521,0.125 -0.42187,0.125c-0.15625,0 -0.30208,-0.04167 -0.4375,-0.125c-0.125,-0.09375 -0.20833,-0.20833 -0.25,-0.34375l-2.34375,-7.79687h0.21875l-2.34375,7.79688c-0.05208,0.14583 -0.14062,0.26042 -0.26562,0.34375c-0.125,0.08333 -0.26042,0.125 -0.40625,0.125zM203.88981,187.33591c-0.98958,0 -1.86458,-0.22396 -2.625,-0.67187c-0.76042,-0.45833 -1.36458,-1.07812 -1.8125,-1.85937c-0.4375,-0.79167 -0.65625,-1.67708 -0.65625,-2.65625c0,-0.98958 0.20833,-1.875 0.625,-2.65625c0.42708,-0.79167 1.00521,-1.41146 1.73438,-1.85937c0.73958,-0.45833 1.58854,-0.6875 2.54688,-0.6875c0.76042,0 1.45833,0.15104 2.09375,0.45313c0.64583,0.29167 1.20833,0.73958 1.6875,1.34375c0.13542,0.14583 0.18229,0.30208 0.14063,0.46875c-0.03125,0.16667 -0.13542,0.3125 -0.3125,0.4375c-0.13542,0.10417 -0.28646,0.14063 -0.45312,0.10938c-0.16667,-0.03125 -0.3125,-0.125 -0.4375,-0.28125c-0.71875,-0.82292 -1.625,-1.23437 -2.71875,-1.23437c-0.69792,0 -1.3125,0.17188 -1.84375,0.51563c-0.52083,0.33333 -0.93229,0.79167 -1.23437,1.375c-0.29167,0.58333 -0.4375,1.25521 -0.4375,2.01563c0,0.75 0.15625,1.41667 0.46875,2c0.3125,0.58333 0.75,1.04167 1.3125,1.375c0.5625,0.33333 1.20313,0.5 1.92188,0.5c0.47917,0 0.92188,-0.0625 1.32813,-0.1875c0.40625,-0.13542 0.76563,-0.33854 1.07813,-0.60937c0.14583,-0.125 0.29688,-0.19271 0.45313,-0.20312c0.16667,-0.01042 0.31771,0.03646 0.45313,0.14063c0.15625,0.14583 0.23958,0.30729 0.25,0.48438c0.02083,0.16667 -0.03646,0.3125 -0.17187,0.4375c-0.90625,0.83333 -2.03646,1.25 -3.39062,1.25zM214.94645,187.33591c-0.95833,0 -1.81771,-0.22396 -2.57812,-0.67187c-0.75,-0.45833 -1.34896,-1.07812 -1.79687,-1.85937c-0.4375,-0.79167 -0.65625,-1.67708 -0.65625,-2.65625c0,-0.98958 0.22396,-1.875 0.67188,-2.65625c0.45833,-0.79167 1.07813,-1.41146 1.85938,-1.85937c0.78125,-0.45833 1.66667,-0.6875 2.65625,-0.6875c0.97917,0 1.85417,0.22917 2.625,0.6875c0.78125,0.44792 1.40104,1.06771 1.85938,1.85938c0.45833,0.78125 0.69271,1.66667 0.70313,2.65625l-0.57812,0.45313c0,0.89583 -0.20833,1.70313 -0.625,2.42188c-0.41667,0.70833 -0.98437,1.27083 -1.70312,1.6875c-0.71875,0.41667 -1.53125,0.625 -2.4375,0.625zM215.1027,186.02341c0.71875,0 1.35938,-0.16667 1.92188,-0.5c0.57292,-0.33333 1.02083,-0.79687 1.34375,-1.39062c0.33333,-0.59375 0.5,-1.25521 0.5,-1.98437c0,-0.75 -0.16667,-1.41667 -0.5,-2c-0.32292,-0.58333 -0.77083,-1.04687 -1.34375,-1.39062c-0.5625,-0.34375 -1.20312,-0.51562 -1.92187,-0.51562c-0.70833,0 -1.34896,0.17188 -1.92187,0.51563c-0.57292,0.34375 -1.03125,0.80729 -1.375,1.39063c-0.33333,0.58333 -0.5,1.25 -0.5,2c0,0.72917 0.16667,1.39063 0.5,1.98438c0.34375,0.59375 0.80208,1.05729 1.375,1.39063c0.57292,0.33333 1.21354,0.5 1.92188,0.5zM219.55583,187.24216c-0.20833,0 -0.38021,-0.0625 -0.51562,-0.1875c-0.13542,-0.13542 -0.20312,-0.30729 -0.20312,-0.51562v-3.20312l0.34375,-1.46875l1.10938,0.28125v4.39063c0,0.20833 -0.07292,0.38021 -0.21875,0.51563c-0.13542,0.125 -0.30729,0.1875 -0.51562,0.1875zM223.6861,180.96091c0.03125,-0.77083 0.22917,-1.45833 0.59375,-2.0625c0.375,-0.61458 0.85417,-1.09375 1.4375,-1.4375c0.59375,-0.35417 1.25,-0.53125 1.96875,-0.53125c0.57292,0 1.01563,0.08333 1.32813,0.25c0.3125,0.15625 0.43229,0.39063 0.35938,0.70313c-0.05208,0.1875 -0.14062,0.3125 -0.26562,0.375c-0.11458,0.05208 -0.25521,0.07292 -0.42187,0.0625c-0.16667,-0.01042 -0.35417,-0.02083 -0.5625,-0.03125c-0.69792,-0.0625 -1.31771,0.01042 -1.85937,0.21875c-0.54167,0.19792 -0.97396,0.51042 -1.29687,0.9375c-0.3125,0.42708 -0.46875,0.93229 -0.46875,1.51563zM223.79548,187.24216c-0.22917,0 -0.40625,-0.0625 -0.53125,-0.1875c-0.125,-0.125 -0.1875,-0.29687 -0.1875,-0.51562v-8.79687c0,-0.21875 0.0625,-0.39062 0.1875,-0.51562c0.125,-0.125 0.30208,-0.1875 0.53125,-0.1875c0.21875,0 0.39063,0.0625 0.51563,0.1875c0.125,0.125 0.1875,0.29688 0.1875,0.51563v8.79688c0,0.21875 -0.0625,0.39063 -0.1875,0.51563c-0.125,0.125 -0.29687,0.1875 -0.51562,0.1875zM241.54069,187.35154c-0.88542,0 -1.67708,-0.18229 -2.375,-0.54687c-0.69792,-0.36458 -1.25,-0.90104 -1.65625,-1.60937c-0.39583,-0.70833 -0.59375,-1.57292 -0.59375,-2.59375v-4.85937c0,-0.19792 0.06771,-0.36458 0.20313,-0.5c0.13542,-0.13542 0.30208,-0.20312 0.5,-0.20312c0.20833,0 0.38021,0.06771 0.51563,0.20313c0.13542,0.13542 0.20313,0.30208 0.20313,0.5v4.85938c0,0.77083 0.14583,1.40625 0.4375,1.90625c0.30208,0.48958 0.70313,0.85938 1.20313,1.10938c0.5,0.25 1.06771,0.375 1.70313,0.375c0.61458,0 1.16667,-0.11458 1.65625,-0.34375c0.48958,-0.23958 0.875,-0.5625 1.15625,-0.96875c0.29167,-0.41667 0.4375,-0.88542 0.4375,-1.40625h1.03125c-0.04167,0.78125 -0.26042,1.47917 -0.65625,2.09375c-0.38542,0.61458 -0.91146,1.09896 -1.57812,1.45313c-0.65625,0.35417 -1.38542,0.53125 -2.1875,0.53125zM245.63444,187.24216c-0.20833,0 -0.38021,-0.0625 -0.51562,-0.1875c-0.125,-0.13542 -0.1875,-0.31771 -0.1875,-0.54687v-8.76562c0,-0.20833 0.0625,-0.375 0.1875,-0.5c0.13542,-0.13542 0.30729,-0.20312 0.51563,-0.20312c0.21875,0 0.39583,0.06771 0.53125,0.20313c0.13542,0.125 0.20313,0.29167 0.20313,0.5v8.76563c0,0.22917 -0.06771,0.41146 -0.20312,0.54688c-0.13542,0.125 -0.3125,0.1875 -0.53125,0.1875zM258.46784,187.24216c-0.20833,0 -0.38021,-0.06771 -0.51562,-0.20312c-0.13542,-0.13542 -0.20312,-0.30208 -0.20312,-0.5v-4.85937c0,-0.77083 -0.14583,-1.40104 -0.4375,-1.89062c-0.29167,-0.5 -0.69271,-0.875 -1.20312,-1.125c-0.5,-0.25 -1.06771,-0.375 -1.70312,-0.375c-0.60417,0 -1.15625,0.11979 -1.65625,0.35938c-0.48958,0.22917 -0.88021,0.55208 -1.17187,0.96875c-0.28125,0.40625 -0.42187,0.86979 -0.42187,1.39063h-1.01562c0.02083,-0.78125 0.22917,-1.47917 0.625,-2.09375c0.40625,-0.61458 0.9375,-1.09896 1.59375,-1.45312c0.65625,-0.35417 1.39063,-0.53125 2.20313,-0.53125c0.875,0 1.66146,0.18229 2.35938,0.54688c0.69792,0.36458 1.25,0.90104 1.65625,1.60938c0.40625,0.70833 0.60938,1.57292 0.60938,2.59375v4.85938c0,0.19792 -0.06771,0.36458 -0.20312,0.5c-0.13542,0.13542 -0.30729,0.20313 -0.51562,0.20313zM250.45222,187.24216c-0.21875,0 -0.39583,-0.0625 -0.53125,-0.1875c-0.13542,-0.13542 -0.20312,-0.30729 -0.20312,-0.51562v-8.78125c0,-0.21875 0.06771,-0.39062 0.20313,-0.51562c0.13542,-0.13542 0.3125,-0.20312 0.53125,-0.20312c0.20833,0 0.375,0.06771 0.5,0.20313c0.13542,0.125 0.20313,0.29688 0.20313,0.51563v8.78125c0,0.20833 -0.06771,0.38021 -0.20312,0.51563c-0.125,0.125 -0.29167,0.1875 -0.5,0.1875zM264.55125,187.24216c-0.48958,0 -0.93229,-0.13542 -1.32812,-0.40625c-0.39583,-0.28125 -0.70312,-0.66146 -0.92187,-1.14062c-0.20833,-0.48958 -0.3125,-1.05208 -0.3125,-1.6875v-10.625c0,-0.20833 0.0625,-0.38021 0.1875,-0.51562c0.13542,-0.13542 0.30729,-0.20312 0.51563,-0.20312c0.20833,0 0.375,0.06771 0.5,0.20313c0.13542,0.13542 0.20313,0.30729 0.20313,0.51563v10.625c0,0.54167 0.10938,0.97917 0.32813,1.3125c0.21875,0.33333 0.49479,0.5 0.82813,0.5h0.46875c0.1875,0 0.33854,0.06771 0.45313,0.20313c0.11458,0.125 0.17188,0.29688 0.17188,0.51563c0,0.20833 -0.07812,0.38021 -0.23437,0.51563c-0.15625,0.125 -0.35937,0.1875 -0.60937,0.1875zM271.70545,187.33591c-1,0 -1.89062,-0.22396 -2.67187,-0.67187c-0.78125,-0.44792 -1.39583,-1.0625 -1.84375,-1.84375c-0.44792,-0.78125 -0.67187,-1.67187 -0.67187,-2.67187c0,-1.01042 0.22396,-1.90625 0.67188,-2.6875c0.44792,-0.78125 1.0625,-1.39583 1.84375,-1.84375c0.78125,-0.44792 1.67188,-0.67187 2.67188,-0.67187c0.98958,0 1.875,0.22396 2.65625,0.67188c0.78125,0.44792 1.39583,1.0625 1.84375,1.84375c0.44792,0.78125 0.67708,1.67708 0.6875,2.6875c0,1 -0.22917,1.89063 -0.6875,2.67188c-0.44792,0.78125 -1.0625,1.39583 -1.84375,1.84375c-0.78125,0.44792 -1.66667,0.67188 -2.65625,0.67188zM271.70545,186.02341c0.71875,0 1.36458,-0.16667 1.9375,-0.5c0.57292,-0.33333 1.02083,-0.79167 1.34375,-1.375c0.32292,-0.58333 0.48438,-1.25 0.48438,-2c0,-0.75 -0.16146,-1.41667 -0.48437,-2c-0.32292,-0.59375 -0.77083,-1.05729 -1.34375,-1.39062c-0.57292,-0.34375 -1.21875,-0.51562 -1.9375,-0.51562c-0.71875,0 -1.36458,0.17188 -1.9375,0.51563c-0.57292,0.33333 -1.02604,0.79688 -1.35937,1.39063c-0.33333,0.58333 -0.5,1.25 -0.5,2c0,0.75 0.16667,1.41667 0.5,2c0.33333,0.58333 0.78646,1.04167 1.35938,1.375c0.57292,0.33333 1.21875,0.5 1.9375,0.5zM284.24198,187.33591c-0.98958,0 -1.86458,-0.22396 -2.625,-0.67187c-0.76042,-0.45833 -1.36458,-1.07812 -1.8125,-1.85937c-0.4375,-0.79167 -0.65625,-1.67708 -0.65625,-2.65625c0,-0.98958 0.20833,-1.875 0.625,-2.65625c0.42708,-0.79167 1.00521,-1.41146 1.73438,-1.85937c0.73958,-0.45833 1.58854,-0.6875 2.54688,-0.6875c0.76042,0 1.45833,0.15104 2.09375,0.45313c0.64583,0.29167 1.20833,0.73958 1.6875,1.34375c0.13542,0.14583 0.18229,0.30208 0.14063,0.46875c-0.03125,0.16667 -0.13542,0.3125 -0.3125,0.4375c-0.13542,0.10417 -0.28646,0.14063 -0.45312,0.10938c-0.16667,-0.03125 -0.3125,-0.125 -0.4375,-0.28125c-0.71875,-0.82292 -1.625,-1.23437 -2.71875,-1.23437c-0.69792,0 -1.3125,0.17188 -1.84375,0.51563c-0.52083,0.33333 -0.93229,0.79167 -1.23437,1.375c-0.29167,0.58333 -0.4375,1.25521 -0.4375,2.01563c0,0.75 0.15625,1.41667 0.46875,2c0.3125,0.58333 0.75,1.04167 1.3125,1.375c0.5625,0.33333 1.20313,0.5 1.92188,0.5c0.47917,0 0.92188,-0.0625 1.32813,-0.1875c0.40625,-0.13542 0.76563,-0.33854 1.07813,-0.60937c0.14583,-0.125 0.29688,-0.19271 0.45313,-0.20312c0.16667,-0.01042 0.31771,0.03646 0.45313,0.14063c0.15625,0.14583 0.23958,0.30729 0.25,0.48438c0.02083,0.16667 -0.03646,0.3125 -0.17187,0.4375c-0.90625,0.83333 -2.03646,1.25 -3.39062,1.25zM291.98609,183.82029l-0.875,-0.9375l6.375,-5.76562c0.14583,-0.13542 0.29688,-0.19792 0.45313,-0.1875c0.16667,0 0.31771,0.07292 0.45313,0.21875c0.14583,0.14583 0.21354,0.30729 0.20313,0.48438c-0.01042,0.16667 -0.08854,0.3125 -0.23437,0.4375zM291.51734,187.24216c-0.20833,0 -0.38021,-0.0625 -0.51562,-0.1875c-0.13542,-0.13542 -0.20312,-0.30729 -0.20312,-0.51562v-13.15625c0,-0.20833 0.06771,-0.38021 0.20313,-0.51562c0.13542,-0.13542 0.30729,-0.20312 0.51563,-0.20312c0.20833,0 0.375,0.06771 0.5,0.20313c0.13542,0.13542 0.20313,0.30729 0.20313,0.51563v13.15625c0,0.20833 -0.06771,0.38021 -0.20312,0.51563c-0.125,0.125 -0.29167,0.1875 -0.5,0.1875zM298.42359,187.14841c-0.16667,0.13542 -0.33854,0.19271 -0.51562,0.17188c-0.16667,-0.01042 -0.3125,-0.09896 -0.4375,-0.26562l-4.17187,-5.10937l1.01563,-0.89062l4.20313,5.15625c0.125,0.15625 0.17708,0.31771 0.15625,0.48438c-0.01042,0.16667 -0.09375,0.31771 -0.25,0.45313zM305.17726,187.33591c-1.01042,0 -1.90625,-0.21875 -2.6875,-0.65625c-0.77083,-0.44792 -1.38021,-1.0625 -1.82812,-1.84375c-0.4375,-0.78125 -0.65625,-1.67708 -0.65625,-2.6875c0,-1.02083 0.20833,-1.91667 0.625,-2.6875c0.41667,-0.78125 0.98958,-1.39583 1.71875,-1.84375c0.73958,-0.44792 1.58854,-0.67187 2.54688,-0.67187c0.9375,0 1.75521,0.21354 2.45313,0.64063c0.70833,0.42708 1.25521,1.02083 1.64063,1.78125c0.38542,0.76042 0.57813,1.625 0.57813,2.59375c0,0.19792 -0.0625,0.35938 -0.1875,0.48438c-0.125,0.11458 -0.28646,0.17188 -0.48437,0.17188h-7.92187v-1.20312h8.07813l-0.79687,0.57813c0.01042,-0.71875 -0.125,-1.36458 -0.40625,-1.9375c-0.27083,-0.57292 -0.65625,-1.02083 -1.15625,-1.34375c-0.5,-0.32292 -1.09896,-0.48437 -1.79687,-0.48437c-0.70833,0 -1.33333,0.17188 -1.875,0.51563c-0.53125,0.33333 -0.94271,0.79688 -1.23437,1.39063c-0.29167,0.58333 -0.4375,1.25521 -0.4375,2.01563c0,0.76042 0.16146,1.43229 0.48438,2.01563c0.33333,0.58333 0.78646,1.04688 1.35938,1.39063c0.57292,0.33333 1.23438,0.5 1.98438,0.5c0.44792,0 0.89583,-0.07812 1.34375,-0.23437c0.45833,-0.15625 0.82292,-0.35417 1.09375,-0.59375c0.13542,-0.11458 0.29167,-0.17187 0.46875,-0.17187c0.17708,-0.01042 0.32292,0.03646 0.4375,0.14063c0.16667,0.14583 0.25,0.30729 0.25,0.48438c0.01042,0.16667 -0.05729,0.3125 -0.20312,0.4375c-0.41667,0.35417 -0.94271,0.64583 -1.57812,0.875c-0.625,0.22917 -1.22917,0.34375 -1.8125,0.34375zM316.27448,187.33591c-0.98958,0 -1.875,-0.22396 -2.65625,-0.67187c-0.78125,-0.45833 -1.40104,-1.07812 -1.85937,-1.85937c-0.44792,-0.79167 -0.67187,-1.68229 -0.67187,-2.67187c0,-0.97917 0.21875,-1.85937 0.65625,-2.64062c0.44792,-0.79167 1.04688,-1.41146 1.79688,-1.85937c0.76042,-0.45833 1.61979,-0.6875 2.57813,-0.6875c0.83333,0 1.58333,0.17708 2.25,0.53125c0.67708,0.35417 1.22396,0.82292 1.64063,1.40625v-5.48437c0,-0.21875 0.06771,-0.39583 0.20313,-0.53125c0.13542,-0.13542 0.30729,-0.20312 0.51563,-0.20312c0.20833,0 0.38021,0.06771 0.51563,0.20313c0.14583,0.13542 0.21875,0.3125 0.21875,0.53125v8.8125c-0.03125,0.96875 -0.27604,1.84375 -0.73437,2.625c-0.44792,0.77083 -1.0625,1.38021 -1.84375,1.82813c-0.77083,0.44792 -1.64062,0.67188 -2.60937,0.67188zM316.27448,186.02341c0.71875,0 1.35938,-0.16667 1.92188,-0.5c0.57292,-0.34375 1.02083,-0.80729 1.34375,-1.39062c0.33333,-0.59375 0.5,-1.26042 0.5,-2c0,-0.73958 -0.16667,-1.40104 -0.5,-1.98437c-0.32292,-0.59375 -0.77083,-1.05729 -1.34375,-1.39062c-0.5625,-0.34375 -1.20312,-0.51562 -1.92187,-0.51562c-0.70833,0 -1.34896,0.17188 -1.92187,0.51563c-0.57292,0.33333 -1.03125,0.79688 -1.375,1.39063c-0.33333,0.58333 -0.5,1.24479 -0.5,1.98438c0,0.73958 0.16667,1.40625 0.5,2c0.34375,0.58333 0.80208,1.04688 1.375,1.39063c0.57292,0.33333 1.21354,0.5 1.92188,0.5zM325.15196,183.94529c-0.19792,0 -0.36979,-0.07292 -0.51562,-0.21875c-0.14583,-0.14583 -0.21875,-0.31771 -0.21875,-0.51562v-9.8125c0,-0.20833 0.07292,-0.38542 0.21875,-0.53125c0.14583,-0.14583 0.31771,-0.21875 0.51563,-0.21875c0.20833,0 0.38021,0.07292 0.51563,0.21875c0.14583,0.14583 0.21875,0.32292 0.21875,0.53125v9.8125c0,0.19792 -0.07812,0.36979 -0.23437,0.51563c-0.14583,0.14583 -0.3125,0.21875 -0.5,0.21875zM325.15196,187.24216c-0.30208,0 -0.55729,-0.10417 -0.76562,-0.3125c-0.20833,-0.21875 -0.3125,-0.47396 -0.3125,-0.76562c0,-0.3125 0.10417,-0.57292 0.3125,-0.78125c0.20833,-0.21875 0.46354,-0.32812 0.76563,-0.32812c0.30208,0 0.55729,0.10938 0.76563,0.32813c0.20833,0.21875 0.3125,0.47917 0.3125,0.78125c0,0.29167 -0.10417,0.54688 -0.3125,0.76563c-0.20833,0.20833 -0.46354,0.3125 -0.76562,0.3125z" fill="#ffffff" fill-rule="nonzero" stroke="none" stroke-width="1" stroke-linecap="square"/></g></g></svg>