<svg version="1.1" xmlns="http://www.w3.org/2000/svg" xmlns:xlink="http://www.w3.org/1999/xlink" width="960" height="720" viewBox="0,0,960,720"><g transform="translate(240,180)"><g data-paper-data="{&quot;isPaintingLayer&quot;:true}" stroke-linejoin="miter" stroke-miterlimit="10" stroke-dasharray="" stroke-dashoffset="0" style="mix-blend-mode: normal"><path d="M-12.97817,174.56902c0,0 -0.73403,-8.17311 2.54855,-10.73419c2.92914,-2.99645 11.35394,-2.51157 11.35394,-2.51157l289.81724,-0.32176l3.66667,35.20271l-307.11605,-0.0912z" fill="#201f20" fill-rule="nonzero" stroke="#201f20" stroke-width="7" stroke-linecap="butt"/><path d="M495.56779,196.11301l-307.11605,0.0912l1.16667,-35.20271l292.31724,0.32176c0,0 8.4248,-0.48488 11.35394,2.51157c3.28258,2.56108 2.54855,10.73419 2.54855,10.73419z" data-paper-data="{&quot;index&quot;:null}" fill="#201f20" fill-rule="nonzero" stroke="#201f20" stroke-width="7" stroke-linecap="butt"/><path d="M-240,-180h960v720h-960z" fill-opacity="0" fill="#000000" fill-rule="evenodd" stroke="none" stroke-width="1" stroke-linecap="square"/><path d="M1.1175,185.38279c-0.79167,0 -1.53125,-0.11458 -2.21875,-0.34375c-0.67708,-0.22917 -1.26562,-0.55208 -1.76562,-0.96875c-0.48958,-0.42708 -0.86458,-0.92187 -1.125,-1.48437c-0.10417,-0.19792 -0.10937,-0.38021 -0.01562,-0.54687c0.09375,-0.17708 0.25521,-0.29167 0.48438,-0.34375c0.16667,-0.05208 0.33333,-0.03646 0.5,0.04688c0.17708,0.08333 0.30729,0.21354 0.39063,0.39063c0.1875,0.36458 0.45833,0.69271 0.8125,0.98438c0.36458,0.28125 0.79688,0.5 1.29688,0.65625c0.5,0.15625 1.04688,0.23438 1.64063,0.23438c0.65625,0 1.23958,-0.10937 1.75,-0.32812c0.51042,-0.21875 0.91146,-0.53646 1.20313,-0.95312c0.29167,-0.41667 0.4375,-0.92708 0.4375,-1.53125c0,-0.75 -0.28125,-1.39583 -0.84375,-1.9375c-0.55208,-0.55208 -1.42708,-0.90625 -2.625,-1.0625c-1.45833,-0.16667 -2.59896,-0.61458 -3.42187,-1.34375c-0.8125,-0.72917 -1.21875,-1.625 -1.21875,-2.6875c0,-0.75 0.19792,-1.40625 0.59375,-1.96875c0.40625,-0.5625 0.96354,-0.99479 1.67188,-1.29687c0.71875,-0.30208 1.53646,-0.45312 2.45313,-0.45312c0.6875,0 1.30729,0.10938 1.85938,0.32813c0.5625,0.20833 1.05208,0.48958 1.46875,0.84375c0.41667,0.35417 0.75521,0.74479 1.01563,1.17188c0.125,0.19792 0.16667,0.39063 0.125,0.57813c-0.04167,0.1875 -0.15104,0.32813 -0.32812,0.42188c-0.1875,0.09375 -0.38021,0.10938 -0.57812,0.04688c-0.1875,-0.0625 -0.32812,-0.18229 -0.42187,-0.35937c-0.1875,-0.28125 -0.42187,-0.54687 -0.70312,-0.79687c-0.28125,-0.26042 -0.625,-0.46354 -1.03125,-0.60937c-0.39583,-0.15625 -0.86979,-0.23958 -1.42187,-0.25c-0.98958,0 -1.78125,0.20833 -2.375,0.625c-0.59375,0.41667 -0.89062,1.02083 -0.89062,1.8125c0,0.42708 0.10938,0.81771 0.32813,1.17188c0.22917,0.35417 0.59896,0.66146 1.10938,0.92188c0.52083,0.25 1.21354,0.4375 2.07813,0.5625c1.5625,0.21875 2.71875,0.69271 3.46875,1.42188c0.75,0.72917 1.125,1.67708 1.125,2.84375c0,0.67708 -0.11979,1.27604 -0.35937,1.79688c-0.23958,0.52083 -0.58333,0.95833 -1.03125,1.3125c-0.4375,0.35417 -0.95312,0.625 -1.54687,0.8125c-0.59375,0.1875 -1.22396,0.28125 -1.89062,0.28125zM13.24918,185.30466c-0.88542,0 -1.67708,-0.18229 -2.375,-0.54687c-0.69792,-0.36458 -1.25,-0.90104 -1.65625,-1.60937c-0.39583,-0.70833 -0.59375,-1.57292 -0.59375,-2.59375v-4.85937c0,-0.19792 0.06771,-0.36458 0.20313,-0.5c0.13542,-0.13542 0.30208,-0.20312 0.5,-0.20312c0.20833,0 0.38021,0.06771 0.51563,0.20313c0.13542,0.13542 0.20313,0.30208 0.20313,0.5v4.85938c0,0.77083 0.14583,1.40625 0.4375,1.90625c0.30208,0.48958 0.70313,0.85938 1.20313,1.10938c0.5,0.25 1.06771,0.375 1.70313,0.375c0.61458,0 1.16667,-0.11458 1.65625,-0.34375c0.48958,-0.23958 0.875,-0.5625 1.15625,-0.96875c0.29167,-0.41667 0.4375,-0.88542 0.4375,-1.40625h1.03125c-0.04167,0.78125 -0.26042,1.47917 -0.65625,2.09375c-0.38542,0.61458 -0.91146,1.09896 -1.57812,1.45313c-0.65625,0.35417 -1.38542,0.53125 -2.1875,0.53125zM17.34293,185.19529c-0.20833,0 -0.38021,-0.0625 -0.51562,-0.1875c-0.125,-0.13542 -0.1875,-0.31771 -0.1875,-0.54687v-8.76562c0,-0.20833 0.0625,-0.375 0.1875,-0.5c0.13542,-0.13542 0.30729,-0.20312 0.51563,-0.20312c0.21875,0 0.39583,0.06771 0.53125,0.20313c0.13542,0.125 0.20313,0.29167 0.20313,0.5v8.76563c0,0.22917 -0.06771,0.41146 -0.20312,0.54688c-0.13542,0.125 -0.3125,0.1875 -0.53125,0.1875zM22.16071,189.55466c-0.21875,0 -0.39583,-0.06771 -0.53125,-0.20312c-0.13542,-0.125 -0.20312,-0.29687 -0.20312,-0.51562v-8.8125c0.02083,-0.96875 0.25521,-1.83854 0.70313,-2.60937c0.45833,-0.78125 1.07292,-1.39583 1.84375,-1.84375c0.78125,-0.44792 1.65625,-0.67187 2.625,-0.67187c1,0 1.89063,0.22917 2.67188,0.6875c0.78125,0.44792 1.39583,1.06771 1.84375,1.85938c0.45833,0.78125 0.6875,1.66667 0.6875,2.65625c0,0.97917 -0.21875,1.86458 -0.65625,2.65625c-0.4375,0.78125 -1.03646,1.40104 -1.79687,1.85938c-0.76042,0.44792 -1.61979,0.67188 -2.57812,0.67188c-0.83333,0 -1.58854,-0.17708 -2.26562,-0.53125c-0.67708,-0.35417 -1.22396,-0.82292 -1.64062,-1.40625v5.48438c0,0.21875 -0.06771,0.39063 -0.20312,0.51563c-0.125,0.13542 -0.29167,0.20313 -0.5,0.20313zM26.59821,183.97654c0.71875,0 1.36458,-0.16667 1.9375,-0.5c0.57292,-0.33333 1.02604,-0.79687 1.35938,-1.39062c0.33333,-0.59375 0.5,-1.25521 0.5,-1.98437c0,-0.75 -0.16667,-1.41667 -0.5,-2c-0.33333,-0.58333 -0.78646,-1.04687 -1.35937,-1.39062c-0.57292,-0.34375 -1.21875,-0.51562 -1.9375,-0.51562c-0.70833,0 -1.34896,0.17188 -1.92187,0.51563c-0.57292,0.34375 -1.02083,0.80729 -1.34375,1.39063c-0.32292,0.58333 -0.48437,1.25 -0.48437,2c0,0.72917 0.16146,1.39063 0.48438,1.98438c0.32292,0.59375 0.77083,1.05729 1.34375,1.39063c0.57292,0.33333 1.21354,0.5 1.92188,0.5zM39.25693,185.28904c-1.01042,0 -1.90625,-0.21875 -2.6875,-0.65625c-0.77083,-0.44792 -1.38021,-1.0625 -1.82812,-1.84375c-0.4375,-0.78125 -0.65625,-1.67708 -0.65625,-2.6875c0,-1.02083 0.20833,-1.91667 0.625,-2.6875c0.41667,-0.78125 0.98958,-1.39583 1.71875,-1.84375c0.73958,-0.44792 1.58854,-0.67187 2.54688,-0.67187c0.9375,0 1.75521,0.21354 2.45313,0.64063c0.70833,0.42708 1.25521,1.02083 1.64063,1.78125c0.38542,0.76042 0.57813,1.625 0.57813,2.59375c0,0.19792 -0.0625,0.35938 -0.1875,0.48438c-0.125,0.11458 -0.28646,0.17188 -0.48437,0.17188h-7.92187v-1.20312h8.07813l-0.79687,0.57813c0.01042,-0.71875 -0.125,-1.36458 -0.40625,-1.9375c-0.27083,-0.57292 -0.65625,-1.02083 -1.15625,-1.34375c-0.5,-0.32292 -1.09896,-0.48437 -1.79687,-0.48437c-0.70833,0 -1.33333,0.17188 -1.875,0.51563c-0.53125,0.33333 -0.94271,0.79688 -1.23437,1.39063c-0.29167,0.58333 -0.4375,1.25521 -0.4375,2.01563c0,0.76042 0.16146,1.43229 0.48438,2.01563c0.33333,0.58333 0.78646,1.04688 1.35938,1.39063c0.57292,0.33333 1.23438,0.5 1.98438,0.5c0.44792,0 0.89583,-0.07812 1.34375,-0.23437c0.45833,-0.15625 0.82292,-0.35417 1.09375,-0.59375c0.13542,-0.11458 0.29167,-0.17187 0.46875,-0.17187c0.17708,-0.01042 0.32292,0.03646 0.4375,0.14063c0.16667,0.14583 0.25,0.30729 0.25,0.48438c0.01042,0.16667 -0.05729,0.3125 -0.20312,0.4375c-0.41667,0.35417 -0.94271,0.64583 -1.57812,0.875c-0.625,0.22917 -1.22917,0.34375 -1.8125,0.34375zM46.68064,178.91404c0.03125,-0.77083 0.22917,-1.45833 0.59375,-2.0625c0.375,-0.61458 0.85417,-1.09375 1.4375,-1.4375c0.59375,-0.35417 1.25,-0.53125 1.96875,-0.53125c0.57292,0 1.01563,0.08333 1.32813,0.25c0.3125,0.15625 0.43229,0.39063 0.35938,0.70313c-0.05208,0.1875 -0.14062,0.3125 -0.26562,0.375c-0.11458,0.05208 -0.25521,0.07292 -0.42187,0.0625c-0.16667,-0.01042 -0.35417,-0.02083 -0.5625,-0.03125c-0.69792,-0.0625 -1.31771,0.01042 -1.85937,0.21875c-0.54167,0.19792 -0.97396,0.51042 -1.29687,0.9375c-0.3125,0.42708 -0.46875,0.93229 -0.46875,1.51563zM46.79002,185.19529c-0.22917,0 -0.40625,-0.0625 -0.53125,-0.1875c-0.125,-0.125 -0.1875,-0.29687 -0.1875,-0.51562v-8.79687c0,-0.21875 0.0625,-0.39062 0.1875,-0.51562c0.125,-0.125 0.30208,-0.1875 0.53125,-0.1875c0.21875,0 0.39063,0.0625 0.51563,0.1875c0.125,0.125 0.1875,0.29688 0.1875,0.51563v8.79688c0,0.21875 -0.0625,0.39063 -0.1875,0.51563c-0.125,0.125 -0.29687,0.1875 -0.51562,0.1875zM61.00397,185.19529c-0.19792,0 -0.36979,-0.06771 -0.51562,-0.20312c-0.14583,-0.14583 -0.21875,-0.32292 -0.21875,-0.53125v-13.10937c0,-0.20833 0.07292,-0.38021 0.21875,-0.51562c0.14583,-0.14583 0.31771,-0.21875 0.51563,-0.21875c0.30208,0 0.52083,0.125 0.65625,0.375l6.28125,12.5h-0.625l6.17188,-12.5c0.14583,-0.25 0.36458,-0.375 0.65625,-0.375c0.19792,0 0.36458,0.07292 0.5,0.21875c0.13542,0.13542 0.20313,0.30729 0.20313,0.51563v13.10938c0,0.20833 -0.06771,0.38542 -0.20312,0.53125c-0.13542,0.13542 -0.30208,0.20313 -0.5,0.20313c-0.21875,0 -0.40104,-0.06771 -0.54687,-0.20312c-0.13542,-0.14583 -0.20312,-0.32292 -0.20312,-0.53125v-11.21875l0.3125,0.01563l-5.5,11.25c-0.13542,0.23958 -0.34896,0.35938 -0.64062,0.35938c-0.3125,0 -0.53646,-0.15104 -0.67187,-0.45312l-5.53125,-11.07812l0.375,-0.09375v11.21875c0,0.20833 -0.07292,0.38542 -0.21875,0.53125c-0.14583,0.13542 -0.31771,0.20313 -0.51562,0.20313zM82.88389,185.28904c-0.95833,0 -1.81771,-0.22396 -2.57812,-0.67187c-0.75,-0.45833 -1.34896,-1.07812 -1.79687,-1.85937c-0.4375,-0.79167 -0.65625,-1.67708 -0.65625,-2.65625c0,-0.98958 0.22396,-1.875 0.67188,-2.65625c0.45833,-0.79167 1.07813,-1.41146 1.85938,-1.85937c0.78125,-0.45833 1.66667,-0.6875 2.65625,-0.6875c0.97917,0 1.85417,0.22917 2.625,0.6875c0.78125,0.44792 1.40104,1.06771 1.85938,1.85938c0.45833,0.78125 0.69271,1.66667 0.70313,2.65625l-0.57812,0.45313c0,0.89583 -0.20833,1.70313 -0.625,2.42188c-0.41667,0.70833 -0.98437,1.27083 -1.70312,1.6875c-0.71875,0.41667 -1.53125,0.625 -2.4375,0.625zM83.04014,183.97654c0.71875,0 1.35938,-0.16667 1.92188,-0.5c0.57292,-0.33333 1.02083,-0.79687 1.34375,-1.39062c0.33333,-0.59375 0.5,-1.25521 0.5,-1.98437c0,-0.75 -0.16667,-1.41667 -0.5,-2c-0.32292,-0.58333 -0.77083,-1.04687 -1.34375,-1.39062c-0.5625,-0.34375 -1.20312,-0.51562 -1.92187,-0.51562c-0.70833,0 -1.34896,0.17188 -1.92187,0.51563c-0.57292,0.34375 -1.03125,0.80729 -1.375,1.39063c-0.33333,0.58333 -0.5,1.25 -0.5,2c0,0.72917 0.16667,1.39063 0.5,1.98438c0.34375,0.59375 0.80208,1.05729 1.375,1.39063c0.57292,0.33333 1.21354,0.5 1.92188,0.5zM87.49326,185.19529c-0.20833,0 -0.38021,-0.0625 -0.51562,-0.1875c-0.13542,-0.13542 -0.20312,-0.30729 -0.20312,-0.51562v-3.20312l0.34375,-1.46875l1.10938,0.28125v4.39063c0,0.20833 -0.07292,0.38021 -0.21875,0.51563c-0.13542,0.125 -0.30729,0.1875 -0.51562,0.1875zM91.62354,178.91404c0.03125,-0.77083 0.22917,-1.45833 0.59375,-2.0625c0.375,-0.61458 0.85417,-1.09375 1.4375,-1.4375c0.59375,-0.35417 1.25,-0.53125 1.96875,-0.53125c0.57292,0 1.01563,0.08333 1.32813,0.25c0.3125,0.15625 0.43229,0.39063 0.35938,0.70313c-0.05208,0.1875 -0.14062,0.3125 -0.26562,0.375c-0.11458,0.05208 -0.25521,0.07292 -0.42187,0.0625c-0.16667,-0.01042 -0.35417,-0.02083 -0.5625,-0.03125c-0.69792,-0.0625 -1.31771,0.01042 -1.85937,0.21875c-0.54167,0.19792 -0.97396,0.51042 -1.29687,0.9375c-0.3125,0.42708 -0.46875,0.93229 -0.46875,1.51563zM91.73292,185.19529c-0.22917,0 -0.40625,-0.0625 -0.53125,-0.1875c-0.125,-0.125 -0.1875,-0.29687 -0.1875,-0.51562v-8.79687c0,-0.21875 0.0625,-0.39062 0.1875,-0.51562c0.125,-0.125 0.30208,-0.1875 0.53125,-0.1875c0.21875,0 0.39063,0.0625 0.51563,0.1875c0.125,0.125 0.1875,0.29688 0.1875,0.51563v8.79688c0,0.21875 -0.0625,0.39063 -0.1875,0.51563c-0.125,0.125 -0.29687,0.1875 -0.51562,0.1875zM100.59,185.19529c-0.21875,0 -0.39583,-0.0625 -0.53125,-0.1875c-0.125,-0.13542 -0.1875,-0.31771 -0.1875,-0.54687v-8.75c0,-0.21875 0.0625,-0.39062 0.1875,-0.51562c0.13542,-0.13542 0.3125,-0.20312 0.53125,-0.20312c0.20833,0 0.38021,0.06771 0.51563,0.20313c0.13542,0.125 0.20313,0.29688 0.20313,0.51563v8.75c0,0.22917 -0.06771,0.41146 -0.20312,0.54688c-0.13542,0.125 -0.30729,0.1875 -0.51562,0.1875zM100.6525,173.05466c-0.28125,0 -0.52083,-0.09896 -0.71875,-0.29687c-0.19792,-0.20833 -0.29687,-0.45312 -0.29687,-0.73437c0,-0.3125 0.10417,-0.55729 0.3125,-0.73437c0.20833,-0.17708 0.44792,-0.26562 0.71875,-0.26562c0.26042,0 0.48958,0.08854 0.6875,0.26563c0.20833,0.17708 0.3125,0.42188 0.3125,0.73438c0,0.28125 -0.09896,0.52604 -0.29687,0.73438c-0.19792,0.19792 -0.4375,0.29688 -0.71875,0.29688zM109.60667,185.28904c-1,0 -1.89062,-0.22396 -2.67187,-0.67187c-0.78125,-0.44792 -1.39583,-1.0625 -1.84375,-1.84375c-0.44792,-0.78125 -0.67187,-1.67187 -0.67187,-2.67187c0,-1.01042 0.22396,-1.90625 0.67188,-2.6875c0.44792,-0.78125 1.0625,-1.39583 1.84375,-1.84375c0.78125,-0.44792 1.67188,-0.67187 2.67188,-0.67187c0.98958,0 1.875,0.22396 2.65625,0.67188c0.78125,0.44792 1.39583,1.0625 1.84375,1.84375c0.44792,0.78125 0.67708,1.67708 0.6875,2.6875c0,1 -0.22917,1.89063 -0.6875,2.67188c-0.44792,0.78125 -1.0625,1.39583 -1.84375,1.84375c-0.78125,0.44792 -1.66667,0.67188 -2.65625,0.67188zM109.60667,183.97654c0.71875,0 1.36458,-0.16667 1.9375,-0.5c0.57292,-0.33333 1.02083,-0.79167 1.34375,-1.375c0.32292,-0.58333 0.48438,-1.25 0.48438,-2c0,-0.75 -0.16146,-1.41667 -0.48437,-2c-0.32292,-0.59375 -0.77083,-1.05729 -1.34375,-1.39062c-0.57292,-0.34375 -1.21875,-0.51562 -1.9375,-0.51562c-0.71875,0 -1.36458,0.17188 -1.9375,0.51563c-0.57292,0.33333 -1.02604,0.79688 -1.35937,1.39063c-0.33333,0.58333 -0.5,1.25 -0.5,2c0,0.75 0.16667,1.41667 0.5,2c0.33333,0.58333 0.78646,1.04167 1.35938,1.375c0.57292,0.33333 1.21875,0.5 1.9375,0.5zM126.35947,185.19529c-0.17708,0 -0.33333,-0.05208 -0.46875,-0.15625c-0.125,-0.11458 -0.21354,-0.26042 -0.26562,-0.4375l-3.82812,-12.9375c-0.08333,-0.29167 -0.06771,-0.53646 0.04688,-0.73437c0.125,-0.20833 0.31771,-0.3125 0.57813,-0.3125c0.14583,0 0.28125,0.04167 0.40625,0.125c0.13542,0.08333 0.23438,0.22917 0.29688,0.4375l3.45313,12.01563h-0.42187l3.26563,-11.6875c0.03125,-0.14583 0.10938,-0.26042 0.23438,-0.34375c0.13542,-0.08333 0.28646,-0.125 0.45313,-0.125c0.14583,0 0.28646,0.04167 0.42188,0.125c0.13542,0.07292 0.22396,0.19271 0.26563,0.35938l3.28125,11.67188h-0.42187l3.46875,-12.07812c0.08333,-0.33333 0.31771,-0.5 0.70313,-0.5c0.26042,0 0.4375,0.10417 0.53125,0.3125c0.10417,0.20833 0.11979,0.45313 0.04688,0.73438l-3.79687,12.92188c-0.0625,0.19792 -0.16146,0.34896 -0.29687,0.45313c-0.125,0.10417 -0.27604,0.15625 -0.45312,0.15625c-0.17708,0 -0.33333,-0.05208 -0.46875,-0.15625c-0.125,-0.11458 -0.21354,-0.26042 -0.26562,-0.4375l-3.25,-11.84375h0.45313l-3.21875,11.82813c-0.0625,0.1875 -0.16146,0.33854 -0.29687,0.45313c-0.125,0.10417 -0.27604,0.15625 -0.45312,0.15625zM143.14945,185.28904c-1,0 -1.89062,-0.22396 -2.67187,-0.67187c-0.78125,-0.44792 -1.39583,-1.0625 -1.84375,-1.84375c-0.44792,-0.78125 -0.67187,-1.67187 -0.67187,-2.67187c0,-1.01042 0.22396,-1.90625 0.67188,-2.6875c0.44792,-0.78125 1.0625,-1.39583 1.84375,-1.84375c0.78125,-0.44792 1.67188,-0.67187 2.67188,-0.67187c0.98958,0 1.875,0.22396 2.65625,0.67188c0.78125,0.44792 1.39583,1.0625 1.84375,1.84375c0.44792,0.78125 0.67708,1.67708 0.6875,2.6875c0,1 -0.22917,1.89063 -0.6875,2.67188c-0.44792,0.78125 -1.0625,1.39583 -1.84375,1.84375c-0.78125,0.44792 -1.66667,0.67188 -2.65625,0.67188zM143.14945,183.97654c0.71875,0 1.36458,-0.16667 1.9375,-0.5c0.57292,-0.33333 1.02083,-0.79167 1.34375,-1.375c0.32292,-0.58333 0.48438,-1.25 0.48438,-2c0,-0.75 -0.16146,-1.41667 -0.48437,-2c-0.32292,-0.59375 -0.77083,-1.05729 -1.34375,-1.39062c-0.57292,-0.34375 -1.21875,-0.51562 -1.9375,-0.51562c-0.71875,0 -1.36458,0.17188 -1.9375,0.51563c-0.57292,0.33333 -1.02604,0.79688 -1.35937,1.39063c-0.33333,0.58333 -0.5,1.25 -0.5,2c0,0.75 0.16667,1.41667 0.5,2c0.33333,0.58333 0.78646,1.04167 1.35938,1.375c0.57292,0.33333 1.21875,0.5 1.9375,0.5zM151.73286,178.91404c0.03125,-0.77083 0.22917,-1.45833 0.59375,-2.0625c0.375,-0.61458 0.85417,-1.09375 1.4375,-1.4375c0.59375,-0.35417 1.25,-0.53125 1.96875,-0.53125c0.57292,0 1.01563,0.08333 1.32813,0.25c0.3125,0.15625 0.43229,0.39063 0.35938,0.70313c-0.05208,0.1875 -0.14062,0.3125 -0.26562,0.375c-0.11458,0.05208 -0.25521,0.07292 -0.42187,0.0625c-0.16667,-0.01042 -0.35417,-0.02083 -0.5625,-0.03125c-0.69792,-0.0625 -1.31771,0.01042 -1.85937,0.21875c-0.54167,0.19792 -0.97396,0.51042 -1.29687,0.9375c-0.3125,0.42708 -0.46875,0.93229 -0.46875,1.51563zM151.84223,185.19529c-0.22917,0 -0.40625,-0.0625 -0.53125,-0.1875c-0.125,-0.125 -0.1875,-0.29687 -0.1875,-0.51562v-8.79687c0,-0.21875 0.0625,-0.39062 0.1875,-0.51562c0.125,-0.125 0.30208,-0.1875 0.53125,-0.1875c0.21875,0 0.39063,0.0625 0.51563,0.1875c0.125,0.125 0.1875,0.29688 0.1875,0.51563v8.79688c0,0.21875 -0.0625,0.39063 -0.1875,0.51563c-0.125,0.125 -0.29687,0.1875 -0.51562,0.1875zM161.87119,185.19529c-0.48958,0 -0.93229,-0.13542 -1.32812,-0.40625c-0.39583,-0.28125 -0.70312,-0.66146 -0.92187,-1.14062c-0.20833,-0.48958 -0.3125,-1.05208 -0.3125,-1.6875v-10.625c0,-0.20833 0.0625,-0.38021 0.1875,-0.51562c0.13542,-0.13542 0.30729,-0.20312 0.51563,-0.20312c0.20833,0 0.375,0.06771 0.5,0.20313c0.13542,0.13542 0.20313,0.30729 0.20313,0.51563v10.625c0,0.54167 0.10938,0.97917 0.32813,1.3125c0.21875,0.33333 0.49479,0.5 0.82813,0.5h0.46875c0.1875,0 0.33854,0.06771 0.45313,0.20313c0.11458,0.125 0.17188,0.29688 0.17188,0.51563c0,0.20833 -0.07812,0.38021 -0.23437,0.51563c-0.15625,0.125 -0.35937,0.1875 -0.60937,0.1875zM169.02537,185.28904c-0.98958,0 -1.875,-0.22396 -2.65625,-0.67187c-0.78125,-0.45833 -1.40104,-1.07812 -1.85937,-1.85937c-0.44792,-0.79167 -0.67187,-1.68229 -0.67187,-2.67187c0,-0.97917 0.21875,-1.85937 0.65625,-2.64062c0.44792,-0.79167 1.04688,-1.41146 1.79688,-1.85937c0.76042,-0.45833 1.61979,-0.6875 2.57813,-0.6875c0.83333,0 1.58333,0.17708 2.25,0.53125c0.67708,0.35417 1.22396,0.82292 1.64063,1.40625v-5.48437c0,-0.21875 0.06771,-0.39583 0.20313,-0.53125c0.13542,-0.13542 0.30729,-0.20312 0.51563,-0.20312c0.20833,0 0.38021,0.06771 0.51563,0.20313c0.14583,0.13542 0.21875,0.3125 0.21875,0.53125v8.8125c-0.03125,0.96875 -0.27604,1.84375 -0.73437,2.625c-0.44792,0.77083 -1.0625,1.38021 -1.84375,1.82813c-0.77083,0.44792 -1.64062,0.67188 -2.60937,0.67188zM169.02537,183.97654c0.71875,0 1.35938,-0.16667 1.92188,-0.5c0.57292,-0.34375 1.02083,-0.80729 1.34375,-1.39062c0.33333,-0.59375 0.5,-1.26042 0.5,-2c0,-0.73958 -0.16667,-1.40104 -0.5,-1.98437c-0.32292,-0.59375 -0.77083,-1.05729 -1.34375,-1.39062c-0.5625,-0.34375 -1.20312,-0.51562 -1.92187,-0.51562c-0.70833,0 -1.34896,0.17188 -1.92187,0.51563c-0.57292,0.33333 -1.03125,0.79688 -1.375,1.39063c-0.33333,0.58333 -0.5,1.24479 -0.5,1.98438c0,0.73958 0.16667,1.40625 0.5,2c0.34375,0.58333 0.80208,1.04688 1.375,1.39063c0.57292,0.33333 1.21354,0.5 1.92188,0.5zM189.75974,185.38279c-1,0 -1.94271,-0.19271 -2.82812,-0.57812c-0.875,-0.38542 -1.64583,-0.92187 -2.3125,-1.60937c-0.65625,-0.69792 -1.17187,-1.49479 -1.54687,-2.39062c-0.375,-0.90625 -0.5625,-1.875 -0.5625,-2.90625c0,-1.02083 0.18229,-1.97917 0.54688,-2.875c0.36458,-0.90625 0.88021,-1.69792 1.54688,-2.375c0.66667,-0.6875 1.4375,-1.22396 2.3125,-1.60937c0.88542,-0.39583 1.83333,-0.59375 2.84375,-0.59375c0.89583,0 1.70833,0.13021 2.4375,0.39063c0.73958,0.26042 1.45313,0.67708 2.14063,1.25c0.11458,0.08333 0.17708,0.1875 0.1875,0.3125c0.02083,0.11458 0.00521,0.22396 -0.04687,0.32813c-0.04167,0.10417 -0.11458,0.18229 -0.21875,0.23438c-0.02083,0.09375 -0.08333,0.16667 -0.1875,0.21875c-0.09375,0.05208 -0.20833,0.07292 -0.34375,0.0625c-0.125,-0.02083 -0.25,-0.07812 -0.375,-0.17187c-0.48958,-0.42708 -1.02083,-0.73958 -1.59375,-0.9375c-0.57292,-0.20833 -1.23958,-0.3125 -2,-0.3125c-0.80208,0 -1.55729,0.16146 -2.26562,0.48438c-0.69792,0.32292 -1.31771,0.76563 -1.85937,1.32813c-0.53125,0.55208 -0.94792,1.19792 -1.25,1.9375c-0.30208,0.72917 -0.45312,1.50521 -0.45312,2.32813c0,0.84375 0.15104,1.63542 0.45313,2.375c0.30208,0.72917 0.71875,1.375 1.25,1.9375c0.54167,0.5625 1.16146,1.00521 1.85938,1.32813c0.70833,0.3125 1.46354,0.46875 2.26563,0.46875c0.6875,0 1.33333,-0.10937 1.9375,-0.32812c0.61458,-0.22917 1.19792,-0.55729 1.75,-0.98437c0.14583,-0.125 0.30208,-0.17187 0.46875,-0.14062c0.16667,0.02083 0.3125,0.09375 0.4375,0.21875c0.125,0.125 0.1875,0.28646 0.1875,0.48438c0,0.09375 -0.01562,0.18229 -0.04687,0.26563c-0.02083,0.08333 -0.07292,0.16667 -0.15625,0.25c-0.63542,0.58333 -1.34375,1 -2.125,1.25c-0.78125,0.23958 -1.59896,0.35938 -2.45312,0.35938zM194.54099,183.25779l-1.42187,-0.29687v-3.75h-2.90625c-0.20833,0 -0.38021,-0.0625 -0.51562,-0.1875c-0.13542,-0.125 -0.20312,-0.28125 -0.20312,-0.46875c0,-0.1875 0.06771,-0.33854 0.20313,-0.45312c0.13542,-0.125 0.30729,-0.1875 0.51563,-0.1875h3.60938c0.20833,0 0.38021,0.06771 0.51563,0.20313c0.13542,0.125 0.20313,0.29688 0.20313,0.51563zM201.1627,185.28904c-0.95833,0 -1.81771,-0.22396 -2.57812,-0.67187c-0.75,-0.45833 -1.34897,-1.07812 -1.79691,-1.85937c-0.4375,-0.79167 -0.65625,-1.67708 -0.65625,-2.65625c0,-0.98958 0.22396,-1.875 0.67188,-2.65625c0.45835,-0.79167 1.07816,-1.41146 1.85941,-1.85937c0.78125,-0.45833 1.66667,-0.6875 2.65625,-0.6875c0.97917,0 1.85417,0.22917 2.625,0.6875c0.78125,0.44792 1.40104,1.06771 1.85938,1.85938c0.45833,0.78125 0.69271,1.66667 0.70313,2.65625l-0.57812,0.45313c0,0.89583 -0.20833,1.70313 -0.625,2.42188c-0.41667,0.70833 -0.98437,1.27083 -1.70312,1.6875c-0.71875,0.41667 -1.53125,0.625 -2.4375,0.625zM201.31895,183.97654c0.71875,0 1.35938,-0.16667 1.92188,-0.5c0.57292,-0.33333 1.02083,-0.79687 1.34375,-1.39062c0.33333,-0.59375 0.5,-1.25521 0.5,-1.98437c0,-0.75 -0.16667,-1.41667 -0.5,-2c-0.32292,-0.58333 -0.77083,-1.04687 -1.34375,-1.39062c-0.5625,-0.34375 -1.20312,-0.51562 -1.92187,-0.51562c-0.70833,0 -1.34896,0.17188 -1.92187,0.51563c-0.57292,0.34375 -1.03125,0.80729 -1.375,1.39063c-0.33333,0.58333 -0.5,1.25 -0.5,2c0,0.72917 0.16667,1.39063 0.5,1.98438c0.34375,0.59375 0.80208,1.05729 1.375,1.39063c0.57292,0.33333 1.21354,0.5 1.92188,0.5zM205.77207,185.19529c-0.20833,0 -0.38021,-0.0625 -0.51562,-0.1875c-0.13542,-0.13542 -0.20312,-0.30729 -0.20312,-0.51562v-3.20312l0.34375,-1.46875l1.10938,0.28125v4.39063c0,0.20833 -0.07292,0.38021 -0.21875,0.51563c-0.13542,0.125 -0.30729,0.1875 -0.51562,0.1875zM223.08982,185.19529c-0.20833,0 -0.38542,-0.0625 -0.53125,-0.1875c-0.13542,-0.13542 -0.20312,-0.30729 -0.20312,-0.51562v-5.375c0,-0.88542 -0.22917,-1.58333 -0.6875,-2.09375c-0.45833,-0.52083 -1.04687,-0.78125 -1.76562,-0.78125c-0.77083,0 -1.40625,0.26042 -1.90625,0.78125c-0.48958,0.51042 -0.72917,1.19271 -0.71875,2.04688h-1.28125c0.01042,-0.83333 0.1875,-1.5625 0.53125,-2.1875c0.35417,-0.63542 0.83333,-1.125 1.4375,-1.46875c0.61458,-0.35417 1.30729,-0.53125 2.07813,-0.53125c0.73958,0 1.39063,0.17708 1.95313,0.53125c0.5625,0.34375 1,0.83333 1.3125,1.46875c0.32292,0.625 0.48438,1.36979 0.48438,2.23438v5.375c0,0.20833 -0.06771,0.38021 -0.20312,0.51563c-0.125,0.125 -0.29167,0.1875 -0.5,0.1875zM210.02732,185.19529c-0.21875,0 -0.39583,-0.0625 -0.53125,-0.1875c-0.13542,-0.13542 -0.20312,-0.30729 -0.20312,-0.51562v-8.78125c0,-0.20833 0.06771,-0.38021 0.20313,-0.51562c0.13542,-0.13542 0.3125,-0.20312 0.53125,-0.20312c0.20833,0 0.375,0.06771 0.5,0.20313c0.13542,0.13542 0.20313,0.30729 0.20313,0.51563v8.78125c0,0.20833 -0.06771,0.38021 -0.20312,0.51563c-0.125,0.125 -0.29167,0.1875 -0.5,0.1875zM216.5742,185.19529c-0.20833,0 -0.38021,-0.0625 -0.51562,-0.1875c-0.13542,-0.13542 -0.20312,-0.30729 -0.20312,-0.51562v-5.375c0,-0.88542 -0.23437,-1.58333 -0.70312,-2.09375c-0.45833,-0.52083 -1.04687,-0.78125 -1.76562,-0.78125c-0.77083,0 -1.40625,0.25521 -1.90625,0.76563c-0.5,0.5 -0.75,1.15104 -0.75,1.95313h-1.01562c0.02083,-0.79167 0.19271,-1.49479 0.51563,-2.10937c0.33333,-0.61458 0.78646,-1.09375 1.35938,-1.4375c0.57292,-0.35417 1.21875,-0.53125 1.9375,-0.53125c0.73958,0 1.39063,0.17708 1.95313,0.53125c0.57292,0.34375 1.01563,0.83333 1.32813,1.46875c0.3125,0.625 0.46875,1.36979 0.46875,2.23438v5.375c0,0.20833 -0.06771,0.38021 -0.20312,0.51563c-0.125,0.125 -0.29167,0.1875 -0.5,0.1875zM231.60105,185.28904c-1.01042,0 -1.90625,-0.21875 -2.6875,-0.65625c-0.77083,-0.44792 -1.38021,-1.0625 -1.82812,-1.84375c-0.4375,-0.78125 -0.65625,-1.67708 -0.65625,-2.6875c0,-1.02083 0.20833,-1.91667 0.625,-2.6875c0.41667,-0.78125 0.98958,-1.39583 1.71875,-1.84375c0.73958,-0.44792 1.58854,-0.67187 2.54688,-0.67187c0.9375,0 1.75521,0.21354 2.45313,0.64063c0.70833,0.42708 1.25521,1.02083 1.64063,1.78125c0.38542,0.76042 0.57813,1.625 0.57813,2.59375c0,0.19792 -0.0625,0.35938 -0.1875,0.48438c-0.125,0.11458 -0.28646,0.17188 -0.48437,0.17188h-7.92187v-1.20312h8.07813l-0.79687,0.57813c0.01042,-0.71875 -0.125,-1.36458 -0.40625,-1.9375c-0.27083,-0.57292 -0.65625,-1.02083 -1.15625,-1.34375c-0.5,-0.32292 -1.09896,-0.48437 -1.79687,-0.48437c-0.70833,0 -1.33333,0.17188 -1.875,0.51563c-0.53125,0.33333 -0.94271,0.79688 -1.23437,1.39063c-0.29167,0.58333 -0.4375,1.25521 -0.4375,2.01563c0,0.76042 0.16146,1.43229 0.48438,2.01563c0.33333,0.58333 0.78646,1.04688 1.35938,1.39063c0.57292,0.33333 1.23438,0.5 1.98438,0.5c0.44792,0 0.89583,-0.07812 1.34375,-0.23437c0.45833,-0.15625 0.82292,-0.35417 1.09375,-0.59375c0.13542,-0.11458 0.29167,-0.17187 0.46875,-0.17187c0.17708,-0.01042 0.32292,0.03646 0.4375,0.14063c0.16667,0.14583 0.25,0.30729 0.25,0.48438c0.01042,0.16667 -0.05729,0.3125 -0.20312,0.4375c-0.41667,0.35417 -0.94271,0.64583 -1.57812,0.875c-0.625,0.22917 -1.22917,0.34375 -1.8125,0.34375zM250.8035,185.38279c-1.07292,0 -2.06771,-0.1875 -2.98437,-0.5625c-0.90625,-0.375 -1.69271,-0.89583 -2.35937,-1.5625c-0.66667,-0.67708 -1.18229,-1.46875 -1.54687,-2.375c-0.36458,-0.90625 -0.54687,-1.90104 -0.54687,-2.98437c0,-1.07292 0.18229,-2.0625 0.54688,-2.96875c0.36458,-0.90625 0.88021,-1.69271 1.54688,-2.35937c0.66667,-0.67708 1.45313,-1.19792 2.35938,-1.5625c0.91667,-0.375 1.91146,-0.5625 2.98438,-0.5625c1.07292,0 2.0625,0.1875 2.96875,0.5625c0.90625,0.36458 1.69271,0.88542 2.35938,1.5625c0.67708,0.66667 1.19792,1.45313 1.5625,2.35938c0.375,0.90625 0.5625,1.89583 0.5625,2.96875c0,1.08333 -0.1875,2.07813 -0.5625,2.98438c-0.36458,0.90625 -0.88542,1.69792 -1.5625,2.375c-0.66667,0.66667 -1.45312,1.1875 -2.35937,1.5625c-0.90625,0.375 -1.89583,0.5625 -2.96875,0.5625zM250.8035,184.00779c0.86458,0 1.66146,-0.15104 2.39063,-0.45312c0.73958,-0.3125 1.38021,-0.74479 1.92188,-1.29687c0.54167,-0.55208 0.95833,-1.19792 1.25,-1.9375c0.30208,-0.73958 0.45313,-1.54687 0.45313,-2.42187c0,-0.85417 -0.15104,-1.65104 -0.45312,-2.39062c-0.29167,-0.73958 -0.70833,-1.38542 -1.25,-1.9375c-0.54167,-0.5625 -1.18229,-0.99479 -1.92187,-1.29687c-0.72917,-0.30208 -1.52604,-0.45312 -2.39062,-0.45312c-0.86458,0 -1.66667,0.15104 -2.40625,0.45313c-0.72917,0.30208 -1.36458,0.73438 -1.90625,1.29688c-0.54167,0.55208 -0.96354,1.19792 -1.26562,1.9375c-0.29167,0.73958 -0.4375,1.53646 -0.4375,2.39063c0,0.875 0.14583,1.68229 0.4375,2.42188c0.30208,0.73958 0.72396,1.38542 1.26563,1.9375c0.54167,0.55208 1.17708,0.98438 1.90625,1.29688c0.73958,0.30208 1.54167,0.45313 2.40625,0.45313zM264.56406,185.19529c-0.30208,0 -0.52604,-0.16146 -0.67187,-0.48437l-4.14062,-8.78125c-0.07292,-0.16667 -0.08333,-0.32812 -0.03125,-0.48437c0.0625,-0.16667 0.1875,-0.29167 0.375,-0.375c0.17708,-0.09375 0.34375,-0.10937 0.5,-0.04687c0.16667,0.0625 0.29167,0.17708 0.375,0.34375l3.98438,8.59375h-0.76562l3.92188,-8.59375c0.07292,-0.17708 0.19792,-0.29167 0.375,-0.34375c0.17708,-0.0625 0.35417,-0.05729 0.53125,0.01563c0.17708,0.09375 0.29688,0.22396 0.35938,0.39063c0.0625,0.16667 0.05729,0.32292 -0.01562,0.46875l-4.09375,8.8125c-0.14583,0.32292 -0.38021,0.48438 -0.70312,0.48438zM275.64823,185.28904c-1.01042,0 -1.90625,-0.21875 -2.6875,-0.65625c-0.77083,-0.44792 -1.38021,-1.0625 -1.82812,-1.84375c-0.4375,-0.78125 -0.65625,-1.67708 -0.65625,-2.6875c0,-1.02083 0.20833,-1.91667 0.625,-2.6875c0.41667,-0.78125 0.98958,-1.39583 1.71875,-1.84375c0.73958,-0.44792 1.58854,-0.67187 2.54688,-0.67187c0.9375,0 1.75521,0.21354 2.45313,0.64063c0.70833,0.42708 1.25521,1.02083 1.64063,1.78125c0.38542,0.76042 0.57813,1.625 0.57813,2.59375c0,0.19792 -0.0625,0.35938 -0.1875,0.48438c-0.125,0.11458 -0.28646,0.17188 -0.48437,0.17188h-7.92187v-1.20312h8.07813l-0.79687,0.57813c0.01042,-0.71875 -0.125,-1.36458 -0.40625,-1.9375c-0.27083,-0.57292 -0.65625,-1.02083 -1.15625,-1.34375c-0.5,-0.32292 -1.09896,-0.48437 -1.79687,-0.48437c-0.70833,0 -1.33333,0.17188 -1.875,0.51563c-0.53125,0.33333 -0.94271,0.79688 -1.23437,1.39063c-0.29167,0.58333 -0.4375,1.25521 -0.4375,2.01563c0,0.76042 0.16146,1.43229 0.48438,2.01563c0.33333,0.58333 0.78646,1.04688 1.35938,1.39063c0.57292,0.33333 1.23438,0.5 1.98438,0.5c0.44792,0 0.89583,-0.07812 1.34375,-0.23437c0.45833,-0.15625 0.82292,-0.35417 1.09375,-0.59375c0.13542,-0.11458 0.29167,-0.17187 0.46875,-0.17187c0.17708,-0.01042 0.32292,0.03646 0.4375,0.14063c0.16667,0.14583 0.25,0.30729 0.25,0.48438c0.01042,0.16667 -0.05729,0.3125 -0.20312,0.4375c-0.41667,0.35417 -0.94271,0.64583 -1.57812,0.875c-0.625,0.22917 -1.22917,0.34375 -1.8125,0.34375zM283.07194,178.91404c0.03125,-0.77083 0.22917,-1.45833 0.59375,-2.0625c0.375,-0.61458 0.85417,-1.09375 1.4375,-1.4375c0.59375,-0.35417 1.25,-0.53125 1.96875,-0.53125c0.57292,0 1.01563,0.08333 1.32813,0.25c0.3125,0.15625 0.43229,0.39063 0.35938,0.70313c-0.05208,0.1875 -0.14062,0.3125 -0.26562,0.375c-0.11458,0.05208 -0.25521,0.07292 -0.42187,0.0625c-0.16667,-0.01042 -0.35417,-0.02083 -0.5625,-0.03125c-0.69792,-0.0625 -1.31771,0.01042 -1.85937,0.21875c-0.54167,0.19792 -0.97396,0.51042 -1.29687,0.9375c-0.3125,0.42708 -0.46875,0.93229 -0.46875,1.51563zM283.18131,185.19529c-0.22917,0 -0.40625,-0.0625 -0.53125,-0.1875c-0.125,-0.125 -0.1875,-0.29687 -0.1875,-0.51562v-8.79687c0,-0.21875 0.0625,-0.39062 0.1875,-0.51562c0.125,-0.125 0.30208,-0.1875 0.53125,-0.1875c0.21875,0 0.39063,0.0625 0.51563,0.1875c0.125,0.125 0.1875,0.29688 0.1875,0.51563v8.79688c0,0.21875 -0.0625,0.39063 -0.1875,0.51563c-0.125,0.125 -0.29687,0.1875 -0.51562,0.1875zM297.39524,185.19529c-0.19792,0 -0.36979,-0.06771 -0.51562,-0.20312c-0.14583,-0.13542 -0.21875,-0.3125 -0.21875,-0.53125v-13.10937c0,-0.19792 0.07292,-0.36979 0.21875,-0.51562c0.14583,-0.14583 0.31771,-0.21875 0.51563,-0.21875c0.19792,0 0.36979,0.07292 0.51563,0.21875c0.14583,0.14583 0.21875,0.31771 0.21875,0.51563v12.46875h7.28125c0.19792,0 0.36979,0.06771 0.51563,0.20313c0.14583,0.125 0.21875,0.28646 0.21875,0.48438c0,0.19792 -0.07292,0.36458 -0.21875,0.5c-0.14583,0.125 -0.31771,0.1875 -0.51562,0.1875zM312.93906,185.28904c-1,0 -1.89062,-0.22396 -2.67187,-0.67187c-0.78125,-0.44792 -1.39583,-1.0625 -1.84375,-1.84375c-0.44792,-0.78125 -0.67187,-1.67187 -0.67187,-2.67187c0,-1.01042 0.22396,-1.90625 0.67188,-2.6875c0.44792,-0.78125 1.0625,-1.39583 1.84375,-1.84375c0.78125,-0.44792 1.67188,-0.67187 2.67188,-0.67187c0.98958,0 1.875,0.22396 2.65625,0.67188c0.78125,0.44792 1.39583,1.0625 1.84375,1.84375c0.44792,0.78125 0.67708,1.67708 0.6875,2.6875c0,1 -0.22917,1.89063 -0.6875,2.67188c-0.44792,0.78125 -1.0625,1.39583 -1.84375,1.84375c-0.78125,0.44792 -1.66667,0.67188 -2.65625,0.67188zM312.93906,183.97654c0.71875,0 1.36458,-0.16667 1.9375,-0.5c0.57292,-0.33333 1.02083,-0.79167 1.34375,-1.375c0.32292,-0.58333 0.48438,-1.25 0.48438,-2c0,-0.75 -0.16146,-1.41667 -0.48437,-2c-0.32292,-0.59375 -0.77083,-1.05729 -1.34375,-1.39062c-0.57292,-0.34375 -1.21875,-0.51562 -1.9375,-0.51562c-0.71875,0 -1.36458,0.17188 -1.9375,0.51563c-0.57292,0.33333 -1.02604,0.79688 -1.35937,1.39063c-0.33333,0.58333 -0.5,1.25 -0.5,2c0,0.75 0.16667,1.41667 0.5,2c0.33333,0.58333 0.78646,1.04167 1.35938,1.375c0.57292,0.33333 1.21875,0.5 1.9375,0.5zM320.67869,185.19529c-0.19792,0 -0.36979,-0.06771 -0.51562,-0.20312c-0.14583,-0.14583 -0.21875,-0.32292 -0.21875,-0.53125v-13.10937c0,-0.20833 0.06771,-0.38021 0.20313,-0.51562c0.14583,-0.14583 0.32292,-0.21875 0.53125,-0.21875h8.75c0.20833,0 0.38021,0.06771 0.51563,0.20313c0.13542,0.13542 0.20313,0.30729 0.20313,0.51563c0,0.1875 -0.06771,0.34896 -0.20312,0.48438c-0.13542,0.13542 -0.30729,0.20313 -0.51562,0.20313h-8.01562v5.15625h5.82813c0.21875,0 0.39583,0.06771 0.53125,0.20313c0.13542,0.13542 0.20313,0.30208 0.20313,0.5c0,0.19792 -0.06771,0.36458 -0.20312,0.5c-0.13542,0.13542 -0.3125,0.20313 -0.53125,0.20313h-5.82812v5.875c0,0.20833 -0.07292,0.38542 -0.21875,0.53125c-0.13542,0.13542 -0.30729,0.20313 -0.51562,0.20313zM333.60447,185.19529c-0.21875,0 -0.39583,-0.0625 -0.53125,-0.1875c-0.125,-0.13542 -0.1875,-0.31771 -0.1875,-0.54687v-8.75c0,-0.21875 0.0625,-0.39062 0.1875,-0.51562c0.13542,-0.13542 0.3125,-0.20312 0.53125,-0.20312c0.20833,0 0.38021,0.06771 0.51563,0.20313c0.13542,0.125 0.20313,0.29688 0.20313,0.51563v8.75c0,0.22917 -0.06771,0.41146 -0.20312,0.54688c-0.13542,0.125 -0.30729,0.1875 -0.51562,0.1875zM333.66697,173.05466c-0.28125,0 -0.52083,-0.09896 -0.71875,-0.29687c-0.19792,-0.20833 -0.29687,-0.45312 -0.29687,-0.73437c0,-0.3125 0.10417,-0.55729 0.3125,-0.73437c0.20833,-0.17708 0.44792,-0.26562 0.71875,-0.26562c0.26042,0 0.48958,0.08854 0.6875,0.26563c0.20833,0.17708 0.3125,0.42188 0.3125,0.73438c0,0.28125 -0.09896,0.52604 -0.29687,0.73438c-0.19792,0.19792 -0.4375,0.29688 -0.71875,0.29688zM344.35306,185.19529c-0.20833,0 -0.38542,-0.06771 -0.53125,-0.20312c-0.13542,-0.13542 -0.20312,-0.3125 -0.20312,-0.53125v-13.10937c0,-0.20833 0.06771,-0.38021 0.20313,-0.51562c0.14583,-0.14583 0.32292,-0.21875 0.53125,-0.21875c0.20833,0 0.38021,0.07292 0.51563,0.21875c0.14583,0.13542 0.21875,0.30729 0.21875,0.51563v5.82813h9.09375v-5.82812c0,-0.20833 0.06771,-0.38021 0.20313,-0.51562c0.13542,-0.14583 0.3125,-0.21875 0.53125,-0.21875c0.20833,0 0.38021,0.07292 0.51563,0.21875c0.13542,0.13542 0.20313,0.30729 0.20313,0.51563v13.10938c0,0.21875 -0.06771,0.39583 -0.20312,0.53125c-0.13542,0.13542 -0.30729,0.20313 -0.51562,0.20313c-0.21875,0 -0.39583,-0.06771 -0.53125,-0.20312c-0.13542,-0.13542 -0.20312,-0.3125 -0.20312,-0.53125v-5.98437h-9.09375v5.98438c0,0.21875 -0.07292,0.39583 -0.21875,0.53125c-0.13542,0.13542 -0.30729,0.20313 -0.51562,0.20313zM360.20829,185.19529c-0.21875,0 -0.39583,-0.0625 -0.53125,-0.1875c-0.125,-0.13542 -0.1875,-0.31771 -0.1875,-0.54687v-8.75c0,-0.21875 0.0625,-0.39062 0.1875,-0.51562c0.13542,-0.13542 0.3125,-0.20312 0.53125,-0.20312c0.20833,0 0.38021,0.06771 0.51563,0.20313c0.13542,0.125 0.20313,0.29688 0.20313,0.51563v8.75c0,0.22917 -0.06771,0.41146 -0.20312,0.54688c-0.13542,0.125 -0.30729,0.1875 -0.51562,0.1875zM360.27079,173.05466c-0.28125,0 -0.52083,-0.09896 -0.71875,-0.29687c-0.19792,-0.20833 -0.29687,-0.45312 -0.29687,-0.73437c0,-0.3125 0.10417,-0.55729 0.3125,-0.73437c0.20833,-0.17708 0.44792,-0.26562 0.71875,-0.26562c0.26042,0 0.48958,0.08854 0.6875,0.26563c0.20833,0.17708 0.3125,0.42188 0.3125,0.73438c0,0.28125 -0.09896,0.52604 -0.29687,0.73438c-0.19792,0.19792 -0.4375,0.29688 -0.71875,0.29688zM365.30308,189.55466c-0.21875,0 -0.39583,-0.06771 -0.53125,-0.20312c-0.13542,-0.125 -0.20312,-0.29687 -0.20312,-0.51562v-8.8125c0.02083,-0.96875 0.25521,-1.83854 0.70313,-2.60937c0.45833,-0.78125 1.07292,-1.39583 1.84375,-1.84375c0.78125,-0.44792 1.65625,-0.67187 2.625,-0.67187c1,0 1.89063,0.22917 2.67188,0.6875c0.78125,0.44792 1.39583,1.06771 1.84375,1.85938c0.45833,0.78125 0.6875,1.66667 0.6875,2.65625c0,0.97917 -0.21875,1.86458 -0.65625,2.65625c-0.4375,0.78125 -1.03646,1.40104 -1.79687,1.85938c-0.76042,0.44792 -1.61979,0.67188 -2.57812,0.67188c-0.83333,0 -1.58854,-0.17708 -2.26562,-0.53125c-0.67708,-0.35417 -1.22396,-0.82292 -1.64062,-1.40625v5.48438c0,0.21875 -0.06771,0.39063 -0.20312,0.51563c-0.125,0.13542 -0.29167,0.20313 -0.5,0.20313zM369.74058,183.97654c0.71875,0 1.36458,-0.16667 1.9375,-0.5c0.57292,-0.33333 1.02604,-0.79687 1.35938,-1.39062c0.33333,-0.59375 0.5,-1.25521 0.5,-1.98437c0,-0.75 -0.16667,-1.41667 -0.5,-2c-0.33333,-0.58333 -0.78646,-1.04687 -1.35937,-1.39062c-0.57292,-0.34375 -1.21875,-0.51562 -1.9375,-0.51562c-0.70833,0 -1.34896,0.17188 -1.92187,0.51563c-0.57292,0.34375 -1.02083,0.80729 -1.34375,1.39063c-0.32292,0.58333 -0.48437,1.25 -0.48437,2c0,0.72917 0.16146,1.39063 0.48438,1.98438c0.32292,0.59375 0.77083,1.05729 1.34375,1.39063c0.57292,0.33333 1.21354,0.5 1.92188,0.5zM384.14683,185.19529c-0.20833,0 -0.38542,-0.06771 -0.53125,-0.20312c-0.13542,-0.13542 -0.20312,-0.3125 -0.20312,-0.53125v-13.10937c0,-0.20833 0.06771,-0.38021 0.20313,-0.51562c0.14583,-0.14583 0.32292,-0.21875 0.53125,-0.21875c0.20833,0 0.38021,0.07292 0.51563,0.21875c0.14583,0.13542 0.21875,0.30729 0.21875,0.51563v5.82813h9.09375v-5.82812c0,-0.20833 0.06771,-0.38021 0.20313,-0.51562c0.13542,-0.14583 0.3125,-0.21875 0.53125,-0.21875c0.20833,0 0.38021,0.07292 0.51563,0.21875c0.13542,0.13542 0.20313,0.30729 0.20313,0.51563v13.10938c0,0.21875 -0.06771,0.39583 -0.20312,0.53125c-0.13542,0.13542 -0.30729,0.20313 -0.51562,0.20313c-0.21875,0 -0.39583,-0.06771 -0.53125,-0.20312c-0.13542,-0.13542 -0.20312,-0.3125 -0.20312,-0.53125v-5.98437h-9.09375v5.98438c0,0.21875 -0.07292,0.39583 -0.21875,0.53125c-0.13542,0.13542 -0.30729,0.20313 -0.51562,0.20313zM403.62711,185.28904c-1,0 -1.89062,-0.22396 -2.67187,-0.67187c-0.78125,-0.44792 -1.39583,-1.0625 -1.84375,-1.84375c-0.44792,-0.78125 -0.67187,-1.67187 -0.67187,-2.67187c0,-1.01042 0.22396,-1.90625 0.67188,-2.6875c0.44792,-0.78125 1.0625,-1.39583 1.84375,-1.84375c0.78125,-0.44792 1.67188,-0.67187 2.67188,-0.67187c0.98958,0 1.875,0.22396 2.65625,0.67188c0.78125,0.44792 1.39583,1.0625 1.84375,1.84375c0.44792,0.78125 0.67708,1.67708 0.6875,2.6875c0,1 -0.22917,1.89063 -0.6875,2.67188c-0.44792,0.78125 -1.0625,1.39583 -1.84375,1.84375c-0.78125,0.44792 -1.66667,0.67188 -2.65625,0.67188zM403.62711,183.97654c0.71875,0 1.36458,-0.16667 1.9375,-0.5c0.57292,-0.33333 1.02083,-0.79167 1.34375,-1.375c0.32292,-0.58333 0.48438,-1.25 0.48438,-2c0,-0.75 -0.16146,-1.41667 -0.48437,-2c-0.32292,-0.59375 -0.77083,-1.05729 -1.34375,-1.39062c-0.57292,-0.34375 -1.21875,-0.51562 -1.9375,-0.51562c-0.71875,0 -1.36458,0.17188 -1.9375,0.51563c-0.57292,0.33333 -1.02604,0.79688 -1.35937,1.39063c-0.33333,0.58333 -0.5,1.25 -0.5,2c0,0.75 0.16667,1.41667 0.5,2c0.33333,0.58333 0.78646,1.04167 1.35938,1.375c0.57292,0.33333 1.21875,0.5 1.9375,0.5zM412.33549,189.55466c-0.21875,0 -0.39583,-0.06771 -0.53125,-0.20312c-0.13542,-0.125 -0.20312,-0.29687 -0.20312,-0.51562v-8.8125c0.02083,-0.96875 0.25521,-1.83854 0.70313,-2.60937c0.45833,-0.78125 1.07292,-1.39583 1.84375,-1.84375c0.78125,-0.44792 1.65625,-0.67187 2.625,-0.67187c1,0 1.89063,0.22917 2.67188,0.6875c0.78125,0.44792 1.39583,1.06771 1.84375,1.85938c0.45833,0.78125 0.6875,1.66667 0.6875,2.65625c0,0.97917 -0.21875,1.86458 -0.65625,2.65625c-0.4375,0.78125 -1.03646,1.40104 -1.79687,1.85938c-0.76042,0.44792 -1.61979,0.67188 -2.57812,0.67188c-0.83333,0 -1.58854,-0.17708 -2.26562,-0.53125c-0.67708,-0.35417 -1.22396,-0.82292 -1.64062,-1.40625v5.48438c0,0.21875 -0.06771,0.39063 -0.20312,0.51563c-0.125,0.13542 -0.29167,0.20313 -0.5,0.20313zM416.77299,183.97654c0.71875,0 1.36458,-0.16667 1.9375,-0.5c0.57292,-0.33333 1.02604,-0.79687 1.35938,-1.39062c0.33333,-0.59375 0.5,-1.25521 0.5,-1.98437c0,-0.75 -0.16667,-1.41667 -0.5,-2c-0.33333,-0.58333 -0.78646,-1.04687 -1.35937,-1.39062c-0.57292,-0.34375 -1.21875,-0.51562 -1.9375,-0.51562c-0.70833,0 -1.34896,0.17188 -1.92187,0.51563c-0.57292,0.34375 -1.02083,0.80729 -1.34375,1.39063c-0.32292,0.58333 -0.48437,1.25 -0.48437,2c0,0.72917 0.16146,1.39063 0.48438,1.98438c0.32292,0.59375 0.77083,1.05729 1.34375,1.39063c0.57292,0.33333 1.21354,0.5 1.92188,0.5zM431.17924,185.19529c-0.20833,0 -0.38542,-0.06771 -0.53125,-0.20312c-0.13542,-0.13542 -0.20312,-0.3125 -0.20312,-0.53125v-13.10937c0,-0.20833 0.06771,-0.38021 0.20313,-0.51562c0.14583,-0.14583 0.32292,-0.21875 0.53125,-0.21875h3.48438c0.90625,0 1.71354,0.19271 2.42188,0.57813c0.71875,0.375 1.27604,0.90104 1.67188,1.57813c0.40625,0.67708 0.60938,1.45833 0.60938,2.34375c0,0.84375 -0.20312,1.59896 -0.60937,2.26563c-0.39583,0.65625 -0.95312,1.17188 -1.67187,1.54688c-0.70833,0.375 -1.51562,0.5625 -2.42187,0.5625h-2.75v4.96875c0,0.21875 -0.07292,0.39583 -0.21875,0.53125c-0.13542,0.13542 -0.30729,0.20313 -0.51562,0.20313zM438.97611,185.19529c-0.15625,0 -0.28125,-0.03125 -0.375,-0.09375c-0.09375,-0.0625 -0.18229,-0.15625 -0.26562,-0.28125l-3.57812,-5.70312l1.45313,-0.375l3.34375,5.32813c0.1875,0.30208 0.21875,0.56771 0.09375,0.79688c-0.11458,0.21875 -0.33854,0.32813 -0.67187,0.32813zM431.91361,178.08591h2.75c0.63542,0 1.19792,-0.125 1.6875,-0.375c0.48958,-0.26042 0.875,-0.61458 1.15625,-1.0625c0.29167,-0.44792 0.4375,-0.95833 0.4375,-1.53125c0,-0.60417 -0.14583,-1.14062 -0.4375,-1.60937c-0.28125,-0.46875 -0.66667,-0.83333 -1.15625,-1.09375c-0.48958,-0.26042 -1.05208,-0.39062 -1.6875,-0.39062h-2.75zM446.42759,185.28904c-1.01042,0 -1.90625,-0.21875 -2.6875,-0.65625c-0.77083,-0.44792 -1.38021,-1.0625 -1.82813,-1.84375c-0.4375,-0.78125 -0.65625,-1.67708 -0.65625,-2.6875c0,-1.02083 0.20833,-1.91667 0.625,-2.6875c0.41667,-0.78125 0.98958,-1.39583 1.71875,-1.84375c0.73958,-0.44792 1.58854,-0.67187 2.54688,-0.67187c0.9375,0 1.75521,0.21354 2.45313,0.64063c0.70833,0.42708 1.25521,1.02083 1.64063,1.78125c0.38542,0.76042 0.57813,1.625 0.57813,2.59375c0,0.19792 -0.0625,0.35938 -0.1875,0.48438c-0.125,0.11458 -0.28646,0.17188 -0.48438,0.17188h-7.92188v-1.20312h8.07813l-0.79687,0.57813c0.01042,-0.71875 -0.125,-1.36458 -0.40625,-1.9375c-0.27083,-0.57292 -0.65625,-1.02083 -1.15625,-1.34375c-0.5,-0.32292 -1.09896,-0.48437 -1.79688,-0.48437c-0.70833,0 -1.33333,0.17188 -1.875,0.51563c-0.53125,0.33333 -0.94271,0.79688 -1.23438,1.39063c-0.29167,0.58333 -0.4375,1.25521 -0.4375,2.01563c0,0.76042 0.16146,1.43229 0.48438,2.01563c0.33333,0.58333 0.78646,1.04688 1.35938,1.39063c0.57292,0.33333 1.23438,0.5 1.98438,0.5c0.44792,0 0.89583,-0.07812 1.34375,-0.23437c0.45833,-0.15625 0.82292,-0.35417 1.09375,-0.59375c0.13542,-0.11458 0.29167,-0.17187 0.46875,-0.17187c0.17708,-0.01042 0.32292,0.03646 0.4375,0.14063c0.16667,0.14583 0.25,0.30729 0.25,0.48438c0.01042,0.16667 -0.05729,0.3125 -0.20312,0.4375c-0.41667,0.35417 -0.94271,0.64583 -1.57812,0.875c-0.625,0.22917 -1.22917,0.34375 -1.8125,0.34375zM467.0388,185.19529c-0.20833,0 -0.38542,-0.0625 -0.53125,-0.1875c-0.13542,-0.13542 -0.20312,-0.30729 -0.20312,-0.51562v-5.375c0,-0.88542 -0.22917,-1.58333 -0.6875,-2.09375c-0.45833,-0.52083 -1.04687,-0.78125 -1.76562,-0.78125c-0.77083,0 -1.40625,0.26042 -1.90625,0.78125c-0.48958,0.51042 -0.72917,1.19271 -0.71875,2.04688h-1.28125c0.01042,-0.83333 0.1875,-1.5625 0.53125,-2.1875c0.35417,-0.63542 0.83333,-1.125 1.4375,-1.46875c0.61458,-0.35417 1.30729,-0.53125 2.07813,-0.53125c0.73958,0 1.39063,0.17708 1.95313,0.53125c0.5625,0.34375 1,0.83333 1.3125,1.46875c0.32292,0.625 0.48438,1.36979 0.48438,2.23438v5.375c0,0.20833 -0.06771,0.38021 -0.20312,0.51563c-0.125,0.125 -0.29167,0.1875 -0.5,0.1875zM453.9763,185.19529c-0.21875,0 -0.39583,-0.0625 -0.53125,-0.1875c-0.13542,-0.13542 -0.20312,-0.30729 -0.20312,-0.51562v-8.78125c0,-0.20833 0.06771,-0.38021 0.20313,-0.51562c0.13542,-0.13542 0.3125,-0.20312 0.53125,-0.20312c0.20833,0 0.375,0.06771 0.5,0.20313c0.13542,0.13542 0.20313,0.30729 0.20313,0.51563v8.78125c0,0.20833 -0.06771,0.38021 -0.20312,0.51563c-0.125,0.125 -0.29167,0.1875 -0.5,0.1875zM460.52317,185.19529c-0.20833,0 -0.38021,-0.0625 -0.51562,-0.1875c-0.13542,-0.13542 -0.20312,-0.30729 -0.20312,-0.51562v-5.375c0,-0.88542 -0.23437,-1.58333 -0.70312,-2.09375c-0.45833,-0.52083 -1.04687,-0.78125 -1.76562,-0.78125c-0.77083,0 -1.40625,0.25521 -1.90625,0.76563c-0.5,0.5 -0.75,1.15104 -0.75,1.95313h-1.01562c0.02083,-0.79167 0.19271,-1.49479 0.51563,-2.10937c0.33333,-0.61458 0.78646,-1.09375 1.35938,-1.4375c0.57292,-0.35417 1.21875,-0.53125 1.9375,-0.53125c0.73958,0 1.39063,0.17708 1.95313,0.53125c0.57292,0.34375 1.01562,0.83333 1.32812,1.46875c0.3125,0.625 0.46875,1.36979 0.46875,2.23438v5.375c0,0.20833 -0.06771,0.38021 -0.20312,0.51563c-0.125,0.125 -0.29167,0.1875 -0.5,0.1875zM471.94065,185.19529c-0.21875,0 -0.39583,-0.0625 -0.53125,-0.1875c-0.125,-0.13542 -0.1875,-0.31771 -0.1875,-0.54687v-8.75c0,-0.21875 0.0625,-0.39062 0.1875,-0.51562c0.13542,-0.13542 0.3125,-0.20312 0.53125,-0.20312c0.20833,0 0.38021,0.06771 0.51563,0.20313c0.13542,0.125 0.20313,0.29688 0.20313,0.51563v8.75c0,0.22917 -0.06771,0.41146 -0.20312,0.54688c-0.13542,0.125 -0.30729,0.1875 -0.51562,0.1875zM472.00315,173.05466c-0.28125,0 -0.52083,-0.09896 -0.71875,-0.29687c-0.19792,-0.20833 -0.29687,-0.45312 -0.29687,-0.73437c0,-0.3125 0.10417,-0.55729 0.3125,-0.73437c0.20833,-0.17708 0.44792,-0.26562 0.71875,-0.26562c0.26042,0 0.48958,0.08854 0.6875,0.26563c0.20833,0.17708 0.3125,0.42188 0.3125,0.73438c0,0.28125 -0.09896,0.52604 -0.29687,0.73438c-0.19792,0.19792 -0.4375,0.29688 -0.71875,0.29688zM483.44169,185.19529c-0.15625,0 -0.28125,-0.02604 -0.375,-0.07812c-0.09375,-0.05208 -0.1875,-0.13542 -0.28125,-0.25l-3.23438,-4.10937l-0.5625,-0.48437l-3.23438,-4.125c-0.13542,-0.16667 -0.20312,-0.33333 -0.20312,-0.5c0.01042,-0.17708 0.06771,-0.32812 0.17188,-0.45312c0.11458,-0.13542 0.27604,-0.20312 0.48438,-0.20312c0.21875,0 0.40104,0.07292 0.54688,0.21875l3.14063,4.01563l0.5,0.40625l3.46875,4.4375c0.16667,0.19792 0.23438,0.38542 0.20313,0.5625c-0.02083,0.17708 -0.09896,0.31771 -0.23437,0.42188c-0.125,0.09375 -0.25521,0.14063 -0.39063,0.14063zM476.05106,185.19529c-0.19792,0 -0.35937,-0.0625 -0.48437,-0.1875c-0.11458,-0.125 -0.17708,-0.27083 -0.1875,-0.4375c0,-0.17708 0.06771,-0.34896 0.20313,-0.51562l3.4375,-4.28125l0.79688,1.0625l-3.26562,4.14063c-0.11458,0.14583 -0.28125,0.21875 -0.5,0.21875zM480.41044,180.35154l-0.90625,-0.9375l3.21875,-4.09375c0.09375,-0.125 0.19271,-0.20833 0.29688,-0.25c0.10417,-0.05208 0.21354,-0.07812 0.32813,-0.07812c0.20833,0 0.36458,0.06771 0.46875,0.20313c0.11458,0.125 0.16667,0.28125 0.15625,0.46875c0,0.17708 -0.0625,0.34375 -0.1875,0.5z" fill="#ffffff" fill-rule="nonzero" stroke="none" stroke-width="1" stroke-linecap="square"/></g></g></svg>