<svg version="1.1" xmlns="http://www.w3.org/2000/svg" xmlns:xlink="http://www.w3.org/1999/xlink" width="720" height="540" viewBox="0,0,720,540"><defs><linearGradient x1="238.49999" y1="154.55468" x2="238.49999" y2="205.44533" gradientUnits="userSpaceOnUse" id="color-1"><stop offset="0" stop-color="#fad000"/><stop offset="1" stop-color="#ffbc00"/></linearGradient><clipPath id="clip-1"><rect x="-240" y="-180" transform="scale(0.5,0.5)" width="1440" height="1080" fill="none" fill-rule="nonzero" stroke="none" stroke-width="0.5" stroke-linecap="butt"/></clipPath></defs><g transform="translate(120,90)"><g clip-path="url(#clip-1)" data-paper-data="{&quot;isPaintingLayer&quot;:true}" stroke-linejoin="miter" stroke-miterlimit="10" stroke-dasharray="" stroke-dashoffset="0" style="mix-blend-mode: normal"><path d="M444.92389,122.42519h114.45667v108.0315h-114.45667z" fill-opacity="0" fill="#000000" fill-rule="evenodd" stroke="none" stroke-width="1" stroke-linecap="square"/><path d="M219.41664,154.55468h38.38021c1.47917,0 2.56771,0.17708 3.26563,0.53125c0.69792,0.34375 1.16146,0.88542 1.39063,1.625c0.22917,0.73958 0.34375,1.71354 0.34375,2.92188c0,1.19792 -0.11458,2.15625 -0.34375,2.875c-0.22917,0.70833 -0.625,1.20313 -1.1875,1.48438c-0.83333,0.41667 -2.01042,0.625 -3.53125,0.625h-13.23437v34.85938c0,1.0625 -0.03646,1.84896 -0.10937,2.35938c-0.07292,0.51042 -0.28125,1.10417 -0.625,1.78125c-0.34375,0.66667 -0.95833,1.14063 -1.84375,1.42188c-0.875,0.27083 -2.03125,0.40625 -3.46875,0.40625c-1.42708,0 -2.56771,-0.13542 -3.42187,-0.40625c-0.85417,-0.28125 -1.45833,-0.75521 -1.8125,-1.42187c-0.34375,-0.67708 -0.55208,-1.28125 -0.625,-1.8125c-0.0625,-0.53125 -0.09375,-1.32812 -0.09375,-2.39062v-34.79687h-13.3125c-1.47917,0 -2.56771,-0.17187 -3.26562,-0.51562c-0.6875,-0.35417 -1.14583,-0.90104 -1.375,-1.64062c-0.22917,-0.73958 -0.34375,-1.70833 -0.34375,-2.90625c0,-1.20833 0.11458,-2.16667 0.34375,-2.875c0.22917,-0.71875 0.61979,-1.21875 1.17188,-1.5c0.83333,-0.41667 2.01042,-0.625 3.53125,-0.625z" fill="#f9ea00" fill-rule="nonzero" stroke="url(#color-1)" stroke-width="6.5" stroke-linecap="square"/><path d="M220.70893,156.71686c0.02525,0.70831 -0.99827,1.31974 -2.28612,1.36566c-1.28785,0.04592 -2.35232,-0.49106 -2.37757,-1.19939c-0.02525,-0.70831 0.99828,-1.31974 2.28613,-1.36566c1.28785,-0.04592 2.35232,0.49107 2.37757,1.19939z" fill="#ffffff" fill-rule="nonzero" stroke="none" stroke-width="0" stroke-linecap="butt"/></g></g></svg>