<svg version="1.1" xmlns="http://www.w3.org/2000/svg" xmlns:xlink="http://www.w3.org/1999/xlink" width="960" height="720" viewBox="0,0,960,720"><g transform="translate(240,180)"><g data-paper-data="{&quot;isPaintingLayer&quot;:true}" stroke-linejoin="miter" stroke-miterlimit="10" stroke-dasharray="" stroke-dashoffset="0" style="mix-blend-mode: normal"><path d="M-240,-180h960v720h-960z" fill-opacity="0" fill="#000000" fill-rule="evenodd" stroke="none" stroke-width="1" stroke-linecap="square"/><g><path d="M110.12216,90.10447h322.75133v108h-322.75133z" fill-opacity="0" fill="#000000" fill-rule="evenodd" stroke="none" stroke-width="1" stroke-linecap="square"/><path d="M240.8677,179.97071l-45.69567,-0.0081" data-paper-data="{&quot;index&quot;:null}" fill="#ffffff" fill-rule="nonzero" stroke="#ffffff" stroke-width="24" stroke-linecap="round"/><path d="M240.90513,179.9388l45.69567,0.0081" data-paper-data="{&quot;index&quot;:null}" fill="#adadad" fill-rule="nonzero" stroke="#686868" stroke-width="24" stroke-linecap="round"/><path d="M223.73417,191.86018v-23.75065h16.16089v23.75065z" fill="#ffffff" fill-rule="nonzero" stroke="#686868" stroke-width="0" stroke-linecap="butt"/></g><path d="M203.73124,184.04604c-0.44415,0 -0.86752,-0.06899 -1.2701,-0.20696c-0.40258,-0.13986 -0.75317,-0.33453 -1.0518,-0.58402c-0.29673,-0.24948 -0.51503,-0.53771 -0.65489,-0.86468c-0.06804,-0.14553 -0.06615,-0.28067 0.00567,-0.40541c0.07371,-0.12474 0.19751,-0.20412 0.37139,-0.23814c0.12474,-0.02835 0.24759,-0.00945 0.36855,0.0567c0.12096,0.06615 0.21263,0.16538 0.275,0.29768c0.08316,0.17199 0.22019,0.33075 0.41108,0.47629c0.19089,0.14553 0.42147,0.26366 0.69175,0.35438c0.27027,0.09072 0.55472,0.13608 0.85335,0.13608c0.33265,0 0.63883,-0.05198 0.91855,-0.15593c0.28161,-0.10395 0.50936,-0.25421 0.68324,-0.45077c0.17388,-0.19845 0.26082,-0.44321 0.26082,-0.73427c0,-0.36855 -0.14459,-0.69836 -0.43376,-0.98943c-0.28728,-0.29106 -0.76073,-0.47156 -1.42035,-0.54149c-0.85807,-0.08316 -1.53375,-0.33548 -2.02705,-0.75695c-0.49141,-0.42337 -0.73711,-0.94785 -0.73711,-1.57344c0,-0.45739 0.12758,-0.84484 0.38273,-1.16236c0.25704,-0.31941 0.60575,-0.56228 1.04613,-0.7286c0.44038,-0.16821 0.93084,-0.25232 1.47138,-0.25232c0.42337,0 0.79286,0.05954 1.1085,0.17861c0.31564,0.11718 0.59063,0.27972 0.825,0.48763c0.23625,0.2079 0.44132,0.45455 0.6152,0.73995c0.09639,0.15309 0.13608,0.29768 0.11907,0.43376c-0.01701,0.13419 -0.08411,0.23909 -0.20129,0.31469c-0.1323,0.08316 -0.275,0.10112 -0.42809,0.05387c-0.1512,-0.04914 -0.26555,-0.13986 -0.34304,-0.27216c-0.10962,-0.20034 -0.24476,-0.3695 -0.40541,-0.50747c-0.15876,-0.13986 -0.34587,-0.24948 -0.56134,-0.32886c-0.21546,-0.08127 -0.46873,-0.12191 -0.75979,-0.12191c-0.5122,-0.00567 -0.94218,0.09072 -1.28994,0.28917c-0.34587,0.19656 -0.51881,0.49897 -0.51881,0.90721c0,0.2079 0.05387,0.4073 0.1616,0.59819c0.10773,0.19089 0.30524,0.35627 0.59252,0.49613c0.28728,0.13797 0.7012,0.23436 1.24175,0.28917c0.82594,0.08316 1.46949,0.33453 1.93066,0.75412c0.46116,0.41959 0.69175,0.97242 0.69175,1.6585c0,0.3969 -0.08222,0.74089 -0.24665,1.03195c-0.16254,0.29106 -0.38084,0.53582 -0.65489,0.73428c-0.27216,0.19656 -0.58402,0.34399 -0.93556,0.44227c-0.34966,0.09639 -0.71159,0.14459 -1.08582,0.14459zM208.84926,183.94114c-0.15309,0 -0.28161,-0.05198 -0.38556,-0.15593c-0.10395,-0.10395 -0.15593,-0.23247 -0.15593,-0.38556v-7.04223c0,-0.15876 0.05198,-0.28823 0.15593,-0.3884c0.10395,-0.10017 0.23247,-0.15026 0.38556,-0.15026h2.07808c0.52165,0 0.98281,0.11435 1.3835,0.34304c0.40258,0.22869 0.71632,0.54622 0.94123,0.95257c0.2268,0.40446 0.3402,0.87036 0.3402,1.39767c0,0.50653 -0.1134,0.9573 -0.3402,1.35231c-0.22491,0.39502 -0.53866,0.70403 -0.94123,0.92706c-0.40069,0.22113 -0.86185,0.3317 -1.3835,0.3317h-1.53942v2.27653c0,0.15309 -0.05009,0.28161 -0.15026,0.38556c-0.10017,0.10395 -0.22964,0.15593 -0.3884,0.15593zM209.38792,180.12235h1.53943c0.31941,0 0.60008,-0.06899 0.84201,-0.20696c0.24381,-0.13797 0.43471,-0.32792 0.57268,-0.56984c0.13986,-0.24381 0.20979,-0.52165 0.20979,-0.8335c0,-0.33265 -0.06993,-0.6256 -0.20979,-0.87886c-0.13797,-0.25326 -0.32886,-0.45266 -0.57268,-0.59819c-0.24192,-0.14553 -0.52259,-0.2183 -0.842,-0.2183h-1.53942zM215.32956,183.94114c-0.15309,0 -0.28161,-0.05198 -0.38556,-0.15593c-0.10395,-0.10395 -0.15593,-0.23247 -0.15593,-0.38556v-7.04223c0,-0.15876 0.05198,-0.28823 0.15593,-0.3884c0.10395,-0.10017 0.23247,-0.15026 0.38556,-0.15026c0.15876,0 0.28823,0.05009 0.3884,0.15026c0.10017,0.10017 0.15026,0.22964 0.15026,0.3884v7.04223c0,0.15309 -0.05009,0.28161 -0.15026,0.38556c-0.10017,0.10395 -0.22964,0.15593 -0.3884,0.15593zM218.48035,183.94114c-0.15309,0 -0.27972,-0.05198 -0.37989,-0.15593c-0.10017,-0.10395 -0.15026,-0.23247 -0.15026,-0.38556v-7.04223c0,-0.15876 0.05009,-0.28823 0.15026,-0.3884c0.10017,-0.10017 0.2268,-0.15026 0.37989,-0.15026c0.16632,0 0.30524,0.06521 0.41675,0.19562l4.53322,6.03296v-5.68991c0,-0.15876 0.05198,-0.28823 0.15593,-0.3884c0.10584,-0.10017 0.23436,-0.15026 0.38556,-0.15026c0.16065,0 0.28917,0.05009 0.38556,0.15026c0.09639,0.10017 0.14459,0.22964 0.14459,0.3884v7.04223c0,0.15309 -0.04819,0.28161 -0.14459,0.38556c-0.09639,0.10395 -0.22491,0.15593 -0.38556,0.15593c-0.06804,0 -0.1427,-0.01512 -0.22397,-0.04536c-0.07938,-0.03213 -0.14364,-0.07938 -0.19278,-0.14175l-4.53322,-6.03296v5.67858c0,0.15309 -0.05103,0.28161 -0.15309,0.38556c-0.10017,0.10395 -0.22964,0.15593 -0.3884,0.15593z" fill="#11a5f8" fill-rule="nonzero" stroke="none" stroke-width="1" stroke-linecap="square"/><path d="M256.00036,184.10008c-0.14553,0 -0.27216,-0.05198 -0.37989,-0.15593c-0.10773,-0.10395 -0.1616,-0.23247 -0.1616,-0.38556v-7.04223c0,-0.1512 0.05387,-0.27878 0.1616,-0.38273c0.10773,-0.10395 0.23436,-0.15593 0.37989,-0.15593c0.1512,0 0.27878,0.05198 0.38273,0.15593c0.10395,0.10395 0.15593,0.23153 0.15593,0.38273v3.12137l3.44457,-3.44173c0.08316,-0.08316 0.15876,-0.13986 0.2268,-0.1701c0.06993,-0.03213 0.14364,-0.04819 0.22113,-0.04819c0.17199,0 0.29579,0.05198 0.37139,0.15593c0.07749,0.10395 0.10584,0.2268 0.08505,0.36855c-0.02079,0.14175 -0.08694,0.27122 -0.19845,0.3884l-2.65076,2.66493l2.70462,3.67988c0.08316,0.11907 0.11718,0.24665 0.10206,0.38273c-0.01323,0.13419 -0.06143,0.24854 -0.14459,0.34304c-0.08316,0.09261 -0.19373,0.13892 -0.3317,0.13892c-0.19467,0 -0.34399,-0.07655 -0.44794,-0.22964l-2.63091,-3.56647l-0.75128,0.74845v2.50617c0,0.15309 -0.05198,0.28161 -0.15593,0.38556c-0.10395,0.10395 -0.23153,0.15593 -0.38273,0.15593zM262.93833,184.10008c-0.15309,0 -0.28161,-0.05198 -0.38556,-0.15593c-0.10395,-0.10395 -0.15593,-0.23247 -0.15593,-0.38556v-7.04223c0,-0.15876 0.05198,-0.28823 0.15593,-0.3884c0.10395,-0.10017 0.23247,-0.15026 0.38556,-0.15026h4.70049c0.15876,0 0.28634,0.04725 0.38273,0.14175c0.09828,0.09261 0.14742,0.21452 0.14742,0.36572c0,0.14553 -0.04914,0.26366 -0.14742,0.35438c-0.09639,0.09072 -0.22397,0.13608 -0.38273,0.13608h-4.16184v2.52602h2.98529c0.16065,0 0.28917,0.04725 0.38556,0.14175c0.09828,0.09261 0.14742,0.21168 0.14742,0.35721c0,0.14553 -0.04914,0.26555 -0.14742,0.36005c-0.09639,0.0945 -0.22491,0.14175 -0.38556,0.14175h-2.98529v2.59973h4.16184c0.15876,0 0.28634,0.04536 0.38273,0.13608c0.09828,0.08883 0.14742,0.20601 0.14742,0.35154c0,0.15309 -0.04914,0.27689 -0.14742,0.37139c-0.09639,0.09261 -0.22397,0.13892 -0.38273,0.13892zM272.11054,184.10008c-0.14553,0 -0.27027,-0.05198 -0.37422,-0.15593c-0.10395,-0.10395 -0.15593,-0.23247 -0.15593,-0.38556v-2.42395l-2.7755,-4.31492c-0.09072,-0.14553 -0.12569,-0.28256 -0.1049,-0.41108c0.02079,-0.12852 0.08127,-0.23247 0.18144,-0.31185c0.10017,-0.07938 0.21641,-0.11907 0.34871,-0.11907c0.11907,0 0.21263,0.02646 0.28067,0.07938c0.06993,0.05103 0.13608,0.12474 0.19845,0.22113l2.64225,4.19302h-0.41675l2.68478,-4.23554c0.05481,-0.08316 0.12002,-0.14648 0.19562,-0.18995c0.07749,-0.04536 0.17105,-0.06804 0.28067,-0.06804c0.12474,0 0.22869,0.04347 0.31185,0.13041c0.08505,0.08505 0.13419,0.19184 0.14742,0.32036c0.01323,0.12852 -0.02173,0.25893 -0.1049,0.39123l-2.79818,4.31492v2.42396c0,0.15309 -0.05198,0.28161 -0.15593,0.38556c-0.10395,0.10395 -0.23247,0.15593 -0.38556,0.15593zM279.22714,184.20498c-0.44416,0 -0.86752,-0.06899 -1.2701,-0.20696c-0.40258,-0.13986 -0.75317,-0.33453 -1.0518,-0.58402c-0.29673,-0.24948 -0.51503,-0.53771 -0.65489,-0.86468c-0.06804,-0.14553 -0.06615,-0.28067 0.00567,-0.40541c0.07371,-0.12474 0.19751,-0.20412 0.37139,-0.23814c0.12474,-0.02835 0.24759,-0.00945 0.36855,0.0567c0.12096,0.06615 0.21263,0.16538 0.275,0.29768c0.08316,0.17199 0.22019,0.33075 0.41108,0.47629c0.19089,0.14553 0.42148,0.26366 0.69175,0.35438c0.27027,0.09072 0.55472,0.13608 0.85335,0.13608c0.33264,0 0.63883,-0.05198 0.91855,-0.15593c0.28161,-0.10395 0.50936,-0.25421 0.68324,-0.45077c0.17388,-0.19845 0.26082,-0.44321 0.26082,-0.73427c0,-0.36855 -0.14459,-0.69836 -0.43376,-0.98943c-0.28728,-0.29106 -0.76073,-0.47156 -1.42035,-0.54149c-0.85807,-0.08316 -1.53375,-0.33548 -2.02705,-0.75695c-0.49141,-0.42337 -0.73711,-0.94785 -0.73711,-1.57344c0,-0.45739 0.12758,-0.84484 0.38273,-1.16236c0.25704,-0.31941 0.60575,-0.56228 1.04613,-0.7286c0.44037,-0.16821 0.93084,-0.25232 1.47138,-0.25232c0.42336,0 0.79286,0.05954 1.1085,0.17861c0.31563,0.11718 0.59063,0.27972 0.825,0.48763c0.23625,0.2079 0.44132,0.45455 0.6152,0.73995c0.09639,0.15309 0.13608,0.29768 0.11907,0.43376c-0.01701,0.13419 -0.08411,0.23909 -0.20129,0.31469c-0.1323,0.08316 -0.275,0.10112 -0.42809,0.05387c-0.1512,-0.04914 -0.26555,-0.13986 -0.34304,-0.27216c-0.10962,-0.20034 -0.24476,-0.3695 -0.40541,-0.50747c-0.15876,-0.13986 -0.34587,-0.24948 -0.56134,-0.32886c-0.21546,-0.08127 -0.46873,-0.12191 -0.75979,-0.12191c-0.5122,-0.00567 -0.94218,0.09072 -1.28994,0.28917c-0.34587,0.19656 -0.51881,0.49897 -0.51881,0.90721c0,0.2079 0.05387,0.4073 0.1616,0.59819c0.10773,0.19089 0.30524,0.35627 0.59252,0.49613c0.28728,0.13797 0.7012,0.23436 1.24175,0.28917c0.82594,0.08316 1.46949,0.33453 1.93066,0.75412c0.46117,0.41959 0.69175,0.97242 0.69175,1.6585c0,0.3969 -0.08222,0.74089 -0.24665,1.03195c-0.16254,0.29106 -0.38084,0.53582 -0.65489,0.73428c-0.27216,0.19656 -0.58402,0.34399 -0.93556,0.44227c-0.34965,0.09639 -0.71159,0.14459 -1.08582,0.14459z" fill="#2f2f2f" fill-rule="nonzero" stroke="none" stroke-width="1" stroke-linecap="square"/></g></g></svg>