<svg version="1.1" viewBox="0.0 0.0 549.0498687664042 254.748031496063" fill="none" stroke="none" stroke-linecap="square" stroke-miterlimit="10" xmlns:xlink="http://www.w3.org/1999/xlink" xmlns="http://www.w3.org/2000/svg"><clipPath id="p.0"><path d="m0 0l549.04987 0l0 254.74803l-549.04987 0l0 -254.74803z" clip-rule="nonzero"/></clipPath><g clip-path="url(#p.0)"><path fill="#000000" fill-opacity="0.0" d="m0 0l549.04987 0l0 254.74803l-549.04987 0z" fill-rule="evenodd"/><path fill="#000000" fill-opacity="0.0" d="m406.81366 111.062996l0 0c25.98703 0 50.9097 10.323311 69.28531 28.698921c18.37561 18.37561 28.698944 43.298294 28.698944 69.285324l-97.98425 0z" fill-rule="evenodd"/><path fill="#000000" fill-opacity="0.0" d="m406.81366 111.062996l0 0c25.98703 0 50.9097 10.323311 69.28531 28.698921c18.37561 18.37561 28.698944 43.298294 28.698944 69.285324" fill-rule="evenodd"/><path stroke="#000000" stroke-width="12.0" stroke-linejoin="round" stroke-linecap="butt" d="m406.81366 111.062996l0 0c25.98703 0 50.9097 10.323311 69.28531 28.698921c18.37561 18.37561 28.698944 43.298294 28.698944 69.285324" fill-rule="evenodd"/></g></svg>