<svg version="1.1" xmlns="http://www.w3.org/2000/svg" xmlns:xlink="http://www.w3.org/1999/xlink" width="963.49713" height="904.77136" viewBox="0,0,963.49713,904.77136"><g transform="translate(270.27709,276.89019)"><g data-paper-data="{&quot;isPaintingLayer&quot;:true}" fill="#000000" fill-rule="nonzero" stroke="none" stroke-width="0" stroke-linecap="butt" stroke-linejoin="miter" stroke-miterlimit="10" stroke-dasharray="" stroke-dashoffset="0" style="mix-blend-mode: normal"><g><g><path d="M-250.45325,185.57111l-19.82384,-29.78486l574.13725,-432.67644l24.1999,28.32618z"/><path d="M-207.25657,243.16668l-19.82385,-29.78486l574.13725,-432.67644l24.1999,28.32619z"/><g><path d="M-168.15963,303.06187l-19.82385,-29.78487l574.13725,-432.67644l24.1999,28.32618z"/><path d="M-124.96295,360.65744l-19.82384,-29.78487l574.13726,-432.67644l24.1999,28.32619z"/></g></g><path d="M-75.78358,412.79483l-19.82384,-29.78486l574.13725,-432.67644l24.1999,28.32618z"/><path d="M-32.5869,470.3904l-19.82385,-29.78486l574.13725,-432.67644l24.1999,28.32619z"/><path d="M6.51004,530.28559l-19.82385,-29.78487l574.13725,-432.67644l24.1999,28.32618z"/><path d="M49.70672,587.88116l-19.82384,-29.78487l574.13726,-432.67644l24.1999,28.32619z"/><path d="M114.70672,627.88117l-19.82384,-29.78487l574.13726,-432.67644l24.1999,28.32619z"/></g></g></g></svg>