<svg version="1.1" xmlns="http://www.w3.org/2000/svg" xmlns:xlink="http://www.w3.org/1999/xlink" width="87.28044" height="37.69362" viewBox="0,0,87.28044,37.69362"><g transform="translate(-170.81715,-161.15135)"><g data-paper-data="{&quot;isPaintingLayer&quot;:true}" fill-rule="nonzero" stroke-linejoin="miter" stroke-miterlimit="10" stroke-dasharray="" stroke-dashoffset="0" style="mix-blend-mode: normal"><g><path d="M222.5104,163.12263l18.01447,1.52053l-1.1813,30.58971l-16.83317,1.43091z" fill="#000000" stroke="none" stroke-width="1.00258" stroke-linecap="round"/><path d="M233.40245,167.39588l24.59042,0.59004l0.10472,24.29528l-0.41861,1.18033l-0.83721,0.98357l-0.62779,0.39353l-1.15111,0.39353l-18.73066,0.09839l-1.04639,-0.19675l-0.83697,-0.39353l-0.62803,-0.98357l-0.41836,-1.18033z" fill="#000000" stroke="none" stroke-width="0.83402" stroke-linecap="butt"/><path d="M228.16683,167.05471l0.41836,-1.18033l0.62803,-0.98357l0.83697,-0.39353l1.04639,-0.19675l18.73066,0.09839l1.15111,0.39353l0.62779,0.39353l0.83721,0.98357l0.41861,1.18033l-0.10472,24.29528l-24.59042,0.59004z" fill="#000000" stroke="none" stroke-width="0.83402" stroke-linecap="butt"/><path d="M233.40245,167.05471l0.41836,-1.18033l0.62803,-0.98357l0.83697,-0.39353l1.04639,-0.19675l18.73066,0.09839l1.15111,0.39353l0.62779,0.39353l0.83721,0.98357l0.41861,1.18033l-0.10472,24.29528l-24.59042,0.59004z" fill="#000000" stroke="none" stroke-width="0.83402" stroke-linecap="butt"/><path d="M228.16683,167.39588l24.59042,0.59004l0.10472,24.29528l-0.41861,1.18033l-0.83721,0.98357l-0.62779,0.39353l-1.15111,0.39353l-18.73066,0.09839l-1.04639,-0.19675l-0.83697,-0.39353l-0.62803,-0.98357l-0.41836,-1.18033z" fill="#000000" stroke="none" stroke-width="0.83402" stroke-linecap="butt"/><path d="M230.96728,167.39588l24.59042,0.59004l0.10472,24.29528l-0.41861,1.18033l-0.83721,0.98357l-0.62779,0.39353l-1.15111,0.39353l-18.73066,0.09839l-1.04639,-0.19675l-0.83697,-0.39353l-0.62803,-0.98357l-0.41836,-1.18033z" fill="#ff0000" stroke="none" stroke-width="0.83402" stroke-linecap="butt"/><path d="M230.72377,167.29822l0.41836,-1.18033l0.62803,-0.98357l0.83697,-0.39353l1.04639,-0.19675l18.73066,0.09839l1.15111,0.39353l0.62779,0.39353l0.83721,0.98357l0.41861,1.18033l0.20918,22.72142h-24.79984z" fill="#cc0000" stroke="none" stroke-width="0.83402" stroke-linecap="butt"/><path d="M238.27306,168.2684l9.41755,0.09839l3.34862,2.45903l0.10447,18.39361l-2.92977,2.26228h-9.94088z" fill="#000000" stroke="none" stroke-width="0.83402" stroke-linecap="round"/><path d="M241.99449,170.24478c1.84806,0 3.52223,1.10167 4.73399,2.88204c1.21173,1.7823 1.96301,4.24136 1.96301,6.95414c0,2.71278 -0.75125,5.17182 -1.96301,6.95414c-1.21173,1.78036 -2.88594,2.88204 -4.73399,2.88204c-1.84806,0 -3.832,-1.31817 -4.73399,-2.88204c-1.22636,-2.13249 -0.87885,-4.8197 -0.81189,-7.24929c-0.06697,-2.23476 -0.37259,-4.71743 0.81189,-6.659c0.94169,-1.5444 2.88594,-2.88204 4.73399,-2.88204z" fill="#ff9999" stroke="none" stroke-width="0.83402" stroke-linecap="butt"/><path d="M244.1367,173.54665c0.64459,0 1.37904,1.24316 1.66371,2.01827c0.54012,1.46354 0.97748,3.01767 1.05686,4.5718c-0.07939,1.75088 -0.41861,3.51932 -1.05686,5.16209c-0.31804,0.81432 -1.13017,2.10302 -1.66371,2.11666c-0.50237,-0.01362 -0.39133,-1.40071 -0.40813,-2.11666c-0.03555,-1.63083 0.14661,-3.24585 0.09423,-4.86694c0.05235,-1.62304 -0.12979,-3.25388 -0.09423,-4.86694c0.0168,-0.68454 0.01876,-2.01827 0.40813,-2.01827z" fill="#ffcccc" stroke="none" stroke-width="0.83402" stroke-linecap="round"/><path d="M249.97457,177.89905c0.00925,0 0.01972,0.84719 0.02387,1.37514c0.0078,0.9972 0.01387,2.05626 0.0151,3.11507c-0.00122,1.19299 -0.00585,2.39792 -0.0151,3.51712c-0.00462,0.55474 -0.01607,1.43285 -0.02387,1.44212c-0.00707,-0.00925 -0.00535,-0.95433 -0.0056,-1.44212c-0.00073,-1.11117 0.00195,-2.21162 0.00122,-3.31623c0.00073,-1.10557 -0.00195,-2.21673 -0.00122,-3.31598c0.00025,-0.46633 0.00025,-1.37514 0.0056,-1.37514z" fill="#ffcccc" stroke="#ffffff" stroke-width="0.77859" stroke-linecap="round"/><path d="M170.81717,168.85699l56.57915,0.59004l0.24059,24.29528l-0.96311,1.18033l-1.92599,0.98357l-1.44455,0.39353l-2.64849,0.39353l-43.09631,0.09839l-2.40766,-0.19675l-1.92599,-0.39353l-1.44455,-0.98357l-0.96311,-1.18033z" fill="#ff0000" stroke="none" stroke-width="1.51039" stroke-linecap="butt"/><path d="M170.81717,165.47185l0.96311,-1.18033l1.44455,-0.98357l1.92599,-0.39353l2.40766,-0.19675l43.09631,0.09839l2.64849,0.39353l1.44455,0.39353l1.92599,0.98357l0.96311,1.18033l-0.24059,24.29528l-56.57915,0.59004z" fill="#cc0000" stroke="none" stroke-width="1.51039" stroke-linecap="butt"/><path d="M176.25858,168.61102l0.77463,-0.94947l1.16207,-0.7912l1.54927,-0.31657l1.93693,-0.15829l34.66791,0.07914l2.13053,0.31657l1.16207,0.31632l1.54927,0.79143l0.77488,0.94947l-0.19384,19.54375l-45.51372,0.47486z" fill="#ff9999" stroke="none" stroke-width="1.21501" stroke-linecap="butt"/><path d="M176.13682,170.03342l45.51372,0.47486l0.19384,19.54375l-0.77488,0.94947l-1.54927,0.79143l-1.16207,0.31632l-2.13053,0.31657l-34.66791,0.07914l-1.93693,-0.15829l-1.54927,-0.31657l-1.16207,-0.7912l-0.77463,-0.94947z" fill="#ff9999" stroke="none" stroke-width="1.21501" stroke-linecap="butt"/><path d="M219.98001,168.72695h1.67418v21.24596h-1.67418z" fill="#ffcccc" stroke="none" stroke-width="0.83402" stroke-linecap="butt"/><path d="M217.3639,170.79245h1.67418v19.18043h-1.67418z" fill="#ffcccc" stroke="none" stroke-width="0.83402" stroke-linecap="butt"/><path d="M178.33311,191.06873h39.2402v1.3771h-39.2402z" fill="#ffcccc" stroke="none" stroke-width="0.83402" stroke-linecap="butt"/><path d="M184.92538,167.0116h1.465v23.90175h-1.465z" fill="#cc0000" stroke="none" stroke-width="0.81728" stroke-linecap="butt"/><path d="M180.11201,166.36628h35.8916v1.57361h-35.8916z" fill="#cc0000" stroke="none" stroke-width="0.83402" stroke-linecap="butt"/><path d="M187.84759,166.64828h1.465v24.09853h-1.465z" fill="#cc0000" stroke="none" stroke-width="0.82029" stroke-linecap="butt"/><path d="M208.66836,166.64828h1.465v24.09853h-1.465z" fill="#cc0000" stroke="none" stroke-width="0.82029" stroke-linecap="butt"/><path d="M205.6244,166.64828h1.465v24.09853h-1.465z" fill="#cc0000" stroke="none" stroke-width="0.82029" stroke-linecap="butt"/><path d="M183.56508,167.05471h7.32478v1.86876h-7.32478z" fill="#cc0000" stroke="none" stroke-width="0.83402" stroke-linecap="butt"/><path d="M204.56362,167.44823h7.42947v1.67199h-7.42947z" fill="#cc0000" stroke="none" stroke-width="0.83402" stroke-linecap="butt"/><path d="M239.44316,163.22125h11.19645l1.04639,2.16389h-13.28925z" fill="#000000" stroke="none" stroke-width="0.95695" stroke-linecap="round"/><path d="M237.90971,195.34173h13.28925l-1.04639,2.16389h-11.19645z" fill="#000000" stroke="none" stroke-width="0.95695" stroke-linecap="round"/><path d="M201.86909,196.55932h13.28925l-1.04639,2.16389h-11.19645z" fill="#000000" stroke="none" stroke-width="0.95695" stroke-linecap="round"/><path d="M179.9525,196.68108h13.28925l-1.04639,2.16389h-11.19645z" fill="#000000" stroke="none" stroke-width="0.95695" stroke-linecap="round"/><path d="M181.97297,161.15135h11.19645l1.04639,2.16389h-13.28925z" fill="#000000" stroke="none" stroke-width="0.95695" stroke-linecap="round"/><path d="M203.40253,161.51663h11.19645l1.04639,2.16389h-13.28925z" fill="#000000" stroke="none" stroke-width="0.95695" stroke-linecap="round"/><path d="M195.01116,166.62489h4.80388v2.40206h-4.80388z" fill="#ff9999" stroke="none" stroke-width="0.93939" stroke-linecap="butt"/></g></g></g></svg>