<svg version="1.1" xmlns="http://www.w3.org/2000/svg" xmlns:xlink="http://www.w3.org/1999/xlink" width="31.2195" height="42.56165" viewBox="0,0,31.2195,42.56165"><defs><linearGradient x1="240.06275" y1="166.2315" x2="240.06275" y2="197.4655" gradientUnits="userSpaceOnUse" id="color-1"><stop offset="0" stop-color="#000000"/><stop offset="1" stop-color="#000000" stop-opacity="0"/></linearGradient><linearGradient x1="240.06275" y1="166.2315" x2="240.06275" y2="197.4655" gradientUnits="userSpaceOnUse" id="color-2"><stop offset="0" stop-color="#000000"/><stop offset="1" stop-color="#000000" stop-opacity="0"/></linearGradient></defs><g transform="translate(-224.45275,-158.65385)"><g data-paper-data="{&quot;isPaintingLayer&quot;:true}" fill-rule="nonzero" stroke-linecap="butt" stroke-linejoin="miter" stroke-miterlimit="10" stroke-dasharray="" stroke-dashoffset="0" style="mix-blend-mode: normal"><path d="M249.89025,186.7005c0.615,0 1.105,0.151 1.469,0.453c0.375,0.291 0.563,0.755 0.563,1.39c0,0.511 -0.203,0.948 -0.61,1.313c-0.396,0.354 -0.869,0.531 -1.422,0.531h-2.406v5.031c0,0.563 -0.193,1.047 -0.578,1.453c-0.385,0.396 -0.859,0.594 -1.422,0.594c-0.531,0 -0.984,-0.198 -1.359,-0.594c-0.375,-0.406 -0.563,-0.89 -0.563,-1.453v-5.031h-13.312c-0.615,0 -1.11,-0.198 -1.485,-0.594c-0.375,-0.406 -0.562,-0.875 -0.562,-1.406c0,-0.458 0.135,-0.859 0.406,-1.203l15.313,-20.078c0.458,-0.584 1.021,-0.875 1.687,-0.875c0.563,0 1.016,0.198 1.36,0.594c0.343,0.395 0.515,0.89 0.515,1.484v18.391zM243.56225,186.7005v-13.235l-10.078,13.235z" fill="url(#color-1)" stroke="url(#color-2)" stroke-width="7.5"/><path d="M249.88975,183.0035c0.615,0 1.105,0.151 1.469,0.453c0.375,0.291 0.563,0.755 0.563,1.39c0,0.511 -0.203,0.948 -0.61,1.313c-0.396,0.354 -0.869,0.531 -1.422,0.531h-2.406v5.031c0,0.563 -0.193,1.047 -0.578,1.453c-0.385,0.396 -0.859,0.594 -1.422,0.594c-0.531,0 -0.984,-0.198 -1.359,-0.594c-0.375,-0.406 -0.563,-0.89 -0.563,-1.453v-5.031h-13.312c-0.615,0 -1.11,-0.198 -1.485,-0.594c-0.375,-0.406 -0.562,-0.875 -0.562,-1.406c0,-0.458 0.135,-0.859 0.406,-1.203l15.313,-20.078c0.458,-0.584 1.021,-0.875 1.687,-0.875c0.563,0 1.016,0.198 1.36,0.594c0.343,0.395 0.515,0.89 0.515,1.484v18.391zM243.56175,183.0035v-13.235l-10.078,13.235z" fill="#ca6c00" stroke="#ffffff" stroke-width="7.5"/><path d="M249.76475,183.0035c0.615,0 1.105,0.151 1.469,0.453c0.375,0.291 0.563,0.755 0.563,1.39c0,0.511 -0.203,0.948 -0.61,1.313c-0.396,0.354 -0.869,0.531 -1.422,0.531h-2.406v5.031c0,0.563 -0.193,1.047 -0.578,1.453c-0.385,0.396 -0.859,0.594 -1.422,0.594c-0.531,0 -0.984,-0.198 -1.359,-0.594c-0.375,-0.406 -0.563,-0.89 -0.563,-1.453v-5.031h-13.312c-0.615,0 -1.11,-0.198 -1.485,-0.594c-0.375,-0.406 -0.562,-0.875 -0.562,-1.406c0,-0.458 0.135,-0.859 0.406,-1.203l15.313,-20.078c0.458,-0.584 1.021,-0.875 1.687,-0.875c0.563,0 1.016,0.198 1.36,0.594c0.343,0.395 0.515,0.89 0.515,1.484v18.391zM243.43675,183.0035v-13.235l-10.078,13.235z" fill="#ca6c00" stroke="#ffffff" stroke-width="0"/></g></g></svg>