<svg version="1.1" xmlns="http://www.w3.org/2000/svg" xmlns:xlink="http://www.w3.org/1999/xlink" width="720" height="540" viewBox="0,0,720,540"><defs><linearGradient x1="232.25001" y1="154.62498" x2="232.25001" y2="205.37502" gradientUnits="userSpaceOnUse" id="color-1"><stop offset="0" stop-color="#fad000"/><stop offset="1" stop-color="#ffbc00"/></linearGradient><clipPath id="clip-1"><rect x="-240" y="-180" transform="scale(0.5,0.5)" width="1440" height="1080" fill="none" stroke="none" stroke-width="0.5" stroke-linecap="butt"/></clipPath></defs><g transform="translate(120,90)"><g clip-path="url(#clip-1)" data-paper-data="{&quot;isPaintingLayer&quot;:true}" fill-rule="nonzero" stroke-linejoin="miter" stroke-miterlimit="10" stroke-dasharray="" stroke-dashoffset="0" style="mix-blend-mode: normal"><path d="M243.09061,156.27185c0.44792,-0.8125 0.90938,-0.95417 1.78438,-1.225c0.875,-0.28125 1.96875,-0.42187 3.28125,-0.42187c1.32292,0 2.38542,0.11458 3.1875,0.34375c0.8125,0.22917 1.41667,0.51042 1.8125,0.84375c0.39583,0.32292 0.6875,0.80729 0.875,1.45313c0.27083,0.73958 0.40625,1.91667 0.40625,3.53125v38.48438c0,1.10417 -0.03646,1.91146 -0.10937,2.42188c-0.0625,0.51042 -0.28125,1.10938 -0.65625,1.79688c-0.64583,1.25 -2.44792,1.875 -5.40625,1.875c-1.80208,0 -3.05208,-0.13542 -3.75,-0.40625c-0.6875,-0.28125 -1.26042,-0.72396 -1.71875,-1.32812c-10.40625,-13.86458 -17.25,-22.92187 -20.53125,-27.17187v22.8125c0,1.10417 -0.03646,1.91146 -0.10937,2.42188c-0.0625,0.51042 -0.27604,1.10938 -0.64062,1.79688c-0.65625,1.25 -2.46354,1.875 -5.42187,1.875c-2.86458,0 -4.61979,-0.625 -5.26562,-1.875c-0.36458,-0.6875 -0.58333,-1.30729 -0.65625,-1.85937c-0.07292,-0.5625 -0.10937,-1.375 -0.10937,-2.4375v-38.6875c0,-1.75 0.21875,-3.03125 0.65625,-3.84375c0.44792,-0.8125 1.10938,-1.35417 1.98438,-1.625c0.875,-0.28125 2.00521,-0.42187 3.39063,-0.42187c1.39583,0 2.49479,0.13021 3.29688,0.39063c0.8125,0.25 1.38021,0.53646 1.70313,0.85938c0.1875,0.13542 0.71875,0.73438 1.59375,1.79688c9.75,13.27083 16.26563,22.03125 19.54688,26.28125v-22.4375c0,-1.75 0.21875,-4.03125 0.65625,-4.84375z" fill="#f9ea00" stroke="url(#color-1)" stroke-width="6.5" stroke-linecap="square"/><path d="M215.33248,157.24032c-0.08514,0.69517 -1.02961,1.24067 -2.10955,1.2184c-1.07994,-0.02227 -1.88638,-0.60387 -1.80125,-1.29904c0.08514,-0.69517 1.02961,-1.24067 2.10955,-1.2184c1.07994,0.02227 1.88638,0.60387 1.80125,1.29904z" fill="#ffffff" stroke="none" stroke-width="0" stroke-linecap="butt"/></g></g></svg>