<svg version="1.1" xmlns="http://www.w3.org/2000/svg" xmlns:xlink="http://www.w3.org/1999/xlink" width="960" height="720" viewBox="0,0,960,720"><g transform="translate(240,180)"><g data-paper-data="{&quot;isPaintingLayer&quot;:true}" stroke="none" stroke-width="1" stroke-linecap="square" stroke-linejoin="miter" stroke-miterlimit="10" stroke-dasharray="" stroke-dashoffset="0" style="mix-blend-mode: normal"><path d="M-240,-180h960v720h-960z" fill-opacity="0" fill="#000000" fill-rule="evenodd"/><path d="M164.83004,185.07811c-0.20834,0 -0.38541,-0.06771 -0.53125,-0.20312c-0.13541,-0.13542 -0.20312,-0.3125 -0.20312,-0.53125v-13.10937c0,-0.20833 0.06771,-0.38021 0.20313,-0.51562c0.14584,-0.14583 0.32291,-0.21875 0.53125,-0.21875c0.21875,0 0.40625,0.08854 0.5625,0.26563l8.92186,11.71875v-11.25c0,-0.20833 0.06771,-0.38021 0.20313,-0.51562c0.13541,-0.14583 0.30729,-0.21875 0.51563,-0.21875c0.19791,0 0.36979,0.07292 0.51563,0.21875c0.14584,0.13542 0.21875,0.30729 0.21875,0.51563v13.10938c0,0.21875 -0.07291,0.39583 -0.21875,0.53125c-0.14584,0.13542 -0.31771,0.20313 -0.51562,0.20313c-0.09375,0 -0.19271,-0.01562 -0.29687,-0.04687c-0.10416,-0.04167 -0.1875,-0.10937 -0.25,-0.20312l-8.92186,-11.70312v11.21875c0,0.21875 -0.07291,0.39583 -0.21875,0.53125c-0.14584,0.13542 -0.31771,0.20313 -0.51562,0.20313zM183.95581,185.17186c-1,0 -1.89062,-0.22396 -2.67187,-0.67187c-0.78125,-0.44792 -1.39584,-1.0625 -1.84375,-1.84375c-0.44791,-0.78125 -0.67187,-1.67187 -0.67187,-2.67187c0,-1.01042 0.22396,-1.90625 0.67188,-2.6875c0.44791,-0.78125 1.0625,-1.39583 1.84375,-1.84375c0.78125,-0.44792 1.67188,-0.67187 2.67188,-0.67187c0.98959,0 1.875,0.22396 2.65625,0.67188c0.78125,0.44792 1.39584,1.0625 1.84375,1.84375c0.44791,0.78125 0.67709,1.67708 0.6875,2.6875c0,1 -0.22916,1.89063 -0.6875,2.67188c-0.44791,0.78125 -1.0625,1.39583 -1.84375,1.84375c-0.78125,0.44792 -1.66666,0.67188 -2.65625,0.67188zM183.95581,183.85936c0.71875,0 1.36459,-0.16667 1.9375,-0.5c0.57291,-0.33333 1.02084,-0.79167 1.34375,-1.375c0.32291,-0.58333 0.48438,-1.25 0.48438,-2c0,-0.75 -0.16146,-1.41667 -0.48437,-2c-0.32291,-0.59375 -0.77084,-1.05729 -1.34375,-1.39062c-0.57291,-0.34375 -1.21875,-0.51562 -1.9375,-0.51562c-0.71875,0 -1.36459,0.17188 -1.9375,0.51563c-0.57291,0.33333 -1.02604,0.79688 -1.35937,1.39063c-0.33334,0.58333 -0.5,1.25 -0.5,2c0,0.75 0.16666,1.41667 0.5,2c0.33334,0.58333 0.78646,1.04167 1.35938,1.375c0.57291,0.33333 1.21875,0.5 1.9375,0.5zM195.92984,185.07811c-0.65625,0 -1.24479,-0.15625 -1.76562,-0.46875c-0.51041,-0.3125 -0.91666,-0.73958 -1.21875,-1.28125c-0.30209,-0.54167 -0.45312,-1.15625 -0.45312,-1.84375v-9.125c0,-0.21875 0.0625,-0.39583 0.1875,-0.53125c0.13541,-0.13542 0.3125,-0.20312 0.53125,-0.20312c0.20834,0 0.38021,0.06771 0.51563,0.20313c0.13541,0.13542 0.20313,0.3125 0.20313,0.53125v9.125c0,0.625 0.1875,1.14063 0.5625,1.54688c0.375,0.40625 0.85416,0.60938 1.4375,0.60938h0.5c0.19791,0 0.35938,0.06771 0.48438,0.20313c0.125,0.13542 0.1875,0.3125 0.1875,0.53125c0,0.20833 -0.07291,0.38021 -0.21875,0.51563c-0.14584,0.125 -0.33334,0.1875 -0.5625,0.1875zM191.2892,176.49998c-0.1875,0 -0.34375,-0.05729 -0.46875,-0.17187c-0.125,-0.125 -0.1875,-0.27604 -0.1875,-0.45312c0,-0.1875 0.0625,-0.33854 0.1875,-0.45312c0.125,-0.11458 0.28125,-0.17187 0.46875,-0.17187h4.75c0.1875,0 0.34375,0.05729 0.46875,0.17188c0.125,0.11458 0.1875,0.26563 0.1875,0.45313c0,0.17708 -0.0625,0.32813 -0.1875,0.45313c-0.125,0.11458 -0.28125,0.17188 -0.46875,0.17188zM208.89592,185.07811c-0.65625,0 -1.24479,-0.15625 -1.76562,-0.46875c-0.51041,-0.3125 -0.91666,-0.73958 -1.21875,-1.28125c-0.30209,-0.54167 -0.45312,-1.15625 -0.45312,-1.84375v-9.125c0,-0.21875 0.0625,-0.39583 0.1875,-0.53125c0.13541,-0.13542 0.3125,-0.20312 0.53125,-0.20312c0.20834,0 0.38021,0.06771 0.51563,0.20313c0.13541,0.13542 0.20313,0.3125 0.20313,0.53125v9.125c0,0.625 0.1875,1.14063 0.5625,1.54688c0.375,0.40625 0.85416,0.60938 1.4375,0.60938h0.5c0.19791,0 0.35938,0.06771 0.48438,0.20313c0.125,0.13542 0.1875,0.3125 0.1875,0.53125c0,0.20833 -0.07291,0.38021 -0.21875,0.51563c-0.14584,0.125 -0.33334,0.1875 -0.5625,0.1875zM204.2553,176.49998c-0.1875,0 -0.34375,-0.05729 -0.46875,-0.17187c-0.125,-0.125 -0.1875,-0.27604 -0.1875,-0.45312c0,-0.1875 0.0625,-0.33854 0.1875,-0.45312c0.125,-0.11458 0.28125,-0.17187 0.46875,-0.17187h4.75c0.1875,0 0.34375,0.05729 0.46875,0.17188c0.125,0.11458 0.1875,0.26563 0.1875,0.45313c0,0.17708 -0.0625,0.32813 -0.1875,0.45313c-0.125,0.11458 -0.28125,0.17188 -0.46875,0.17188zM217.05199,185.17186c-1,0 -1.89062,-0.22396 -2.67187,-0.67187c-0.78125,-0.44792 -1.39584,-1.0625 -1.84375,-1.84375c-0.44791,-0.78125 -0.67187,-1.67187 -0.67187,-2.67187c0,-1.01042 0.22396,-1.90625 0.67188,-2.6875c0.44791,-0.78125 1.0625,-1.39583 1.84375,-1.84375c0.78125,-0.44792 1.67188,-0.67187 2.67188,-0.67187c0.98959,0 1.875,0.22396 2.65625,0.67188c0.78125,0.44792 1.39583,1.0625 1.84375,1.84375c0.44792,0.78125 0.67708,1.67708 0.6875,2.6875c0,1 -0.22917,1.89063 -0.6875,2.67188c-0.44792,0.78125 -1.0625,1.39583 -1.84375,1.84375c-0.78125,0.44792 -1.66666,0.67188 -2.65625,0.67188zM217.05199,183.85936c0.71875,0 1.36459,-0.16667 1.9375,-0.5c0.57291,-0.33333 1.02084,-0.79167 1.34375,-1.375c0.32291,-0.58333 0.48438,-1.25 0.48438,-2c0,-0.75 -0.16146,-1.41667 -0.48437,-2c-0.32291,-0.59375 -0.77084,-1.05729 -1.34375,-1.39062c-0.57291,-0.34375 -1.21875,-0.51562 -1.9375,-0.51562c-0.71875,0 -1.36459,0.17188 -1.9375,0.51563c-0.57291,0.33333 -1.02604,0.79688 -1.35937,1.39063c-0.33334,0.58333 -0.5,1.25 -0.5,2c0,0.75 0.16666,1.41667 0.5,2c0.33334,0.58333 0.78646,1.04167 1.35938,1.375c0.57291,0.33333 1.21875,0.5 1.9375,0.5zM229.68228,185.17186c-1,0 -1.89062,-0.22396 -2.67187,-0.67187c-0.78125,-0.44792 -1.39583,-1.0625 -1.84375,-1.84375c-0.44792,-0.78125 -0.67187,-1.67187 -0.67187,-2.67187c0,-1.01042 0.22396,-1.90625 0.67188,-2.6875c0.44792,-0.78125 1.0625,-1.39583 1.84375,-1.84375c0.78125,-0.44792 1.67188,-0.67187 2.67188,-0.67187c0.98958,0 1.875,0.22396 2.65625,0.67188c0.78125,0.44792 1.39583,1.0625 1.84375,1.84375c0.44792,0.78125 0.67708,1.67708 0.6875,2.6875c0,1 -0.22917,1.89063 -0.6875,2.67188c-0.44792,0.78125 -1.0625,1.39583 -1.84375,1.84375c-0.78125,0.44792 -1.66667,0.67188 -2.65625,0.67188zM229.68228,183.85936c0.71875,0 1.36458,-0.16667 1.9375,-0.5c0.57292,-0.33333 1.02083,-0.79167 1.34375,-1.375c0.32292,-0.58333 0.48438,-1.25 0.48438,-2c0,-0.75 -0.16146,-1.41667 -0.48437,-2c-0.32292,-0.59375 -0.77083,-1.05729 -1.34375,-1.39062c-0.57292,-0.34375 -1.21875,-0.51562 -1.9375,-0.51562c-0.71875,0 -1.36458,0.17188 -1.9375,0.51563c-0.57292,0.33333 -1.02604,0.79688 -1.35937,1.39063c-0.33333,0.58333 -0.5,1.25 -0.5,2c0,0.75 0.16667,1.41667 0.5,2c0.33333,0.58333 0.78646,1.04167 1.35938,1.375c0.57292,0.33333 1.21875,0.5 1.9375,0.5zM246.7007,185.17186c-0.73958,0 -1.46875,-0.125 -2.1875,-0.375c-0.71875,-0.25 -1.30208,-0.625 -1.75,-1.125c-0.14583,-0.14583 -0.20833,-0.3125 -0.1875,-0.5c0.03125,-0.1875 0.13021,-0.34896 0.29688,-0.48437c0.16667,-0.125 0.34375,-0.17187 0.53125,-0.14062c0.1875,0.02083 0.34375,0.09896 0.46875,0.23438c0.30208,0.35417 0.69792,0.625 1.1875,0.8125c0.48958,0.17708 1.03646,0.26563 1.64063,0.26563c0.91667,0 1.57813,-0.15625 1.98438,-0.46875c0.41667,-0.32292 0.63021,-0.70312 0.64063,-1.14062c0,-0.44792 -0.21354,-0.81771 -0.64062,-1.10937c-0.41667,-0.30208 -1.10937,-0.53125 -2.07812,-0.6875c-1.26042,-0.19792 -2.18229,-0.54687 -2.76562,-1.04687c-0.58333,-0.5 -0.875,-1.08854 -0.875,-1.76562c0,-0.63542 0.16667,-1.16146 0.5,-1.57812c0.33333,-0.42708 0.78125,-0.74479 1.34375,-0.95312c0.5625,-0.21875 1.17708,-0.32812 1.84375,-0.32812c0.83333,0 1.55208,0.14583 2.15625,0.4375c0.60417,0.28125 1.09375,0.66146 1.46875,1.14063c0.125,0.16667 0.17188,0.33854 0.14063,0.51563c-0.02083,0.16667 -0.11979,0.30729 -0.29687,0.42188c-0.14583,0.08333 -0.31771,0.10938 -0.51562,0.07813c-0.1875,-0.03125 -0.34896,-0.11979 -0.48437,-0.26562c-0.3125,-0.35417 -0.67708,-0.61458 -1.09375,-0.78125c-0.40625,-0.17708 -0.875,-0.26562 -1.40625,-0.26562c-0.6875,0 -1.23958,0.14063 -1.65625,0.42188c-0.40625,0.28125 -0.60937,0.63542 -0.60937,1.0625c0,0.28125 0.07813,0.53125 0.23438,0.75c0.15625,0.20833 0.42188,0.39583 0.79688,0.5625c0.38542,0.15625 0.92188,0.28646 1.60938,0.39063c0.92708,0.15625 1.66146,0.38021 2.20313,0.67188c0.54167,0.29167 0.92708,0.63542 1.15625,1.03125c0.22917,0.38542 0.34375,0.80729 0.34375,1.26563c0,0.58333 -0.17187,1.09896 -0.51562,1.54688c-0.33333,0.4375 -0.80208,0.78125 -1.40625,1.03125c-0.60417,0.25 -1.29687,0.375 -2.07812,0.375zM261.92831,185.07811c-0.20834,0 -0.38021,-0.06771 -0.51562,-0.20312c-0.13541,-0.13542 -0.20312,-0.30208 -0.20312,-0.5v-4.85937c0,-0.77083 -0.14584,-1.40104 -0.4375,-1.89062c-0.29166,-0.5 -0.69271,-0.875 -1.20312,-1.125c-0.5,-0.25 -1.06771,-0.375 -1.70312,-0.375c-0.60416,0 -1.15625,0.11979 -1.65625,0.35938c-0.48959,0.22917 -0.88021,0.55208 -1.17187,0.96875c-0.28125,0.40625 -0.42187,0.86979 -0.42187,1.39063h-1.01562c0.02084,-0.78125 0.22916,-1.47917 0.625,-2.09375c0.40625,-0.61458 0.9375,-1.09896 1.59375,-1.45312c0.65625,-0.35417 1.39063,-0.53125 2.20313,-0.53125c0.875,0 1.66146,0.18229 2.35938,0.54688c0.69791,0.36458 1.25,0.90104 1.65625,1.60938c0.40625,0.70833 0.60938,1.57292 0.60938,2.59375v4.85938c0,0.19792 -0.06771,0.36458 -0.20312,0.5c-0.13541,0.13542 -0.30729,0.20313 -0.51562,0.20313zM253.91269,185.07811c-0.21875,0 -0.39584,-0.0625 -0.53125,-0.1875c-0.13541,-0.13542 -0.20312,-0.30729 -0.20312,-0.51562v-8.78125c0,-0.21875 0.06771,-0.39062 0.20313,-0.51562c0.13541,-0.13542 0.3125,-0.20312 0.53125,-0.20312c0.20834,0 0.375,0.06771 0.5,0.20313c0.13541,0.125 0.20313,0.29688 0.20313,0.51563v8.78125c0,0.20833 -0.06771,0.38021 -0.20312,0.51563c-0.125,0.125 -0.29166,0.1875 -0.5,0.1875zM253.91269,180.92186c-0.21875,0 -0.39584,-0.06771 -0.53125,-0.20312c-0.13541,-0.14583 -0.20312,-0.32292 -0.20312,-0.53125v-8.95312c0,-0.21875 0.06771,-0.39583 0.20313,-0.53125c0.13541,-0.13542 0.3125,-0.20312 0.53125,-0.20312c0.20834,0 0.375,0.06771 0.5,0.20313c0.13541,0.13542 0.20313,0.3125 0.20313,0.53125v8.95313c0,0.20833 -0.06771,0.38542 -0.20312,0.53125c-0.125,0.13542 -0.29166,0.20313 -0.5,0.20313zM270.30859,185.17186c-0.95833,0 -1.81771,-0.22396 -2.57812,-0.67187c-0.75,-0.45833 -1.34896,-1.07812 -1.79687,-1.85937c-0.4375,-0.79167 -0.65625,-1.67708 -0.65625,-2.65625c0,-0.98958 0.22396,-1.875 0.67188,-2.65625c0.45834,-0.79167 1.07813,-1.41146 1.85938,-1.85937c0.78125,-0.45833 1.66666,-0.6875 2.65625,-0.6875c0.97917,0 1.85417,0.22917 2.625,0.6875c0.78125,0.44792 1.40104,1.06771 1.85938,1.85938c0.45833,0.78125 0.69271,1.66667 0.70313,2.65625l-0.57812,0.45313c0,0.89583 -0.20833,1.70313 -0.625,2.42188c-0.41667,0.70833 -0.98437,1.27083 -1.70312,1.6875c-0.71875,0.41667 -1.53125,0.625 -2.4375,0.625zM270.46484,183.85936c0.71875,0 1.35938,-0.16667 1.92188,-0.5c0.57292,-0.33333 1.02084,-0.79687 1.34375,-1.39062c0.33333,-0.59375 0.5,-1.25521 0.5,-1.98437c0,-0.75 -0.16667,-1.41667 -0.5,-2c-0.32292,-0.58333 -0.77083,-1.04687 -1.34375,-1.39062c-0.5625,-0.34375 -1.20312,-0.51562 -1.92187,-0.51562c-0.70833,0 -1.34896,0.17188 -1.92187,0.51563c-0.57291,0.34375 -1.03125,0.80729 -1.375,1.39063c-0.33334,0.58333 -0.5,1.25 -0.5,2c0,0.72917 0.16666,1.39063 0.5,1.98438c0.34375,0.59375 0.80209,1.05729 1.375,1.39063c0.57292,0.33333 1.21354,0.5 1.92187,0.5zM274.91796,185.07811c-0.20833,0 -0.38021,-0.0625 -0.51562,-0.1875c-0.13542,-0.13542 -0.20312,-0.30729 -0.20312,-0.51562v-3.20312l0.34375,-1.46875l1.10938,0.28125v4.39063c0,0.20833 -0.07292,0.38021 -0.21875,0.51563c-0.13542,0.125 -0.30729,0.1875 -0.51562,0.1875zM283.61074,185.17186c-0.96875,0 -1.84375,-0.22396 -2.625,-0.67187c-0.77083,-0.44792 -1.38541,-1.05729 -1.84375,-1.82812c-0.44792,-0.78125 -0.68229,-1.65625 -0.70312,-2.625v-8.8125c0,-0.21875 0.06771,-0.39583 0.20313,-0.53125c0.13542,-0.13542 0.3125,-0.20312 0.53125,-0.20312c0.20833,0 0.375,0.06771 0.5,0.20313c0.13542,0.13542 0.20313,0.3125 0.20313,0.53125v5.48438c0.41667,-0.58333 0.96354,-1.05208 1.64063,-1.40625c0.67709,-0.35417 1.43229,-0.53125 2.26563,-0.53125c0.95834,0 1.81771,0.22917 2.57813,0.6875c0.76042,0.44792 1.35938,1.06771 1.79688,1.85938c0.4375,0.78125 0.65625,1.66146 0.65625,2.64063c0,0.98958 -0.22917,1.88021 -0.6875,2.67188c-0.44792,0.78125 -1.0625,1.40104 -1.84375,1.85938c-0.78125,0.44792 -1.67187,0.67188 -2.67187,0.67188zM283.61074,183.85936c0.71875,0 1.36459,-0.16667 1.9375,-0.5c0.57292,-0.34375 1.02604,-0.80729 1.35938,-1.39062c0.33333,-0.59375 0.5,-1.26042 0.5,-2c0,-0.73958 -0.16667,-1.40104 -0.5,-1.98437c-0.33333,-0.59375 -0.78646,-1.05729 -1.35937,-1.39062c-0.57291,-0.34375 -1.21875,-0.51562 -1.9375,-0.51562c-0.70833,0 -1.34896,0.17188 -1.92187,0.51563c-0.57292,0.33333 -1.02083,0.79688 -1.34375,1.39063c-0.32292,0.58333 -0.48437,1.24479 -0.48437,1.98438c0,0.73958 0.16146,1.40625 0.48438,2c0.32292,0.58333 0.77084,1.04688 1.34375,1.39063c0.57292,0.33333 1.21354,0.5 1.92188,0.5zM296.80071,185.17186c-0.96875,0 -1.84375,-0.22396 -2.625,-0.67187c-0.77083,-0.44792 -1.38542,-1.05729 -1.84375,-1.82812c-0.44792,-0.78125 -0.68229,-1.65625 -0.70312,-2.625v-8.8125c0,-0.21875 0.06771,-0.39583 0.20313,-0.53125c0.13542,-0.13542 0.3125,-0.20312 0.53125,-0.20312c0.20833,0 0.375,0.06771 0.5,0.20313c0.13541,0.13542 0.20313,0.3125 0.20313,0.53125v5.48438c0.41667,-0.58333 0.96354,-1.05208 1.64063,-1.40625c0.67709,-0.35417 1.43229,-0.53125 2.26563,-0.53125c0.95834,0 1.81771,0.22917 2.57813,0.6875c0.76042,0.44792 1.35937,1.06771 1.79687,1.85938c0.4375,0.78125 0.65625,1.66146 0.65625,2.64063c0,0.98958 -0.22916,1.88021 -0.6875,2.67188c-0.44792,0.78125 -1.0625,1.40104 -1.84375,1.85938c-0.78125,0.44792 -1.67187,0.67188 -2.67187,0.67188zM296.80071,183.85936c0.71875,0 1.36459,-0.16667 1.9375,-0.5c0.57292,-0.34375 1.02604,-0.80729 1.35938,-1.39062c0.33333,-0.59375 0.5,-1.26042 0.5,-2c0,-0.73958 -0.16667,-1.40104 -0.5,-1.98437c-0.33333,-0.59375 -0.78646,-1.05729 -1.35937,-1.39062c-0.57292,-0.34375 -1.21875,-0.51562 -1.9375,-0.51562c-0.70833,0 -1.34896,0.17188 -1.92187,0.51563c-0.57292,0.33333 -1.02083,0.79688 -1.34375,1.39063c-0.32292,0.58333 -0.48437,1.24479 -0.48437,1.98438c0,0.73958 0.16146,1.40625 0.48438,2c0.32292,0.58333 0.77084,1.04688 1.34375,1.39063c0.57292,0.33333 1.21354,0.5 1.92188,0.5zM306.02444,189.51561c-0.10416,0 -0.21875,-0.02604 -0.34375,-0.07812c-0.41666,-0.1875 -0.53125,-0.48437 -0.34375,-0.89062l6.01563,-13.28125c0.1875,-0.39583 0.48438,-0.51042 0.89063,-0.34375c0.42709,0.17708 0.54688,0.47396 0.35938,0.89063l-6.04687,13.28125c-0.125,0.28125 -0.30209,0.42188 -0.53125,0.42188zM308.08694,184.76561c-0.1875,0.08333 -0.36459,0.09896 -0.53125,0.04688c-0.15625,-0.0625 -0.28125,-0.1875 -0.375,-0.375l-4.17187,-8.60937c-0.08334,-0.1875 -0.09375,-0.35937 -0.03125,-0.51562c0.0625,-0.16667 0.1875,-0.29687 0.375,-0.39062c0.1875,-0.08333 0.35938,-0.09375 0.51563,-0.03125c0.16666,0.05208 0.29166,0.17188 0.375,0.35938l4.09375,8.60938c0.09375,0.1875 0.11979,0.36458 0.07813,0.53125c-0.03125,0.15625 -0.14062,0.28125 -0.32812,0.375zM314.82619,181.78124c-0.19791,0 -0.36979,-0.07292 -0.51562,-0.21875c-0.14584,-0.14583 -0.21875,-0.31771 -0.21875,-0.51562v-9.8125c0,-0.20833 0.07291,-0.38542 0.21875,-0.53125c0.14584,-0.14583 0.31771,-0.21875 0.51563,-0.21875c0.20834,0 0.38021,0.07292 0.51563,0.21875c0.14584,0.14583 0.21875,0.32292 0.21875,0.53125v9.8125c0,0.19792 -0.07812,0.36979 -0.23437,0.51563c-0.14584,0.14583 -0.3125,0.21875 -0.5,0.21875zM314.82619,185.07811c-0.30209,0 -0.55729,-0.10417 -0.76562,-0.3125c-0.20834,-0.21875 -0.3125,-0.47396 -0.3125,-0.76562c0,-0.3125 0.10416,-0.57292 0.3125,-0.78125c0.20834,-0.21875 0.46354,-0.32812 0.76563,-0.32812c0.30209,0 0.55729,0.10938 0.76563,0.32813c0.20834,0.21875 0.3125,0.47917 0.3125,0.78125c0,0.29167 -0.10416,0.54688 -0.3125,0.76563c-0.20834,0.20833 -0.46354,0.3125 -0.76562,0.3125z" fill="#000000" fill-rule="nonzero"/></g></g></svg>