<svg version="1.1" xmlns="http://www.w3.org/2000/svg" xmlns:xlink="http://www.w3.org/1999/xlink" width="22.99906" height="26.7481" viewBox="0,0,22.99906,26.7481"><g transform="translate(-228.65329,-172.19685)"><g data-paper-data="{&quot;isPaintingLayer&quot;:true}" fill-rule="nonzero" stroke-width="0" stroke-linecap="butt" stroke-linejoin="miter" stroke-miterlimit="10" stroke-dasharray="" stroke-dashoffset="0" style="mix-blend-mode: normal"><g fill="#ffffff"><path d="M235.42602,178.5084h8.8892l-4.23295,12.47633z" stroke="none"/><path d="M228.65329,178.5084l3.95076,-6.31155l3.66856,6.31155z" stroke="#000000"/><path d="M240.22337,172.34363l-3.95076,6.31155l-3.66856,-6.31155z" data-paper-data="{&quot;index&quot;:null}" stroke="#000000"/><path d="M236.41371,178.5084l3.66856,-6.31155l3.95076,6.31155z" data-paper-data="{&quot;index&quot;:null}" stroke="#000000"/><path d="M247.84269,172.49041l-3.95076,6.31155l-3.66856,-6.31155z" data-paper-data="{&quot;index&quot;:null}" stroke="#000000"/><path d="M244.03303,178.65518l3.66856,-6.31155l3.95076,6.31155z" data-paper-data="{&quot;index&quot;:null}" stroke="#000000"/><path d="M228.79439,178.36162h7.47822l3.66856,13.06345z" stroke="none"/><path d="M239.94117,191.57185l4.09186,-13.06345h7.47822z" data-paper-data="{&quot;index&quot;:null}" stroke="none"/></g><path d="M240.31658,193.99582l9.443,2.52207l-9.44477,2.42706l-9.70789,-2.36488z" fill="#454445" stroke="none"/><g><path d="M235.90235,178.69685h7.875l-3.75,10.625z" fill="#ffc840" stroke="none"/><path d="M229.90235,178.69685l3.5,-5.375l3.25,5.375z" fill="#ffc840" stroke="#000000"/><path d="M240.15235,173.44685l-3.5,5.375l-3.25,-5.375z" data-paper-data="{&quot;index&quot;:null}" fill="#fffe68" stroke="#000000"/><path d="M236.77735,178.69685l3.25,-5.375l3.5,5.375z" data-paper-data="{&quot;index&quot;:null}" fill="#ff9240" stroke="#000000"/><path d="M246.90235,173.57185l-3.5,5.375l-3.25,-5.375z" data-paper-data="{&quot;index&quot;:null}" fill="#ffee40" stroke="#000000"/><path d="M243.52735,178.82185l3.25,-5.375l3.5,5.375z" data-paper-data="{&quot;index&quot;:null}" fill="#ffc940" stroke="#000000"/><path d="M230.02735,178.57185h6.625l3.25,11.125z" fill="#fffe68" stroke="none"/><path d="M239.90235,189.82185l3.625,-11.125h6.625z" data-paper-data="{&quot;index&quot;:null}" fill="#ff9240" stroke="none"/></g><path d="M249.14376,180.64311l-6.60986,-7.77216l4.40303,0.33698l4.04651,5.26746z" fill="#ffffff" stroke="none"/></g></g></svg>