<svg version="1.1" xmlns="http://www.w3.org/2000/svg" xmlns:xlink="http://www.w3.org/1999/xlink" width="960" height="720" viewBox="0,0,960,720"><g transform="translate(240,180)"><g data-paper-data="{&quot;isPaintingLayer&quot;:true}" stroke="none" stroke-width="1" stroke-linecap="square" stroke-linejoin="miter" stroke-miterlimit="10" stroke-dasharray="" stroke-dashoffset="0" style="mix-blend-mode: normal"><path d="M-240,-180h960v720h-960z" fill-opacity="0" fill="#000000" fill-rule="evenodd"/><path d="M-104.49344,-51.23622h141.5748v46.51969h-141.5748z" fill-opacity="0" fill="#000000" fill-rule="evenodd"/><path d="M189.01802,185.10935c-0.20834,0 -0.38541,-0.06771 -0.53125,-0.20312c-0.13541,-0.13541 -0.20312,-0.3125 -0.20312,-0.53125v-13.10937c0,-0.20833 0.06771,-0.38021 0.20313,-0.51562c0.14584,-0.14583 0.32291,-0.21875 0.53125,-0.21875c0.20834,0 0.38021,0.07292 0.51563,0.21875c0.14584,0.13542 0.21875,0.30729 0.21875,0.51563v13.10938c0,0.21875 -0.07291,0.39584 -0.21875,0.53125c-0.13541,0.13541 -0.30729,0.20313 -0.51562,0.20313zM207.07945,185.10935c-0.20834,0 -0.38541,-0.0625 -0.53125,-0.1875c-0.13541,-0.13541 -0.20312,-0.30729 -0.20312,-0.51562v-5.375c0,-0.88541 -0.22916,-1.58334 -0.6875,-2.09375c-0.45834,-0.52083 -1.04687,-0.78125 -1.76562,-0.78125c-0.77084,0 -1.40625,0.26042 -1.90625,0.78125c-0.48959,0.51041 -0.72916,1.19271 -0.71875,2.04688h-1.28125c0.01041,-0.83334 0.1875,-1.5625 0.53125,-2.1875c0.35416,-0.63542 0.83334,-1.125 1.4375,-1.46875c0.61459,-0.35417 1.30729,-0.53125 2.07813,-0.53125c0.73959,0 1.39063,0.17708 1.95313,0.53125c0.5625,0.34375 1,0.83333 1.3125,1.46875c0.32291,0.625 0.48438,1.36979 0.48438,2.23438v5.375c0,0.20834 -0.06771,0.38021 -0.20312,0.51563c-0.125,0.125 -0.29166,0.1875 -0.5,0.1875zM194.01695,185.10935c-0.21875,0 -0.39584,-0.0625 -0.53125,-0.1875c-0.13541,-0.13541 -0.20312,-0.30729 -0.20312,-0.51562v-8.78125c0,-0.20833 0.06771,-0.38021 0.20313,-0.51562c0.13541,-0.13542 0.3125,-0.20312 0.53125,-0.20312c0.20834,0 0.375,0.06771 0.5,0.20313c0.13541,0.13542 0.20313,0.30729 0.20313,0.51563v8.78125c0,0.20834 -0.06771,0.38021 -0.20312,0.51563c-0.125,0.125 -0.29166,0.1875 -0.5,0.1875zM200.56381,185.10935c-0.20834,0 -0.38021,-0.0625 -0.51562,-0.1875c-0.13541,-0.13541 -0.20312,-0.30729 -0.20312,-0.51562v-5.375c0,-0.88541 -0.23437,-1.58334 -0.70312,-2.09375c-0.45834,-0.52083 -1.04687,-0.78125 -1.76562,-0.78125c-0.77084,0 -1.40625,0.25521 -1.90625,0.76563c-0.5,0.5 -0.75,1.15104 -0.75,1.95313h-1.01562c0.02084,-0.79166 0.19271,-1.49479 0.51563,-2.10937c0.33334,-0.61458 0.78646,-1.09375 1.35938,-1.4375c0.57291,-0.35417 1.21875,-0.53125 1.9375,-0.53125c0.73959,0 1.39063,0.17708 1.95313,0.53125c0.57291,0.34375 1.01563,0.83333 1.32813,1.46875c0.3125,0.625 0.46875,1.36979 0.46875,2.23438v5.375c0,0.20834 -0.06771,0.38021 -0.20312,0.51563c-0.125,0.125 -0.29166,0.1875 -0.5,0.1875zM211.68442,189.46871c-0.21875,0 -0.39584,-0.06771 -0.53125,-0.20312c-0.13541,-0.125 -0.20312,-0.29687 -0.20312,-0.51562v-8.8125c0.02084,-0.96875 0.25521,-1.83854 0.70313,-2.60937c0.45834,-0.78125 1.07291,-1.39583 1.84375,-1.84375c0.78125,-0.44792 1.65625,-0.67187 2.625,-0.67187c1,0 1.89063,0.22917 2.67188,0.6875c0.78125,0.44792 1.39583,1.06771 1.84375,1.85938c0.45833,0.78125 0.6875,1.66666 0.6875,2.65625c0,0.97916 -0.21875,1.86459 -0.65625,2.65625c-0.4375,0.78125 -1.03646,1.40104 -1.79687,1.85938c-0.76042,0.44791 -1.61979,0.67188 -2.57812,0.67188c-0.83334,0 -1.58854,-0.17709 -2.26562,-0.53125c-0.67709,-0.35416 -1.22396,-0.82291 -1.64062,-1.40625v5.48438c0,0.21875 -0.06771,0.39063 -0.20312,0.51563c-0.125,0.13541 -0.29166,0.20313 -0.5,0.20313zM216.12192,183.8906c0.71875,0 1.36459,-0.16666 1.9375,-0.5c0.57292,-0.33334 1.02604,-0.79687 1.35938,-1.39062c0.33333,-0.59375 0.5,-1.25521 0.5,-1.98437c0,-0.75 -0.16667,-1.41666 -0.5,-2c-0.33333,-0.58334 -0.78646,-1.04687 -1.35937,-1.39062c-0.57291,-0.34375 -1.21875,-0.51562 -1.9375,-0.51562c-0.70834,0 -1.34896,0.17188 -1.92187,0.51563c-0.57291,0.34375 -1.02084,0.80729 -1.34375,1.39063c-0.32291,0.58334 -0.48437,1.25 -0.48437,2c0,0.72916 0.16146,1.39063 0.48438,1.98438c0.32291,0.59375 0.77084,1.05729 1.34375,1.39063c0.57291,0.33334 1.21354,0.5 1.92188,0.5zM224.74939,178.8281c0.03125,-0.77084 0.22917,-1.45833 0.59375,-2.0625c0.375,-0.61458 0.85417,-1.09375 1.4375,-1.4375c0.59375,-0.35417 1.25,-0.53125 1.96875,-0.53125c0.57292,0 1.01563,0.08333 1.32813,0.25c0.3125,0.15625 0.43229,0.39063 0.35938,0.70313c-0.05208,0.1875 -0.14062,0.3125 -0.26562,0.375c-0.11458,0.05208 -0.25521,0.07292 -0.42187,0.0625c-0.16667,-0.01042 -0.35417,-0.02083 -0.5625,-0.03125c-0.69792,-0.0625 -1.31771,0.01042 -1.85937,0.21875c-0.54167,0.19792 -0.97396,0.51042 -1.29687,0.9375c-0.3125,0.42709 -0.46875,0.93229 -0.46875,1.51563zM224.85877,185.10935c-0.22917,0 -0.40625,-0.0625 -0.53125,-0.1875c-0.125,-0.125 -0.1875,-0.29687 -0.1875,-0.51562v-8.79687c0,-0.21875 0.0625,-0.39062 0.1875,-0.51562c0.125,-0.125 0.30208,-0.1875 0.53125,-0.1875c0.21875,0 0.39063,0.0625 0.51563,0.1875c0.125,0.125 0.1875,0.29688 0.1875,0.51563v8.79688c0,0.21875 -0.0625,0.39063 -0.1875,0.51563c-0.125,0.125 -0.29687,0.1875 -0.51562,0.1875zM236.57854,185.2031c-1.01042,0 -1.90625,-0.21875 -2.6875,-0.65625c-0.77083,-0.44791 -1.38021,-1.0625 -1.82812,-1.84375c-0.4375,-0.78125 -0.65625,-1.67708 -0.65625,-2.6875c0,-1.02083 0.20833,-1.91666 0.625,-2.6875c0.41667,-0.78125 0.98958,-1.39583 1.71875,-1.84375c0.73958,-0.44792 1.58854,-0.67187 2.54688,-0.67187c0.9375,0 1.75521,0.21354 2.45313,0.64063c0.70833,0.42708 1.25521,1.02083 1.64063,1.78125c0.38542,0.76041 0.57813,1.625 0.57813,2.59375c0,0.19791 -0.0625,0.35938 -0.1875,0.48438c-0.125,0.11459 -0.28646,0.17188 -0.48437,0.17188h-7.92187v-1.20312h8.07813l-0.79687,0.57813c0.01042,-0.71875 -0.125,-1.36459 -0.40625,-1.9375c-0.27083,-0.57292 -0.65625,-1.02083 -1.15625,-1.34375c-0.5,-0.32292 -1.09896,-0.48437 -1.79687,-0.48437c-0.70833,0 -1.33333,0.17188 -1.875,0.51563c-0.53125,0.33333 -0.94271,0.79688 -1.23437,1.39063c-0.29167,0.58334 -0.4375,1.25521 -0.4375,2.01563c0,0.76041 0.16146,1.43229 0.48438,2.01563c0.33333,0.58334 0.78646,1.04688 1.35938,1.39063c0.57292,0.33334 1.23438,0.5 1.98438,0.5c0.44792,0 0.89583,-0.07812 1.34375,-0.23437c0.45833,-0.15625 0.82292,-0.35416 1.09375,-0.59375c0.13542,-0.11459 0.29167,-0.17187 0.46875,-0.17187c0.17708,-0.01041 0.32292,0.03646 0.4375,0.14063c0.16667,0.14584 0.25,0.30729 0.25,0.48438c0.01042,0.16666 -0.05729,0.3125 -0.20312,0.4375c-0.41667,0.35416 -0.94271,0.64584 -1.57812,0.875c-0.625,0.22916 -1.22917,0.34375 -1.8125,0.34375zM246.97098,185.2031c-0.73958,0 -1.46875,-0.125 -2.1875,-0.375c-0.71875,-0.25 -1.30208,-0.625 -1.75,-1.125c-0.14583,-0.14584 -0.20833,-0.3125 -0.1875,-0.5c0.03125,-0.1875 0.13021,-0.34896 0.29688,-0.48437c0.16667,-0.125 0.34375,-0.17187 0.53125,-0.14062c0.1875,0.02084 0.34375,0.09896 0.46875,0.23438c0.30208,0.35416 0.69792,0.625 1.1875,0.8125c0.48958,0.17709 1.03646,0.26563 1.64063,0.26563c0.91667,0 1.57813,-0.15625 1.98438,-0.46875c0.41667,-0.32291 0.63021,-0.70312 0.64063,-1.14062c0,-0.44791 -0.21354,-0.81771 -0.64062,-1.10937c-0.41667,-0.30209 -1.10937,-0.53125 -2.07812,-0.6875c-1.26042,-0.19791 -2.18229,-0.54687 -2.76562,-1.04687c-0.58333,-0.5 -0.875,-1.08854 -0.875,-1.76562c0,-0.63542 0.16667,-1.16146 0.5,-1.57812c0.33333,-0.42708 0.78125,-0.74479 1.34375,-0.95312c0.5625,-0.21875 1.17708,-0.32812 1.84375,-0.32812c0.83333,0 1.55208,0.14583 2.15625,0.4375c0.60417,0.28125 1.09375,0.66146 1.46875,1.14063c0.125,0.16667 0.17188,0.33854 0.14063,0.51563c-0.02084,0.16667 -0.11979,0.30729 -0.29687,0.42188c-0.14584,0.08333 -0.31771,0.10938 -0.51562,0.07813c-0.1875,-0.03125 -0.34896,-0.11979 -0.48437,-0.26562c-0.3125,-0.35417 -0.67708,-0.61458 -1.09375,-0.78125c-0.40625,-0.17708 -0.875,-0.26562 -1.40625,-0.26562c-0.6875,0 -1.23958,0.14063 -1.65625,0.42188c-0.40625,0.28125 -0.60937,0.63542 -0.60937,1.0625c0,0.28125 0.07813,0.53125 0.23438,0.75c0.15625,0.20834 0.42188,0.39584 0.79688,0.5625c0.38542,0.15625 0.92188,0.28646 1.60938,0.39063c0.92708,0.15625 1.66146,0.38021 2.20313,0.67188c0.54166,0.29166 0.92708,0.63541 1.15625,1.03125c0.22916,0.38541 0.34375,0.80729 0.34375,1.26563c0,0.58334 -0.17187,1.09896 -0.51562,1.54688c-0.33334,0.4375 -0.80208,0.78125 -1.40625,1.03125c-0.60417,0.25 -1.29687,0.375 -2.07812,0.375zM257.0267,185.2031c-0.73959,0 -1.46875,-0.125 -2.1875,-0.375c-0.71875,-0.25 -1.30209,-0.625 -1.75,-1.125c-0.14584,-0.14584 -0.20834,-0.3125 -0.1875,-0.5c0.03125,-0.1875 0.13021,-0.34896 0.29688,-0.48437c0.16666,-0.125 0.34375,-0.17187 0.53125,-0.14062c0.1875,0.02084 0.34375,0.09896 0.46875,0.23438c0.30209,0.35416 0.69791,0.625 1.1875,0.8125c0.48959,0.17709 1.03646,0.26563 1.64063,0.26563c0.91666,0 1.57813,-0.15625 1.98438,-0.46875c0.41666,-0.32291 0.63021,-0.70312 0.64063,-1.14062c0,-0.44791 -0.21354,-0.81771 -0.64062,-1.10937c-0.41666,-0.30209 -1.10937,-0.53125 -2.07812,-0.6875c-1.26042,-0.19791 -2.18229,-0.54687 -2.76562,-1.04687c-0.58334,-0.5 -0.875,-1.08854 -0.875,-1.76562c0,-0.63542 0.16666,-1.16146 0.5,-1.57812c0.33334,-0.42708 0.78125,-0.74479 1.34375,-0.95312c0.5625,-0.21875 1.17709,-0.32812 1.84375,-0.32812c0.83334,0 1.55209,0.14583 2.15625,0.4375c0.60416,0.28125 1.09375,0.66146 1.46875,1.14063c0.125,0.16667 0.17188,0.33854 0.14063,0.51563c-0.02084,0.16667 -0.11979,0.30729 -0.29687,0.42188c-0.14584,0.08333 -0.31771,0.10938 -0.51562,0.07813c-0.1875,-0.03125 -0.34896,-0.11979 -0.48437,-0.26562c-0.3125,-0.35417 -0.67709,-0.61458 -1.09375,-0.78125c-0.40625,-0.17708 -0.875,-0.26562 -1.40625,-0.26562c-0.6875,0 -1.23959,0.14063 -1.65625,0.42188c-0.40625,0.28125 -0.60937,0.63542 -0.60937,1.0625c0,0.28125 0.07813,0.53125 0.23438,0.75c0.15625,0.20834 0.42188,0.39584 0.79688,0.5625c0.38541,0.15625 0.92188,0.28646 1.60938,0.39063c0.92709,0.15625 1.66146,0.38021 2.20313,0.67188c0.54166,0.29166 0.92709,0.63541 1.15625,1.03125c0.22916,0.38541 0.34375,0.80729 0.34375,1.26563c0,0.58334 -0.17187,1.09896 -0.51562,1.54688c-0.33334,0.4375 -0.80209,0.78125 -1.40625,1.03125c-0.60416,0.25 -1.29687,0.375 -2.07812,0.375zM264.53555,185.10935c-0.21875,0 -0.39584,-0.0625 -0.53125,-0.1875c-0.125,-0.13541 -0.1875,-0.31771 -0.1875,-0.54687v-8.75c0,-0.21875 0.0625,-0.39062 0.1875,-0.51562c0.13541,-0.13542 0.3125,-0.20312 0.53125,-0.20312c0.20834,0 0.38021,0.06771 0.51563,0.20313c0.13541,0.125 0.20313,0.29688 0.20313,0.51563v8.75c0,0.22916 -0.06771,0.41146 -0.20312,0.54688c-0.13541,0.125 -0.30729,0.1875 -0.51562,0.1875zM264.59805,172.96873c-0.28125,0 -0.52084,-0.09896 -0.71875,-0.29687c-0.19791,-0.20833 -0.29687,-0.45312 -0.29687,-0.73437c0,-0.3125 0.10416,-0.55729 0.3125,-0.73437c0.20834,-0.17708 0.44791,-0.26562 0.71875,-0.26562c0.26041,0 0.48959,0.08854 0.6875,0.26563c0.20834,0.17708 0.3125,0.42188 0.3125,0.73438c0,0.28125 -0.09896,0.52604 -0.29687,0.73438c-0.19791,0.19792 -0.4375,0.29688 -0.71875,0.29688zM272.39597,185.10935c-0.30208,0 -0.52604,-0.16146 -0.67187,-0.48437l-4.14062,-8.78125c-0.07292,-0.16667 -0.08333,-0.32812 -0.03125,-0.48437c0.0625,-0.16667 0.1875,-0.29167 0.375,-0.375c0.17708,-0.09375 0.34375,-0.10937 0.5,-0.04687c0.16667,0.0625 0.29167,0.17708 0.375,0.34375l3.98438,8.59375h-0.76562l3.92187,-8.59375c0.07292,-0.17708 0.19792,-0.29167 0.375,-0.34375c0.17708,-0.0625 0.35417,-0.05729 0.53125,0.01563c0.17708,0.09375 0.29688,0.22396 0.35938,0.39063c0.0625,0.16667 0.05729,0.32292 -0.01562,0.46875l-4.09375,8.8125c-0.14583,0.32291 -0.38021,0.48438 -0.70312,0.48438zM283.48017,185.2031c-1.01041,0 -1.90625,-0.21875 -2.6875,-0.65625c-0.77083,-0.44791 -1.38021,-1.0625 -1.82812,-1.84375c-0.4375,-0.78125 -0.65625,-1.67708 -0.65625,-2.6875c0,-1.02083 0.20833,-1.91666 0.625,-2.6875c0.41667,-0.78125 0.98959,-1.39583 1.71875,-1.84375c0.73959,-0.44792 1.58854,-0.67187 2.54688,-0.67187c0.9375,0 1.75521,0.21354 2.45313,0.64063c0.70834,0.42708 1.25521,1.02083 1.64063,1.78125c0.38542,0.76041 0.57813,1.625 0.57813,2.59375c0,0.19791 -0.0625,0.35938 -0.1875,0.48438c-0.125,0.11459 -0.28646,0.17188 -0.48437,0.17188h-7.92187v-1.20312h8.07813l-0.79687,0.57813c0.01042,-0.71875 -0.125,-1.36459 -0.40625,-1.9375c-0.27083,-0.57292 -0.65625,-1.02083 -1.15625,-1.34375c-0.5,-0.32292 -1.09896,-0.48437 -1.79687,-0.48437c-0.70833,0 -1.33333,0.17188 -1.875,0.51563c-0.53125,0.33333 -0.94271,0.79688 -1.23437,1.39063c-0.29167,0.58334 -0.4375,1.25521 -0.4375,2.01563c0,0.76041 0.16146,1.43229 0.48438,2.01563c0.33333,0.58334 0.78646,1.04688 1.35938,1.39063c0.57291,0.33334 1.23438,0.5 1.98438,0.5c0.44792,0 0.89584,-0.07812 1.34375,-0.23437c0.45833,-0.15625 0.82292,-0.35416 1.09375,-0.59375c0.13542,-0.11459 0.29167,-0.17187 0.46875,-0.17187c0.17708,-0.01041 0.32292,0.03646 0.4375,0.14063c0.16667,0.14584 0.25,0.30729 0.25,0.48438c0.01042,0.16666 -0.05729,0.3125 -0.20312,0.4375c-0.41667,0.35416 -0.94271,0.64584 -1.57812,0.875c-0.625,0.22916 -1.22916,0.34375 -1.8125,0.34375zM290.63822,185.40623c-0.30208,0 -0.55729,-0.10416 -0.76563,-0.3125c-0.20833,-0.20834 -0.3125,-0.46354 -0.3125,-0.76562c0,-0.3125 0.10417,-0.57291 0.3125,-0.78125c0.21875,-0.21875 0.47396,-0.32812 0.76563,-0.32812c0.30208,0 0.55729,0.10938 0.76563,0.32813c0.20833,0.21875 0.3125,0.47916 0.3125,0.78125c0,0.28125 -0.10417,0.53125 -0.3125,0.75c-0.19792,0.21875 -0.45312,0.32813 -0.76562,0.32813z" fill="#000000" fill-rule="nonzero"/></g></g></svg>