<svg version="1.1" xmlns="http://www.w3.org/2000/svg" xmlns:xlink="http://www.w3.org/1999/xlink" width="960" height="720" viewBox="0,0,960,720"><g transform="translate(240,180)"><g data-paper-data="{&quot;isPaintingLayer&quot;:true}" stroke-linecap="square" stroke-linejoin="miter" stroke-miterlimit="10" stroke-dasharray="" stroke-dashoffset="0" style="mix-blend-mode: normal"><path d="M185.31898,187.2812c-0.20833,0 -0.38542,-0.06771 -0.53125,-0.20312c-0.13542,-0.13542 -0.20312,-0.3125 -0.20312,-0.53125v-13.10937c0,-0.20833 0.06771,-0.38021 0.20313,-0.51562c0.14583,-0.14583 0.32292,-0.21875 0.53125,-0.21875h3.73438c0.91667,0 1.72917,0.20313 2.4375,0.60938c0.70833,0.40625 1.26042,0.96354 1.65625,1.67188c0.40625,0.70833 0.60938,1.53125 0.60938,2.46875c0,0.90625 -0.20312,1.71354 -0.60937,2.42188c-0.39583,0.69792 -0.94792,1.25 -1.65625,1.65625c-0.70833,0.39583 -1.52083,0.59375 -2.4375,0.59375h-3v4.42188c0,0.21875 -0.07292,0.39583 -0.21875,0.53125c-0.13542,0.13542 -0.30729,0.20313 -0.51562,0.20313zM186.05336,180.73434h3c0.63542,0 1.19792,-0.14062 1.6875,-0.42187c0.5,-0.28125 0.89063,-0.66667 1.17188,-1.15625c0.28125,-0.5 0.42188,-1.06771 0.42188,-1.70312c0,-0.66667 -0.14062,-1.24479 -0.42187,-1.73437c-0.28125,-0.5 -0.67187,-0.89062 -1.17187,-1.17187c-0.48958,-0.29167 -1.05208,-0.4375 -1.6875,-0.4375h-3zM196.73661,187.2812c-0.20833,0 -0.38542,-0.06771 -0.53125,-0.20312c-0.13542,-0.13542 -0.20312,-0.3125 -0.20312,-0.53125v-13.10937c0,-0.20833 0.06771,-0.38021 0.20313,-0.51562c0.14583,-0.14583 0.32292,-0.21875 0.53125,-0.21875h8.75c0.19792,0 0.36979,0.06771 0.51563,0.20313c0.14583,0.13542 0.21875,0.30729 0.21875,0.51563c0,0.1875 -0.07292,0.34896 -0.21875,0.48438c-0.14583,0.13542 -0.31771,0.20313 -0.51562,0.20313h-8.01562v5.15625h5.82813c0.21875,0 0.39583,0.06771 0.53125,0.20313c0.13542,0.13542 0.20313,0.30208 0.20313,0.5c0,0.19792 -0.06771,0.36458 -0.20312,0.5c-0.13542,0.13542 -0.3125,0.20313 -0.53125,0.20313h-5.82812v5.20313h8.01563c0.19792,0 0.36979,0.07292 0.51563,0.21875c0.14583,0.13542 0.21875,0.29688 0.21875,0.48438c0,0.20833 -0.07292,0.38021 -0.21875,0.51563c-0.14583,0.125 -0.31771,0.1875 -0.51562,0.1875zM209.64673,187.2812c-0.20833,0 -0.38542,-0.06771 -0.53125,-0.20312c-0.13542,-0.13542 -0.20312,-0.3125 -0.20312,-0.53125v-13.10937c0,-0.20833 0.06771,-0.38021 0.20313,-0.51562c0.14583,-0.14583 0.32292,-0.21875 0.53125,-0.21875h3.48438c0.90625,0 1.71354,0.19271 2.42188,0.57813c0.71875,0.375 1.27604,0.90104 1.67188,1.57813c0.40625,0.67708 0.60938,1.45833 0.60938,2.34375c0,0.84375 -0.20312,1.59896 -0.60937,2.26563c-0.39583,0.65625 -0.95312,1.17188 -1.67187,1.54688c-0.70833,0.375 -1.51562,0.5625 -2.42187,0.5625h-2.75v4.96875c0,0.21875 -0.07292,0.39583 -0.21875,0.53125c-0.13542,0.13542 -0.30729,0.20313 -0.51562,0.20313zM217.44361,187.2812c-0.15625,0 -0.28125,-0.03125 -0.375,-0.09375c-0.09375,-0.0625 -0.18229,-0.15625 -0.26562,-0.28125l-3.57812,-5.70312l1.45313,-0.375l3.34375,5.32813c0.1875,0.30208 0.21875,0.56771 0.09375,0.79688c-0.11458,0.21875 -0.33854,0.32813 -0.67187,0.32813zM210.38111,180.17184h2.75c0.63542,0 1.19792,-0.125 1.6875,-0.375c0.48958,-0.26042 0.875,-0.61458 1.15625,-1.0625c0.29167,-0.44792 0.4375,-0.95833 0.4375,-1.53125c0,-0.60417 -0.14583,-1.14062 -0.4375,-1.60937c-0.28125,-0.46875 -0.66667,-0.83333 -1.15625,-1.09375c-0.48958,-0.26042 -1.05208,-0.39062 -1.6875,-0.39062h-2.75zM220.02006,187.2812c-0.19792,0 -0.36979,-0.06771 -0.51562,-0.20312c-0.14583,-0.14583 -0.21875,-0.32292 -0.21875,-0.53125v-13.10937c0,-0.20833 0.06771,-0.38021 0.20313,-0.51562c0.14583,-0.14583 0.32292,-0.21875 0.53125,-0.21875h8.75c0.20833,0 0.38021,0.06771 0.51563,0.20313c0.13542,0.13542 0.20313,0.30729 0.20313,0.51563c0,0.1875 -0.06771,0.34896 -0.20312,0.48438c-0.13542,0.13542 -0.30729,0.20313 -0.51562,0.20313h-8.01562v5.15625h5.82813c0.21875,0 0.39583,0.06771 0.53125,0.20313c0.13542,0.13542 0.20313,0.30208 0.20313,0.5c0,0.19792 -0.06771,0.36458 -0.20312,0.5c-0.13542,0.13542 -0.3125,0.20313 -0.53125,0.20313h-5.82812v5.875c0,0.20833 -0.07292,0.38542 -0.21875,0.53125c-0.13542,0.13542 -0.30729,0.20313 -0.51562,0.20313zM232.83646,187.2812c-0.20833,0 -0.38542,-0.06771 -0.53125,-0.20312c-0.13542,-0.13542 -0.20312,-0.3125 -0.20312,-0.53125v-13.10937c0,-0.20833 0.06771,-0.38021 0.20313,-0.51562c0.14583,-0.14583 0.32292,-0.21875 0.53125,-0.21875h8.75c0.19792,0 0.36979,0.06771 0.51563,0.20313c0.14583,0.13542 0.21875,0.30729 0.21875,0.51563c0,0.1875 -0.07292,0.34896 -0.21875,0.48438c-0.14583,0.13542 -0.31771,0.20313 -0.51562,0.20313h-8.01562v5.15625h5.82813c0.21875,0 0.39583,0.06771 0.53125,0.20313c0.13542,0.13542 0.20313,0.30208 0.20313,0.5c0,0.19792 -0.06771,0.36458 -0.20312,0.5c-0.13542,0.13542 -0.3125,0.20313 -0.53125,0.20313h-5.82812v5.20313h8.01563c0.19792,0 0.36979,0.07292 0.51563,0.21875c0.14583,0.13542 0.21875,0.29688 0.21875,0.48438c0,0.20833 -0.07292,0.38021 -0.21875,0.51563c-0.14583,0.125 -0.31771,0.1875 -0.51562,0.1875zM251.55909,187.4687c-1,0 -1.94271,-0.19271 -2.82812,-0.57812c-0.875,-0.38542 -1.64583,-0.92187 -2.3125,-1.60937c-0.65625,-0.69792 -1.17187,-1.49479 -1.54687,-2.39062c-0.375,-0.90625 -0.5625,-1.875 -0.5625,-2.90625c0,-1.02083 0.18229,-1.97917 0.54688,-2.875c0.36458,-0.90625 0.88021,-1.69792 1.54688,-2.375c0.66667,-0.6875 1.4375,-1.22396 2.3125,-1.60937c0.88542,-0.39583 1.83333,-0.59375 2.84375,-0.59375c0.89583,0 1.70833,0.13021 2.4375,0.39063c0.73958,0.26042 1.45313,0.67708 2.14063,1.25c0.11458,0.08333 0.17708,0.1875 0.1875,0.3125c0.02083,0.11458 0.00521,0.22396 -0.04687,0.32813c-0.04167,0.10417 -0.11458,0.18229 -0.21875,0.23438c-0.02083,0.09375 -0.08333,0.16667 -0.1875,0.21875c-0.09375,0.05208 -0.20833,0.07292 -0.34375,0.0625c-0.125,-0.02083 -0.25,-0.07812 -0.375,-0.17187c-0.48958,-0.42708 -1.02083,-0.73958 -1.59375,-0.9375c-0.57292,-0.20833 -1.23958,-0.3125 -2,-0.3125c-0.80208,0 -1.55729,0.16146 -2.26562,0.48438c-0.69792,0.32292 -1.31771,0.76563 -1.85937,1.32813c-0.53125,0.55208 -0.94792,1.19792 -1.25,1.9375c-0.30208,0.72917 -0.45312,1.50521 -0.45312,2.32813c0,0.84375 0.15104,1.63542 0.45313,2.375c0.30208,0.72917 0.71875,1.375 1.25,1.9375c0.54167,0.5625 1.16146,1.00521 1.85938,1.32813c0.70833,0.3125 1.46354,0.46875 2.26563,0.46875c0.6875,0 1.33333,-0.10937 1.9375,-0.32812c0.61458,-0.22917 1.19792,-0.55729 1.75,-0.98437c0.14583,-0.125 0.30208,-0.17187 0.46875,-0.14062c0.16667,0.02083 0.3125,0.09375 0.4375,0.21875c0.125,0.125 0.1875,0.28646 0.1875,0.48438c0,0.09375 -0.01562,0.18229 -0.04687,0.26563c-0.03125,0.08333 -0.08333,0.16667 -0.15625,0.25c-0.63542,0.58333 -1.34375,1 -2.125,1.25c-0.78125,0.23958 -1.59896,0.35938 -2.45312,0.35938zM263.63055,187.2812c-0.19792,0 -0.36979,-0.06771 -0.51562,-0.20312c-0.13542,-0.14583 -0.20312,-0.32292 -0.20312,-0.53125v-13.84375h1.45313v13.84375c0,0.20833 -0.06771,0.38542 -0.20312,0.53125c-0.13542,0.13542 -0.3125,0.20313 -0.53125,0.20313zM258.48993,174.0312c-0.19792,0 -0.35937,-0.0625 -0.48437,-0.1875c-0.125,-0.125 -0.1875,-0.28125 -0.1875,-0.46875c0,-0.19792 0.0625,-0.35937 0.1875,-0.48437c0.125,-0.125 0.28646,-0.1875 0.48438,-0.1875h10.3125c0.19792,0 0.35938,0.0625 0.48438,0.1875c0.125,0.125 0.1875,0.28646 0.1875,0.48438c0,0.1875 -0.0625,0.34375 -0.1875,0.46875c-0.125,0.125 -0.28646,0.1875 -0.48437,0.1875zM284.03544,187.2812c-0.15625,0 -0.28125,-0.02604 -0.375,-0.07812c-0.09375,-0.05208 -0.1875,-0.13542 -0.28125,-0.25l-3.23437,-4.10937l-0.5625,-0.48437l-3.23437,-4.125c-0.13542,-0.16667 -0.20312,-0.33333 -0.20312,-0.5c0.01042,-0.17708 0.06771,-0.32812 0.17188,-0.45312c0.11458,-0.13542 0.27604,-0.20312 0.48438,-0.20312c0.21875,0 0.40104,0.07292 0.54688,0.21875l3.14063,4.01563l0.5,0.40625l3.46875,4.4375c0.16667,0.19792 0.23438,0.38542 0.20313,0.5625c-0.02083,0.17708 -0.09896,0.31771 -0.23437,0.42188c-0.125,0.09375 -0.25521,0.14063 -0.39062,0.14063zM276.64482,187.2812c-0.19792,0 -0.35937,-0.0625 -0.48437,-0.1875c-0.11458,-0.125 -0.17708,-0.27083 -0.1875,-0.4375c0,-0.17708 0.06771,-0.34896 0.20313,-0.51562l3.4375,-4.28125l0.79688,1.0625l-3.26562,4.14063c-0.11458,0.14583 -0.28125,0.21875 -0.5,0.21875zM281.00419,182.43745l-0.90625,-0.9375l3.21875,-4.09375c0.09375,-0.125 0.19271,-0.20833 0.29688,-0.25c0.10417,-0.05208 0.21354,-0.07812 0.32813,-0.07812c0.20833,0 0.36458,0.06771 0.46875,0.20313c0.11458,0.125 0.16667,0.28125 0.15625,0.46875c0,0.17708 -0.0625,0.34375 -0.1875,0.5zM287.49344,187.2812c-0.19792,0 -0.36979,-0.06771 -0.51562,-0.20312c-0.13542,-0.13542 -0.20312,-0.3125 -0.20312,-0.53125c0,-0.17708 0.06771,-0.34375 0.20313,-0.5l5.65625,-6.67187c0.3125,-0.33333 0.55729,-0.70833 0.73438,-1.125c0.1875,-0.41667 0.28125,-0.80729 0.28125,-1.17187c0,-0.58333 -0.11458,-1.09896 -0.34375,-1.54687c-0.22917,-0.44792 -0.55208,-0.79687 -0.96875,-1.04687c-0.41667,-0.26042 -0.89062,-0.39062 -1.42187,-0.39062c-0.52083,0 -1,0.13542 -1.4375,0.40625c-0.42708,0.26042 -0.76042,0.61458 -1,1.0625c-0.23958,0.44792 -0.35937,0.95313 -0.35937,1.51563c0,0.19792 -0.07292,0.36458 -0.21875,0.5c-0.13542,0.13542 -0.30729,0.20313 -0.51562,0.20313c-0.19792,0 -0.36979,-0.06771 -0.51562,-0.20312c-0.13542,-0.13542 -0.20312,-0.30208 -0.20312,-0.5c0,-0.83333 0.18229,-1.57812 0.54688,-2.23437c0.375,-0.66667 0.88021,-1.19271 1.51563,-1.57812c0.64583,-0.38542 1.375,-0.57812 2.1875,-0.57812c0.80208,0 1.51563,0.1875 2.14063,0.5625c0.63542,0.375 1.13021,0.89063 1.48438,1.54688c0.35417,0.65625 0.53125,1.41667 0.53125,2.28125c0,0.40625 -0.06771,0.79688 -0.20312,1.17188c-0.125,0.375 -0.30208,0.73438 -0.53125,1.07813c-0.21875,0.34375 -0.45833,0.66146 -0.71875,0.95313l-4.78125,5.54688h5.84375c0.19792,0 0.36979,0.07813 0.51563,0.23438c0.14583,0.14583 0.21875,0.30729 0.21875,0.48438c0,0.21875 -0.07292,0.39583 -0.21875,0.53125c-0.14583,0.13542 -0.31771,0.20313 -0.51562,0.20313z" fill="#f9ea00" fill-rule="nonzero" stroke="#4f422f" stroke-width="7.5"/><path d="M-240,-180h960v720h-960z" fill-opacity="0" fill="#000000" fill-rule="evenodd" stroke="none" stroke-width="1"/><path d="M185.31898,187.28119c-0.20833,0 -0.38542,-0.06771 -0.53125,-0.20312c-0.13542,-0.13542 -0.20312,-0.3125 -0.20312,-0.53125v-13.10937c0,-0.20833 0.06771,-0.38021 0.20313,-0.51562c0.14583,-0.14583 0.32292,-0.21875 0.53125,-0.21875h3.73438c0.91667,0 1.72917,0.20313 2.4375,0.60938c0.70833,0.40625 1.26042,0.96354 1.65625,1.67188c0.40625,0.70833 0.60938,1.53125 0.60938,2.46875c0,0.90625 -0.20312,1.71354 -0.60937,2.42188c-0.39583,0.69792 -0.94792,1.25 -1.65625,1.65625c-0.70833,0.39583 -1.52083,0.59375 -2.4375,0.59375h-3v4.42188c0,0.21875 -0.07292,0.39583 -0.21875,0.53125c-0.13542,0.13542 -0.30729,0.20313 -0.51562,0.20313zM186.05336,180.73433h3c0.63542,0 1.19792,-0.14062 1.6875,-0.42187c0.5,-0.28125 0.89063,-0.66667 1.17188,-1.15625c0.28125,-0.5 0.42188,-1.06771 0.42188,-1.70312c0,-0.66667 -0.14062,-1.24479 -0.42187,-1.73437c-0.28125,-0.5 -0.67187,-0.89062 -1.17187,-1.17187c-0.48958,-0.29167 -1.05208,-0.4375 -1.6875,-0.4375h-3zM196.73661,187.28119c-0.20833,0 -0.38542,-0.06771 -0.53125,-0.20312c-0.13542,-0.13542 -0.20312,-0.3125 -0.20312,-0.53125v-13.10937c0,-0.20833 0.06771,-0.38021 0.20313,-0.51562c0.14583,-0.14583 0.32292,-0.21875 0.53125,-0.21875h8.75c0.19792,0 0.36979,0.06771 0.51563,0.20313c0.14583,0.13542 0.21875,0.30729 0.21875,0.51563c0,0.1875 -0.07292,0.34896 -0.21875,0.48438c-0.14583,0.13542 -0.31771,0.20313 -0.51562,0.20313h-8.01562v5.15625h5.82813c0.21875,0 0.39583,0.06771 0.53125,0.20313c0.13542,0.13542 0.20313,0.30208 0.20313,0.5c0,0.19792 -0.06771,0.36458 -0.20312,0.5c-0.13542,0.13542 -0.3125,0.20313 -0.53125,0.20313h-5.82812v5.20313h8.01563c0.19792,0 0.36979,0.07292 0.51563,0.21875c0.14583,0.13542 0.21875,0.29688 0.21875,0.48438c0,0.20833 -0.07292,0.38021 -0.21875,0.51563c-0.14583,0.125 -0.31771,0.1875 -0.51562,0.1875zM209.64674,187.28119c-0.20833,0 -0.38542,-0.06771 -0.53125,-0.20312c-0.13542,-0.13542 -0.20312,-0.3125 -0.20312,-0.53125v-13.10937c0,-0.20833 0.06771,-0.38021 0.20313,-0.51562c0.14583,-0.14583 0.32292,-0.21875 0.53125,-0.21875h3.48438c0.90625,0 1.71354,0.19271 2.42188,0.57813c0.71875,0.375 1.27604,0.90104 1.67188,1.57813c0.40625,0.67708 0.60938,1.45833 0.60938,2.34375c0,0.84375 -0.20312,1.59896 -0.60937,2.26563c-0.39583,0.65625 -0.95312,1.17188 -1.67187,1.54688c-0.70833,0.375 -1.51562,0.5625 -2.42187,0.5625h-2.75v4.96875c0,0.21875 -0.07292,0.39583 -0.21875,0.53125c-0.13542,0.13542 -0.30729,0.20313 -0.51562,0.20313zM217.44361,187.28119c-0.15625,0 -0.28125,-0.03125 -0.375,-0.09375c-0.09375,-0.0625 -0.18229,-0.15625 -0.26562,-0.28125l-3.57812,-5.70312l1.45313,-0.375l3.34375,5.32813c0.1875,0.30208 0.21875,0.56771 0.09375,0.79688c-0.11458,0.21875 -0.33854,0.32813 -0.67187,0.32813zM210.38111,180.17183h2.75c0.63542,0 1.19792,-0.125 1.6875,-0.375c0.48958,-0.26042 0.875,-0.61458 1.15625,-1.0625c0.29167,-0.44792 0.4375,-0.95833 0.4375,-1.53125c0,-0.60417 -0.14583,-1.14062 -0.4375,-1.60937c-0.28125,-0.46875 -0.66667,-0.83333 -1.15625,-1.09375c-0.48958,-0.26042 -1.05208,-0.39062 -1.6875,-0.39062h-2.75zM220.02006,187.28119c-0.19792,0 -0.36979,-0.06771 -0.51562,-0.20312c-0.14583,-0.14583 -0.21875,-0.32292 -0.21875,-0.53125v-13.10937c0,-0.20833 0.06771,-0.38021 0.20313,-0.51562c0.14583,-0.14583 0.32292,-0.21875 0.53125,-0.21875h8.75c0.20833,0 0.38021,0.06771 0.51563,0.20313c0.13542,0.13542 0.20313,0.30729 0.20313,0.51563c0,0.1875 -0.06771,0.34896 -0.20312,0.48438c-0.13542,0.13542 -0.30729,0.20313 -0.51562,0.20313h-8.01562v5.15625h5.82813c0.21875,0 0.39583,0.06771 0.53125,0.20313c0.13542,0.13542 0.20313,0.30208 0.20313,0.5c0,0.19792 -0.06771,0.36458 -0.20312,0.5c-0.13542,0.13542 -0.3125,0.20313 -0.53125,0.20313h-5.82812v5.875c0,0.20833 -0.07292,0.38542 -0.21875,0.53125c-0.13542,0.13542 -0.30729,0.20313 -0.51562,0.20313zM232.83647,187.28119c-0.20833,0 -0.38542,-0.06771 -0.53125,-0.20312c-0.13542,-0.13542 -0.20312,-0.3125 -0.20312,-0.53125v-13.10937c0,-0.20833 0.06771,-0.38021 0.20313,-0.51562c0.14583,-0.14583 0.32292,-0.21875 0.53125,-0.21875h8.75c0.19792,0 0.36979,0.06771 0.51563,0.20313c0.14583,0.13542 0.21875,0.30729 0.21875,0.51563c0,0.1875 -0.07292,0.34896 -0.21875,0.48438c-0.14583,0.13542 -0.31771,0.20313 -0.51562,0.20313h-8.01562v5.15625h5.82813c0.21875,0 0.39583,0.06771 0.53125,0.20313c0.13542,0.13542 0.20313,0.30208 0.20313,0.5c0,0.19792 -0.06771,0.36458 -0.20312,0.5c-0.13542,0.13542 -0.3125,0.20313 -0.53125,0.20313h-5.82812v5.20313h8.01563c0.19792,0 0.36979,0.07292 0.51563,0.21875c0.14583,0.13542 0.21875,0.29688 0.21875,0.48438c0,0.20833 -0.07292,0.38021 -0.21875,0.51563c-0.14583,0.125 -0.31771,0.1875 -0.51562,0.1875zM251.55909,187.46869c-1,0 -1.94271,-0.19271 -2.82812,-0.57812c-0.875,-0.38542 -1.64583,-0.92187 -2.3125,-1.60937c-0.65625,-0.69792 -1.17187,-1.49479 -1.54687,-2.39062c-0.375,-0.90625 -0.5625,-1.875 -0.5625,-2.90625c0,-1.02083 0.18229,-1.97917 0.54688,-2.875c0.36458,-0.90625 0.88021,-1.69792 1.54688,-2.375c0.66667,-0.6875 1.4375,-1.22396 2.3125,-1.60937c0.88542,-0.39583 1.83333,-0.59375 2.84375,-0.59375c0.89583,0 1.70833,0.13021 2.4375,0.39063c0.73958,0.26042 1.45313,0.67708 2.14063,1.25c0.11458,0.08333 0.17708,0.1875 0.1875,0.3125c0.02083,0.11458 0.00521,0.22396 -0.04687,0.32813c-0.04167,0.10417 -0.11458,0.18229 -0.21875,0.23438c-0.02083,0.09375 -0.08333,0.16667 -0.1875,0.21875c-0.09375,0.05208 -0.20833,0.07292 -0.34375,0.0625c-0.125,-0.02083 -0.25,-0.07812 -0.375,-0.17187c-0.48958,-0.42708 -1.02083,-0.73958 -1.59375,-0.9375c-0.57292,-0.20833 -1.23958,-0.3125 -2,-0.3125c-0.80208,0 -1.55729,0.16146 -2.26562,0.48438c-0.69792,0.32292 -1.31771,0.76563 -1.85937,1.32813c-0.53125,0.55208 -0.94792,1.19792 -1.25,1.9375c-0.30208,0.72917 -0.45312,1.50521 -0.45312,2.32813c0,0.84375 0.15104,1.63542 0.45313,2.375c0.30208,0.72917 0.71875,1.375 1.25,1.9375c0.54167,0.5625 1.16146,1.00521 1.85938,1.32813c0.70833,0.3125 1.46354,0.46875 2.26563,0.46875c0.6875,0 1.33333,-0.10937 1.9375,-0.32812c0.61458,-0.22917 1.19792,-0.55729 1.75,-0.98437c0.14583,-0.125 0.30208,-0.17187 0.46875,-0.14062c0.16667,0.02083 0.3125,0.09375 0.4375,0.21875c0.125,0.125 0.1875,0.28646 0.1875,0.48438c0,0.09375 -0.01562,0.18229 -0.04687,0.26563c-0.03125,0.08333 -0.08333,0.16667 -0.15625,0.25c-0.63542,0.58333 -1.34375,1 -2.125,1.25c-0.78125,0.23958 -1.59896,0.35938 -2.45312,0.35938zM263.63056,187.28119c-0.19792,0 -0.36979,-0.06771 -0.51562,-0.20312c-0.13542,-0.14583 -0.20312,-0.32292 -0.20312,-0.53125v-13.84375h1.45313v13.84375c0,0.20833 -0.06771,0.38542 -0.20312,0.53125c-0.13542,0.13542 -0.3125,0.20313 -0.53125,0.20313zM258.48994,174.03119c-0.19792,0 -0.35937,-0.0625 -0.48437,-0.1875c-0.125,-0.125 -0.1875,-0.28125 -0.1875,-0.46875c0,-0.19792 0.0625,-0.35937 0.1875,-0.48437c0.125,-0.125 0.28646,-0.1875 0.48438,-0.1875h10.3125c0.19792,0 0.35938,0.0625 0.48438,0.1875c0.125,0.125 0.1875,0.28646 0.1875,0.48438c0,0.1875 -0.0625,0.34375 -0.1875,0.46875c-0.125,0.125 -0.28646,0.1875 -0.48437,0.1875zM284.03544,187.28119c-0.15625,0 -0.28125,-0.02604 -0.375,-0.07812c-0.09375,-0.05208 -0.1875,-0.13542 -0.28125,-0.25l-3.23437,-4.10937l-0.5625,-0.48437l-3.23437,-4.125c-0.13542,-0.16667 -0.20312,-0.33333 -0.20312,-0.5c0.01042,-0.17708 0.06771,-0.32812 0.17188,-0.45312c0.11458,-0.13542 0.27604,-0.20312 0.48438,-0.20312c0.21875,0 0.40104,0.07292 0.54688,0.21875l3.14063,4.01563l0.5,0.40625l3.46875,4.4375c0.16667,0.19792 0.23438,0.38542 0.20313,0.5625c-0.02083,0.17708 -0.09896,0.31771 -0.23437,0.42188c-0.125,0.09375 -0.25521,0.14063 -0.39062,0.14063zM276.64482,187.28119c-0.19792,0 -0.35937,-0.0625 -0.48437,-0.1875c-0.11458,-0.125 -0.17708,-0.27083 -0.1875,-0.4375c0,-0.17708 0.06771,-0.34896 0.20313,-0.51562l3.4375,-4.28125l0.79688,1.0625l-3.26562,4.14063c-0.11458,0.14583 -0.28125,0.21875 -0.5,0.21875zM281.00419,182.43744l-0.90625,-0.9375l3.21875,-4.09375c0.09375,-0.125 0.19271,-0.20833 0.29688,-0.25c0.10417,-0.05208 0.21354,-0.07812 0.32813,-0.07812c0.20833,0 0.36458,0.06771 0.46875,0.20313c0.11458,0.125 0.16667,0.28125 0.15625,0.46875c0,0.17708 -0.0625,0.34375 -0.1875,0.5zM287.49345,187.28119c-0.19792,0 -0.36979,-0.06771 -0.51562,-0.20312c-0.13542,-0.13542 -0.20312,-0.3125 -0.20312,-0.53125c0,-0.17708 0.06771,-0.34375 0.20313,-0.5l5.65625,-6.67187c0.3125,-0.33333 0.55729,-0.70833 0.73438,-1.125c0.1875,-0.41667 0.28125,-0.80729 0.28125,-1.17187c0,-0.58333 -0.11458,-1.09896 -0.34375,-1.54687c-0.22917,-0.44792 -0.55208,-0.79687 -0.96875,-1.04687c-0.41667,-0.26042 -0.89062,-0.39062 -1.42187,-0.39062c-0.52083,0 -1,0.13542 -1.4375,0.40625c-0.42708,0.26042 -0.76042,0.61458 -1,1.0625c-0.23958,0.44792 -0.35937,0.95313 -0.35937,1.51563c0,0.19792 -0.07292,0.36458 -0.21875,0.5c-0.13542,0.13542 -0.30729,0.20313 -0.51562,0.20313c-0.19792,0 -0.36979,-0.06771 -0.51562,-0.20312c-0.13542,-0.13542 -0.20312,-0.30208 -0.20312,-0.5c0,-0.83333 0.18229,-1.57812 0.54688,-2.23437c0.375,-0.66667 0.88021,-1.19271 1.51563,-1.57812c0.64583,-0.38542 1.375,-0.57812 2.1875,-0.57812c0.80208,0 1.51563,0.1875 2.14063,0.5625c0.63542,0.375 1.13021,0.89063 1.48438,1.54688c0.35417,0.65625 0.53125,1.41667 0.53125,2.28125c0,0.40625 -0.06771,0.79688 -0.20312,1.17188c-0.125,0.375 -0.30208,0.73438 -0.53125,1.07813c-0.21875,0.34375 -0.45833,0.66146 -0.71875,0.95313l-4.78125,5.54688h5.84375c0.19792,0 0.36979,0.07813 0.51563,0.23438c0.14583,0.14583 0.21875,0.30729 0.21875,0.48438c0,0.21875 -0.07292,0.39583 -0.21875,0.53125c-0.14583,0.13542 -0.31771,0.20313 -0.51562,0.20313z" fill="#f9ea00" fill-rule="nonzero" stroke="#fac800" stroke-width="2"/></g></g></svg>