<svg version="1.1" xmlns="http://www.w3.org/2000/svg" xmlns:xlink="http://www.w3.org/1999/xlink" width="720" height="540" viewBox="0,0,720,540"><defs><clipPath id="clip-1"><rect x="-240" y="-180" transform="scale(0.5,0.5)" width="1440" height="1080" fill="none" fill-rule="nonzero" stroke-width="0.5" stroke-linecap="butt"/></clipPath></defs><g transform="translate(120,90)"><g clip-path="url(#clip-1)" data-paper-data="{&quot;isPaintingLayer&quot;:true}" stroke="none" stroke-linejoin="miter" stroke-miterlimit="10" stroke-dasharray="" stroke-dashoffset="0" style="mix-blend-mode: normal"><path d="M-240,-180h960v720h-960z" fill-opacity="0" fill="#000000" fill-rule="evenodd" stroke-width="1" stroke-linecap="square"/><g fill="#000000" fill-rule="nonzero" stroke-width="1" stroke-linecap="square"><path d="M157.29842,174.07031c-0.20833,0 -0.38542,-0.06771 -0.53125,-0.20312c-0.13542,-0.13542 -0.20312,-0.3125 -0.20312,-0.53125v-13.10937c0,-0.20833 0.06771,-0.38021 0.20313,-0.51562c0.14583,-0.14583 0.32292,-0.21875 0.53125,-0.21875h3.73438c0.91667,0 1.72917,0.20313 2.4375,0.60938c0.70833,0.40625 1.26042,0.96354 1.65625,1.67188c0.40625,0.70833 0.60938,1.53125 0.60938,2.46875c0,0.90625 -0.20312,1.71354 -0.60937,2.42188c-0.39583,0.69792 -0.94792,1.25 -1.65625,1.65625c-0.70833,0.39583 -1.52083,0.59375 -2.4375,0.59375h-3v4.42188c0,0.21875 -0.07292,0.39583 -0.21875,0.53125c-0.13542,0.13542 -0.30729,0.20313 -0.51562,0.20313zM158.03279,167.52344h3c0.63542,0 1.19792,-0.14062 1.6875,-0.42187c0.5,-0.28125 0.89063,-0.66667 1.17188,-1.15625c0.28125,-0.5 0.42188,-1.06771 0.42188,-1.70312c0,-0.66667 -0.14062,-1.24479 -0.42187,-1.73437c-0.28125,-0.5 -0.67187,-0.89062 -1.17187,-1.17187c-0.48958,-0.29167 -1.05208,-0.4375 -1.6875,-0.4375h-3zM168.40355,167.78906c0.03125,-0.77083 0.22917,-1.45833 0.59375,-2.0625c0.375,-0.61458 0.85417,-1.09375 1.4375,-1.4375c0.59375,-0.35417 1.25,-0.53125 1.96875,-0.53125c0.57292,0 1.01563,0.08333 1.32813,0.25c0.3125,0.15625 0.43229,0.39063 0.35938,0.70313c-0.05208,0.1875 -0.14062,0.3125 -0.26562,0.375c-0.11458,0.05208 -0.25521,0.07292 -0.42187,0.0625c-0.16667,-0.01042 -0.35417,-0.02083 -0.5625,-0.03125c-0.69792,-0.0625 -1.31771,0.01042 -1.85937,0.21875c-0.54167,0.19792 -0.97396,0.51042 -1.29687,0.9375c-0.3125,0.42708 -0.46875,0.93229 -0.46875,1.51563zM168.51293,174.07031c-0.22917,0 -0.40625,-0.0625 -0.53125,-0.1875c-0.125,-0.125 -0.1875,-0.29687 -0.1875,-0.51562v-8.79687c0,-0.21875 0.0625,-0.39062 0.1875,-0.51562c0.125,-0.125 0.30208,-0.1875 0.53125,-0.1875c0.21875,0 0.39063,0.0625 0.51563,0.1875c0.125,0.125 0.1875,0.29688 0.1875,0.51563v8.79688c0,0.21875 -0.0625,0.39063 -0.1875,0.51563c-0.125,0.125 -0.29687,0.1875 -0.51562,0.1875zM180.24832,174.16406c-1,0 -1.89062,-0.22396 -2.67187,-0.67187c-0.78125,-0.44792 -1.39583,-1.0625 -1.84375,-1.84375c-0.44792,-0.78125 -0.67187,-1.67187 -0.67187,-2.67187c0,-1.01042 0.22396,-1.90625 0.67188,-2.6875c0.44792,-0.78125 1.0625,-1.39583 1.84375,-1.84375c0.78125,-0.44792 1.67188,-0.67187 2.67188,-0.67187c0.98958,0 1.875,0.22396 2.65625,0.67188c0.78125,0.44792 1.39583,1.0625 1.84375,1.84375c0.44792,0.78125 0.67708,1.67708 0.6875,2.6875c0,1 -0.22917,1.89063 -0.6875,2.67188c-0.44792,0.78125 -1.0625,1.39583 -1.84375,1.84375c-0.78125,0.44792 -1.66667,0.67188 -2.65625,0.67188zM180.24832,172.85156c0.71875,0 1.36458,-0.16667 1.9375,-0.5c0.57292,-0.33333 1.02083,-0.79167 1.34375,-1.375c0.32292,-0.58333 0.48438,-1.25 0.48438,-2c0,-0.75 -0.16146,-1.41667 -0.48437,-2c-0.32292,-0.59375 -0.77083,-1.05729 -1.34375,-1.39062c-0.57292,-0.34375 -1.21875,-0.51562 -1.9375,-0.51562c-0.71875,0 -1.36458,0.17188 -1.9375,0.51563c-0.57292,0.33333 -1.02604,0.79688 -1.35937,1.39063c-0.33333,0.58333 -0.5,1.25 -0.5,2c0,0.75 0.16667,1.41667 0.5,2c0.33333,0.58333 0.78646,1.04167 1.35938,1.375c0.57292,0.33333 1.21875,0.5 1.9375,0.5zM189.5036,174.07031c-0.1875,0 -0.35417,-0.0625 -0.5,-0.1875c-0.13542,-0.13542 -0.20312,-0.31771 -0.20312,-0.54687v-9.45312c0,-0.875 0.15104,-1.64062 0.45313,-2.29687c0.30208,-0.65625 0.74479,-1.16667 1.32813,-1.53125c0.58333,-0.375 1.29688,-0.5625 2.14063,-0.5625c0.21875,0 0.39583,0.0625 0.53125,0.1875c0.13542,0.125 0.20313,0.28125 0.20313,0.46875c0,0.1875 -0.06771,0.34375 -0.20312,0.46875c-0.13542,0.125 -0.3125,0.1875 -0.53125,0.1875c-0.5625,0 -1.02604,0.13021 -1.39062,0.39063c-0.36458,0.25 -0.64062,0.60417 -0.82812,1.0625c-0.17708,0.44792 -0.26562,0.96354 -0.26562,1.54688v9.53125c0,0.22917 -0.06771,0.41146 -0.20312,0.54688c-0.125,0.125 -0.30208,0.1875 -0.53125,0.1875zM187.61298,165.49219c-0.19792,0 -0.35937,-0.05729 -0.48437,-0.17187c-0.11458,-0.125 -0.17187,-0.27604 -0.17187,-0.45312c0,-0.1875 0.05729,-0.33854 0.17188,-0.45312c0.125,-0.11458 0.28646,-0.17187 0.48438,-0.17187h4.875c0.19792,0 0.35417,0.05729 0.46875,0.17188c0.11458,0.11458 0.17188,0.26563 0.17188,0.45313c0,0.17708 -0.05729,0.32813 -0.17187,0.45313c-0.11458,0.11458 -0.27083,0.17188 -0.46875,0.17188zM199.31784,174.16406c-1.01042,0 -1.90625,-0.21875 -2.6875,-0.65625c-0.77083,-0.44792 -1.38021,-1.0625 -1.82812,-1.84375c-0.4375,-0.78125 -0.65625,-1.67708 -0.65625,-2.6875c0,-1.02083 0.20833,-1.91667 0.625,-2.6875c0.41667,-0.78125 0.98958,-1.39583 1.71875,-1.84375c0.73958,-0.44792 1.58854,-0.67187 2.54688,-0.67187c0.9375,0 1.75521,0.21354 2.45313,0.64063c0.70833,0.42708 1.25521,1.02083 1.64063,1.78125c0.38542,0.76042 0.57813,1.625 0.57813,2.59375c0,0.19792 -0.0625,0.35938 -0.1875,0.48438c-0.125,0.11458 -0.28646,0.17188 -0.48437,0.17188h-7.92187v-1.20312h8.07813l-0.79687,0.57813c0.01042,-0.71875 -0.125,-1.36458 -0.40625,-1.9375c-0.27083,-0.57292 -0.65625,-1.02083 -1.15625,-1.34375c-0.5,-0.32292 -1.09896,-0.48437 -1.79687,-0.48437c-0.70833,0 -1.33333,0.17188 -1.875,0.51563c-0.53125,0.33333 -0.94271,0.79688 -1.23437,1.39063c-0.29167,0.58333 -0.4375,1.25521 -0.4375,2.01563c0,0.76042 0.16146,1.43229 0.48438,2.01563c0.33333,0.58333 0.78646,1.04688 1.35938,1.39063c0.57292,0.33333 1.23438,0.5 1.98438,0.5c0.44792,0 0.89583,-0.07812 1.34375,-0.23437c0.45833,-0.15625 0.82292,-0.35417 1.09375,-0.59375c0.13542,-0.11458 0.29167,-0.17187 0.46875,-0.17187c0.17708,-0.01042 0.32292,0.03646 0.4375,0.14063c0.16667,0.14583 0.25,0.30729 0.25,0.48438c0.01042,0.16667 -0.05729,0.3125 -0.20312,0.4375c-0.41667,0.35417 -0.94271,0.64583 -1.57812,0.875c-0.625,0.22917 -1.22917,0.34375 -1.8125,0.34375zM209.71027,174.16406c-0.73958,0 -1.46875,-0.125 -2.1875,-0.375c-0.71875,-0.25 -1.30208,-0.625 -1.75,-1.125c-0.14583,-0.14583 -0.20833,-0.3125 -0.1875,-0.5c0.03125,-0.1875 0.13021,-0.34896 0.29688,-0.48437c0.16667,-0.125 0.34375,-0.17187 0.53125,-0.14062c0.1875,0.02083 0.34375,0.09896 0.46875,0.23438c0.30208,0.35417 0.69792,0.625 1.1875,0.8125c0.48958,0.17708 1.03646,0.26563 1.64063,0.26563c0.91667,0 1.57813,-0.15625 1.98438,-0.46875c0.41667,-0.32292 0.63021,-0.70312 0.64063,-1.14062c0,-0.44792 -0.21354,-0.81771 -0.64062,-1.10937c-0.41667,-0.30208 -1.10937,-0.53125 -2.07812,-0.6875c-1.26042,-0.19792 -2.18229,-0.54687 -2.76562,-1.04687c-0.58333,-0.5 -0.875,-1.08854 -0.875,-1.76562c0,-0.63542 0.16667,-1.16146 0.5,-1.57812c0.33333,-0.42708 0.78125,-0.74479 1.34375,-0.95312c0.5625,-0.21875 1.17708,-0.32812 1.84375,-0.32812c0.83333,0 1.55208,0.14583 2.15625,0.4375c0.60417,0.28125 1.09375,0.66146 1.46875,1.14063c0.125,0.16667 0.17188,0.33854 0.14063,0.51563c-0.02083,0.16667 -0.11979,0.30729 -0.29687,0.42188c-0.14583,0.08333 -0.31771,0.10938 -0.51562,0.07813c-0.1875,-0.03125 -0.34896,-0.11979 -0.48437,-0.26562c-0.3125,-0.35417 -0.67708,-0.61458 -1.09375,-0.78125c-0.40625,-0.17708 -0.875,-0.26562 -1.40625,-0.26562c-0.6875,0 -1.23958,0.14063 -1.65625,0.42188c-0.40625,0.28125 -0.60937,0.63542 -0.60937,1.0625c0,0.28125 0.07813,0.53125 0.23438,0.75c0.15625,0.20833 0.42188,0.39583 0.79688,0.5625c0.38542,0.15625 0.92188,0.28646 1.60938,0.39063c0.92708,0.15625 1.66146,0.38021 2.20313,0.67188c0.54167,0.29167 0.92708,0.63542 1.15625,1.03125c0.22917,0.38542 0.34375,0.80729 0.34375,1.26563c0,0.58333 -0.17187,1.09896 -0.51562,1.54688c-0.33333,0.4375 -0.80208,0.78125 -1.40625,1.03125c-0.60417,0.25 -1.29687,0.375 -2.07812,0.375zM219.76599,174.16406c-0.73958,0 -1.46875,-0.125 -2.1875,-0.375c-0.71875,-0.25 -1.30208,-0.625 -1.75,-1.125c-0.14583,-0.14583 -0.20833,-0.3125 -0.1875,-0.5c0.03125,-0.1875 0.13021,-0.34896 0.29688,-0.48437c0.16667,-0.125 0.34375,-0.17187 0.53125,-0.14062c0.1875,0.02083 0.34375,0.09896 0.46875,0.23438c0.30208,0.35417 0.69792,0.625 1.1875,0.8125c0.48958,0.17708 1.03646,0.26563 1.64063,0.26563c0.91667,0 1.57813,-0.15625 1.98438,-0.46875c0.41667,-0.32292 0.63021,-0.70312 0.64063,-1.14062c0,-0.44792 -0.21354,-0.81771 -0.64062,-1.10937c-0.41667,-0.30208 -1.10937,-0.53125 -2.07812,-0.6875c-1.26042,-0.19792 -2.18229,-0.54687 -2.76562,-1.04687c-0.58333,-0.5 -0.875,-1.08854 -0.875,-1.76562c0,-0.63542 0.16667,-1.16146 0.5,-1.57812c0.33333,-0.42708 0.78125,-0.74479 1.34375,-0.95312c0.5625,-0.21875 1.17708,-0.32812 1.84375,-0.32812c0.83333,0 1.55208,0.14583 2.15625,0.4375c0.60417,0.28125 1.09375,0.66146 1.46875,1.14063c0.125,0.16667 0.17188,0.33854 0.14063,0.51563c-0.02083,0.16667 -0.11979,0.30729 -0.29687,0.42188c-0.14583,0.08333 -0.31771,0.10938 -0.51562,0.07813c-0.1875,-0.03125 -0.34896,-0.11979 -0.48437,-0.26562c-0.3125,-0.35417 -0.67708,-0.61458 -1.09375,-0.78125c-0.40625,-0.17708 -0.875,-0.26562 -1.40625,-0.26562c-0.6875,0 -1.23958,0.14063 -1.65625,0.42188c-0.40625,0.28125 -0.60937,0.63542 -0.60937,1.0625c0,0.28125 0.07813,0.53125 0.23438,0.75c0.15625,0.20833 0.42188,0.39583 0.79688,0.5625c0.38542,0.15625 0.92188,0.28646 1.60938,0.39063c0.92708,0.15625 1.66146,0.38021 2.20313,0.67188c0.54167,0.29167 0.92708,0.63542 1.15625,1.03125c0.22917,0.38542 0.34375,0.80729 0.34375,1.26563c0,0.58333 -0.17187,1.09896 -0.51562,1.54688c-0.33333,0.4375 -0.80208,0.78125 -1.40625,1.03125c-0.60417,0.25 -1.29687,0.375 -2.07812,0.375zM227.27484,174.07031c-0.21875,0 -0.39583,-0.0625 -0.53125,-0.1875c-0.125,-0.13542 -0.1875,-0.31771 -0.1875,-0.54687v-8.75c0,-0.21875 0.0625,-0.39062 0.1875,-0.51562c0.13542,-0.13542 0.3125,-0.20312 0.53125,-0.20312c0.20833,0 0.38021,0.06771 0.51563,0.20313c0.13542,0.125 0.20313,0.29688 0.20313,0.51563v8.75c0,0.22917 -0.06771,0.41146 -0.20312,0.54688c-0.13542,0.125 -0.30729,0.1875 -0.51562,0.1875zM227.33734,161.92969c-0.28125,0 -0.52083,-0.09896 -0.71875,-0.29687c-0.19792,-0.20833 -0.29687,-0.45312 -0.29687,-0.73437c0,-0.3125 0.10417,-0.55729 0.3125,-0.73437c0.20833,-0.17708 0.44792,-0.26562 0.71875,-0.26562c0.26042,0 0.48958,0.08854 0.6875,0.26563c0.20833,0.17708 0.3125,0.42188 0.3125,0.73438c0,0.28125 -0.09896,0.52604 -0.29687,0.73438c-0.19792,0.19792 -0.4375,0.29688 -0.71875,0.29688zM236.29151,174.16406c-1,0 -1.89062,-0.22396 -2.67187,-0.67187c-0.78125,-0.44792 -1.39583,-1.0625 -1.84375,-1.84375c-0.44792,-0.78125 -0.67187,-1.67187 -0.67187,-2.67187c0,-1.01042 0.22396,-1.90625 0.67188,-2.6875c0.44792,-0.78125 1.0625,-1.39583 1.84375,-1.84375c0.78125,-0.44792 1.67188,-0.67187 2.67188,-0.67187c0.98958,0 1.875,0.22396 2.65625,0.67188c0.78125,0.44792 1.39583,1.0625 1.84375,1.84375c0.44792,0.78125 0.67708,1.67708 0.6875,2.6875c0,1 -0.22917,1.89063 -0.6875,2.67188c-0.44792,0.78125 -1.0625,1.39583 -1.84375,1.84375c-0.78125,0.44792 -1.66667,0.67188 -2.65625,0.67188zM236.29151,172.85156c0.71875,0 1.36458,-0.16667 1.9375,-0.5c0.57292,-0.33333 1.02083,-0.79167 1.34375,-1.375c0.32292,-0.58333 0.48438,-1.25 0.48438,-2c0,-0.75 -0.16146,-1.41667 -0.48437,-2c-0.32292,-0.59375 -0.77083,-1.05729 -1.34375,-1.39062c-0.57292,-0.34375 -1.21875,-0.51562 -1.9375,-0.51562c-0.71875,0 -1.36458,0.17188 -1.9375,0.51563c-0.57292,0.33333 -1.02604,0.79688 -1.35937,1.39063c-0.33333,0.58333 -0.5,1.25 -0.5,2c0,0.75 0.16667,1.41667 0.5,2c0.33333,0.58333 0.78646,1.04167 1.35938,1.375c0.57292,0.33333 1.21875,0.5 1.9375,0.5zM253.01554,174.07031c-0.20833,0 -0.38021,-0.06771 -0.51562,-0.20312c-0.13542,-0.13542 -0.20312,-0.30208 -0.20312,-0.5v-4.85937c0,-0.77083 -0.14583,-1.40104 -0.4375,-1.89062c-0.29167,-0.5 -0.69271,-0.875 -1.20312,-1.125c-0.5,-0.25 -1.06771,-0.375 -1.70312,-0.375c-0.60417,0 -1.15625,0.11979 -1.65625,0.35938c-0.48958,0.22917 -0.88021,0.55208 -1.17187,0.96875c-0.28125,0.40625 -0.42187,0.86979 -0.42187,1.39063h-1.01562c0.02083,-0.78125 0.22917,-1.47917 0.625,-2.09375c0.40625,-0.61458 0.9375,-1.09896 1.59375,-1.45312c0.65625,-0.35417 1.39063,-0.53125 2.20313,-0.53125c0.875,0 1.66146,0.18229 2.35938,0.54688c0.69792,0.36458 1.25,0.90104 1.65625,1.60938c0.40625,0.70833 0.60938,1.57292 0.60938,2.59375v4.85938c0,0.19792 -0.06771,0.36458 -0.20312,0.5c-0.13542,0.13542 -0.30729,0.20313 -0.51562,0.20313zM244.99991,174.07031c-0.21875,0 -0.39583,-0.0625 -0.53125,-0.1875c-0.13542,-0.13542 -0.20312,-0.30729 -0.20312,-0.51562v-8.78125c0,-0.21875 0.06771,-0.39062 0.20313,-0.51562c0.13542,-0.13542 0.3125,-0.20312 0.53125,-0.20312c0.20833,0 0.375,0.06771 0.5,0.20313c0.13542,0.125 0.20313,0.29688 0.20313,0.51563v8.78125c0,0.20833 -0.06771,0.38021 -0.20312,0.51563c-0.125,0.125 -0.29167,0.1875 -0.5,0.1875zM261.39582,174.16406c-0.95833,0 -1.81771,-0.22396 -2.57812,-0.67187c-0.75,-0.45833 -1.34896,-1.07812 -1.79687,-1.85937c-0.4375,-0.79167 -0.65625,-1.67708 -0.65625,-2.65625c0,-0.98958 0.22396,-1.875 0.67188,-2.65625c0.45833,-0.79167 1.07813,-1.41146 1.85938,-1.85937c0.78125,-0.45833 1.66667,-0.6875 2.65625,-0.6875c0.97917,0 1.85417,0.22917 2.625,0.6875c0.78125,0.44792 1.40104,1.06771 1.85938,1.85938c0.45833,0.78125 0.69271,1.66667 0.70313,2.65625l-0.57812,0.45313c0,0.89583 -0.20833,1.70313 -0.625,2.42188c-0.41667,0.70833 -0.98437,1.27083 -1.70312,1.6875c-0.71875,0.41667 -1.53125,0.625 -2.4375,0.625zM261.55207,172.85156c0.71875,0 1.35938,-0.16667 1.92188,-0.5c0.57292,-0.33333 1.02083,-0.79687 1.34375,-1.39062c0.33333,-0.59375 0.5,-1.25521 0.5,-1.98437c0,-0.75 -0.16667,-1.41667 -0.5,-2c-0.32292,-0.58333 -0.77083,-1.04687 -1.34375,-1.39062c-0.5625,-0.34375 -1.20312,-0.51562 -1.92187,-0.51562c-0.70833,0 -1.34896,0.17188 -1.92187,0.51563c-0.57292,0.34375 -1.03125,0.80729 -1.375,1.39063c-0.33333,0.58333 -0.5,1.25 -0.5,2c0,0.72917 0.16667,1.39063 0.5,1.98438c0.34375,0.59375 0.80208,1.05729 1.375,1.39063c0.57292,0.33333 1.21354,0.5 1.92188,0.5zM266.00519,174.07031c-0.20833,0 -0.38021,-0.0625 -0.51562,-0.1875c-0.13542,-0.13542 -0.20312,-0.30729 -0.20312,-0.51562v-3.20312l0.34375,-1.46875l1.10938,0.28125v4.39063c0,0.20833 -0.07292,0.38021 -0.21875,0.51563c-0.13542,0.125 -0.30729,0.1875 -0.51562,0.1875zM271.72922,174.07031c-0.48958,0 -0.93229,-0.13542 -1.32812,-0.40625c-0.39583,-0.28125 -0.70312,-0.66146 -0.92187,-1.14062c-0.20833,-0.48958 -0.3125,-1.05208 -0.3125,-1.6875v-10.625c0,-0.20833 0.0625,-0.38021 0.1875,-0.51562c0.13542,-0.13542 0.30729,-0.20312 0.51563,-0.20312c0.20833,0 0.375,0.06771 0.5,0.20313c0.13542,0.13542 0.20313,0.30729 0.20313,0.51563v10.625c0,0.54167 0.10938,0.97917 0.32813,1.3125c0.21875,0.33333 0.49479,0.5 0.82813,0.5h0.46875c0.1875,0 0.33854,0.06771 0.45313,0.20313c0.11458,0.125 0.17188,0.29688 0.17188,0.51563c0,0.20833 -0.07812,0.38021 -0.23437,0.51563c-0.15625,0.125 -0.35937,0.1875 -0.60937,0.1875zM283.83158,174.16406c-0.73958,0 -1.46875,-0.125 -2.1875,-0.375c-0.71875,-0.25 -1.30208,-0.625 -1.75,-1.125c-0.14583,-0.14583 -0.20833,-0.3125 -0.1875,-0.5c0.03125,-0.1875 0.13021,-0.34896 0.29688,-0.48437c0.16667,-0.125 0.34375,-0.17187 0.53125,-0.14062c0.1875,0.02083 0.34375,0.09896 0.46875,0.23438c0.30208,0.35417 0.69792,0.625 1.1875,0.8125c0.48958,0.17708 1.03646,0.26563 1.64063,0.26563c0.91667,0 1.57813,-0.15625 1.98438,-0.46875c0.41667,-0.32292 0.63021,-0.70312 0.64063,-1.14062c0,-0.44792 -0.21354,-0.81771 -0.64062,-1.10937c-0.41667,-0.30208 -1.10937,-0.53125 -2.07812,-0.6875c-1.26042,-0.19792 -2.18229,-0.54687 -2.76562,-1.04687c-0.58333,-0.5 -0.875,-1.08854 -0.875,-1.76562c0,-0.63542 0.16667,-1.16146 0.5,-1.57812c0.33333,-0.42708 0.78125,-0.74479 1.34375,-0.95312c0.5625,-0.21875 1.17708,-0.32812 1.84375,-0.32812c0.83333,0 1.55208,0.14583 2.15625,0.4375c0.60417,0.28125 1.09375,0.66146 1.46875,1.14063c0.125,0.16667 0.17188,0.33854 0.14063,0.51563c-0.02083,0.16667 -0.11979,0.30729 -0.29687,0.42188c-0.14583,0.08333 -0.31771,0.10938 -0.51562,0.07813c-0.1875,-0.03125 -0.34896,-0.11979 -0.48437,-0.26562c-0.3125,-0.35417 -0.67708,-0.61458 -1.09375,-0.78125c-0.40625,-0.17708 -0.875,-0.26562 -1.40625,-0.26562c-0.6875,0 -1.23958,0.14063 -1.65625,0.42188c-0.40625,0.28125 -0.60937,0.63542 -0.60937,1.0625c0,0.28125 0.07813,0.53125 0.23438,0.75c0.15625,0.20833 0.42188,0.39583 0.79688,0.5625c0.38542,0.15625 0.92188,0.28646 1.60938,0.39063c0.92708,0.15625 1.66146,0.38021 2.20313,0.67188c0.54167,0.29167 0.92708,0.63542 1.15625,1.03125c0.22917,0.38542 0.34375,0.80729 0.34375,1.26563c0,0.58333 -0.17187,1.09896 -0.51562,1.54688c-0.33333,0.4375 -0.80208,0.78125 -1.40625,1.03125c-0.60417,0.25 -1.29687,0.375 -2.07812,0.375zM292.5123,174.07031c-0.48958,0 -0.93229,-0.13542 -1.32812,-0.40625c-0.39583,-0.28125 -0.70312,-0.66146 -0.92187,-1.14062c-0.20833,-0.48958 -0.3125,-1.05208 -0.3125,-1.6875v-10.625c0,-0.20833 0.0625,-0.38021 0.1875,-0.51562c0.13542,-0.13542 0.30729,-0.20312 0.51563,-0.20312c0.20833,0 0.375,0.06771 0.5,0.20313c0.13542,0.13542 0.20313,0.30729 0.20313,0.51563v10.625c0,0.54167 0.10938,0.97917 0.32813,1.3125c0.21875,0.33333 0.49479,0.5 0.82813,0.5h0.46875c0.1875,0 0.33854,0.06771 0.45313,0.20313c0.11458,0.125 0.17188,0.29688 0.17188,0.51563c0,0.20833 -0.07812,0.38021 -0.23437,0.51563c-0.15625,0.125 -0.35937,0.1875 -0.60937,0.1875zM296.60147,174.07031c-0.21875,0 -0.39583,-0.0625 -0.53125,-0.1875c-0.125,-0.13542 -0.1875,-0.31771 -0.1875,-0.54687v-8.75c0,-0.21875 0.0625,-0.39062 0.1875,-0.51562c0.13542,-0.13542 0.3125,-0.20312 0.53125,-0.20312c0.20833,0 0.38021,0.06771 0.51563,0.20313c0.13542,0.125 0.20313,0.29688 0.20313,0.51563v8.75c0,0.22917 -0.06771,0.41146 -0.20312,0.54688c-0.13542,0.125 -0.30729,0.1875 -0.51562,0.1875zM296.66397,161.92969c-0.28125,0 -0.52083,-0.09896 -0.71875,-0.29687c-0.19792,-0.20833 -0.29687,-0.45312 -0.29687,-0.73437c0,-0.3125 0.10417,-0.55729 0.3125,-0.73437c0.20833,-0.17708 0.44792,-0.26562 0.71875,-0.26562c0.26042,0 0.48958,0.08854 0.6875,0.26563c0.20833,0.17708 0.3125,0.42188 0.3125,0.73438c0,0.28125 -0.09896,0.52604 -0.29687,0.73438c-0.19792,0.19792 -0.4375,0.29688 -0.71875,0.29688zM309.71189,174.07031c-0.20833,0 -0.38021,-0.06771 -0.51562,-0.20312c-0.13542,-0.13542 -0.20312,-0.30208 -0.20312,-0.5v-4.85937c0,-0.77083 -0.14583,-1.40104 -0.4375,-1.89062c-0.29167,-0.5 -0.69271,-0.875 -1.20312,-1.125c-0.5,-0.25 -1.06771,-0.375 -1.70312,-0.375c-0.60417,0 -1.15625,0.11979 -1.65625,0.35938c-0.48958,0.22917 -0.88021,0.55208 -1.17187,0.96875c-0.28125,0.40625 -0.42187,0.86979 -0.42187,1.39063h-1.01562c0.02083,-0.78125 0.22917,-1.47917 0.625,-2.09375c0.40625,-0.61458 0.9375,-1.09896 1.59375,-1.45312c0.65625,-0.35417 1.39063,-0.53125 2.20313,-0.53125c0.875,0 1.66146,0.18229 2.35938,0.54688c0.69792,0.36458 1.25,0.90104 1.65625,1.60938c0.40625,0.70833 0.60938,1.57292 0.60938,2.59375v4.85938c0,0.19792 -0.06771,0.36458 -0.20312,0.5c-0.13542,0.13542 -0.30729,0.20313 -0.51562,0.20313zM301.69626,174.07031c-0.21875,0 -0.39583,-0.0625 -0.53125,-0.1875c-0.13542,-0.13542 -0.20312,-0.30729 -0.20312,-0.51562v-8.78125c0,-0.21875 0.06771,-0.39062 0.20313,-0.51562c0.13542,-0.13542 0.3125,-0.20312 0.53125,-0.20312c0.20833,0 0.375,0.06771 0.5,0.20313c0.13542,0.125 0.20313,0.29688 0.20313,0.51563v8.78125c0,0.20833 -0.06771,0.38021 -0.20312,0.51563c-0.125,0.125 -0.29167,0.1875 -0.5,0.1875zM318.09217,174.16406c-0.97917,0 -1.84896,-0.21875 -2.60937,-0.65625c-0.76042,-0.44792 -1.35417,-1.0625 -1.78125,-1.84375c-0.42708,-0.78125 -0.64062,-1.67708 -0.64062,-2.6875c0,-1.02083 0.22396,-1.92187 0.67188,-2.70312c0.44792,-0.78125 1.0625,-1.39062 1.84375,-1.82812c0.78125,-0.44792 1.67188,-0.67187 2.67188,-0.67187c1,0 1.89063,0.22396 2.67188,0.67188c0.78125,0.4375 1.39063,1.04688 1.82813,1.82813c0.44792,0.78125 0.67708,1.68229 0.6875,2.70313l-0.84375,0.45313c0,0.91667 -0.19271,1.73438 -0.57812,2.45313c-0.38542,0.70833 -0.91667,1.26563 -1.59375,1.67188c-0.67708,0.40625 -1.45312,0.60938 -2.32812,0.60938zM318.27967,178.10156c-0.97917,0 -1.84375,-0.1875 -2.59375,-0.5625c-0.73958,-0.36458 -1.35417,-0.85937 -1.84375,-1.48437c-0.13542,-0.15625 -0.19792,-0.32292 -0.1875,-0.5c0.02083,-0.16667 0.11458,-0.30729 0.28125,-0.42187c0.15625,-0.11458 0.33333,-0.15625 0.53125,-0.125c0.20833,0.04167 0.36458,0.14063 0.46875,0.29688c0.36458,0.44792 0.82813,0.80729 1.39063,1.07813c0.57292,0.27083 1.22917,0.40625 1.96875,0.40625c0.69792,0 1.32813,-0.16667 1.89063,-0.5c0.5625,-0.33333 1.00521,-0.80729 1.32813,-1.42187c0.33333,-0.60417 0.5,-1.31771 0.5,-2.14062v-2.82812l0.54688,-1.09375l0.875,0.17188v3.8125c0,1 -0.22396,1.90104 -0.67187,2.70313c-0.44792,0.80208 -1.05729,1.4375 -1.82812,1.90625c-0.77083,0.46875 -1.65625,0.70313 -2.65625,0.70313zM318.24842,172.85156c0.72917,0 1.375,-0.16146 1.9375,-0.48437c0.57292,-0.33333 1.02083,-0.79167 1.34375,-1.375c0.32292,-0.58333 0.48438,-1.25521 0.48438,-2.01562c0,-0.76042 -0.16146,-1.43229 -0.48437,-2.01562c-0.32292,-0.59375 -0.77083,-1.05729 -1.34375,-1.39062c-0.5625,-0.33333 -1.20833,-0.5 -1.9375,-0.5c-0.73958,0 -1.39583,0.16667 -1.96875,0.5c-0.57292,0.33333 -1.02083,0.79688 -1.34375,1.39063c-0.32292,0.58333 -0.48437,1.25521 -0.48437,2.01563c0,0.76042 0.16146,1.43229 0.48438,2.01563c0.32292,0.58333 0.77083,1.04167 1.34375,1.375c0.57292,0.32292 1.22917,0.48438 1.96875,0.48438z"/><path d="M192.74799,196.16404c-0.98958,0 -1.875,-0.22396 -2.65625,-0.67187c-0.78125,-0.45832 -1.40104,-1.07811 -1.85937,-1.85936c-0.44792,-0.79167 -0.67187,-1.68229 -0.67187,-2.67187c0,-0.97917 0.21875,-1.85937 0.65625,-2.64062c0.44792,-0.79167 1.04688,-1.41146 1.79688,-1.85937c0.76042,-0.45833 1.61979,-0.6875 2.57813,-0.6875c0.83333,0 1.58333,0.17708 2.25,0.53125c0.67708,0.35417 1.22396,0.82292 1.64063,1.40625v-5.48437c0,-0.21875 0.06771,-0.39583 0.20313,-0.53125c0.13542,-0.13542 0.30729,-0.20312 0.51563,-0.20312c0.20833,0 0.38021,0.06771 0.51563,0.20313c0.14583,0.13542 0.21875,0.3125 0.21875,0.53125v8.8125c-0.03125,0.96875 -0.27604,1.84375 -0.73437,2.625c-0.44792,0.77083 -1.0625,1.3802 -1.84375,1.82811c-0.77083,0.44792 -1.64062,0.67188 -2.60937,0.67188zM192.74799,194.85156c0.71875,0 1.35938,-0.16667 1.92188,-0.5c0.57292,-0.34375 1.02083,-0.80729 1.34375,-1.39062c0.33333,-0.59375 0.5,-1.26042 0.5,-2c0,-0.73958 -0.16667,-1.40104 -0.5,-1.98437c-0.32292,-0.59375 -0.77083,-1.05729 -1.34375,-1.39062c-0.5625,-0.34375 -1.20312,-0.51562 -1.92187,-0.51562c-0.70833,0 -1.34896,0.17188 -1.92187,0.51563c-0.57292,0.33333 -1.03125,0.79688 -1.375,1.39063c-0.33333,0.58333 -0.5,1.24479 -0.5,1.98438c0,0.73958 0.16667,1.40625 0.5,2c0.34375,0.58333 0.80208,1.04688 1.375,1.39063c0.57292,0.33333 1.21354,0.5 1.92188,0.5zM201.89108,189.78906c0.03125,-0.77083 0.22917,-1.45833 0.59375,-2.0625c0.375,-0.61458 0.85417,-1.09375 1.4375,-1.4375c0.59375,-0.35417 1.25,-0.53125 1.96875,-0.53125c0.57292,0 1.01563,0.08333 1.32813,0.25c0.3125,0.15625 0.43229,0.39063 0.35938,0.70313c-0.05208,0.1875 -0.14062,0.3125 -0.26562,0.375c-0.11458,0.05208 -0.25521,0.07292 -0.42187,0.0625c-0.16667,-0.01042 -0.35417,-0.02083 -0.5625,-0.03125c-0.69792,-0.0625 -1.31771,0.01042 -1.85937,0.21875c-0.54167,0.19792 -0.97396,0.51042 -1.29687,0.9375c-0.3125,0.42708 -0.46875,0.93229 -0.46875,1.51563zM202.00046,196.07029c-0.22917,0 -0.40625,-0.0625 -0.53125,-0.1875c-0.125,-0.125 -0.1875,-0.29687 -0.1875,-0.51562v-8.79686c0,-0.21875 0.0625,-0.39062 0.1875,-0.51562c0.125,-0.125 0.30208,-0.1875 0.53125,-0.1875c0.21875,0 0.39063,0.0625 0.51563,0.1875c0.125,0.125 0.1875,0.29688 0.1875,0.51563v8.79686c0,0.21875 -0.0625,0.39063 -0.1875,0.51563c-0.125,0.125 -0.29687,0.1875 -0.51562,0.1875zM210.85755,196.07029c-0.21875,0 -0.39583,-0.0625 -0.53125,-0.1875c-0.125,-0.13542 -0.1875,-0.31771 -0.1875,-0.54687v-8.74999c0,-0.21875 0.0625,-0.39062 0.1875,-0.51562c0.13542,-0.13542 0.3125,-0.20312 0.53125,-0.20312c0.20833,0 0.38021,0.06771 0.51563,0.20313c0.13542,0.125 0.20313,0.29688 0.20313,0.51563v8.74999c0,0.22917 -0.06771,0.41146 -0.20312,0.54688c-0.13542,0.125 -0.30729,0.1875 -0.51562,0.1875zM210.92005,183.92968c-0.28125,0 -0.52083,-0.09896 -0.71875,-0.29687c-0.19792,-0.20833 -0.29687,-0.45312 -0.29687,-0.73437c0,-0.3125 0.10417,-0.55729 0.3125,-0.73437c0.20833,-0.17708 0.44792,-0.26562 0.71875,-0.26562c0.26042,0 0.48958,0.08854 0.6875,0.26563c0.20833,0.17708 0.3125,0.42188 0.3125,0.73438c0,0.28125 -0.09896,0.52604 -0.29687,0.73438c-0.19792,0.19792 -0.4375,0.29688 -0.71875,0.29688zM216.49921,196.07029c-0.1875,0 -0.35417,-0.0625 -0.5,-0.1875c-0.13542,-0.13542 -0.20312,-0.31771 -0.20312,-0.54687v-9.45311c0,-0.875 0.15104,-1.64062 0.45313,-2.29687c0.30208,-0.65625 0.74479,-1.16667 1.32813,-1.53125c0.58333,-0.375 1.29688,-0.5625 2.14063,-0.5625c0.21875,0 0.39583,0.0625 0.53125,0.1875c0.13542,0.125 0.20313,0.28125 0.20313,0.46875c0,0.1875 -0.06771,0.34375 -0.20312,0.46875c-0.13542,0.125 -0.3125,0.1875 -0.53125,0.1875c-0.5625,0 -1.02604,0.13021 -1.39062,0.39063c-0.36458,0.25 -0.64062,0.60417 -0.82812,1.0625c-0.17708,0.44792 -0.26562,0.96354 -0.26562,1.54688v9.53124c0,0.22917 -0.06771,0.41146 -0.20312,0.54688c-0.125,0.125 -0.30208,0.1875 -0.53125,0.1875zM214.60858,187.49218c-0.19792,0 -0.35937,-0.05729 -0.48437,-0.17187c-0.11458,-0.125 -0.17187,-0.27604 -0.17187,-0.45312c0,-0.1875 0.05729,-0.33854 0.17188,-0.45312c0.125,-0.11458 0.28646,-0.17187 0.48438,-0.17187h4.875c0.19792,0 0.35417,0.05729 0.46875,0.17188c0.11458,0.11458 0.17188,0.26563 0.17188,0.45313c0,0.17708 -0.05729,0.32813 -0.17187,0.45313c-0.11458,0.11458 -0.27083,0.17188 -0.46875,0.17188zM226.04614,196.07029c-0.65625,0 -1.24479,-0.15625 -1.76562,-0.46875c-0.51042,-0.31249 -0.91667,-0.73957 -1.21875,-1.28123c-0.30208,-0.54167 -0.45312,-1.15625 -0.45312,-1.84375v-9.125c0,-0.21875 0.0625,-0.39583 0.1875,-0.53125c0.13542,-0.13542 0.3125,-0.20312 0.53125,-0.20312c0.20833,0 0.38021,0.06771 0.51563,0.20313c0.13542,0.13542 0.20313,0.3125 0.20313,0.53125v9.125c0,0.625 0.1875,1.14063 0.5625,1.54688c0.375,0.40625 0.85417,0.60938 1.4375,0.60938h0.5c0.19792,0 0.35938,0.06771 0.48438,0.20313c0.125,0.13542 0.1875,0.31249 0.1875,0.53123c0,0.20833 -0.07292,0.38021 -0.21875,0.51563c-0.14583,0.125 -0.33333,0.1875 -0.5625,0.1875h-0.39062zM221.40552,187.49218c-0.1875,0 -0.34375,-0.05729 -0.46875,-0.17187c-0.125,-0.125 -0.1875,-0.27604 -0.1875,-0.45312c0,-0.1875 0.0625,-0.33854 0.1875,-0.45312c0.125,-0.11458 0.28125,-0.17187 0.46875,-0.17187h4.75c0.1875,0 0.34375,0.05729 0.46875,0.17188c0.125,0.11458 0.1875,0.26563 0.1875,0.45313c0,0.17708 -0.0625,0.32813 -0.1875,0.45313c-0.125,0.11458 -0.28125,0.17188 -0.46875,0.17188zM234.18659,196.16404c-1.01042,0 -1.90625,-0.21875 -2.6875,-0.65625c-0.77083,-0.44791 -1.38021,-1.06248 -1.82812,-1.84373c-0.4375,-0.78125 -0.65625,-1.67708 -0.65625,-2.6875c0,-1.02083 0.20833,-1.91667 0.625,-2.6875c0.41667,-0.78125 0.98958,-1.39583 1.71875,-1.84375c0.73958,-0.44792 1.58854,-0.67187 2.54688,-0.67187c0.9375,0 1.75521,0.21354 2.45313,0.64063c0.70833,0.42708 1.25521,1.02083 1.64063,1.78125c0.38542,0.76042 0.57813,1.625 0.57813,2.59375c0,0.19792 -0.0625,0.35938 -0.1875,0.48438c-0.125,0.11458 -0.28646,0.17188 -0.48437,0.17188h-7.92187v-1.20312h8.07813l-0.79687,0.57813c0.01042,-0.71875 -0.125,-1.36458 -0.40625,-1.9375c-0.27083,-0.57292 -0.65625,-1.02083 -1.15625,-1.34375c-0.5,-0.32292 -1.09896,-0.48437 -1.79687,-0.48437c-0.70833,0 -1.33333,0.17188 -1.875,0.51563c-0.53125,0.33333 -0.94271,0.79688 -1.23437,1.39063c-0.29167,0.58333 -0.4375,1.25521 -0.4375,2.01563c0,0.76042 0.16146,1.43229 0.48438,2.01563c0.33333,0.58333 0.78646,1.04688 1.35938,1.39063c0.57292,0.33333 1.23438,0.5 1.98438,0.5c0.44792,0 0.89583,-0.07812 1.34375,-0.23437c0.45833,-0.15625 0.82292,-0.35417 1.09375,-0.59375c0.13542,-0.11458 0.29167,-0.17187 0.46875,-0.17187c0.17708,-0.01042 0.32292,0.03646 0.4375,0.14063c0.16667,0.14583 0.25,0.30729 0.25,0.48438c0.01042,0.16667 -0.05729,0.3125 -0.20312,0.4375c-0.41667,0.35416 -0.94271,0.64582 -1.57812,0.87498c-0.625,0.22917 -1.22917,0.34375 -1.8125,0.34375zM241.61026,189.78906c0.03125,-0.77083 0.22917,-1.45833 0.59375,-2.0625c0.375,-0.61458 0.85417,-1.09375 1.4375,-1.4375c0.59375,-0.35417 1.25,-0.53125 1.96875,-0.53125c0.57292,0 1.01563,0.08333 1.32813,0.25c0.3125,0.15625 0.43229,0.39063 0.35938,0.70313c-0.05208,0.1875 -0.14062,0.3125 -0.26562,0.375c-0.11458,0.05208 -0.25521,0.07292 -0.42187,0.0625c-0.16667,-0.01042 -0.35417,-0.02083 -0.5625,-0.03125c-0.69792,-0.0625 -1.31771,0.01042 -1.85937,0.21875c-0.54167,0.19792 -0.97396,0.51042 -1.29687,0.9375c-0.3125,0.42708 -0.46875,0.93229 -0.46875,1.51563zM241.71964,196.07029c-0.22917,0 -0.40625,-0.0625 -0.53125,-0.1875c-0.125,-0.125 -0.1875,-0.29687 -0.1875,-0.51562v-8.79686c0,-0.21875 0.0625,-0.39062 0.1875,-0.51562c0.125,-0.125 0.30208,-0.1875 0.53125,-0.1875c0.21875,0 0.39063,0.0625 0.51563,0.1875c0.125,0.125 0.1875,0.29688 0.1875,0.51563v8.79686c0,0.21875 -0.0625,0.39063 -0.1875,0.51563c-0.125,0.125 -0.29687,0.1875 -0.51562,0.1875zM250.41715,188.22656c-0.30208,0 -0.5625,-0.09896 -0.78125,-0.29687c-0.21875,-0.20833 -0.32812,-0.46875 -0.32812,-0.78125c0,-0.3125 0.10417,-0.57292 0.3125,-0.78125c0.21875,-0.20833 0.48438,-0.3125 0.79688,-0.3125c0.29167,0 0.54167,0.10938 0.75,0.32813c0.20833,0.20833 0.3125,0.46354 0.3125,0.76563c0,0.30208 -0.10417,0.55729 -0.3125,0.76563c-0.20833,0.20833 -0.45833,0.3125 -0.75,0.3125zM250.6359,196.36717c-0.30208,0 -0.55729,-0.10417 -0.76562,-0.3125c-0.20833,-0.20833 -0.3125,-0.46354 -0.3125,-0.76562c0,-0.31249 0.10417,-0.5729 0.3125,-0.78123c0.21875,-0.21875 0.47396,-0.32812 0.76563,-0.32812c0.30208,0 0.55729,0.10938 0.76563,0.32813c0.20833,0.21875 0.3125,0.47916 0.3125,0.78123c0,0.28125 -0.10417,0.53125 -0.3125,0.75c-0.19792,0.21875 -0.45312,0.32813 -0.76562,0.32813zM261.16202,200.50779c-0.10417,0 -0.21875,-0.02604 -0.34375,-0.07812c-0.41667,-0.1875 -0.53125,-0.48437 -0.34375,-0.89062l6.01563,-13.28124c0.1875,-0.39583 0.48438,-0.51042 0.89063,-0.34375c0.42708,0.17708 0.54688,0.47396 0.35938,0.89063l-6.04687,13.28124c-0.125,0.28125 -0.30208,0.42188 -0.53125,0.42188zM263.22452,195.75779c-0.1875,0.08333 -0.36458,0.09896 -0.53125,0.04688c-0.15625,-0.0625 -0.28125,-0.1875 -0.375,-0.375l-4.17187,-8.60936c-0.08333,-0.1875 -0.09375,-0.35937 -0.03125,-0.51562c0.0625,-0.16667 0.1875,-0.29687 0.375,-0.39062c0.1875,-0.08333 0.35938,-0.09375 0.51563,-0.03125c0.16667,0.05208 0.29167,0.17188 0.375,0.35938l4.09375,8.60938c0.09375,0.1875 0.11979,0.36458 0.07813,0.53123c-0.03125,0.15625 -0.14062,0.28125 -0.32812,0.375zM273.90296,196.16404c-1,0 -1.89062,-0.22396 -2.67187,-0.67187c-0.78125,-0.44791 -1.39583,-1.06248 -1.84375,-1.84373c-0.44792,-0.78125 -0.67187,-1.67187 -0.67187,-2.67187c0,-1.01042 0.22396,-1.90625 0.67188,-2.6875c0.44792,-0.78125 1.0625,-1.39583 1.84375,-1.84375c0.78125,-0.44792 1.67188,-0.67187 2.67188,-0.67187c0.98958,0 1.875,0.22396 2.65625,0.67188c0.78125,0.44792 1.39583,1.0625 1.84375,1.84375c0.44792,0.78125 0.67708,1.67708 0.6875,2.6875c0,1 -0.22917,1.89063 -0.6875,2.67188c-0.44792,0.78125 -1.0625,1.39583 -1.84375,1.84373c-0.78125,0.44792 -1.66667,0.67188 -2.65625,0.67188zM273.90296,194.85156c0.71875,0 1.36458,-0.16667 1.9375,-0.5c0.57292,-0.33333 1.02083,-0.79167 1.34375,-1.375c0.32292,-0.58333 0.48438,-1.25 0.48438,-2c0,-0.75 -0.16146,-1.41667 -0.48437,-2c-0.32292,-0.59375 -0.77083,-1.05729 -1.34375,-1.39062c-0.57292,-0.34375 -1.21875,-0.51562 -1.9375,-0.51562c-0.71875,0 -1.36458,0.17188 -1.9375,0.51563c-0.57292,0.33333 -1.02604,0.79688 -1.35937,1.39063c-0.33333,0.58333 -0.5,1.25 -0.5,2c0,0.75 0.16667,1.41667 0.5,2c0.33333,0.58333 0.78646,1.04167 1.35938,1.375c0.57292,0.33333 1.21875,0.5 1.9375,0.5zM286.33011,196.17967c-0.88542,0 -1.67708,-0.18229 -2.375,-0.54687c-0.69792,-0.36457 -1.25,-0.90103 -1.65625,-1.60936c-0.39583,-0.70833 -0.59375,-1.57292 -0.59375,-2.59375v-4.85937c0,-0.19792 0.06771,-0.36458 0.20313,-0.5c0.13542,-0.13542 0.30208,-0.20312 0.5,-0.20312c0.20833,0 0.38021,0.06771 0.51563,0.20313c0.13542,0.13542 0.20313,0.30208 0.20313,0.5v4.85938c0,0.77083 0.14583,1.40625 0.4375,1.90625c0.30208,0.48958 0.70313,0.85938 1.20313,1.10938c0.5,0.25 1.06771,0.375 1.70313,0.375c0.61458,0 1.16667,-0.11458 1.65625,-0.34375c0.48958,-0.23958 0.875,-0.5625 1.15625,-0.96875c0.29167,-0.41667 0.4375,-0.88542 0.4375,-1.40625h1.03125c-0.04167,0.78125 -0.26042,1.47917 -0.65625,2.09375c-0.38542,0.61458 -0.91146,1.09895 -1.57812,1.45311c-0.65625,0.35417 -1.38542,0.53125 -2.1875,0.53125zM290.42386,196.07029c-0.20833,0 -0.38021,-0.0625 -0.51562,-0.1875c-0.125,-0.13542 -0.1875,-0.31771 -0.1875,-0.54687v-8.76561c0,-0.20833 0.0625,-0.375 0.1875,-0.5c0.13542,-0.13542 0.30729,-0.20312 0.51563,-0.20312c0.21875,0 0.39583,0.06771 0.53125,0.20313c0.13542,0.125 0.20313,0.29167 0.20313,0.5v8.76561c0,0.22917 -0.06771,0.41146 -0.20312,0.54688c-0.13542,0.125 -0.3125,0.1875 -0.53125,0.1875z"/></g></g></g></svg>