<svg version="1.1" xmlns="http://www.w3.org/2000/svg" xmlns:xlink="http://www.w3.org/1999/xlink" width="199.99777" height="14.70316" viewBox="0,0,199.99777,14.70316"><g transform="translate(-140.00111,-172.64842)"><g data-paper-data="{&quot;isPaintingLayer&quot;:true}" fill="#000000" fill-rule="nonzero" stroke="none" stroke-width="1" stroke-linecap="square" stroke-linejoin="miter" stroke-miterlimit="10" stroke-dasharray="" stroke-dashoffset="0" style="mix-blend-mode: normal"><path d="M140.82924,187.24216c-0.23958,0 -0.4375,-0.0625 -0.59375,-0.1875c-0.15625,-0.13542 -0.23437,-0.31771 -0.23437,-0.54687v-13.10937c0,-0.20833 0.06771,-0.38021 0.20313,-0.51562c0.14583,-0.14583 0.32292,-0.21875 0.53125,-0.21875h4.53125c0.75,0 1.42708,0.16146 2.03125,0.48438c0.60417,0.3125 1.08333,0.74479 1.4375,1.29688c0.35417,0.54167 0.53125,1.17708 0.53125,1.90625c0,0.66667 -0.18229,1.26042 -0.54687,1.78125c-0.36458,0.52083 -0.83854,0.92188 -1.42187,1.20313c0.83333,0.21875 1.50521,0.63542 2.01563,1.25c0.51042,0.61458 0.76563,1.39583 0.76563,2.34375c0,0.84375 -0.19271,1.59375 -0.57812,2.25c-0.38542,0.64583 -0.91667,1.15104 -1.59375,1.51563c-0.67708,0.36458 -1.45312,0.54688 -2.32812,0.54688zM141.46987,185.83591h4.10938c0.60417,0 1.13542,-0.11458 1.59375,-0.34375c0.45833,-0.23958 0.81771,-0.57812 1.07813,-1.01562c0.26042,-0.4375 0.39063,-0.95312 0.39063,-1.54687c0,-0.5625 -0.13021,-1.05208 -0.39062,-1.46875c-0.26042,-0.41667 -0.61979,-0.73958 -1.07812,-0.96875c-0.45833,-0.22917 -0.98958,-0.34375 -1.59375,-0.34375h-4.10937zM141.46987,178.75779h3.79688c0.75,0 1.36458,-0.20833 1.84375,-0.625c0.48958,-0.42708 0.73438,-1.02083 0.73438,-1.78125c0,-0.75 -0.24479,-1.31771 -0.73437,-1.70312c-0.47917,-0.38542 -1.09375,-0.57812 -1.84375,-0.57812h-3.79687zM157.42034,187.33591c-1.01042,0 -1.90625,-0.21875 -2.6875,-0.65625c-0.77083,-0.44792 -1.38021,-1.0625 -1.82812,-1.84375c-0.4375,-0.78125 -0.65625,-1.67708 -0.65625,-2.6875c0,-1.02083 0.20833,-1.91667 0.625,-2.6875c0.41667,-0.78125 0.98958,-1.39583 1.71875,-1.84375c0.73958,-0.44792 1.58854,-0.67187 2.54688,-0.67187c0.9375,0 1.75521,0.21354 2.45313,0.64063c0.70833,0.42708 1.25521,1.02083 1.64063,1.78125c0.38542,0.76042 0.57813,1.625 0.57813,2.59375c0,0.19792 -0.0625,0.35938 -0.1875,0.48438c-0.125,0.11458 -0.28646,0.17188 -0.48437,0.17188h-7.92187v-1.20312h8.07813l-0.79687,0.57813c0.01042,-0.71875 -0.125,-1.36458 -0.40625,-1.9375c-0.27083,-0.57292 -0.65625,-1.02083 -1.15625,-1.34375c-0.5,-0.32292 -1.09896,-0.48437 -1.79687,-0.48437c-0.70833,0 -1.33333,0.17188 -1.875,0.51563c-0.53125,0.33333 -0.94271,0.79688 -1.23437,1.39063c-0.29167,0.58333 -0.4375,1.25521 -0.4375,2.01563c0,0.76042 0.16146,1.43229 0.48438,2.01563c0.33333,0.58333 0.78646,1.04688 1.35938,1.39063c0.57292,0.33333 1.23438,0.5 1.98438,0.5c0.44792,0 0.89583,-0.07812 1.34375,-0.23437c0.45833,-0.15625 0.82292,-0.35417 1.09375,-0.59375c0.13542,-0.11458 0.29167,-0.17187 0.46875,-0.17187c0.17708,-0.01042 0.32292,0.03646 0.4375,0.14063c0.16667,0.14583 0.25,0.30729 0.25,0.48438c0.01042,0.16667 -0.05729,0.3125 -0.20312,0.4375c-0.41667,0.35417 -0.94271,0.64583 -1.57812,0.875c-0.625,0.22917 -1.22917,0.34375 -1.8125,0.34375zM168.23465,187.24216c-0.65625,0 -1.24479,-0.15625 -1.76562,-0.46875c-0.51042,-0.3125 -0.91667,-0.73958 -1.21875,-1.28125c-0.30208,-0.54167 -0.45312,-1.15625 -0.45312,-1.84375v-9.125c0,-0.21875 0.0625,-0.39583 0.1875,-0.53125c0.13542,-0.13542 0.3125,-0.20312 0.53125,-0.20312c0.20833,0 0.38021,0.06771 0.51563,0.20313c0.13542,0.13542 0.20313,0.3125 0.20313,0.53125v9.125c0,0.625 0.1875,1.14063 0.5625,1.54688c0.375,0.40625 0.85417,0.60938 1.4375,0.60938h0.5c0.19792,0 0.35938,0.06771 0.48438,0.20313c0.125,0.13542 0.1875,0.3125 0.1875,0.53125c0,0.20833 -0.07292,0.38021 -0.21875,0.51563c-0.14583,0.125 -0.33333,0.1875 -0.5625,0.1875zM163.59403,178.66404c-0.1875,0 -0.34375,-0.05729 -0.46875,-0.17187c-0.125,-0.125 -0.1875,-0.27604 -0.1875,-0.45312c0,-0.1875 0.0625,-0.33854 0.1875,-0.45312c0.125,-0.11458 0.28125,-0.17187 0.46875,-0.17187h4.75c0.1875,0 0.34375,0.05729 0.46875,0.17188c0.125,0.11458 0.1875,0.26563 0.1875,0.45313c0,0.17708 -0.0625,0.32813 -0.1875,0.45313c-0.125,0.11458 -0.28125,0.17188 -0.46875,0.17188zM175.73447,187.24216c-0.65625,0 -1.24479,-0.15625 -1.76562,-0.46875c-0.51042,-0.3125 -0.91667,-0.73958 -1.21875,-1.28125c-0.30208,-0.54167 -0.45312,-1.15625 -0.45312,-1.84375v-9.125c0,-0.21875 0.0625,-0.39583 0.1875,-0.53125c0.13542,-0.13542 0.3125,-0.20312 0.53125,-0.20312c0.20833,0 0.38021,0.06771 0.51563,0.20313c0.13542,0.13542 0.20313,0.3125 0.20313,0.53125v9.125c0,0.625 0.1875,1.14063 0.5625,1.54688c0.375,0.40625 0.85417,0.60938 1.4375,0.60938h0.5c0.19792,0 0.35938,0.06771 0.48438,0.20313c0.125,0.13542 0.1875,0.3125 0.1875,0.53125c0,0.20833 -0.07292,0.38021 -0.21875,0.51563c-0.14583,0.125 -0.33333,0.1875 -0.5625,0.1875zM171.09384,178.66404c-0.1875,0 -0.34375,-0.05729 -0.46875,-0.17187c-0.125,-0.125 -0.1875,-0.27604 -0.1875,-0.45312c0,-0.1875 0.0625,-0.33854 0.1875,-0.45312c0.125,-0.11458 0.28125,-0.17187 0.46875,-0.17187h4.75c0.1875,0 0.34375,0.05729 0.46875,0.17188c0.125,0.11458 0.1875,0.26563 0.1875,0.45313c0,0.17708 -0.0625,0.32813 -0.1875,0.45313c-0.125,0.11458 -0.28125,0.17188 -0.46875,0.17188zM183.87491,187.33591c-1.01042,0 -1.90625,-0.21875 -2.6875,-0.65625c-0.77083,-0.44792 -1.38021,-1.0625 -1.82812,-1.84375c-0.4375,-0.78125 -0.65625,-1.67708 -0.65625,-2.6875c0,-1.02083 0.20833,-1.91667 0.625,-2.6875c0.41667,-0.78125 0.98958,-1.39583 1.71875,-1.84375c0.73958,-0.44792 1.58854,-0.67187 2.54688,-0.67187c0.9375,0 1.75521,0.21354 2.45313,0.64063c0.70833,0.42708 1.25521,1.02083 1.64063,1.78125c0.38542,0.76042 0.57813,1.625 0.57813,2.59375c0,0.19792 -0.0625,0.35938 -0.1875,0.48438c-0.125,0.11458 -0.28646,0.17188 -0.48437,0.17188h-7.92187v-1.20312h8.07813l-0.79687,0.57813c0.01042,-0.71875 -0.125,-1.36458 -0.40625,-1.9375c-0.27083,-0.57292 -0.65625,-1.02083 -1.15625,-1.34375c-0.5,-0.32292 -1.09896,-0.48437 -1.79687,-0.48437c-0.70833,0 -1.33333,0.17188 -1.875,0.51563c-0.53125,0.33333 -0.94271,0.79688 -1.23437,1.39063c-0.29167,0.58333 -0.4375,1.25521 -0.4375,2.01563c0,0.76042 0.16146,1.43229 0.48438,2.01563c0.33333,0.58333 0.78646,1.04688 1.35938,1.39063c0.57292,0.33333 1.23438,0.5 1.98438,0.5c0.44792,0 0.89583,-0.07812 1.34375,-0.23437c0.45833,-0.15625 0.82292,-0.35417 1.09375,-0.59375c0.13542,-0.11458 0.29167,-0.17187 0.46875,-0.17187c0.17708,-0.01042 0.32292,0.03646 0.4375,0.14063c0.16667,0.14583 0.25,0.30729 0.25,0.48438c0.01042,0.16667 -0.05729,0.3125 -0.20312,0.4375c-0.41667,0.35417 -0.94271,0.64583 -1.57812,0.875c-0.625,0.22917 -1.22917,0.34375 -1.8125,0.34375zM191.2986,180.96091c0.03125,-0.77083 0.22917,-1.45833 0.59375,-2.0625c0.375,-0.61458 0.85417,-1.09375 1.4375,-1.4375c0.59375,-0.35417 1.25,-0.53125 1.96875,-0.53125c0.57292,0 1.01563,0.08333 1.32813,0.25c0.3125,0.15625 0.43229,0.39063 0.35938,0.70313c-0.05208,0.1875 -0.14062,0.3125 -0.26562,0.375c-0.11458,0.05208 -0.25521,0.07292 -0.42187,0.0625c-0.16667,-0.01042 -0.35417,-0.02083 -0.5625,-0.03125c-0.69792,-0.0625 -1.31771,0.01042 -1.85937,0.21875c-0.54167,0.19792 -0.97396,0.51042 -1.29687,0.9375c-0.3125,0.42708 -0.46875,0.93229 -0.46875,1.51563zM191.40798,187.24216c-0.22917,0 -0.40625,-0.0625 -0.53125,-0.1875c-0.125,-0.125 -0.1875,-0.29687 -0.1875,-0.51562v-8.79687c0,-0.21875 0.0625,-0.39062 0.1875,-0.51562c0.125,-0.125 0.30208,-0.1875 0.53125,-0.1875c0.21875,0 0.39063,0.0625 0.51563,0.1875c0.125,0.125 0.1875,0.29688 0.1875,0.51563v8.79688c0,0.21875 -0.0625,0.39063 -0.1875,0.51563c-0.125,0.125 -0.29687,0.1875 -0.51562,0.1875zM206.9032,187.24216c-0.48958,0 -0.93229,-0.13542 -1.32812,-0.40625c-0.39583,-0.28125 -0.70312,-0.66146 -0.92187,-1.14062c-0.20833,-0.48958 -0.3125,-1.05208 -0.3125,-1.6875v-10.625c0,-0.20833 0.0625,-0.38021 0.1875,-0.51562c0.13542,-0.13542 0.30729,-0.20312 0.51563,-0.20312c0.20833,0 0.375,0.06771 0.5,0.20313c0.13542,0.13542 0.20313,0.30729 0.20313,0.51563v10.625c0,0.54167 0.10938,0.97917 0.32813,1.3125c0.21875,0.33333 0.49479,0.5 0.82813,0.5h0.46875c0.1875,0 0.33854,0.06771 0.45313,0.20313c0.11458,0.125 0.17188,0.29688 0.17188,0.51563c0,0.20833 -0.07812,0.38021 -0.23437,0.51563c-0.15625,0.125 -0.35937,0.1875 -0.60937,0.1875zM214.41426,187.35154c-0.88542,0 -1.67708,-0.18229 -2.375,-0.54687c-0.69792,-0.36458 -1.25,-0.90104 -1.65625,-1.60937c-0.39583,-0.70833 -0.59375,-1.57292 -0.59375,-2.59375v-4.85937c0,-0.19792 0.06771,-0.36458 0.20313,-0.5c0.13542,-0.13542 0.30208,-0.20312 0.5,-0.20312c0.20833,0 0.38021,0.06771 0.51563,0.20313c0.13542,0.13542 0.20313,0.30208 0.20313,0.5v4.85938c0,0.77083 0.14583,1.40625 0.4375,1.90625c0.30208,0.48958 0.70313,0.85938 1.20313,1.10938c0.5,0.25 1.06771,0.375 1.70313,0.375c0.61458,0 1.16667,-0.11458 1.65625,-0.34375c0.48958,-0.23958 0.875,-0.5625 1.15625,-0.96875c0.29167,-0.41667 0.4375,-0.88542 0.4375,-1.40625h1.03125c-0.04167,0.78125 -0.26042,1.47917 -0.65625,2.09375c-0.38542,0.61458 -0.91146,1.09896 -1.57812,1.45313c-0.65625,0.35417 -1.38542,0.53125 -2.1875,0.53125zM218.50801,187.24216c-0.20833,0 -0.38021,-0.0625 -0.51562,-0.1875c-0.125,-0.13542 -0.1875,-0.31771 -0.1875,-0.54687v-8.76562c0,-0.20833 0.0625,-0.375 0.1875,-0.5c0.13542,-0.13542 0.30729,-0.20312 0.51563,-0.20312c0.21875,0 0.39583,0.06771 0.53125,0.20313c0.13542,0.125 0.20313,0.29167 0.20313,0.5v8.76563c0,0.22917 -0.06771,0.41146 -0.20312,0.54688c-0.13542,0.125 -0.3125,0.1875 -0.53125,0.1875zM227.15392,187.33591c-0.98958,0 -1.86458,-0.22396 -2.625,-0.67187c-0.76042,-0.45833 -1.36458,-1.07812 -1.8125,-1.85937c-0.4375,-0.79167 -0.65625,-1.67708 -0.65625,-2.65625c0,-0.98958 0.20833,-1.875 0.625,-2.65625c0.42708,-0.79167 1.00521,-1.41146 1.73438,-1.85937c0.73958,-0.45833 1.58854,-0.6875 2.54688,-0.6875c0.76042,0 1.45833,0.15104 2.09375,0.45313c0.64583,0.29167 1.20833,0.73958 1.6875,1.34375c0.13542,0.14583 0.18229,0.30208 0.14063,0.46875c-0.03125,0.16667 -0.13542,0.3125 -0.3125,0.4375c-0.13542,0.10417 -0.28646,0.14063 -0.45312,0.10938c-0.16667,-0.03125 -0.3125,-0.125 -0.4375,-0.28125c-0.71875,-0.82292 -1.625,-1.23437 -2.71875,-1.23437c-0.69792,0 -1.3125,0.17188 -1.84375,0.51563c-0.52083,0.33333 -0.93229,0.79167 -1.23437,1.375c-0.29167,0.58333 -0.4375,1.25521 -0.4375,2.01563c0,0.75 0.15625,1.41667 0.46875,2c0.3125,0.58333 0.75,1.04167 1.3125,1.375c0.5625,0.33333 1.20313,0.5 1.92188,0.5c0.47917,0 0.92188,-0.0625 1.32813,-0.1875c0.40625,-0.13542 0.76563,-0.33854 1.07813,-0.60937c0.14583,-0.125 0.29688,-0.19271 0.45313,-0.20312c0.16667,-0.01042 0.31771,0.03646 0.45313,0.14063c0.15625,0.14583 0.23958,0.30729 0.25,0.48438c0.02083,0.16667 -0.03646,0.3125 -0.17187,0.4375c-0.90625,0.83333 -2.03646,1.25 -3.39062,1.25zM234.89804,183.82029l-0.875,-0.9375l6.375,-5.76562c0.14583,-0.13542 0.29688,-0.19792 0.45313,-0.1875c0.16667,0 0.31771,0.07292 0.45313,0.21875c0.14583,0.14583 0.21354,0.30729 0.20313,0.48438c-0.01042,0.16667 -0.08854,0.3125 -0.23437,0.4375zM234.42929,187.24216c-0.20833,0 -0.38021,-0.0625 -0.51562,-0.1875c-0.13542,-0.13542 -0.20312,-0.30729 -0.20312,-0.51562v-13.15625c0,-0.20833 0.06771,-0.38021 0.20313,-0.51562c0.13542,-0.13542 0.30729,-0.20312 0.51563,-0.20312c0.20833,0 0.375,0.06771 0.5,0.20313c0.13542,0.13542 0.20313,0.30729 0.20313,0.51563v13.15625c0,0.20833 -0.06771,0.38021 -0.20312,0.51563c-0.125,0.125 -0.29167,0.1875 -0.5,0.1875zM241.33554,187.14841c-0.16667,0.13542 -0.33854,0.19271 -0.51562,0.17188c-0.16667,-0.01042 -0.3125,-0.09896 -0.4375,-0.26562l-4.17187,-5.10937l1.01563,-0.89062l4.20313,5.15625c0.125,0.15625 0.17708,0.31771 0.15625,0.48438c-0.01042,0.16667 -0.09375,0.31771 -0.25,0.45313zM258.59817,187.24216c-0.20833,0 -0.38021,-0.06771 -0.51562,-0.20312c-0.13542,-0.13542 -0.20312,-0.30208 -0.20312,-0.5v-4.85937c0,-0.77083 -0.14583,-1.40104 -0.4375,-1.89062c-0.29167,-0.5 -0.69271,-0.875 -1.20312,-1.125c-0.5,-0.25 -1.06771,-0.375 -1.70312,-0.375c-0.60417,0 -1.15625,0.11979 -1.65625,0.35938c-0.48958,0.22917 -0.88021,0.55208 -1.17187,0.96875c-0.28125,0.40625 -0.42187,0.86979 -0.42187,1.39063h-1.01562c0.02083,-0.78125 0.22917,-1.47917 0.625,-2.09375c0.40625,-0.61458 0.9375,-1.09896 1.59375,-1.45312c0.65625,-0.35417 1.39063,-0.53125 2.20313,-0.53125c0.875,0 1.66146,0.18229 2.35938,0.54688c0.69792,0.36458 1.25,0.90104 1.65625,1.60938c0.40625,0.70833 0.60938,1.57292 0.60938,2.59375v4.85938c0,0.19792 -0.06771,0.36458 -0.20312,0.5c-0.13542,0.13542 -0.30729,0.20313 -0.51562,0.20313zM250.58255,187.24216c-0.21875,0 -0.39583,-0.0625 -0.53125,-0.1875c-0.13542,-0.13542 -0.20312,-0.30729 -0.20312,-0.51562v-8.78125c0,-0.21875 0.06771,-0.39062 0.20313,-0.51562c0.13542,-0.13542 0.3125,-0.20312 0.53125,-0.20312c0.20833,0 0.375,0.06771 0.5,0.20313c0.13542,0.125 0.20313,0.29688 0.20313,0.51563v8.78125c0,0.20833 -0.06771,0.38021 -0.20312,0.51563c-0.125,0.125 -0.29167,0.1875 -0.5,0.1875zM267.11907,187.33591c-1.01042,0 -1.90625,-0.21875 -2.6875,-0.65625c-0.77083,-0.44792 -1.38021,-1.0625 -1.82812,-1.84375c-0.4375,-0.78125 -0.65625,-1.67708 -0.65625,-2.6875c0,-1.02083 0.20833,-1.91667 0.625,-2.6875c0.41667,-0.78125 0.98958,-1.39583 1.71875,-1.84375c0.73958,-0.44792 1.58854,-0.67187 2.54688,-0.67187c0.9375,0 1.75521,0.21354 2.45313,0.64063c0.70833,0.42708 1.25521,1.02083 1.64063,1.78125c0.38542,0.76042 0.57813,1.625 0.57813,2.59375c0,0.19792 -0.0625,0.35938 -0.1875,0.48438c-0.125,0.11458 -0.28646,0.17188 -0.48437,0.17188h-7.92187v-1.20312h8.07813l-0.79687,0.57813c0.01042,-0.71875 -0.125,-1.36458 -0.40625,-1.9375c-0.27083,-0.57292 -0.65625,-1.02083 -1.15625,-1.34375c-0.5,-0.32292 -1.09896,-0.48437 -1.79687,-0.48437c-0.70833,0 -1.33333,0.17188 -1.875,0.51563c-0.53125,0.33333 -0.94271,0.79688 -1.23437,1.39063c-0.29167,0.58333 -0.4375,1.25521 -0.4375,2.01563c0,0.76042 0.16146,1.43229 0.48438,2.01563c0.33333,0.58333 0.78646,1.04688 1.35938,1.39063c0.57292,0.33333 1.23438,0.5 1.98438,0.5c0.44792,0 0.89583,-0.07812 1.34375,-0.23437c0.45833,-0.15625 0.82292,-0.35417 1.09375,-0.59375c0.13542,-0.11458 0.29167,-0.17187 0.46875,-0.17187c0.17708,-0.01042 0.32292,0.03646 0.4375,0.14063c0.16667,0.14583 0.25,0.30729 0.25,0.48438c0.01042,0.16667 -0.05729,0.3125 -0.20312,0.4375c-0.41667,0.35417 -0.94271,0.64583 -1.57812,0.875c-0.625,0.22917 -1.22917,0.34375 -1.8125,0.34375zM280.51404,187.24216c-0.15625,0 -0.28125,-0.02604 -0.375,-0.07812c-0.09375,-0.05208 -0.1875,-0.13542 -0.28125,-0.25l-3.23437,-4.10937l-0.5625,-0.48437l-3.23437,-4.125c-0.13542,-0.16667 -0.20312,-0.33333 -0.20312,-0.5c0.01042,-0.17708 0.06771,-0.32812 0.17188,-0.45312c0.11458,-0.13542 0.27604,-0.20312 0.48438,-0.20312c0.21875,0 0.40104,0.07292 0.54688,0.21875l3.14063,4.01563l0.5,0.40625l3.46875,4.4375c0.16667,0.19792 0.23438,0.38542 0.20313,0.5625c-0.02083,0.17708 -0.09896,0.31771 -0.23437,0.42188c-0.125,0.09375 -0.25521,0.14063 -0.39062,0.14063zM273.12342,187.24216c-0.19792,0 -0.35937,-0.0625 -0.48437,-0.1875c-0.11458,-0.125 -0.17708,-0.27083 -0.1875,-0.4375c0,-0.17708 0.06771,-0.34896 0.20313,-0.51562l3.4375,-4.28125l0.79688,1.0625l-3.26562,4.14063c-0.11458,0.14583 -0.28125,0.21875 -0.5,0.21875zM277.48279,182.39841l-0.90625,-0.9375l3.21875,-4.09375c0.09375,-0.125 0.19271,-0.20833 0.29688,-0.25c0.10417,-0.05208 0.21354,-0.07812 0.32813,-0.07812c0.20833,0 0.36458,0.06771 0.46875,0.20313c0.11458,0.125 0.16667,0.28125 0.15625,0.46875c0,0.17708 -0.0625,0.34375 -0.1875,0.5zM287.59704,187.24216c-0.65625,0 -1.24479,-0.15625 -1.76562,-0.46875c-0.51042,-0.3125 -0.91667,-0.73958 -1.21875,-1.28125c-0.30208,-0.54167 -0.45312,-1.15625 -0.45312,-1.84375v-9.125c0,-0.21875 0.0625,-0.39583 0.1875,-0.53125c0.13542,-0.13542 0.3125,-0.20312 0.53125,-0.20312c0.20833,0 0.38021,0.06771 0.51563,0.20313c0.13542,0.13542 0.20313,0.3125 0.20313,0.53125v9.125c0,0.625 0.1875,1.14063 0.5625,1.54688c0.375,0.40625 0.85417,0.60938 1.4375,0.60938h0.5c0.19792,0 0.35938,0.06771 0.48438,0.20313c0.125,0.13542 0.1875,0.3125 0.1875,0.53125c0,0.20833 -0.07292,0.38021 -0.21875,0.51563c-0.14583,0.125 -0.33333,0.1875 -0.5625,0.1875zM282.95642,178.66404c-0.1875,0 -0.34375,-0.05729 -0.46875,-0.17187c-0.125,-0.125 -0.1875,-0.27604 -0.1875,-0.45312c0,-0.1875 0.0625,-0.33854 0.1875,-0.45312c0.125,-0.11458 0.28125,-0.17187 0.46875,-0.17187h4.75c0.1875,0 0.34375,0.05729 0.46875,0.17188c0.125,0.11458 0.1875,0.26563 0.1875,0.45313c0,0.17708 -0.0625,0.32813 -0.1875,0.45313c-0.125,0.11458 -0.28125,0.17188 -0.46875,0.17188zM300.56314,187.24216c-0.65625,0 -1.24479,-0.15625 -1.76562,-0.46875c-0.51042,-0.3125 -0.91667,-0.73958 -1.21875,-1.28125c-0.30208,-0.54167 -0.45312,-1.15625 -0.45312,-1.84375v-9.125c0,-0.21875 0.0625,-0.39583 0.1875,-0.53125c0.13542,-0.13542 0.3125,-0.20312 0.53125,-0.20312c0.20833,0 0.38021,0.06771 0.51563,0.20313c0.13542,0.13542 0.20313,0.3125 0.20313,0.53125v9.125c0,0.625 0.1875,1.14063 0.5625,1.54688c0.375,0.40625 0.85417,0.60938 1.4375,0.60938h0.5c0.19792,0 0.35938,0.06771 0.48438,0.20313c0.125,0.13542 0.1875,0.3125 0.1875,0.53125c0,0.20833 -0.07292,0.38021 -0.21875,0.51563c-0.14583,0.125 -0.33333,0.1875 -0.5625,0.1875zM295.92251,178.66404c-0.1875,0 -0.34375,-0.05729 -0.46875,-0.17187c-0.125,-0.125 -0.1875,-0.27604 -0.1875,-0.45312c0,-0.1875 0.0625,-0.33854 0.1875,-0.45312c0.125,-0.11458 0.28125,-0.17187 0.46875,-0.17187h4.75c0.1875,0 0.34375,0.05729 0.46875,0.17188c0.125,0.11458 0.1875,0.26563 0.1875,0.45313c0,0.17708 -0.0625,0.32813 -0.1875,0.45313c-0.125,0.11458 -0.28125,0.17188 -0.46875,0.17188zM305.09421,187.24216c-0.21875,0 -0.39583,-0.0625 -0.53125,-0.1875c-0.125,-0.13542 -0.1875,-0.31771 -0.1875,-0.54687v-8.75c0,-0.21875 0.0625,-0.39062 0.1875,-0.51562c0.13542,-0.13542 0.3125,-0.20312 0.53125,-0.20312c0.20833,0 0.38021,0.06771 0.51563,0.20313c0.13542,0.125 0.20313,0.29688 0.20313,0.51563v8.75c0,0.22917 -0.06771,0.41146 -0.20312,0.54688c-0.13542,0.125 -0.30729,0.1875 -0.51562,0.1875zM305.15671,175.10154c-0.28125,0 -0.52083,-0.09896 -0.71875,-0.29687c-0.19792,-0.20833 -0.29687,-0.45312 -0.29687,-0.73437c0,-0.3125 0.10417,-0.55729 0.3125,-0.73437c0.20833,-0.17708 0.44792,-0.26562 0.71875,-0.26562c0.26042,0 0.48958,0.08854 0.6875,0.26563c0.20833,0.17708 0.3125,0.42188 0.3125,0.73438c0,0.28125 -0.09896,0.52604 -0.29687,0.73438c-0.19792,0.19792 -0.4375,0.29688 -0.71875,0.29688zM323.25149,187.24216c-0.20833,0 -0.38542,-0.0625 -0.53125,-0.1875c-0.13542,-0.13542 -0.20312,-0.30729 -0.20312,-0.51562v-5.375c0,-0.88542 -0.22917,-1.58333 -0.6875,-2.09375c-0.45833,-0.52083 -1.04687,-0.78125 -1.76562,-0.78125c-0.77083,0 -1.40625,0.26042 -1.90625,0.78125c-0.48958,0.51042 -0.72917,1.19271 -0.71875,2.04688h-1.28125c0.01042,-0.83333 0.1875,-1.5625 0.53125,-2.1875c0.35417,-0.63542 0.83333,-1.125 1.4375,-1.46875c0.61458,-0.35417 1.30729,-0.53125 2.07813,-0.53125c0.73958,0 1.39063,0.17708 1.95313,0.53125c0.5625,0.34375 1,0.83333 1.3125,1.46875c0.32292,0.625 0.48438,1.36979 0.48438,2.23438v5.375c0,0.20833 -0.06771,0.38021 -0.20312,0.51563c-0.125,0.125 -0.29167,0.1875 -0.5,0.1875zM310.18899,187.24216c-0.21875,0 -0.39583,-0.0625 -0.53125,-0.1875c-0.13542,-0.13542 -0.20312,-0.30729 -0.20312,-0.51562v-8.78125c0,-0.20833 0.06771,-0.38021 0.20313,-0.51562c0.13542,-0.13542 0.3125,-0.20312 0.53125,-0.20312c0.20833,0 0.375,0.06771 0.5,0.20313c0.13542,0.13542 0.20313,0.30729 0.20313,0.51563v8.78125c0,0.20833 -0.06771,0.38021 -0.20312,0.51563c-0.125,0.125 -0.29167,0.1875 -0.5,0.1875zM316.73587,187.24216c-0.20833,0 -0.38021,-0.0625 -0.51562,-0.1875c-0.13542,-0.13542 -0.20312,-0.30729 -0.20312,-0.51562v-5.375c0,-0.88542 -0.23437,-1.58333 -0.70312,-2.09375c-0.45833,-0.52083 -1.04687,-0.78125 -1.76562,-0.78125c-0.77083,0 -1.40625,0.25521 -1.90625,0.76563c-0.5,0.5 -0.75,1.15104 -0.75,1.95313h-1.01562c0.02083,-0.79167 0.19271,-1.49479 0.51563,-2.10937c0.33333,-0.61458 0.78646,-1.09375 1.35938,-1.4375c0.57292,-0.35417 1.21875,-0.53125 1.9375,-0.53125c0.73958,0 1.39063,0.17708 1.95313,0.53125c0.57292,0.34375 1.01563,0.83333 1.32813,1.46875c0.3125,0.625 0.46875,1.36979 0.46875,2.23438v5.375c0,0.20833 -0.06771,0.38021 -0.20312,0.51563c-0.125,0.125 -0.29167,0.1875 -0.5,0.1875zM331.7627,187.33591c-1.01042,0 -1.90625,-0.21875 -2.6875,-0.65625c-0.77083,-0.44792 -1.38021,-1.0625 -1.82812,-1.84375c-0.4375,-0.78125 -0.65625,-1.67708 -0.65625,-2.6875c0,-1.02083 0.20833,-1.91667 0.625,-2.6875c0.41667,-0.78125 0.98958,-1.39583 1.71875,-1.84375c0.73958,-0.44792 1.58854,-0.67187 2.54688,-0.67187c0.9375,0 1.75521,0.21354 2.45313,0.64063c0.70833,0.42708 1.25521,1.02083 1.64063,1.78125c0.38542,0.76042 0.57813,1.625 0.57813,2.59375c0,0.19792 -0.0625,0.35938 -0.1875,0.48438c-0.125,0.11458 -0.28646,0.17188 -0.48437,0.17188h-7.92187v-1.20312h8.07813l-0.79687,0.57813c0.01042,-0.71875 -0.125,-1.36458 -0.40625,-1.9375c-0.27083,-0.57292 -0.65625,-1.02083 -1.15625,-1.34375c-0.5,-0.32292 -1.09896,-0.48437 -1.79687,-0.48437c-0.70833,0 -1.33333,0.17188 -1.875,0.51563c-0.53125,0.33333 -0.94271,0.79688 -1.23437,1.39063c-0.29167,0.58333 -0.4375,1.25521 -0.4375,2.01563c0,0.76042 0.16146,1.43229 0.48438,2.01563c0.33333,0.58333 0.78646,1.04688 1.35938,1.39063c0.57292,0.33333 1.23438,0.5 1.98438,0.5c0.44792,0 0.89583,-0.07812 1.34375,-0.23437c0.45833,-0.15625 0.82292,-0.35417 1.09375,-0.59375c0.13542,-0.11458 0.29167,-0.17187 0.46875,-0.17187c0.17708,-0.01042 0.32292,0.03646 0.4375,0.14063c0.16667,0.14583 0.25,0.30729 0.25,0.48438c0.01042,0.16667 -0.05729,0.3125 -0.20312,0.4375c-0.41667,0.35417 -0.94271,0.64583 -1.57812,0.875c-0.625,0.22917 -1.22917,0.34375 -1.8125,0.34375zM338.92075,183.94529c-0.19792,0 -0.36979,-0.07292 -0.51562,-0.21875c-0.14583,-0.14583 -0.21875,-0.31771 -0.21875,-0.51562v-9.8125c0,-0.20833 0.07292,-0.38542 0.21875,-0.53125c0.14583,-0.14583 0.31771,-0.21875 0.51563,-0.21875c0.20833,0 0.38021,0.07292 0.51563,0.21875c0.14583,0.14583 0.21875,0.32292 0.21875,0.53125v9.8125c0,0.19792 -0.07812,0.36979 -0.23437,0.51563c-0.14583,0.14583 -0.3125,0.21875 -0.5,0.21875zM338.92075,187.24216c-0.30208,0 -0.55729,-0.10417 -0.76562,-0.3125c-0.20833,-0.21875 -0.3125,-0.47396 -0.3125,-0.76562c0,-0.3125 0.10417,-0.57292 0.3125,-0.78125c0.20833,-0.21875 0.46354,-0.32812 0.76563,-0.32812c0.30208,0 0.55729,0.10938 0.76563,0.32813c0.20833,0.21875 0.3125,0.47917 0.3125,0.78125c0,0.29167 -0.10417,0.54688 -0.3125,0.76563c-0.20833,0.20833 -0.46354,0.3125 -0.76562,0.3125z"/></g></g></svg>