<svg version="1.1" xmlns="http://www.w3.org/2000/svg" xmlns:xlink="http://www.w3.org/1999/xlink" width="482.11599" height="364.02245" viewBox="0,0,482.11599,364.02245"><g transform="translate(1.05799,1.77115)"><g data-paper-data="{&quot;isPaintingLayer&quot;:true}" fill-rule="nonzero" stroke-linecap="butt" stroke-linejoin="miter" stroke-miterlimit="10" stroke-dasharray="" stroke-dashoffset="0" style="mix-blend-mode: normal"><path d="M471.90246,87.82711c2.0801,1.38679 0.69331,3.46688 0.69331,3.46688l-1.66864,2.50287c-2.94702,4.38509 -7.12181,9.03708 -11.76596,11.67381c-4.23601,2.40501 -9.65978,2.32243 -14.26299,2.77638c-2.8245,0.27854 -5.52307,1.41054 -8.34951,1.6686c-10.65681,0.97298 -21.76656,-0.74692 -32.45152,-1.03995c-19.82846,-2.08663 -39.79656,-3.5297 -59.73953,-3.95554c-15.02741,-0.32088 -30.0123,-0.03755 -45.03844,-0.66975c-11.66442,-0.49094 -23.37883,-0.33918 -35.03253,-1.0018c-22.93443,-1.30402 -45.83826,-4.89043 -68.61625,-7.73765c-34.52266,-4.3158 -68.8934,-9.99541 -102.25977,-20.01672c-6.3855,-1.91783 -13.07441,-3.46381 -19.31441,-5.80685c-4.28638,-1.60948 -8.32829,-3.84327 -12.61824,-5.47683c-4.68685,-1.78469 -9.62553,-3.32768 -14.18593,-5.4113c-11.27817,-5.15295 -21.90931,-12.36541 -32.06849,-19.39871c0,0 -2.05547,-1.42302 -0.63245,-3.4785c1.42302,-2.05548 3.4785,-0.63245 3.4785,-0.63245c9.92705,6.87259 20.31569,13.95316 31.33961,18.98003c4.4519,2.03005 9.27562,3.52564 13.84873,5.26849c4.28169,1.63179 8.31882,3.8624 12.59589,5.46838c6.1341,2.30327 12.71764,3.8137 18.99504,5.69907c33.09879,9.94094 67.19593,15.56383 101.44171,19.84401c22.6721,2.83399 45.47282,6.4142 68.30092,7.70834c11.62212,0.65887 23.30503,0.50765 34.93786,0.9969c14.99155,0.63074 29.94202,0.34633 44.935,0.66648c20.01518,0.42739 40.06405,1.85588 59.96322,3.96533c10.40897,0.2775 21.24924,1.99218 31.62912,1.05327c2.82642,-0.25566 5.52528,-1.38244 8.34878,-1.66853c3.92969,-0.39817 8.80133,-0.13466 12.43514,-2.22961c3.8859,-2.24028 7.47971,-6.3132 9.92626,-10.01842l1.66868,-2.50293c0,0 1.38679,-2.0801 3.46689,-0.69331z" fill="#000000" stroke="none" stroke-width="0.5"/><path d="M0.76534,361.24931l-0.82106,-361.06527l479.29039,-0.95321l0.82106,361.06528z" fill="#000000" stroke="#000000" stroke-width="2"/><text transform="translate(4.85356,47.35976) scale(1.05718,1.05718)" font-size="40" xml:space="preserve" fill="#ffffff" fill-rule="nonzero" stroke="none" stroke-width="1" stroke-linecap="butt" stroke-linejoin="miter" stroke-miterlimit="10" stroke-dasharray="" stroke-dashoffset="0" font-family="Handwriting" font-weight="normal" text-anchor="start" style="mix-blend-mode: normal"><tspan x="0" dy="0">THE GUNGAME</tspan></text></g></g></svg>