<svg version="1.1" xmlns="http://www.w3.org/2000/svg" xmlns:xlink="http://www.w3.org/1999/xlink" width="518" height="392" viewBox="0,0,518,392"><g transform="translate(19,16)"><g data-paper-data="{&quot;isPaintingLayer&quot;:true}" fill-rule="nonzero" stroke="none" stroke-linecap="butt" stroke-linejoin="miter" stroke-miterlimit="10" stroke-dasharray="" stroke-dashoffset="0" style="mix-blend-mode: normal"><path d="M226,194v-28h28v28z" fill="#ffffff" stroke-width="0"/><path d="M230.25,173.85714c0,-1.24264 1.00736,-2.25 2.25,-2.25c1.24264,0 2.25,1.00736 2.25,2.25c0,1.24264 -1.00736,2.25 -2.25,2.25c-1.24264,0 -2.25,-1.00736 -2.25,-2.25z" fill="#000000" stroke-width="0.5"/><path d="M244.25,176.71429c0,-1.24264 1.00736,-2.25 2.25,-2.25c1.24264,0 2.25,1.00736 2.25,2.25c0,1.24264 -1.00736,2.25 -2.25,2.25c-1.24264,0 -2.25,-1.00736 -2.25,-2.25z" fill="#000000" stroke-width="0.5"/><path d="M238.85089,187.40915c4.6154,0.74898 5.91373,-8.38114 9.33215,-4.96272c3.23632,3.23632 -5.3983,9.01078 -7.71035,9.5352c-4.54007,1.02978 -7.69927,-3.59063 -9.75095,-6.79273c-0.34658,-0.54091 -1.72965,-1.03312 -1.93511,-1.39267c-0.66317,-0.39139 -1.10805,-1.11328 -1.10805,-1.93909c0,-1.24264 1.00736,-2.25 2.25,-2.25c0.02584,0 0.05158,0.00044 0.07721,0.0013c3.12855,-0.70779 5.88554,7.32044 8.84511,7.80071z" fill="#000000" stroke-width="0.5"/><path d="M-19,376v-392h518v392z" fill="none" stroke-width="0"/></g></g></svg>