<svg version="1.1" xmlns="http://www.w3.org/2000/svg" xmlns:xlink="http://www.w3.org/1999/xlink" width="88" height="88" viewBox="0,0,88,88"><g transform="translate(-196,-136)"><g data-paper-data="{&quot;isPaintingLayer&quot;:true}" fill-rule="nonzero" stroke-linejoin="miter" stroke-miterlimit="10" stroke-dasharray="" stroke-dashoffset="0" style="mix-blend-mode: normal"><path d="M281.5,180c0,22.91981 -18.58018,41.5 -41.5,41.5c-22.91981,0 -41.5,-18.58019 -41.5,-41.5c0,-22.91981 18.58019,-41.5 41.5,-41.5c22.91982,0 41.5,18.58019 41.5,41.5z" data-paper-data="{&quot;index&quot;:null}" fill="#333333" stroke="#7b7b7b" stroke-width="5" stroke-linecap="butt"/><path d="M215.29105,180c0,-13.64638 11.06257,-24.70895 24.70895,-24.70895c13.64638,0 24.70895,11.06257 24.70895,24.70895c0,13.64638 -11.06258,24.70895 -24.70895,24.70895c-13.64638,0 -24.70895,-11.06257 -24.70895,-24.70895z" fill="none" stroke="#c2c2c2" stroke-width="5" stroke-linecap="butt"/><path d="M234.58696,150.43479c0.65033,0 1.24265,0.24831 1.68735,0.65529c0.0743,-0.07844 0.15229,-0.14174 0.23382,-0.18832c0.43488,-0.73685 1.23699,-1.23117 2.15454,-1.23117c1.38071,0 2.5,1.11929 2.5,2.5c0,0.14968 -0.01315,0.29628 -0.03836,0.43872c1.64204,3.76988 0.75404,9.19376 -2.46164,9.19376c-1.28671,0 -2.16181,-0.99739 -2.69665,-2.39136c-1.52281,1.72253 -2.92604,1.31434 -4.78412,2.35113c-0.86452,0.48239 -3.53755,2.16108 -4.504,1.83893c-0.06105,-0.02035 -0.11952,-0.04441 -0.17569,-0.07183c0.29997,1.05542 -0.14572,2.0128 -1.96475,2.61915c-2.37284,0.79094 -8.31172,-5.44051 -5.86053,-6.84119c0.43488,-0.73685 1.23699,-1.23116 2.15454,-1.23116c0.43423,0 0.84261,0.11071 1.19844,0.30544c0.06208,-1.00382 0.71654,-1.84728 1.61805,-2.18509c1.13423,-0.90233 2.63758,-1.44159 4.04962,-1.99608c1.10995,-0.43587 2.30216,-0.91462 3.46969,-1.17034c0.30423,-0.06663 0.61225,-0.1102 0.91995,-0.1319c0.01927,-1.36409 1.13106,-2.46395 2.49974,-2.46395z" fill="#333333" stroke="none" stroke-width="0.5" stroke-linecap="butt"/><path d="M210.53127,165.70328l11.56297,-2.92661l3.05153,12.05652" fill="none" stroke="#c2c2c2" stroke-width="3.5" stroke-linecap="round"/></g></g></svg>