<svg version="1.1" xmlns="http://www.w3.org/2000/svg" xmlns:xlink="http://www.w3.org/1999/xlink" width="676.6079" height="666.8695" viewBox="0,0,676.6079,666.8695"><g transform="translate(125.35528,103.28828)"><g data-paper-data="{&quot;isPaintingLayer&quot;:true}" fill-rule="nonzero" stroke-linejoin="miter" stroke-miterlimit="10" stroke-dasharray="" stroke-dashoffset="0" style="mix-blend-mode: normal"><path d="M-20.5,440.5v-521h521v521z" fill="#342400" stroke="none" stroke-width="NaN" stroke-linecap="butt"/><path d="M70.24969,478.93497c0,0 27.64454,-4.51862 49.80915,-35.17521c8.52363,-11.78931 -31.579,-75.32638 -22.88691,-91.63422c10.66581,-20.01088 52.33942,-7.89144 68.83113,-24.0381c10.06835,-9.85772 32.56507,-13.25188 42.84678,-23.2805c16.4264,-16.02206 39.83309,-18.46371 58.95428,-29.80307c22.4242,-13.29815 40.3481,-34.78749 55.00527,-44.38791c29.00729,-18.99971 76.2469,-3.98434 117.48346,-13.62011c55.09803,-12.87481 101.75219,-47.08583 101.75219,-47.08583l9.20758,125.16577c0,0 -57.47541,29.60448 -86.65719,49.46926c-16.28395,11.0849 -60.59636,40.42997 -91.29822,62.19577c-13.55077,9.6067 -74.30493,16.96892 -85.69315,28.25907c-20.13705,19.96368 -47.97331,20.97348 -65.45942,38.4081c-15.96619,15.91919 -18.48841,37.52056 -28.08171,52.38624c-13.92548,21.57877 -31.34107,33.76426 -31.34107,33.76426l-82.52568,4.02273z" data-paper-data="{&quot;index&quot;:null}" fill="#251a00" stroke="none" stroke-width="0" stroke-linecap="butt"/><path d="M153.071,361.33303l49.44844,-32.29321l60.93345,-15.20244l54.1771,-35.70492l74.35906,-34.40539" fill="none" stroke="#1a1200" stroke-width="4" stroke-linecap="round"/><path d="M-125.35528,174.21172c0,0 27.88092,-2.70054 52.00349,-31.84154c9.27658,-11.20647 -26.5838,-77.23081 -16.84353,-92.93512c11.952,-19.2703 52.74354,-4.45069 70.25617,-19.48395c10.69164,-9.17797 33.36221,-11.09321 44.27793,-20.42776c17.43932,-14.91319 40.9556,-15.81843 60.7776,-25.88267c23.24609,-11.80276 42.53734,-32.07356 57.79114,-40.6946c30.18804,-17.06147 76.34423,1.01198 118.12279,-5.90562c55.82224,-9.24293 104.61441,-40.32874 104.61441,-40.32874l1,125.5c0,0 -59.28892,25.78125 -89.70767,43.69452c-16.9742,9.99592 -63.11134,36.37939 -95.17128,56.09017c-14.15018,8.69968 -75.25582,12.07183 -87.3582,22.59283c-21.39987,18.60363 -49.24256,17.79032 -67.83172,34.04372c-16.97337,14.84064 -20.90326,36.23075 -31.44847,50.43704c-15.30725,20.6216 -33.48267,31.64172 -33.48267,31.64172l-82.61206,-1.3844z" data-paper-data="{&quot;index&quot;:null}" fill="#251a00" stroke="none" stroke-width="0" stroke-linecap="butt"/><path d="M485.5,36.50001c0,0 -27.88092,2.70054 -52.00349,31.84154c-9.27658,11.20647 -9.45224,39.69327 -19.19251,55.39758c-11.952,19.2703 -33.22402,29.97622 -50.73665,45.00948c-10.69164,9.17797 -16.84569,23.10522 -27.76141,32.43977c-17.43932,14.91319 -40.9556,15.81843 -60.7776,25.88267c-23.24609,11.80276 -42.53734,32.07356 -57.79114,40.6946c-30.18804,17.06147 -76.34423,-1.01198 -118.12279,5.90562c-55.82224,9.24293 -104.61441,40.32874 -104.61441,40.32874l-1,-125.5c0,0 59.28892,-25.78125 89.70767,-43.69452c16.9742,-9.99592 76.62485,13.17016 108.68479,-6.54062c14.15018,-8.69968 32.81234,-14.1584 45.42569,-28.22176c11.17747,-12.46241 16.31662,-33.39962 28.419,-43.92062c21.39987,-18.60363 49.24256,-17.79032 67.83172,-34.04372c16.97337,-14.84064 20.90326,-36.23075 31.44847,-50.43704c15.30725,-20.6216 33.48267,-31.64172 33.48267,-31.64172l82.61206,1.3844z" fill="#4c3500" stroke="none" stroke-width="0" stroke-linecap="butt"/><path d="M84.5,192.00002c0,0 10.7149,-10.88666 19.33333,-15c8.61843,-4.11334 24.66667,-6 24.66667,-6" fill="none" stroke="#402d00" stroke-width="6" stroke-linecap="round"/><path d="M198.5,241.00002c0,0 -16.65354,7.35774 -28,8c-11.34646,0.64226 -25,-5 -25,-5" fill="none" stroke="#402d00" stroke-width="6" stroke-linecap="round"/><path d="M208.5,183.00002c0,0 9.52539,-8.96976 17,-12.33334c7.47461,-3.36357 23,-5.66666 23,-5.66666" fill="#402d00" stroke="#402d00" stroke-width="6" stroke-linecap="round"/><path d="M375.5,61.00002c0,0 -3.48512,-13.74702 0.66667,-20.66667c4.15179,-6.91965 23.33333,-19.33333 23.33333,-19.33333" fill="none" stroke="#402d00" stroke-width="6" stroke-linecap="round"/><path d="M333.5,157c0,0 -6.16007,12.68006 -13,18c-6.83993,5.31994 -23,10 -23,10" fill="none" stroke="#402d00" stroke-width="6" stroke-linecap="round"/><path d="M403.5,80.00002c0,0 -3.0484,15.94678 -10,22.66666c-6.9516,6.71988 -20,6.33334 -20,6.33334" fill="none" stroke="#402d00" stroke-width="6" stroke-linecap="round"/><path d="M297.5,122.00002c0,0 2.83889,-13.36429 8,-20c5.16111,-6.63571 20,-16 20,-16" fill="none" stroke="#402d00" stroke-width="6" stroke-linecap="round"/><path d="M97.5,230.00002c0,0 -6.54669,10.98256 -12,17c-5.4533,6.01744 -17,15 -17,15" fill="none" stroke="#402d00" stroke-width="6" stroke-linecap="round"/><path d="M12.16667,247.00002c0,0 11.10869,-11.51513 20.33333,-15c9.22465,-3.48487 24.66667,-2 24.66667,-2" fill="none" stroke="#402d00" stroke-width="6" stroke-linecap="round"/><path d="M-15.9346,151.86582l54.97266,-21.5872l62.75064,-2.52144l60.29525,-23.96838l79.79361,-18.60053" fill="none" stroke="#1a1200" stroke-width="4" stroke-linecap="round"/><path d="M-77.58108,59.985l52,-28l62,-10l57,-31l77,-28" fill="none" stroke="#1a1200" stroke-width="4" stroke-linecap="round"/><path d="M-15.929,90.33303l49.44844,-32.29321l60.93345,-15.20244l54.1771,-35.70492l74.35906,-34.40539" fill="none" stroke="#1a1200" stroke-width="4" stroke-linecap="round"/><path d="M3.02252,118.50152l52,-28l62,-10l57,-31l77,-28" fill="none" stroke="#1a1200" stroke-width="4" stroke-linecap="round"/><path d="M44.9,109.30002c0,-3.06236 1.90056,-5.60781 2.82432,-8.35899c1.36695,-4.07108 2.26058,-8.11678 5.23024,-11.08645c2.63234,-2.63234 6.19585,-3.1335 9.71596,-4.52892c3.13478,-1.24267 6.15237,-3.52565 9.72947,-3.52565c4.08891,0 6.96939,2.2924 10.4573,3.89305c3.4221,1.57045 7.46631,2.42269 9.9587,5.1828c2.23764,2.47799 2.23051,6.36533 3.45277,9.53619c1.1828,3.0685 3.63123,5.40251 3.63123,8.88796c0,3.62804 -1.87431,6.49198 -2.91241,9.6632c-1.13476,3.46653 -1.54319,7.18327 -4.14215,9.78223c-2.52213,2.52213 -6.58875,3.55664 -10.18595,4.94996c-3.50058,1.3559 -6.51422,3.1046 -10.25948,3.1046c-3.43538,0 -6.32364,-1.82993 -9.35556,-2.98059c-3.01665,-1.14486 -6.17955,-1.60522 -8.58111,-3.67351c-2.76021,-2.37716 -3.64312,-5.69319 -5.28542,-8.98477c-1.84182,-3.69148 -4.27791,-7.45531 -4.27791,-11.86113z" fill="#ca7900" stroke="#673e00" stroke-width="6" stroke-linecap="butt"/><path d="M70.9,107.40002l-8.4,-21.8" fill="none" stroke="#673e00" stroke-width="4" stroke-linecap="round"/><path d="M73.7,110.60002l8.4,21.8" data-paper-data="{&quot;index&quot;:null}" fill="none" stroke="#673e00" stroke-width="4" stroke-linecap="round"/><path d="M95.37731,120.23764l-21.35462,-9.47523" data-paper-data="{&quot;index&quot;:null}" fill="none" stroke="#673e00" stroke-width="4" stroke-linecap="round"/><path d="M47.82269,100.1624l21.35462,9.47523" data-paper-data="{&quot;index&quot;:null}" fill="none" stroke="#673e00" stroke-width="4" stroke-linecap="round"/><path d="M152.88211,-1.76678c3.05993,-0.12188 5.679,1.67587 8.46477,2.4894c4.12226,1.20384 8.20032,1.93575 11.28582,4.78487c2.73501,2.52549 3.3776,6.06623 4.91202,9.52802c1.36645,3.08284 3.76771,6.00718 3.91007,9.58145c0.16273,4.08567 -2.01321,7.0551 -3.47378,10.60395c-1.43302,3.48189 -2.12362,7.55681 -4.78235,10.15708c-2.38697,2.33449 -6.27152,2.48208 -9.39122,3.82956c-3.019,1.30399 -5.25371,3.84337 -8.7364,3.98208c-3.62516,0.14439 -6.56144,-1.61446 -9.77146,-2.52552c-3.50894,-0.9959 -7.239,-1.25609 -9.93933,-3.74955c-2.62051,-2.41976 -3.81605,-6.44198 -5.35143,-9.98088c-1.49414,-3.44384 -3.3614,-6.38549 -3.51046,-10.1278c-0.13672,-3.43266 1.57681,-6.39146 2.60589,-9.46677c1.0239,-3.05983 1.35801,-6.23854 3.32908,-8.72052c2.26542,-2.85264 5.54369,-3.86682 8.7673,-5.63882c3.61525,-1.98728 7.27915,-4.57123 11.68148,-4.74657z" fill="#ca7900" stroke="#673e00" stroke-width="6" stroke-linecap="butt"/><path d="M140.91023,2.63586l10.31761,20.9606" data-paper-data="{&quot;index&quot;:null}" fill="none" stroke="#673e00" stroke-width="4" stroke-linecap="round"/><path d="M152.68868,26.98639l10.31761,20.9606" data-paper-data="{&quot;index&quot;:null}" fill="none" stroke="#673e00" stroke-width="4" stroke-linecap="round"/><path d="M38.79429,29.51399c-3.04327,-0.34141 -5.36096,-2.5139 -7.992,-3.73863c-3.89331,-1.8123 -7.81416,-3.1514 -10.43423,-6.43363c-2.32245,-2.9094 -2.42321,-6.50657 -3.41748,-10.16031c-0.88543,-3.25378 -2.81776,-6.50708 -2.41896,-10.06188c0.45586,-4.06342 3.05511,-6.67036 5.03464,-9.95807c1.94218,-3.22568 3.23998,-7.14967 6.26075,-9.31881c2.71201,-1.94743 6.57433,-1.50696 9.86168,-2.36808c3.18124,-0.83333 5.77366,-3.00629 9.23739,-2.6177c3.60542,0.40448 6.24255,2.58641 9.27827,3.97158c3.3184,1.51416 6.96644,2.33442 9.25945,5.20692c2.22523,2.7876 2.79991,6.9442 3.78351,10.67431c0.95718,3.62992 2.359,6.81972 1.94144,10.54165c-0.383,3.41397 -2.52353,6.0802 -4.00504,8.96494c-1.47405,2.87021 -2.28416,5.96206 -4.60729,8.11807c-2.67007,2.47798 -6.06386,2.9857 -9.51801,4.25078c-3.87381,1.41878 -7.88577,3.42007 -12.26412,2.92887z" fill="#ca7900" stroke="#673e00" stroke-width="6" stroke-linecap="butt"/><path d="M20.164,-11.61947l20.7276,10.77805" data-paper-data="{&quot;index&quot;:null}" fill="none" stroke="#673e00" stroke-width="4" stroke-linecap="round"/><path d="M64.75082,14.31305l-20.72761,-10.77805" data-paper-data="{&quot;index&quot;:null}" fill="none" stroke="#673e00" stroke-width="4" stroke-linecap="round"/><path d="M44.25817,4.69107l7.03539,22.27786" data-paper-data="{&quot;index&quot;:null}" fill="none" stroke="#673e00" stroke-width="4" stroke-linecap="round"/><path d="M36.29038,-21.15837l7.03539,22.27786" data-paper-data="{&quot;index&quot;:null}" fill="none" stroke="#673e00" stroke-width="4" stroke-linecap="round"/><path d="M159.5079,84.68147l57.91526,58.40741l-7.99377,9.42635l-56.60299,-64.69137z" fill="#664600" stroke="#312100" stroke-width="4" stroke-linecap="round"/><path d="M138.08069,118.40509c0,0 -1.73432,-7.37673 -1.20024,-11.5955c0.53347,-4.21392 0.84886,-9.38829 5.09249,-16.10559c4.24363,-6.71729 14.2613,-14.5298 14.2613,-14.5298l7.00911,8.56577c0,0 -8.20839,5.91498 -13.68287,13.23929c-5.47448,7.32431 -11.47978,20.42583 -11.47978,20.42583z" fill="#999999" stroke="#1a1a1a" stroke-width="4" stroke-linecap="round"/><path d="M73.19473,84.76033c4.08101,0.71795 6.41418,2.68804 9.71429,4.28571c3.3001,1.59767 6.14113,1.84928 8.28571,4.42857c2.14457,2.57928 1.24731,5.58586 2.28571,8.28571c1.0384,2.69985 3.11518,3.97888 3.42857,6.57143c0.31339,2.59256 -1.42857,6.71429 -1.42857,6.71429c0,0 -5.50218,-12.16666 -8,-15.85714c-2.49782,-3.69048 -4.27161,-5.04196 -8.42857,-7.71429c-4.15696,-2.67233 -11.66234,-5.05195 -11.66234,-5.05195c0,0 1.72419,-2.38028 5.8052,-1.66233z" fill="#ff9900" stroke="none" stroke-width="0" stroke-linecap="round"/><path d="M75.3,108.00002l8.4,-21.8" data-paper-data="{&quot;index&quot;:null}" fill="none" stroke="#673e00" stroke-width="4" stroke-linecap="round"/><path d="M94.97731,101.16241l-21.35462,9.47523" data-paper-data="{&quot;index&quot;:null}" fill="none" stroke="#673e00" stroke-width="4" stroke-linecap="round"/><path d="M71.25266,133.92684c-4.08101,-0.71796 -5.5253,-1.79916 -8.8254,-3.39683c-3.30011,-1.59767 -4.8078,-0.51595 -7.39682,-3.98413c-0.20601,-0.27596 -3.1317,-5.64083 -4.06349,-8.06349c-1.0384,-2.69984 -2.58697,-4.78773 -3.09524,-7.34921c-0.64672,-3.25922 1.6508,-6.60317 1.6508,-6.60317c0,0 5.61329,12.38889 8.11111,16.07937c2.49782,3.69048 4.27161,5.04196 8.42857,7.71429c4.15696,2.67233 11.57143,4.03174 11.57143,4.03174c0,0 -2.97038,2.17144 -6.38095,1.57143z" data-paper-data="{&quot;index&quot;:null}" fill="#a66400" stroke="none" stroke-width="0" stroke-linecap="round"/><path d="M48.82269,121.43763l21.35462,-9.47523" data-paper-data="{&quot;index&quot;:null}" fill="none" stroke="#673e00" stroke-width="4" stroke-linecap="round"/><path d="M62.9,133.40002l8.4,-21.8" data-paper-data="{&quot;index&quot;:null}" fill="none" stroke="#673e00" stroke-width="4" stroke-linecap="round"/><path d="M63.41429,103.81431c0,-1.26873 1.0458,-3.43335 1.7893,-4.34574c0.97184,-1.1926 2.65232,-1.15426 4.3107,-1.15426c2.92711,0 8.3,7.37289 8.3,10.3c0,2.92711 -2.37289,5.3 -5.3,5.3c-2.92711,0 -9.1,-7.17289 -9.1,-10.1z" fill="#ffc266" stroke="#664e29" stroke-width="4" stroke-linecap="butt"/><path d="M137.24648,44.77479c-2.85359,-3.25469 -3.33218,-5.08883 -4.98638,-8.55974c-1.65421,-3.47091 -3.57369,-3.56219 -3.44874,-8.11221c0.00994,-0.36204 1.07983,-6.6963 1.87925,-9.30268c0.89088,-2.90458 0.97427,-5.63719 2.20687,-8.08178c1.56836,-3.11049 5.5826,-3.12007 5.5826,-3.12007c0,0 -3.39897,12.63185 -3.74081,17.30574c-0.34184,4.67389 0.23076,6.94596 1.8906,11.86238c1.65984,4.91642 6.73348,10.21841 6.73348,10.21841c0,0 -3.73208,0.50996 -6.11688,-2.21003z" data-paper-data="{&quot;index&quot;:null}" fill="#a66400" stroke="none" stroke-width="0" stroke-linecap="round"/><path d="M131.16982,36.3231l21.44842,-9.26096" data-paper-data="{&quot;index&quot;:null}" fill="none" stroke="#673e00" stroke-width="4" stroke-linecap="round"/><path d="M152.57993,27.39104l-8.61783,21.7148" data-paper-data="{&quot;index&quot;:null}" fill="none" stroke="#673e00" stroke-width="4" stroke-linecap="round"/><path d="M170.31977,7.99017c2.67301,3.16625 3.20183,6.17379 4.71161,9.51501c1.50978,3.34123 3.52966,5.35489 3.52331,8.70928c-0.00635,3.35438 -2.62177,5.08762 -3.5546,7.82574c-0.93283,2.73812 -0.15803,5.05083 -1.57871,7.24199c-1.42068,2.19117 -5.93658,3.79073 -5.93658,3.79073c0,0 4.19654,-13.28052 4.55671,-16.85156c0.44719,-4.43382 -0.04856,-6.608 -1.52755,-11.32332c-1.47898,-4.71532 -5.75435,-11.6321 -5.75435,-11.6321c0,0 2.88714,-0.442 5.56015,2.72425z" fill="#ff9900" stroke="none" stroke-width="0" stroke-linecap="round"/><path d="M162.1288,0.78993l-8.61783,21.7148" data-paper-data="{&quot;index&quot;:null}" fill="none" stroke="#673e00" stroke-width="4" stroke-linecap="round"/><path d="M155.81537,24.137l21.44842,-9.26096" fill="none" stroke="#673e00" stroke-width="4" stroke-linecap="round"/><path d="M45.28564,-22.14876c4.08101,0.71795 5.23236,2.05168 8.53247,3.64935c3.3001,1.59767 4.95931,1.48564 7.10389,4.06493c2.87184,3.12473 2.33822,7.13131 3.37662,9.83116c1.0384,2.69985 2.02427,5.88797 2.33766,8.48052c0.31339,2.59256 -1.24675,3.71429 -1.24675,3.71429c0,0 -3.32036,-11.62121 -5.81818,-15.31169c-2.49782,-3.69048 -4.27161,-5.04196 -8.42857,-7.71429c-4.15696,-2.67233 -11.75325,-5.32468 -11.75325,-5.32468c0,0 1.8151,-2.10755 5.89611,-1.3896z" fill="#ff9900" stroke="none" stroke-width="0" stroke-linecap="round"/><path d="M43.49437,0.73589l11.79692,-20.16513" data-paper-data="{&quot;index&quot;:null}" fill="none" stroke="#673e00" stroke-width="4" stroke-linecap="round"/><path d="M65.8976,-4.87875l-22.60059,5.91721" data-paper-data="{&quot;index&quot;:null}" fill="none" stroke="#673e00" stroke-width="4" stroke-linecap="round"/><path d="M30.82726,22.73003c-3.30011,-1.59767 -5.4078,-1.61595 -7.99682,-5.08413c-2.60601,-2.37596 -1.9317,-5.34083 -2.86349,-7.76349c-1.0384,-2.69984 -1.78697,-3.68773 -2.29524,-6.24921c-0.64672,-3.25922 0.2508,-6.20317 0.2508,-6.20317c0,0 5.41329,12.38889 7.91111,16.07937c2.49782,3.69048 4.27161,5.04196 8.42857,7.71429c4.15696,2.67233 11.67143,4.03174 11.67143,4.03174c0,0 -3.27038,2.17144 -6.68095,1.57143c0,0 -5.12531,-2.49916 -8.42541,-4.09683z" data-paper-data="{&quot;index&quot;:null}" fill="#a66400" stroke="none" stroke-width="0" stroke-linecap="round"/><path d="M30.03948,25.5908l11.79693,-20.16513" data-paper-data="{&quot;index&quot;:null}" fill="none" stroke="#673e00" stroke-width="4" stroke-linecap="round"/><path d="M17.20421,9.38147l22.60059,-5.91721" fill="none" stroke="#673e00" stroke-width="4" stroke-linecap="round"/><path d="M36.71643,10.45384c-1.26083,-0.14145 -3.29535,-1.42205 -4.11916,-2.26264c-1.07681,-1.09874 -0.85137,-2.76448 -0.66648,-4.41251c0.32634,-2.90886 8.25227,-7.42627 11.16113,-7.09994c2.90886,0.32634 5.00241,2.94898 4.67608,5.85784c-0.32634,2.90886 -8.14271,8.24359 -11.05157,7.91725z" fill="#ffc266" stroke="#664e29" stroke-width="4" stroke-linecap="butt"/><path d="M240.27949,284.16222l17.7612,6.37312l-16.39913,45.70258l-17.76119,-6.37312z" fill="#333333" stroke="#000000" stroke-width="4" stroke-linecap="butt"/><path d="M247.071,352.33303l49.44844,-32.29321l60.93345,-15.20244l54.1771,-35.70492l74.35906,-34.40539" fill="none" stroke="#1a1200" stroke-width="4" stroke-linecap="round"/><path d="M233.071,419.33303l49.44844,-32.29321l60.93345,-15.20244l54.1771,-35.70492l74.35906,-34.40539" fill="none" stroke="#1a1200" stroke-width="4" stroke-linecap="round"/><g><path d="M407.92587,233.9719c3.26725,-2.787 6.11561,-5.79584 10.19015,-6.81364c3.61171,-0.90217 6.92497,0.50214 10.66126,1.11738c3.32729,0.5479 7.08952,0.14353 10.1565,1.98453c3.5058,2.10441 4.79568,5.55237 6.9624,8.71985c2.12583,3.10772 5.1547,5.91983 5.87113,9.56907c0.64321,3.27624 -1.36358,6.60555 -1.94755,9.95327c-0.56511,3.23966 0.33293,6.50093 -1.46091,9.48933c-1.86721,3.11065 -4.94821,4.60155 -7.47037,6.78626c-2.75702,2.38815 -5.02009,5.36467 -8.586,6.2554c-3.46051,0.86441 -7.47962,-0.34154 -11.28092,-0.99827c-3.6992,-0.63908 -7.18306,-0.69076 -10.39424,-2.61831c-2.94547,-1.76806 -4.48005,-4.82351 -6.48739,-7.37049c-1.99724,-2.53416 -4.47216,-4.55669 -5.46677,-7.56602c-1.14316,-3.45874 -0.19351,-6.75628 0.09244,-10.42369c0.3207,-4.11297 0.16913,-8.59381 2.43664,-12.37133c0,0 4.51567,-3.82991 6.72363,-5.71334z" fill="#ca7900" stroke="#673e00" stroke-width="6" stroke-linecap="butt"/><path d="M427.93606,254.21641l18.42174,-14.36801" data-paper-data="{&quot;index&quot;:null}" fill="none" stroke="#673e00" stroke-width="4" stroke-linecap="round"/><path d="M404.23196,269.61237l18.42174,-14.368" data-paper-data="{&quot;index&quot;:null}" fill="none" stroke="#673e00" stroke-width="4" stroke-linecap="round"/><path d="M421.50461,254.97727l-23.18585,-2.86643" data-paper-data="{&quot;index&quot;:null}" fill="none" stroke="#673e00" stroke-width="4" stroke-linecap="round"/><path d="M425.14047,255.61463l23.18584,2.86643" data-paper-data="{&quot;index&quot;:null}" fill="none" stroke="#673e00" stroke-width="4" stroke-linecap="round"/><path d="M444.98853,268.85291c-2.83832,3.01895 -4.53447,3.6338 -7.68018,5.51732c-3.14573,1.88353 -3.06795,3.73749 -7.3879,4.00064c-0.34374,0.02094 -6.43439,-0.47449 -8.97127,-1.02383c-2.82713,-0.61219 -5.42228,-0.46218 -7.84299,-1.44181c-3.08011,-1.24647 -4.61651,-5.00148 -4.61651,-5.00148c0,0 13.43818,2.09979 17.89402,2.03482c4.45584,-0.06498 6.55869,-0.80716 11.07296,-2.81789c4.51427,-2.01073 9.10161,-7.33754 9.10161,-7.33754c0,0 0.80232,3.54676 -1.56971,6.06975z" data-paper-data="{&quot;index&quot;:null}" fill="#a66400" stroke="none" stroke-width="0" stroke-linecap="round"/><path d="M421.14764,278.7294l4.01754,-23.01433" data-paper-data="{&quot;index&quot;:null}" fill="none" stroke="#673e00" stroke-width="4" stroke-linecap="round"/><path d="M425.41921,255.92747l13.43275,19.11441" data-paper-data="{&quot;index&quot;:null}" fill="none" stroke="#673e00" stroke-width="4" stroke-linecap="round"/><path d="M404.45782,239.16337c2.8383,-3.01896 5.76522,-3.88967 8.91095,-5.7732c3.14572,-1.88352 4.91409,-4.1213 8.24701,-4.50024c3.33291,-0.37894 5.35506,2.02012 8.1822,2.63232c2.82713,0.6122 5.03556,-0.42308 7.37539,0.73655c2.33983,1.15964 4.44743,5.46195 4.44743,5.46195c0,0 -13.67461,-2.64356 -17.26339,-2.59122c-4.45584,0.06498 -6.55869,0.80715 -11.07297,2.81788c-4.51427,2.01073 -10.89427,7.05219 -10.89427,7.05219c0,0 -0.77065,-2.81727 2.06766,-5.83623z" fill="#ff9900" stroke="none" stroke-width="0" stroke-linecap="round"/><path d="M408.41094,233.35495l13.43275,19.11441" data-paper-data="{&quot;index&quot;:null}" fill="none" stroke="#673e00" stroke-width="4" stroke-linecap="round"/><path d="M424.47233,251.43745l4.01754,-23.01433" fill="none" stroke="#673e00" stroke-width="4" stroke-linecap="round"/><path d="M423.25355,242.95477c1.44704,-0.52235 2.86814,0.37538 4.29002,1.22889c2.50968,1.50647 3.32182,10.59317 1.81534,13.10285c-1.50647,2.50968 -4.76222,3.32295 -7.2719,1.81647c-2.50968,-1.50647 -4.11065,-10.83342 -2.60418,-13.3431c0,0 2.66369,-2.40548 3.77073,-2.8051z" fill="#ffc266" stroke="#664e29" stroke-width="4" stroke-linecap="butt"/></g><path d="M399.66139,334.96295c3.05993,-0.12188 5.679,1.67587 8.46477,2.4894c4.12226,1.20384 8.20032,1.93575 11.28582,4.78487c2.73501,2.52549 3.3776,6.06623 4.91202,9.52802c1.36645,3.08284 3.76771,6.00718 3.91007,9.58145c0.16273,4.08567 -2.01321,7.0551 -3.47378,10.60395c-1.43302,3.48189 -2.12362,7.55681 -4.78235,10.15708c-2.38697,2.33449 -6.27152,2.48208 -9.39122,3.82956c-3.019,1.30399 -5.25371,3.84337 -8.7364,3.98208c-3.62516,0.14439 -6.56144,-1.61446 -9.77146,-2.52552c-3.50894,-0.9959 -7.239,-1.25609 -9.93933,-3.74955c-2.62051,-2.41976 -3.81605,-6.44198 -5.35143,-9.98088c-1.49414,-3.44384 -3.3614,-6.38549 -3.51046,-10.1278c-0.13672,-3.43266 1.57681,-6.39146 2.60589,-9.46677c1.0239,-3.05983 1.35801,-6.23854 3.32908,-8.72052c2.26542,-2.85264 5.54369,-3.86682 8.7673,-5.63882c3.61525,-1.98728 7.27915,-4.57123 11.68148,-4.74657z" fill="#ca7900" stroke="#673e00" stroke-width="6" stroke-linecap="butt"/><path d="M402.17024,365.28713l22.11704,7.52573" data-paper-data="{&quot;index&quot;:null}" fill="none" stroke="#673e00" stroke-width="4" stroke-linecap="round"/><path d="M376.29686,353.90784l22.11704,7.52573" data-paper-data="{&quot;index&quot;:null}" fill="none" stroke="#673e00" stroke-width="4" stroke-linecap="round"/><path d="M398.00712,360.32619l-10.31761,-20.9606" data-paper-data="{&quot;index&quot;:null}" fill="none" stroke="#673e00" stroke-width="4" stroke-linecap="round"/><path d="M399.46796,363.71612l10.31761,20.9606" data-paper-data="{&quot;index&quot;:null}" fill="none" stroke="#673e00" stroke-width="4" stroke-linecap="round"/><path d="M399.28194,387.57326c-4.08101,-0.71796 -5.5253,-1.79916 -8.8254,-3.39683c-3.30011,-1.59767 -4.8078,-0.51595 -7.39682,-3.98413c-0.20601,-0.27596 -3.1317,-5.64083 -4.06349,-8.06349c-1.0384,-2.69984 -2.58697,-4.78773 -3.09524,-7.34921c-0.64672,-3.25922 1.6508,-6.60317 1.6508,-6.60317c0,0 5.61329,12.38889 8.11111,16.07937c2.49782,3.69048 4.27161,5.04196 8.42857,7.71429c4.15696,2.67233 11.12699,3.5873 11.12699,3.5873c0,0 -2.52594,2.61588 -5.93651,2.01587z" data-paper-data="{&quot;index&quot;:null}" fill="#a66400" stroke="none" stroke-width="0" stroke-linecap="round"/><path d="M399.39752,363.79187l-21.44842,9.26096" data-paper-data="{&quot;index&quot;:null}" fill="none" stroke="#673e00" stroke-width="4" stroke-linecap="round"/><path d="M399.35921,364.12077l-8.61783,21.7148" data-paper-data="{&quot;index&quot;:null}" fill="none" stroke="#673e00" stroke-width="4" stroke-linecap="round"/><path d="M401.8831,337.39915c4.08101,0.71795 6.41418,2.68804 9.71429,4.28571c3.3001,1.59767 6.14113,1.84928 8.28571,4.42857c2.14457,2.57928 1.24731,5.58586 2.28571,8.28571c1.0384,2.69985 3.11518,3.97888 3.42857,6.57143c0.31339,2.59256 -2.12857,6.71429 -2.12857,6.71429c0,0 -5.28823,-12.88479 -7.3,-15.85714c-2.49782,-3.69048 -4.27161,-5.04196 -8.42857,-7.71429c-4.15696,-2.67233 -11.87143,-5.24286 -11.87143,-5.24286c0,0 1.93328,-2.18937 6.01429,-1.47142z" fill="#ff9900" stroke="none" stroke-width="0" stroke-linecap="round"/><path d="M408.90808,337.51966l-8.61783,21.7148" data-paper-data="{&quot;index&quot;:null}" fill="none" stroke="#673e00" stroke-width="4" stroke-linecap="round"/><path d="M402.59465,360.86673l21.44842,-9.26096" fill="none" stroke="#673e00" stroke-width="4" stroke-linecap="round"/><path d="M403.81991,366.2678c-0.8139,1.3055 -2.48582,1.47913 -4.13099,1.68801c-2.9038,0.36867 -9.16253,-6.26878 -9.5312,-9.17258c-0.36867,-2.9038 1.68645,-5.55667 4.59025,-5.92533c2.9038,-0.36867 9.93097,5.96961 10.29964,8.87341c0,0 -0.60505,3.53773 -1.22771,4.53649z" fill="#ffc266" stroke="#664e29" stroke-width="4" stroke-linecap="butt"/><path d="M187.44067,326.44943c3.05993,-0.12188 5.679,1.67587 8.46477,2.4894c4.12226,1.20384 8.20032,1.93575 11.28582,4.78487c2.73501,2.52549 3.3776,6.06623 4.91202,9.52802c1.36645,3.08284 3.76771,6.00718 3.91007,9.58145c0.16273,4.08567 -2.01321,7.0551 -3.47378,10.60395c-1.43302,3.48189 -2.12362,7.55681 -4.78235,10.15708c-2.38697,2.33449 -6.27152,2.48208 -9.39122,3.82956c-3.019,1.30399 -5.25371,3.84337 -8.7364,3.98208c-3.62516,0.14439 -6.56144,-1.61446 -9.77146,-2.52552c-3.50894,-0.9959 -7.239,-1.25609 -9.93933,-3.74955c-2.62051,-2.41976 -3.81605,-6.44198 -5.35143,-9.98088c-1.49414,-3.44384 -3.3614,-6.38549 -3.51046,-10.1278c-0.13672,-3.43266 1.57681,-6.39146 2.60589,-9.46677c1.0239,-3.05983 1.35801,-6.23854 3.32908,-8.72052c2.26542,-2.85264 5.54369,-3.86682 8.7673,-5.63882c3.61525,-1.98728 7.27915,-4.57123 11.68148,-4.74657z" fill="#ca7900" stroke="#673e00" stroke-width="6" stroke-linecap="butt"/><path d="M212.06656,364.29934l-22.11704,-7.52573" data-paper-data="{&quot;index&quot;:null}" fill="none" stroke="#673e00" stroke-width="4" stroke-linecap="round"/><path d="M164.07614,345.39432l22.11704,7.52573" data-paper-data="{&quot;index&quot;:null}" fill="none" stroke="#673e00" stroke-width="4" stroke-linecap="round"/><path d="M185.7864,351.81267l-10.31761,-20.9606" data-paper-data="{&quot;index&quot;:null}" fill="none" stroke="#673e00" stroke-width="4" stroke-linecap="round"/><path d="M187.24724,355.2026l10.31761,20.9606" data-paper-data="{&quot;index&quot;:null}" fill="none" stroke="#673e00" stroke-width="4" stroke-linecap="round"/><path d="M187.06122,379.05974c-4.08101,-0.71796 -5.5253,-1.79916 -8.8254,-3.39683c-3.30011,-1.59767 -4.8078,-0.51595 -7.39682,-3.98413c-0.20601,-0.27596 -3.1317,-5.64083 -4.06349,-8.06349c-1.0384,-2.69984 -2.58697,-4.78773 -3.09524,-7.34921c-0.64672,-3.25922 1.6508,-6.60317 1.6508,-6.60317c0,0 5.61329,12.38889 8.11111,16.07937c2.49782,3.69048 4.27161,5.04196 8.42857,7.71429c4.15696,2.67233 11.12699,3.5873 11.12699,3.5873c0,0 -2.52594,2.61588 -5.93651,2.01587z" data-paper-data="{&quot;index&quot;:null}" fill="#a66400" stroke="none" stroke-width="0" stroke-linecap="round"/><path d="M165.72838,364.53931l21.44842,-9.26096" data-paper-data="{&quot;index&quot;:null}" fill="none" stroke="#673e00" stroke-width="4" stroke-linecap="round"/><path d="M187.13849,355.60725l-8.61783,21.7148" data-paper-data="{&quot;index&quot;:null}" fill="none" stroke="#673e00" stroke-width="4" stroke-linecap="round"/><path d="M189.66238,328.88563c4.08101,0.71795 6.41418,2.68804 9.71429,4.28571c3.3001,1.59767 6.14113,1.84928 8.28571,4.42857c2.14457,2.57928 1.24731,5.58586 2.28571,8.28571c1.0384,2.69985 3.11518,3.97888 3.42857,6.57143c0.31339,2.59256 -2.12857,6.71429 -2.12857,6.71429c0,0 -5.28823,-12.88479 -7.3,-15.85714c-2.49782,-3.69048 -4.27161,-5.04196 -8.42857,-7.71429c-4.15696,-2.67233 -11.87143,-5.24286 -11.87143,-5.24286c0,0 1.93328,-2.18937 6.01429,-1.47142z" fill="#ff9900" stroke="none" stroke-width="0" stroke-linecap="round"/><path d="M196.68736,329.00614l-8.61783,21.7148" data-paper-data="{&quot;index&quot;:null}" fill="none" stroke="#673e00" stroke-width="4" stroke-linecap="round"/><path d="M190.37393,352.35321l21.44842,-9.26096" fill="none" stroke="#673e00" stroke-width="4" stroke-linecap="round"/><path d="M200.93085,353.76127c0.41311,1.48192 -0.58799,2.8322 -1.54504,4.18655c-1.68923,2.39049 -10.81117,2.52351 -13.20166,0.83427c-2.39049,-1.68923 -2.95898,-4.99651 -1.26974,-7.387c1.68923,-2.39049 11.10952,-3.29226 13.50001,-1.60303c0,0 2.20039,2.83547 2.51644,3.96921z" fill="#ffc266" stroke="#664e29" stroke-width="4" stroke-linecap="butt"/><path d="M155.39096,28.5574l22.11704,7.52573" data-paper-data="{&quot;index&quot;:null}" fill="none" stroke="#673e00" stroke-width="4" stroke-linecap="round"/><path d="M129.51758,17.1781l22.11704,7.52573" data-paper-data="{&quot;index&quot;:null}" fill="none" stroke="#673e00" stroke-width="4" stroke-linecap="round"/><path d="M162.2405,18.4661c1.23033,0.92361 1.25891,2.60428 1.32491,4.26134c0.1165,2.92479 -7.03672,8.58686 -9.96151,8.70335c-2.92479,0.1165 -5.39024,-2.16008 -5.50673,-5.08487c-0.1165,-2.92479 6.80504,-9.37826 9.72983,-9.49476c0,0 3.47225,0.90834 4.4135,1.61494z" fill="#ffc266" stroke="#664e29" stroke-width="4" stroke-linecap="butt"/><path d="M237.76608,317.05861c0,0 -10.14022,-17.96565 -10.58875,-28.03089c-0.67555,-15.15962 6.9297,-54.07927 6.9297,-54.07927l58.68782,21.05853c0,0 -16.03024,33.33258 -25.76909,44.13734c-8.40772,9.32794 -29.25967,16.91429 -29.25967,16.91429z" fill="#737373" stroke="#282828" stroke-width="4" stroke-linecap="butt"/><path d="M237.37764,238.0978l50,18l-17.75,9.75l-23.5,-8.75z" fill="#414141" stroke="none" stroke-width="0" stroke-linecap="round"/><path d="M228.8379,284.09841c0,0 1.4802,-15.0994 2.57545,-22.6375c1.06941,-7.36025 3.92039,-22.0703 3.92039,-22.0703l8.34859,17.90372c0,0 -1.74822,9.96955 -2.27409,13.77284c-0.56414,4.08008 -1.00401,9.93567 -1.00401,9.93567z" fill="#4d4d4d" stroke="none" stroke-width="0" stroke-linecap="round"/><path d="M259.1221,287.39429c0,0 3.41824,-4.69404 5.41992,-8.29385c1.86588,-3.35559 6.46141,-11.62388 6.46141,-11.62388l18.93385,-9.53992c0,0 -8.06372,16.96963 -11.6333,23.49459c-3.65582,6.68262 -12.79908,18.13945 -12.79908,18.13945z" data-paper-data="{&quot;index&quot;:null}" fill="#4d4d4d" stroke="none" stroke-width="0" stroke-linecap="round"/><path d="M238.73564,314.35648l8.06642,-21.79886" fill="none" stroke="#272727" stroke-width="3" stroke-linecap="round"/><path d="M257.33646,287.04705l7.70459,13.27757" fill="none" stroke="#272727" stroke-width="3" stroke-linecap="round"/><path d="M241.86359,281.47298l-13.82799,4.10631" fill="none" stroke="#272727" stroke-width="3" stroke-linecap="round"/><path d="M245.88415,259.55036l-10.89371,-23.46795" fill="none" stroke="#282828" stroke-width="3" stroke-linecap="round"/><path d="M291.98096,255.22597l-22.32379,11.79324" fill="none" stroke="#272727" stroke-width="3" stroke-linecap="round"/><path d="M250.03008,251.42734c3.26878,-0.7257 6.33011,-1.75725 9.50843,-0.96939c2.81729,0.69838 4.5862,2.87634 6.93481,4.66538c2.09152,1.59321 4.83058,2.68947 6.27028,5.0782c1.6457,2.73051 1.27419,5.57669 1.60912,8.5501c0.3286,2.9173 1.3872,5.96098 0.54717,8.73625c-0.75416,2.4916 -3.35295,4.05141 -4.97847,6.14382c-1.57304,2.02487 -2.14622,4.59928 -4.47376,6.0021c-2.42275,1.46021 -5.08963,1.36125 -7.62513,1.94438c-2.77161,0.63743 -5.41799,1.8606 -8.19956,1.17107c-2.69935,-0.66914 -5.02691,-2.9684 -7.40514,-4.80978c-2.31436,-1.79191 -4.69504,-3.10056 -6.20244,-5.6016c-1.38267,-2.2941 -1.32313,-4.95934 -1.77502,-7.44713c-0.44962,-2.47526 -1.4152,-4.77268 -1.0006,-7.20885c0.4765,-2.79999 2.33555,-4.72421 3.87263,-7.14571c1.72382,-2.71569 3.25679,-5.85733 6.19893,-7.63058c0,0 4.50974,-0.98783 6.71874,-1.47825z" fill="#ca7900" stroke="#673e00" stroke-width="4.5" stroke-linecap="butt"/><path d="M245.74436,253.73577c3.0581,-1.04221 5.39223,-0.57239 8.24717,-0.72021c2.85493,-0.14782 4.89064,-1.04294 7.32471,-0.08605c2.43407,0.95689 2.95021,3.3482 4.67374,4.80294c1.72353,1.45473 3.62292,1.54866 4.81078,3.20238c1.18785,1.65373 1.06737,5.38716 1.06737,5.38716c0,0 -8.45262,-6.81768 -10.94358,-8.09302c-3.09278,-1.58347 -4.81235,-1.8407 -8.65638,-2.10535c-3.84403,-0.26465 -10.08058,0.8764 -10.08058,0.8764c0,0 0.49867,-2.22205 3.55677,-3.26425z" fill="#ff9900" stroke="none" stroke-width="0" stroke-linecap="round"/><path d="M262.81161,288.99541c-3.05811,1.04219 -4.45103,0.84588 -7.30596,0.9937c-2.85494,0.14782 -3.47883,1.45319 -6.55043,0.05587c-0.24441,-0.11118 -4.25841,-2.67803 -5.80499,-3.9834c-1.72353,-1.45473 -3.5658,-2.29971 -4.87513,-3.85901c-1.666,-1.98404 -1.35209,-5.13179 -1.35209,-5.13179c0,0 8.48848,6.35676 11.58125,7.94023c3.09278,1.58347 4.81235,1.84069 8.65638,2.10534c3.84403,0.26465 8.95012,-1.728 8.95012,-1.728c0,0 -0.74342,2.73607 -3.29913,3.60705z" data-paper-data="{&quot;index&quot;:null}" fill="#a66400" stroke="none" stroke-width="0" stroke-linecap="round"/><path d="M250.58961,251.17965l2.26737,18.07388" data-paper-data="{&quot;index&quot;:null}" fill="none" stroke="#673e00" stroke-width="4" stroke-linecap="round"/><path d="M254.05604,272.9419l2.26737,18.07388" data-paper-data="{&quot;index&quot;:null}" fill="none" stroke="#673e00" stroke-width="4" stroke-linecap="round"/><path d="M234.46231,274.6255l17.93854,-3.16465" data-paper-data="{&quot;index&quot;:null}" fill="none" stroke="#673e00" stroke-width="4" stroke-linecap="round"/><path d="M256.41481,272.68307l17.93855,-3.16465" data-paper-data="{&quot;index&quot;:null}" fill="none" stroke="#673e00" stroke-width="4" stroke-linecap="round"/><path d="M236.78479,260.41027l14.92221,10.44672" data-paper-data="{&quot;index&quot;:null}" fill="none" stroke="#673e00" stroke-width="4" stroke-linecap="round"/><path d="M266.22148,255.11988l-11.1769,14.38344" fill="none" stroke="#673e00" stroke-width="4" stroke-linecap="round"/><path d="M268.90056,283.07129l-14.9222,-10.44672" data-paper-data="{&quot;index&quot;:null}" fill="none" stroke="#673e00" stroke-width="4" stroke-linecap="round"/><path d="M242.78179,287.08622l11.1769,-14.38344" data-paper-data="{&quot;index&quot;:null}" fill="none" stroke="#673e00" stroke-width="4" stroke-linecap="round"/><path d="M257.30481,263.21538c1.18755,0.16899 1.83831,1.30661 2.50577,2.41405c1.1781,1.95468 -1.58293,8.51006 -3.53761,9.68816c-1.95468,1.1781 -4.49431,0.54856 -5.6724,-1.40613c-1.1781,-1.95468 1.1274,-8.96379 3.08208,-10.14188c0,0 2.71366,-0.68347 3.62217,-0.55418z" fill="#ffc266" stroke="#664e29" stroke-width="3" stroke-linecap="butt"/><path d="M299.48361,75.24863l-11.39644,-43.30648l43.30648,-11.39644l11.39644,43.30648z" fill="#4d4d4d" stroke="#1a1a1a" stroke-width="4" stroke-linecap="butt"/></g></g></svg>