<svg version="1.1" xmlns="http://www.w3.org/2000/svg" xmlns:xlink="http://www.w3.org/1999/xlink" width="123.19758" height="36.16365" viewBox="0,0,123.19758,36.16365"><defs><radialGradient cx="186.52415" cy="178.28351" r="6.01306" gradientUnits="userSpaceOnUse" id="color-1"><stop offset="0" stop-color="#000000" stop-opacity="0"/><stop offset="1" stop-color="#000000" stop-opacity="0"/></radialGradient><radialGradient cx="203.33948" cy="185.30076" r="6.01306" gradientUnits="userSpaceOnUse" id="color-2"><stop offset="0" stop-color="#000000" stop-opacity="0"/><stop offset="1" stop-color="#000000" stop-opacity="0"/></radialGradient><radialGradient cx="221.59571" cy="190.58894" r="6.01306" gradientUnits="userSpaceOnUse" id="color-3"><stop offset="0" stop-color="#000000" stop-opacity="0"/><stop offset="1" stop-color="#000000" stop-opacity="0"/></radialGradient><radialGradient cx="259.15992" cy="190.6899" r="6.01306" gradientUnits="userSpaceOnUse" id="color-4"><stop offset="0" stop-color="#000000" stop-opacity="0"/><stop offset="1" stop-color="#000000" stop-opacity="0"/></radialGradient><radialGradient cx="239.85194" cy="192.41897" r="6.01306" gradientUnits="userSpaceOnUse" id="color-5"><stop offset="0" stop-color="#000000" stop-opacity="0"/><stop offset="1" stop-color="#000000" stop-opacity="0"/></radialGradient><radialGradient cx="275.19698" cy="184.82536" r="6.01306" gradientUnits="userSpaceOnUse" id="color-6"><stop offset="0" stop-color="#000000" stop-opacity="0"/><stop offset="1" stop-color="#000000" stop-opacity="0"/></radialGradient><radialGradient cx="290.94586" cy="178.09629" r="6.01306" gradientUnits="userSpaceOnUse" id="color-7"><stop offset="0" stop-color="#000000" stop-opacity="0"/><stop offset="1" stop-color="#000000" stop-opacity="0"/></radialGradient><radialGradient cx="178.35491" cy="175.50434" r="6.01306" gradientUnits="userSpaceOnUse" id="color-8"><stop offset="0" stop-color="#000000" stop-opacity="0"/><stop offset="1" stop-color="#000000" stop-opacity="0"/></radialGradient><radialGradient cx="300.38494" cy="174.47151" r="6.01306" gradientUnits="userSpaceOnUse" id="color-9"><stop offset="0" stop-color="#000000" stop-opacity="0"/><stop offset="1" stop-color="#000000" stop-opacity="0"/></radialGradient><radialGradient cx="283.05932" cy="182.06738" r="6.01306" gradientUnits="userSpaceOnUse" id="color-10"><stop offset="0" stop-color="#000000" stop-opacity="0"/><stop offset="1" stop-color="#000000" stop-opacity="0"/></radialGradient><radialGradient cx="267.77386" cy="187.98244" r="6.01306" gradientUnits="userSpaceOnUse" id="color-11"><stop offset="0" stop-color="#000000" stop-opacity="0"/><stop offset="1" stop-color="#000000" stop-opacity="0"/></radialGradient><radialGradient cx="249.74818" cy="192.07187" r="6.01306" gradientUnits="userSpaceOnUse" id="color-12"><stop offset="0" stop-color="#000000" stop-opacity="0"/><stop offset="1" stop-color="#000000" stop-opacity="0"/></radialGradient><radialGradient cx="230.38402" cy="191.77029" r="6.01306" gradientUnits="userSpaceOnUse" id="color-13"><stop offset="0" stop-color="#000000" stop-opacity="0"/><stop offset="1" stop-color="#000000" stop-opacity="0"/></radialGradient><radialGradient cx="211.80423" cy="188.1723" r="6.01306" gradientUnits="userSpaceOnUse" id="color-14"><stop offset="0" stop-color="#000000" stop-opacity="0"/><stop offset="1" stop-color="#000000" stop-opacity="0"/></radialGradient><radialGradient cx="194.86666" cy="182.0207" r="6.01307" gradientUnits="userSpaceOnUse" id="color-15"><stop offset="0" stop-color="#000000" stop-opacity="0"/><stop offset="1" stop-color="#000000" stop-opacity="0"/></radialGradient><linearGradient x1="239.9012" y1="192.52573" x2="239.9012" y2="209.16173" gradientUnits="userSpaceOnUse" id="color-16"><stop offset="0" stop-color="#ffc500"/><stop offset="1" stop-color="#987500"/></linearGradient></defs><g transform="translate(-177.77114,-173.99808)"><g data-paper-data="{&quot;isPaintingLayer&quot;:true}" fill-rule="nonzero" stroke-linecap="butt" stroke-linejoin="miter" stroke-miterlimit="10" stroke-dasharray="" stroke-dashoffset="0" style="mix-blend-mode: normal"><path d="M185.48643,180.7133c-3.05406,-1.30434 -5.06525,-3.44956 -4.49213,-4.79149c0.57312,-1.34193 3.51352,-1.37242 6.56757,-0.06808c3.05406,1.30434 5.06525,3.44957 4.49213,4.79149c-0.57312,1.34193 -3.51352,1.37241 -6.56757,0.06807z" fill="url(#color-1)" stroke="#b3b3b3" stroke-width="3"/><path d="M202.52207,187.81324c-3.158,-1.02744 -5.35208,-2.98521 -4.90063,-4.37281c0.45145,-1.3876 3.37748,-1.67959 6.53547,-0.65215c3.158,1.02744 5.35208,2.98522 4.90063,4.37281c-0.45145,1.3876 -3.37748,1.67958 -6.53547,0.65214z" fill="url(#color-2)" stroke="#b3b3b3" stroke-width="3"/><path d="M221.1721,193.19687c-3.27797,-0.53245 -5.74562,-2.13169 -5.51166,-3.572c0.23396,-1.44031 3.08092,-2.1763 6.35888,-1.64384c3.27797,0.53245 5.74562,2.1317 5.51166,3.572c-0.23396,1.44031 -3.08092,2.17629 -6.35888,1.64383z" fill="url(#color-3)" stroke="#b3b3b3" stroke-width="3"/><path d="M259.58354,193.29782c-3.27796,0.53245 -6.12493,-0.20352 -6.35889,-1.64383c-0.23396,-1.4403 2.23369,-3.03955 5.51166,-3.572c3.27796,-0.53245 6.12492,0.20353 6.35888,1.64384c0.23396,1.44031 -2.23369,3.03955 -5.51165,3.572z" data-paper-data="{&quot;index&quot;:null}" fill="url(#color-4)" stroke="#b3b3b3" stroke-width="3"/><path d="M239.76217,195.05956c-3.31901,-0.11283 -5.9694,-1.38653 -5.91982,-2.84488c0.04958,-1.45835 2.78035,-2.54912 6.09935,-2.43628c3.31901,0.11283 5.96941,1.38654 5.91982,2.84488c-0.04958,1.45835 -2.78035,2.54911 -6.09936,2.43627z" fill="url(#color-5)" stroke="#b3b3b3" stroke-width="3"/><path d="M276.0144,187.33784c-3.15799,1.02744 -6.08402,0.73546 -6.53546,-0.65214c-0.45145,-1.38759 1.74263,-3.34537 4.90063,-4.3728c3.15799,-1.02744 6.08402,-0.73545 6.53547,0.65215c0.45145,1.3876 -1.74263,3.34537 -4.90063,4.3728z" data-paper-data="{&quot;index&quot;:null}" fill="url(#color-6)" stroke="#b3b3b3" stroke-width="3"/><path d="M291.98358,180.52607c-3.05405,1.30434 -5.99445,1.27386 -6.56757,-0.06807c-0.57312,-1.34192 1.43807,-3.48715 4.49213,-4.79149c3.05405,-1.30434 5.99445,-1.27385 6.56757,0.06808c0.57312,1.34193 -1.43807,3.48715 -4.49213,4.79149z" data-paper-data="{&quot;index&quot;:null}" fill="url(#color-7)" stroke="#b3b3b3" stroke-width="3"/><path d="M184.01336,177.53875c-0.4937,1.37314 -5.19968,-0.62721 -4.70599,-2.00034c0.4937,-1.37314 5.19968,0.62721 4.70599,2.00034z" fill="url(#color-8)" stroke="#b3b3b3" stroke-width="3"/><path d="M299.43248,174.50558c0.49368,1.37313 -4.2123,3.37349 -4.70599,2.00035c-0.49369,-1.37313 4.2123,-3.37349 4.70599,-2.00035z" data-paper-data="{&quot;index&quot;:null}" fill="url(#color-9)" stroke="#b3b3b3" stroke-width="3"/><path d="M282.53302,181.57821c3.01641,-1.38916 5.38249,-3.17649 5.99288,-1.8511c0.61039,1.32539 -2.6289,1.28482 -5.64531,2.67399c-3.01643,1.38916 -4.67258,3.50698 -5.28298,2.18159c-0.61039,-1.32539 1.91898,-1.6153 4.9354,-3.00447z" data-paper-data="{&quot;index&quot;:null}" fill="url(#color-10)" stroke="#b3b3b3" stroke-width="3"/><path d="M267.30234,187.44027c3.14659,-1.06183 5.68867,-2.58849 6.15524,-1.2059c0.46657,1.38259 -2.7502,0.99913 -5.89679,2.06097c-3.1466,1.06184 -5.01776,2.99231 -5.48433,1.60973c-0.46657,-1.38259 2.07928,-1.40295 5.22588,-2.46479z" data-paper-data="{&quot;index&quot;:null}" fill="url(#color-11)" stroke="#b3b3b3" stroke-width="3"/><path d="M249.39496,191.44616c3.29561,-0.40928 6.09219,-1.39515 6.27204,0.05291c0.17983,1.44807 -2.8947,0.42733 -6.19031,0.83662c-3.29562,0.40928 -5.51588,1.92532 -5.69573,0.47725c-0.17983,-1.44807 2.31838,-0.9575 5.614,-1.36678z" data-paper-data="{&quot;index&quot;:null}" fill="url(#color-12)" stroke="#b3b3b3" stroke-width="3"/><path d="M230.73725,191.14459c3.29562,0.40928 5.79383,-0.08129 5.61399,1.36678c-0.17985,1.44807 -2.40012,-0.06797 -5.69573,-0.47725c-3.2956,-0.40929 -6.37014,0.61145 -6.19031,-0.83662c0.17985,-1.44807 2.97643,-0.46219 6.27204,-0.05292z" data-paper-data="{&quot;index&quot;:null}" fill="url(#color-13)" stroke="#b3b3b3" stroke-width="3"/><path d="M212.29857,187.65086c3.09817,1.19579 5.6408,1.3253 5.11538,2.68662c-0.52544,1.36131 -2.31209,-0.64763 -5.41026,-1.84342c-3.09816,-1.19579 -6.32842,-0.95062 -5.80299,-2.31194c0.52544,-1.36131 2.99971,0.27295 6.09787,1.46873z" data-paper-data="{&quot;index&quot;:null}" fill="url(#color-14)" stroke="#b3b3b3" stroke-width="3"/><path d="M235.23946,194.17105c0,-2.62509 2.12805,-4.75314 4.75314,-4.75314c2.62509,0 4.75314,2.12805 4.75314,4.75314c0,2.62509 -2.12805,4.75314 -4.75314,4.75314c-2.62509,0 -4.75314,-2.12805 -4.75314,-4.75314z" fill="none" stroke="#000000" stroke-width="3"/><path d="M195.361,181.49927c3.09817,1.19579 5.64081,1.3253 5.11538,2.68661c-0.52543,1.3613 -2.31209,-0.64763 -5.41026,-1.84342c-3.09816,-1.1958 -6.32842,-0.95063 -5.803,-2.31194c0.52543,-1.3613 2.99971,0.27294 6.09787,1.46873z" data-paper-data="{&quot;index&quot;:null}" fill="url(#color-15)" stroke="#b3b3b3" stroke-width="3"/><path d="M231.5832,209.16173v-16.63599h16.63599v16.63599z" fill="url(#color-16)" stroke="#000000" stroke-width="2"/><path d="M236.88478,200.15337c0,-1.66592 1.3505,-3.01642 3.01642,-3.01642c1.66592,0 3.01642,1.3505 3.01642,3.01642c0,1.66592 -1.3505,3.01642 -3.01642,3.01642c-1.66592,0 -3.01642,-1.3505 -3.01642,-3.01642z" fill="#000000" stroke="none" stroke-width="0"/><path d="M239.80979,200.656l3.20415,5.94635h-6.4083z" fill="#000000" stroke="none" stroke-width="0"/></g></g></svg>