<svg version="1.1" xmlns="http://www.w3.org/2000/svg" xmlns:xlink="http://www.w3.org/1999/xlink" width="66.03334" height="66.03334" viewBox="0,0,66.03334,66.03334"><g transform="translate(-206.98333,-146.98334)"><g data-paper-data="{&quot;isPaintingLayer&quot;:true}" fill-rule="nonzero" stroke-linejoin="miter" stroke-miterlimit="10" stroke-dasharray="" stroke-dashoffset="0" style="mix-blend-mode: normal"><path d="M209.48334,180.00001c0,-16.85387 13.6628,-30.51667 30.51667,-30.51667c16.85387,0 30.51667,13.6628 30.51667,30.51667c0,16.85387 -13.6628,30.51667 -30.51667,30.51667c-16.85387,0 -30.51667,-13.6628 -30.51667,-30.51667z" fill="#424242" stroke="#000000" stroke-width="5" stroke-linecap="butt"/><path d="M265.5397,190.47784l-27.24234,-37.98212c0,0 15.4195,-2.0782 24.36095,9.95394c10.34108,13.9156 2.8814,28.02818 2.8814,28.02818z" fill="#585858" stroke="none" stroke-width="0" stroke-linecap="round"/><path d="M213.91916,170.17103l27.24234,37.98212c0,0 -15.4195,2.0782 -24.36095,-9.95394c-10.34108,-13.9156 -2.8814,-28.02818 -2.8814,-28.02818z" data-paper-data="{&quot;index&quot;:null}" fill="#272727" stroke="none" stroke-width="0" stroke-linecap="round"/><path d="M249.56103,197.28843c0,0 -14.50451,4.68375 -19.12203,2.61946c-4.6175,-2.06431 -3.14335,-12.57339 -3.14335,-12.57339z" fill="#b3b3b3" stroke="none" stroke-width="0" stroke-linecap="round"/><path d="M230.78996,194.56027l-0.95322,-6.08898l5.34057,-2.26295l0.01771,4.59215z" fill="#424242" stroke="none" stroke-width="0" stroke-linecap="butt"/></g></g></svg>