<svg version="1.1" xmlns="http://www.w3.org/2000/svg" xmlns:xlink="http://www.w3.org/1999/xlink" width="168.68636" height="114.89115" viewBox="0,0,168.68636,114.89115"><defs><radialGradient cx="290.92928" cy="159.98866" r="29.91084" gradientUnits="userSpaceOnUse" id="color-1"><stop offset="0" stop-color="#800000"/><stop offset="1" stop-color="#800000" stop-opacity="0"/></radialGradient><radialGradient cx="294.43235" cy="181.27656" r="29.91084" gradientUnits="userSpaceOnUse" id="color-2"><stop offset="0" stop-color="#800000"/><stop offset="1" stop-color="#800000" stop-opacity="0"/></radialGradient><radialGradient cx="185.56767" cy="181.27656" r="29.91084" gradientUnits="userSpaceOnUse" id="color-3"><stop offset="0" stop-color="#800000"/><stop offset="1" stop-color="#800000" stop-opacity="0"/></radialGradient><radialGradient cx="290.92928" cy="200.94767" r="29.91084" gradientUnits="userSpaceOnUse" id="color-4"><stop offset="0" stop-color="#800000"/><stop offset="1" stop-color="#800000" stop-opacity="0"/></radialGradient><radialGradient cx="187.03488" cy="159.83908" r="29.91084" gradientUnits="userSpaceOnUse" id="color-5"><stop offset="0" stop-color="#800000"/><stop offset="1" stop-color="#800000" stop-opacity="0"/></radialGradient><radialGradient cx="187.30434" cy="202.1454" r="29.91085" gradientUnits="userSpaceOnUse" id="color-6"><stop offset="0" stop-color="#800000"/><stop offset="1" stop-color="#800000" stop-opacity="0"/></radialGradient><radialGradient cx="239.31148" cy="204.03168" r="29.91084" gradientUnits="userSpaceOnUse" id="color-7"><stop offset="0" stop-color="#800000"/><stop offset="1" stop-color="#800000" stop-opacity="0"/></radialGradient><radialGradient cx="239.31148" cy="155.96835" r="29.91084" gradientUnits="userSpaceOnUse" id="color-8"><stop offset="0" stop-color="#800000"/><stop offset="1" stop-color="#800000" stop-opacity="0"/></radialGradient><radialGradient cx="213.98158" cy="207.53475" r="29.91084" gradientUnits="userSpaceOnUse" id="color-9"><stop offset="0" stop-color="#800000"/><stop offset="1" stop-color="#800000" stop-opacity="0"/></radialGradient><radialGradient cx="213.98158" cy="152.46526" r="29.91084" gradientUnits="userSpaceOnUse" id="color-10"><stop offset="0" stop-color="#800000"/><stop offset="1" stop-color="#800000" stop-opacity="0"/></radialGradient><radialGradient cx="264.37191" cy="205.37901" r="29.91084" gradientUnits="userSpaceOnUse" id="color-11"><stop offset="0" stop-color="#800000"/><stop offset="1" stop-color="#800000" stop-opacity="0"/></radialGradient><radialGradient cx="264.37191" cy="154.62102" r="29.91084" gradientUnits="userSpaceOnUse" id="color-12"><stop offset="0" stop-color="#800000"/><stop offset="1" stop-color="#800000" stop-opacity="0"/></radialGradient><linearGradient x1="239.44621" y1="155.34948" x2="239.44621" y2="206.4342" gradientUnits="userSpaceOnUse" id="color-13"><stop offset="0" stop-color="#9a9a9a"/><stop offset="1" stop-color="#343434"/></linearGradient><linearGradient x1="239.44621" y1="155.34952" x2="239.44621" y2="206.43422" gradientUnits="userSpaceOnUse" id="color-14"><stop offset="0" stop-color="#1b1b1b"/><stop offset="1" stop-color="#000000"/></linearGradient><radialGradient cx="200.91818" cy="159.9023" r="6.01306" gradientUnits="userSpaceOnUse" id="color-15"><stop offset="0" stop-color="#000000" stop-opacity="0"/><stop offset="1" stop-color="#000000" stop-opacity="0"/></radialGradient><radialGradient cx="192.78569" cy="178.20989" r="6.01306" gradientUnits="userSpaceOnUse" id="color-16"><stop offset="0" stop-color="#000000" stop-opacity="0"/><stop offset="1" stop-color="#000000" stop-opacity="0"/></radialGradient><radialGradient cx="185.52871" cy="196.16727" r="6.01306" gradientUnits="userSpaceOnUse" id="color-17"><stop offset="0" stop-color="#000000" stop-opacity="0"/><stop offset="1" stop-color="#000000" stop-opacity="0"/></radialGradient><radialGradient cx="188.60261" cy="188.38498" r="6.01306" gradientUnits="userSpaceOnUse" id="color-18"><stop offset="0" stop-color="#000000" stop-opacity="0"/><stop offset="1" stop-color="#000000" stop-opacity="0"/></radialGradient><radialGradient cx="196.4042" cy="169.04611" r="6.01306" gradientUnits="userSpaceOnUse" id="color-19"><stop offset="0" stop-color="#000000" stop-opacity="0"/><stop offset="1" stop-color="#000000" stop-opacity="0"/></radialGradient><radialGradient cx="204.2058" cy="151.45824" r="6.01306" gradientUnits="userSpaceOnUse" id="color-20"><stop offset="0" stop-color="#000000" stop-opacity="0"/><stop offset="1" stop-color="#000000" stop-opacity="0"/></radialGradient><radialGradient cx="183.81632" cy="198.48218" r="6.01306" gradientUnits="userSpaceOnUse" id="color-21"><stop offset="0" stop-color="#000000" stop-opacity="0"/><stop offset="1" stop-color="#000000" stop-opacity="0"/></radialGradient><radialGradient cx="261.11457" cy="158.43991" r="6.01306" gradientUnits="userSpaceOnUse" id="color-22"><stop offset="0" stop-color="#000000" stop-opacity="0"/><stop offset="1" stop-color="#000000" stop-opacity="0"/></radialGradient><radialGradient cx="266.23348" cy="167.36408" r="6.01306" gradientUnits="userSpaceOnUse" id="color-23"><stop offset="0" stop-color="#000000" stop-opacity="0"/><stop offset="1" stop-color="#000000" stop-opacity="0"/></radialGradient><radialGradient cx="281.37334" cy="192.81945" r="6.01306" gradientUnits="userSpaceOnUse" id="color-24"><stop offset="0" stop-color="#000000" stop-opacity="0"/><stop offset="1" stop-color="#000000" stop-opacity="0"/></radialGradient><radialGradient cx="286.20407" cy="201.16727" r="6.01306" gradientUnits="userSpaceOnUse" id="color-25"><stop offset="0" stop-color="#000000" stop-opacity="0"/><stop offset="1" stop-color="#000000" stop-opacity="0"/></radialGradient><radialGradient cx="288.34398" cy="203.94221" r="6.01306" gradientUnits="userSpaceOnUse" id="color-26"><stop offset="0" stop-color="#000000" stop-opacity="0"/><stop offset="1" stop-color="#000000" stop-opacity="0"/></radialGradient><linearGradient x1="208.8977" y1="174.96859" x2="208.8977" y2="186.18519" gradientTransform="translate(-819.79245,-754.5056) scale(4.11438,4.11438)" gradientUnits="userSpaceOnUse" id="color-27"><stop offset="0" stop-color="#ff9500"/><stop offset="1" stop-color="#9465ff"/></linearGradient><linearGradient x1="208.8977" y1="174.96859" x2="208.8977" y2="186.18519" gradientTransform="translate(-819.79245,-754.5056) scale(4.11438,4.11438)" gradientUnits="userSpaceOnUse" id="color-28"><stop offset="0" stop-color="#bfbfbf"/><stop offset="1" stop-color="#bf0000"/></linearGradient><linearGradient x1="208.8977" y1="174.03658" x2="208.8977" y2="185.2532" gradientTransform="translate(-819.79245,-750.67099) scale(4.11438,4.11438)" gradientUnits="userSpaceOnUse" id="color-29"><stop offset="0" stop-color="#ff9500"/><stop offset="1" stop-color="#9465ff"/></linearGradient><linearGradient x1="208.8977" y1="174.03658" x2="208.8977" y2="185.2532" gradientTransform="translate(-819.79245,-750.67099) scale(4.11438,4.11438)" gradientUnits="userSpaceOnUse" id="color-30"><stop offset="0" stop-color="#bfbfbf"/><stop offset="1" stop-color="#bf0000"/></linearGradient><linearGradient x1="208.8977" y1="174.96859" x2="208.8977" y2="186.18519" gradientTransform="translate(-819.79245,-754.5056) scale(4.11438,4.11438)" gradientUnits="userSpaceOnUse" id="color-31"><stop offset="0" stop-color="#ff9500"/><stop offset="1" stop-color="#9465ff"/></linearGradient><linearGradient x1="208.8977" y1="174.03658" x2="208.8977" y2="185.25319" gradientTransform="translate(-819.79245,-750.67099) scale(4.11438,4.11438)" gradientUnits="userSpaceOnUse" id="color-32"><stop offset="0" stop-color="#ff9500"/><stop offset="1" stop-color="#9465ff"/></linearGradient><linearGradient x1="206.37" y1="174.03659" x2="206.37" y2="185.2532" gradientTransform="translate(-809.39253,-750.67099) scale(4.11438,4.11438)" gradientUnits="userSpaceOnUse" id="color-33"><stop offset="0" stop-color="#ff9500"/><stop offset="1" stop-color="#9465ff"/></linearGradient><linearGradient x1="208.8977" y1="174.03659" x2="208.8977" y2="185.2532" gradientTransform="translate(-819.79245,-750.67099) scale(4.11438,4.11438)" gradientUnits="userSpaceOnUse" id="color-34"><stop offset="0" stop-color="#bf0000"/><stop offset="1" stop-color="#c1c1c1"/></linearGradient><radialGradient cx="271.38804" cy="176.20604" r="6.01306" gradientUnits="userSpaceOnUse" id="color-35"><stop offset="0" stop-color="#000000" stop-opacity="0"/><stop offset="1" stop-color="#000000" stop-opacity="0"/></radialGradient><radialGradient cx="276.21877" cy="184.26566" r="6.01306" gradientUnits="userSpaceOnUse" id="color-36"><stop offset="0" stop-color="#000000" stop-opacity="0"/><stop offset="1" stop-color="#000000" stop-opacity="0"/></radialGradient></defs><g transform="translate(-155.65681,-122.55443)"><g data-paper-data="{&quot;isPaintingLayer&quot;:true}" fill-rule="nonzero" stroke-linejoin="miter" stroke-miterlimit="10" stroke-dasharray="" stroke-dashoffset="0" style="mix-blend-mode: normal"><path d="M261.01842,159.98866c0,-16.51931 13.39154,-29.91084 29.91084,-29.91084c16.5193,0 29.91084,13.39154 29.91084,29.91084c0,16.51931 -13.39154,29.91084 -29.91084,29.91084c-16.5193,0 -29.91084,-13.39154 -29.91084,-29.91084z" fill="url(#color-1)" stroke="none" stroke-width="NaN" stroke-linecap="butt"/><path d="M264.5215,181.27656c0,-16.51931 13.39154,-29.91084 29.91084,-29.91084c16.5193,0 29.91084,13.39154 29.91084,29.91084c0,16.51931 -13.39153,29.91084 -29.91084,29.91084c-16.5193,0 -29.91084,-13.39154 -29.91084,-29.91084z" fill="url(#color-2)" stroke="none" stroke-width="NaN" stroke-linecap="butt"/><path d="M155.65682,181.27656c0,-16.51931 13.39154,-29.91084 29.91084,-29.91084c16.51931,0 29.91084,13.39154 29.91084,29.91084c0,16.51931 -13.39154,29.91084 -29.91084,29.91084c-16.51931,0 -29.91084,-13.39154 -29.91084,-29.91084z" fill="url(#color-3)" stroke="none" stroke-width="NaN" stroke-linecap="butt"/><path d="M261.01842,200.94767c0,-16.51931 13.39154,-29.91084 29.91084,-29.91084c16.5193,0 29.91084,13.39154 29.91084,29.91084c0,16.51931 -13.39154,29.91084 -29.91084,29.91084c-16.5193,0 -29.91084,-13.39154 -29.91084,-29.91084z" fill="url(#color-4)" stroke="none" stroke-width="NaN" stroke-linecap="butt"/><path d="M157.12402,159.83908c0,-16.51931 13.39154,-29.91085 29.91084,-29.91085c16.51931,0 29.91084,13.39154 29.91084,29.91085c0,16.51931 -13.39154,29.91084 -29.91084,29.91084c-16.51931,0 -29.91084,-13.39153 -29.91084,-29.91084z" fill="url(#color-5)" stroke="none" stroke-width="NaN" stroke-linecap="butt"/><path d="M157.3935,202.1454c0,-16.51931 13.39154,-29.91084 29.91084,-29.91084c16.51931,0 29.91085,13.39154 29.91085,29.91084c0,16.51931 -13.39154,29.91084 -29.91085,29.91084c-16.51931,0 -29.91084,-13.39154 -29.91084,-29.91084z" fill="url(#color-6)" stroke="none" stroke-width="NaN" stroke-linecap="butt"/><path d="M209.40064,204.03168c0,-16.51931 13.39154,-29.91084 29.91084,-29.91084c16.5193,0 29.91084,13.39154 29.91084,29.91084c0,16.51931 -13.39154,29.91084 -29.91084,29.91084c-16.51931,0 -29.91084,-13.39154 -29.91084,-29.91084z" fill="url(#color-7)" stroke="none" stroke-width="NaN" stroke-linecap="butt"/><path d="M239.31148,126.0575c16.5193,0 29.91084,13.39154 29.91084,29.91084c0,16.51931 -13.39154,29.91084 -29.91084,29.91084c-16.51931,0 -29.91084,-13.39154 -29.91084,-29.91084c0,-16.51931 13.39154,-29.91084 29.91084,-29.91084z" data-paper-data="{&quot;index&quot;:null}" fill="url(#color-8)" stroke="none" stroke-width="NaN" stroke-linecap="butt"/><path d="M184.07074,207.53475c0,-16.51931 13.39154,-29.91084 29.91084,-29.91084c16.51931,0 29.91084,13.39154 29.91084,29.91084c0,16.51931 -13.39154,29.91084 -29.91084,29.91084c-16.51931,0 -29.91084,-13.39154 -29.91084,-29.91084z" fill="url(#color-9)" stroke="none" stroke-width="NaN" stroke-linecap="butt"/><path d="M213.98158,122.55444c16.51931,0 29.91084,13.39154 29.91084,29.91084c0,16.51931 -13.39154,29.91084 -29.91084,29.91084c-16.51931,0 -29.91084,-13.39154 -29.91084,-29.91084c0,-16.51931 13.39154,-29.91084 29.91084,-29.91084z" data-paper-data="{&quot;index&quot;:null}" fill="url(#color-10)" stroke="none" stroke-width="NaN" stroke-linecap="butt"/><path d="M234.46108,205.37901c0,-16.51931 13.39154,-29.91084 29.91084,-29.91084c16.5193,0 29.91084,13.39154 29.91084,29.91084c0,16.51931 -13.39154,29.91084 -29.91084,29.91084c-16.51931,0 -29.91084,-13.39154 -29.91084,-29.91084z" fill="url(#color-11)" stroke="none" stroke-width="NaN" stroke-linecap="butt"/><path d="M264.37191,124.71016c16.5193,0 29.91084,13.39154 29.91084,29.91085c0,16.51931 -13.39154,29.91084 -29.91084,29.91084c-16.51931,0 -29.91084,-13.39154 -29.91084,-29.91084c0,-16.51931 13.39154,-29.91085 29.91084,-29.91085z" data-paper-data="{&quot;index&quot;:null}" fill="url(#color-12)" stroke="none" stroke-width="NaN" stroke-linecap="butt"/><g><path d="M183.30724,196.26384c0,-9.93915 0,-24.38874 0,-30.14536c0,-4.73309 5.23551,-10.76893 10.5599,-10.76893c12.92105,0 67.82501,0 91.15814,0c6.50796,0 10.5599,4.40639 10.5599,10.40792c0,10.13103 0,24.80755 0,30.50639c0,4.52446 -3.94645,10.17036 -10.5599,10.17036c-23.43454,0 -78.2703,0 -91.15814,0c-5.32439,0 -10.5599,-4.2979 -10.5599,-10.17036z" fill="url(#color-13)" stroke="url(#color-14)" stroke-width="5" stroke-linecap="butt"/><path d="M289.90214,161.33212v9.20608c0,0 -2.09011,-3.77633 -3.65404,-5.37062c-1.53427,-1.56408 -5.64228,-4.10621 -5.64228,-4.10621h9.20606" fill="none" stroke="#b3b3b3" stroke-width="6" stroke-linecap="round"/><path d="M188.36107,200.95572v-9.20606c0,0 2.09012,3.77633 3.65405,5.37062c1.53427,1.56407 5.64228,4.10621 5.64228,4.10621h-9.20608" data-paper-data="{&quot;index&quot;:null}" fill="none" stroke="#1a1a1a" stroke-width="6" stroke-linecap="round"/></g><path d="M203.34796,160.94001c-1.30434,3.05406 -3.44956,5.06525 -4.79149,4.49213c-1.34193,-0.57312 -1.37242,-3.51351 -0.06808,-6.56757c1.30434,-3.05406 3.44957,-5.06525 4.79149,-4.49213c1.34193,0.57312 1.37241,3.51351 0.06807,6.56757z" fill="url(#color-15)" stroke="#b3b3b3" stroke-width="3" stroke-linecap="butt"/><path d="M195.21548,179.24761c-1.30434,3.05406 -3.44956,5.06525 -4.79149,4.49213c-1.34193,-0.57312 -1.37242,-3.51352 -0.06808,-6.56757c1.30434,-3.05406 3.44957,-5.06525 4.79149,-4.49213c1.34193,0.57312 1.37241,3.51352 0.06807,6.56757z" fill="url(#color-16)" stroke="#b3b3b3" stroke-width="3" stroke-linecap="butt"/><path d="M187.95849,197.20499c-1.30434,3.05406 -3.44956,5.06525 -4.79149,4.49213c-1.34193,-0.57312 -1.37241,-3.51351 -0.06808,-6.56757c1.30434,-3.05406 3.44957,-5.06525 4.79149,-4.49213c1.34193,0.57312 1.37241,3.51351 0.06807,6.56757z" fill="url(#color-17)" stroke="#b3b3b3" stroke-width="3" stroke-linecap="butt"/><path d="M189.10629,188.89741c-1.30434,3.05406 -1.52346,5.59054 -2.86539,5.01743c-1.34193,-0.57312 0.72878,-2.28781 2.03312,-5.34187c1.30434,-3.05406 1.17327,-6.29094 2.5152,-5.71783c1.34193,0.57312 -0.37859,2.98822 -1.68292,6.04227z" fill="url(#color-18)" stroke="#b3b3b3" stroke-width="3" stroke-linecap="butt"/><path d="M196.90789,169.55852c-1.30434,3.05406 -1.52347,5.59054 -2.8654,5.01743c-1.34193,-0.57312 0.72878,-2.28781 2.03312,-5.34187c1.30434,-3.05406 1.17327,-6.29094 2.5152,-5.71783c1.34193,0.57312 -0.37858,2.98821 -1.68292,6.04227z" fill="url(#color-19)" stroke="#b3b3b3" stroke-width="3" stroke-linecap="butt"/><path d="M201.84409,156.98809c-1.34193,-0.57312 0.93009,-5.15412 2.27202,-4.58101c1.34193,0.57312 -0.93009,5.15412 -2.27202,4.58101z" fill="url(#color-20)" stroke="#b3b3b3" stroke-width="3" stroke-linecap="butt"/><path d="M181.45462,204.01204c-1.34193,-0.57312 0.93009,-5.15412 2.27202,-4.58101c1.34193,0.57312 -0.93009,5.15412 -2.27202,4.58101z" fill="url(#color-21)" stroke="#b3b3b3" stroke-width="3" stroke-linecap="butt"/><path d="M260.70752,159.032c-1.81486,-2.78115 -3.92864,-4.86077 -2.70662,-5.65822c1.22202,-0.79744 1.65504,2.41303 3.46992,5.19418c1.81487,2.78116 4.15188,4.1102 2.92987,4.90765c-1.22202,0.79744 -1.87828,-1.66245 -3.69315,-4.44361z" data-paper-data="{&quot;index&quot;:null}" fill="url(#color-22)" stroke="#b3b3b3" stroke-width="3" stroke-linecap="butt"/><path d="M263.90373,168.61023c-1.56633,-2.92835 -1.79301,-5.86015 -0.50632,-6.54838c1.28668,-0.68823 3.59951,1.12772 5.16584,4.05607c1.56632,2.92835 1.793,5.86015 0.50631,6.54838c-1.28669,0.68823 -3.59951,-1.12772 -5.16584,-4.05607z" data-paper-data="{&quot;index&quot;:null}" fill="url(#color-23)" stroke="#b3b3b3" stroke-width="3" stroke-linecap="butt"/><path d="M280.9663,193.41156c-1.81486,-2.78114 -3.92864,-4.86077 -2.70662,-5.65822c1.22202,-0.79744 1.65504,2.41303 3.46992,5.19418c1.81488,2.78115 4.15189,4.1102 2.92987,4.90765c-1.22202,0.79744 -1.87828,-1.66246 -3.69316,-4.44361z" data-paper-data="{&quot;index&quot;:null}" fill="url(#color-24)" stroke="#b3b3b3" stroke-width="3" stroke-linecap="butt"/><path d="M283.87432,202.41342c-1.56633,-2.92834 -1.79301,-5.86014 -0.50632,-6.54838c1.28668,-0.68823 3.59951,1.12772 5.16584,4.05607c1.56632,2.92835 1.793,5.86014 0.50631,6.54838c-1.28669,0.68824 -3.59951,-1.12772 -5.16584,-4.05607z" data-paper-data="{&quot;index&quot;:null}" fill="url(#color-25)" stroke="#b3b3b3" stroke-width="3" stroke-linecap="butt"/><path d="M288.44329,204.89009c1.33604,-0.58671 3.65448,3.97097 2.31844,4.55769c-1.33604,0.58671 -3.65448,-3.97097 -2.31844,-4.55769z" data-paper-data="{&quot;index&quot;:null}" fill="url(#color-26)" stroke="#b3b3b3" stroke-width="3" stroke-linecap="butt"/><g stroke-linecap="butt" font-family="Sans Serif" font-weight="normal" font-size="40" text-anchor="start"><text transform="translate(199.25056,183.38259) scale(0.24305,0.24305)" font-size="40" xml:space="preserve" fill="url(#color-27)" fill-rule="nonzero" stroke="url(#color-28)" stroke-width="15" stroke-linecap="butt" stroke-linejoin="miter" stroke-miterlimit="10" stroke-dasharray="" stroke-dashoffset="0" font-family="Sans Serif" font-weight="normal" text-anchor="start" style="mix-blend-mode: normal"><tspan x="0" dy="0">Super Hard Mode</tspan></text><text transform="translate(199.25056,182.45059) scale(0.24305,0.24305)" font-size="40" xml:space="preserve" fill="url(#color-29)" fill-rule="nonzero" stroke="url(#color-30)" stroke-width="15" stroke-linecap="butt" stroke-linejoin="miter" stroke-miterlimit="10" stroke-dasharray="" stroke-dashoffset="0" font-family="Sans Serif" font-weight="normal" text-anchor="start" style="mix-blend-mode: normal"><tspan x="0" dy="0">Super Hard Mode</tspan></text><text transform="translate(199.25056,183.38259) scale(0.24305,0.24305)" font-size="40" xml:space="preserve" fill="url(#color-31)" fill-rule="nonzero" stroke="#000000" stroke-width="10" stroke-linecap="butt" stroke-linejoin="miter" stroke-miterlimit="10" stroke-dasharray="" stroke-dashoffset="0" font-family="Sans Serif" font-weight="normal" text-anchor="start" style="mix-blend-mode: normal"><tspan x="0" dy="0">Super Hard Mode</tspan></text><text transform="translate(199.25056,182.45059) scale(0.24305,0.24305)" font-size="40" xml:space="preserve" fill="url(#color-32)" fill-rule="nonzero" stroke="#000000" stroke-width="10" stroke-linecap="butt" stroke-linejoin="miter" stroke-miterlimit="10" stroke-dasharray="" stroke-dashoffset="0" font-family="Sans Serif" font-weight="normal" text-anchor="start" style="mix-blend-mode: normal"><tspan x="0" dy="0">Super Hard Mode</tspan></text><text transform="translate(196.72286,182.45059) scale(0.24305,0.24305)" font-size="40" xml:space="preserve" fill="url(#color-33)" fill-rule="nonzero" stroke="#ffffff" stroke-width="5" stroke-linecap="butt" stroke-linejoin="miter" stroke-miterlimit="10" stroke-dasharray="" stroke-dashoffset="0" font-family="Sans Serif" font-weight="normal" text-anchor="start" style="mix-blend-mode: normal"><tspan x="0" dy="0"> Super Hard Mode </tspan></text><text transform="translate(199.25056,182.45059) scale(0.24305,0.24305)" font-size="40" xml:space="preserve" fill="url(#color-34)" fill-rule="nonzero" stroke="none" stroke-width="1" stroke-linecap="butt" stroke-linejoin="miter" stroke-miterlimit="10" stroke-dasharray="" stroke-dashoffset="0" font-family="Sans Serif" font-weight="normal" text-anchor="start" style="mix-blend-mode: normal"><tspan x="0" dy="0">Super Hard Mode</tspan></text></g><path d="M270.98101,176.79814c-1.81486,-2.78115 -3.92863,-4.86077 -2.70662,-5.65822c1.22202,-0.79744 1.65504,2.41303 3.46991,5.19418c1.81487,2.78116 4.15188,4.1102 2.92987,4.90765c-1.22202,0.79744 -1.87828,-1.66245 -3.69315,-4.44361z" data-paper-data="{&quot;index&quot;:null}" fill="url(#color-35)" stroke="#b3b3b3" stroke-width="3" stroke-linecap="butt"/><path d="M273.88901,185.51183c-1.56633,-2.92835 -1.79301,-5.86014 -0.50632,-6.54838c1.28668,-0.68823 3.59951,1.12772 5.16584,4.05607c1.56632,2.92835 1.793,5.86015 0.50631,6.54838c-1.28669,0.68823 -3.59951,-1.12772 -5.16584,-4.05607z" data-paper-data="{&quot;index&quot;:null}" fill="url(#color-36)" stroke="#b3b3b3" stroke-width="3" stroke-linecap="butt"/><text transform="translate(229.73375,199.51873) scale(0.36277,0.36277)" font-size="40" xml:space="preserve" fill="#35ff00" fill-rule="nonzero" stroke="none" stroke-width="1" stroke-linecap="butt" stroke-linejoin="miter" stroke-miterlimit="10" stroke-dasharray="" stroke-dashoffset="0" font-family="Sans Serif" font-weight="normal" text-anchor="start" style="mix-blend-mode: normal"><tspan x="0" dy="0">On</tspan></text></g></g></svg>