<svg version="1.1" xmlns="http://www.w3.org/2000/svg" xmlns:xlink="http://www.w3.org/1999/xlink" width="109.76135" height="142.49562" viewBox="0,0,109.76135,142.49562"><g transform="translate(-190.00001,-108.7522)"><g data-paper-data="{&quot;isPaintingLayer&quot;:true}" fill-rule="nonzero" stroke-linejoin="miter" stroke-miterlimit="10" stroke-dasharray="" stroke-dashoffset="0" style="mix-blend-mode: normal"><path d="M241.23447,162.81748c0,0 41.65419,-39.69333 42.36917,-38.95606c0.38317,0.39511 -31.35571,32.33753 -31.35571,32.33753z" fill="#000000" stroke="#000000" stroke-width="0" stroke-linecap="butt"/><path d="M252.24793,204.81192c0,0 31.73888,31.94242 31.35571,32.33753c-0.71497,0.73727 -42.36917,-38.95606 -42.36917,-38.95606z" data-paper-data="{&quot;index&quot;:null}" fill="#000000" stroke="#000000" stroke-width="0" stroke-linecap="butt"/><path d="M239.45175,109.0022l1.09648,141.99562" fill="none" stroke="#000000" stroke-width="0.5" stroke-linecap="round"/><path d="M212.25557,180.00001c0,-15.32283 12.42161,-27.74444 27.74444,-27.74444c15.32283,0 27.74444,12.42161 27.74444,27.74444c0,15.32283 -12.42161,27.74444 -27.74444,27.74444c-15.32283,0 -27.74444,-12.42161 -27.74444,-27.74444z" fill="#d8d8d8" stroke="#6c6c6c" stroke-width="8" stroke-linecap="butt"/><path d="M254.20556,161.85008c1.45614,1.05445 3.10238,2.92764 4.00636,3.97048c1.79843,2.07468 3.3102,7.16428 3.3102,7.16428l-21.33553,-15.63111c0,0 4.00002,-0.05325 5.69313,0.37484c1.78905,0.45236 7.05196,3.19904 8.32584,4.12151z" fill="#ffffff" stroke="#ffffff" stroke-width="2" stroke-linecap="round"/><path d="M225.75315,198.36139c-1.45614,-1.05445 -3.10237,-2.92764 -4.00635,-3.97048c-1.79843,-2.07468 -3.3102,-7.16429 -3.3102,-7.16429l21.33553,15.63111c0,0 -4.00002,0.05325 -5.69313,-0.37484c-1.78905,-0.45236 -7.05197,-3.19904 -8.32585,-4.1215z" data-paper-data="{&quot;index&quot;:null}" fill="#b3b3b3" stroke="#b3b3b3" stroke-width="2" stroke-linecap="round"/><path d="M242.43751,203.88344l7.5,6.25c0,0 -15.51376,6.11079 -29.25,-4.85745c-14.78845,-11.80843 -12.375,-26.875 -12.375,-26.875l8.5,6.5c0,0 0.80183,7.58487 7.625,13.75c6.92644,6.25844 18,5.23245 18,5.23245z" fill="#444444" stroke="#000000" stroke-width="0" stroke-linecap="round"/><path d="M236.91637,156.47328l-7.5,-6.5c0,0 16.13876,-6.36079 29.875,4.60746c14.78846,11.80843 12.375,27.25 12.375,27.25l-8.375,-6.375c0,0 -1.05183,-7.70987 -7.875,-13.875c-6.92644,-6.25844 -18.5,-5.10746 -18.5,-5.10746z" data-paper-data="{&quot;index&quot;:null}" fill="#919191" stroke="#000000" stroke-width="0" stroke-linecap="round"/><path d="M190.00001,230.00001v-100h100v100z" fill="none" stroke="none" stroke-width="NaN" stroke-linecap="butt"/><path d="M271.22417,181.08472h1.08471" fill="none" stroke="#000000" stroke-width="0.5" stroke-linecap="round"/><path d="M270.84389,182.47935v-3.71902c0,0 28.91747,0.8325 28.91747,1.85951c0,1.02696 -28.91747,1.85951 -28.91747,1.85951z" fill="#000000" stroke="#000000" stroke-width="0" stroke-linecap="butt"/><path d="M290.46384,171.32232z" fill="none" stroke="#000000" stroke-width="0.5" stroke-linecap="butt"/><path d="M268.76563,167.87437l-1.06945,-3.56194c0,0 27.93545,-7.51822 28.23078,-6.53458c0.29531,0.98358 -27.16133,10.09652 -27.16133,10.09652z" fill="#000000" stroke="#000000" stroke-width="0" stroke-linecap="butt"/><path d="M295.59801,202.32509c-0.29533,0.98363 -28.23078,-6.53458 -28.23078,-6.53458l1.06945,-3.56194c0,0 27.45665,9.11294 27.16133,10.09652z" data-paper-data="{&quot;index&quot;:null}" fill="#000000" stroke="#000000" stroke-width="0" stroke-linecap="butt"/></g></g></svg>