<svg version="1.1" xmlns="http://www.w3.org/2000/svg" xmlns:xlink="http://www.w3.org/1999/xlink" width="316" height="316" viewBox="0,0,316,316"><defs><linearGradient x1="239.75" y1="139.5" x2="239.75" y2="230.5" gradientUnits="userSpaceOnUse" id="color-1"><stop offset="0" stop-color="#404040"/><stop offset="1" stop-color="#404040" stop-opacity="0"/></linearGradient></defs><g transform="translate(-82,-22)"><g data-paper-data="{&quot;isPaintingLayer&quot;:true}" fill-rule="nonzero" stroke-linejoin="miter" stroke-miterlimit="10" stroke-dasharray="" stroke-dashoffset="0" style="mix-blend-mode: normal"><path d="M90,330v-300h300v300z" fill="#805100" stroke="#402800" stroke-width="16" stroke-linecap="butt"/><text transform="translate(144.5,65.84402) scale(0.61106,0.61106)" font-size="40" xml:space="preserve" fill="#ffffff" fill-rule="nonzero" stroke="none" stroke-width="1" stroke-linecap="butt" stroke-linejoin="miter" stroke-miterlimit="10" stroke-dasharray="" stroke-dashoffset="0" font-family="Sans Serif" font-weight="normal" text-anchor="start" style="mix-blend-mode: normal"><tspan x="0" dy="0">Welcome to the </tspan><tspan x="0" dy="46.15px">Pumpkin Patch!</tspan></text><text transform="translate(126.5,261) scale(0.5,0.5)" font-size="40" xml:space="preserve" fill="#ffffff" fill-rule="nonzero" stroke="none" stroke-width="1" stroke-linecap="butt" stroke-linejoin="miter" stroke-miterlimit="10" stroke-dasharray="" stroke-dashoffset="0" font-family="Sans Serif" font-weight="normal" text-anchor="start" style="mix-blend-mode: normal"><tspan x="0" dy="0">This little charming area</tspan><tspan x="0" dy="46.15px">  is haunted by a lot of </tspan><tspan x="0" dy="46.15px">    devious phantoms!</tspan></text><path d="M176.5,237v-126h126v126z" fill="#404040" stroke="#402800" stroke-width="8" stroke-linecap="butt"/><path d="M299.75,233.5l-120.5,0.5l1,-87.5c0,0 26.61341,-13.029 62,-13.5c29.83215,-0.39707 56.5,9.5 56.5,9.5z" fill="#402800" stroke="none" stroke-width="0" stroke-linecap="round"/><path d="M218.32721,226.4331c-11.00873,1.00913 -20.75116,-7.09718 -21.76029,-18.10591c-1.00913,-11.00873 7.09718,-20.75116 18.10591,-21.76029c11.00873,-1.00913 20.75116,7.09718 21.76029,18.10591c1.00913,11.00873 -7.09718,20.75116 -18.10591,21.76029z" data-paper-data="{&quot;index&quot;:null}" fill="#424242" stroke="#000000" stroke-width="3.5" stroke-linecap="butt"/><path d="M200.44517,214.87318c0,0 -5.71756,-8.77151 0.2039,-18.48017c5.12001,-8.39461 15.31627,-7.9604 15.31627,-7.9604l-15.52016,26.44058z" data-paper-data="{&quot;index&quot;:null}" fill="#585858" stroke="none" stroke-width="0" stroke-linecap="round"/><path d="M232.94719,198.51824c0,0 5.71756,8.77151 -0.2039,18.48017c-5.12001,8.39461 -15.31627,7.9604 -15.31627,7.9604l15.52016,-26.44058z" data-paper-data="{&quot;index&quot;:null}" fill="#272727" stroke="none" stroke-width="0" stroke-linecap="round"/><path d="M225.23749,210.53012c0,0 1.59213,6.77613 -1.30036,8.40099c-2.89251,1.62484 -12.64711,-0.56606 -12.64711,-0.56606z" data-paper-data="{&quot;index&quot;:null}" fill="#b3b3b3" stroke="none" stroke-width="0" stroke-linecap="round"/><path d="M220.28525,213.26704l-0.26339,-3.00059l3.62389,1.15836l-0.25805,4.03432z" data-paper-data="{&quot;index&quot;:null}" fill="#424242" stroke="none" stroke-width="0" stroke-linecap="butt"/><path d="M267.44371,219.69822c-10.87901,-1.96409 -18.106,-12.37551 -16.14191,-23.25452c1.96409,-10.87901 12.37551,-18.106 23.25452,-16.14191c10.87901,1.96409 18.106,12.37551 16.14191,23.25452c-1.96409,10.87901 -12.37551,18.106 -23.25452,16.14191z" data-paper-data="{&quot;index&quot;:null}" fill="#424242" stroke="#000000" stroke-width="3.5" stroke-linecap="butt"/><path d="M253.29333,203.78704c0,0 -3.17052,-9.97886 5.12622,-17.75613c7.1738,-6.72462 16.88476,-3.58623 16.88476,-3.58623l-22.01098,21.34237z" data-paper-data="{&quot;index&quot;:null}" fill="#585858" stroke="none" stroke-width="0" stroke-linecap="round"/><path d="M288.9804,196.69487c0,0 3.17051,9.97886 -5.12623,17.75613c-7.1738,6.72462 -16.88475,3.58623 -16.88475,3.58623l22.01097,-21.34237z" data-paper-data="{&quot;index&quot;:null}" fill="#272727" stroke="none" stroke-width="0" stroke-linecap="round"/><path d="M278.34582,206.21487c0,0 -0.27314,6.9553 -3.49426,7.74969c-3.22113,0.79437 -12.03783,-3.91925 -12.03783,-3.91925z" data-paper-data="{&quot;index&quot;:null}" fill="#b3b3b3" stroke="none" stroke-width="0" stroke-linecap="round"/><path d="M272.84294,207.53157l0.54658,-2.96213l3.18357,2.08309l-1.32489,3.81929z" data-paper-data="{&quot;index&quot;:null}" fill="#424242" stroke="none" stroke-width="0" stroke-linecap="butt"/><path d="M207.34017,188.33395c-8.19255,1.29243 -15.88167,-4.30124 -17.1741,-12.49379c-1.29243,-8.19255 4.30124,-15.88167 12.49379,-17.1741c8.19255,-1.29243 15.88167,4.30124 17.1741,12.49379c1.29243,8.19255 -4.30124,15.88167 -12.49379,17.1741z" data-paper-data="{&quot;index&quot;:null}" fill="#424242" stroke="#000000" stroke-width="2.5" stroke-linecap="butt"/><path d="M193.38883,180.5517c0,0 -4.70831,-6.28799 -0.7487,-13.84526c3.4237,-6.53441 11.07838,-6.70665 11.07838,-6.70665l-10.32968,20.55192z" data-paper-data="{&quot;index&quot;:null}" fill="#585858" stroke="none" stroke-width="0" stroke-linecap="round"/><path d="M216.92401,166.72221c0,0 4.70831,6.28799 0.7487,13.84527c-3.4237,6.53441 -11.07838,6.70665 -11.07838,6.70665l10.32968,-20.55191z" data-paper-data="{&quot;index&quot;:null}" fill="#272727" stroke="none" stroke-width="0" stroke-linecap="round"/><path d="M211.73796,176.09102c0,0 1.52246,4.99534 -0.56377,6.35288c-2.08625,1.35753 -9.49596,0.19307 -9.49596,0.19307z" data-paper-data="{&quot;index&quot;:null}" fill="#b3b3b3" stroke="none" stroke-width="0" stroke-linecap="round"/><path d="M208.16392,178.38157l-0.34354,-2.23357l2.76955,0.69047l0.00357,3.03291z" data-paper-data="{&quot;index&quot;:null}" fill="#424242" stroke="none" stroke-width="0" stroke-linecap="butt"/><path d="M243.03012,182.01005c-8.28981,-0.25952 -14.79967,-7.19013 -14.54015,-15.47994c0.25952,-8.28981 7.19013,-14.79967 15.47994,-14.54015c8.28981,0.25952 14.79967,7.19013 14.54015,15.47994c-0.25952,8.28981 -7.19013,14.79967 -15.47994,14.54015z" data-paper-data="{&quot;index&quot;:null}" fill="#424242" stroke="#000000" stroke-width="2.5" stroke-linecap="butt"/><path d="M230.77663,171.76041c0,0 -3.45184,-7.05633 1.84883,-13.74168c4.58325,-5.78049 12.13554,-4.52087 12.13554,-4.52087z" data-paper-data="{&quot;index&quot;:null}" fill="#585858" stroke="none" stroke-width="0" stroke-linecap="round"/><path d="M256.47959,162.56708c0,0 3.45183,7.05633 -1.84884,13.74168c-4.58325,5.78049 -12.13554,4.52087 -12.13554,4.52087l13.98437,-18.26255z" data-paper-data="{&quot;index&quot;:null}" fill="#272727" stroke="none" stroke-width="0" stroke-linecap="round"/><path d="M249.63589,170.8032c0,0 0.56327,5.19173 -1.7397,6.13599c-2.30298,0.94425 -9.36511,-1.58285 -9.36511,-1.58285z" data-paper-data="{&quot;index&quot;:null}" fill="#b3b3b3" stroke="none" stroke-width="0" stroke-linecap="round"/><path d="M245.69711,172.38636l0.07942,-2.25844l2.59199,1.1953l-0.56262,2.98027z" data-paper-data="{&quot;index&quot;:null}" fill="#424242" stroke="none" stroke-width="0" stroke-linecap="butt"/><path d="M282.43935,165.28718c-7.06215,1.3472 -13.8793,-3.28569 -15.22651,-10.34785c-1.3472,-7.06215 3.28569,-13.8793 10.34785,-15.22651c7.06215,-1.3472 13.8793,3.28569 15.22651,10.34785c1.3472,7.06215 -3.28569,13.8793 -10.34785,15.22651z" data-paper-data="{&quot;index&quot;:null}" fill="#424242" stroke="#000000" stroke-width="2.5" stroke-linecap="butt"/><path d="M270.13584,158.93195c0,0 -4.25386,-5.31721 -1.03305,-11.97477c2.78489,-5.75647 9.41213,-6.1182 9.41213,-6.1182z" data-paper-data="{&quot;index&quot;:null}" fill="#585858" stroke="none" stroke-width="0" stroke-linecap="round"/><path d="M290.14281,146.29669c0,0 4.25385,5.3172 1.03304,11.97476c-2.78489,5.75647 -9.41213,6.1182 -9.41213,6.1182l8.37908,-18.09297z" data-paper-data="{&quot;index&quot;:null}" fill="#272727" stroke="none" stroke-width="0" stroke-linecap="round"/><path d="M285.90971,154.55781c0,0 1.45774,4.2857 -0.31209,5.51979c-1.76984,1.23408 -8.22195,0.4309 -8.22195,0.4309z" data-paper-data="{&quot;index&quot;:null}" fill="#b3b3b3" stroke="none" stroke-width="0" stroke-linecap="round"/><path d="M282.87674,156.64157l-0.35965,-1.92563l2.41871,0.52133l0.08729,2.62761z" data-paper-data="{&quot;index&quot;:null}" fill="#424242" stroke="none" stroke-width="0" stroke-linecap="butt"/><path d="M220.63757,153.9236c-5.61871,0.76632 -10.79483,-3.16732 -11.56115,-8.78604c-0.76632,-5.61871 3.16732,-10.79483 8.78604,-11.56115c5.61871,-0.76632 10.79483,3.16732 11.56115,8.78604c0.76632,5.61871 -3.16732,10.79483 -8.78604,11.56115z" data-paper-data="{&quot;index&quot;:null}" fill="#424242" stroke="#000000" stroke-width="1.5" stroke-linecap="butt"/><path d="M211.21205,148.40435c0,0 -3.12858,-4.36565 -0.31381,-9.475c2.43379,-4.41781 7.66881,-4.42609 7.66881,-4.42609z" data-paper-data="{&quot;index&quot;:null}" fill="#585858" stroke="none" stroke-width="0" stroke-linecap="round"/><path d="M227.4979,139.28737c0,0 3.12857,4.36564 0.31381,9.47499c-2.43379,4.41781 -7.66881,4.42609 -7.66881,4.42609l7.355,-13.90109z" data-paper-data="{&quot;index&quot;:null}" fill="#272727" stroke="none" stroke-width="0" stroke-linecap="round"/><path d="M223.81886,145.61751c0,0 0.96929,3.43646 -0.47623,4.33461c-1.44552,0.89814 -6.49397,-0.00381 -6.49397,-0.00381z" data-paper-data="{&quot;index&quot;:null}" fill="#b3b3b3" stroke="none" stroke-width="0" stroke-linecap="round"/><path d="M221.34298,147.13217l-0.20289,-1.53172l1.88333,0.51159l-0.04093,2.07327z" data-paper-data="{&quot;index&quot;:null}" fill="#424242" stroke="none" stroke-width="0" stroke-linecap="butt"/><path d="M180.75,230.5v-91h118v91z" fill="url(#color-1)" stroke="none" stroke-width="0" stroke-linecap="butt"/><path d="M180.75,143.5v-28h116.5v28z" fill="#404040" stroke="none" stroke-width="0" stroke-linecap="butt"/></g></g></svg>