<svg version="1.1" xmlns="http://www.w3.org/2000/svg" xmlns:xlink="http://www.w3.org/1999/xlink" width="66.03334" height="66.03334" viewBox="0,0,66.03334,66.03334"><g transform="translate(-206.98333,-146.98333)"><g data-paper-data="{&quot;isPaintingLayer&quot;:true}" fill-rule="nonzero" stroke-linejoin="miter" stroke-miterlimit="10" stroke-dasharray="" stroke-dashoffset="0" style="mix-blend-mode: normal"><path d="M240,149.48333c16.85387,0 30.51667,13.6628 30.51667,30.51667c0,16.85387 -13.6628,30.51667 -30.51667,30.51667c-16.85387,0 -30.51667,-13.6628 -30.51667,-30.51667c0,-16.85387 13.6628,-30.51667 30.51667,-30.51667z" data-paper-data="{&quot;index&quot;:null}" fill="#424242" stroke="#000000" stroke-width="5" stroke-linecap="butt"/><path d="M265.53971,169.52217c0,0 7.45968,14.11258 -2.8814,28.02818c-8.94145,12.03214 -24.36095,9.95394 -24.36095,9.95394l27.24234,-37.98212z" data-paper-data="{&quot;index&quot;:null}" fill="#585858" stroke="none" stroke-width="0" stroke-linecap="round"/><path d="M213.91914,189.82898c0,0 -7.45968,-14.11258 2.8814,-28.02818c8.94145,-12.03214 24.36095,-9.95394 24.36095,-9.95394l-27.24234,37.98212z" data-paper-data="{&quot;index&quot;:null}" fill="#272727" stroke="none" stroke-width="0" stroke-linecap="round"/><path d="M227.29564,172.66551c0,0 -1.47415,-10.50908 3.14335,-12.57339c4.61752,-2.06429 19.12203,2.61946 19.12203,2.61946z" data-paper-data="{&quot;index&quot;:null}" fill="#b3b3b3" stroke="none" stroke-width="0" stroke-linecap="round"/><path d="M235.19501,169.19952l-0.01771,4.59215l-5.34057,-2.26295l0.95322,-6.08898z" data-paper-data="{&quot;index&quot;:null}" fill="#424242" stroke="none" stroke-width="0" stroke-linecap="butt"/></g></g></svg>