<svg version="1.1" xmlns="http://www.w3.org/2000/svg" xmlns:xlink="http://www.w3.org/1999/xlink" width="1128.56342" height="1150.63549" viewBox="0,0,1128.56342,1150.63549"><defs><radialGradient cx="242.50085" cy="179.40199" r="304.80481" gradientUnits="userSpaceOnUse" id="color-1"><stop offset="0" stop-color="#1f1f1f" stop-opacity="0"/><stop offset="1" stop-color="#1f1f1f"/></radialGradient></defs><g transform="translate(324.28171,395.31775)"><g data-paper-data="{&quot;isPaintingLayer&quot;:true}" fill-rule="nonzero" stroke="none" stroke-width="0" stroke-linecap="butt" stroke-linejoin="miter" stroke-miterlimit="10" stroke-dasharray="" stroke-dashoffset="0" style="mix-blend-mode: normal"><path d="M-62.30396,179.40199c0,-168.33904 136.46576,-304.80481 304.80481,-304.80481c168.33904,0 304.80481,136.46576 304.80481,304.80481c0,168.33904 -136.46576,304.80481 -304.80481,304.80481c-168.33904,0 -304.80481,-136.46576 -304.80481,-304.80481z" fill="url(#color-1)"/><path d="M-324.28171,301.04838l282.72075,-580.45437l143.08875,69.69396c0,0 32.66141,58.06123 7.84611,121.11044c-1.88835,4.7978 -33.93957,16.8372 -36.1029,21.61661c-10.37868,22.92945 -45.46053,31.70272 -56.46377,54.29348c-11.07579,22.73971 -32.11864,42.86218 -41.11027,61.3229c-14.93663,30.66641 -25.68845,69.55173 -33.62969,116.78767c-6.27013,37.2959 4.69044,55.67305 19.44041,124.39369c7.87602,36.69466 12.55402,14.73749 64.33493,96.28772c9.81149,15.4522 123.20195,71.9159 77.50305,65.08166c-57.54396,-8.60566 -284.53864,33.6743 -284.53864,33.6743z" fill="#1f1f1f"/><path d="M661.19296,482.34894c0,0 -226.99468,-42.27997 -284.53864,-33.67431c-45.6989,6.83424 67.69156,-49.62946 77.50305,-65.08166c51.78091,-81.55023 56.4589,-59.59306 64.33493,-96.28772c14.74997,-68.72064 25.71054,-87.0978 19.44041,-124.39369c-7.94124,-47.23594 -18.69306,-86.12126 -33.62968,-116.78767c-8.99162,-18.46072 -30.03449,-38.58319 -41.11027,-61.3229c-11.00324,-22.59076 -46.08509,-31.36403 -56.46376,-54.29348c-2.16333,-4.77941 -34.21456,-16.81881 -36.10291,-21.61661c-24.8153,-63.04921 7.84612,-121.11045 7.84612,-121.11045l143.08875,-69.69395l282.72075,580.45437z" data-paper-data="{&quot;index&quot;:null}" fill="#1f1f1f"/><path d="M-69.1057,612.229c0,0 42.27996,-226.99469 33.6743,-284.53864c-6.83424,-45.6989 49.62946,67.69156 65.08166,77.50304c81.55023,51.78091 59.59307,56.45891 96.28773,64.33492c68.72064,14.74997 87.09779,25.71055 124.39369,19.44042c47.23594,-7.94124 86.12126,-18.69306 116.78767,-33.62968c18.46072,-8.99162 38.58319,-30.03449 61.3229,-41.11027c22.59076,-11.00324 31.36403,-46.08508 54.29348,-56.46377c4.77941,-2.16333 16.81881,-34.21456 21.6166,-36.1029c63.04921,-24.8153 121.11044,7.84611 121.11044,7.84611l69.69395,143.08875l-580.45437,282.72076z" data-paper-data="{&quot;index&quot;:null}" fill="#1f1f1f"/><path d="M116.69936,-395.31775l580.45438,282.72076l-69.69395,143.08875c0,0 -58.06123,32.66141 -121.11045,7.84611c-4.7978,-1.88835 -16.8372,-33.93958 -21.6166,-36.10291c-22.92945,-10.37868 -31.70272,-45.46052 -54.29349,-56.46376c-22.73971,-11.07578 -42.86218,-32.11865 -61.3229,-41.11027c-30.66641,-14.93663 -69.55173,-25.68845 -116.78767,-33.62969c-37.29589,-6.27013 -55.67304,4.69044 -124.39369,19.44042c-36.69466,7.87602 -14.73749,12.55402 -96.28772,64.33493c-15.4522,9.81149 -71.9159,123.20194 -65.08166,77.50305c8.60566,-57.54395 -33.67431,-284.53864 -33.67431,-284.53864z" data-paper-data="{&quot;index&quot;:null}" fill="#1f1f1f"/></g></g></svg>