<svg version="1.1" xmlns="http://www.w3.org/2000/svg" xmlns:xlink="http://www.w3.org/1999/xlink" width="159.05448" height="142.49562" viewBox="0,0,159.05448,142.49562"><g transform="translate(-130.94552,-108.7522)"><g data-paper-data="{&quot;isPaintingLayer&quot;:true}" fill-rule="nonzero" stroke-linejoin="miter" stroke-miterlimit="10" stroke-dasharray="" stroke-dashoffset="0" style="mix-blend-mode: normal"><path d="M239.45175,109.0022l1.09648,141.99562" fill="none" stroke="#000000" stroke-width="0.5" stroke-linecap="round"/><path d="M231.93453,208.24999l-46.91071,-8.36905l10.57143,-5.28571l-37,-7.92857l4.625,-3.30357l-22.90476,-6.82738l47.13095,-6.60714l-5.50595,-6.82738l45.14881,-10.35119z" fill="#d8a457" stroke="#664e29" stroke-width="4" stroke-linecap="round"/><path d="M195.08334,172.66667l-6.33333,-7.16667l35.16666,-8.5l-3.5,45.5l-23.16666,-4.33334l9.33334,-5.16666l-39.5,-8.33333l5,-2.83333l-14.5,-4z" fill="none" stroke="#9f7940" stroke-width="4" stroke-linecap="round"/><path d="M212.25557,180c0,-15.32283 12.42161,-27.74444 27.74444,-27.74444c15.32283,0 27.74444,12.42161 27.74444,27.74444c0,15.32283 -12.42161,27.74444 -27.74444,27.74444c-15.32283,0 -27.74444,-12.42161 -27.74444,-27.74444z" fill="#d8d8d8" stroke="#6c6c6c" stroke-width="8" stroke-linecap="butt"/><path d="M254.20556,161.85008c1.45614,1.05445 3.10238,2.92764 4.00636,3.97048c1.79843,2.07468 3.3102,7.16428 3.3102,7.16428l-21.33553,-15.63111c0,0 4.00002,-0.05325 5.69313,0.37484c1.78905,0.45236 7.05196,3.19904 8.32584,4.12151z" fill="#ffffff" stroke="#ffffff" stroke-width="2" stroke-linecap="round"/><path d="M225.75315,198.36138c-1.45614,-1.05445 -3.10237,-2.92764 -4.00635,-3.97048c-1.79843,-2.07468 -3.3102,-7.16429 -3.3102,-7.16429l21.33553,15.63111c0,0 -4.00002,0.05325 -5.69313,-0.37484c-1.78905,-0.45236 -7.05197,-3.19904 -8.32585,-4.1215z" data-paper-data="{&quot;index&quot;:null}" fill="#b3b3b3" stroke="#b3b3b3" stroke-width="2" stroke-linecap="round"/><path d="M242.43751,203.88343l7.5,6.25c0,0 -15.51376,6.11079 -29.25,-4.85745c-14.78845,-11.80843 -12.375,-26.875 -12.375,-26.875l8.5,6.5c0,0 0.80183,7.58487 7.625,13.75c6.92644,6.25844 18,5.23245 18,5.23245z" fill="#444444" stroke="#000000" stroke-width="0" stroke-linecap="round"/><path d="M236.91637,156.47327l-7.5,-6.5c0,0 16.13876,-6.36079 29.875,4.60746c14.78846,11.80843 12.375,27.25 12.375,27.25l-8.375,-6.375c0,0 -1.05183,-7.70987 -7.875,-13.875c-6.92644,-6.25844 -18.5,-5.10746 -18.5,-5.10746z" data-paper-data="{&quot;index&quot;:null}" fill="#919191" stroke="#000000" stroke-width="0" stroke-linecap="round"/><path d="M190.00001,230v-100h100v100z" fill="none" stroke="none" stroke-width="NaN" stroke-linecap="butt"/></g></g></svg>