<svg version="1.1" xmlns="http://www.w3.org/2000/svg" xmlns:xlink="http://www.w3.org/1999/xlink" width="498.84086" height="498.84086" viewBox="0,0,498.84086,498.84086"><defs><radialGradient cx="314.34692" cy="46.99341" r="249.42043" gradientUnits="userSpaceOnUse" id="color-1"><stop offset="0" stop-color="#fff899" stop-opacity="0.54902"/><stop offset="1" stop-color="#fff899" stop-opacity="0"/></radialGradient><radialGradient cx="315.10532" cy="47.48051" r="18.13815" gradientUnits="userSpaceOnUse" id="color-2"><stop offset="0" stop-color="#fff899" stop-opacity="0.74902"/><stop offset="1" stop-color="#fff899" stop-opacity="0"/></radialGradient></defs><g transform="translate(-64.92651,202.427)"><g data-paper-data="{&quot;isPaintingLayer&quot;:true}" fill-rule="nonzero" stroke-linejoin="miter" stroke-miterlimit="10" stroke-dasharray="" stroke-dashoffset="0" style="mix-blend-mode: normal"><g fill="none" stroke-linecap="round"><path d="M249.59478,213.25032l0.68221,31.48485" stroke="#282828" stroke-width="10"/><path d="M249.59478,213.25032l0.68221,31.48485" stroke="#414141" stroke-width="6"/></g><g fill="none" stroke-linecap="round"><path d="M274.77372,253.68646l23.47202,-21.55955" stroke="#282828" stroke-width="10"/><path d="M274.77372,253.68646l23.47202,-21.55955" stroke="#414141" stroke-width="6"/></g><path d="M64.92651,46.99341c0,-137.7511 111.66933,-249.42041 249.42043,-249.42041c137.7511,0 249.42043,111.66933 249.42043,249.42043c0,137.7511 -111.66933,249.42043 -249.42041,249.42043c-137.7511,0 -249.42041,-111.66931 -249.42041,-249.42041z" fill="url(#color-1)" stroke="none" stroke-width="0" stroke-linecap="butt"/><path d="M304.92805,65.24863l-7.50755,-28.5287l28.5287,-7.50755l7.50755,28.5287z" fill="#4d4d4d" stroke="#1a1a1a" stroke-width="4" stroke-linecap="butt"/><path d="M310.10528,47.51403c0,-2.76143 2.23858,-5 5,-5c2.76142,0 5,2.23857 5,5c0,2.76143 -2.23858,5 -5,5c-2.76142,0 -5,-2.23857 -5,-5z" fill="#fff799" stroke="#1a1a1a" stroke-width="4" stroke-linecap="butt"/><path d="M305.10528,64.81383l5.66666,-13" fill="none" stroke="#1a1a1a" stroke-width="4" stroke-linecap="round"/><path d="M320.77198,50.14716l12.66667,7.33334" fill="none" stroke="#1a1a1a" stroke-width="4" stroke-linecap="round"/><path d="M310.10532,44.81383l-12.33334,-7.66667" fill="none" stroke="#1a1a1a" stroke-width="4" stroke-linecap="round"/><path d="M324.77198,30.14716l-7,12.66667" fill="none" stroke="#1a1a1a" stroke-width="4" stroke-linecap="round"/><path d="M316.98158,53.91204c1.64271,-0.32267 3.71795,-2.67692 3.71795,-2.67692l9.66667,5.94872l-22.30769,5.65128l4.1641,-9.66667c0,0 3.11627,1.06626 4.75897,0.74359z" fill="#2a2a2a" stroke="none" stroke-width="0" stroke-linecap="round"/><path d="M308.34041,48.60434c0.20696,1.0536 0.96692,2.25962 0.96692,2.25962l-3.81538,8.575l-5.12462,-18.30769l8.2,4.42077c0,0 -0.43388,1.99871 -0.22692,3.05231z" fill="#2a2a2a" stroke="none" stroke-width="0" stroke-linecap="round"/><path d="M296.96718,47.48051c0,-10.01742 8.12073,-18.13815 18.13815,-18.13815c10.01742,0 18.13815,8.12072 18.13815,18.13815c0,10.01742 -8.12073,18.13815 -18.13815,18.13815c-10.01742,0 -18.13815,-8.12072 -18.13815,-18.13815z" fill="url(#color-2)" stroke="none" stroke-width="0" stroke-linecap="butt"/></g></g></svg>