<svg version="1.1" xmlns="http://www.w3.org/2000/svg" xmlns:xlink="http://www.w3.org/1999/xlink" width="168.68637" height="114.89114" viewBox="0,0,168.68637,114.89114"><defs><radialGradient cx="291.48308" cy="159.09679" r="29.91084" gradientUnits="userSpaceOnUse" id="color-1"><stop offset="0" stop-color="#800000"/><stop offset="1" stop-color="#800000" stop-opacity="0"/></radialGradient><radialGradient cx="294.98615" cy="180.38473" r="29.91084" gradientUnits="userSpaceOnUse" id="color-2"><stop offset="0" stop-color="#800000"/><stop offset="1" stop-color="#800000" stop-opacity="0"/></radialGradient><radialGradient cx="186.12146" cy="180.38473" r="29.91084" gradientUnits="userSpaceOnUse" id="color-3"><stop offset="0" stop-color="#800000"/><stop offset="1" stop-color="#800000" stop-opacity="0"/></radialGradient><radialGradient cx="291.48308" cy="200.05584" r="29.91084" gradientUnits="userSpaceOnUse" id="color-4"><stop offset="0" stop-color="#800000"/><stop offset="1" stop-color="#800000" stop-opacity="0"/></radialGradient><radialGradient cx="187.58867" cy="158.94723" r="29.91084" gradientUnits="userSpaceOnUse" id="color-5"><stop offset="0" stop-color="#800000"/><stop offset="1" stop-color="#800000" stop-opacity="0"/></radialGradient><radialGradient cx="187.85813" cy="201.25356" r="29.91085" gradientUnits="userSpaceOnUse" id="color-6"><stop offset="0" stop-color="#800000"/><stop offset="1" stop-color="#800000" stop-opacity="0"/></radialGradient><radialGradient cx="239.86527" cy="203.13984" r="29.91084" gradientUnits="userSpaceOnUse" id="color-7"><stop offset="0" stop-color="#800000"/><stop offset="1" stop-color="#800000" stop-opacity="0"/></radialGradient><radialGradient cx="239.86527" cy="155.07652" r="29.91084" gradientUnits="userSpaceOnUse" id="color-8"><stop offset="0" stop-color="#800000"/><stop offset="1" stop-color="#800000" stop-opacity="0"/></radialGradient><radialGradient cx="214.53537" cy="206.64291" r="29.91084" gradientUnits="userSpaceOnUse" id="color-9"><stop offset="0" stop-color="#800000"/><stop offset="1" stop-color="#800000" stop-opacity="0"/></radialGradient><radialGradient cx="214.53537" cy="151.57342" r="29.91084" gradientUnits="userSpaceOnUse" id="color-10"><stop offset="0" stop-color="#800000"/><stop offset="1" stop-color="#800000" stop-opacity="0"/></radialGradient><radialGradient cx="264.92571" cy="204.48717" r="29.91084" gradientUnits="userSpaceOnUse" id="color-11"><stop offset="0" stop-color="#800000"/><stop offset="1" stop-color="#800000" stop-opacity="0"/></radialGradient><radialGradient cx="264.92571" cy="153.72919" r="29.91084" gradientUnits="userSpaceOnUse" id="color-12"><stop offset="0" stop-color="#800000"/><stop offset="1" stop-color="#800000" stop-opacity="0"/></radialGradient><linearGradient x1="240" y1="154.45765" x2="240" y2="205.54236" gradientUnits="userSpaceOnUse" id="color-13"><stop offset="0" stop-color="#9a9a9a"/><stop offset="1" stop-color="#343434"/></linearGradient><linearGradient x1="240" y1="154.45765" x2="240" y2="205.54239" gradientUnits="userSpaceOnUse" id="color-14"><stop offset="0" stop-color="#1b1b1b"/><stop offset="1" stop-color="#000000"/></linearGradient><radialGradient cx="201.47197" cy="159.01045" r="6.01306" gradientUnits="userSpaceOnUse" id="color-15"><stop offset="0" stop-color="#000000" stop-opacity="0"/><stop offset="1" stop-color="#000000" stop-opacity="0"/></radialGradient><linearGradient x1="222.18167" y1="163.34455" x2="222.18167" y2="180.57251" gradientTransform="translate(-555.4768,-472.17793) scale(2.67874,2.67874)" gradientUnits="userSpaceOnUse" id="color-16"><stop offset="0" stop-color="#bf0000"/><stop offset="1" stop-color="#c1c1c1"/></linearGradient><linearGradient x1="239.94006" y1="162.82958" x2="239.94006" y2="198.66734" gradientTransform="translate(-555.4768,-472.17793) scale(2.67874,2.67874)" gradientUnits="userSpaceOnUse" id="color-17"><stop offset="0" stop-color="#c1c1c1"/><stop offset="1" stop-color="#bf0000"/></linearGradient><linearGradient x1="222.30155" y1="161.84763" x2="222.30155" y2="179.07559" gradientTransform="translate(-555.7979,-468.16805) scale(2.67874,2.67874)" gradientUnits="userSpaceOnUse" id="color-18"><stop offset="0" stop-color="#bf0000"/><stop offset="1" stop-color="#c1c1c1"/></linearGradient><linearGradient x1="240.05994" y1="161.33266" x2="240.05994" y2="197.17042" gradientTransform="translate(-555.7979,-468.16805) scale(2.67874,2.67874)" gradientUnits="userSpaceOnUse" id="color-19"><stop offset="0" stop-color="#c1c1c1"/><stop offset="1" stop-color="#bf0000"/></linearGradient><linearGradient x1="222.30155" y1="163.19496" x2="222.30155" y2="180.42292" gradientTransform="translate(-555.7979,-471.77721) scale(2.67874,2.67874)" gradientUnits="userSpaceOnUse" id="color-20"><stop offset="0" stop-color="#bf0000"/><stop offset="1" stop-color="#c1c1c1"/></linearGradient><linearGradient x1="222.30155" y1="161.84763" x2="222.30155" y2="179.07559" gradientTransform="translate(-555.7979,-468.16805) scale(2.67874,2.67874)" gradientUnits="userSpaceOnUse" id="color-21"><stop offset="0" stop-color="#bf0000"/><stop offset="1" stop-color="#c1c1c1"/></linearGradient><linearGradient x1="222.30155" y1="161.84763" x2="222.30155" y2="179.07559" gradientTransform="translate(-555.7979,-468.16805) scale(2.67874,2.67874)" gradientUnits="userSpaceOnUse" id="color-22"><stop offset="0" stop-color="#bf0000"/><stop offset="1" stop-color="#c1c1c1"/></linearGradient><linearGradient x1="222.30155" y1="161.84763" x2="222.30155" y2="179.07559" gradientTransform="translate(-555.7979,-468.16805) scale(2.67874,2.67874)" gradientUnits="userSpaceOnUse" id="color-23"><stop offset="0" stop-color="#bf0000"/><stop offset="1" stop-color="#c1c1c1"/></linearGradient><radialGradient cx="193.33948" cy="177.31805" r="6.01306" gradientUnits="userSpaceOnUse" id="color-24"><stop offset="0" stop-color="#000000" stop-opacity="0"/><stop offset="1" stop-color="#000000" stop-opacity="0"/></radialGradient><radialGradient cx="186.0825" cy="195.27543" r="6.01306" gradientUnits="userSpaceOnUse" id="color-25"><stop offset="0" stop-color="#000000" stop-opacity="0"/><stop offset="1" stop-color="#000000" stop-opacity="0"/></radialGradient><radialGradient cx="189.1564" cy="187.49315" r="6.01306" gradientUnits="userSpaceOnUse" id="color-26"><stop offset="0" stop-color="#000000" stop-opacity="0"/><stop offset="1" stop-color="#000000" stop-opacity="0"/></radialGradient><radialGradient cx="196.95799" cy="168.15428" r="6.01306" gradientUnits="userSpaceOnUse" id="color-27"><stop offset="0" stop-color="#000000" stop-opacity="0"/><stop offset="1" stop-color="#000000" stop-opacity="0"/></radialGradient><radialGradient cx="204.75959" cy="150.5664" r="6.01306" gradientUnits="userSpaceOnUse" id="color-28"><stop offset="0" stop-color="#000000" stop-opacity="0"/><stop offset="1" stop-color="#000000" stop-opacity="0"/></radialGradient><radialGradient cx="184.37011" cy="197.59034" r="6.01306" gradientUnits="userSpaceOnUse" id="color-29"><stop offset="0" stop-color="#000000" stop-opacity="0"/><stop offset="1" stop-color="#000000" stop-opacity="0"/></radialGradient><radialGradient cx="261.66837" cy="157.54807" r="6.01306" gradientUnits="userSpaceOnUse" id="color-30"><stop offset="0" stop-color="#000000" stop-opacity="0"/><stop offset="1" stop-color="#000000" stop-opacity="0"/></radialGradient><radialGradient cx="266.78727" cy="166.47224" r="6.01306" gradientUnits="userSpaceOnUse" id="color-31"><stop offset="0" stop-color="#000000" stop-opacity="0"/><stop offset="1" stop-color="#000000" stop-opacity="0"/></radialGradient><radialGradient cx="271.94185" cy="175.3142" r="6.01306" gradientUnits="userSpaceOnUse" id="color-32"><stop offset="0" stop-color="#000000" stop-opacity="0"/><stop offset="1" stop-color="#000000" stop-opacity="0"/></radialGradient><radialGradient cx="276.77257" cy="183.37384" r="6.01306" gradientUnits="userSpaceOnUse" id="color-33"><stop offset="0" stop-color="#000000" stop-opacity="0"/><stop offset="1" stop-color="#000000" stop-opacity="0"/></radialGradient><radialGradient cx="281.92715" cy="191.92762" r="6.01306" gradientUnits="userSpaceOnUse" id="color-34"><stop offset="0" stop-color="#000000" stop-opacity="0"/><stop offset="1" stop-color="#000000" stop-opacity="0"/></radialGradient><radialGradient cx="286.75787" cy="200.27543" r="6.01306" gradientUnits="userSpaceOnUse" id="color-35"><stop offset="0" stop-color="#000000" stop-opacity="0"/><stop offset="1" stop-color="#000000" stop-opacity="0"/></radialGradient><radialGradient cx="288.89778" cy="203.05039" r="6.01306" gradientUnits="userSpaceOnUse" id="color-36"><stop offset="0" stop-color="#000000" stop-opacity="0"/><stop offset="1" stop-color="#000000" stop-opacity="0"/></radialGradient><radialGradient cx="186.52415" cy="178.28355" r="6.01306" gradientUnits="userSpaceOnUse" id="color-37"><stop offset="0" stop-color="#000000" stop-opacity="0"/><stop offset="1" stop-color="#000000" stop-opacity="0"/></radialGradient><radialGradient cx="203.33948" cy="185.30081" r="6.01306" gradientUnits="userSpaceOnUse" id="color-38"><stop offset="0" stop-color="#000000" stop-opacity="0"/><stop offset="1" stop-color="#000000" stop-opacity="0"/></radialGradient><radialGradient cx="221.59571" cy="190.58898" r="6.01306" gradientUnits="userSpaceOnUse" id="color-39"><stop offset="0" stop-color="#000000" stop-opacity="0"/><stop offset="1" stop-color="#000000" stop-opacity="0"/></radialGradient><radialGradient cx="259.15992" cy="190.68995" r="6.01306" gradientUnits="userSpaceOnUse" id="color-40"><stop offset="0" stop-color="#000000" stop-opacity="0"/><stop offset="1" stop-color="#000000" stop-opacity="0"/></radialGradient><radialGradient cx="239.85194" cy="192.41901" r="6.01306" gradientUnits="userSpaceOnUse" id="color-41"><stop offset="0" stop-color="#000000" stop-opacity="0"/><stop offset="1" stop-color="#000000" stop-opacity="0"/></radialGradient><radialGradient cx="275.19698" cy="184.82539" r="6.01306" gradientUnits="userSpaceOnUse" id="color-42"><stop offset="0" stop-color="#000000" stop-opacity="0"/><stop offset="1" stop-color="#000000" stop-opacity="0"/></radialGradient><radialGradient cx="290.94586" cy="178.09632" r="6.01306" gradientUnits="userSpaceOnUse" id="color-43"><stop offset="0" stop-color="#000000" stop-opacity="0"/><stop offset="1" stop-color="#000000" stop-opacity="0"/></radialGradient><radialGradient cx="178.35491" cy="175.50438" r="6.01306" gradientUnits="userSpaceOnUse" id="color-44"><stop offset="0" stop-color="#000000" stop-opacity="0"/><stop offset="1" stop-color="#000000" stop-opacity="0"/></radialGradient><radialGradient cx="300.38494" cy="174.47156" r="6.01306" gradientUnits="userSpaceOnUse" id="color-45"><stop offset="0" stop-color="#000000" stop-opacity="0"/><stop offset="1" stop-color="#000000" stop-opacity="0"/></radialGradient><radialGradient cx="283.05932" cy="182.06742" r="6.01306" gradientUnits="userSpaceOnUse" id="color-46"><stop offset="0" stop-color="#000000" stop-opacity="0"/><stop offset="1" stop-color="#000000" stop-opacity="0"/></radialGradient><radialGradient cx="267.77386" cy="187.98248" r="6.01306" gradientUnits="userSpaceOnUse" id="color-47"><stop offset="0" stop-color="#000000" stop-opacity="0"/><stop offset="1" stop-color="#000000" stop-opacity="0"/></radialGradient><radialGradient cx="249.74818" cy="192.0719" r="6.01306" gradientUnits="userSpaceOnUse" id="color-48"><stop offset="0" stop-color="#000000" stop-opacity="0"/><stop offset="1" stop-color="#000000" stop-opacity="0"/></radialGradient><radialGradient cx="230.38402" cy="191.77032" r="6.01306" gradientUnits="userSpaceOnUse" id="color-49"><stop offset="0" stop-color="#000000" stop-opacity="0"/><stop offset="1" stop-color="#000000" stop-opacity="0"/></radialGradient><radialGradient cx="211.80423" cy="188.17233" r="6.01306" gradientUnits="userSpaceOnUse" id="color-50"><stop offset="0" stop-color="#000000" stop-opacity="0"/><stop offset="1" stop-color="#000000" stop-opacity="0"/></radialGradient><radialGradient cx="194.86666" cy="182.02074" r="6.01307" gradientUnits="userSpaceOnUse" id="color-51"><stop offset="0" stop-color="#000000" stop-opacity="0"/><stop offset="1" stop-color="#000000" stop-opacity="0"/></radialGradient><linearGradient x1="239.9012" y1="192.52576" x2="239.9012" y2="209.16177" gradientUnits="userSpaceOnUse" id="color-52"><stop offset="0" stop-color="#ffc500"/><stop offset="1" stop-color="#987500"/></linearGradient></defs><g transform="translate(-156.21061,-121.66261)"><g data-paper-data="{&quot;isPaintingLayer&quot;:true}" fill-rule="nonzero" stroke-linejoin="miter" stroke-miterlimit="10" stroke-dasharray="" stroke-dashoffset="0" style="mix-blend-mode: normal"><path d="M261.57223,159.09679c0,-16.51931 13.39154,-29.91084 29.91084,-29.91084c16.5193,0 29.91084,13.39154 29.91084,29.91084c0,16.51931 -13.39154,29.91084 -29.91084,29.91084c-16.5193,0 -29.91084,-13.39154 -29.91084,-29.91084z" fill="url(#color-1)" stroke="none" stroke-width="NaN" stroke-linecap="butt"/><path d="M265.0753,180.38473c0,-16.51931 13.39154,-29.91084 29.91084,-29.91084c16.5193,0 29.91084,13.39154 29.91084,29.91084c0,16.51931 -13.39153,29.91084 -29.91084,29.91084c-16.5193,0 -29.91084,-13.39154 -29.91084,-29.91084z" fill="url(#color-2)" stroke="none" stroke-width="NaN" stroke-linecap="butt"/><path d="M156.21061,180.38473c0,-16.51931 13.39154,-29.91084 29.91084,-29.91084c16.51931,0 29.91084,13.39154 29.91084,29.91084c0,16.51931 -13.39154,29.91084 -29.91084,29.91084c-16.51931,0 -29.91084,-13.39154 -29.91084,-29.91084z" fill="url(#color-3)" stroke="none" stroke-width="NaN" stroke-linecap="butt"/><path d="M261.57223,200.05584c0,-16.51931 13.39154,-29.91084 29.91084,-29.91084c16.5193,0 29.91084,13.39154 29.91084,29.91084c0,16.51931 -13.39154,29.91084 -29.91084,29.91084c-16.5193,0 -29.91084,-13.39154 -29.91084,-29.91084z" fill="url(#color-4)" stroke="none" stroke-width="NaN" stroke-linecap="butt"/><path d="M157.67782,158.94723c0,-16.51931 13.39154,-29.91085 29.91084,-29.91085c16.51931,0 29.91084,13.39154 29.91084,29.91085c0,16.51931 -13.39154,29.91084 -29.91084,29.91084c-16.51931,0 -29.91084,-13.39153 -29.91084,-29.91084z" fill="url(#color-5)" stroke="none" stroke-width="NaN" stroke-linecap="butt"/><path d="M157.94729,201.25356c0,-16.51931 13.39154,-29.91084 29.91084,-29.91084c16.51931,0 29.91085,13.39154 29.91085,29.91084c0,16.51931 -13.39154,29.91084 -29.91085,29.91084c-16.51931,0 -29.91084,-13.39154 -29.91084,-29.91084z" fill="url(#color-6)" stroke="none" stroke-width="NaN" stroke-linecap="butt"/><path d="M209.95443,203.13984c0,-16.51931 13.39154,-29.91084 29.91084,-29.91084c16.5193,0 29.91084,13.39154 29.91084,29.91084c0,16.51931 -13.39154,29.91084 -29.91084,29.91084c-16.51931,0 -29.91084,-13.39154 -29.91084,-29.91084z" fill="url(#color-7)" stroke="none" stroke-width="NaN" stroke-linecap="butt"/><path d="M239.86527,125.16568c16.5193,0 29.91084,13.39154 29.91084,29.91084c0,16.51931 -13.39154,29.91084 -29.91084,29.91084c-16.51931,0 -29.91084,-13.39154 -29.91084,-29.91084c0,-16.51931 13.39154,-29.91084 29.91084,-29.91084z" data-paper-data="{&quot;index&quot;:null}" fill="url(#color-8)" stroke="none" stroke-width="NaN" stroke-linecap="butt"/><path d="M184.62453,206.64291c0,-16.51931 13.39154,-29.91084 29.91084,-29.91084c16.51931,0 29.91084,13.39154 29.91084,29.91084c0,16.51931 -13.39154,29.91084 -29.91084,29.91084c-16.51931,0 -29.91084,-13.39154 -29.91084,-29.91084z" fill="url(#color-9)" stroke="none" stroke-width="NaN" stroke-linecap="butt"/><path d="M214.53537,121.66261c16.51931,0 29.91084,13.39154 29.91084,29.91084c0,16.51931 -13.39154,29.91084 -29.91084,29.91084c-16.51931,0 -29.91084,-13.39154 -29.91084,-29.91084c0,-16.51931 13.39154,-29.91084 29.91084,-29.91084z" data-paper-data="{&quot;index&quot;:null}" fill="url(#color-10)" stroke="none" stroke-width="NaN" stroke-linecap="butt"/><path d="M235.01487,204.48717c0,-16.51931 13.39154,-29.91084 29.91084,-29.91084c16.5193,0 29.91084,13.39154 29.91084,29.91084c0,16.51931 -13.39154,29.91084 -29.91084,29.91084c-16.51931,0 -29.91084,-13.39154 -29.91084,-29.91084z" fill="url(#color-11)" stroke="none" stroke-width="NaN" stroke-linecap="butt"/><path d="M264.92571,123.81834c16.5193,0 29.91084,13.39154 29.91084,29.91085c0,16.51931 -13.39154,29.91084 -29.91084,29.91084c-16.51931,0 -29.91084,-13.39154 -29.91084,-29.91084c0,-16.51931 13.39154,-29.91085 29.91084,-29.91085z" data-paper-data="{&quot;index&quot;:null}" fill="url(#color-12)" stroke="none" stroke-width="NaN" stroke-linecap="butt"/><g><path d="M183.86103,195.37201c0,-9.93915 0,-24.38874 0,-30.14536c0,-4.73309 5.23551,-10.76893 10.5599,-10.76893c12.92105,0 67.82501,0 91.15814,0c6.50796,0 10.5599,4.40639 10.5599,10.40792c0,10.13103 0,24.80755 0,30.50639c0,4.52446 -3.94645,10.17036 -10.5599,10.17036c-23.43454,0 -78.2703,0 -91.15814,0c-5.32439,0 -10.5599,-4.2979 -10.5599,-10.17036z" fill="url(#color-13)" stroke="url(#color-14)" stroke-width="5" stroke-linecap="butt"/><path d="M290.45594,160.4403v9.20608c0,0 -2.09011,-3.77633 -3.65404,-5.37062c-1.53427,-1.56408 -5.64228,-4.10621 -5.64228,-4.10621h9.20606" fill="none" stroke="#b3b3b3" stroke-width="6" stroke-linecap="round"/><path d="M188.91486,200.06389v-9.20606c0,0 2.09012,3.77633 3.65405,5.37062c1.53427,1.56407 5.64228,4.10621 5.64228,4.10621h-9.20608" data-paper-data="{&quot;index&quot;:null}" fill="none" stroke="#1a1a1a" stroke-width="6" stroke-linecap="round"/></g><path d="M203.90175,160.04816c-1.30434,3.05406 -3.44956,5.06525 -4.79149,4.49213c-1.34193,-0.57312 -1.37242,-3.51351 -0.06808,-6.56757c1.30434,-3.05406 3.44957,-5.06525 4.79149,-4.49213c1.34193,0.57312 1.37241,3.51351 0.06807,6.56757z" fill="url(#color-15)" stroke="#b3b3b3" stroke-width="3" stroke-linecap="butt"/><g stroke-linecap="butt" font-family="Sans Serif" font-weight="normal" font-size="40" text-anchor="start"><text transform="translate(207.36504,176.26874) scale(0.37331,0.37331)" font-size="40" xml:space="preserve" fill="url(#color-16)" fill-rule="nonzero" stroke="url(#color-17)" stroke-width="15" stroke-linecap="butt" stroke-linejoin="miter" stroke-miterlimit="10" stroke-dasharray="" stroke-dashoffset="0" font-family="Sans Serif" font-weight="normal" text-anchor="start" style="mix-blend-mode: normal"><tspan x="0" dy="0">La Danse</tspan><tspan x="0" dy="48px">Macabre</tspan></text><text transform="translate(207.48492,174.77182) scale(0.37331,0.37331)" font-size="40" xml:space="preserve" fill="url(#color-18)" fill-rule="nonzero" stroke="url(#color-19)" stroke-width="15" stroke-linecap="butt" stroke-linejoin="miter" stroke-miterlimit="10" stroke-dasharray="" stroke-dashoffset="0" font-family="Sans Serif" font-weight="normal" text-anchor="start" style="mix-blend-mode: normal"><tspan x="0" dy="0">La Danse</tspan><tspan x="0" dy="48px">Macabre</tspan></text><text transform="translate(207.48492,176.11915) scale(0.37331,0.37331)" font-size="40" xml:space="preserve" fill="url(#color-20)" fill-rule="nonzero" stroke="#000000" stroke-width="10" stroke-linecap="butt" stroke-linejoin="miter" stroke-miterlimit="10" stroke-dasharray="" stroke-dashoffset="0" font-family="Sans Serif" font-weight="normal" text-anchor="start" style="mix-blend-mode: normal"><tspan x="0" dy="0">La Danse</tspan><tspan x="0" dy="48px">Macabre</tspan></text><text transform="translate(207.48492,174.77182) scale(0.37331,0.37331)" font-size="40" xml:space="preserve" fill="url(#color-21)" fill-rule="nonzero" stroke="#000000" stroke-width="10" stroke-linecap="butt" stroke-linejoin="miter" stroke-miterlimit="10" stroke-dasharray="" stroke-dashoffset="0" font-family="Sans Serif" font-weight="normal" text-anchor="start" style="mix-blend-mode: normal"><tspan x="0" dy="0">La Danse</tspan><tspan x="0" dy="48px">Macabre</tspan></text><text transform="translate(207.48492,174.77182) scale(0.37331,0.37331)" font-size="40" xml:space="preserve" fill="url(#color-22)" fill-rule="nonzero" stroke="#ffffff" stroke-width="5" stroke-linecap="butt" stroke-linejoin="miter" stroke-miterlimit="10" stroke-dasharray="" stroke-dashoffset="0" font-family="Sans Serif" font-weight="normal" text-anchor="start" style="mix-blend-mode: normal"><tspan x="0" dy="0">La Danse</tspan><tspan x="0" dy="48px">Macabre</tspan></text><text transform="translate(207.48492,174.77182) scale(0.37331,0.37331)" font-size="40" xml:space="preserve" fill="url(#color-23)" fill-rule="nonzero" stroke="none" stroke-width="1" stroke-linecap="butt" stroke-linejoin="miter" stroke-miterlimit="10" stroke-dasharray="" stroke-dashoffset="0" font-family="Sans Serif" font-weight="normal" text-anchor="start" style="mix-blend-mode: normal"><tspan x="0" dy="0">La Danse</tspan><tspan x="0" dy="48px">Macabre</tspan></text></g><path d="M195.76927,178.35579c-1.30434,3.05406 -3.44956,5.06525 -4.79149,4.49213c-1.34193,-0.57312 -1.37242,-3.51352 -0.06808,-6.56757c1.30434,-3.05406 3.44957,-5.06525 4.79149,-4.49213c1.34193,0.57312 1.37241,3.51352 0.06807,6.56757z" fill="url(#color-24)" stroke="#b3b3b3" stroke-width="3" stroke-linecap="butt"/><path d="M188.51228,196.31317c-1.30434,3.05406 -3.44956,5.06525 -4.79149,4.49213c-1.34193,-0.57312 -1.37241,-3.51351 -0.06808,-6.56757c1.30434,-3.05406 3.44957,-5.06525 4.79149,-4.49213c1.34193,0.57312 1.37241,3.51351 0.06807,6.56757z" fill="url(#color-25)" stroke="#b3b3b3" stroke-width="3" stroke-linecap="butt"/><path d="M189.66008,188.00558c-1.30434,3.05406 -1.52346,5.59054 -2.86539,5.01743c-1.34193,-0.57312 0.72878,-2.28781 2.03312,-5.34187c1.30434,-3.05406 1.17327,-6.29094 2.5152,-5.71783c1.34193,0.57312 -0.37859,2.98822 -1.68292,6.04227z" fill="url(#color-26)" stroke="#b3b3b3" stroke-width="3" stroke-linecap="butt"/><path d="M197.46168,168.6667c-1.30434,3.05406 -1.52347,5.59054 -2.8654,5.01743c-1.34193,-0.57312 0.72878,-2.28781 2.03312,-5.34187c1.30434,-3.05406 1.17327,-6.29094 2.5152,-5.71783c1.34193,0.57312 -0.37858,2.98821 -1.68292,6.04227z" fill="url(#color-27)" stroke="#b3b3b3" stroke-width="3" stroke-linecap="butt"/><path d="M202.39788,156.09625c-1.34193,-0.57312 0.93009,-5.15412 2.27202,-4.58101c1.34193,0.57312 -0.93009,5.15412 -2.27202,4.58101z" fill="url(#color-28)" stroke="#b3b3b3" stroke-width="3" stroke-linecap="butt"/><path d="M182.00841,203.12021c-1.34193,-0.57312 0.93009,-5.15412 2.27202,-4.58101c1.34193,0.57312 -0.93009,5.15412 -2.27202,4.58101z" fill="url(#color-29)" stroke="#b3b3b3" stroke-width="3" stroke-linecap="butt"/><path d="M261.26132,158.14013c-1.81486,-2.78115 -3.92864,-4.86077 -2.70662,-5.65822c1.22202,-0.79744 1.65504,2.41303 3.46992,5.19418c1.81487,2.78116 4.15188,4.1102 2.92987,4.90765c-1.22202,0.79744 -1.87828,-1.66245 -3.69315,-4.44361z" data-paper-data="{&quot;index&quot;:null}" fill="url(#color-30)" stroke="#b3b3b3" stroke-width="3" stroke-linecap="butt"/><path d="M264.45752,167.71839c-1.56633,-2.92835 -1.79301,-5.86015 -0.50632,-6.54838c1.28668,-0.68823 3.59951,1.12772 5.16584,4.05607c1.56632,2.92835 1.793,5.86015 0.50631,6.54838c-1.28669,0.68823 -3.59951,-1.12772 -5.16584,-4.05607z" data-paper-data="{&quot;index&quot;:null}" fill="url(#color-31)" stroke="#b3b3b3" stroke-width="3" stroke-linecap="butt"/><path d="M271.5348,175.90632c-1.81486,-2.78115 -3.92863,-4.86077 -2.70662,-5.65822c1.22202,-0.79744 1.65504,2.41303 3.46991,5.19418c1.81487,2.78116 4.15188,4.1102 2.92987,4.90765c-1.22202,0.79744 -1.87828,-1.66245 -3.69315,-4.44361z" data-paper-data="{&quot;index&quot;:null}" fill="url(#color-32)" stroke="#b3b3b3" stroke-width="3" stroke-linecap="butt"/><path d="M274.44282,184.61999c-1.56633,-2.92835 -1.79301,-5.86014 -0.50632,-6.54838c1.28668,-0.68823 3.59951,1.12772 5.16584,4.05607c1.56632,2.92835 1.793,5.86015 0.50631,6.54838c-1.28669,0.68823 -3.59951,-1.12772 -5.16584,-4.05607z" data-paper-data="{&quot;index&quot;:null}" fill="url(#color-33)" stroke="#b3b3b3" stroke-width="3" stroke-linecap="butt"/><path d="M281.5201,192.51974c-1.81486,-2.78114 -3.92864,-4.86077 -2.70662,-5.65822c1.22202,-0.79744 1.65504,2.41303 3.46992,5.19418c1.81488,2.78115 4.15189,4.1102 2.92987,4.90765c-1.22202,0.79744 -1.87828,-1.66246 -3.69316,-4.44361z" data-paper-data="{&quot;index&quot;:null}" fill="url(#color-34)" stroke="#b3b3b3" stroke-width="3" stroke-linecap="butt"/><path d="M284.42812,201.52158c-1.56633,-2.92834 -1.79301,-5.86014 -0.50632,-6.54838c1.28668,-0.68823 3.59951,1.12772 5.16584,4.05607c1.56632,2.92835 1.793,5.86014 0.50631,6.54838c-1.28669,0.68824 -3.59951,-1.12772 -5.16584,-4.05607z" data-paper-data="{&quot;index&quot;:null}" fill="url(#color-35)" stroke="#b3b3b3" stroke-width="3" stroke-linecap="butt"/><path d="M288.99709,203.99827c1.33604,-0.58671 3.65448,3.97097 2.31844,4.55769c-1.33604,0.58671 -3.65448,-3.97097 -2.31844,-4.55769z" data-paper-data="{&quot;index&quot;:null}" fill="url(#color-36)" stroke="#b3b3b3" stroke-width="3" stroke-linecap="butt"/><path d="M185.48643,180.71334c-3.05406,-1.30434 -5.06525,-3.44956 -4.49213,-4.79149c0.57312,-1.34193 3.51352,-1.37242 6.56757,-0.06808c3.05406,1.30434 5.06525,3.44957 4.49213,4.79149c-0.57312,1.34193 -3.51352,1.37241 -6.56757,0.06807z" fill="url(#color-37)" stroke="#b3b3b3" stroke-width="3" stroke-linecap="butt"/><path d="M202.52207,187.81327c-3.158,-1.02744 -5.35208,-2.98521 -4.90063,-4.37281c0.45145,-1.3876 3.37748,-1.67959 6.53547,-0.65215c3.158,1.02744 5.35208,2.98522 4.90063,4.37281c-0.45145,1.3876 -3.37748,1.67958 -6.53547,0.65214z" fill="url(#color-38)" stroke="#b3b3b3" stroke-width="3" stroke-linecap="butt"/><path d="M221.1721,193.1969c-3.27797,-0.53245 -5.74562,-2.13169 -5.51166,-3.572c0.23396,-1.44031 3.08092,-2.1763 6.35888,-1.64384c3.27797,0.53245 5.74562,2.1317 5.51166,3.572c-0.23396,1.44031 -3.08092,2.17629 -6.35888,1.64383z" fill="url(#color-39)" stroke="#b3b3b3" stroke-width="3" stroke-linecap="butt"/><path d="M259.58354,193.29786c-3.27796,0.53245 -6.12493,-0.20352 -6.35889,-1.64383c-0.23396,-1.4403 2.23369,-3.03955 5.51166,-3.572c3.27796,-0.53245 6.12492,0.20353 6.35888,1.64384c0.23396,1.44031 -2.23369,3.03955 -5.51165,3.572z" data-paper-data="{&quot;index&quot;:null}" fill="url(#color-40)" stroke="#b3b3b3" stroke-width="3" stroke-linecap="butt"/><path d="M239.76217,195.0596c-3.31901,-0.11283 -5.9694,-1.38653 -5.91982,-2.84488c0.04958,-1.45835 2.78035,-2.54912 6.09935,-2.43628c3.31901,0.11283 5.96941,1.38654 5.91982,2.84488c-0.04958,1.45835 -2.78035,2.54911 -6.09936,2.43627z" fill="url(#color-41)" stroke="#b3b3b3" stroke-width="3" stroke-linecap="butt"/><path d="M276.0144,187.33789c-3.15799,1.02744 -6.08402,0.73546 -6.53546,-0.65214c-0.45145,-1.38759 1.74263,-3.34537 4.90063,-4.3728c3.15799,-1.02744 6.08402,-0.73545 6.53547,0.65215c0.45145,1.3876 -1.74263,3.34537 -4.90063,4.3728z" data-paper-data="{&quot;index&quot;:null}" fill="url(#color-42)" stroke="#b3b3b3" stroke-width="3" stroke-linecap="butt"/><path d="M291.98358,180.52611c-3.05405,1.30434 -5.99445,1.27386 -6.56757,-0.06807c-0.57312,-1.34192 1.43807,-3.48715 4.49213,-4.79149c3.05405,-1.30434 5.99445,-1.27385 6.56757,0.06808c0.57312,1.34193 -1.43807,3.48715 -4.49213,4.79149z" data-paper-data="{&quot;index&quot;:null}" fill="url(#color-43)" stroke="#b3b3b3" stroke-width="3" stroke-linecap="butt"/><path d="M184.01336,177.53878c-0.4937,1.37314 -5.19968,-0.62721 -4.70599,-2.00034c0.4937,-1.37314 5.19968,0.62721 4.70599,2.00034z" fill="url(#color-44)" stroke="#b3b3b3" stroke-width="3" stroke-linecap="butt"/><path d="M299.43248,174.50561c0.49368,1.37313 -4.2123,3.37349 -4.70599,2.00035c-0.49369,-1.37313 4.2123,-3.37349 4.70599,-2.00035z" data-paper-data="{&quot;index&quot;:null}" fill="url(#color-45)" stroke="#b3b3b3" stroke-width="3" stroke-linecap="butt"/><path d="M282.53302,181.57824c3.01641,-1.38916 5.38249,-3.17649 5.99288,-1.8511c0.61039,1.32539 -2.6289,1.28482 -5.64531,2.67399c-3.01643,1.38916 -4.67258,3.50698 -5.28298,2.18159c-0.61039,-1.32539 1.91898,-1.6153 4.9354,-3.00447z" data-paper-data="{&quot;index&quot;:null}" fill="url(#color-46)" stroke="#b3b3b3" stroke-width="3" stroke-linecap="butt"/><path d="M267.30234,187.44031c3.14659,-1.06183 5.68867,-2.58849 6.15524,-1.2059c0.46657,1.38259 -2.7502,0.99913 -5.89679,2.06097c-3.1466,1.06184 -5.01776,2.99231 -5.48433,1.60973c-0.46657,-1.38259 2.07928,-1.40295 5.22588,-2.46479z" data-paper-data="{&quot;index&quot;:null}" fill="url(#color-47)" stroke="#b3b3b3" stroke-width="3" stroke-linecap="butt"/><path d="M249.39496,191.44621c3.29561,-0.40928 6.09219,-1.39515 6.27204,0.05291c0.17983,1.44807 -2.8947,0.42733 -6.19031,0.83662c-3.29562,0.40928 -5.51588,1.92532 -5.69573,0.47725c-0.17983,-1.44807 2.31838,-0.9575 5.614,-1.36678z" data-paper-data="{&quot;index&quot;:null}" fill="url(#color-48)" stroke="#b3b3b3" stroke-width="3" stroke-linecap="butt"/><path d="M230.73725,191.14462c3.29562,0.40928 5.79383,-0.08129 5.61399,1.36678c-0.17985,1.44807 -2.40012,-0.06797 -5.69573,-0.47725c-3.2956,-0.40929 -6.37014,0.61145 -6.19031,-0.83662c0.17985,-1.44807 2.97643,-0.46219 6.27204,-0.05292z" data-paper-data="{&quot;index&quot;:null}" fill="url(#color-49)" stroke="#b3b3b3" stroke-width="3" stroke-linecap="butt"/><path d="M212.29857,187.65091c3.09817,1.19579 5.6408,1.3253 5.11538,2.68662c-0.52544,1.36131 -2.31209,-0.64763 -5.41026,-1.84342c-3.09816,-1.19579 -6.32842,-0.95062 -5.80299,-2.31194c0.52544,-1.36131 2.99971,0.27295 6.09787,1.46873z" data-paper-data="{&quot;index&quot;:null}" fill="url(#color-50)" stroke="#b3b3b3" stroke-width="3" stroke-linecap="butt"/><path d="M235.23946,194.17109c0,-2.62509 2.12805,-4.75314 4.75314,-4.75314c2.62509,0 4.75314,2.12805 4.75314,4.75314c0,2.62509 -2.12805,4.75314 -4.75314,4.75314c-2.62509,0 -4.75314,-2.12805 -4.75314,-4.75314z" fill="none" stroke="#000000" stroke-width="3" stroke-linecap="butt"/><path d="M195.361,181.49932c3.09817,1.19579 5.64081,1.3253 5.11538,2.68661c-0.52543,1.3613 -2.31209,-0.64763 -5.41026,-1.84342c-3.09816,-1.1958 -6.32842,-0.95063 -5.803,-2.31194c0.52543,-1.3613 2.99971,0.27294 6.09787,1.46873z" data-paper-data="{&quot;index&quot;:null}" fill="url(#color-51)" stroke="#b3b3b3" stroke-width="3" stroke-linecap="butt"/><path d="M231.5832,209.16177v-16.63599h16.63599v16.63599z" fill="url(#color-52)" stroke="#000000" stroke-width="2" stroke-linecap="butt"/><path d="M236.88478,200.15341c0,-1.66592 1.3505,-3.01642 3.01642,-3.01642c1.66592,0 3.01642,1.3505 3.01642,3.01642c0,1.66592 -1.3505,3.01642 -3.01642,3.01642c-1.66592,0 -3.01642,-1.3505 -3.01642,-3.01642z" fill="#000000" stroke="none" stroke-width="0" stroke-linecap="butt"/><path d="M239.80979,200.65603l3.20415,5.94635h-6.4083z" fill="#000000" stroke="none" stroke-width="0" stroke-linecap="butt"/><g stroke-linecap="butt" font-family="Sans Serif" font-weight="normal" font-size="40" text-anchor="start"><text transform="translate(200.39001,146.17101) scale(0.5,0.5)" font-size="40" xml:space="preserve" fill="#00ffff" fill-rule="nonzero" stroke="#000000" stroke-width="10" stroke-linecap="butt" stroke-linejoin="miter" stroke-miterlimit="10" stroke-dasharray="" stroke-dashoffset="0" font-family="Sans Serif" font-weight="normal" text-anchor="start" style="mix-blend-mode: normal"><tspan x="0" dy="0">Medium</tspan></text><text transform="translate(200.39001,146.17101) scale(0.5,0.5)" font-size="40" xml:space="preserve" fill="#00ffff" fill-rule="nonzero" stroke="#ffffff" stroke-width="5" stroke-linecap="butt" stroke-linejoin="miter" stroke-miterlimit="10" stroke-dasharray="" stroke-dashoffset="0" font-family="Sans Serif" font-weight="normal" text-anchor="start" style="mix-blend-mode: normal"><tspan x="0" dy="0">Medium</tspan></text><text transform="translate(200.39001,146.17101) scale(0.5,0.5)" font-size="40" xml:space="preserve" fill="#ffe000" fill-rule="nonzero" stroke="none" stroke-width="1" stroke-linecap="butt" stroke-linejoin="miter" stroke-miterlimit="10" stroke-dasharray="" stroke-dashoffset="0" font-family="Sans Serif" font-weight="normal" text-anchor="start" style="mix-blend-mode: normal"><tspan x="0" dy="0">Medium</tspan></text></g></g></g></svg>