<svg version="1.1" xmlns="http://www.w3.org/2000/svg" xmlns:xlink="http://www.w3.org/1999/xlink" width="38" height="37.9" viewBox="0,0,38,37.9"><g transform="translate(-220.95,-161.2)"><g data-paper-data="{&quot;isPaintingLayer&quot;:true}" fill="none" fill-rule="nonzero" stroke="#b30000" stroke-linejoin="miter" stroke-miterlimit="10" stroke-dasharray="" stroke-dashoffset="0" style="mix-blend-mode: normal"><path d="M244.16752,168.88279c3.423,1.22373 6.13066,3.952 7.32639,7.38822c0.22194,0.63779 -1.05513,-2.65205 -3.1485,-4.77231c-1.97908,-2.00449 -4.79398,-2.83616 -4.17789,-2.61591z" stroke-width="4" stroke-linecap="butt"/><path d="M248.3454,188.9013c2.09338,-2.12026 3.37044,-5.41011 3.1485,-4.77231c-1.19573,3.43622 -3.90339,6.16449 -7.32639,7.38822c-0.61609,0.22026 2.19881,-0.61142 4.17789,-2.61591z" data-paper-data="{&quot;index&quot;:null}" stroke-width="4" stroke-linecap="butt"/><path d="M231.7546,171.4987c-2.09338,2.12026 -3.37044,5.41011 -3.1485,4.77231c1.19573,-3.43622 3.90339,-6.16449 7.32639,-7.38822c0.61609,-0.22026 -2.19881,0.61142 -4.17789,2.61591z" data-paper-data="{&quot;index&quot;:null}" stroke-width="4" stroke-linecap="butt"/><path d="M235.93248,191.51721c-3.423,-1.22373 -6.13066,-3.952 -7.32639,-7.38822c-0.22194,-0.63779 1.05513,2.65205 3.1485,4.77231c1.97908,2.00449 4.79398,2.83616 4.17789,2.61591z" data-paper-data="{&quot;index&quot;:null}" stroke-width="4" stroke-linecap="butt"/><path d="M240,162.2v11" stroke-width="2" stroke-linecap="round"/><path d="M240,198.1v-11.3" stroke-width="2" stroke-linecap="round"/><path d="M221.95,180.15h11.4" stroke-width="2" stroke-linecap="round"/><path d="M257.95,180.15h-11.3" stroke-width="2" stroke-linecap="round"/></g></g></svg>