<svg version="1.1" xmlns="http://www.w3.org/2000/svg" xmlns:xlink="http://www.w3.org/1999/xlink" width="84.08874" height="109.81802" viewBox="0,0,84.08874,109.81802"><g transform="translate(-206.98335,-103.19866)"><g data-paper-data="{&quot;isPaintingLayer&quot;:true}" fill-rule="nonzero" stroke-linejoin="miter" stroke-miterlimit="10" stroke-dasharray="" stroke-dashoffset="0" style="mix-blend-mode: normal"><path d="M240.00003,210.51668c-16.85387,0 -30.51667,-13.6628 -30.51667,-30.51667c0,-16.85387 13.6628,-30.51667 30.51667,-30.51667c16.85387,0 30.51667,13.6628 30.51667,30.51667c0,16.85387 -13.6628,30.51667 -30.51667,30.51667z" data-paper-data="{&quot;index&quot;:null}" fill="#424242" stroke="#000000" stroke-width="5" stroke-linecap="butt"/><path d="M214.46033,190.47783c0,0 -7.45968,-14.11258 2.8814,-28.02818c8.94145,-12.03214 24.36095,-9.95394 24.36095,-9.95394l-27.24234,37.98212z" data-paper-data="{&quot;index&quot;:null}" fill="#585858" stroke="none" stroke-width="0" stroke-linecap="round"/><path d="M266.08088,170.17103c0,0 7.45968,14.11258 -2.8814,28.02818c-8.94145,12.03214 -24.36095,9.95394 -24.36095,9.95394l27.24234,-37.98212z" data-paper-data="{&quot;index&quot;:null}" fill="#272727" stroke="none" stroke-width="0" stroke-linecap="round"/><path d="M252.70438,187.3345c0,0 1.47415,10.50908 -3.14335,12.57339c-4.61752,2.06429 -19.12203,-2.61946 -19.12203,-2.61946z" data-paper-data="{&quot;index&quot;:null}" fill="#b3b3b3" stroke="none" stroke-width="0" stroke-linecap="round"/><path d="M244.80501,190.80049l0.01771,-4.59215l5.34057,2.26295l-0.95322,6.08898z" data-paper-data="{&quot;index&quot;:null}" fill="#424242" stroke="none" stroke-width="0" stroke-linecap="butt"/><path d="M235.1989,147.16378l12.94243,12.86839l20.62769,2.64561l3.6119,-16.89054l12.83647,-15.35979l-20.17758,6.18582l-2.50561,-15.49068l-10.23779,8.85584l-12.50333,-18.76022l2.44686,21.14404z" fill="#b48200" stroke="#583f00" stroke-width="4" stroke-linecap="round"/><path d="M249.33571,146.50836c0,-2.49482 2.02245,-4.51727 4.51727,-4.51727c2.49482,0 4.51727,2.02245 4.51727,4.51727c0,2.49482 -2.02245,4.51727 -4.51727,4.51727c-2.49482,0 -4.51727,-2.02245 -4.51727,-4.51727z" fill="#b50000" stroke="#590000" stroke-width="3" stroke-linecap="butt"/></g></g></svg>