<svg version="1.1" xmlns="http://www.w3.org/2000/svg" xmlns:xlink="http://www.w3.org/1999/xlink" width="316" height="316" viewBox="0,0,316,316"><g transform="translate(-82,-22)"><g data-paper-data="{&quot;isPaintingLayer&quot;:true}" fill-rule="nonzero" stroke-linejoin="miter" stroke-miterlimit="10" stroke-dasharray="" stroke-dashoffset="0" style="mix-blend-mode: normal"><path d="M90,330v-300h300v300z" fill="#805100" stroke="#402800" stroke-width="16" stroke-linecap="butt"/><path d="M176.5,237.24917v-126h126v126z" fill="#342400" stroke="#402800" stroke-width="8" stroke-linecap="butt"/><text transform="translate(153.5,66.88313) scale(0.61988,0.61988)" font-size="40" xml:space="preserve" fill="#ffffff" fill-rule="nonzero" stroke="none" stroke-width="1" stroke-linecap="butt" stroke-linejoin="miter" stroke-miterlimit="10" stroke-dasharray="" stroke-dashoffset="0" font-family="Sans Serif" font-weight="normal" text-anchor="start" style="mix-blend-mode: normal"><tspan x="0" dy="0">So get warding</tspan><tspan x="0" dy="48px">phantoms off!</tspan></text><text transform="translate(108.5,278.85111) scale(0.41763,0.41763)" font-size="40" xml:space="preserve" fill="#ffffff" fill-rule="nonzero" stroke="none" stroke-width="1" stroke-linecap="butt" stroke-linejoin="miter" stroke-miterlimit="10" stroke-dasharray="" stroke-dashoffset="0" font-family="Sans Serif" font-weight="normal" text-anchor="start" style="mix-blend-mode: normal"><tspan x="0" dy="0">Because this Scratchtober won't </tspan><tspan x="0" dy="46.15px">    be as forgiving as the rest!</tspan></text><path d="M266.79573,201.70259c-11.29564,-4.11688 -17.11519,-16.61123 -12.99831,-27.90687c4.11688,-11.29564 16.61123,-17.11519 27.90687,-12.99831c11.29564,4.11688 17.11519,16.61123 12.99831,27.90687c-4.11688,11.29564 -16.61123,17.11519 -27.90687,12.99831z" data-paper-data="{&quot;index&quot;:null}" fill="#424242" stroke="#000000" stroke-width="4" stroke-linecap="butt"/><path d="M254.57363,182.03379c0,0 -1.55229,-11.28057 8.77756,-18.08094c8.93173,-5.87994 18.7584,-0.72061 18.7584,-0.72061z" data-paper-data="{&quot;index&quot;:null}" fill="#585858" stroke="none" stroke-width="0" stroke-linecap="round"/><path d="M294.13059,181.03327c0,0 1.55229,11.28057 -8.77756,18.08094c-8.93173,5.87994 -18.7584,0.72061 -18.7584,0.72061z" data-paper-data="{&quot;index&quot;:null}" fill="#272727" stroke="none" stroke-width="0" stroke-linecap="round"/><path d="M280.97302,189.26894c0,0 -1.57905,7.40338 -5.178,7.65899c-3.59895,0.25559 -12.17593,-6.42651 -12.17593,-6.42651z" data-paper-data="{&quot;index&quot;:null}" fill="#b3b3b3" stroke="none" stroke-width="0" stroke-linecap="round"/><path d="M274.83215,189.66231l1.13359,-3.07338l3.02654,2.82119l-2.12621,3.84806z" data-paper-data="{&quot;index&quot;:null}" fill="#424242" stroke="none" stroke-width="0" stroke-linecap="butt"/><path d="M260.30835,153.8506c-9.72053,-1.34849 -16.50742,-10.32174 -15.15893,-20.04227c1.34849,-9.72053 10.32174,-16.50742 20.04227,-15.15893c9.72053,1.34849 16.50742,10.32174 15.15893,20.04227c-1.34849,9.72053 -10.32174,16.50742 -20.04227,15.15893z" data-paper-data="{&quot;index&quot;:null}" fill="#424242" stroke="#000000" stroke-width="3.5" stroke-linecap="butt"/><path d="M247.18156,140.24967c0,0 -3.17324,-8.73634 3.90442,-15.93481c6.11972,-6.22417 14.84669,-3.79183 14.84669,-3.79183l-18.7511,19.72663z" data-paper-data="{&quot;index&quot;:null}" fill="#585858" stroke="none" stroke-width="0" stroke-linecap="round"/><path d="M278.57867,132.66786c0,0 3.17323,8.73634 -3.90442,15.93481c-6.11972,6.22417 -14.84669,3.79183 -14.84669,3.79183l18.7511,-19.72663z" data-paper-data="{&quot;index&quot;:null}" fill="#272727" stroke="none" stroke-width="0" stroke-linecap="round"/><path d="M269.49046,141.49669c0,0 0.00938,6.17909 -2.81895,7.00024c-2.82834,0.82113 -10.81911,-3.04075 -10.81911,-3.04075z" data-paper-data="{&quot;index&quot;:null}" fill="#b3b3b3" stroke="none" stroke-width="0" stroke-linecap="round"/><path d="M264.65715,142.86367l0.37764,-2.64712l2.89913,1.73247l-1.03696,3.43557z" data-paper-data="{&quot;index&quot;:null}" fill="#424242" stroke="none" stroke-width="0" stroke-linecap="butt"/><path d="M218.94028,163.0142c-11.88194,0.24315 -21.71131,-9.19198 -21.95446,-21.07393c-0.24315,-11.88194 9.19198,-21.71131 21.07393,-21.95446c11.88194,-0.24315 21.71131,9.19198 21.95446,21.07393c0.24315,11.88194 -9.19198,21.71131 -21.07393,21.95446z" data-paper-data="{&quot;index&quot;:null}" fill="#424242" stroke="#000000" stroke-width="3.5" stroke-linecap="butt"/><path d="M200.64575,149.25531c0,0 -5.46267,-9.84172 1.62701,-19.80138c6.13012,-8.61163 17.03082,-7.36896 17.03082,-7.36896z" data-paper-data="{&quot;index&quot;:null}" fill="#585858" stroke="none" stroke-width="0" stroke-linecap="round"/><path d="M236.74517,134.19433c0,0 5.46266,9.84172 -1.62702,19.80138c-6.13012,8.61163 -17.03082,7.36896 -17.03082,7.36896l18.65783,-27.17033z" data-paper-data="{&quot;index&quot;:null}" fill="#272727" stroke="none" stroke-width="0" stroke-linecap="round"/><path d="M227.56238,146.48752c0,0 1.19089,7.38761 -2.03466,8.90956c-3.22556,1.52194 -13.51878,-1.57084 -13.51878,-1.57084z" data-paper-data="{&quot;index&quot;:null}" fill="#b3b3b3" stroke="none" stroke-width="0" stroke-linecap="round"/><path d="M222.04334,149.045l-0.05377,-3.23771l3.79774,1.51833l-0.58417,4.30647z" data-paper-data="{&quot;index&quot;:null}" fill="#424242" stroke="none" stroke-width="0" stroke-linecap="butt"/><path d="M217.69098,191.85328l-12.92258,17.98606l-0.09434,-5.49243l-10.74901,13.91976l-0.45675,-2.60183l-7.45872,8.23184l6.68857,-21.08385l-3.96708,0.93803l4.72123,-21.00428z" fill="#d8a457" stroke="#664e29" stroke-width="2.5" stroke-linecap="round"/><path d="M195.37859,200.16083l-4.27535,1.21679l3.49402,-16.44813l18.37181,10.59831l-6.46574,8.84215l-0.29289,-4.94952l-11.42041,14.88657l-0.18435,-2.66467l-4.58675,5.27586z" fill="none" stroke="#9f7940" stroke-width="2.5" stroke-linecap="round"/><path d="M201.89899,194.63368c-6.42353,-3.07503 -9.13803,-10.77514 -6.06301,-17.19867c3.07503,-6.42353 10.77514,-9.13803 17.19867,-6.06301c6.42353,3.07503 9.13803,10.77513 6.063,17.19866c-3.07503,6.42353 -10.77513,9.13804 -17.19866,6.06301z" fill="#d8d8d8" stroke="#6c6c6c" stroke-width="3.5" stroke-linecap="butt"/><path d="M202.70894,173.20532c0.73426,-0.39882 1.8499,-0.71303 2.46849,-0.88271c1.23065,-0.33757 3.66766,0.05006 3.66766,0.05006l-10.83443,5.80724c0,0 0.78041,-1.68755 1.29965,-2.31141c0.54866,-0.65921 2.75628,-2.31428 3.39864,-2.66318z" fill="#ffffff" stroke="#ffffff" stroke-width="1" stroke-linecap="round"/><path d="M212.30505,192.46013c-0.73426,0.39882 -1.8499,0.71303 -2.46848,0.88271c-1.23065,0.33757 -3.66766,-0.05007 -3.66766,-0.05007l10.83444,-5.80724c0,0 -0.78041,1.68755 -1.29965,2.31141c-0.54866,0.65921 -2.75628,2.31429 -3.39864,2.66319z" data-paper-data="{&quot;index&quot;:null}" fill="#b3b3b3" stroke="#b3b3b3" stroke-width="1" stroke-linecap="round"/><path d="M217.96823,186.574l4.12521,-1.88983c0,0 -0.55162,7.72991 -7.90628,11.28718c-7.91804,3.82977 -13.7498,-0.20559 -13.7498,-0.20559l4.43069,-2.25887c0,0 3.34059,1.18601 7.29439,-0.43712c4.01363,-1.64769 5.80579,-6.49577 5.80579,-6.49577z" fill="#444444" stroke="#000000" stroke-width="0" stroke-linecap="round"/><path d="M196.98527,179.37414l-4.23001,1.83966c0,0 0.57225,-8.04208 7.92691,-11.59936c7.91804,-3.82977 13.907,0.28084 13.907,0.28084l-4.3532,2.23155c0,0 -3.44316,-1.10629 -7.39696,0.51684c-4.01363,1.64769 -5.85375,6.73047 -5.85375,6.73047z" data-paper-data="{&quot;index&quot;:null}" fill="#919191" stroke="#000000" stroke-width="0" stroke-linecap="round"/><path d="M218.39334,213.79764l-41.92131,-20.06827l20.06826,-41.92132l41.92131,20.06826z" fill="none" stroke="none" stroke-width="NaN" stroke-linecap="butt"/><path d="M245.74694,219.08592l-15.31507,5.2923l2.26233,-3.32188l-12.2996,3.78003l0.82547,-1.74757l-7.93221,1.77021l12.89765,-9.77518l-2.76656,-1.11423l11.68846,-10.55817z" fill="#d8a457" stroke="#664e29" stroke-width="2" stroke-linecap="round"/><path d="M228.90681,214.8307l-3.06846,-1.07779l9.0317,-8.35369l6.50402,14.08903l-7.59649,2.5541l1.91448,-3.08128l-13.10894,4.07432l1.01476,-1.67012l-4.96813,1.21628z" fill="none" stroke="#9f7940" stroke-width="1.5" stroke-linecap="round"/><path d="M235.22093,213.96106c-2.54028,-4.54929 -0.91164,-10.29653 3.63765,-12.8368c4.54929,-2.54028 10.29653,-0.91164 12.8368,3.63765c2.54028,4.54929 0.91165,10.29653 -3.63764,12.8368c-4.54929,2.54028 -10.29653,0.91164 -12.83681,-3.63765z" fill="#d8d8d8" stroke="#6c6c6c" stroke-width="2.5" stroke-linecap="butt"/><path d="M244.66677,201.61778c0.60713,0.07165 1.40644,0.35488 1.84771,0.51463c0.87789,0.31781 2.17051,1.57827 2.17051,1.57827l-8.92583,-1.10373c0,0 1.17877,-0.67896 1.75242,-0.83255c0.60616,-0.1623 2.62405,-0.21931 3.15519,-0.15662z" fill="#ffffff" stroke="#ffffff" stroke-width="0.5" stroke-linecap="round"/><path d="M242.27234,217.17481c-0.60713,-0.07165 -1.40644,-0.35488 -1.84771,-0.51463c-0.87789,-0.31781 -2.1705,-1.57827 -2.1705,-1.57827l8.92582,1.10374c0,0 -1.17876,0.67895 -1.75241,0.83254c-0.60616,0.1623 -2.62405,0.21932 -3.15519,0.15663z" data-paper-data="{&quot;index&quot;:null}" fill="#b3b3b3" stroke="#b3b3b3" stroke-width="0.5" stroke-linecap="round"/><path d="M248.14133,216.04828l3.26287,0.61222c0,0 -3.59291,4.3862 -9.48951,3.40702c-6.34829,-1.05419 -8.12954,-5.92751 -8.12954,-5.92751l3.60121,0.52066c0,0 1.49551,2.11899 4.54337,2.81822c3.09398,0.70981 6.21159,-1.43061 6.21159,-1.43061z" fill="#444444" stroke="#000000" stroke-width="0" stroke-linecap="round"/><path d="M238.64229,202.88769l-3.30432,-0.68644c0,0 3.73702,-4.56404 9.63362,-3.58486c6.34829,1.05419 8.1917,6.03886 8.1917,6.03886l-3.54337,-0.50428c0,0 -1.59046,-2.11466 -4.63832,-2.81389c-3.09398,-0.70981 -6.33931,1.55061 -6.33931,1.55061z" data-paper-data="{&quot;index&quot;:null}" fill="#919191" stroke="#000000" stroke-width="0" stroke-linecap="round"/><path d="M236.90253,232.49549l-16.57838,-29.68964l29.68965,-16.57838l16.57838,29.68964z" fill="none" stroke="none" stroke-width="NaN" stroke-linecap="butt"/></g></g></svg>