<svg version="1.1" xmlns="http://www.w3.org/2000/svg" xmlns:xlink="http://www.w3.org/1999/xlink" width="100" height="100" viewBox="0,0,100,100"><g transform="translate(-190,-130)"><g data-paper-data="{&quot;isPaintingLayer&quot;:true}" fill-rule="nonzero" stroke-linejoin="miter" stroke-miterlimit="10" stroke-dasharray="" stroke-dashoffset="0" style="mix-blend-mode: normal"><path d="M212.25556,180c0,-15.32283 12.42161,-27.74444 27.74444,-27.74444c15.32283,0 27.74444,12.42161 27.74444,27.74444c0,15.32283 -12.42161,27.74444 -27.74444,27.74444c-15.32283,0 -27.74444,-12.42161 -27.74444,-27.74444z" fill="#d8d8d8" stroke="#6c6c6c" stroke-width="8" stroke-linecap="butt"/><path d="M253.52211,194.64495c-6.73749,6.73749 -12.51576,1.54304 -12.51576,1.54304l13.88735,-13.88735c0,0 5.53735,5.43537 -1.37159,12.34431z" data-paper-data="{&quot;index&quot;:null}" fill="#6c6c6c" stroke="none" stroke-width="0" stroke-linecap="round"/><path d="M254.20555,161.85008c1.45614,1.05445 3.10238,2.92764 4.00636,3.97048c1.79843,2.07468 3.3102,7.16428 3.3102,7.16428l-21.33553,-15.63111c0,0 4.00002,-0.05325 5.69313,0.37484c1.78905,0.45236 7.05196,3.19904 8.32584,4.12151z" fill="#ffffff" stroke="#ffffff" stroke-width="2" stroke-linecap="round"/><path d="M254.8937,177.29937l-13.88735,-13.88734c0,0 5.77827,-5.19446 12.51576,1.54303c6.90894,6.90894 1.37159,12.34431 1.37159,12.34431z" data-paper-data="{&quot;index&quot;:null}" fill="#6c6c6c" stroke="none" stroke-width="0" stroke-linecap="round"/><path d="M225.75314,198.36138c-1.45614,-1.05445 -3.10237,-2.92764 -4.00635,-3.97048c-1.79843,-2.07468 -3.3102,-7.16429 -3.3102,-7.16429l21.33553,15.63111c0,0 -4.00002,0.05325 -5.69313,-0.37484c-1.78905,-0.45236 -7.05197,-3.19904 -8.32585,-4.1215z" data-paper-data="{&quot;index&quot;:null}" fill="#b3b3b3" stroke="#b3b3b3" stroke-width="2" stroke-linecap="round"/><path d="M242.4375,203.88343l7.5,6.25c0,0 -15.51376,6.11079 -29.25,-4.85745c-14.78845,-11.80843 -12.375,-26.875 -12.375,-26.875l8.5,6.5c0,0 0.80183,7.58487 7.625,13.75c6.92644,6.25844 18,5.23245 18,5.23245z" fill="#444444" stroke="#000000" stroke-width="0" stroke-linecap="round"/><path d="M236.91636,156.47327l-7.5,-6.5c0,0 16.13876,-6.36079 29.875,4.60746c14.78846,11.80843 12.375,27.25 12.375,27.25l-8.375,-6.375c0,0 -1.05183,-7.70987 -7.875,-13.875c-6.92644,-6.25844 -18.5,-5.10746 -18.5,-5.10746z" data-paper-data="{&quot;index&quot;:null}" fill="#919191" stroke="#000000" stroke-width="0" stroke-linecap="round"/><path d="M190,230v-100h100v100z" fill="none" stroke="none" stroke-width="NaN" stroke-linecap="butt"/></g></g></svg>