<svg version="1.1" xmlns="http://www.w3.org/2000/svg" xmlns:xlink="http://www.w3.org/1999/xlink" width="100" height="100" viewBox="0,0,100,100"><g transform="translate(-190,-130)"><g data-paper-data="{&quot;isPaintingLayer&quot;:true}" fill-rule="nonzero" stroke-linejoin="miter" stroke-miterlimit="10" stroke-dasharray="" stroke-dashoffset="0" style="mix-blend-mode: normal"><path d="M216.64991,165.62726h28.65536v29.01355h-28.65536z" fill="#d8d8d8" stroke="#6c6c6c" stroke-width="6" stroke-linecap="butt"/><path d="M245.9726,154.88151c3.42144,0 8.03869,0 10.02937,0c1.84733,0 4.2983,1.71169 4.2983,3.58192c0,5.51736 0,33.19695 0,43.16213c0,2.23749 -2.45098,3.58192 -4.2983,3.58192c-2.06105,0 -6.93765,0 -10.38757,0c-2.16019,0 -3.76102,-1.41665 -3.76102,-3.76102c0,-10.06535 0,-37.23175 0,-42.80394c0,-1.95246 1.78017,-3.76102 4.11921,-3.76102z" fill="#d8d8d8" stroke="#6c6c6c" stroke-width="6" stroke-linecap="butt"/><path d="M256.37402,158.91857l-0.11071,8.38955l-8.47664,-8.2982z" fill="#ffffff" stroke="#ffffff" stroke-width="2" stroke-linecap="round"/><path d="M245.83453,192.62079l8.16449,8.54962l-8.0806,-0.10663z" data-paper-data="{&quot;index&quot;:null}" fill="#b3b3b3" stroke="#b3b3b3" stroke-width="2" stroke-linecap="round"/><path d="M237.74902,169.54357l0.12318,9.61076l-9.96053,-9.50611z" fill="#ffffff" stroke="#ffffff" stroke-width="2" stroke-linecap="round"/><path d="M226.15985,190.77933c0,0 1.09198,-2.84307 1.39432,-4.23123c0.31103,-1.42809 0.69651,-4.22091 0.69651,-4.22091l8.12152,8.34749z" data-paper-data="{&quot;index&quot;:null}" fill="#b3b3b3" stroke="#b3b3b3" stroke-width="2" stroke-linecap="round"/><path d="M263.35009,175.68392l-5.91667,-5.91666l-0.08333,-11.91667l-12,0.16667l-4.16667,-4.33334c0,0 1.87522,-1.61183 3.25,-1.75c1.37478,-0.13817 8.02721,-0.20364 13.33333,0.08334c2.51491,0.09315 5.45994,4.21409 5.5,5.16666c0.04006,0.95257 0.08333,18.5 0.08333,18.5z" fill="#929292" stroke="none" stroke-width="0" stroke-linecap="round"/><path d="M238.85009,184.23275l6.08333,5.83333l0.08333,11.91667l11.25,0.08333l4.41667,4.5c0,0 -2.04189,1.36183 -3.41667,1.5c-1.37477,0.13817 -7.94387,0.20364 -13.25,-0.08333c-2.51491,-0.09315 -5.04327,-4.13076 -5.08333,-5.08333c-0.04006,-0.95257 -0.08333,-18.66667 -0.08333,-18.66667z" data-paper-data="{&quot;index&quot;:null}" fill="#444444" stroke="none" stroke-width="0" stroke-linecap="round"/><path d="M238.93342,191.5944v6.08333l-17,0.08333l2.75,-6.08333z" fill="#444444" stroke="none" stroke-width="0" stroke-linecap="round"/><path d="M190,230v-100h100v100z" fill="none" stroke="none" stroke-width="NaN" stroke-linecap="butt"/></g></g></svg>