<svg version="1.1" xmlns="http://www.w3.org/2000/svg" xmlns:xlink="http://www.w3.org/1999/xlink" width="63.64989" height="63.64979" viewBox="0,0,63.64989,63.64979"><g transform="translate(-208.17508,-148.17511)"><g data-paper-data="{&quot;isPaintingLayer&quot;:true}" fill="#191919" fill-rule="nonzero" stroke="none" stroke-width="NaN" stroke-linecap="butt" stroke-linejoin="miter" stroke-miterlimit="10" stroke-dasharray="" stroke-dashoffset="0" style="mix-blend-mode: normal"><path d="M208.17508,179.99997c0,-4.08282 2.48136,-7.70068 3.88219,-11.28747c1.60182,-4.1016 2.31745,-8.07482 5.36736,-11.1441c3.01719,-3.03641 7.78446,-4.04038 11.82034,-5.66802c3.67523,-1.48221 6.54901,-3.72527 10.75507,-3.72527c4.83946,0 7.99944,3.64901 12.10637,5.58142c3.94363,1.8556 8.8716,1.9282 11.7278,5.15365c2.64481,2.98673 2.45343,7.9013 3.83244,11.72927c1.21353,3.36863 4.15832,5.57378 4.15832,9.36055c0,4.44805 -3.83931,7.54132 -5.55933,11.38609c-1.69217,3.78252 -1.24138,8.32915 -4.11807,11.18794c-2.59736,2.58123 -7.29209,3.00467 -10.58755,4.57141c-4.00438,1.90376 -6.75878,4.67946 -11.55997,4.67946c-4.57765,0 -8.35869,-3.24987 -12.29194,-4.98991c-3.89701,-1.724 -7.95389,-1.92397 -10.84133,-4.97908c-2.60844,-2.75993 -2.73039,-6.84271 -4.22348,-10.39751c-1.59098,-3.78796 -4.46815,-7.09238 -4.46815,-11.45844z" stroke-width="NaN"/></g></g></svg>