<svg version="1.1" xmlns="http://www.w3.org/2000/svg" xmlns:xlink="http://www.w3.org/1999/xlink" width="168.68637" height="116.3211" viewBox="0,0,168.68637,116.3211"><defs><radialGradient cx="291.48308" cy="159.09679" r="29.91084" gradientUnits="userSpaceOnUse" id="color-1"><stop offset="0" stop-color="#800000"/><stop offset="1" stop-color="#800000" stop-opacity="0"/></radialGradient><radialGradient cx="294.98615" cy="180.3847" r="29.91084" gradientUnits="userSpaceOnUse" id="color-2"><stop offset="0" stop-color="#800000"/><stop offset="1" stop-color="#800000" stop-opacity="0"/></radialGradient><radialGradient cx="186.12146" cy="180.3847" r="29.91084" gradientUnits="userSpaceOnUse" id="color-3"><stop offset="0" stop-color="#800000"/><stop offset="1" stop-color="#800000" stop-opacity="0"/></radialGradient><radialGradient cx="291.48308" cy="200.0558" r="29.91084" gradientUnits="userSpaceOnUse" id="color-4"><stop offset="0" stop-color="#800000"/><stop offset="1" stop-color="#800000" stop-opacity="0"/></radialGradient><radialGradient cx="187.58867" cy="158.94721" r="29.91084" gradientUnits="userSpaceOnUse" id="color-5"><stop offset="0" stop-color="#800000"/><stop offset="1" stop-color="#800000" stop-opacity="0"/></radialGradient><radialGradient cx="187.85813" cy="201.25354" r="29.91085" gradientUnits="userSpaceOnUse" id="color-6"><stop offset="0" stop-color="#800000"/><stop offset="1" stop-color="#800000" stop-opacity="0"/></radialGradient><radialGradient cx="239.86527" cy="203.13981" r="29.91084" gradientUnits="userSpaceOnUse" id="color-7"><stop offset="0" stop-color="#800000"/><stop offset="1" stop-color="#800000" stop-opacity="0"/></radialGradient><radialGradient cx="239.86527" cy="155.07648" r="29.91084" gradientUnits="userSpaceOnUse" id="color-8"><stop offset="0" stop-color="#800000"/><stop offset="1" stop-color="#800000" stop-opacity="0"/></radialGradient><radialGradient cx="214.53537" cy="206.64288" r="29.91084" gradientUnits="userSpaceOnUse" id="color-9"><stop offset="0" stop-color="#800000"/><stop offset="1" stop-color="#800000" stop-opacity="0"/></radialGradient><radialGradient cx="214.53537" cy="151.5734" r="29.91084" gradientUnits="userSpaceOnUse" id="color-10"><stop offset="0" stop-color="#800000"/><stop offset="1" stop-color="#800000" stop-opacity="0"/></radialGradient><radialGradient cx="264.92571" cy="204.48714" r="29.91084" gradientUnits="userSpaceOnUse" id="color-11"><stop offset="0" stop-color="#800000"/><stop offset="1" stop-color="#800000" stop-opacity="0"/></radialGradient><radialGradient cx="264.92571" cy="153.72915" r="29.91084" gradientUnits="userSpaceOnUse" id="color-12"><stop offset="0" stop-color="#800000"/><stop offset="1" stop-color="#800000" stop-opacity="0"/></radialGradient><linearGradient x1="240" y1="154.45763" x2="240" y2="205.54233" gradientUnits="userSpaceOnUse" id="color-13"><stop offset="0" stop-color="#9a9a9a"/><stop offset="1" stop-color="#343434"/></linearGradient><linearGradient x1="240" y1="154.45765" x2="240" y2="205.54235" gradientUnits="userSpaceOnUse" id="color-14"><stop offset="0" stop-color="#1b1b1b"/><stop offset="1" stop-color="#000000"/></linearGradient><linearGradient x1="217.80704" y1="172.17637" x2="217.80704" y2="189.51765" gradientTransform="translate(-539.94558,-492.822) scale(2.66127,2.66127)" gradientUnits="userSpaceOnUse" id="color-15"><stop offset="0" stop-color="#ff9500"/><stop offset="1" stop-color="#9465ff"/></linearGradient><linearGradient x1="217.80704" y1="172.17637" x2="217.80704" y2="189.51765" gradientTransform="translate(-539.94558,-492.822) scale(2.66127,2.66127)" gradientUnits="userSpaceOnUse" id="color-16"><stop offset="0" stop-color="#bfbfbf"/><stop offset="1" stop-color="#bf0000"/></linearGradient><linearGradient x1="217.80704" y1="170.82903" x2="217.80704" y2="188.1703" gradientTransform="translate(-539.94558,-489.23636) scale(2.66127,2.66127)" gradientUnits="userSpaceOnUse" id="color-17"><stop offset="0" stop-color="#ff9500"/><stop offset="1" stop-color="#9465ff"/></linearGradient><linearGradient x1="217.80704" y1="170.82903" x2="217.80704" y2="188.1703" gradientTransform="translate(-539.94558,-489.23636) scale(2.66127,2.66127)" gradientUnits="userSpaceOnUse" id="color-18"><stop offset="0" stop-color="#ff9500"/><stop offset="1" stop-color="#9465ff"/></linearGradient><linearGradient x1="217.80704" y1="170.82903" x2="217.80704" y2="188.1703" gradientTransform="translate(-539.94558,-489.23636) scale(2.66127,2.66127)" gradientUnits="userSpaceOnUse" id="color-19"><stop offset="0" stop-color="#bfbfbf"/><stop offset="1" stop-color="#bf0000"/></linearGradient><linearGradient x1="217.80704" y1="172.17637" x2="217.80704" y2="189.51765" gradientTransform="translate(-539.94558,-492.822) scale(2.66127,2.66127)" gradientUnits="userSpaceOnUse" id="color-20"><stop offset="0" stop-color="#ff9500"/><stop offset="1" stop-color="#9465ff"/></linearGradient><linearGradient x1="217.80704" y1="170.82904" x2="217.80704" y2="188.17031" gradientTransform="translate(-539.94558,-489.23636) scale(2.66127,2.66127)" gradientUnits="userSpaceOnUse" id="color-21"><stop offset="0" stop-color="#ff9500"/><stop offset="1" stop-color="#9465ff"/></linearGradient><linearGradient x1="217.80704" y1="170.82904" x2="217.80704" y2="188.17031" gradientTransform="translate(-539.94558,-489.23636) scale(2.66127,2.66127)" gradientUnits="userSpaceOnUse" id="color-22"><stop offset="0" stop-color="#bf0000"/><stop offset="1" stop-color="#c1c1c1"/></linearGradient><radialGradient cx="201.47197" cy="159.01043" r="6.01306" gradientUnits="userSpaceOnUse" id="color-23"><stop offset="0" stop-color="#000000" stop-opacity="0"/><stop offset="1" stop-color="#000000" stop-opacity="0"/></radialGradient><radialGradient cx="193.33948" cy="177.31802" r="6.01306" gradientUnits="userSpaceOnUse" id="color-24"><stop offset="0" stop-color="#000000" stop-opacity="0"/><stop offset="1" stop-color="#000000" stop-opacity="0"/></radialGradient><radialGradient cx="186.0825" cy="195.2754" r="6.01306" gradientUnits="userSpaceOnUse" id="color-25"><stop offset="0" stop-color="#000000" stop-opacity="0"/><stop offset="1" stop-color="#000000" stop-opacity="0"/></radialGradient><radialGradient cx="189.1564" cy="187.49311" r="6.01306" gradientUnits="userSpaceOnUse" id="color-26"><stop offset="0" stop-color="#000000" stop-opacity="0"/><stop offset="1" stop-color="#000000" stop-opacity="0"/></radialGradient><radialGradient cx="196.95799" cy="168.15424" r="6.01306" gradientUnits="userSpaceOnUse" id="color-27"><stop offset="0" stop-color="#000000" stop-opacity="0"/><stop offset="1" stop-color="#000000" stop-opacity="0"/></radialGradient><radialGradient cx="204.75959" cy="150.56637" r="6.01306" gradientUnits="userSpaceOnUse" id="color-28"><stop offset="0" stop-color="#000000" stop-opacity="0"/><stop offset="1" stop-color="#000000" stop-opacity="0"/></radialGradient><radialGradient cx="184.37011" cy="197.59031" r="6.01306" gradientUnits="userSpaceOnUse" id="color-29"><stop offset="0" stop-color="#000000" stop-opacity="0"/><stop offset="1" stop-color="#000000" stop-opacity="0"/></radialGradient><radialGradient cx="286.75787" cy="200.2754" r="6.01306" gradientUnits="userSpaceOnUse" id="color-30"><stop offset="0" stop-color="#000000" stop-opacity="0"/><stop offset="1" stop-color="#000000" stop-opacity="0"/></radialGradient><radialGradient cx="276.77257" cy="183.3738" r="6.01306" gradientUnits="userSpaceOnUse" id="color-31"><stop offset="0" stop-color="#000000" stop-opacity="0"/><stop offset="1" stop-color="#000000" stop-opacity="0"/></radialGradient><radialGradient cx="266.78727" cy="166.47221" r="6.01306" gradientUnits="userSpaceOnUse" id="color-32"><stop offset="0" stop-color="#000000" stop-opacity="0"/><stop offset="1" stop-color="#000000" stop-opacity="0"/></radialGradient><radialGradient cx="281.92715" cy="191.92758" r="6.01306" gradientUnits="userSpaceOnUse" id="color-33"><stop offset="0" stop-color="#000000" stop-opacity="0"/><stop offset="1" stop-color="#000000" stop-opacity="0"/></radialGradient><radialGradient cx="271.94185" cy="175.31417" r="6.01306" gradientUnits="userSpaceOnUse" id="color-34"><stop offset="0" stop-color="#000000" stop-opacity="0"/><stop offset="1" stop-color="#000000" stop-opacity="0"/></radialGradient><radialGradient cx="261.66837" cy="157.54804" r="6.01306" gradientUnits="userSpaceOnUse" id="color-35"><stop offset="0" stop-color="#000000" stop-opacity="0"/><stop offset="1" stop-color="#000000" stop-opacity="0"/></radialGradient><radialGradient cx="288.89778" cy="203.05035" r="6.01306" gradientUnits="userSpaceOnUse" id="color-36"><stop offset="0" stop-color="#000000" stop-opacity="0"/><stop offset="1" stop-color="#000000" stop-opacity="0"/></radialGradient></defs><g transform="translate(-156.21061,-120.23262)"><g data-paper-data="{&quot;isPaintingLayer&quot;:true}" fill-rule="nonzero" stroke-linejoin="miter" stroke-miterlimit="10" stroke-dasharray="" stroke-dashoffset="0" style="mix-blend-mode: normal"><path d="M261.57223,159.09679c0,-16.51931 13.39154,-29.91084 29.91084,-29.91084c16.5193,0 29.91084,13.39154 29.91084,29.91084c0,16.51931 -13.39154,29.91084 -29.91084,29.91084c-16.5193,0 -29.91084,-13.39154 -29.91084,-29.91084z" fill="url(#color-1)" stroke="none" stroke-width="NaN" stroke-linecap="butt"/><path d="M265.0753,180.3847c0,-16.51931 13.39154,-29.91084 29.91084,-29.91084c16.5193,0 29.91084,13.39154 29.91084,29.91084c0,16.51931 -13.39153,29.91084 -29.91084,29.91084c-16.5193,0 -29.91084,-13.39154 -29.91084,-29.91084z" fill="url(#color-2)" stroke="none" stroke-width="NaN" stroke-linecap="butt"/><path d="M156.21061,180.3847c0,-16.51931 13.39154,-29.91084 29.91084,-29.91084c16.51931,0 29.91084,13.39154 29.91084,29.91084c0,16.51931 -13.39154,29.91084 -29.91084,29.91084c-16.51931,0 -29.91084,-13.39154 -29.91084,-29.91084z" fill="url(#color-3)" stroke="none" stroke-width="NaN" stroke-linecap="butt"/><path d="M261.57223,200.0558c0,-16.51931 13.39154,-29.91084 29.91084,-29.91084c16.5193,0 29.91084,13.39154 29.91084,29.91084c0,16.51931 -13.39154,29.91084 -29.91084,29.91084c-16.5193,0 -29.91084,-13.39154 -29.91084,-29.91084z" fill="url(#color-4)" stroke="none" stroke-width="NaN" stroke-linecap="butt"/><path d="M157.67782,158.94721c0,-16.51931 13.39154,-29.91085 29.91084,-29.91085c16.51931,0 29.91084,13.39154 29.91084,29.91085c0,16.51931 -13.39154,29.91084 -29.91084,29.91084c-16.51931,0 -29.91084,-13.39153 -29.91084,-29.91084z" fill="url(#color-5)" stroke="none" stroke-width="NaN" stroke-linecap="butt"/><path d="M157.94729,201.25354c0,-16.51931 13.39154,-29.91084 29.91084,-29.91084c16.51931,0 29.91085,13.39154 29.91085,29.91084c0,16.51931 -13.39154,29.91084 -29.91085,29.91084c-16.51931,0 -29.91084,-13.39154 -29.91084,-29.91084z" fill="url(#color-6)" stroke="none" stroke-width="NaN" stroke-linecap="butt"/><path d="M209.95443,203.13981c0,-16.51931 13.39154,-29.91084 29.91084,-29.91084c16.5193,0 29.91084,13.39154 29.91084,29.91084c0,16.51931 -13.39154,29.91084 -29.91084,29.91084c-16.51931,0 -29.91084,-13.39154 -29.91084,-29.91084z" fill="url(#color-7)" stroke="none" stroke-width="NaN" stroke-linecap="butt"/><path d="M239.86527,125.16564c16.5193,0 29.91084,13.39154 29.91084,29.91084c0,16.51931 -13.39154,29.91084 -29.91084,29.91084c-16.51931,0 -29.91084,-13.39154 -29.91084,-29.91084c0,-16.51931 13.39154,-29.91084 29.91084,-29.91084z" data-paper-data="{&quot;index&quot;:null}" fill="url(#color-8)" stroke="none" stroke-width="NaN" stroke-linecap="butt"/><path d="M184.62453,206.64288c0,-16.51931 13.39154,-29.91084 29.91084,-29.91084c16.51931,0 29.91084,13.39154 29.91084,29.91084c0,16.51931 -13.39154,29.91084 -29.91084,29.91084c-16.51931,0 -29.91084,-13.39154 -29.91084,-29.91084z" fill="url(#color-9)" stroke="none" stroke-width="NaN" stroke-linecap="butt"/><path d="M214.53537,121.66257c16.51931,0 29.91084,13.39154 29.91084,29.91084c0,16.51931 -13.39154,29.91084 -29.91084,29.91084c-16.51931,0 -29.91084,-13.39154 -29.91084,-29.91084c0,-16.51931 13.39154,-29.91084 29.91084,-29.91084z" data-paper-data="{&quot;index&quot;:null}" fill="url(#color-10)" stroke="none" stroke-width="NaN" stroke-linecap="butt"/><path d="M235.01487,204.48714c0,-16.51931 13.39154,-29.91084 29.91084,-29.91084c16.5193,0 29.91084,13.39154 29.91084,29.91084c0,16.51931 -13.39154,29.91084 -29.91084,29.91084c-16.51931,0 -29.91084,-13.39154 -29.91084,-29.91084z" fill="url(#color-11)" stroke="none" stroke-width="NaN" stroke-linecap="butt"/><path d="M264.92571,123.8183c16.5193,0 29.91084,13.39154 29.91084,29.91085c0,16.51931 -13.39154,29.91084 -29.91084,29.91084c-16.51931,0 -29.91084,-13.39154 -29.91084,-29.91084c0,-16.51931 13.39154,-29.91085 29.91084,-29.91085z" data-paper-data="{&quot;index&quot;:null}" fill="url(#color-12)" stroke="none" stroke-width="NaN" stroke-linecap="butt"/><g><path d="M183.86103,195.37197c0,-9.93915 0,-24.38874 0,-30.14536c0,-4.73309 5.23551,-10.76893 10.5599,-10.76893c12.92105,0 67.82501,0 91.15814,0c6.50796,0 10.5599,4.40639 10.5599,10.40792c0,10.13103 0,24.80755 0,30.50639c0,4.52446 -3.94645,10.17036 -10.5599,10.17036c-23.43454,0 -78.2703,0 -91.15814,0c-5.32439,0 -10.5599,-4.2979 -10.5599,-10.17036z" fill="url(#color-13)" stroke="url(#color-14)" stroke-width="5" stroke-linecap="butt"/><path d="M290.45594,160.44027v9.20608c0,0 -2.09011,-3.77633 -3.65404,-5.37062c-1.53427,-1.56408 -5.64228,-4.10621 -5.64228,-4.10621h9.20606" fill="none" stroke="#b3b3b3" stroke-width="6" stroke-linecap="round"/><path d="M188.91486,200.06385v-9.20606c0,0 2.09012,3.77633 3.65405,5.37062c1.53427,1.56407 5.64228,4.10621 5.64228,4.10621h-9.20608" data-paper-data="{&quot;index&quot;:null}" fill="none" stroke="#1a1a1a" stroke-width="6" stroke-linecap="round"/></g><g stroke-linecap="butt" font-family="Sans Serif" font-weight="normal" font-size="40" text-anchor="start"><text transform="translate(206.44001,144.23262) scale(0.5,0.5)" font-size="40" xml:space="preserve" fill="#00ffff" fill-rule="nonzero" stroke="#000000" stroke-width="10" stroke-linecap="butt" stroke-linejoin="miter" stroke-miterlimit="10" stroke-dasharray="" stroke-dashoffset="0" font-family="Sans Serif" font-weight="normal" text-anchor="start" style="mix-blend-mode: normal"><tspan x="0" dy="0">Master</tspan></text><text transform="translate(206.44001,144.23262) scale(0.5,0.5)" font-size="40" xml:space="preserve" fill="#00ffff" fill-rule="nonzero" stroke="#ffffff" stroke-width="5" stroke-linecap="butt" stroke-linejoin="miter" stroke-miterlimit="10" stroke-dasharray="" stroke-dashoffset="0" font-family="Sans Serif" font-weight="normal" text-anchor="start" style="mix-blend-mode: normal"><tspan x="0" dy="0">Master</tspan></text><text transform="translate(206.44001,144.23262) scale(0.5,0.5)" font-size="40" xml:space="preserve" fill="#800000" fill-rule="nonzero" stroke="none" stroke-width="1" stroke-linecap="butt" stroke-linejoin="miter" stroke-miterlimit="10" stroke-dasharray="" stroke-dashoffset="0" font-family="Sans Serif" font-weight="normal" text-anchor="start" style="mix-blend-mode: normal"><tspan x="0" dy="0">Master</tspan></text></g><g stroke-linecap="butt" font-family="Sans Serif" font-weight="normal" font-size="40" text-anchor="start"><text transform="translate(202.88995,185.1828) scale(0.37576,0.37576)" font-size="40" xml:space="preserve" fill="url(#color-15)" fill-rule="nonzero" stroke="url(#color-16)" stroke-width="15" stroke-linecap="butt" stroke-linejoin="miter" stroke-miterlimit="10" stroke-dasharray="" stroke-dashoffset="0" font-family="Sans Serif" font-weight="normal" text-anchor="start" style="mix-blend-mode: normal"><tspan x="0" dy="0">Ego Death</tspan></text><text transform="translate(202.88995,183.83546) scale(0.37576,0.37576)" font-size="40" xml:space="preserve" fill="url(#color-17)" fill-rule="nonzero" stroke="#000000" stroke-width="10" stroke-linecap="butt" stroke-linejoin="miter" stroke-miterlimit="10" stroke-dasharray="" stroke-dashoffset="0" font-family="Sans Serif" font-weight="normal" text-anchor="start" style="mix-blend-mode: normal"><tspan x="0" dy="0">Ego Death</tspan></text><text transform="translate(202.88995,183.83546) scale(0.37576,0.37576)" font-size="40" xml:space="preserve" fill="url(#color-18)" fill-rule="nonzero" stroke="url(#color-19)" stroke-width="15" stroke-linecap="butt" stroke-linejoin="miter" stroke-miterlimit="10" stroke-dasharray="" stroke-dashoffset="0" font-family="Sans Serif" font-weight="normal" text-anchor="start" style="mix-blend-mode: normal"><tspan x="0" dy="0">Ego Death</tspan></text><text transform="translate(202.88995,185.1828) scale(0.37576,0.37576)" font-size="40" xml:space="preserve" fill="url(#color-20)" fill-rule="nonzero" stroke="#000000" stroke-width="10" stroke-linecap="butt" stroke-linejoin="miter" stroke-miterlimit="10" stroke-dasharray="" stroke-dashoffset="0" font-family="Sans Serif" font-weight="normal" text-anchor="start" style="mix-blend-mode: normal"><tspan x="0" dy="0">Ego Death</tspan></text><text transform="translate(202.88995,183.83546) scale(0.37576,0.37576)" font-size="40" xml:space="preserve" fill="url(#color-21)" fill-rule="nonzero" stroke="#ffffff" stroke-width="5" stroke-linecap="butt" stroke-linejoin="miter" stroke-miterlimit="10" stroke-dasharray="" stroke-dashoffset="0" font-family="Sans Serif" font-weight="normal" text-anchor="start" style="mix-blend-mode: normal"><tspan x="0" dy="0">Ego Death</tspan></text><text transform="translate(202.88995,183.83546) scale(0.37576,0.37576)" font-size="40" xml:space="preserve" fill="url(#color-22)" fill-rule="nonzero" stroke="none" stroke-width="1" stroke-linecap="butt" stroke-linejoin="miter" stroke-miterlimit="10" stroke-dasharray="" stroke-dashoffset="0" font-family="Sans Serif" font-weight="normal" text-anchor="start" style="mix-blend-mode: normal"><tspan x="0" dy="0">Ego Death</tspan></text></g><path d="M203.90175,160.04814c-1.30434,3.05406 -3.44956,5.06525 -4.79149,4.49213c-1.34193,-0.57312 -1.37242,-3.51351 -0.06808,-6.56757c1.30434,-3.05406 3.44957,-5.06525 4.79149,-4.49213c1.34193,0.57312 1.37241,3.51351 0.06807,6.56757z" fill="url(#color-23)" stroke="#b3b3b3" stroke-width="3" stroke-linecap="butt"/><path d="M195.76927,178.35574c-1.30434,3.05406 -3.44956,5.06525 -4.79149,4.49213c-1.34193,-0.57312 -1.37242,-3.51352 -0.06808,-6.56757c1.30434,-3.05406 3.44957,-5.06525 4.79149,-4.49213c1.34193,0.57312 1.37241,3.51352 0.06807,6.56757z" fill="url(#color-24)" stroke="#b3b3b3" stroke-width="3" stroke-linecap="butt"/><path d="M188.51228,196.31312c-1.30434,3.05406 -3.44956,5.06525 -4.79149,4.49213c-1.34193,-0.57312 -1.37241,-3.51351 -0.06808,-6.56757c1.30434,-3.05406 3.44957,-5.06525 4.79149,-4.49213c1.34193,0.57312 1.37241,3.51351 0.06807,6.56757z" fill="url(#color-25)" stroke="#b3b3b3" stroke-width="3" stroke-linecap="butt"/><path d="M189.66008,188.00554c-1.30434,3.05406 -1.52346,5.59054 -2.86539,5.01743c-1.34193,-0.57312 0.72878,-2.28781 2.03312,-5.34187c1.30434,-3.05406 1.17327,-6.29094 2.5152,-5.71783c1.34193,0.57312 -0.37859,2.98822 -1.68292,6.04227z" fill="url(#color-26)" stroke="#b3b3b3" stroke-width="3" stroke-linecap="butt"/><path d="M197.46168,168.66666c-1.30434,3.05406 -1.52347,5.59054 -2.8654,5.01743c-1.34193,-0.57312 0.72878,-2.28781 2.03312,-5.34187c1.30434,-3.05406 1.17327,-6.29094 2.5152,-5.71783c1.34193,0.57312 -0.37858,2.98821 -1.68292,6.04227z" fill="url(#color-27)" stroke="#b3b3b3" stroke-width="3" stroke-linecap="butt"/><path d="M202.39788,156.09622c-1.34193,-0.57312 0.93009,-5.15412 2.27202,-4.58101c1.34193,0.57312 -0.93009,5.15412 -2.27202,4.58101z" fill="url(#color-28)" stroke="#b3b3b3" stroke-width="3" stroke-linecap="butt"/><path d="M182.00841,203.12017c-1.34193,-0.57312 0.93009,-5.15412 2.27202,-4.58101c1.34193,0.57312 -0.93009,5.15412 -2.27202,4.58101z" fill="url(#color-29)" stroke="#b3b3b3" stroke-width="3" stroke-linecap="butt"/><path d="M284.42812,201.52155c-1.56633,-2.92834 -1.79301,-5.86014 -0.50632,-6.54838c1.28668,-0.68823 3.59951,1.12772 5.16584,4.05607c1.56632,2.92835 1.793,5.86014 0.50631,6.54838c-1.28669,0.68824 -3.59951,-1.12772 -5.16584,-4.05607z" data-paper-data="{&quot;index&quot;:null}" fill="url(#color-30)" stroke="#b3b3b3" stroke-width="3" stroke-linecap="butt"/><path d="M274.44282,184.61996c-1.56633,-2.92835 -1.79301,-5.86014 -0.50632,-6.54838c1.28668,-0.68823 3.59951,1.12772 5.16584,4.05607c1.56632,2.92835 1.793,5.86015 0.50631,6.54838c-1.28669,0.68823 -3.59951,-1.12772 -5.16584,-4.05607z" data-paper-data="{&quot;index&quot;:null}" fill="url(#color-31)" stroke="#b3b3b3" stroke-width="3" stroke-linecap="butt"/><path d="M264.45752,167.71836c-1.56633,-2.92835 -1.79301,-5.86015 -0.50632,-6.54838c1.28668,-0.68823 3.59951,1.12772 5.16584,4.05607c1.56632,2.92835 1.793,5.86015 0.50631,6.54838c-1.28669,0.68823 -3.59951,-1.12772 -5.16584,-4.05607z" data-paper-data="{&quot;index&quot;:null}" fill="url(#color-32)" stroke="#b3b3b3" stroke-width="3" stroke-linecap="butt"/><path d="M281.5201,192.51969c-1.81486,-2.78114 -3.92864,-4.86077 -2.70662,-5.65822c1.22202,-0.79744 1.65504,2.41303 3.46992,5.19418c1.81488,2.78115 4.15189,4.1102 2.92987,4.90765c-1.22202,0.79744 -1.87828,-1.66246 -3.69316,-4.44361z" data-paper-data="{&quot;index&quot;:null}" fill="url(#color-33)" stroke="#b3b3b3" stroke-width="3" stroke-linecap="butt"/><path d="M271.5348,175.90628c-1.81486,-2.78115 -3.92863,-4.86077 -2.70662,-5.65822c1.22202,-0.79744 1.65504,2.41303 3.46991,5.19418c1.81487,2.78116 4.15188,4.1102 2.92987,4.90765c-1.22202,0.79744 -1.87828,-1.66245 -3.69315,-4.44361z" data-paper-data="{&quot;index&quot;:null}" fill="url(#color-34)" stroke="#b3b3b3" stroke-width="3" stroke-linecap="butt"/><path d="M261.26132,158.14015c-1.81486,-2.78115 -3.92864,-4.86077 -2.70662,-5.65822c1.22202,-0.79744 1.65504,2.41303 3.46992,5.19418c1.81487,2.78116 4.15188,4.1102 2.92987,4.90765c-1.22202,0.79744 -1.87828,-1.66245 -3.69315,-4.44361z" data-paper-data="{&quot;index&quot;:null}" fill="url(#color-35)" stroke="#b3b3b3" stroke-width="3" stroke-linecap="butt"/><path d="M288.99709,203.99823c1.33604,-0.58671 3.65448,3.97097 2.31844,4.55769c-1.33604,0.58671 -3.65448,-3.97097 -2.31844,-4.55769z" data-paper-data="{&quot;index&quot;:null}" fill="url(#color-36)" stroke="#b3b3b3" stroke-width="3" stroke-linecap="butt"/></g></g></svg>