<svg version="1.1" xmlns="http://www.w3.org/2000/svg" xmlns:xlink="http://www.w3.org/1999/xlink" width="91.30511" height="231.91722" viewBox="0,0,91.30511,231.91722"><g transform="translate(-244.59478,-26.76924)"><g data-paper-data="{&quot;isPaintingLayer&quot;:true}" fill-rule="nonzero" stroke-linejoin="miter" stroke-miterlimit="10" stroke-dasharray="" stroke-dashoffset="0" style="mix-blend-mode: normal"><g fill="none" stroke-linecap="round"><path d="M249.59478,213.25032l0.68221,31.48485" stroke="#282828" stroke-width="10"/><path d="M249.59478,213.25032l0.68221,31.48485" stroke="#414141" stroke-width="6"/></g><g fill="none" stroke-linecap="round"><path d="M298.24574,232.12691l-23.47202,21.55955" stroke="#282828" stroke-width="10"/><path d="M298.24574,232.12691l-23.47202,21.55955" stroke="#414141" stroke-width="6"/></g><path d="M304.92805,65.24863l-7.50755,-28.5287l28.5287,-7.50755l7.50755,28.5287z" fill="#4d4d4d" stroke="#1a1a1a" stroke-width="4" stroke-linecap="butt"/><path d="M310.10528,47.51403c0,-2.76143 2.23858,-5 5,-5c2.76142,0 5,2.23857 5,5c0,2.76143 -2.23858,5 -5,5c-2.76142,0 -5,-2.23857 -5,-5z" fill="#000000" stroke="#1a1a1a" stroke-width="4" stroke-linecap="butt"/><path d="M305.10528,64.81383l5.66666,-13" fill="none" stroke="#1a1a1a" stroke-width="4" stroke-linecap="round"/><path d="M320.77198,50.14716l12.66667,7.33334" fill="none" stroke="#1a1a1a" stroke-width="4" stroke-linecap="round"/><path d="M297.77198,37.14716l12.33334,7.66667" fill="none" stroke="#1a1a1a" stroke-width="4" stroke-linecap="round"/><path d="M324.77198,30.14716l-7,12.66667" fill="none" stroke="#1a1a1a" stroke-width="4" stroke-linecap="round"/><path d="M316.98158,53.91204c1.64271,-0.32267 3.71795,-2.67692 3.71795,-2.67692l9.66667,5.94872l-22.30769,5.65128l4.1641,-9.66667c0,0 3.11627,1.06626 4.75897,0.74359z" fill="#2a2a2a" stroke="none" stroke-width="0" stroke-linecap="round"/><path d="M308.34041,48.60434c0.20696,1.0536 0.96692,2.25962 0.96692,2.25962l-3.81538,8.575l-5.12462,-18.30769l8.2,4.42077c0,0 -0.43388,1.99871 -0.22692,3.05231z" fill="#2a2a2a" stroke="none" stroke-width="0" stroke-linecap="round"/></g></g></svg>