<svg version="1.1" xmlns="http://www.w3.org/2000/svg" xmlns:xlink="http://www.w3.org/1999/xlink" width="316" height="316" viewBox="0,0,316,316"><g transform="translate(-82,-22)"><g data-paper-data="{&quot;isPaintingLayer&quot;:true}" fill-rule="nonzero" stroke-linejoin="miter" stroke-miterlimit="10" stroke-dasharray="" stroke-dashoffset="0" style="mix-blend-mode: normal"><path d="M90,330v-300h300v300z" fill="#805100" stroke="#402800" stroke-width="16" stroke-linecap="butt"/><text transform="translate(109.96547,65.84402) scale(0.61106,0.61106)" font-size="40" xml:space="preserve" fill="#ffffff" fill-rule="nonzero" stroke="none" stroke-width="1" stroke-linecap="butt" stroke-linejoin="miter" stroke-miterlimit="10" stroke-dasharray="" stroke-dashoffset="0" font-family="Sans Serif" font-weight="normal" text-anchor="start" style="mix-blend-mode: normal"><tspan x="0" dy="0">As the skeleton guard,</tspan></text><path d="M176.5,237v-126h126v126z" fill="#342400" stroke="#402800" stroke-width="8" stroke-linecap="butt"/><path d="M298.61798,218.21476l-36.12904,15.0634l-82.29717,-0.05148l-0.44173,-89.71995c0,0 8.42874,-2.95865 12.14241,-5.24185c12.46115,-7.66124 28.42142,-12.80907 40.66833,-23.5334c0.77937,-0.68247 66.07088,-0.62244 66.07088,-0.62244z" fill="#4c3500" stroke="none" stroke-width="0" stroke-linecap="butt"/><g><path d="M245.1551,169.95712l16.48926,14.80743l-14.99253,16.69538l-16.48926,-14.80743z" fill="#d8d8d8" stroke="#6c6c6c" stroke-width="5" stroke-linecap="butt"/><path d="M255.27252,183.11349l-4.8954,5.59401l-0.81941,-10.61716z" fill="#ffffff" stroke="#ffffff" stroke-width="2" stroke-linecap="round"/><path d="M267.58115,178.92592c1.96881,1.768 4.62574,4.15393 5.77124,5.1826c1.06302,0.9546 1.58888,3.20607 0.62246,4.28227c-2.85105,3.17487 -17.15427,19.10265 -22.3037,24.83695c-1.1562,1.28752 -3.2613,0.79463 -4.32432,-0.15995c-1.186,-1.06503 -3.99216,-3.58497 -5.97736,-5.36769c-1.24304,-1.11626 -1.43217,-2.75867 -0.22074,-4.1077c5.20119,-5.79194 19.23922,-21.42441 22.11861,-24.63083c1.00892,-1.12351 2.96785,-1.24433 4.31381,-0.03565z" fill="#d8d8d8" stroke="#6c6c6c" stroke-width="5" stroke-linecap="butt"/><path d="M271.48036,186.62384l-4.39894,4.77042l-0.58972,-9.1553z" fill="#ffffff" stroke="#ffffff" stroke-width="2" stroke-linecap="round"/><path d="M248.00022,200.57103l0.28017,9.13868l-4.59475,-4.23694z" data-paper-data="{&quot;index&quot;:null}" fill="#b3b3b3" stroke="#b3b3b3" stroke-width="2" stroke-linecap="round"/><path d="M237.6303,189.34466c0,0 2.0975,-1.07173 2.9888,-1.71429c0.91693,-0.66105 2.58191,-2.06894 2.58191,-2.06894l0.3599,9.00016z" data-paper-data="{&quot;index&quot;:null}" fill="#b3b3b3" stroke="#b3b3b3" stroke-width="2" stroke-linecap="round"/><path d="M266.83126,199.87601l-0.34726,-6.46204l6.10989,-6.90031l-6.99133,-6.105l-0.15842,-4.64664c0,0 1.91196,0.04151 2.77445,0.6724c0.8625,0.6309 4.72436,4.03081 7.62939,6.93785c1.39903,1.35316 0.96423,5.24632 0.49505,5.81516c-0.46918,0.56884 -9.51178,10.68858 -9.51178,10.68858z" fill="#929292" stroke="none" stroke-width="0" stroke-linecap="round"/><path d="M248.31559,192.13512l0.48623,6.50021l-6.10989,6.90032l6.43057,5.8613l0.21616,4.87173c0,0 -1.87869,-0.27149 -2.74118,-0.90239c-0.86248,-0.6309 -4.6764,-3.98775 -7.58144,-6.89478c-1.39903,-1.35316 -0.76753,-4.98305 -0.29835,-5.55189c0.46918,-0.56884 9.5979,-10.78449 9.5979,-10.78449z" data-paper-data="{&quot;index&quot;:null}" fill="#444444" stroke="none" stroke-width="0" stroke-linecap="round"/><path d="M244.55947,196.41432l-3.14351,3.50055l-9.82544,-8.73666l4.72595,-2.07952z" fill="#444444" stroke="none" stroke-width="0" stroke-linecap="round"/><path d="M196.55573,193.22824l51.67422,-57.54338l57.54338,51.67422l-51.67422,57.54338z" fill="none" stroke="none" stroke-width="NaN" stroke-linecap="butt"/><path d="M211.22785,154.04283c7.51592,-8.58962 20.57204,-9.46003 29.16166,-1.94411c8.58962,7.51592 9.46003,20.57204 1.94411,29.16166c-7.51592,8.58962 -20.57204,9.46003 -29.16166,1.94411c-8.58962,-7.51592 -9.46003,-20.57204 -1.94411,-29.16166z" fill="#d8d8d8" stroke="#6c6c6c" stroke-width="6" stroke-linecap="butt"/><path d="M227.17751,182.49388c-7.08165,0.47211 -7.77291,-5.27405 -7.77291,-5.27405l14.59673,-0.97312c0,0 0.43804,5.76304 -6.82382,6.24716z" data-paper-data="{&quot;index&quot;:null}" fill="#6c6c6c" stroke="none" stroke-width="0" stroke-linecap="round"/><path d="M243.64667,164.44507c0.29907,1.30534 0.3031,3.1629 0.29833,4.1909c-0.00948,2.04516 -1.65849,5.6398 -1.65849,5.6398l-4.29307,-19.22761c0,0 2.26844,1.93218 3.00758,3.00263c0.78102,1.13112 2.38402,5.25233 2.64565,6.39429z" fill="#ffffff" stroke="#ffffff" stroke-width="1.5" stroke-linecap="round"/><path d="M236.45448,173.44314l-0.97312,-14.59673c0,0 5.78707,-0.07763 6.25918,7.00402c0.48412,7.26186 -5.28606,7.5927 -5.28606,7.5927z" data-paper-data="{&quot;index&quot;:null}" fill="#6c6c6c" stroke="none" stroke-width="0" stroke-linecap="round"/><path d="M209.78794,170.95642c-0.29907,-1.30534 -0.3031,-3.16289 -0.29833,-4.19089c0.00948,-2.04516 1.6585,-5.6398 1.6585,-5.6398l4.29307,19.22761c0,0 -2.26844,-1.93218 -3.00758,-3.00263c-0.78102,-1.13112 -2.38403,-5.25233 -2.64566,-6.39428z" data-paper-data="{&quot;index&quot;:null}" fill="#b3b3b3" stroke="#b3b3b3" stroke-width="1.5" stroke-linecap="round"/><path d="M216.43222,182.23571l1.13867,7.18239c0,0 -11.69402,-4.184 -14.01427,-17.07023c-2.49797,-13.87333 6.24517,-21.13549 6.24517,-21.13549l1.57662,7.81304c0,0 -3.27093,4.6452 -2.47004,11.44803c0.81301,6.90579 7.52384,11.76227 7.52384,11.76227z" fill="#444444" stroke="#000000" stroke-width="0" stroke-linecap="round"/><path d="M236.5921,152.95053l-1.01605,-7.32253c0,0 12.16701,4.35043 14.48725,17.23666c2.49798,13.87334 -6.42911,21.34571 -6.42911,21.34571l-1.56786,-7.68165c0,0 3.1921,-4.8379 2.39121,-11.64073c-0.81301,-6.90579 -7.86544,-11.93746 -7.86544,-11.93746z" data-paper-data="{&quot;index&quot;:null}" fill="#919191" stroke="#000000" stroke-width="0" stroke-linecap="round"/><path d="M174.22668,171.15522l49.05046,-56.05767l56.05767,49.05046l-49.05046,56.05767z" fill="none" stroke="none" stroke-width="NaN" stroke-linecap="butt"/></g><text transform="translate(105.5,270.44596) scale(0.42933,0.42933)" font-size="40" xml:space="preserve" fill="#ffffff" fill-rule="nonzero" stroke="none" stroke-width="1" stroke-linecap="butt" stroke-linejoin="miter" stroke-miterlimit="10" stroke-dasharray="" stroke-dashoffset="0" font-family="Sans Serif" font-weight="normal" text-anchor="start" style="mix-blend-mode: normal"><tspan x="0" dy="0">Your job is to stop the phantoms</tspan><tspan x="0" dy="46.15px">  from stealing all the pumpkins</tspan><tspan x="0" dy="46.15px">         for Scratchtober 2023!</tspan></text></g></g></svg>