<svg version="1.1" xmlns="http://www.w3.org/2000/svg" xmlns:xlink="http://www.w3.org/1999/xlink" width="168.68636" height="114.89115" viewBox="0,0,168.68636,114.89115"><defs><radialGradient cx="290.92928" cy="159.98868" r="29.91084" gradientUnits="userSpaceOnUse" id="color-1"><stop offset="0" stop-color="#800000"/><stop offset="1" stop-color="#800000" stop-opacity="0"/></radialGradient><radialGradient cx="294.43235" cy="181.27655" r="29.91084" gradientUnits="userSpaceOnUse" id="color-2"><stop offset="0" stop-color="#800000"/><stop offset="1" stop-color="#800000" stop-opacity="0"/></radialGradient><radialGradient cx="185.56767" cy="181.27655" r="29.91084" gradientUnits="userSpaceOnUse" id="color-3"><stop offset="0" stop-color="#800000"/><stop offset="1" stop-color="#800000" stop-opacity="0"/></radialGradient><radialGradient cx="290.92928" cy="200.94768" r="29.91084" gradientUnits="userSpaceOnUse" id="color-4"><stop offset="0" stop-color="#800000"/><stop offset="1" stop-color="#800000" stop-opacity="0"/></radialGradient><radialGradient cx="187.03488" cy="159.83907" r="29.91084" gradientUnits="userSpaceOnUse" id="color-5"><stop offset="0" stop-color="#800000"/><stop offset="1" stop-color="#800000" stop-opacity="0"/></radialGradient><radialGradient cx="187.30434" cy="202.14542" r="29.91085" gradientUnits="userSpaceOnUse" id="color-6"><stop offset="0" stop-color="#800000"/><stop offset="1" stop-color="#800000" stop-opacity="0"/></radialGradient><radialGradient cx="239.31148" cy="204.0317" r="29.91084" gradientUnits="userSpaceOnUse" id="color-7"><stop offset="0" stop-color="#800000"/><stop offset="1" stop-color="#800000" stop-opacity="0"/></radialGradient><radialGradient cx="239.31148" cy="155.96835" r="29.91084" gradientUnits="userSpaceOnUse" id="color-8"><stop offset="0" stop-color="#800000"/><stop offset="1" stop-color="#800000" stop-opacity="0"/></radialGradient><radialGradient cx="213.98158" cy="207.53477" r="29.91084" gradientUnits="userSpaceOnUse" id="color-9"><stop offset="0" stop-color="#800000"/><stop offset="1" stop-color="#800000" stop-opacity="0"/></radialGradient><radialGradient cx="213.98158" cy="152.46526" r="29.91084" gradientUnits="userSpaceOnUse" id="color-10"><stop offset="0" stop-color="#800000"/><stop offset="1" stop-color="#800000" stop-opacity="0"/></radialGradient><radialGradient cx="264.37191" cy="205.37901" r="29.91084" gradientUnits="userSpaceOnUse" id="color-11"><stop offset="0" stop-color="#800000"/><stop offset="1" stop-color="#800000" stop-opacity="0"/></radialGradient><radialGradient cx="264.37191" cy="154.62102" r="29.91084" gradientUnits="userSpaceOnUse" id="color-12"><stop offset="0" stop-color="#800000"/><stop offset="1" stop-color="#800000" stop-opacity="0"/></radialGradient><linearGradient x1="239.44621" y1="155.34949" x2="239.44621" y2="206.43422" gradientUnits="userSpaceOnUse" id="color-13"><stop offset="0" stop-color="#9a9a9a"/><stop offset="1" stop-color="#343434"/></linearGradient><linearGradient x1="239.44621" y1="155.34954" x2="239.44621" y2="206.43424" gradientUnits="userSpaceOnUse" id="color-14"><stop offset="0" stop-color="#1b1b1b"/><stop offset="1" stop-color="#000000"/></linearGradient><radialGradient cx="200.91818" cy="159.90229" r="6.01306" gradientUnits="userSpaceOnUse" id="color-15"><stop offset="0" stop-color="#000000" stop-opacity="0"/><stop offset="1" stop-color="#000000" stop-opacity="0"/></radialGradient><radialGradient cx="192.78569" cy="178.20991" r="6.01306" gradientUnits="userSpaceOnUse" id="color-16"><stop offset="0" stop-color="#000000" stop-opacity="0"/><stop offset="1" stop-color="#000000" stop-opacity="0"/></radialGradient><radialGradient cx="185.52871" cy="196.16729" r="6.01306" gradientUnits="userSpaceOnUse" id="color-17"><stop offset="0" stop-color="#000000" stop-opacity="0"/><stop offset="1" stop-color="#000000" stop-opacity="0"/></radialGradient><radialGradient cx="188.60261" cy="188.385" r="6.01306" gradientUnits="userSpaceOnUse" id="color-18"><stop offset="0" stop-color="#000000" stop-opacity="0"/><stop offset="1" stop-color="#000000" stop-opacity="0"/></radialGradient><radialGradient cx="196.4042" cy="169.04613" r="6.01306" gradientUnits="userSpaceOnUse" id="color-19"><stop offset="0" stop-color="#000000" stop-opacity="0"/><stop offset="1" stop-color="#000000" stop-opacity="0"/></radialGradient><radialGradient cx="204.2058" cy="151.45824" r="6.01306" gradientUnits="userSpaceOnUse" id="color-20"><stop offset="0" stop-color="#000000" stop-opacity="0"/><stop offset="1" stop-color="#000000" stop-opacity="0"/></radialGradient><radialGradient cx="183.81632" cy="198.4822" r="6.01306" gradientUnits="userSpaceOnUse" id="color-21"><stop offset="0" stop-color="#000000" stop-opacity="0"/><stop offset="1" stop-color="#000000" stop-opacity="0"/></radialGradient><radialGradient cx="261.11457" cy="158.43991" r="6.01306" gradientUnits="userSpaceOnUse" id="color-22"><stop offset="0" stop-color="#000000" stop-opacity="0"/><stop offset="1" stop-color="#000000" stop-opacity="0"/></radialGradient><radialGradient cx="266.23348" cy="167.36408" r="6.01306" gradientUnits="userSpaceOnUse" id="color-23"><stop offset="0" stop-color="#000000" stop-opacity="0"/><stop offset="1" stop-color="#000000" stop-opacity="0"/></radialGradient><radialGradient cx="281.37335" cy="192.81944" r="6.01306" gradientUnits="userSpaceOnUse" id="color-24"><stop offset="0" stop-color="#000000" stop-opacity="0"/><stop offset="1" stop-color="#000000" stop-opacity="0"/></radialGradient><radialGradient cx="286.20407" cy="201.16729" r="6.01306" gradientUnits="userSpaceOnUse" id="color-25"><stop offset="0" stop-color="#000000" stop-opacity="0"/><stop offset="1" stop-color="#000000" stop-opacity="0"/></radialGradient><radialGradient cx="288.34398" cy="203.94221" r="6.01306" gradientUnits="userSpaceOnUse" id="color-26"><stop offset="0" stop-color="#000000" stop-opacity="0"/><stop offset="1" stop-color="#000000" stop-opacity="0"/></radialGradient><linearGradient x1="208.89771" y1="174.96862" x2="208.89771" y2="186.18522" gradientTransform="translate(-819.79245,-754.50564) scale(4.11438,4.11438)" gradientUnits="userSpaceOnUse" id="color-27"><stop offset="0" stop-color="#ff9500"/><stop offset="1" stop-color="#9465ff"/></linearGradient><linearGradient x1="208.89771" y1="174.96862" x2="208.89771" y2="186.18522" gradientTransform="translate(-819.79245,-754.50564) scale(4.11438,4.11438)" gradientUnits="userSpaceOnUse" id="color-28"><stop offset="0" stop-color="#bfbfbf"/><stop offset="1" stop-color="#bf0000"/></linearGradient><linearGradient x1="208.89771" y1="174.03662" x2="208.89771" y2="185.25323" gradientTransform="translate(-819.79245,-750.67108) scale(4.11438,4.11438)" gradientUnits="userSpaceOnUse" id="color-29"><stop offset="0" stop-color="#ff9500"/><stop offset="1" stop-color="#9465ff"/></linearGradient><linearGradient x1="208.89771" y1="174.03662" x2="208.89771" y2="185.25323" gradientTransform="translate(-819.79245,-750.67108) scale(4.11438,4.11438)" gradientUnits="userSpaceOnUse" id="color-30"><stop offset="0" stop-color="#bfbfbf"/><stop offset="1" stop-color="#bf0000"/></linearGradient><linearGradient x1="208.89771" y1="174.96862" x2="208.89771" y2="186.18522" gradientTransform="translate(-819.79245,-754.50564) scale(4.11438,4.11438)" gradientUnits="userSpaceOnUse" id="color-31"><stop offset="0" stop-color="#ff9500"/><stop offset="1" stop-color="#9465ff"/></linearGradient><linearGradient x1="208.89771" y1="174.03662" x2="208.89771" y2="185.25322" gradientTransform="translate(-819.79245,-750.67108) scale(4.11438,4.11438)" gradientUnits="userSpaceOnUse" id="color-32"><stop offset="0" stop-color="#ff9500"/><stop offset="1" stop-color="#9465ff"/></linearGradient><linearGradient x1="206.37001" y1="174.03663" x2="206.37001" y2="185.25323" gradientTransform="translate(-809.39253,-750.67108) scale(4.11438,4.11438)" gradientUnits="userSpaceOnUse" id="color-33"><stop offset="0" stop-color="#ff9500"/><stop offset="1" stop-color="#9465ff"/></linearGradient><linearGradient x1="208.89771" y1="174.03663" x2="208.89771" y2="185.25323" gradientTransform="translate(-819.79245,-750.67108) scale(4.11438,4.11438)" gradientUnits="userSpaceOnUse" id="color-34"><stop offset="0" stop-color="#bf0000"/><stop offset="1" stop-color="#c1c1c1"/></linearGradient><radialGradient cx="271.38805" cy="176.20606" r="6.01306" gradientUnits="userSpaceOnUse" id="color-35"><stop offset="0" stop-color="#000000" stop-opacity="0"/><stop offset="1" stop-color="#000000" stop-opacity="0"/></radialGradient><radialGradient cx="276.21877" cy="184.26565" r="6.01306" gradientUnits="userSpaceOnUse" id="color-36"><stop offset="0" stop-color="#000000" stop-opacity="0"/><stop offset="1" stop-color="#000000" stop-opacity="0"/></radialGradient><radialGradient cx="186.52415" cy="178.28351" r="6.01306" gradientUnits="userSpaceOnUse" id="color-37"><stop offset="0" stop-color="#000000" stop-opacity="0"/><stop offset="1" stop-color="#000000" stop-opacity="0"/></radialGradient><radialGradient cx="203.33948" cy="185.30076" r="6.01306" gradientUnits="userSpaceOnUse" id="color-38"><stop offset="0" stop-color="#000000" stop-opacity="0"/><stop offset="1" stop-color="#000000" stop-opacity="0"/></radialGradient><radialGradient cx="221.59571" cy="190.58894" r="6.01306" gradientUnits="userSpaceOnUse" id="color-39"><stop offset="0" stop-color="#000000" stop-opacity="0"/><stop offset="1" stop-color="#000000" stop-opacity="0"/></radialGradient><radialGradient cx="259.15992" cy="190.6899" r="6.01306" gradientUnits="userSpaceOnUse" id="color-40"><stop offset="0" stop-color="#000000" stop-opacity="0"/><stop offset="1" stop-color="#000000" stop-opacity="0"/></radialGradient><radialGradient cx="239.85194" cy="192.41897" r="6.01306" gradientUnits="userSpaceOnUse" id="color-41"><stop offset="0" stop-color="#000000" stop-opacity="0"/><stop offset="1" stop-color="#000000" stop-opacity="0"/></radialGradient><radialGradient cx="275.19698" cy="184.82536" r="6.01306" gradientUnits="userSpaceOnUse" id="color-42"><stop offset="0" stop-color="#000000" stop-opacity="0"/><stop offset="1" stop-color="#000000" stop-opacity="0"/></radialGradient><radialGradient cx="290.94586" cy="178.09629" r="6.01306" gradientUnits="userSpaceOnUse" id="color-43"><stop offset="0" stop-color="#000000" stop-opacity="0"/><stop offset="1" stop-color="#000000" stop-opacity="0"/></radialGradient><radialGradient cx="178.35491" cy="175.50434" r="6.01306" gradientUnits="userSpaceOnUse" id="color-44"><stop offset="0" stop-color="#000000" stop-opacity="0"/><stop offset="1" stop-color="#000000" stop-opacity="0"/></radialGradient><radialGradient cx="300.38494" cy="174.47151" r="6.01306" gradientUnits="userSpaceOnUse" id="color-45"><stop offset="0" stop-color="#000000" stop-opacity="0"/><stop offset="1" stop-color="#000000" stop-opacity="0"/></radialGradient><radialGradient cx="283.05932" cy="182.06738" r="6.01306" gradientUnits="userSpaceOnUse" id="color-46"><stop offset="0" stop-color="#000000" stop-opacity="0"/><stop offset="1" stop-color="#000000" stop-opacity="0"/></radialGradient><radialGradient cx="267.77386" cy="187.98244" r="6.01306" gradientUnits="userSpaceOnUse" id="color-47"><stop offset="0" stop-color="#000000" stop-opacity="0"/><stop offset="1" stop-color="#000000" stop-opacity="0"/></radialGradient><radialGradient cx="249.74818" cy="192.07187" r="6.01306" gradientUnits="userSpaceOnUse" id="color-48"><stop offset="0" stop-color="#000000" stop-opacity="0"/><stop offset="1" stop-color="#000000" stop-opacity="0"/></radialGradient><radialGradient cx="230.38402" cy="191.77029" r="6.01306" gradientUnits="userSpaceOnUse" id="color-49"><stop offset="0" stop-color="#000000" stop-opacity="0"/><stop offset="1" stop-color="#000000" stop-opacity="0"/></radialGradient><radialGradient cx="211.80423" cy="188.1723" r="6.01306" gradientUnits="userSpaceOnUse" id="color-50"><stop offset="0" stop-color="#000000" stop-opacity="0"/><stop offset="1" stop-color="#000000" stop-opacity="0"/></radialGradient><radialGradient cx="194.86666" cy="182.0207" r="6.01307" gradientUnits="userSpaceOnUse" id="color-51"><stop offset="0" stop-color="#000000" stop-opacity="0"/><stop offset="1" stop-color="#000000" stop-opacity="0"/></radialGradient><linearGradient x1="239.9012" y1="192.52573" x2="239.9012" y2="209.16173" gradientUnits="userSpaceOnUse" id="color-52"><stop offset="0" stop-color="#ffc500"/><stop offset="1" stop-color="#987500"/></linearGradient></defs><g transform="translate(-155.65682,-122.55445)"><g data-paper-data="{&quot;isPaintingLayer&quot;:true}" fill-rule="nonzero" stroke-linejoin="miter" stroke-miterlimit="10" stroke-dasharray="" stroke-dashoffset="0" style="mix-blend-mode: normal"><path d="M261.01843,159.98868c0,-16.51931 13.39154,-29.91084 29.91084,-29.91084c16.5193,0 29.91084,13.39154 29.91084,29.91084c0,16.51931 -13.39154,29.91084 -29.91084,29.91084c-16.5193,0 -29.91084,-13.39154 -29.91084,-29.91084z" fill="url(#color-1)" stroke="none" stroke-width="NaN" stroke-linecap="butt"/><path d="M264.5215,181.27655c0,-16.51931 13.39154,-29.91084 29.91084,-29.91084c16.5193,0 29.91084,13.39154 29.91084,29.91084c0,16.51931 -13.39153,29.91084 -29.91084,29.91084c-16.5193,0 -29.91084,-13.39154 -29.91084,-29.91084z" fill="url(#color-2)" stroke="none" stroke-width="NaN" stroke-linecap="butt"/><path d="M155.65682,181.27655c0,-16.51931 13.39154,-29.91084 29.91084,-29.91084c16.51931,0 29.91084,13.39154 29.91084,29.91084c0,16.51931 -13.39154,29.91084 -29.91084,29.91084c-16.51931,0 -29.91084,-13.39154 -29.91084,-29.91084z" fill="url(#color-3)" stroke="none" stroke-width="NaN" stroke-linecap="butt"/><path d="M261.01843,200.94768c0,-16.51931 13.39154,-29.91084 29.91084,-29.91084c16.5193,0 29.91084,13.39154 29.91084,29.91084c0,16.51931 -13.39154,29.91084 -29.91084,29.91084c-16.5193,0 -29.91084,-13.39154 -29.91084,-29.91084z" fill="url(#color-4)" stroke="none" stroke-width="NaN" stroke-linecap="butt"/><path d="M157.12403,159.83907c0,-16.51931 13.39154,-29.91085 29.91084,-29.91085c16.51931,0 29.91084,13.39154 29.91084,29.91085c0,16.51931 -13.39154,29.91084 -29.91084,29.91084c-16.51931,0 -29.91084,-13.39153 -29.91084,-29.91084z" fill="url(#color-5)" stroke="none" stroke-width="NaN" stroke-linecap="butt"/><path d="M157.3935,202.14542c0,-16.51931 13.39154,-29.91084 29.91084,-29.91084c16.51931,0 29.91085,13.39154 29.91085,29.91084c0,16.51931 -13.39154,29.91084 -29.91085,29.91084c-16.51931,0 -29.91084,-13.39154 -29.91084,-29.91084z" fill="url(#color-6)" stroke="none" stroke-width="NaN" stroke-linecap="butt"/><path d="M209.40064,204.0317c0,-16.51931 13.39154,-29.91084 29.91084,-29.91084c16.5193,0 29.91084,13.39154 29.91084,29.91084c0,16.51931 -13.39154,29.91084 -29.91084,29.91084c-16.51931,0 -29.91084,-13.39154 -29.91084,-29.91084z" fill="url(#color-7)" stroke="none" stroke-width="NaN" stroke-linecap="butt"/><path d="M239.31148,126.05752c16.5193,0 29.91084,13.39154 29.91084,29.91084c0,16.51931 -13.39154,29.91084 -29.91084,29.91084c-16.51931,0 -29.91084,-13.39154 -29.91084,-29.91084c0,-16.51931 13.39154,-29.91084 29.91084,-29.91084z" data-paper-data="{&quot;index&quot;:null}" fill="url(#color-8)" stroke="none" stroke-width="NaN" stroke-linecap="butt"/><path d="M184.07074,207.53477c0,-16.51931 13.39154,-29.91084 29.91084,-29.91084c16.51931,0 29.91084,13.39154 29.91084,29.91084c0,16.51931 -13.39154,29.91084 -29.91084,29.91084c-16.51931,0 -29.91084,-13.39154 -29.91084,-29.91084z" fill="url(#color-9)" stroke="none" stroke-width="NaN" stroke-linecap="butt"/><path d="M213.98158,122.55446c16.51931,0 29.91084,13.39154 29.91084,29.91084c0,16.51931 -13.39154,29.91084 -29.91084,29.91084c-16.51931,0 -29.91084,-13.39154 -29.91084,-29.91084c0,-16.51931 13.39154,-29.91084 29.91084,-29.91084z" data-paper-data="{&quot;index&quot;:null}" fill="url(#color-10)" stroke="none" stroke-width="NaN" stroke-linecap="butt"/><path d="M234.46108,205.37901c0,-16.51931 13.39154,-29.91084 29.91084,-29.91084c16.5193,0 29.91084,13.39154 29.91084,29.91084c0,16.51931 -13.39154,29.91084 -29.91084,29.91084c-16.51931,0 -29.91084,-13.39154 -29.91084,-29.91084z" fill="url(#color-11)" stroke="none" stroke-width="NaN" stroke-linecap="butt"/><path d="M264.37191,124.71018c16.5193,0 29.91084,13.39154 29.91084,29.91085c0,16.51931 -13.39154,29.91084 -29.91084,29.91084c-16.51931,0 -29.91084,-13.39154 -29.91084,-29.91084c0,-16.51931 13.39154,-29.91085 29.91084,-29.91085z" data-paper-data="{&quot;index&quot;:null}" fill="url(#color-12)" stroke="none" stroke-width="NaN" stroke-linecap="butt"/><g><path d="M183.30724,196.26385c0,-9.93915 0,-24.38874 0,-30.14536c0,-4.73309 5.23551,-10.76893 10.5599,-10.76893c12.92105,0 67.82501,0 91.15814,0c6.50796,0 10.5599,4.40639 10.5599,10.40792c0,10.13103 0,24.80755 0,30.50639c0,4.52446 -3.94645,10.17036 -10.5599,10.17036c-23.43454,0 -78.2703,0 -91.15814,0c-5.32439,0 -10.5599,-4.2979 -10.5599,-10.17036z" fill="url(#color-13)" stroke="url(#color-14)" stroke-width="5" stroke-linecap="butt"/><path d="M289.90214,161.33215v9.20608c0,0 -2.09011,-3.77633 -3.65404,-5.37062c-1.53427,-1.56408 -5.64228,-4.10621 -5.64228,-4.10621h9.20606" fill="none" stroke="#b3b3b3" stroke-width="6" stroke-linecap="round"/><path d="M188.36107,200.95574v-9.20606c0,0 2.09012,3.77633 3.65405,5.37062c1.53427,1.56407 5.64228,4.10621 5.64228,4.10621h-9.20608" data-paper-data="{&quot;index&quot;:null}" fill="none" stroke="#1a1a1a" stroke-width="6" stroke-linecap="round"/></g><path d="M203.34796,160.94c-1.30434,3.05406 -3.44956,5.06525 -4.79149,4.49213c-1.34193,-0.57312 -1.37242,-3.51351 -0.06808,-6.56757c1.30434,-3.05406 3.44957,-5.06525 4.79149,-4.49213c1.34193,0.57312 1.37241,3.51351 0.06807,6.56757z" fill="url(#color-15)" stroke="#b3b3b3" stroke-width="3" stroke-linecap="butt"/><path d="M195.21548,179.24763c-1.30434,3.05406 -3.44956,5.06525 -4.79149,4.49213c-1.34193,-0.57312 -1.37242,-3.51352 -0.06808,-6.56757c1.30434,-3.05406 3.44957,-5.06525 4.79149,-4.49213c1.34193,0.57312 1.37241,3.51352 0.06807,6.56757z" fill="url(#color-16)" stroke="#b3b3b3" stroke-width="3" stroke-linecap="butt"/><path d="M187.95849,197.20501c-1.30434,3.05406 -3.44956,5.06525 -4.79149,4.49213c-1.34193,-0.57312 -1.37241,-3.51351 -0.06808,-6.56757c1.30434,-3.05406 3.44957,-5.06525 4.79149,-4.49213c1.34193,0.57312 1.37241,3.51351 0.06807,6.56757z" fill="url(#color-17)" stroke="#b3b3b3" stroke-width="3" stroke-linecap="butt"/><path d="M189.10629,188.89743c-1.30434,3.05406 -1.52346,5.59054 -2.86539,5.01743c-1.34193,-0.57312 0.72878,-2.28781 2.03312,-5.34187c1.30434,-3.05406 1.17327,-6.29094 2.5152,-5.71783c1.34193,0.57312 -0.37859,2.98822 -1.68292,6.04227z" fill="url(#color-18)" stroke="#b3b3b3" stroke-width="3" stroke-linecap="butt"/><path d="M196.90789,169.55852c-1.30434,3.05406 -1.52347,5.59054 -2.8654,5.01743c-1.34193,-0.57312 0.72878,-2.28781 2.03312,-5.34187c1.30434,-3.05406 1.17327,-6.29094 2.5152,-5.71783c1.34193,0.57312 -0.37858,2.98821 -1.68292,6.04227z" fill="url(#color-19)" stroke="#b3b3b3" stroke-width="3" stroke-linecap="butt"/><path d="M201.84409,156.98809c-1.34193,-0.57312 0.93009,-5.15412 2.27202,-4.58101c1.34193,0.57312 -0.93009,5.15412 -2.27202,4.58101z" fill="url(#color-20)" stroke="#b3b3b3" stroke-width="3" stroke-linecap="butt"/><path d="M181.45462,204.01205c-1.34193,-0.57312 0.93009,-5.15412 2.27202,-4.58101c1.34193,0.57312 -0.93009,5.15412 -2.27202,4.58101z" fill="url(#color-21)" stroke="#b3b3b3" stroke-width="3" stroke-linecap="butt"/><path d="M260.70752,159.03202c-1.81486,-2.78115 -3.92864,-4.86077 -2.70662,-5.65822c1.22202,-0.79744 1.65504,2.41303 3.46992,5.19418c1.81487,2.78116 4.15188,4.1102 2.92987,4.90765c-1.22202,0.79744 -1.87828,-1.66245 -3.69315,-4.44361z" data-paper-data="{&quot;index&quot;:null}" fill="url(#color-22)" stroke="#b3b3b3" stroke-width="3" stroke-linecap="butt"/><path d="M263.90373,168.61025c-1.56633,-2.92835 -1.79301,-5.86015 -0.50632,-6.54838c1.28668,-0.68823 3.59951,1.12772 5.16584,4.05607c1.56632,2.92835 1.793,5.86015 0.50631,6.54838c-1.28669,0.68823 -3.59951,-1.12772 -5.16584,-4.05607z" data-paper-data="{&quot;index&quot;:null}" fill="url(#color-23)" stroke="#b3b3b3" stroke-width="3" stroke-linecap="butt"/><path d="M280.9663,193.41158c-1.81486,-2.78114 -3.92864,-4.86077 -2.70662,-5.65822c1.22202,-0.79744 1.65504,2.41303 3.46992,5.19418c1.81488,2.78115 4.15189,4.1102 2.92987,4.90765c-1.22202,0.79744 -1.87828,-1.66246 -3.69316,-4.44361z" data-paper-data="{&quot;index&quot;:null}" fill="url(#color-24)" stroke="#b3b3b3" stroke-width="3" stroke-linecap="butt"/><path d="M283.87432,202.41344c-1.56633,-2.92834 -1.79301,-5.86014 -0.50632,-6.54838c1.28668,-0.68823 3.59951,1.12772 5.16584,4.05607c1.56632,2.92835 1.793,5.86014 0.50631,6.54838c-1.28669,0.68824 -3.59951,-1.12772 -5.16584,-4.05607z" data-paper-data="{&quot;index&quot;:null}" fill="url(#color-25)" stroke="#b3b3b3" stroke-width="3" stroke-linecap="butt"/><path d="M288.44329,204.89009c1.33604,-0.58671 3.65448,3.97097 2.31844,4.55769c-1.33604,0.58671 -3.65448,-3.97097 -2.31844,-4.55769z" data-paper-data="{&quot;index&quot;:null}" fill="url(#color-26)" stroke="#b3b3b3" stroke-width="3" stroke-linecap="butt"/><g stroke-linecap="butt" font-family="Sans Serif" font-weight="normal" font-size="40" text-anchor="start"><text transform="translate(199.25056,183.38259) scale(0.24305,0.24305)" font-size="40" xml:space="preserve" fill="url(#color-27)" fill-rule="nonzero" stroke="url(#color-28)" stroke-width="15" stroke-linecap="butt" stroke-linejoin="miter" stroke-miterlimit="10" stroke-dasharray="" stroke-dashoffset="0" font-family="Sans Serif" font-weight="normal" text-anchor="start" style="mix-blend-mode: normal"><tspan x="0" dy="0">Super Hard Mode</tspan></text><text transform="translate(199.25056,182.45061) scale(0.24305,0.24305)" font-size="40" xml:space="preserve" fill="url(#color-29)" fill-rule="nonzero" stroke="url(#color-30)" stroke-width="15" stroke-linecap="butt" stroke-linejoin="miter" stroke-miterlimit="10" stroke-dasharray="" stroke-dashoffset="0" font-family="Sans Serif" font-weight="normal" text-anchor="start" style="mix-blend-mode: normal"><tspan x="0" dy="0">Super Hard Mode</tspan></text><text transform="translate(199.25056,183.38259) scale(0.24305,0.24305)" font-size="40" xml:space="preserve" fill="url(#color-31)" fill-rule="nonzero" stroke="#000000" stroke-width="10" stroke-linecap="butt" stroke-linejoin="miter" stroke-miterlimit="10" stroke-dasharray="" stroke-dashoffset="0" font-family="Sans Serif" font-weight="normal" text-anchor="start" style="mix-blend-mode: normal"><tspan x="0" dy="0">Super Hard Mode</tspan></text><text transform="translate(199.25056,182.45061) scale(0.24305,0.24305)" font-size="40" xml:space="preserve" fill="url(#color-32)" fill-rule="nonzero" stroke="#000000" stroke-width="10" stroke-linecap="butt" stroke-linejoin="miter" stroke-miterlimit="10" stroke-dasharray="" stroke-dashoffset="0" font-family="Sans Serif" font-weight="normal" text-anchor="start" style="mix-blend-mode: normal"><tspan x="0" dy="0">Super Hard Mode</tspan></text><text transform="translate(196.72286,182.45061) scale(0.24305,0.24305)" font-size="40" xml:space="preserve" fill="url(#color-33)" fill-rule="nonzero" stroke="#ffffff" stroke-width="5" stroke-linecap="butt" stroke-linejoin="miter" stroke-miterlimit="10" stroke-dasharray="" stroke-dashoffset="0" font-family="Sans Serif" font-weight="normal" text-anchor="start" style="mix-blend-mode: normal"><tspan x="0" dy="0"> Super Hard Mode </tspan></text><text transform="translate(199.25056,182.45061) scale(0.24305,0.24305)" font-size="40" xml:space="preserve" fill="url(#color-34)" fill-rule="nonzero" stroke="none" stroke-width="1" stroke-linecap="butt" stroke-linejoin="miter" stroke-miterlimit="10" stroke-dasharray="" stroke-dashoffset="0" font-family="Sans Serif" font-weight="normal" text-anchor="start" style="mix-blend-mode: normal"><tspan x="0" dy="0">Super Hard Mode</tspan></text></g><path d="M270.98101,176.79814c-1.81486,-2.78115 -3.92863,-4.86077 -2.70662,-5.65822c1.22202,-0.79744 1.65504,2.41303 3.46991,5.19418c1.81487,2.78116 4.15188,4.1102 2.92987,4.90765c-1.22202,0.79744 -1.87828,-1.66245 -3.69315,-4.44361z" data-paper-data="{&quot;index&quot;:null}" fill="url(#color-35)" stroke="#b3b3b3" stroke-width="3" stroke-linecap="butt"/><path d="M273.88902,185.51185c-1.56633,-2.92835 -1.79301,-5.86014 -0.50632,-6.54838c1.28668,-0.68823 3.59951,1.12772 5.16584,4.05607c1.56632,2.92835 1.793,5.86015 0.50631,6.54838c-1.28669,0.68823 -3.59951,-1.12772 -5.16584,-4.05607z" data-paper-data="{&quot;index&quot;:null}" fill="url(#color-36)" stroke="#b3b3b3" stroke-width="3" stroke-linecap="butt"/><path d="M185.48643,180.7133c-3.05406,-1.30434 -5.06525,-3.44956 -4.49213,-4.79149c0.57312,-1.34193 3.51352,-1.37242 6.56757,-0.06808c3.05406,1.30434 5.06525,3.44957 4.49213,4.79149c-0.57312,1.34193 -3.51352,1.37241 -6.56757,0.06807z" fill="url(#color-37)" stroke="#b3b3b3" stroke-width="3" stroke-linecap="butt"/><path d="M202.52207,187.81324c-3.158,-1.02744 -5.35208,-2.98521 -4.90063,-4.37281c0.45145,-1.3876 3.37748,-1.67959 6.53547,-0.65215c3.158,1.02744 5.35208,2.98522 4.90063,4.37281c-0.45145,1.3876 -3.37748,1.67958 -6.53547,0.65214z" fill="url(#color-38)" stroke="#b3b3b3" stroke-width="3" stroke-linecap="butt"/><path d="M221.1721,193.19687c-3.27797,-0.53245 -5.74562,-2.13169 -5.51166,-3.572c0.23396,-1.44031 3.08092,-2.1763 6.35888,-1.64384c3.27797,0.53245 5.74562,2.1317 5.51166,3.572c-0.23396,1.44031 -3.08092,2.17629 -6.35888,1.64383z" fill="url(#color-39)" stroke="#b3b3b3" stroke-width="3" stroke-linecap="butt"/><path d="M259.58354,193.29782c-3.27796,0.53245 -6.12493,-0.20352 -6.35889,-1.64383c-0.23396,-1.4403 2.23369,-3.03955 5.51166,-3.572c3.27796,-0.53245 6.12492,0.20353 6.35888,1.64384c0.23396,1.44031 -2.23369,3.03955 -5.51165,3.572z" data-paper-data="{&quot;index&quot;:null}" fill="url(#color-40)" stroke="#b3b3b3" stroke-width="3" stroke-linecap="butt"/><path d="M239.76217,195.05956c-3.31901,-0.11283 -5.9694,-1.38653 -5.91982,-2.84488c0.04958,-1.45835 2.78035,-2.54912 6.09935,-2.43628c3.31901,0.11283 5.96941,1.38654 5.91982,2.84488c-0.04958,1.45835 -2.78035,2.54911 -6.09936,2.43627z" fill="url(#color-41)" stroke="#b3b3b3" stroke-width="3" stroke-linecap="butt"/><path d="M276.0144,187.33784c-3.15799,1.02744 -6.08402,0.73546 -6.53546,-0.65214c-0.45145,-1.38759 1.74263,-3.34537 4.90063,-4.3728c3.15799,-1.02744 6.08402,-0.73545 6.53547,0.65215c0.45145,1.3876 -1.74263,3.34537 -4.90063,4.3728z" data-paper-data="{&quot;index&quot;:null}" fill="url(#color-42)" stroke="#b3b3b3" stroke-width="3" stroke-linecap="butt"/><path d="M291.98358,180.52607c-3.05405,1.30434 -5.99445,1.27386 -6.56757,-0.06807c-0.57312,-1.34192 1.43807,-3.48715 4.49213,-4.79149c3.05405,-1.30434 5.99445,-1.27385 6.56757,0.06808c0.57312,1.34193 -1.43807,3.48715 -4.49213,4.79149z" data-paper-data="{&quot;index&quot;:null}" fill="url(#color-43)" stroke="#b3b3b3" stroke-width="3" stroke-linecap="butt"/><path d="M184.01336,177.53875c-0.4937,1.37314 -5.19968,-0.62721 -4.70599,-2.00034c0.4937,-1.37314 5.19968,0.62721 4.70599,2.00034z" fill="url(#color-44)" stroke="#b3b3b3" stroke-width="3" stroke-linecap="butt"/><path d="M299.43248,174.50558c0.49368,1.37313 -4.2123,3.37349 -4.70599,2.00035c-0.49369,-1.37313 4.2123,-3.37349 4.70599,-2.00035z" data-paper-data="{&quot;index&quot;:null}" fill="url(#color-45)" stroke="#b3b3b3" stroke-width="3" stroke-linecap="butt"/><path d="M282.53302,181.57821c3.01641,-1.38916 5.38249,-3.17649 5.99288,-1.8511c0.61039,1.32539 -2.6289,1.28482 -5.64531,2.67399c-3.01643,1.38916 -4.67258,3.50698 -5.28298,2.18159c-0.61039,-1.32539 1.91898,-1.6153 4.9354,-3.00447z" data-paper-data="{&quot;index&quot;:null}" fill="url(#color-46)" stroke="#b3b3b3" stroke-width="3" stroke-linecap="butt"/><path d="M267.30234,187.44027c3.14659,-1.06183 5.68867,-2.58849 6.15524,-1.2059c0.46657,1.38259 -2.7502,0.99913 -5.89679,2.06097c-3.1466,1.06184 -5.01776,2.99231 -5.48433,1.60973c-0.46657,-1.38259 2.07928,-1.40295 5.22588,-2.46479z" data-paper-data="{&quot;index&quot;:null}" fill="url(#color-47)" stroke="#b3b3b3" stroke-width="3" stroke-linecap="butt"/><path d="M249.39496,191.44616c3.29561,-0.40928 6.09219,-1.39515 6.27204,0.05291c0.17983,1.44807 -2.8947,0.42733 -6.19031,0.83662c-3.29562,0.40928 -5.51588,1.92532 -5.69573,0.47725c-0.17983,-1.44807 2.31838,-0.9575 5.614,-1.36678z" data-paper-data="{&quot;index&quot;:null}" fill="url(#color-48)" stroke="#b3b3b3" stroke-width="3" stroke-linecap="butt"/><path d="M230.73725,191.14459c3.29562,0.40928 5.79383,-0.08129 5.61399,1.36678c-0.17985,1.44807 -2.40012,-0.06797 -5.69573,-0.47725c-3.2956,-0.40929 -6.37014,0.61145 -6.19031,-0.83662c0.17985,-1.44807 2.97643,-0.46219 6.27204,-0.05292z" data-paper-data="{&quot;index&quot;:null}" fill="url(#color-49)" stroke="#b3b3b3" stroke-width="3" stroke-linecap="butt"/><path d="M212.29857,187.65086c3.09817,1.19579 5.6408,1.3253 5.11538,2.68662c-0.52544,1.36131 -2.31209,-0.64763 -5.41026,-1.84342c-3.09816,-1.19579 -6.32842,-0.95062 -5.80299,-2.31194c0.52544,-1.36131 2.99971,0.27295 6.09787,1.46873z" data-paper-data="{&quot;index&quot;:null}" fill="url(#color-50)" stroke="#b3b3b3" stroke-width="3" stroke-linecap="butt"/><path d="M235.23946,194.17105c0,-2.62509 2.12805,-4.75314 4.75314,-4.75314c2.62509,0 4.75314,2.12805 4.75314,4.75314c0,2.62509 -2.12805,4.75314 -4.75314,4.75314c-2.62509,0 -4.75314,-2.12805 -4.75314,-4.75314z" fill="none" stroke="#000000" stroke-width="3" stroke-linecap="butt"/><path d="M195.361,181.49927c3.09817,1.19579 5.64081,1.3253 5.11538,2.68661c-0.52543,1.3613 -2.31209,-0.64763 -5.41026,-1.84342c-3.09816,-1.1958 -6.32842,-0.95063 -5.803,-2.31194c0.52543,-1.3613 2.99971,0.27294 6.09787,1.46873z" data-paper-data="{&quot;index&quot;:null}" fill="url(#color-51)" stroke="#b3b3b3" stroke-width="3" stroke-linecap="butt"/><path d="M231.5832,209.16173v-16.63599h16.63599v16.63599z" fill="url(#color-52)" stroke="#000000" stroke-width="2" stroke-linecap="butt"/><path d="M236.88478,200.15337c0,-1.66592 1.3505,-3.01642 3.01642,-3.01642c1.66592,0 3.01642,1.3505 3.01642,3.01642c0,1.66592 -1.3505,3.01642 -3.01642,3.01642c-1.66592,0 -3.01642,-1.3505 -3.01642,-3.01642z" fill="#000000" stroke="none" stroke-width="0" stroke-linecap="butt"/><path d="M239.80979,200.656l3.20415,5.94635h-6.4083z" fill="#000000" stroke="none" stroke-width="0" stroke-linecap="butt"/></g></g></svg>