<svg version="1.1" xmlns="http://www.w3.org/2000/svg" xmlns:xlink="http://www.w3.org/1999/xlink" width="86.07006" height="112.57151" viewBox="0,0,86.07006,112.57151"><g transform="translate(-206.28517,-101.14332)"><g data-paper-data="{&quot;isPaintingLayer&quot;:true}" fill-rule="nonzero" stroke-linejoin="miter" stroke-miterlimit="10" stroke-dasharray="" stroke-dashoffset="0" style="mix-blend-mode: normal"><path d="M240.00004,210.51668c-16.85387,0 -30.51667,-13.6628 -30.51667,-30.51667c0,-16.85387 13.6628,-30.51667 30.51667,-30.51667c16.85387,0 30.51667,13.6628 30.51667,30.51667c0,16.85387 -13.6628,30.51667 -30.51667,30.51667z" data-paper-data="{&quot;index&quot;:null}" fill="#424242" stroke="#000000" stroke-width="5" stroke-linecap="butt"/><path d="M214.46034,190.47783c0,0 -7.45968,-14.11258 2.8814,-28.02818c8.94145,-12.03214 24.36095,-9.95394 24.36095,-9.95394l-27.24234,37.98212z" data-paper-data="{&quot;index&quot;:null}" fill="#585858" stroke="none" stroke-width="0" stroke-linecap="round"/><path d="M266.08088,170.17103c0,0 7.45968,14.11258 -2.8814,28.02818c-8.94145,12.03214 -24.36095,9.95394 -24.36095,9.95394l27.24234,-37.98212z" data-paper-data="{&quot;index&quot;:null}" fill="#272727" stroke="none" stroke-width="0" stroke-linecap="round"/><path d="M252.70438,187.3345c0,0 1.47415,10.50908 -3.14335,12.57339c-4.61752,2.06429 -19.12203,-2.61946 -19.12203,-2.61946z" data-paper-data="{&quot;index&quot;:null}" fill="#b3b3b3" stroke="none" stroke-width="0" stroke-linecap="round"/><path d="M244.80502,190.80049l0.01771,-4.59215l5.34057,2.26295l-0.95322,6.08898z" data-paper-data="{&quot;index&quot;:null}" fill="#424242" stroke="none" stroke-width="0" stroke-linecap="butt"/><path d="M242.23995,132.36225l-2.44686,-21.14404l12.50333,18.76022l10.23779,-8.85584l2.50561,15.49068l20.17758,-6.18582l-12.83647,15.35979l-3.6119,16.89054l-20.62769,-2.64561l-12.94243,-12.86839z" fill="#b48200" stroke="#583f00" stroke-width="4" stroke-linecap="round"/><path d="M249.33572,146.50836c0,-2.49482 2.02245,-4.51727 4.51727,-4.51727c2.49482,0 4.51727,2.02245 4.51727,4.51727c0,2.49482 -2.02245,4.51727 -4.51727,4.51727c-2.49482,0 -4.51727,-2.02245 -4.51727,-4.51727z" fill="#b50000" stroke="#590000" stroke-width="3" stroke-linecap="butt"/><path d="M206.28517,180c0,-18.62019 15.09464,-33.71483 33.71483,-33.71483c18.62019,0 33.71483,15.09464 33.71483,33.71483c0,18.62019 -15.09464,33.71483 -33.71483,33.71483c-18.62019,0 -33.71483,-15.09464 -33.71483,-33.71483z" fill="#ff0000" stroke="none" stroke-width="0" stroke-linecap="butt"/><path d="M231.0129,148.45603l8.46127,-17.3799l-3.54458,-29.93281l16.69385,25.15512l11.43414,-10.29073l2.62985,17.3799l25.66781,-8.09525l-17.95161,20.92448l-3.88761,19.3237" fill="#ff0000" stroke="none" stroke-width="0" stroke-linecap="round"/></g></g></svg>