<svg version="1.1" xmlns="http://www.w3.org/2000/svg" xmlns:xlink="http://www.w3.org/1999/xlink" width="316" height="316" viewBox="0,0,316,316"><g transform="translate(-82,-22)"><g data-paper-data="{&quot;isPaintingLayer&quot;:true}" fill-rule="nonzero" stroke-linejoin="miter" stroke-miterlimit="10" stroke-dasharray="" stroke-dashoffset="0" style="mix-blend-mode: normal"><path d="M90,330v-300h300v300z" fill="#805100" stroke="#402800" stroke-width="16" stroke-linecap="butt"/><path d="M176.5,237v-126h126v126z" fill="#342400" stroke="#402800" stroke-width="8" stroke-linecap="butt"/><text transform="translate(113.5,74) scale(0.5,0.5)" font-size="40" xml:space="preserve" fill="#ffffff" fill-rule="nonzero" stroke="none" stroke-width="1" stroke-linecap="butt" stroke-linejoin="miter" stroke-miterlimit="10" stroke-dasharray="" stroke-dashoffset="0" font-family="Sans Serif" font-weight="normal" text-anchor="start" style="mix-blend-mode: normal"><tspan x="0" dy="0">To ward away a phantom,</tspan></text><text transform="translate(104.5,276.18358) scale(0.39741,0.39741)" font-size="40" xml:space="preserve" fill="#ffffff" fill-rule="nonzero" stroke="none" stroke-width="1" stroke-linecap="butt" stroke-linejoin="miter" stroke-miterlimit="10" stroke-dasharray="" stroke-dashoffset="0" font-family="Sans Serif" font-weight="normal" text-anchor="start" style="mix-blend-mode: normal"><tspan x="0" dy="0">   Simply click/tap on them while</tspan><tspan x="0" dy="46.150000000000006px">the highlighter is over the phantom.</tspan></text><path d="M267.58607,176.30833c-10.52561,1.56631 -20.32807,-5.69666 -21.89438,-16.22227c-1.56631,-10.52561 5.69666,-20.32807 16.22227,-21.89438c10.52561,-1.56631 20.32807,5.69666 21.89438,16.22227c1.56631,10.52561 -5.69666,20.32807 -16.22227,21.89438z" data-paper-data="{&quot;index&quot;:null}" fill="#424242" stroke="#000000" stroke-width="3.5" stroke-linecap="butt"/><path d="M249.77367,166.16716c0,0 -5.97028,-8.12035 -0.80529,-17.77199c4.46593,-8.3453 14.28888,-8.48043 14.28888,-8.48043l-13.48358,26.25242z" data-paper-data="{&quot;index&quot;:null}" fill="#585858" stroke="none" stroke-width="0" stroke-linecap="round"/><path d="M280.12463,148.68778c0,0 5.97028,8.12035 0.80529,17.77199c-4.46593,8.3453 -14.28888,8.48043 -14.28888,8.48043l13.48358,-26.25242z" data-paper-data="{&quot;index&quot;:null}" fill="#272727" stroke="none" stroke-width="0" stroke-linecap="round"/><path d="M273.36579,160.64988c0,0 1.8973,6.42615 -0.79459,8.14448c-2.6919,1.71832 -12.18556,0.14119 -12.18556,0.14119z" data-paper-data="{&quot;index&quot;:null}" fill="#b3b3b3" stroke="none" stroke-width="0" stroke-linecap="round"/><path d="M268.75457,163.54859l-0.41571,-2.86954l3.54561,0.91694l-0.02943,3.89129z" data-paper-data="{&quot;index&quot;:null}" fill="#424242" stroke="none" stroke-width="0" stroke-linecap="butt"/><path d="M278.41933,141.6076c4.90329,3.98707 7.76319,10.02662 7.7348,16.35176c-0.00526,1.174 -0.19494,-4.95825 -2.39966,-9.64556c-2.08436,-4.43138 -6.21766,-7.42381 -5.33514,-6.7062z" fill="none" stroke="#b30000" stroke-width="4" stroke-linecap="butt"/><path d="M273.68326,176.84269c4.65881,-2.26437 8.65624,-6.91851 7.9233,-6.00138c-3.94882,4.94117 -9.96651,7.84678 -16.28619,7.87194c-1.13745,0.00454 3.95845,0.27016 8.36288,-1.87057z" data-paper-data="{&quot;index&quot;:null}" fill="none" stroke="#b30000" stroke-width="4" stroke-linecap="butt"/><path d="M256.55638,138.71241c-4.65881,2.26437 -8.65624,6.91851 -7.9233,6.00138c3.94882,-4.94117 9.96651,-7.84678 16.28619,-7.87194c1.13745,-0.00454 -3.95845,-0.27016 -8.36288,1.87057z" data-paper-data="{&quot;index&quot;:null}" fill="none" stroke="#b30000" stroke-width="4" stroke-linecap="butt"/><path d="M251.82031,173.9475c-4.90329,-3.98707 -7.76319,-10.02662 -7.7348,-16.35176c0.00526,-1.174 0.19494,4.95825 2.39966,9.64556c2.08436,4.43138 6.21766,7.42381 5.33514,6.7062z" data-paper-data="{&quot;index&quot;:null}" fill="none" stroke="#b30000" stroke-width="4" stroke-linecap="butt"/><path d="M275.45476,128.24037l-6.36589,18.03281" fill="none" stroke="#b30000" stroke-width="2" stroke-linecap="round"/><path d="M254.67881,187.09292l6.53951,-18.52462" fill="none" stroke="#b30000" stroke-width="2" stroke-linecap="round"/><path d="M254.16513,153.81817l-18.68855,-6.59738" fill="none" stroke="#b30000" stroke-width="2" stroke-linecap="round"/><path d="M275.96844,161.51512l18.52462,6.53951" fill="none" stroke="#b30000" stroke-width="2" stroke-linecap="round"/><path d="M204.82331,201.42704l10.92025,-8.51977l8.62627,11.05676l-10.92025,8.51977z" fill="#d8d8d8" stroke="#6c6c6c" stroke-width="2.5" stroke-linecap="butt"/><path d="M214.02835,196.64635l2.9044,3.62593l-6.62219,-0.66123z" fill="#ffffff" stroke="#ffffff" stroke-width="2" stroke-linecap="round"/><path d="M212.80297,188.61377c1.30387,-1.01726 3.06346,-2.39005 3.82209,-2.98192c0.704,-0.54925 2.14695,-0.62566 2.70301,0.08707c1.64041,2.10261 9.87007,12.65101 12.8329,16.44863c0.66524,0.85268 0.13093,2.09375 -0.57306,2.643c-0.78544,0.61279 -2.64386,2.06269 -3.95859,3.08842c-0.82322,0.64226 -1.85448,0.57835 -2.55151,-0.31506c-2.99261,-3.8358 -11.06969,-14.18863 -12.7264,-16.31213c-0.5805,-0.74406 -0.43982,-1.96256 0.45157,-2.658z" fill="#d8d8d8" stroke="#6c6c6c" stroke-width="2.5" stroke-linecap="butt"/><path d="M217.96714,187.05972l2.45218,3.23008l-5.69757,-0.64209z" fill="#ffffff" stroke="#ffffff" stroke-width="1" stroke-linecap="round"/><path d="M223.97094,203.03686l5.65336,0.83072l-3.11113,2.36188z" data-paper-data="{&quot;index&quot;:null}" fill="#b3b3b3" stroke="#b3b3b3" stroke-width="1" stroke-linecap="round"/><path d="M215.92563,208.18475c0,0 -0.42916,-1.40813 -0.72666,-2.02704c-0.30607,-0.6367 -0.98952,-1.81562 -0.98952,-1.81562l5.57689,0.76646z" data-paper-data="{&quot;index&quot;:null}" fill="#b3b3b3" stroke="#b3b3b3" stroke-width="2" stroke-linecap="round"/><path d="M225.61028,191.3747l-4.01391,-0.49564l-3.5748,-4.51654l-4.52352,3.63134l-2.87625,-0.41256c0,0 0.2354,-1.17178 0.71823,-1.63319c0.48283,-0.46141 2.99853,-2.46425 5.10597,-3.93249c0.9861,-0.71223 3.33366,-0.01739 3.63214,0.33371c0.29848,0.3511 5.53214,7.02538 5.53214,7.02538z" fill="#929292" stroke="none" stroke-width="0" stroke-linecap="round"/><path d="M222.6822,202.49566l4.03506,4.57151l3.98263,-3.05999l2.79029,0.37106c0,0 -0.34473,1.04005 -0.79068,1.4662c-0.44595,0.42615 -2.74014,2.25311 -4.68658,3.6092c-0.91077,0.65782 -3.17612,-0.00236 -3.4518,-0.32664c-0.27568,-0.32428 -5.02197,-6.61403 -5.02197,-6.61403z" data-paper-data="{&quot;index&quot;:null}" fill="#444444" stroke="none" stroke-width="0" stroke-linecap="round"/><path d="M221.24992,204.4043l1.88031,2.4101l-6.70933,5.2876l-0.79082,-3.26011z" fill="#444444" stroke="none" stroke-width="0" stroke-linecap="round"/><path d="M213.80652,233.88232l-29.73185,-38.10894l38.10894,-29.73185l29.73185,38.10894z" fill="none" stroke="none" stroke-width="NaN" stroke-linecap="butt"/><path d="M191.308,220.55411c-4.45982,-5.56703 -3.56226,-13.6954 2.00477,-18.15522c5.56703,-4.45982 13.6954,-3.56226 18.15522,2.00477c4.45982,5.56703 3.56226,13.6954 -2.00477,18.15522c-5.56703,4.45982 -13.6954,3.56226 -18.15522,-2.00477z" fill="#d8d8d8" stroke="#6c6c6c" stroke-width="4" stroke-linecap="butt"/><path d="M210.56332,213.8639c-0.48684,4.40883 -4.09806,4.20342 -4.09806,4.20342l1.00347,-9.08751c0,0 3.59381,0.36307 3.09458,4.88409z" data-paper-data="{&quot;index&quot;:null}" fill="#6c6c6c" stroke="none" stroke-width="0" stroke-linecap="round"/><path d="M201.26643,201.75008c0.83594,-0.04073 1.97926,0.16069 2.61121,0.27646c1.25725,0.23032 3.28787,1.63944 3.28787,1.63944l-12.30109,0.53084c0,0 1.43777,-1.18358 2.1775,-1.52085c0.78165,-0.35637 3.4932,-0.89026 4.22451,-0.92589z" fill="#ffffff" stroke="#ffffff" stroke-width="1" stroke-linecap="round"/><path d="M206.01309,207.16277l-9.08751,-1.00347c0,0 0.58745,-3.56904 4.99628,-3.0822c4.52103,0.49923 4.09122,4.08567 4.09122,4.08567z" data-paper-data="{&quot;index&quot;:null}" fill="#6c6c6c" stroke="none" stroke-width="0" stroke-linecap="round"/><path d="M201.55611,223.29651c-0.83594,0.04073 -1.97925,-0.16069 -2.61121,-0.27646c-1.25725,-0.23032 -3.28787,-1.63944 -3.28787,-1.63944l12.30109,-0.53084c0,0 -1.43777,1.18358 -2.1775,1.52085c-0.78165,0.35637 -3.4932,0.89027 -4.2245,0.92589z" data-paper-data="{&quot;index&quot;:null}" fill="#b3b3b3" stroke="#b3b3b3" stroke-width="1" stroke-linecap="round"/><path d="M209.22504,220.44665l4.54398,0.08779c0,0 -3.8578,6.73554 -12.04078,6.74865c-8.80981,0.0141 -12.3182,-6.16227 -12.3182,-6.16227l4.98006,-0.11243c0,0 2.49895,2.52233 6.77233,2.77628c4.33805,0.2578 8.06263,-3.338 8.06263,-3.338z" fill="#444444" stroke="#000000" stroke-width="0" stroke-linecap="round"/><path d="M193.42003,204.82875l-4.61674,-0.17862c0,0 4.01211,-7.00828 12.1951,-7.02138c8.80982,-0.0141 12.42735,6.29852 12.42735,6.29852l-4.89826,0.12147c0,0 -2.62616,-2.49498 -6.89954,-2.74893c-4.33805,-0.2578 -8.20791,3.52894 -8.20791,3.52894z" data-paper-data="{&quot;index&quot;:null}" fill="#919191" stroke="#000000" stroke-width="0" stroke-linecap="round"/><path d="M197.77509,245.19754l-29.10575,-36.33159l36.33159,-29.10575l29.10575,36.33159z" fill="none" stroke="none" stroke-width="NaN" stroke-linecap="butt"/></g></g></svg>