<svg version="1.1" xmlns="http://www.w3.org/2000/svg" xmlns:xlink="http://www.w3.org/1999/xlink" width="124.73845" height="77.35586" viewBox="0,0,124.73845,77.35586"><defs><radialGradient cx="241.79674" cy="187.3991" r="31.27882" gradientUnits="userSpaceOnUse" id="color-1"><stop offset="0" stop-color="#ff0000"/><stop offset="1" stop-color="#ff0000" stop-opacity="0"/></radialGradient><radialGradient cx="231.6217" cy="187.3991" r="31.27882" gradientUnits="userSpaceOnUse" id="color-2"><stop offset="0" stop-color="#ff0000"/><stop offset="1" stop-color="#ff0000" stop-opacity="0"/></radialGradient><radialGradient cx="254.2329" cy="187.3991" r="31.27882" gradientUnits="userSpaceOnUse" id="color-3"><stop offset="0" stop-color="#ff0000"/><stop offset="1" stop-color="#ff0000" stop-opacity="0"/></radialGradient><radialGradient cx="256.39311" cy="172.6009" r="31.27882" gradientUnits="userSpaceOnUse" id="color-4"><stop offset="0" stop-color="#ff0000"/><stop offset="1" stop-color="#ff0000" stop-opacity="0"/></radialGradient><radialGradient cx="224.73744" cy="172.6009" r="31.27882" gradientUnits="userSpaceOnUse" id="color-5"><stop offset="0" stop-color="#ff0000"/><stop offset="1" stop-color="#ff0000" stop-opacity="0"/></radialGradient><radialGradient cx="208.9096" cy="172.60091" r="31.27882" gradientUnits="userSpaceOnUse" id="color-6"><stop offset="0" stop-color="#ff0000"/><stop offset="1" stop-color="#ff0000" stop-opacity="0"/></radialGradient><radialGradient cx="271.09039" cy="172.60091" r="31.27883" gradientUnits="userSpaceOnUse" id="color-7"><stop offset="0" stop-color="#ff0000"/><stop offset="1" stop-color="#ff0000" stop-opacity="0"/></radialGradient><radialGradient cx="239.43472" cy="172.60091" r="31.27882" gradientUnits="userSpaceOnUse" id="color-8"><stop offset="0" stop-color="#ff0000"/><stop offset="1" stop-color="#ff0000" stop-opacity="0"/></radialGradient><linearGradient x1="227.01472" y1="160.24778" x2="227.01472" y2="183.32278" gradientTransform="translate(-405.16945,-355.10806) scale(2,2)" gradientUnits="userSpaceOnUse" id="color-9"><stop offset="0" stop-color="#ff8080"/><stop offset="1" stop-color="#800000"/></linearGradient><linearGradient x1="227.01472" y1="162.34153" x2="227.01472" y2="185.41653" gradientTransform="translate(-405.16945,-359.29556) scale(2,2)" gradientUnits="userSpaceOnUse" id="color-10"><stop offset="0" stop-color="#ff8080"/><stop offset="1" stop-color="#800000"/></linearGradient><linearGradient x1="240.41038" y1="183.93968" x2="240.41038" y2="199.55636" gradientTransform="translate(-664.69418,-578.18603) scale(2.95517,2.95517)" gradientUnits="userSpaceOnUse" id="color-11"><stop offset="0" stop-color="#ff8080"/><stop offset="1" stop-color="#800000"/></linearGradient><linearGradient x1="240.41038" y1="186.49012" x2="240.41038" y2="202.10681" gradientTransform="translate(-664.69418,-585.72301) scale(2.95517,2.95517)" gradientUnits="userSpaceOnUse" id="color-12"><stop offset="0" stop-color="#ff8080"/><stop offset="1" stop-color="#800000"/></linearGradient></defs><g transform="translate(-177.63078,-141.32207)"><g data-paper-data="{&quot;isPaintingLayer&quot;:true}" fill-rule="nonzero" stroke-linecap="butt" stroke-linejoin="miter" stroke-miterlimit="10" stroke-dasharray="" stroke-dashoffset="0" style="mix-blend-mode: normal"><path d="M210.51792,187.3991c0,-17.27482 14.00401,-31.27883 31.27883,-31.27883c17.27482,0 31.27882,14.00401 31.27882,31.27883c0,17.27482 -14.00401,31.27883 -31.27882,31.27883c-17.27482,0 -31.27883,-14.00401 -31.27883,-31.27883z" fill="url(#color-1)" stroke="none" stroke-width="0"/><path d="M200.34288,187.3991c0,-17.27482 14.00401,-31.27883 31.27883,-31.27883c17.27482,0 31.27882,14.00401 31.27882,31.27883c0,17.27482 -14.00401,31.27883 -31.27882,31.27883c-17.27482,0 -31.27883,-14.00401 -31.27883,-31.27883z" fill="url(#color-2)" stroke="none" stroke-width="0"/><path d="M222.95408,187.3991c0,-17.27482 14.00401,-31.27883 31.27883,-31.27883c17.27482,0 31.27882,14.00401 31.27882,31.27883c0,17.27482 -14.00401,31.27883 -31.27882,31.27883c-17.27482,0 -31.27883,-14.00401 -31.27883,-31.27883z" fill="url(#color-3)" stroke="none" stroke-width="0"/><path d="M225.11429,172.6009c0,-17.27482 14.00401,-31.27883 31.27883,-31.27883c17.27482,0 31.27882,14.00401 31.27882,31.27883c0,17.27482 -14.00401,31.27883 -31.27882,31.27883c-17.27482,0 -31.27883,-14.00401 -31.27883,-31.27883z" fill="url(#color-4)" stroke="none" stroke-width="0"/><path d="M193.45862,172.6009c0,-17.27482 14.00401,-31.27883 31.27883,-31.27883c17.27482,0 31.27882,14.00401 31.27882,31.27883c0,17.27482 -14.00401,31.27883 -31.27882,31.27883c-17.27482,0 -31.27883,-14.00401 -31.27883,-31.27883z" fill="url(#color-5)" stroke="none" stroke-width="0"/><path d="M177.63078,172.60091c0,-17.27482 14.00401,-31.27883 31.27883,-31.27883c17.27482,0 31.27882,14.00401 31.27882,31.27883c0,17.27482 -14.00401,31.27883 -31.27882,31.27883c-17.27482,0 -31.27883,-14.00401 -31.27883,-31.27883z" fill="url(#color-6)" stroke="none" stroke-width="0"/><path d="M239.81157,172.60091c0,-17.27482 14.00401,-31.27883 31.27883,-31.27883c17.27482,0 31.27883,14.00401 31.27883,31.27883c0,17.27482 -14.00401,31.27883 -31.27883,31.27883c-17.27482,0 -31.27883,-14.00401 -31.27883,-31.27883z" fill="url(#color-7)" stroke="none" stroke-width="0"/><path d="M208.1559,172.60091c0,-17.27482 14.00401,-31.27882 31.27882,-31.27882c17.27482,0 31.27882,14.00401 31.27882,31.27882c0,17.27482 -14.00401,31.27882 -31.27882,31.27882c-17.27482,0 -31.27882,-14.00401 -31.27882,-31.27882z" fill="url(#color-8)" stroke="none" stroke-width="0"/><text transform="translate(202.58473,177.55403) scale(0.5,0.5)" font-size="40" xml:space="preserve" data-paper-data="{&quot;index&quot;:null}" fill="#ff0000" fill-rule="nonzero" stroke="url(#color-9)" stroke-width="15" stroke-linecap="butt" stroke-linejoin="miter" stroke-miterlimit="10" stroke-dasharray="" stroke-dashoffset="0" font-family="Sans Serif" font-weight="normal" text-anchor="start" style="mix-blend-mode: normal"><tspan x="0" dy="0">Perfect!</tspan></text><text transform="translate(202.58473,179.64778) scale(0.5,0.5)" font-size="40" xml:space="preserve" data-paper-data="{&quot;index&quot;:null}" fill="#ff0000" fill-rule="nonzero" stroke="url(#color-10)" stroke-width="15" stroke-linecap="butt" stroke-linejoin="miter" stroke-miterlimit="10" stroke-dasharray="" stroke-dashoffset="0" font-family="Sans Serif" font-weight="normal" text-anchor="start" style="mix-blend-mode: normal"><tspan x="0" dy="0">Perfect!</tspan></text><text transform="translate(202.58473,179.64778) scale(0.5,0.5)" font-size="40" xml:space="preserve" data-paper-data="{&quot;index&quot;:null}" fill="#ff0000" fill-rule="nonzero" stroke="#000000" stroke-width="10" stroke-linecap="butt" stroke-linejoin="miter" stroke-miterlimit="10" stroke-dasharray="" stroke-dashoffset="0" font-family="Sans Serif" font-weight="normal" text-anchor="start" style="mix-blend-mode: normal"><tspan x="0" dy="0">Perfect!</tspan></text><text transform="translate(202.58473,177.55403) scale(0.5,0.5)" font-size="40" xml:space="preserve" data-paper-data="{&quot;index&quot;:null}" fill="#ff0000" fill-rule="nonzero" stroke="#000000" stroke-width="10" stroke-linecap="butt" stroke-linejoin="miter" stroke-miterlimit="10" stroke-dasharray="" stroke-dashoffset="0" font-family="Sans Serif" font-weight="normal" text-anchor="start" style="mix-blend-mode: normal"><tspan x="0" dy="0">Perfect!</tspan></text><text transform="translate(202.58473,177.55403) scale(0.5,0.5)" font-size="40" xml:space="preserve" data-paper-data="{&quot;index&quot;:null}" fill="#ff0000" fill-rule="nonzero" stroke="#ffffff" stroke-width="5" stroke-linecap="butt" stroke-linejoin="miter" stroke-miterlimit="10" stroke-dasharray="" stroke-dashoffset="0" font-family="Sans Serif" font-weight="normal" text-anchor="start" style="mix-blend-mode: normal"><tspan x="0" dy="0">Perfect!</tspan></text><text transform="translate(202.58473,177.55403) scale(0.5,0.5)" font-size="40" xml:space="preserve" data-paper-data="{&quot;index&quot;:null}" fill="#ff0000" fill-rule="nonzero" stroke="none" stroke-width="1" stroke-linecap="butt" stroke-linejoin="miter" stroke-miterlimit="10" stroke-dasharray="" stroke-dashoffset="0" font-family="Sans Serif" font-weight="normal" text-anchor="start" style="mix-blend-mode: normal"><tspan x="0" dy="0">Perfect!</tspan></text><g fill="#ff0000" font-family="Sans Serif" font-weight="normal" font-size="40" text-anchor="start"><text transform="translate(224.92587,195.65237) scale(0.33839,0.33839)" font-size="40" xml:space="preserve" fill="#ff0000" fill-rule="nonzero" stroke="url(#color-11)" stroke-width="15" stroke-linecap="butt" stroke-linejoin="miter" stroke-miterlimit="10" stroke-dasharray="" stroke-dashoffset="0" font-family="Sans Serif" font-weight="normal" text-anchor="start" style="mix-blend-mode: normal"><tspan x="0" dy="0">+100</tspan></text><text transform="translate(224.92587,198.20281) scale(0.33839,0.33839)" font-size="40" xml:space="preserve" fill="#ff0000" fill-rule="nonzero" stroke="url(#color-12)" stroke-width="15" stroke-linecap="butt" stroke-linejoin="miter" stroke-miterlimit="10" stroke-dasharray="" stroke-dashoffset="0" font-family="Sans Serif" font-weight="normal" text-anchor="start" style="mix-blend-mode: normal"><tspan x="0" dy="0">+100</tspan></text><text transform="translate(224.92587,198.20281) scale(0.33839,0.33839)" font-size="40" xml:space="preserve" fill="#ff0000" fill-rule="nonzero" stroke="#000000" stroke-width="10" stroke-linecap="butt" stroke-linejoin="miter" stroke-miterlimit="10" stroke-dasharray="" stroke-dashoffset="0" font-family="Sans Serif" font-weight="normal" text-anchor="start" style="mix-blend-mode: normal"><tspan x="0" dy="0">+100</tspan></text><text transform="translate(224.92587,195.90741) scale(0.33839,0.33839)" font-size="40" xml:space="preserve" fill="#ff0000" fill-rule="nonzero" stroke="#000000" stroke-width="10" stroke-linecap="butt" stroke-linejoin="miter" stroke-miterlimit="10" stroke-dasharray="" stroke-dashoffset="0" font-family="Sans Serif" font-weight="normal" text-anchor="start" style="mix-blend-mode: normal"><tspan x="0" dy="0">+100</tspan></text><text transform="translate(224.92587,195.90741) scale(0.33839,0.33839)" font-size="40" xml:space="preserve" fill="#ff0000" fill-rule="nonzero" stroke="#ffffff" stroke-width="5" stroke-linecap="butt" stroke-linejoin="miter" stroke-miterlimit="10" stroke-dasharray="" stroke-dashoffset="0" font-family="Sans Serif" font-weight="normal" text-anchor="start" style="mix-blend-mode: normal"><tspan x="0" dy="0">+100</tspan></text><text transform="translate(224.92587,195.90741) scale(0.33839,0.33839)" font-size="40" xml:space="preserve" fill="#ff0000" fill-rule="nonzero" stroke="none" stroke-width="1" stroke-linecap="butt" stroke-linejoin="miter" stroke-miterlimit="10" stroke-dasharray="" stroke-dashoffset="0" font-family="Sans Serif" font-weight="normal" text-anchor="start" style="mix-blend-mode: normal"><tspan x="0" dy="0">+100</tspan></text></g></g></g></svg>