<svg version="1.1" xmlns="http://www.w3.org/2000/svg" xmlns:xlink="http://www.w3.org/1999/xlink" width="44.22795" height="55.6" viewBox="0,0,44.22795,55.6"><defs><linearGradient x1="240.86208" y1="160.3" x2="262.31076" y2="160.3" gradientUnits="userSpaceOnUse" id="color-1"><stop offset="0" stop-color="#fff0bc"/><stop offset="1" stop-color="#ffdd67"/></linearGradient><linearGradient x1="241.48079" y1="199.3" x2="262.92947" y2="199.3" gradientUnits="userSpaceOnUse" id="color-2"><stop offset="0" stop-color="#fff1bd"/><stop offset="1" stop-color="#ffdd67"/></linearGradient><linearGradient x1="244.23953" y1="187.73953" x2="268.35904" y2="187.73953" gradientUnits="userSpaceOnUse" id="color-3"><stop offset="0" stop-color="#ffeb7f"/><stop offset="1" stop-color="#ffdd67"/></linearGradient><linearGradient x1="243.68957" y1="172.33953" x2="267.80908" y2="172.33953" gradientUnits="userSpaceOnUse" id="color-4"><stop offset="0" stop-color="#ffe380"/><stop offset="1" stop-color="#ffdd67"/></linearGradient><linearGradient x1="228.05876" y1="180" x2="257.286" y2="180" gradientUnits="userSpaceOnUse" id="color-5"><stop offset="0" stop-color="#ffffff"/><stop offset="1" stop-color="#ffdd67"/></linearGradient><linearGradient x1="230.30847" y1="179.88531" x2="253.03008" y2="179.88531" gradientUnits="userSpaceOnUse" id="color-6"><stop offset="0" stop-color="#ffffff"/><stop offset="1" stop-color="#ffffff" stop-opacity="0"/></linearGradient></defs><g transform="translate(-227.819,-152)"><g data-paper-data="{&quot;isPaintingLayer&quot;:true}" fill-rule="nonzero" stroke="none" stroke-linejoin="miter" stroke-miterlimit="10" stroke-dasharray="" stroke-dashoffset="0" style="mix-blend-mode: normal"><path d="M240.86208,164.2l21.44868,-12.2l-9.53275,16.6z" fill="url(#color-1)" stroke-width="0" stroke-linecap="round"/><path d="M253.39673,191l9.53275,16.6l-21.44868,-12.2z" data-paper-data="{&quot;index&quot;:null}" fill="url(#color-2)" stroke-width="0" stroke-linecap="round"/><path d="M253.60329,182.159l14.75575,11.16105l-24.11951,-1.99586z" data-paper-data="{&quot;index&quot;:null}" fill="url(#color-3)" stroke-width="0" stroke-linecap="round"/><path d="M243.68957,168.75486l24.11951,-1.99586l-14.75575,11.16105z" data-paper-data="{&quot;index&quot;:null}" fill="url(#color-4)" stroke-width="0" stroke-linecap="round"/><path d="M248.34342,173.7011l23.70353,5.2594l-16.98716,6.34532z" data-paper-data="{&quot;index&quot;:null}" fill="#ffdb67" stroke-width="0" stroke-linecap="round"/><path d="M228.05876,180c0,-8.80514 6.54274,-15.94311 14.61362,-15.94311c8.07088,0 14.61362,7.13797 14.61362,15.94311c0,8.80514 -6.54274,15.94311 -14.61362,15.94311c-8.07088,0 -14.61362,-7.13797 -14.61362,-15.94311z" fill="url(#color-5)" stroke-width="NaN" stroke-linecap="butt"/><path d="M233.04797,192.18531c0,0 -5.21637,-4.38117 -5.22894,-12.00076c-0.01564,-9.48649 5.05164,-12.39924 5.05164,-12.39924l20.15941,-10.8v45z" fill="url(#color-6)" stroke-width="0" stroke-linecap="butt"/></g></g></svg>