<svg version="1.1" xmlns="http://www.w3.org/2000/svg" xmlns:xlink="http://www.w3.org/1999/xlink" width="34.17311" height="34.17311" viewBox="0,0,34.17311,34.17311"><g transform="translate(-222.91345,-162.91345)"><g data-paper-data="{&quot;isPaintingLayer&quot;:true}" stroke-miterlimit="10" stroke-dasharray="" stroke-dashoffset="0" style="mix-blend-mode: normal"><path d="M229.98311,162.91345h20.03379c3.9166,0 7.06966,3.15307 7.06966,7.06966v20.03379c0,3.91659 -3.15306,7.06966 -7.06966,7.06966h-20.03379c-3.91659,0 -7.06966,-3.15307 -7.06966,-7.06966v-20.03379c0,-3.91659 3.15307,-7.06966 7.06966,-7.06966z" fill="#760c0c" fill-rule="evenodd" stroke="none" stroke-width="4.43922" stroke-linecap="round" stroke-linejoin="round"/><g fill-rule="nonzero" stroke-width="0" stroke-linecap="butt" stroke-linejoin="miter"><path d="M225.224,172.63433l2.92437,-4.43991l25.96495,20.50214l-3.42671,4.06271z" fill="#000000" stroke="none"/><g fill="#9b0f0f"><path d="M254.776,184.28684l-9.73322,9.06537l-8.27524,-6.45487l-0.64037,-2.18633l-2.19452,-0.02494l-8.19331,-6.39096l6.42312,-11.64731z" data-paper-data="{&quot;index&quot;:null}" stroke="#000000"/><path d="M227.05881,179.30675l9.58967,-9.08948l8.34625,6.51025l-8.85903,7.97256l-2.19452,-0.02494z" stroke="none"/></g></g></g></g></svg>