<svg version="1.1" xmlns="http://www.w3.org/2000/svg" xmlns:xlink="http://www.w3.org/1999/xlink" width="35.2443" height="35.24396" viewBox="0,0,35.2443,35.24396"><g transform="translate(-222.91344,-162.91345)"><g data-paper-data="{&quot;isPaintingLayer&quot;:true}" stroke="none" stroke-miterlimit="10" stroke-dasharray="" stroke-dashoffset="0" style="mix-blend-mode: normal"><path d="M258.15774,170.42694v20.49804c0,4.00745 -3.22497,7.23243 -7.23242,7.23243h-20.5c-3.66107,0 -6.66147,-2.69385 -7.1543,-6.21484c0.7952,3.03475 3.54108,5.26367 6.83204,5.26367h20.0332c3.9166,0 7.07032,-3.15372 7.07032,-7.07031v-20.03321c0,-3.2976 -2.23906,-6.0451 -5.28321,-6.83398c3.52994,0.48496 6.23438,3.49081 6.23438,7.15821z" fill-opacity="0.29839" fill="#000000" fill-rule="evenodd" stroke-width="4.54219" stroke-linecap="round" stroke-linejoin="round"/><path d="M229.98311,162.91346h20.03379c3.9166,0 7.06966,3.15307 7.06966,7.06966v20.03379c0,3.91659 -3.15306,7.06966 -7.06966,7.06966h-20.03379c-3.91659,0 -7.06966,-3.15307 -7.06966,-7.06966v-20.03379c0,-3.91659 3.15307,-7.06966 7.06966,-7.06966z" fill="#760c0c" fill-rule="evenodd" stroke-width="4.43922" stroke-linecap="round" stroke-linejoin="round"/><g fill-rule="nonzero" stroke-linecap="butt" stroke-linejoin="miter"><path d="M226.53043,192.56829c0,0 3.64421,-5.62363 4.90016,-7.90702c0.91242,-1.65885 2.74265,-7.32668 2.74265,-7.32668l1.58694,-0.07203l-0.79181,4.33396l4.001,-1.31131l3.88313,1.32337c0,0 -4.38136,2.98105 -5.43496,4.7142c-0.96285,1.58385 -2.00006,3.31007 -2.44344,4.11616c-1.25286,2.27778 -2.37845,5.02369 -2.37845,5.02369z" fill="#000000" stroke-width="0"/><path d="M233.32205,184.65294c-0.47189,0.85792 -1.33096,1.29129 -1.91879,0.96796c-0.58783,-0.32333 -0.68183,-1.28092 -0.20994,-2.13884c0.47189,-0.85792 1.33096,-1.29129 1.91879,-0.96796c0.58783,0.32333 0.68183,1.28092 0.20994,2.13884z" fill="#9b0f0f" stroke-width="0"/><path d="M235.88612,191.84457c-0.62918,1.14389 -1.82183,1.69574 -2.66386,1.23259c-0.84203,-0.46315 -1.01458,-1.76591 -0.3854,-2.9098c0.62918,-1.14389 1.82183,-1.69574 2.66386,-1.23259c0.84203,0.46315 1.01458,1.76591 0.3854,2.9098z" fill="#9b0f0f" stroke-width="0"/><path d="M228.76198,191.03602c-0.34081,0.61961 -0.91331,0.95897 -1.27872,0.75798c-0.36541,-0.20099 -0.38535,-0.86621 -0.04455,-1.48582c0.34081,-0.61961 0.91331,-0.95897 1.27872,-0.75798c0.36541,0.20099 0.38535,0.86621 0.04455,1.48582z" fill="#9b0f0f" stroke-width="0"/><path d="M232.34511,183.97668c-0.2272,0.41307 -0.56594,0.66292 -0.75659,0.55806c-0.19065,-0.10486 -0.16101,-0.52473 0.06619,-0.9378c0.2272,-0.41307 0.56594,-0.66292 0.75659,-0.55806c0.19065,0.10486 0.16101,0.52473 -0.06619,0.9378z" fill="#000000" stroke-width="0"/><path d="M235.58263,191.71511c-0.35828,0.65138 -0.97071,1.00233 -1.3679,0.78386c-0.39718,-0.21847 -0.42872,-0.92362 -0.07044,-1.575c0.35828,-0.65138 0.97071,-1.00233 1.3679,-0.78386c0.39718,0.21847 0.42872,0.92362 0.07044,1.575z" fill="#000000" stroke-width="0"/><path d="M228.20247,190.6908c-0.1573,0.28597 -0.38784,0.46113 -0.51494,0.39122c-0.1271,-0.06991 -0.10262,-0.35841 0.05468,-0.64438c0.1573,-0.28597 0.38784,-0.46113 0.51494,-0.39122c0.1271,0.06991 0.10262,0.35841 -0.05468,0.64438z" fill="#000000" stroke-width="0"/><path d="M239.80421,180.98278c0,0 -1.50989,0.56759 -2.51377,0.75483c-0.24721,0.04611 -1.89528,0.12589 -1.89528,0.12589c0,0 0.36334,-0.55941 0.381,-0.97072c0.01765,-0.41131 -0.2838,-1.29369 -0.2838,-1.29369c0,0 -1.4422,-0.24511 -2.16417,-0.41003c-0.72197,-0.16492 -1.52986,-0.56169 -1.52986,-0.56169c0,0 0.7004,-0.73464 0.4704,-1.10364c-0.58249,-0.93451 -1.63709,-0.80282 -2.03133,-1.84675c-0.12472,-0.33025 -0.38819,-0.77227 -0.48511,-1.09369c-0.15894,-0.52708 -0.42729,-1.07013 -0.42729,-1.07013c0,0 -0.45108,-0.12128 -0.57152,-0.15735c-0.2276,-0.06817 -0.61527,-0.52852 -0.61527,-0.52852c0,0 0.31429,-0.25749 0.46367,-0.42933c0.24564,-0.28257 0.51384,-0.81525 0.51384,-0.81525c0,0 -0.23165,-0.26593 -0.49843,-0.41168c-0.26678,-0.14574 -0.61436,-0.19625 -0.61436,-0.19625c0,0 0.41955,-1.23053 0.69742,-1.6739c0.64998,-1.03711 1.15433,-1.53768 2.1057,-2.24996c0.32814,-0.24567 0.88666,-1.67777 1.78553,-1.4475c0.21151,0.05418 0.42808,0.0906 0.63755,0.09148c0.21217,0.00089 0.60332,-0.1981 0.66581,-0.385c0.08187,-0.24487 -0.19921,-0.69732 -0.19921,-0.69732c0,0 0.47116,0.06833 0.61728,0.04652c0.62297,-0.093 1.52087,-0.2463 2.15922,0.05995c0.50329,0.25315 0.77752,0.45733 1.32437,0.55722c0.54685,0.09989 1.91741,0.08416 2.75036,0.18706c1.67988,0.20754 2.41883,1.20304 3.57083,2.54585c0.63347,0.73841 1.30219,0.97963 1.95179,1.36056c0.5,0.29321 0.96424,0.72591 1.54252,1.18332c0.37142,0.2938 0.729,0.27266 1.25483,0.34901c0.38617,0.05607 1.02061,0.24464 1.02061,0.24464c0,0 -0.2515,0.28465 -0.28732,0.5117c-0.06832,0.4331 0.15008,0.76153 0.27167,1.12924c0.13019,0.39371 0.17987,0.81482 0.60571,0.90334c0.38241,0.0795 1.10274,0.27223 1.10274,0.27223c0,0 -0.46208,0.56035 -0.52171,0.8949c-0.05394,0.30264 0.07818,0.74194 0.10275,1.08462c0.03788,0.52839 -0.00331,0.91667 -0.00331,0.91667c0,0 0.95219,0.12876 1.52748,0.35755c0.42722,0.16991 0.78405,0.45465 0.78405,0.45465c0,0 -0.89673,0.61293 -1.27298,1.19824c-0.40722,0.63348 -0.58467,1.8363 -0.58467,1.8363c0,0 0.20097,0.0031 0.29518,-0.0031c0.10619,-0.00699 0.31031,-0.03676 0.31031,-0.03676c0,0 -0.34341,1.09923 -0.8366,1.56385c-0.62141,0.58542 -1.41806,1.08012 -2.14583,1.16679c-0.67769,0.0807 -1.49351,-0.88543 -1.49351,-0.88543c0,0 -0.26564,0.34433 -0.50545,0.50839c-0.47262,0.32333 -1.17123,0.43292 -1.78892,0.46721c-0.14744,-0.00925 -0.68337,-0.02392 -0.77262,-0.13582c-0.02585,-0.03241 0.13374,-0.31426 0.17312,-0.66466c0.04225,-0.3759 -0.0345,-0.82089 -0.0345,-0.82089c0,0 -2.15856,0.09081 -3.53445,-0.02053c-0.98944,-0.08007 -1.47445,-0.86241 -1.47445,-0.86241z" fill="#9b0f0f" stroke-width="0.5"/></g></g></g></svg>