<svg version="1.1" xmlns="http://www.w3.org/2000/svg" xmlns:xlink="http://www.w3.org/1999/xlink" width="548.04805" height="416.19847" viewBox="0,0,548.04805,416.19847"><defs><radialGradient cx="240" cy="180" r="254.5045" gradientUnits="userSpaceOnUse" id="color-1"><stop offset="0" stop-color="#540000"/><stop offset="1" stop-color="#270000"/></radialGradient><linearGradient x1="240.56859" y1="182.17726" x2="240.56859" y2="304.2093" gradientUnits="userSpaceOnUse" id="color-2"><stop offset="0" stop-color="#990f0f"/><stop offset="1" stop-color="#990f0f" stop-opacity="0"/></linearGradient><radialGradient cx="240" cy="180" r="274.02402" gradientUnits="userSpaceOnUse" id="color-3"><stop offset="0" stop-color="#000000" stop-opacity="0"/><stop offset="1" stop-color="#000000"/></radialGradient><linearGradient x1="240.51655" y1="292.40364" x2="240.51655" y2="307.90364" gradientUnits="userSpaceOnUse" id="color-4"><stop offset="0" stop-color="#000000" stop-opacity="0"/><stop offset="1" stop-color="#000000"/></linearGradient></defs><g transform="translate(34.02402,24.47053)"><g data-paper-data="{&quot;isPaintingLayer&quot;:true}" fill-rule="nonzero" stroke-linejoin="miter" stroke-miterlimit="10" stroke-dasharray="" stroke-dashoffset="0" style="mix-blend-mode: normal"><path d="M-14.5045,379.6997v-399.3994h509.00901v399.3994z" fill="url(#color-1)" stroke="none" stroke-width="0" stroke-linecap="butt"/><path d="M200.65855,249.12412c0,0 -0.34752,-51.6856 -0.42147,-62.7445c-0.05451,-8.15261 8.18688,-36.76129 40.20201,-36.9211c31.60235,-0.15775 39.85672,29.48704 39.84884,36.89673c-0.03202,19.33453 0.21496,61.26969 0.21496,61.26969l-10.13246,2.49522l-0.0837,-60.52539c0,0 0.07549,-3.0993 -2.81625,-3.15415c-3.43441,-0.06514 -2.94538,3.11562 -2.94538,3.11562c0,0 0.38124,27.68618 0.09034,50.91762c-0.11025,8.80464 -1.17341,16.96941 -1.13794,22.74459c0.09652,15.71668 1.75308,41.20774 1.75308,41.20774l-49.21366,0.07222c0,0 1.04187,-24.7934 1.06804,-40.2908c0.01061,-6.28306 -1.06227,-15.45322 -1.16994,-25.23874c-0.25454,-23.13238 0.2965,-49.70355 0.2965,-49.70355c0,0 0.27949,-2.919 -2.8856,-2.93443c-3.11083,-0.01515 -2.81569,2.90899 -2.81569,2.90899l0.19141,62.37452z" fill="#ffffff" stroke="#000000" stroke-width="2" stroke-linecap="butt"/><path d="M255.6276,200.33382c-0.57113,0 -1.03411,-0.46299 -1.03411,-1.03411c0,-0.57113 0.46299,-1.03413 1.03411,-1.03413c0.57113,0 1.03411,0.463 1.03411,1.03413c0,0.57113 -0.46299,1.03411 -1.03411,1.03411z" fill="#000000" stroke="none" stroke-width="1.5" stroke-linecap="butt"/><path d="M250.36774,204.56941c-4.4635,-0.31439 -6.55245,-1.79392 -6.16985,-2.58011c0.11788,-0.24224 2.84645,1.06355 6.97038,1.3048c6.40897,0.37493 8.51033,-0.63173 8.51033,-0.63173v1.34616c0,0 -2.4135,1.04672 -9.31086,0.56089z" fill="#000000" stroke="#000000" stroke-width="0" stroke-linecap="butt"/><path d="M222.55497,199.29971c0,-0.57113 0.46299,-1.03413 1.03411,-1.03413c0.57113,0 1.03413,0.463 1.03413,1.03413c0,0.57113 -0.463,1.03411 -1.03413,1.03411c-0.57113,0 -1.03411,-0.46299 -1.03411,-1.03411z" fill="#000000" stroke="none" stroke-width="1.5" stroke-linecap="butt"/><path d="M228.84899,204.56941c-6.89736,0.48585 -9.31086,-0.56089 -9.31086,-0.56089v-1.34616c0,0 2.10136,1.00666 8.51033,0.63173c4.12393,-0.24126 6.85251,-1.54704 6.97039,-1.3048c0.3826,0.78618 -1.70634,2.26571 -6.16985,2.58011z" fill="#000000" stroke="#000000" stroke-width="0" stroke-linecap="butt"/><path d="M240.12945,261.12113c-0.81895,0 -1.48284,-0.66389 -1.48284,-1.48284c0,-0.81895 0.66389,-1.48284 1.48284,-1.48284c0.81895,0 1.48284,0.66389 1.48284,1.48284c0,0.81895 -0.66389,1.48284 -1.48284,1.48284z" data-paper-data="{&quot;index&quot;:null}" fill="#000000" stroke="none" stroke-width="1.5" stroke-linecap="butt"/><path d="M212.06616,304.40603c0,0 0.90983,-28.11333 1.46459,-44.64532c0.34518,-10.28651 -1.35184,-23.32051 -1.65544,-38.15605c-0.33838,-16.5353 0.69085,-34.4001 0.69085,-34.4001l3.5,-31.32657c0,0 2.67319,-1.35297 4.6557,-2.74807c1.98251,-1.3951 5.17197,-2.80371 5.17197,-2.80371c0,0 -2.93285,6.1796 -1.25992,9.32472c2.68414,5.04621 15.81944,15.38062 15.81944,15.38062c0,0 12.69182,-9.24983 15.22319,-14.2593c1.88732,-3.73492 -1.39165,-10.44603 -1.39165,-10.44603c0,0 3.91276,1.51959 6.16585,2.94655c2.25309,1.42695 4.75379,3.60523 4.75379,3.60523l1,29.33138c0,0 2.38623,16.33153 2.85457,34.14396c0.37992,14.44959 -1.18613,29.70272 -0.86049,39.36566c0.56495,16.76454 1.00592,44.68705 1.00592,44.68705z" fill="#b31212" stroke="none" stroke-width="2" stroke-linecap="butt"/><path d="M219.76409,275.61708c0,0 -12.7554,-5.84923 -17.58629,-13.59721c-4.83089,-7.74798 -6.57609,-15.72476 -8.6191,-23.46349c-1.3605,-5.15345 -0.12035,-22.20374 1.58519,-34.28471c1.654,-11.71586 3.36505,-21.57243 4.62019,-24.65458c2.43034,-5.96794 6.05049,-13.57551 9.23286,-17.51475c3.67556,-4.54971 8.01714,-6.48525 8.01714,-6.48525c0,0 -0.55529,8.22594 -0.97495,17.01889c-0.58892,12.33927 -2.40307,28.74909 -2.91485,36.35429c-0.47415,7.04592 -1.07655,16.94635 -1.07655,16.94635c0,0 2.86977,13.7991 4.5297,15.94063c1.7416,2.24689 5.68666,5.23985 5.68666,5.23985z" fill="#740c0c" stroke="none" stroke-width="2" stroke-linecap="butt"/><path d="M258.02386,247.11708c0,0 4.84717,-2.4829 6.66017,-5.25254c1.813,-2.76964 3.63368,-16.80624 3.63368,-16.80624c0,0 -0.69979,-10.31783 -1.15404,-17.06804c-0.51178,-7.6052 -2.32594,-24.01501 -2.91485,-36.35429c-0.41967,-8.79295 -0.72495,-16.26889 -0.72495,-16.26889c0,0 4.76579,2.45604 8.92627,7.87319c2.87308,3.7409 5.93439,10.12342 8.07373,15.37681c1.25515,3.08216 2.96619,12.93873 4.62019,24.65458c1.70554,12.08097 2.84326,29.00889 1.58519,39.78471c-0.79552,6.81392 -5.03181,16.77849 -9.8742,22.71734c-7.44856,9.13513 -16.33119,12.84336 -16.33119,12.84336z" data-paper-data="{&quot;index&quot;:null}" fill="#740c0c" stroke="none" stroke-width="2" stroke-linecap="butt"/><path d="M194.08616,105.00321c0,0 6.00273,-6.08457 6.10785,-6.95343c0.2757,-2.27882 -1.24199,-40.15432 34.84314,-42.52078c44.59594,-2.10693 39.94621,34.29276 42.64426,41.06462c1.23885,3.10941 2.33196,6.06998 2.90557,8.64159c1.13928,5.10766 0.96516,8.66125 0.96516,8.66125c0,0 -1.41719,-1.91662 -2.41267,-3.07055c-0.99548,-1.15393 -2.88455,-3.06981 -2.88455,-3.06981c0,0 2.94548,9.47272 1.64254,19.85816c-1.30693,10.41724 -1.36873,8.53334 -2.5203,12.61251c-0.62548,2.21564 -1.43182,3.04765 -1.43182,3.04765l-0.71099,-1.59295c0,0 -0.32114,1.28093 -0.63694,1.95162c-0.3333,0.70784 -1.3132,2.18997 -1.3132,2.18997l-1.21758,-2.31562c0,0 -0.96352,2.2245 -2.07016,3.38931c-1.10665,1.1648 -3.35961,3.00364 -3.35961,3.00364l-0.19107,-3.70042c0,0 -6.76294,11.20281 -24.05123,11.51882c-16.30725,0.18067 -26.34766,-9.97419 -26.34766,-9.97419l-0.04516,2.657l-2.83115,-3.75604c0,0 -0.34383,0.66194 -0.46289,0.99903c-0.12275,0.34754 -0.26289,1.05578 -0.26289,1.05578c0,0 -2.48681,-3.44365 -3.6282,-6.65048c-1.78546,-5.01642 -2.67701,-8.01649 -2.8194,-13.33929c0,0 -2.28746,1.96103 -5.6408,2.92629c-4.20194,1.20953 -6.93493,0.5309 -6.93493,0.5309c0,0 3.534,-2.81268 5.45441,-4.91751c1.71055,-1.87481 2.55532,-3.44679 2.55532,-3.44679c0,0 -2.07782,1.14067 -4.18799,1.73056c-2.20172,0.6155 -4.01444,0.63851 -4.01444,0.63851c0,0 4.83844,-5.16852 6.73743,-11.05841c1.79295,-5.56101 1.80595,-11.00954 1.80595,-11.00954c0,0 -1.34347,0.69781 -3.30768,0.8839c-1.24505,0.11797 -2.37831,0.0147 -2.37831,0.0147z" fill="#000000" stroke="none" stroke-width="1.5" stroke-linecap="butt"/><path d="M272.51631,157.15514c4.65148,3.41744 0.70338,7.15605 0.70338,7.15605c0,0 -2.74889,-3.23397 -4.47957,-4.60502c-1.39666,-1.10644 -10.83304,5.90749 -14.69097,10.04023c-4.09507,4.38677 -13.66279,12.76479 -13.66279,12.76479c0,0 -8.9097,-6.99967 -12.90853,-11.32205c-4.05835,-4.3867 -14.17044,-12.48362 -15.60013,-11.12415c-1.58045,1.50283 -4.74134,4.7462 -4.74134,4.7462c0,0 -1.69347,-5.57353 5.56222,-10.88073c4.88117,-3.57035 19.24463,-3.91602 28.18778,-4.11927c12.16509,-0.27647 26.26548,3.40267 31.62995,7.34395z" fill="#bf1313" stroke="#000000" stroke-width="0" stroke-linecap="round"/><path d="M265.56367,155.5317c2.474,1.31224 0.57832,1.80964 -0.96416,3.04074c-1.30769,1.0437 -8.05099,3.59948 -11.48796,6.25751c-7.51421,5.81122 -16.18317,6.77183 -23.67199,0.92792c-3.61552,-2.82137 -11.87561,-6.55483 -13.89792,-7.15466c-2.02231,-0.59983 -2.08135,-2.46024 0.73131,-3.94551c4.34856,-2.29632 17.14475,-2.51863 25.11207,-2.64936c10.8377,-0.17783 21.70464,2.21113 24.17865,3.52336z" fill="#740c0c" stroke="#000000" stroke-width="0" stroke-linecap="round"/><path d="M211.1688,115.87191c-0.77192,-7.27519 -0.12386,-17.1573 -0.12386,-17.1573c0,0 3.40827,-0.13243 13.82523,-3.5152c8.00296,-2.59888 20.28626,-10.03329 20.28626,-10.03329c0,0 -2.07892,3.06172 -3.28732,4.54968c-1.28467,1.58188 -3.86947,4.66811 -3.86947,4.66811c0,0 7.7906,-1.87661 14.54304,-5.12004c8.47075,-3.76362 10.42686,-6.33418 12.82297,-4.93737c2.828,1.64858 1.64963,23.14686 1.48677,28.71113c-0.26988,5.67847 -2.27833,9.56404 -2.81437,12.6003c-0.53604,3.03626 -0.24535,6.14538 -1.77651,16.09296c-0.95554,6.20798 -3.92168,9.03276 -9.62379,14.9235c-5.7021,5.89075 -8.80311,9.49155 -12.75966,9.6664c-3.80763,0.16827 -9.06884,-4.85942 -14.20808,-10.00607c-5.47244,-5.48036 -9.09841,-8.23677 -10.11689,-14.87453c-0.91726,-5.978 -1.04122,-9.88422 -1.53002,-15.21288c-0.35725,-3.89457 -2.43273,-6.38227 -2.8543,-10.35539z" fill="#ffffff" stroke="#000000" stroke-width="1.5" stroke-linecap="butt"/><path d="M259.09462,99.94486c0,0 1.41563,0.64856 3.90306,2.02748c2.27199,1.2595 3.95107,2.68838 3.95107,2.68838l-0.06962,1.18445c0,0 -6.37374,-4.66147 -14.18997,-5.76507c-6.24967,-0.88239 -10.33894,0.53009 -10.33894,0.53009l0.97198,-4.06242c0,0 3.4278,-0.96729 8.07937,-0.0633c4.81667,0.93608 7.75762,2.37289 7.75762,2.37289z" data-paper-data="{&quot;index&quot;:null}" fill="#000000" stroke="none" stroke-width="1.5" stroke-linecap="butt"/><path d="M247.20726,142.78501c0.57586,0.19653 3.11989,1.31646 6.09111,2.43385c2.99489,1.12629 6.69396,2.91498 6.67895,3.083c-0.01906,0.21324 -9.84658,-0.30986 -13.07918,0.18206c-2.70897,0.41223 -6.66741,0.88425 -6.66741,0.88425c0,0 -7.13253,-0.9713 -13.33299,-2.08941c-4.96945,-0.89612 -8.76301,1.47378 -8.77617,1.38057c-0.01776,-0.1257 2.17098,-3.67008 5.10746,-4.43284c1.13216,-0.52707 5.39805,-1.63006 5.39805,-1.63006c0,0 4.94665,-0.41009 7.62102,0.37534c2.86556,0.84158 2.89984,2.36886 3.14802,2.38573c0,0 1.13716,-1.78037 2.31173,-2.1672c1.17459,-0.38683 5.06924,-0.55209 5.49941,-0.40529z" fill="#ffffff" stroke="#000000" stroke-width="1.4" stroke-linecap="butt"/><path d="M228.6877,147.83562c5.11678,0.89023 11.98837,2.48766 11.98837,2.48766c0,0 5.74608,-1.71012 8.3947,-2.05962c2.05341,-0.27097 10.81998,0.00412 10.87419,0.37557c0.05301,0.36318 -8.30987,12.12688 -20.43455,11.99788c-13.77627,-0.06741 -21.54623,-12.11374 -21.51293,-12.28383c0.0333,-0.17008 5.57344,-1.4079 10.69022,-0.51766z" fill="#ffffff" stroke="#000000" stroke-width="1.9" stroke-linecap="butt"/><path d="M242.97219,117.20359c1.77307,3.97099 6.01552,6.45943 10.53582,5.81827c4.52029,-0.64116 7.90339,-4.2112 8.50227,-8.51862c0.23593,0.64171 0.40815,1.31794 0.50805,2.02223c0.76267,5.37698 -2.97797,10.35416 -8.35496,11.11683c-5.37698,0.76267 -10.35416,-2.97797 -11.11683,-8.35496c-0.0999,-0.70429 -0.12253,-1.40173 -0.07435,-2.08374z" data-paper-data="{&quot;index&quot;:null}" fill="#b7b7b7" stroke="none" stroke-width="0" stroke-linecap="butt"/><path d="M239.578,144.54955c-1.03339,0.02764 -3.62402,-3.16464 -3.92878,-5.26052c-0.27267,-1.87524 1.21228,-3.86179 3.68298,-3.92788c2.47071,-0.06609 4.21372,0.37822 4.14056,4.07926c-0.0621,3.14096 -1.42406,5.04305 -3.89476,5.10915z" fill="#ffffff" stroke="#000000" stroke-width="1.15" stroke-linecap="butt"/><path d="M242.37406,114.37027c0,0 0.20872,3.9656 0.19633,7.12392c-0.02451,6.25402 -0.33872,27.77969 -0.33872,27.77969l-2.98037,0.08837c0,0 -0.91424,-4.14978 -1.37686,-9.46636c-0.6262,-7.19646 -0.88504,-16.27536 -1.28816,-19.60485c-0.38211,-3.15604 -1.04842,-5.68853 -1.04842,-5.68853" fill="#ffffff" stroke="#000000" stroke-width="1.3" stroke-linecap="round"/><path d="M234.98462,119.17555c-0.21011,5.42674 -4.77966,9.65565 -10.20639,9.44554c-5.42674,-0.21011 -9.65565,-4.77966 -9.44554,-10.20639c0.02752,-0.71082 0.12983,-1.40107 0.29908,-2.06351c1.0352,4.22384 4.7649,7.43011 9.32702,7.60673c4.56212,0.17663 8.52854,-2.73167 9.88722,-6.86282c0.11751,0.67353 0.16616,1.36964 0.13863,2.08045z" fill="#b7b7b7" stroke="none" stroke-width="0" stroke-linecap="butt"/><path d="M213.13858,125.94607c0,0 -5.0244,-3.3839 -6.40197,-8.80697c-1.44947,-5.70612 -1.72093,-9.69025 0.21276,-10.0012c1.93369,-0.31097 2.76581,2.30378 3.95473,8.25289c1.18891,5.9491 2.23449,10.55529 2.23449,10.55529z" data-paper-data="{&quot;index&quot;:null}" fill="#ffffff" stroke="#000000" stroke-width="1" stroke-linecap="butt"/><path d="M212.83046,122.00533c0,0 -3.64075,-2.82703 -4.5426,-8.33211c-0.50309,-3.07091 2.095,-2.33702 2.095,-2.33702" fill="none" stroke="#000000" stroke-width="0.25" stroke-linecap="round"/><path d="M215.66483,115.27122c-0.05991,-4.89203 4.59765,-9.06228 9.97084,-9.1281c5.37318,-0.06581 9.13762,4.00548 9.19754,8.89752c0.05991,4.89203 -3.88687,8.50151 -9.26006,8.56733c-5.37318,0.06581 -9.84841,-3.44471 -9.90832,-8.33675z" fill="#ffffff" stroke="#000000" stroke-width="1.4" stroke-linecap="butt"/><path d="M226.14526,115.75784c-0.02215,-1.80786 1.42547,-3.29135 3.23331,-3.3135c1.80786,-0.02215 3.29135,1.42547 3.3135,3.23331c0.02215,1.80786 -1.42546,3.29135 -3.23331,3.3135c-1.80786,0.02215 -3.29135,-1.42547 -3.3135,-3.23331z" fill="#000000" stroke="none" stroke-width="1.5" stroke-linecap="butt"/><path d="M242.71145,114.54842c0.07274,-4.89186 4.21416,-8.97437 9.5301,-9.11658c5.31593,-0.14221 9.37727,3.71664 9.5081,8.60729c0.13083,4.89065 -3.64189,9.17171 -9.4517,9.39799c-5.52619,0.21525 -9.66246,-3.77988 -9.5865,-8.8887z" fill="#ffffff" stroke="#000000" stroke-width="1.4" stroke-linecap="butt"/><path d="M253.57127,115.15853c-0.04646,-1.73693 1.32392,-3.18266 3.06086,-3.22912c1.73693,-0.04646 3.18266,1.32392 3.22912,3.06086c0.04646,1.73693 -1.32392,3.18266 -3.06086,3.22912c-1.73693,0.04646 -3.18266,-1.32392 -3.22912,-3.06086z" fill="#000000" stroke="none" stroke-width="1.5" stroke-linecap="butt"/><path d="M215.58219,114.74106c0,0 -0.17753,-9.0136 10.36133,-9.10523c9.47206,-0.08747 9.80369,9.14834 9.80369,9.14834c0,0 -3.91787,-4.21553 -10.08232,-3.93999c-6.16445,0.27553 -10.0827,3.89689 -10.0827,3.89689z" fill="#ffffff" stroke="#000000" stroke-width="1.15" stroke-linecap="butt"/><path d="M242.32319,114.15665c0,0 -0.4997,-9.44822 10.95069,-9.3994c9.71971,0.07358 9.80147,9.39354 9.80147,9.39354c0,0 -4.45666,-4.41877 -10.41631,-4.32463c-5.95965,0.09414 -10.33585,4.33048 -10.33585,4.33048z" fill="#ffffff" stroke="#000000" stroke-width="1.15" stroke-linecap="butt"/><path d="M218.78525,103.04837c0,0 2.82099,-2.58944 7.22813,-4.18099c0.79352,-0.28657 2.56816,-0.81606 2.56816,-0.81606l1.04274,1.41564l0.03891,-1.7012l3.86521,-0.8667l1.30021,3.93893c0,0 -3.88537,0.28024 -7.9011,1.46003c-5.37055,1.57782 -6.09096,3.01793 -10.10177,4.50462c-3.43667,1.27388 -6.49279,1.80535 -6.49279,1.80535l-0.32696,-1.18763c0,0 3.50364,-0.80948 5.0573,-1.34909c1.28234,-0.44538 3.62449,-1.88394 3.62449,-1.88394z" fill="#000000" stroke="none" stroke-width="1.5" stroke-linecap="butt"/><path d="M267.06855,113.88832c0.86915,-6.00416 1.56029,-8.65965 3.50784,-8.45252c1.94755,0.20713 1.88948,4.20006 0.74716,9.97552c-1.08567,5.48897 -5.92196,9.13665 -5.92196,9.13665c0,0 0.79782,-4.6555 1.66697,-10.65966z" data-paper-data="{&quot;index&quot;:null}" fill="#ffffff" stroke="#000000" stroke-width="1" stroke-linecap="butt"/><path d="M267.37219,109.81168c0,0 2.55514,-0.87176 2.21695,2.22167c-0.60623,5.54542 -4.09063,8.56306 -4.09063,8.56306" data-paper-data="{&quot;index&quot;:null}" fill="none" stroke="#000000" stroke-width="0.25" stroke-linecap="round"/><path d="M262.12507,130.19407c0.71747,-0.82774 2.2868,1.29791 1.19096,2.27739c0.1141,0.7272 -0.49698,1.6736 -0.68829,2.60996c0.14738,1.16563 0.13814,2.36737 -0.14778,3.32418l0.01175,0.43927c0.00738,0.27604 -0.21041,0.50581 -0.48645,0.51319c-0.00176,0.00005 -0.00353,0.00008 -0.00529,0.00011c0.18469,0.66775 0.37387,1.24884 0.52426,1.66182c0,0 0.17074,0.46994 -0.2992,0.64069c-0.11247,0.04086 -0.20779,0.04503 -0.28775,0.02772c-0.04303,0.45235 -0.23295,0.69046 -0.61126,0.87521l0.04375,0.06196l-0.48532,0.34264c-0.07897,0.05749 -0.17556,0.0925 -0.28059,0.09531c-0.27604,0.00738 -0.50581,-0.21041 -0.51319,-0.48645c-0.00281,-0.10502 0.02698,-0.20335 0.08017,-0.28529l0.25413,-0.40422c-0.05131,-0.57645 -0.12735,-1.13389 -0.18485,-1.70088c-0.19797,-0.47375 -0.41538,-0.94358 -0.41871,-1.45631c-0.00481,-0.74121 0.63724,-1.03536 0.81064,-1.64797c0.00752,-0.02656 0.01488,-0.05314 0.02209,-0.07973c-0.05456,-0.66956 -0.0821,-1.36131 -0.10206,-2.10735c-0.01474,-0.55111 -0.41397,-1.94444 -0.17171,-2.39887c0.18648,-0.34981 0.60161,-0.56073 1.03108,-0.71243c0.0481,-0.51704 0.26003,-1.08078 0.4386,-1.36904c0,0 0.10005,-0.15914 0.27504,-0.22092z" fill="#000000" stroke="none" stroke-width="0.5" stroke-linecap="butt"/><path d="M258.87094,140.60897c-0.00738,-0.27604 0.21041,-0.50581 0.48645,-0.51319c0.27604,-0.00738 0.50581,0.21041 0.51319,0.48645c0.00738,0.27604 -0.21041,0.50581 -0.48645,0.51319c-0.27604,0.00738 -0.50581,-0.21041 -0.51319,-0.48645z" fill="#000000" stroke="none" stroke-width="0.5" stroke-linecap="butt"/><path d="M259.42089,129.26456c-0.07183,-0.19705 0.02234,-0.39868 0.02234,-0.39868l0.7561,-0.60451c1.1923,0.59043 1.00674,1.4607 -0.28078,1.64911c0,0 -0.49982,0.01337 -0.51319,-0.48645c-0.0016,-0.05987 0.00416,-0.11275 0.01554,-0.15947z" fill="#000000" stroke="none" stroke-width="0.5" stroke-linecap="butt"/><path d="M236.59937,120.28852c-0.23549,-0.44107 0.20559,-0.67656 0.20559,-0.67656l0.09399,0.02451c0.26848,-0.14316 -0.61996,-0.76027 -0.88784,-1.13625c0,0 -0.28838,-0.40846 0.12009,-0.69684c0.40846,-0.28838 0.69684,0.12009 0.69684,0.12009c0.6438,0.92206 1.46791,1.03199 0.91751,2.24526l-0.4696,0.32539c0,0 -0.44107,0.23549 -0.67656,-0.20559z" fill="#000000" stroke="none" stroke-width="0.5" stroke-linecap="butt"/><path d="M240.38535,182.50694l0.50054,-0.32967l0.28846,122.03205l-1.21153,-121.95512z" fill="url(#color-2)" stroke="#000000" stroke-width="0" stroke-linecap="round"/><path d="M218.62185,280.13543l3.14473,-35.66667c0,0 11.40944,-1.66667 17.4659,-1.66667c6.56481,0 20.52094,1.66667 20.52094,1.66667l2.86842,35c0,0 -15.27797,2.23148 -22.7287,2.34437c-7.20789,0.10921 -21.2713,-1.67771 -21.2713,-1.67771z" fill="#990f0f" stroke="none" stroke-width="2" stroke-linecap="butt"/><path d="M225.22601,128.35495c0,0 2.57639,0.05087 4.19847,-0.68093c1.5652,-0.70614 3.31091,-2.74772 3.31091,-2.74772c0,0 -1.15217,2.44677 -3.11553,3.33254c-1.96335,0.88576 -4.39385,0.09612 -4.39385,0.09612z" fill="#000000" stroke="none" stroke-width="0.5" stroke-linecap="butt"/><path d="M248.34154,127.25884c-1.96335,-0.88577 -3.11552,-3.33254 -3.11552,-3.33254c0,0 1.74572,2.04159 3.31091,2.74773c1.62207,0.7318 4.19846,0.68093 4.19846,0.68093c0,0 -2.4305,0.78965 -4.39385,-0.09611z" data-paper-data="{&quot;index&quot;:null}" fill="#000000" stroke="none" stroke-width="0.5" stroke-linecap="butt"/><path d="M475.6032,101.18106l0.01291,-0.83982c-1.90346,-5.71038 2.50158,-10.05349 6.93239,-12.99223c1.13594,-0.75341 3.54265,-2.54479 5.08043,-1.5186c1.43742,0.95921 0.97367,3.56774 0.97256,4.90917c-0.87379,7.52171 -1.79233,15.03736 -2.58504,22.56814c-0.26044,2.47415 -0.21867,4.91066 -0.41324,7.37334c-0.04547,0.57556 0.09265,1.27735 -0.29289,1.70711c-0.80607,0.89851 -4.02527,0.79208 -5.12217,0.78928c-12.57992,2.1916 -24.78518,7.1165 -36.96375,10.98594c-11.50828,3.65647 -23.08318,7.21215 -34.46101,11.00476c-1.83548,0 -3.28238,0.50708 -5.16018,0.51291c-1.38613,0.0043 -3.42886,-0.36748 -4.77025,-0.02675c-0.72241,0.1835 -1.27095,0.84497 -2,1c-4.94416,1.05137 -14.18593,2.89023 -18.31446,-1.16201c-3.23466,-1.57404 -6.71291,-3.17109 -8.76594,-6.28551c-1.24363,-1.88656 -0.86507,-4.13032 -2,-6c-1.9053,-3.13879 -4.47375,-5.10276 -7.02248,-7.51106c-0.43727,0.04737 -0.79124,-0.26727 -0.79124,-0.26727c-3.21719,-2.85972 -6.50492,-5.8548 -9.92035,-8.43617c-2.15154,-1.62613 -5.15519,0.23708 -7.1224,-1.60414c-1.50141,-1.40525 -1.47587,-3.49574 -0.68732,-5.15432c0.09322,-0.18182 0.18983,-0.3513 0.28966,-0.50913c-0.16049,-0.05226 -0.30219,-0.11598 -0.42097,-0.193c-2.74586,-1.78069 -3.01764,-9.8604 0.29598,-10.8239c1.18774,-0.34536 2.50476,-0.33899 3.86228,-0.15456c-0.20564,-0.05851 -0.3776,-0.16117 -0.48318,-0.34646c-0.83257,-1.46116 1.45124,-3.4335 2.40344,-3.92016c3.57593,-1.82761 7.98041,-0.57882 11.67697,-0.57882c2.53551,1.20547 5.50781,1.42354 7.85496,3.16201c1.19898,0.88805 2.56994,1.7852 3.88886,2.75026c-0.29336,-3.004 -2.1662,-5.7357 -4.28481,-7.85431c-0.80309,-1.60618 -3.16931,-3.14167 -3.18876,-5.08471c-0.0217,-2.16774 2.39344,-3.8291 4.38268,-2.92388c2.28486,1.03974 4.65544,3.05579 6.70203,4.61264c2.60683,1.98303 5.61469,3.07653 8.47513,4.98264c4.03183,2.77309 7.10771,8.23879 7.92725,13.16842c0.43054,2.58976 0.25765,5.50452 0.12015,8.29939c1.20004,-0.59244 2.3731,-1.23676 3.38129,-2.02705c2.42957,-1.90447 2.95633,-4.74759 4.08759,-7.49485c0.51214,-1.24373 1.45865,-1.88338 2.02945,-3.06453c0.96128,-1.87496 1.83562,-1.92068 3.4409,-2.98068c3.04962,-2.01373 5.43616,-4.62953 9.22378,-5.54536c2.58189,-0.62429 6.90224,0.96915 6.203,4.203c-0.49382,2.28386 -2.71283,3.92404 -4.26614,5.47735c-2.16675,2.15078 -4.61615,5.43712 -5.23386,8.52265c-0.22155,1.10668 -0.15459,2.2803 -0.05724,3.46171c13.2356,-2.03794 27.0563,-3.4044 39.78845,-7.6468c6.14284,-1.75604 12.52733,-3.13967 18.84497,-4.08962c2.17058,-0.32638 4.55414,-0.60774 6.87525,-1.09865c0.00891,-0.16524 0.01685,-0.33053 0.0239,-0.49558c-0.44858,-0.27483 -0.44858,-0.86082 -0.44858,-0.86082zM354.34348,100.44216c-0.22713,-0.12936 -0.45634,-0.25171 -0.6875,-0.36667c-2.33116,-1.16558 -3.60259,-0.98678 -6.05279,-1.39443c-0.26843,-0.04466 -0.5878,-0.03672 -0.89017,-0.05615c2.54759,0.41722 5.19997,1.38342 7.3809,1.77156c0.08324,0.01489 0.16643,0.03013 0.24956,0.0457z" fill="#000000" stroke="none" stroke-width="0.5" stroke-linecap="butt"/><path d="M168.60469,62.62805c5.22696,3.91625 -1.90099,10.12907 -5.45167,11.0863c-1.42351,0.0123 -2.82799,0.56605 -4.24656,0.35303c-3.31312,-0.49751 -6.71501,-3.34157 -9.17847,-5.52305c-1.16024,-1.02744 -2.45552,-1.81239 -3.65281,-2.67878c0.04237,0.1865 0.08494,0.37145 0.12814,0.55433c0.56536,2.3931 1.41224,4.88804 1.82416,7.23815c0.77959,4.44773 -1.70095,9.75234 -3.79821,13.85133c0.07041,0.40897 -0.1053,0.78085 -0.1053,0.78085c-1.6258,3.44093 -3.20133,5.14876 -5.65794,7.80249l-1.31662,0.33807c0,0 -0.03298,0 -0.08747,-0.00607c-1.73039,3.07954 -3.93613,5.64637 -6.65692,7.16338c-1.98089,1.37051 -3.78498,2.59373 -5.74897,3.3977c-1.25621,2.67344 -2.32616,5.73742 -4.11473,8.06737c-3.10368,4.04312 -9.07809,2.66058 -11.17622,-1.62082c-0.16341,-7.94941 4.04299,-14.94944 4.8828,-22.86793c0.08831,-0.83265 0.00834,-1.84004 -0.07684,-2.88489c-1.92328,5.53712 -3.64006,11.97045 -8.01492,15.45878c-2.23307,1.78055 -6.56181,2.42343 -8.18981,-0.49466c-0.37924,-0.67976 -0.75581,-2.7739 -1.14457,-3.63922c-0.14763,-7.18181 3.79375,-13.66856 4.89317,-20.64915c0.3089,-1.96131 1.1358,-4.78843 0.65924,-6.82837c-0.04366,-0.18688 -0.04417,0.42196 -0.18554,0.54312c-0.3359,0.28791 -0.75986,0.44097 -1.16111,0.61111c-0.05663,0.02401 -3.24151,1.14648 -3.34466,1.18286c-3.17653,1.11908 -6.1125,2.84129 -9.25103,4.03248c-5.171,1.9626 -10.75247,2.57176 -16.0973,3.78392c-3.46473,0.78577 -9.52672,3.16452 -12.79589,0.61731c-1.02489,-0.79855 -1.28943,-2.32286 -1.96263,-3.46586c-1.29782,-5.36771 -0.72498,-9.9481 -0.35761,-15.39069c0.70444,-10.43635 2.41236,-20.74826 3.12574,-31.19415c0.8685,-12.71732 0.51507,-25.27885 0.46098,-37.96585c-0.00216,0 -0.00432,0 -0.00648,0h-1.09073c0,0 -1.09073,0 -1.09073,-1.15423c0,-1.15423 1.09073,-1.15423 1.09073,-1.15423h1.09073c0.00009,0 0.00019,0 0.00028,0c-0.00018,-0.19234 -0.00028,-0.38471 -0.00028,-0.57712c0,0 0,-1.15423 1.09073,-1.15423c1.09073,0 1.09073,1.15423 1.09073,1.15423c0,0.19136 0.00009,0.38268 0.00027,0.57398c1.5526,-0.00237 3.10521,-0.00058 4.65739,0.03402c3.7196,-1.96809 10.65446,-0.49878 14.5375,-0.02526c2.35277,0.28691 4.7997,-0.19837 7.16364,0.01423c4.55355,0.40952 8.85056,1.7115 13.45266,1.7115c2.04526,0 4.26916,-0.63393 5.3706,1.86676c0.45167,1.02547 -0.60147,2.18591 -1.09073,3.19188c-0.61476,1.26402 -1.54616,3.27669 -2.18145,4.61693c-3.35827,7.08476 -6.1491,15.78099 -8.12273,23.63014c-1.25088,4.95103 -0.8372,9.68653 -1.13878,14.73108c-0.20768,3.47389 -1.34027,7.15367 -1.33682,10.59004c0.00016,0.15917 0.17023,-0.31245 0.31869,-0.33807c0.54372,-0.09382 1.10203,0.01494 1.6527,-0.00212c0.69125,-0.02141 1.38584,-0.02112 2.07189,-0.11325c1.89882,-0.25501 3.9792,-0.12627 5.84213,-0.43087c1.20872,-0.19763 1.9059,-1.15423 3.27218,-1.15423c2.52092,-1.33385 6.09114,-1.95019 8.89595,-2.97425c2.39626,-0.87489 5.0163,-2.42694 7.54082,-2.81289c6.31604,-0.96558 13.39939,-0.0149 19.80777,-0.0149c5.00571,0 6.96646,4.46594 9.1421,8.68923c0.23915,0.46422 0.72234,1.45103 0.96707,2.28682c0.89813,1.26389 1.92399,2.37015 3.29561,2.92428c0.73359,0.29637 1.57391,0.25801 2.28278,0.61545c0.87648,0.30917 2.14083,0.95415 3.14353,1.84261c2.15492,0.42296 4.47019,0.57337 6.07985,1.77939z" fill="#000000" stroke="none" stroke-width="0.5" stroke-linecap="butt"/><path d="M209.78553,205.18068c4.33301,2.8904 -2.13099,8.83876 -4.44338,11.14195c-0.40969,0.40806 -0.82845,1.25387 -1.23184,1.85943c0.02367,0.03238 0.04912,0.06203 0.07619,0.08916c1.02708,-0.54634 2.72776,-0.32767 4.15494,0.257c0.39779,0.05859 0.71021,0.15826 0.78864,0.32636c0.01023,0.02192 0.01986,0.04395 0.02891,0.06609c0.79948,0.44698 1.41808,1.00564 1.62473,1.57863c1.24745,3.45875 -2.04418,7.69877 -5.3031,9.67204c-0.23383,0.23194 -0.48538,0.45239 -0.75634,0.65982c-0.91183,0.69803 -1.84425,1.17787 -2.79234,1.49573c1.72462,0.18763 3.64296,0.66058 4.15146,1.12732c1.99848,1.83434 0.70584,3.98 -1.09038,5.19117c-1.8202,1.22735 -3.58019,1.84547 -5.52471,1.54394c-2.99295,0.35403 -7.09801,0.3723 -9.11931,-1.46483c-0.30743,-0.27941 -0.97774,-2.26123 -1.08448,-2.68652c-0.65045,-2.59166 -0.94328,-5.46447 -1.38701,-8.10634c-0.50478,-1.70748 -0.50732,-3.47762 0.01599,-5.52843c0.01514,-0.05934 0.0315,-0.11853 0.04897,-0.1776c0.65253,-4.1363 0.69256,-8.72899 0.69256,-12.81005l-0.17014,-0.55746c0,0 -0.12293,-0.49172 0.15632,-0.86253c-0.05607,-0.77158 -0.11714,-1.54389 -0.18277,-2.31758c-0.11421,-1.34634 -0.42984,-2.89915 -0.24954,-4.28685c-0.09884,-0.46845 -0.15531,-0.93487 -0.15387,-1.39563c0.00881,-2.81294 2.32652,-4.74252 4.10402,-6.51807c1.29118,-1.28976 2.14291,-2.93092 3.42492,-4.19688l0.33393,-0.83482c0.14181,-0.37979 0.50789,-0.65024 0.93713,-0.65024c0.50193,0 0.9175,0.3698 0.9891,0.85182l0.1973,1.18379l-0.31997,0.05333c0.34022,1.47846 0.27196,2.95793 -0.03034,4.61393c1.53088,-0.44509 3.13818,-0.69476 4.86812,-0.67781c1.75589,0.01721 4.64507,0.88438 4.71657,3.14438c0.05533,1.74912 -2.8983,3.86975 -3.81003,5.24265c-0.29331,0.54507 -0.25065,1.213 -0.41051,1.81098c-0.16432,0.61465 -0.09022,0.96669 0.14043,1.16364c1.93267,-0.72222 5.05629,-1.03779 6.60983,-0.00148zM203.79851,237.27756c-0.08491,0.02399 -0.17344,0.04517 -0.26563,0.06329c-0.01066,0.04068 -0.02227,0.08104 -0.0348,0.12109c0.10277,-0.05812 0.20304,-0.11958 0.30043,-0.18437zM208.81236,221.78747c-0.05828,0.3516 -0.11849,0.70731 -0.1831,1.0649c0.18668,-0.49883 0.35635,-1.08728 0.28515,-1.53316c-0.04065,0.15789 -0.07653,0.31436 -0.10204,0.46826zM190.56557,207.22322c0.01612,0.21627 0.0319,0.43247 0.04735,0.64861c0.01872,-0.13464 0.03682,-0.2693 0.05404,-0.40387c-0.0328,-0.08105 -0.06664,-0.16264 -0.10139,-0.24474z" fill="#000000" stroke="none" stroke-width="0.5" stroke-linecap="butt"/><path d="M273.17397,164.63151c2.61323,-2.21246 4.03626,-0.63507 6.22978,1.32487c3.32702,2.97275 4.93308,6.51785 4.93308,10.94513c0,0.05053 0.00105,0.1202 0.00264,0.20638c0.35025,1.57634 0.53201,3.18058 0.58256,4.61939c1.42698,5.35297 4.84182,10.66912 4.39209,16.21293c0.62938,1.27123 0.43136,3.0698 -0.59308,4.45516c-1.76628,2.93858 -3.919,4.85503 -6.98549,6.33786c-0.90327,0.43678 -2.49277,1.06665 -3.41771,0.13814c-0.28683,-0.28794 0.04366,-2.44602 0.22747,-2.95853c0.60027,-1.67372 0.68908,-2.94121 0.51406,-4.42128c-0.2177,-0.11431 -0.45683,-0.20946 -0.71341,-0.28863c-0.25249,0.05494 -1.96469,0.39625 -2.05865,0.41503c-1.47544,0.29499 -4.61815,1.18928 -5.97216,0.23683c-3.48859,-2.45396 0.40832,-5.24817 2.06894,-6.92452c0.93991,-0.93891 1.91541,-1.97069 2.79254,-3.05549c-0.1475,-1.19024 -0.45549,-2.49931 -1.29737,-2.88411c-1.71335,-0.78312 -3.7838,0.02145 -5.56028,-0.78065c-4.76408,-2.15106 -2.10958,-6.42406 1.37349,-7.80436c1.0032,-0.60192 2.06696,-1.1134 3.15213,-1.57207c0.32091,-0.37658 0.65539,-0.69863 1.00311,-0.92074c0.02228,-0.35468 0.02939,-0.69891 0.02939,-1.01943c0.11257,-3.24129 -2.95305,-4.90646 -4.64604,-6.94944c-1.12211,-1.35409 -1.28485,-2.63809 0.2003,-3.92894c0.36167,-0.31436 0.9687,-0.00998 1.43119,-0.13539c1.01446,-0.27509 1.87639,-0.37255 2.63806,-0.33583c-0.12327,-0.28548 -0.23276,-0.58864 -0.32664,-0.91231zM269.45262,182.62118c-0.15598,0.0593 -0.31106,0.12065 -0.46424,0.18625c0.13609,-0.03907 0.26544,-0.07015 0.38406,-0.09232zM268.64764,186.10509c0.20375,0.11961 0.41004,0.21564 0.61868,0.29321c-0.18559,-0.09441 -0.35066,-0.20079 -0.48733,-0.32307c-0.04456,0.01193 -0.0884,0.02195 -0.13135,0.02986zM270.44268,182.32524c0.02535,-0.03356 0.05086,-0.06794 0.07653,-0.10309c-0.06507,0.02582 -0.13038,0.05111 -0.19585,0.07604c0.03939,0.00595 0.07927,0.0148 0.11932,0.02706z" fill="#000000" stroke="none" stroke-width="0.5" stroke-linecap="butt"/><path d="M11.06854,370.14072c-0.12694,0 -0.25697,0.00232 -0.38955,0.00637c0.04245,0.0063 0.08225,0.0145 0.11857,0.02349c0.16339,0.03674 0.38209,0.1187 0.54482,0.30151c0.1493,0.01318 0.29886,0.02505 0.44863,0.03575c0.04172,-0.02447 0.08782,-0.0516 0.13718,-0.08095c-0.11586,-0.08465 -0.19634,-0.18331 -0.25125,-0.28617zM11.05613,372.42631c-1.08901,-0.09921 -2.16818,-0.26028 -3.22873,-0.52699c-1.05931,-0.17655 -2.15976,-0.46997 -2.91069,-0.94234c-0.83357,-0.3672 -1.57882,-0.80385 -2.5283,-1.31626l-0.81987,0c-0.55228,0 -1,-0.44772 -1,-1c0,-0.3992 0.23392,-0.74377 0.57216,-0.90412l0.98062,-0.49031l0.13724,0.27448c2.90406,-1.82157 6.76291,-1.93986 10.11922,-0.83103c0.06185,0.02043 0.12245,0.04116 0.18183,0.06219c2.08463,-5.27061 5.01358,-10.28142 7.92294,-15.09182c1.43095,-2.36596 3.58356,-5.89957 6.03366,-7.35302c1.67951,-0.99632 3.77581,-1.85331 5.58135,-2.6259c3.18737,-1.32148 5.56338,-4.4807 8.41072,-6.36879c2.5116,-1.66547 5.44601,-2.68914 8.105,-4.06204c5.5072,-2.84351 11.0801,-6.03843 15.98472,-9.84681c2.20808,-1.70838 4.10621,-3.95379 6.11353,-5.83067c0.10124,-1.47024 -0.14949,-3.09579 -0.143,-4.43216c0.01453,-2.99286 1.15411,-6.25969 0.51291,-9.33982c-0.47091,-2.2621 -1.97091,-4.75141 -2,-7c-1.17835,-3.49821 -5.14821,-8.42245 -3.98616,-12.38994c1.41345,-4.82583 9.05,-2.5774 10.78449,0.64504c1.80424,1.80424 2.21289,4.51326 2.67585,6.92453c0.24863,1.29498 0.60955,2.61836 1.01448,3.93985c0.02467,-0.04678 0.04881,-0.09353 0.07242,-0.14025c5.95221,-6.39328 10.56857,-12.85952 17.85604,-17.96108c2.79712,-1.95811 5.91104,-5.09874 9.56997,-5.17834c0.963,0 2.30177,-0.20288 3.22975,0.02675c2.80993,0.69533 4.91158,3.17435 3.1209,5.99898c-3.0044,4.73917 -9.52931,5.8245 -12.14354,10.68138c-1.2694,0.6347 -2.09195,1.79624 -2.89586,2.8776c-0.16685,0.22443 -0.36185,0.53484 -0.57955,0.77394c0.28464,-0.05991 0.56731,-0.12921 0.72531,-0.21919c1.3787,-0.78519 2.88533,-2.17238 4.09033,-3.24383c2.10618,-1.87273 4.10701,-4.0267 6.36795,-5.70687c2.20371,-1.63764 4.99495,-2.01717 7.35496,-3.16201c1.44751,0 4.90894,-0.95463 6.25548,0.1226c1.53873,1.23098 0.8433,3.39583 -0.31862,4.55776c-0.70839,0.70839 -1.38438,0.56717 -2.1224,1.10414c-0.69192,0.50342 -0.86095,1.5445 -1.55898,2.03941c-0.27192,0.19279 -0.71473,-0.17242 -1,0c-0.6496,0.39263 -0.78423,1.31742 -1.31862,1.85646c-1.76242,1.77771 -3.81508,3.79858 -5,6c-1.49633,0.77668 -2.21834,2.09393 -3.12698,3.29465c0.36901,-0.38039 0.71258,-0.72106 0.83517,-0.813c1.12374,-0.84281 2.34776,-1.83813 3.58278,-2.55367c3.81184,-2.20846 8.16406,-7.90156 12.85258,-5.16082c0.30794,4.17681 -0.24276,7.67143 -2.00652,10.69839c0.13425,-0.05662 0.2757,-0.10583 0.42612,-0.14591c2.73854,-0.72975 5.51321,0.56394 4.70259,3.70472c-0.23204,0.89905 -1.31232,2.27875 -1.70992,2.97537c-2.11716,3.70934 -4.14708,7.04342 -7.05582,10.00026c0,0 -0.19849,0.19849 -0.49031,0.27998c-0.13467,0.20021 -0.27016,0.39933 -0.40555,0.59762c-11.65683,17.0718 -26.88529,18.69958 -39.86082,34.79194c-9.98641,12.38522 -19.44213,18.6592 -35.35189,18.61848c-4.50207,0.90417 -9.36413,1.86755 -13.94603,2.39062c-3.87042,0.44185 -7.80084,-0.26415 -11.66823,-0.38527c-2.03761,-0.06381 -4.10603,-0.01858 -6.14805,-0.14946c-0.11058,0.05178 -0.22273,0.10148 -0.33622,0.14897zM6.98082,368.07599c1.14632,-0.04391 2.3304,0.03314 3.47505,0.05763c-1.12023,-0.16911 -2.35031,-0.16839 -3.47505,-0.05763z" fill="#000000" stroke="none" stroke-width="0.5" stroke-linecap="butt"/><path d="M392.1032,325.15946l-1.44721,1.39443c-2.42897,-1.21448 -4.55772,-2.79358 -6.94395,-3.97411c-10.46622,-3.70398 -20.30869,-9.04793 -30.43053,-13.06893c-8.134,-1.61797 -14.23419,-5.50929 -21.01468,-9.98813c-2.91036,-1.92244 -6.03872,-3.32145 -8.14776,-5.87913l-0.22298,0.22298l-1,-1c-0.18096,-0.18096 -0.29289,-0.43096 -0.29289,-0.70711c0,-0.55228 0.44772,-1 1,-1c0.16796,0 0.32624,0.04141 0.46521,0.11457l0.82521,0.4126c1.29697,0.01804 2.27977,0.6111 3.52581,1.02414c5.59829,1.8661 11.34417,3.44389 17.07138,5.02097c1.39689,0.38466 2.26931,0.77018 3.71093,0.93258c0.11874,0.01338 1.22306,-0.08069 2.04675,-0.05263c-0.05524,-0.03276 -0.10531,-0.06278 -0.14722,-0.08732c-0.5364,-0.31418 -1.03552,-0.68806 -1.55277,-1.03286c-0.80157,-0.53433 -1.61782,-1.05342 -2.47782,-1.48749c-8.82198,-4.46976 -16.74123,-8.86206 -23.55666,-16.20176c-1.90411,-2.05058 -3.78449,-3.89004 -5.31766,-6.08766l-0.19315,0.14487l-1.19394,-1.59192c-0.12924,-0.16849 -0.20606,-0.37932 -0.20606,-0.60808c0,-0.55228 0.44772,-1 1,-1h1v0.15623l0.38268,-0.08011c1.7147,1.58176 3.41863,2.47813 5.68586,3.0955c5.87979,2.93157 12.32536,4.80489 18.34111,7.41614c1.94093,0.8425 3.78014,1.32583 5.67333,2.27143c0.57169,0.28555 1.21219,0.38385 1.84746,0.49814c-1.86128,-1.49122 -5.40689,-2.08039 -7.49909,-3.53475c-7.2111,-5.01269 -13.44262,-12.41963 -19.63846,-18.61547c-1.23412,-1.23412 -7.32729,-5.88712 -3.60912,-7.65579c1.73985,-0.82762 4.29892,2.80611 5.40094,3.63744c1.12392,0.84785 2.70473,1.22046 3.91722,1.94633c3.74089,2.23954 7.53888,4.52061 11.44529,6.47048c6.48624,3.24312 13.07419,6.65999 19.89973,8.95654c1.54071,0.51839 4.59336,1.79692 5.84181,0.35317c0.68902,-0.54225 -3.97089,-3.59359 -4.72351,-4.07028c-2.20419,-1.39609 -3.61793,-3.42936 -5.59924,-5.07167c-2.2028,-1.82591 -5.20884,-3.63754 -7.78387,-4.86483c-1.78037,-0.84854 -3.87267,-0.93351 -5.44745,-1.90728c-0.04457,-0.00082 -0.08947,-0.00124 -0.1347,-0.00124h-1c-0.55228,0 -1,-0.44772 -1,-1c0,-0.55228 0.44772,-1 1,-1h1c2.00892,0 3.41728,0.71202 5.2821,1.02546c6.14986,1.03366 12.32965,2.63636 18.19636,4.83596c7.2011,2.71563 13.23093,7.87003 20.40422,10.7147c1.07498,0.4263 3.35782,1.3287 4.79555,2.44654c-0.29561,-1.14098 -0.67271,-2.27537 -0.67823,-3.52266c0.02254,-6.06912 -1.22155,-12.16964 0.02675,-18.22975c0.47264,-2.2945 1.91561,-3.97962 3.1226,-5.79598c1.21582,-1.82966 1.64533,-2.902 2.8256,-3.99932l-0.18206,-0.18206l1,-1c0,0 0,0 0,0c0.18096,-0.18096 0.43096,-0.29289 0.70711,-0.29289c0.55228,0 1,0.44772 1,1l0,1c-0.06692,3.07648 -0.69072,6.18104 -0.5022,9.43377c0.17419,3.00538 0.83887,6.02425 1.1677,9.01986c0.76499,6.97166 3.20863,10.86775 7.42631,16.33562c1.8499,2.39823 4.75596,5.38 4.66831,8.47158c3.30487,0.82709 6.60879,1.65835 9.91101,2.49694c12.94586,3.28823 24.84918,7.61178 36.95936,13.20109c12.05747,5.56498 23.13777,12.83035 35.49117,17.8196c5.8804,0.94013 3.26158,5.9137 2.95267,10.21889c-0.63054,8.78743 0.4252,17.70491 0.42567,26.50265c0,7.90723 0.08324,15.71748 -0.70397,23.58958c-0.17777,1.77771 0.52317,6.58297 -0.44538,7.93615c-1.03168,1.44138 -3.12973,0.97907 -4.5804,0.94752c-1.51236,-0.75618 -3.24051,-0.54958 -4.92752,-0.8849c-2.99024,-0.59436 -6.02319,-1.14409 -8.96037,-1.96655c-5.97444,-1.67293 -13.19364,-5.38824 -17.08893,-10.42597c-1.23557,-1.59795 -2.07525,-3.54659 -3.28314,-5.19084c-0.64245,-1.61385 -2.4599,-4.4087 -1.98353,-6.23475c0.26555,-1.01794 0.88064,-1.89584 1.90901,-2.18083c-8.64059,-5.44704 -17.19418,-11.02061 -25.75548,-16.60406c-11.68307,-7.61939 -23.71736,-14.47514 -35.83591,-21.37737c-1.39079,-0.79214 -2.78234,-1.58484 -4.17337,-2.37972c0.329,0.29515 0.329,0.77173 0.329,0.77173z" fill="#000000" stroke="none" stroke-width="0.5" stroke-linecap="butt"/><path d="M-34.02402,384.47053v-408.94105h548.04805v408.94105z" fill="url(#color-3)" stroke="none" stroke-width="0" stroke-linecap="butt"/><path d="M209.76655,307.90364v-15.5h61.5v15.5z" fill="url(#color-4)" stroke="none" stroke-width="0" stroke-linecap="butt"/><path d="M205.26655,389.90364c0,0 0.0724,-13.84426 0.63694,-19.81625c0.60505,-6.4005 2.88028,-17.39037 2.88028,-17.39037c0,0 -0.13359,-17.07349 0.0371,-25.02688c0.15548,-7.24487 0.94567,-20.7665 0.94567,-20.7665h61c0,0 1.14359,9.17498 1.9196,20.6695c0.58656,8.68838 0.93081,25.0803 0.93081,25.0803c0,0 0.92458,11.83119 1.08053,15.06706c0.44435,9.22023 0.06907,22.18314 0.06907,22.18314z" fill="#000000" stroke="none" stroke-width="0" stroke-linecap="butt"/></g></g></svg>