<svg version="1.1" xmlns="http://www.w3.org/2000/svg" xmlns:xlink="http://www.w3.org/1999/xlink" width="105.68408" height="262.24692" viewBox="0,0,105.68408,262.24692"><defs><linearGradient x1="240.3495" y1="178.45358" x2="240.3495" y2="215.91202" gradientUnits="userSpaceOnUse" id="color-1"><stop offset="0" stop-color="#131313" stop-opacity="0"/><stop offset="1" stop-color="#131313"/></linearGradient><radialGradient cx="240.08314" cy="122.58651" r="13.6" gradientUnits="userSpaceOnUse" id="color-2"><stop offset="0" stop-color="#da1616"/><stop offset="1" stop-color="#990f0f"/></radialGradient><radialGradient cx="239.7107" cy="122.97928" r="27.49593" gradientUnits="userSpaceOnUse" id="color-3"><stop offset="0" stop-color="#000000" stop-opacity="0"/><stop offset="1" stop-color="#000000"/></radialGradient></defs><g transform="translate(-188.70981,-43.25297)"><g data-paper-data="{&quot;isPaintingLayer&quot;:true}" fill-rule="nonzero" stroke-linejoin="miter" stroke-miterlimit="10" stroke-dasharray="" stroke-dashoffset="0" style="mix-blend-mode: normal"><g stroke="#000000" stroke-width="0" stroke-linecap="round"><g><path d="M266.26282,79.74056c0,0 11.51983,-6.38166 14.74578,-10.44722c3.11414,-3.92467 7.98002,-26.04037 7.98002,-26.04037c0,0 2.77817,6.8035 4.35106,15.27084c0.12225,0.65812 -0.13228,3.43069 -0.13228,3.43069c0,0 0.84711,1.18824 0.9695,2.52171c0.5497,5.98904 0.15708,12.20126 -2.36846,17.10044c-7.24318,14.05073 -16.16444,19.37528 -16.16444,19.37528z" data-paper-data="{&quot;index&quot;:null}" fill="#8b0e0e"/><path d="M293.25026,60.94874c-0.05166,0.4004 -0.07842,1.0217 -0.07842,1.0217c0,0 -0.47718,0.16318 -0.71866,0.31924c-0.26899,0.17383 -0.82168,0.64496 -0.82168,0.64496c0,0 -0.07065,-1.6642 0.29602,-2.2642c0.36667,-0.6 1.4,-1.8 1.4,-1.8c0,0 -0.00357,1.50724 -0.07726,2.0783z" fill="#800d0d"/><path d="M293.73321,62.99511c0.1666,0.40335 0.40032,1.28696 0.40032,1.28696c0,0 -1.06975,-0.28271 -1.50923,-0.53384c-0.36213,-0.20693 -0.97202,-0.83491 -0.97202,-0.83491c0,0 0.57315,-0.4814 0.83086,-0.63602c0.2412,-0.14472 0.70039,-0.29523 0.70039,-0.29523c0,0 0.40187,0.65518 0.54968,1.01304z" fill="#990f0f"/></g><path d="M265.95626,79.79154c0,0 11.59129,-6.25095 14.863,-10.27976c3.15834,-3.88919 8.27405,-25.94845 8.27405,-25.94845c0,0 4.49217,19.62326 -2.90947,33.59117c-7.40164,13.96791 -19.09811,8.78805 -19.09811,8.78805z" data-paper-data="{&quot;index&quot;:null}" fill="#9d1010"/></g><g stroke="#000000" stroke-width="0" stroke-linecap="round"><path d="M205.73525,102.01248c0,0 -8.61446,-5.80783 -15.07276,-20.23617c-6.38303,-14.26017 4.92632,-38.1102 4.92632,-38.1102c0,0 3.64041,22.35014 6.53367,26.44037c2.99712,4.23706 14.14799,11.24352 14.14799,11.24352z" fill="#2b2b2b"/><path d="M214.73525,87.81248c0,0 -12.01446,4.39217 -18.47276,-10.03617c-6.4583,-14.42834 -0.67368,-33.7102 -0.67368,-33.7102c0,0 3.64041,22.35014 6.53367,26.44037c2.99712,4.23706 14.14799,11.24352 14.14799,11.24352z" fill="#383838"/></g><path d="M209.73434,70.99779c5.88143,-8.6482 13.73361,-16.97189 28.45197,-17.6427c2.87948,-0.0693 5.55564,0.039 8.04155,0.30581c4.01492,0.43092 6.92523,0.49308 10.89855,2.33417c3.97332,1.84109 11.65839,7.59972 15.50889,9.9021c2.28494,1.36626 5.46129,2.63682 5.46129,2.63682c0,0 -1.76761,1.14614 -3.03444,1.47931c-1.26684,0.33316 -2.527,-0.01672 -2.527,-0.01672c0,0 4.10602,6.01281 5.48998,12.95556c0.71341,3.57883 1.42786,7.6715 2.09808,11.92189c0.15159,0.96132 2.54752,7.15359 3.84646,12.28803c1.18774,4.69489 0.96103,9.97674 0.96103,9.97674c0,0 -0.72443,-1.88986 -1.23485,-2.94386c-0.51042,-1.05401 -1.37718,-2.1058 -1.37718,-2.1058c0,0 0.8795,6.26848 1.17161,10.22182c0.37383,5.05941 -0.27554,8.36316 -0.27554,8.36316c0,0 -1.08453,-3.28475 -1.62347,-4.69964c-0.44381,-1.16513 -1.38058,-3.18686 -1.38058,-3.18686c0,0 -0.72367,11.77667 -1.57375,17.5863c-1.5623,11.14812 -6.63115,20.25435 -6.63115,20.25435l-1.15522,-2.7601c0,0 -1.02266,2.58442 -2.16005,3.91876c-1.1374,1.33433 -3.43873,3.4249 -3.43873,3.4249l-0.09205,-4.35556c0,0 -7.0601,12.95535 -24.35066,12.7832c-16.30625,-0.30039 -26.07151,-12.55233 -26.07151,-12.55233l-0.1162,3.12167c0,0 -3.89477,-3.87177 -6.18145,-11.41453c-2.47788,-8.17347 -4.83928,-19.62166 -4.83928,-19.62166c0,0 -0.7017,1.87993 -0.90426,3.88351c-0.23042,2.27924 -0.57217,5.34837 -0.57217,5.34837c0,0 -2.27741,-6.58709 -2.68108,-11.04415c-0.40366,-4.45707 0.71498,-10.66458 0.71498,-10.66458c0,0 -0.81932,0.89341 -1.24084,1.56564c-0.42151,0.67223 -1.11295,2.18818 -1.11295,2.18818c0,0 -0.08659,-6.22668 0.33834,-11.1075c0.16959,-1.94797 0.59241,-6.84824 1.59685,-12.89053c0.78377,-4.71483 3.56973,-15.37046 3.56973,-15.37046c0,0 -1.16002,0.71372 -1.8137,1.29298c-0.65368,0.57926 -1.87897,1.97936 -1.87897,1.97936c0,0 0.11886,-4.37451 2.98502,-8.1173c2.99366,-3.90929 6.748,-8.67259 7.13274,-9.23831z" fill="#000000" stroke="none" stroke-width="1.5" stroke-linecap="butt"/><g stroke-linecap="butt"><path d="M201.03044,304.39162c0,0 -0.63536,-94.38387 -0.79335,-118.01201c-0.05451,-8.15261 8.18688,-36.76129 40.20201,-36.9211c31.60235,-0.15775 39.85672,29.48704 39.84884,36.89673c-0.07659,46.24274 0.65429,117.98648 0.65429,117.98648l-10.49667,0.09614l-0.15882,-114.84311c0,0 0.07549,-3.0993 -2.81625,-3.15415c-3.43441,-0.06514 -2.94538,3.11562 -2.94538,3.11562l0.20548,114.86995l-48.21366,0.07222l-0.30539,-115.23309c0,0 0.27949,-2.919 -2.8856,-2.93443c-3.11083,-0.01515 -2.81569,2.90899 -2.81569,2.90899l0.35311,115.0668z" fill="#ffffff" stroke="#000000" stroke-width="2"/><path d="M255.62761,200.33383c-0.57113,0 -1.03411,-0.46299 -1.03411,-1.03411c0,-0.57113 0.46299,-1.03413 1.03411,-1.03413c0.57113,0 1.03411,0.463 1.03411,1.03413c0,0.57113 -0.46299,1.03411 -1.03411,1.03411z" fill="#000000" stroke="none" stroke-width="1.5"/><path d="M250.36774,204.56942c-4.4635,-0.31439 -6.55245,-1.79392 -6.16985,-2.58011c0.11788,-0.24224 2.84645,1.06355 6.97038,1.3048c6.40897,0.37493 8.51033,-0.63173 8.51033,-0.63173v1.34616c0,0 -2.4135,1.04672 -9.31086,0.56089z" fill="#000000" stroke="#000000" stroke-width="0"/><path d="M222.55498,199.29972c0,-0.57113 0.46299,-1.03413 1.03411,-1.03413c0.57113,0 1.03413,0.463 1.03413,1.03413c0,0.57113 -0.463,1.03411 -1.03413,1.03411c-0.57113,0 -1.03411,-0.46299 -1.03411,-1.03411z" fill="#000000" stroke="none" stroke-width="1.5"/><path d="M228.84898,204.56942c-6.89736,0.48585 -9.31086,-0.56089 -9.31086,-0.56089v-1.34616c0,0 2.10136,1.00666 8.51033,0.63173c4.12393,-0.24126 6.85251,-1.54704 6.97039,-1.3048c0.3826,0.78618 -1.70634,2.26571 -6.16985,2.58011z" fill="#000000" stroke="#000000" stroke-width="0"/><path d="M240.12944,261.12113c-0.81895,0 -1.48284,-0.66389 -1.48284,-1.48284c0,-0.81895 0.66389,-1.48284 1.48284,-1.48284c0.81895,0 1.48284,0.66389 1.48284,1.48284c0,0.81895 -0.66389,1.48284 -1.48284,1.48284z" data-paper-data="{&quot;index&quot;:null}" fill="#000000" stroke="none" stroke-width="1.5"/><path d="M215.20627,244.60761c0,0 -0.53572,-45.43154 -1.28481,-57.90288c-0.75787,-12.6174 -6.0456,-23.32114 -6.0456,-23.32114l7.73495,-8.0405l10.71777,16.28379c0,0 5.38149,10.29027 13.87845,10.20614c8.27072,-0.08189 15.01103,-10.20614 15.01103,-10.20614l8.98226,-16.93561l8.97732,9.3255c0,0 -4.84825,11.41933 -6.04573,21.809c-1.7033,14.77844 -1.70506,59.17982 -1.70506,59.17982l1.00247,20.29579c0,0 -15.74378,-4.58189 -26.0781,-6.21171c-10.33432,-1.62982 -25.87295,-1.98143 -25.87295,-1.98143z" fill="#990f0f" stroke="none" stroke-width="0"/><path d="M215.06853,241.36441c0,0 -0.01136,-7.08791 -0.49623,-9.95373c-0.407,-2.40555 -3.76612,-13.47567 -4.15664,-24.55511c-0.39052,-11.07944 6.40772,-22.44183 6.40772,-37.06838c0,-4.33321 -0.75721,-14.14777 -0.75721,-14.14777c0,0 2.67319,-2.26677 4.6557,-3.61076c1.98251,-1.34399 5.17197,-2.70099 5.17197,-2.70099c0,0 0.09466,9.08252 1.92292,18.02123c1.77474,8.67701 5.16866,17.21853 12.6366,17.18515c7.63494,-0.03413 10.83829,-9.20262 12.38497,-18.05824c1.52465,-8.72949 1.44657,-17.14813 1.44657,-17.14813c0,0 3.91276,1.46392 6.16585,2.83861c2.25309,1.37467 4.75379,3.47315 4.75379,3.47315c0,0 -0.75721,10.04136 -0.75721,14.63408c0,14.26946 5.17791,23.15839 5.8919,35.7968c0.71399,12.63841 -3.13069,22.78605 -3.54711,25.42047c-0.39169,2.47796 -0.92249,9.87364 -0.92249,9.87364c0,0 -16.79354,-2.39989 -24.8268,-2.39989c-8.33506,0 -25.9743,2.39989 -25.9743,2.39989z" fill="#0e0e0e" stroke="#000000" stroke-width="0"/><path d="M199.63523,305.43372c0,0 0.31037,-4.5577 0.11443,-9.44966c-0.15057,-3.75916 -0.80413,-7.7157 -0.88264,-9.95321c-0.09849,-2.80681 -0.72648,-8.99632 -0.72648,-8.99632h14.44871v28.3992z" fill="#0c0c0c" stroke="none" stroke-width="0"/><path d="M269.15663,305.45232v-28.3992h14.44871c0,0 -0.628,6.1895 -0.72648,8.99632c-0.07851,2.23751 -0.73207,6.19405 -0.88264,9.95322c-0.19594,4.89197 0.11443,9.44966 0.11443,9.44966z" data-paper-data="{&quot;index&quot;:null}" fill="#0c0c0c" stroke="none" stroke-width="0"/><path d="M236.47369,226.65571c1.04622,-0.36175 3.57173,-2.02366 5.00659,-2.02366c1.42927,0 2.89993,1.34549 4.83803,2.06817c1.9381,0.72268 2.36246,0.61675 2.36246,0.61675c0,0 -1.32956,0.43277 -2.67012,0.26555c-1.34056,-0.16722 -3.54693,-0.89024 -4.53038,-0.89024c-0.99391,0 -3.05173,0.68893 -4.74068,0.88575c-1.68895,0.19682 -3.02429,-0.26105 -3.02429,-0.26105c0,0 1.71217,-0.2995 2.75839,-0.66126z" fill="#000000" stroke="none" stroke-width="0"/><path d="M199.36201,272.8708v-14.85714h12.6v14.85714z" fill="#740c0c" stroke="none" stroke-width="0"/><path d="M211.96201,246.44222v9.28572h-12.6v-9.28572z" fill="#990f0f" stroke="none" stroke-width="0"/><path d="M199.36201,244.44223v-6.42857h12.6v6.42857z" fill="#b31212" stroke="none" stroke-width="0"/><path d="M269.11439,272.8708v-14.85714h12.6v14.85714z" fill="#740c0c" stroke="none" stroke-width="0"/><path d="M281.71439,246.44222v9.28572h-12.6v-9.28572z" fill="#990f0f" stroke="none" stroke-width="0"/><path d="M269.11439,244.44223v-6.42857h12.6v6.42857z" fill="#b31212" stroke="none" stroke-width="0"/><path d="M214.90769,213.09551c-6.66206,-6.45363 3.46667,-32.25 3.46667,-32.25l9.85268,-1.56925c0,0 6.22503,7.26052 11.69732,7.31925c6.65509,0.07142 12.35385,-8.14193 12.35385,-8.14193l10.19615,2.39193c0,0 10.18149,26.87673 2.7,32.25c-7.47762,5.3705 -19.10789,-0.98915 -24.25,-1c-5.34661,-0.01128 -18.91389,7.88055 -26.01667,1z" fill="url(#color-1)" stroke="none" stroke-width="0"/></g><path d="M213.29872,96.12309c0,0 4.54702,1.47017 7.47391,0.9566c2.92688,-0.51357 10.36298,-3.47333 10.36298,-3.47333c0,0 -0.00802,1.50032 -0.26399,2.2576c-0.25922,0.76689 -1.28173,2.31526 -1.28173,2.31526c0,0 4.84387,-1.10851 10.48095,-3.00304c9.89099,-3.3242 15.1175,-5.98701 15.1175,-5.98701l-3.41297,4.248c0,0 4.01142,-0.5439 8.012,-2.14569c3.9465,-1.58014 7.88245,-3.72198 7.94652,-3.34387c0.14166,0.8361 0.53006,18.18536 0.21846,23.74328c-0.42163,5.66922 -1.70033,9.33322 -2.31737,12.35406c-0.61704,3.02084 -0.84452,8.77735 -2.54034,14.70795c-1.69582,5.9306 -4.16065,10.42288 -10.01824,16.15903c-5.85759,5.73616 -9.05378,8.25275 -13.01359,8.32173c-3.81077,0.06639 -8.93565,-4.1002 -13.93542,-9.38244c-5.32393,-5.62474 -6.4118,-8.68059 -8.71551,-15.13975c-2.30371,-6.45916 -1.77653,-9.90853 -2.12266,-15.24835c-0.25298,-3.90273 -1.76119,-6.44504 -2.07636,-10.42801c-0.31517,-3.98297 0.08586,-16.91202 0.08586,-16.91202z" fill="#f1f1f1" stroke="#000000" stroke-width="1.5" stroke-linecap="butt"/><path d="M214.41249,123.15832c0,0 -4.93211,-3.51705 -6.16417,-8.97502c-1.29636,-5.74284 -1.46118,-9.7328 0.48013,-9.99193c1.94131,-0.25915 2.70321,2.37692 3.73262,8.35569c1.0294,5.97877 1.95143,10.61127 1.95143,10.61127z" data-paper-data="{&quot;index&quot;:null}" fill="#c6c6c6" stroke="#000000" stroke-width="1" stroke-linecap="butt"/><path d="M214.20989,119.21076c0,0 -3.56385,-2.92338 -4.31816,-8.45061c-0.42079,-3.08327 2.15675,-2.28016 2.15675,-2.28016" fill="none" stroke="#000000" stroke-width="0.25" stroke-linecap="round"/><path d="M268.64565,112.54705c1.0294,-5.97877 1.7913,-8.61483 3.73262,-8.35569c1.94131,0.25914 1.77649,4.24909 0.48013,9.99193c-1.23206,5.45797 -6.16417,8.97502 -6.16417,8.97502c0,0 0.92203,-4.6325 1.95143,-10.61127z" data-paper-data="{&quot;index&quot;:null}" fill="#c6c6c6" stroke="#000000" stroke-width="1" stroke-linecap="butt"/><path d="M269.05818,108.47999c0,0 2.57754,-0.80312 2.15675,2.28016c-0.75431,5.52723 -4.31816,8.45061 -4.31816,8.45061" data-paper-data="{&quot;index&quot;:null}" fill="none" stroke="#000000" stroke-width="0.25" stroke-linecap="round"/><path d="M221.19523,97.67931c2.85235,-0.50642 9.28091,-2.97046 9.28091,-2.97046c0,0 -0.42094,1.2973 -0.85727,2.04437c-0.43633,0.74707 -1.72373,2.46488 -1.72373,2.46488c0,0 6.79516,-1.27492 12.2887,-3.14309c9.63912,-3.27796 13.53254,-5.90373 13.53254,-5.90373l-3.71553,4.18891c0,0 5.49874,-0.53633 9.39745,-2.11584c3.846,-1.55816 7.68173,-3.6702 7.74417,-3.29735c0.07065,0.4219 0.20425,5.10777 0.2772,10.31759c0.04005,2.86002 0.14653,7.02851 0.05988,10.05323c-0.06396,2.2327 -0.32418,3.84219 -0.32418,3.84219c0,0 -14.64033,-5.59646 -27.23974,-5.19054c-12.59941,0.40592 -25.90583,5.71606 -25.90583,5.71606c0,0 -0.13459,-4.72259 -0.10054,-7.82152c0.04874,-4.43623 0.13157,-8.74998 0.13157,-8.74998c0,0 4.30205,1.0717 7.1544,0.56527z" fill="#d7d7d7" stroke="#ff0000" stroke-width="0" stroke-linecap="butt"/><path d="M253.39886,107.05251c2.37178,7.08396 3.80044,14.95414 2.67329,22.52537c-0.86709,5.82437 -2.31577,10.77447 -3.99132,14.91614c-4.86771,12.0321 -11.65017,17.24112 -11.65017,17.24112c0,0 -6.29217,-6.10651 -11.228,-16.83893c-2.33995,-5.08796 -4.37506,-11.21558 -5.29041,-18.2251c-0.84958,-6.50586 0.62246,-13.42803 2.99874,-19.81111c2.37628,-6.38308 13.76766,-25.18094 13.76766,-25.18094c0,0 10.34843,18.28949 12.72021,25.37345z" fill="#000000" stroke="none" stroke-width="1.5" stroke-linecap="butt"/><path d="M226.48314,122.58651c0,-7.51108 6.08892,-13.6 13.6,-13.6c7.51107,0 13.6,6.08892 13.6,13.6c0,7.51108 -6.08892,13.6 -13.6,13.6c-7.51108,0 -13.6,-6.08892 -13.6,-13.6z" fill="url(#color-2)" stroke="#000000" stroke-width="0" stroke-linecap="butt"/><path d="M223.82841,122.63047c0,-8.94702 7.25299,-16.2 16.2,-16.2c8.94702,0 16.2,7.25298 16.2,16.2c0,8.94702 -7.25299,16.2 -16.2,16.2c-8.94701,0 -16.2,-7.25298 -16.2,-16.2z" fill="url(#color-3)" stroke="#000000" stroke-width="0" stroke-linecap="butt"/><path d="M243.05332,122.80886c-0.01869,5.66132 -2.82492,10.26522 -2.82492,10.26522c0,0 -2.99305,-4.73801 -2.97437,-10.3993c0.01869,-5.66129 3.04205,-10.10206 3.04205,-10.10206c0,0 2.77592,4.57482 2.75723,10.23614z" fill="#000000" stroke="none" stroke-width="1.5" stroke-linecap="butt"/><path d="M223.7678,120.32091l4.28904,2.11661l-4.29729,1.87065c0,0 -0.1079,-1.31414 -0.10646,-1.97133c0.00129,-0.59079 0.11471,-2.01592 0.11471,-2.01592z" fill="#666666" stroke="#000000" stroke-width="0" stroke-linecap="round"/><path d="M256.12415,119.02698l-4.52358,-1.27142l3.94408,-2.67352c0,0 0.26618,1.45371 0.36642,2.13617c0.09225,0.62798 0.21307,1.80877 0.21307,1.80877z" data-paper-data="{&quot;index&quot;:null}" fill="#666666" stroke="#000000" stroke-width="0" stroke-linecap="round"/><path d="M255.95804,130.13795l-4.05267,-2.49183l4.52214,-1.44577c0,0 -0.10544,1.32579 -0.184,1.98469c-0.07793,0.65359 -0.28548,1.95291 -0.28548,1.95291z" data-paper-data="{&quot;index&quot;:null}" fill="#666666" stroke="#000000" stroke-width="0" stroke-linecap="round"/><path d="M229.30613,132.31707l-3.64929,2.88527c0,0 -0.3411,-1.2078 -0.48871,-1.82581c-0.15223,-0.63741 -0.41124,-1.94223 -0.41124,-1.94223z" data-paper-data="{&quot;index&quot;:null}" fill="#666666" stroke="#000000" stroke-width="0" stroke-linecap="round"/><path d="M227.98325,141.95624l4.78942,0.43302l-3.13215,3.2616c0,0 -0.52143,-1.04511 -0.77843,-1.61805c-0.29115,-0.64907 -0.87883,-2.07657 -0.87883,-2.07657z" data-paper-data="{&quot;index&quot;:null}" fill="#4b4b4b" stroke="#000000" stroke-width="0" stroke-linecap="round"/><path d="M232.60529,151.26814l4.68018,-0.72292l-2.58527,4.04821c0,0 -0.80281,-1.19076 -1.1616,-1.76028c-0.3383,-0.537 -0.93331,-1.56501 -0.93331,-1.56501z" data-paper-data="{&quot;index&quot;:null}" fill="#4b4b4b" stroke="#000000" stroke-width="0" stroke-linecap="round"/><path d="M253.44568,140.53733l-3.62587,-3.03599l4.78382,-0.83708c0,0 -0.38289,1.45671 -0.58458,2.13133c-0.18233,0.60986 -0.57336,1.74174 -0.57336,1.74174z" data-paper-data="{&quot;index&quot;:null}" fill="#4b4b4b" stroke="#000000" stroke-width="0" stroke-linecap="round"/><path d="M248.92316,150.92672l-2.98782,-3.76913l4.86257,0.22255c0,0 -0.5764,1.18998 -0.88968,1.78262c-0.31163,0.58954 -0.98507,1.76396 -0.98507,1.76396z" data-paper-data="{&quot;index&quot;:null}" fill="#4b4b4b" stroke="#000000" stroke-width="0" stroke-linecap="round"/><path d="M226.26581,108.6838l3.51426,3.1841l-4.66339,0.63399c0,0 0.32002,-1.23817 0.50941,-1.86743c0.19357,-0.64313 0.63972,-1.95066 0.63972,-1.95066z" data-paper-data="{&quot;index&quot;:null}" fill="#8b8b8b" stroke="#000000" stroke-width="0" stroke-linecap="round"/><path d="M253.49043,107.28286l-4.70072,-0.26653l3.23952,-3.44335c0,0 0.47653,1.07625 0.70583,1.65843c0.25502,0.6475 0.75537,2.05145 0.75537,2.05145z" data-paper-data="{&quot;index&quot;:null}" fill="#8b8b8b" stroke="#000000" stroke-width="0" stroke-linecap="round"/><path d="M230.9349,98.62604l2.85739,3.91544l-4.7606,-0.33044c0,0 0.59669,-1.22309 0.91681,-1.82608c0.31418,-0.5918 0.98641,-1.75892 0.98641,-1.75892z" data-paper-data="{&quot;index&quot;:null}" fill="#8b8b8b" stroke="#000000" stroke-width="0" stroke-linecap="round"/><path d="M249.05963,97.3182l-4.70797,0.33044l2.85738,-3.91544c0,0 0.56387,0.99039 0.84762,1.54007c0.32697,0.6334 1.00296,2.04493 1.00296,2.04493z" data-paper-data="{&quot;index&quot;:null}" fill="#8b8b8b" stroke="#000000" stroke-width="0" stroke-linecap="round"/><path d="M219.76491,131.6923c0.55885,4.49744 -1.06507,8.41611 -1.06507,8.41611c0,0 -1.61248,-3.75835 -2.20807,-6.72887c-0.59559,-2.97052 -0.29932,-3.97463 -0.35693,-6.06418c-0.05761,-2.08955 -0.17235,-3.99303 -0.17235,-3.99303c0,0 3.24356,3.87253 3.80242,8.36997z" fill="#990f0f" stroke="none" stroke-width="0" stroke-linecap="butt"/><path d="M264.99523,123.32235c0,0 -0.44768,1.90348 -0.50529,3.99303c-0.05761,2.08955 -0.09427,3.09366 -0.68986,6.06418c-0.59559,2.97052 -1.87514,6.72887 -1.87514,6.72887c0,0 -1.62392,-3.91867 -1.06507,-8.41611c0.55885,-4.49744 4.13536,-8.36997 4.13536,-8.36997z" data-paper-data="{&quot;index&quot;:null}" fill="#990f0f" stroke="none" stroke-width="0" stroke-linecap="butt"/></g></g></svg>