<svg version="1.1" xmlns="http://www.w3.org/2000/svg" xmlns:xlink="http://www.w3.org/1999/xlink" width="34.17311" height="34.17311" viewBox="0,0,34.17311,34.17311"><g transform="translate(-222.91348,-162.9135)"><g data-paper-data="{&quot;isPaintingLayer&quot;:true}" stroke="none" stroke-miterlimit="10" stroke-dasharray="" stroke-dashoffset="0" style="mix-blend-mode: normal"><path d="M229.98315,162.9135h20.03378c3.9166,0 7.06966,3.15307 7.06966,7.06966v20.03379c0,3.91659 -3.15306,7.06966 -7.06966,7.06966h-20.03378c-3.91659,0 -7.06967,-3.15307 -7.06967,-7.06966v-20.03379c0,-3.91659 3.15308,-7.06966 7.06967,-7.06966z" fill-opacity="0.09677" fill="#191919" fill-rule="evenodd" stroke-width="4.43922" stroke-linecap="round" stroke-linejoin="round"/><g fill-rule="nonzero" stroke-width="0" stroke-linecap="butt" stroke-linejoin="miter"><path d="M225.78236,183.37827l12.47052,-17.86796l9.00699,4.72327l6.95776,7.70502l-13.75017,16.55108l-8.39178,-3.90914z" fill="#ffffff"/><path d="M227.62865,183.26945l10.94759,-15.64463l7.70104,3.97342l5.8326,6.57568l-12.02652,14.51933l-7.16181,-3.25649z" fill="#bfbfbf"/><g fill="#ffffff"><path d="M239.39301,187.17551l-1.09164,-13.86958l1.91731,-0.16701l1.09164,13.86958z"/><path d="M233.01206,180.60891l13.64401,-2.71992l0.3605,1.89051l-13.64401,2.71992z" data-paper-data="{&quot;index&quot;:null}"/></g></g></g></g></svg>