<svg version="1.1" xmlns="http://www.w3.org/2000/svg" xmlns:xlink="http://www.w3.org/1999/xlink" width="103.66172" height="257.37535" viewBox="0,0,103.66172,257.37535"><g transform="translate(-189.15483,-54.37073)"><g data-paper-data="{&quot;isPaintingLayer&quot;:true}" fill-rule="nonzero" stroke-linejoin="miter" stroke-miterlimit="10" stroke-dasharray="" stroke-dashoffset="0" style="mix-blend-mode: normal"><path d="M189.15483,307.29367c0,0 6.61848,-135.37975 8.89823,-182.01159c1.42296,-29.10655 3.46673,-70.91135 3.46673,-70.91135l91.07326,4.45241l-12.36496,252.92294z" fill-opacity="0.01" fill="#000000" stroke="none" stroke-width="0" stroke-linecap="butt"/><path d="M201.10707,285.3515c0,0 -0.48295,5.09553 -2.5281,6.97096c-2.04514,1.87543 -5.61067,0.49241 -5.61067,0.49241c0,0 1.6204,-3.54407 3.23484,-5.02454c1.61444,-1.48047 4.90393,-2.43882 4.90393,-2.43882z" data-paper-data="{&quot;index&quot;:null}" fill="#565656" stroke="#000000" stroke-width="0" stroke-linecap="round"/><path d="M199.55037,288.91999c0,0 1.53958,4.88133 0.38625,7.40515c-1.15332,2.52382 -4.97596,2.63855 -4.97596,2.63855c0,0 0.11227,-3.89533 1.0227,-5.88764c0.91043,-1.99232 3.567,-4.15607 3.567,-4.15607z" data-paper-data="{&quot;index&quot;:null}" fill="#484848" stroke="#000000" stroke-width="0" stroke-linecap="round"/><path d="M284.34156,245.95204c2.20348,0.48387 5.06441,2.58778 5.06441,2.58778c0,0 -3.39854,2.5896 -6.18986,1.97665c-2.79132,-0.61295 -4.91836,-4.41594 -4.91836,-4.41594c0,0 3.84033,-0.63236 6.04381,-0.14849z" fill="#565656" stroke="#000000" stroke-width="0" stroke-linecap="round"/><path d="M284.10598,250.27612c1.121,1.99231 1.25924,5.88764 1.25924,5.88764c0,0 -4.70676,-0.11472 -6.12683,-2.63855c-1.42007,-2.52382 0.47559,-7.40515 0.47559,-7.40515c0,0 3.27099,2.16375 4.392,4.15606z" fill="#484848" stroke="#000000" stroke-width="0" stroke-linecap="round"/><path d="M201.03042,304.39162c0,0 -0.4854,-71.9563 -0.79335,-118.01201c-0.05451,-8.15261 8.18688,-36.76129 40.20201,-36.9211c31.60235,-0.15775 39.85672,29.48704 39.84884,36.89673c-0.029,17.5064 -0.32328,58.87401 -0.32328,58.87401c0,0 -0.43006,6.18808 -3.99407,6.45425c-4.83423,0.36103 -5.60415,-5.12476 -5.60415,-5.12476l-0.0797,-56.96399c0,0 0.07549,-3.0993 -2.81625,-3.15415c-3.43441,-0.06514 -2.94538,3.11562 -2.94538,3.11562l0.20548,114.86995l-48.21366,0.07222l-0.30539,-115.23309c0,0 0.27949,-2.919 -2.8856,-2.93443c-3.11083,-0.01515 -2.81569,2.90899 -2.81569,2.90899l0.35311,115.0668z" fill="#ffffff" stroke="#000000" stroke-width="2" stroke-linecap="butt"/><path d="M281.10754,246.37799c0,0 -1.01094,7.26306 -5.5,7.25c-6.48102,-0.01886 -7,-8 -7,-8z" fill="#5d5d5d" stroke="#000000" stroke-width="0" stroke-linecap="round"/><path d="M269.14713,246.07421l0.25,-7.5l12.75,-2.75c0,0 0.3169,1.78446 0.34925,3.75248c0.02752,1.67376 -0.21994,3.4803 -0.30479,4.43481c-0.11926,1.34169 -1.04446,3.06271 -1.04446,3.06271c0,0 -1.61903,-0.25619 -3.50342,-0.2864c-1.82943,-0.02933 -3.90897,0.1687 -5.00002,0.07778c-1.42029,-0.11836 -3.49655,-0.79138 -3.49655,-0.79138z" fill="#666666" stroke="none" stroke-width="0" stroke-linecap="butt"/><path d="M282.64713,238.99057l-13.75,-0.25l1,-8.75c0,0 7.28997,-5.32153 9.6738,-5.68828c1.39782,-0.21505 3.3262,3.68828 3.3262,3.68828z" fill="#6e6e6e" stroke="#000000" stroke-width="0" stroke-linecap="round"/><path d="M265.64526,156.30802c0,0 11.88782,8.45539 15.23702,15.71199c1.58368,3.43131 2.459,20.09088 2.7759,35.87814c0.18247,9.09055 0.01268,17.39056 0.11471,23.99431c0.09551,6.18155 0.87238,9.9989 0.87238,9.9989c0,0 -2.52027,-5.32788 -3.24961,-8.36366c-0.69047,-2.87399 -1.01622,-9.39221 -1.01622,-9.39221l-2.1688,13.71364c0,0 -0.82565,-3.28203 -1.76121,-2.67125c-0.44905,0.29316 -0.86582,2.792 -1.11589,3.62643c-0.95642,3.1914 -1.99813,8.8358 -1.99813,8.8358c0,0 -1.43504,-7.38148 -2.73983,-10.44068c-1.11875,-2.62302 -4.61699,-6.80808 -4.61699,-6.80808z" data-paper-data="{&quot;index&quot;:null}" fill="#740c0c" stroke="none" stroke-width="2" stroke-linecap="round"/><path d="M214.81194,268.64135l-17.72222,-1.63889c0,0 -0.33423,-2.26937 0.268,-29.35724c0.25263,-11.36301 0.81251,-23.31557 1.18322,-33.64302c0.58744,-16.36522 1.13246,-29.6678 2.20064,-31.9822c3.3492,-7.2566 14.90368,-16.37866 14.90368,-16.37866z" fill="#740c0c" stroke="none" stroke-width="2" stroke-linecap="round"/><path d="M196.81324,267.38464c0,0 -0.77497,-0.38619 -1.04277,-1.19424c-0.20156,-0.60818 -0.08835,-1.30377 -0.03181,-1.93716c0.06108,-0.68426 0.07458,-1.29593 0.07458,-1.64637c0,-0.6858 1,-1.22222 1,-1.22222c0,0 6.11172,0.82532 9.14217,0.93704c2.99695,0.11048 8.94116,-0.27037 8.94116,-0.27037c0,0 0.8539,0.8052 1.32269,2.03064c0.16918,0.44227 -0.12132,1.35676 -0.15808,1.85708c-0.04765,0.64848 0.10433,0.90336 -0.10891,1.65894c-0.37776,1.33852 -1.16681,1.56445 -1.16681,1.56445c0,0 -6.01896,0.00462 -9.01995,-0.29224c-2.98971,-0.29573 -8.95228,-1.48555 -8.95228,-1.48555z" fill="#990f0f" stroke="none" stroke-width="0" stroke-linecap="butt"/><path d="M255.62759,200.33394c-0.57113,0 -1.03411,-0.46299 -1.03411,-1.03411c0,-0.57113 0.46299,-1.03413 1.03411,-1.03413c0.57113,0 1.03411,0.463 1.03411,1.03413c0,0.57113 -0.46299,1.03411 -1.03411,1.03411z" fill="#000000" stroke="none" stroke-width="1.5" stroke-linecap="butt"/><path d="M250.36772,204.56953c-4.4635,-0.31439 -6.55245,-1.79392 -6.16985,-2.58011c0.11788,-0.24224 2.84645,1.06355 6.97038,1.3048c6.40897,0.37493 8.51033,-0.63173 8.51033,-0.63173v1.34616c0,0 -2.4135,1.04672 -9.31086,0.56089z" fill="#000000" stroke="#000000" stroke-width="0" stroke-linecap="butt"/><path d="M222.55496,199.29983c0,-0.57113 0.46299,-1.03413 1.03411,-1.03413c0.57113,0 1.03413,0.463 1.03413,1.03413c0,0.57113 -0.463,1.03411 -1.03413,1.03411c-0.57113,0 -1.03411,-0.46299 -1.03411,-1.03411z" fill="#000000" stroke="none" stroke-width="1.5" stroke-linecap="butt"/><path d="M228.84896,204.56953c-6.89736,0.48585 -9.31086,-0.56089 -9.31086,-0.56089v-1.34616c0,0 2.10136,1.00666 8.51033,0.63173c4.12393,-0.24126 6.85251,-1.54704 6.97039,-1.3048c0.3826,0.78618 -1.70634,2.26571 -6.16985,2.58011z" fill="#000000" stroke="#000000" stroke-width="0" stroke-linecap="butt"/><path d="M240.12942,261.12113c-0.81895,0 -1.48284,-0.66389 -1.48284,-1.48284c0,-0.81895 0.66389,-1.48284 1.48284,-1.48284c0.81895,0 1.48284,0.66389 1.48284,1.48284c0,0.81895 -0.66389,1.48284 -1.48284,1.48284z" data-paper-data="{&quot;index&quot;:null}" fill="#000000" stroke="none" stroke-width="1.5" stroke-linecap="butt"/><path d="M215.06615,305.07275v-119.86813v-28.99323c0,0 3.67319,-2.35297 5.6557,-3.74807c1.98251,-1.3951 5.17197,-2.13705 5.17197,-2.13705c0,0 -0.26826,21.77569 14.89286,21.70534c15.43477,-0.07162 13.4982,-21.70534 13.4982,-21.70534c0,0 3.91276,0.85292 6.16585,2.27989c2.25309,1.42695 5.75379,4.2719 5.75379,4.2719v28.83138v119.36333z" fill="#5d0909" stroke="none" stroke-width="2" stroke-linecap="butt"/><path d="M194.92755,108.52278c0,0 3.51199,-2.43401 6.64318,-5.15825c2.44468,-2.12696 4.66675,-4.62585 4.74147,-5.00222c0.35544,-1.79007 0.50614,-3.30948 0.50614,-3.30948c0,0 7.12817,-8.5924 10.30286,-14.20113c2.777,-4.90615 4.39136,-11.71427 8.80266,-15.2246c5.41855,-4.31184 13.54021,-6.15008 22.76463,-5.31476c9.23163,0.83598 13.00716,4.8969 24.59762,7.03694c6.60587,1.2197 12.93853,-0.15874 12.93853,-0.15874c0,0 -4.10135,3.85216 -7.50411,5.72821c-3.40276,1.87606 -5.70433,1.55405 -5.70433,1.55405c0,0 5.43396,2.29343 9.46979,2.45905c4.03582,0.16562 10.33056,-0.90177 10.33056,-0.90177c0,0 -3.11321,3.62731 -5.88667,6.11491c-2.77345,2.4876 -7.89617,2.75169 -7.89617,2.75169c0,0 3.3363,8.24546 3.34056,9.61445c0.01636,5.2652 0.57378,8.27689 2.12199,13.30934c0.38766,1.26009 2.7075,3.45058 3.40817,6.08346c0.70068,2.63287 0.90774,10.13411 0.90774,10.13411c0,0 -2.88659,-4.39563 -4.74482,-6.97398c-1.85823,-2.57834 -2.64447,-3.27889 -2.64447,-3.27889c0,0 0.54071,2.46283 1.07547,5.91261c0.13238,0.85398 -0.41245,1.65161 -0.30397,2.46134c1.1511,8.59154 0.60346,14.8656 -2.42968,22.84962c-0.31288,0.82358 0.17128,1.70559 -0.21489,2.56904c-1.08204,2.41928 -3.08401,6.43376 -3.08401,6.43376l-1.25008,-4.91426c0,0 -1.58538,1.9829 -2.65314,3.20701c-1.06776,1.22411 -3.65824,4.40601 -3.65824,4.40601c0,0 -0.13772,-2.55044 -0.32051,-3.54727c-0.13214,-0.72064 -0.67445,-1.87867 -0.67445,-1.87867c0,0 -8.75495,10.60309 -26.01774,9.61257c-16.27433,-1.0514 -25.51914,-11.93554 -25.51914,-11.93554l-0.24569,2.646c0,0 -1.22882,-0.98565 -2.49104,-3.3624c-0.32473,-0.61146 -0.31036,-1.92157 -0.67998,-2.61597c-2.50952,-4.71458 -3.51404,-11.88733 -3.87359,-12.97235c-0.59472,-1.7947 -1.53928,2.3488 -4.38663,4.19856c-3.15653,2.05063 -7.18606,1.99675 -7.18606,1.99675c0,0 2.80719,-4.0992 4.29277,-6.90185c1.48558,-2.80266 1.99079,-4.95258 1.99079,-4.95258c0,0 -2.37955,1.45519 -4.55458,3.06588c-2.17503,1.61069 -6.7635,1.2021 -6.7635,1.2021c0,0 3.78257,-3.83597 5.85982,-6.59603c2.07724,-2.76005 3.97089,-6.46614 3.97089,-6.46614c0,0 -3.60115,1.66973 -5.30168,2.24291c-1.41404,0.47662 -4.20146,0.96018 -4.20146,0.96018c0,0 5.53216,-5.4405 7.73143,-7.91401c1.92616,-2.16634 4.75385,-6.12804 4.75385,-6.12804c0,0 -1.48598,1.46486 -4.33346,1.66886c-2.39827,0.17181 -6.02679,-0.5105 -6.02679,-0.5105z" fill="#000000" stroke="none" stroke-width="1.5" stroke-linecap="butt"/><path d="M229.19461,266.68611c0.15812,-0.47434 0.63245,-0.31623 0.63245,-0.31623c1.9124,0.65094 5.7232,3.11952 5.74188,5.47434c0.01042,1.31329 -1.60128,2.37572 -1.60153,3.63911c-0.00022,1.12106 0.57118,1.90729 0.60153,2.96089c-0.03067,3.23078 -3.75505,3.36114 -6.07347,2.46894c-0.34044,-0.13101 -1.67267,-1.28719 -2.11165,-1.18232c-2.30782,0.55133 -2.77403,2.55372 -5.0926,0.24098c-1.00178,-1.33233 -4.42154,-5.08299 -3.90082,-6.6725c0.3306,-1.00917 3.26136,-3.4223 3.18501,-4.1352c-0.166,-1.54992 -1.53711,-1.72637 0.34865,-2.99845c2.90434,-0.0645 5.47521,-0.39082 8.26695,0.53153c0.00116,-0.00368 0.00236,-0.00737 0.0036,-0.01109z" data-paper-data="{&quot;index&quot;:null}" fill="#4f0808" stroke="none" stroke-width="0.5" stroke-linecap="butt"/><path d="M215.9097,116.96238c-0.22028,-7.31271 1.17225,-17.11766 1.17225,-17.11766c0,0 3.40853,0.12535 14.05123,-2.46106c8.17639,-1.98706 20.98606,-8.47258 20.98606,-8.47258c0,0 -2.30421,2.89597 -3.62153,4.28842c-1.40046,1.48034 -4.21096,4.36255 -4.21096,4.36255c0,0 7.91008,-1.2829 14.88819,-4.0071c8.7308,-3.11314 10.87546,-5.52864 13.15923,-3.95485c2.69542,1.85746 -0.10318,23.20534 -0.6858,28.74142c-0.69795,5.64187 -2.99412,9.36466 -3.75793,12.35176c-0.76381,2.98711 -0.70876,6.1093 -2.9868,15.91283c-1.42165,6.11808 -4.59266,8.7108 -10.72336,14.15408c-6.1307,5.44329 -9.49479,8.79962 -13.45325,8.67515c-3.80947,-0.11976 -8.67595,-5.53044 -13.41183,-11.05052c-5.04292,-5.878 -8.45036,-8.90037 -8.96464,-15.5961c-0.46317,-6.0302 -0.29177,-9.93462 -0.37675,-15.28498c-0.06211,-3.91043 -1.94378,-6.54777 -2.06409,-10.54138z" fill="#ffffff" stroke="#000000" stroke-width="1.5" stroke-linecap="butt"/><g stroke="none" stroke-linecap="butt"><g data-paper-data="{&quot;index&quot;:null}"><path d="M260.9081,154.34529c0,0 0.4988,14.42213 -7.94369,19.53245c-2.63807,1.59684 -7.97683,1.29858 -12.6781,0.99179c-3.53082,-0.23041 -7.10604,-0.49511 -9.39397,-1.93956c-9.26632,-5.85012 -9.36793,-22.10509 -9.36793,-22.10509c0,0 10.59802,-9.1387 14.49855,-9.1172c3.64713,0.0201 6.78356,4.58916 6.78356,4.58916c0,0 2.44981,-4.73438 9.1398,-3.16953c3.21675,0.75244 8.96181,11.21798 8.96181,11.21798z" fill="#000000" stroke-width="0"/><path d="M235.47171,143.70798c1.2978,0.06345 2.79899,0.45286 3.18788,0.75598c0.38897,0.30313 3.49298,2.74265 3.9181,3.68135c0.56361,1.31702 1.64469,-0.09369 0.94039,0.09042c-0.47741,0.12962 -5.86801,1.27086 -7.62294,1.84074c-1.73146,0.54921 -5.39663,0.89755 -7.52235,0.79362l-3.98548,-0.27124l4.0885,-3.41306c3.22433,-2.63986 5.161,-3.56757 6.99583,-3.47786z" data-paper-data="{&quot;noHover&quot;:false,&quot;origItem&quot;:[&quot;Path&quot;,{&quot;applyMatrix&quot;:true,&quot;segments&quot;:[[[597.82423,394.7731],[0,0],[-0.64062,0]],[[595.60549,396.02156],[1.07812,-0.9744],[0,0]],[594.23049,397.23956],[[595.60549,397.23956],[0,0],[0.74218,0]],[[598.05861,396.8437],[-0.59374,0.22078],[0.60156,-0.22838]],[[599.44143,396.34128],[-0.16408,0.05328],[0.24218,-0.07612]],[[599.46487,395.69422],[0.21874,0.44914],[-0.16406,-0.31972]],[[598.91799,394.9482],[0.14064,0.09896],[-0.14062,-0.09896]],[[597.82425,394.77312],[0.45312,0],[0,0]]],&quot;closed&quot;:true,&quot;fillColor&quot;:[0,0,0]}]}" fill="#ffffff" stroke-width="0.5"/><path d="M249.82786,144.32398c1.56635,0.07657 3.1589,1.00227 5.10556,3.39227c4.50394,5.59663 4.42323,5.90104 0.77803,5.22017c-1.77623,-0.37094 -4.65487,-1.21658 -5.89943,-1.91124c-1.26902,-0.65215 -7.65587,-2.48672 -8.31652,-2.73757c-0.94832,-0.33053 1.00971,0.96585 1.46789,-0.14827c2.22211,-1.96767 4.3584,-3.93789 6.86453,-3.81537z" data-paper-data="{&quot;noHover&quot;:false,&quot;origItem&quot;:[&quot;Path&quot;,{&quot;applyMatrix&quot;:true,&quot;segments&quot;:[[[602.94153,394.75028],[0,0],[-0.875,0]],[[601.53529,395.69424],[0.21874,-0.7232],[-0.14062,0.39586]],[[601.80091,396.3946],[-0.33594,-0.09898],[0.23438,0.07612]],[[603.06653,396.91986],[-0.45312,-0.20554],[0.44532,0.22076]],[[605.01965,397.4908],[-0.625,-0.09896],[1.28126,0.17508]],[[604.63683,395.7932],[1.66408,1.87268],[-0.71874,-0.79932]],[[602.94151,394.75028],[0.54688,0],[0,0]]],&quot;closed&quot;:true,&quot;fillColor&quot;:[0,0,0]}]}" fill="#ffffff" stroke-width="0.5"/><path d="M249.23838,152.6496c0.25463,0.29656 -2.28315,0.61115 -5.55004,0.45144c-5.52688,-0.2702 -9.17243,-1.82713 -5.12125,-2.10991c2.61059,-0.17837 10.07676,0.97372 10.67129,1.65847z" data-paper-data="{&quot;noHover&quot;:false,&quot;origItem&quot;:[&quot;Path&quot;,{&quot;applyMatrix&quot;:true,&quot;segments&quot;:[[[599.18365,397.1939],[0.90626,-0.10658],[-1.40626,0.16748]],[[600.84771,397.742],[-1.92968,0],[1.14062,0]],[[602.73053,397.56692],[0.09374,0.09896],[-0.21874,-0.22838]]],&quot;closed&quot;:true,&quot;fillColor&quot;:[0,0,0]}]}" fill="#ffffff" stroke-width="0.5"/><path d="M243.62683,160.63011c4.43043,0.2166 5.52902,0.59584 4.89394,1.1986c-1.43422,1.3505 -9.80426,1.17925 -12.19955,-0.29289c-2.44004,-1.47433 -2.74752,-2.42621 -0.51845,-1.68342c0.81725,0.25854 4.6243,0.6213 7.82406,0.77773z" data-paper-data="{&quot;noHover&quot;:false,&quot;origItem&quot;:[&quot;Path&quot;,{&quot;applyMatrix&quot;:true,&quot;segments&quot;:[[[598.37115,400.33026],[0.28906,0.07614],[-0.78906,-0.22076]],[[598.58209,400.87836],[-0.875,-0.47198],[0.85938,0.47198]],[[602.63677,400.7794],[-0.47656,0.49482],[0.21094,-0.22076]],[[600.91803,400.48252],[1.54686,0],[-1.11718,0]]],&quot;closed&quot;:true,&quot;fillColor&quot;:[0,0,0]}]}" fill="#ffffff" stroke-width="0.5"/><path d="M224.99294,152.79239c0.93978,0.04594 2.99766,1.84279 5.76904,5.2566c4.65736,5.66971 5.95308,6.36223 10.98773,6.60837c4.92272,0.24066 7.47549,-0.70031 10.33756,-4.64735c1.29893,-1.79426 2.70246,-3.46997 3.14466,-3.79804c1.11243,-0.73245 4.39715,-1.48815 4.80099,-1.03128c0.51251,0.52771 -2.33202,9.96591 -3.91013,12.88297c-1.95322,3.70737 -5.17392,4.8906 -13.64913,4.82595c-11.21254,-0.04545 -14.82558,-2.75153 -17.82381,-12.99538c-2.11602,-7.18463 -2.06594,-7.50254 -0.14158,-7.40847z" data-paper-data="{&quot;noHover&quot;:false,&quot;origItem&quot;:[&quot;Path&quot;,{&quot;applyMatrix&quot;:true,&quot;segments&quot;:[[[594.30081,397.9856],[0,0],[-0.67188,0]],[[594.48831,400.52818],[-0.85938,-2.46646],[1.21876,3.517]],[[600.80081,404.63894],[-3.90624,0.1751],[2.95312,-0.1218]],[[605.39457,402.7967],[-0.6172,1.32458],[0.5,-1.04292]],[[606.54301,398.31292],[0.1875,0.17508],[-0.14844,-0.15226]],[[605.06645,398.6631],[0.375,-0.27406],[-0.14844,0.1218]],[[604.04301,400.0562],[0.42188,-0.64708],[-0.92968,1.42354]],[[600.46489,401.97456],[1.71874,0],[-1.75782,0]],[[596.39457,399.72886],[1.71876,1.89552],[-1.02344,-1.14188]],[[594.30083,397.98558],[0.32812,0],[0,0]]],&quot;closed&quot;:true,&quot;fillColor&quot;:[0,0,0]}]}" fill="#ffffff" stroke-width="0.5"/></g><path d="M247.98578,172.71071c-0.4994,-0.02442 -0.47498,-0.52382 -0.47498,-0.52382l0.05288,-0.55619c0.10523,-0.27085 0.21584,-0.71228 0.21584,-0.71228c0.47345,-1.25199 0.82206,-2.31465 1.03573,-3.47134c0.04575,-0.38096 0.10015,-0.76814 0.1639,-1.15405c0.02728,-0.27015 0.04808,-0.54899 0.06227,-0.83942c0.01773,-0.36268 0.19702,-1.0576 -0.10303,-0.8531c-0.22095,0.31639 -0.4685,0.73339 -0.62378,1.14071c-0.27518,0.72189 -0.37928,1.40759 -0.37928,1.40759c-0.07274,0.20099 -0.27,0.34004 -0.49464,0.32906c-0.27581,-0.01348 -0.48847,-0.248 -0.47498,-0.52382l0.07813,-1.59809c0.04785,-0.78009 -0.02631,-0.88568 -0.58214,-1.47664c0,0 -0.33587,-0.37039 0.03452,-0.70627c1.42034,-1.28794 2.91256,-2.29761 4.74786,-2.12667c-0.17819,0.54344 -0.38944,2.70627 -0.47292,3.28809c-0.01447,0.01077 -0.02971,0.02163 -0.04576,0.03253c-0.24925,0.16935 -0.39292,5.43855 -1.88376,7.0769c0,0 -0.11064,0.46391 -0.34259,0.6052l0.01062,0.18662c0,0 -0.02442,0.4994 -0.52382,0.47498z" fill="#000000" stroke-width="0.5"/></g><path d="M264.83682,107.48107c0,0 1.47536,0.49793 4.09264,1.61084c2.39059,1.01653 4.20909,2.26318 4.20909,2.26318l0.05385,1.18528c0,0 -6.8237,-3.97378 -14.7123,-4.25904c-6.30754,-0.22806 -10.22786,1.60178 -10.22786,1.60178l0.5445,-4.14145c0,0 3.30871,-1.31831 8.02904,-0.90267c4.88786,0.4304 7.96223,1.55376 7.96223,1.55376z" data-paper-data="{&quot;index&quot;:null}" fill="#000000" stroke="none" stroke-width="1.5" stroke-linecap="butt"/><path d="M242.07197,147.70357c-1.03252,-0.05048 -3.37467,-3.4293 -3.52027,-5.5422c-0.13028,-1.89048 1.50047,-3.75921 3.9691,-3.63852c2.46864,0.12068 4.17312,0.69537 3.82066,4.38032c-0.29913,3.1273 -1.80086,4.9211 -4.26949,4.80042z" fill="#ffffff" stroke="#000000" stroke-width="1.15" stroke-linecap="butt"/><path d="M247.13924,117.82171c0,0 -0.09137,3.97003 -0.34224,7.1184c-0.49676,6.23432 -2.43573,27.67478 -2.43573,27.67478l-2.97853,-0.13696c0,0 -0.59823,-4.20697 -0.65801,-9.5433c-0.08092,-7.2232 0.34663,-16.29572 0.19612,-19.64615c-0.14267,-3.17589 -0.61583,-5.75146 -0.61583,-5.75146" fill="#ffffff" stroke="#000000" stroke-width="1.3" stroke-linecap="round"/><path d="M217.11301,127.15651c0,0 -4.75449,-3.75369 -5.71857,-9.26531c-1.01439,-5.79929 -0.98419,-9.79254 0.96746,-9.95657c1.95165,-0.16405 2.58392,2.50608 3.32016,8.52798c0.73623,6.0219 1.43095,10.6939 1.43095,10.6939z" data-paper-data="{&quot;index&quot;:null}" fill="#ffffff" stroke="#000000" stroke-width="1" stroke-linecap="butt"/><path d="M217.10341,123.20378c0,0 -3.41685,-3.09391 -3.90036,-8.65139c-0.26974,-3.10014 2.26552,-2.17213 2.26552,-2.17213" fill="none" stroke="#000000" stroke-width="0.25" stroke-linecap="round"/><path d="M220.43823,116.70296c0.30972,-4.88258 5.26892,-8.68918 10.63174,-8.34902c5.36281,0.34017 8.80902,4.68413 8.49931,9.56672c-0.30972,4.88258 -4.54803,8.58254 -9.91085,8.24239c-5.36281,-0.34017 -9.52992,-4.5775 -9.2202,-9.4601z" fill="#000000" stroke="#000000" stroke-width="1.4" stroke-linecap="butt"/><path d="M224.86482,117.03744c0.17464,-2.75318 2.54809,-4.84349 5.30127,-4.66885c2.75318,0.17464 4.84349,2.54809 4.66885,5.30127c-0.17464,2.75318 -2.54808,4.84349 -5.30127,4.66885c-2.75318,-0.17464 -4.84349,-2.54809 -4.66885,-5.30127z" fill="#ffffff" stroke="none" stroke-width="1.5" stroke-linecap="butt"/><path d="M247.4622,118.02484c0.44198,-4.8724 4.87989,-8.63048 10.19138,-8.37081c5.31149,0.25967 9.0698,4.41421 8.83091,9.30077c-0.2389,4.88656 -4.32416,8.87047 -10.13447,8.65734c-5.52666,-0.20272 -9.3494,-4.49882 -8.88782,-9.58731z" fill="#000000" stroke="#000000" stroke-width="1.4" stroke-linecap="butt"/><path d="M224.46419,106.09769c0,0 3.56963,-1.38594 8.25381,-1.26541c5.19065,0.13356 7.7162,0.90005 7.7162,0.90005l-0.22162,4.14206c0,0 -3.72116,-1.15224 -7.89095,-1.51395c-5.57659,-0.48376 -6.77148,0.59565 -11.04832,0.5216c-3.66462,-0.06345 -6.70471,-0.68004 -6.70471,-0.68004l0.12743,-1.2252c0,0 3.55808,0.5204 5.20161,0.58288c1.35652,0.05156 4.06149,-0.4365 4.06149,-0.4365z" fill="#000000" stroke="none" stroke-width="1.5" stroke-linecap="butt"/><path d="M271.79962,119.2061c1.32011,-5.92137 2.20982,-8.51708 4.13618,-8.16346c1.92634,0.35362 1.56688,4.33077 -0.00834,10.00346c-1.4971,5.3913 -6.59507,8.66332 -6.59507,8.66332c0,0 1.14713,-4.58195 2.46725,-10.50332z" data-paper-data="{&quot;index&quot;:null}" fill="#ffffff" stroke="#000000" stroke-width="1" stroke-linecap="butt"/><path d="M272.41028,115.16404c0,0 2.61369,-0.6763 2.04284,2.38276c-1.0233,5.48381 -4.72565,8.22968 -4.72565,8.22968" data-paper-data="{&quot;index&quot;:null}" fill="none" stroke="#000000" stroke-width="0.25" stroke-linecap="round"/><path d="M255.98933,122.7309c0.29526,0.02459 0.52895,0.19313 0.58934,0.40327l0.07747,0.24246c0.08545,-0.10801 0.24192,-0.20449 0.5281,-0.20774c0.65802,-0.00748 0.68579,0.49292 0.68579,0.49292c0.08433,1.52309 -0.04155,3.12899 -0.0282,4.70683c0.08514,0.07282 0.16924,0.16142 0.25089,0.26726c0.58916,0.76345 -0.00218,3.2022 -0.10333,4.13314l-0.05406,0.49745c-0.02986,0.27473 -0.34793,0.47297 -0.71044,0.44279c-0.36251,-0.03019 -0.63218,-0.27737 -0.60234,-0.5521l0.05406,-0.49744c0.0054,-0.0498 0.01029,-0.09957 0.0147,-0.14933c-0.4405,-0.37747 -0.49574,-1.19824 -0.46984,-1.79224l-0.5631,0.26884c0.01647,2.31154 0.02862,4.62023 -0.21377,6.90521l-0.07297,0.68161c0,0 -0.05325,0.4975 -0.70971,0.44345c-0.65645,-0.05405 -0.60319,-0.55156 -0.60319,-0.55156l0.07297,-0.68161c0.50585,-4.68038 -0.07308,-9.46602 0.43672,-14.16765c0,0 0.05406,-0.49744 0.71044,-0.4428c0.02986,-0.27473 0.34792,-0.47297 0.71043,-0.44279z" fill="#000000" stroke="none" stroke-width="0.5" stroke-linecap="butt"/><path d="M220.39585,116.16804c0,0 0.5037,-9.00126 11.01938,-8.29672c9.45162,0.62813 9.08478,9.86261 9.08478,9.86261c0,0 -6.4618,1.16336 -10.59846,0.84116c-4.13666,-0.3222 -9.5057,-2.40705 -9.5057,-2.40705z" fill="#000000" stroke="#000000" stroke-width="1.15" stroke-linecap="butt"/><path d="M284.63197,108.36125c0,0 -3.52245,2.17271 -8.649,6.86315c-6.20947,5.68121 -16.08064,17.12745 -23.65294,21.0622c-13.82404,7.18333 -39.51114,10.86429 -39.51114,10.86429c0,0 -2.42577,-5.24065 -3.08586,-7.64705c-0.68446,-2.49526 -0.9545,-6.98436 -0.9545,-6.98436c0,0 20.25107,-3.94933 31.88768,-9.82712c7.84618,-3.96321 22.22859,-14.62949 32.25628,-22.46303c5.2408,-4.09406 9.64234,-5.90243 9.64234,-5.90243c0,0 0.64455,5.075 1.08907,7.58348c0.40111,2.26352 0.9781,6.45087 0.9781,6.45087z" fill="#373737" stroke="none" stroke-width="0.5" stroke-linecap="round"/><path d="M208.40266,132.54562c0,0 17.40364,-1.96746 26.35262,-7.40124c7.55193,-4.58551 15.62496,-19.50163 26.09463,-28.62698c8.0815,-7.04383 18.94857,-11.29197 18.94857,-11.29197c0,0 3.29214,8.11275 3.79021,10.73085c0.41652,2.18935 -0.10128,5.9692 -0.10128,5.9692c0,0 -6.29734,2.56313 -13.05297,8.48715c-7.28249,6.38602 -14.16564,17.3593 -20.69782,21.40762c-11.03523,6.8391 -37.24882,14.44121 -37.24882,14.44121c0,0 -2.12093,-3.99339 -2.754,-6.65272c-0.63307,-2.65934 -1.33113,-7.06311 -1.33113,-7.06311z" fill="#424242" stroke="#000000" stroke-width="0" stroke-linecap="round"/><path d="M208.95506,87.64608c0.46218,-1.86861 3.55026,-5.75907 3.55026,-5.75907c0,0 6.75692,1.03277 17.72335,7.57629c12.37996,7.38695 26.81583,19.10967 33.85912,22.8372c7.41041,3.92181 18.42358,8.71824 18.42358,8.71824c0,0 0.73025,4.64007 0.86055,7.7545c0.13851,3.31103 -0.75474,8.85383 -0.75474,8.85383c0,0 -13.1227,-0.54281 -24.34979,-7.15938c-5.82203,-3.43115 -14.85448,-13.14154 -23.24383,-19.85328c-11.56252,-9.25038 -27.73494,-15.88347 -27.73494,-15.88347z" fill="#515151" stroke="none" stroke-width="0.5" stroke-linecap="round"/><path d="M254.60282,123.99739c-13.2131,-12.38268 -28.48312,-26.08724 -34.5413,-31.99907c-5.85152,-5.71016 -8.30529,-10.14792 -8.30529,-10.14792c0,0 2.52418,-4.61324 3.68165,-6.15943c1.24608,-1.66455 7.34857,-7.50159 7.34857,-7.50159c0,0 8.68818,7.89654 13.15106,12.29109c4.46287,4.39455 13.64526,16.34014 25.40323,29.74838c12.24075,13.95877 21.78028,23.91866 21.78028,23.91866c0,0 -0.63191,7.11556 -1.18906,8.99221c-0.54108,1.82252 -2.20465,4.10771 -2.20465,4.10771c0,0 -11.42606,-10.41253 -25.12449,-23.25004z" fill="#666666" stroke="none" stroke-width="0.5" stroke-linecap="round"/><path d="M215.05758,267.00228c0,0 -1.16468,-3.66445 -1.3529,-5.85246c-0.3692,-4.29197 -0.6836,-27.58383 -1.46385,-51.0829c-0.15607,-4.70037 2.44275,-7.14554 2.13838,-15.64223c-0.28048,-7.82994 -1.98829,-37.42241 -1.98829,-37.42241c0,0 2.59539,-2.03594 3.84331,-2.85459c1.1849,-0.77731 3.46494,-1.93972 3.46494,-1.93972c0,0 4.90093,16.73262 7.99678,19.66866c4.13218,3.91887 22.58342,3.56796 26.79233,-0.40828c3.39038,-3.20295 6.58153,-18.6004 6.58153,-18.6004c0,0 2.62889,1.30418 3.89312,2.25195c1.20064,0.9001 3.51132,3.29906 3.51132,3.29906c0,0 0.22924,26.55471 -0.23856,35.02458c-0.46796,8.47276 2.66078,11.35518 2.4658,16.2687c-0.94301,23.76459 -2.1974,47.32046 -2.54221,51.96719c-0.18491,2.49196 -1.6017,4.82287 -1.6017,4.82287z" fill="#0c0c0c" stroke="none" stroke-width="0" stroke-linecap="butt"/><path d="M217.03701,215.59952c-1.54435,-1.16987 -1.1058,-22.21052 0,-23.30337c1.50494,-1.48733 15.75972,-0.35525 16.79522,0.62982c1.07035,1.01821 1.13038,21.89166 0,23.30337c-1.06707,1.33263 -15.25902,0.53389 -16.79522,-0.62982z" fill="#0a0a0a" stroke="#000000" stroke-width="0" stroke-linecap="butt"/><path d="M240.40375,266.69534v-91.88637h1.2807v91.88637z" fill="#000000" stroke="none" stroke-width="0" stroke-linecap="butt"/><path d="M217.03701,210.59952c-1.54435,-1.16987 -1.1058,-22.21052 0,-23.30337c1.50494,-1.48733 15.75972,-0.35525 16.79522,0.62982c1.07035,1.01821 1.13038,21.89166 0,23.30337c-1.06707,1.33263 -15.25902,0.53389 -16.79522,-0.62982z" fill="#101010" stroke="#000000" stroke-width="0" stroke-linecap="butt"/><path d="M248.69525,216.06268c-1.13038,-1.41171 -1.07035,-22.28515 0,-23.30337c1.03551,-0.98507 15.29028,-2.11715 16.79522,-0.62982c1.1058,1.09285 1.54435,22.13349 0,23.30337c-1.5362,1.16371 -15.72816,1.96245 -16.79522,0.62982z" data-paper-data="{&quot;index&quot;:null}" fill="#0a0a0a" stroke="#000000" stroke-width="0" stroke-linecap="butt"/><path d="M234.18964,187.86217c0,0 -9.43078,8.39712 -10.6,8.4c-0.76596,0.00188 -7.075,-8.8 -7.075,-8.8c0,0 0.95198,-0.56751 2.73735,-0.8453c1.45128,-0.22582 3.45325,-0.17539 5.94219,-0.15685c2.72008,0.02026 5.25566,0.22096 6.93686,0.60597c1.275,0.29198 2.05859,0.79617 2.05859,0.79617z" fill="#161616" stroke="#000000" stroke-width="0" stroke-linecap="round"/><path d="M248.86192,211.42933c-1.13038,-1.41171 -1.07035,-22.28515 0,-23.30336c1.03551,-0.98507 15.29027,-2.11716 16.79522,-0.62983c1.1058,1.09285 1.54435,22.1335 0,23.30337c-1.5362,1.16371 -15.72815,1.96245 -16.79522,0.62982z" data-paper-data="{&quot;index&quot;:null}" fill="#101010" stroke="#000000" stroke-width="0" stroke-linecap="butt"/><path d="M248.38963,188.11217c0,0 0.78359,-0.50419 2.05859,-0.79617c1.6812,-0.38501 4.21678,-0.58571 6.93686,-0.60597c2.48894,-0.01854 4.49091,-0.06897 5.94219,0.15685c1.78537,0.27779 2.73735,0.8453 2.73735,0.8453c0,0 -6.30905,8.80188 -7.075,8.8c-1.16922,-0.00288 -10.6,-8.4 -10.6,-8.4z" data-paper-data="{&quot;index&quot;:null}" fill="#161616" stroke="#000000" stroke-width="0" stroke-linecap="round"/><path d="M274.38891,185.26563c0.03392,-0.11245 0.08968,-0.22941 0.1707,-0.34976c0.03934,-0.05844 0.10164,-0.11495 0.18271,-0.1685c0.51231,-0.92278 1.06023,-0.86583 1.90798,-1.15327c0.00222,-0.00075 0.00424,-0.00183 0.00606,-0.00321c-0.07229,-0.23312 -0.14084,-0.45737 -0.20486,-0.66282c-0.38242,-0.88686 -1.12577,-2.38708 -1.02496,-2.77352c0.55481,-2.12677 6.55723,-1.10065 6.55723,-1.10065l0.88307,11.71843c0,0 -1.59023,1.27351 -1.75,2c-0.19307,0.87791 -0.02394,1.85793 -0.25,2.75c-0.21615,0.85296 -1.34674,2.04548 -0.98662,2.63512c-0.40161,0.9376 -3.3669,5.82215 -4.67533,4.01287c-0.91435,-1.26435 0.5046,-4.09551 -0.25,-5.5c-0.64061,-1.19234 -2.55875,0.92918 -2.05578,-1.39901c0.08519,-1.09195 1.02899,-2.9863 0.74448,-3.99898c-0.34895,-1.24207 -2.71009,-2.99287 -2.49663,-4.24321c0.11879,-0.69583 1.04727,-0.61805 1.48325,-0.62167c0.30959,-0.00256 0.71632,-0.03435 1.17028,-0.07226c0.12706,-0.35757 0.36754,-0.7429 0.5884,-1.06956zM277.90589,186.49933c-0.05669,-0.04907 -0.1135,-0.11438 -0.17021,-0.19339c-0.0762,0.01433 -0.15414,0.02605 -0.23259,0.03597c0.15204,0.04127 0.28769,0.09311 0.40281,0.15742zM277.02668,180.80388c0,0 -0.09382,-0.51036 -0.10395,-0.94174c-0.23918,0.0727 -0.42141,0.20884 -0.50062,0.44181c0.3619,-0.14333 0.60457,0.49994 0.60457,0.49994z" fill="#650a0a" stroke="none" stroke-width="0.5" stroke-linecap="butt"/><path d="M271.37786,219.12913c-0.09137,-0.03673 -0.18107,-0.1108 -0.24971,-0.24807c-0.22361,-0.44721 0.22361,-0.67082 0.22361,-0.67082c0.83444,-0.41531 3.0004,-2.47815 4.02652,-1.70058c0.461,0.34933 -0.36202,1.6364 0.20995,1.72247c3.88115,0.58405 3.37402,2.23108 2.16211,5.68875c-1.57501,1.60404 0.31157,3.48022 -0.74252,5.23754c-0.58566,0.97637 -2.50353,2.68284 -3.60778,1.2619c-0.73846,-0.95023 -0.58613,-2.96878 -0.5613,-4.14799c-0.61979,-1.15155 -1.36643,-0.64015 -1.99192,-1.96998c-0.92958,-1.97636 0.00889,-3.60989 0.68351,-5.14206c-0.00338,-0.00011 -0.00677,-0.00026 -0.01017,-0.00044l-0.04834,0.10116c0,0 -0.05028,-0.05028 -0.09395,-0.13188z" fill="#650a0a" stroke="none" stroke-width="0.5" stroke-linecap="butt"/><path d="M207.34129,239.18636c2.12806,1.24659 3.00262,6.16106 3.73068,8.34523c0.01322,2.21235 -0.62193,5.21622 -2.8022,6.29203c-1.08943,0.53756 -2.82306,0.26861 -3.68229,-0.63311c-0.80404,-0.19437 -1.52868,-0.46323 -2.56771,-0.11689c-1.10064,0.21071 -1.96456,4.20012 -4.09696,1.33042c-0.47798,-0.64325 -0.64426,-1.91017 -0.64426,-1.91017l0.29712,-16.56817c0,0 4.10057,0.07828 4.7147,1.24464c0.19328,0.36707 0.02599,0.97217 0.39161,1.33779c0.52218,0.52218 1.20796,0.76462 1.91289,0.98867c0.89703,-0.30146 1.92039,-0.79432 2.74642,-0.31044z" fill="#650a0a" stroke="none" stroke-width="0.5" stroke-linecap="butt"/><path d="M202.07538,185.8764c-0.95916,-2.04443 -1.54329,-4.25929 -0.53701,-6.46602c0.62033,-1.36035 2.28931,-0.93754 2.81847,-1.88252c0.50341,-0.89898 0.13879,-2.9542 0.13879,-3.91521c0.04243,-2.74345 3.26602,-5.78656 5.8309,-3.12484c1.37052,1.42227 0.9191,4.55697 0.9191,6.37537c-0.002,0.83023 -0.46934,2.13447 -0.26338,2.8846c0.31651,1.15274 1.50997,2.74351 1.25,3.97975c-0.47586,2.26287 -2.33014,4.59105 -3.28941,6.60873c-1.44947,2.69308 1.28048,6.11451 0.01473,8.46773c-1.24505,2.31473 -2.99926,0.64442 -3.69856,-0.82647c-0.04384,-3.38801 -2.75908,-3.84791 -4.18684,-6.09902c-0.91868,-1.44846 -0.06207,-4.60299 1.00321,-6.00212z" fill="#650a0a" stroke="none" stroke-width="0.5" stroke-linecap="butt"/><path d="M211.22863,214.91517c0.23037,0.27884 0.43022,0.58593 0.58058,0.91316c0.69446,1.63897 0.05919,3.22493 0.33538,4.91248c0.2984,1.82327 0.83523,4.42029 0.00511,6.21912l0.17704,0.09826l-0.26602,0.47931c-0.08737,0.16552 -0.26453,0.27496 -0.46394,0.26638c-0.19942,-0.00858 -0.36651,-0.13284 -0.43934,-0.30526l-0.18355,-0.41032c-1.83353,-1.34663 -4.15085,-1.62788 -5.99074,-2.89686c-0.33774,-0.23294 -0.96054,-0.99017 -0.92492,-1.46646c0.12187,-1.62966 3.7473,-1.38297 3.6342,-2.73136c-0.36258,-0.74918 -1.98349,-3.60189 -1.82466,-4.2774c0.2232,-0.94929 1.45245,-0.67117 1.85069,-0.31495c0.37363,0.3342 0.03748,-1.15868 0.45728,-1.43264c0.52246,-0.34096 2.19618,0.01979 2.76352,0.04421c0,0 0.49954,0.0215 0.47803,0.52104c-0.00848,0.1971 -0.09139,0.31309 -0.18867,0.38128z" fill="#650a0a" stroke="none" stroke-width="0.5" stroke-linecap="butt"/><path d="M198.82832,306.14153c0,0 -0.5,-3.38914 -0.5,-5.37711c0,-2.475 0.5,-8.33452 0.5,-8.33452l13.75,-0.26886c0,0 0.5,3.62886 0.5,5.64597c0,2.32916 -0.5,7.52796 -0.5,7.52796c0,0 -6.46277,0.91681 -8.9869,1.06488c-1.8376,0.10779 -4.7631,-0.25831 -4.7631,-0.25831z" fill="#5d5d5d" stroke="none" stroke-width="0" stroke-linecap="butt"/><path d="M199.08755,281.86591c0,0 -0.38194,-2.20565 -0.45622,-3.49176c-0.09171,-1.58785 -0.05286,-5.32232 -0.05286,-5.32232c0,0 5.72677,-1.09059 8.19297,-1.3302c2.03023,-0.19725 5.55234,-0.00527 5.55234,-0.00527c0,0 0.25454,3.69679 0.25454,5.60896c0,2.00115 -0.25454,6.14315 -0.25454,6.14315c0,0 -3.22532,0.8704 -5.38265,0.61888c-2.39878,-0.27967 -7.85358,-2.22144 -7.85358,-2.22144z" fill="#6e6e6e" stroke="none" stroke-width="0" stroke-linecap="butt"/><path d="M198.6019,293.38858c0,0 -0.27358,-5.4735 -0.27358,-7.43647c0,-1.75574 0.27358,-4.98918 0.27358,-4.98918c0,0 1.62418,-0.06991 3.51004,0.16788c1.82259,0.22981 3.88959,0.76759 4.97109,0.76759c2.42799,0 5.4717,-0.93547 5.4717,-0.93547c0,0 0.27358,5.28095 0.27358,7.48377c0,1.74148 -0.27358,4.67736 -0.27358,4.67736c0,0 -2.12095,1.35329 -4.46629,0.8176c-1.95095,-0.44561 -4.05718,-0.92736 -5.22698,-1.11036c-1.70769,-0.26715 -4.25956,0.55729 -4.25956,0.55729z" fill="#666666" stroke="none" stroke-width="0" stroke-linecap="butt"/><path d="M265.70835,277.95288l-0.2211,22.62727c0,0 -6.56223,2.09855 -8.71957,2.64915c-2.28145,0.56012 -3.46015,-1.12198 -5.50161,-1.81556c-0.97102,-0.3299 -1.9257,-0.01412 -2.89975,-0.17597c-3.44177,-0.57187 -3.83211,-3.63325 -3.41592,-6.55651c0.478,-4.30501 -3.99085,-11.05445 1.90467,-13.59897c1.11945,-0.48316 2.60948,-0.23808 3.80051,-0.23798c3.97516,0.14814 5.12223,-1.31009 8.58856,-2.75734c3.46632,-1.44725 6.46422,-0.13408 6.46422,-0.13408z" data-paper-data="{&quot;index&quot;:null}" fill="#4f0808" stroke="none" stroke-width="0.5" stroke-linecap="butt"/></g></g></svg>