<svg version="1.1" xmlns="http://www.w3.org/2000/svg" xmlns:xlink="http://www.w3.org/1999/xlink" width="34.17311" height="34.17311" viewBox="0,0,34.17311,34.17311"><g transform="translate(-222.91345,-162.91345)"><g data-paper-data="{&quot;isPaintingLayer&quot;:true}" stroke="none" stroke-miterlimit="10" stroke-dasharray="" stroke-dashoffset="0" style="mix-blend-mode: normal"><path d="M229.98311,162.91345h20.03379c3.9166,0 7.06966,3.15307 7.06966,7.06966v20.03379c0,3.91659 -3.15306,7.06966 -7.06966,7.06966h-20.03379c-3.91659,0 -7.06966,-3.15307 -7.06966,-7.06966v-20.03379c0,-3.91659 3.15307,-7.06966 7.06966,-7.06966z" fill="#760c0c" fill-rule="evenodd" stroke-width="4.43922" stroke-linecap="round" stroke-linejoin="round"/><g fill-rule="nonzero" stroke-width="0.5" stroke-linecap="butt" stroke-linejoin="miter"><path d="M229.15986,175.3384c2.57453,-5.98684 9.51491,-8.75307 15.50175,-6.17853c5.98684,2.57453 8.75307,9.51491 6.17853,15.50175c-2.57453,5.98684 -9.51491,8.75306 -15.50174,6.17853c-5.98684,-2.57453 -8.75306,-9.5149 -6.17853,-15.50174z" fill="#9b0f0f"/><path d="M247.57434,172.96346c0.7829,-0.39945 1.93042,0.28186 2.56304,1.52175c0.63263,1.23989 0.51082,2.56886 -0.27208,2.96831c-0.7829,0.39945 -1.93041,-0.28186 -2.56304,-1.52175c-0.63263,-1.23989 -0.51082,-2.56886 0.27207,-2.96831z" fill="#000000"/><path d="M232.75654,172.88864c0.92653,0.30943 1.17447,1.79307 0.55381,3.3138c-0.62067,1.52074 -1.87492,2.50267 -2.80145,2.19324c-0.92653,-0.30943 -1.17447,-1.79307 -0.55381,-3.3138c0.62067,-1.52074 1.87492,-2.50267 2.80145,-2.19324z" fill="#000000"/><path d="M233.23355,187.72759c0.36964,-0.1959 1.09231,0.06224 1.61412,0.57656c0.52181,0.51433 0.64518,1.09006 0.27553,1.28596c-0.36964,0.1959 -1.09231,-0.06224 -1.61413,-0.57655c-0.52181,-0.51433 -0.64517,-1.09007 -0.27553,-1.28597z" data-paper-data="{&quot;index&quot;:null}" fill="#000000"/><path d="M240.00355,169.69088c-0.51025,-0.01161 -0.91996,-0.30315 -0.91512,-0.65117c0.00485,-0.34803 0.42238,-0.62076 0.93263,-0.60915c0.51025,0.01161 0.91996,0.30315 0.91512,0.65117c-0.00485,0.34803 -0.42238,0.62076 -0.93263,0.60914z" data-paper-data="{&quot;index&quot;:null}" fill="#000000"/><path d="M239.32278,180.16742c1.99794,-2.27631 5.21776,-2.669 7.19167,-0.87712c1.97391,1.79189 1.95443,5.08979 -0.04351,7.36609c-1.99794,2.27631 -5.21776,2.669 -7.19167,0.87712c-1.97391,-1.79189 -1.95443,-5.08979 0.04351,-7.36609z" fill="#000000"/><path d="M250.24233,185.55119c-0.2123,0.36742 -0.57614,0.62267 -0.81266,0.57011c-0.23652,-0.05256 -0.25616,-0.39301 -0.04385,-0.76043c0.2123,-0.36742 0.57614,-0.62267 0.81266,-0.57011c0.23652,0.05256 0.25616,0.39301 0.04386,0.76042z" data-paper-data="{&quot;index&quot;:null}" fill="#000000"/></g></g></g></svg>