<svg version="1.1" xmlns="http://www.w3.org/2000/svg" xmlns:xlink="http://www.w3.org/1999/xlink" width="118.5021" height="311.60262" viewBox="0,0,118.5021,311.60262"><g transform="translate(-180.30068,-38.4214)"><g data-paper-data="{&quot;isPaintingLayer&quot;:true}" fill-rule="nonzero" stroke-linejoin="miter" stroke-miterlimit="10" stroke-dasharray="" stroke-dashoffset="0" style="mix-blend-mode: normal"><path d="" fill="#000000" stroke="none" stroke-width="1.5" stroke-linecap="butt"/><path d="" fill="#ffffff" stroke="#000000" stroke-width="1.5" stroke-linecap="butt"/><path d="" fill="#ffffff" stroke="#000000" stroke-width="1.5" stroke-linecap="butt"/><path d="" data-paper-data="{&quot;index&quot;:null}" fill="#000000" stroke="none" stroke-width="1.5" stroke-linecap="butt"/><path d="" fill="#000000" stroke="none" stroke-width="1.5" stroke-linecap="butt"/><path d="" fill="#ffffff" stroke="#000000" stroke-width="1.4" stroke-linecap="butt"/><path d="" fill="#000000" stroke="none" stroke-width="1.5" stroke-linecap="butt"/><path d="" fill="#ffffff" stroke="#000000" stroke-width="1.15" stroke-linecap="butt"/><path d="" fill="#ffffff" stroke="#000000" stroke-width="1.15" stroke-linecap="butt"/><path d="" fill="#000000" stroke="none" stroke-width="1.5" stroke-linecap="butt"/><path d="" data-paper-data="{&quot;index&quot;:null}" fill="#ffffff" stroke="#000000" stroke-width="1" stroke-linecap="butt"/><path d="M202.88488,332.20644v-15.30586h15.19421v15.30586z" fill="#da1616" stroke="none" stroke-width="0" stroke-linecap="butt"/><path d="M217.97734,332.20644v-15.30586h15.19421v15.30586z" fill="#c01313" stroke="none" stroke-width="0" stroke-linecap="butt"/><path d="M233.06982,332.20644v-15.30586h15.19422v15.30586z" fill="#b31212" stroke="none" stroke-width="0" stroke-linecap="butt"/><path d="M248.16232,332.20644v-15.30586h15.19421v15.30586z" fill="#990f0f" stroke="none" stroke-width="0" stroke-linecap="butt"/><path d="M263.14054,332.20644v-15.30586h15.19421v15.30586z" fill="#740c0c" stroke="none" stroke-width="0" stroke-linecap="butt"/><path d="M203.20881,350.02403v-15.30586h15.19421v15.30586z" fill="#8b8b8b" stroke="none" stroke-width="0" stroke-linecap="butt"/><path d="M218.30129,350.02403v-15.30586h15.19421v15.30586z" fill="#666666" stroke="none" stroke-width="0" stroke-linecap="butt"/><path d="M233.39378,350.02403v-15.30586h15.19422v15.30586z" fill="#4b4b4b" stroke="none" stroke-width="0" stroke-linecap="butt"/><path d="M248.48628,350.02403v-15.30586h15.19421v15.30586z" fill="#2b2b2b" stroke="none" stroke-width="0" stroke-linecap="butt"/><path d="M263.44543,350.02403v-15.30586h15.19421v15.30586z" fill="#0c0c0c" stroke="none" stroke-width="0" stroke-linecap="butt"/><g data-paper-data="{&quot;index&quot;:null}" stroke-width="0"><path d="M283.60519,96.66971c0,0 5.28184,0.59286 7.12859,-3.90827c2.37298,-5.78377 0.63027,-54.34003 0.63027,-54.34003c0,0 9.62385,50.58528 6.97862,58.7944c-2.53218,7.85827 -16.73347,12.86948 -16.73347,12.86948z" fill="#b31212" stroke="#000000" stroke-linecap="round"/><path d="M276.78515,83.89046c5.4893,0.32265 9.52393,8.36878 9.01161,17.97151c-0.51234,9.60275 -5.37763,17.12574 -10.86693,16.8031c-5.4893,-0.32265 -9.52392,-8.36878 -9.0116,-17.97151c0.51234,-9.60275 5.37762,-17.12574 10.86692,-16.8031z" fill="#990f0f" stroke="none" stroke-linecap="butt"/><path d="M276.97851,84.75455c3.65496,0 6.61789,4.59752 6.61789,10.26884c0,5.67133 -2.96293,10.26884 -6.61789,10.26884c-3.65496,0 -6.61789,-4.59752 -6.61789,-10.26884c0,-5.67133 2.96293,-10.26884 6.61789,-10.26884z" fill="#b31212" stroke="none" stroke-linecap="butt"/><path d="M291.94807,67.95637l-0.58401,-29.20897c0,0 1.00389,11.40846 2.27409,17.86297c0.95402,4.84785 3.00023,16.61388 3.00023,16.61388z" fill="#740c0c" stroke="#000000" stroke-linecap="round"/></g><g stroke-width="0"><path d="M197.49426,110.08529c0,0 -14.20129,-5.01121 -16.73347,-12.86947c-2.64523,-8.20912 6.97862,-58.7944 6.97862,-58.7944c0,0 -1.74271,48.55626 0.63027,54.34003c1.84675,4.50113 7.12858,3.90826 7.12858,3.90826z" fill="#b31212" stroke="#000000" stroke-linecap="round"/><path d="M213.18521,100.69356c0.51234,9.60275 -3.52229,17.64886 -9.0116,17.97151c-5.4893,0.32265 -10.35459,-7.20034 -10.86693,-16.80309c-0.51234,-9.60275 3.5223,-17.64887 9.0116,-17.97152c5.4893,-0.32265 10.35459,7.20035 10.86693,16.8031z" fill="#990f0f" stroke="none" stroke-linecap="butt"/><path d="M208.74283,95.02339c0,5.67133 -2.96292,10.26884 -6.61788,10.26884c-3.65496,0 -6.61788,-4.59752 -6.61788,-10.26884c0,-5.67133 2.96292,-10.26884 6.61788,-10.26884c3.65496,0 6.61788,4.59752 6.61788,10.26884z" fill="#b31212" stroke="none" stroke-linecap="butt"/><path d="M182.46507,73.22426c0,0 2.04622,-11.76603 3.00023,-16.61389c1.2702,-6.45451 2.27409,-17.86296 2.27409,-17.86296l-0.58401,29.20897z" fill="#740c0c" stroke="#000000" stroke-linecap="round"/></g><path d="M271.9122,304.87012l-0.43584,-137.98694h18.89747l1.74237,56.96395l1.58593,0.08428l0.00219,80.93871z" data-paper-data="{&quot;index&quot;:null}" fill="#4b4b4b" stroke="none" stroke-width="NaN" stroke-linecap="butt"/><path d="M284.162,153.28213c7.70269,0 13.94696,9.39625 13.94696,20.9871c0,11.59086 -6.24427,19.51866 -13.94696,19.51866c-7.70269,0 -13.94696,-7.9278 -13.94696,-19.51866c0,-11.59086 6.24427,-20.9871 13.94696,-20.9871z" data-paper-data="{&quot;index&quot;:null}" fill="#990f0f" stroke="none" stroke-width="0" stroke-linecap="butt"/><path d="M296.95829,182.63979c0,0 -0.10682,0.52539 -0.21491,0.80425c-0.11716,0.30223 -0.46306,0.94468 -0.46306,0.94468c0,0 -4.223,-3.64046 -5.74114,-6.40527c-2.07956,-3.78724 -5.59076,-14.23206 -5.59076,-14.23206l0.48427,-0.81617c0,0 4.29073,10.82657 6.37519,14.39023c1.65987,2.83776 5.15042,5.31432 5.15042,5.31432z" data-paper-data="{&quot;index&quot;:null}" fill="#7e0d0d" stroke="#7e0d0d" stroke-width="0" stroke-linecap="round"/><path d="M292.19509,223.90823l-19.05254,1.04936l0.49811,-1.34917l18.40224,-1.64899z" data-paper-data="{&quot;index&quot;:null}" fill="#2b2b2b" stroke="#000000" stroke-width="0" stroke-linecap="round"/><path d="M273.85453,251.56462v-4.897h19.7582v4.897z" data-paper-data="{&quot;index&quot;:null}" fill="#510909" stroke="none" stroke-width="0" stroke-linecap="butt"/><path d="M272.69228,268.42425v-10.14377h20.92044v10.14377z" data-paper-data="{&quot;index&quot;:null}" fill="#420707" stroke="none" stroke-width="0" stroke-linecap="butt"/><path d="M271.99494,300.60445v-25.5343h21.50156v25.5343z" data-paper-data="{&quot;index&quot;:null}" fill="#380606" stroke="none" stroke-width="0" stroke-linecap="butt"/><path d="M186.14361,304.87011l0.00219,-80.93871l1.58593,-0.08428l1.74237,-56.96395h18.89747l-0.43584,137.98694z" fill="#4b4b4b" stroke="none" stroke-width="NaN" stroke-linecap="butt"/><path d="M209.63292,174.26922c0,11.59086 -6.24427,19.51866 -13.94696,19.51866c-7.70269,0 -13.94696,-7.9278 -13.94696,-19.51866c0,-11.59086 6.24427,-20.9871 13.94696,-20.9871c7.70269,0 13.94696,9.39625 13.94696,20.9871z" fill="#990f0f" stroke="none" stroke-width="0" stroke-linecap="butt"/><path d="M182.88965,182.63976c0,0 3.49056,-2.47656 5.15042,-5.31432c2.08446,-3.56365 6.37519,-14.39023 6.37519,-14.39023l0.48427,0.81617c0,0 -3.5112,10.44482 -5.59076,14.23206c-1.51815,2.7648 -5.74114,6.40527 -5.74114,6.40527c0,0 -0.34589,-0.64245 -0.46306,-0.94468c-0.1081,-0.27885 -0.21491,-0.80425 -0.21491,-0.80425z" fill="#7e0d0d" stroke="#7e0d0d" stroke-width="0" stroke-linecap="round"/><path d="M187.80504,221.95941l18.40224,1.64899l0.49811,1.34917l-19.05254,-1.04936z" fill="#2b2b2b" stroke="#000000" stroke-width="0" stroke-linecap="round"/><path d="M186.23523,251.56461v-4.897h19.7582v4.897z" fill="#510909" stroke="none" stroke-width="0" stroke-linecap="butt"/><path d="M186.23523,268.42425v-10.14377h20.92044v10.14377z" fill="#420707" stroke="none" stroke-width="0" stroke-linecap="butt"/><path d="M186.35145,300.60445v-25.5343h21.50156v25.5343z" fill="#380606" stroke="none" stroke-width="0" stroke-linecap="butt"/><path d="M206.2301,304.96504l-1.09625,-64.07364l-2.89794,-37.60497l74.79383,-1.04936l-2.86629,38.97729l-0.81718,63.75068z" fill="#565656" stroke="none" stroke-width="0" stroke-linecap="butt"/><path d="M203.41167,227.06698l-2.13296,-24.13031l76.12716,-1.04936l-2.04562,24.46626l-10.25465,6.11946l-25.24635,-5.68912l-23.8377,5.38208z" fill="#990f0f" stroke="none" stroke-width="0" stroke-linecap="butt"/><path d="M239.76473,213.52482l-25.22968,2.90698l-20.67908,-9.4601l-0.58112,-54.78399l6.07078,-5.26843l40.41909,-7.46941l40.09741,7.77403l6.1019,4.96383l-0.58112,54.78399l-20.67907,9.4601z" fill="#666666" stroke="#000000" stroke-width="0" stroke-linecap="butt"/><path d="M193.27486,152.66434l6.07078,-5.26843l40.41909,-7.46941l40.09741,7.77403l6.1019,4.96383l-46.31972,9.4442z" fill="#727272" stroke="#000000" stroke-width="0" stroke-linecap="butt"/><path d="M204.29465,149.74835l-3.19043,-89.35959l37.5062,-6.30774l39.63535,7.35903l-3.7307,88.30831l-34.51227,7.35903z" fill="#666666" stroke="none" stroke-width="0" stroke-linecap="butt"/><path d="M238.61042,54.08102l39.63535,7.35903l-3.7307,88.30831l-34.51227,7.35903z" fill="#515151" stroke="none" stroke-width="0" stroke-linecap="butt"/><path d="M209.65853,145.2077l-2.70587,-79.18057l31.80972,-5.58921l33.61549,6.52076l-3.16408,78.24903l-29.2705,6.52075z" fill="#0c0c0c" stroke="none" stroke-width="0" stroke-linecap="butt"/><path d="M209.65853,145.2077l-2.70587,-79.18057l32.05422,-5.58921l0.93641,91.29053z" fill="#191919" stroke="none" stroke-width="0" stroke-linecap="butt"/><path d="M232.84444,107.87353c0,0 -6.02194,3.51815 -10.7631,0.91871c-4.74115,-2.59946 -6.40614,-10.33215 -6.40614,-10.33215z" fill="#da1616" stroke="none" stroke-width="0" stroke-linecap="butt"/><path d="M263.23598,98.46008c0,0 -1.66499,7.7327 -6.40615,10.33216c-4.74115,2.59946 -10.76309,-0.91871 -10.76309,-0.91871l17.16925,-9.41345z" data-paper-data="{&quot;index&quot;:null}" fill="#da1616" stroke="none" stroke-width="0" stroke-linecap="butt"/><g fill="#da1616" stroke="none" stroke-width="0" stroke-linecap="butt"><path d="M245.0401,87.14474l-14.99748,-16.74321l2.31829,-2.07658l14.99748,16.74321z"/><path d="M230.3487,84.91317l14.99748,-16.74321l2.31829,2.07658l-14.99748,16.74322z" data-paper-data="{&quot;index&quot;:null}"/></g><path d="M230.00645,136.12937l9.66823,-5.66823l9.75705,5.66823l-10.00155,-2.22326z" fill="#da1616" stroke="none" stroke-width="0" stroke-linecap="butt"/><path d="M214.8182,216.38431l24.64285,-20.76191l25.14286,21l-25.28571,-2.80952z" fill="#585858" stroke="#000000" stroke-width="0" stroke-linecap="round"/></g></g></svg>