<svg version="1.1" xmlns="http://www.w3.org/2000/svg" xmlns:xlink="http://www.w3.org/1999/xlink" width="116.92168" height="112.58568" viewBox="0,0,116.92168,112.58568"><g transform="translate(-181.02446,-154.4383)"><g data-paper-data="{&quot;isPaintingLayer&quot;:true}" fill-rule="nonzero" stroke="none" stroke-width="0" stroke-linecap="butt" stroke-linejoin="miter" stroke-miterlimit="10" stroke-dasharray="" stroke-dashoffset="0" style="mix-blend-mode: normal"><path d="M181.02446,178.06171v-23.62341h23.45109v23.62341z" fill="#da1616"/><path d="M204.31853,178.06171v-23.62341h23.45109v23.62341z" fill="#c01313"/><path d="M227.61261,178.06171v-23.62341h23.4511v23.62341z" fill="#b31212"/><path d="M250.9067,178.06171v-23.62341h23.45109v23.62341z" fill="#990f0f"/><path d="M274.02445,178.06171v-23.62341h23.45109v23.62341z" fill="#740c0c"/><path d="M181.52446,205.56171v-23.62341h23.45109v23.62341z" fill="#8b8b8b"/><path d="M204.81853,205.56171v-23.62341h23.45109v23.62341z" fill="#666666"/><path d="M228.11261,205.56171v-23.62341h23.4511v23.62341z" fill="#4b4b4b"/><path d="M251.4067,205.56171v-23.62341h23.45109v23.62341z" fill="#2b2b2b"/><path d="M274.49505,205.56171v-23.62341h23.45109v23.62341z" fill="#0c0c0c"/><path d="M202.88483,249.20643v-15.30586h15.19421v15.30586z" fill="#da1616"/><path d="M217.97729,249.20643v-15.30586h15.19421v15.30586z" fill="#c01313"/><path d="M233.06977,249.20643v-15.30586h15.19422v15.30586z" fill="#b31212"/><path d="M248.16227,249.20643v-15.30586h15.19421v15.30586z" fill="#990f0f"/><path d="M263.14051,249.20643v-15.30586h15.19421v15.30586z" fill="#740c0c"/><path d="M203.20876,267.02398v-15.30586h15.19421v15.30586z" fill="#8b8b8b"/><path d="M218.30124,267.02398v-15.30586h15.19421v15.30586z" fill="#666666"/><path d="M233.39373,267.02398v-15.30586h15.19422v15.30586z" fill="#4b4b4b"/><path d="M248.48623,267.02398v-15.30586h15.19421v15.30586z" fill="#2b2b2b"/><path d="M263.4454,267.02398v-15.30586h15.19421v15.30586z" fill="#0c0c0c"/></g></g></svg>