<svg version="1.1" xmlns="http://www.w3.org/2000/svg" xmlns:xlink="http://www.w3.org/1999/xlink" width="98.41736" height="301.1742" viewBox="0,0,98.41736,301.1742"><g transform="translate(-191.28415,-53.38752)"><g data-paper-data="{&quot;isPaintingLayer&quot;:true}" fill-rule="nonzero" stroke-linejoin="miter" stroke-miterlimit="10" stroke-dasharray="" stroke-dashoffset="0" style="mix-blend-mode: normal"><path d="M195.28374,306.61253v-253.22501h91.18203v253.22501z" fill-opacity="0.01" fill="#000000" stroke="none" stroke-width="0" stroke-linecap="butt"/><path d="M201.03044,304.39162c0,0 -0.63536,-94.38387 -0.79335,-118.01201c-0.05451,-8.15261 8.18688,-36.76129 40.20201,-36.9211c31.60235,-0.15775 39.85672,29.48704 39.84884,36.89673c-0.07659,46.24274 0.65429,117.98648 0.65429,117.98648l-10.49667,0.09614l-0.15882,-114.84311c0,0 0.07549,-3.0993 -2.81625,-3.15415c-3.43441,-0.06514 -2.94538,3.11562 -2.94538,3.11562l0.20548,114.86995l-48.21366,0.07222l-0.30539,-115.23309c0,0 0.27949,-2.919 -2.8856,-2.93443c-3.11083,-0.01515 -2.81569,2.90899 -2.81569,2.90899l0.35311,115.0668z" fill="#2b2b2b" stroke="#000000" stroke-width="2" stroke-linecap="butt"/><path d="M270.61748,162.19572c0,0 10.93956,10.073 12.5,18c0.66021,3.35387 1.31909,26.92973 2.65294,52.40262c0.83842,16.01144 2.39719,32.46995 2.97176,46.07296c0.67183,15.90556 0.6253,27.02443 0.6253,27.02443l-23.75,-0.18655l1.03583,-116.17775z" data-paper-data="{&quot;index&quot;:null}" fill="#0c0c0c" stroke="#000000" stroke-width="0" stroke-linecap="round"/><path d="M214.33235,189.33142l1.03583,116.17775l-23.75,0.18655c0,0 -0.04654,-11.11887 0.62529,-27.02443c0.57457,-13.603 2.13334,-30.06151 2.97176,-46.07295c1.33385,-25.47289 1.99273,-49.04874 2.65294,-52.40262c1.56043,-7.927 12.5,-18 12.5,-18z" fill="#0c0c0c" stroke="#000000" stroke-width="0" stroke-linecap="round"/><path d="M255.62761,200.33382c-0.57113,0 -1.03411,-0.46299 -1.03411,-1.03411c0,-0.57113 0.46299,-1.03413 1.03411,-1.03413c0.57113,0 1.03411,0.463 1.03411,1.03413c0,0.57113 -0.46299,1.03411 -1.03411,1.03411z" fill="#000000" stroke="none" stroke-width="1.5" stroke-linecap="butt"/><path d="M250.36773,204.56943c-4.4635,-0.31439 -6.55245,-1.79392 -6.16985,-2.58011c0.11788,-0.24224 2.84645,1.06355 6.97038,1.3048c6.40897,0.37493 8.51033,-0.63173 8.51033,-0.63173v1.34616c0,0 -2.4135,1.04672 -9.31086,0.56089z" fill="#000000" stroke="#000000" stroke-width="0" stroke-linecap="butt"/><path d="M222.55498,199.29971c0,-0.57113 0.46299,-1.03413 1.03411,-1.03413c0.57113,0 1.03413,0.463 1.03413,1.03413c0,0.57113 -0.463,1.03411 -1.03413,1.03411c-0.57113,0 -1.03411,-0.46299 -1.03411,-1.03411z" fill="#000000" stroke="none" stroke-width="1.5" stroke-linecap="butt"/><path d="M228.84897,204.56943c-6.89736,0.48585 -9.31086,-0.56089 -9.31086,-0.56089v-1.34616c0,0 2.10136,1.00666 8.51033,0.63173c4.12393,-0.24126 6.85251,-1.54704 6.97039,-1.3048c0.3826,0.78618 -1.70634,2.26571 -6.16985,2.58011z" fill="#000000" stroke="#000000" stroke-width="0" stroke-linecap="butt"/><path d="M214.98284,224.87125l-6.25,-63.32657l14.66101,-12.96845h33.14106l14.3363,11.96845l-4.25,64.16472l-25.07147,7.07206z" fill="#740c0c" stroke="#000000" stroke-width="0" stroke-linecap="butt"/><path d="M202.21856,97.09253c0.25102,-1.69366 -1.46576,-23.21161 13.40374,-34.61902c0.64307,-0.49334 2.10363,-0.97172 2.10363,-0.97172c0,0 14.44393,-1.67235 22.46038,-1.98307c10.04611,-0.20562 21.62555,1.76931 21.62555,1.76931c0,0 2.24094,-0.77081 3.42409,0.06079c15.06672,10.58996 14.82055,31.30486 14.48124,36.36019c-0.37799,5.63151 -0.78601,12.45234 -0.06866,20.46083c0.30383,3.39199 0.34005,7.37333 -0.34491,11.3545c-1.5623,9.48098 -7.29782,17.22543 -7.29782,17.22543l-1.15522,-2.34735c0,0 -1.02266,2.19794 -2.16005,3.33274c-1.1374,1.13479 -3.43873,2.91273 -3.43873,2.91273l-0.09205,-3.70421c0,0 -7.0601,11.01795 -24.35066,10.87154c-16.30625,-0.25547 -26.07151,-10.6752 -26.07151,-10.6752l-0.1162,2.65484c0,0 -3.89477,-3.29276 -6.18145,-9.70754c-1.26387,-3.5455 -2.9565,-8.1355 -2.9565,-8.1355c0,0 -0.10818,1.55386 -0.07507,2.43336c0.0392,1.04143 0.29509,3.4119 0.29509,3.4119c0,0 -1.73295,-2.28046 -2.38548,-3.57557c-0.70441,-1.39808 -1.69723,-4.52766 -1.69723,-4.52766l-1.11627,2.105c0,0 -0.96383,-2.79457 -0.94448,-4.28995c0.02121,-1.63869 1.06668,-5.15166 1.06668,-5.15166l1.11584,-19.4164l-1.39889,3.77263c0,0 -0.70052,-3.29165 -0.26535,-4.88675c0.56976,-2.08844 2.14029,-4.73418 2.14029,-4.73418z" fill="#000000" stroke="none" stroke-width="1.5" stroke-linecap="butt"/><path d="M204.19133,336.74418v-15.30586h15.19421v15.30586z" fill="#da1616" stroke="none" stroke-width="0" stroke-linecap="butt"/><path d="M219.28381,336.74418v-15.30586h15.19421v15.30586z" fill="#c01313" stroke="none" stroke-width="0" stroke-linecap="butt"/><path d="M234.37629,336.74418v-15.30586h15.19422v15.30586z" fill="#b31212" stroke="none" stroke-width="0" stroke-linecap="butt"/><path d="M249.46879,336.74418v-15.30586h15.19421v15.30586z" fill="#990f0f" stroke="none" stroke-width="0" stroke-linecap="butt"/><path d="M264.44703,336.74418v-15.30586h15.19421v15.30586z" fill="#740c0c" stroke="none" stroke-width="0" stroke-linecap="butt"/><path d="M204.51528,354.56173v-15.30586h15.19421v15.30586z" fill="#8b8b8b" stroke="none" stroke-width="0" stroke-linecap="butt"/><path d="M219.60776,354.56173v-15.30586h15.19421v15.30586z" fill="#666666" stroke="none" stroke-width="0" stroke-linecap="butt"/><path d="M234.70025,354.56173v-15.30586h15.19422v15.30586z" fill="#4b4b4b" stroke="none" stroke-width="0" stroke-linecap="butt"/><path d="M249.79274,354.56173v-15.30586h15.19421v15.30586z" fill="#2b2b2b" stroke="none" stroke-width="0" stroke-linecap="butt"/><path d="M264.75194,354.56173v-15.30586h15.19421v15.30586z" fill="#0c0c0c" stroke="none" stroke-width="0" stroke-linecap="butt"/><path d="M199.71448,123.02823c0,0 -0.36496,-5.83132 -0.00754,-9.53544c0.35742,-3.70413 1.84088,-9.46456 1.84088,-9.46456l4.73281,-14.8346l10.80053,-11.1654l44.44379,-0.889l11.9928,9.85865l6.50383,14.04745c0,0 1.31563,6.62501 1.35517,10.91867c0.03954,4.29367 -1.16143,10.11577 -1.16143,10.11577l-18.86768,-6.97427l-43.66648,-0.41061z" fill="#2b2b2b" stroke="none" stroke-width="0" stroke-linecap="butt"/><path d="M208.98284,161.79467l14.66101,-12.96845h33.14106l14.3363,11.96845l-19.52902,33.43773l-22.74147,0.48081z" fill="#990f0f" stroke="#000000" stroke-width="0" stroke-linecap="butt"/><path d="M219.00949,157.19781l-6.36456,-73.07149l4.04903,-23.26212l8.38773,-4.94252l28.99932,0.24009l8.27961,3.6638l4.52772,21.76122l-6.84243,75.09171l-8.13546,4.26994l-24.16639,-0.0906z" fill="#2b2b2b" stroke="none" stroke-width="0" stroke-linecap="butt"/><path d="M231.02218,152.78134v-86.66666h18.08333v86.66666z" fill="#0c0c0c" stroke="none" stroke-width="0" stroke-linecap="butt"/><path d="M228.51161,95.7224c0,0 -5.23325,7.52221 -10.6681,6.33635c-5.11222,-1.11547 -9.01323,-6.53038 -9.01323,-6.53038c0,0 4.6474,-6.21062 9.6681,-7.46863c5.43485,-1.36177 10.01323,7.66266 10.01323,7.66266z" fill="#000000" stroke="#000000" stroke-width="0" stroke-linecap="butt"/><g stroke="none" stroke-width="0" stroke-linecap="butt"><path d="M224.40863,95.19891c0,2.76143 -2.23857,5 -5,5c-2.76143,0 -5,-2.23857 -5,-5c0,-2.76143 2.23857,-5 5,-5c2.76143,0 5,2.23857 5,5z" fill="#740c0c"/><path d="M223.08787,95.1989c0,2.03199 -1.64726,3.67925 -3.67925,3.67925c-2.03199,0 -3.67924,-1.64726 -3.67924,-3.67925c0,-2.03199 1.64725,-3.67924 3.67924,-3.67924c2.03199,0 3.67925,1.64726 3.67925,3.67924z" fill="#990f0f"/><g fill="#b31212"><path d="M221.076,97.35584l-4.01024,-3.99697l0.48744,-0.48906l4.01025,3.99697z"/><path d="M221.66674,93.46343l-4.02277,3.98437l-0.48589,-0.49058l4.02276,-3.98437z"/></g></g><path d="M262.51018,87.72641c5.02071,1.258 9.6681,7.46863 9.6681,7.46863c0,0 -3.901,5.41491 -9.01322,6.53038c-5.43485,1.18587 -10.66811,-6.33634 -10.66811,-6.33634c0,0 4.57838,-9.02444 10.01323,-7.66267z" data-paper-data="{&quot;index&quot;:null}" fill="#000000" stroke="#000000" stroke-width="0" stroke-linecap="butt"/><g stroke="none" stroke-width="0" stroke-linecap="butt"><path d="M266.57529,94.78223c0,2.76143 -2.23858,5 -5,5c-2.76142,0 -5,-2.23857 -5,-5c0,-2.76143 2.23858,-5 5,-5c2.76142,0 5,2.23857 5,5z" fill="#740c0c"/><path d="M265.25453,94.78223c0,2.03199 -1.64726,3.67924 -3.67925,3.67924c-2.03199,0 -3.67924,-1.64726 -3.67924,-3.67924c0,-2.03199 1.64725,-3.67925 3.67924,-3.67925c2.03199,0 3.67925,1.64726 3.67925,3.67925z" fill="#990f0f"/><g fill="#b31212"><path d="M263.24267,96.93918l-4.01025,-3.99697l0.48744,-0.48906l4.01024,3.99697z"/><path d="M263.83341,93.04675l-4.02277,3.98438l-0.4859,-0.49058l4.02276,-3.98437z"/></g></g><path d="M214.53644,249.60835l0.4984,55.90082l-23.75,0.18655c0,0 -0.04654,-11.11887 0.62529,-27.02443c0.29065,-6.88103 1.77228,-19.04438 2.43314,-28.41531c0.51917,-7.36181 0.27656,-13.00022 0.27656,-13.00022c0,0 0.18094,-3.10813 0.26207,-4.65742z" fill="#740c0c" stroke="#000000" stroke-width="0" stroke-linecap="round"/><path d="M286.10377,232.265c0.08112,1.54928 0.26207,4.65742 0.26207,4.65742c0,0 -0.24262,5.63841 0.27655,13.00021c0.66086,9.37093 2.1425,21.53429 2.43314,28.41531c0.67183,15.90556 0.62529,27.02443 0.62529,27.02443l-23.75,-0.18655l0.4984,-55.90082z" data-paper-data="{&quot;index&quot;:null}" fill="#740c0c" stroke="#000000" stroke-width="0" stroke-linecap="round"/><g stroke="none" stroke-width="0" stroke-linecap="butt"><g><g><path d="M228.41355,182.36249l2.9588,-41.54818c0,0 3.27434,-5.78303 9.06132,-5.78303c6.15682,0 9.06133,5.78303 9.06133,5.78303l2.9588,41.54818z" fill="#2b2b2b"/><path d="M229.93342,161.39981l1.14565,-16.08751c0,0 5.39571,-3.8177 9.13551,-3.89717c3.7398,-0.07947 9.54542,3.50021 9.54542,3.50021l1.1621,16.3185c0,0 -6.33288,-2.98873 -10.54864,-2.95565c-4.21576,0.03309 -10.44004,3.12161 -10.44004,3.12161z" fill="#0c0c0c"/></g><g><path d="M216.24295,181.93504c0,-6.7965 11.00187,-12.30615 24.57338,-12.30615c13.57151,0 24.46084,5.50965 24.46084,12.30615c0,1.81322 0.06193,6.60531 0.06193,6.60531c0,0 -14.57195,5.70085 -24.52276,5.70085c-10.50176,0 -24.48297,-6.46679 -24.48297,-6.46679c0,0 -0.09039,-4.30208 -0.09039,-5.83938z" fill="#4b4b4b"/><path d="M216.35523,188.10955c0,-6.7965 10.97671,-12.30615 24.51718,-12.30615c13.54047,0 24.51717,5.50965 24.51717,12.30615c0,6.7965 -10.9767,12.30616 -24.51717,12.30616c-13.54047,0 -24.51718,-5.50966 -24.51718,-12.30616z" fill="#373737"/></g></g><g><path d="M222.71847,191.95574c0,-6.55828 8.25348,-11.31335 18.43467,-11.31335c10.1812,0 18.43466,4.75508 18.43466,11.31335c0,6.55828 -8.25347,11.87482 -18.43466,11.87482c-10.18119,0 -18.43467,-5.31654 -18.43467,-11.87482z" fill="#990f0f"/><path d="M224.96432,189.11485c0,-4.92283 7.24797,-8.35211 16.18882,-8.35211c8.94085,0 16.18882,3.42928 16.18882,8.35211c0,4.92283 -7.24797,8.91356 -16.18882,8.91356c-8.94085,0 -16.18882,-3.99073 -16.18882,-8.91356z" fill="#b31212"/></g></g></g></g></svg>