<svg version="1.1" xmlns="http://www.w3.org/2000/svg" xmlns:xlink="http://www.w3.org/1999/xlink" width="101.34534" height="264.61903" viewBox="0,0,101.34534,264.61903"><g transform="translate(-190.12464,-41.51272)"><g data-paper-data="{&quot;isPaintingLayer&quot;:true}" fill-rule="nonzero" stroke-linejoin="miter" stroke-miterlimit="10" stroke-dasharray="" stroke-dashoffset="0" style="mix-blend-mode: normal"><g><path d="M201.03046,304.3916c0,0 -0.63536,-94.38387 -0.79335,-118.01201c-0.05451,-8.15261 8.18688,-36.76129 40.20201,-36.9211c31.60235,-0.15775 39.85672,29.48704 39.84884,36.89673c-0.07659,46.24274 0.65429,117.98648 0.65429,117.98648l-10.49667,0.09614l-0.15882,-114.84311c0,0 0.07549,-3.0993 -2.81625,-3.15415c-3.43441,-0.06514 -2.94538,3.11562 -2.94538,3.11562l0.20548,114.86995l-48.21366,0.07222l-0.30539,-115.23309c0,0 0.27949,-2.919 -2.8856,-2.93443c-3.11083,-0.01515 -2.81569,2.90899 -2.81569,2.90899l0.35311,115.0668z" fill="#ffffff" stroke="#000000" stroke-width="2" stroke-linecap="butt"/><path d="M265.96997,305.79952v-148.83444c0,0 15.09892,10.05908 17.83334,21.26206c0.67775,2.77675 0.76163,16.54097 1.90761,34.08065c0.47839,7.32202 1.09327,15.302 1.7305,23.41525c0.13729,1.74799 0.60895,4.1666 0.74718,5.9217c0.1769,2.2462 0.02031,3.82951 0.19448,6.06779c0.83997,10.79458 1.62036,21.36914 2.07282,30.48995c0.80763,16.28062 1.01408,27.92927 1.01408,27.92927z" data-paper-data="{&quot;index&quot;:null}" fill="#0b0b0b" stroke="#000000" stroke-width="0" stroke-linecap="butt"/><path d="M279.22409,188.59247l5.57059,12.90651c0,0 0.28123,3.70286 0.42318,5.57183c0.14375,1.89264 0.43397,5.71388 0.43397,5.71388c0,0 -1.58881,-2.81027 -3.12442,-5.8664c-0.65433,-1.30223 -0.888,-3.23242 -1.50895,-4.67843c-0.64641,-1.50532 -1.67665,-2.52181 -2.17802,-3.61893c-0.50487,-1.10476 -1.91035,-5.40197 -1.91035,-5.40197c0,0 -1.3702,-2.03337 -1.92989,-3.40145c-1.08165,-2.64395 -1.63408,-5.46139 -1.63408,-5.46139z" fill="#020202" stroke="#000000" stroke-width="0" stroke-linecap="round"/><path d="M190.63668,306.13174c0,0 0.20645,-11.72674 1.01408,-28.1165c0.45245,-9.18196 1.23284,-19.8274 2.07282,-30.69435c0.17417,-2.2533 0.01757,-3.84721 0.19447,-6.10847c0.13823,-1.76689 0.60988,-4.2017 0.74717,-5.9614c0.63724,-8.16763 1.25211,-16.2011 1.7305,-23.57221c1.14597,-17.65727 1.22987,-31.51376 1.90761,-34.30912c2.73442,-11.27807 17.83334,-21.4046 17.83334,-21.4046v149.83222z" fill="#0b0b0b" stroke="#000000" stroke-width="0" stroke-linecap="butt"/><path d="M255.62764,200.3338c-0.57113,0 -1.03411,-0.46299 -1.03411,-1.03411c0,-0.57113 0.46299,-1.03413 1.03411,-1.03413c0.57113,0 1.03411,0.463 1.03411,1.03413c0,0.57113 -0.46299,1.03411 -1.03411,1.03411z" fill="#000000" stroke="none" stroke-width="1.5" stroke-linecap="butt"/><path d="M250.36777,204.56939c-4.4635,-0.31439 -6.55245,-1.79392 -6.16985,-2.58011c0.11788,-0.24224 2.84645,1.06355 6.97038,1.3048c6.40897,0.37493 8.51033,-0.63173 8.51033,-0.63173v1.34616c0,0 -2.4135,1.04672 -9.31086,0.56089z" fill="#000000" stroke="#000000" stroke-width="0" stroke-linecap="butt"/><path d="M222.555,199.29969c0,-0.57113 0.46299,-1.03413 1.03411,-1.03413c0.57113,0 1.03413,0.463 1.03413,1.03413c0,0.57113 -0.463,1.03411 -1.03413,1.03411c-0.57113,0 -1.03411,-0.46299 -1.03411,-1.03411z" fill="#000000" stroke="none" stroke-width="1.5" stroke-linecap="butt"/><path d="M228.84902,204.56939c-6.89736,0.48585 -9.31086,-0.56089 -9.31086,-0.56089v-1.34616c0,0 2.10136,1.00666 8.51033,0.63173c4.12393,-0.24126 6.85251,-1.54704 6.97039,-1.3048c0.3826,0.78618 -1.70634,2.26571 -6.16985,2.58011z" fill="#000000" stroke="#000000" stroke-width="0" stroke-linecap="butt"/><path d="M240.12948,261.12113c-0.81895,0 -1.48284,-0.66389 -1.48284,-1.48284c0,-0.81895 0.66389,-1.48284 1.48284,-1.48284c0.81895,0 1.48284,0.66389 1.48284,1.48284c0,0.81895 -0.66389,1.48284 -1.48284,1.48284z" data-paper-data="{&quot;index&quot;:null}" fill="#000000" stroke="none" stroke-width="1.5" stroke-linecap="butt"/><path d="M215.06619,305.40603c0,0 -0.18882,-20.42906 -0.17338,-43.91303c0.0146,-22.21549 0.24702,-47.16479 -0.20103,-60.13981c-0.63971,-18.52544 -4.62559,-40.74187 -4.62559,-40.74187c0,0 8.67319,-6.6863 10.6557,-8.0814c1.98251,-1.3951 5.17197,-2.20371 5.17197,-2.20371c0,0 -2.51018,6.15609 -0.2558,11.7817c1.90364,4.75038 7.87419,9.12251 14.81533,9.09031c7.27033,-0.03374 11.76036,-4.66666 13.4183,-9.55853c1.86183,-5.49346 0.41324,-11.31348 0.41324,-11.31348c0,0 3.91276,0.91959 6.16585,2.34655c2.25309,1.42695 11.75379,9.2719 11.75379,9.2719c0,0 -4.83971,22.22925 -5.53647,38.8889c-0.54629,13.0621 -0.08921,38.70914 0.1762,61.33397c0.27227,23.20947 0.36027,43.23851 0.36027,43.23851z" fill="#740c0c" stroke="#000000" stroke-width="0" stroke-linecap="butt"/><path d="M239.76713,169.23559c-16.0505,0.49992 -26.13333,-18.96667 -26.13333,-18.96667c0,0 13.4914,-3.67316 26.39721,-3.63129c12.3145,0.03995 25.70279,4.03129 25.70279,4.03129c0,0 -9.10852,18.0416 -25.96667,18.56667z" fill="#740c0c" stroke="#000000" stroke-width="0" stroke-linecap="round"/><path d="M239.57019,175.48717c-3.14029,0.13523 -4.52117,-1.11637 -7.25058,-2.46041c-5.69708,-2.80542 -11.34136,-7.46587 -12.21609,-8.27293c-1.80012,-1.66085 -6.6,-14.43333 -6.6,-14.43333c0,0 3.55351,1.60004 6.5123,4.61739c5.11471,5.21592 15.59509,13.74147 19.6877,13.81595c4.02208,0.07319 15.46256,-9.11729 20.53715,-14.04708c2.75455,-2.67595 5.66285,-3.95292 5.66285,-3.95292c0,0 -2.5872,11.19232 -4,12.2c-1.03794,0.74031 -8.19221,6.75226 -15.22931,10.05605c-2.54155,1.19322 -4.5316,2.36651 -7.10403,2.47728z" fill="#980f0f" stroke="#000000" stroke-width="0" stroke-linecap="round"/><path d="M215.06618,305.5727c0,0 -0.18882,-20.42905 -0.17338,-43.91303c0.01389,-21.14257 0.22508,-44.76127 -0.14077,-58.17776c0.52949,0.41747 1.01822,0.92583 1.42968,1.15729c0.65649,0.8847 1.2442,2.22194 2.33428,2.65919c0.86635,0.34751 2.22888,-0.15521 2.95574,0.21408c0.94264,0.47891 2.08814,1.75553 3.06055,2.43344c0.534,0.30155 1.11518,0.96913 1.63637,1.19152c1.0281,0.4387 2.49482,-0.3235 3.51093,0.05328c1.5209,0.56397 2.09434,2.7055 3.3116,3.5969c2.94087,2.11141 7.44934,-0.6392 9.81683,-2.51264c2.43618,-1.9278 4.47244,-5.95657 7.6668,-6.70242c3.57096,1.37813 5.08464,-6.66385 7.07882,-2.89539c1.16748,3.0212 3.24952,2.23836 5.818,3.15372c0.96937,0.34547 1.46416,1.76677 2.64738,2.17456c0.15459,0.05171 0.30778,0.09443 0.45961,0.12874c-0.21612,14.01916 0.14252,35.17778 0.36566,54.20002c0.27226,23.20947 0.36027,43.23851 0.36027,43.23851z" fill="#6b0b0b" stroke="#000000" stroke-width="0" stroke-linecap="butt"/><path d="M215.23284,305.90603c0,0 -0.18882,-20.42905 -0.17338,-43.91303c0.00018,-0.27072 0.00039,-0.54184 0.00063,-0.81334c1.86907,-0.22718 2.55037,-1.47416 4.31166,-1.91739c0.73721,-0.18552 2.30717,0.61324 3.29205,0.61674c1.30069,-0.19949 2.74498,-0.0788 4.00539,-0.33465c1.74326,-0.35388 3.95512,-2.7866 5.32642,-3.89269c1.28297,-1.0395 1.97692,-3.32605 4.03901,-2.77705c1.81678,0.48368 2.64782,1.94557 4.71463,1.32724c0.86144,-0.25772 1.74702,-1.12197 2.58677,-0.98358c2.10422,0.34676 4.75908,2.0803 6.79343,2.88921c1.28049,0.58376 2.75509,-0.60131 3.79945,-0.06921c1.76269,0.89809 2.56408,3.57885 3.15514,5.29601c0.5925,5.14905 3.25754,-1.21711 4.18796,-2.13065c0.31272,-0.30704 2.31411,0.03232 2.86068,-0.1801c1.19331,-0.16645 2.07927,-0.9096 2.81067,-1.90392c0.02337,1.8636 0.04612,3.71567 0.06762,5.54791c0.27226,23.20947 0.36027,43.2385 0.36027,43.2385z" fill="#640a0a" stroke="#000000" stroke-width="0" stroke-linecap="butt"/><g><g stroke="#000000" stroke-width="0"><path d="M269.73856,159.09986c1.15646,0.99038 2.6018,2.94021 2.6018,2.94021c0,0 -3.57635,13.84639 -4.85997,30.81073c-0.18339,2.42372 0.19885,4.96198 0.28868,7.58437c0.88148,25.7368 0.76768,76.49364 -0.05624,77.83976c-0.47399,0.7744 -15.87714,1.44645 -26.07854,1.3145c-10.2014,-0.13196 -26.21485,-1.01442 -27.04737,-2.00167c-1.01164,-1.19966 -1.17654,-52.62392 -1.50729,-76.91425c-0.03515,-2.581 0.44432,-5.08095 0.26287,-7.47913c-1.28363,-16.96435 -4.85998,-31.01688 -4.85998,-31.01688c0,0 1.44535,-2.15598 2.60181,-3.14636c1.15646,-0.99038 3.53051,-2.31144 3.53051,-2.31144c0,0 5.6095,16.41454 7.67955,23.27468c1.64052,5.43667 3.75457,12.21275 3.75457,12.21275c0,0 4.78639,-1.84634 14.11389,-1.8917c8.67122,-0.04218 14.43898,1.54812 14.43898,1.54812c0,0 2.32399,-7.58074 4.04015,-13.13293c2.08159,-6.73447 7.56608,-21.73605 7.56608,-21.73605c0,0 2.37405,1.11491 3.53051,2.10529z" fill="#141414" stroke-linecap="butt"/><path d="M226.13828,192.05007c0,0 4.90622,-1.70912 13.67416,-1.82587c7.7353,-0.103 14.8787,1.48228 14.8787,1.48228l0.32819,1.25982c0,0 -10.0706,-1.26144 -14.98339,-1.2045c-4.96886,0.05759 -14.26962,1.54809 -14.26962,1.54809l0.37196,-1.25981z" fill="#1e1e1e" stroke-linecap="round"/></g><path d="M221.68102,269.47109c-1.87736,-1.70248 -1.89388,-51.19489 0,-53.02719c2.31127,-2.23614 36.91112,-1.90494 38.65916,0c1.84013,2.00531 2.16648,51.04558 0,53.02719c-1.92682,1.7624 -36.59066,1.87579 -38.65915,0z" fill="#111111" stroke="none" stroke-width="0" stroke-linecap="butt"/><g stroke="none" stroke-linecap="butt"><path d="M221.98689,261.96988c-1.84772,-1.60949 -1.86398,-49.03248 0,-50.76471c2.27479,-2.114 36.32841,-1.80091 38.04885,0c1.81108,1.89578 2.13228,48.89132 0,50.76471c-1.89641,1.66614 -36.01301,1.77335 -38.04885,0z" fill="#191919" stroke-width="0"/><path d="M222.24225,211.20517c2.27479,-2.114 36.32841,-1.80091 38.04885,0c0.56173,0.588 -1.47728,14.28293 -7.22894,23.22311c-2.95791,4.59768 -7.43437,7.61293 -11.92294,7.62002c-6.0825,0.0096 -11.43911,-4.94609 -14.60688,-11.54806c-3.9847,-8.30458 -4.93084,-18.69961 -4.2901,-19.29506z" fill="#141414" stroke-width="0"/><path d="M222.24225,211.20517c2.27479,-2.114 36.32841,-1.80091 38.04885,0c0.8506,0.89039 -6.18768,27.95904 -19.15187,28.00855c-12.96419,0.04951 -20.04709,-26.93973 -18.89698,-28.00854z" fill="#1e1e1e" stroke-width="0"/><g stroke-width="0.5"><path d="M239.03802,234.59992c0,-1.35202 1.08613,-2.44804 2.42593,-2.44804c1.33981,0 2.42593,1.09602 2.42593,2.44804c0,1.35202 -1.08613,2.44804 -2.42593,2.44804c-1.33981,0 -2.42593,-1.09602 -2.42593,-2.44804z" fill="#740c0c"/><path d="M239.34607,234.08953c0,-1.01291 0.94821,-1.83403 2.11787,-1.83403c1.16968,0 2.11787,0.82113 2.11787,1.83404c0,1.01291 -0.94821,1.83403 -2.11787,1.83403c-1.16968,0 -2.11787,-0.82113 -2.11787,-1.83403z" fill="#8b0e0e"/></g></g></g><path d="M281.15173,171.81167c0,0 3.79225,4.86589 4.30543,6.65322c0.73746,2.56849 0.5292,8.18553 0.5292,8.18553c0,0 0.7021,2.01498 0.74021,4.34404c0.02194,1.34095 -0.61814,2.94959 -0.76543,4.29414c-0.15067,1.37544 0.1911,2.4815 0.19103,3.37203c-0.00018,2.36328 -0.33378,5.80354 -0.33378,5.80354c0,0 -1.24228,-0.80744 -2.46057,-2.67939c-0.60041,-0.92257 -1.195,-2.78723 -1.63218,-3.60296c-0.60793,-1.13432 -1.94702,-2.79363 -2.64814,-4.50688c-0.73915,-1.80615 -0.82496,-3.63874 -0.82496,-3.63874c0,0 -1.79073,-1.38846 -2.70835,-2.25416c-0.94831,-0.89465 -2.55913,-3.48117 -2.55913,-3.48117c0,0 0.83131,-2.19841 1.61438,-4.94717c0.7807,-2.74047 1.1791,-5.57747 1.65389,-7.18149c0.57934,-1.95721 1.56506,-4.87472 1.56506,-4.87472c0,0 1.19526,0.94155 1.63575,1.53809c0.61274,0.8298 1.69759,2.97608 1.69759,2.97608z" fill="#4b4b4b" stroke="#ff0000" stroke-width="0" stroke-linecap="round"/><path d="M286.36316,188.04829c0,0 0.18807,1.30914 0.24228,1.98675c0.02382,0.29781 0.137,0.93486 0.06688,1.57405c-0.097,0.88422 -0.39249,1.77253 -0.39249,1.77253c0,0 -1.33963,-2.26472 -2.1852,-3.61049c-0.48439,-0.77093 -1.45927,-2.03018 -2.1999,-3.17925c-0.8989,-1.39461 -1.53157,-2.62693 -1.53157,-2.62693z" fill="#444444" stroke="#000000" stroke-width="0" stroke-linecap="round"/><path d="M280.13839,183.80433l3.14784,-8.02091l4.25006,5.88493l-1.64783,8.18758z" fill="#b31212" stroke="none" stroke-width="0" stroke-linecap="butt"/><path d="M280.27923,183.8288l3,-7.91666l2.91666,3.83334l-2.66666,-2z" fill="#da1616" stroke="#000000" stroke-width="0" stroke-linecap="round"/><path d="M276.76518,183.59053c-0.65456,1.26057 -0.13257,4.20017 -0.13257,4.20017c0,0 -1.7998,-1.52584 -2.233,-2.15887c-0.4332,-0.63303 -0.86618,-1.72362 -0.86618,-1.72362c0.64016,-1.06338 0.93645,-2.29046 1.32104,-3.58413c0.62503,-2.10249 1.18486,-4.38086 1.61004,-6.4183c0.67552,-3.2371 1.48785,-5.86894 1.48785,-5.86894c0,0 1.27003,1.08927 1.69789,1.87154c0.38275,0.69979 0.6736,1.46006 1.06271,2.09405c0.57301,0.93364 1.25943,1.56093 1.25943,1.56093c0,0 -0.39825,1.43671 -1.02339,1.14464c-0.2648,0.75429 -0.34163,2.6197 -1.14096,4.15125c-0.27738,0.53147 -0.82292,1.2085 -1.02471,1.7495c-0.254,0.68096 -0.15817,1.21133 -0.48838,1.6949c-0.62343,0.91298 -1.52976,1.28688 -1.52976,1.28688z" fill="#515151" stroke="none" stroke-width="0.5" stroke-linecap="butt"/></g><path d="" fill="#000000" stroke="none" stroke-width="1.5" stroke-linecap="butt"/><path d="" fill="#ffffff" stroke="#000000" stroke-width="1.5" stroke-linecap="butt"/><path d="" data-paper-data="{&quot;index&quot;:null}" fill="#000000" stroke="none" stroke-width="1.5" stroke-linecap="butt"/><path d="" fill="#ffffff" stroke="#000000" stroke-width="1.4" stroke-linecap="butt"/><path d="" fill="#ffffff" stroke="#000000" stroke-width="1.9" stroke-linecap="butt"/><path d="" fill="#ffffff" stroke="#000000" stroke-width="1.15" stroke-linecap="butt"/><path d="" fill="#ffffff" stroke="#000000" stroke-width="1.3" stroke-linecap="round"/><path d="" data-paper-data="{&quot;index&quot;:null}" fill="#ffffff" stroke="#000000" stroke-width="1" stroke-linecap="butt"/><path d="" fill="none" stroke="#000000" stroke-width="0.25" stroke-linecap="round"/><path d="" fill="#ffffff" stroke="#000000" stroke-width="1.4" stroke-linecap="butt"/><path d="" fill="#000000" stroke="none" stroke-width="1.5" stroke-linecap="butt"/><path d="" fill="#ffffff" stroke="#000000" stroke-width="1.4" stroke-linecap="butt"/><path d="" fill="#000000" stroke="none" stroke-width="1.5" stroke-linecap="butt"/><path d="" fill="#ffffff" stroke="#000000" stroke-width="1.15" stroke-linecap="butt"/><path d="" fill="#d7d7d7" stroke="#000000" stroke-width="0" stroke-linecap="round"/><path d="" fill="#ffffff" stroke="#000000" stroke-width="1.15" stroke-linecap="butt"/><path d="" fill="#000000" stroke="none" stroke-width="1.5" stroke-linecap="butt"/><path d="" data-paper-data="{&quot;index&quot;:null}" fill="#ffffff" stroke="#000000" stroke-width="1" stroke-linecap="butt"/><path d="" data-paper-data="{&quot;index&quot;:null}" fill="none" stroke="#000000" stroke-width="0.25" stroke-linecap="round"/><path d="" data-paper-data="{&quot;index&quot;:null}" fill="#ffffff" stroke="#000000" stroke-width="1.15" stroke-linecap="butt"/><path d="" fill="#4b4b4b" stroke="#f60000" stroke-width="0" stroke-linecap="round"/><path d="" fill="#444444" stroke="none" stroke-width="0.5" stroke-linecap="round"/><path d="" fill="#b31212" stroke="#000000" stroke-width="0" stroke-linecap="round"/><path d="" fill="#c01313" stroke="#000000" stroke-width="0" stroke-linecap="round"/><path d="" fill="#da1616" stroke="#000000" stroke-width="0" stroke-linecap="round"/><path d="" fill="#990f0f" stroke="#000000" stroke-width="0" stroke-linecap="round"/><path d="" fill="#444444" stroke="none" stroke-width="0.5" stroke-linecap="round"/><path d="" fill="#c01313" stroke="none" stroke-width="0.5" stroke-linecap="round"/><path d="" fill="#444444" stroke="none" stroke-width="0.5" stroke-linecap="round"/><path d="" fill="#444444" stroke="none" stroke-width="0.5" stroke-linecap="round"/><path d="" fill="#444444" stroke="none" stroke-width="0.5" stroke-linecap="round"/><path d="" fill="#b31212" stroke="none" stroke-width="0.5" stroke-linecap="round"/><path d="" fill="#c01313" stroke="none" stroke-width="0.5" stroke-linecap="round"/><path d="" fill="#444444" stroke="none" stroke-width="0.5" stroke-linecap="round"/><path d="" fill="#c01313" stroke="none" stroke-width="0.5" stroke-linecap="round"/><path d="" fill="#b31212" stroke="none" stroke-width="0.5" stroke-linecap="round"/><path d="" fill="#da1616" stroke="#000000" stroke-width="0" stroke-linecap="round"/><path d="" fill="#da1616" stroke="#000000" stroke-width="0" stroke-linecap="round"/><path d="" fill="#c01313" stroke="none" stroke-width="0.5" stroke-linecap="round"/><path d="" fill="#da1616" stroke="#000000" stroke-width="0" stroke-linecap="round"/><path d="" fill="#da1616" stroke="#000000" stroke-width="0" stroke-linecap="round"/><path d="" fill="#c01313" stroke="#000000" stroke-width="0" stroke-linecap="round"/><path d="" fill="#515151" stroke="none" stroke-width="0.5" stroke-linecap="butt"/><path d="" fill="#565656" stroke="none" stroke-width="0.5" stroke-linecap="butt"/><path d="" fill="#565656" stroke="none" stroke-width="0.5" stroke-linecap="butt"/><path d="" fill="#000000" stroke="#000000" stroke-width="0" stroke-linecap="round"/><g stroke-width="0"><g><path d="" fill="#1f1f1f" stroke="#000000" stroke-linecap="round"/><g><g><g stroke="#000000" stroke-linecap="round"><path d="" fill="#3f3f3f"/><path d="" fill="#2f2f2f"/></g><path d="" fill="#282828" stroke="none" stroke-linecap="butt"/></g><g stroke="none" stroke-linecap="butt"><path d="" fill="#303030"/><path d="" fill="#3f3f3f"/><path d="" fill="#1f1f1f"/><path d="" fill="#db1616"/></g></g></g><path d="" fill="#f21818" stroke="none" stroke-linecap="butt"/></g><path d="M202.21862,97.09251c0.33654,-2.27063 -0.16776,-40.17317 35.96775,-41.57382c44.63633,-0.91362 41.63786,39.57384 41.53088,42.1903c-0.12621,3.08674 -0.09973,15.78052 -1.28952,27.30941c-0.14335,1.38903 0.81777,4.18348 0.59024,5.50591c-1.5623,9.48098 -7.01211,16.22543 -7.01211,16.22543l-1.15522,-2.34735c0,0 -1.02266,2.19794 -2.16005,3.33274c-1.1374,1.13479 -3.43873,2.91273 -3.43873,2.91273l-0.09205,-3.70421c0,0 -7.0601,11.01795 -24.35066,10.87154c-16.30625,-0.25547 -26.07151,-10.6752 -26.07151,-10.6752l-0.1162,2.65484c0,0 -3.89477,-3.29276 -6.18145,-9.70754c-2.72545,-7.64567 -3.23946,-12.24324 -3.23946,-12.24324c0,0 -2.33908,1.89916 -5.71704,2.7744c-4.23278,1.09673 -6.94665,0.34526 -6.94665,0.34526c0,0 3.60795,-2.71717 5.58396,-4.76989c1.76007,-1.8284 2.64658,-3.37722 2.64658,-3.37722c0,0 -2.10758,1.0847 -4.23277,1.61795c-2.21739,0.5564 -4.03008,0.53093 -4.03008,0.53093c0,0 4.97492,-5.03728 7.03074,-10.87429c1.94102,-5.51108 2.09972,-10.95731 2.09972,-10.95731z" fill="#000000" stroke="none" stroke-width="1.5" stroke-linecap="butt"/><path d="M212.71289,115.20175c-0.57709,-7.29323 0.335,-17.15448 0.335,-17.15448c0,0 3.41059,-0.04124 13.91429,-3.14424c8.0696,-2.38394 20.54731,-9.48722 20.54731,-9.48722c0,0 -2.16005,3.00503 -3.40781,4.46015c-1.32651,1.54696 -3.99292,4.56297 -3.99292,4.56297c0,0 7.838,-1.66761 14.67476,-4.72931c8.56837,-3.53575 10.59252,-6.05309 12.95042,-4.5927c2.7829,1.72362 1.03006,23.1827 0.71846,28.74062c-0.42163,5.66922 -2.53327,9.49969 -3.15031,12.52053c-0.61704,3.02084 -0.4096,6.13662 -2.20622,16.0397c-1.12121,6.18021 -4.16183,8.92466 -10.01942,14.66081c-5.85759,5.73616 -9.05378,9.25275 -13.01359,9.32173c-3.81077,0.06639 -8.93565,-5.1002 -13.93542,-10.38244c-5.32393,-5.62474 -8.87489,-8.47713 -9.71551,-15.13975c-0.75707,-6.00039 -0.77653,-9.90853 -1.12266,-15.24835c-0.25298,-3.90273 -2.26119,-6.44504 -2.57636,-10.42801z" fill="#ffffff" stroke="#000000" stroke-width="1.5" stroke-linecap="butt"/><path d="M260.84997,103.28005c0,0 1.50487,0.4 4.18956,1.33871c2.45216,0.85741 4.34857,1.98199 4.34857,1.98199l0.13155,1.17918c0,0 -7.06984,-3.51727 -14.96015,-3.28407c-6.3089,0.18649 -10.10065,2.26973 -10.10065,2.26973l0.27146,-4.16825c0,0 3.21503,-1.53266 7.95247,-1.42779c4.90558,0.10861 8.04705,1.02773 8.04705,1.02773z" data-paper-data="{&quot;index&quot;:null}" fill="#000000" stroke="none" stroke-width="1.5" stroke-linecap="butt"/><g stroke="none" stroke-linecap="butt"><path d="M261.17071,150.06113c0,0 -8.14583,12.15482 -20.94418,12.15482c-13.55539,0 -21.95356,-14.16202 -21.95356,-14.16202c0,0 2.8446,-8.07418 9.56384,-8.61382c6.5303,-0.52446 12.53767,3.50187 12.53767,3.50187c0,0 4.43527,-2.93352 9.82891,-1.55091c6.67767,1.71177 10.96732,8.67007 10.96732,8.67007z" fill="#000000" stroke-width="0"/><path d="M252.67686,143.59057c1.13846,0.64178 3.1463,2.49186 4.22267,3.77537l1.98317,2.33531l-2.36754,0.03628c-1.26268,0 -4.81792,-0.82401 -7.40537,-1.82231c-3.91225,-1.51525 -9.63616,-1.88663 -9.63616,-2.99189c0,-0.76655 5.32753,-1.92396 5.76222,-2.04873c1.82157,-0.69523 5.49522,-0.46058 7.44101,0.71596z" data-paper-data="{&quot;noHover&quot;:false,&quot;origItem&quot;:[&quot;Path&quot;,{&quot;applyMatrix&quot;:true,&quot;segments&quot;:[[[156.85553,350.5594],[0.6875,-0.29688],[-0.16406,0.05328]],[[156.54303,351.25976],[0,-0.32734],[0,0.47198]],[[158.30865,352.59956],[-1.47656,-0.64706],[0.97656,0.4263]],[[160.94927,353.37604],[-0.47656,0],[0,0]],[161.83209,353.37604],[[161.07427,352.40164],[0,0],[-0.40624,-0.5481]],[[159.54303,350.90958],[0.42968,0.27406],[-0.73438,-0.50242]]],&quot;closed&quot;:true,&quot;fillColor&quot;:[0,0,0]}]}" fill="#ffffff" stroke-width="0.5"/><path d="M231.88572,141.12959c0.70378,0.12477 2.09586,0.73793 3.11016,1.20141c0.9522,0.41 7.20478,2.32164 7.20478,2.55338c0,0.30302 -0.01176,-0.39569 0.17455,0.12128c0.3312,0.76655 -5.43897,1.17179 -7.96433,1.17179c-1.69736,0 -5.84828,0.37374 -8.74627,0.78374c-2.83588,0.33872 -5.42923,0.37699 -5.61554,0.19875c-0.64167,-0.51701 1.38048,-3.31331 3.26416,-4.47207c1.9044,-1.10522 6.68881,-2.0218 8.57249,-1.55831z" data-paper-data="{&quot;noHover&quot;:false,&quot;origItem&quot;:[&quot;Path&quot;,{&quot;applyMatrix&quot;:true,&quot;segments&quot;:[[[151.66025,349.8362],[0,0],[-0.71094,-0.19792]],[[148.58993,350.46042],[0.71876,-0.47196],[-0.71094,0.49482]],[[147.35555,352.30266],[-0.24218,-0.22078],[0.07032,0.07612]],[[149.44931,352.18086],[-1.07032,0.14464],[1.09376,-0.17508]],[[152.58993,351.88398],[-0.64062,0],[0.95312,0]],[[153.58993,351.48052],[0.125,0.32734],[-0.07032,-0.22076]],[[153.44931,350.8563],[0,0.1294],[0,-0.09896]],[[152.80869,350.3082],[0.35938,0.17508],[-0.38282,-0.19792]],[[151.66025,349.83622],[0.26562,0.05328],[0,0]]],&quot;closed&quot;:true,&quot;fillColor&quot;:[0,0,0]}]}" fill="#ffffff" stroke-width="0.5"/><path d="M234.5099,147.66892c3.02215,-0.05349 10.11206,0.56697 10.42254,1.20875c0.18632,0.51696 -0.73907,1.23163 -0.86328,1.33858c-0.12416,0.12482 -8.03338,-0.3726 -10.99342,-0.72916c-5.81664,-0.76655 -5.06554,-1.69336 1.43416,-1.81813z" data-paper-data="{&quot;noHover&quot;:false,&quot;origItem&quot;:[&quot;Path&quot;,{&quot;applyMatrix&quot;:true,&quot;segments&quot;:[[[152.69141,352.65284],[0,0],[-2.45312,0.05328]],[[152.26173,353.27706],[-2.19532,-0.32734],[1.11718,0.15226]],[[154.37891,353.47498],[-0.04686,0.0533],[0.04688,-0.04568]],[[154.33203,353.003],[0.07032,0.22076],[-0.11718,-0.27406]],[[152.69141,352.65282],[1.14062,-0.02284],[0,0]]],&quot;closed&quot;:true,&quot;fillColor&quot;:[0,0,0]}]}" fill="#ffffff" stroke-width="0.5"/><path d="M243.11021,149.30032c0,-1.05177 2.55844,-1.05336 5.58059,-0.0016l2.20822,0.80357l-3.85082,0.23529c-2.83589,0.07133 -3.93805,-0.34203 -3.93805,-1.03726z" data-paper-data="{&quot;noHover&quot;:false,&quot;origItem&quot;:[&quot;Path&quot;,{&quot;applyMatrix&quot;:true,&quot;segments&quot;:[[[156.06641,353.25424],[0,0],[0,0.29688]],[[157.44923,353.5968],[-1.07032,0.03046],[0,0]],[158.80861,353.57396],[[157.97267,353.25424],[0,0],[-1.14062,-0.44914]],[[156.06643,353.25424],[0,-0.44914],[0,0]]],&quot;closed&quot;:true,&quot;fillColor&quot;:[0,0,0]}]}" fill="#ffffff" stroke-width="0.5"/><path d="M231.67012,151.35441l10.14946,1.80842l8.00028,-0.83955c4.40903,-0.51696 8.13946,-0.85663 8.26367,-0.73186c0.45541,0.46348 -2.64903,3.63551 -5.3607,5.38251c-8.0108,5.31236 -21.96895,3.55201 -29.11038,-3.6143c-2.44253,-2.46006 -3.19633,-3.8468 -2.11997,-3.8468c0.24842,0 4.87851,0.78981 10.17764,1.84158z" data-paper-data="{&quot;noHover&quot;:false,&quot;origItem&quot;:[&quot;Path&quot;,{&quot;applyMatrix&quot;:true,&quot;segments&quot;:[[[147.90237,353.37604],[0.09376,0],[-0.40624,0]],[[148.70705,354.9975],[-0.92186,-1.05052],[2.69532,3.06024]],[[159.49611,356.5124],[-3.02344,2.26854],[1.02344,-0.74602]],[[161.51955,354.25148],[0.17188,0.19792],[-0.04688,-0.05328]],[[158.40237,354.5712],[1.66406,-0.22076],[0,0]],[155.40237,354.96706],[[151.73831,354.17536],[0,0],[-2,-0.44914]]],&quot;closed&quot;:true,&quot;fillColor&quot;:[0,0,0]}]}" fill="#ffffff" stroke-width="0.5"/></g><path d="M240.34505,144.62884c-1.03376,0 -3.5381,-3.26042 -3.7867,-5.3637c-0.22243,-1.88186 1.31512,-3.82799 3.7867,-3.82799c2.47159,0 4.2021,0.49077 4.02999,4.18853c-0.14607,3.13818 -1.55841,5.00317 -4.02999,5.00317z" fill="#ffffff" stroke="#000000" stroke-width="1.15" stroke-linecap="butt"/><path d="M243.94714,114.53512c0,0 0.1026,3.96976 0.00576,7.12662c-0.19174,6.25113 -1.08147,27.7607 -1.08147,27.7607l-2.98167,0.00864c0,0 -0.80294,-4.17274 -1.12322,-9.49979c-0.43353,-7.21063 -0.4495,-16.29321 -0.76344,-19.63229c-0.29758,-3.16513 -0.89593,-5.71453 -0.89593,-5.71453" fill="#ffffff" stroke="#000000" stroke-width="1.3" stroke-linecap="round"/><path d="M214.41256,125.32496c0,0 -4.93211,-3.51705 -6.16417,-8.97502c-1.29636,-5.74284 -1.46118,-9.7328 0.48013,-9.99193c1.94131,-0.25915 2.70321,2.37692 3.73262,8.35569c1.0294,5.97877 1.95143,10.61127 1.95143,10.61127z" data-paper-data="{&quot;index&quot;:null}" fill="#ffffff" stroke="#000000" stroke-width="1" stroke-linecap="butt"/><path d="M214.20994,121.3774c0,0 -3.56385,-2.92338 -4.31816,-8.45061c-0.42079,-3.08327 2.15675,-2.28016 2.15675,-2.28016" fill="none" stroke="#000000" stroke-width="0.25" stroke-linecap="round"/><path d="M217.22336,114.7215c0.07093,-4.89188 4.83834,-8.93609 10.21137,-8.8582c5.37302,0.0779 9.02724,4.2484 8.95632,9.14029c-0.07093,4.89188 -4.12352,8.79439 -9.49655,8.7165c-5.37302,-0.0779 -9.74207,-4.1067 -9.67114,-8.99859z" fill="#ffffff" stroke="#000000" stroke-width="1.4" stroke-linecap="butt"/><path d="M223.66101,114.17278c0.03999,-2.75843 2.30855,-4.96213 5.06696,-4.92214c2.75843,0.03999 4.96213,2.30855 4.92214,5.06696c-0.03999,2.75843 -2.30854,4.96213 -5.06696,4.92214c-2.75843,-0.03999 -4.96213,-2.30855 -4.92214,-5.06696z" fill="#000000" stroke="none" stroke-width="1.5" stroke-linecap="butt"/><path d="M244.27965,114.72223c0.20353,-4.88817 4.45264,-8.85847 9.77048,-8.85847c5.31783,0 9.27453,3.96607 9.27453,8.85847c0,4.8924 -3.88585,9.07104 -9.69964,9.14188c-5.52997,0.06739 -9.55792,-4.03692 -9.34537,-9.14188z" fill="#ffffff" stroke="#000000" stroke-width="1.4" stroke-linecap="butt"/><path d="M248.88239,112.00777c0,-2.81845 2.2848,-5.10325 5.10325,-5.10325c2.81845,0 5.10325,2.2848 5.10325,5.10325c0,2.81845 -2.28479,5.10325 -5.10325,5.10325c-2.81845,0 -5.10325,-2.2848 -5.10325,-5.10325z" fill="#000000" stroke="none" stroke-width="1.5" stroke-linecap="butt"/><path d="M217.15494,114.18932c0,0 0.06357,-9.01512 10.60111,-8.8249c9.47101,0.16586 9.55554,9.40723 9.55554,9.40723c0,0 -4.24408,-4.11062 -9.94121,-4.05713c-5.89573,0.05535 -10.21544,3.4748 -10.21544,3.4748z" fill="#ffffff" stroke="#000000" stroke-width="1.15" stroke-linecap="butt"/><path d="M262.59648,138.85449c0,0 -5.08476,3.26102 -6.83334,3.42857c-0.58378,0.05594 -2.25928,-1.25743 -4.17017,-2.92239c-0.69112,-0.60217 -1.41302,-0.53604 -2.12521,-1.18204c-0.5728,-0.51957 -1.13931,-1.75203 -1.67846,-2.24375c-1.99188,-1.8167 -3.52617,-3.5804 -3.52617,-3.5804l0.06603,-9.18358l-1.09149,0.22987l-0.36282,8.44697l-3.69505,-0.65992c0,0 -0.09161,-4.72243 -0.53638,-9.71112c-0.32492,-3.64441 -0.87156,-7.43091 -1.21362,-9.6222c-0.33053,-2.11749 -2.30132,-7.13499 -5.89985,-10.87547c-1.17096,-1.21715 -2.71958,-1.95109 -4.08626,-2.7645c-1.73725,-1.03395 -3.18054,-1.65772 -3.18054,-1.65772c0,0 4.34416,-1.41376 6.0925,-1.97861c1.74834,-0.56485 4.74082,-1.85473 4.74082,-1.85473l15.33334,35.5l13.83333,-2.83333c0,0 -0.61611,7.67015 -0.92085,10.13203c-0.17476,1.41186 -0.74582,3.33231 -0.74582,3.33231z" fill="#d7d7d7" stroke="#000000" stroke-width="0" stroke-linecap="round"/><path d="M243.90199,114.32022c0,0 -0.24686,-9.4582 11.19813,-9.1032c9.71427,0.33347 9.54677,9.65229 9.54677,9.65229z" fill="#ffffff" stroke="#000000" stroke-width="1.15" stroke-linecap="butt"/><path d="M220.68477,102.17766c0,0 3.36963,-1.819 8.03244,-2.28178c5.16698,-0.51283 7.76823,-0.06628 7.76823,-0.06628l0.29508,4.13747c0,0 -3.83554,-0.68065 -8.01795,-0.52113c-5.59346,0.21333 -6.64488,1.43293 -10.89774,1.89119c-3.64408,0.39266 -6.73723,0.15884 -6.73723,0.15884l-0.02589,-1.23155c0,0 3.59517,0.07398 5.23371,-0.06836c1.35239,-0.11749 3.9757,-0.93808 3.9757,-0.93808z" fill="#000000" stroke="none" stroke-width="1.5" stroke-linecap="butt"/><path d="M268.64565,114.7137c1.0294,-5.97877 1.7913,-8.61483 3.73262,-8.35569c1.94131,0.25914 1.77649,4.24909 0.48013,9.99193c-1.23206,5.45797 -6.16417,8.97502 -6.16417,8.97502c0,0 0.92203,-4.6325 1.95143,-10.61127z" data-paper-data="{&quot;index&quot;:null}" fill="#ffffff" stroke="#000000" stroke-width="1" stroke-linecap="butt"/><path d="M269.05818,110.64664c0,0 2.57754,-0.80312 2.15675,2.28016c-0.75431,5.52723 -4.31816,8.45061 -4.31816,8.45061" data-paper-data="{&quot;index&quot;:null}" fill="none" stroke="#000000" stroke-width="0.25" stroke-linecap="round"/><path d="M226.77038,120.11858c7.29573,0.05536 9.74121,-4.75713 9.74121,-4.75713c0,0 -0.28452,8.43769 -9.75554,8.40723c-9.47102,-0.03046 -9.60111,-7.8249 -9.60111,-7.8249c0,0 2.31971,4.11944 9.61544,4.1748z" data-paper-data="{&quot;index&quot;:null}" fill="#ffffff" stroke="#000000" stroke-width="1.15" stroke-linecap="butt"/><path d="M243.1101,52.94919c0,0 5.75642,0.72074 9.38928,1.49114c2.25835,0.47892 6.11502,2.1478 9.67699,3.01439c4.36293,1.06146 8.28373,1.29447 8.28373,1.29447c0,0 3.00297,3.25248 4.63094,4.88021c1.62995,1.6297 5.14282,4.89208 5.14282,4.89208c0,0 0.38441,2.32032 1.88446,6.2926c0.59803,1.58365 0.96445,3.23121 1.51885,4.74187c0.55923,1.52381 1.30536,2.90835 1.65587,3.94756c1.15312,3.41881 2.5004,9.14569 2.5004,9.14569c0,0 -0.51904,1.95662 -0.89762,4.43271c-0.47777,3.12483 -0.88,7.07698 -1.3861,8.96789c-0.86741,3.24084 -2.54526,5.75965 -2.54526,5.75965c0,0 0.03852,3.09834 -0.2393,5.69185c-0.23046,2.15133 -1.25657,4.47134 -1.49552,5.75965c-0.34882,1.88069 -1.61953,5.2337 -1.61953,5.2337c0,0 -1.00116,-0.42908 -1.64043,-0.38538c-0.99998,0.06836 -1.90369,0.63586 -2.76042,0.76567c-1.34281,0.20345 -3.84915,0.32425 -3.84915,0.32425l-2.77282,0.86888l-1.3479,-1.40732l-1.03919,-1.20257l0.44083,1.51153c0,0 -0.25633,1.2418 -0.27386,1.40726c-0.29433,2.77865 -2.57926,2.45844 -5.09952,3.9243c-2.67674,1.55687 -5.74087,3.81458 -5.74087,3.81458c0,0 -0.76177,-2.8713 -3.33356,-4.06928c-1.75471,-0.81737 -3.90947,-3.5871 -5.07185,-4.14408c-2.37415,-1.13762 -6.26126,-3.11998 -6.26126,-3.11998l-1.6295,-17.38805l-6.8705,-18.94528c0,0 -0.26481,-3.30354 -1.75803,-5.64193c-1.3189,-2.0654 -4.066,-2.60302 -5.02712,-3.89408c-1.49583,-2.00933 -4.38152,-5.46399 -4.38152,-5.46399c0,0 1.25291,-1.61146 1.87002,-4.34238c0.57174,-2.53011 0.49151,-6.12735 0.9502,-7.70763c0.6378,-2.19732 2.34644,-5.74999 2.34644,-5.74999c0,0 6.63589,-2.11201 9.60067,-2.94392c2.55844,-0.71789 7.14933,-1.75608 7.14933,-1.75608z" fill="#4b4b4b" stroke="#f60000" stroke-width="0" stroke-linecap="round"/><path d="M271.24073,90.71466l2.63637,12.45454l-10.09091,8.90909l-11.63637,-5.09091l-3.27273,-13.81818z" fill="#444444" stroke="none" stroke-width="0.5" stroke-linecap="round"/><path d="M270.98706,88.61152l1.56838,12.79587l-9.53358,7.39661l-11.03329,-3.87519l-3.2926,-12.22838l9.81091,-8.52595z" fill="#b31212" stroke="#000000" stroke-width="0" stroke-linecap="round"/><path d="M269.97211,90.21076l1.24998,10.1982l-7.59818,5.89503l-8.79343,-3.08849l-2.62418,-9.74591l7.81922,-6.79511z" fill="#c01313" stroke="#000000" stroke-width="0" stroke-linecap="round"/><path d="M258.48456,84.21622l1.18023,2.40498l2.93227,1.02836l-2.83134,-0.58038l-7.12391,6.3227l0.6886,4.25768l-1.31628,-4.13946l-3.35039,-0.82721z" fill="#da1616" stroke="#000000" stroke-width="0" stroke-linecap="round"/><path d="M272.64108,101.32792l-9.625,7.41071l0.25,-2.5l7.96429,-5.83928z" fill="#990f0f" stroke="#000000" stroke-width="0" stroke-linecap="round"/><path d="M280.54526,125.36414l-0.90909,2.72727l-0.18181,-5.63636z" fill="#444444" stroke="none" stroke-width="0.5" stroke-linecap="round"/><path d="M283.80906,124.13149l-3.32034,1.95815l-1.10679,-3.91631l2.9798,-2.63925z" fill="#c01313" stroke="none" stroke-width="0.5" stroke-linecap="round"/><path d="M246.05999,115.61578l10.75803,-2.3577l1.05303,0.6894l-4.73485,8.12878l-7.68182,-5.63636z" fill="#444444" stroke="none" stroke-width="0.5" stroke-linecap="round"/><path d="M265.53229,58.35476l3.63637,0.46969l-4.87879,0.61364z" fill="#444444" stroke="none" stroke-width="0.5" stroke-linecap="round"/><path d="M236.76341,73.95634l5.19285,-1.44251l0.54546,0.36364l-2.15152,4.57576l-3.93939,-2.93939z" fill="#444444" stroke="none" stroke-width="0.5" stroke-linecap="round"/><path d="M242.19182,72.38057l-2.23186,3.81576l-3.88776,-1.87188l2.59184,-4.17574z" fill="#b31212" stroke="none" stroke-width="0.5" stroke-linecap="round"/><path d="M264.45367,57.18627l2.93135,1.79139l-3.17564,0.40713l-3.0942,-1.46567z" fill="#c01313" stroke="none" stroke-width="0.5" stroke-linecap="round"/><path d="M280.65729,81.53069l1,0.54546l-2.12727,5.52728l-4.23636,-4.16363z" fill="#444444" stroke="none" stroke-width="0.5" stroke-linecap="round"/><path d="M281.65173,81.82863l-2.57181,4.45122l-3.9458,-3.01142l1.76965,-5.09969z" fill="#c01313" stroke="none" stroke-width="0.5" stroke-linecap="round"/><path d="M257.08054,113.11588l-4.39961,7.79568l-7.46198,-4.59108l5.12017,-7.21863z" fill="#b31212" stroke="none" stroke-width="0.5" stroke-linecap="round"/><path d="M264.56577,57.10498l2.5,1.6875l-2.5,-0.8125h-3.1875z" fill="#da1616" stroke="#000000" stroke-width="0" stroke-linecap="round"/><path d="M276.92035,78.25459l3.0625,2.375l-1.9375,-0.6875l-2.89583,3.35417z" fill="#da1616" stroke="#000000" stroke-width="0" stroke-linecap="round"/><path d="M255.71699,113.52124l-3.34928,5.57095l-5.1351,-3.49503l3.44327,-4.94985z" fill="#c01313" stroke="none" stroke-width="0.5" stroke-linecap="round"/><path d="M245.19756,116.37593l5.16996,-7.24609l0.24711,1.29544l0.96179,0.74658l-0.91846,-0.36274l-3.21858,4.56354l0.51714,0.70916l-0.87251,-0.55469z" fill="#da1616" stroke="#000000" stroke-width="0" stroke-linecap="round"/><path d="M279.31514,122.29207l3.01667,-2.66666l0.65,2.08333l-0.91667,-0.66667z" fill="#da1616" stroke="#000000" stroke-width="0" stroke-linecap="round"/><path d="M236.06878,74.30957l2.6,-4.13333l2.2,1.33333h-1.73333z" fill="#c01313" stroke="#000000" stroke-width="0" stroke-linecap="round"/><path d="M225.27734,63.55137c0.60816,-2.92341 1.89794,-5.2709 1.89794,-5.2709c0,0 4.95391,-1.64142 8.19078,-2.45124c3.23687,-0.80982 7.76429,-2.10303 7.76429,-2.10303c0,0 6.20011,0.9774 8.93369,1.52489c2.44555,0.4898 6.9501,2.10626 6.9501,2.10626c0,0 1.21902,0.96095 2.73571,1.68599c1.77153,0.84687 3.94917,1.47597 5.0647,1.46212c1.66118,0 3.35735,-1.077 3.35735,-1.077c0,0 3.02444,3.61051 4.56002,5.26887c1.39124,1.50247 4.26327,3.72414 4.26327,3.72414c0,0 -1.5178,1.30826 -1.91955,1.48024c-1.50221,0.00341 -4.6203,-1.11325 -6.06975,-0.43431c-2.48241,1.16278 -0.60803,6.96094 -0.75051,8.97399c-0.77651,0.57536 -1.41355,0.54591 -2.17797,0.9894c-0.78986,0.45825 -0.65476,1.61934 -1.35937,2.17202c-1.32963,1.04293 -2.77059,-0.27125 -3.85423,-0.29978c-0.13599,-0.00358 -1.32878,0.73307 -1.76918,0.79598c-1.43164,0.20449 -3.10381,-0.13774 -4.52137,-0.31807c-2.92183,-0.37846 -3.25345,1.13367 -5.18654,2.54636c-1.16911,0.85438 -2.89763,0.60052 -4.10931,1.30349c-0.77788,0.4513 -1.00675,1.97797 -1.30931,2.72823c-0.52984,0.21259 -1.60611,0.31236 -2.05005,0.6438c-0.69656,0.52004 -0.60276,3.21314 -0.60343,3.98421c-0.00465,5.38857 -3.83506,13.23029 -3.83506,13.23029c0,0 -1.57199,-3.55564 -3.08274,-7.73798c-0.94257,-2.6094 -2.20263,-5.3199 -2.88146,-7.70587c-0.66866,-2.35018 -1.10934,-4.42906 -2.65436,-6.84303c-1.54503,-2.41397 -2.36974,-1.4763 -3.70932,-2.84965c-0.69764,-0.71523 -1.75366,-2.13507 -2.74248,-3.33162c-0.90986,-1.10101 -2.03472,-2.26295 -2.03472,-2.26295c0,0 1.44082,-2.73653 1.90265,-4.47603c0.64551,-2.43134 0.39205,-4.53539 1.00021,-7.4588zM241.21455,79.65545l2.125,-6.875l-4.625,-3.375l-3.5,5.25z" fill="#515151" stroke="none" stroke-width="0.5" stroke-linecap="butt"/><path d="" fill="#565656" stroke="none" stroke-width="0.5" stroke-linecap="butt"/><path d="M255.58599,57.359c0.03386,0.02761 0.06373,0.05617 0.0898,0.08564z" fill="#565656" stroke="none" stroke-width="0.5" stroke-linecap="butt"/><path d="M229.28245,126.27518c0,0 2.01163,-0.01438 3.56604,-0.77911c1.30454,-0.6418 2.48244,-2.38858 2.48244,-2.38858c0,0 -0.23762,1.92127 -2.15146,2.92296c-2.02914,1.06204 -3.89702,0.24473 -3.89702,0.24473z" fill="#000000" stroke="#000000" stroke-width="0" stroke-linecap="round"/><g stroke-width="0"><g><path d="M201.45869,105.26959c0,0 -5.49288,-0.53553 -5.83588,-4.67914c-0.24444,-2.87192 7.05659,-7.21662 7.05659,-7.21662c0,0 -0.31762,4.99042 -0.47409,7.01094c-0.15341,1.98099 -0.74662,4.88482 -0.74662,4.88482z" fill="#1f1f1f" stroke="#000000" stroke-linecap="round"/><g><g><g stroke="#000000" stroke-linecap="round"><path d="M284.38723,79.21468c0,0 -30.69506,1.28415 -45.55001,3.42632c-14.43742,2.08197 -37.76633,9.78985 -37.76633,9.78985c0,0 -2.6824,-15.61507 4.01395,-29.57289c4.59326,-9.57415 13.5993,-18.36856 30.91068,-20.8088c17.47893,-2.46386 28.84594,3.90561 36.13715,12.03401c9.83588,10.96527 12.25455,25.13149 12.25455,25.13149z" fill="#3f3f3f"/><path d="M245.1033,84.74544c-10.41152,1.78754 -43.21053,8.39115 -46.36789,12.1517c-3.31094,3.94348 -0.45434,7.41792 -0.45434,7.41792c0,0 -4.61169,-1.23836 -4.79023,-6.19215c-0.18685,-5.1846 7.29341,-8.29738 7.29341,-8.29738c0,0 -1.68503,-20.03483 7.5433,-32.43717c9.22833,-12.40234 21.58277,-14.20773 21.58277,-14.20773c0,0 -9.35938,12.04598 -11.68022,21.81729c-2.27576,9.58155 -1.6784,19.13125 -1.6784,19.13125c0,0 17.28245,-3.53291 28.44639,-5.17121c11.16394,-1.63831 38.38867,-4.63681 38.38867,-4.63681c0,0 0.65787,1.56822 0.84627,2.62975c0.1884,1.06154 0.08941,2.64231 0.08941,2.64231c0,0 -28.80761,3.36469 -39.21913,5.15223z" fill="#2f2f2f"/></g><path d="M212.91472,76.34734c-0.93546,7.07208 -4.84183,12.8284 -8.35506,12.36369c-3.51323,-0.46471 -5.00292,-6.37449 -4.06746,-13.44656c0.93546,-7.07208 5.34183,-14.9284 8.85506,-14.46369c3.51323,0.46471 4.50292,8.47449 3.56746,15.54656z" fill="#282828" stroke="none" stroke-linecap="butt"/></g><g stroke="none" stroke-linecap="butt"><path d="M191.56008,82.29155c-0.37107,-0.44347 -3.0628,-3.11299 0.04516,-13.63214c3.36193,-11.37873 7.25581,-11.96628 8.39632,-11.84955c1.15806,0.11852 10.5977,2.9306 10.5977,2.9306c0,0 3.59309,2.28273 1.18827,12.97459c-1.97647,8.78733 -7.59794,12.72812 -7.59794,12.72812c0,0 -12.03375,-2.43966 -12.6295,-3.15162z" fill="#303030"/><path d="M191.71209,82.28284c-0.27394,-0.3274 -1.81271,-1.86803 -1.34892,-6.88467c0.16443,-1.77861 0.58058,-3.99416 1.39408,-6.74746c3.36193,-11.37873 7.1447,-11.85516 8.28521,-11.73844c0.57489,0.05884 1.90631,0.31053 1.90631,0.31053l0.22102,1.3007l9.8399,3.35087c0,0 0.78418,2.06872 0.77783,4.13611c-0.00434,1.41381 -0.15198,3.09874 -0.52034,5.09785l-11.52589,-3.17096c0,0 -1.51474,6.16147 -3.50989,9.56041c-2.63187,4.48365 -5.40434,4.92245 -5.51931,4.78505z" fill="#3f3f3f"/><path d="M192.68179,79.84906c-1.28782,-0.64066 -1.44202,-5.7691 0.25932,-11.61297c1.70135,-5.84385 4.50107,-10.21638 5.9018,-9.54954c1.45523,0.69278 0.27058,6.44846 -1.43077,12.29234c-1.70134,5.84388 -3.44253,9.51082 -4.73035,8.87016z" fill="#1f1f1f"/><path d="M198.3402,70.47222c-1.73822,5.82708 -4.42471,10.07497 -5.48787,9.46838c-1.05753,-0.60339 -0.92657,-5.67753 0.81166,-11.50461c1.73822,-5.82708 4.33125,-10.22369 5.483,-9.59709c1.19657,0.651 0.93143,5.80623 -0.80679,11.6333z" fill="#db1616"/></g></g></g><path d="M196.01122,76.08583c0,0 -1.13475,-2.75623 0.10916,-7.03048c1.10714,-3.80429 3.46085,-5.36279 3.46085,-5.36279c0,0 -0.5086,3.81504 -1.21829,6.19414c-0.70969,2.3791 -2.35172,6.19913 -2.35172,6.19913z" fill="#f21818" stroke="none" stroke-linecap="butt"/></g></g></g></svg>