<svg version="1.1" xmlns="http://www.w3.org/2000/svg" xmlns:xlink="http://www.w3.org/1999/xlink" width="93.56936" height="249.49812" viewBox="0,0,93.56936,249.49812"><g transform="translate(-192.30453,-56.00172)"><g data-paper-data="{&quot;isPaintingLayer&quot;:true}" fill-rule="nonzero" stroke-linejoin="miter" stroke-miterlimit="10" stroke-dasharray="" stroke-dashoffset="0" style="mix-blend-mode: normal"><path d="M218.07656,62.88896c0,0 -1.27956,-0.30707 -2.55993,-0.1987c-1.49996,0.12695 -4.88577,0.41351 -4.88577,0.41351c0,0 4.16532,-3.07279 9.71412,-4.71469c5.49092,-1.62477 12.3366,-2.06722 17.84139,-2.37024c44.63633,-0.92186 39.01489,35.66771 41.53088,42.57103c3.44981,9.46549 6.15664,21.59328 6.15664,21.59328c0,0 -2.42802,-3.51099 -4.0797,-5.68481c-1.65168,-2.17382 -3.80143,-4.68777 -3.80143,-4.68777c0,0 -1.12681,18.47352 -1.30812,22.64363c-0.18131,4.17011 -10.49363,47.09303 -36.87549,47.69431c-23.91974,0.54516 -26.41272,-16.19151 -31.36916,-30.22119c-2.72545,-7.71466 -3.23946,-20.93043 -3.23946,-20.93043c0,0 -2.59205,3.53097 -5.71704,5.42109c-3.12499,1.69013 -6.94665,2.26733 -6.94665,2.26733c0,0 3.69299,-4.0264 5.58396,-6.72647c1.89097,-2.70007 2.64658,-5.02574 2.64658,-5.02574c0,0 -2.37689,2.01823 -4.23277,2.84518c-1.85588,0.82695 -4.23008,0.83662 -4.23008,0.83662c0,0 5.17492,-7.40349 7.23074,-13.29318c1.90618,-5.46102 1.50304,-12.37907 1.60644,-15.06901c0.36023,-9.37081 0.98263,-16.76055 5.04078,-25.21474c2.65534,-5.53178 11.89407,-12.149 11.89407,-12.149z" fill="#000000" stroke="none" stroke-width="1.5" stroke-linecap="butt"/><path d="M201.03047,304.39158c0,0 -0.63536,-94.38387 -0.79335,-118.01201c-0.05451,-8.15261 8.18688,-36.76129 40.20201,-36.9211c31.60235,-0.15775 39.85672,29.48704 39.84884,36.89673c-0.07659,46.24274 0.65429,117.98648 0.65429,117.98648l-10.49667,0.09614l-0.15882,-114.84311c0,0 0.07549,-3.0993 -2.81625,-3.15415c-3.43441,-0.06514 -2.94538,3.11562 -2.94538,3.11562l0.20548,114.86995l-48.21366,0.07222l-0.30539,-115.23309c0,0 0.27949,-2.919 -2.8856,-2.93443c-3.11083,-0.01515 -2.81569,2.90899 -2.81569,2.90899l0.35311,115.0668z" fill="#ffffff" stroke="#000000" stroke-width="2" stroke-linecap="butt"/><path d="M212.4511,305.48937c0,0 0.00222,-7.4073 0.53259,-16.3988c0.43117,-7.3096 1.3838,-15.5814 1.57713,-22.45548c0.19293,-6.8598 0.79995,-31.35754 0.7406,-36.09886c-0.05935,-4.74132 -4.73716,-11.46548 -4.70643,-23.20976c0.03071,-11.74427 4.65982,-31.36082 4.74517,-35.68139c0.08535,-4.32074 0.50087,-15.01709 0.50087,-15.01709c0,0 2.71858,-2.35297 4.73476,-3.74807c2.01618,-1.3951 5.25979,-2.80371 5.25979,-2.80371c0,0 2.10999,26.25 14.2759,26.25c12.16591,0 14.59725,-26.25 14.59725,-26.25c0,0 3.9792,1.51959 6.27055,2.94655c2.29135,1.42695 4.83451,3.60523 4.83451,3.60523c0,0 -0.38092,9.81054 0.11441,15.57634c0.49533,5.7658 4.91501,21.29579 4.5354,36.1228c-0.37961,14.82701 -4.01521,18.9349 -4.0323,22.72934c-0.01706,3.78556 0.61442,26.79291 0.91832,36.57505c0.20796,6.69409 1.17401,14.93255 1.61768,22.01293c0.55275,8.82124 0.57541,15.84492 0.57541,15.84492z" data-paper-data="{&quot;index&quot;:null}" fill="#0d0c0c" stroke="#000000" stroke-width="0" stroke-linecap="butt"/><path d="M268.82966,300.42165v-16.625h13.5v16.625z" fill="#990f0f" stroke="none" stroke-width="0" stroke-linecap="butt"/><path d="M268.82966,300.29665v-8.4962l3.27102,-4.36242l3.41351,5.76885l3.57822,-4.10137l3.23725,4.98238v6.20876z" fill="#740c0c" stroke="none" stroke-width="0" stroke-linecap="butt"/><path d="M241.47672,124.43944c10.22341,0.05075 23.82539,1.9386 23.82539,1.9386c0,0 -0.4096,6.13662 -2.20622,16.0397c-1.12121,6.18021 -4.16183,8.92466 -10.01942,14.66081c-5.85759,5.73616 -9.05378,9.25275 -13.01359,9.32173c-3.81077,0.06639 -8.93565,-5.1002 -13.93542,-10.38244c-5.32393,-5.62474 -8.87489,-8.47713 -9.71551,-15.13975c-0.75707,-6.00039 -1.12266,-14.74835 -1.12266,-14.74835c0,0 15.96402,-1.74105 26.18743,-1.6903z" fill="#ffffff" stroke="#000000" stroke-width="1.5" stroke-linecap="butt"/><path d="M260.62352,101.7096c0,0 1.54913,0.15758 4.34829,0.661c2.55672,0.45982 4.6068,1.27113 4.6068,1.27113l0.31593,1.14366c0,0 -7.5362,-2.35787 -15.29091,-0.8828c-6.20048,1.17945 -9.61608,3.8348 -9.61608,3.8348l-0.38953,-4.15888c0,0 2.93297,-2.02068 7.62763,-2.6645c4.86128,-0.66666 8.10842,-0.25465 8.10842,-0.25465z" data-paper-data="{&quot;index&quot;:null}" fill="#2b0404" stroke="none" stroke-width="1.5" stroke-linecap="butt"/><path d="M248.01878,143.06891c0.5704,0.21186 3.08357,1.39942 6.02385,2.59586c2.9637,1.20597 6.21362,3.95961 6.19412,4.12717c-0.02476,0.21265 -9.43477,-1.43973 -12.67937,-1.03443c-2.71902,0.33964 -6.68867,0.70564 -6.68867,0.70564c0,0 -7.10401,-1.16169 -13.27235,-2.44521c-4.94371,-1.02869 -9.06596,1.00559 -9.07662,0.91206c-0.01439,-0.12613 2.53502,-3.37738 5.49084,-4.06134c1.14585,-0.49661 5.43971,-1.48513 5.43971,-1.48513c0,0 4.95585,-0.27766 7.60826,0.579c2.84203,0.91791 2.83546,2.44556 3.0831,2.46906c0,0 1.18436,-1.74932 2.36886,-2.10461c1.18451,-0.35528 5.08219,-0.41633 5.50828,-0.25808z" fill="#ffffff" stroke="#000000" stroke-width="1.4" stroke-linecap="butt"/><path d="M229.37079,147.6225c5.09114,1.02674 11.91756,2.80736 11.91756,2.80736c0,0 5.78976,-1.55585 8.44678,-1.8344c2.05992,-0.21596 10.216,0.62679 10.26026,0.99956c0.04328,0.36447 -8.03119,11.567 -20.14808,11.11381c-13.76954,-0.43578 -21.19792,-12.80226 -21.16008,-12.97139c0.03784,-0.16913 5.59243,-1.14168 10.68357,-0.11493z" fill="#ffffff" stroke="#000000" stroke-width="1.9" stroke-linecap="butt"/><path d="M240.34507,144.62881c-1.03376,0 -3.5381,-3.26042 -3.7867,-5.3637c-0.22243,-1.88186 1.31512,-3.82799 3.7867,-3.82799c2.47159,0 4.2021,0.49077 4.02999,4.18853c-0.14607,3.13818 -1.55841,5.00317 -4.02999,5.00317z" fill="#ffffff" stroke="#000000" stroke-width="1.15" stroke-linecap="butt"/><path d="M243.95291,121.66171c-0.19174,6.25113 -1.08147,27.7607 -1.08147,27.7607l-2.98167,0.00864c0,0 -0.80294,-4.17274 -1.12322,-9.49979c-0.43353,-7.21063 -0.4495,-14.95988 -0.76344,-18.29896" fill="#ffffff" stroke="#000000" stroke-width="1.3" stroke-linecap="round"/><path d="M214.41258,125.32493c0,0 -4.93211,-3.51705 -6.16417,-8.97502c-1.29636,-5.74284 -1.46118,-9.7328 0.48013,-9.99193c1.94131,-0.25915 2.70321,2.37692 3.73262,8.35569c1.0294,5.97877 1.95143,10.61127 1.95143,10.61127z" data-paper-data="{&quot;index&quot;:null}" fill="#ffffff" stroke="#000000" stroke-width="1" stroke-linecap="butt"/><path d="M214.20996,121.37737c0,0 -3.56385,-2.92338 -4.31816,-8.45061c-0.42079,-3.08327 2.15675,-2.28016 2.15675,-2.28016" fill="none" stroke="#000000" stroke-width="0.25" stroke-linecap="round"/><path d="M244.27967,114.7222c0.20353,-4.88817 4.45264,-8.85847 9.77048,-8.85847c5.31783,0 9.27453,3.96607 9.27453,8.85847c0,4.8924 -3.88585,9.07104 -9.69964,9.14188c-5.52997,0.06739 -9.55792,-4.03692 -9.34537,-9.14188z" fill="#000000" stroke="#000000" stroke-width="1.4" stroke-linecap="butt"/><path d="M248.88241,114.80775c0,-2.81845 2.2848,-5.10325 5.10325,-5.10325c2.81845,0 5.10325,2.2848 5.10325,5.10325c0,2.81845 -2.28479,5.10325 -5.10325,5.10325c-2.81845,0 -5.10325,-2.2848 -5.10325,-5.10325z" fill="#ffffff" stroke="none" stroke-width="1.5" stroke-linecap="butt"/><path d="M243.90202,114.32019c0,0 -0.24686,-9.4582 11.19813,-9.1032c9.71427,0.33347 9.54677,9.65229 9.54677,9.65229z" fill="#740c0c" stroke="#000000" stroke-width="1.15" stroke-linecap="butt"/><path d="M268.64567,114.71367c1.0294,-5.97877 1.7913,-8.61483 3.73262,-8.35569c1.94131,0.25914 1.77649,4.24909 0.48013,9.99193c-1.23206,5.45797 -6.16417,8.97502 -6.16417,8.97502c0,0 0.92203,-4.6325 1.95143,-10.61127z" data-paper-data="{&quot;index&quot;:null}" fill="#ffffff" stroke="#000000" stroke-width="1" stroke-linecap="butt"/><path d="M269.05818,110.64661c0,0 2.57754,-0.80312 2.15675,2.28016c-0.75431,5.52723 -4.31816,8.45061 -4.31816,8.45061" data-paper-data="{&quot;index&quot;:null}" fill="none" stroke="#000000" stroke-width="0.25" stroke-linecap="round"/><path d="M217.22333,114.72147c0.07093,-4.89188 4.83834,-8.93609 10.21137,-8.8582c5.37302,0.0779 9.02724,4.2484 8.95632,9.14029c-0.07093,4.89188 -4.12352,8.79439 -9.49655,8.7165c-5.37302,-0.0779 -9.74207,-4.1067 -9.67114,-8.99859z" fill="#000000" stroke="#000000" stroke-width="1.4" stroke-linecap="butt"/><path d="M221.66098,114.83941c0.03999,-2.75843 2.30855,-4.96213 5.06696,-4.92214c2.75843,0.03999 4.96213,2.30855 4.92214,5.06696c-0.03999,2.75843 -2.30854,4.96213 -5.06696,4.92214c-2.75843,-0.03999 -4.96213,-2.30855 -4.92214,-5.06696z" fill="#ffffff" stroke="none" stroke-width="1.5" stroke-linecap="butt"/><path d="M220.82592,102.62911c0,0 3.63425,-1.2064 8.3066,-0.85266c5.17755,0.39197 7.66178,1.28333 7.66178,1.28333l-0.42768,4.12587c0,0 -3.65913,-1.33618 -7.80573,-1.90517c-5.54556,-0.76096 -6.79274,0.25759 -11.06058,-0.02943c-3.65691,-0.24593 -6.6625,-1.01319 -6.6625,-1.01319l0.18831,-1.21734c0,0 3.52774,0.697 5.16611,0.84127c1.35225,0.11908 4.07819,-0.23364 4.07819,-0.23364z" fill="#2b0404" stroke="none" stroke-width="1.5" stroke-linecap="butt"/><path d="M217.1549,114.18929c0,0 0.06357,-9.01512 10.60111,-8.8249c9.47101,0.16586 9.55554,9.40723 9.55554,9.40723z" fill="#740c0c" stroke="#000000" stroke-width="1.15" stroke-linecap="butt"/></g></g></svg>