<svg version="1.1" xmlns="http://www.w3.org/2000/svg" xmlns:xlink="http://www.w3.org/1999/xlink" width="89.94688" height="249.99448" viewBox="0,0,89.94688,249.99448"><g transform="translate(-195.92695,-55.50539)"><g data-paper-data="{&quot;isPaintingLayer&quot;:true}" fill-rule="nonzero" stroke-linecap="butt" stroke-linejoin="miter" stroke-miterlimit="10" stroke-dasharray="" stroke-dashoffset="0" style="mix-blend-mode: normal"><g fill="#000000" stroke="none"><g><path d="M200.7655,131.30686c0,0 -1.62712,-7.46661 -1.34484,-12.27905c0.28228,-4.81244 2.74778,-11.63886 2.74778,-11.63886l4.52697,4.80393c0,0 -2.51106,6.5564 -3.37423,9.83633c-0.83587,3.17618 -2.55569,9.27765 -2.55569,9.27765z" data-paper-data="{&quot;index&quot;:null}" stroke-width="0"/><path d="M195.92695,103.88011c0,0 6.16329,-5.92187 6.29161,-6.78761c0.21016,-1.41795 0.09242,-16.73106 8.77413,-28.37322c2.24333,-3.00831 6.40752,-3.7715 9.9834,-5.98652c3.35702,-2.07946 6.03732,-5.67579 10.83785,-6.53823c1.98632,-0.35685 4.10737,-0.58805 6.37237,-0.67585c16.03361,-0.32818 25.2492,5.47373 31.01993,11.65247c10.29453,11.02238 8.89871,26.15378 10.51095,30.53783c3.44981,9.38084 6.15664,17.40016 6.15664,17.40016c0,0 -2.76715,-2.05351 -4.0797,-3.13397c-1.2242,-1.00773 -3.80143,-3.14585 -3.80143,-3.14585c0,0 3.09111,10.3481 1.31092,20.69498c-1.5623,9.48098 -7.29782,17.22543 -7.29782,17.22543l-1.15522,-2.34735c0,0 -1.02266,2.19794 -2.16005,3.33274c-1.1374,1.13479 -3.43873,2.91273 -3.43873,2.91273l-0.09205,-3.70421c0,0 -7.0601,11.01795 -24.35066,10.87154c-16.30625,-0.25547 -26.07151,-10.6752 -26.07151,-10.6752l-0.1162,2.65484c0,0 -3.89477,-3.29276 -6.18145,-9.70754c-2.72545,-7.64567 -4.47651,-8.95674 -5.57279,-14.9099c-1.09628,-5.95316 -1.2322,-22.0435 -1.2322,-22.0435c0,0 -1.36165,0.66163 -3.33013,0.79513c-1.24776,0.08463 -2.37785,-0.0489 -2.37785,-0.0489z" stroke-width="1.5"/><path d="M207.07704,142.55627c0,0 -2.83183,-5.10841 -3.66745,-8.6953c-0.83562,-3.58689 -0.43091,-8.89684 -0.43091,-8.89684l5.81609,-0.33946c0,0 -1.12457,6.2805 -1.24605,9.31556c-0.11764,2.93906 -0.47168,8.61604 -0.47168,8.61604z" stroke-width="0"/><path d="M196.96066,117.10183c0,0 0.3522,-6.44398 1.26187,-9.27003c0.90415,-2.80889 5.3282,-10.62056 5.3282,-10.62056l-0.26083,9.91502c0,0 -0.60308,0.13857 -2.07352,2.71464c-1.42393,2.49459 -4.25572,7.26094 -4.25572,7.26094z" data-paper-data="{&quot;index&quot;:null}" stroke-width="0"/><path d="M196.48779,98.32645c0,0 3.11884,-3.05544 4.32282,-4.54156c1.0216,-1.26102 2.4442,-3.81128 2.4442,-3.81128l3.69079,2.99007c0,0 -2.75635,2.4414 -4.50868,3.34c-1.7334,0.88889 -5.94913,2.02278 -5.94913,2.02278z" stroke-width="0"/><path d="M198.20741,91.21408c0,0 2.49059,-2.05441 3.54178,-3.13275c0.89196,-0.915 2.3665,-2.92811 2.3665,-2.92811l1.0139,3.71456c0,0 -2.12533,1.57476 -3.28522,1.96791c-1.14737,0.3889 -3.63696,0.37839 -3.63696,0.37839z" stroke-width="0"/></g><path d="M276.54855,131.97723c-0.5922,-2.9792 -2.68019,-9.00826 -2.68019,-9.00826l5.79809,-3.81955c0,0 1.82571,7.29673 1.53474,12.01479c-0.29097,4.71806 -2.84621,9.25075 -2.84621,9.25075c0,0 -1.23296,-5.55276 -1.80643,-8.43774z" data-paper-data="{&quot;index&quot;:null}" stroke-width="0"/><path d="M279.19184,119.06204c-1.65442,-3.17478 -5.84351,-9.77979 -5.84351,-9.77979l6.06795,-2.26705c0,0 3.53864,6.20851 4.26118,10.53738c0.72254,4.32887 -0.84503,9.9294 -0.84503,9.9294c0,0 -1.98616,-5.24516 -3.64058,-8.41994z" data-paper-data="{&quot;index&quot;:null}" stroke-width="0"/><path d="M279.24647,98.05367c-1.75233,-0.8986 -4.50868,-3.34 -4.50868,-3.34l3.69079,-2.99007c0,0 1.42259,2.55027 2.4442,3.81128c1.20398,1.48613 4.32282,4.54156 4.32282,4.54156c0,0 -4.21573,-1.13389 -5.94913,-2.02278z" data-paper-data="{&quot;index&quot;:null}" stroke-width="0"/><path d="M280.22993,91.83569c-1.24367,-0.39315 -3.52252,-1.96791 -3.52252,-1.96791l1.08714,-3.71456c0,0 1.58105,2.01311 2.53744,2.92811c1.12712,1.07834 3.7976,3.13275 3.7976,3.13275c0,0 -2.66942,0.01051 -3.89966,-0.37839z" data-paper-data="{&quot;index&quot;:null}" stroke-width="0"/></g><path d="M212.71283,115.20173c-0.57709,-7.29323 0.335,-17.15448 0.335,-17.15448c0,0 3.41059,-0.04124 13.91429,-3.14424c8.0696,-2.38394 20.54731,-9.48722 20.54731,-9.48722c0,0 -2.16005,3.00503 -3.40781,4.46015c-1.32651,1.54696 -3.99292,4.56297 -3.99292,4.56297c0,0 7.838,-1.66761 14.67476,-4.72931c8.56837,-3.53575 10.59252,-6.05309 12.95042,-4.5927c2.7829,1.72362 1.03006,23.1827 0.71846,28.74062c-0.42163,5.66922 -2.53327,9.49969 -3.15031,12.52053c-0.61704,3.02084 -0.4096,6.13662 -2.20622,16.0397c-1.12121,6.18021 -4.16183,8.92466 -10.01942,14.66081c-5.85759,5.73616 -9.05378,9.25275 -13.01359,9.32173c-3.81077,0.06639 -8.93565,-5.1002 -13.93542,-10.38244c-5.32393,-5.62474 -8.87489,-8.47713 -9.71551,-15.13975c-0.75707,-6.00039 -0.77653,-9.90853 -1.12266,-15.24835c-0.25298,-3.90273 -2.26119,-6.44504 -2.57636,-10.42801z" fill="#000000" stroke="#000000" stroke-width="1.5"/><path d="M217.22329,114.72149c0.07093,-4.89188 4.83834,-8.93609 10.21137,-8.8582c5.37302,0.0779 9.02724,4.2484 8.95632,9.14029c-0.07093,4.89188 -4.12352,8.79439 -9.49655,8.7165c-5.37302,-0.0779 -9.74207,-4.1067 -9.67114,-8.99859z" fill="#ffffff" stroke="#000000" stroke-width="1.4"/><path d="M223.26079,114.75828c0.02958,-2.04053 1.70774,-3.67071 3.74825,-3.64112c2.04053,0.02958 3.67071,1.70774 3.64112,3.74825c-0.02958,2.04053 -1.70773,3.67071 -3.74825,3.64112c-2.04053,-0.02958 -3.67071,-1.70774 -3.64112,-3.74825z" fill="#000000" stroke="none" stroke-width="1.5"/><path d="M244.27957,114.72222c0.20353,-2.2215 5.23408,-5.35847 9.77048,-5.35847c4.5364,0 9.27453,3.13273 9.27453,5.35847c0,4.8924 -3.88585,7.32104 -9.69964,7.39188c-5.52997,0.06739 -9.55792,-2.28692 -9.34537,-7.39188z" fill="#ffffff" stroke="#000000" stroke-width="1.4"/><path d="M251.13232,116.43277c0,-2.19713 1.78112,-3.97825 3.97825,-3.97825c2.19713,0 3.97825,1.78112 3.97825,3.97825c0,2.19713 -1.78111,3.97825 -3.97825,3.97825c-2.19713,0 -3.97825,-1.78112 -3.97825,-3.97825z" fill="#8b8b8b" stroke="none" stroke-width="1.5"/><path d="M202.03043,304.39161c0,0 -1.63536,-94.38387 -1.79335,-118.01201c-0.05451,-8.15261 8.18688,-36.76129 40.20201,-36.9211c31.60235,-0.15775 39.85672,29.48704 39.84884,36.89673c-0.07659,46.24274 -0.34571,117.98648 -0.34571,117.98648l-10.49667,0.09614l0.84118,-114.84311c0,0 0.07549,-3.0993 -2.81625,-3.15415c-3.43441,-0.06514 -2.94538,3.11562 -2.94538,3.11562l0.20548,114.86995l-48.21366,0.07222l-0.30539,-115.23309c0,0 0.27949,-2.919 -2.8856,-2.93443c-3.11083,-0.01515 -2.81569,2.90899 -2.81569,2.90899l1.35311,115.0668z" fill="#000000" stroke="#000000" stroke-width="2"/></g></g></svg>