<svg version="1.1" xmlns="http://www.w3.org/2000/svg" xmlns:xlink="http://www.w3.org/1999/xlink" width="89.83461" height="261.71583" viewBox="0,0,89.83461,261.71583"><g transform="translate(-196.04279,-43.78406)"><g data-paper-data="{&quot;isPaintingLayer&quot;:true}" fill-rule="nonzero" stroke-linejoin="miter" stroke-miterlimit="10" stroke-dasharray="" stroke-dashoffset="0" style="mix-blend-mode: normal"><path d="M272.24541,123.69919l5.96978,-13.36138c0,0 -0.47197,11.28842 -0.37017,17.00857c0.11262,6.32805 2.79954,15.15197 2.79954,15.15197c0,0 -5.67971,-3.79233 -7.08402,-7.29369c-1.40431,-3.50136 -1.31514,-11.50547 -1.31514,-11.50547z" data-paper-data="{&quot;index&quot;:null}" fill="#000000" stroke="none" stroke-width="0" stroke-linecap="butt"/><path d="M207.82835,135.20465c-1.40431,3.50137 -7.08402,7.29369 -7.08402,7.29369c0,0 2.68693,-8.82392 2.79955,-15.15197c0.1018,-5.72015 -0.37017,-17.00857 -0.37017,-17.00857l5.96978,13.36138c0,0 0.08917,8.0041 -1.31513,11.50547z" data-paper-data="{&quot;index&quot;:null}" fill="#000000" stroke="none" stroke-width="0" stroke-linecap="butt"/><path d="M203.85645,123.53588c-1.7657,3.33376 -7.81365,6.50601 -7.81365,6.50601c0,0 3.60244,-8.49139 4.38173,-14.77228c0.70443,-5.67752 1.42545,-16.95277 1.42545,-16.95277l4.52753,13.9164c0,0 -0.75536,7.96888 -2.52106,11.30264z" data-paper-data="{&quot;index&quot;:null}" fill="#000000" stroke="none" stroke-width="0" stroke-linecap="butt"/><path d="M275.54269,113.23324l4.52753,-13.9164c0,0 0.72103,11.27525 1.42545,16.95277c0.77929,6.2809 4.38173,14.77228 4.38173,14.77228c0,0 -6.04795,-3.17225 -7.81365,-6.50601c-1.7657,-3.33376 -2.52106,-11.30264 -2.52106,-11.30264z" fill="#000000" stroke="none" stroke-width="0" stroke-linecap="butt"/><path d="M201.03053,304.39162c0,0 -0.63536,-94.38387 -0.79335,-118.01201c-0.05451,-8.15261 8.18688,-36.76129 40.20201,-36.9211c31.60235,-0.15775 39.85672,29.48704 39.84884,36.89673c-0.07659,46.24274 0.65429,117.98648 0.65429,117.98648l-10.49667,0.09614l-0.15882,-114.84311c0,0 0.07549,-3.0993 -2.81625,-3.15415c-3.43441,-0.06514 -2.94538,3.11562 -2.94538,3.11562l0.20548,114.86995l-48.21366,0.07222l-0.30539,-115.23309c0,0 0.27949,-2.919 -2.8856,-2.93443c-3.11083,-0.01515 -2.81569,2.90899 -2.81569,2.90899l0.35311,115.0668z" fill="#ffffff" stroke="#000000" stroke-width="2" stroke-linecap="butt"/><path d="M255.62777,200.33381c-0.57113,0 -1.03411,-0.46299 -1.03411,-1.03411c0,-0.57113 0.46299,-1.03413 1.03411,-1.03413c0.57113,0 1.03411,0.463 1.03411,1.03413c0,0.57113 -0.46299,1.03411 -1.03411,1.03411z" fill="#000000" stroke="none" stroke-width="1.5" stroke-linecap="butt"/><path d="M250.36784,204.56942c-4.4635,-0.31439 -6.55245,-1.79392 -6.16985,-2.58011c0.11788,-0.24224 2.84645,1.06355 6.97038,1.3048c6.40897,0.37493 8.51033,-0.63173 8.51033,-0.63173v1.34616c0,0 -2.4135,1.04672 -9.31086,0.56089z" fill="#000000" stroke="#000000" stroke-width="0" stroke-linecap="butt"/><path d="M222.55507,199.2997c0,-0.57113 0.46299,-1.03413 1.03411,-1.03413c0.57113,0 1.03413,0.463 1.03413,1.03413c0,0.57113 -0.463,1.03411 -1.03413,1.03411c-0.57113,0 -1.03411,-0.46299 -1.03411,-1.03411z" fill="#000000" stroke="none" stroke-width="1.5" stroke-linecap="butt"/><path d="M228.84912,204.56942c-6.89736,0.48585 -9.31086,-0.56089 -9.31086,-0.56089v-1.34616c0,0 2.10136,1.00666 8.51033,0.63173c4.12393,-0.24126 6.85251,-1.54704 6.97039,-1.3048c0.3826,0.78618 -1.70634,2.26571 -6.16985,2.58011z" fill="#000000" stroke="#000000" stroke-width="0" stroke-linecap="butt"/><path d="M240.12957,261.12113c-0.81895,0 -1.48284,-0.66389 -1.48284,-1.48284c0,-0.81895 0.66389,-1.48284 1.48284,-1.48284c0.81895,0 1.48284,0.66389 1.48284,1.48284c0,0.81895 -0.66389,1.48284 -1.48284,1.48284z" data-paper-data="{&quot;index&quot;:null}" fill="#000000" stroke="none" stroke-width="1.5" stroke-linecap="butt"/><path d="M215.39962,153.878l10.09434,-3.55178c0,0 -0.61793,29.10902 14.95458,29.03867c15.85358,-0.07162 14.20685,-29.03867 14.20685,-29.03867l11.21593,4.05178v151.02805h-50.4717z" fill="#b31212" stroke="none" stroke-width="2" stroke-linecap="butt"/><path d="M218.39962,269.86668c0,0 0.732,-15.24168 0.78152,-26.79614c0.03428,-7.99823 -0.33092,-22.78958 -0.38381,-38.09551c-0.08704,-25.18524 0.10229,-51.76369 0.10229,-51.76369l4.59434,-3.55178c0,0 -4.61793,33.44235 16.95458,33.03867c21.57251,-0.40368 18.20685,-33.03867 18.20685,-33.03867l4.71593,4.05178c0,0 -0.04093,26.88179 -0.34674,52.25564c-0.18752,15.55888 -0.68263,30.55077 -0.71659,38.43029c-0.04561,10.57989 0.56334,25.30274 0.56334,25.30274c0,0 -15.44558,-0.60878 -22.97689,-0.58056c-7.28436,0.0273 -21.49481,0.74722 -21.49481,0.74722z" fill="#8b8b8b" stroke="none" stroke-width="2" stroke-linecap="butt"/><path d="M202.21867,97.09253c0.33654,-2.27063 -0.16776,-40.17317 35.96775,-41.57382c29.74097,-0.60874 41.94178,27.3417 42.13973,46.64398c0.07927,7.72949 -2.24222,17.26476 -4.02241,27.61164c-4.1896,18.60647 -16.62773,28.45699 -36.24453,28.29088c-14.89689,-0.23339 -26.36654,-5.44417 -31.36916,-18.2279c-2.46238,-6.90768 -4.82503,-11.77095 -5.92261,-19.02069c-1.09758,-7.24974 -0.54876,-23.72409 -0.54876,-23.72409z" fill="#000000" stroke="none" stroke-width="1.5" stroke-linecap="butt"/><path d="M212.71293,115.20176c-0.57709,-7.29323 0.335,-17.15448 0.335,-17.15448c0,0 3.41059,-0.04124 13.91429,-3.14424c8.0696,-2.38394 20.54731,-9.48722 20.54731,-9.48722c0,0 -2.16005,3.00503 -3.40781,4.46015c-1.32651,1.54696 -3.99292,4.56297 -3.99292,4.56297c0,0 7.838,-1.66761 14.67476,-4.72931c8.56837,-3.53575 10.59252,-0.30309 12.95042,1.1573c2.7829,1.72362 1.03006,17.4327 0.71846,22.99062c-0.42163,5.66922 -2.53327,9.49969 -3.15031,12.52053c-0.61704,3.02084 -0.4096,6.13662 -2.20622,16.0397c-1.12121,6.18021 -4.16183,8.92466 -10.01942,14.66081c-5.85759,5.73616 -9.05378,9.25275 -13.01359,9.32173c-3.81077,0.06639 -8.93565,-5.1002 -13.93542,-10.38244c-5.32393,-5.62474 -8.87489,-8.47713 -9.71551,-15.13975c-0.75707,-6.00039 -0.77653,-9.90853 -1.12266,-15.24835c-0.25298,-3.90273 -2.26119,-6.44504 -2.57636,-10.42801z" fill="#ffffff" stroke="#000000" stroke-width="1.5" stroke-linecap="butt"/><path d="M248.01871,143.06892c0.5704,0.21186 3.08357,1.39942 6.02385,2.59586c2.9637,1.20597 7.21362,2.29294 7.19412,2.4605c-0.02476,0.21265 -10.43477,0.22694 -13.67937,0.63224c-2.71902,0.33964 -6.68867,0.70564 -6.68867,0.70564c0,0 -7.10401,-1.16169 -13.27235,-2.44521c-4.94371,-1.02869 -10.39929,-1.66108 -10.40995,-1.75461c-0.01439,-0.12613 3.86835,-0.71071 6.82417,-1.39467c1.14585,-0.49661 5.43971,-1.48513 5.43971,-1.48513c0,0 4.95585,-0.27766 7.60826,0.579c2.84203,0.91791 2.83546,2.44556 3.0831,2.46906c0,0 1.18436,-1.74932 2.36886,-2.10461c1.18451,-0.35528 5.08219,-0.41633 5.50828,-0.25808z" fill="#ffffff" stroke="#000000" stroke-width="1.4" stroke-linecap="butt"/><path d="M260.78283,102.58141c0,0 1.52429,0.31807 4.2558,1.11029c2.49492,0.72361 4.44935,1.74403 4.44935,1.74403l0.1951,1.17035c0,0 -7.24963,-3.12997 -15.1158,-2.4706c-6.2896,0.52724 -9.96319,2.8124 -9.96319,2.8124l0.04575,-4.17683c0,0 3.12748,-1.70421 7.86366,-1.85557c4.90428,-0.15672 8.09084,0.59125 8.09084,0.59125z" data-paper-data="{&quot;index&quot;:null}" fill="#000000" stroke="none" stroke-width="1.5" stroke-linecap="butt"/><path d="M240.34509,144.62885c-1.03376,0 -3.5381,-3.26042 -3.7867,-5.3637c-0.22243,-1.88186 1.31512,-3.82799 3.7867,-3.82799c2.47159,0 4.2021,0.49077 4.02999,4.18853c-0.14607,3.13818 -1.55841,5.00317 -4.02999,5.00317z" fill="#ffffff" stroke="#000000" stroke-width="1.15" stroke-linecap="butt"/><path d="M243.94718,114.73514c0,0 0.1026,3.96976 0.00576,7.12662c-0.19174,6.25113 -1.08147,27.7607 -1.08147,27.7607l-2.98167,0.00864c0,0 -0.80294,-4.17274 -1.12322,-9.49979c-0.43353,-7.21063 -0.4495,-16.29321 -0.76344,-19.63229c-0.29758,-3.16513 -0.89593,-5.71453 -0.89593,-5.71453" fill="#ffffff" stroke="#000000" stroke-width="1.3" stroke-linecap="round"/><path d="M214.41261,125.32498c0,0 -4.93211,-3.51705 -6.16417,-8.97502c-1.29636,-5.74284 -1.46118,-9.7328 0.48013,-9.99193c1.94131,-0.25915 2.70321,2.37692 3.73262,8.35569c1.0294,5.97877 1.95143,10.61127 1.95143,10.61127z" data-paper-data="{&quot;index&quot;:null}" fill="#ffffff" stroke="#000000" stroke-width="1" stroke-linecap="butt"/><path d="M214.20998,121.37742c0,0 -3.56385,-2.92338 -4.31816,-8.45061c-0.42079,-3.08327 2.15675,-2.28016 2.15675,-2.28016" fill="none" stroke="#000000" stroke-width="0.25" stroke-linecap="round"/><path d="M217.22341,114.72152c0.07093,-4.89188 4.83834,-8.93609 10.21137,-8.8582c5.37302,0.0779 9.02724,4.2484 8.95632,9.14029c-0.07093,4.89188 -4.12352,8.79439 -9.49655,8.7165c-5.37302,-0.0779 -9.74207,-4.1067 -9.67114,-8.99859z" fill="#ffffff" stroke="#000000" stroke-width="1.4" stroke-linecap="butt"/><path d="M221.64442,114.63054c0.04033,-2.78144 2.3278,-5.00352 5.10922,-4.9632c2.78145,0.04033 5.00352,2.3278 4.9632,5.10922c-0.04033,2.78144 -2.32779,5.00352 -5.10922,4.9632c-2.78145,-0.04033 -5.00352,-2.3278 -4.9632,-5.10922z" fill="#000000" stroke="none" stroke-width="1.5" stroke-linecap="butt"/><path d="M244.27973,114.72226c0.20353,-4.88817 4.45264,-8.85847 9.77048,-8.85847c5.31783,0 9.27453,3.96607 9.27453,8.85847c0,4.8924 -3.88585,9.07104 -9.69964,9.14188c-5.52997,0.06739 -9.55792,-4.03692 -9.34537,-9.14188z" fill="#ffffff" stroke="#000000" stroke-width="1.4" stroke-linecap="butt"/><path d="M248.64909,114.97327c0,-2.79543 2.26615,-5.06159 5.06159,-5.06159c2.79543,0 5.06159,2.26615 5.06159,5.06159c0,2.79543 -2.26614,5.06159 -5.06159,5.06159c-2.79543,0 -5.06159,-2.26615 -5.06159,-5.06159z" fill="#000000" stroke="none" stroke-width="1.5" stroke-linecap="butt"/><path d="M217.155,114.18934c0,0 0.06357,-9.01512 10.60111,-8.8249c9.47101,0.16586 9.55554,9.40723 9.55554,9.40723z" fill="#ffffff" stroke="#000000" stroke-width="1.15" stroke-linecap="butt"/><path d="M243.90204,114.32024c0,0 -0.24686,-9.4582 11.19813,-9.1032c9.71427,0.33347 9.54677,9.65229 9.54677,9.65229z" fill="#ffffff" stroke="#000000" stroke-width="1.15" stroke-linecap="butt"/><path d="M220.68481,104.17768c0,0 3.36963,-1.819 8.03244,-2.28178c5.16698,-0.51283 7.76823,-0.06628 7.76823,-0.06628l0.29508,4.13747c0,0 -3.83554,-0.68065 -8.01795,-0.52113c-5.59346,0.21333 -6.64488,1.43293 -10.89774,1.89119c-3.64408,0.39266 -6.73723,0.15884 -6.73723,0.15884l-0.02589,-1.23155c0,0 3.59517,0.07398 5.23371,-0.06836c1.35239,-0.11749 3.9757,-0.93808 3.9757,-0.93808z" fill="#000000" stroke="none" stroke-width="1.5" stroke-linecap="butt"/><path d="M268.64567,114.71371c1.0294,-5.97877 1.7913,-8.61483 3.73262,-8.35569c1.94131,0.25914 1.77649,4.24909 0.48013,9.99193c-1.23206,5.45797 -6.16417,8.97502 -6.16417,8.97502c0,0 0.92203,-4.6325 1.95143,-10.61127z" data-paper-data="{&quot;index&quot;:null}" fill="#ffffff" stroke="#000000" stroke-width="1" stroke-linecap="butt"/><path d="M269.05818,110.64665c0,0 2.57754,-0.80312 2.15675,2.28016c-0.75431,5.52723 -4.31816,8.45061 -4.31816,8.45061" data-paper-data="{&quot;index&quot;:null}" fill="none" stroke="#000000" stroke-width="0.25" stroke-linecap="round"/><path d="M196.84885,282.39685c0,0 -1.76537,-95.85187 1,-106.56666c3.61868,-14.02102 18,-22 18,-22v132c0,0 -6.30787,0.01704 -10.13029,-0.67368c-3.82243,-0.69072 -8.86971,-2.75965 -8.86971,-2.75965z" fill="#990f0f" stroke="none" stroke-width="2" stroke-linecap="butt"/><path d="M265.62691,284.49688v-130c0,0 14.38132,7.97898 18,22c3.61868,14.02102 1,105.5 1,105.5c0,0 -5.51484,1.64715 -9.08228,1.92879c-3.56743,0.28164 -9.91772,0.57121 -9.91772,0.57121z" data-paper-data="{&quot;index&quot;:null}" fill="#990f0f" stroke="none" stroke-width="2" stroke-linecap="butt"/><path d="M213.6745,93.27454c0,0 19.44077,-10.14593 28.7538,-10.45532c11.72685,-0.38958 27.2462,7.28032 27.2462,7.28032c0,0 -0.03213,8.16603 -0.28816,12.09507c-0.24332,3.73394 -0.70434,9.96886 -1.21184,13.17369c-0.5075,3.20483 -2.14625,8.03251 -2.14625,8.03251c0,0 0.49154,-9.85527 -0.69162,-11.00804c-1.75108,-1.7061 -4.77641,-3.51825 -6.33436,-4.44759c-0.56437,-0.33666 -1.69567,0.25666 -2.16666,1.09826c-0.72229,1.29064 -0.66414,3.16521 -0.66414,3.16521c0,0 -2.8031,-1.48353 -4.82127,-2.92658c-2.12655,-1.52055 -3.4919,-2.99616 -4.23822,-2.64388c-5.03228,2.37532 -8.29463,8.82357 -8.29463,8.82357c0,0 0.63586,-6.7518 -3.65776,-9.00545c-0.69664,-0.36566 -1.9076,1.27958 -4.0297,3.1005c-0.87853,0.75385 -2.88441,1.38661 -3.79621,2.07046c-1.50297,1.12723 -1.75031,2.13364 -1.75031,2.13364c0,0 -0.81008,-1.18061 -1.07625,-2.47772c-0.17628,-0.85906 0.36719,-1.76922 -0.18854,-2.42135c-0.74884,-0.87874 -3.0557,-0.85853 -3.54746,-0.57972c-1.34853,0.76457 -3.52907,2.49248 -5.00903,4.21713c-2.80912,3.27356 -0.96465,10.8242 -0.96465,10.8242c0,0 -1.87767,-3.581 -2.41983,-8.15593c-0.56353,-4.75526 0.20861,-10.53075 0.26349,-11.59066c0.17185,-3.31929 1.03339,-10.30232 1.03339,-10.30232z" fill="#000000" stroke="#e10000" stroke-width="0" stroke-linecap="round"/><path d="M229.37072,147.6225c5.09114,1.02674 11.91756,2.80736 11.91756,2.80736c0,0 5.78976,-1.55585 8.44678,-1.8344c2.05992,-0.21596 11.216,-0.70654 11.26026,-0.33377c0.04328,0.36447 -9.03119,12.90033 -21.14808,12.44714c-13.76954,-0.43578 -22.86459,-15.13559 -22.82675,-15.30472c0.03784,-0.16913 7.2591,1.19165 12.35024,2.2184z" fill="#ffffff" stroke="#000000" stroke-width="1.9" stroke-linecap="butt"/><path d="M236.53859,144.61197c-0.00091,-0.08477 0.03739,-0.15391 0.08555,-0.15443c0.04817,-0.00052 0.08795,0.06778 0.08887,0.15255c0.00091,0.08477 -0.03738,0.15391 -0.08555,0.15443c-0.04817,0.00052 -0.08796,-0.06778 -0.08887,-0.15255z" fill="#990f0f" stroke="none" stroke-width="0.5" stroke-linecap="butt"/><path d="M272.65864,220.51201c0.07491,0.11299 0.12662,0.24015 0.16192,0.37341l0.06374,-0.02124l0.08907,0.26719c0.0095,0.02642 0.01468,0.0549 0.01468,0.08459c0,0.13807 -0.11193,0.25 -0.25,0.25c-0.05253,0 -0.10128,-0.0162 -0.14152,-0.04388l-0.26988,-0.17992l0.00456,-0.00684l-0.02438,-0.00783c-0.15503,-0.16011 -0.27683,-0.3588 -0.3514,-0.56883c0,0 -0.06843,-0.2053 0.11304,-0.29755c0.04358,-0.0733 0.12358,-0.12241 0.21504,-0.12241c0.06903,0 0.13153,0.02799 0.17677,0.07323l0.18182,0.18182l-0.00721,0.00721z" fill="#740c0c" stroke="none" stroke-width="0.5" stroke-linecap="butt"/><path d="M273.39707,222.85231c0,-0.13807 0.11193,-0.25 0.25,-0.25c0.13807,0 0.25,0.11193 0.25,0.25c0,0.13807 -0.11193,0.25 -0.25,0.25c-0.13807,0 -0.25,-0.11193 -0.25,-0.25z" fill="#740c0c" stroke="none" stroke-width="0.5" stroke-linecap="butt"/><path d="M268.75658,279.5295c0,-0.13807 0.11193,-0.25 0.25,-0.25c0.13807,0 0.25,0.11193 0.25,0.25c0,0.13807 -0.11193,0.25 -0.25,0.25c-0.13807,0 -0.25,-0.11193 -0.25,-0.25z" fill="#740c0c" stroke="none" stroke-width="0.5" stroke-linecap="butt"/><path d="M272.39279,262.14295c0,-0.13807 0.11193,-0.25 0.25,-0.25c0.13807,0 0.25,0.11193 0.25,0.25c0,0.13807 -0.11193,0.25 -0.25,0.25c-0.13807,0 -0.25,-0.11193 -0.25,-0.25z" fill="#740c0c" stroke="none" stroke-width="0.5" stroke-linecap="butt"/><path d="M218.39962,269.86668c0,0 0.732,-15.24168 0.78152,-26.79614c0.03428,-7.99823 -0.38381,-38.09551 -0.38381,-38.09551c0,0 7.38882,24.17734 21.65121,24.2232c14.712,0.04731 22.57603,-23.23125 22.57603,-23.23125c0,0 -0.68263,30.55077 -0.71659,38.43029c-0.04561,10.57989 0.56334,25.30274 0.56334,25.30274c0,0 -15.44558,-0.60878 -22.97689,-0.58056c-7.28436,0.0273 -21.49481,0.74722 -21.49481,0.74722z" fill="#666666" stroke="none" stroke-width="2" stroke-linecap="butt"/><g stroke="none" stroke-width="0" stroke-linecap="butt"><g><path d="M204.7977,80.09379c0,0 -7.66317,-19.3788 0.01965,-25.49999c11.99733,-9.55871 23.17457,-2.25094 38.38,-1.6668c14.59268,0.56058 31.06778,-7.73837 35.55048,6.45567c3.16028,10.00678 -3.22185,20.64671 -3.22185,20.64671c0,0 -19.14052,-0.92533 -32.85527,-0.91284c-13.71474,0.01249 -37.873,0.97725 -37.873,0.97725z" fill="#b31212"/><path d="M204.65504,80.33621c0,0 10.38385,-3.43504 24.08233,-3.87336c15.4267,-0.49361 23.02071,1.89673 36.57688,-4.89946c13.55617,-6.79619 10.31126,-17.27388 10.31126,-17.27388c0,0 2.07849,2.48207 2.97966,5.33557c3.16028,10.00678 -3.22184,20.64671 -3.22184,20.64671c0,0 -21.99001,-1.31539 -32.87902,-1.30547c-12.47164,0.01136 -37.84925,1.36988 -37.84925,1.36988z" fill="#990f0f"/></g><path d="M246.94951,54.95051c-0.0349,0.724 -1.48619,1.23937 -3.24155,1.15111c-1.75535,-0.08826 -3.15006,-0.74672 -3.11516,-1.47071c0.0349,-0.724 1.644,-0.59248 3.39937,-0.50422c1.75535,0.08826 2.99224,0.09983 2.95734,0.82382z" fill="#990f0f"/><path d="M242.09069,55.14975c0,0 3.27927,-5.37685 5.07839,-7.4306c1.43824,-1.64182 4.87803,-3.93509 4.87803,-3.93509l2.22222,2.93509c0,0 -4.10158,1.12377 -5.84175,2.6492c-1.8794,1.64749 -4.96031,5.93136 -4.96031,5.93136z" fill="#740c0c"/></g></g></g></svg>