<svg version="1.1" xmlns="http://www.w3.org/2000/svg" xmlns:xlink="http://www.w3.org/1999/xlink" width="159.85898" height="336.63011" viewBox="0,0,159.85898,336.63011"><defs><linearGradient x1="152.00231" y1="49.64528" x2="201.739" y2="62.91066" gradientUnits="userSpaceOnUse" id="color-1"><stop offset="0" stop-color="#e61717" stop-opacity="0"/><stop offset="1" stop-color="#e61717"/></linearGradient></defs><g transform="translate(-131.611,-13.39395)"><g data-paper-data="{&quot;isPaintingLayer&quot;:true}" fill-rule="nonzero" stroke-linejoin="miter" stroke-miterlimit="10" stroke-dasharray="" stroke-dashoffset="0" style="mix-blend-mode: normal"><path d="M201.03047,304.39161c0,0 -0.63536,-94.38387 -0.79335,-118.01201c-0.05451,-8.15261 8.18688,-36.76129 40.20201,-36.9211c31.60235,-0.15775 39.85672,29.48704 39.84884,36.89673c-0.07659,46.24274 0.65429,117.98648 0.65429,117.98648l-10.49667,0.09614l-0.15882,-114.84311c0,0 0.07549,-3.0993 -2.81625,-3.15415c-3.43441,-0.06514 -2.94538,3.11562 -2.94538,3.11562l0.20548,114.86995l-48.21366,0.07222l-0.30539,-115.23309c0,0 0.27949,-2.919 -2.8856,-2.93443c-3.11083,-0.01515 -2.81569,2.90899 -2.81569,2.90899l0.35311,115.0668z" fill="#ffffff" stroke="#000000" stroke-width="2" stroke-linecap="butt"/><path d="M265.96997,305.79953v-148.83444c0,0 15.09892,10.05908 17.83334,21.26206c0.67775,2.77675 0.76163,16.54097 1.90761,34.08065c0.47839,7.32202 1.09327,15.302 1.7305,23.41525c0.13729,1.74799 0.60895,4.1666 0.74718,5.9217c0.1769,2.2462 0.02031,3.82951 0.19448,6.06779c0.83997,10.79458 1.62036,21.36914 2.07282,30.48995c0.80763,16.28062 1.01408,27.92927 1.01408,27.92927z" data-paper-data="{&quot;index&quot;:null}" fill="#0b0b0b" stroke="#000000" stroke-width="0" stroke-linecap="butt"/><path d="M279.22409,188.59248l5.57059,12.90651c0,0 0.28123,3.70286 0.42318,5.57183c0.14375,1.89264 0.43397,5.71388 0.43397,5.71388c0,0 -1.58881,-2.81027 -3.12442,-5.8664c-0.65433,-1.30223 -0.888,-3.23242 -1.50895,-4.67843c-0.64641,-1.50532 -1.67665,-2.52181 -2.17802,-3.61893c-0.50487,-1.10476 -1.91035,-5.40197 -1.91035,-5.40197c0,0 -1.3702,-2.03337 -1.92989,-3.40145c-1.08165,-2.64395 -1.63408,-5.46139 -1.63408,-5.46139z" fill="#020202" stroke="#000000" stroke-width="0" stroke-linecap="round"/><path d="M190.63669,306.13175c0,0 0.20645,-11.72674 1.01408,-28.1165c0.45245,-9.18196 1.23284,-19.8274 2.07282,-30.69435c0.17417,-2.2533 0.01757,-3.84721 0.19447,-6.10847c0.13823,-1.76689 0.60988,-4.2017 0.74717,-5.9614c0.63724,-8.16763 1.25211,-16.2011 1.7305,-23.57221c1.14597,-17.65727 1.22987,-31.51376 1.90761,-34.30912c2.73442,-11.27807 17.83334,-21.4046 17.83334,-21.4046v149.83222z" fill="#0b0b0b" stroke="#000000" stroke-width="0" stroke-linecap="butt"/><path d="M255.62765,200.33381c-0.57113,0 -1.03411,-0.46299 -1.03411,-1.03411c0,-0.57113 0.46299,-1.03413 1.03411,-1.03413c0.57113,0 1.03411,0.463 1.03411,1.03413c0,0.57113 -0.46299,1.03411 -1.03411,1.03411z" fill="#000000" stroke="none" stroke-width="1.5" stroke-linecap="butt"/><path d="M250.36778,204.5694c-4.4635,-0.31439 -6.55245,-1.79392 -6.16985,-2.58011c0.11788,-0.24224 2.84645,1.06355 6.97038,1.3048c6.40897,0.37493 8.51033,-0.63173 8.51033,-0.63173v1.34616c0,0 -2.4135,1.04672 -9.31086,0.56089z" fill="#000000" stroke="#000000" stroke-width="0" stroke-linecap="butt"/><path d="M222.55501,199.2997c0,-0.57113 0.46299,-1.03413 1.03411,-1.03413c0.57113,0 1.03413,0.463 1.03413,1.03413c0,0.57113 -0.463,1.03411 -1.03413,1.03411c-0.57113,0 -1.03411,-0.46299 -1.03411,-1.03411z" fill="#000000" stroke="none" stroke-width="1.5" stroke-linecap="butt"/><path d="M228.84903,204.5694c-6.89736,0.48585 -9.31086,-0.56089 -9.31086,-0.56089v-1.34616c0,0 2.10136,1.00666 8.51033,0.63173c4.12393,-0.24126 6.85251,-1.54704 6.97039,-1.3048c0.3826,0.78618 -1.70634,2.26571 -6.16985,2.58011z" fill="#000000" stroke="#000000" stroke-width="0" stroke-linecap="butt"/><path d="M240.12949,261.12113c-0.81895,0 -1.48284,-0.66389 -1.48284,-1.48284c0,-0.81895 0.66389,-1.48284 1.48284,-1.48284c0.81895,0 1.48284,0.66389 1.48284,1.48284c0,0.81895 -0.66389,1.48284 -1.48284,1.48284z" data-paper-data="{&quot;index&quot;:null}" fill="#000000" stroke="none" stroke-width="1.5" stroke-linecap="butt"/><path d="M215.0662,305.40603c0,0 -0.18882,-20.42906 -0.17338,-43.91303c0.0146,-22.21549 0.24702,-47.16479 -0.20103,-60.13981c-0.63971,-18.52544 -4.62559,-40.74187 -4.62559,-40.74187c0,0 8.67319,-6.6863 10.6557,-8.0814c1.98251,-1.3951 5.17197,-2.20371 5.17197,-2.20371c0,0 -2.51018,6.15609 -0.2558,11.7817c1.90364,4.75038 7.87419,9.12251 14.81533,9.09031c7.27033,-0.03374 11.76036,-4.66666 13.4183,-9.55853c1.86183,-5.49346 0.41324,-11.31348 0.41324,-11.31348c0,0 3.91276,0.91959 6.16585,2.34655c2.25309,1.42695 11.75379,9.2719 11.75379,9.2719c0,0 -4.83971,22.22925 -5.53647,38.8889c-0.54629,13.0621 -0.08921,38.70914 0.1762,61.33397c0.27227,23.20947 0.36027,43.23851 0.36027,43.23851z" fill="#740c0c" stroke="#000000" stroke-width="0" stroke-linecap="butt"/><path d="M239.76714,169.2356c-16.0505,0.49992 -26.13333,-18.96667 -26.13333,-18.96667c0,0 13.4914,-3.67316 26.39721,-3.63129c12.3145,0.03995 25.70279,4.03129 25.70279,4.03129c0,0 -9.10852,18.0416 -25.96667,18.56667z" fill="#740c0c" stroke="#000000" stroke-width="0" stroke-linecap="round"/><path d="M203.03188,94.82033c0.42523,-2.2557 1.4061,-40.14891 37.56874,-40.13292c44.63786,0.83565 40.05565,41.17457 39.84625,43.78483c-0.24703,3.07943 -0.71783,15.7645 -2.35834,27.23793c-0.19765,1.38235 0.65326,4.2123 0.3741,5.52481c-1.93251,9.4125 -7.64234,15.93829 -7.64234,15.93829l-1.06238,-2.3908c0,0 -1.10798,2.15619 -2.28895,3.24556c-1.18098,1.08936 -3.55019,2.77579 -3.55019,2.77579l0.05313,-3.70497c0,0 -7.48629,10.73292 -24.75785,9.90929c-16.28373,-0.89405 -25.63331,-11.68832 -25.63331,-11.68832l-0.22011,2.64825c0,0 -3.76279,-3.4428 -5.79643,-9.94224c-2.42385,-7.74657 -2.75736,-12.36074 -2.75736,-12.36074c0,0 -2.41168,1.80607 -5.82134,2.54831c-4.27249,0.93007 -6.95484,0.07287 -6.95484,0.07287c0,0 3.71162,-2.57375 5.76653,-4.54748c1.83034,-1.75805 2.77685,-3.27095 2.77685,-3.27095c0,0 -2.14845,1.00131 -4.2929,1.4509c-2.23748,0.46911 -4.04779,0.37265 -4.04779,0.37265c0,0 5.16843,-4.83853 7.45133,-10.59052c2.15542,-5.43081 2.52735,-10.86665 2.52735,-10.86665z" fill="#000000" stroke="none" stroke-width="1.5" stroke-linecap="butt"/><path d="M212.80869,113.32676c-0.29094,-7.31024 1.00675,-17.12819 1.00675,-17.12819c0,0 3.40959,0.0924 14.02678,-2.59675c8.15679,-2.06599 20.90319,-8.67502 20.90319,-8.67502c0,0 -2.27611,2.91811 -3.57991,4.32323c-1.38609,1.49381 -4.1686,4.40305 -4.1686,4.40305c0,0 7.89731,-1.35929 14.84876,-4.15082c8.7003,-3.19738 10.82151,-5.6335 13.12039,-4.08186c2.71324,1.83131 0.12112,23.20526 -0.40797,28.7467c-0.64339,5.64835 -2.90346,9.39316 -3.63837,12.38751c-0.7349,2.99435 -0.64968,6.11586 -2.83286,15.94096c-1.36245,6.13154 -4.50825,8.75478 -10.58605,14.25706c-6.0778,5.50229 -9.40929,8.89098 -13.36877,8.80479c-3.81045,-0.08294 -8.729,-5.44633 -13.51801,-10.92037c-5.0995,-5.82898 -8.536,-8.81828 -9.11497,-15.50872c-0.52143,-6.02544 -0.38778,-9.93134 -0.52446,-15.28062c-0.0999,-3.90964 -2.00698,-6.52867 -2.16588,-10.52093z" fill="#ffffff" stroke="#000000" stroke-width="1.5" stroke-linecap="butt"/><path d="M261.37586,103.29992c0,0 1.48805,0.45864 4.1339,1.5018c2.41669,0.95281 4.26759,2.15082 4.26759,2.15082l0.08526,1.18343c0,0 -6.92663,-3.79152 -14.82002,-3.86759c-6.31136,-0.0608 -10.18181,1.87231 -10.18181,1.87231l0.43454,-4.15442c0,0 3.2726,-1.40554 8.0023,-1.11517c4.89756,0.3007 8.00061,1.34217 8.00061,1.34217z" data-paper-data="{&quot;index&quot;:null}" fill="#000000" stroke="none" stroke-width="1.5" stroke-linecap="butt"/><path d="M246.9958,142.55562c0.56166,0.23404 3.02638,1.51914 5.91754,2.82984c2.91418,1.32114 7.11826,2.57376 7.09221,2.74043c-0.03307,0.21152 -10.43565,-0.182 -13.69364,0.09588c-2.73024,0.23287 -6.71118,0.44308 -6.71118,0.44308c0,0 -7.05305,-1.43909 -13.16637,-2.96326c-4.89962,-1.22156 -10.32624,-2.06718 -10.33323,-2.16106c-0.00944,-0.1266 3.89322,-0.55863 6.87357,-1.12627c1.16442,-0.45134 5.49371,-1.2709 5.49371,-1.2709c0,0 4.96292,-0.08331 7.57974,0.8766c2.80389,1.02854 2.73748,2.55476 2.98401,2.58794c0,0 1.25198,-1.70158 2.44949,-2.0102c1.19752,-0.30861 5.0946,-0.21692 5.51416,-0.0421z" fill="#ffffff" stroke="#000000" stroke-width="1.4" stroke-linecap="butt"/><path d="M228.18376,146.37517c5.04701,1.22539 11.79844,3.27206 11.79844,3.27206c0,0 5.84626,-1.32785 8.51216,-1.5021c2.0668,-0.1351 11.23507,-0.26663 11.26469,0.10759c0.02897,0.36589 -9.52961,12.53664 -21.61945,11.60914c-13.7419,-0.97485 -22.25412,-16.01966 -22.20969,-16.18718c0.04444,-0.16752 7.20685,1.4751 12.25386,2.7005z" fill="#ffffff" stroke="#000000" stroke-width="1.9" stroke-linecap="butt"/><path d="M239.26688,143.81372c-1.03297,-0.0405 -3.40766,-3.39652 -3.57368,-5.50792c-0.14854,-1.88913 1.46407,-3.77353 3.93375,-3.67671c2.46969,0.09682 4.17965,0.655 3.86282,4.34318c-0.26889,3.13005 -1.75321,4.93828 -4.22289,4.84146z" fill="#ffffff" stroke="#000000" stroke-width="1.15" stroke-linecap="butt"/><path d="M244.04508,113.88421c0,0 -0.05299,3.97073 -0.27342,7.12138c-0.43647,6.23882 -2.16813,27.69703 -2.16813,27.69703l-2.97972,-0.10817c0,0 -0.63886,-4.20099 -0.75022,-9.5365c-0.15073,-7.22208 0.18911,-16.29831 0.00621,-19.64713c-0.17336,-3.17436 -0.67138,-5.74524 -0.67138,-5.74524" fill="#ffffff" stroke="#000000" stroke-width="1.3" stroke-linecap="round"/><path d="M214.1105,123.50879c0,0 -4.79055,-3.70756 -5.80785,-9.2096c-1.0704,-5.78922 -1.07879,-9.78257 0.87118,-9.96545c1.94997,-0.1829 2.60802,2.48099 3.40243,8.4955c0.7944,6.01451 1.53425,10.67957 1.53425,10.67957z" data-paper-data="{&quot;index&quot;:null}" fill="#ffffff" stroke="#000000" stroke-width="1" stroke-linecap="butt"/><path d="M214.06267,119.55632c0,0 -3.4466,-3.06075 -3.9838,-8.61328c-0.29968,-3.09739 2.24442,-2.19392 2.24442,-2.19392" fill="none" stroke="#000000" stroke-width="0.25" stroke-linecap="round"/><path d="M217.33451,113.02357c0.26251,-4.88535 5.18469,-8.7397 10.55054,-8.45138c5.36584,0.28832 8.85389,4.59877 8.59139,9.48413c-0.26251,4.88535 -4.46486,8.62611 -9.83072,8.33779c-5.36584,-0.28832 -9.57372,-4.48518 -9.31121,-9.37054z" fill="#ffffff" stroke="#000000" stroke-width="1.4" stroke-linecap="butt"/><path d="M220.48405,111.93072c0.14802,-2.75475 2.50116,-4.86789 5.25589,-4.71987c2.75475,0.14802 4.86789,2.50116 4.71987,5.25589c-0.14802,2.75475 -2.50115,4.86789 -5.25589,4.71987c-2.75475,-0.14802 -4.86789,-2.50116 -4.71987,-5.25589z" fill="#000000" stroke="none" stroke-width="1.5" stroke-linecap="butt"/><path d="M244.37001,114.0842c0.39486,-4.87644 4.79624,-8.67724 10.11,-8.46893c5.31375,0.20832 9.11205,4.32634 8.92039,9.21499c-0.19165,4.88864 -4.23821,8.91185 -10.05032,8.75489c-5.52837,-0.14929 -9.39244,-4.40824 -8.98008,-9.50096z" fill="#ffffff" stroke="#000000" stroke-width="1.4" stroke-linecap="butt"/><path d="M249.07555,111.55213c0.11041,-2.81629 2.48296,-5.00983 5.29925,-4.89942c2.81629,0.11041 5.00983,2.48296 4.89942,5.29925c-0.11041,2.81629 -2.48295,5.00983 -5.29925,4.89942c-2.81629,-0.11041 -5.00983,-2.48296 -4.89942,-5.29925z" fill="#000000" stroke="none" stroke-width="1.5" stroke-linecap="butt"/><path d="M217.28699,112.48912c0,0 0.41668,-9.00571 10.93868,-8.40284c9.45724,0.53675 9.17969,9.77433 9.17969,9.77433c0,0 -4.16467,-2.10871 -9.85952,-2.27844c-5.89337,-0.17565 -10.25884,0.90695 -10.25884,0.90695z" fill="#ffffff" stroke="#000000" stroke-width="1.15" stroke-linecap="butt"/><path d="M261.72745,138.91547c0,0 -5.2086,3.05933 -6.9624,3.15825c-0.58552,0.03303 -2.20829,-1.34497 -4.05249,-3.08351c-0.667,-0.62878 -1.39094,-0.59098 -2.07727,-1.26438c-0.55201,-0.54161 -1.0698,-1.79532 -1.58928,-2.30778c-1.91918,-1.89333 -3.38321,-3.71578 -3.38321,-3.71578l0.42573,-9.17394l-1.09966,0.18694l-0.69344,8.42627l-3.66636,-0.80416c0,0 0.09346,-4.72239 -0.15555,-9.72468c-0.18191,-3.65434 -0.5798,-7.45935 -0.83575,-9.66236c-0.24733,-2.12881 -2.02005,-7.21966 -5.46929,-11.09824c-1.12238,-1.26209 -2.64106,-2.05613 -3.97483,-2.92245c-1.69541,-1.10121 -3.11316,-1.78104 -3.11316,-1.78104c0,0 4.39621,-1.2425 6.16533,-1.73843c1.76913,-0.49593 4.80984,-1.66759 4.80984,-1.66759l13.93091,36.07341l13.9337,-2.28925c0,0 -0.9161,7.64013 -1.31705,10.08818c-0.22993,1.40393 -0.87579,3.30054 -0.87579,3.30054z" fill="#d7d7d7" stroke="#000000" stroke-width="0" stroke-linecap="round"/><path d="M244.00839,113.6677c0,0 0.12384,-9.46061 11.54614,-8.65754c9.69375,0.71376 9.16133,10.01886 9.16133,10.01886z" fill="#ffffff" stroke="#000000" stroke-width="1.15" stroke-linecap="butt"/><path d="M221.2716,100.95803c0,0 3.4383,-1.6856 8.11566,-1.96537c5.1831,-0.31003 7.76486,0.23808 7.76486,0.23808l0.13277,4.14585c0,0 -3.80593,-0.83038 -7.99138,-0.83482c-5.59752,-0.00595 -6.69591,1.17153 -10.96346,1.46283c-3.65666,0.24961 -6.73828,-0.1052 -6.73828,-0.1052l0.02237,-1.23162c0,0 3.58951,0.21476 5.23237,0.13672c1.35595,-0.06442 4.0094,-0.78162 4.0094,-0.78162z" fill="#000000" stroke="none" stroke-width="1.5" stroke-linecap="butt"/><path d="M268.71766,115.03018c1.26282,-5.93386 2.1274,-8.53805 4.05708,-8.20306c1.92967,0.33499 1.60867,4.31542 0.08834,10.00307c-1.44492,5.40552 -6.51102,8.72666 -6.51102,8.72666c0,0 1.10279,-4.59282 2.36561,-10.52668z" data-paper-data="{&quot;index&quot;:null}" fill="#ffffff" stroke="#000000" stroke-width="1" stroke-linecap="butt"/><path d="M269.28919,110.9824c0,0 2.60702,-0.70153 2.06577,2.3629c-0.97025,5.49344 -4.64589,8.27497 -4.64589,8.27497" data-paper-data="{&quot;index&quot;:null}" fill="none" stroke="#000000" stroke-width="0.25" stroke-linecap="round"/><path d="M202.88496,332.20644v-15.30586h15.19421v15.30586z" fill="#da1616" stroke="none" stroke-width="0" stroke-linecap="butt"/><path d="M217.97742,332.20644v-15.30586h15.19421v15.30586z" fill="#c01313" stroke="none" stroke-width="0" stroke-linecap="butt"/><path d="M233.0699,332.20644v-15.30586h15.19422v15.30586z" fill="#b31212" stroke="none" stroke-width="0" stroke-linecap="butt"/><path d="M248.1624,332.20644v-15.30586h15.19421v15.30586z" fill="#990f0f" stroke="none" stroke-width="0" stroke-linecap="butt"/><path d="M263.14054,332.20644v-15.30586h15.19421v15.30586z" fill="#740c0c" stroke="none" stroke-width="0" stroke-linecap="butt"/><path d="M203.20889,350.02406v-15.30586h15.19421v15.30586z" fill="#8b8b8b" stroke="none" stroke-width="0" stroke-linecap="butt"/><path d="M218.30137,350.02406v-15.30586h15.19421v15.30586z" fill="#666666" stroke="none" stroke-width="0" stroke-linecap="butt"/><path d="M233.39386,350.02406v-15.30586h15.19422v15.30586z" fill="#4b4b4b" stroke="none" stroke-width="0" stroke-linecap="butt"/><path d="M248.48636,350.02406v-15.30586h15.19421v15.30586z" fill="#2b2b2b" stroke="none" stroke-width="0" stroke-linecap="butt"/><path d="M263.44543,350.02406v-15.30586h15.19421v15.30586z" fill="#0c0c0c" stroke="none" stroke-width="0" stroke-linecap="butt"/><path d="M226.74113,116.79204c7.28796,0.34112 9.84174,-2.37342 9.84174,-2.37342c0,0 -0.61484,8.42007 -10.07739,8.01862c-9.46256,-0.40145 -9.28721,-8.195 -9.28721,-8.195c0,0 2.2349,2.20868 9.52286,2.5498z" data-paper-data="{&quot;index&quot;:null}" fill="#ffffff" stroke="#000000" stroke-width="1.15" stroke-linecap="butt"/><path d="M245.62123,52.31276c0,0 5.72377,0.94569 9.32366,1.85781c2.23786,0.56702 6.02619,2.3857 9.55148,3.39116c4.318,1.23156 8.22666,1.61798 8.22666,1.61798c0,0 2.87325,3.36762 4.43621,5.05787c1.56486,1.6923 4.94723,5.08979 4.94723,5.08979c0,0 0.29322,2.3336 1.63651,6.36159c0.53553,1.60586 0.83713,3.26651 1.33193,4.79773c0.49911,1.54455 1.19043,2.95725 1.49996,4.0094c1.01831,3.46136 2.14021,9.23662 2.14021,9.23662c0,0 -0.59529,1.93479 -1.07058,4.39414c-0.59981,3.10372 -1.15656,7.03708 -1.73634,8.90671c-0.9937,3.20437 -2.76893,5.65552 -2.76893,5.65552c0,0 -0.08288,3.09747 -0.46209,5.67811c-0.31456,2.14065 -1.43076,4.41868 -1.72,5.69664c-0.42223,1.86558 -1.82331,5.16624 -1.82331,5.16624c0,0 -0.98358,-0.46797 -1.62407,-0.44935c-1.00189,0.02913 -1.92714,0.5608 -2.7883,0.65695c-1.34975,0.15069 -3.8589,0.17322 -3.8589,0.17322l-2.80473,0.75959l-1.29174,-1.45904l-0.99128,-1.24236l0.38128,1.52764c0,0 -0.30478,1.23081 -0.32878,1.39545c-0.40295,2.76499 -2.67359,2.35551 -5.24933,3.72152c-2.73567,1.45082 -5.88589,3.58676 -5.88589,3.58676c0,0 -0.64871,-2.89894 -3.17159,-4.19674c-1.72134,-0.88548 -3.76595,-3.73749 -4.90562,-4.33958c-2.32776,-1.22975 -6.13423,-3.36286 -6.13423,-3.36286l-0.9471,-17.43854l-6.12307,-19.19988c0,0 -0.1352,-3.31138 -1.53567,-5.70647c-1.23698,-2.11548 -3.96091,-2.7603 -4.87072,-4.08802c-1.41597,-2.06638 -4.16411,-5.63144 -4.16411,-5.63144c0,0 1.31508,-1.56114 2.03869,-4.26579c0.67041,-2.50577 0.73116,-6.10339 1.25141,-7.66449c0.72339,-2.17065 2.56989,-5.65366 2.56989,-5.65366c0,0 6.71353,-1.85044 9.70862,-2.56557c2.5846,-0.61712 7.21263,-1.47467 7.21263,-1.47467z" fill="#4b4b4b" stroke="#f60000" stroke-width="0" stroke-linecap="round"/><path d="M272.25088,91.15122l2.14646,12.54826l-10.43217,8.50695l-11.42801,-5.54284l-2.72891,-13.93578z" fill="#444444" stroke="none" stroke-width="0.5" stroke-linecap="round"/><path d="M272.07979,89.03976l1.06592,12.84749l-9.81601,7.01747l-10.87302,-4.30443l-2.81104,-12.34798l10.13737,-8.13508z" fill="#b31212" stroke="#000000" stroke-width="0" stroke-linecap="round"/><path d="M271.00297,90.59801l0.84952,10.23934l-7.82328,5.59286l-8.66569,-3.43059l-2.24038,-9.84123l8.07941,-6.48359z" fill="#c01313" stroke="#000000" stroke-width="0" stroke-linecap="round"/><path d="M259.75907,84.15806l1.08511,2.44937l2.88973,1.14244l-2.80643,-0.69085l-7.36613,6.03878l0.52128,4.28139l-1.15311,-4.18785l-3.31541,-0.95782z" fill="#da1616" stroke="#000000" stroke-width="0" stroke-linecap="round"/><path d="M273.23437,101.81119l-9.90792,7.02798l0.34774,-2.48829l8.18692,-5.52281z" fill="#990f0f" stroke="#000000" stroke-width="0" stroke-linecap="round"/><path d="M280.19092,126.1386l-1.01523,2.68956l0.03913,-5.63916z" fill="#444444" stroke="none" stroke-width="0.5" stroke-linecap="round"/><path d="M283.5005,125.03475l-3.3945,1.82658l-0.95252,-3.95666l3.0809,-2.52049z" fill="#c01313" stroke="none" stroke-width="0.5" stroke-linecap="round"/><path d="M246.11398,115.0468l10.84213,-1.93446l1.02522,0.73012l-5.04965,7.93706l-7.45513,-5.93296z" fill="#444444" stroke="none" stroke-width="0.5" stroke-linecap="round"/><path d="M267.81445,58.59254l3.61518,0.61178l-4.89908,0.42205z" fill="#444444" stroke="none" stroke-width="0.5" stroke-linecap="round"/><path d="M238.45649,73.05516l5.24537,-1.23798l0.5308,0.38473l-2.32912,4.48796l-3.82122,-3.09145z" fill="#444444" stroke="none" stroke-width="0.5" stroke-linecap="round"/><path d="M243.94246,71.69325l-2.37962,3.7254l-3.81145,-2.02274l2.75343,-4.071z" fill="#b31212" stroke="none" stroke-width="0.5" stroke-linecap="round"/><path d="M266.78246,57.38269l2.85892,1.90485l-3.18915,0.28242l-3.03441,-1.58576z" fill="#c01313" stroke="none" stroke-width="0.5" stroke-linecap="round"/><path d="M282.01998,82.34318l0.97786,0.58421l-2.34216,5.4397l-4.07,-4.32639z" fill="#444444" stroke="none" stroke-width="0.5" stroke-linecap="round"/><path d="M283.00198,82.67985l-2.74421,4.34706l-3.8248,-3.16368l1.96807,-5.02645z" fill="#c01313" stroke="none" stroke-width="0.5" stroke-linecap="round"/><path d="M257.22402,112.98054l-4.70162,7.61735l-7.2764,-4.87987l5.39902,-7.01251z" fill="#b31212" stroke="none" stroke-width="0.5" stroke-linecap="round"/><path d="M266.89765,57.30586l2.43198,1.78414l-2.46625,-0.90981l-3.18505,-0.12487z" fill="#da1616" stroke="#000000" stroke-width="0" stroke-linecap="round"/><path d="M278.41424,78.92321l2.96711,2.49315l-1.90908,-0.76287l-3.025,3.23816z" fill="#da1616" stroke="#000000" stroke-width="0" stroke-linecap="round"/><path d="M255.84562,113.33217l-3.56494,5.43547l-4.99425,-3.69351l3.63453,-4.81117z" fill="#c01313" stroke="none" stroke-width="0.5" stroke-linecap="round"/><path d="M245.22243,115.77259l5.44985,-7.038l0.19617,1.30413l0.93181,0.78368l-0.90355,-0.39844l-3.39488,4.43395l0.48896,0.72887l-0.85011,-0.58844z" fill="#da1616" stroke="#000000" stroke-width="0" stroke-linecap="round"/><path d="M279.08209,123.0207l3.11882,-2.54644l0.56789,2.10719l-0.88985,-0.70207z" fill="#da1616" stroke="#000000" stroke-width="0" stroke-linecap="round"/><path d="M237.74855,73.38091l2.75992,-4.02831l2.14608,1.41849l-1.732,-0.0679z" fill="#c01313" stroke="#000000" stroke-width="0" stroke-linecap="round"/><path d="M227.38683,62.20823c0.72221,-2.89734 2.10296,-5.1925 2.10296,-5.1925c0,0 5.01441,-1.4461 8.28052,-2.1285c3.26611,-0.6824 7.84071,-1.79726 7.84071,-1.79726c0,0 6.15706,1.21953 8.8671,1.87368c2.42449,0.58523 6.86226,2.3769 6.86226,2.3769c0,0 1.18044,1.00797 2.66756,1.79186c1.737,0.91562 3.88832,1.62954 5.00354,1.6594c1.6599,0.06507 3.39696,-0.94465 3.39696,-0.94465c0,0 2.88068,3.72622 4.35012,5.44346c1.33131,1.55582 4.11411,3.88829 4.11411,3.88829c0,0 -1.56788,1.2478 -1.97606,1.40391c-1.50119,-0.05544 -4.57314,-1.29339 -6.04808,-0.67175c-2.52605,1.06464 -0.88025,6.93178 -1.10148,8.9377c-0.79845,0.5445 -1.43385,0.49012 -2.21506,0.90332c-0.80721,0.42696 -0.71769,1.59245 -1.44341,2.1171c-1.36946,0.99004 -2.75784,-0.37958 -3.83953,-0.45053c-0.13575,-0.0089 -1.35648,0.68045 -1.799,0.72606c-1.43855,0.14825 -3.09603,-0.25922 -4.50544,-0.49494c-2.90476,-0.49263 -3.29536,1.00535 -5.28231,2.34123c-1.20168,0.80793 -2.91893,0.48655 -4.15722,1.14151c-0.79496,0.42048 -1.08346,1.93701 -1.41518,2.67485c-0.53776,0.19167 -1.61711,0.2492 -2.0737,0.563c-0.7164,0.49235 -0.72817,3.18706 -0.75904,3.95751c-0.21574,5.38425 -4.35039,13.0699 -4.35039,13.0699c0,0 -1.4315,-3.61449 -2.77725,-7.8528c-0.83963,-2.64432 -1.99254,-5.4021 -2.57738,-7.81283c-0.57608,-2.37457 -0.93499,-4.46912 -2.38426,-6.94176c-1.44928,-2.47264 -2.31009,-1.568 -3.59484,-2.99277c-0.66909,-0.74201 -1.66868,-2.20213 -2.60986,-3.4365c-0.86603,-1.13581 -1.94451,-2.34092 -1.94451,-2.34092c0,0 1.54691,-2.67799 2.07653,-4.39806c0.74026,-2.40419 0.56942,-4.51655 1.29163,-7.41389zM242.68095,78.92426l2.39269,-6.78648l-4.48924,-3.55359l-3.70298,5.10886z" fill="#515151" stroke="none" stroke-width="0.5" stroke-linecap="butt"/><path d="" fill="#565656" stroke="none" stroke-width="0.5" stroke-linecap="butt"/><path d="M257.9148,57.20791c0.03275,0.02892 0.06148,0.05862 0.08638,0.08909z" fill="#565656" stroke="none" stroke-width="0.5" stroke-linecap="butt"/><path d="M228.93175,125.04078c0,0 2.01065,0.06443 3.59382,-0.63882c1.32868,-0.5902 2.5741,-2.2895 2.5741,-2.2895c0,0 -0.3127,1.91049 -2.26431,2.83644c-2.06919,0.98174 -3.90362,0.09188 -3.90362,0.09188z" fill="#000000" stroke="#000000" stroke-width="0" stroke-linecap="round"/><path d="M239.5702,175.48718c-3.14029,0.13523 -4.52117,-1.11637 -7.25058,-2.46041c-5.69708,-2.80542 -11.34136,-7.46587 -12.21609,-8.27293c-1.80012,-1.66085 -6.6,-14.43333 -6.6,-14.43333c0,0 3.55351,1.60004 6.5123,4.61739c5.11471,5.21592 15.59509,13.74147 19.6877,13.81595c4.02208,0.07319 15.46256,-9.11729 20.53715,-14.04708c2.75455,-2.67595 5.66285,-3.95292 5.66285,-3.95292c0,0 -2.5872,11.19232 -4,12.2c-1.03794,0.74031 -8.19221,6.75226 -15.22931,10.05605c-2.54155,1.19322 -4.5316,2.36651 -7.10403,2.47728z" fill="#980f0f" stroke="#000000" stroke-width="0" stroke-linecap="round"/><path d="M215.06619,305.57271c0,0 -0.18882,-20.42905 -0.17338,-43.91303c0.01389,-21.14257 0.22508,-44.76127 -0.14077,-58.17776c0.52949,0.41747 1.01822,0.92583 1.42968,1.15729c0.65649,0.8847 1.2442,2.22194 2.33428,2.65919c0.86635,0.34751 2.22888,-0.15521 2.95574,0.21408c0.94264,0.47891 2.08814,1.75553 3.06055,2.43344c0.534,0.30155 1.11518,0.96913 1.63637,1.19152c1.0281,0.4387 2.49482,-0.3235 3.51093,0.05328c1.5209,0.56397 2.09434,2.7055 3.3116,3.5969c2.94087,2.11141 7.44934,-0.6392 9.81683,-2.51264c2.43618,-1.9278 4.47244,-5.95657 7.6668,-6.70242c3.57096,1.37813 5.08464,-6.66385 7.07882,-2.89539c1.16748,3.0212 3.24952,2.23836 5.818,3.15372c0.96937,0.34547 1.46416,1.76677 2.64738,2.17456c0.15459,0.05171 0.30778,0.09443 0.45961,0.12874c-0.21612,14.01916 0.14252,35.17778 0.36566,54.20002c0.27226,23.20947 0.36027,43.23851 0.36027,43.23851z" fill="#6b0b0b" stroke="#000000" stroke-width="0" stroke-linecap="butt"/><path d="M215.23285,305.90603c0,0 -0.18882,-20.42905 -0.17338,-43.91303c0.00018,-0.27072 0.00039,-0.54184 0.00063,-0.81334c1.86907,-0.22718 2.55037,-1.47416 4.31166,-1.91739c0.73721,-0.18552 2.30717,0.61324 3.29205,0.61674c1.30069,-0.19949 2.74498,-0.0788 4.00539,-0.33465c1.74326,-0.35388 3.95512,-2.7866 5.32642,-3.89269c1.28297,-1.0395 1.97692,-3.32605 4.03901,-2.77705c1.81678,0.48368 2.64782,1.94557 4.71463,1.32724c0.86144,-0.25772 1.74702,-1.12197 2.58677,-0.98358c2.10422,0.34676 4.75908,2.0803 6.79343,2.88921c1.28049,0.58376 2.75509,-0.60131 3.79945,-0.06921c1.76269,0.89809 2.56408,3.57885 3.15514,5.29601c0.5925,5.14905 3.25754,-1.21711 4.18796,-2.13065c0.31272,-0.30704 2.31411,0.03232 2.86068,-0.1801c1.19331,-0.16645 2.07927,-0.9096 2.81067,-1.90392c0.02337,1.8636 0.04612,3.71567 0.06762,5.54791c0.27226,23.20947 0.36027,43.2385 0.36027,43.2385z" fill="#640a0a" stroke="#000000" stroke-width="0" stroke-linecap="butt"/><g><g stroke="#000000" stroke-width="0"><path d="M269.73857,159.09987c1.15646,0.99038 2.6018,2.94021 2.6018,2.94021c0,0 -3.57635,13.84639 -4.85997,30.81073c-0.18339,2.42372 0.19885,4.96198 0.28868,7.58437c0.88148,25.7368 0.76768,76.49364 -0.05624,77.83976c-0.47399,0.7744 -15.87714,1.44645 -26.07854,1.3145c-10.2014,-0.13196 -26.21485,-1.01442 -27.04737,-2.00167c-1.01164,-1.19966 -1.17654,-52.62392 -1.50729,-76.91425c-0.03515,-2.581 0.44432,-5.08095 0.26287,-7.47913c-1.28363,-16.96435 -4.85998,-31.01688 -4.85998,-31.01688c0,0 1.44535,-2.15598 2.60181,-3.14636c1.15646,-0.99038 3.53051,-2.31144 3.53051,-2.31144c0,0 5.6095,16.41454 7.67955,23.27468c1.64052,5.43667 3.75457,12.21275 3.75457,12.21275c0,0 4.78639,-1.84634 14.11389,-1.8917c8.67122,-0.04218 14.43898,1.54812 14.43898,1.54812c0,0 2.32399,-7.58074 4.04015,-13.13293c2.08159,-6.73447 7.56608,-21.73605 7.56608,-21.73605c0,0 2.37405,1.11491 3.53051,2.10529z" fill="#141414" stroke-linecap="butt"/><path d="M226.13829,192.05008c0,0 4.90622,-1.70912 13.67416,-1.82587c7.7353,-0.103 14.8787,1.48228 14.8787,1.48228l0.32819,1.25982c0,0 -10.0706,-1.26144 -14.98339,-1.2045c-4.96886,0.05759 -14.26962,1.54809 -14.26962,1.54809l0.37196,-1.25981z" fill="#1e1e1e" stroke-linecap="round"/></g><path d="M221.68103,269.4711c-1.87736,-1.70248 -1.89388,-51.19489 0,-53.02719c2.31127,-2.23614 36.91112,-1.90494 38.65916,0c1.84013,2.00531 2.16648,51.04558 0,53.02719c-1.92682,1.7624 -36.59066,1.87579 -38.65915,0z" fill="#111111" stroke="none" stroke-width="0" stroke-linecap="butt"/><g stroke="none" stroke-linecap="butt"><path d="M221.9869,261.96988c-1.84772,-1.60949 -1.86398,-49.03248 0,-50.76471c2.27479,-2.114 36.32841,-1.80091 38.04885,0c1.81108,1.89578 2.13228,48.89132 0,50.76471c-1.89641,1.66614 -36.01301,1.77335 -38.04885,0z" fill="#191919" stroke-width="0"/><path d="M222.24226,211.20518c2.27479,-2.114 36.32841,-1.80091 38.04885,0c0.56173,0.588 -1.47728,14.28293 -7.22894,23.22311c-2.95791,4.59768 -7.43437,7.61293 -11.92294,7.62002c-6.0825,0.0096 -11.43911,-4.94609 -14.60688,-11.54806c-3.9847,-8.30458 -4.93084,-18.69961 -4.2901,-19.29506z" fill="#141414" stroke-width="0"/><path d="M222.24226,211.20518c2.27479,-2.114 36.32841,-1.80091 38.04885,0c0.8506,0.89039 -6.18768,27.95904 -19.15187,28.00855c-12.96419,0.04951 -20.04709,-26.93973 -18.89698,-28.00854z" fill="#1e1e1e" stroke-width="0"/><g stroke-width="0.5"><path d="M239.03803,234.59993c0,-1.35202 1.08613,-2.44804 2.42593,-2.44804c1.33981,0 2.42593,1.09602 2.42593,2.44804c0,1.35202 -1.08613,2.44804 -2.42593,2.44804c-1.33981,0 -2.42593,-1.09602 -2.42593,-2.44804z" fill="#740c0c"/><path d="M239.34608,234.08954c0,-1.01291 0.94821,-1.83403 2.11787,-1.83403c1.16968,0 2.11787,0.82113 2.11787,1.83404c0,1.01291 -0.94821,1.83403 -2.11787,1.83403c-1.16968,0 -2.11787,-0.82113 -2.11787,-1.83403z" fill="#8b0e0e"/></g></g></g><path d="M281.15173,171.81168c0,0 3.79225,4.86589 4.30543,6.65322c0.73746,2.56849 0.5292,8.18553 0.5292,8.18553c0,0 0.7021,2.01498 0.74021,4.34404c0.02194,1.34095 -0.61814,2.94959 -0.76543,4.29414c-0.15067,1.37544 0.1911,2.4815 0.19103,3.37203c-0.00018,2.36328 -0.33378,5.80354 -0.33378,5.80354c0,0 -1.24228,-0.80744 -2.46057,-2.67939c-0.60041,-0.92257 -1.195,-2.78723 -1.63218,-3.60296c-0.60793,-1.13432 -1.94702,-2.79363 -2.64814,-4.50688c-0.73915,-1.80615 -0.82496,-3.63874 -0.82496,-3.63874c0,0 -1.79073,-1.38846 -2.70835,-2.25416c-0.94831,-0.89465 -2.55913,-3.48117 -2.55913,-3.48117c0,0 0.83131,-2.19841 1.61438,-4.94717c0.7807,-2.74047 1.1791,-5.57747 1.65389,-7.18149c0.57934,-1.95721 1.56506,-4.87472 1.56506,-4.87472c0,0 1.19526,0.94155 1.63575,1.53809c0.61274,0.8298 1.69759,2.97608 1.69759,2.97608z" fill="#4b4b4b" stroke="#ff0000" stroke-width="0" stroke-linecap="round"/><path d="M286.36316,188.0483c0,0 0.18807,1.30914 0.24228,1.98675c0.02382,0.29781 0.137,0.93486 0.06688,1.57405c-0.097,0.88422 -0.39249,1.77253 -0.39249,1.77253c0,0 -1.33963,-2.26472 -2.1852,-3.61049c-0.48439,-0.77093 -1.45927,-2.03018 -2.1999,-3.17925c-0.8989,-1.39461 -1.53157,-2.62693 -1.53157,-2.62693z" fill="#444444" stroke="#000000" stroke-width="0" stroke-linecap="round"/><path d="M280.1384,183.80434l3.14784,-8.02091l4.25006,5.88493l-1.64783,8.18758z" fill="#b31212" stroke="none" stroke-width="0" stroke-linecap="butt"/><path d="M280.27924,183.82881l3,-7.91666l2.91666,3.83334l-2.66666,-2z" fill="#da1616" stroke="#000000" stroke-width="0" stroke-linecap="round"/><path d="M276.76518,183.59054c-0.65456,1.26057 -0.13257,4.20017 -0.13257,4.20017c0,0 -1.7998,-1.52584 -2.233,-2.15887c-0.4332,-0.63303 -0.86618,-1.72362 -0.86618,-1.72362c0.64016,-1.06338 0.93645,-2.29046 1.32104,-3.58413c0.62503,-2.10249 1.18486,-4.38086 1.61004,-6.4183c0.67552,-3.2371 1.48785,-5.86894 1.48785,-5.86894c0,0 1.27003,1.08927 1.69789,1.87154c0.38275,0.69979 0.6736,1.46006 1.06271,2.09405c0.57301,0.93364 1.25943,1.56093 1.25943,1.56093c0,0 -0.39825,1.43671 -1.02339,1.14464c-0.2648,0.75429 -0.34163,2.6197 -1.14096,4.15125c-0.27738,0.53147 -0.82292,1.2085 -1.02471,1.7495c-0.254,0.68096 -0.15817,1.21133 -0.48838,1.6949c-0.62343,0.91298 -1.52976,1.28688 -1.52976,1.28688z" fill="#515151" stroke="none" stroke-width="0.5" stroke-linecap="butt"/><g stroke-width="0"><g><path d="M201.95221,102.96136c0,0 -5.46769,-0.7503 -5.6481,-4.90416c-0.13175,-2.87929 7.33387,-6.93465 7.33387,-6.93465c0,0 -0.51287,4.97415 -0.74837,6.98699c-0.23089,1.97346 -0.9374,4.85182 -0.9374,4.85182z" fill="#1f1f1f" stroke="#000000" stroke-linecap="round"/><g><g><g stroke="#000000" stroke-linecap="round"><path d="M285.83777,80.17506c0,0 -30.7218,0.08073 -45.64927,1.63933c-14.5079,1.51481 -38.12085,8.30289 -38.12085,8.30289c0,0 -2.06864,-15.70816 5.16935,-29.39295c4.96479,-9.38687 14.30842,-17.82173 31.70211,-19.58194c17.56203,-1.77726 28.6708,5.03261 35.638,13.4404c9.39878,11.34216 11.26065,25.59225 11.26065,25.59225z" fill="#3f3f3f"/><path d="M246.36733,84.16268c-10.47355,1.37831 -43.50607,6.692 -46.80833,10.32597c-3.46288,3.81075 -0.74458,7.39443 -0.74458,7.39443c0,0 -4.55964,-1.41807 -4.54398,-6.37505c0.01639,-5.18794 7.61285,-8.0053 7.61285,-8.0053c0,0 -0.8989,-20.08546 8.80819,-32.11677c9.70709,-12.03131 22.12277,-13.35135 22.12277,-13.35135c0,0 -9.82408,11.67009 -12.52592,21.34299c-2.64936,9.48505 -2.42655,19.05082 -2.42655,19.05082c0,0 17.40758,-2.85318 28.62713,-4.05289c11.21955,-1.19972 38.54084,-3.12943 38.54084,-3.12943c0,0 0.59593,1.59279 0.7426,2.66088c0.14667,1.06811 -0.01417,2.64378 -0.01417,2.64378c0,0 -28.9173,2.23361 -39.39086,3.61192z" fill="#2f2f2f"/></g><path d="M214.53244,74.51008c-1.21178,7.03001 -5.34065,12.62888 -8.83298,12.0269c-3.49233,-0.60198 -4.74937,-6.56558 -3.53759,-13.59558c1.21178,-7.03001 5.92253,-14.70768 9.41486,-14.1057c3.49233,0.60198 4.16749,8.64438 2.95571,15.67438z" fill="#282828" stroke="none" stroke-linecap="butt"/></g><g stroke="none" stroke-linecap="butt"><path d="M192.96133,79.61319c-0.35341,-0.45767 -2.9385,-3.23058 0.57915,-13.61991c3.8051,-11.2383 7.719,-11.67286 8.85407,-11.51154c1.15253,0.16379 10.47476,3.3435 10.47476,3.3435c0,0 3.50091,2.42173 0.6791,13.01118c-2.31918,8.70316 -8.09071,12.42071 -8.09071,12.42071c0,0 -11.92894,-2.90919 -12.49635,-3.64394z" fill="#303030"/><path d="M193.11357,79.61044c-0.2609,-0.33788 -1.73814,-1.93761 -1.07819,-6.93223c0.23398,-1.7708 0.7366,-3.96835 1.65733,-6.68767c3.8051,-11.2383 7.60363,-11.56618 8.73869,-11.40487c0.57214,0.08132 1.89268,0.38497 1.89268,0.38497l0.1699,1.30836l9.70108,3.73376c0,0 0.70254,2.09785 0.61521,4.16341c-0.05972,1.41255 -0.27325,3.09041 -0.71964,5.07355l-11.39282,-3.62004c0,0 -1.75494,6.0974 -3.88171,9.41558c-2.80549,4.37711 -5.59302,4.70696 -5.70252,4.56517z" fill="#3f3f3f"/><path d="M194.17786,77.21652c-1.26173,-0.69062 -1.21492,-5.82116 0.71404,-11.5939c1.92897,-5.77272 4.89783,-10.03221 6.27136,-9.31101c1.42697,0.74925 0.01776,6.45411 -1.91121,12.22686c-1.92896,5.77275 -3.81246,9.36866 -5.0742,8.67805z" fill="#1f1f1f"/><path d="M200.19925,68.06854c-1.96515,5.75451 -4.81599,9.8939 -5.85457,9.24613c-1.03308,-0.64435 -0.70345,-5.70947 1.26171,-11.46398c1.96515,-5.75451 4.72842,-10.04617 5.85474,-9.37493c1.17015,0.69737 0.70326,5.83826 -1.26189,11.59277z" fill="#db1616"/></g></g></g><path d="M197.65216,73.5866c0,0 -1.02591,-2.79857 0.38449,-7.02081c1.25532,-3.758 3.66827,-5.2231 3.66827,-5.2231c0,0 -0.65766,3.79219 -1.46,6.14166c-0.80234,2.34947 -2.59276,6.10225 -2.59276,6.10225z" fill="#f21818" stroke="none" stroke-linecap="butt"/></g><path d="M202.09535,58.76648c0.04182,1.87451 -0.3471,5.18707 -2.02958,9.67721c-3.03031,8.08721 -5.83748,9.04024 -5.83748,9.04024l-62.61729,4.46408l13.87845,-68.55406l56.31547,43.61165c0,0 0.26485,0.61403 0.29043,1.7609z" fill="url(#color-1)" stroke="#000000" stroke-width="0" stroke-linecap="round"/></g></g></svg>