<svg version="1.1" xmlns="http://www.w3.org/2000/svg" xmlns:xlink="http://www.w3.org/1999/xlink" width="100.83332" height="254.89374" viewBox="0,0,100.83332,254.89374"><g transform="translate(-190.63666,-51.23802)"><g data-paper-data="{&quot;isPaintingLayer&quot;:true}" fill-rule="nonzero" stroke-linejoin="miter" stroke-miterlimit="10" stroke-dasharray="" stroke-dashoffset="0" style="mix-blend-mode: normal"><path d="M195.92692,103.88008c0,0 6.16329,-5.92187 6.29161,-6.78761c0.33654,-2.27063 -0.16776,-40.17317 35.96775,-41.57382c44.63633,-0.91362 39.01489,35.34872 41.53088,42.1903c3.44981,9.38084 6.15664,17.40016 6.15664,17.40016c0,0 -2.76715,-2.05351 -4.0797,-3.13397c-1.2242,-1.00773 -3.80143,-3.14585 -3.80143,-3.14585c0,0 3.09111,10.3481 1.31092,20.69498c-1.5623,9.48098 -7.29782,17.22543 -7.29782,17.22543l-1.15522,-2.34735c0,0 -1.02266,2.19794 -2.16005,3.33274c-1.1374,1.13479 -3.43873,2.91273 -3.43873,2.91273l-0.09205,-3.70421c0,0 -7.0601,11.01795 -24.35066,10.87154c-16.30625,-0.25547 -26.07151,-10.6752 -26.07151,-10.6752l-0.1162,2.65484c0,0 -3.89477,-3.29276 -6.18145,-9.70754c-2.72545,-7.64567 -3.23946,-12.24324 -3.23946,-12.24324c0,0 -2.33908,1.89916 -5.71704,2.7744c-4.23278,1.09673 -6.94665,0.34526 -6.94665,0.34526c0,0 3.60795,-2.71717 5.58396,-4.76989c1.76007,-1.8284 2.64658,-3.37722 2.64658,-3.37722c0,0 -2.10758,1.0847 -4.23277,1.61795c-2.21739,0.5564 -4.03008,0.53093 -4.03008,0.53093c0,0 4.97492,-5.03728 7.03074,-10.87429c1.94102,-5.51108 2.09972,-10.95731 2.09972,-10.95731c0,0 -1.36165,0.66163 -3.33013,0.79513c-1.24776,0.08463 -2.37785,-0.0489 -2.37785,-0.0489z" fill="#000000" stroke="none" stroke-width="1.5" stroke-linecap="butt"/><path d="M201.03044,304.3916c0,0 -0.63536,-94.38387 -0.79335,-118.01201c-0.05451,-8.15261 8.18688,-36.76129 40.20201,-36.9211c31.60235,-0.15775 39.85672,29.48704 39.84884,36.89673c-0.07659,46.24274 0.65429,117.98648 0.65429,117.98648l-10.49667,0.09614l-0.15882,-114.84311c0,0 0.07549,-3.0993 -2.81625,-3.15415c-3.43441,-0.06514 -2.94538,3.11562 -2.94538,3.11562l0.20548,114.86995l-48.21366,0.07222l-0.30539,-115.23309c0,0 0.27949,-2.919 -2.8856,-2.93443c-3.11083,-0.01515 -2.81569,2.90899 -2.81569,2.90899l0.35311,115.0668z" fill="#ffffff" stroke="#000000" stroke-width="2" stroke-linecap="butt"/><path d="M265.96997,305.79952v-148.83444c0,0 15.09892,10.05908 17.83334,21.26206c0.67775,2.77675 0.76163,16.54097 1.90761,34.08065c0.47839,7.32202 1.09327,15.302 1.7305,23.41525c0.13729,1.74799 0.60895,4.1666 0.74718,5.9217c0.1769,2.2462 0.02031,3.82951 0.19448,6.06779c0.83997,10.79458 1.62036,21.36914 2.07282,30.48995c0.80763,16.28062 1.01408,27.92927 1.01408,27.92927z" data-paper-data="{&quot;index&quot;:null}" fill="#0b0b0b" stroke="#000000" stroke-width="0" stroke-linecap="butt"/><path d="M190.63666,306.13174c0,0 0.20645,-11.72674 1.01408,-28.1165c0.45245,-9.18196 1.23284,-19.8274 2.07282,-30.69435c0.17417,-2.2533 0.01757,-3.84721 0.19447,-6.10847c0.13823,-1.76689 0.60988,-4.2017 0.74717,-5.9614c0.63724,-8.16763 1.25211,-16.2011 1.7305,-23.57221c1.14597,-17.65727 1.22987,-31.51376 1.90761,-34.30912c2.73442,-11.27807 17.83334,-21.4046 17.83334,-21.4046v149.83222z" fill="#0b0b0b" stroke="#000000" stroke-width="0" stroke-linecap="butt"/><path d="M255.62762,200.3338c-0.57113,0 -1.03411,-0.46299 -1.03411,-1.03411c0,-0.57113 0.46299,-1.03413 1.03411,-1.03413c0.57113,0 1.03411,0.463 1.03411,1.03413c0,0.57113 -0.46299,1.03411 -1.03411,1.03411z" fill="#000000" stroke="none" stroke-width="1.5" stroke-linecap="butt"/><path d="M250.36775,204.56939c-4.4635,-0.31439 -6.55245,-1.79392 -6.16985,-2.58011c0.11788,-0.24224 2.84645,1.06355 6.97038,1.3048c6.40897,0.37493 8.51033,-0.63173 8.51033,-0.63173v1.34616c0,0 -2.4135,1.04672 -9.31086,0.56089z" fill="#000000" stroke="#000000" stroke-width="0" stroke-linecap="butt"/><path d="M222.55498,199.29969c0,-0.57113 0.46299,-1.03413 1.03411,-1.03413c0.57113,0 1.03413,0.463 1.03413,1.03413c0,0.57113 -0.463,1.03411 -1.03413,1.03411c-0.57113,0 -1.03411,-0.46299 -1.03411,-1.03411z" fill="#000000" stroke="none" stroke-width="1.5" stroke-linecap="butt"/><path d="M228.849,204.56939c-6.89736,0.48585 -9.31086,-0.56089 -9.31086,-0.56089v-1.34616c0,0 2.10136,1.00666 8.51033,0.63173c4.12393,-0.24126 6.85251,-1.54704 6.97039,-1.3048c0.3826,0.78618 -1.70634,2.26571 -6.16985,2.58011z" fill="#000000" stroke="#000000" stroke-width="0" stroke-linecap="butt"/><path d="M240.12946,261.12113c-0.81895,0 -1.48284,-0.66389 -1.48284,-1.48284c0,-0.81895 0.66389,-1.48284 1.48284,-1.48284c0.81895,0 1.48284,0.66389 1.48284,1.48284c0,0.81895 -0.66389,1.48284 -1.48284,1.48284z" data-paper-data="{&quot;index&quot;:null}" fill="#000000" stroke="none" stroke-width="1.5" stroke-linecap="butt"/><path d="M215.06617,305.40603c0,0 -0.18882,-20.42906 -0.17338,-43.91303c0.0146,-22.21549 0.24702,-47.16479 -0.20103,-60.13981c-0.63971,-18.52544 -4.62559,-40.74187 -4.62559,-40.74187c0,0 8.67319,-6.6863 10.6557,-8.0814c1.98251,-1.3951 5.17197,-2.20371 5.17197,-2.20371c0,0 -2.51018,6.15609 -0.2558,11.7817c1.90364,4.75038 7.87419,9.12251 14.81533,9.09031c7.27033,-0.03374 11.76036,-4.66666 13.4183,-9.55853c1.86183,-5.49346 0.41324,-11.31348 0.41324,-11.31348c0,0 3.91276,0.91959 6.16585,2.34655c2.25309,1.42695 11.75379,9.2719 11.75379,9.2719c0,0 -4.83971,22.22925 -5.53647,38.8889c-0.54629,13.0621 -0.08921,38.70914 0.1762,61.33397c0.27227,23.20947 0.36027,43.23851 0.36027,43.23851z" fill="#740c0c" stroke="#000000" stroke-width="0" stroke-linecap="butt"/><path d="M239.76711,169.23559c-16.0505,0.49992 -26.13333,-18.96667 -26.13333,-18.96667c0,0 13.4914,-3.67316 26.39721,-3.63129c12.3145,0.03995 25.70279,4.03129 25.70279,4.03129c0,0 -9.10852,18.0416 -25.96667,18.56667z" fill="#740c0c" stroke="#000000" stroke-width="0" stroke-linecap="round"/><path d="" fill="#565656" stroke="none" stroke-width="0.5" stroke-linecap="butt"/><path d="M239.57017,175.48717c-3.14029,0.13523 -4.52117,-1.11637 -7.25058,-2.46041c-5.69708,-2.80542 -11.34136,-7.46587 -12.21609,-8.27293c-1.80012,-1.66085 -6.6,-14.43333 -6.6,-14.43333c0,0 3.55351,1.60004 6.5123,4.61739c5.11471,5.21592 15.59509,13.74147 19.6877,13.81595c4.02208,0.07319 15.46256,-9.11729 20.53715,-14.04708c2.75455,-2.67595 5.66285,-3.95292 5.66285,-3.95292c0,0 -2.5872,11.19232 -4,12.2c-1.03794,0.74031 -8.19221,6.75226 -15.22931,10.05605c-2.54155,1.19322 -4.5316,2.36651 -7.10403,2.47728z" fill="#980f0f" stroke="#000000" stroke-width="0" stroke-linecap="round"/><path d="M215.06616,305.5727c0,0 -0.18882,-20.42905 -0.17338,-43.91303c0.01389,-21.14257 0.22508,-44.76127 -0.14077,-58.17776c0.52949,0.41747 1.01822,0.92583 1.42968,1.15729c0.65649,0.8847 1.2442,2.22194 2.33428,2.65919c0.86635,0.34751 2.22888,-0.15521 2.95574,0.21408c0.94264,0.47891 2.08814,1.75553 3.06055,2.43344c0.534,0.30155 1.11518,0.96913 1.63637,1.19152c1.0281,0.4387 2.49482,-0.3235 3.51093,0.05328c1.5209,0.56397 2.09434,2.7055 3.3116,3.5969c2.94087,2.11141 7.44934,-0.6392 9.81683,-2.51264c2.43618,-1.9278 4.47244,-5.95657 7.6668,-6.70242c3.57096,1.37813 5.08464,-6.66385 7.07882,-2.89539c1.16748,3.0212 3.24952,2.23836 5.818,3.15372c0.96937,0.34547 1.46416,1.76677 2.64738,2.17456c0.15459,0.05171 0.30778,0.09443 0.45961,0.12874c-0.21612,14.01916 0.14252,35.17778 0.36566,54.20002c0.27226,23.20947 0.36027,43.23851 0.36027,43.23851z" fill="#6b0b0b" stroke="#000000" stroke-width="0" stroke-linecap="butt"/><path d="M215.23282,305.90603c0,0 -0.18882,-20.42905 -0.17338,-43.91303c0.00018,-0.27072 0.00039,-0.54184 0.00063,-0.81334c1.86907,-0.22718 2.55037,-1.47416 4.31166,-1.91739c0.73721,-0.18552 2.30717,0.61324 3.29205,0.61674c1.30069,-0.19949 2.74498,-0.0788 4.00539,-0.33465c1.74326,-0.35388 3.95512,-2.7866 5.32642,-3.89269c1.28297,-1.0395 1.97692,-3.32605 4.03901,-2.77705c1.81678,0.48368 2.64782,1.94557 4.71463,1.32724c0.86144,-0.25772 1.74702,-1.12197 2.58677,-0.98358c2.10422,0.34676 4.75908,2.0803 6.79343,2.88921c1.28049,0.58376 2.75509,-0.60131 3.79945,-0.06921c1.76269,0.89809 2.56408,3.57885 3.15514,5.29601c0.5925,5.14905 3.25754,-1.21711 4.18796,-2.13065c0.31272,-0.30704 2.31411,0.03232 2.86068,-0.1801c1.19331,-0.16645 2.07927,-0.9096 2.81067,-1.90392c0.02337,1.8636 0.04612,3.71567 0.06762,5.54791c0.27226,23.20947 0.36027,43.2385 0.36027,43.2385z" fill="#640a0a" stroke="#000000" stroke-width="0" stroke-linecap="butt"/><g><g stroke="#000000" stroke-width="0"><path d="M269.96817,159.09986c1.16551,0.99038 2.62217,2.94021 2.62217,2.94021c0,0 -3.60435,13.84639 -4.89802,30.81073c-0.18483,2.42372 0.20041,4.96198 0.29094,7.58437c0.88838,25.7368 0.77369,76.49364 -0.05668,77.83976c-0.4777,0.7744 -16.00146,1.44645 -26.28273,1.3145c-10.28128,-0.13196 -26.42011,-1.01442 -27.25915,-2.00167c-1.01956,-1.19966 -1.18575,-52.62392 -1.51909,-76.91425c-0.03543,-2.581 0.4478,-5.08095 0.26493,-7.47913c-1.29368,-16.96435 -4.89803,-31.01688 -4.89803,-31.01688c0,0 1.45667,-2.15598 2.62218,-3.14636c1.16551,-0.99038 3.55815,-2.31144 3.55815,-2.31144c0,0 5.65342,16.41454 7.73968,23.27468c1.65337,5.43667 3.78397,12.21275 3.78397,12.21275c0,0 4.82387,-1.84634 14.2244,-1.8917c8.73911,-0.04218 14.55204,1.54812 14.55204,1.54812c0,0 2.34219,-7.58074 4.07178,-13.13293c2.09789,-6.73447 7.62532,-21.73605 7.62532,-21.73605c0,0 2.39264,1.11491 3.55815,2.10529z" fill="#141414" stroke-linecap="butt"/><path d="M226.02651,192.05007c0,0 4.94464,-1.70912 13.78123,-1.82587c7.79587,-0.103 14.9952,1.48228 14.9952,1.48228l0.33076,1.25982c0,0 -10.14945,-1.26144 -15.10071,-1.2045c-5.00777,0.05759 -14.38135,1.54809 -14.38135,1.54809l0.37487,-1.25981z" fill="#1e1e1e" stroke-linecap="round"/></g><path d="M221.53435,269.47109c-1.89206,-1.70248 -1.90871,-51.19489 0,-53.02719c2.32937,-2.23614 37.20013,-1.90494 38.96186,0c1.85454,2.00531 2.18344,51.04558 0,53.02719c-1.94191,1.7624 -36.87716,1.87579 -38.96185,0z" fill="#111111" stroke="none" stroke-width="0" stroke-linecap="butt"/><g stroke="none" stroke-linecap="butt"><path d="M221.84261,261.96988c-1.86219,-1.60949 -1.87857,-49.03248 0,-50.76471c2.2926,-2.114 36.61286,-1.80091 38.34677,0c1.82526,1.89578 2.14898,48.89132 0,50.76471c-1.91126,1.66614 -36.29499,1.77335 -38.34677,0z" fill="#191919" stroke-width="0"/><path d="M222.09997,211.20517c2.2926,-2.114 36.61286,-1.80091 38.34677,0c0.56613,0.588 -1.48885,14.28293 -7.28554,23.22311c-2.98107,4.59768 -7.49258,7.61293 -12.0163,7.62002c-6.13013,0.0096 -11.52868,-4.94609 -14.72125,-11.54806c-4.0159,-8.30458 -4.96945,-18.69961 -4.32369,-19.29506z" fill="#141414" stroke-width="0"/><path d="M222.09997,211.20517c2.2926,-2.114 36.61286,-1.80091 38.34677,0c0.85726,0.89039 -6.23613,27.95904 -19.30183,28.00855c-13.0657,0.04951 -20.20406,-26.93973 -19.04494,-28.00854z" fill="#1e1e1e" stroke-width="0"/><g stroke-width="0.5"><path d="M239.02725,234.59992c0,-1.35202 1.09463,-2.44804 2.44492,-2.44804c1.3503,0 2.44492,1.09602 2.44492,2.44804c0,1.35202 -1.09463,2.44804 -2.44492,2.44804c-1.3503,0 -2.44492,-1.09602 -2.44492,-2.44804z" fill="#740c0c"/><path d="M239.33771,234.08953c0,-1.01291 0.95563,-1.83403 2.13445,-1.83403c1.17884,0 2.13445,0.82113 2.13445,1.83404c0,1.01291 -0.95563,1.83403 -2.13445,1.83403c-1.17884,0 -2.13445,-0.82113 -2.13445,-1.83403z" fill="#8b0e0e"/></g></g></g><path d="M212.7128,115.2017c-0.57709,-7.29323 0.335,-17.15448 0.335,-17.15448c0,0 3.41059,-0.04124 13.91429,-3.14424c8.0696,-2.38394 20.54731,-9.48722 20.54731,-9.48722c0,0 -2.16005,3.00503 -3.40781,4.46015c-1.32651,1.54696 -3.99292,4.56297 -3.99292,4.56297c0,0 7.838,-1.66761 14.67476,-4.72931c8.56837,-3.53575 10.59252,-6.05309 12.95042,-4.5927c2.7829,1.72362 1.03006,23.1827 0.71846,28.74062c-0.42163,5.66922 -2.53327,9.49969 -3.15031,12.52053c-0.61704,3.02084 -0.4096,6.13662 -2.20622,16.0397c-1.12121,6.18021 -4.16183,8.92466 -10.01942,14.66081c-5.85759,5.73616 -9.05378,9.25275 -13.01359,9.32173c-3.81077,0.06639 -8.93565,-5.1002 -13.93542,-10.38244c-5.32393,-5.62474 -8.87489,-8.47713 -9.71551,-15.13975c-0.75707,-6.00039 -0.77653,-9.90853 -1.12266,-15.24835c-0.25298,-3.90273 -2.26119,-6.44504 -2.57636,-10.42801z" fill="#ffffff" stroke="#000000" stroke-width="1.5" stroke-linecap="butt"/><path d="M260.7828,99.08134c0,0 1.52429,0.31807 4.2558,1.11029c2.49492,0.72361 4.44935,1.74403 4.44935,1.74403l0.1951,1.17035c0,0 -7.24963,-3.12997 -15.1158,-2.4706c-6.2896,0.52724 -9.96319,2.8124 -9.96319,2.8124l0.04575,-4.17683c0,0 3.12748,-1.70421 7.86366,-1.85557c4.90428,-0.15672 8.09084,0.59125 8.09084,0.59125z" data-paper-data="{&quot;index&quot;:null}" fill="#000000" stroke="none" stroke-width="1.5" stroke-linecap="butt"/><path d="M248.01867,143.06889c0.5704,0.21186 3.08357,1.39942 6.02385,2.59586c2.9637,1.20597 7.21362,2.29294 7.19412,2.4605c-0.02476,0.21265 -10.43477,0.22694 -13.67937,0.63224c-2.71902,0.33964 -6.68867,0.70564 -6.68867,0.70564c0,0 -7.10401,-1.16169 -13.27235,-2.44521c-4.94371,-1.02869 -10.39929,-1.66108 -10.40995,-1.75461c-0.01439,-0.12613 3.86835,-0.71071 6.82417,-1.39467c1.14585,-0.49661 5.43971,-1.48513 5.43971,-1.48513c0,0 4.95585,-0.27766 7.60826,0.579c2.84203,0.91791 2.83546,2.44556 3.0831,2.46906c0,0 1.18436,-1.74932 2.36886,-2.10461c1.18451,-0.35528 5.08219,-0.41633 5.50828,-0.25808z" fill="#ffffff" stroke="#000000" stroke-width="1.4" stroke-linecap="butt"/><path d="M229.37068,147.62249c5.09114,1.02674 11.91756,2.80736 11.91756,2.80736c0,0 5.78976,-1.55585 8.44678,-1.8344c2.05992,-0.21596 11.216,-0.70654 11.26026,-0.33377c0.04328,0.36447 -9.03119,12.90033 -21.14808,12.44714c-13.76954,-0.43578 -22.86459,-15.13559 -22.82675,-15.30472c0.03784,-0.16913 7.2591,1.19165 12.35024,2.2184z" fill="#ffffff" stroke="#000000" stroke-width="1.9" stroke-linecap="butt"/><path d="M240.34494,144.6288c-1.03376,0 -3.5381,-3.26042 -3.7867,-5.3637c-0.22243,-1.88186 1.31512,-3.82799 3.7867,-3.82799c2.47159,0 4.2021,0.49077 4.02999,4.18853c-0.14607,3.13818 -1.55841,5.00317 -4.02999,5.00317z" fill="#ffffff" stroke="#000000" stroke-width="1.15" stroke-linecap="butt"/><path d="M243.94705,114.53508c0,0 0.1026,3.96976 0.00576,7.12662c-0.19174,6.25113 -1.08147,27.7607 -1.08147,27.7607l-2.98167,0.00864c0,0 -0.80294,-4.17274 -1.12322,-9.49979c-0.43353,-7.21063 -0.4495,-16.29321 -0.76344,-19.63229c-0.29758,-3.16513 -0.89593,-5.71453 -0.89593,-5.71453" fill="#ffffff" stroke="#000000" stroke-width="1.3" stroke-linecap="round"/><path d="M214.41244,125.32492c0,0 -4.93211,-3.51705 -6.16417,-8.97502c-1.29636,-5.74284 -1.46118,-9.7328 0.48013,-9.99193c1.94131,-0.25915 2.70321,2.37692 3.73262,8.35569c1.0294,5.97877 1.95143,10.61127 1.95143,10.61127z" data-paper-data="{&quot;index&quot;:null}" fill="#ffffff" stroke="#000000" stroke-width="1" stroke-linecap="butt"/><path d="M214.20985,121.37736c0,0 -3.56385,-2.92338 -4.31816,-8.45061c-0.42079,-3.08327 2.15675,-2.28016 2.15675,-2.28016" fill="none" stroke="#000000" stroke-width="0.25" stroke-linecap="round"/><path d="M217.22325,114.72146c0.07093,-4.89188 4.83834,-8.93609 10.21137,-8.8582c5.37302,0.0779 9.02724,4.2484 8.95632,9.14029c-0.07093,4.89188 -4.12352,8.79439 -9.49655,8.7165c-5.37302,-0.0779 -9.74207,-4.1067 -9.67114,-8.99859z" fill="#ffffff" stroke="#000000" stroke-width="1.4" stroke-linecap="butt"/><path d="M224.41089,114.8394c0.03999,-2.75843 2.30855,-4.96213 5.06696,-4.92214c2.75843,0.03999 4.96213,2.30855 4.92214,5.06696c-0.03999,2.75843 -2.30854,4.96213 -5.06696,4.92214c-2.75843,-0.03999 -4.96213,-2.30855 -4.92214,-5.06696z" fill="#000000" stroke="none" stroke-width="1.5" stroke-linecap="butt"/><path d="M244.27953,114.72219c0.20353,-4.88817 4.45264,-8.85847 9.77048,-8.85847c5.31783,0 9.27453,3.96607 9.27453,8.85847c0,4.8924 -3.88585,9.07104 -9.69964,9.14188c-5.52997,0.06739 -9.55792,-4.03692 -9.34537,-9.14188z" fill="#ffffff" stroke="#000000" stroke-width="1.4" stroke-linecap="butt"/><path d="M251.13228,114.80774c0,-2.81845 2.2848,-5.10325 5.10325,-5.10325c2.81845,0 5.10325,2.2848 5.10325,5.10325c0,2.81845 -2.28479,5.10325 -5.10325,5.10325c-2.81845,0 -5.10325,-2.2848 -5.10325,-5.10325z" fill="#000000" stroke="none" stroke-width="1.5" stroke-linecap="butt"/><path d="M217.15482,114.18928c0,0 0.06357,-9.01512 10.60111,-8.8249c9.47101,0.16586 9.55554,9.40723 9.55554,9.40723z" fill="#ffffff" stroke="#000000" stroke-width="1.15" stroke-linecap="butt"/><path d="M243.90188,114.32018c0,0 -0.24686,-9.4582 11.19813,-9.1032c9.71427,0.33347 9.54677,9.65229 9.54677,9.65229z" fill="#ffffff" stroke="#000000" stroke-width="1.15" stroke-linecap="butt"/><path d="M220.68467,104.17762c0,0 3.36963,-1.819 8.03244,-2.28178c5.16698,-0.51283 7.76823,-0.06628 7.76823,-0.06628l0.29508,4.13747c0,0 -3.83554,-0.68065 -8.01795,-0.52113c-5.59346,0.21333 -6.64488,1.43293 -10.89774,1.89119c-3.64408,0.39266 -6.73723,0.15884 -6.73723,0.15884l-0.02589,-1.23155c0,0 3.59517,0.07398 5.23371,-0.06836c1.35239,-0.11749 3.9757,-0.93808 3.9757,-0.93808z" fill="#000000" stroke="none" stroke-width="1.5" stroke-linecap="butt"/><path d="M268.6456,114.71365c1.0294,-5.97877 1.7913,-8.61483 3.73262,-8.35569c1.94131,0.25914 1.77649,4.24909 0.48013,9.99193c-1.23206,5.45797 -6.16417,8.97502 -6.16417,8.97502c0,0 0.92203,-4.6325 1.95143,-10.61127z" data-paper-data="{&quot;index&quot;:null}" fill="#ffffff" stroke="#000000" stroke-width="1" stroke-linecap="butt"/><path d="M269.05818,110.64659c0,0 2.57754,-0.80312 2.15675,2.28016c-0.75431,5.52723 -4.31816,8.45061 -4.31816,8.45061" data-paper-data="{&quot;index&quot;:null}" fill="none" stroke="#000000" stroke-width="0.25" stroke-linecap="round"/><g><g stroke="#000000" stroke-width="0" stroke-linecap="round"><path d="M280.84813,94.75069c0,0 -29.16246,-2.54498 -43.6805,-3.00762c-14.10998,-0.44964 -37.64267,3.10184 -37.64267,3.10184c0,0 0.07829,-15.84351 8.81483,-28.43069c5.99269,-8.63399 16.05916,-15.73586 32.96843,-15.14139c17.07294,0.60022 26.83092,8.84182 32.40793,18.10995c7.52341,12.50277 7.30462,25.03763 7.30462,25.03763z" fill="#3f3f3f"/><path d="M199.69135,92.22933c0,0 7.99188,-1.1732 12.17271,-1.65645c4.44618,-0.51392 15.75704,-1.30473 15.75704,-1.30473l1.86998,-37.09672c0,0 6.06516,-0.74554 9.06044,-0.73825c2.57781,0.00627 9.93504,0.56694 9.93504,0.56694l3.22432,37.28438l29.3157,1.97912l-0.12336,3.3936c0,0 5.33095,3.40222 -6.20067,5.31951c-6.17121,1.02604 -18.42416,1.81909 -36.12871,1.93267c-16.27287,0.10438 -28.55098,-0.30132 -34.34813,-1.16348c-11.65468,-1.7333 -4.71809,-5.43799 -4.71809,-5.43799z" fill="#2f2f2f"/></g><path d="M250.7784,77.25731l0.25365,10.57272c0,0 -6.8175,5.28101 -11.87645,5.1899c-4.75353,-0.08561 -11.2538,-4.87519 -11.2538,-4.87519l0.83506,-8.8675z" fill="#2a2a2a" stroke="none" stroke-width="0.5" stroke-linecap="butt"/><path d="M226.08522,76.44854c0.13426,-7.45463 6.28627,-13.38898 13.7409,-13.25472c7.45463,0.13426 13.38898,6.28627 13.25472,13.7409c-0.13426,7.45463 -6.28627,13.38898 -13.7409,13.25472c-7.45463,-0.13426 -13.38898,-6.28627 -13.25472,-13.7409z" fill="#353535" stroke="none" stroke-width="0.5" stroke-linecap="butt"/><path d="M228.3281,76.86401c0.11312,-6.28122 5.29676,-11.28145 11.57798,-11.16833c6.28122,0.11312 11.28145,5.29676 11.16833,11.57798c-0.11312,6.28122 -5.29676,11.28145 -11.57798,11.16833c-6.28122,-0.11312 -11.28145,-5.29676 -11.16833,-11.57798z" fill="#db1616" stroke="none" stroke-width="0.5" stroke-linecap="butt"/><path d="M234.13533,76.87301c0.0547,-3.03708 2.56107,-5.45477 5.59815,-5.40007c3.03708,0.0547 5.45477,2.56107 5.40007,5.59815c-0.0547,3.03708 -2.56107,5.45477 -5.59815,5.40007c-3.03708,-0.0547 -5.45477,-2.56107 -5.40007,-5.59815z" fill="#f21818" stroke="none" stroke-width="0.5" stroke-linecap="butt"/></g></g></g></svg>