<svg version="1.1" xmlns="http://www.w3.org/2000/svg" xmlns:xlink="http://www.w3.org/1999/xlink" width="98.68561" height="301.17432" viewBox="0,0,98.68561,301.17432"><g transform="translate(-189.59359,-53.38752)"><g data-paper-data="{&quot;isPaintingLayer&quot;:true}" fill-rule="nonzero" stroke-linejoin="miter" stroke-miterlimit="10" stroke-dasharray="" stroke-dashoffset="0" style="mix-blend-mode: normal"><path d="M195.28373,306.61253c0,0 0,-135.54144 0,-182.22897c0,-29.14132 0,-70.99604 0,-70.99604h91.18203v253.22501z" fill-opacity="0.01" fill="#000000" stroke="none" stroke-width="0" stroke-linecap="butt"/><path d="M201.03042,304.39162c0,0 -0.4854,-71.9563 -0.79335,-118.01201c-0.05451,-8.15261 8.18688,-36.76129 40.20201,-36.9211c31.60235,-0.15775 39.85672,29.48704 39.84884,36.89673c-0.029,17.5064 0.17672,58.87401 0.17672,58.87401c0,0 -0.93006,6.68808 -4.49407,6.95425c-4.83423,0.36103 -5.60415,-5.62476 -5.60415,-5.62476l-0.0797,-56.96399c0,0 0.07549,-3.0993 -2.81625,-3.15415c-3.43441,-0.06514 -2.94538,3.11562 -2.94538,3.11562l0.20548,114.86995l-48.21366,0.07222l-0.30539,-115.23309c0,0 0.27949,-2.919 -2.8856,-2.93443c-3.11083,-0.01515 -2.81569,2.90899 -2.81569,2.90899l0.35311,115.0668z" fill="#ffffff" stroke="#000000" stroke-width="2" stroke-linecap="butt"/><path d="M255.62759,200.33384c-0.57113,0 -1.03411,-0.46299 -1.03411,-1.03411c0,-0.57113 0.46299,-1.03413 1.03411,-1.03413c0.57113,0 1.03411,0.463 1.03411,1.03413c0,0.57113 -0.46299,1.03411 -1.03411,1.03411z" fill="#000000" stroke="none" stroke-width="1.5" stroke-linecap="butt"/><path d="M250.36772,204.56943c-4.4635,-0.31439 -6.55245,-1.79392 -6.16985,-2.58011c0.11788,-0.24224 2.84645,1.06355 6.97038,1.3048c6.40897,0.37493 8.51033,-0.63173 8.51033,-0.63173v1.34616c0,0 -2.4135,1.04672 -9.31086,0.56089z" fill="#000000" stroke="#000000" stroke-width="0" stroke-linecap="butt"/><path d="M222.55496,199.29973c0,-0.57113 0.46299,-1.03413 1.03411,-1.03413c0.57113,0 1.03413,0.463 1.03413,1.03413c0,0.57113 -0.463,1.03411 -1.03413,1.03411c-0.57113,0 -1.03411,-0.46299 -1.03411,-1.03411z" fill="#000000" stroke="none" stroke-width="1.5" stroke-linecap="butt"/><path d="M228.84896,204.56943c-6.89736,0.48585 -9.31086,-0.56089 -9.31086,-0.56089v-1.34616c0,0 2.10136,1.00666 8.51033,0.63173c4.12393,-0.24126 6.85251,-1.54704 6.97039,-1.3048c0.3826,0.78618 -1.70634,2.26571 -6.16985,2.58011z" fill="#000000" stroke="#000000" stroke-width="0" stroke-linecap="butt"/><path d="M240.12942,261.12113c-0.81895,0 -1.48284,-0.66389 -1.48284,-1.48284c0,-0.81895 0.66389,-1.48284 1.48284,-1.48284c0.81895,0 1.48284,0.66389 1.48284,1.48284c0,0.81895 -0.66389,1.48284 -1.48284,1.48284z" data-paper-data="{&quot;index&quot;:null}" fill="#000000" stroke="none" stroke-width="1.5" stroke-linecap="butt"/><path d="M215.06615,305.07275v-119.86813v-28.99323c0,0 3.67319,-2.35297 5.6557,-3.74807c1.98251,-1.3951 5.17197,-2.13705 5.17197,-2.13705c0,0 -0.26826,21.77569 14.89286,21.70534c15.43477,-0.07162 13.4982,-21.70534 13.4982,-21.70534c0,0 3.91276,0.85292 6.16585,2.27989c2.25309,1.42695 5.75379,4.2719 5.75379,4.2719v28.83138v119.36333z" fill="#4b4b4b" stroke="none" stroke-width="2" stroke-linecap="butt"/><path d="M189.59359,106.54682c0,0 12.49662,-8.58853 12.62494,-9.45427c0.04861,-0.32793 0.07967,-1.39907 0.20611,-2.99613c0.04645,-0.58669 0.13782,-1.66745 0.13782,-1.66745c0,0 6.7001,-7.59688 9.59713,-13.35395c2.53412,-5.0359 1.14744,-11.5814 5.38207,-15.30294c5.20154,-4.57129 10.47092,-7.859 20.64462,-8.25334c1.86642,-0.0382 10.02591,2.07881 17.7731,3.2139c7.86451,1.15229 21.30413,-0.42678 21.30413,-0.42678c0,0 -3.34489,3.63716 -5.96545,5.3378c-2.62056,1.70064 -6.62164,2.83073 -6.62164,2.83073c0,0 9.81077,3.6331 10.82857,3.74371c7.45983,0.81068 12.77421,-0.40513 12.77421,-0.40513c0,0 -3.68238,4.525 -6.33106,7.14506c-2.64868,2.62006 -7.75239,3.13398 -7.75239,3.13398c0,0 3.73495,8.07272 3.80605,9.43986c0.27344,5.25812 0.97726,8.239 2.76935,13.18985c0.44873,1.23966 1.0453,0.77104 1.45116,1.90978c2.16901,6.08562 3.6515,12.07769 3.6515,12.07769c0,0 -2.76715,-3.65351 -4.0797,-4.73397c-1.2242,-1.00773 -3.80143,-3.14585 -3.80143,-3.14585c0,0 0.66033,2.43349 1.3629,5.85305c0.17392,0.8465 -0.33131,1.66978 -0.18342,2.47324c1.56925,8.52508 1.32863,14.8184 -1.31103,22.941c-0.27229,0.83787 0.25436,1.6952 -0.08919,2.57646c-0.96262,2.46923 -2.76617,6.57667 -2.76617,6.57667l-1.48855,-4.84735c0,0 -1.48667,2.05795 -2.49338,3.33274c-1.00671,1.27479 -3.43873,4.57939 -3.43873,4.57939c0,0 -0.26209,-2.54067 -0.49334,-3.52738c-0.16717,-0.71332 -0.76538,-1.84349 -0.76538,-1.84349c0,0 -8.22676,11.01795 -25.51732,10.87154c-16.30625,-0.25547 -26.07151,-10.6752 -26.07151,-10.6752l-0.1162,2.65484c0,0 -1.27549,-0.92447 -2.65226,-3.23675c-0.3542,-0.59487 -0.40382,-1.90413 -0.8069,-2.57964c-2.73674,-4.58642 -4.0903,-11.70156 -4.50241,-12.76773c-0.68165,-1.76352 -1.42275,2.42116 -4.17638,4.40775c-3.05263,2.20231 -7.07999,2.34526 -7.07999,2.34526c0,0 2.60368,-4.23138 3.95063,-7.10323c1.34695,-2.87185 1.74658,-5.04388 1.74658,-5.04388c0,0 -2.30565,1.56965 -4.39944,3.28462c-2.09379,1.71497 -6.69674,1.53093 -6.69674,1.53093c0,0 3.59075,-4.01609 5.53074,-6.87429c1.93999,-2.85819 3.65041,-6.65232 3.65041,-6.65232c0,0 -3.51532,1.84359 -5.18583,2.49911c-1.38908,0.54509 -4.14956,1.16419 -4.14956,1.16419c0,0 5.2599,-5.70415 7.33577,-8.28209c1.81808,-2.25781 4.44894,-6.35286 4.44894,-6.35286c0,0 -2.5631,0.43868 -4.9968,1.12847c-2.4337,0.68979 -7.04453,-0.71556 -7.04453,-0.71556z" fill="#000000" stroke="none" stroke-width="1.5" stroke-linecap="butt"/><path d="M212.71282,115.20178c-0.57709,-7.29323 0.335,-17.15448 0.335,-17.15448c0,0 3.41059,-0.04124 13.91429,-3.14424c8.0696,-2.38394 20.54731,-9.48722 20.54731,-9.48722c0,0 -2.16005,3.00503 -3.40781,4.46015c-1.32651,1.54696 -3.99292,4.56297 -3.99292,4.56297c0,0 7.838,-1.66761 14.67476,-4.72931c8.56837,-3.53575 10.59252,-6.05309 12.95042,-4.5927c2.7829,1.72362 1.03006,23.1827 0.71846,28.74062c-0.42163,5.66922 -2.53327,9.49969 -3.15031,12.52053c-0.61704,3.02084 -0.4096,6.13662 -2.20622,16.0397c-1.12121,6.18021 -4.16183,8.92466 -10.01942,14.66081c-5.85759,5.73616 -9.05378,9.25275 -13.01359,9.32173c-3.81077,0.06639 -8.93565,-5.1002 -13.93542,-10.38244c-5.32393,-5.62474 -8.87489,-8.47713 -9.71551,-15.13975c-0.75707,-6.00039 -0.77653,-9.90853 -1.12266,-15.24835c-0.25298,-3.90273 -2.26119,-6.44504 -2.57636,-10.42801z" fill="#ffffff" stroke="#000000" stroke-width="1.5" stroke-linecap="butt"/><path d="M261.1186,103.34268c0,0 1.49792,0.42529 4.16642,1.40908c2.43737,0.89859 4.31458,2.05495 4.31458,2.05495l0.11167,1.18124c0,0 -7.0096,-3.63584 -14.90272,-3.53556c-6.31115,0.08021 -10.13744,2.09929 -10.13744,2.09929l0.34162,-4.16309c0,0 3.24039,-1.4783 7.97539,-1.29365c4.90305,0.19121 8.0286,1.16311 8.0286,1.16311z" data-paper-data="{&quot;index&quot;:null}" fill="#000000" stroke="none" stroke-width="1.5" stroke-linecap="butt"/><path d="M248.01869,143.06895c0.5704,0.21186 3.08357,1.39942 6.02385,2.59586c2.9637,1.20597 7.21362,2.29294 7.19412,2.4605c-0.02476,0.21265 -10.43477,0.22694 -13.67937,0.63224c-2.71902,0.33964 -6.68867,0.70564 -6.68867,0.70564c0,0 -7.10401,-1.16169 -13.27235,-2.44521c-4.94371,-1.02869 -10.39929,-1.66108 -10.40995,-1.75461c-0.01439,-0.12613 3.86835,-0.71071 6.82417,-1.39467c1.14585,-0.49661 5.43971,-1.48513 5.43971,-1.48513c0,0 4.95585,-0.27766 7.60826,0.579c2.84203,0.91791 2.83546,2.44556 3.0831,2.46906c0,0 1.18436,-1.74932 2.36886,-2.10461c1.18451,-0.35528 5.08219,-0.41633 5.50828,-0.25808z" fill="#ffffff" stroke="#000000" stroke-width="1.4" stroke-linecap="butt"/><path d="M229.3707,147.6225c5.09114,1.02674 11.91756,2.80736 11.91756,2.80736c0,0 5.78976,-1.55585 8.44678,-1.8344c2.05992,-0.21596 11.216,-0.70654 11.26026,-0.33377c0.04328,0.36447 -9.03119,12.90033 -21.14808,12.44714c-13.76954,-0.43578 -22.86459,-15.13559 -22.82675,-15.30472c0.03784,-0.16913 7.2591,1.19165 12.35024,2.2184z" fill="#ffffff" stroke="#000000" stroke-width="1.9" stroke-linecap="butt"/><path d="M240.34497,144.62885c-1.03376,0 -3.5381,-3.26042 -3.7867,-5.3637c-0.22243,-1.88186 1.31512,-3.82799 3.7867,-3.82799c2.47159,0 4.2021,0.49077 4.02999,4.18853c-0.14607,3.13818 -1.55841,5.00317 -4.02999,5.00317z" fill="#ffffff" stroke="#000000" stroke-width="1.15" stroke-linecap="butt"/><path d="M243.94707,114.53516c0,0 0.1026,3.96976 0.00576,7.12662c-0.19174,6.25113 -1.08147,27.7607 -1.08147,27.7607l-2.98167,0.00864c0,0 -0.80294,-4.17274 -1.12322,-9.49979c-0.43353,-7.21063 -0.4495,-16.29321 -0.76344,-19.63229c-0.29758,-3.16513 -0.89593,-5.71453 -0.89593,-5.71453" fill="#ffffff" stroke="#000000" stroke-width="1.3" stroke-linecap="round"/><path d="M214.41247,125.325c0,0 -4.93211,-3.51705 -6.16417,-8.97502c-1.29636,-5.74284 -1.46118,-9.7328 0.48013,-9.99193c1.94131,-0.25915 2.70321,2.37692 3.73262,8.35569c1.0294,5.97877 1.95143,10.61127 1.95143,10.61127z" data-paper-data="{&quot;index&quot;:null}" fill="#ffffff" stroke="#000000" stroke-width="1" stroke-linecap="butt"/><path d="M214.20987,121.37744c0,0 -3.56385,-2.92338 -4.31816,-8.45061c-0.42079,-3.08327 2.15675,-2.28016 2.15675,-2.28016" fill="none" stroke="#000000" stroke-width="0.25" stroke-linecap="round"/><path d="M217.22328,114.72154c0.07093,-4.89188 4.83834,-8.93609 10.21137,-8.8582c5.37302,0.0779 9.02724,4.2484 8.95632,9.14029c-0.07093,4.89188 -4.12352,8.79439 -9.49655,8.7165c-5.37302,-0.0779 -9.74207,-4.1067 -9.67114,-8.99859z" fill="#000000" stroke="#000000" stroke-width="1.4" stroke-linecap="butt"/><path d="M221.66092,114.83948c0.03999,-2.75843 2.30855,-4.96213 5.06696,-4.92214c2.75843,0.03999 4.96213,2.30855 4.92214,5.06696c-0.03999,2.75843 -2.30854,4.96213 -5.06696,4.92214c-2.75843,-0.03999 -4.96213,-2.30855 -4.92214,-5.06696z" fill="#ffffff" stroke="none" stroke-width="1.5" stroke-linecap="butt"/><path d="M244.27956,114.72227c0.20353,-4.88817 4.45264,-8.85847 9.77048,-8.85847c5.31783,0 9.27453,3.96607 9.27453,8.85847c0,4.8924 -3.88585,9.07104 -9.69964,9.14188c-5.52997,0.06739 -9.55792,-4.03692 -9.34537,-9.14188z" fill="#000000" stroke="#000000" stroke-width="1.4" stroke-linecap="butt"/><path d="M220.72658,103.93233c0,0 3.4977,-1.55859 8.18217,-1.66693c5.19098,-0.12006 7.75095,0.5222 7.75095,0.5222l-0.0191,4.14794c0,0 -3.77298,-0.96916 -7.95546,-1.12683c-5.59356,-0.21088 -6.73432,0.92559 -11.00967,1.06046c-3.66335,0.11557 -6.72991,-0.35183 -6.72991,-0.35183l0.06745,-1.22997c0,0 3.57925,0.34603 5.22386,0.32819c1.35741,-0.01474 4.03533,-0.6343 4.03533,-0.6343z" fill="#000000" stroke="none" stroke-width="1.5" stroke-linecap="butt"/><path d="M268.64563,114.71373c1.0294,-5.97877 1.7913,-8.61483 3.73262,-8.35569c1.94131,0.25914 1.77649,4.24909 0.48013,9.99193c-1.23206,5.45797 -6.16417,8.97502 -6.16417,8.97502c0,0 0.92203,-4.6325 1.95143,-10.61127z" data-paper-data="{&quot;index&quot;:null}" fill="#ffffff" stroke="#000000" stroke-width="1" stroke-linecap="butt"/><path d="M269.05818,110.64667c0,0 2.57754,-0.80312 2.15675,2.28016c-0.75431,5.52723 -4.31816,8.45061 -4.31816,8.45061" data-paper-data="{&quot;index&quot;:null}" fill="none" stroke="#000000" stroke-width="0.25" stroke-linecap="round"/><path d="M204.19142,336.7443v-15.30586h15.19421v15.30586z" fill="#da1616" stroke="none" stroke-width="0" stroke-linecap="butt"/><path d="M219.28386,336.7443v-15.30586h15.19421v15.30586z" fill="#c01313" stroke="none" stroke-width="0" stroke-linecap="butt"/><path d="M234.37634,336.7443v-15.30586h15.19422v15.30586z" fill="#b31212" stroke="none" stroke-width="0" stroke-linecap="butt"/><path d="M249.46884,336.7443v-15.30586h15.19421v15.30586z" fill="#990f0f" stroke="none" stroke-width="0" stroke-linecap="butt"/><path d="M264.44705,336.7443v-15.30586h15.19421v15.30586z" fill="#740c0c" stroke="none" stroke-width="0" stroke-linecap="butt"/><path d="M204.51533,354.56185v-15.30586h15.19421v15.30586z" fill="#8b8b8b" stroke="none" stroke-width="0" stroke-linecap="butt"/><path d="M219.60781,354.56185v-15.30586h15.19421v15.30586z" fill="#666666" stroke="none" stroke-width="0" stroke-linecap="butt"/><path d="M234.7003,354.56185v-15.30586h15.19422v15.30586z" fill="#4b4b4b" stroke="none" stroke-width="0" stroke-linecap="butt"/><path d="M249.7928,354.56185v-15.30586h15.19421v15.30586z" fill="#2b2b2b" stroke="none" stroke-width="0" stroke-linecap="butt"/><path d="M264.75194,354.56185v-15.30586h15.19421v15.30586z" fill="#0c0c0c" stroke="none" stroke-width="0" stroke-linecap="butt"/><path d="M215.31194,209.64135l-18.33333,-1c0,0 0.41378,-29.36474 3.76298,-36.62134c3.3492,-7.2566 14.90368,-16.37866 14.90368,-16.37866z" fill="#740c0c" stroke="none" stroke-width="2" stroke-linecap="round"/><path d="M265.64526,156.30802c0,0 11.88782,8.45539 15.23702,15.71199c3.3492,7.2566 3.76299,36.62134 3.76299,36.62134l-18.66667,1z" data-paper-data="{&quot;index&quot;:null}" fill="#740c0c" stroke="none" stroke-width="2" stroke-linecap="round"/><path d="M253.45276,125.50169c-0.01517,-0.02043 -0.02935,-0.04189 -0.04264,-0.06421c0.00115,0.03064 0.00231,0.06127 0.00347,0.0919c0.01312,-0.00978 0.02618,-0.01901 0.03918,-0.02769zM253.43007,119.00634c0.22469,0.01014 0.40804,0.16707 0.4616,0.37401l0.06769,0.23839c0.06076,-0.11205 0.17577,-0.21606 0.39254,-0.23328c0.49843,-0.0396 0.53802,0.45884 0.53802,0.45884c0.12035,1.51716 0.08444,3.12729 0.15303,4.70259c0.06723,0.06857 0.13424,0.15297 0.20005,0.25469c0.47481,0.73377 0.117,3.19849 0.07483,4.13326l-0.02254,0.4995c-0.01245,0.27586 -0.24617,0.4894 -0.52203,0.47695c-0.27586,-0.01245 -0.4894,-0.24617 -0.47696,-0.52203l0.02254,-0.49949c0.00225,-0.05 0.00411,-0.09996 0.00561,-0.14987c-0.34784,-0.35551 -0.42012,-1.1726 -0.42249,-1.76716l-0.41681,0.29602c0.09814,2.30798 0.19288,4.61332 0.09384,6.90741l-0.03005,0.68436c0,0 -0.02193,0.49951 -0.52145,0.47758c-0.49952,-0.02193 -0.47759,-0.52145 -0.47759,-0.52145l0.03005,-0.68436c0.20996,-4.6995 -0.40612,-9.45116 -0.19395,-14.17207c0,0 0.02254,-0.49949 0.52203,-0.47696c0.01245,-0.27586 0.24616,-0.4894 0.52202,-0.47695z" fill="#000000" stroke="none" stroke-width="0.5" stroke-linecap="butt"/><path d="M217.15483,114.18933c0,0 0.06357,-9.01512 10.60111,-8.8249c9.47101,0.16586 9.55554,9.40723 9.55554,9.40723c0,0 -6.65887,0.98873 -9.89725,0.89518c-3.46515,-0.10011 -10.2594,-1.47751 -10.2594,-1.47751z" fill="#000000" stroke="#000000" stroke-width="1.15" stroke-linecap="butt"/><path d="M280.93312,103.25521c0,0 -3.41215,2.34212 -8.30356,7.27729c-5.92465,5.97764 -12.8918,14.5589 -20.26293,18.85872c-13.45678,7.84979 -41.26684,16.11399 -41.26684,16.11399c0,0 -2.67878,-5.11595 -3.45559,-7.48725c-0.80549,-2.45886 -1.29441,-6.92942 -1.29441,-6.92942c0,0 20.03407,-4.93348 31.36978,-11.37247c7.6433,-4.34161 21.48771,-15.69746 31.12093,-24.01131c5.03464,-4.34509 9.34262,-6.36622 9.34262,-6.36622c0,0 0.89159,5.03747 1.45807,7.52126c0.51116,2.24124 1.29193,6.39541 1.29193,6.39541z" fill="#2b2b2b" stroke="none" stroke-width="0.5" stroke-linecap="round"/><path d="M205.97566,131.13303c0,0 17.28681,-2.81493 25.95978,-8.67921c7.31901,-4.9488 17.65406,-19.57466 27.66564,-29.20036c7.72791,-7.43005 16.37458,-10.87043 16.37458,-10.87043c0,0 2.68435,5.94232 3.30968,8.53297c0.52293,2.1664 0.19032,5.96703 0.19032,5.96703c0,0 -6.16467,2.86757 -12.62298,9.1144c-6.96198,6.73401 -13.96776,17.0303 -20.29447,21.39276c-10.68812,7.36979 -35.83255,17.24284 -35.83255,17.24284c0,0 -2.3134,-3.88506 -3.07557,-6.51031c-0.76217,-2.62525 -1.67443,-6.98969 -1.67443,-6.98969z" fill="#373737" stroke="#000000" stroke-width="0" stroke-linecap="round"/><path d="M202.34978,92.08448c0,0 1.53712,-3.53928 1.98519,-5.82444c0.37038,-1.88895 3.26481,-5.92556 3.26481,-5.92556c0,0 6.79929,2.03493 18.07216,8.03516c12.7259,6.77363 27.71696,16.77746 34.93387,20.15662c7.59307,3.55528 18.82731,7.47489 18.82731,7.47489c0,0 0.95596,4.59888 1.23818,7.70323c0.30002,3.30032 -0.32151,8.88012 -0.32151,8.88012c0,0 -12.80022,-0.90138 -24.33701,-6.96184c-5.98262,-3.14277 -15.47846,-12.73385 -24.18554,-19.02793c-12.00042,-8.67475 -29.47745,-14.51023 -29.47745,-14.51023z" fill="#4b4b4b" stroke="none" stroke-width="0.5" stroke-linecap="round"/><path d="M251.7033,120.33901c-13.80199,-11.72271 -29.72298,-24.66529 -36.0626,-30.27425c-6.12337,-5.41762 -8.79091,-9.73026 -8.79091,-9.73026c0,0 2.29591,-4.73099 3.3765,-6.33186c1.16331,-1.72341 3.9735,-4.51814 3.9735,-4.51814c0,0 9.0634,4.12955 13.73554,8.30094c4.67213,4.17139 15.42687,15.98768 27.82554,28.80578c12.90776,13.3444 24.92225,22.49327 24.92225,22.49327c0,0 -0.28371,7.13793 -0.74855,9.03954c-0.45144,1.84677 -2.00145,4.21046 -2.00145,4.21046c0,0 -11.92087,-9.84218 -26.22982,-21.99548z" fill="#666666" stroke="none" stroke-width="0.5" stroke-linecap="round"/><path d="M249.13948,158.65061c-0.5,0 -0.5,-0.5 -0.5,-0.5l0.02566,-0.55811c0.05811,-0.17434 0.11623,-0.34868 0.17434,-0.52302v-0.11886h0.02765l-0.02119,-0.08009c0.41175,-1.27361 0.70805,-2.35203 0.86499,-3.51777c0.02709,-0.38274 0.06252,-0.77211 0.10735,-1.16068c0.01406,-0.27116 0.02121,-0.55069 0.02121,-0.84146c0,-0.35656 0.20672,-0.84231 0.29324,-1.24486c-0.14066,0.14758 -0.288,0.28461 -0.43781,0.39781c-0.21862,0.34811 -0.40157,0.68703 -0.62151,1.00136c-0.01109,0.05219 -0.02236,0.10436 -0.03392,0.15654v0.08916c-0.0003,0.03212 -0.00165,0.06412 -0.00399,0.09601l0.05755,0.05755l-0.07253,0.07253c-0.02594,0.16581 -0.07704,0.32805 -0.14506,0.4859l0.13838,0.04613l-0.19635,0.58906c-0.06283,0.20431 -0.25307,0.35282 -0.47799,0.35282c-0.27614,0 -0.5,-0.22386 -0.5,-0.5v-0.6h0.03467l-0.02821,-0.08009c0.01282,-0.03847 0.02519,-0.07693 0.03714,-0.11541c-0.02802,-0.06243 -0.0436,-0.13165 -0.0436,-0.2045v-0.6c0.0097,-0.7815 -0.06953,-0.88334 -0.65355,-1.44645c0,0 -0.35355,-0.35355 0,-0.70711c0.35355,-0.35355 0.70711,0 0.70711,0c0.15148,0.15574 0.28043,0.29488 0.38978,0.42689c0.34379,-0.74154 1.55252,-1.38878 2.08028,-1.12055c0.01753,0.00891 0.03448,0.01848 0.05085,0.02868l0.15636,-0.05212c0.05284,-0.019 0.1098,-0.02935 0.16919,-0.02935c0.05782,0 0.11336,0.00982 0.16502,0.02787l0.08143,-0.08143c0.09048,-0.09048 0.21548,-0.14645 0.35355,-0.14645c0.17263,0 0.32483,0.08749 0.41467,0.22054c0.16531,-0.01298 0.35864,-0.01839 0.58533,-0.02054h0.2c0,0 0.5,0 0.5,0.5c0,0.5 -0.5,0.5 -0.5,0.5h-0.2c-0.21562,-0.00268 -0.38962,0.02126 -0.55236,0.02512c0.00477,0.02208 0.00953,0.04415 0.0143,0.06623l-0.17306,0.09754l0.06467,0.06467l-0.4,0.4c-0.03051,0.03051 -0.06493,0.05709 -0.10247,0.07892c-0.37268,2.28647 0.15089,5.45125 -1.25817,7.16044l0.16064,0.16064l-0.4,0.4c-0.02241,0.02241 -0.04695,0.04271 -0.07327,0.06056l0.01972,0.18588c0,0 0,0.5 -0.5,0.5z" fill="#000000" stroke="none" stroke-width="0.5" stroke-linecap="butt"/><path d="M215.05758,267.00224c0,0 -1.16468,-3.66445 -1.3529,-5.85246c-0.3692,-4.29197 -0.6836,-27.58383 -1.46385,-51.0829c-0.15607,-4.70037 2.44275,-7.14554 2.13838,-15.64223c-0.28048,-7.82994 -1.98829,-37.42241 -1.98829,-37.42241c0,0 2.59539,-2.03594 3.84331,-2.85459c1.1849,-0.77731 3.46494,-1.93972 3.46494,-1.93972c0,0 4.90093,16.73262 7.99678,19.66866c4.13218,3.91887 22.58342,3.56796 26.79233,-0.40828c3.39038,-3.20295 6.58153,-18.6004 6.58153,-18.6004c0,0 2.62889,1.30418 3.89312,2.25195c1.20064,0.9001 3.51132,3.29906 3.51132,3.29906c0,0 0.22924,26.55471 -0.23856,35.02458c-0.46796,8.47276 2.66078,11.35518 2.4658,16.2687c-0.94301,23.76459 -2.1974,47.32046 -2.54221,51.96719c-0.18491,2.49196 -1.6017,4.82287 -1.6017,4.82287z" fill="#2b2b2b" stroke="none" stroke-width="0" stroke-linecap="butt"/><path d="M217.03701,215.59943c-1.54435,-1.16987 -1.1058,-22.21052 0,-23.30337c1.50494,-1.48733 15.75972,-0.35525 16.79522,0.62982c1.07035,1.01821 1.13038,21.89166 0,23.30337c-1.06707,1.33263 -15.25902,0.53389 -16.79522,-0.62982z" fill="#252525" stroke="#000000" stroke-width="0" stroke-linecap="butt"/><path d="M240.40375,266.6953v-91.88637h1.2807v91.88637z" fill="#212121" stroke="none" stroke-width="0" stroke-linecap="butt"/><path d="M217.03701,210.59943c-1.54435,-1.16987 -1.1058,-22.21052 0,-23.30337c1.50494,-1.48733 15.75972,-0.35525 16.79522,0.62982c1.07035,1.01821 1.13038,21.89166 0,23.30337c-1.06707,1.33263 -15.25902,0.53389 -16.79522,-0.62982z" fill="#343434" stroke="#000000" stroke-width="0" stroke-linecap="butt"/><path d="M248.69525,216.06259c-1.13038,-1.41171 -1.07035,-22.28515 0,-23.30337c1.03551,-0.98507 15.29028,-2.11715 16.79522,-0.62982c1.1058,1.09285 1.54435,22.13349 0,23.30337c-1.5362,1.16371 -15.72816,1.96245 -16.79522,0.62982z" data-paper-data="{&quot;index&quot;:null}" fill="#252525" stroke="#000000" stroke-width="0" stroke-linecap="butt"/><path d="M234.18964,187.86209c0,0 -9.43078,8.39712 -10.6,8.4c-0.76596,0.00188 -7.075,-8.8 -7.075,-8.8c0,0 0.95198,-0.56751 2.73735,-0.8453c1.45128,-0.22582 3.45325,-0.17539 5.94219,-0.15685c2.72008,0.02026 5.25566,0.22096 6.93686,0.60597c1.275,0.29198 2.05859,0.79617 2.05859,0.79617z" fill="#3f3f3f" stroke="#000000" stroke-width="0" stroke-linecap="round"/><path d="M248.86192,211.42925c-1.13038,-1.41171 -1.07035,-22.28515 0,-23.30336c1.03551,-0.98507 15.29027,-2.11716 16.79522,-0.62983c1.1058,1.09285 1.54435,22.1335 0,23.30337c-1.5362,1.16371 -15.72815,1.96245 -16.79522,0.62982z" data-paper-data="{&quot;index&quot;:null}" fill="#343434" stroke="#000000" stroke-width="0" stroke-linecap="butt"/><path d="M248.38963,188.11208c0,0 0.78359,-0.50419 2.05859,-0.79617c1.6812,-0.38501 4.21678,-0.58571 6.93686,-0.60597c2.48894,-0.01854 4.49091,-0.06897 5.94219,0.15685c1.78537,0.27779 2.73735,0.8453 2.73735,0.8453c0,0 -6.30905,8.80188 -7.075,8.8c-1.16922,-0.00288 -10.6,-8.4 -10.6,-8.4z" data-paper-data="{&quot;index&quot;:null}" fill="#3f3f3f" stroke="#000000" stroke-width="0" stroke-linecap="round"/></g></g></svg>