<svg version="1.1" xmlns="http://www.w3.org/2000/svg" xmlns:xlink="http://www.w3.org/1999/xlink" width="99.55576" height="253.22501" viewBox="0,0,99.55576,253.22501"><g transform="translate(-189.85021,-56.38752)"><g data-paper-data="{&quot;isPaintingLayer&quot;:true}" fill-rule="nonzero" stroke-linejoin="miter" stroke-miterlimit="10" stroke-dasharray="" stroke-dashoffset="0" style="mix-blend-mode: normal"><path d="M195.28373,309.61253c0,0 0,-135.54144 0,-182.22897c0,-29.14132 0,-70.99604 0,-70.99604h91.18203v253.22501z" fill-opacity="0.01" fill="#000000" stroke="none" stroke-width="0" stroke-linecap="butt"/><path d="M201.10707,285.3515c0,0 -0.48295,5.09553 -2.5281,6.97096c-2.04514,1.87543 -5.61067,0.49241 -5.61067,0.49241c0,0 1.6204,-3.54407 3.23484,-5.02454c1.61444,-1.48047 4.90393,-2.43882 4.90393,-2.43882z" data-paper-data="{&quot;index&quot;:null}" fill="#565656" stroke="#000000" stroke-width="0" stroke-linecap="round"/><path d="M199.55037,288.91999c0,0 1.53958,4.88133 0.38625,7.40515c-1.15332,2.52382 -4.97596,2.63855 -4.97596,2.63855c0,0 0.11227,-3.89533 1.0227,-5.88764c0.91043,-1.99232 3.567,-4.15607 3.567,-4.15607z" data-paper-data="{&quot;index&quot;:null}" fill="#484848" stroke="#000000" stroke-width="0" stroke-linecap="round"/><path d="M284.34156,245.95204c2.20348,0.48387 5.06441,2.58778 5.06441,2.58778c0,0 -3.39854,2.5896 -6.18986,1.97665c-2.79132,-0.61295 -4.91836,-4.41594 -4.91836,-4.41594c0,0 3.84033,-0.63236 6.04381,-0.14849z" fill="#565656" stroke="#000000" stroke-width="0" stroke-linecap="round"/><path d="M284.10598,250.27611c1.121,1.99231 1.25924,5.88764 1.25924,5.88764c0,0 -4.70676,-0.11472 -6.12683,-2.63855c-1.42007,-2.52382 0.47559,-7.40515 0.47559,-7.40515c0,0 3.27099,2.16375 4.392,4.15606z" fill="#484848" stroke="#000000" stroke-width="0" stroke-linecap="round"/><path d="M201.03042,304.39162c0,0 -0.4854,-71.9563 -0.79335,-118.01201c-0.05451,-8.15261 8.18688,-36.76129 40.20201,-36.9211c31.60235,-0.15775 39.85672,29.48704 39.84884,36.89673c-0.029,17.5064 -0.32328,58.87401 -0.32328,58.87401c0,0 -0.43006,6.18808 -3.99407,6.45425c-4.83423,0.36103 -5.60415,-5.12476 -5.60415,-5.12476l-0.0797,-56.96399c0,0 0.07549,-3.0993 -2.81625,-3.15415c-3.43441,-0.06514 -2.94538,3.11562 -2.94538,3.11562l0.20548,114.86995l-48.21366,0.07222l-0.30539,-115.23309c0,0 0.27949,-2.919 -2.8856,-2.93443c-3.11083,-0.01515 -2.81569,2.90899 -2.81569,2.90899l0.35311,115.0668z" fill="#ffffff" stroke="#000000" stroke-width="2" stroke-linecap="butt"/><path d="M281.10754,246.37799c0,0 -1.01094,7.26306 -5.5,7.25c-6.48102,-0.01886 -7,-8 -7,-8z" fill="#5d5d5d" stroke="#000000" stroke-width="0" stroke-linecap="round"/><path d="M269.14713,246.07419l0.25,-7.5l12.75,-2.75c0,0 0.3169,1.78446 0.34925,3.75248c0.02752,1.67376 -0.21994,3.4803 -0.30479,4.43481c-0.11926,1.34169 -1.04446,3.06271 -1.04446,3.06271c0,0 -1.61903,-0.25619 -3.50342,-0.2864c-1.82943,-0.02933 -3.90897,0.1687 -5.00002,0.07778c-1.42029,-0.11836 -3.49655,-0.79138 -3.49655,-0.79138z" fill="#666666" stroke="none" stroke-width="0" stroke-linecap="butt"/><path d="M282.64713,238.99056l-13.75,-0.25l1,-8.75c0,0 7.28997,-5.32153 9.6738,-5.68828c1.39782,-0.21505 3.3262,3.68828 3.3262,3.68828z" fill="#6e6e6e" stroke="#000000" stroke-width="0" stroke-linecap="round"/><path d="M265.64526,156.30802c0,0 11.88782,8.45539 15.23702,15.71199c1.58368,3.43131 2.459,20.09088 2.7759,35.87814c0.18247,9.09055 0.01268,17.39056 0.11471,23.99431c0.09551,6.18155 0.87238,9.9989 0.87238,9.9989c0,0 -2.52027,-5.32788 -3.24961,-8.36366c-0.69047,-2.87399 -1.01622,-9.39221 -1.01622,-9.39221l-2.1688,13.71364c0,0 -0.82565,-3.28203 -1.76121,-2.67125c-0.44905,0.29316 -0.86582,2.792 -1.11589,3.62643c-0.95642,3.1914 -1.99813,8.8358 -1.99813,8.8358c0,0 -1.43504,-7.38148 -2.73983,-10.44068c-1.11875,-2.62302 -4.61699,-6.80808 -4.61699,-6.80808z" data-paper-data="{&quot;index&quot;:null}" fill="#740c0c" stroke="none" stroke-width="2" stroke-linecap="round"/><path d="M214.81194,268.64135l-17.72222,-1.63889c0,0 -0.33423,-2.26937 0.268,-29.35724c0.25263,-11.36301 0.81251,-23.31557 1.18322,-33.64302c0.58744,-16.36522 1.13246,-29.6678 2.20064,-31.9822c3.3492,-7.2566 14.90368,-16.37866 14.90368,-16.37866z" fill="#740c0c" stroke="none" stroke-width="2" stroke-linecap="round"/><path d="M196.81324,267.38464c0,0 -0.77497,-0.38619 -1.04277,-1.19424c-0.20156,-0.60818 -0.08835,-1.30377 -0.03181,-1.93716c0.06108,-0.68426 0.07458,-1.29593 0.07458,-1.64637c0,-0.6858 1,-1.22222 1,-1.22222c0,0 6.11172,0.82532 9.14217,0.93704c2.99695,0.11048 8.94116,-0.27037 8.94116,-0.27037c0,0 0.8539,0.8052 1.32269,2.03064c0.16918,0.44227 -0.12132,1.35676 -0.15808,1.85708c-0.04765,0.64848 0.10433,0.90336 -0.10891,1.65894c-0.37776,1.33852 -1.16681,1.56445 -1.16681,1.56445c0,0 -6.01896,0.00462 -9.01995,-0.29224c-2.98971,-0.29573 -8.95228,-1.48555 -8.95228,-1.48555z" fill="#990f0f" stroke="none" stroke-width="0" stroke-linecap="butt"/><path d="M255.62759,200.33394c-0.57113,0 -1.03411,-0.46299 -1.03411,-1.03411c0,-0.57113 0.46299,-1.03413 1.03411,-1.03413c0.57113,0 1.03411,0.463 1.03411,1.03413c0,0.57113 -0.46299,1.03411 -1.03411,1.03411z" fill="#000000" stroke="none" stroke-width="1.5" stroke-linecap="butt"/><path d="M250.36772,204.56953c-4.4635,-0.31439 -6.55245,-1.79392 -6.16985,-2.58011c0.11788,-0.24224 2.84645,1.06355 6.97038,1.3048c6.40897,0.37493 8.51033,-0.63173 8.51033,-0.63173v1.34616c0,0 -2.4135,1.04672 -9.31086,0.56089z" fill="#000000" stroke="#000000" stroke-width="0" stroke-linecap="butt"/><path d="M222.55496,199.29983c0,-0.57113 0.46299,-1.03413 1.03411,-1.03413c0.57113,0 1.03413,0.463 1.03413,1.03413c0,0.57113 -0.463,1.03411 -1.03413,1.03411c-0.57113,0 -1.03411,-0.46299 -1.03411,-1.03411z" fill="#000000" stroke="none" stroke-width="1.5" stroke-linecap="butt"/><path d="M228.84896,204.56953c-6.89736,0.48585 -9.31086,-0.56089 -9.31086,-0.56089v-1.34616c0,0 2.10136,1.00666 8.51033,0.63173c4.12393,-0.24126 6.85251,-1.54704 6.97039,-1.3048c0.3826,0.78618 -1.70634,2.26571 -6.16985,2.58011z" fill="#000000" stroke="#000000" stroke-width="0" stroke-linecap="butt"/><path d="M240.12942,261.12113c-0.81895,0 -1.48284,-0.66389 -1.48284,-1.48284c0,-0.81895 0.66389,-1.48284 1.48284,-1.48284c0.81895,0 1.48284,0.66389 1.48284,1.48284c0,0.81895 -0.66389,1.48284 -1.48284,1.48284z" data-paper-data="{&quot;index&quot;:null}" fill="#000000" stroke="none" stroke-width="1.5" stroke-linecap="butt"/><path d="M215.06615,305.07275v-119.86813v-28.99323c0,0 3.67319,-2.35297 5.6557,-3.74807c1.98251,-1.3951 5.17197,-2.13705 5.17197,-2.13705c0,0 -0.26826,21.77569 14.89286,21.70534c15.43477,-0.07162 13.4982,-21.70534 13.4982,-21.70534c0,0 3.91276,0.85292 6.16585,2.27989c2.25309,1.42695 5.75379,4.2719 5.75379,4.2719v28.83138v119.36333z" fill="#5d0909" stroke="none" stroke-width="2" stroke-linecap="butt"/><path d="M191.34359,110.79686c0,0 3.38895,-2.60259 6.38338,-5.47649c2.3379,-2.2438 4.4353,-4.84821 4.49156,-5.22778c0.2676,-1.80529 0.34393,-3.33025 0.34393,-3.33025c0,0 6.7001,-8.93021 9.59713,-14.68728c2.53412,-5.0359 3.81411,-11.91473 8.04874,-15.63627c5.20154,-4.57129 13.22375,-6.80391 22.47795,-6.42001c9.26144,0.3842 13.23076,4.25592 24.91189,5.82745c6.65754,0.89568 12.91534,-0.79033 12.91534,-0.79033c0,0 -3.90836,4.04783 -7.21545,6.0878c-3.30709,2.03997 -5.62164,1.83073 -5.62164,1.83073c0,0 5.53947,2.02536 9.57857,1.99371c4.0391,-0.03165 10.27421,-1.40513 10.27421,-1.40513c0,0 -2.93238,3.775 -5.58106,6.39506c-2.64868,2.62006 -7.75239,3.13398 -7.75239,3.13398c0,0 3.73495,8.07272 3.80605,9.43986c0.27344,5.25812 0.97726,8.239 2.76935,13.18985c0.44873,1.23966 2.87276,3.31426 3.70116,5.90978c0.8284,2.59552 1.4015,10.07769 1.4015,10.07769c0,0 -3.09779,-4.24944 -5.0797,-6.73397c-1.98191,-2.48453 -2.80143,-3.14585 -2.80143,-3.14585c0,0 0.66033,2.43349 1.3629,5.85305c0.17392,0.8465 -0.33131,1.66978 -0.18342,2.47324c1.56925,8.52508 1.32863,14.8184 -1.31103,22.941c-0.27229,0.83787 0.25436,1.6952 -0.08919,2.57646c-0.96262,2.46923 -2.76617,6.57667 -2.76617,6.57667l-1.48855,-4.84735c0,0 -1.48667,2.05795 -2.49338,3.33274c-1.00671,1.27479 -3.43873,4.57939 -3.43873,4.57939c0,0 -0.26209,-2.54067 -0.49334,-3.52738c-0.16717,-0.71332 -0.76538,-1.84349 -0.76538,-1.84349c0,0 -8.22676,11.01795 -25.51732,10.87154c-16.30625,-0.25547 -26.07151,-10.6752 -26.07151,-10.6752l-0.1162,2.65484c0,0 -1.27549,-0.92447 -2.65226,-3.23675c-0.3542,-0.59487 -0.40382,-1.90413 -0.8069,-2.57964c-2.73674,-4.58642 -4.0903,-11.70156 -4.50241,-12.76773c-0.68165,-1.76352 -1.42275,2.42116 -4.17638,4.40775c-3.05263,2.20231 -7.07999,2.34526 -7.07999,2.34526c0,0 2.60368,-4.23138 3.95063,-7.10323c1.34695,-2.87185 1.74658,-5.04388 1.74658,-5.04388c0,0 -2.30565,1.56965 -4.39944,3.28462c-2.09379,1.71497 -6.69674,1.53093 -6.69674,1.53093c0,0 3.59075,-4.01609 5.53074,-6.87429c1.93999,-2.85819 3.65041,-6.65232 3.65041,-6.65232c0,0 -3.51532,1.84359 -5.18583,2.49911c-1.38908,0.54509 -4.14956,1.16419 -4.14956,1.16419c0,0 5.2599,-5.70415 7.33577,-8.28209c1.81808,-2.25781 4.44894,-6.35286 4.44894,-6.35286c0,0 -1.41268,1.53567 -4.2468,1.87847c-2.38702,0.28871 -6.04453,-0.2156 -6.04453,-0.2156z" fill="#000000" stroke="none" stroke-width="1.5" stroke-linecap="butt"/><path d="M229.19461,266.68611c0.15812,-0.47434 0.63245,-0.31623 0.63245,-0.31623c1.9124,0.65094 5.7232,3.11952 5.74188,5.47434c0.01042,1.31329 -1.60128,2.37572 -1.60153,3.63911c-0.00022,1.12106 0.57118,1.90729 0.60153,2.96089c-0.03067,3.23078 -3.75505,3.36114 -6.07347,2.46894c-0.34044,-0.13101 -1.67267,-1.28719 -2.11165,-1.18232c-2.30782,0.55133 -2.77403,2.55372 -5.0926,0.24098c-1.00178,-1.33233 -4.42154,-5.08299 -3.90082,-6.6725c0.3306,-1.00917 3.26136,-3.4223 3.18501,-4.1352c-0.166,-1.54992 -1.53711,-1.72637 0.34865,-2.99845c2.90434,-0.0645 5.47521,-0.39082 8.26695,0.53153c0.00116,-0.00368 0.00236,-0.00737 0.0036,-0.01109z" data-paper-data="{&quot;index&quot;:null}" fill="#4f0808" stroke="none" stroke-width="0.5" stroke-linecap="butt"/><path d="M212.71282,118.20183c-0.57709,-7.29323 0.335,-17.15448 0.335,-17.15448c0,0 3.41059,-0.04124 13.91429,-3.14424c8.0696,-2.38394 20.54731,-9.48722 20.54731,-9.48722c0,0 -2.16005,3.00503 -3.40781,4.46015c-1.32651,1.54696 -3.99292,4.56297 -3.99292,4.56297c0,0 7.838,-1.66761 14.67476,-4.72931c8.56837,-3.53575 10.59252,-6.05309 12.95042,-4.5927c2.7829,1.72362 1.03006,23.1827 0.71846,28.74062c-0.42163,5.66922 -2.53327,9.49969 -3.15031,12.52053c-0.61704,3.02084 -0.4096,6.13662 -2.20622,16.0397c-1.12121,6.18021 -4.16183,8.92466 -10.01942,14.66081c-5.85759,5.73616 -9.05378,9.25275 -13.01359,9.32173c-3.81077,0.06639 -8.93565,-5.1002 -13.93542,-10.38244c-5.32393,-5.62474 -8.87489,-8.47713 -9.71551,-15.13975c-0.75707,-6.00039 -0.77653,-9.90853 -1.12266,-15.24835c-0.25298,-3.90273 -2.26119,-6.44504 -2.57636,-10.42801z" fill="#ffffff" stroke="#000000" stroke-width="1.5" stroke-linecap="butt"/><path d="M261.1186,106.34272c0,0 1.49792,0.42529 4.16642,1.40908c2.43737,0.89859 4.31458,2.05495 4.31458,2.05495l0.11167,1.18124c0,0 -7.0096,-3.63584 -14.90272,-3.53556c-6.31115,0.08021 -10.13744,2.09929 -10.13744,2.09929l0.34162,-4.16309c0,0 3.24039,-1.4783 7.97539,-1.29365c4.90305,0.19121 8.0286,1.16311 8.0286,1.16311z" data-paper-data="{&quot;index&quot;:null}" fill="#000000" stroke="none" stroke-width="1.5" stroke-linecap="butt"/><g stroke="none" stroke-linecap="butt"><g><path d="M261.25761,151.54287c0,0 0.39182,16.84676 -7.57187,25.0543c-2.21161,2.27932 -9.48852,2.4985 -13.82694,2.38845c-4.15537,-0.10541 -9.43161,-1.01411 -12.09621,-2.89225c-9.17528,-6.46717 -8.64921,-25.5306 -8.64921,-25.5306c0,0 8.31578,-9.5848 14.38944,-9.45114c1.50913,0.03321 7.13942,3.78174 7.13942,3.78174c0,0 6.05249,-3.12312 10.56931,-1.60167c6.32955,2.13206 10.04607,8.25117 10.04607,8.25117z" fill="#000000" stroke-width="0"/><path d="M228.68287,144.34669c2.64676,-1.18381 4.11552,-1.16893 6.82737,-0.19649c1.93081,0.69762 7.6557,3.82049 7.6557,5.68077c0,0.42282 -6.89579,0.89163 -12.44968,0.89163c-4.70782,0 -8.85521,-0.46645 -8.85521,-0.80468c0,-0.84558 4.26175,-4.38735 6.82176,-5.57116z" data-paper-data="{&quot;noHover&quot;:false,&quot;origItem&quot;:[&quot;Path&quot;,{&quot;applyMatrix&quot;:true,&quot;segments&quot;:[[[732.89469,393.12859],[0,0],[-0.92188,0.4263]],[[730.47281,395.02411],[0,-0.3045],[0,0.1218]],[[733.56657,395.24487],[-1.69532,0],[2,0]],[[736.66033,394.99365],[0,0.15226],[0,-0.6699]],[[735.20721,393.02961],[0.6953,0.25122],[-0.97656,-0.35018]],[[732.89471,393.12857],[0.95312,-0.4263],[0,0]]],&quot;closed&quot;:true,&quot;fillColor&quot;:[0,0,0]}]}" fill="#ffffff" stroke-width="0.5"/><path d="M255.79113,147.82856l2.62422,3.08538l-5.07015,0.31227c-2.71186,0.14796 -12.54057,-0.73852 -13.66873,-0.92881c-1.84405,-0.35933 -0.18578,-0.07073 1.03553,-1.11461c3.267,-2.79236 4.59878,-5.29922 9.08961,-4.93983c2.45155,0.19022 3.73327,1.02769 5.98954,3.5856z" data-paper-data="{&quot;noHover&quot;:false,&quot;origItem&quot;:[&quot;Path&quot;,{&quot;applyMatrix&quot;:true,&quot;segments&quot;:[[[740.47281,393.10575],[0.88282,0.0685],[-1.61718,-0.12942]],[[738.32437,394.54451],[0,-1.24084],[0,0.57856]],[[739.11343,395.37427],[-0.66406,-0.1294],[0.40626,0.06852]],[[741.66031,395.44279],[-0.97656,0.05328],[0,0]],[743.44937,395.37427],[[742.49625,394.30091],[0,0],[-0.8125,-0.92112]]],&quot;closed&quot;:true,&quot;fillColor&quot;:[0,0,0]}]}" fill="#ffffff" stroke-width="0.5"/><path d="M230.9852,157.57448c0.91123,1.73343 2.22978,3.65058 2.9023,4.475c1.5186,1.73348 5.17412,2.30579 9.53481,1.54474c3.25425,-0.54961 3.28993,-0.44921 5.52448,-4.80396c1.32338,-2.5579 2.86633,-4.48459 3.60395,-4.63255c0.65086,-0.12679 1.63549,-0.22555 1.44021,0.13385c-2.99388,6.70121 -3.9828,8.67407 -5.50146,10.13269c-1.6054,1.58547 -2.47057,1.87666 -7.50378,1.81323c-7.0074,-0.08459 -9.28803,-1.54479 -12.26025,-7.16794c-2.58173,-4.77757 -2.68545,-5.48913 -1.03666,-5.1509c0.58577,0.14801 2.36352,1.859 3.2964,3.65584z" data-paper-data="{&quot;noHover&quot;:false,&quot;origItem&quot;:[&quot;Path&quot;,{&quot;applyMatrix&quot;:true,&quot;segments&quot;:[[[732.56655,396.53901],[0.21094,0.0533],[-0.59374,-0.1218]],[[732.94937,398.35841],[-0.9297,-1.72044],[1.07032,2.02494]],[[737.25405,400.83249],[-2.52342,-0.03046],[1.8125,0.02284]],[[739.87905,400.23109],[-0.57812,0.57094],[0.54688,-0.52526]],[[741.85561,396.66843],[-1.07812,2.41316],[0.07032,-0.12942]],[[741.51967,396.53901],[0.23438,-0.04566],[-0.26562,0.05328]],[[740.23061,398.23661],[0.47656,-0.92112],[-0.80468,1.56818]],[[738.20717,400.05601],[1.17188,-0.19792],[-1.57032,0.27406]],[[734.61343,399.45461],[0.54686,0.62424],[-0.24218,-0.29688]],[[733.56655,397.78747],[0.32814,0.62422],[-0.33594,-0.64706]]],&quot;closed&quot;:true,&quot;fillColor&quot;:[0,0,0]}]}" fill="#ffffff" stroke-width="0.5"/><path d="M225.93744,158.10295c1.64879,3.38238 3.79459,6.63057 4.79256,7.45499c2.58167,2.15624 6.02934,2.79882 11.80016,2.52402c6.20476,-0.27481 7.49004,-1.001 10.78766,-8.27305c1.19325,-2.70585 2.73816,-5.26859 3.34564,-5.8182c1.06307,-0.90901 1.63398,-0.70356 1.22177,5.02528c-0.84608,14.33265 -4.21724,17.66602 -18.25381,17.66602c-7.46304,-0.06343 -10.79596,-1.03402 -13.2475,-3.80331c-2.06099,-2.2831 -2.87756,-5.00495 -4.20094,-13.65103c-1.1932,-8.03304 -1.08826,-7.54663 -0.28555,-7.54663c0.3254,0 2.45626,3.03959 4.04001,6.4219z" data-paper-data="{&quot;noHover&quot;:false,&quot;origItem&quot;:[&quot;Path&quot;,{&quot;applyMatrix&quot;:true,&quot;segments&quot;:[[[730.47281,395.74731],[0.11718,0],[-0.28906,0]],[[730.58999,398.43453],[-0.42968,-2.89276],[0.47656,3.11352]],[[732.08999,403.26849],[-0.74218,-0.82216],[0.88282,0.99724]],[[736.77749,404.59307],[-2.6875,-0.02284],[5.05468,0]],[[743.25405,398.35841],[-0.30468,5.1613],[0.14844,-2.063]],[[742.99623,396.47051],[0.38282,-0.32734],[-0.21876,0.19792]],[[741.80091,398.58679],[0.4297,-0.9744],[-1.1875,2.61872]],[[737.87903,401.67747],[2.23438,-0.09896],[-2.07812,0.09896]],[[733.47279,400.70307],[0.92968,0.77648],[-0.35938,-0.29688]],[[731.75405,397.96255],[0.59374,1.21802],[-0.57032,-1.218]]],&quot;closed&quot;:true,&quot;fillColor&quot;:[0,0,0]}]}" fill="#ffffff" stroke-width="0.5"/></g><path d="M246.80614,176.65074c-0.5,0 -0.5,-0.5 -0.5,-0.5l0.02566,-0.55811c0.09188,-0.27567 0.1808,-0.72197 0.1808,-0.72197c0.41175,-1.27361 0.70805,-2.35203 0.86499,-3.51777c0.02709,-0.38274 0.06252,-0.77211 0.10735,-1.16068c0.01406,-0.27116 0.02121,-0.55069 0.02121,-0.84146c0,-0.36312 0.14514,-1.06596 -0.14457,-0.84705c-0.20524,0.3268 -0.43213,0.75539 -0.56733,1.16981c-0.2396,0.73447 -0.3101,1.42443 -0.3101,1.42443c-0.06283,0.20431 -0.25307,0.35282 -0.47799,0.35282c-0.27614,0 -0.5,-0.22386 -0.5,-0.5v-1.6c0.0097,-0.7815 -0.06953,-0.88334 -0.65355,-1.44645c0,0 -0.35355,-0.35355 0,-0.70711c1.35576,-1.35576 2.79691,-0.83709 4.63836,-0.75597c-0.15144,0.5515 -0.25684,1.12205 -0.31181,1.70726c-0.01393,0.01147 -0.02861,0.02304 -0.04412,0.03473c-0.24068,0.18132 -0.12689,5.45125 -1.53595,7.16044c0,0 -0.08786,0.46876 -0.31263,0.6212l0.01972,0.18588c0,0 0,0.5 -0.5,0.5z" fill="#000000" stroke-width="0.5"/></g><path d="M240.34497,147.62885c-1.03376,0 -3.5381,-3.26042 -3.7867,-5.3637c-0.22243,-1.88186 1.31512,-3.82799 3.7867,-3.82799c2.47159,0 4.2021,0.49077 4.02999,4.18853c-0.14607,3.13818 -1.55841,5.00317 -4.02999,5.00317z" fill="#ffffff" stroke="#000000" stroke-width="1.15" stroke-linecap="butt"/><path d="M243.94707,117.5352c0,0 0.1026,3.96976 0.00576,7.12662c-0.19174,6.25113 -1.08147,27.7607 -1.08147,27.7607l-2.98167,0.00864c0,0 -0.80294,-4.17274 -1.12322,-9.49979c-0.43353,-7.21063 -0.4495,-16.29321 -0.76344,-19.63229c-0.29758,-3.16513 -0.89593,-5.71453 -0.89593,-5.71453" fill="#ffffff" stroke="#000000" stroke-width="1.3" stroke-linecap="round"/><path d="M214.41247,128.32504c0,0 -4.93211,-3.51705 -6.16417,-8.97502c-1.29636,-5.74284 -1.46118,-9.7328 0.48013,-9.99193c1.94131,-0.25915 2.70321,2.37692 3.73262,8.35569c1.0294,5.97877 1.95143,10.61127 1.95143,10.61127z" data-paper-data="{&quot;index&quot;:null}" fill="#ffffff" stroke="#000000" stroke-width="1" stroke-linecap="butt"/><path d="M214.20987,124.3775c0,0 -3.56385,-2.92338 -4.31816,-8.45061c-0.42079,-3.08327 2.15675,-2.28016 2.15675,-2.28016" fill="none" stroke="#000000" stroke-width="0.25" stroke-linecap="round"/><path d="M217.22328,117.72159c0.07093,-4.89188 4.83834,-8.93609 10.21137,-8.8582c5.37302,0.0779 9.02724,4.2484 8.95632,9.14029c-0.07093,4.89188 -4.12352,8.79439 -9.49655,8.7165c-5.37302,-0.0779 -9.74207,-4.1067 -9.67114,-8.99859z" fill="#000000" stroke="#000000" stroke-width="1.4" stroke-linecap="butt"/><path d="M221.66092,117.83953c0.03999,-2.75843 2.30855,-4.96213 5.06696,-4.92214c2.75843,0.03999 4.96213,2.30855 4.92214,5.06696c-0.03999,2.75843 -2.30854,4.96213 -5.06696,4.92214c-2.75843,-0.03999 -4.96213,-2.30855 -4.92214,-5.06696z" fill="#ffffff" stroke="none" stroke-width="1.5" stroke-linecap="butt"/><path d="M244.27956,117.72232c0.20353,-4.88817 4.45264,-8.85847 9.77048,-8.85847c5.31783,0 9.27453,3.96607 9.27453,8.85847c0,4.8924 -3.88585,9.07104 -9.69964,9.14188c-5.52997,0.06739 -9.55792,-4.03692 -9.34537,-9.14188z" fill="#000000" stroke="#000000" stroke-width="1.4" stroke-linecap="butt"/><path d="M220.72658,107.26572c0,0 3.4977,-1.55859 8.18217,-1.66693c5.19098,-0.12006 7.75095,0.5222 7.75095,0.5222l-0.0191,4.14794c0,0 -3.77298,-0.96916 -7.95546,-1.12683c-5.59356,-0.21088 -6.73432,0.92559 -11.00967,1.06046c-3.66335,0.11557 -6.72991,-0.35183 -6.72991,-0.35183l0.06745,-1.22997c0,0 3.57925,0.34603 5.22386,0.32819c1.35741,-0.01474 4.03533,-0.6343 4.03533,-0.6343z" fill="#000000" stroke="none" stroke-width="1.5" stroke-linecap="butt"/><path d="M268.64563,117.71377c1.0294,-5.97877 1.7913,-8.61483 3.73262,-8.35569c1.94131,0.25914 1.77649,4.24909 0.48013,9.99193c-1.23206,5.45797 -6.16417,8.97502 -6.16417,8.97502c0,0 0.92203,-4.6325 1.95143,-10.61127z" data-paper-data="{&quot;index&quot;:null}" fill="#ffffff" stroke="#000000" stroke-width="1" stroke-linecap="butt"/><path d="M269.05818,113.64671c0,0 2.57754,-0.80312 2.15675,2.28016c-0.75431,5.52723 -4.31816,8.45061 -4.31816,8.45061" data-paper-data="{&quot;index&quot;:null}" fill="none" stroke="#000000" stroke-width="0.25" stroke-linecap="round"/><path d="M253.02631,122.00639c0.29611,0.01014 0.53775,0.16707 0.60833,0.37401l0.08921,0.23839c0.08007,-0.11205 0.23165,-0.21606 0.51732,-0.23328c0.65687,-0.0396 0.70904,0.45884 0.70904,0.45884c0.1586,1.51716 0.11128,3.12729 0.20167,4.70259c0.0886,0.06857 0.17692,0.15297 0.26364,0.25469c0.62574,0.73377 0.15419,3.19849 0.09862,4.13326l-0.02971,0.4995c-0.01641,0.27586 -0.32442,0.4894 -0.68797,0.47695c-0.36355,-0.01245 -0.64497,-0.24617 -0.62858,-0.52203l0.02971,-0.49949c0.00296,-0.05 0.00542,-0.09996 0.00739,-0.14987c-0.45841,-0.35551 -0.55366,-1.1726 -0.55679,-1.76716l-0.5493,0.29602c0.12933,2.30798 0.25419,4.61332 0.12367,6.90741l-0.0396,0.68436c0,0 -0.0289,0.49951 -0.68721,0.47758c-0.65831,-0.02193 -0.6294,-0.52145 -0.6294,-0.52145l0.0396,-0.68436c0.2767,-4.6995 -0.53522,-9.45116 -0.2556,-14.17207c0,0 0.02971,-0.49949 0.68797,-0.47696c0.01641,-0.27586 0.32441,-0.4894 0.68796,-0.47695z" fill="#000000" stroke="none" stroke-width="0.5" stroke-linecap="butt"/><path d="M217.15483,117.18938c0,0 0.06357,-9.01512 10.60111,-8.8249c9.47101,0.16586 9.55554,9.40723 9.55554,9.40723z" fill="#000000" stroke="#000000" stroke-width="1.15" stroke-linecap="butt"/><path d="M280.93312,106.25526c0,0 -3.41215,2.34212 -8.30356,7.27729c-5.92465,5.97764 -15.22513,17.89223 -22.59626,22.19205c-13.45678,7.84979 -38.93351,12.78066 -38.93351,12.78066c0,0 -2.67878,-5.11595 -3.45559,-7.48725c-0.80549,-2.45886 -1.29441,-6.92942 -1.29441,-6.92942c0,0 20.03407,-4.93348 31.36978,-11.37247c7.6433,-4.34161 21.48771,-15.69746 31.12093,-24.01131c5.03464,-4.34509 9.34262,-6.36622 9.34262,-6.36622c0,0 0.89159,5.03747 1.45807,7.52126c0.51116,2.24124 1.29193,6.39541 1.29193,6.39541z" fill="#373737" stroke="none" stroke-width="0.5" stroke-linecap="round"/><path d="M205.97566,134.13306c0,0 17.28681,-2.81493 25.95978,-8.67921c7.31901,-4.9488 14.65406,-20.24133 24.66564,-29.86703c7.72791,-7.43005 18.37458,-12.20376 18.37458,-12.20376c0,0 3.68435,7.94232 4.30968,10.53297c0.52293,2.1664 0.19032,5.96703 0.19032,5.96703c0,0 -6.16467,2.86757 -12.62298,9.1144c-6.96198,6.73401 -13.30109,18.0303 -19.6278,22.39276c-10.68812,7.36979 -36.49922,16.24284 -36.49922,16.24284c0,0 -2.3134,-3.88506 -3.07557,-6.51031c-0.76217,-2.62525 -1.67443,-6.98969 -1.67443,-6.98969z" fill="#424242" stroke="#000000" stroke-width="0" stroke-linecap="round"/><path d="M204.33497,89.2601c0.37038,-1.88895 3.26481,-5.92556 3.26481,-5.92556c0,0 6.79929,0.7016 18.07216,6.70183c12.7259,6.77363 27.71696,17.77746 34.93387,21.15662c7.59307,3.55528 18.82731,7.80822 18.82731,7.80822c0,0 0.95596,4.59888 1.23818,7.70323c0.30002,3.30032 -0.32151,8.88012 -0.32151,8.88012c0,0 -13.13355,0.09862 -24.67034,-5.96184c-5.98262,-3.14277 -15.47846,-12.40052 -24.18554,-18.6946c-12.00042,-8.67475 -28.47745,-14.51023 -28.47745,-14.51023z" fill="#515151" stroke="none" stroke-width="0.5" stroke-linecap="round"/><path d="M251.7033,123.33907c-13.80199,-11.72271 -29.72298,-24.66529 -36.0626,-30.27425c-6.12337,-5.41762 -8.79091,-9.73026 -8.79091,-9.73026c0,0 2.29591,-4.73099 3.3765,-6.33186c1.16331,-1.72341 6.9735,-7.85147 6.9735,-7.85147c0,0 9.0634,7.46288 13.73554,11.63427c4.67213,4.17139 14.42687,15.65435 26.82554,28.47245c12.90776,13.3444 22.92225,22.8266 22.92225,22.8266c0,0 -0.28371,7.13793 -0.74855,9.03954c-0.45144,1.84677 -2.00145,4.21046 -2.00145,4.21046c0,0 -11.92087,-9.84218 -26.22982,-21.99548z" fill="#666666" stroke="none" stroke-width="0.5" stroke-linecap="round"/><path d="M215.05758,267.00228c0,0 -1.16468,-3.66445 -1.3529,-5.85246c-0.3692,-4.29197 -0.6836,-27.58383 -1.46385,-51.0829c-0.15607,-4.70037 2.44275,-7.14554 2.13838,-15.64223c-0.28048,-7.82994 -1.98829,-37.42241 -1.98829,-37.42241c0,0 2.59539,-2.03594 3.84331,-2.85459c1.1849,-0.77731 3.46494,-1.93972 3.46494,-1.93972c0,0 4.90093,16.73262 7.99678,19.66866c4.13218,3.91887 22.58342,3.56796 26.79233,-0.40828c3.39038,-3.20295 6.58153,-18.6004 6.58153,-18.6004c0,0 2.62889,1.30418 3.89312,2.25195c1.20064,0.9001 3.51132,3.29906 3.51132,3.29906c0,0 0.22924,26.55471 -0.23856,35.02458c-0.46796,8.47276 2.66078,11.35518 2.4658,16.2687c-0.94301,23.76459 -2.1974,47.32046 -2.54221,51.96719c-0.18491,2.49196 -1.6017,4.82287 -1.6017,4.82287z" fill="#0c0c0c" stroke="none" stroke-width="0" stroke-linecap="butt"/><path d="M217.03701,215.59952c-1.54435,-1.16987 -1.1058,-22.21052 0,-23.30337c1.50494,-1.48733 15.75972,-0.35525 16.79522,0.62982c1.07035,1.01821 1.13038,21.89166 0,23.30337c-1.06707,1.33263 -15.25902,0.53389 -16.79522,-0.62982z" fill="#0a0a0a" stroke="#000000" stroke-width="0" stroke-linecap="butt"/><path d="M240.40375,266.69534v-91.88637h1.2807v91.88637z" fill="#000000" stroke="none" stroke-width="0" stroke-linecap="butt"/><path d="M217.03701,210.59952c-1.54435,-1.16987 -1.1058,-22.21052 0,-23.30337c1.50494,-1.48733 15.75972,-0.35525 16.79522,0.62982c1.07035,1.01821 1.13038,21.89166 0,23.30337c-1.06707,1.33263 -15.25902,0.53389 -16.79522,-0.62982z" fill="#101010" stroke="#000000" stroke-width="0" stroke-linecap="butt"/><path d="M248.69525,216.06266c-1.13038,-1.41171 -1.07035,-22.28515 0,-23.30337c1.03551,-0.98507 15.29028,-2.11715 16.79522,-0.62982c1.1058,1.09285 1.54435,22.13349 0,23.30337c-1.5362,1.16371 -15.72816,1.96245 -16.79522,0.62982z" data-paper-data="{&quot;index&quot;:null}" fill="#0a0a0a" stroke="#000000" stroke-width="0" stroke-linecap="butt"/><path d="M234.18964,187.86216c0,0 -9.43078,8.39712 -10.6,8.4c-0.76596,0.00188 -7.075,-8.8 -7.075,-8.8c0,0 0.95198,-0.56751 2.73735,-0.8453c1.45128,-0.22582 3.45325,-0.17539 5.94219,-0.15685c2.72008,0.02026 5.25566,0.22096 6.93686,0.60597c1.275,0.29198 2.05859,0.79617 2.05859,0.79617z" fill="#161616" stroke="#000000" stroke-width="0" stroke-linecap="round"/><path d="M248.86192,211.42931c-1.13038,-1.41171 -1.07035,-22.28515 0,-23.30336c1.03551,-0.98507 15.29027,-2.11716 16.79522,-0.62983c1.1058,1.09285 1.54435,22.1335 0,23.30337c-1.5362,1.16371 -15.72815,1.96245 -16.79522,0.62982z" data-paper-data="{&quot;index&quot;:null}" fill="#101010" stroke="#000000" stroke-width="0" stroke-linecap="butt"/><path d="M248.38963,188.11216c0,0 0.78359,-0.50419 2.05859,-0.79617c1.6812,-0.38501 4.21678,-0.58571 6.93686,-0.60597c2.48894,-0.01854 4.49091,-0.06897 5.94219,0.15685c1.78537,0.27779 2.73735,0.8453 2.73735,0.8453c0,0 -6.30905,8.80188 -7.075,8.8c-1.16922,-0.00288 -10.6,-8.4 -10.6,-8.4z" data-paper-data="{&quot;index&quot;:null}" fill="#161616" stroke="#000000" stroke-width="0" stroke-linecap="round"/><path d="M274.38891,185.26563c0.03392,-0.11245 0.08968,-0.22941 0.1707,-0.34976c0.03934,-0.05844 0.10164,-0.11495 0.18271,-0.1685c0.51231,-0.92278 1.06023,-0.86583 1.90798,-1.15327c0.00222,-0.00075 0.00424,-0.00183 0.00606,-0.00321c-0.07229,-0.23312 -0.14084,-0.45737 -0.20486,-0.66282c-0.38242,-0.88686 -1.12577,-2.38708 -1.02496,-2.77352c0.55481,-2.12677 6.55723,-1.10065 6.55723,-1.10065l0.88307,11.71843c0,0 -1.59023,1.27351 -1.75,2c-0.19307,0.87791 -0.02394,1.85793 -0.25,2.75c-0.21615,0.85296 -1.34674,2.04548 -0.98662,2.63512c-0.40161,0.9376 -3.3669,5.82215 -4.67533,4.01287c-0.91435,-1.26435 0.5046,-4.09551 -0.25,-5.5c-0.64061,-1.19234 -2.55875,0.92918 -2.05578,-1.39901c0.08519,-1.09195 1.02899,-2.9863 0.74448,-3.99898c-0.34895,-1.24207 -2.71009,-2.99287 -2.49663,-4.24321c0.11879,-0.69583 1.04727,-0.61805 1.48325,-0.62167c0.30959,-0.00256 0.71632,-0.03435 1.17028,-0.07226c0.12706,-0.35757 0.36754,-0.7429 0.5884,-1.06956zM277.90589,186.49933c-0.05669,-0.04907 -0.1135,-0.11438 -0.17021,-0.19339c-0.0762,0.01433 -0.15414,0.02605 -0.23259,0.03597c0.15204,0.04127 0.28769,0.09311 0.40281,0.15742zM277.02668,180.80386c0,0 -0.09382,-0.51036 -0.10395,-0.94174c-0.23918,0.0727 -0.42141,0.20884 -0.50062,0.44181c0.3619,-0.14333 0.60457,0.49994 0.60457,0.49994z" fill="#650a0a" stroke="none" stroke-width="0.5" stroke-linecap="butt"/><path d="M271.37786,219.12913c-0.09137,-0.03673 -0.18107,-0.1108 -0.24971,-0.24807c-0.22361,-0.44721 0.22361,-0.67082 0.22361,-0.67082c0.83444,-0.41531 3.0004,-2.47815 4.02652,-1.70058c0.461,0.34933 -0.36202,1.6364 0.20995,1.72247c3.88115,0.58405 3.37402,2.23108 2.16211,5.68875c-1.57501,1.60404 0.31157,3.48022 -0.74252,5.23754c-0.58566,0.97637 -2.50353,2.68284 -3.60778,1.2619c-0.73846,-0.95023 -0.58613,-2.96878 -0.5613,-4.14799c-0.61979,-1.15155 -1.36643,-0.64015 -1.99192,-1.96998c-0.92958,-1.97636 0.00889,-3.60989 0.68351,-5.14206c-0.00338,-0.00011 -0.00677,-0.00026 -0.01017,-0.00044l-0.04834,0.10116c0,0 -0.05028,-0.05028 -0.09395,-0.13188z" fill="#650a0a" stroke="none" stroke-width="0.5" stroke-linecap="butt"/><path d="M207.34129,239.18636c2.12806,1.24659 3.00262,6.16106 3.73068,8.34523c0.01322,2.21235 -0.62193,5.21622 -2.8022,6.29203c-1.08943,0.53756 -2.82306,0.26861 -3.68229,-0.63311c-0.80404,-0.19437 -1.52868,-0.46323 -2.56771,-0.11689c-1.10064,0.21071 -1.96456,4.20012 -4.09696,1.33042c-0.47798,-0.64325 -0.64426,-1.91017 -0.64426,-1.91017l0.29712,-16.56817c0,0 4.10057,0.07828 4.7147,1.24464c0.19328,0.36707 0.02599,0.97217 0.39161,1.33779c0.52218,0.52218 1.20796,0.76462 1.91289,0.98867c0.89703,-0.30146 1.92039,-0.79432 2.74642,-0.31044z" fill="#650a0a" stroke="none" stroke-width="0.5" stroke-linecap="butt"/><path d="M202.07538,185.87639c-0.95916,-2.04443 -1.54329,-4.25929 -0.53701,-6.46602c0.62033,-1.36035 2.28931,-0.93754 2.81847,-1.88252c0.50341,-0.89898 0.13879,-2.9542 0.13879,-3.91521c0.04243,-2.74345 3.26602,-5.78656 5.8309,-3.12484c1.37052,1.42227 0.9191,4.55697 0.9191,6.37537c-0.002,0.83023 -0.46934,2.13447 -0.26338,2.8846c0.31651,1.15274 1.50997,2.74351 1.25,3.97975c-0.47586,2.26287 -2.33014,4.59105 -3.28941,6.60873c-1.44947,2.69308 1.28048,6.11451 0.01473,8.46773c-1.24505,2.31473 -2.99926,0.64442 -3.69856,-0.82647c-0.04384,-3.38801 -2.75908,-3.84791 -4.18684,-6.09902c-0.91868,-1.44846 -0.06207,-4.60299 1.00321,-6.00212z" fill="#650a0a" stroke="none" stroke-width="0.5" stroke-linecap="butt"/><path d="M211.22863,214.91516c0.23037,0.27884 0.43022,0.58593 0.58058,0.91316c0.69446,1.63897 0.05919,3.22493 0.33538,4.91248c0.2984,1.82327 0.83523,4.42029 0.00511,6.21912l0.17704,0.09826l-0.26602,0.47931c-0.08737,0.16552 -0.26453,0.27496 -0.46394,0.26638c-0.19942,-0.00858 -0.36651,-0.13284 -0.43934,-0.30526l-0.18355,-0.41032c-1.83353,-1.34663 -4.15085,-1.62788 -5.99074,-2.89686c-0.33774,-0.23294 -0.96054,-0.99017 -0.92492,-1.46646c0.12187,-1.62966 3.7473,-1.38297 3.6342,-2.73136c-0.36258,-0.74918 -1.98349,-3.60189 -1.82466,-4.2774c0.2232,-0.94929 1.45245,-0.67117 1.85069,-0.31495c0.37363,0.3342 0.03748,-1.15868 0.45728,-1.43264c0.52246,-0.34096 2.19618,0.01979 2.76352,0.04421c0,0 0.49954,0.0215 0.47803,0.52104c-0.00848,0.1971 -0.09139,0.31309 -0.18867,0.38128z" fill="#650a0a" stroke="none" stroke-width="0.5" stroke-linecap="butt"/><path d="M198.82832,306.14153c0,0 -0.5,-3.38914 -0.5,-5.37711c0,-2.475 0.5,-8.33452 0.5,-8.33452l13.75,-0.26886c0,0 0.5,3.62886 0.5,5.64597c0,2.32916 -0.5,7.52796 -0.5,7.52796c0,0 -6.46277,0.91681 -8.9869,1.06488c-1.8376,0.10779 -4.7631,-0.25831 -4.7631,-0.25831z" fill="#5d5d5d" stroke="none" stroke-width="0" stroke-linecap="butt"/><path d="M199.08755,281.86591c0,0 -0.38194,-2.20565 -0.45622,-3.49176c-0.09171,-1.58785 -0.05286,-5.32232 -0.05286,-5.32232c0,0 5.72677,-1.09059 8.19297,-1.3302c2.03023,-0.19725 5.55234,-0.00527 5.55234,-0.00527c0,0 0.25454,3.69679 0.25454,5.60896c0,2.00115 -0.25454,6.14315 -0.25454,6.14315c0,0 -3.22532,0.8704 -5.38265,0.61888c-2.39878,-0.27967 -7.85358,-2.22144 -7.85358,-2.22144z" fill="#6e6e6e" stroke="none" stroke-width="0" stroke-linecap="butt"/><path d="M198.6019,293.38858c0,0 -0.27358,-5.4735 -0.27358,-7.43647c0,-1.75574 0.27358,-4.98918 0.27358,-4.98918c0,0 1.62418,-0.06991 3.51004,0.16788c1.82259,0.22981 3.88959,0.76759 4.97109,0.76759c2.42799,0 5.4717,-0.93547 5.4717,-0.93547c0,0 0.27358,5.28095 0.27358,7.48377c0,1.74148 -0.27358,4.67736 -0.27358,4.67736c0,0 -2.12095,1.35329 -4.46629,0.8176c-1.95095,-0.44561 -4.05718,-0.92736 -5.22698,-1.11036c-1.70769,-0.26715 -4.25956,0.55729 -4.25956,0.55729z" fill="#666666" stroke="none" stroke-width="0" stroke-linecap="butt"/><path d="M265.70835,277.95288l-0.2211,22.62727c0,0 -6.56223,2.09855 -8.71957,2.64915c-2.28145,0.56012 -3.46015,-1.12198 -5.50161,-1.81556c-0.97102,-0.3299 -1.9257,-0.01412 -2.89975,-0.17597c-3.44177,-0.57187 -3.83211,-3.63325 -3.41592,-6.55651c0.478,-4.30501 -3.99085,-11.05445 1.90467,-13.59897c1.11945,-0.48316 2.60948,-0.23808 3.80051,-0.23798c3.97516,0.14814 5.12223,-1.31009 8.58856,-2.75734c3.46632,-1.44725 6.46422,-0.13408 6.46422,-0.13408z" data-paper-data="{&quot;index&quot;:null}" fill="#4f0808" stroke="none" stroke-width="0.5" stroke-linecap="butt"/></g></g></svg>