<svg version="1.1" xmlns="http://www.w3.org/2000/svg" xmlns:xlink="http://www.w3.org/1999/xlink" width="116.79681" height="242.43666" viewBox="0,0,116.79681,242.43666"><defs><linearGradient x1="240.97421" y1="164.99812" x2="240.97421" y2="211.66479" gradientUnits="userSpaceOnUse" id="color-1"><stop offset="0" stop-color="#1b1b1b"/><stop offset="1" stop-color="#313131"/></linearGradient><linearGradient x1="241.09873" y1="74.17679" x2="241.09873" y2="140.37834" gradientUnits="userSpaceOnUse" id="color-2"><stop offset="0" stop-color="#202020"/><stop offset="1" stop-color="#323232"/></linearGradient></defs><g transform="translate(-183.67183,-66.27132)"><g data-paper-data="{&quot;isPaintingLayer&quot;:true}" fill-rule="nonzero" stroke-linejoin="miter" stroke-miterlimit="10" stroke-dasharray="" stroke-dashoffset="0" style="mix-blend-mode: normal"><path d="M243.90497,147.86875h36l13.33333,71.83334l-45,40.83333z" data-paper-data="{&quot;index&quot;:null}" fill="#0c0c0c" stroke="none" stroke-width="0" stroke-linecap="butt"/><path d="M234.7383,261.86875l-46,-43l13.66667,-72.5h36z" fill="#0c0c0c" stroke="none" stroke-width="0" stroke-linecap="butt"/><path d="M240.18481,215.32146l49.58333,10.33333l-49,48l-48,-47.99999z" fill="#b31212" stroke="#000000" stroke-width="0" stroke-linecap="round"/><path d="M231.18426,308.70798v-155h19.66667v155z" fill="#810d0d" stroke="none" stroke-width="0" stroke-linecap="butt"/><path d="M212.10944,231.12043v-92h58v92z" fill="#232323" stroke="none" stroke-width="0" stroke-linecap="butt"/><path d="M218.47421,211.66479v-46.66667h45v46.66667z" fill="#0c0c0c" stroke="url(#color-1)" stroke-width="2" stroke-linecap="butt"/><path d="M219.77611,248.97436v-18h43.33333v18z" fill="#660a0a" stroke="none" stroke-width="0" stroke-linecap="butt"/><path d="M281.66723,152.49833c0,0 -6.3451,14.48976 -15.11279,21.35647c-8.2643,6.47245 -16.99153,16.86297 -25.9204,16.84154c-8.18338,-0.01964 -16.57613,-9.90529 -24.09215,-15.911c-9.20539,-7.35561 -15.62468,-21.03701 -15.62468,-21.03701" fill="none" stroke="#740c0c" stroke-width="3.5" stroke-linecap="round"/><path d="M240.74101,188.87397c-16.87227,-0.65525 -53.47635,-24.83582 -55.31918,-41.17576c-1.86728,-16.55667 41.12971,-27.87922 54.52174,-28.21094c12.39251,-0.30696 59.09437,12.34257 58.77342,28.21094c-0.35291,17.44846 -40.64722,41.84874 -57.97598,41.17576z" data-paper-data="{&quot;index&quot;:null}" fill="none" stroke="#740c0c" stroke-width="3.5" stroke-linecap="round"/><path d="M195.20255,139.97481v-15.75h91.5v15.75z" fill="#1d1d1d" stroke="none" stroke-width="0" stroke-linecap="butt"/><path d="M197.45837,148.69237v-82.42105h55.82107l6.28571,0.57143l4.57143,-0.57143h20.3218v82.42105z" fill="#2b2b2b" stroke="none" stroke-width="0" stroke-linecap="butt"/><path d="M206.09872,140.37834v-66.20155h70v66.20155z" fill="url(#color-2)" stroke="none" stroke-width="0" stroke-linecap="butt"/><path d="M208.84872,137.87834v-61h64.5v61z" fill="#0c0c0c" stroke="none" stroke-width="0" stroke-linecap="butt"/><g fill="#b31212" stroke="none" stroke-width="0" stroke-linecap="butt"><path d="M222.71735,113.01247v-20.5h8.31081v20.5z"/><path d="M219.4741,112.01247v-18.5h15v18.5z"/></g><g fill="#b31212" stroke="none" stroke-width="0" stroke-linecap="butt"><path d="M250.46735,113.26247v-20.5h8.31081v20.5z"/><path d="M247.2241,112.26247v-18.5h15v18.5z"/></g><path d="M208.77159,125.4529v-2.5c0,0 19.58067,-2 32.31289,-2c12.73222,0 32.43711,2 32.43711,2v2.5c0,0 -19.71473,-1.75 -32.43711,-1.75c-12.72238,0 -32.31289,1.75 -32.31289,1.75z" fill="#b31212" stroke="none" stroke-width="0" stroke-linecap="butt"/><path d="M259.85085,68.90686l-0.14285,-1.90476l4.71429,-0.71429z" fill="#3c3c3c" stroke="none" stroke-width="0.5" stroke-linecap="round"/><g stroke="none" stroke-width="0" stroke-linecap="butt"><path d="M258.27028,181.12819c3.12402,12.35312 -17.49806,23.76604 -17.49806,23.76604c0,0 -19.99623,-13.17033 -16.97574,-25.07186c3.12317,-12.30608 16.97574,-3.39515 16.97574,-3.39515c0,0 13.98843,-9.17698 17.49806,4.70096z" fill="#990f0f"/><path d="M240.5354,204.6996l0.63726,-12.27254l-2.86961,-3.91348l2.08311,-12.37426l0.35136,0.28815l0.45078,-0.2384l-2.08932,12.29342l2.65719,3.79547l-0.7171,12.52113l-0.3459,0.08946z" fill="#740c0c"/><path d="M241.86293,185.54929c-0.1323,0.64796 -0.51466,1.1078 -0.85401,1.02711c-0.33935,-0.0807 -0.50723,-0.67138 -0.37493,-1.31933c0.1323,-0.64796 0.51466,-1.1078 0.85401,-1.02711c0.33935,0.0807 0.50723,0.67138 0.37493,1.31933z" fill="#740c0c"/><path d="M240.20841,193.77611c0.00481,0.6613 -0.27397,1.19039 -0.6227,1.18175c-0.34872,-0.00864 -0.63532,-0.55174 -0.64012,-1.21304c-0.00481,-0.6613 0.27397,-1.19039 0.6227,-1.18175c0.34872,0.00864 0.63532,0.55174 0.64012,1.21304z" fill="#740c0c"/><path d="M238.3065,178.32336c-0.17181,2.0699 -3.0611,3.51965 -6.45345,3.23807c-3.39233,-0.28156 -6.0031,-2.1878 -5.83131,-4.2577c0.17181,-2.0699 3.0611,-3.51965 6.45345,-3.23807c3.39233,0.28156 6.0031,2.1878 5.83131,4.2577z" fill="#b31212"/><path d="M254.49621,177.16731c0.17615,1.94316 -2.2627,3.75244 -5.44733,4.04112c-3.18463,0.28869 -5.90907,-1.05252 -6.08523,-2.99568c-0.17615,-1.94316 2.2627,-3.75244 5.44733,-4.04112c3.18463,-0.28869 5.90907,1.05252 6.08523,2.99569z" fill="#b31212"/></g></g></g></svg>