<svg version="1.1" xmlns="http://www.w3.org/2000/svg" xmlns:xlink="http://www.w3.org/1999/xlink" width="110.57501" height="238.21174" viewBox="0,0,110.57501,238.21174"><defs><linearGradient x1="243.36088" y1="70.49866" x2="241.99721" y2="172.80448" gradientUnits="userSpaceOnUse" id="color-1"><stop offset="0" stop-color="#666666"/><stop offset="1" stop-color="#484848"/></linearGradient><linearGradient x1="240.72926" y1="160.41735" x2="240.72926" y2="166.52395" gradientUnits="userSpaceOnUse" id="color-2"><stop offset="0" stop-color="#484848"/><stop offset="1" stop-color="#656565"/></linearGradient><linearGradient x1="238.46421" y1="164.09982" x2="238.46421" y2="306.98843" gradientUnits="userSpaceOnUse" id="color-3"><stop offset="0" stop-color="#666666"/><stop offset="1" stop-color="#484848"/></linearGradient></defs><g transform="translate(-183.93597,-68.77672)"><g data-paper-data="{&quot;isPaintingLayer&quot;:true}" fill-rule="nonzero" stroke="none" stroke-linecap="butt" stroke-linejoin="miter" stroke-miterlimit="10" stroke-dasharray="" stroke-dashoffset="0" style="mix-blend-mode: normal"><path d="M199.45773,118.29616c0,0 6.24167,-5.8392 6.38152,-6.70315c0.36677,-2.26594 0.36769,-40.17184 36.51866,-41.09074c44.64454,-0.31862 38.54029,35.86558 40.96487,42.74008c3.32447,9.42599 5.92418,17.48067 5.92418,17.48067c0,0 -2.73953,-2.09021 -4.03757,-3.18807c-1.21066,-1.02396 -3.75916,-3.19624 -3.75916,-3.19624c0,0 2.95291,10.38838 1.03498,20.71061c-1.68852,9.45932 -7.52675,17.12663 -7.52675,17.12663l-1.12383,-2.36254c0,0 -1.05186,2.18411 -2.20428,3.30365c-1.15242,1.11953 -3.47725,2.86664 -3.47725,2.86664l-0.04267,-3.70511c0,0 -7.20632,10.92287 -24.49339,10.54603c-16.3014,-0.47278 -25.92691,-11.02174 -25.92691,-11.02174l-0.15157,2.65306c0,0 -3.85054,-3.34438 -6.05152,-9.78906c-2.62331,-7.68132 -3.07599,-12.28533 -3.07599,-12.28533c0,0 -2.36418,1.86782 -5.75351,2.69796c-4.24702,1.04022 -6.95063,0.25264 -6.95063,0.25264c0,0 3.64384,-2.66884 5.64704,-4.69504c1.78428,-1.80478 2.69136,-3.34165 2.69136,-3.34165c0,0 -2.12185,1.05651 -4.25396,1.56139c-2.22461,0.5268 -4.0368,0.47717 -4.0368,0.47717c0,0 5.04162,-4.97053 7.17505,-10.77962c2.0143,-5.48472 2.24557,-10.92835 2.24557,-10.92835c0,0 -1.37035,0.64342 -3.34043,0.75067c-1.24878,0.06799 -2.37699,-0.08059 -2.37699,-0.08059z" fill="url(#color-1)" stroke-width="1.5"/><path d="M208.26865,166.52395c0,0 2.1889,-1.14804 1.66602,-2.04455c-0.52287,-0.89651 -5.22758,-4.06205 -5.22758,-4.06205h72.04433c0,0 -6.44152,3.76989 -6.67562,4.12254c-0.76342,1.14993 1.79677,1.98406 1.79677,1.98406z" fill="url(#color-2)" stroke-width="0"/><path d="M290.57508,186.66221c-0.04639,2.34739 -2.38427,6.82027 -2.38427,6.82027c-0.6096,0.77436 -1.67145,-0.13007 -2.13699,-0.30298c-0.62133,-0.23078 -1.95309,-3.0869 -2.15884,-3.7624c-1.09968,-3.61012 -0.10116,-8.51341 0.37732,-12.20209c0.28084,-2.13786 -0.26178,-9.04264 1.99887,-9.82655c-0.05069,-0.08064 -0.08481,-0.1892 -0.08481,-0.33529c0,-0.56838 0.51633,-0.56838 0.51633,-0.56838c2.94601,0.17853 2.71633,4.55438 3.7953,6.52173c0.89083,1.6243 2.1424,2.17012 2.1424,4.27746c0,3.13127 -0.92894,6.21329 -2.10723,9.15074c0.04195,0.12088 0.04195,0.2275 0.04195,0.2275z" fill="#666666" stroke-width="0.5"/><path d="M273.15502,233.56917v-41.69595h16.30238v41.69595z" fill="#870d0d" stroke-width="0"/><path d="M269.49022,305.52923v-72.20832h24.26918v72.20832z" fill="#7b0c0c" stroke-width="0"/><path d="M275.47266,232.5686c0.07409,-0.01976 0.12908,-0.01976 0.12908,-0.01976c4.43606,0 8.73819,-0.28419 13.16621,-0.28419c1.33033,0 4.27196,-0.07978 5.27016,1.01903c0.28688,0.31581 0.79035,1.62026 0.19496,1.99975c-0.67785,0.43206 -1.78404,-0.65296 -2.44989,-0.75262c-1.67372,-0.25052 -4.08062,-0.04356 -5.29495,1.321c-0.87778,0.43586 -0.99687,1.27992 -2.22765,0.94465c-1.03272,-0.28131 -1.86629,-1.24789 -2.89918,-0.40798c-0.45462,0.3697 -0.77008,8.2019 -2.51051,3.66699c-1.30738,-0.71961 -0.5864,-2.06581 -1.34458,-3.19565c-1.03226,-1.53828 -2.75625,-1.70729 -2.93723,-3.74261l0.77449,-0.56837c0,0 0.05499,0 0.12908,0.01976z" fill="#666666" stroke-width="0.5"/><path d="M193.69968,166.20827c0.14727,0.00251 0.29454,0.00502 0.44181,0.00752c2.83958,1.52724 6.07774,5.5666 6.83791,8.94825c0.48857,2.17342 -0.07758,5.061 -0.24486,7.26041c-0.01298,3.01185 -0.23992,6.0146 -0.8003,8.96883c-0.20078,1.05842 -0.36292,2.77965 -1.27902,3.44315c-0.58152,0.42117 -1.89713,-0.34758 -2.46288,-0.52698c-1.38589,-0.43945 -3.30315,-0.48246 -4.6684,0.01851c-1.15414,0.01413 -1.81398,-0.24685 -2.36685,-1.48029c-0.5825,-1.29954 -0.24124,-3.23365 -0.54181,-4.63395c-0.67554,-3.14733 -2.62148,-4.96657 -2.58084,-8.50624c0.85756,-1.89055 1.81465,-3.24965 2.05245,-5.36484c0.15944,-1.41821 -0.63559,-2.88904 -0.23985,-4.32033c0.70644,-2.55509 3.37737,-3.05901 5.17041,-4.04593c0,0 0.44809,-0.24664 0.6822,0.23187z" fill="#666666" stroke-width="0.5"/><path d="M188.34628,235.59585v-43.11688h16.30238v43.11688z" fill="#870d0d" stroke-width="0"/><path d="M185.71413,306.11629v-72.20832h24.26919v72.20832z" fill="#7b0c0c" stroke-width="0"/><path d="M196.93976,239.384c-0.39211,-0.45633 -0.25322,-1.4981 -0.12375,-2.47241c-0.47082,0.68388 -1.07353,1.25581 -1.3837,1.30582c-0.59226,0.09548 -0.91363,-0.16199 -1.08028,-0.59144c-0.14857,-0.14365 -0.21782,-0.42737 -0.15718,-0.90071c-0.01076,-0.24796 -0.00515,-0.50832 0.00724,-0.76615h-0.32957c-0.55184,1.78195 -0.89609,3.74653 -0.89609,5.53018c-0.33337,0.75113 -1.09632,2.35211 -2.15841,1.40807c-0.46287,-0.41144 -0.03288,-0.95505 -0.13741,-1.40807c-0.31239,-1.35383 -0.68279,-4.31636 -1.41155,-5.41246c-0.39669,-0.59666 -1.4068,0.53535 -2.06529,0c-0.52729,-0.42868 0.24135,-1.09365 -0.66755,-0.97029c-1.35355,0 -4.21865,-1.49376 -1.40943,-2.25831c2.47159,-0.67265 5.82147,-0.01521 8.37977,-0.01521c1.7187,0 3.52879,-0.64131 5.24593,-0.27685c1.09093,0.23155 2.52438,0.96365 3.77128,0.91835c0.18959,-0.09737 0.37751,-0.19577 0.56201,-0.29731l0.12398,-0.17772c0,0 0.3651,-0.4019 0.73018,0c0.04705,0.0518 0.08199,0.1036 0.10714,0.15456c0.09084,0.04323 0.17941,0.12689 0.24775,0.27735c0.23091,0.50838 -0.2309,0.76256 -0.2309,0.76256c-0.35395,0.18525 -0.7156,0.29172 -1.08171,0.3403c-1.38878,0.90676 -2.44618,2.11177 -3.68916,2.96349c-0.14919,0.10223 -0.29157,0.16794 -0.42602,0.20286c-0.14264,1.43117 -0.59408,3.23487 -1.92725,1.68337z" fill="#666666" stroke-width="0.5"/><path d="M274.98816,222.1453v27.62915h-53.70743v-27.62915z" data-paper-data="{&quot;index&quot;:null}" fill="#990f0f" stroke-width="0"/><path d="M254.76114,250.32415v27.62915h-45.25435v-27.62915z" data-paper-data="{&quot;index&quot;:null}" fill="#b31212" stroke-width="0"/><path d="M273.47869,250.32415v27.62915h-18.08372v-27.62915z" data-paper-data="{&quot;index&quot;:null}" fill="#990f0f" stroke-width="0"/><path d="M191.99684,192.82967v-27.62915h47.36761v27.62915z" data-paper-data="{&quot;index&quot;:null}" fill="#b31212" stroke-width="0"/><path d="M255.21398,193.77075v27.62915h-53.70743v-27.62915z" data-paper-data="{&quot;index&quot;:null}" fill="#990f0f" stroke-width="0"/><path d="M220.64691,222.1453v27.62915h-18.08371v-27.62915z" data-paper-data="{&quot;index&quot;:null}" fill="#b31212" stroke-width="0"/><path d="M273.93153,193.96644v27.62915h-18.08372v-27.62915z" data-paper-data="{&quot;index&quot;:null}" fill="#740c0c" stroke-width="0"/><path d="M239.99828,192.82967v-27.62915h47.36761v27.62915z" data-paper-data="{&quot;index&quot;:null}" fill="#990f0f" stroke-width="0"/><path d="M281.62987,278.503v27.62915h-41.39088v-27.62915z" data-paper-data="{&quot;index&quot;:null}" fill="#740c0c" stroke-width="0"/><path d="M239.72752,278.503v27.62915h-41.39087v-27.62915z" data-paper-data="{&quot;index&quot;:null}" fill="#990f0f" stroke-width="0"/><path d="M241.00908,287.03535v0.46964c-0.02851,3.89307 0.36228,7.78484 0.36228,11.7412c0,1.81358 0.48564,5.10704 -0.24878,6.64888c-0.31727,0.66608 -1.57995,1.55583 -2.15451,0.81095c-0.48983,-0.63499 -0.02178,-1.32592 0.05436,-1.91811c0.31084,-2.41775 -0.00585,-4.74205 -0.00585,-7.1855c0.0196,-5.01041 0.05463,-10.17767 -0.71575,-15.14843c0,0 -0.03641,-0.23598 0.05394,-0.43597c-0.55813,-0.43497 -1.92905,-1.56068 -2.26685,-1.44553c-0.76347,0.26024 -1.09806,0.94048 -2.05975,0.93905c-0.93294,-0.00141 -1.87905,-0.88456 -2.76526,-1.17308c-2.31493,-0.00993 -4.57565,-1.0923 -6.9644,-0.70294c-1.90774,0.31096 -4.02962,0.87451 -5.84103,0.94216c-2.42389,-0.01593 -4.53552,-0.40458 -6.95576,-0.94688c-1.49057,-0.33399 -3.24753,0.24638 -4.70958,-0.23483c-1.25122,-0.41182 -1.11601,-1.42228 -0.39569,-2.44243c1.3141,-1.12987 2.75437,-0.83753 4.27212,-0.83753l0.5648,0.29679c0,0 0.08096,0.05247 0.15239,0.15744c3.88745,-0.05223 7.71092,-0.21943 11.60015,-0.21943c5.31355,0.00479 10.60693,0.35066 15.88583,-0.63277c4.91921,-0.37091 9.4493,2.07781 14.36414,2.04171c0.16683,0.00269 0.32674,-0.02112 0.48179,-0.0647c0.03449,-0.78421 0.30165,-2.093 0.33673,-2.44953c0.30168,-3.06681 -0.00339,-6.46378 -0.00339,-9.55606c0,-4.44934 0.60606,-9.78674 -0.3939,-14.10141c-1.10898,-0.35712 -2.1708,-0.60771 -2.8259,-0.27223c-2.15197,1.10203 -4.70289,1.21229 -7.06979,1.1949c-3.92816,-1.25293 -9.86453,-2.4061 -13.76565,-0.72349c-5.1075,1.65508 -10.50823,-1.82323 -15.46796,-0.21581c-2.25198,0 -5.07243,2.45788 -6.43791,-1.02459l-0.04781,-0.73218c0,0 0.00001,-0.31886 0.18127,-0.48659c0.00862,-0.57014 0.4527,-0.57011 0.4527,-0.57011c3.53992,0 7.02876,-0.39317 10.59593,-0.46005c-0.00523,-0.38829 0.00062,-0.78156 0.00062,-1.15354c0,-4.56563 0.86772,-8.9753 0.36341,-13.57816c0.03333,-4.61707 -0.39615,-8.77716 -3.46113,-10.60894c-0.74559,0.08242 -1.46452,0.13902 -2.13724,0.13902c-2.33165,-1.00757 -6.82834,-0.92267 -9.29129,-0.46646c-1.27113,0.23546 -2.15998,1.73446 -2.91613,0.29336c-0.91379,-1.21474 -2.29876,-3.35388 -0.61335,-4.68116c0.17576,-0.13841 1.95922,-0.27298 2.14312,-0.29676c1.94676,-0.25172 4.57367,-0.37907 6.45821,0.23171c5.07452,0.02879 10.15727,0.62248 15.312,-0.23799c5.53058,0.01008 11.13681,0.46109 16.7261,0.46988c4.14376,0.76463 8.34388,-0.04991 12.37942,1.57688c0.16269,-0.62259 0.36058,-1.27203 0.35869,-1.70933c-0.01262,-2.89349 -0.35445,-5.81369 -0.36228,-8.68849c0,-4.87858 1.06472,-9.41137 -0.11478,-14.20213c-2.26851,-0.15971 -4.65132,-0.74663 -6.859,-0.74663c-4.87227,0 -9.59251,-0.70448 -14.49101,-0.70448c-3.15055,-0.00405 -6.11091,0.86239 -9.20987,1.17298c-1.96952,0.19738 -3.72656,-0.70334 -5.6434,-0.70334c-4.62414,0 -9.0717,-0.24703 -13.73799,-0.23329c-0.34543,0.08949 -1.97428,0.61132 -2.30613,0.45242c-1.39468,-0.66781 -0.4456,-3.15074 0.64744,-3.27184c2.65687,-0.29434 5.37121,0.94272 8.07865,-0.22724c2.75777,-0.03394 5.55662,-0.03218 8.27906,0.46647c0.89438,0.16382 1.66039,0.64186 2.58918,0.47283c0.97952,-0.17827 1.76745,-0.93429 2.7896,-0.94686c4.10955,0 8.91083,1.6831 12.78822,0.00757c3.2803,-0.04036 0.8301,-8.43992 1.07218,-10.99863c0.11162,-1.17966 0.36029,-2.31692 0.36228,-3.52234c0.37721,-1.95609 0.89947,-8.97071 -0.5217,-10.85084c-0.11914,-0.01428 -0.26065,-0.08722 -0.3424,-0.32525c-0.14955,-0.09397 -0.31504,-0.14327 -0.49783,-0.14113c0,0 -0.45284,0 -0.45284,-0.58707c0,-0.58706 0.45284,-0.58706 0.45284,-0.58706c0.49741,0.00474 0.89795,0.11261 1.2193,0.30237l0.08661,-0.03742c1.11579,-0.46764 1.76011,-0.37418 2.7161,0.51475c0.13915,2.5489 -0.33401,5.0062 -0.30859,7.56081c0.0415,4.16658 0.5433,8.24754 0.5433,12.44139c0,0.93962 -0.85667,5.22133 -0.31377,5.92514c0.25341,0.32852 1.52098,0.06288 1.85344,0.06288c1.86603,0 3.67746,0.46749 5.50527,0.47693c2.33501,0.98146 5.32673,0.66445 7.66243,0.23193c2.09592,-0.38811 4.2557,0.30634 6.35052,-0.23637c3.08334,0.00665 5.7572,0.14341 8.79456,0.70602c1.13106,0.2095 2.20291,-0.7622 3.27768,-0.46647c1.51036,0.41558 1.40965,2.60708 -0.07255,2.81031c-1.35468,0 -2.59655,0.45908 -3.92969,0.70008c-3.07943,0.55671 -6.23451,-0.46523 -9.29334,-0.46523c-1.14725,0 -2.18198,0.23609 -3.2465,0.45205c-0.52103,2.99542 -0.8291,5.9532 -0.8291,9.09574c0,4.97054 0.45166,9.9528 0.53144,14.97642c3.52621,1.09506 8.12035,0.87419 11.69534,0.87419c1.87345,0 4.94222,-0.59228 6.57789,0.79217c0.66483,0.5627 0.8987,3.28303 -0.13402,3.65378c-0.34367,0.1234 -1.23232,-1.23548 -1.57097,-1.45294c-0.84495,-0.54256 -1.79229,-0.40995 -2.69923,-0.40995c-2.14056,0 -4.286,0.04714 -6.42238,0.09977c-0.91978,1.18125 -2.02436,2.21667 -3.35905,2.23309c-1.45682,0 -2.21588,1.70654 -3.44161,1.64377c-1.61409,-0.08268 -1.16546,-2.89381 -2.10412,-3.66281c-0.00738,0.02585 -0.01626,0.05242 -0.02678,0.07969c-0.20253,0.52508 -0.60756,0.26255 -0.60756,0.26255l-0.30295,-0.20298c-2.22988,-1.00128 -4.04744,-0.23455 -6.34566,0.02864c-2.32299,0.26602 -4.63025,-0.45537 -6.97067,-0.47257c-4.65213,-1.50772 -8.85105,1.62399 -13.48832,0.9891c-1.23861,-0.17071 -2.35405,-0.66402 -3.55581,-0.99227c-0.28484,-0.0778 -0.57891,-0.1381 -0.88064,-0.18335c-0.08322,0.09369 -0.17159,0.13187 -0.17159,0.13187l-0.54341,0.23482c-0.90977,0.35955 -1.00138,1.49712 -1.1453,2.5898c-0.42401,3.21919 -0.16599,6.21856 -0.17868,9.46202c0.77129,3.99956 0.36566,7.938 0.36566,12.04774c0,0.44431 0.02898,0.93481 0.03829,1.41768c4.72159,0.12868 9.98787,0.44415 14.40641,-1.01063c1.58982,-0.50371 3.23643,0.22671 4.85614,0.26737c3.8816,0.09744 7.85925,0.00041 11.76425,-0.00014c5.0918,0 10.29539,0.99079 15.42172,0.94021c1.65282,0.23646 4.93135,-0.95731 6.37171,0.32159c1.20801,1.07258 -0.11591,3.58465 -1.22087,3.88864c-1.00525,0.27654 -3.08314,-0.92359 -4.2702,-0.92359c-1.05813,-0.01703 -2.01578,0.93065 -3.07935,0.93929c-1.20068,0.00977 -2.52675,-0.45027 -3.69528,-0.71205c-1.96537,-0.44032 -3.96646,0.47724 -5.90501,0.47724c-0.21612,0 -0.46017,-0.03383 -0.72417,-0.09076c0.33105,1.87755 0.09019,4.08607 0.09019,5.98557c0,5.76237 -0.15437,11.44571 -0.18453,17.07041c0.04626,0.23978 0.05753,0.50887 0.03922,0.78863c0.11843,-0.03732 0.24033,-0.06538 0.36644,-0.08176c3.46942,-0.4505 7.22791,0.16359 10.73769,0.16359c3.00679,0 5.48878,-0.30163 8.38927,1.02696l0.05455,0.12002l0.02758,-0.03577l0.36227,0.46964c0.08194,0.10624 0.13264,0.253 0.13264,0.41512c0,0.32423 -0.20274,0.58705 -0.45284,0.58705h-0.54341v-0.1299c-1.0619,0.1323 -2.09608,-0.08362 -3.18792,0.12234c-3.06291,0.57775 -5.82916,1.18532 -8.97641,1.18058c-2.39048,-0.38441 -5.06883,-0.94048 -7.47682,-0.26909c-1.33201,0.37138 -2.4811,1.25027 -3.85138,1.43994c-1.27764,0.17684 -2.48493,-0.47945 -3.72271,-0.46811c-1.91666,-0.49666 -4.62951,-0.84543 -6.41938,0.38483c-0.47963,0.32966 -0.84609,2.22968 -1.05083,3.85669c0.0402,0.44918 0.02919,0.91678 -0.04021,1.3999c0.40012,0.04369 0.40011,0.58425 0.40011,0.58425zM239.36305,283.4665c0.08427,0.66253 0.15555,1.32697 0.21592,1.99281c-0.0388,-0.66622 -0.0502,-1.36978 -0.21592,-1.99281z" fill="url(#color-3)" stroke-width="0.5"/><path d="M203.9578,160.8282l1.2119,-90.91996l75.30744,1.0038l-1.2119,90.91996z" data-paper-data="{&quot;index&quot;:null}" fill="#000000" stroke-width="0"/><path d="M231.85658,127.28393c-0.08451,6.34012 -5.2927,11.41129 -11.63282,11.32678c-6.34012,-0.08451 -11.41129,-5.2927 -11.32678,-11.63282c0.08451,-6.34012 5.2927,-11.41129 11.63282,-11.32678c6.34012,0.08451 11.41129,5.2927 11.32678,11.63282z" data-paper-data="{&quot;index&quot;:null}" fill="#ffffff" stroke-width="0"/><path d="M229.92496,128.25827c-0.07775,5.83291 -4.8693,10.49837 -10.70218,10.42063c-5.8329,-0.07775 -10.49837,-4.86929 -10.42063,-10.70218c0.07775,-5.83291 4.86929,-10.49837 10.70218,-10.42063c5.8329,0.07775 10.49837,4.86928 10.42063,10.70218z" data-paper-data="{&quot;index&quot;:null}" fill="#000000" stroke-width="0"/><path d="M202.33762,161.94823l0.30604,-22.95958l57.85817,0.77121l-0.30604,22.95958z" data-paper-data="{&quot;index&quot;:null}" fill="#990f0f" stroke-width="0"/><path d="M265.95913,104.77483c-0.08451,6.34012 -5.2927,11.41129 -11.63282,11.32678c-6.34012,-0.08451 -11.41128,-5.2927 -11.32677,-11.63282c0.08451,-6.34012 5.2927,-11.41129 11.63281,-11.32678c6.34012,0.08451 11.41129,5.2927 11.32678,11.63282z" data-paper-data="{&quot;index&quot;:null}" fill="#ffffff" stroke-width="0"/><path d="M266.04066,104.77592c-0.07775,5.83291 -4.86929,10.49837 -10.70218,10.42063c-5.8329,-0.07775 -10.49837,-4.86928 -10.42063,-10.70218c0.07775,-5.83291 4.86929,-10.49837 10.70218,-10.42063c5.83291,0.07775 10.49837,4.86928 10.42063,10.70218z" data-paper-data="{&quot;index&quot;:null}" fill="#000000" stroke-width="0"/><path d="M233.56664,139.09462l0.30604,-22.95958l48.06207,0.64063l-0.30604,22.95958z" data-paper-data="{&quot;index&quot;:null}" fill="#b31212" stroke-width="0"/><path d="M260.50191,162.72352l0.30604,-22.95958l20.3575,0.27135l-0.30604,22.95958z" data-paper-data="{&quot;index&quot;:null}" fill="#740c0c" stroke-width="0"/><path d="M202.03948,115.40455l0.30604,-22.95958l40.10276,0.53454l-0.30604,22.95958z" data-paper-data="{&quot;index&quot;:null}" fill="#990f0f" stroke-width="0"/><path d="M264.94874,116.24309l0.30604,-22.95958l20.51056,0.27339l-0.30604,22.95958z" data-paper-data="{&quot;index&quot;:null}" fill="#740c0c" stroke-width="0"/><path d="M202.65572,92.14292l0.30604,-22.95958l24.1841,0.32236l-0.30604,22.95958z" data-paper-data="{&quot;index&quot;:null}" fill="#b31212" stroke-width="0"/><path d="M227.45206,92.47343l0.30604,-22.95958l57.85817,0.77121l-0.30604,22.95958z" data-paper-data="{&quot;index&quot;:null}" fill="#990f0f" stroke-width="0"/><path d="M224.80984,69.96503l-0.24883,-0.00332c-0.2536,-0.00338 -0.45645,-0.21171 -0.45307,-0.46531c0.00338,-0.2536 0.2117,-0.45645 0.46531,-0.45307l0.29043,0.00387c0.01648,-0.02271 0.03454,-0.04463 0.0542,-0.06567c0.18874,-0.20183 1.34747,-0.06872 1.64723,-0.06472c0,0 0.09442,0.00126 0.19707,0.04545c0.49534,-0.27858 1.09475,-0.16459 1.68538,-0.15111l0.06264,0.04383l0.00879,-0.02524l0.53858,0.18752c0.18687,0.0602 0.32092,0.23674 0.31817,0.4433c-0.00275,0.20656 -0.14148,0.37945 -0.32987,0.43465l-0.24716,0.07875c-1.21239,1.33966 -0.85132,3.14309 -0.60586,5.09225c0.25676,2.03899 -0.04552,4.33668 -0.0852,6.39213c-0.07513,0.21578 -0.13654,0.44135 -0.18588,0.67461c0.05606,0.80018 -0.02121,1.90951 -0.13534,2.86604c0.07731,1.16413 0.26533,2.32381 0.41382,3.29439c0.01292,0.08443 0.03128,0.19294 0.05266,0.31955c0.15932,0.25603 0.20264,0.62256 0.15266,0.98984c0.08005,0.61169 0.13385,1.28879 0.05925,1.78185c0.09456,0.01982 0.19137,0.03904 0.29091,0.05706c3.11043,0.5632 6.87498,0.63683 10.0214,0.67877c2.24714,0.03288 4.41957,-0.80408 6.69318,-0.45597c2.67581,0.40967 5.24781,0.79886 7.9985,0.83553c4.02189,0.10356 8.89012,-0.01947 12.81591,-0.928c2.20092,0.03961 4.25154,-0.96184 6.53985,-0.64887c2.35106,0.32155 4.51079,0.97435 6.89371,1.0091c1.61394,-0.18157 4.51373,-0.59468 5.96056,0.33087c1.00146,0.64063 1.07804,2.99065 -0.4658,3.04825c-1.57868,0.05892 -2.73641,-1.79219 -4.68727,-1.17068c-1.89964,-0.02532 -3.84458,0.7852 -5.72615,1.02842c-0.37835,0.0489 -0.75855,0.07086 -1.14001,0.07248c-0.689,0.71275 -1.60998,0.87822 -2.5858,1.18909c-0.97729,0.29995 -1.59757,-0.42497 -2.3764,-0.31834c-0.99141,0.13573 -2.0661,2.86755 -3.46967,1.66039c-0.55201,-0.47477 -0.12217,-2.62226 -0.9822,-2.80638c-3.33151,0.37696 -6.84989,0.15793 -10.26,0.11247c-4.63904,-0.0941 -9.06079,-1.53897 -13.68253,-1.658c-4.08447,1.32012 -8.42534,0.65486 -12.83058,0.56381c-0.88733,-0.34386 -2.7107,0.16963 -3.715,0.3179c-2.58616,0.38182 -6.23688,0.31961 -8.66276,-0.50053c-3.37888,-1.22101 -8.83109,-0.17103 -12.3618,-0.26195c-1.41261,0.40835 -1.41472,-1.71068 -0.3558,-2.14764c1.05892,-0.43697 4.44437,0.26584 6.392,-0.03343c1.44384,-0.22186 2.5081,-0.83668 4.00922,-0.31398c4.01425,0.05351 8.79073,1.45235 12.68084,0.23406c-0.15605,-0.21308 -0.24502,-0.47017 -0.20311,-0.69623c0.22456,-1.2112 0.55752,-2.39131 0.85571,-3.59725c0.01454,-0.30058 0.03676,-0.60347 0.06281,-0.90755c-0.09561,-1.3106 -0.10904,-2.57321 -0.09022,-3.9854c0.01267,-0.30051 0.09161,-0.66072 0.22456,-0.957c-0.04744,-0.27394 -0.11131,-0.543 -0.19514,-0.80614l0.02045,-0.0733l-0.02541,-0.00034l0.00734,-0.55102c0.00124,-0.09309 0.03009,-0.17933 0.07866,-0.25105c-0.01614,-0.05172 -0.03271,-0.1032 -0.0497,-0.15446c-0.50491,-1.63591 -0.9518,-5.66788 -0.45258,-8.24158c-0.3822,-0.22196 -0.72834,-0.65568 -0.88269,-1.09271zM227.6623,90.87401c-0.01381,0.00688 -0.02779,0.01335 -0.04192,0.0194l-0.00223,0.16726c0.01604,-0.06189 0.03073,-0.12411 0.04415,-0.18666z" data-paper-data="{&quot;index&quot;:null}" fill="#666666" stroke-width="0.5"/><path d="M263.011,121.18912c-1.53967,-0.00204 -2.78985,-1.999 -3.52377,-0.88562c-0.28049,0.54276 -0.63079,0.99707 -0.93879,1.51839c-0.23794,0.40273 -0.52146,0.78008 -0.8308,1.13096c-3.10319,3.52004 -3.44834,-3.27368 -5.43954,-4.58402c-0.80039,-0.60637 -0.83454,0.26156 -1.73817,0.20705c-0.49041,-0.02958 -0.8172,-0.55055 -1.18567,-0.87554c-1.21652,-1.07303 -3.85108,-0.94475 -5.26617,-0.60199c0,0 -0.3926,0.09261 -0.5287,-0.26371c-1.30221,0.28319 -2.51812,0.74433 -3.89112,1.10687c-0.6293,0.16617 -1.19917,0.01183 -1.76499,-0.15378c-0.08015,0.1404 -0.23215,0.23421 -0.40527,0.2319l-0.40251,-0.00537c-2.00061,0.67687 -1.86172,1.96977 -2.63717,3.10162c-0.01614,0.13079 -0.03778,0.26102 -0.07126,0.3806l0.02105,0.02162l-0.03906,0.03803c-0.04987,0.15328 -0.1224,0.28493 -0.23234,0.37165c-0.295,0.23264 -0.69211,0.54293 -1.04655,0.41839c-0.49619,-0.17435 -0.27184,-3.24909 -0.19811,-4.44545c-0.18038,-0.42133 -0.46823,-0.80383 -0.92378,-1.21782l-0.40321,-0.1404c-0.18687,-0.06022 -0.32092,-0.23674 -0.31817,-0.4433c0.00275,-0.20656 0.14148,-0.37945 0.32987,-0.43466l0.45116,-0.14373l0.00874,0.02739l0.06316,-0.04406c0.43172,0.00421 0.78179,0.0679 1.13161,0.17195c3.63048,-1.09814 6.70102,0.08412 10.37381,0.13308c0.1295,0.00173 0.25896,0.0033 0.38839,0.00473c0.63568,-0.10573 1.29555,-0.16598 2.00184,-0.15656c0.68202,0.01206 1.40563,0.0736 2.1563,0.16218c2.886,-0.01592 5.77008,-0.05653 8.68063,-0.01774c3.01493,0.04019 6.26299,-0.51309 9.24235,-0.05706c0.85322,0.13061 1.66019,0.3589 2.49116,0.49194c1.74215,-0.30305 3.48265,-0.22039 5.31439,-0.17558l0.19391,0.06522c2.75444,-0.24911 5.52545,-0.61223 8.24573,-0.51618c0.95074,0.65996 1.17142,1.34288 0.62647,1.77786c0.00349,0.00841 0.00683,0.01692 0.01001,0.0255c0.49378,1.32668 -0.67952,1.3146 -1.25866,0.65068c-0.09236,-0.01791 -0.24217,-0.06919 -0.32111,-0.21587c-3.05534,0.35623 -6.30431,-0.21829 -9.25972,0.72328c-1.67324,-0.00642 -3.34579,-0.0204 -5.01225,-0.10921c-1.13465,0.79756 -2.73288,2.7286 -4.09365,2.7268zM254.74945,116.70456c1.08741,0.08929 2.14934,0.11098 3.14778,0.00623c-0.36229,0.01002 -0.72165,0.01409 -1.0771,0.00936c-0.69161,-0.00922 -1.38172,-0.01397 -2.07069,-0.01561z" data-paper-data="{&quot;index&quot;:null}" fill="#565656" stroke-width="0.5"/><path d="M236.89873,142.46703c0.00088,0.82046 -0.18053,1.51918 -1.32602,1.43422c-1.49057,-0.11054 -1.06352,-1.26549 -0.87072,-2.26991c-0.85585,0.11161 -1.91386,-0.06783 -2.6207,-0.07726c-1.10159,-0.01468 -2.19372,-0.05016 -3.28105,-0.09239l-0.02316,0.02198c-1.69111,2.18673 -2.55052,0.71016 -4.48003,1.49654c-0.34311,0.90767 -1.69625,1.1222 -2.28536,0.19152c-0.30735,-0.48555 0.13777,-1.10127 0.12323,-1.53192c-0.00533,-0.15759 -0.06559,-0.29157 -0.16949,-0.40501c-4.14744,-0.03266 -8.2175,0.9003 -12.39174,0.00768c-2.03028,-0.71877 -4.12052,0.49755 -6.15332,0.4807c-1.24836,-0.01034 -2.13369,-0.17086 -1.56881,-1.42099c-0.0147,-0.01254 -0.02269,-0.02071 -0.02269,-0.02071c-1.11339,-1.57923 0.82827,-1.69154 2.00047,-1.67592c2.67923,0.03571 5.31104,-0.10699 7.97403,-0.0715c2.52783,0.9475 6.58179,-0.46933 9.30137,-0.43308c1.26192,0.01682 3.02169,0.63336 4.14849,0.24494c2.33537,0.01716 5.0923,0.98052 7.3572,0.64671c2.41518,-0.35596 4.76521,-0.67476 7.22934,-0.64191c5.26506,0.07018 10.39675,0.6897 15.60517,0.75913c4.77122,0.0636 9.49596,-0.60826 14.33658,-0.54374c3.16127,0.04214 6.65544,-0.59915 9.81078,-0.04701c1.41793,0.24812 2.83341,0.56327 2.89419,2.13734c-1.19565,1.23198 -1.83343,0.49545 -3.25665,0.23418c-3.14961,-0.57821 -6.53228,1.84655 -9.56343,0.79107c-1.59011,-0.00146 -6.06037,-0.67213 -7.92387,0.45647l-0.00116,0.08682c-0.05824,2.81767 -0.0623,5.63581 -0.11681,8.50519c-0.76636,2.94503 -0.07067,5.55975 -0.11088,8.57674c-0.01965,1.47404 0.64348,3.77462 0.64348,3.77462l-4.46479,-0.01574c0,0 1.30549,-2.9488 1.43798,-3.6805c0.40858,-2.25655 0.24141,-4.77465 0.27224,-7.08747c0.04701,-3.52688 0.67592,-7.20242 -0.14504,-10.60821c-0.00239,-0.00128 -0.00476,-0.00253 -0.00715,-0.00381c-0.60926,-0.32227 -1.51228,-0.15717 -2.18423,-0.16613c-1.90816,-0.02543 -4.59075,-0.53723 -6.41244,0.05154c-1.77071,1.1467 -3.98433,0.79368 -5.95974,0.51495c-2.06704,-0.29165 -4.18653,-0.44974 -6.29731,-0.63203c-0.52076,0.22875 -0.98023,0.74738 -1.49796,1.01287z" data-paper-data="{&quot;index&quot;:null}" fill="#484848" stroke-width="0.5"/></g></g></svg>