<svg version="1.1" xmlns="http://www.w3.org/2000/svg" xmlns:xlink="http://www.w3.org/1999/xlink" width="110.57501" height="238.34655" viewBox="0,0,110.57501,238.34655"><defs><linearGradient x1="234.63049" y1="71.56781" x2="239.83755" y2="173.75013" gradientUnits="userSpaceOnUse" id="color-1"><stop offset="0" stop-color="#666666"/><stop offset="1" stop-color="#484848"/></linearGradient><linearGradient x1="239.29788" y1="161.37111" x2="239.60866" y2="167.4698" gradientUnits="userSpaceOnUse" id="color-2"><stop offset="0" stop-color="#484848"/><stop offset="1" stop-color="#656565"/></linearGradient><linearGradient x1="238.46421" y1="164.09982" x2="238.46421" y2="306.98843" gradientUnits="userSpaceOnUse" id="color-3"><stop offset="0" stop-color="#666666"/><stop offset="1" stop-color="#484848"/></linearGradient></defs><g transform="translate(-183.93598,-68.64191)"><g data-paper-data="{&quot;isPaintingLayer&quot;:true}" fill-rule="nonzero" stroke="none" stroke-linecap="butt" stroke-linejoin="miter" stroke-miterlimit="10" stroke-dasharray="" stroke-dashoffset="0" style="mix-blend-mode: normal"><path d="M193.88645,122.08524c0,0 5.85392,-6.22786 5.93802,-7.09901c0.22055,-2.28481 -2.21205,-40.11257 33.80535,-43.35043c44.53199,-3.18409 40.76331,33.31735 43.62423,40.02202c3.92275,9.19311 7.0342,17.06429 7.0342,17.06429c0,0 -2.86807,-1.91002 -4.23391,-2.92228c-1.2739,-0.94412 -3.9566,-2.94831 -3.9566,-2.94831c0,0 3.61374,10.17738 2.36244,20.60145c-1.07777,9.5482 -6.41172,17.57451 -6.41172,17.57451l-1.27319,-2.28552c0,0 -0.90948,2.24714 -1.98764,3.43835c-1.07817,1.1912 -3.28604,3.08396 -3.28604,3.08396l-0.28045,-3.69473c0,0 -6.49022,11.36298 -23.76583,12.09672c-16.29812,0.57473 -26.58101,-9.33452 -26.58101,-9.33452l0.01906,2.65731c0,0 -4.0573,-3.09028 -6.66748,-9.38037c-3.11103,-7.49706 -3.85835,-12.06251 -3.85835,-12.06251c0,0 -2.2394,2.01574 -5.56844,3.06176c-4.17148,1.31073 -6.92008,0.69834 -6.92008,0.69834c0,0 3.46499,-2.89727 5.33397,-5.04789c1.66474,-1.9156 2.47128,-3.50753 2.47128,-3.50753c0,0 -2.04965,1.19055 -4.14494,1.83127c-2.1862,0.66853 -3.99784,0.73534 -3.99784,0.73534c0,0 4.71211,-5.28394 6.46821,-11.21801c1.65803,-5.60272 1.53935,-11.04997 1.53935,-11.04997c0,0 -1.32621,0.73007 -3.28535,0.96358c-1.24184,0.14802 -2.37726,0.07218 -2.37726,0.07218z" fill="url(#color-1)" stroke-width="1.5"/><path d="M207.19011,169.1218c0,0 2.12764,-1.25795 1.55981,-2.12669c-0.56782,-0.86874 -5.42753,-3.79074 -5.42753,-3.79074l71.95097,-3.66651c0,0 -6.24131,4.09283 -6.45716,4.45694c-0.70391,1.18729 1.89542,1.89005 1.89542,1.89005z" fill="url(#color-2)" stroke-width="0"/><path d="M290.57508,186.66221c-0.04639,2.34739 -2.38427,6.82027 -2.38427,6.82027c-0.6096,0.77436 -1.67145,-0.13007 -2.13699,-0.30298c-0.62133,-0.23078 -1.95309,-3.0869 -2.15884,-3.7624c-1.09968,-3.61012 -0.10116,-8.51341 0.37732,-12.20209c0.28084,-2.13786 -0.26178,-9.04264 1.99887,-9.82655c-0.05069,-0.08064 -0.08481,-0.1892 -0.08481,-0.33529c0,-0.56838 0.51633,-0.56838 0.51633,-0.56838c2.94601,0.17853 2.71633,4.55438 3.7953,6.52173c0.89083,1.6243 2.1424,2.17012 2.1424,4.27746c0,3.13127 -0.92894,6.21329 -2.10723,9.15074c0.04195,0.12088 0.04195,0.2275 0.04195,0.2275z" fill="#666666" stroke-width="0.5"/><path d="M273.15502,233.56917v-41.69595h16.30238v41.69595z" fill="#870d0d" stroke-width="0"/><path d="M269.49022,305.52923v-72.20832h24.26918v72.20832z" fill="#7b0c0c" stroke-width="0"/><path d="M275.47266,232.5686c0.07409,-0.01976 0.12908,-0.01976 0.12908,-0.01976c4.43606,0 8.73819,-0.28419 13.16621,-0.28419c1.33033,0 4.27196,-0.07978 5.27016,1.01903c0.28688,0.31581 0.79035,1.62026 0.19496,1.99975c-0.67785,0.43206 -1.78404,-0.65296 -2.44989,-0.75262c-1.67372,-0.25052 -4.08062,-0.04356 -5.29495,1.321c-0.87778,0.43586 -0.99687,1.27992 -2.22765,0.94465c-1.03272,-0.28131 -1.86629,-1.24789 -2.89918,-0.40798c-0.45462,0.3697 -0.77008,8.2019 -2.51051,3.66699c-1.30738,-0.71961 -0.5864,-2.06581 -1.34458,-3.19565c-1.03226,-1.53828 -2.75625,-1.70729 -2.93723,-3.74261l0.77449,-0.56837c0,0 0.05499,0 0.12908,0.01976z" fill="#666666" stroke-width="0.5"/><path d="M193.69968,166.20827c0.14727,0.00251 0.29454,0.00502 0.44181,0.00752c2.83958,1.52724 6.07774,5.5666 6.83791,8.94825c0.48857,2.17342 -0.07758,5.061 -0.24486,7.26041c-0.01298,3.01185 -0.23992,6.0146 -0.8003,8.96883c-0.20078,1.05842 -0.36292,2.77965 -1.27902,3.44315c-0.58152,0.42117 -1.89713,-0.34758 -2.46288,-0.52698c-1.38589,-0.43945 -3.30315,-0.48246 -4.6684,0.01851c-1.15414,0.01413 -1.81398,-0.24685 -2.36685,-1.48029c-0.5825,-1.29954 -0.24124,-3.23365 -0.54181,-4.63395c-0.67554,-3.14733 -2.62148,-4.96657 -2.58084,-8.50624c0.85756,-1.89055 1.81465,-3.24965 2.05245,-5.36484c0.15944,-1.41821 -0.63559,-2.88904 -0.23985,-4.32033c0.70644,-2.55509 3.37737,-3.05901 5.17041,-4.04593c0,0 0.44809,-0.24664 0.6822,0.23187z" fill="#666666" stroke-width="0.5"/><path d="M188.34628,235.59585v-43.11688h16.30238v43.11688z" fill="#870d0d" stroke-width="0"/><path d="M185.71413,306.11629v-72.20832h24.26919v72.20832z" fill="#7b0c0c" stroke-width="0"/><path d="M196.93976,239.384c-0.39211,-0.45633 -0.25322,-1.4981 -0.12375,-2.47241c-0.47082,0.68388 -1.07353,1.25581 -1.3837,1.30582c-0.59226,0.09548 -0.91363,-0.16199 -1.08028,-0.59144c-0.14857,-0.14365 -0.21782,-0.42737 -0.15718,-0.90071c-0.01076,-0.24796 -0.00515,-0.50832 0.00724,-0.76615h-0.32957c-0.55184,1.78195 -0.89609,3.74653 -0.89609,5.53018c-0.33337,0.75113 -1.09632,2.35211 -2.15841,1.40807c-0.46287,-0.41144 -0.03288,-0.95505 -0.13741,-1.40807c-0.31239,-1.35383 -0.68279,-4.31636 -1.41155,-5.41246c-0.39669,-0.59666 -1.4068,0.53535 -2.06529,0c-0.52729,-0.42868 0.24135,-1.09365 -0.66755,-0.97029c-1.35355,0 -4.21865,-1.49376 -1.40943,-2.25831c2.47159,-0.67265 5.82147,-0.01521 8.37977,-0.01521c1.7187,0 3.52879,-0.64131 5.24593,-0.27685c1.09093,0.23155 2.52438,0.96365 3.77128,0.91835c0.18959,-0.09737 0.37751,-0.19577 0.56201,-0.29731l0.12398,-0.17772c0,0 0.3651,-0.4019 0.73018,0c0.04705,0.0518 0.08199,0.1036 0.10714,0.15456c0.09084,0.04323 0.17941,0.12689 0.24775,0.27735c0.23091,0.50838 -0.2309,0.76256 -0.2309,0.76256c-0.35395,0.18525 -0.7156,0.29172 -1.08171,0.3403c-1.38878,0.90676 -2.44618,2.11177 -3.68916,2.96349c-0.14919,0.10223 -0.29157,0.16794 -0.42602,0.20286c-0.14264,1.43117 -0.59408,3.23487 -1.92725,1.68337z" fill="#666666" stroke-width="0.5"/><path d="M274.98816,222.1453v27.62915h-53.70743v-27.62915z" data-paper-data="{&quot;index&quot;:null}" fill="#990f0f" stroke-width="0"/><path d="M254.76114,250.32415v27.62915h-45.25435v-27.62915z" data-paper-data="{&quot;index&quot;:null}" fill="#b31212" stroke-width="0"/><path d="M273.47869,250.32415v27.62915h-18.08372v-27.62915z" data-paper-data="{&quot;index&quot;:null}" fill="#990f0f" stroke-width="0"/><path d="M191.99684,192.82967v-27.62915h47.36761v27.62915z" data-paper-data="{&quot;index&quot;:null}" fill="#b31212" stroke-width="0"/><path d="M255.21398,193.77075v27.62915h-53.70743v-27.62915z" data-paper-data="{&quot;index&quot;:null}" fill="#990f0f" stroke-width="0"/><path d="M220.64691,222.1453v27.62915h-18.08371v-27.62915z" data-paper-data="{&quot;index&quot;:null}" fill="#b31212" stroke-width="0"/><path d="M273.93153,193.96644v27.62915h-18.08372v-27.62915z" data-paper-data="{&quot;index&quot;:null}" fill="#740c0c" stroke-width="0"/><path d="M239.99828,192.82967v-27.62915h47.36761v27.62915z" data-paper-data="{&quot;index&quot;:null}" fill="#990f0f" stroke-width="0"/><path d="M281.62987,278.503v27.62915h-41.39088v-27.62915z" data-paper-data="{&quot;index&quot;:null}" fill="#740c0c" stroke-width="0"/><path d="M239.72752,278.503v27.62915h-41.39087v-27.62915z" data-paper-data="{&quot;index&quot;:null}" fill="#990f0f" stroke-width="0"/><path d="M241.00908,287.03535v0.46964c-0.02851,3.89307 0.36228,7.78484 0.36228,11.7412c0,1.81358 0.48564,5.10704 -0.24878,6.64888c-0.31727,0.66608 -1.57995,1.55583 -2.15451,0.81095c-0.48983,-0.63499 -0.02178,-1.32592 0.05436,-1.91811c0.31084,-2.41775 -0.00585,-4.74205 -0.00585,-7.1855c0.0196,-5.01041 0.05463,-10.17767 -0.71575,-15.14843c0,0 -0.03641,-0.23598 0.05394,-0.43597c-0.55813,-0.43497 -1.92905,-1.56068 -2.26685,-1.44553c-0.76347,0.26024 -1.09806,0.94048 -2.05975,0.93905c-0.93294,-0.00141 -1.87905,-0.88456 -2.76526,-1.17308c-2.31493,-0.00993 -4.57565,-1.0923 -6.9644,-0.70294c-1.90774,0.31096 -4.02962,0.87451 -5.84103,0.94216c-2.42389,-0.01593 -4.53552,-0.40458 -6.95576,-0.94688c-1.49057,-0.33399 -3.24753,0.24638 -4.70958,-0.23483c-1.25122,-0.41182 -1.11601,-1.42228 -0.39569,-2.44243c1.3141,-1.12987 2.75437,-0.83753 4.27212,-0.83753l0.5648,0.29679c0,0 0.08096,0.05247 0.15239,0.15744c3.88745,-0.05223 7.71092,-0.21943 11.60015,-0.21943c5.31355,0.00479 10.60693,0.35066 15.88583,-0.63277c4.91921,-0.37091 9.4493,2.07781 14.36414,2.04171c0.16683,0.00269 0.32674,-0.02112 0.48179,-0.0647c0.03449,-0.78421 0.30165,-2.093 0.33673,-2.44953c0.30168,-3.06681 -0.00339,-6.46378 -0.00339,-9.55606c0,-4.44934 0.60606,-9.78674 -0.3939,-14.10141c-1.10898,-0.35712 -2.1708,-0.60771 -2.8259,-0.27223c-2.15197,1.10203 -4.70289,1.21229 -7.06979,1.1949c-3.92816,-1.25293 -9.86453,-2.4061 -13.76565,-0.72349c-5.1075,1.65508 -10.50823,-1.82323 -15.46796,-0.21581c-2.25198,0 -5.07243,2.45788 -6.43791,-1.02459l-0.04781,-0.73218c0,0 0.00001,-0.31886 0.18127,-0.48659c0.00862,-0.57014 0.4527,-0.57011 0.4527,-0.57011c3.53992,0 7.02876,-0.39317 10.59593,-0.46005c-0.00523,-0.38829 0.00062,-0.78156 0.00062,-1.15354c0,-4.56563 0.86772,-8.9753 0.36341,-13.57816c0.03333,-4.61707 -0.39615,-8.77716 -3.46113,-10.60894c-0.74559,0.08242 -1.46452,0.13902 -2.13724,0.13902c-2.33165,-1.00757 -6.82834,-0.92267 -9.29129,-0.46646c-1.27113,0.23546 -2.15998,1.73446 -2.91613,0.29336c-0.91379,-1.21474 -2.29876,-3.35388 -0.61335,-4.68116c0.17576,-0.13841 1.95922,-0.27298 2.14312,-0.29676c1.94676,-0.25172 4.57367,-0.37907 6.45821,0.23171c5.07452,0.02879 10.15727,0.62248 15.312,-0.23799c5.53058,0.01008 11.13681,0.46109 16.7261,0.46988c4.14376,0.76463 8.34388,-0.04991 12.37942,1.57688c0.16269,-0.62259 0.36058,-1.27203 0.35869,-1.70933c-0.01262,-2.89349 -0.35445,-5.81369 -0.36228,-8.68849c0,-4.87858 1.06472,-9.41137 -0.11478,-14.20213c-2.26851,-0.15971 -4.65132,-0.74663 -6.859,-0.74663c-4.87227,0 -9.59251,-0.70448 -14.49101,-0.70448c-3.15055,-0.00405 -6.11091,0.86239 -9.20987,1.17298c-1.96952,0.19738 -3.72656,-0.70334 -5.6434,-0.70334c-4.62414,0 -9.0717,-0.24703 -13.73799,-0.23329c-0.34543,0.08949 -1.97428,0.61132 -2.30613,0.45242c-1.39468,-0.66781 -0.4456,-3.15074 0.64744,-3.27184c2.65687,-0.29434 5.37121,0.94272 8.07865,-0.22724c2.75777,-0.03394 5.55662,-0.03218 8.27906,0.46647c0.89438,0.16382 1.66039,0.64186 2.58918,0.47283c0.97952,-0.17827 1.76745,-0.93429 2.7896,-0.94686c4.10955,0 8.91083,1.6831 12.78822,0.00757c3.2803,-0.04036 0.8301,-8.43992 1.07218,-10.99863c0.11162,-1.17966 0.36029,-2.31692 0.36228,-3.52234c0.37721,-1.95609 0.89947,-8.97071 -0.5217,-10.85084c-0.11914,-0.01428 -0.26065,-0.08722 -0.3424,-0.32525c-0.14955,-0.09397 -0.31504,-0.14327 -0.49783,-0.14113c0,0 -0.45284,0 -0.45284,-0.58707c0,-0.58706 0.45284,-0.58706 0.45284,-0.58706c0.49741,0.00474 0.89795,0.11261 1.2193,0.30237l0.08661,-0.03742c1.11579,-0.46764 1.76011,-0.37418 2.7161,0.51475c0.13915,2.5489 -0.33401,5.0062 -0.30859,7.56081c0.0415,4.16658 0.5433,8.24754 0.5433,12.44139c0,0.93962 -0.85667,5.22133 -0.31377,5.92514c0.25341,0.32852 1.52098,0.06288 1.85344,0.06288c1.86603,0 3.67746,0.46749 5.50527,0.47693c2.33501,0.98146 5.32673,0.66445 7.66243,0.23193c2.09592,-0.38811 4.2557,0.30634 6.35052,-0.23637c3.08334,0.00665 5.7572,0.14341 8.79456,0.70602c1.13106,0.2095 2.20291,-0.7622 3.27768,-0.46647c1.51036,0.41558 1.40965,2.60708 -0.07255,2.81031c-1.35468,0 -2.59655,0.45908 -3.92969,0.70008c-3.07943,0.55671 -6.23451,-0.46523 -9.29334,-0.46523c-1.14725,0 -2.18198,0.23609 -3.2465,0.45205c-0.52103,2.99542 -0.8291,5.9532 -0.8291,9.09574c0,4.97054 0.45166,9.9528 0.53144,14.97642c3.52621,1.09506 8.12035,0.87419 11.69534,0.87419c1.87345,0 4.94222,-0.59228 6.57789,0.79217c0.66483,0.5627 0.8987,3.28303 -0.13402,3.65378c-0.34367,0.1234 -1.23232,-1.23548 -1.57097,-1.45294c-0.84495,-0.54256 -1.79229,-0.40995 -2.69923,-0.40995c-2.14056,0 -4.286,0.04714 -6.42238,0.09977c-0.91978,1.18125 -2.02436,2.21667 -3.35905,2.23309c-1.45682,0 -2.21588,1.70654 -3.44161,1.64377c-1.61409,-0.08268 -1.16546,-2.89381 -2.10412,-3.66281c-0.00738,0.02585 -0.01626,0.05242 -0.02678,0.07969c-0.20253,0.52508 -0.60756,0.26255 -0.60756,0.26255l-0.30295,-0.20298c-2.22988,-1.00128 -4.04744,-0.23455 -6.34566,0.02864c-2.32299,0.26602 -4.63025,-0.45537 -6.97067,-0.47257c-4.65213,-1.50772 -8.85105,1.62399 -13.48832,0.9891c-1.23861,-0.17071 -2.35405,-0.66402 -3.55581,-0.99227c-0.28484,-0.0778 -0.57891,-0.1381 -0.88064,-0.18335c-0.08322,0.09369 -0.17159,0.13187 -0.17159,0.13187l-0.54341,0.23482c-0.90977,0.35955 -1.00138,1.49712 -1.1453,2.5898c-0.42401,3.21919 -0.16599,6.21856 -0.17868,9.46202c0.77129,3.99956 0.36566,7.938 0.36566,12.04774c0,0.44431 0.02898,0.93481 0.03829,1.41768c4.72159,0.12868 9.98787,0.44415 14.40641,-1.01063c1.58982,-0.50371 3.23643,0.22671 4.85614,0.26737c3.8816,0.09744 7.85925,0.00041 11.76425,-0.00014c5.0918,0 10.29539,0.99079 15.42172,0.94021c1.65282,0.23646 4.93135,-0.95731 6.37171,0.32159c1.20801,1.07258 -0.11591,3.58465 -1.22087,3.88864c-1.00525,0.27654 -3.08314,-0.92359 -4.2702,-0.92359c-1.05813,-0.01703 -2.01578,0.93065 -3.07935,0.93929c-1.20068,0.00977 -2.52675,-0.45027 -3.69528,-0.71205c-1.96537,-0.44032 -3.96646,0.47724 -5.90501,0.47724c-0.21612,0 -0.46017,-0.03383 -0.72417,-0.09076c0.33105,1.87755 0.09019,4.08607 0.09019,5.98557c0,5.76237 -0.15437,11.44571 -0.18453,17.07041c0.04626,0.23978 0.05753,0.50887 0.03922,0.78863c0.11843,-0.03732 0.24033,-0.06538 0.36644,-0.08176c3.46942,-0.4505 7.22791,0.16359 10.73769,0.16359c3.00679,0 5.48878,-0.30163 8.38927,1.02696l0.05455,0.12002l0.02758,-0.03577l0.36227,0.46964c0.08194,0.10624 0.13264,0.253 0.13264,0.41512c0,0.32423 -0.20274,0.58705 -0.45284,0.58705h-0.54341v-0.1299c-1.0619,0.1323 -2.09608,-0.08362 -3.18792,0.12234c-3.06291,0.57775 -5.82916,1.18532 -8.97641,1.18058c-2.39048,-0.38441 -5.06883,-0.94048 -7.47682,-0.26909c-1.33201,0.37138 -2.4811,1.25027 -3.85138,1.43994c-1.27764,0.17684 -2.48493,-0.47945 -3.72271,-0.46811c-1.91666,-0.49666 -4.62951,-0.84543 -6.41938,0.38483c-0.47963,0.32966 -0.84609,2.22968 -1.05083,3.85669c0.0402,0.44918 0.02919,0.91678 -0.04021,1.3999c0.40012,0.04369 0.40011,0.58425 0.40011,0.58425zM239.36305,283.4665c0.08427,0.66253 0.15555,1.32697 0.21592,1.99281c-0.0388,-0.66622 -0.0502,-1.36978 -0.21592,-1.99281z" fill="url(#color-3)" stroke-width="0.5"/><path d="M201.10774,164.24064l-4.62755,-90.81021l75.21653,-3.83292l4.62755,90.81021z" data-paper-data="{&quot;index&quot;:null}" fill="#000000" stroke-width="0"/><path d="M226.79546,128.9745c0.32269,6.33246 -4.54919,11.72754 -10.88166,12.05023c-6.33246,0.32269 -11.72754,-4.54919 -12.05023,-10.88166c-0.32269,-6.33246 4.54919,-11.72754 10.88166,-12.05023c6.33246,-0.32269 11.72754,4.54919 12.05023,10.88166z" data-paper-data="{&quot;index&quot;:null}" fill="#ffffff" stroke-width="0"/><path d="M226.3521,128.49645c0.29688,5.82587 -4.18527,10.78932 -10.01111,11.0862c-5.82586,0.29688 -10.78932,-4.18526 -11.0862,-10.01111c-0.29688,-5.82587 4.18526,-10.78932 10.01111,-11.0862c5.82586,-0.29688 10.78932,4.18525 11.0862,10.01111z" data-paper-data="{&quot;index&quot;:null}" fill="#000000" stroke-width="0"/><path d="M199.56281,165.46237l-1.16857,-22.93186l57.78833,-2.94481l1.16857,22.93186z" data-paper-data="{&quot;index&quot;:null}" fill="#990f0f" stroke-width="0"/><path d="M259.38261,104.3225c0.32269,6.33246 -4.54919,11.72754 -10.88166,12.05023c-6.33246,0.32269 -11.72753,-4.54919 -12.05022,-10.88166c-0.32269,-6.33246 4.54919,-11.72754 10.88165,-12.05023c6.33246,-0.32269 11.72754,4.54919 12.05023,10.88166z" data-paper-data="{&quot;index&quot;:null}" fill="#ffffff" stroke-width="0"/><path d="M257.99144,104.89404c0.29688,5.82587 -4.18526,10.78932 -10.01111,11.0862c-5.82586,0.29688 -10.78932,-4.18525 -11.0862,-10.01111c-0.29688,-5.82587 4.18526,-10.78932 10.01111,-11.0862c5.82587,-0.29688 10.78932,4.18525 11.0862,10.01111z" data-paper-data="{&quot;index&quot;:null}" fill="#000000" stroke-width="0"/><path d="M229.26024,140.65105l-1.16857,-22.93186l48.00405,-2.44621l1.16857,22.93186z" data-paper-data="{&quot;index&quot;:null}" fill="#b31212" stroke-width="0"/><path d="M257.65688,162.50199l-1.16857,-22.93186l20.33293,-1.03614l1.16857,22.93186z" data-paper-data="{&quot;index&quot;:null}" fill="#740c0c" stroke-width="0"/><path d="M196.27723,119.03385l-1.16857,-22.93186l40.05435,-2.04111l1.16857,22.93186z" data-paper-data="{&quot;index&quot;:null}" fill="#990f0f" stroke-width="0"/><path d="M259.11055,115.83196l-1.16857,-22.93186l20.4858,-1.04393l1.16857,22.93186z" data-paper-data="{&quot;index&quot;:null}" fill="#740c0c" stroke-width="0"/><path d="M195.39883,95.78064l-1.16857,-22.93186l24.15491,-1.2309l1.16857,22.93186z" data-paper-data="{&quot;index&quot;:null}" fill="#b31212" stroke-width="0"/><path d="M220.16525,94.51858l-1.16857,-22.93186l57.78833,-2.94481l1.16857,22.93186z" data-paper-data="{&quot;index&quot;:null}" fill="#990f0f" stroke-width="0"/><path d="M216.08346,72.22624l-0.24853,0.01266c-0.25329,0.01291 -0.4691,-0.18197 -0.48201,-0.43526c-0.01291,-0.25329 0.18196,-0.4691 0.43526,-0.48201l0.29008,-0.01478c0.01499,-0.02372 0.0316,-0.04676 0.04987,-0.06902c0.17539,-0.21353 1.34027,-0.15508 1.63968,-0.17034c0,0 0.09431,-0.00481 0.19958,0.03271c0.47643,-0.30981 1.08193,-0.23454 1.67221,-0.259l0.06533,0.03972l0.00715,-0.02575l0.54951,0.15256c0.19035,0.04807 0.33546,0.21565 0.34597,0.42196c0.01051,0.20631 -0.11683,0.38775 -0.30129,0.45493l-0.2416,0.09446c-1.12389,1.41473 -0.64778,3.19126 -0.2777,5.12064c0.38713,2.0183 0.23298,4.33066 0.32534,6.38442c-0.06112,0.22016 -0.10793,0.4492 -0.14219,0.68515c0.10731,0.79493 0.10142,1.90693 0.04893,2.86882c0.15189,1.15677 0.41397,2.30199 0.62446,3.26103c0.01831,0.08343 0.0436,0.19054 0.07306,0.31551c0.17543,0.24527 0.24219,0.60826 0.21589,0.978c0.11916,0.60529 0.21632,1.27754 0.17352,1.77437c0.09564,0.01371 0.19348,0.02668 0.29397,0.03827c3.14017,0.36235 6.90168,0.19415 10.04431,0.034c2.24462,-0.11145 4.35883,-1.08615 6.6501,-0.88473c2.69659,0.23704 5.28827,0.46031 8.03564,0.32031c4.02024,-0.15485 8.87053,-0.59017 12.72989,-1.74885c2.19892,-0.10177 4.18102,-1.2328 6.4847,-1.06739c2.36686,0.16996 4.56404,0.68275 6.94428,0.56445c1.59896,-0.2848 4.46624,-0.88323 5.96951,-0.05247c1.04052,0.57502 1.26781,2.91528 -0.26914,3.07187c-1.57164,0.16015 -2.84582,-1.61282 -4.75276,-0.86734c-1.89735,0.09669 -3.78624,1.0304 -5.64831,1.39391c-0.37443,0.07309 -0.75244,0.11941 -1.133,0.14552c-0.64182,0.75551 -1.55028,0.97977 -2.50413,1.35264c-0.95602,0.36207 -1.62155,-0.32153 -2.39193,-0.16512c-0.98065,0.1991 -1.87775,2.99427 -3.35592,1.87972c-0.58135,-0.43835 -0.29026,-2.60901 -1.16034,-2.73753c-3.30044,0.59006 -6.82562,0.59736 -10.23161,0.77092c-4.63551,0.20392 -9.1409,-0.9541 -13.76074,-0.77618c-3.99129,1.57961 -8.36591,1.19441 -12.76792,1.38636c-0.90757,-0.28618 -2.69422,0.3433 -3.68692,0.55575c-2.55631,0.54706 -6.2035,0.71935 -8.67702,0.05664c-3.45029,-1.00157 -8.82386,0.39627 -12.35311,0.5322c-1.38348,0.49819 -1.52162,-1.61633 -0.49294,-2.12037c1.02868,-0.50405 4.45227,-0.02003 6.37667,-0.44372c1.42661,-0.31409 2.44922,-0.99597 3.98079,-0.57072c4.00941,-0.20431 8.86584,0.885 12.6697,-0.58051c-0.16941,-0.20262 -0.27469,-0.45347 -0.24739,-0.68175c0.14634,-1.22312 0.40285,-2.42217 0.62301,-3.64477c-0.00479,-0.3009 -0.00206,-0.60459 0.00442,-0.90971c-0.17955,-1.30176 -0.27402,-2.5609 -0.34589,-3.97138c-0.00665,-0.3007 0.04901,-0.66524 0.16266,-0.96944c-0.06493,-0.27033 -0.14594,-0.53474 -0.24649,-0.79195l0.0157,-0.07447l-0.02538,0.00129l-0.02805,-0.55036c-0.00474,-0.09298 0.01852,-0.1809 0.06238,-0.25559c-0.01943,-0.05058 -0.03927,-0.10088 -0.05951,-0.15095c-0.60889,-1.60013 -1.31371,-5.59508 -0.98074,-8.19553c-0.39566,-0.19697 -0.76893,-0.60756 -0.95102,-1.03379zM220.27237,92.90896c-0.01334,0.00775 -0.02688,0.01511 -0.04059,0.02205l0.00851,0.16705c0.01203,-0.06279 0.0227,-0.12583 0.03208,-0.18911z" data-paper-data="{&quot;index&quot;:null}" fill="#666666" stroke-width="0.5"/><path d="M257.49434,120.89219c-1.53662,0.09681 -2.91243,-1.81577 -3.57336,-0.65758c-0.24507,0.55965 -0.56547,1.03551 -0.83938,1.57553c-0.21159,0.41718 -0.47031,0.81195 -0.75648,1.18196c-2.87081,3.712 -3.6514,-3.04555 -5.7226,-4.22535c-0.83767,-0.55374 -0.81603,0.3146 -1.7213,0.31821c-0.4913,0.00197 -0.85086,-0.49695 -1.23943,-0.79762c-1.28289,-0.99272 -3.90379,-0.69557 -5.29396,-0.26267c0,0 -0.38584,0.11762 -0.54454,-0.22922c-1.28134,0.36621 -2.46514,0.90446 -3.81203,1.35439c-0.61733,0.20622 -1.19594,0.08879 -1.77122,-0.04015c-0.07097,0.14526 -0.21664,0.24863 -0.38954,0.25744l-0.40203,0.02049c-1.95303,0.80391 -1.73142,2.08523 -2.43261,3.26452c-0.00771,0.13155 -0.02095,0.26291 -0.04668,0.38439l0.0224,0.02023l-0.03654,0.04046c-0.03992,0.15616 -0.10385,0.2922 -0.20801,0.3858c-0.27945,0.2511 -0.65582,0.58625 -1.01753,0.48471c-0.50636,-0.14213 -0.47987,-3.22494 -0.48309,-4.42356c-0.20706,-0.40888 -0.51887,-0.77211 -1.00006,-1.156l-0.4114,-0.11422c-0.19035,-0.04809 -0.33546,-0.21565 -0.34597,-0.42196c-0.01051,-0.20631 0.11683,-0.38775 0.30129,-0.45494l0.441,-0.1724l0.01048,0.02677l0.0602,-0.04803c0.4311,-0.02351 0.78454,0.01757 1.14031,0.09894c3.55249,-1.32895 6.6926,-0.34625 10.36095,-0.53319c0.12934,-0.00659 0.25864,-0.01333 0.38789,-0.02022c0.62758,-0.14632 1.28222,-0.24881 1.98766,-0.28476c0.68139,-0.03175 1.40746,-0.01679 2.16226,0.02342c2.87902,-0.20116 5.75454,-0.42685 8.66158,-0.57498c3.01129,-0.15345 6.21714,-0.91411 9.21962,-0.65029c0.85985,0.07557 1.67981,0.25158 2.51761,0.33099c1.7191,-0.41427 3.46131,-0.44352 5.29216,-0.5164l0.1977,0.05264c2.73277,-0.42543 5.47475,-0.96569 8.19558,-1.04448c0.99115,0.59756 1.25521,1.26491 0.73931,1.73397c0.00402,0.00817 0.0079,0.01645 0.01163,0.0248c0.57793,1.29224 -0.59372,1.35551 -1.21429,0.73014c-0.09332,-0.01195 -0.24611,-0.0535 -0.33431,-0.19481c-3.02617,0.55164 -6.30532,0.18689 -9.19419,1.31625c-1.6702,0.10101 -3.34019,0.19443 -5.00892,0.21279c-1.08111,0.86876 -2.55207,2.89842 -3.91014,2.98398zM248.96193,116.94726c1.0909,0.0193 2.15203,-0.02724 3.14168,-0.19586c-0.36089,0.03326 -0.71926,0.06039 -1.07428,0.07848c-0.69077,0.0352 -1.37976,0.07477 -2.06742,0.11736z" data-paper-data="{&quot;index&quot;:null}" fill="#565656" stroke-width="0.5"/><path d="M232.80195,143.80258c0.05356,0.81872 -0.08263,1.52763 -1.23121,1.51639c-1.49459,-0.01462 -1.14257,-1.1946 -1.01465,-2.20932c-0.84692,0.16633 -1.91426,0.05517 -2.62026,0.09115c-1.10026,0.05607 -2.19241,0.09077 -3.28021,0.11844l-0.0217,0.02342c-1.54723,2.29079 -2.49967,0.87243 -4.37472,1.78107c-0.28413,0.92782 -1.6207,1.22878 -2.26835,0.33784c-0.33788,-0.46482 0.06679,-1.10784 0.02463,-1.53667c-0.01544,-0.15692 -0.08417,-0.28676 -0.19514,-0.3933c-4.14098,0.23367 -8.14275,1.42599 -12.36569,0.8032c-2.07224,-0.58695 -4.08008,0.76105 -6.10977,0.87474c-1.24645,0.06983 -2.14026,-0.03353 -1.6568,-1.31734c-0.01548,-0.01157 -0.02397,-0.01922 -0.02397,-0.01922c-1.21248,-1.50449 0.71797,-1.74123 1.88876,-1.80089c2.676,-0.13636 5.29321,-0.44773 7.95299,-0.58327c2.58344,0.78326 6.53808,-0.8909 9.25438,-1.02932c1.26039,-0.06423 3.05611,0.43806 4.15566,-0.02189c2.33165,-0.13281 5.14475,0.65158 7.38354,0.17305c2.38734,-0.51028 4.71206,-0.97929 7.17321,-1.1047c5.25871,-0.26798 10.41958,0.02082 15.62171,-0.24427c4.76546,-0.24284 9.43732,-1.21663 14.2721,-1.46301c3.15745,-0.1609 6.60324,-1.02518 9.78752,-0.67676c1.43093,0.15658 2.86373,0.38021 3.02543,1.94713c-1.11409,1.3062 -1.79784,0.61213 -3.2349,0.44277c-3.18024,-0.37482 -6.40026,2.26211 -9.49292,1.4034c-1.58693,0.10062 -6.09102,-0.28168 -7.87822,0.96423l0.00442,0.08672c0.12277,2.8156 0.29964,5.62818 0.42946,8.49514c-0.57571,2.98815 0.28641,5.55282 0.43996,8.56617c0.07502,1.47226 0.88448,3.72552 0.88448,3.72552l-4.45659,0.27093c0,0 1.11349,-3.02653 1.19873,-3.76523c0.26287,-2.27813 -0.06562,-4.7803 -0.18333,-7.09033c-0.17951,-3.52262 0.21214,-7.23096 -0.82577,-10.57701c-0.00247,-0.00113 -0.00491,-0.00222 -0.00738,-0.00334c-0.62869,-0.28249 -1.51925,-0.05976 -2.19039,-0.02556c-1.90586,0.09712 -4.61577,-0.24141 -6.3959,0.4631c-1.69344,1.25801 -3.92516,1.04783 -5.91439,0.8965c-2.0815,-0.15834 -4.20676,-0.18004 -6.32489,-0.22644c-0.505,0.26171 -0.93023,0.80877 -1.42985,1.10695z" data-paper-data="{&quot;index&quot;:null}" fill="#484848" stroke-width="0.5"/></g></g></svg>