<svg version="1.1" xmlns="http://www.w3.org/2000/svg" xmlns:xlink="http://www.w3.org/1999/xlink" width="98.72001" height="255.01783" viewBox="0,0,98.72001,255.01783"><g transform="translate(-191.01313,-52.53532)"><g data-paper-data="{&quot;isPaintingLayer&quot;:true}" fill-rule="nonzero" stroke-linejoin="miter" stroke-miterlimit="10" stroke-dasharray="" stroke-dashoffset="0" style="mix-blend-mode: normal"><path d="M192.7312,305.70851c0,0 2.74205,-135.5137 3.68656,-182.19168c0.58954,-29.13536 1.43627,-70.98151 1.43627,-70.98151l91.16337,1.84464l-5.12283,253.17319z" fill-opacity="0.01" fill="#000000" stroke="none" stroke-width="0" stroke-linecap="butt"/><path d="M201.10707,285.3515c0,0 -0.48295,5.09553 -2.5281,6.97096c-2.04514,1.87543 -5.61067,0.49241 -5.61067,0.49241c0,0 1.6204,-3.54407 3.23484,-5.02454c1.61444,-1.48047 4.90393,-2.43882 4.90393,-2.43882z" data-paper-data="{&quot;index&quot;:null}" fill="#565656" stroke="#000000" stroke-width="0" stroke-linecap="round"/><path d="M199.55037,288.91999c0,0 1.53958,4.88133 0.38625,7.40515c-1.15332,2.52382 -4.97596,2.63855 -4.97596,2.63855c0,0 0.11227,-3.89533 1.0227,-5.88764c0.91043,-1.99232 3.567,-4.15607 3.567,-4.15607z" data-paper-data="{&quot;index&quot;:null}" fill="#484848" stroke="#000000" stroke-width="0" stroke-linecap="round"/><path d="M284.34156,245.95203c2.20348,0.48387 5.06441,2.58778 5.06441,2.58778c0,0 -3.39854,2.5896 -6.18986,1.97665c-2.79132,-0.61295 -4.91836,-4.41594 -4.91836,-4.41594c0,0 3.84033,-0.63236 6.04381,-0.14849z" fill="#565656" stroke="#000000" stroke-width="0" stroke-linecap="round"/><path d="M284.10598,250.27611c1.121,1.99231 1.25924,5.88764 1.25924,5.88764c0,0 -4.70676,-0.11472 -6.12683,-2.63855c-1.42007,-2.52382 0.47559,-7.40515 0.47559,-7.40515c0,0 3.27099,2.16375 4.392,4.15606z" fill="#484848" stroke="#000000" stroke-width="0" stroke-linecap="round"/><path d="M201.03042,304.39162c0,0 -0.4854,-71.9563 -0.79335,-118.01201c-0.05451,-8.15261 8.18688,-36.76129 40.20201,-36.9211c31.60235,-0.15775 39.85672,29.48704 39.84884,36.89673c-0.029,17.5064 -0.32328,58.87401 -0.32328,58.87401c0,0 -0.43006,6.18808 -3.99407,6.45425c-4.83423,0.36103 -5.60415,-5.12476 -5.60415,-5.12476l-0.0797,-56.96399c0,0 0.07549,-3.0993 -2.81625,-3.15415c-3.43441,-0.06514 -2.94538,3.11562 -2.94538,3.11562l0.20548,114.86995l-48.21366,0.07222l-0.30539,-115.23309c0,0 0.27949,-2.919 -2.8856,-2.93443c-3.11083,-0.01515 -2.81569,2.90899 -2.81569,2.90899l0.35311,115.0668z" fill="#ffffff" stroke="#000000" stroke-width="2" stroke-linecap="butt"/><path d="M281.10754,246.37798c0,0 -1.01094,7.26306 -5.5,7.25c-6.48102,-0.01886 -7,-8 -7,-8z" fill="#5d5d5d" stroke="#000000" stroke-width="0" stroke-linecap="round"/><path d="M269.14713,246.07419l0.25,-7.5l12.75,-2.75c0,0 0.3169,1.78446 0.34925,3.75248c0.02752,1.67376 -0.21994,3.4803 -0.30479,4.43481c-0.11926,1.34169 -1.04446,3.06271 -1.04446,3.06271c0,0 -1.61903,-0.25619 -3.50342,-0.2864c-1.82943,-0.02933 -3.90897,0.1687 -5.00002,0.07778c-1.42029,-0.11836 -3.49655,-0.79138 -3.49655,-0.79138z" fill="#666666" stroke="none" stroke-width="0" stroke-linecap="butt"/><path d="M282.64713,238.99056l-13.75,-0.25l1,-8.75c0,0 7.28997,-5.32153 9.6738,-5.68828c1.39782,-0.21505 3.3262,3.68828 3.3262,3.68828z" fill="#6e6e6e" stroke="#000000" stroke-width="0" stroke-linecap="round"/><path d="M265.64526,156.30802c0,0 11.88782,8.45539 15.23702,15.71199c1.58368,3.43131 2.459,20.09088 2.7759,35.87814c0.18247,9.09055 0.01268,17.39056 0.11471,23.99431c0.09551,6.18155 0.87238,9.9989 0.87238,9.9989c0,0 -2.52027,-5.32788 -3.24961,-8.36366c-0.69047,-2.87399 -1.01622,-9.39221 -1.01622,-9.39221l-2.1688,13.71364c0,0 -0.82565,-3.28203 -1.76121,-2.67125c-0.44905,0.29316 -0.86582,2.792 -1.11589,3.62643c-0.95642,3.1914 -1.99813,8.8358 -1.99813,8.8358c0,0 -1.43504,-7.38148 -2.73983,-10.44068c-1.11875,-2.62302 -4.61699,-6.80808 -4.61699,-6.80808z" data-paper-data="{&quot;index&quot;:null}" fill="#740c0c" stroke="none" stroke-width="2" stroke-linecap="round"/><path d="M214.81194,268.64135l-17.72222,-1.63889c0,0 -0.33423,-2.26937 0.268,-29.35724c0.25263,-11.36301 0.81251,-23.31557 1.18322,-33.64302c0.58744,-16.36522 1.13246,-29.6678 2.20064,-31.9822c3.3492,-7.2566 14.90368,-16.37866 14.90368,-16.37866z" fill="#740c0c" stroke="none" stroke-width="2" stroke-linecap="round"/><path d="M196.81324,267.38464c0,0 -0.77497,-0.38619 -1.04277,-1.19424c-0.20156,-0.60818 -0.08835,-1.30377 -0.03181,-1.93716c0.06108,-0.68426 0.07458,-1.29593 0.07458,-1.64637c0,-0.6858 1,-1.22222 1,-1.22222c0,0 6.11172,0.82532 9.14217,0.93704c2.99695,0.11048 8.94116,-0.27037 8.94116,-0.27037c0,0 0.8539,0.8052 1.32269,2.03064c0.16918,0.44227 -0.12132,1.35676 -0.15808,1.85708c-0.04765,0.64848 0.10433,0.90336 -0.10891,1.65894c-0.37776,1.33852 -1.16681,1.56445 -1.16681,1.56445c0,0 -6.01896,0.00462 -9.01995,-0.29224c-2.98971,-0.29573 -8.95228,-1.48555 -8.95228,-1.48555z" fill="#990f0f" stroke="none" stroke-width="0" stroke-linecap="butt"/><path d="M255.62759,200.33393c-0.57113,0 -1.03411,-0.46299 -1.03411,-1.03411c0,-0.57113 0.46299,-1.03413 1.03411,-1.03413c0.57113,0 1.03411,0.463 1.03411,1.03413c0,0.57113 -0.46299,1.03411 -1.03411,1.03411z" fill="#000000" stroke="none" stroke-width="1.5" stroke-linecap="butt"/><path d="M250.36772,204.56952c-4.4635,-0.31439 -6.55245,-1.79392 -6.16985,-2.58011c0.11788,-0.24224 2.84645,1.06355 6.97038,1.3048c6.40897,0.37493 8.51033,-0.63173 8.51033,-0.63173v1.34616c0,0 -2.4135,1.04672 -9.31086,0.56089z" fill="#000000" stroke="#000000" stroke-width="0" stroke-linecap="butt"/><path d="M222.55496,199.29982c0,-0.57113 0.46299,-1.03413 1.03411,-1.03413c0.57113,0 1.03413,0.463 1.03413,1.03413c0,0.57113 -0.463,1.03411 -1.03413,1.03411c-0.57113,0 -1.03411,-0.46299 -1.03411,-1.03411z" fill="#000000" stroke="none" stroke-width="1.5" stroke-linecap="butt"/><path d="M228.84896,204.56952c-6.89736,0.48585 -9.31086,-0.56089 -9.31086,-0.56089v-1.34616c0,0 2.10136,1.00666 8.51033,0.63173c4.12393,-0.24126 6.85251,-1.54704 6.97039,-1.3048c0.3826,0.78618 -1.70634,2.26571 -6.16985,2.58011z" fill="#000000" stroke="#000000" stroke-width="0" stroke-linecap="butt"/><path d="M240.12942,261.12113c-0.81895,0 -1.48284,-0.66389 -1.48284,-1.48284c0,-0.81895 0.66389,-1.48284 1.48284,-1.48284c0.81895,0 1.48284,0.66389 1.48284,1.48284c0,0.81895 -0.66389,1.48284 -1.48284,1.48284z" data-paper-data="{&quot;index&quot;:null}" fill="#000000" stroke="none" stroke-width="1.5" stroke-linecap="butt"/><path d="M215.06615,305.07275v-119.86813v-28.99323c0,0 3.67319,-2.35297 5.6557,-3.74807c1.98251,-1.3951 5.17197,-2.13705 5.17197,-2.13705c0,0 -0.26826,21.77569 14.89286,21.70534c15.43477,-0.07162 13.4982,-21.70534 13.4982,-21.70534c0,0 3.91276,0.85292 6.16585,2.27989c2.25309,1.42695 5.75379,4.2719 5.75379,4.2719v28.83138v119.36333z" fill="#5d0909" stroke="none" stroke-width="2" stroke-linecap="butt"/><path d="M192.81397,106.85382c0,0 3.44091,-2.5335 6.49286,-5.34623c2.38281,-2.19604 4.53247,-4.75749 4.5964,-5.13584c0.30407,-1.79951 0.41123,-3.32261 0.41123,-3.32261c0,0 6.87939,-8.79284 9.89229,-14.49012c2.63548,-4.9836 4.05437,-11.83513 8.36342,-15.47024c5.29295,-4.46513 13.35869,-6.535 22.60323,-5.96396c9.25177,0.57148 13.14195,4.52271 24.7889,6.33023c6.63806,1.03018 12.92869,-0.52889 12.92869,-0.52889c0,0 -3.98945,3.96793 -7.33713,5.94058c-3.34768,1.97265 -5.65753,1.71663 -5.65753,1.71663c0,0 5.49736,2.13701 9.53628,2.18708c4.03891,0.05007 10.30053,-1.19699 10.30053,-1.19699c0,0 -3.00815,3.7149 -5.70929,6.28084c-2.70114,2.56594 -7.8142,2.97651 -7.8142,2.97651c0,0 3.57087,8.14663 3.6143,9.51493c0.16701,5.26258 0.81038,8.25708 2.50195,13.24318c0.42356,1.24848 2.80512,3.3717 3.58085,5.98345c0.77572,2.61175 1.19734,10.10398 1.19734,10.10398c0,0 -3.01119,-4.31124 -4.94243,-6.83536c-1.93124,-2.52412 -2.73722,-3.20188 -2.73722,-3.20188c0,0 0.61096,2.44635 1.24421,5.87942c0.15676,0.84985 -0.36502,1.66274 -0.23342,2.46902c1.39646,8.55508 1.02858,14.84225 -1.77487,22.90978c-0.28918,0.83219 0.22001,1.7 -0.14129,2.57413c-1.01238,2.44925 -2.89865,6.51936 -2.89865,6.51936l-1.39018,-4.87647c0,0 -1.528,2.02745 -2.56029,3.28162c-1.03229,1.25416 -3.53067,4.50889 -3.53067,4.50889c0,0 -0.21064,-2.54545 -0.42188,-3.53664c-0.15271,-0.71656 -0.72793,-1.8586 -0.72793,-1.8586c0,0 -8.44797,10.84926 -25.73203,10.35309c-16.29774,-0.5853 -25.85021,-11.20045 -25.85021,-11.20045l-0.16988,2.65195c0,0 -1.25653,-0.95008 -2.58624,-3.28974c-0.34209,-0.60191 -0.36522,-1.91191 -0.75455,-2.59544c-2.6434,-4.64085 -3.85274,-11.78191 -4.24319,-12.8562c-0.64583,-1.77695 -1.47144,2.39188 -4.2647,4.32236c-3.09656,2.1401 -7.12599,2.20155 -7.12599,2.20155c0,0 2.68875,-4.17784 4.09352,-7.02185c1.40477,-2.84401 1.84826,-5.00751 1.84826,-5.00751c0,0 -2.33693,1.52268 -4.46499,3.19495c-2.12806,1.67226 -6.72634,1.39514 -6.72634,1.39514c0,0 3.67126,-3.94263 5.66868,-6.76099c1.99742,-2.81836 3.78424,-6.57711 3.78424,-6.57711c0,0 -3.5519,1.7721 -5.23533,2.39369c-1.39982,0.51688 -4.17226,1.08 -4.17226,1.08c0,0 5.37422,-5.59657 7.50182,-8.13199c1.86338,-2.22057 4.57655,-6.26156 4.57655,-6.26156c0,0 -1.44346,1.50678 -4.28393,1.79217c-2.39237,0.24036 -6.03893,-0.33784 -6.03893,-0.33784z" fill="#000000" stroke="none" stroke-width="1.5" stroke-linecap="butt"/><path d="M229.19461,266.68611c0.15812,-0.47434 0.63245,-0.31623 0.63245,-0.31623c1.9124,0.65094 5.7232,3.11952 5.74188,5.47434c0.01042,1.31329 -1.60128,2.37572 -1.60153,3.63911c-0.00022,1.12106 0.57118,1.90729 0.60153,2.96089c-0.03067,3.23078 -3.75505,3.36114 -6.07347,2.46894c-0.34044,-0.13101 -1.67267,-1.28719 -2.11165,-1.18232c-2.30782,0.55133 -2.77403,2.55372 -5.0926,0.24098c-1.00178,-1.33233 -4.42154,-5.08299 -3.90082,-6.6725c0.3306,-1.00917 3.26136,-3.4223 3.18501,-4.1352c-0.166,-1.54992 -1.53711,-1.72637 0.34865,-2.99845c2.90434,-0.0645 5.47521,-0.39082 8.26695,0.53153c0.00116,-0.00368 0.00236,-0.00737 0.0036,-0.01109z" data-paper-data="{&quot;index&quot;:null}" fill="#4f0808" stroke="none" stroke-width="0.5" stroke-linecap="butt"/><path d="M214.02903,114.68958c-0.42943,-7.30341 0.68197,-17.14419 0.68197,-17.14419c0,0 3.41073,0.02777 13.97505,-2.86211c8.11618,-2.2202 20.73503,-9.0696 20.73503,-9.0696c0,0 -2.2204,2.96072 -3.49734,4.3903c-1.35753,1.51981 -4.08441,4.48126 -4.08441,4.48126c0,0 7.87013,-1.5087 14.76743,-4.43147c8.63815,-3.36169 10.71281,-5.83756 13.04068,-4.32977c2.74746,1.77957 0.56086,23.19879 0.13688,28.74927c-0.53623,5.65953 -2.72493,9.4465 -3.40296,12.45424c-0.67803,3.00774 -0.53366,6.12708 -2.53026,15.99178c-1.24601,6.15626 -4.34153,8.83864 -10.31396,14.45511c-5.97244,5.61648 -9.23911,9.0677 -13.19951,9.05655c-3.81133,-0.01072 -8.83064,-5.27993 -13.72253,-10.66223c-5.20905,-5.73129 -8.70158,-8.65494 -9.40724,-15.3332c-0.63553,-6.01448 -0.57592,-9.92221 -0.81395,-15.26794c-0.17397,-3.90705 -2.13034,-6.48947 -2.36487,-10.478z" fill="#ffffff" stroke="#000000" stroke-width="1.5" stroke-linecap="butt"/><g stroke="none" stroke-linecap="butt"><g><path d="M262.38362,148.76303c0,0 -2.5032,11.89634 -9.44619,17.21355c-2.35417,1.80291 -8.81409,1.21366 -12.64737,1.19953c-3.56165,-0.01312 -8.34533,0.31985 -10.70812,-1.21718c-8.269,-5.37912 -9.95271,-19.75633 -9.95271,-19.75633c0,0 11.12554,-6.45075 14.32317,-6.38659c4.05115,0.08128 7.77168,3.56325 7.77168,3.56325c0,0 3.53951,-3.99424 9.22034,-2.44077c2.95476,0.808 11.43917,7.82454 11.43917,7.82454z" fill="#000000" stroke-width="0"/><path d="M248.48067,141.52338c0.19364,0.00392 2.70192,1.43303 5.10242,2.99155c5.88415,3.83101 6.13706,4.84429 1.69482,4.20916c-4.91386,-0.72859 -14.86109,-3.93048 -13.81801,-4.24791c2.13224,-0.64894 5.70548,-2.83269 7.02076,-2.95285z" data-paper-data="{&quot;noHover&quot;:false,&quot;origItem&quot;:[&quot;Path&quot;,{&quot;applyMatrix&quot;:true,&quot;segments&quot;:[[[534.21485,395.99112],[0,0],[-0.47656,0.05328]],[[532.57423,397.04166],[0,-0.25122],[0,0.39586]],[[536.59767,398.41192],[-1.78906,-0.22838],[1.61718,0.19792]],[[535.93361,396.98838],[2.16406,1.34742],[-0.88282,-0.5481]],[[534.21485,395.99114],[0.07032,0],[0,0]]],&quot;closed&quot;:true,&quot;fillColor&quot;:[0,0,0]}]}" fill="#ffffff" stroke-width="0.5"/><path d="M237.13699,142.5465c1.96483,0.85296 6.15587,1.70284 5.77877,2.37885c-0.32307,0.57917 -4.90077,1.0125 -6.96466,1.41587c-3.88942,0.76015 -13.72459,0.71522 -12.97956,0.05922c0.46159,-0.47303 10.1898,-4.96256 10.96686,-5.07267c0.25982,-0.0786 1.76991,0.56067 3.1986,1.21873z" data-paper-data="{&quot;noHover&quot;:false,&quot;origItem&quot;:[&quot;Path&quot;,{&quot;applyMatrix&quot;:true,&quot;segments&quot;:[[[528.80865,396.02156],[0.09374,-0.03044],[-0.28126,0.04568]],[[525.02739,397.84096],[0.16408,-0.1751],[-0.26562,0.2436]],[[529.55083,397.71154],[-1.40626,0.3045],[1.61718,-0.35018]],[[529.94927,396.39458],[1.33594,0.5481],[-0.52344,-0.22838]]],&quot;closed&quot;:true,&quot;fillColor&quot;:[0,0,0]}]}" fill="#ffffff" stroke-width="0.5"/><path d="M247.85175,148.61041c0.85248,0.41571 -1.18526,0.82131 -5.59552,0.73207c-4.32587,-0.00361 -7.01079,-0.58869 -6.74459,-0.98177c0.46874,-0.82937 10.52844,-0.62581 12.3401,0.2497z" data-paper-data="{&quot;noHover&quot;:false,&quot;origItem&quot;:[&quot;Path&quot;,{&quot;applyMatrix&quot;:true,&quot;segments&quot;:[[[529.59769,398.48802],[0.16406,-0.3045],[-0.09374,0.14464]],[[531.90237,398.70878],[-1.5703,0.03046],[1.60156,0]],[[533.87893,398.48802],[0.3125,0.14464],[-0.66406,-0.3045]]],&quot;closed&quot;:true,&quot;fillColor&quot;:[0,0,0]}]}" fill="#ffffff" stroke-width="0.5"/><path d="M248.73174,153.94128c-0.00297,0.14672 -1.06752,0.7215 -2.32633,1.24126c-3.03821,1.23876 -7.17835,1.01452 -10.37612,-0.4972l-2.59506,-1.33608l7.62913,-0.07671c4.06477,0.14517 7.67093,0.54294 7.66838,0.66872z" data-paper-data="{&quot;noHover&quot;:false,&quot;origItem&quot;:[&quot;Path&quot;,{&quot;applyMatrix&quot;:true,&quot;segments&quot;:[[[531.55081,400.33026],[1.47656,0.02284],[0,0]],[528.87893,400.33026],[[529.83205,400.7794],[0,0],[1.17188,0.52526]],[[533.40237,400.87836],[-1.09376,0.47198],[0.45312,-0.19792]],[[534.23831,400.42922],[0,0.05328],[0,-0.04568]]],&quot;closed&quot;:true,&quot;fillColor&quot;:[0,0,0]}]}" fill="#ffffff" stroke-width="0.5"/><path d="M221.41683,148.24164c0.01272,-0.62884 2.3538,0.06008 4.67246,1.40723c1.38435,0.72003 2.93872,1.96838 3.43977,2.73352c1.64694,2.6338 6.1469,4.65083 10.52714,5.15891c6.01148,0.72979 8.98747,0.0102 11.14217,-3.30161c1.02017,-1.48929 3.14443,-3.06715 4.2716,-3.4638c2.1894,-0.77356 4.47927,-0.85591 4.46655,-0.22701c-0.00424,0.20961 -1.20995,3.07938 -2.80144,6.21389c-3.61894,7.60229 -5.33611,8.68547 -16.09283,8.46781c-11.33758,-0.22941 -13.70449,-1.98523 -17.76269,-12.02879c-1.00285,-2.55779 -1.86534,-4.83437 -1.8628,-4.96015z" data-paper-data="{&quot;noHover&quot;:false,&quot;origItem&quot;:[&quot;Path&quot;,{&quot;applyMatrix&quot;:true,&quot;segments&quot;:[[[524.47269,398.58698],[0,0],[0,0.04568]],[[525.19145,400.35308],[-0.38282,-0.9211],[1.54688,3.61596]],[[531.62113,404.47146],[-4.11718,0],[3.90624,0]],[[537.30863,401.38078],[-1.25782,2.78618],[0.55468,-1.1495]],[[538.28519,399.13508],[0,0.07612],[0,-0.22838]],[[536.66801,399.25688],[0.78906,-0.29688],[-0.40624,0.15226]],[[535.33207,400.4825],[0.35938,-0.5481],[-0.75782,1.218]],[[531.16801,401.8756],[2.1875,0.22076],[-1.59374,-0.15226]],[[527.26177,399.95724],[0.61718,0.94396],[-0.1875,-0.27406]],[[525.99615,398.98284],[0.5078,0.2512],[-0.85156,-0.47198]],[[524.47271,398.58698],[0,-0.22836],[0,0]]],&quot;closed&quot;:true,&quot;fillColor&quot;:[0,0,0]}]}" fill="#ffffff" stroke-width="0.5"/></g><path d="M247.42131,166.15786c-0.4999,-0.01012 -0.48978,-0.51001 -0.48978,-0.51001l0.03695,-0.55748c0.09744,-0.27375 0.19537,-0.71816 0.19537,-0.71816c0.43743,-1.26502 0.75549,-2.33722 0.93598,-3.49955c0.03483,-0.38211 0.07813,-0.77069 0.13081,-1.15827c0.01954,-0.27082 0.03235,-0.55015 0.03823,-0.84086c0.00735,-0.36305 0.16668,-1.06281 -0.1274,-0.8498c-0.21181,0.32258 -0.44732,0.74649 -0.59088,1.15809c-0.25441,0.72947 -0.33885,1.41787 -0.33885,1.41787c-0.06695,0.203 -0.26016,0.34763 -0.48503,0.34308c-0.27608,-0.00559 -0.49537,-0.23393 -0.48978,-0.51001l0.03237,-1.59967c0.02551,-0.78114 -0.05165,-0.88457 -0.62415,-1.45938c0,0 -0.34633,-0.36063 0.01431,-0.70697c1.38291,-1.32806 2.81326,-0.78034 4.65269,-0.66198c-0.16257,0.54831 -0.27948,1.11662 -0.34627,1.7006c-0.01416,0.01119 -0.02908,0.02247 -0.04481,0.03383c-0.2443,0.17641 -0.23714,5.44757 -1.68049,7.1279c0,0 -0.09733,0.46689 -0.32513,0.61475l0.01596,0.18624c0,0 -0.01012,0.4999 -0.51001,0.48978z" fill="#000000" stroke-width="0.5"/></g><path d="M262.66481,103.81217c0,0 1.48901,0.45551 4.13706,1.49308c2.41869,0.94771 4.27212,2.14181 4.27212,2.14181l0.08775,1.18326c0,0 -6.93461,-3.7769 -14.82814,-3.83632c-6.31148,-0.04748 -10.17783,1.89378 -10.17783,1.89378l0.42577,-4.15533c0,0 3.26963,-1.41244 7.99993,-1.13204c4.89818,0.29036 8.00343,1.32529 8.00343,1.32529z" data-paper-data="{&quot;index&quot;:null}" fill="#000000" stroke="none" stroke-width="1.5" stroke-linecap="butt"/><path d="M241.0602,144.66958c-1.03355,-0.02091 -3.47142,-3.33133 -3.67742,-5.43921c-0.18431,-1.88597 1.39229,-3.8006 3.86337,-3.7506c2.47108,0.05 4.19131,0.57568 3.94443,4.2692c-0.20953,3.13458 -1.65931,4.97062 -4.13038,4.92062z" fill="#ffffff" stroke="#000000" stroke-width="1.15" stroke-linecap="butt"/><path d="M245.27037,114.65497c0,0 0.02227,3.97102 -0.13842,7.12528c-0.31816,6.24597 -1.64286,27.73314 -1.64286,27.73314l-2.98123,-0.05168c0,0 -0.71836,-4.18813 -0.93081,-9.52057c-0.28757,-7.21792 -0.11979,-16.29897 -0.36612,-19.64372c-0.23349,-3.1705 -0.78014,-5.73149 -0.78014,-5.73149" fill="#ffffff" stroke="#000000" stroke-width="1.3" stroke-linecap="round"/><path d="M215.52353,124.84511c0,0 -4.85995,-3.61611 -5.98134,-9.09789c-1.17992,-5.76789 -1.26398,-9.76037 0.68217,-9.98017c1.94616,-0.21982 2.65457,2.43112 3.56282,8.42949c0.90824,5.99837 1.73636,10.64858 1.73636,10.64858z" data-paper-data="{&quot;index&quot;:null}" fill="#ffffff" stroke="#000000" stroke-width="1" stroke-linecap="butt"/><path d="M215.40083,120.89428c0,0 -3.50398,-2.99488 -4.14632,-8.53624c-0.35833,-3.09115 2.20244,-2.23606 2.20244,-2.23606" fill="none" stroke="#000000" stroke-width="0.25" stroke-linecap="round"/><path d="M218.54828,114.30069c0.16988,-4.88944 5.01813,-8.83638 10.38848,-8.64981c5.37034,0.18658 8.93945,4.43015 8.76958,9.31961c-0.16988,4.88944 -4.30059,8.70917 -9.67094,8.5226c-5.37034,-0.18658 -9.657,-4.30295 -9.48712,-9.1924z" fill="#000000" stroke="#000000" stroke-width="1.4" stroke-linecap="butt"/><path d="M222.98262,114.50838c0.09579,-2.75706 2.40846,-4.91441 5.1655,-4.81863c2.75706,0.09579 4.91441,2.40846 4.81863,5.1655c-0.09579,2.75706 -2.40845,4.91441 -5.1655,4.81863c-2.75706,-0.09579 -4.91441,-2.40846 -4.81863,-5.1655z" fill="#ffffff" stroke="none" stroke-width="1.5" stroke-linecap="butt"/><path d="M245.59901,114.84878c0.30238,-4.88305 4.63094,-8.76658 9.94769,-8.659c5.31674,0.10758 9.1924,4.15289 9.09342,9.04428c-0.09897,4.8914 -4.06857,8.99057 -9.8826,8.94378c-5.5302,-0.0445 -9.4743,-4.22945 -9.15851,-9.32907z" fill="#000000" stroke="#000000" stroke-width="1.4" stroke-linecap="butt"/><path d="M222.26913,103.58456c0,0 3.52852,-1.48751 8.21422,-1.50106c5.19235,-0.01502 7.7388,0.6789 7.7388,0.6789l-0.10301,4.1467c0,0 -3.7526,-1.04529 -7.93104,-1.28754c-5.58815,-0.324 -6.75167,0.78916 -11.02887,0.83751c-3.66494,0.04144 -6.72142,-0.48791 -6.72142,-0.48791l0.09232,-1.22835c0,0 3.57152,0.41837 5.21615,0.4338c1.35743,0.01272 4.04734,-0.55253 4.04734,-0.55253z" fill="#000000" stroke="none" stroke-width="1.5" stroke-linecap="butt"/><path d="M269.96026,115.33316c1.15014,-5.95672 1.96521,-8.57683 3.90089,-8.27847c1.93567,0.29836 1.69017,4.28416 0.27789,9.9996c-1.34222,5.43193 -6.34448,8.84848 -6.34448,8.84848c0,0 1.01556,-4.6129 2.1657,-10.56962z" data-paper-data="{&quot;index&quot;:null}" fill="#ffffff" stroke="#000000" stroke-width="1" stroke-linecap="butt"/><path d="M270.45501,111.27528c0,0 2.59326,-0.75081 2.11018,2.32333c-0.86597,5.51084 -4.48824,8.36152 -4.48824,8.36152" data-paper-data="{&quot;index&quot;:null}" fill="none" stroke="#000000" stroke-width="0.25" stroke-linecap="round"/><path d="M254.2573,119.30892c0.29584,0.01613 0.53426,0.17791 0.60064,0.38624l0.08437,0.24015c0.08232,-0.11041 0.23597,-0.21133 0.52193,-0.22277c0.65754,-0.0263 0.69961,0.47309 0.69961,0.47309c0.12787,1.52006 0.04799,3.1289 0.10649,4.70571c0.08719,0.07035 0.17379,0.15652 0.25843,0.25997c0.61077,0.74628 0.08945,3.20095 0.01498,4.13441l-0.03981,0.4988c-0.02199,0.27547 -0.33425,0.48274 -0.69748,0.46293c-0.36322,-0.0198 -0.63986,-0.25917 -0.61789,-0.53464l0.03981,-0.49879c0.00397,-0.04993 0.00744,-0.09983 0.01042,-0.14969c-0.45112,-0.36471 -0.52982,-1.18356 -0.52093,-1.77806l-0.55518,0.28485c0.08261,2.31012 0.16081,4.61752 -0.01609,6.9085l-0.05344,0.68342c0,0 -0.039,0.49882 -0.69673,0.46358c-0.65773,-0.03524 -0.61872,-0.53408 -0.61872,-0.53408l0.05344,-0.68342c0.37172,-4.69294 -0.34391,-9.46005 0.03116,-14.17434c0,0 0.03981,-0.49879 0.69748,-0.46294c0.02199,-0.27547 0.33424,-0.48274 0.69747,-0.46293z" fill="#000000" stroke="none" stroke-width="0.5" stroke-linecap="butt"/><path d="M218.49061,113.76721c0,0 0.24594,-9.01199 10.77747,-8.60863c9.46572,0.35743 9.36327,9.59862 9.36327,9.59862c0,0 -6.97424,0.99052 -10.38122,0.82306c-3.30339,-0.16237 -9.75952,-1.81305 -9.75952,-1.81305z" fill="#000000" stroke="#000000" stroke-width="1.15" stroke-linecap="butt"/><path d="M282.47705,104.12558c0,0 -3.45883,2.27261 -8.44908,7.10782c-6.04437,5.85656 -15.58398,17.58056 -23.04059,21.73038c-13.61283,7.57595 -39.1841,11.99041 -39.1841,11.99041c0,0 -2.57473,-5.1691 -3.30341,-7.55563c-0.75558,-2.47465 -1.15396,-6.95419 -1.15396,-6.95419c0,0 20.12978,-4.52717 31.59343,-10.73552c7.72957,-4.18609 21.80088,-15.25954 31.60032,-23.37681c5.12151,-4.24235 9.4695,-6.17591 9.4695,-6.17591c0,0 0.7895,5.05448 1.30561,7.54922c0.46571,2.25112 1.16228,6.42024 1.16228,6.42024z" fill="#373737" stroke="none" stroke-width="0.5" stroke-linecap="round"/><path d="M206.97095,130.48125c0,0 17.34022,-2.46464 26.13005,-8.15226c7.41763,-4.79972 15.06055,-19.94073 25.26481,-29.36192c7.87664,-7.27219 18.61771,-11.82954 18.61771,-11.82954c0,0 3.52292,8.01523 4.09571,10.618c0.479,2.17654 0.06957,5.96966 0.06957,5.96966c0,0 -6.22142,2.74227 -12.80478,8.85717c-7.09679,6.59179 -13.66313,17.75752 -20.0768,21.9911c-10.83503,7.15206 -36.82035,15.50112 -36.82035,15.50112c0,0 -2.23433,-3.93107 -2.94323,-6.5712c-0.7089,-2.64013 -1.53268,-7.02213 -1.53268,-7.02213z" fill="#424242" stroke="#000000" stroke-width="0" stroke-linecap="round"/><path d="M206.23839,85.58429c0.40852,-1.88107 3.38402,-5.8583 3.38402,-5.8583c0,0 6.7837,0.83901 17.93288,7.06606c12.58626,7.02969 27.35164,18.33455 34.49871,21.85901c7.51959,3.70816 18.66549,8.18751 18.66549,8.18751c0,0 0.86273,4.61728 1.08209,7.7267c0.23319,3.30571 -0.50109,8.8718 -0.50109,8.8718c0,0 -13.13286,-0.1671 -24.54468,-6.45971c-5.91782,-3.26316 -15.22443,-12.71112 -23.80239,-19.18006c-11.82247,-8.91575 -28.17807,-15.08337 -28.17807,-15.08337z" fill="#515151" stroke="none" stroke-width="0.5" stroke-linecap="round"/><path d="M252.9076,120.61456c-13.56201,-11.99953 -29.21791,-25.26155 -35.44276,-30.99761c-6.01252,-5.54039 -8.59226,-9.90611 -8.59226,-9.90611c0,0 2.39115,-4.68357 3.5039,-6.26226c1.19794,-1.69952 7.13091,-7.70879 7.13091,-7.70879c0,0 8.91057,7.64471 13.49736,11.90976c4.58679,4.26506 14.10722,15.94301 26.24404,29.00931c12.63516,13.6028 22.45577,23.28565 22.45577,23.28565c0,0 -0.42805,7.13073 -0.93127,9.02255c-0.48871,1.83726 -2.08622,4.16911 -2.08622,4.16911c0,0 -11.71932,-10.08133 -25.77948,-22.52162z" fill="#666666" stroke="none" stroke-width="0.5" stroke-linecap="round"/><path d="M215.05758,267.00228c0,0 -1.16468,-3.66445 -1.3529,-5.85246c-0.3692,-4.29197 -0.6836,-27.58383 -1.46385,-51.0829c-0.15607,-4.70037 2.44275,-7.14554 2.13838,-15.64223c-0.28048,-7.82994 -1.98829,-37.42241 -1.98829,-37.42241c0,0 2.59539,-2.03594 3.84331,-2.85459c1.1849,-0.77731 3.46494,-1.93972 3.46494,-1.93972c0,0 4.90093,16.73262 7.99678,19.66866c4.13218,3.91887 22.58342,3.56796 26.79233,-0.40828c3.39038,-3.20295 6.58153,-18.6004 6.58153,-18.6004c0,0 2.62889,1.30418 3.89312,2.25195c1.20064,0.9001 3.51132,3.29906 3.51132,3.29906c0,0 0.22924,26.55471 -0.23856,35.02458c-0.46796,8.47276 2.66078,11.35518 2.4658,16.2687c-0.94301,23.76459 -2.1974,47.32046 -2.54221,51.96719c-0.18491,2.49196 -1.6017,4.82287 -1.6017,4.82287z" fill="#0c0c0c" stroke="none" stroke-width="0" stroke-linecap="butt"/><path d="M217.03701,215.59951c-1.54435,-1.16987 -1.1058,-22.21052 0,-23.30337c1.50494,-1.48733 15.75972,-0.35525 16.79522,0.62982c1.07035,1.01821 1.13038,21.89166 0,23.30337c-1.06707,1.33263 -15.25902,0.53389 -16.79522,-0.62982z" fill="#0a0a0a" stroke="#000000" stroke-width="0" stroke-linecap="butt"/><path d="M240.40375,266.69534v-91.88637h1.2807v91.88637z" fill="#000000" stroke="none" stroke-width="0" stroke-linecap="butt"/><path d="M217.03701,210.59951c-1.54435,-1.16987 -1.1058,-22.21052 0,-23.30337c1.50494,-1.48733 15.75972,-0.35525 16.79522,0.62982c1.07035,1.01821 1.13038,21.89166 0,23.30337c-1.06707,1.33263 -15.25902,0.53389 -16.79522,-0.62982z" fill="#101010" stroke="#000000" stroke-width="0" stroke-linecap="butt"/><path d="M248.69525,216.06268c-1.13038,-1.41171 -1.07035,-22.28515 0,-23.30337c1.03551,-0.98507 15.29028,-2.11715 16.79522,-0.62982c1.1058,1.09285 1.54435,22.13349 0,23.30337c-1.5362,1.16371 -15.72816,1.96245 -16.79522,0.62982z" data-paper-data="{&quot;index&quot;:null}" fill="#0a0a0a" stroke="#000000" stroke-width="0" stroke-linecap="butt"/><path d="M234.18964,187.86217c0,0 -9.43078,8.39712 -10.6,8.4c-0.76596,0.00188 -7.075,-8.8 -7.075,-8.8c0,0 0.95198,-0.56751 2.73735,-0.8453c1.45128,-0.22582 3.45325,-0.17539 5.94219,-0.15685c2.72008,0.02026 5.25566,0.22096 6.93686,0.60597c1.275,0.29198 2.05859,0.79617 2.05859,0.79617z" fill="#161616" stroke="#000000" stroke-width="0" stroke-linecap="round"/><path d="M248.86192,211.42933c-1.13038,-1.41171 -1.07035,-22.28515 0,-23.30336c1.03551,-0.98507 15.29027,-2.11716 16.79522,-0.62983c1.1058,1.09285 1.54435,22.1335 0,23.30337c-1.5362,1.16371 -15.72815,1.96245 -16.79522,0.62982z" data-paper-data="{&quot;index&quot;:null}" fill="#101010" stroke="#000000" stroke-width="0" stroke-linecap="butt"/><path d="M248.38963,188.11217c0,0 0.78359,-0.50419 2.05859,-0.79617c1.6812,-0.38501 4.21678,-0.58571 6.93686,-0.60597c2.48894,-0.01854 4.49091,-0.06897 5.94219,0.15685c1.78537,0.27779 2.73735,0.8453 2.73735,0.8453c0,0 -6.30905,8.80188 -7.075,8.8c-1.16922,-0.00288 -10.6,-8.4 -10.6,-8.4z" data-paper-data="{&quot;index&quot;:null}" fill="#161616" stroke="#000000" stroke-width="0" stroke-linecap="round"/><path d="M274.38891,185.26562c0.03392,-0.11245 0.08968,-0.22941 0.1707,-0.34976c0.03934,-0.05844 0.10164,-0.11495 0.18271,-0.1685c0.51231,-0.92278 1.06023,-0.86583 1.90798,-1.15327c0.00222,-0.00075 0.00424,-0.00183 0.00606,-0.00321c-0.07229,-0.23312 -0.14084,-0.45737 -0.20486,-0.66282c-0.38242,-0.88686 -1.12577,-2.38708 -1.02496,-2.77352c0.55481,-2.12677 6.55723,-1.10065 6.55723,-1.10065l0.88307,11.71843c0,0 -1.59023,1.27351 -1.75,2c-0.19307,0.87791 -0.02394,1.85793 -0.25,2.75c-0.21615,0.85296 -1.34674,2.04548 -0.98662,2.63512c-0.40161,0.9376 -3.3669,5.82215 -4.67533,4.01287c-0.91435,-1.26435 0.5046,-4.09551 -0.25,-5.5c-0.64061,-1.19234 -2.55875,0.92918 -2.05578,-1.39901c0.08519,-1.09195 1.02899,-2.9863 0.74448,-3.99898c-0.34895,-1.24207 -2.71009,-2.99287 -2.49663,-4.24321c0.11879,-0.69583 1.04727,-0.61805 1.48325,-0.62167c0.30959,-0.00256 0.71632,-0.03435 1.17028,-0.07226c0.12706,-0.35757 0.36754,-0.7429 0.5884,-1.06956zM277.90589,186.49932c-0.05669,-0.04907 -0.1135,-0.11438 -0.17021,-0.19339c-0.0762,0.01433 -0.15414,0.02605 -0.23259,0.03597c0.15204,0.04127 0.28769,0.09311 0.40281,0.15742zM277.02668,180.80388c0,0 -0.09382,-0.51036 -0.10395,-0.94174c-0.23918,0.0727 -0.42141,0.20884 -0.50062,0.44181c0.3619,-0.14333 0.60457,0.49994 0.60457,0.49994z" fill="#650a0a" stroke="none" stroke-width="0.5" stroke-linecap="butt"/><path d="M271.37786,219.12912c-0.09137,-0.03673 -0.18107,-0.1108 -0.24971,-0.24807c-0.22361,-0.44721 0.22361,-0.67082 0.22361,-0.67082c0.83444,-0.41531 3.0004,-2.47815 4.02652,-1.70058c0.461,0.34933 -0.36202,1.6364 0.20995,1.72247c3.88115,0.58405 3.37402,2.23108 2.16211,5.68875c-1.57501,1.60404 0.31157,3.48022 -0.74252,5.23754c-0.58566,0.97637 -2.50353,2.68284 -3.60778,1.2619c-0.73846,-0.95023 -0.58613,-2.96878 -0.5613,-4.14799c-0.61979,-1.15155 -1.36643,-0.64015 -1.99192,-1.96998c-0.92958,-1.97636 0.00889,-3.60989 0.68351,-5.14206c-0.00338,-0.00011 -0.00677,-0.00026 -0.01017,-0.00044l-0.04834,0.10116c0,0 -0.05028,-0.05028 -0.09395,-0.13188z" fill="#650a0a" stroke="none" stroke-width="0.5" stroke-linecap="butt"/><path d="M207.34129,239.18635c2.12806,1.24659 3.00262,6.16106 3.73068,8.34523c0.01322,2.21235 -0.62193,5.21622 -2.8022,6.29203c-1.08943,0.53756 -2.82306,0.26861 -3.68229,-0.63311c-0.80404,-0.19437 -1.52868,-0.46323 -2.56771,-0.11689c-1.10064,0.21071 -1.96456,4.20012 -4.09696,1.33042c-0.47798,-0.64325 -0.64426,-1.91017 -0.64426,-1.91017l0.29712,-16.56817c0,0 4.10057,0.07828 4.7147,1.24464c0.19328,0.36707 0.02599,0.97217 0.39161,1.33779c0.52218,0.52218 1.20796,0.76462 1.91289,0.98867c0.89703,-0.30146 1.92039,-0.79432 2.74642,-0.31044z" fill="#650a0a" stroke="none" stroke-width="0.5" stroke-linecap="butt"/><path d="M202.07538,185.8764c-0.95916,-2.04443 -1.54329,-4.25929 -0.53701,-6.46602c0.62033,-1.36035 2.28931,-0.93754 2.81847,-1.88252c0.50341,-0.89898 0.13879,-2.9542 0.13879,-3.91521c0.04243,-2.74345 3.26602,-5.78656 5.8309,-3.12484c1.37052,1.42227 0.9191,4.55697 0.9191,6.37537c-0.002,0.83023 -0.46934,2.13447 -0.26338,2.8846c0.31651,1.15274 1.50997,2.74351 1.25,3.97975c-0.47586,2.26287 -2.33014,4.59105 -3.28941,6.60873c-1.44947,2.69308 1.28048,6.11451 0.01473,8.46773c-1.24505,2.31473 -2.99926,0.64442 -3.69856,-0.82647c-0.04384,-3.38801 -2.75908,-3.84791 -4.18684,-6.09902c-0.91868,-1.44846 -0.06207,-4.60299 1.00321,-6.00212z" fill="#650a0a" stroke="none" stroke-width="0.5" stroke-linecap="butt"/><path d="M211.22863,214.91517c0.23037,0.27884 0.43022,0.58593 0.58058,0.91316c0.69446,1.63897 0.05919,3.22493 0.33538,4.91248c0.2984,1.82327 0.83523,4.42029 0.00511,6.21912l0.17704,0.09826l-0.26602,0.47931c-0.08737,0.16552 -0.26453,0.27496 -0.46394,0.26638c-0.19942,-0.00858 -0.36651,-0.13284 -0.43934,-0.30526l-0.18355,-0.41032c-1.83353,-1.34663 -4.15085,-1.62788 -5.99074,-2.89686c-0.33774,-0.23294 -0.96054,-0.99017 -0.92492,-1.46646c0.12187,-1.62966 3.7473,-1.38297 3.6342,-2.73136c-0.36258,-0.74918 -1.98349,-3.60189 -1.82466,-4.2774c0.2232,-0.94929 1.45245,-0.67117 1.85069,-0.31495c0.37363,0.3342 0.03748,-1.15868 0.45728,-1.43264c0.52246,-0.34096 2.19618,0.01979 2.76352,0.04421c0,0 0.49954,0.0215 0.47803,0.52104c-0.00848,0.1971 -0.09139,0.31309 -0.18867,0.38128z" fill="#650a0a" stroke="none" stroke-width="0.5" stroke-linecap="butt"/><path d="M198.82832,306.14153c0,0 -0.5,-3.38914 -0.5,-5.37711c0,-2.475 0.5,-8.33452 0.5,-8.33452l13.75,-0.26886c0,0 0.5,3.62886 0.5,5.64597c0,2.32916 -0.5,7.52796 -0.5,7.52796c0,0 -6.46277,0.91681 -8.9869,1.06488c-1.8376,0.10779 -4.7631,-0.25831 -4.7631,-0.25831z" fill="#5d5d5d" stroke="none" stroke-width="0" stroke-linecap="butt"/><path d="M199.08755,281.86591c0,0 -0.38194,-2.20565 -0.45622,-3.49176c-0.09171,-1.58785 -0.05286,-5.32232 -0.05286,-5.32232c0,0 5.72677,-1.09059 8.19297,-1.3302c2.03023,-0.19725 5.55234,-0.00527 5.55234,-0.00527c0,0 0.25454,3.69679 0.25454,5.60896c0,2.00115 -0.25454,6.14315 -0.25454,6.14315c0,0 -3.22532,0.8704 -5.38265,0.61888c-2.39878,-0.27967 -7.85358,-2.22144 -7.85358,-2.22144z" fill="#6e6e6e" stroke="none" stroke-width="0" stroke-linecap="butt"/><path d="M198.6019,293.38858c0,0 -0.27358,-5.4735 -0.27358,-7.43647c0,-1.75574 0.27358,-4.98918 0.27358,-4.98918c0,0 1.62418,-0.06991 3.51004,0.16788c1.82259,0.22981 3.88959,0.76759 4.97109,0.76759c2.42799,0 5.4717,-0.93547 5.4717,-0.93547c0,0 0.27358,5.28095 0.27358,7.48377c0,1.74148 -0.27358,4.67736 -0.27358,4.67736c0,0 -2.12095,1.35329 -4.46629,0.8176c-1.95095,-0.44561 -4.05718,-0.92736 -5.22698,-1.11036c-1.70769,-0.26715 -4.25956,0.55729 -4.25956,0.55729z" fill="#666666" stroke="none" stroke-width="0" stroke-linecap="butt"/><path d="M265.70835,277.95288l-0.2211,22.62727c0,0 -6.56223,2.09855 -8.71957,2.64915c-2.28145,0.56012 -3.46015,-1.12198 -5.50161,-1.81556c-0.97102,-0.3299 -1.9257,-0.01412 -2.89975,-0.17597c-3.44177,-0.57187 -3.83211,-3.63325 -3.41592,-6.55651c0.478,-4.30501 -3.99085,-11.05445 1.90467,-13.59897c1.11945,-0.48316 2.60948,-0.23808 3.80051,-0.23798c3.97516,0.14814 5.12223,-1.31009 8.58856,-2.75734c3.46632,-1.44725 6.46422,-0.13408 6.46422,-0.13408z" data-paper-data="{&quot;index&quot;:null}" fill="#4f0808" stroke="none" stroke-width="0.5" stroke-linecap="butt"/></g></g></svg>