<svg version="1.1" xmlns="http://www.w3.org/2000/svg" xmlns:xlink="http://www.w3.org/1999/xlink" width="93.56936" height="294.97383" viewBox="0,0,93.56936,294.97383"><g transform="translate(-192.30445,-55.05019)"><g data-paper-data="{&quot;isPaintingLayer&quot;:true}" fill-rule="nonzero" stroke-linejoin="miter" stroke-miterlimit="10" stroke-dasharray="" stroke-dashoffset="0" style="mix-blend-mode: normal"><path d="M201.03041,304.39158c0,0 -0.63536,-94.38387 -0.79335,-118.01201c-0.05451,-8.15261 8.18688,-36.76129 40.20201,-36.9211c31.60235,-0.15775 39.85672,29.48704 39.84884,36.89673c-0.07659,46.24274 0.65429,117.98648 0.65429,117.98648l-10.49667,0.09614l-0.15882,-114.84311c0,0 0.07549,-3.0993 -2.81625,-3.15415c-3.43441,-0.06514 -2.94538,3.11562 -2.94538,3.11562l0.20548,114.86995l-48.21366,0.07222l-0.30539,-115.23309c0,0 0.27949,-2.919 -2.8856,-2.93443c-3.11083,-0.01515 -2.81569,2.90899 -2.81569,2.90899l0.35311,115.0668z" fill="#ffffff" stroke="#000000" stroke-width="2" stroke-linecap="butt"/><path d="M202.21855,97.96779c0.27272,-1.85666 19.10795,-37.66812 19.10795,-37.66812c0,0 -1.73528,-0.68746 -2.63457,-1.47907c-1.06153,-0.93442 -3.32899,-3.77041 -3.32899,-3.77041c0,0 4.82625,1.40854 10.1577,1.66268c5.39256,0.25705 11.29868,-0.64058 12.66566,-0.69404c44.63633,-0.92186 39.01489,35.66771 41.53088,42.57103c3.44981,9.46549 6.15664,21.59328 6.15664,21.59328c0,0 -2.42802,-3.51099 -4.0797,-5.68481c-1.65168,-2.17382 -3.80143,-4.68777 -3.80143,-4.68777c0,0 2.20652,17.14019 2.02521,21.3103c-0.08215,1.88949 2.16507,6.73619 2.16507,6.73619c0,0 -1.45782,-0.24189 -2.55996,-0.83464c-1.14213,-0.61426 -1.93397,-1.57364 -2.16838,-1.18841c-0.93469,1.5361 -2.20178,2.38007 -2.20178,2.38007c0,0 -5.34201,8.85186 -7.25151,14.70649c-0.72488,2.22254 -0.16832,2.9952 -0.91082,4.72359c-0.7425,1.72839 -2.63873,3.53901 -2.63873,3.53901l-0.69205,-4.13764c0,0 -5.6601,10.91738 -22.95066,10.76965c-16.30625,-0.25778 -26.07151,-10.77153 -26.07151,-10.77153l-0.1162,2.6788c0,0 -3.89477,-3.32247 -6.18145,-9.79514c-2.72545,-7.71466 -3.23946,-20.93043 -3.23946,-20.93043c0,0 -2.59205,3.53097 -5.71704,5.42109c-3.12499,1.69013 -6.94665,2.26733 -6.94665,2.26733c0,0 3.69299,-4.0264 5.58396,-6.72647c1.89097,-2.70007 2.64658,-5.02574 2.64658,-5.02574c0,0 -2.37689,2.01823 -4.23277,2.84518c-1.85588,0.82695 -4.23008,0.83662 -4.23008,0.83662c0,0 5.17492,-7.40349 7.23074,-13.29318c1.94102,-5.56081 2.09972,-11.25799 2.09972,-11.25799z" fill="#000000" stroke="none" stroke-width="1.5" stroke-linecap="butt"/><path d="M224.15972,199.29966c0,-0.57113 0.46298,-1.03413 1.03411,-1.03413c0.57112,0 1.03411,0.463 1.03411,1.03413c0,0.57112 -0.46298,1.03411 -1.03411,1.03411c-0.57112,0 -1.03411,-0.46298 -1.03411,-1.03411z" data-paper-data="{&quot;index&quot;:null}" fill="#000000" stroke="none" stroke-width="1.5" stroke-linecap="butt"/><path d="M230.45369,204.56937c-6.89736,0.48583 -9.31086,-0.56089 -9.31086,-0.56089v-1.34616c0,0 2.10136,1.00666 8.51033,0.63173c4.12393,-0.24125 6.8525,-1.54704 6.97038,-1.3048c0.3826,0.78619 -1.70635,2.26572 -6.16985,2.58011z" data-paper-data="{&quot;index&quot;:null}" fill="#000000" stroke="#000000" stroke-width="0" stroke-linecap="butt"/><path d="M257.23235,200.33377c-0.57113,0 -1.03413,-0.46298 -1.03413,-1.03411c0,-0.57113 0.463,-1.03413 1.03413,-1.03413c0.57112,0 1.03411,0.463 1.03411,1.03413c0,0.57112 -0.46298,1.03411 -1.03411,1.03411z" data-paper-data="{&quot;index&quot;:null}" fill="#000000" stroke="none" stroke-width="1.5" stroke-linecap="butt"/><path d="M251.97243,204.56935c-4.46351,-0.3144 -6.55245,-1.79393 -6.16985,-2.58011c0.11788,-0.24224 2.84646,1.06354 6.97039,1.3048c6.40897,0.37493 8.51033,-0.63173 8.51033,-0.63173v1.34616c0,0 -2.4135,1.04674 -9.31086,0.56089z" data-paper-data="{&quot;index&quot;:null}" fill="#000000" stroke="#000000" stroke-width="0" stroke-linecap="butt"/><path d="M239.20914,259.63829c0,-0.81895 0.66389,-1.48284 1.48284,-1.48284c0.81895,0 1.48284,0.66389 1.48284,1.48284c0,0.81895 -0.66389,1.48284 -1.48284,1.48284c-0.81895,0 -1.48284,-0.66389 -1.48284,-1.48284z" data-paper-data="{&quot;index&quot;:null}" fill="#000000" stroke="none" stroke-width="1.5" stroke-linecap="butt"/><path d="M212.50339,305.73937c0,0 1.65056,-23.52443 2.0745,-38.85428c0.18971,-6.8598 0.641,-27.10267 0.72823,-36.09886c0.07281,-7.50811 -3.73908,-13.25488 -4.62785,-20.45976c-0.93621,-7.58945 -0.02,-16.53268 1.20944,-25.13926c0.55213,-3.86517 2.78733,-8.5374 3.4565,-13.29213c0.66917,-4.75473 0.49251,-15.01709 0.49251,-15.01709c0,0 2.67319,-2.35297 4.6557,-3.74807c1.98251,-1.3951 5.17197,-2.80371 5.17197,-2.80371h28.39106c0,0 3.91276,1.51959 6.16585,2.94655c2.25309,1.42695 4.75379,3.60523 4.75379,3.60523c0,0 -0.37456,9.81054 0.1125,15.57634c0.48706,5.7658 1.76794,9.72055 2.21013,13.16873c1.14058,8.89424 2.13135,17.40114 2.24954,24.95407c0.08396,5.36584 -4.06946,14.59694 -3.96497,20.72934c0.10449,6.1324 0.60416,26.79291 0.90299,36.57505c0.45926,15.03406 2.15648,37.85785 2.15648,37.85785z" data-paper-data="{&quot;index&quot;:null}" fill="#0c0c0c" stroke="#000000" stroke-width="0" stroke-linecap="butt"/><path d="M212.71284,115.20172c-0.57709,-7.29323 0.335,-17.15448 0.335,-17.15448c0,0 20.73281,17.64628 35.42881,26.8922c5.7067,3.59034 16.82539,1.4386 16.82539,1.4386c0,0 -0.4096,6.13662 -2.20622,16.0397c-1.12121,6.18021 -4.16183,8.92466 -10.01942,14.66081c-5.85759,5.73616 -9.05378,9.25275 -13.01359,9.32173c-3.81077,0.06639 -8.93565,-5.1002 -13.93542,-10.38244c-5.32393,-5.62474 -8.87489,-8.47713 -9.71551,-15.13975c-0.75707,-6.00039 -0.77653,-9.90853 -1.12266,-15.24835c-0.25298,-3.90273 -2.26119,-6.44504 -2.57636,-10.42801z" fill="#ffffff" stroke="#000000" stroke-width="1.5" stroke-linecap="butt"/><path d="M260.78283,102.58135c0,0 1.52429,0.31807 4.2558,1.11029c2.49492,0.72361 4.44935,1.74403 4.44935,1.74403l0.1951,1.17035c0,0 -7.24963,-3.12997 -15.1158,-2.4706c-6.2896,0.52724 -9.96319,2.8124 -9.96319,2.8124l0.04575,-4.17683c0,0 3.12748,-1.70421 7.86366,-1.85557c4.90428,-0.15672 8.09084,0.59125 8.09084,0.59125z" data-paper-data="{&quot;index&quot;:null}" fill="#2b0404" stroke="none" stroke-width="1.5" stroke-linecap="butt"/><path d="M248.01871,143.06891c0.5704,0.21186 3.08357,1.39942 6.02385,2.59586c2.9637,1.20597 7.21362,2.29294 7.19412,2.4605c-0.02476,0.21265 -10.43477,0.22694 -13.67937,0.63224c-2.71902,0.33964 -6.68867,0.70564 -6.68867,0.70564c0,0 -7.10401,-1.16169 -13.27235,-2.44521c-4.94371,-1.02869 -10.39929,-1.66108 -10.40995,-1.75461c-0.01439,-0.12613 3.86835,-0.71071 6.82417,-1.39467c1.14585,-0.49661 5.43971,-1.48513 5.43971,-1.48513c0,0 4.95585,-0.27766 7.60826,0.579c2.84203,0.91791 2.83546,2.44556 3.0831,2.46906c0,0 1.18436,-1.74932 2.36886,-2.10461c1.18451,-0.35528 5.08219,-0.41633 5.50828,-0.25808z" fill="#ffffff" stroke="#000000" stroke-width="1.4" stroke-linecap="butt"/><path d="M229.37072,147.6225c5.09114,1.02674 11.91756,2.80736 11.91756,2.80736c0,0 5.78976,-1.55585 8.44678,-1.8344c2.05992,-0.21596 11.216,-0.70654 11.26026,-0.33377c0.04328,0.36447 -9.03119,12.90033 -21.14808,12.44714c-13.76954,-0.43578 -22.86459,-15.13559 -22.82675,-15.30472c0.03784,-0.16913 7.2591,1.19165 12.35024,2.2184z" fill="#ffffff" stroke="#000000" stroke-width="1.9" stroke-linecap="butt"/><path d="M240.345,144.62881c-1.03376,0 -3.5381,-3.26042 -3.7867,-5.3637c-0.22243,-1.88186 1.31512,-3.82799 3.7867,-3.82799c2.47159,0 4.2021,0.49077 4.02999,4.18853c-0.14607,3.13818 -1.55841,5.00317 -4.02999,5.00317z" fill="#ffffff" stroke="#000000" stroke-width="1.15" stroke-linecap="butt"/><path d="M243.95285,121.66171c-0.19174,6.25113 -1.08147,27.7607 -1.08147,27.7607l-2.98167,0.00864c0,0 -0.80294,-4.17274 -1.12322,-9.49979c-0.43353,-7.21063 -0.4495,-16.29321 -0.76344,-19.63229" fill="#ffffff" stroke="#000000" stroke-width="1.3" stroke-linecap="round"/><path d="M214.41251,125.32493c0,0 -4.93211,-3.51705 -6.16417,-8.97502c-1.29636,-5.74284 -1.46118,-9.7328 0.48013,-9.99193c1.94131,-0.25915 2.70321,2.37692 3.73262,8.35569c1.0294,5.97877 1.95143,10.61127 1.95143,10.61127z" data-paper-data="{&quot;index&quot;:null}" fill="#ffffff" stroke="#000000" stroke-width="1" stroke-linecap="butt"/><path d="M214.20989,121.37737c0,0 -3.56385,-2.92338 -4.31816,-8.45061c-0.42079,-3.08327 2.15675,-2.28016 2.15675,-2.28016" fill="none" stroke="#000000" stroke-width="0.25" stroke-linecap="round"/><path d="M217.22332,114.72147c0.07093,-4.89188 4.83834,-8.93609 10.21137,-8.8582c5.37302,0.0779 9.02724,4.2484 8.95632,9.14029c-0.07093,4.89188 -4.12352,8.79439 -9.49655,8.7165c-5.37302,-0.0779 -9.74207,-4.1067 -9.67114,-8.99859z" fill="#ffffff" stroke="#000000" stroke-width="1.4" stroke-linecap="butt"/><path d="M221.66096,114.83941c0.03999,-2.75843 2.30855,-4.96213 5.06696,-4.92214c2.75843,0.03999 4.96213,2.30855 4.92214,5.06696c-0.03999,2.75843 -2.30854,4.96213 -5.06696,4.92214c-2.75843,-0.03999 -4.96213,-2.30855 -4.92214,-5.06696z" fill="#000000" stroke="none" stroke-width="1.5" stroke-linecap="butt"/><path d="M244.2796,114.7222c0.20353,-4.88817 4.45264,-8.85847 9.77048,-8.85847c5.31783,0 9.27453,3.96607 9.27453,8.85847c0,4.8924 -3.88585,9.07104 -9.69964,9.14188c-5.52997,0.06739 -9.55792,-4.03692 -9.34537,-9.14188z" fill="#000000" stroke="#000000" stroke-width="1.4" stroke-linecap="butt"/><path d="M248.88234,114.80775c0,-2.81845 2.2848,-5.10325 5.10325,-5.10325c2.81845,0 5.10325,2.2848 5.10325,5.10325c0,2.81845 -2.28479,5.10325 -5.10325,5.10325c-2.81845,0 -5.10325,-2.2848 -5.10325,-5.10325z" fill="#ffffff" stroke="none" stroke-width="1.5" stroke-linecap="butt"/><path d="M217.15488,114.18929c0,0 0.06357,-9.01512 10.60111,-8.8249c9.47101,0.16586 9.55554,9.40723 9.55554,9.40723z" fill="#ffffff" stroke="#000000" stroke-width="1.15" stroke-linecap="butt"/><path d="M243.90195,114.32019c0,0 -0.24686,-9.4582 11.19813,-9.1032c9.71427,0.33347 9.54677,9.65229 9.54677,9.65229z" fill="#740c0c" stroke="#000000" stroke-width="1.15" stroke-linecap="butt"/><path d="M268.64565,114.71367c1.0294,-5.97877 1.7913,-8.61483 3.73262,-8.35569c1.94131,0.25914 1.77649,4.24909 0.48013,9.99193c-1.23206,5.45797 -6.16417,8.97502 -6.16417,8.97502c0,0 0.92203,-4.6325 1.95143,-10.61127z" data-paper-data="{&quot;index&quot;:null}" fill="#ffffff" stroke="#000000" stroke-width="1" stroke-linecap="butt"/><path d="M269.05818,110.64661c0,0 2.57754,-0.80312 2.15675,2.28016c-0.75431,5.52723 -4.31816,8.45061 -4.31816,8.45061" data-paper-data="{&quot;index&quot;:null}" fill="none" stroke="#000000" stroke-width="0.25" stroke-linecap="round"/><path d="M202.88492,332.20644v-15.30586h15.19421v15.30586z" fill="#da1616" stroke="none" stroke-width="0" stroke-linecap="butt"/><path d="M217.97739,332.20644v-15.30586h15.19421v15.30586z" fill="#c01313" stroke="none" stroke-width="0" stroke-linecap="butt"/><path d="M233.06986,332.20644v-15.30586h15.19422v15.30586z" fill="#b31212" stroke="none" stroke-width="0" stroke-linecap="butt"/><path d="M248.16237,332.20644v-15.30586h15.19421v15.30586z" fill="#990f0f" stroke="none" stroke-width="0" stroke-linecap="butt"/><path d="M263.14054,332.20644v-15.30586h15.19421v15.30586z" fill="#740c0c" stroke="none" stroke-width="0" stroke-linecap="butt"/><path d="M203.20886,350.02402v-15.30586h15.19421v15.30586z" fill="#8b8b8b" stroke="none" stroke-width="0" stroke-linecap="butt"/><path d="M218.30134,350.02402v-15.30586h15.19421v15.30586z" fill="#666666" stroke="none" stroke-width="0" stroke-linecap="butt"/><path d="M233.39382,350.02402v-15.30586h15.19422v15.30586z" fill="#4b4b4b" stroke="none" stroke-width="0" stroke-linecap="butt"/><path d="M248.48632,350.02402v-15.30586h15.19421v15.30586z" fill="#2b2b2b" stroke="none" stroke-width="0" stroke-linecap="butt"/><path d="M263.44543,350.02402v-15.30586h15.19421v15.30586z" fill="#0c0c0c" stroke="none" stroke-width="0" stroke-linecap="butt"/><path d="M222.21634,59.82773l-0.79285,0.65722c0,0 5.19251,43.69946 22.55269,58.14684c17.36018,14.44738 32.07349,18.94595 32.07349,18.94595l-7.36667,14.83334c0,0 -16.90534,10.78411 -38.8758,-0.69738c-26.66576,-13.93519 -29.59086,-48.63595 -29.59086,-48.63595c0,0 -2.95305,-11.69516 3.80003,-25.50458c5.14244,-10.5158 13.35498,-15.73092 16.67523,-17.41207c0.9059,-0.45869 1.52474,-0.33337 1.52474,-0.33337z" fill="#b31212" stroke="none" stroke-width="0" stroke-linecap="butt"/><path d="M281.7227,237.21505c0,0 -38.50152,-11.15078 -53.27722,-18.20384c-12.38258,-5.91072 -29.47278,-21.29617 -29.47278,-21.29617c0,0 -0.75377,-8.36766 -0.09936,-13.65749c0.65441,-5.28983 3.09936,-10.59251 3.09936,-10.59251c0,0 21.94056,9.7343 33.99164,13.87804c14.05587,4.83309 46.00838,9.7053 46.00838,9.7053c0,0 0.59433,14.22755 0.55515,19.94829c-0.05408,7.89676 -0.80515,20.21838 -0.80515,20.21838z" data-paper-data="{&quot;index&quot;:null}" fill="#a61111" stroke="none" stroke-width="0" stroke-linecap="butt"/><path d="M282.47272,265.10314c0,0 -25.46086,15.01115 -41.56532,21.16967c-16.10445,6.15852 -42.76802,11.08031 -42.76802,11.08031l0.83333,-48.5c0,0 26.50159,-2.52914 40.04492,-5.52509c13.94494,-3.08479 42.45509,-12.72491 42.45509,-12.72491c0,0 -0.10173,2.642 0.1567,6.0196c0.2775,3.62683 0.91928,8.10181 1.00516,11.06466c0.16746,5.77736 -0.16186,17.41574 -0.16186,17.41574z" data-paper-data="{&quot;index&quot;:null}" fill="#990f0f" stroke="none" stroke-width="0" stroke-linecap="butt"/><path d="M240.42014,286.53307v-43.6l0.8,-0.09091v43.41818z" data-paper-data="{&quot;index&quot;:null}" fill="#720b0b" stroke="none" stroke-width="0" stroke-linecap="butt"/><path d="M215.34871,293.5688l1.57143,-46.71906l0.8,-0.00758l-1.42857,46.39438z" data-paper-data="{&quot;index&quot;:null}" fill="#720b0b" stroke="none" stroke-width="0" stroke-linecap="butt"/><path d="M264.37847,275.13307c0,0 -0.52386,-14.86055 -0.98635,-21.57328c-0.4048,-5.87536 -1.63865,-16.52672 -1.63865,-16.52672l0.8,-0.29091c0,0 1.26385,11.05071 1.67636,17.01856c0.45777,6.62255 0.94864,20.95744 0.94864,20.95744z" data-paper-data="{&quot;index&quot;:null}" fill="#720b0b" stroke="none" stroke-width="0" stroke-linecap="butt"/><path d="M273.42014,234.73426c0,0 0.6,-14.37801 0.6,-21.13456c0,-6.22529 -0.6,-17.94163 -0.6,-17.94163l0.8,0.08409c0,0 0.6,12.28544 0.6,18.65755c0,6.69337 -0.6,20.58631 -0.6,20.58631z" data-paper-data="{&quot;index&quot;:null}" fill="#700b0b" stroke="none" stroke-width="0" stroke-linecap="butt"/><path d="M253.24157,228.43122c0,0 0.9064,-12.84946 1.15018,-19.03489c0.23182,-5.88202 0.27839,-17.21327 0.27839,-17.21327l0.8,0.24242c0,0 0.02983,10.47284 -0.17122,16.16084c-0.22485,6.36141 -1.11449,20.21393 -1.11449,20.21393z" data-paper-data="{&quot;index&quot;:null}" fill="#700b0b" stroke="none" stroke-width="0" stroke-linecap="butt"/><path d="M231.12251,220.10742l2.85715,-33.591l0.8,0.24242l-2.71428,33.86049z" data-paper-data="{&quot;index&quot;:null}" fill="#700b0b" stroke="none" stroke-width="0" stroke-linecap="butt"/><path d="M213.40822,209.55503c0,0 0.5068,-11.59025 1.00914,-16.85073c0.4424,-4.63271 1.848,-13.06885 1.848,-13.06885l0.8,0.24242c0,0 -1.44782,8.97089 -1.90086,13.76459c-0.49552,5.24326 -0.95628,16.46733 -0.95628,16.46733z" data-paper-data="{&quot;index&quot;:null}" fill="#700b0b" stroke="none" stroke-width="0" stroke-linecap="butt"/><path d="M219.74779,144.5076l20.41807,-29.81532l0.42879,0.61465l-20.32794,29.75777z" fill="#800d0d" stroke="none" stroke-width="0" stroke-linecap="butt"/><path d="M271.00165,233.96989l10.51191,3.14285l0.22802,1.00279l-10.98611,-3.96942z" fill="#990f0f" stroke="#000000" stroke-width="0" stroke-linecap="round"/><path d="M205.83067,124.18827c0,0 8.70932,-9.9613 12.90795,-14.57067c4.00042,-4.39176 11.71797,-12.46428 11.71797,-12.46428l0.34391,0.91643c0,0 -7.40359,7.66676 -11.33444,11.94971c-4.26197,4.64373 -13.32443,14.91796 -13.32443,14.91796z" fill="#800d0d" stroke="none" stroke-width="0" stroke-linecap="butt"/><path d="M199.60624,98.26044c0,0 8.82165,-7.99008 13.07414,-11.52034c4.05134,-3.36328 11.8666,-9.18454 11.8666,-9.18454l0.13238,0.79524c0,0 -7.52948,5.86402 -11.52241,9.18587c-4.32227,3.59584 -13.50159,11.63241 -13.50159,11.63241z" fill="#740c0c" stroke="none" stroke-width="0" stroke-linecap="butt"/><path d="M239.60822,155.52029c0,0 6.38124,-9.70816 9.24493,-14.45197c2.70388,-4.47908 7.48532,-13.26233 7.48532,-13.26233l0.72611,0.40272c0,0 -4.6026,8.44185 -7.26191,12.8231c-2.88811,4.75821 -9.43708,14.68872 -9.43708,14.68872z" fill="#800d0d" stroke="none" stroke-width="0" stroke-linecap="butt"/><path d="M259.59931,155.90816c0,0 4.13786,-6.98441 5.89527,-10.45386c1.74217,-3.43938 4.60388,-10.27343 4.60388,-10.27343l0.67381,0.43946c0,0 -2.7656,6.61819 -4.4564,9.94304c-1.70155,3.34597 -5.72086,10.06979 -5.72086,10.06979z" fill="#800d0d" stroke="none" stroke-width="0" stroke-linecap="butt"/><path d="M226.07636,81.56449l-9.29481,7.4906l-2.4587,-7.77287l9.67867,-7.89193z" fill="#340606" stroke="#000000" stroke-width="0" stroke-linecap="round"/><path d="M232.56695,100.74437l-8.41593,8.45998l-3.51269,-6.85562l8.74028,-8.91077z" fill="#340606" stroke="#000000" stroke-width="0" stroke-linecap="round"/><path d="M242.87305,116.83057l-6.58684,9.95051l-4.85772,-4.53185l6.80535,-10.20654z" fill="#340606" stroke="#000000" stroke-width="0" stroke-linecap="round"/><path d="M259.1837,129.27165l-5.01552,10.30607l-5.51848,-3.27936l5.19443,-10.59118z" fill="#340606" stroke="#000000" stroke-width="0" stroke-linecap="round"/><path d="M273.78308,136.04684l-4.4884,9.51538l-5.73441,-2.04315l4.65492,-9.8079z" fill="#340606" stroke="#000000" stroke-width="0" stroke-linecap="round"/><path d="M229.54972,199.70553l1.70817,-14.21974l6.63441,1.92374l-1.70817,14.21974z" fill="#340606" stroke="none" stroke-width="0" stroke-linecap="butt"/><path d="M212.04972,191.45553l1.70817,-13.71974l6.63441,2.42374l-1.70817,13.71974z" fill="#340606" stroke="none" stroke-width="0" stroke-linecap="butt"/><path d="M251.62703,205.30991l0.4059,-14.31621l6.78205,1.31147l-0.4059,14.31622z" fill="#340606" stroke="none" stroke-width="0" stroke-linecap="butt"/><path d="M271.28293,208.71736l-0.4059,-13.9122l6.78205,1.06015l0.4059,14.19459z" data-paper-data="{&quot;index&quot;:null}" fill="#340606" stroke="none" stroke-width="0" stroke-linecap="butt"/><path d="M213.42435,263.93079v-17.44486l7.75,-0.80515v17.17647z" fill="#340606" stroke="none" stroke-width="0" stroke-linecap="butt"/><path d="M236.92435,259.68079v-16.63971l7.75,-1.6103v16.37133z" fill="#340606" stroke="none" stroke-width="0" stroke-linecap="butt"/><path d="M259.17435,252.43079v-15.64285l7.75,-2.60715v15.93254z" fill="#340606" stroke="none" stroke-width="0" stroke-linecap="butt"/></g></g></svg>