<svg version="1.1" xmlns="http://www.w3.org/2000/svg" xmlns:xlink="http://www.w3.org/1999/xlink" width="43.72956" height="43.72956" viewBox="0,0,43.72956,43.72956"><defs><linearGradient x1="240" y1="165.79063" x2="240" y2="194.20937" gradientUnits="userSpaceOnUse" id="color-1"><stop offset="0" stop-color="#000000"/><stop offset="1" stop-color="#250404"/></linearGradient></defs><g transform="translate(-218.13522,-158.13522)"><g data-paper-data="{&quot;isPaintingLayer&quot;:true}" fill-rule="nonzero" stroke-linejoin="miter" stroke-miterlimit="10" stroke-dasharray="" stroke-dashoffset="0" style="mix-blend-mode: normal"><path d="M218.13522,180c0,-12.07558 9.7892,-21.86478 21.86478,-21.86478c12.07558,0 21.86478,9.7892 21.86478,21.86478c0,12.07558 -9.7892,21.86478 -21.86478,21.86478c-12.07558,0 -21.86478,-9.7892 -21.86478,-21.86478z" fill="#730c0c" stroke="none" stroke-width="0.5" stroke-linecap="butt"/><path d="M225.79063,180c0,-7.84762 6.36175,-14.20937 14.20937,-14.20937c7.84762,0 14.20937,6.36175 14.20937,14.20937c0,7.84762 -6.36175,14.20937 -14.20937,14.20937c-7.84762,0 -14.20937,-6.36175 -14.20937,-14.20937z" fill="url(#color-1)" stroke="none" stroke-width="0.5" stroke-linecap="butt"/><path d="M246.57148,173.87162h-13.14286" fill="none" stroke="#ffd4d4" stroke-width="2" stroke-linecap="round"/><path d="M233.42861,180.00003h13.14286" fill="none" stroke="#ffa9a9" stroke-width="2" stroke-linecap="round"/><path d="M233.42861,186.12844h13.14286" fill="none" stroke="#ff7979" stroke-width="2" stroke-linecap="round"/></g></g></svg>