<svg version="1.1" xmlns="http://www.w3.org/2000/svg" xmlns:xlink="http://www.w3.org/1999/xlink" width="110.575" height="286.58006" viewBox="0,0,110.575,286.58006"><defs><linearGradient x1="240.68912" y1="69.49418" x2="240.68912" y2="171.80909" gradientUnits="userSpaceOnUse" id="color-1"><stop offset="0" stop-color="#666666"/><stop offset="1" stop-color="#484848"/></linearGradient><linearGradient x1="240.72926" y1="160.41735" x2="240.72926" y2="166.52395" gradientUnits="userSpaceOnUse" id="color-2"><stop offset="0" stop-color="#484848"/><stop offset="1" stop-color="#656565"/></linearGradient><linearGradient x1="238.46421" y1="164.09982" x2="238.46421" y2="306.98844" gradientUnits="userSpaceOnUse" id="color-3"><stop offset="0" stop-color="#666666"/><stop offset="1" stop-color="#484848"/></linearGradient></defs><g transform="translate(-183.93598,-67.98175)"><g data-paper-data="{&quot;isPaintingLayer&quot;:true}" fill-rule="nonzero" stroke="none" stroke-linecap="butt" stroke-linejoin="miter" stroke-miterlimit="10" stroke-dasharray="" stroke-dashoffset="0" style="mix-blend-mode: normal"><path d="M197.42692,117.87258c0,0 6.16329,-5.92187 6.29161,-6.78761c0.33654,-2.27063 -0.16776,-40.17317 35.96775,-41.57382c44.63633,-0.91362 39.01489,35.34872 41.53088,42.1903c3.44981,9.38084 6.15664,17.40016 6.15664,17.40016c0,0 -2.76715,-2.05351 -4.0797,-3.13397c-1.2242,-1.00773 -3.80143,-3.14585 -3.80143,-3.14585c0,0 3.09111,10.3481 1.31092,20.69498c-1.5623,9.48098 -7.29782,17.22543 -7.29782,17.22543l-1.15522,-2.34735c0,0 -1.02266,2.19794 -2.16005,3.33274c-1.1374,1.13479 -3.43873,2.91273 -3.43873,2.91273l-0.09205,-3.70421c0,0 -7.0601,11.01795 -24.35066,10.87154c-16.30625,-0.25547 -26.07151,-10.6752 -26.07151,-10.6752l-0.1162,2.65484c0,0 -3.89477,-3.29276 -6.18145,-9.70754c-2.72545,-7.64567 -3.23946,-12.24324 -3.23946,-12.24324c0,0 -2.33908,1.89916 -5.71704,2.7744c-4.23278,1.09673 -6.94665,0.34526 -6.94665,0.34526c0,0 3.60795,-2.71717 5.58396,-4.76989c1.76007,-1.8284 2.64658,-3.37722 2.64658,-3.37722c0,0 -2.10758,1.0847 -4.23277,1.61795c-2.21739,0.5564 -4.03008,0.53093 -4.03008,0.53093c0,0 4.97492,-5.03728 7.03074,-10.87429c1.94102,-5.51108 2.09972,-10.95731 2.09972,-10.95731c0,0 -1.36165,0.66163 -3.33013,0.79513c-1.24776,0.08463 -2.37785,-0.0489 -2.37785,-0.0489z" fill="url(#color-1)" stroke-width="1.5"/><path d="M208.26865,166.52395c0,0 2.1889,-1.14804 1.66602,-2.04455c-0.52287,-0.89651 -5.22758,-4.06205 -5.22758,-4.06205h72.04433c0,0 -6.44152,3.76989 -6.67562,4.12254c-0.76342,1.14993 1.79677,1.98406 1.79677,1.98406z" fill="url(#color-2)" stroke-width="0"/><path d="M290.57508,186.66221c-0.04639,2.34739 -2.38427,6.82027 -2.38427,6.82027c-0.6096,0.77436 -1.67145,-0.13007 -2.13699,-0.30298c-0.62133,-0.23078 -1.95309,-3.0869 -2.15884,-3.7624c-1.09968,-3.61012 -0.10116,-8.51341 0.37732,-12.20209c0.28084,-2.13786 -0.26178,-9.04264 1.99887,-9.82655c-0.05069,-0.08064 -0.08481,-0.1892 -0.08481,-0.33529c0,-0.56838 0.51633,-0.56838 0.51633,-0.56838c2.94601,0.17853 2.71633,4.55438 3.7953,6.52173c0.89083,1.6243 2.1424,2.17012 2.1424,4.27746c0,3.13127 -0.92894,6.21329 -2.10723,9.15074c0.04195,0.12088 0.04195,0.2275 0.04195,0.2275z" fill="#666666" stroke-width="0.5"/><path d="M273.15502,233.56917v-41.69595h16.30238v41.69595z" fill="#870d0d" stroke-width="0"/><path d="M269.49022,305.52923v-72.20832h24.26918v72.20832z" fill="#7b0c0c" stroke-width="0"/><path d="M275.47266,232.5686c0.07409,-0.01976 0.12908,-0.01976 0.12908,-0.01976c4.43606,0 8.73819,-0.28419 13.16621,-0.28419c1.33033,0 4.27196,-0.07978 5.27016,1.01903c0.28688,0.31581 0.79035,1.62026 0.19496,1.99975c-0.67785,0.43206 -1.78404,-0.65296 -2.44989,-0.75262c-1.67372,-0.25052 -4.08062,-0.04356 -5.29495,1.321c-0.87778,0.43586 -0.99687,1.27992 -2.22765,0.94465c-1.03272,-0.28131 -1.86629,-1.24789 -2.89918,-0.40798c-0.45462,0.3697 -0.77008,8.2019 -2.51051,3.66699c-1.30738,-0.71961 -0.5864,-2.06581 -1.34458,-3.19565c-1.03226,-1.53828 -2.75625,-1.70729 -2.93723,-3.74261l0.77449,-0.56837c0,0 0.05499,0 0.12908,0.01976z" fill="#666666" stroke-width="0.5"/><path d="M193.69968,166.20828c0.14727,0.00251 0.29454,0.00502 0.44181,0.00752c2.83958,1.52724 6.07774,5.5666 6.83791,8.94825c0.48857,2.17342 -0.07758,5.061 -0.24486,7.26041c-0.01298,3.01185 -0.23992,6.0146 -0.8003,8.96883c-0.20078,1.05842 -0.36292,2.77965 -1.27902,3.44315c-0.58152,0.42117 -1.89713,-0.34758 -2.46288,-0.52698c-1.38589,-0.43945 -3.30315,-0.48246 -4.6684,0.01851c-1.15414,0.01413 -1.81398,-0.24685 -2.36685,-1.48029c-0.5825,-1.29954 -0.24124,-3.23365 -0.54181,-4.63395c-0.67554,-3.14733 -2.62148,-4.96657 -2.58084,-8.50624c0.85756,-1.89055 1.81465,-3.24965 2.05245,-5.36484c0.15944,-1.41821 -0.63559,-2.88904 -0.23985,-4.32033c0.70644,-2.55509 3.37737,-3.05901 5.17041,-4.04593c0,0 0.44809,-0.24664 0.6822,0.23187z" fill="#666666" stroke-width="0.5"/><path d="M188.34628,235.59585v-43.11688h16.30238v43.11688z" fill="#870d0d" stroke-width="0"/><path d="M185.71413,306.1163v-72.20832h24.26919v72.20832z" fill="#7b0c0c" stroke-width="0"/><path d="M196.93976,239.384c-0.39211,-0.45633 -0.25322,-1.4981 -0.12375,-2.47241c-0.47082,0.68388 -1.07353,1.25581 -1.3837,1.30582c-0.59226,0.09548 -0.91363,-0.16199 -1.08028,-0.59144c-0.14857,-0.14365 -0.21782,-0.42737 -0.15718,-0.90071c-0.01076,-0.24796 -0.00515,-0.50832 0.00724,-0.76615h-0.32957c-0.55184,1.78195 -0.89609,3.74653 -0.89609,5.53018c-0.33337,0.75113 -1.09632,2.35211 -2.15841,1.40807c-0.46287,-0.41144 -0.03288,-0.95505 -0.13741,-1.40807c-0.31239,-1.35383 -0.68279,-4.31636 -1.41155,-5.41246c-0.39669,-0.59666 -1.4068,0.53535 -2.06529,0c-0.52729,-0.42868 0.24135,-1.09365 -0.66755,-0.97029c-1.35355,0 -4.21865,-1.49376 -1.40943,-2.25831c2.47159,-0.67265 5.82147,-0.01521 8.37977,-0.01521c1.7187,0 3.52879,-0.64131 5.24593,-0.27685c1.09093,0.23155 2.52438,0.96365 3.77128,0.91835c0.18959,-0.09737 0.37751,-0.19577 0.56201,-0.29731l0.12398,-0.17772c0,0 0.3651,-0.4019 0.73018,0c0.04705,0.0518 0.08199,0.1036 0.10714,0.15456c0.09084,0.04323 0.17941,0.12689 0.24775,0.27735c0.23091,0.50838 -0.2309,0.76256 -0.2309,0.76256c-0.35395,0.18525 -0.7156,0.29172 -1.08171,0.3403c-1.38878,0.90676 -2.44618,2.11177 -3.68916,2.96349c-0.14919,0.10223 -0.29157,0.16794 -0.42602,0.20286c-0.14264,1.43117 -0.59408,3.23487 -1.92725,1.68337z" fill="#666666" stroke-width="0.5"/><path d="M274.98816,222.1453v27.62915h-53.70743v-27.62915z" data-paper-data="{&quot;index&quot;:null}" fill="#990f0f" stroke-width="0"/><path d="M254.76114,250.32415v27.62915h-45.25435v-27.62915z" data-paper-data="{&quot;index&quot;:null}" fill="#b31212" stroke-width="0"/><path d="M273.47869,250.32415v27.62915h-18.08372v-27.62915z" data-paper-data="{&quot;index&quot;:null}" fill="#990f0f" stroke-width="0"/><path d="M191.99684,192.82967v-27.62915h47.36761v27.62915z" data-paper-data="{&quot;index&quot;:null}" fill="#b31212" stroke-width="0"/><path d="M255.21398,193.77075v27.62915h-53.70743v-27.62915z" data-paper-data="{&quot;index&quot;:null}" fill="#990f0f" stroke-width="0"/><path d="M220.64691,222.1453v27.62915h-18.08371v-27.62915z" data-paper-data="{&quot;index&quot;:null}" fill="#b31212" stroke-width="0"/><path d="M273.93153,193.96644v27.62915h-18.08372v-27.62915z" data-paper-data="{&quot;index&quot;:null}" fill="#740c0c" stroke-width="0"/><path d="M239.99828,192.82967v-27.62915h47.36761v27.62915z" data-paper-data="{&quot;index&quot;:null}" fill="#990f0f" stroke-width="0"/><path d="M281.62987,278.50301v27.62915h-41.39088v-27.62915z" data-paper-data="{&quot;index&quot;:null}" fill="#740c0c" stroke-width="0"/><path d="M239.72752,278.50301v27.62915h-41.39087v-27.62915z" data-paper-data="{&quot;index&quot;:null}" fill="#990f0f" stroke-width="0"/><path d="M241.00908,287.03535v0.46964c-0.02851,3.89307 0.36228,7.78484 0.36228,11.7412c0,1.81358 0.48564,5.10704 -0.24878,6.64888c-0.31727,0.66608 -1.57995,1.55583 -2.15451,0.81095c-0.48983,-0.63499 -0.02178,-1.32592 0.05436,-1.91811c0.31084,-2.41775 -0.00585,-4.74205 -0.00585,-7.1855c0.0196,-5.01041 0.05463,-10.17767 -0.71575,-15.14843c0,0 -0.03641,-0.23598 0.05394,-0.43597c-0.55813,-0.43497 -1.92905,-1.56068 -2.26685,-1.44553c-0.76347,0.26024 -1.09806,0.94048 -2.05975,0.93905c-0.93294,-0.00141 -1.87905,-0.88456 -2.76526,-1.17308c-2.31493,-0.00993 -4.57565,-1.0923 -6.9644,-0.70294c-1.90774,0.31096 -4.02962,0.87451 -5.84103,0.94216c-2.42389,-0.01593 -4.53552,-0.40458 -6.95576,-0.94688c-1.49057,-0.33399 -3.24753,0.24638 -4.70958,-0.23483c-1.25122,-0.41182 -1.11601,-1.42228 -0.39569,-2.44243c1.3141,-1.12987 2.75437,-0.83753 4.27212,-0.83753l0.5648,0.29679c0,0 0.08096,0.05247 0.15239,0.15744c3.88745,-0.05223 7.71092,-0.21943 11.60015,-0.21943c5.31355,0.00479 10.60693,0.35066 15.88583,-0.63277c4.91921,-0.37091 9.4493,2.07781 14.36414,2.04171c0.16683,0.00269 0.32674,-0.02112 0.48179,-0.0647c0.03449,-0.78421 0.30165,-2.093 0.33673,-2.44953c0.30168,-3.06681 -0.00339,-6.46378 -0.00339,-9.55606c0,-4.44934 0.60606,-9.78674 -0.3939,-14.10141c-1.10898,-0.35712 -2.1708,-0.60771 -2.8259,-0.27223c-2.15197,1.10203 -4.70289,1.21229 -7.06979,1.1949c-3.92816,-1.25293 -9.86453,-2.4061 -13.76565,-0.72349c-5.1075,1.65508 -10.50823,-1.82323 -15.46796,-0.21581c-2.25198,0 -5.07243,2.45788 -6.43791,-1.02459l-0.04781,-0.73218c0,0 0.00001,-0.31886 0.18127,-0.48659c0.00862,-0.57014 0.4527,-0.57011 0.4527,-0.57011c3.53992,0 7.02876,-0.39317 10.59593,-0.46005c-0.00523,-0.38829 0.00062,-0.78156 0.00062,-1.15354c0,-4.56563 0.86772,-8.9753 0.36341,-13.57816c0.03333,-4.61707 -0.39615,-8.77716 -3.46113,-10.60894c-0.74559,0.08242 -1.46452,0.13902 -2.13724,0.13902c-2.33165,-1.00757 -6.82834,-0.92267 -9.29129,-0.46646c-1.27113,0.23546 -2.15998,1.73446 -2.91613,0.29336c-0.91379,-1.21474 -2.29876,-3.35388 -0.61335,-4.68116c0.17576,-0.13841 1.95922,-0.27298 2.14312,-0.29676c1.94676,-0.25172 4.57367,-0.37907 6.45821,0.23171c5.07452,0.02879 10.15727,0.62248 15.312,-0.23799c5.53058,0.01008 11.13681,0.46109 16.7261,0.46988c4.14376,0.76463 8.34388,-0.04991 12.37942,1.57688c0.16269,-0.62259 0.36058,-1.27203 0.35869,-1.70933c-0.01262,-2.89349 -0.35445,-5.81369 -0.36228,-8.68849c0,-4.87858 1.06472,-9.41137 -0.11478,-14.20213c-2.26851,-0.15971 -4.65132,-0.74663 -6.859,-0.74663c-4.87227,0 -9.59251,-0.70448 -14.49101,-0.70448c-3.15055,-0.00405 -6.11091,0.86239 -9.20987,1.17298c-1.96952,0.19738 -3.72656,-0.70334 -5.6434,-0.70334c-4.62414,0 -9.0717,-0.24703 -13.73799,-0.23329c-0.34543,0.08949 -1.97428,0.61132 -2.30613,0.45242c-1.39468,-0.66781 -0.4456,-3.15074 0.64744,-3.27184c2.65687,-0.29434 5.37121,0.94272 8.07865,-0.22724c2.75777,-0.03394 5.55662,-0.03218 8.27906,0.46647c0.89438,0.16382 1.66039,0.64186 2.58918,0.47283c0.97952,-0.17827 1.76745,-0.93429 2.7896,-0.94686c4.10955,0 8.91083,1.6831 12.78822,0.00757c3.2803,-0.04036 0.8301,-8.43992 1.07218,-10.99863c0.11162,-1.17966 0.36029,-2.31692 0.36228,-3.52234c0.37721,-1.95609 0.89947,-8.97071 -0.5217,-10.85084c-0.11914,-0.01428 -0.26065,-0.08722 -0.3424,-0.32525c-0.14955,-0.09397 -0.31504,-0.14327 -0.49783,-0.14113c0,0 -0.45284,0 -0.45284,-0.58707c0,-0.58706 0.45284,-0.58706 0.45284,-0.58706c0.49741,0.00474 0.89795,0.11261 1.2193,0.30237l0.08661,-0.03742c1.11579,-0.46764 1.76011,-0.37418 2.7161,0.51475c0.13915,2.5489 -0.33401,5.0062 -0.30859,7.56081c0.0415,4.16658 0.5433,8.24754 0.5433,12.44139c0,0.93962 -0.85667,5.22133 -0.31377,5.92514c0.25341,0.32852 1.52098,0.06288 1.85344,0.06288c1.86603,0 3.67746,0.46749 5.50527,0.47693c2.33501,0.98146 5.32673,0.66445 7.66243,0.23193c2.09592,-0.38811 4.2557,0.30634 6.35052,-0.23637c3.08334,0.00665 5.7572,0.14341 8.79456,0.70602c1.13106,0.2095 2.20291,-0.7622 3.27768,-0.46647c1.51036,0.41558 1.40965,2.60708 -0.07255,2.81031c-1.35468,0 -2.59655,0.45908 -3.92969,0.70008c-3.07943,0.55671 -6.23451,-0.46523 -9.29334,-0.46523c-1.14725,0 -2.18198,0.23609 -3.2465,0.45205c-0.52103,2.99542 -0.8291,5.9532 -0.8291,9.09574c0,4.97054 0.45166,9.9528 0.53144,14.97642c3.52621,1.09506 8.12035,0.87419 11.69534,0.87419c1.87345,0 4.94222,-0.59228 6.57789,0.79217c0.66483,0.5627 0.8987,3.28303 -0.13402,3.65378c-0.34367,0.1234 -1.23232,-1.23548 -1.57097,-1.45294c-0.84495,-0.54256 -1.79229,-0.40995 -2.69923,-0.40995c-2.14056,0 -4.286,0.04714 -6.42238,0.09977c-0.91978,1.18125 -2.02436,2.21667 -3.35905,2.23309c-1.45682,0 -2.21588,1.70654 -3.44161,1.64377c-1.61409,-0.08268 -1.16546,-2.89381 -2.10412,-3.66281c-0.00738,0.02585 -0.01626,0.05242 -0.02678,0.07969c-0.20253,0.52508 -0.60756,0.26255 -0.60756,0.26255l-0.30295,-0.20298c-2.22988,-1.00128 -4.04744,-0.23455 -6.34566,0.02864c-2.32299,0.26602 -4.63025,-0.45537 -6.97067,-0.47257c-4.65213,-1.50772 -8.85105,1.62399 -13.48832,0.9891c-1.23861,-0.17071 -2.35405,-0.66402 -3.55581,-0.99227c-0.28484,-0.0778 -0.57891,-0.1381 -0.88064,-0.18335c-0.08322,0.09369 -0.17159,0.13187 -0.17159,0.13187l-0.54341,0.23482c-0.90977,0.35955 -1.00138,1.49712 -1.1453,2.5898c-0.42401,3.21919 -0.16599,6.21856 -0.17868,9.46202c0.77129,3.99956 0.36566,7.938 0.36566,12.04774c0,0.44431 0.02898,0.93481 0.03829,1.41768c4.72159,0.12868 9.98787,0.44415 14.40641,-1.01063c1.58982,-0.50371 3.23643,0.22671 4.85614,0.26737c3.8816,0.09744 7.85925,0.00041 11.76425,-0.00014c5.0918,0 10.29539,0.99079 15.42172,0.94021c1.65282,0.23646 4.93135,-0.95731 6.37171,0.32159c1.20801,1.07258 -0.11591,3.58465 -1.22087,3.88864c-1.00525,0.27654 -3.08314,-0.92359 -4.2702,-0.92359c-1.05813,-0.01703 -2.01578,0.93065 -3.07935,0.93929c-1.20068,0.00977 -2.52675,-0.45027 -3.69528,-0.71205c-1.96537,-0.44032 -3.96646,0.47724 -5.90501,0.47724c-0.21612,0 -0.46017,-0.03383 -0.72417,-0.09076c0.33105,1.87755 0.09019,4.08607 0.09019,5.98557c0,5.76237 -0.15437,11.44571 -0.18453,17.07041c0.04626,0.23978 0.05753,0.50887 0.03922,0.78863c0.11843,-0.03732 0.24033,-0.06538 0.36644,-0.08176c3.46942,-0.4505 7.22791,0.16359 10.73769,0.16359c3.00679,0 5.48878,-0.30163 8.38927,1.02696l0.05455,0.12002l0.02758,-0.03577l0.36227,0.46964c0.08194,0.10624 0.13264,0.253 0.13264,0.41512c0,0.32423 -0.20274,0.58705 -0.45284,0.58705h-0.54341v-0.1299c-1.0619,0.1323 -2.09608,-0.08362 -3.18792,0.12234c-3.06291,0.57775 -5.82916,1.18532 -8.97641,1.18058c-2.39048,-0.38441 -5.06883,-0.94048 -7.47682,-0.26909c-1.33201,0.37138 -2.4811,1.25027 -3.85138,1.43994c-1.27764,0.17684 -2.48493,-0.47945 -3.72271,-0.46811c-1.91666,-0.49666 -4.62951,-0.84543 -6.41938,0.38483c-0.47963,0.32966 -0.84609,2.22968 -1.05083,3.85669c0.0402,0.44918 0.02919,0.91678 -0.04021,1.3999c0.40012,0.04369 0.40011,0.58425 0.40011,0.58425zM239.36305,283.4665c0.08427,0.66253 0.15555,1.32697 0.21592,1.99281c-0.0388,-0.66622 -0.0502,-1.36978 -0.21592,-1.99281z" fill="url(#color-3)" stroke-width="0.5"/><path d="M204.19143,336.74426v-15.30586h15.19421v15.30586z" fill="#da1616" stroke-width="0"/><path d="M219.28388,336.74426v-15.30586h15.19421v15.30586z" fill="#c01313" stroke-width="0"/><path d="M234.37635,336.74426v-15.30586h15.19422v15.30586z" fill="#b31212" stroke-width="0"/><path d="M249.46885,336.74426v-15.30586h15.19421v15.30586z" fill="#990f0f" stroke-width="0"/><path d="M264.44705,336.74426v-15.30586h15.19421v15.30586z" fill="#740c0c" stroke-width="0"/><path d="M204.51535,354.56181v-15.30586h15.19421v15.30586z" fill="#8b8b8b" stroke-width="0"/><path d="M219.60783,354.56181v-15.30586h15.19421v15.30586z" fill="#666666" stroke-width="0"/><path d="M234.70031,354.56181v-15.30586h15.19422v15.30586z" fill="#4b4b4b" stroke-width="0"/><path d="M249.79281,354.56181v-15.30586h15.19421v15.30586z" fill="#2b2b2b" stroke-width="0"/><path d="M264.75194,354.56181v-15.30586h15.19421v15.30586z" fill="#0c0c0c" stroke-width="0"/><path d="M202.49346,160.34087v-90.92804h75.31413v90.92804z" data-paper-data="{&quot;index&quot;:null}" fill="#000000" stroke-width="0"/><path d="M229.94268,126.42774c0,6.34068 -5.14014,11.48082 -11.48082,11.48082c-6.34068,0 -11.48082,-5.14014 -11.48082,-11.48082c0,-6.34068 5.14014,-11.48082 11.48082,-11.48082c6.34068,0 11.48082,5.14014 11.48082,11.48082z" data-paper-data="{&quot;index&quot;:null}" fill="#ffffff" stroke-width="0"/><path d="M229.02422,126.42774c0,5.83343 -4.72894,10.56234 -10.56234,10.56234c-5.83342,0 -10.56234,-4.72893 -10.56234,-10.56234c0,-5.83343 4.72893,-10.56234 10.56234,-10.56234c5.83342,0 10.56234,4.72892 10.56234,10.56234z" data-paper-data="{&quot;index&quot;:null}" fill="#000000" stroke-width="0"/><path d="M200.88836,161.48239v-22.96162h57.86331v22.96162z" data-paper-data="{&quot;index&quot;:null}" fill="#990f0f" stroke-width="0"/><path d="M263.7422,103.46612c0,6.34068 -5.14014,11.48082 -11.48082,11.48082c-6.34068,0 -11.48081,-5.14014 -11.48081,-11.48082c0,-6.34068 5.14014,-11.48082 11.48081,-11.48082c6.34068,0 11.48082,5.14014 11.48082,11.48082z" data-paper-data="{&quot;index&quot;:null}" fill="#ffffff" stroke-width="0"/><path d="M262.82374,103.46612c0,5.83343 -4.72893,10.56234 -10.56234,10.56234c-5.83342,0 -10.56234,-4.72892 -10.56234,-10.56234c0,-5.83343 4.72893,-10.56234 10.56234,-10.56234c5.83343,0 10.56234,4.72892 10.56234,10.56234z" data-paper-data="{&quot;index&quot;:null}" fill="#000000" stroke-width="0"/><path d="M231.81001,138.21459v-22.96162h48.06634v22.96162z" data-paper-data="{&quot;index&quot;:null}" fill="#b31212" stroke-width="0"/><path d="M259.05781,161.48239v-22.96162h20.35931v22.96162z" data-paper-data="{&quot;index&quot;:null}" fill="#740c0c" stroke-width="0"/><path d="M199.9699,114.94682v-22.96162h40.10632v22.96162z" data-paper-data="{&quot;index&quot;:null}" fill="#990f0f" stroke-width="0"/><path d="M262.88475,114.94682v-22.96162h20.51238v22.96162z" data-paper-data="{&quot;index&quot;:null}" fill="#740c0c" stroke-width="0"/><path d="M200.27605,91.67904v-22.96162h24.18625v22.96162z" data-paper-data="{&quot;index&quot;:null}" fill="#b31212" stroke-width="0"/><path d="M225.0746,91.67904v-22.96162h57.86331v22.96162z" data-paper-data="{&quot;index&quot;:null}" fill="#990f0f" stroke-width="0"/><path d="M222.13262,69.20785h-0.24885c-0.25362,0 -0.45923,-0.20561 -0.45923,-0.45923c0,-0.25362 0.2056,-0.45923 0.45923,-0.45923h0.29046c0.01618,-0.02293 0.03394,-0.04509 0.05332,-0.06639c0.18603,-0.20433 1.34643,-0.08667 1.64622,-0.08667c0,0 0.09443,0 0.19766,0.04282c0.49158,-0.28516 1.09246,-0.17917 1.68322,-0.17356l0.06322,0.04299l0.00845,-0.02535l0.54103,0.18033c0.18766,0.0577 0.32405,0.23244 0.32405,0.43902c0,0.20658 -0.13641,0.3813 -0.32405,0.43901l-0.24609,0.08204c-1.19443,1.3557 -0.80935,3.15416 -0.53794,5.09987c0.28391,2.03539 0.01228,4.3369 0,6.3927c-0.07225,0.21676 -0.13065,0.44313 -0.17687,0.67703c0.06672,0.79936 0.00424,1.90962 -0.09713,2.86759c0.09282,1.163 0.29628,2.32007 0.45769,3.28858c0.01404,0.08425 0.03385,0.19251 0.05691,0.31882c0.16272,0.25388 0.21092,0.6198 0.16584,0.98772c0.0882,0.61057 0.15102,1.28689 0.08299,1.7809c0.09482,0.01856 0.19187,0.03649 0.29164,0.05318c3.11766,0.52169 6.88286,0.54514 10.02956,0.54514c2.24738,0.00293 4.40846,-0.86291 6.68651,-0.54514c2.68103,0.37397 5.25799,0.72885 8.00893,0.72885c4.02291,0.04995 8.88907,-0.13796 12.8024,-1.09873c2.20125,0.01027 4.23834,-1.01842 6.53062,-0.73598c2.35514,0.29019 4.52338,0.91414 6.90655,0.91713c1.61138,-0.20306 4.5054,-0.65479 5.96444,0.2514c1.00991,0.62723 1.1178,2.97602 -0.42513,3.05419c-1.57775,0.07996 -2.76005,-1.75556 -4.70246,-1.1081c-1.89981,0 -3.83377,0.83637 -5.71193,1.10465c-0.37766,0.05394 -0.75754,0.08096 -1.13894,0.08767c-0.67944,0.72187 -1.59813,0.8996 -2.56972,1.22345c-0.97321,0.31295 -1.60309,-0.40364 -2.38043,-0.28664c-0.98951,0.14893 -2.0277,2.89483 -3.44723,1.70649c-0.55829,-0.46737 -0.15711,-2.6204 -1.01952,-2.79304c-3.32619,0.42133 -6.84718,0.24921 -10.25759,0.24921c-4.63988,-0.03226 -9.0805,-1.41807 -13.70341,-1.47549c-4.06651,1.37444 -8.41586,0.7671 -12.82193,0.73477c-0.89183,-0.332 -2.7082,0.20574 -3.71043,0.36739c-2.58084,0.41625 -6.23207,0.40271 -8.66866,-0.38503c-3.39485,-1.17587 -8.83259,-0.05331 -12.36419,-0.09717c-1.40704,0.42714 -1.43739,-1.69167 -0.38439,-2.14271c1.053,-0.45104 4.44752,0.20658 6.39099,-0.11862c1.44075,-0.24108 2.49673,-0.87003 4.00468,-0.36739c4.01461,0 8.80931,1.33506 12.68283,0.06503c-0.15888,-0.21098 -0.25126,-0.46686 -0.21237,-0.69346c0.2084,-1.21409 0.5256,-2.39853 0.80769,-3.60834c0.01053,-0.30075 0.02871,-0.60391 0.05071,-0.90831c-0.11307,-1.30921 -0.14333,-2.57153 -0.14333,-3.98384c0.00866,-0.30065 0.0828,-0.66188 0.21179,-0.95991c-0.05109,-0.27328 -0.11854,-0.54147 -0.20587,-0.80347l0.01947,-0.07357h-0.02541v-0.55107c0,-0.0931 0.0277,-0.17972 0.07531,-0.25208c-0.01683,-0.0515 -0.03408,-0.10275 -0.05175,-0.15378c-0.52667,-1.62904 -1.02726,-5.65469 -0.56238,-8.23482c-0.38512,-0.21685 -0.73701,-0.64591 -0.89718,-1.08085zM225.2635,90.07696c-0.01372,0.00706 -0.02761,0.01372 -0.04166,0.01996v0.16727c0.01521,-0.0621 0.02907,-0.12451 0.04166,-0.18723z" data-paper-data="{&quot;index&quot;:null}" fill="#666666" stroke-width="0.5"/><path d="M261.0131,119.91824c-1.53956,0.01848 -2.81625,-1.96164 -3.53526,-0.83858c-0.27323,0.54645 -0.61744,1.00539 -0.91847,1.53077c-0.23255,0.40587 -0.51102,0.78696 -0.81565,1.14193c-3.056,3.56109 -3.49167,-3.22743 -5.50015,-4.51111c-0.8084,-0.59565 -0.83098,0.27266 -1.73526,0.2302c-0.49076,-0.02304 -0.82447,-0.53961 -1.19723,-0.85966c-1.23071,-1.05672 -3.86333,-0.89334 -5.27373,-0.53175c0,0 -0.39133,0.09783 -0.53217,-0.25664c-1.29832,0.30052 -2.50798,0.77783 -3.87602,1.15863c-0.62703,0.17454 -1.19891,0.02781 -1.76688,-0.13024c-0.07827,0.14146 -0.22901,0.23728 -0.40214,0.23728h-0.40255c-1.99141,0.70347 -1.8353,1.99441 -2.5956,3.13649c-0.0144,0.13099 -0.0343,0.2615 -0.06618,0.38152l0.02134,0.02134l-0.03855,0.03855c-0.04782,0.15393 -0.11859,0.28654 -0.22737,0.37471c-0.29187,0.23655 -0.68481,0.55211 -1.04088,0.4323c-0.49847,-0.16772 -0.31512,-3.24518 -0.25734,-4.44241c-0.18598,-0.41889 -0.4789,-0.79752 -0.93993,-1.2054l-0.40505,-0.13501c-0.18766,-0.05772 -0.32405,-0.23244 -0.32405,-0.43902c0,-0.20658 0.13641,-0.3813 0.32405,-0.43902l0.4492,-0.14973l0.0091,0.02727l0.06257,-0.0449c0.43174,-0.00154 0.78263,0.05747 1.1338,0.15685c3.61552,-1.14643 6.70155,-0.0052 10.37466,-0.0052c0.12951,0 0.25898,-0.00015 0.38842,-0.00045c0.63421,-0.11419 1.29322,-0.18323 1.99958,-0.18323c0.68212,0.00297 1.40649,0.05486 2.15827,0.13343c2.88553,-0.05438 5.76881,-0.13343 8.67962,-0.13343c3.0152,0 6.2556,-0.59652 9.24077,-0.18024c0.85489,0.11923 1.66483,0.33674 2.4975,0.45869c1.73796,-0.32624 3.4794,-0.26679 5.31158,-0.2464l0.19476,0.06263c2.75088,-0.2858 5.5168,-0.68582 8.23812,-0.62603c0.95945,0.64723 1.18921,1.32715 0.65011,1.76935c0.0036,0.00836 0.00705,0.01683 0.01035,0.02536c0.51142,1.31998 -0.66194,1.32354 -1.24988,0.6674c-0.09259,-0.01668 -0.24307,-0.06596 -0.32396,-0.21157c-3.05032,0.39692 -6.30666,-0.13425 -9.24926,0.84663c-1.67318,0.01588 -3.34576,0.02419 -5.01326,-0.0424c-1.12392,0.81261 -2.69627,2.76478 -4.05694,2.78112zM252.69252,115.54419c1.0885,0.07479 2.15063,0.08232 3.14758,-0.03572c-0.36212,0.01485 -0.7214,0.02371 -1.07688,0.02371c-0.69167,0 -1.38178,0.00445 -2.07071,0.01199z" data-paper-data="{&quot;index&quot;:null}" fill="#565656" stroke-width="0.5"/><path d="M235.18675,141.54229c0.01182,0.82038 -0.16027,1.52145 -1.30679,1.45177c-1.49191,-0.09066 -1.08029,-1.2512 -0.9009,-2.2581c-0.85429,0.12301 -1.91459,-0.04232 -2.6215,-0.04232c-1.10169,0 -2.19419,-0.02092 -3.28199,-0.04865l-0.02286,0.02229c-1.66181,2.20908 -2.54083,0.74409 -4.45969,1.55612c-0.33098,0.91216 -1.68114,1.14471 -2.2826,0.22196c-0.31379,-0.48141 0.12308,-1.10301 0.1028,-1.53343c-0.00743,-0.1575 -0.06947,-0.29067 -0.17487,-0.40272c-4.14751,0.02262 -8.20477,1.00974 -12.39054,0.17284c-2.03968,-0.69165 -4.11352,0.55242 -6.14637,0.56267c-1.24839,0.0063 -2.13578,-0.14241 -1.58761,-1.39995c-0.01487,-0.01234 -0.02296,-0.02041 -0.02296,-0.02041c-1.13434,-1.56425 0.80565,-1.70243 1.97796,-1.70243c2.67947,0 5.30914,-0.17777 7.97237,-0.17777c2.54023,0.91372 6.57495,-0.55701 9.29477,-0.55701c1.26203,0 3.02986,0.59303 4.15139,0.18963c2.33539,-0.01397 5.10492,0.91256 7.36517,0.54859c2.41022,-0.38812 4.75579,-0.73821 7.22014,-0.73821c5.26553,0 10.40502,0.55107 15.6139,0.55107c4.77164,0 9.48701,-0.73477 14.32806,-0.73477c3.16155,0 6.64686,-0.6878 9.80928,-0.17777c1.42111,0.2292 2.84067,0.52546 2.92242,2.09858c-1.17912,1.24781 -1.82666,0.51984 -3.25324,0.27756c-3.15704,-0.53618 -6.50709,1.93345 -9.55204,0.91846c-1.58999,0.01973 -6.06879,-0.5913 -7.91708,0.56204v0.08683c-0.02068,2.8182 0.01282,5.63614 -0.00344,8.50599c-0.72704,2.95498 0.00344,5.5602 0.00344,8.57746c0,1.47417 0.69373,3.76571 0.69373,3.76571l-4.4646,0.04377c0,0 1.26607,-2.96594 1.3888,-3.69934c0.37847,-2.2618 0.17775,-4.77744 0.17775,-7.09047c0,-3.52719 0.57987,-7.21079 -0.28641,-10.60533c-0.00241,-0.00125 -0.00479,-0.00247 -0.0072,-0.00371c-0.6135,-0.31412 -1.51424,-0.137 -2.18625,-0.137c-1.90833,0 -4.5975,-0.476 -6.41118,0.137c-1.75527,1.1702 -3.9734,0.84671 -5.95235,0.59434c-2.07074,-0.26407 -4.19215,-0.3939 -6.30517,-0.54804c-0.51766,0.23567 -0.97018,0.76038 -1.48433,1.03275z" data-paper-data="{&quot;index&quot;:null}" fill="#484848" stroke-width="0.5"/></g></g></svg>