<svg version="1.1" xmlns="http://www.w3.org/2000/svg" xmlns:xlink="http://www.w3.org/1999/xlink" width="111.7" height="296.6366" viewBox="0,0,111.7,296.6366"><g transform="translate(-185.13246,-53.38752)"><g data-paper-data="{&quot;isPaintingLayer&quot;:true}" fill-rule="nonzero" stroke-linecap="butt" stroke-linejoin="miter" stroke-miterlimit="10" stroke-dasharray="" stroke-dashoffset="0" style="mix-blend-mode: normal"><path d="M194.40902,306.61253v-253.22501h91.18203v253.22501z" fill-opacity="0.01" fill="#000000" stroke="none" stroke-width="0"/><path d="M196.03048,304.39162c0,0 -0.63536,-94.38387 -0.79335,-118.01201c-0.05451,-8.15261 13.18688,-36.76129 45.20201,-36.9211c31.60235,-0.15775 44.85672,29.48704 44.84884,36.89673c-0.07659,46.24274 0.65429,117.98648 0.65429,117.98648l-15.49667,0.09614l-0.15882,-114.84311c0,0 -2.42451,-3.0993 -5.31625,-3.15415c-3.43441,-0.06514 -3.94538,3.11562 -3.94538,3.11562l-0.79452,114.86995l-38.71366,0.07222l-1.30539,-115.23309c0,0 -0.72051,-2.919 -3.8856,-2.93443c-3.11083,-0.01515 -5.81569,2.90899 -5.81569,2.90899l0.35311,115.0668z" fill="#000000" stroke="#000000" stroke-width="2"/><path d="M217.15218,182.08016v-14c0,0 15.04214,5.5 22.5,5.5c7.37454,0 22,-5.5 22,-5.5v15.5c0,0 -14.62546,5 -22,5c-7.45786,0 -22.5,-6.5 -22.5,-6.5z" fill="#990f0f" stroke="none" stroke-width="0"/><path d="M192.34696,239.7095c0,0 -0.29484,-43.86067 -0.35983,-53.57988c-0.06499,-9.71921 14.57495,-23.84617 14.57495,-23.84617l16.37627,-7.67375l16.25079,57.59882l18.91681,-58.27893l14.82784,8.20163c0,0 14.6055,14.28659 14.60419,23.97403c-0.00193,14.18744 1.16712,56.11533 1.16712,56.11533l-24.09382,5.00244l0.36934,56.95316l-47.21366,0.07222l-1.34641,-58.03139z" fill="#4b4b4b" stroke="none" stroke-width="0"/><path d="" fill="#000000" stroke="none" stroke-width="1.5"/><path d="" fill="#ffffff" stroke="#000000" stroke-width="1.5"/><path d="" fill="#ffffff" stroke="#000000" stroke-width="1.5"/><path d="" data-paper-data="{&quot;index&quot;:null}" fill="#000000" stroke="none" stroke-width="1.5"/><path d="" fill="#000000" stroke="none" stroke-width="1.5"/><path d="" fill="#ffffff" stroke="#000000" stroke-width="1.4"/><path d="" fill="#000000" stroke="none" stroke-width="1.5"/><path d="" fill="#ffffff" stroke="#000000" stroke-width="1.15"/><path d="" fill="#ffffff" stroke="#000000" stroke-width="1.15"/><path d="" fill="#000000" stroke="none" stroke-width="1.5"/><path d="" data-paper-data="{&quot;index&quot;:null}" fill="#ffffff" stroke="#000000" stroke-width="1"/><path d="M202.88493,332.20646v-15.30586h15.19421v15.30586z" fill="#da1616" stroke="none" stroke-width="0"/><path d="M217.97739,332.20646v-15.30586h15.19421v15.30586z" fill="#c01313" stroke="none" stroke-width="0"/><path d="M233.06987,332.20646v-15.30586h15.19422v15.30586z" fill="#b31212" stroke="none" stroke-width="0"/><path d="M248.16237,332.20646v-15.30586h15.19421v15.30586z" fill="#990f0f" stroke="none" stroke-width="0"/><path d="M263.14054,332.20646v-15.30586h15.19421v15.30586z" fill="#740c0c" stroke="none" stroke-width="0"/><path d="M203.20886,350.02413v-15.30586h15.19421v15.30586z" fill="#8b8b8b" stroke="none" stroke-width="0"/><path d="M218.30134,350.02413v-15.30586h15.19421v15.30586z" fill="#666666" stroke="none" stroke-width="0"/><path d="M233.39383,350.02413v-15.30586h15.19422v15.30586z" fill="#4b4b4b" stroke="none" stroke-width="0"/><path d="M248.48633,350.02413v-15.30586h15.19421v15.30586z" fill="#2b2b2b" stroke="none" stroke-width="0"/><path d="M263.44543,350.02413v-15.30586h15.19421v15.30586z" fill="#0c0c0c" stroke="none" stroke-width="0"/><path d="M186.22697,118.48019c0,0 3.64384,-4.57118 6.42475,-8.50437c2.78091,-3.93319 5.72994,-8.29608 6.57595,-9.88324c1.48118,-2.77876 -0.1746,-40.17317 37.43362,-41.57382c46.45549,-0.91362 40.60495,35.34872 43.22348,42.1903c1.30348,3.40566 1.45114,7.53408 3.05924,12.51618c1.6081,4.9821 5.42983,13.78398 5.42983,13.78398c0,0 -3.80305,-2.01924 -5.77094,-3.85541c-1.96789,-1.83617 -3.68388,-4.96657 -3.68388,-4.96657c0,0 0.77463,5.4693 0.97545,11.60746c0.21083,6.4441 -0.14266,13.62538 0.2554,15.98924c0.76518,4.54406 2.32128,8.95812 2.32128,8.95812c0,0 -3.32369,-1.65201 -4.36632,-2.50352c-1.08601,-0.88696 -2.0249,-2.71625 -2.0249,-2.71625c0,0 -0.79558,4.87558 -1.75273,7.87515c-0.95715,2.99957 -2.46811,5.35238 -2.46811,5.35238l-1.2023,-2.34735c0,0 -1.06434,2.19794 -2.24808,3.33274c-1.18376,1.13479 -4.41148,4.11273 -4.41148,4.11273c0,0 0.4185,-1.40009 0.53326,-2.16393c0.12914,-0.85957 0.20355,-2.74028 0.20355,-2.74028c0,0 -1.35592,2.57938 -2.55302,4.00749c-1.1971,1.4281 -4.52164,4.43234 -4.52164,4.43234c0,0 0.55177,-2.34691 0.50934,-3.8679c-0.04244,-1.52098 -0.68534,-2.44021 -0.68534,-2.44021c0,0 -0.94409,3.87126 -1.90659,5.74854c-0.9242,1.80256 -3.75818,5.30009 -3.75818,5.30009c0,0 0.26819,-2.5487 -0.03202,-4.68338c-0.18714,-1.33068 -1.42667,-2.62506 -1.42667,-2.62506c0,0 -0.36354,3.83211 -0.95648,6.10825c-0.59294,2.27614 -2.33328,6.52027 -2.33328,6.52027c0,0 -0.982,-3.66572 -2.24235,-5.4824c-0.42002,-0.60542 -1.90285,-2.21385 -1.90285,-2.21385c0,0 -0.64791,3.35811 -1.25276,5.09669c-0.63379,1.82175 -2.46721,5.59596 -2.46721,5.59596c0,0 -2.20105,-5.1615 -2.74876,-7.28109c-0.42456,-1.643 -0.26318,-4.37484 -0.26318,-4.37484c0,0 -0.75237,1.64939 -1.31761,2.49762c-1.30551,1.9591 -2.50927,6.36852 -2.50927,6.36852c0,0 -2.22863,-6.06741 -2.70684,-7.66399c-0.67486,-2.25315 -0.0011,-4.35184 -0.0011,-4.35184c0,0 -0.99933,1.67547 -1.42876,2.98859c-0.42943,1.31312 -0.95251,5.88422 -0.95251,5.88422c0,0 -1.76057,-4.39479 -2.45519,-6.48111c-0.64859,-1.94805 -1.58392,-5.65047 -1.58392,-5.65047c0,0 -0.35485,2.03594 -0.31828,3.16564c0.03657,1.12969 0.5537,3.3923 0.5537,3.3923c0,0 -3.26791,-4.44008 -3.7029,-5.04772c-0.74385,-1.03909 -2.00969,-5.03832 -2.00969,-5.03832c0,0 -0.22339,1.55336 -0.21454,2.55285c0.00886,0.99949 0.27241,3.97648 0.27241,3.97648c0,0 -2.26484,-1.72509 -3.45977,-3.06519c-1.19492,-1.3401 -2.10184,-3.17213 -2.10184,-3.17213l-0.12094,2.65484c0,0 -4.0535,-4.79276 -6.43338,-11.20754c-1.13329,-3.0547 -2.58418,-10.34708 -2.58418,-10.34708c0,0 -0.73421,1.3186 -2.53126,3.8296c-1.79705,2.511 -6.90857,5.69391 -6.90857,5.69391c0,0 1.86273,-5.94965 2.5043,-9.86375c0.64157,-3.9141 0.96198,-8.78336 0.96198,-8.78336c0,0 -1.95667,2.96319 -3.63155,4.13704c-1.67487,1.17385 -6.06085,1.56184 -6.06085,1.56184c0,0 4.46768,-7.65001 6.5579,-13.17064c1.54995,-4.09367 3.49374,-12.8706 3.49374,-12.8706c0,0 -2.2336,1.18959 -3.6312,2.00345c-2.17804,1.26833 -7.64594,1.70243 -7.64594,1.70243z" fill="#000000" stroke="none" stroke-width="1.5"/><path d="M219.46051,82.71679c-0.30719,-1.18801 -0.4074,-2.38091 -0.32309,-3.54053l-3.15139,-1.30089l2.61095,-6.32497l3.1439,1.2978c0.9215,-1.07973 2.05817,-1.98797 3.36664,-2.65113l-0.52478,-3.45728l6.7652,-1.02689l0.52259,3.44282c1.56213,0.26038 3.04053,0.85666 4.33627,1.73056l2.85896,-2.31413l4.30513,5.31867l-2.96961,2.4037c0.10789,0.30404 0.20335,0.61541 0.28564,0.93367c0.28748,1.11177 0.39368,2.22781 0.33704,3.31686l3.52697,1.45593l-2.61095,6.32498l-3.39082,-1.39973c-0.97563,1.19109 -2.20736,2.18469 -3.63979,2.88675l0.53732,3.53985l-6.7652,1.02689l-0.54879,-3.61551c-1.4421,-0.26032 -2.80975,-0.8073 -4.02432,-1.59462l-2.63716,2.13461l-4.30513,-5.31868l2.64962,-2.14469c-0.13679,-0.36409 -0.25561,-0.73902 -0.35517,-1.12405zM231.24713,84.51057c2.42545,-0.62716 3.88325,-3.10179 3.25609,-5.52724c-0.62716,-2.42545 -3.10179,-3.88325 -5.52724,-3.25609c-2.42545,0.62716 -3.88325,3.10179 -3.25609,5.52724c0.62715,2.42545 3.10179,3.88326 5.52724,3.2561z" fill="#c11313" stroke="none" stroke-width="0.5"/><path d="M237.07854,103.14078c0.01156,-1.52608 0.27341,-2.9917 0.74633,-4.3582l-3.37015,-2.57317l5.16448,-6.76401l3.36213,2.56705c1.45338,-1.00221 3.11036,-1.72938 4.89528,-2.10699l0.47729,-4.32278l8.45882,0.93395l-0.47529,4.30471c1.79377,0.8135 3.37928,2.00382 4.65632,3.46922l4.17719,-1.86472l3.46906,7.77106l-4.33887,1.9369c0.03222,0.39993 0.04714,0.8047 0.04405,1.21353c-0.01081,1.42814 -0.24084,2.80332 -0.6579,4.09388l3.7718,2.87985l-5.16448,6.76403l-3.6262,-2.76868c-1.5541,1.11868 -3.35268,1.91799 -5.29903,2.30262l-0.48868,4.42602l-8.45883,-0.93396l0.49913,-4.52062c-1.64955,-0.77496 -3.11778,-1.87055 -4.32501,-3.20589l-3.85312,1.72006l-3.46905,-7.77107l3.87133,-1.72818c-0.04771,-0.48135 -0.07035,-0.96998 -0.0666,-1.46458zM250.66768,109.0735c3.11564,0.0236 5.6605,-2.483 5.6841,-5.59864c0.0236,-3.11564 -2.48299,-5.6605 -5.59864,-5.6841c-3.11565,-0.0236 -5.6605,2.483 -5.6841,5.59864c-0.02361,3.11564 2.48299,5.66051 5.59863,5.68411z" fill="#b31212" stroke="none" stroke-width="0.5"/><path d="M226.36392,145.78182c0.53127,-1.44278 1.27921,-2.74291 2.19344,-3.87709l-2.31757,-3.5884l7.20209,-4.65143l2.31206,3.57987c1.7195,-0.45456 3.53824,-0.57897 5.35908,-0.32839l1.92632,-3.93524l7.70049,3.7694l-1.91826,3.9188c1.42313,1.38278 2.52034,3.05177 3.23134,4.87637l4.59573,-0.34354l0.63912,8.5497l-4.77362,0.35684c-0.10582,0.39013 -0.22966,0.77893 -0.37198,1.16544c-0.49717,1.3502 -1.18411,2.57544 -2.0195,3.65668l2.59377,4.01607l-7.2021,4.65144l-2.49363,-3.86103c-1.85469,0.53064 -3.83226,0.67514 -5.80854,0.37616l-1.97232,4.02925l-7.70049,-3.76942l2.01448,-4.11536c-1.29955,-1.29708 -2.31789,-2.83626 -3.00706,-4.51376l-4.23919,0.31689l-0.63912,-8.54972l4.25924,-0.31839c0.1189,-0.47259 0.26404,-0.94352 0.43622,-1.41112zM237.22362,156.03921c2.94556,1.08464 6.2127,-0.42393 7.29734,-3.3695c1.08464,-2.94556 -0.42393,-6.2127 -3.36949,-7.29735c-2.94557,-1.08465 -6.2127,0.42393 -7.29735,3.3695c-1.08465,2.94556 0.42394,6.21271 3.3695,7.29735z" fill="#8b0e0e" stroke="none" stroke-width="0.5"/><path d="M219.76625,121.92627c0.14772,-1.02649 0.45841,-1.98934 0.90213,-2.86609l-2.03329,-2.04162l4.09763,-4.0809l2.02845,2.03677c1.0705,-0.54156 2.25288,-0.87926 3.48936,-0.96986l0.71774,-2.8669l5.60997,1.40447l-0.71473,2.85493c1.13321,0.71223 2.09164,1.6591 2.81715,2.7629l2.98363,-0.87257l1.62328,5.55061l-3.09911,0.90633c-0.01497,0.27224 -0.04204,0.54615 -0.0816,0.82115c-0.13823,0.96062 -0.41921,1.86549 -0.81835,2.69622l2.27561,2.28494l-4.09764,4.0809l-2.18777,-2.19674c-1.149,0.61075 -2.43335,0.98402 -3.77916,1.06454l-0.73487,2.93538l-5.60997,-1.40447l0.75059,-2.99811c-1.03965,-0.67305 -1.92778,-1.54538 -2.61821,-2.55521l-2.75216,0.80487l-1.62328,-5.55061l2.76516,-0.80867c0.01201,-0.32849 0.04158,-0.65958 0.08944,-0.99227zM228.3723,127.16697c2.09571,0.30157 4.03907,-1.15286 4.34064,-3.24855c0.30157,-2.0957 -1.15285,-4.03908 -3.24855,-4.34064c-2.09571,-0.30157 -4.03908,1.15286 -4.34065,3.24856c-0.30158,2.0957 1.15286,4.03908 3.24856,4.34064z" fill="#9f1010" stroke="none" stroke-width="0.5"/><path d="M227.56741,80.20565c0,-1.38071 1.11929,-2.5 2.5,-2.5c1.38071,0 2.5,1.11929 2.5,2.5c0,1.38071 -1.11929,2.5 -2.5,2.5c-1.38071,0 -2.5,-1.11929 -2.5,-2.5z" fill="#ffffff" stroke="none" stroke-width="0.5"/><path d="M248.13884,103.49136c0,-1.38071 1.11929,-2.5 2.5,-2.5c1.38071,0 2.5,1.11929 2.5,2.5c0,1.38071 -1.11929,2.5 -2.5,2.5c-1.38071,0 -2.5,-1.11929 -2.5,-2.5z" fill="#ffffff" stroke="none" stroke-width="0.5"/><path d="M226.42455,123.34851c0,-1.38071 1.11929,-2.5 2.5,-2.5c1.38071,0 2.5,1.11929 2.5,2.5c0,1.38071 -1.11929,2.5 -2.5,2.5c-1.38071,0 -2.5,-1.11929 -2.5,-2.5z" fill="#ffffff" stroke="none" stroke-width="0.5"/><path d="M236.71027,150.77708c0,-1.38071 1.11929,-2.5 2.5,-2.5c1.38071,0 2.5,1.11929 2.5,2.5c0,1.38071 -1.11929,2.5 -2.5,2.5c-1.38071,0 -2.5,-1.11929 -2.5,-2.5z" fill="#ffffff" stroke="none" stroke-width="0.5"/><g stroke="#000000" stroke-width="0"><path d="M188.10747,305.27985v-12.78717h29.10326v12.78717z" fill="#8b0e0e"/><path d="M198.45529,305.79642v-13.64812h8.66631v13.64812z" fill="#ae1111"/><path d="M211.51942,305.79642v-13.64812h8.6663v13.64812z" fill="#9b1010"/><path d="M185.39116,305.62423v-13.64812h8.6663v13.64812z" fill="#9b1010"/><path d="M185.13247,305.62423v-13.64812h4.78587v13.64812z" fill="#ae1111"/><path d="M216.0466,305.79642v-13.64812h4.78587v13.64812z" fill="#ae1111"/></g><g data-paper-data="{&quot;index&quot;:null}" stroke="#000000" stroke-width="0"><path d="M264.75421,304.77985v-12.78717h29.10326v12.78717z" fill="#8b0e0e"/><path d="M274.84334,305.29642v-13.64812h8.6663v13.64812z" fill="#ae1111"/><path d="M261.77921,305.29642v-13.64812h8.66631v13.64812z" fill="#9b1010"/><path d="M287.90747,305.12423v-13.64812h8.66631v13.64812z" fill="#9b1010"/><path d="M292.0466,305.12423v-13.64812h4.78587v13.64812z" fill="#ae1111"/><path d="M261.13247,305.29642v-13.64812h4.78587v13.64812z" fill="#ae1111"/></g></g></g></svg>