<svg version="1.1" xmlns="http://www.w3.org/2000/svg" xmlns:xlink="http://www.w3.org/1999/xlink" width="34.17311" height="34.17311" viewBox="0,0,34.17311,34.17311"><g transform="translate(-222.91345,-162.91345)"><g data-paper-data="{&quot;isPaintingLayer&quot;:true}" stroke-miterlimit="10" stroke-dasharray="" stroke-dashoffset="0" style="mix-blend-mode: normal"><path d="M229.98311,162.91345h20.03379c3.9166,0 7.06966,3.15307 7.06966,7.06966v20.03379c0,3.91659 -3.15306,7.06966 -7.06966,7.06966h-20.03379c-3.91659,0 -7.06966,-3.15307 -7.06966,-7.06966v-20.03379c0,-3.91659 3.15307,-7.06966 7.06966,-7.06966z" fill="#760c0c" fill-rule="evenodd" stroke="none" stroke-width="4.43922" stroke-linecap="round" stroke-linejoin="round"/><g fill-rule="nonzero" stroke-width="0" stroke-linejoin="miter"><g><path d="M246.32811,192.77328c0,0 -6.68637,-4.59301 -9.94327,-7.45643c-3.34759,-2.94314 -9.86721,-8.87127 -9.86721,-8.87127c0,0 6.59618,-7.28684 8.1258,-6.70598c0.7662,0.29097 6.27723,4.40254 10.14765,7.52932c3.87044,3.12678 9.47819,7.906 9.47819,7.906z" data-paper-data="{&quot;index&quot;:null}" fill="#000000" stroke="#000000" stroke-linecap="round"/><path d="M247.62717,186.89436l-15.84078,-13.35728c0,0 1.17456,-1.41511 1.75789,-2.08459c1.36139,-1.56244 7.00184,0.06227 10.59984,3.19729c3.59799,3.13501 6.57439,8.6202 5.213,10.18264c-1.36139,1.56244 -1.72996,2.06196 -1.72996,2.06196z" fill="#9b0f0f" stroke="none" stroke-linecap="butt"/><path d="M231.8159,166.78282c0,0 6.25979,6.27149 9.70321,9.81011c3.44343,3.53861 10.21785,9.82368 10.66973,10.5696c0.45188,0.74593 -5.85651,6.05464 -5.85651,6.05464c0,0 -7.54655,-5.29521 -11.04439,-8.05715c-3.40308,-2.68713 -9.5572,-8.30085 -9.5572,-8.30085z" fill="#9b0f0f" stroke="#000000" stroke-linecap="round"/></g><path d="M226.78809,175.15164l0.51376,-0.8789c0,0 6.16236,5.88589 9.62138,8.69588c3.59394,2.91958 11.45849,8.42347 11.45849,8.42347l-0.66808,0.57956c0,0 -7.90257,-5.50895 -11.3779,-8.30342c-3.5305,-2.83882 -9.54767,-8.5166 -9.54767,-8.5166z" fill="#000000" stroke="none" stroke-linecap="butt"/></g></g></g></svg>