<svg version="1.1" xmlns="http://www.w3.org/2000/svg" xmlns:xlink="http://www.w3.org/1999/xlink" width="93.56936" height="294.97384" viewBox="0,0,93.56936,294.97384"><g transform="translate(-192.30444,-55.05018)"><g data-paper-data="{&quot;isPaintingLayer&quot;:true}" fill-rule="nonzero" stroke-linejoin="miter" stroke-miterlimit="10" stroke-dasharray="" stroke-dashoffset="0" style="mix-blend-mode: normal"><path d="M202.21854,97.96779c0.27273,-1.85667 19.10795,-37.66812 19.10795,-37.66812c0,0 -1.73528,-0.68746 -2.63457,-1.47907c-1.06153,-0.93442 -3.32899,-3.77041 -3.32899,-3.77041c0,0 4.82625,1.40854 10.1577,1.66268c5.39256,0.25704 11.29868,-0.64058 12.66566,-0.69404c44.63633,-0.92186 39.01489,35.66771 41.53088,42.57103c3.44981,9.46549 6.15664,21.59328 6.15664,21.59328c0,0 -2.42802,-3.51099 -4.0797,-5.68481c-1.65168,-2.17382 -3.80143,-4.68777 -3.80143,-4.68777c0,0 2.20651,17.14019 2.0252,21.3103c-0.08215,1.8895 2.16507,6.7362 2.16507,6.7362c0,0 -1.45781,-0.24189 -2.55996,-0.83464c-1.14213,-0.61426 -1.93397,-1.57364 -2.16838,-1.18841c-0.93469,1.5361 -2.20178,2.38007 -2.20178,2.38007c0,0 -5.34201,8.85186 -7.25151,14.70649c-0.72488,2.22254 -0.16832,2.9952 -0.91082,4.72359c-0.7425,1.72839 -2.63873,3.53901 -2.63873,3.53901l-0.69205,-4.13764c0,0 -5.6601,10.91738 -22.95066,10.76965c-16.30625,-0.25778 -26.07151,-10.77153 -26.07151,-10.77153l-0.1162,2.6788c0,0 -3.89477,-3.32247 -6.18145,-9.79514c-2.72545,-7.71466 -3.23946,-20.93043 -3.23946,-20.93043c0,0 -3.59205,3.93097 -5.71704,5.22109c-2.12499,1.29013 -6.94665,2.46733 -6.94665,2.46733c0,0 3.69299,-3.6264 5.58396,-6.32647c1.89097,-2.70007 2.64658,-5.42574 2.64658,-5.42574c0,0 -2.37689,2.21823 -4.23277,3.04518c-1.85588,0.82695 -4.23008,0.63662 -4.23008,0.63662c0,0 5.17492,-7.40349 7.23074,-13.29318c1.94102,-5.56081 2.09972,-11.25799 2.09972,-11.25799z" fill="#000000" stroke="none" stroke-width="1.5" stroke-linecap="butt"/><path d="M201.03042,304.39158c0,0 -0.63536,-94.38387 -0.79335,-118.01201c-0.05451,-8.15261 8.18688,-36.76129 40.20201,-36.9211c31.60235,-0.15775 39.85672,29.48704 39.84884,36.89673c-0.07659,46.24274 0.65429,117.98648 0.65429,117.98648l-10.49667,0.09614l-0.15882,-114.84311c0,0 0.07549,-3.0993 -2.81625,-3.15415c-3.43441,-0.06514 -2.94538,3.11562 -2.94538,3.11562l0.20548,114.86995l-48.21366,0.07222l-0.30539,-115.23309c0,0 0.27949,-2.919 -2.8856,-2.93443c-3.11083,-0.01515 -2.81569,2.90899 -2.81569,2.90899l0.35311,115.0668z" fill="#ffffff" stroke="#000000" stroke-width="2" stroke-linecap="butt"/><path d="M255.62759,200.33377c-0.57113,0 -1.03411,-0.46299 -1.03411,-1.03411c0,-0.57113 0.46299,-1.03413 1.03411,-1.03413c0.57113,0 1.03411,0.463 1.03411,1.03413c0,0.57113 -0.46299,1.03411 -1.03411,1.03411z" fill="#000000" stroke="none" stroke-width="1.5" stroke-linecap="butt"/><path d="M250.36773,204.56936c-4.4635,-0.31439 -6.55245,-1.79392 -6.16985,-2.58011c0.11788,-0.24224 2.84645,1.06355 6.97038,1.3048c6.40897,0.37493 8.51033,-0.63173 8.51033,-0.63173v1.34616c0,0 -2.4135,1.04672 -9.31086,0.56089z" fill="#000000" stroke="#000000" stroke-width="0" stroke-linecap="butt"/><path d="M222.55496,199.29966c0,-0.57113 0.46299,-1.03413 1.03411,-1.03413c0.57113,0 1.03413,0.463 1.03413,1.03413c0,0.57113 -0.463,1.03411 -1.03413,1.03411c-0.57113,0 -1.03411,-0.46299 -1.03411,-1.03411z" fill="#000000" stroke="none" stroke-width="1.5" stroke-linecap="butt"/><path d="M228.84898,204.56936c-6.89736,0.48585 -9.31086,-0.56089 -9.31086,-0.56089v-1.34616c0,0 2.10136,1.00666 8.51033,0.63173c4.12393,-0.24126 6.85251,-1.54704 6.97039,-1.3048c0.3826,0.78618 -1.70634,2.26571 -6.16985,2.58011z" fill="#000000" stroke="#000000" stroke-width="0" stroke-linecap="butt"/><path d="M240.12944,261.12113c-0.81895,0 -1.48284,-0.66389 -1.48284,-1.48284c0,-0.81895 0.66389,-1.48284 1.48284,-1.48284c0.81895,0 1.48284,0.66389 1.48284,1.48284c0,0.81895 -0.66389,1.48284 -1.48284,1.48284z" data-paper-data="{&quot;index&quot;:null}" fill="#000000" stroke="none" stroke-width="1.5" stroke-linecap="butt"/><path d="M212.73281,305.73937c0,0 1.65056,-23.52443 2.0745,-38.85428c0.18971,-6.8598 0.641,-27.10266 0.72823,-36.09886c0.0728,-7.50812 -3.73908,-13.25488 -4.62785,-20.45976c-0.93621,-7.58945 -0.02,-16.78268 1.20943,-25.38925c0.55213,-3.86516 1.16744,-7.61201 1.70651,-11.04213c1.54039,-9.80164 2.24251,-17.01709 2.24251,-17.01709c0,0 2.67319,-2.35297 4.6557,-3.74807c1.98251,-1.3951 5.17197,-2.80371 5.17197,-2.80371h28.39106c0,0 3.91276,1.51959 6.16585,2.94655c2.25309,1.42695 4.75379,3.60523 4.75379,3.60523c0,0 0.01328,7.53135 1.1125,17.57634c0.34082,3.11445 0.76794,6.47055 1.21013,9.91873c1.14058,8.89424 2.38135,18.40114 2.49954,25.95407c0.08396,5.36584 -4.31946,14.84694 -4.21497,20.97934c0.10449,6.1324 0.60416,26.79291 0.90299,36.57505c0.45926,15.03406 2.15648,37.85785 2.15648,37.85785z" fill="#0c0c0c" stroke="#000000" stroke-width="0" stroke-linecap="butt"/><path d="M212.71282,115.20172c-0.57709,-7.29323 0.335,-17.15448 0.335,-17.15448c0,0 3.41059,-0.04124 13.91429,-3.14424c8.0696,-2.38394 20.54731,-9.48722 20.54731,-9.48722c0,0 -2.16005,3.00503 -3.40781,4.46015c-1.32651,1.54696 -3.99292,4.56297 -3.99292,4.56297c0,0 7.838,-1.66761 14.67476,-4.72931c8.56837,-3.53575 10.59252,-6.05309 12.95042,-4.5927c2.7829,1.72362 1.03006,23.1827 0.71846,28.74062c-0.42163,5.66922 -2.53327,9.49969 -3.15031,12.52053c-0.61704,3.02084 -0.4096,6.13662 -2.20622,16.0397c-1.12121,6.18021 -4.16183,8.92466 -10.01942,14.66081c-5.85759,5.73616 -9.05378,9.25275 -13.01359,9.32173c-3.81077,0.06639 -8.93565,-5.1002 -13.93542,-10.38244c-5.32393,-5.62474 -8.87489,-8.47713 -9.71551,-15.13975c-0.75707,-6.00039 -0.77653,-9.90853 -1.12266,-15.24835c-0.25298,-3.90273 -2.26119,-6.44504 -2.57636,-10.42801z" fill="#ffffff" stroke="#000000" stroke-width="1.5" stroke-linecap="butt"/><path d="M260.78283,102.58135c0,0 1.52429,0.31807 4.2558,1.11029c2.49492,0.72361 4.44935,1.74403 4.44935,1.74403l0.1951,1.17035c0,0 -7.24963,-3.12997 -15.1158,-2.4706c-6.2896,0.52724 -9.96319,2.8124 -9.96319,2.8124l0.04575,-4.17683c0,0 3.12748,-1.70421 7.86366,-1.85557c4.90428,-0.15672 8.09084,0.59125 8.09084,0.59125z" data-paper-data="{&quot;index&quot;:null}" fill="#000000" stroke="none" stroke-width="1.5" stroke-linecap="butt"/><path d="M248.01869,143.06891c0.5704,0.21186 3.08357,1.39942 6.02385,2.59586c2.9637,1.20597 7.21362,2.29294 7.19412,2.4605c-0.02476,0.21265 -10.43477,0.22694 -13.67937,0.63224c-2.71902,0.33964 -6.68867,0.70564 -6.68867,0.70564c0,0 -7.10401,-1.16169 -13.27235,-2.44521c-4.94371,-1.02869 -10.39929,-1.66108 -10.40995,-1.75461c-0.01439,-0.12613 3.86835,-0.71071 6.82417,-1.39467c1.14585,-0.49661 5.43971,-1.48513 5.43971,-1.48513c0,0 4.95585,-0.27766 7.60826,0.579c2.84203,0.91791 2.83546,2.44556 3.0831,2.46906c0,0 1.18436,-1.74932 2.36886,-2.10461c1.18451,-0.35528 5.08219,-0.41633 5.50828,-0.25808z" fill="#ffffff" stroke="#000000" stroke-width="1.4" stroke-linecap="butt"/><path d="M229.3707,147.6225c5.09114,1.02674 11.91756,2.80736 11.91756,2.80736c0,0 5.78976,-1.55585 8.44678,-1.8344c2.05992,-0.21596 11.216,-0.70654 11.26026,-0.33377c0.04328,0.36447 -9.03119,12.90033 -21.14808,12.44714c-13.76954,-0.43578 -22.86459,-15.13559 -22.82675,-15.30472c0.03784,-0.16913 7.2591,1.19165 12.35024,2.2184z" fill="#ffffff" stroke="#000000" stroke-width="1.9" stroke-linecap="butt"/><path d="M240.34498,144.62881c-1.03376,0 -3.5381,-3.26042 -3.7867,-5.3637c-0.22243,-1.88186 1.31512,-3.82799 3.7867,-3.82799c2.47159,0 4.2021,0.49077 4.02999,4.18853c-0.14607,3.13818 -1.55841,5.00317 -4.02999,5.00317z" fill="#ffffff" stroke="#000000" stroke-width="1.15" stroke-linecap="butt"/><path d="M243.94707,114.53509c0,0 0.1026,3.96976 0.00576,7.12662c-0.19174,6.25113 -1.08147,27.7607 -1.08147,27.7607l-2.98167,0.00864c0,0 -0.80294,-4.17274 -1.12322,-9.49979c-0.43353,-7.21063 -0.4495,-16.29321 -0.76344,-19.63229c-0.29758,-3.16513 -0.89593,-5.71453 -0.89593,-5.71453" fill="#ffffff" stroke="#000000" stroke-width="1.3" stroke-linecap="round"/><path d="M214.41249,125.32493c0,0 -4.93211,-3.51705 -6.16417,-8.97502c-1.29636,-5.74284 -1.46118,-9.7328 0.48013,-9.99193c1.94131,-0.25915 2.70321,2.37692 3.73262,8.35569c1.0294,5.97877 1.95143,10.61127 1.95143,10.61127z" data-paper-data="{&quot;index&quot;:null}" fill="#ffffff" stroke="#000000" stroke-width="1" stroke-linecap="butt"/><path d="M214.20987,121.37737c0,0 -3.56385,-2.92338 -4.31816,-8.45061c-0.42079,-3.08327 2.15675,-2.28016 2.15675,-2.28016" fill="none" stroke="#000000" stroke-width="0.25" stroke-linecap="round"/><path d="M217.2233,114.72147c0.07093,-4.89188 4.83834,-8.93609 10.21137,-8.8582c5.37302,0.0779 9.02724,4.2484 8.95632,9.14029c-0.07093,4.89188 -4.12352,8.79439 -9.49655,8.7165c-5.37302,-0.0779 -9.74207,-4.1067 -9.67114,-8.99859z" fill="#ffffff" stroke="#000000" stroke-width="1.4" stroke-linecap="butt"/><path d="M221.66094,114.83941c0.03999,-2.75843 2.30855,-4.96213 5.06696,-4.92214c2.75843,0.03999 4.96213,2.30855 4.92214,5.06696c-0.03999,2.75843 -2.30854,4.96213 -5.06696,4.92214c-2.75843,-0.03999 -4.96213,-2.30855 -4.92214,-5.06696z" fill="#000000" stroke="none" stroke-width="1.5" stroke-linecap="butt"/><path d="M244.27958,114.7222c0.20353,-4.88817 4.45264,-8.85847 9.77048,-8.85847c5.31783,0 9.27453,3.96607 9.27453,8.85847c0,4.8924 -3.88585,9.07104 -9.69964,9.14188c-5.52997,0.06739 -9.55792,-4.03692 -9.34537,-9.14188z" fill="#000000" stroke="#000000" stroke-width="1.4" stroke-linecap="butt"/><path d="M248.88232,114.80775c0,-2.81845 2.2848,-5.10325 5.10325,-5.10325c2.81845,0 5.10325,2.2848 5.10325,5.10325c0,2.81845 -2.28479,5.10325 -5.10325,5.10325c-2.81845,0 -5.10325,-2.2848 -5.10325,-5.10325z" fill="#ffffff" stroke="none" stroke-width="1.5" stroke-linecap="butt"/><path d="M217.15487,114.18929c0,0 0.06357,-9.01512 10.60111,-8.8249c9.47101,0.16586 9.55554,9.40723 9.55554,9.40723z" fill="#ffffff" stroke="#000000" stroke-width="1.15" stroke-linecap="butt"/><path d="M243.90193,114.32019c0,0 -0.24686,-9.4582 11.19813,-9.1032c9.71427,0.33347 9.54677,9.65229 9.54677,9.65229z" fill="#740c0c" stroke="#000000" stroke-width="1.15" stroke-linecap="butt"/><path d="M220.6847,104.17763c0,0 3.36963,-1.819 8.03244,-2.28178c5.16698,-0.51283 7.76823,-0.06628 7.76823,-0.06628l0.29508,4.13747c0,0 -3.83554,-0.68065 -8.01795,-0.52113c-5.59346,0.21333 -6.64488,1.43293 -10.89774,1.89119c-3.64408,0.39266 -6.73723,0.15884 -6.73723,0.15884l-0.02589,-1.23155c0,0 3.59517,0.07398 5.23371,-0.06836c1.35239,-0.11749 3.9757,-0.93808 3.9757,-0.93808z" fill="#000000" stroke="none" stroke-width="1.5" stroke-linecap="butt"/><path d="M268.64563,114.71367c1.0294,-5.97877 1.7913,-8.61483 3.73262,-8.35569c1.94131,0.25914 1.77649,4.24909 0.48013,9.99193c-1.23206,5.45797 -6.16417,8.97502 -6.16417,8.97502c0,0 0.92203,-4.6325 1.95143,-10.61127z" data-paper-data="{&quot;index&quot;:null}" fill="#ffffff" stroke="#000000" stroke-width="1" stroke-linecap="butt"/><path d="M269.05818,110.64661c0,0 2.57754,-0.80312 2.15675,2.28016c-0.75431,5.52723 -4.31816,8.45061 -4.31816,8.45061" data-paper-data="{&quot;index&quot;:null}" fill="none" stroke="#000000" stroke-width="0.25" stroke-linecap="round"/><path d="M202.88491,332.20644v-15.30586h15.19421v15.30586z" fill="#da1616" stroke="none" stroke-width="0" stroke-linecap="butt"/><path d="M217.97737,332.20644v-15.30586h15.19421v15.30586z" fill="#c01313" stroke="none" stroke-width="0" stroke-linecap="butt"/><path d="M233.06984,332.20644v-15.30586h15.19422v15.30586z" fill="#b31212" stroke="none" stroke-width="0" stroke-linecap="butt"/><path d="M248.16235,332.20644v-15.30586h15.19421v15.30586z" fill="#990f0f" stroke="none" stroke-width="0" stroke-linecap="butt"/><path d="M263.14054,332.20644v-15.30586h15.19421v15.30586z" fill="#740c0c" stroke="none" stroke-width="0" stroke-linecap="butt"/><path d="M203.20884,350.02402v-15.30586h15.19421v15.30586z" fill="#8b8b8b" stroke="none" stroke-width="0" stroke-linecap="butt"/><path d="M218.30132,350.02402v-15.30586h15.19421v15.30586z" fill="#666666" stroke="none" stroke-width="0" stroke-linecap="butt"/><path d="M233.3938,350.02402v-15.30586h15.19422v15.30586z" fill="#4b4b4b" stroke="none" stroke-width="0" stroke-linecap="butt"/><path d="M248.4863,350.02402v-15.30586h15.19421v15.30586z" fill="#2b2b2b" stroke="none" stroke-width="0" stroke-linecap="butt"/><path d="M263.44543,350.02402v-15.30586h15.19421v15.30586z" fill="#0c0c0c" stroke="none" stroke-width="0" stroke-linecap="butt"/><path d="M222.21632,59.82773l-0.79285,0.65722c0,0 3.44251,47.19946 20.80269,61.64684c14.12983,11.75905 33.82349,15.44595 33.82349,15.44595l-7.36667,14.83334c0,0 -16.90534,11.78411 -38.8758,0.30262c-26.66576,-13.93519 -29.59086,-49.63595 -29.59086,-49.63595c0,0 -2.95305,-11.69516 3.80003,-25.50458c5.14244,-10.5158 13.35498,-15.73092 16.67523,-17.41207c0.9059,-0.45869 1.52474,-0.33337 1.52474,-0.33337z" fill="#b31212" stroke="none" stroke-width="0" stroke-linecap="butt"/><path d="M199.0987,237.21505c0,0 0.19436,-2.52663 0.03173,-5.91814c-0.21803,-4.54708 -0.81187,-10.64878 -0.83688,-14.30024c-0.03919,-5.72074 0.55515,-16.28162 0.55515,-16.28162c0,0 12.33386,-7.07101 27.57814,-10.10777c13.53652,-2.69656 28.68515,-1.26037 35.74743,-3.21738c8.09045,-2.24193 15.92444,-13.92485 15.92444,-13.92485c0,0 2.77684,6.39022 3.34936,10.09251c0.6639,4.29322 0.40064,14.15749 0.40064,14.15749c0,0 -5.30277,13.59423 -10.99161,15.03318c-6.6855,1.69103 -24.06402,2.82136 -39.90958,8.25498c-17.42391,5.97485 -31.84881,16.21185 -31.84881,16.21185z" fill="#b31212" stroke="none" stroke-width="0" stroke-linecap="butt"/><path d="M198.3487,265.10312c0,0 -0.32933,-11.63838 -0.16187,-17.41574c0.08588,-2.96285 0.72766,-7.43784 1.00517,-11.06466c0.25843,-3.3776 0.1567,-6.0196 0.1567,-6.0196c0,0 10.30066,4.49941 23.38349,6.1651c12.39406,1.57799 26.38758,0.52956 33.8877,2.14635c10.35217,2.23161 25.22881,9.93855 25.22881,9.93855l1.5,42.5c0,0 -16.43821,-8.23807 -27.19099,-11.3374c-7.40944,-2.13566 -20.72653,-3.19244 -32.71276,-5.82276c-13.37694,-2.9355 -25.09626,-9.08983 -25.09626,-9.08983z" fill="#b31212" stroke="none" stroke-width="0" stroke-linecap="butt"/></g></g></svg>