<svg version="1.1" xmlns="http://www.w3.org/2000/svg" xmlns:xlink="http://www.w3.org/1999/xlink" width="110.19281" height="75.35625" viewBox="0,0,110.19281,75.35625"><g transform="translate(-184.9036,-142.32187)"><g data-paper-data="{&quot;isPaintingLayer&quot;:true}" fill="#c31e1e" fill-rule="nonzero" stroke="#000000" stroke-width="0" stroke-linecap="butt" stroke-linejoin="miter" stroke-miterlimit="10" stroke-dasharray="" stroke-dashoffset="0" style="mix-blend-mode: normal"><g><path d="M201.75839,179.65093l6.10961,-0.28639c4.4231,-0.19092 7.81204,-2.10019 10.1668,-5.72776c2.25929,-3.46847 3.38893,-8.19389 3.38893,-14.17619c0,-1.68651 -0.57278,-3.10254 -1.71836,-4.24809c-1.11371,-1.14555 -2.67295,-1.73426 -4.67765,-1.76605c-2.00474,-0.03183 -4.18448,-0.06364 -6.53921,-0.09547zM200.51734,153.30316c-1.01827,0 -2.00471,0 -2.95934,0c-0.95463,0 -1.62287,-0.27049 -2.00473,-0.81142c-0.38186,-0.57277 -0.47734,-1.22512 -0.28643,-1.957l0.47734,-2.05244c0.12731,-0.57277 0.4296,-1.03417 0.9069,-1.3842c0.4773,-0.38186 0.9228,-0.57277 1.33646,-0.57277h16.61052c4.48674,0 8.08252,1.12965 10.7873,3.38893c2.70475,2.22746 4.05715,5.53684 4.05715,9.92814c0,4.3913 -0.84326,8.51207 -2.52975,12.3624c-1.65467,3.85033 -3.48439,6.60286 -5.4891,8.25754c-1.9729,1.62288 -3.48441,2.70479 -4.53448,3.24572c-1.0501,0.50913 -2.19566,0.97053 -3.43667,1.38419l4.48674,28.87747c0.35002,2.22746 -0.36595,3.34119 -2.14791,3.34119h-3.3412c-0.85916,0 -1.47966,-0.25455 -1.86152,-0.76369c-0.35002,-0.50913 -0.60457,-1.40012 -0.76368,-2.67294l-3.67532,-27.58874l-6.10961,0.09547l-7.35063,28.78202c-0.38186,1.43193 -1.3524,2.1479 -2.91164,2.1479h-2.81613c-0.79556,0 -1.36832,-0.28638 -1.71834,-0.85915c-0.35002,-0.60461 -0.42953,-1.32056 -0.23852,-2.14791z"/><path d="M294.96821,144.56525c0,0 -6.18915,21.47913 -18.56749,64.43734c1.87743,-1.40013 3.83442,-3.53211 5.87096,-6.39601c0.70004,-1.01827 1.5115,-1.24101 2.4343,-0.66824l2.33883,1.57514c1.01827,0.66825 1.17738,1.47967 0.4773,2.4343c-2.64114,3.15024 -5.09135,5.58454 -7.35063,7.30289c-2.25928,1.68651 -4.91633,2.8957 -7.97114,3.62759c-0.41366,0.09537 -0.79552,0.0317 -1.14555,-0.19094c-0.31822,-0.22274 -0.52504,-0.50914 -0.62051,-0.85917l-1.86153,-5.39366c-1.01827,1.43193 -2.29109,2.84799 -3.81849,4.24812c-1.49557,1.40013 -2.80026,2.10017 -3.91397,2.10017h-0.19091c-1.27282,0 -2.92753,-1.06601 -4.96407,-3.19801c-2.00471,-2.16381 -3.05482,-4.48673 -3.15029,-6.96877c-0.12727,-5.02771 1.30467,-11.69421 4.29584,-19.99946c2.99117,-8.33707 5.79139,-13.68299 8.40073,-16.03772c2.60931,-2.35476 5.74369,-3.53211 9.40308,-3.53211c2.19565,0 4.24809,0.57277 6.15735,1.71832l6.53921,-24.29524c0.38186,-1.43193 1.36829,-2.14792 2.95933,-2.14792h2.52977c1.87743,0 2.59341,0.74778 2.14792,2.24338zM279.31232,174.25408c-3.15028,-1.78199 -5.7755,-1.97293 -7.87567,-0.5728c-3.27756,2.22749 -6.45965,8.76668 -9.54629,19.61759c-2.19565,7.85977 -2.62521,12.64884 -1.28875,14.36715c0.70004,0.92283 1.63879,1.00234 2.81616,0.23852c3.05481,-1.9729 5.79138,-5.61638 8.20978,-10.93048c2.4502,-5.34593 5.01182,-12.91932 7.68477,-22.72015z"/><path d="M232.32556,196.64002c6.61874,-2.8639 11.12143,-6.74604 13.50799,-11.64647c1.20918,-2.51384 1.81379,-4.97993 1.81379,-7.39833c0,-2.4184 -0.70005,-3.62757 -2.10018,-3.62757c-3.05481,0 -5.69595,2.38656 -7.9234,7.15968c-2.19565,4.77315 -3.9617,9.94405 -5.2982,15.5127zM231.08454,203.08378c-0.4773,2.73661 -0.44549,4.66179 0.09548,5.77549c0.54097,1.08191 1.40013,1.76609 2.5775,2.05247c2.4184,-0.89099 5.37772,-3.3253 8.87803,-7.3029c0.60461,-0.60461 1.25692,-0.66827 1.95701,-0.19094l1.86152,1.14554c0.38186,0.22274 0.65232,0.57278 0.81143,1.05008c0.19091,0.4455 0.20685,0.81145 0.04774,1.09784c-1.20918,2.35473 -3.5003,4.8686 -6.8733,7.54155c-3.34119,2.64114 -6.03008,3.75485 -8.06662,3.34119c-4.61405,-1.1137 -7.31879,-3.53211 -8.11431,-7.25516c-0.60461,-2.95937 -0.49323,-6.92107 0.33412,-11.88511c0.85916,-4.96407 2.43429,-10.08725 4.72542,-15.36951c3.34119,-7.73249 7.20742,-12.61699 11.59872,-14.65353c3.46847,-1.62288 6.63465,-1.79788 9.49855,-0.52503c2.8957,1.27285 4.34357,4.43903 4.34357,9.49854c0,2.9275 -0.71598,5.8073 -2.14792,8.63936c-2.57751,5.05951 -7.12788,9.49854 -13.65116,13.31707c-2.54567,1.49557 -5.17089,2.73658 -7.87567,3.72305z"/></g></g></g></svg>