<svg version="1.1" xmlns="http://www.w3.org/2000/svg" xmlns:xlink="http://www.w3.org/1999/xlink" width="92.35172" height="263.03499" viewBox="0,0,92.35172,263.03499"><g transform="translate(-192.50461,-42.46483)"><g data-paper-data="{&quot;isPaintingLayer&quot;:true}" fill-rule="nonzero" stroke-linejoin="miter" stroke-miterlimit="10" stroke-dasharray="" stroke-dashoffset="0" style="mix-blend-mode: normal"><g stroke-linecap="butt"><g><path d="M201.03051,304.39162c0,0 -0.63536,-94.38387 -0.79335,-118.01201c-0.05451,-8.15261 8.18688,-36.76129 40.20201,-36.9211c31.60235,-0.15775 39.85672,29.48704 39.84884,36.89673c-0.07659,46.24274 0.65429,117.98648 0.65429,117.98648l-10.49667,0.09614l-0.15882,-114.84311c0,0 0.07549,-3.0993 -2.81625,-3.15415c-3.43441,-0.06514 -2.94538,3.11562 -2.94538,3.11562c0,0 1.09816,54.873 1.13595,75.99906c0.02703,15.10868 -0.93047,38.87089 -0.93047,38.87089l-48.21366,0.07222c0,0 -1.06115,-23.07495 -1.10058,-37.95101c-0.05626,-21.22832 0.79519,-77.28208 0.79519,-77.28208c0,0 0.27949,-2.919 -2.8856,-2.93443c-3.11083,-0.01515 -2.81569,2.90899 -2.81569,2.90899l0.35311,115.0668z" fill="#ffffff" stroke="#000000" stroke-width="2"/><path d="M255.62771,200.33381c-0.57113,0 -1.03411,-0.46299 -1.03411,-1.03411c0,-0.57113 0.46299,-1.03413 1.03411,-1.03413c0.57113,0 1.03411,0.463 1.03411,1.03413c0,0.57113 -0.46299,1.03411 -1.03411,1.03411z" fill="#000000" stroke="none" stroke-width="1.5"/><path d="M250.36781,204.56942c-4.4635,-0.31439 -6.55245,-1.79392 -6.16985,-2.58011c0.11788,-0.24224 2.84645,1.06355 6.97038,1.3048c6.40897,0.37493 8.51033,-0.63173 8.51033,-0.63173v1.34616c0,0 -2.4135,1.04672 -9.31086,0.56089z" fill="#000000" stroke="#000000" stroke-width="0"/><path d="M222.55505,199.2997c0,-0.57113 0.46299,-1.03413 1.03411,-1.03413c0.57113,0 1.03413,0.463 1.03413,1.03413c0,0.57113 -0.463,1.03411 -1.03413,1.03411c-0.57113,0 -1.03411,-0.46299 -1.03411,-1.03411z" fill="#000000" stroke="none" stroke-width="1.5"/><path d="M228.84906,204.56942c-6.89736,0.48585 -9.31086,-0.56089 -9.31086,-0.56089v-1.34616c0,0 2.10136,1.00666 8.51033,0.63173c4.12393,-0.24126 6.85251,-1.54704 6.97039,-1.3048c0.3826,0.78618 -1.70634,2.26571 -6.16985,2.58011z" fill="#000000" stroke="#000000" stroke-width="0"/><path d="M240.12952,261.12113c-0.81895,0 -1.48284,-0.66389 -1.48284,-1.48284c0,-0.81895 0.66389,-1.48284 1.48284,-1.48284c0.81895,0 1.48284,0.66389 1.48284,1.48284c0,0.81895 -0.66389,1.48284 -1.48284,1.48284z" data-paper-data="{&quot;index&quot;:null}" fill="#000000" stroke="none" stroke-width="1.5"/><path d="M214.06624,305.2727c0,0 -2.16666,-23.02581 -2.16666,-36.71896c0,-15.78956 1.66666,-52.49475 1.66666,-52.49475c0,0 -5.18127,0.24211 -7.92425,0.10559c-2.96235,-0.14744 -9.24242,-0.96002 -9.24242,-0.96002c0,0 -0.37974,-5.07546 0.00903,-11.82433c0.29125,-5.05603 1.36643,-11.05127 2.15032,-16.55527c0.73468,-5.15842 1.15268,-9.88534 2.19208,-13.00319c2.22415,-6.67168 5.81394,-11.44594 10.43326,-15.16169c2.82083,-2.26906 6.02557,-3.72534 9.53769,-6.19682c1.98251,-1.3951 5.17197,-2.80371 5.17197,-2.80371c0,0 -0.81413,26.11 14.55952,26.03867c15.37365,-0.07133 13.83154,-26.03867 13.83154,-26.03867c0,0 3.91276,1.51959 6.16585,2.94655c4.62869,2.93149 8.79999,4.99853 12.15655,8.29755c3.3834,3.32539 5.93897,7.89184 7.30073,13.14754c0.90085,3.4768 1.27842,8.98404 1.99375,14.81281c0.63196,5.14945 1.63728,10.54985 1.92014,15.02289c0.37176,5.87885 0.04927,10.15582 0.04927,10.15582c0,0 -6.39132,0.88973 -9.31248,1.06785c-2.59591,0.15829 -7.35419,-0.05156 -7.35419,-0.05156c0,0 2.16667,38.68848 2.16667,54.32807c0,14.36815 -2.16667,35.88564 -2.16667,35.88564z" fill="#c01313" stroke="#000000" stroke-width="0"/><path d="M215.56624,305.2727c0,0 -1.90718,-23.66285 -1.84543,-38.38263c0.06175,-14.71978 2.94085,-32.20587 3.14723,-50.49517c0.20638,-18.2893 -1.3762,-18.93821 -1.46847,-30.85701c-0.09226,-11.9188 0.66666,-30.65991 0.66666,-30.65991c0,0 2.4009,-1.52624 3.98904,-2.41474c1.58814,-0.8885 5.33863,-2.80371 5.33863,-2.80371c0,0 -0.9581,17.49231 3.97657,28.10355c2.15527,4.63457 6.47413,7.95651 11.08295,7.93512c4.8322,-0.02242 9.1611,-3.56311 11.22538,-8.41692c4.52934,-10.64999 3.10616,-27.62175 3.10616,-27.62175c0,0 3.53472,1.21255 5.66585,2.27989c2.13113,1.06734 4.75379,2.93857 4.75379,2.93857c0,0 0.09147,19.46605 0,31.49804c-0.09147,12.03199 -0.98671,13.44779 -0.79345,30.02772c0.19326,16.57993 3.07693,39.27145 3.12347,50.31865c0.04653,11.0472 -1.83003,38.5503 -1.83003,38.5503z" fill="#8b8b8b" stroke="#000000" stroke-width="0"/><path d="M268.52486,164.62643c0.49788,0.31076 1.48199,0.40577 1.88385,0.80932c0.7471,0.75024 0.3454,1.21766 1.4712,1.8081c0.63757,1.02868 0.12169,1.09583 -0.08924,2.01273c-0.25847,1.12353 2.21664,2.06544 1.98083,3.3783c-0.27316,1.52079 -2.27127,2.17514 -3.14487,3.25664c-1.85393,2.29319 -0.84936,4.20014 -0.83669,6.91066c0.00473,1.01264 -0.55196,1.89901 -0.38059,2.86804c0.18319,1.0808 1.39973,3.6254 0.63775,4.5536c-1.63309,1.98931 -3.54003,-3.11792 -3.73801,-4.14368c-0.02881,-0.97649 0.27909,-1.797 -0.04034,-2.70955c-0.25279,-0.72219 -1.07283,-1.29639 -1.07283,-1.29639c0,0 0.09534,-4.04142 0.09533,-5.82988c0,-3.5 0,-7 0,-10.5c0,-0.40474 -0.0609,-3.87532 -0.0609,-3.87532c0,0 1.29712,0.65709 1.8792,1.14428c0.50515,0.4228 1.41532,1.61317 1.41532,1.61317z" fill="#990f0f" stroke="none" stroke-width="0.5"/><path d="M225.28144,217.9712c-0.01067,-0.0452 -0.02076,-0.09018 -0.03027,-0.1349c-0.00679,-0.0319 -0.03198,-0.06618 -0.07299,-0.10228c0.02626,0.05388 0.05164,0.11041 0.07612,0.16993l0.02532,0.06234c0,0 0.0007,0.00171 0.00182,0.0049zM224.48087,216.84832c0.63101,0.25299 1.13119,0.54339 1.24613,0.8344c0.46593,1.17968 0.81074,2.55655 2.09286,3.42721c2.83646,0.73947 0.70077,1.91257 1.22405,3.6023c0.13994,0.45187 1.08891,0.90684 1.41832,1.21777c1.09947,1.03776 1.42468,2.26973 1.55323,3.74379c-0.04282,1.22933 -1.7581,0.62409 -2.41443,1.85249c-0.78195,1.46351 1.12692,6.87622 -2.54008,4.85472c-1.70043,-0.96258 -2.07646,1.58792 -3.56633,1.7451c-2.93121,0.30923 -3.71968,-1.81388 -2.61922,-4.02638c0.33769,-0.86882 1.38011,-3.23737 0.95032,-4.14903c-0.51239,-1.08687 -2.72976,0.98789 -3.32651,1.02123c-0.95744,0.05349 -0.99929,-1.02651 -1.22804,-1.70902c-0.79345,-2.36733 -0.33806,-4.64111 1.8656,-5.6548c0.43955,-0.20219 -0.74716,-1.35966 -0.76214,-1.42896c-0.1053,-0.48683 0.62508,-1.5615 0.83793,-1.99228c0.29112,-0.58921 0.91609,-1.49612 0.82284,-2.18601c-0.11137,-0.82389 -1.72414,-2.08151 -0.95736,-2.9124c1.42494,-1.54407 3.53569,1.02113 4.78018,1.20844c0.22458,0.21127 0.43291,0.38028 0.62266,0.55142z" fill="#666666" stroke="none" stroke-width="0.5"/><path d="M219.501,239.94736c0.01585,-0.04291 0.04704,-0.0708 0.07668,-0.08852c0.02782,-0.02018 0.06551,-0.03781 0.11092,-0.0357l0.04232,-0.00786c0.22744,-0.03467 0.43976,-0.17875 0.5966,-0.34709c2.61396,0.11304 2.10893,5.96638 -0.29062,6.50197c-0.40153,-0.00898 -1.09876,0.10859 -1.26629,-0.43292c-0.10126,-0.32728 0.19591,-1.52165 0.21742,-1.94102c0.07881,-1.53647 -0.44263,-2.1931 0.51298,-3.64886z" fill="#666666" stroke="none" stroke-width="0.5"/><path d="M223.74497,240.87151c0.02911,-0.08294 0.10044,-0.13276 0.10044,-0.13276l0.09737,-0.06801c3.34913,-2.08893 -0.27873,5.32729 -0.51291,0.45596c0,0 -0.01105,-0.24976 0.2387,-0.26081c0.02845,-0.00126 0.0538,0.00087 0.07639,0.00562z" fill="#666666" stroke="none" stroke-width="0.5"/><path d="M248.73417,267.0802c0.86876,-2.35646 3.85063,-4.45343 5.73939,-4.83474c3.21311,-0.77509 3.05916,1.85349 5.48033,2.78344c1.62588,0.62449 2.46529,0.18801 3.25213,2.10316c0.00033,1.54905 -0.2626,3.07269 -0.79316,4.53706c-0.27096,0.74786 -1.26111,1.81409 -1.18761,2.56806c0.06964,0.7144 1.63295,1.36466 1.86174,2.23048c0.32885,1.34712 -0.31233,4.09344 -1.77115,4.76273c-2.0467,0.939 -3.0473,-2.17043 -4.45147,0.47415c-0.4335,1.8952 -1.53636,7.68195 -4.68225,6.3931c-0.58104,-0.23805 -1.18004,-0.86349 -1.6929,-1.23058c-0.09242,-0.11893 -0.6862,-0.85786 -0.68622,-0.97528c-0.00007,-0.41708 0.75958,-0.80072 0.73906,-1.28048c-0.09987,-2.33555 -2.99398,-4.85633 -5.14175,-4.85682c-1.23061,-0.00462 -3.12159,0.20982 -3.99873,-0.91269c-0.78254,-1.00145 -0.20153,-4.76725 1.34299,-4.82325c0.38395,-0.01392 1.09507,0.40332 1.48406,0.51301c0.71645,0.23833 1.33979,-0.54337 1.91016,-0.95817c2.56912,-1.86841 0.70846,-4.67397 2.59538,-6.49318z" fill="#666666" stroke="none" stroke-width="0.5"/><path d="M245.54241,265.57356c0.13234,-0.12583 0.25993,-0.06307 0.3191,-0.02009c1.05105,0.00756 1.35371,1.99929 -0.09274,2.69324c-0.55838,0.90213 -1.45308,1.5057 -2.26213,0.79044c-1.55561,-1.37528 0.43118,-2.86959 1.62899,-3.26957c0,0 0.04446,-0.01483 0.1013,-0.01238c0.09048,-0.05632 0.17813,-0.09992 0.26261,-0.13193c0.01135,-0.01653 0.02549,-0.03315 0.04288,-0.04969z" fill="#666666" stroke="none" stroke-width="0.5"/><path d="M260.17922,258.96513c0.2557,0.16911 0.49394,0.31274 0.72309,0.46708c0.71369,0.12097 1.40413,0.28475 1.86141,0.52332c1.11635,1.49997 -0.61866,3.28064 -2.31071,3.37726c-1.17113,0.06687 -1.70967,-1.34463 -1.78562,-2.57885c-0.15418,-0.54217 -0.39296,-0.84419 -0.32602,-1.40386h0.00001c0.01939,-0.1621 0.13197,-0.20569 0.20776,-0.21642c0.01182,-0.07831 1.63007,-0.16852 1.63007,-0.16852z" fill="#666666" stroke="none" stroke-width="0.5"/><path d="M265.28024,182.10371c0,0 -0.84967,-0.24964 -1.43085,-0.73563c-0.6215,-0.51971 -0.01701,-1.44533 -0.37861,-2.0077c-0.49027,-0.76248 -1.78116,-0.38618 -2.12918,-1.28044c-0.00395,-0.01014 -0.00777,-0.02039 -0.01147,-0.03074c-3.49526,2.31431 -5.05918,-2.6967 -1.99822,-4.41703c-0.08733,-0.05559 -0.16034,-0.11483 -0.21414,-0.17883c-0.58543,-0.69628 -1.1878,-2.48515 -1.29187,-3.3846c-0.20314,-1.75571 1.99205,-0.04315 2.80278,-0.89943c0.32695,-0.58299 1.05345,-1.39898 1.15131,-2.06486c0.23326,-1.58717 0.15424,-2.70719 1.25053,-3.87837c0.53588,-0.57249 2.20677,-1.36033 2.20677,-1.36033c0,0 0.07596,6.34417 0.08294,9.63217c0.00732,3.45018 -0.03999,10.60579 -0.03999,10.60579z" fill="#666666" stroke="none" stroke-width="0.5"/><path d="M261.76295,179.50762c0.10848,-0.03879 0.24223,-0.04518 0.40404,-0.0043c0.97214,0.24558 0.10416,1.63207 -0.61597,1.58207c-0.30201,-0.02097 -0.46394,-0.13653 -0.53178,-0.29734c-0.02392,0.01185 -0.04793,0.02402 -0.07197,0.0365c0.0181,-0.01908 0.03937,-0.03914 0.06289,-0.05985c-0.13574,-0.37991 0.21563,-0.98713 0.49303,-1.21943c0,0 0.12809,-0.10247 0.25976,-0.03765z" fill="#666666" stroke="none" stroke-width="0.5"/><path d="M259.81703,179.57725c0,-0.13807 0.11193,-0.25 0.25,-0.25c0.13807,0 0.25,0.11193 0.25,0.25c0,0.13807 -0.11193,0.25 -0.25,0.25c-0.13807,0 -0.25,-0.11193 -0.25,-0.25z" fill="#666666" stroke="none" stroke-width="0.5"/><path d="M218.94443,231.68063c0,-0.13807 0.11193,-0.25 0.25,-0.25c0.13807,0 0.25,0.11193 0.25,0.25c0,0.13807 -0.11193,0.25 -0.25,0.25c-0.13807,0 -0.25,-0.11193 -0.25,-0.25z" fill="#666666" stroke="none" stroke-width="0.5"/><path d="M229.56943,236.80563c0,-0.13807 0.11193,-0.25 0.25,-0.25c0.13807,0 0.25,0.11193 0.25,0.25c0,0.13807 -0.11193,0.25 -0.25,0.25c-0.13807,0 -0.25,-0.11193 -0.25,-0.25z" fill="#666666" stroke="none" stroke-width="0.5"/><path d="M256.08887,257.23438c0.63088,-0.21512 1.54735,0.03005 0.94317,0.96172c-0.68515,1.05651 -2.46053,0.28267 -1.26444,-0.93321c0,0 0.15588,-0.15589 0.32127,-0.02851z" fill="#666666" stroke="none" stroke-width="0.5"/><path d="M249.76285,216.5333c0,0 -5.23401,-0.725 -8.60357,-0.725c-3.36955,0 -8.32857,0.725 -8.32857,0.725c0,0 4.96675,-2.2 8.32857,-2.2c3.36182,0 8.60357,2.2 8.60357,2.2z" fill="#666666" stroke="none" stroke-width="0"/><path d="M222.58906,297.69997c0,0 11.70839,1.85 18.70358,1.85c6.99519,0 18.22857,-1.85 18.22857,-1.85c0,0 -10.71948,4 -18.21905,4c-8.26942,0 -18.71311,-4 -18.71311,-4z" data-paper-data="{&quot;index&quot;:null}" fill="#666666" stroke="none" stroke-width="0"/><path d="M208.86007,205.26624c-0.01021,-0.03885 -0.01022,-0.06847 -0.01022,-0.06847l-0.00012,-0.43036c-0.00101,-1.57519 -0.75261,-2.95726 -0.7374,-4.3879c0.40076,-1.08099 -0.36382,-2.50129 0.07841,-3.35662c0.71347,-1.37995 5.31323,2.45597 5.87696,3.27849c0.49483,0.47169 1.683,0.99432 1.99788,1.55018c0.37636,0.66439 0.02993,3.99547 -0.24932,4.70585c-0.33384,0.84925 -2.66297,1.16472 -1.85868,1.95539c0.62936,1.90238 -1.12555,3.11125 -2.97131,2.39925c-1.41458,-0.54567 0.70856,-1.67972 -0.38123,-2.55428c-0.82708,-0.66373 -2.0168,1.86761 -1.99355,-0.58689c0.02869,-0.41839 0.10427,-1.53759 0.24857,-2.50465z" fill="#990f0f" stroke="none" stroke-width="0.5"/><path d="M205.39259,199.31147c1.09861,-1.15272 2.12391,-0.02186 1.6669,1.36866c-0.8067,2.4545 -2.31176,0.50789 -2.07526,-1.20435c0,0 0.03421,-0.24765 0.28186,-0.21344c0.05485,0.00758 0.09587,0.02562 0.1265,0.04913z" fill="#990f0f" stroke="none" stroke-width="0.5"/></g><path d="M261.76768,159.97761c1.6237,0.72085 0.20394,2.85449 -0.74158,3.33225c-1.18904,0.89519 -4.20997,0.58085 -3.70777,-1.4951c0.20909,-0.86434 1.10526,-1.31097 1.88775,-1.67062c0,0 0.9379,-0.88738 2.5616,-0.16653z" fill="#666666" stroke="none" stroke-width="0.5"/></g><path d="M259.81703,178.57725c0,-0.13807 0.11193,-0.25 0.25,-0.25c0.13807,0 0.25,0.11193 0.25,0.25c0,0.13807 -0.11193,0.25 -0.25,0.25c-0.13807,0 -0.25,-0.11193 -0.25,-0.25z" fill="#666666" stroke="none" stroke-width="0.5" stroke-linecap="butt"/><path d="M198.97999,102.49948c1.57133,-1.60169 3.1739,-3.46993 3.23867,-3.90695c0.01996,-0.13462 -1.12642,0.34264 -1.88221,0.42526c-0.7558,0.08262 -2.84852,0.0763 -2.84852,0.0763c0,0 1.97046,-2.56063 2.87189,-3.87293c0.88523,-1.28873 2.63185,-4.33146 2.63185,-4.33146c0,0 2.02331,-9.71678 4.79502,-14.95925c4.72924,-8.945 13.6091,-17.26091 30.39973,-17.91173c44.63633,-0.91362 39.01489,34.34872 41.53088,41.1903c1.28425,3.49217 2.96553,6.93424 3.94254,9.87956c1.64748,4.96654 1.1141,8.5206 1.1141,8.5206c0,0 -1.3789,-1.7188 -2.46541,-2.59825c-1.08651,-0.87945 -2.60143,-1.503 -2.60143,-1.503c0,0 1.19089,2.05322 2.10122,4.69005c0.91033,2.63683 1.85991,7.93022 1.85991,7.93022c0,0 -1.21013,-1.47859 -2.16042,-2.104c-0.95029,-0.62541 -2.12791,-0.71824 -2.12791,-0.71824c0,0 1.10898,1.69973 1.56677,2.99592c0.45779,1.29619 0.66712,3.73362 0.66712,3.73362c0,0 -0.56058,-0.47746 -1.16992,-0.8646c-0.60934,-0.38714 -1.39254,-0.52715 -1.39254,-0.52715c0,0 -0.01613,2.01657 -0.14758,2.78059c-1.5623,9.48098 -6.89782,16.82543 -6.89782,16.82543l-1.15522,-2.34735c0,0 -1.02266,2.19794 -2.16005,3.33274c-1.1374,1.13479 -3.43873,2.91273 -3.43873,2.91273l-0.09205,-3.70421c0,0 -7.0601,11.01795 -24.35066,10.87154c-16.30625,-0.25547 -26.07151,-10.6752 -26.07151,-10.6752l-0.1162,2.65484c0,0 -3.89477,-3.29276 -6.18145,-9.70754c-0.65365,-1.83367 -1.60276,-4.95367 -1.60276,-4.95367c0,0 -1.05489,0.92589 -2.48165,1.63881c-1.2026,0.60091 -4.45507,0.80826 -4.45507,0.80826c0,0 1.67559,-1.91066 3.12888,-4.50445c1.21755,-2.17305 1.17115,-4.2322 1.17115,-4.2322c0,0 -1.33908,0.89916 -4.71704,1.7744c-4.23278,1.09673 -6.94665,0.34526 -6.94665,0.34526c0,0 3.60795,-2.71717 5.58396,-4.76989c1.76007,-1.8284 2.64658,-3.37722 2.64658,-3.37722c0,0 -2.10758,1.0847 -4.23277,1.61795c-2.21739,0.5564 -4.03008,0.53093 -4.03008,0.53093c0,0 4.97492,-5.03728 7.03074,-10.87429c1.94102,-5.51108 2.09972,-10.95731 2.09972,-10.95731c0,0 -1.36165,0.66163 -3.33013,0.79513c-1.24776,0.08463 -2.37785,-0.0489 -2.37785,-0.0489z" fill="#000000" stroke="none" stroke-width="1.5" stroke-linecap="butt"/><path d="M212.71291,116.70176c-0.57709,-7.29323 -0.02646,-11.96385 1.66833,-13.82115c1.34554,-1.47456 8.29472,-3.51672 13.91429,-4.81091c5.61957,-1.29418 14.88064,-1.82055 14.88064,-1.82055c0,0 -1.87356,2.50543 -2.51147,4.2605c-0.6379,1.75507 -0.88927,5.09595 -0.88927,5.09595c0,0 2.86055,-2.06857 6.55075,-4.10347c2.9966,-1.65242 6.21561,-2.69969 10.52718,-3.09828c4.31157,-0.39859 12.38915,0.97975 12.38915,0.97975c0,0 -0.63844,13.26879 -0.7901,15.97394c-0.42163,5.66922 -2.53327,9.49969 -3.15031,12.52053c-0.61704,3.02084 0.0904,6.13662 -1.70622,16.0397c-1.12121,6.18021 -4.66183,8.92466 -10.51942,14.66081c-5.85759,5.73616 -9.05378,9.25275 -13.01359,9.32173c-3.81077,0.06639 -8.93565,-5.1002 -13.93542,-10.38244c-5.32393,-5.62474 -9.37489,-8.47713 -10.21551,-15.13975c-0.75707,-6.00039 -0.27653,-9.90853 -0.62266,-15.24835c-0.25298,-3.90273 -2.26119,-6.44504 -2.57636,-10.42801z" fill="#ffffff" stroke="#000000" stroke-width="1.5" stroke-linecap="butt"/><path d="M260.89376,105.43238c0,0 1.48824,0.45803 4.13452,1.50011c2.41708,0.95182 4.26847,2.14906 4.26847,2.14906l0.08575,1.1834c0,0 -6.92819,-3.78867 -14.82161,-3.86149c-6.31139,-0.05821 -10.18103,1.8765 -10.18103,1.8765l0.43283,-4.1546c0,0 3.27203,-1.40689 8.00183,-1.11846c4.89768,0.29868 8.00117,1.33889 8.00117,1.33889z" data-paper-data="{&quot;index&quot;:null}" fill="#000000" stroke="none" stroke-width="1.5" stroke-linecap="butt"/><path d="M243.64687,119.93188c0,-5.77138 5.01196,-10.45 10.78333,-10.45c5.77137,0 10.45,4.67862 10.45,10.45c0,5.77137 -4.67862,10.95 -10.45,10.95c-5.77138,0 -10.78333,-5.17863 -10.78333,-10.95z" fill="#a6a6a6" stroke="none" stroke-width="0" stroke-linecap="butt"/><g stroke="none" stroke-linecap="butt"><path d="M260.98611,150.93933c0,0 0.14916,14.22667 -6.72494,21.50288c-2.39758,2.53784 -8.67577,2.52623 -13.99591,2.52623c-5.70451,0 -10.91972,-0.0124 -13.8233,-2.72989c-8.23522,-7.70754 -7.48535,-22.36131 -7.48535,-22.36131c0,0 10.32292,-7.23297 15.28545,-7.6312c1.52335,-0.12224 6.17783,3.29476 6.17783,3.29476c0,0 3.87821,-3.8279 8.04558,-2.57295c6.97919,2.10171 12.52064,7.97144 12.52064,7.97144z" fill="#000000" stroke-width="0"/><path d="M241.61771,147.77296c-0.71982,0.49923 -14.82851,2.36575 -17.35894,2.36575c-3.51205,0 -3.21116,-0.61637 2.70036,-3.63104c5.3226,-2.70749 8.95633,-3.42315 13.21575,0.70128c0,0 1.57372,0.42962 1.44282,0.56401z" data-paper-data="{&quot;noHover&quot;:false,&quot;origItem&quot;:[&quot;Path&quot;,{&quot;applyMatrix&quot;:true,&quot;segments&quot;:[[[332.0254,197.06293],[0.95313,-0.53669],[-1.05859,0.59758]],[[331.53713,197.74806],[-0.62891,0],[0.45313,0]],[[334.0254,197.29892],[-0.1289,0.09896],[0.02344,-0.02664]],[[333.87307,196.93732],[0.10547,0.17509],[-0.28906,-0.44914]]],&quot;closed&quot;:true,&quot;fillColor&quot;:[0,0,0]}]}" fill="#ffffff" stroke-width="0.5"/><path d="M253.8423,147.29946l4.49293,3.12717l-2.33659,0.23241c-2.72672,0.19201 -15.26264,-2.27023 -15.58982,-3.34553c1.34901,-1.13291 4.51089,-3.1329 6.49595,-3.1329c1.19974,0 4.07997,1.29465 6.93759,3.11884z" data-paper-data="{&quot;noHover&quot;:false,&quot;origItem&quot;:[&quot;Path&quot;,{&quot;applyMatrix&quot;:true,&quot;segments&quot;:[[[335.58448,196.62521],[0.21484,0],[-0.35547,0]],[[334.9087,197.16189],[-0.07422,-0.22457],[0.05859,0.21315]],[[337.13526,197.84702],[-0.48828,0.03806],[0,0]],[337.54932,197.80896],[[336.74073,197.21138],[0,0],[-0.51172,-0.3616]]],&quot;closed&quot;:true,&quot;fillColor&quot;:[0,0,0]}]}" fill="#ffffff" stroke-width="0.5"/><path d="M233.5405,151.35773c0,-1.38252 9.13083,-1.6504 13.18819,-0.45989c2.98852,0.94091 2.7982,1.15601 -4.9021,1.15601c-4.47182,0.05761 -8.28609,-0.38886 -8.28609,-0.69608z" data-paper-data="{&quot;noHover&quot;:false,&quot;origItem&quot;:[&quot;Path&quot;,{&quot;applyMatrix&quot;:true,&quot;segments&quot;:[[[333.20509,198.01069],[0,0],[0,0.0609]],[[334.61134,198.10965],[-0.80078,0.01142],[1.37891,0]],[[335.46682,197.92314],[0.53516,0.18651],[-0.72656,-0.23599]],[[333.20509,198.01068],[0,-0.27405],[0,0]]],&quot;closed&quot;:true,&quot;fillColor&quot;:[0,0,0]}]}" fill="#ffffff" stroke-width="0.5"/><path d="M230.88599,159.39112c0,-0.88324 0.54559,-0.77593 4.86474,1.10582c4.51543,1.95859 7.82979,1.8253 11.08004,-0.36374c2.20319,-1.51697 3.49479,-1.54481 2.81858,0.10655c-0.78527,2.07382 -4.7636,3.85594 -8.95185,3.85594c-3.40298,0 -4.6909,-0.53213 -7.02498,-2.10666c-1.52698,-1.0753 -2.78659,-2.29064 -2.78659,-2.59786z" data-paper-data="{&quot;noHover&quot;:false,&quot;origItem&quot;:[&quot;Path&quot;,{&quot;applyMatrix&quot;:true,&quot;segments&quot;:[[[332.72855,199.61694],[0,0],[0,0.0609]],[[333.22855,200.11556],[-0.27344,-0.21315],[0.41797,0.31211]],[[334.43168,200.48857],[-0.60938,0],[0.75,0]],[[335.99027,199.7806],[-0.14062,0.41108],[0.12109,-0.32734]],[[335.58402,199.74254],[0.39453,-0.3007],[-0.58203,0.43392]],[[333.50199,199.81486],[0.80859,0.38824],[-0.77344,-0.37301]],[[332.72855,199.61693],[0,-0.17508],[0,0]]],&quot;closed&quot;:true,&quot;fillColor&quot;:[0,0,0]}]}" fill="#ffffff" stroke-width="0.5"/><path d="M226.66925,155.863c4.9299,8.73683 6.94066,9.89713 15.05537,9.53229c6.17332,-0.24962 7.18832,-0.71767 10.56947,-7.11189c2.0069,-3.72518 5.63264,-6.75589 6.63609,-5.81499c0.71988,0.69129 -1.63906,12.48172 -3.10059,15.24678c-2.26863,4.3972 -5.16507,5.50156 -15.0031,5.50156c-7.17676,0 -8.53626,-0.20809 -11.52478,-1.64823c-4.05736,-1.93942 -5.78722,-5.02099 -7.72867,-13.43141c-0.71982,-3.2835 -1.29863,-6.23249 -1.29863,-6.48211c0,-0.26884 1.00975,-0.14333 2.20949,0.2983c1.39608,0.55685 3.13834,2.02791 4.18541,3.90967z" data-paper-data="{&quot;noHover&quot;:false,&quot;origItem&quot;:[&quot;Path&quot;,{&quot;applyMatrix&quot;:true,&quot;segments&quot;:[[[331.21682,198.15914],[0.25,0.11038],[-0.21484,-0.08754]],[[330.8223,198.09824],[0,-0.05329],[0,0.04948]],[[331.06057,199.36953],[-0.1289,-0.65087],[0.34766,1.66715]],[[332.43166,201.98444],[-0.72656,-0.38444],[0.53516,0.28547]],[[334.4551,202.29655],[-1.28516,0],[1.76172,0]],[[337.09963,201.23841],[-0.40625,0.87163],[0.26172,-0.5481]],[[337.65822,198.2581],[0.12891,0.13703],[-0.17969,-0.18651]],[[336.56056,199.36953],[0.35938,-0.73842],[-0.60547,1.26749]],[[334.6465,200.83875],[1.10547,-0.04948],[-1.45312,0.07232]],[[331.88088,198.88233],[0.88281,1.73185],[-0.1875,-0.37301]]],&quot;closed&quot;:true,&quot;fillColor&quot;:[0,0,0]}]}" fill="#ffffff" stroke-width="0.5"/></g><path d="M215.89686,120.08188c0,-5.77138 5.01195,-10.45 10.78333,-10.45c5.77138,0 10.78333,4.67862 10.78333,10.45c0,5.77138 -5.01196,10.95 -10.78333,10.95c-5.77138,0 -10.78333,-5.17862 -10.78333,-10.95z" fill="#a6a6a6" stroke="none" stroke-width="0" stroke-linecap="butt"/><path d="M240.34506,146.12885c-1.03376,0 -3.5381,-3.26042 -3.7867,-5.3637c-0.22243,-1.88186 1.31512,-3.82799 3.7867,-3.82799c2.47159,0 4.2021,0.49077 4.02999,4.18853c-0.14607,3.13818 -1.55841,5.00317 -4.02999,5.00317z" fill="#ffffff" stroke="#000000" stroke-width="1.15" stroke-linecap="butt"/><path d="M243.94717,116.03514c0,0 0.1026,3.96976 0.00576,7.12662c-0.19174,6.25113 -1.08147,27.7607 -1.08147,27.7607l-2.98167,0.00864c0,0 -0.80294,-4.17274 -1.12322,-9.49979c-0.43353,-7.21063 -0.4495,-16.29321 -0.76344,-19.63229c-0.29758,-3.16513 -0.89593,-5.71453 -0.89593,-5.71453" fill="#ffffff" stroke="#000000" stroke-width="1.3" stroke-linecap="round"/><path d="M214.41257,126.82498c0,0 -4.93211,-3.51705 -6.16417,-8.97502c-1.29636,-5.74284 -1.46118,-9.7328 0.48013,-9.99193c1.94131,-0.25915 2.70321,2.37692 3.73262,8.35569c1.0294,5.97877 1.95143,10.61127 1.95143,10.61127z" data-paper-data="{&quot;index&quot;:null}" fill="#ffffff" stroke="#000000" stroke-width="1" stroke-linecap="butt"/><path d="M214.20997,122.87742c0,0 -3.56385,-2.92338 -4.31816,-8.45061c-0.42079,-3.08327 2.15675,-2.28016 2.15675,-2.28016" fill="none" stroke="#000000" stroke-width="0.25" stroke-linecap="round"/><path d="M217.22338,116.22152c0.07093,-4.89188 4.83834,-8.93609 10.21137,-8.8582c5.37302,0.0779 9.02724,4.2484 8.95632,9.14029c-0.07093,4.89188 -4.12352,8.79439 -9.49655,8.7165c-5.37302,-0.0779 -9.74207,-4.1067 -9.67114,-8.99859z" fill="#ffffff" stroke="#000000" stroke-width="1.4" stroke-linecap="butt"/><path d="M221.66103,116.33947c0.03999,-2.75843 2.30855,-4.96213 5.06696,-4.92214c2.75843,0.03999 4.96213,2.30855 4.92214,5.06696c-0.03999,2.75843 -2.30854,4.96213 -5.06696,4.92214c-2.75843,-0.03999 -4.96213,-2.30855 -4.92214,-5.06696z" fill="#000000" stroke="none" stroke-width="1.5" stroke-linecap="butt"/><path d="M244.27967,116.22226c0.20353,-4.88817 4.45264,-8.85847 9.77048,-8.85847c5.31783,0 9.27453,3.96607 9.27453,8.85847c0,4.8924 -3.88585,9.07104 -9.69964,9.14188c-5.52997,0.06739 -9.55792,-4.03692 -9.34537,-9.14188z" fill="#ffffff" stroke="#000000" stroke-width="1.4" stroke-linecap="butt"/><path d="M248.8824,116.3078c0,-2.81845 2.2848,-5.10325 5.10325,-5.10325c2.81845,0 5.10325,2.2848 5.10325,5.10325c0,2.81845 -2.28479,5.10325 -5.10325,5.10325c-2.81845,0 -5.10325,-2.2848 -5.10325,-5.10325z" fill="#000000" stroke="none" stroke-width="1.5" stroke-linecap="butt"/><path d="M217.15495,115.68934c0,0 0.06357,-9.01512 10.60111,-8.8249c9.47101,0.16586 9.55554,9.40723 9.55554,9.40723c0,0 -6.35123,0.20784 -10.42424,0.09017c-4.07301,-0.11767 -9.73241,-0.6725 -9.73241,-0.6725z" fill="#ffffff" stroke="#000000" stroke-width="1.15" stroke-linecap="butt"/><path d="M243.90201,115.82024c0,0 -0.24686,-9.4582 11.19813,-9.1032c9.71427,0.33347 9.34677,9.25229 9.34677,9.25229c0,0 -6.11968,0.56212 -10.07027,0.53345c-3.95059,-0.02867 -10.47463,-0.68254 -10.47463,-0.68254z" fill="#ffffff" stroke="#000000" stroke-width="1.15" stroke-linecap="butt"/><path d="M220.68478,105.67768c0,0 3.36963,-1.819 8.03244,-2.28178c5.16698,-0.51283 7.76823,-0.06628 7.76823,-0.06628l0.29508,4.13747c0,0 -3.83554,-0.68065 -8.01795,-0.52113c-5.59346,0.21333 -6.64488,1.43293 -10.89774,1.89119c-3.64408,0.39266 -6.73723,0.15884 -6.73723,0.15884l-0.02589,-1.23155c0,0 3.59517,0.07398 5.23371,-0.06836c1.35239,-0.11749 3.9757,-0.93808 3.9757,-0.93808z" fill="#000000" stroke="none" stroke-width="1.5" stroke-linecap="butt"/><path d="M268.64565,116.21371c1.0294,-5.97877 1.7913,-8.61483 3.73262,-8.35569c1.94131,0.25914 1.77649,4.24909 0.48013,9.99193c-1.23206,5.45797 -6.16417,8.97502 -6.16417,8.97502c0,0 0.92203,-4.6325 1.95143,-10.61127z" data-paper-data="{&quot;index&quot;:null}" fill="#ffffff" stroke="#000000" stroke-width="1" stroke-linecap="butt"/><path d="M269.05818,112.14665c0,0 2.57754,-0.80312 2.15675,2.28016c-0.75431,5.52723 -4.31816,8.45061 -4.31816,8.45061" data-paper-data="{&quot;index&quot;:null}" fill="none" stroke="#000000" stroke-width="0.25" stroke-linecap="round"/><g stroke-width="0"><g><path d="M275.06451,75.14385c0,0 -21.48204,2.42563 -33.0391,2.34636c-11.87886,-0.08148 -35.35615,-0.63523 -35.35615,-0.63523c0,0 0.55938,-26.18843 4.65345,-27.68942c2.05075,-0.75185 20.32567,-2.09484 33.5779,-2.55642c13.25223,-0.46158 32.88756,-0.62913 32.88756,-0.62913z" data-paper-data="{&quot;index&quot;:null}" fill="#7f7f7f" stroke="#000000" stroke-linecap="round"/><path d="M267.41614,61.03855l-55.21612,0.76137c0,0 -0.10565,-4.9 -0.09995,-7.26648c0.01331,-5.52283 14.20702,-12.09914 26.92506,-12.0685c12.71803,0.03064 28.28764,5.87865 28.27433,11.40149c-0.01331,5.52284 0.11668,7.17212 0.11668,7.17212z" fill="#989898" stroke="none" stroke-linecap="butt"/><path d="M200.4672,48.14861c0,0 23.55357,1.69878 36.66504,2.81194c13.11147,1.11316 37.72495,1.94074 39.93714,2.65374c2.21219,0.713 -1.22134,22.41601 -1.22134,22.41601c0,0 -24.43999,2.51357 -36.30504,3.05922c-11.54362,0.53086 -33.73603,-0.02796 -33.73603,-0.02796z" fill="#8b8b8b" stroke="#000000" stroke-linecap="round"/></g><path d="M204.95478,73.77738l-0.5,-2.66666c0,0 22.6842,1.09245 34.55496,0.71128c12.33375,-0.39604 37.77838,-3.04462 37.77838,-3.04462l-0.33334,2.33333c0,0 -25.53004,2.70477 -37.4065,3.14566c-12.06502,0.44789 -34.0935,-0.479 -34.0935,-0.479z" fill="#990f0f" stroke="none" stroke-linecap="butt"/></g></g></g></svg>