<svg version="1.1" xmlns="http://www.w3.org/2000/svg" xmlns:xlink="http://www.w3.org/1999/xlink" width="631.0457" height="465.81968" viewBox="0,0,631.0457,465.81968"><defs><linearGradient x1="145.49074" y1="39.86391" x2="147.93921" y2="177.33812" gradientUnits="userSpaceOnUse" id="color-1"><stop offset="0" stop-color="#0c0c0c"/><stop offset="1" stop-color="#4b4b4b"/></linearGradient></defs><g transform="translate(115.28888,22.0405)"><g data-paper-data="{&quot;isPaintingLayer&quot;:true}" fill-rule="nonzero" stroke-linejoin="miter" stroke-miterlimit="10" stroke-dasharray="" stroke-dashoffset="0" style="mix-blend-mode: normal"><path d="M-28.01802,379.8516v-399.70317h536.03604v399.70317z" fill="#330a0a" stroke="none" stroke-width="0" stroke-linecap="butt"/><path d="M-84.34829,190.16671l343.84385,-211.71171h255.25526l-178.67867,440.11705l-332.52426,-29.0365z" fill="#611212" stroke="none" stroke-width="0" stroke-linecap="butt"/><path d="M-115.28888,312.79434l375.79044,-334.83483h255.25526l-274.77477,465.81968l-263.4552,-2.00947z" fill="#ce2828" stroke="none" stroke-width="0" stroke-linecap="butt"/><path d="M93.66301,394.19982c0,0 -3.43692,-138.01938 -4.29586,-172.57131c-0.29637,-11.92173 10.24378,-55.43476 54.30708,-56.48651c43.49518,-1.03819 55.68897,43.56865 55.87929,54.40546c1.14998,67.63158 4.10374,172.53753 4.10374,172.53753l-14.44567,0.40881l-3.3364,-167.95304c0,0 -0.00738,-5.99712 -3.98924,-6.00345c-4.72911,-0.00752 -3.94247,6.09432 -3.94247,6.09432l3.40136,167.99109l-66.36234,1.33755l-3.54874,-168.51963c0,0 0.27831,-5.73864 -4.07874,-5.68034c-4.28235,0.05733 -3.76957,5.78881 -3.76957,5.78881l3.60992,168.27521z" fill="#000000" stroke="#000000" stroke-width="2" stroke-linecap="butt"/><path d="M165.86135,180.2564l-20.15016,101.32074l-27.3921,-103.36421z" fill="#990f0f" stroke="none" stroke-width="0" stroke-linecap="round"/><path d="M142.34148,206.00369l-7.15062,-23.0062l19.27452,-0.4103l-4.14684,23.06343l5.83856,38.53223l-5.11451,47.87737l-11.69703,-48.30836z" fill="#740c0c" stroke="none" stroke-width="0" stroke-linecap="butt"/><path d="M110.93647,394.87563l-2.57504,-175.80642l-11.59068,-30.98552c0,0 5.052,-7.55339 8.64167,-10.45915c2.87972,-2.33106 16.05719,-5.72372 16.05719,-5.72372l28.0452,91.00128l15.63229,-91.6031c0,0 12.7039,2.78849 15.49992,5.16786c3.11676,2.65231 8.53722,9.90134 8.53722,9.90134c0,0 2.0533,40.63481 2.08796,67.05742c0.0169,12.88104 -2.18426,25.0089 -2.45828,46.0291c-0.53835,41.29668 0.64202,94.0376 0.64202,94.0376z" fill="#0c0c0c" stroke="none" stroke-width="0" stroke-linecap="butt"/><path d="M110.93645,394.87563l-2.57505,-175.80642l-11.59068,-30.98552c0,0 5.05202,-7.55338 8.64166,-10.45912c2.87972,-2.33107 16.0572,-5.72374 16.0572,-5.72374l27.73901,91.13044l1.34022,131.10905z" fill="#151515" stroke="none" stroke-width="0" stroke-linecap="butt"/><path d="M143.74036,317.06118c-1.12724,0.02092 -2.05908,-0.93305 -2.08132,-2.13076c-0.02223,-1.19771 0.87356,-2.18561 2.00081,-2.20653c1.12724,-0.02092 2.05909,0.93304 2.08133,2.13075c0.02223,1.19771 -0.87357,2.18561 -2.00082,2.20653z" data-paper-data="{&quot;index&quot;:null}" fill="#b31212" stroke="none" stroke-width="1.5" stroke-linecap="butt"/><path d="M145.43,359.21905c-1.12724,0.02092 -2.05909,-0.93305 -2.08132,-2.13076c-0.02223,-1.19771 0.87357,-2.1856 2.00081,-2.20652c1.12724,-0.02092 2.0591,0.93304 2.08134,2.13075c0.02223,1.19771 -0.87356,2.18561 -2.00082,2.20653z" data-paper-data="{&quot;index&quot;:null}" fill="#990f0f" stroke="none" stroke-width="1.5" stroke-linecap="butt"/><path d="M143.74453,276.3658c-1.12724,0.02092 -2.05911,-0.93304 -2.08134,-2.13075c-0.02223,-1.19771 0.87356,-2.18561 2.00082,-2.20653c1.12724,-0.02092 2.05909,0.93304 2.08133,2.13075c0.02223,1.19771 -0.87357,2.18561 -2.00081,2.20653z" data-paper-data="{&quot;index&quot;:null}" fill="#c01313" stroke="none" stroke-width="1.5" stroke-linecap="butt"/><path d="M124.69359,179.74232l25.01221,84.28158l-36.31714,-50.42282l9.99452,-5.54986l-15.44877,-16.29384z" fill="#232323" stroke="#000000" stroke-width="0" stroke-linecap="round"/><path d="M180.40097,188.94919l-14.8334,16.85596l10.19361,5.17509l-26.1513,52.29536l13.59753,-85.71122z" data-paper-data="{&quot;index&quot;:null}" fill="#151515" stroke="#000000" stroke-width="0" stroke-linecap="round"/><path d="M188.22864,185.64573c0,0 16.56008,20.48594 18.88042,37.17632c4.97996,35.82106 9.77811,171.50005 9.77811,171.50005l-29.78804,0.66433c0,0 -0.98882,-167.94998 -0.62386,-178.43675c0.36496,-10.48677 1.75337,-30.90396 1.75337,-30.90396z" data-paper-data="{&quot;index&quot;:null}" fill="#000000" stroke="#000000" stroke-width="0.5" stroke-linecap="round"/><path d="M117.27599,396.26402l-40.78803,0.66433c0,0 -0.24067,-135.7636 3.40642,-171.7448c1.69931,-16.76499 17.4877,-37.85143 17.4877,-37.85143c0,0 13.63969,20.05471 14.3936,30.52069c0.75391,10.46598 5.50031,178.41121 5.50031,178.41121z" fill="#000000" stroke="#000000" stroke-width="0.5" stroke-linecap="round"/><path d="M64.79694,111.39192c-0.75885,-42.6068 31.76525,-77.78759 72.64461,-78.57851c40.87936,-0.79091 74.63378,33.10756 75.39263,75.71436c0.75885,42.6068 -31.76525,77.78759 -72.64461,78.57851c-40.87936,0.79092 -74.63378,-33.10756 -75.39263,-75.71436z" fill="#232323" stroke="none" stroke-width="NaN" stroke-linecap="butt"/><path d="M73.05368,110.39192c-0.75885,-42.6068 31.76525,-77.78759 72.64461,-78.57851c40.87936,-0.79091 74.63378,33.10756 75.39263,75.71436c0.75885,42.6068 -31.76525,77.78759 -72.6446,78.57851c-40.87936,0.79092 -74.63378,-33.10756 -75.39263,-75.71436z" fill="#2b2b2b" stroke="none" stroke-width="NaN" stroke-linecap="butt"/><path d="M80.76475,109.87698c-0.67613,-37.96245 28.30269,-69.30837 64.726,-70.01307c36.42331,-0.7047 66.49835,29.49869 67.17448,67.46114c0.67613,37.96247 -28.30268,69.30838 -64.726,70.01308c-36.4233,0.7047 -66.49834,-29.49867 -67.17447,-67.46114z" fill="url(#color-1)" stroke="none" stroke-width="NaN" stroke-linecap="butt"/><path d="M82.97434,109.79554c-0.63297,-35.53932 26.49614,-64.88443 60.59455,-65.54415c34.09842,-0.65972 62.25377,27.61578 62.88674,63.15511c0.63297,35.53932 -26.49613,64.88444 -60.59455,65.54416c-34.09842,0.65972 -62.25377,-27.61579 -62.88674,-63.15511z" fill="#da1616" stroke="none" stroke-width="NaN" stroke-linecap="butt"/><path d="M99.0143,109.45619c-0.45315,-25.44293 18.96882,-46.45136 43.38019,-46.92366c24.41137,-0.4723 44.56804,19.77038 45.02119,45.21331c0.45315,25.44293 -18.96882,46.45136 -43.38019,46.92366c-24.41137,0.4723 -44.56804,-19.77039 -45.02119,-45.21331z" fill="#c01313" stroke="none" stroke-width="NaN" stroke-linecap="butt"/><path d="M139.44196,109.47449c0.22778,12.78878 -12.44569,23.4049 -24.84512,23.6448c-12.39943,0.2399 -22.63579,-9.93297 -22.86356,-22.72175c-0.05155,-2.89437 0.42109,-5.27517 1.32703,-7.22935c0,0 8.02916,0.70928 17.40615,1.69696c13.15073,1.38514 28.9525,3.31782 28.97551,4.60935z" fill="#efefef" stroke="none" stroke-width="0" stroke-linecap="butt"/><g stroke="none" stroke-width="0" stroke-linecap="butt"><path d="M119.26906,111.09779c0.12228,6.86555 -2.91975,12.49195 -6.79458,12.56692c-3.87483,0.07497 -7.11511,-5.42988 -7.23739,-12.29543c-0.03604,-2.02352 0.20282,-3.9394 0.65683,-5.63723c1.37358,0.43542 2.83513,0.65682 4.34817,0.62755c0.56127,-0.01086 1.11423,-0.05591 1.65708,-0.13323c1.26087,0.35885 2.59144,0.5387 3.96438,0.51213c0.96035,-0.01858 1.89637,-0.13727 2.79909,-0.34636c0.36264,1.4477 0.57668,3.03645 0.60641,4.70564z" fill="#000000"/><path d="M116.2194,111.40063c0.08152,4.57704 -1.57695,8.32081 -3.7043,8.36197c-2.12736,0.04116 -3.91801,-3.63589 -3.99953,-8.21292c-0.03499,-1.96431 0.25052,-3.77513 0.75601,-5.20569c0.32088,0.0166 0.64451,0.02192 0.97052,0.01562c0.56127,-0.01086 1.11423,-0.05591 1.65708,-0.13323c1.13876,0.3241 2.33433,0.50217 3.56663,0.51406c0.44665,1.32222 0.72269,2.92665 0.75356,4.66019z" fill="#fdfdfd"/></g><path d="M196.32494,101.17027c0.97491,1.91779 1.532,4.27866 1.58355,7.17303c0.22778,12.78878 -9.6393,23.3506 -22.03872,23.5905c-12.39943,0.2399 -25.44218,-9.87867 -25.66996,-22.66746c-0.0394,-2.21245 46.12513,-8.09608 46.12513,-8.09608z" data-paper-data="{&quot;index&quot;:null}" fill="#efefef" stroke="none" stroke-width="0" stroke-linecap="butt"/><g data-paper-data="{&quot;index&quot;:null}" stroke="none" stroke-width="0" stroke-linecap="butt"><path d="M160.01084,106.11738c0.90954,0.17403 1.84914,0.25643 2.80949,0.23785c1.37294,-0.02657 2.69617,-0.25775 3.94341,-0.66513c0.54523,0.05625 1.09943,0.07989 1.66071,0.06903c1.51304,-0.02927 2.96571,-0.30705 4.32283,-0.79532c0.51416,1.6791 0.82106,3.5844 0.8571,5.60793c0.12228,6.86555 -2.91976,12.49195 -6.79458,12.56692c-3.87483,0.07497 -7.11511,-5.42988 -7.23739,-12.29543c-0.02973,-1.66918 0.12759,-3.26512 0.43843,-4.72585z" fill="#740c0c"/><path d="M163.21789,106.34178c1.23103,-0.05954 2.41943,-0.28375 3.54586,-0.65168c0.54523,0.05625 1.09943,0.07989 1.66071,0.06903c0.32602,-0.00631 0.64924,-0.02416 0.96929,-0.05316c0.55608,1.41002 0.90587,3.20855 0.94085,5.17287c0.08152,4.57704 -1.57695,8.32081 -3.70432,8.36197c-2.12736,0.04116 -3.91799,-3.63589 -3.99952,-8.21292c-0.03088,-1.73354 0.18785,-3.34754 0.58712,-4.68612z" fill="#fdfdfd"/></g><path d="M143.46692,110.87206l-57.6481,-5.89468l-1.55672,-6.90757l61.5368,10.61349z" fill="#740c0c" stroke="#000000" stroke-width="0" stroke-linecap="round"/><path d="M142.25726,108.72754l61.63968,-9.94386l-1.62576,6.89027l-57.70397,5.26758z" data-paper-data="{&quot;index&quot;:null}" fill="#000000" stroke="#000000" stroke-width="0" stroke-linecap="round"/><path d="M141.25661,109.65293c-0.03597,-2.01927 1.50547,-3.68661 3.44287,-3.7241c1.93741,-0.03749 3.53715,1.56909 3.57311,3.58836c0.03597,2.01927 -1.50547,3.68662 -3.44288,3.7241c-1.93741,0.03749 -3.53714,-1.56909 -3.57311,-3.58836z" fill="#000000" stroke="none" stroke-width="NaN" stroke-linecap="butt"/><path d="M120.54215,167.54503l8.50346,-19.07373l31.80646,-0.57881l9.84748,19.60868c0,0 -8.12631,4.98894 -24.89104,5.62404c-15.48251,0.58653 -25.26634,-5.58018 -25.26634,-5.58018z" fill="#000000" stroke="#000000" stroke-width="0" stroke-linecap="round"/><path d="M120.54215,167.54503l8.50346,-17.07373l31.80646,-1.07881l9.84748,18.10868c0,0 -8.12631,4.98894 -24.89104,5.62404c-15.48251,0.58653 -25.26634,-5.58018 -25.26634,-5.58018z" fill="#740c0c" stroke="#000000" stroke-width="0" stroke-linecap="round"/><g fill="#dc4e4e" stroke="#000000" stroke-width="1" stroke-linecap="butt"><path d="M271.71563,282.14176c1.43084,1.03508 2.66382,2.92261 3.6989,5.66255c1.06554,2.7095 1.6592,5.05365 1.78096,7.03251c0.15223,1.97886 0.24354,3.15092 0.274,3.51626c0.06089,0.82198 -0.57844,1.43084 -1.91794,1.82663l-2.60294,0.7763c-0.60887,0.15223 -1.24819,-0.01521 -1.91794,-0.50231c-0.66975,-0.51756 -1.01987,-1.20252 -1.0503,-2.05496c-0.4871,-4.77966 -1.55264,-8.17415 -3.19659,-10.18343c-0.82197,-0.30445 -1.73529,-0.45667 -2.73995,-0.45667c-3.04437,-0.15223 -6.10398,2.00928 -9.1788,6.48452c-3.07483,4.44479 -5.7082,10.51831 -7.90016,18.2206c-2.86172,9.77246 -3.47058,17.77914 -1.82663,24.02013c0.91332,3.47058 2.29849,5.43419 4.15558,5.89087c4.56655,-0.39576 8.34158,-3.75982 11.32507,-10.09212c0.09134,-0.18265 0.2131,-0.44143 0.36533,-0.7763c0.18265,-0.36533 0.30445,-0.59366 0.36533,-0.685c0.06088,-0.12177 0.15222,-0.30442 0.27399,-0.54798c0.15222,-0.27399 0.25878,-0.42622 0.31966,-0.45664c0.06088,-0.06089 0.15222,-0.16744 0.27399,-0.31966c0.12176,-0.15223 0.22832,-0.22832 0.31966,-0.22832c0.12176,0 0.24353,-0.01522 0.36533,-0.04567c0.15222,-0.06088 0.30442,-0.06088 0.45664,0c0.18265,0.06088 0.38054,0.12176 0.59366,0.18265c0.21311,0.03046 0.44143,0.10656 0.685,0.22832l2.96827,1.23298c0.57844,0.21311 0.86764,0.70021 0.86764,1.4613c0.03046,0.73067 -0.16744,1.49176 -0.59366,2.28328c-2.9226,5.29722 -5.76911,9.05701 -8.53948,11.2794c-2.77038,2.19196 -6.21053,3.28794 -10.32045,3.28794c-1.88751,0 -3.88159,-0.65454 -5.98218,-1.96362c-3.37924,-2.07017 -5.40377,-6.5302 -6.07352,-13.38003c-0.63933,-6.88028 0.13701,-14.62821 2.32895,-23.24383c1.40042,-5.69297 3.44016,-10.85321 6.11919,-15.48065c2.67906,-4.65789 5.78432,-8.34159 9.31579,-11.05108c3.56193,-2.7095 7.16949,-4.06424 10.82275,-4.06424c0.76109,0 1.78096,0.21311 3.05961,0.63932c1.30908,0.42622 2.34417,0.92853 3.10526,1.50697z"/><path d="M398.29428,280.56546c0,0 -2.70949,10.6401 -8.12848,31.92028l1.41563,-2.37462c1.30908,-2.16151 2.80083,-4.01857 4.47524,-5.57121c1.67441,-1.58307 3.04437,-2.37462 4.10991,-2.37462h0.18265c0.4871,0 1.26341,0.36533 2.32895,1.09596c1.06554,0.70021 2.08541,1.6592 3.05961,2.87693c1.00466,1.18731 1.70487,2.42029 2.10063,3.69894c0.39576,1.27862 0.33488,3.88155 -0.18265,7.80881c-0.4871,3.92726 -1.96361,9.17881 -4.42957,15.75464c-2.46596,6.54541 -4.88622,10.91407 -7.26084,13.10603c-2.37461,2.16151 -5.37331,3.24226 -8.99612,3.24226c-2.10062,0 -4.07945,-0.56319 -5.93655,-1.68962c-0.4871,0.88286 -1.33953,1.32429 -2.55726,1.32429h-1.59832c-1.12642,0 -1.91794,-0.274 -2.37462,-0.82198c-0.42621,-0.57844 -0.53277,-1.30908 -0.31966,-2.19193l17.12461,-65.89553c0.36533,-1.36996 1.29386,-2.05495 2.78558,-2.05495h2.1463c1.70487,0 2.38983,0.71542 2.05495,2.1463zM382.49397,342.80769c3.04437,1.73529 5.46465,2.00928 7.26083,0.82198c1.79617,-1.21777 3.51626,-3.63802 5.16021,-7.26083c2.80084,-6.05831 4.73399,-12.04053 5.79953,-17.94661c0.4871,-2.61815 0.68499,-4.47521 0.59366,-5.57121c-0.09134,-1.12642 -0.54799,-1.91794 -1.36996,-2.37462c-0.82198,-0.45664 -1.91795,-0.13698 -3.28794,0.95898c-1.36996,1.09596 -2.80084,2.75517 -4.29256,4.97756c-1.4613,2.22239 -2.9226,5.17544 -4.3839,8.85914c-1.43084,3.6837 -3.16614,9.25491 -5.20588,16.71363z"/><path d="M324.89196,279.94181c0,0 -5.67776,22.25438 -17.03329,66.76315c-0.36533,1.36996 -1.29386,2.05495 -2.78562,2.05495h-1.59828c-1.12642,0 -1.90273,-0.27399 -2.32895,-0.82197c-0.45664,-0.57844 -0.57844,-1.30908 -0.36533,-2.19194l17.07896,-65.89553c0.36534,-1.36996 1.30908,-2.05495 2.83126,-2.05495h2.1463c1.70486,0 2.38983,0.71542 2.05495,2.1463z"/><path d="M287.93527,338.31848c4.29256,-6.75852 6.54541,-14.21724 6.75852,-22.37617c0.09134,-3.65323 -0.10655,-6.10396 -0.59365,-7.35215c-0.45665,-1.24819 -1.3852,-1.88752 -2.78559,-1.91797c-1.40042,-0.06088 -2.67903,0.59366 -3.83591,1.96362c-1.12643,1.33953 -2.2224,3.1205 -3.28793,5.34289c-2.83126,5.8452 -4.35344,12.40582 -4.56655,19.6819c-0.12177,5.63209 0.85243,8.52424 2.9226,8.67646c1.82664,0.06089 3.62281,-1.27862 5.38856,-4.01857zM272.04362,334.57383c0.30445,-8.40247 2.03974,-15.63288 5.20587,-21.69119c1.36996,-2.67903 2.49638,-4.61222 3.37928,-5.79953c0.88286,-1.21776 1.94841,-2.42029 3.1966,-3.6076c2.58773,-2.46596 5.70819,-3.66848 9.36145,-3.6076c3.13571,0.15223 5.57121,1.72008 7.3065,4.70357c1.27865,2.03974 1.82663,5.44944 1.64395,10.2291c-0.15222,4.74923 -0.95898,9.40713 -2.42028,13.97368c-1.43085,4.53613 -3.04437,8.32638 -4.84054,11.37078c-3.59235,5.99742 -8.17415,8.90478 -13.74536,8.72213c-2.03974,-0.09143 -3.88159,-0.95908 -5.52554,-2.60294c-1.09596,-1.03508 -1.99407,-2.55729 -2.69428,-4.56658c-0.66975,-2.03971 -0.95898,-4.41433 -0.86764,-7.12382z"/><path d="M363.64098,314.44926c4.04902,-6.57586 7.18471,-10.60964 9.4071,-12.1014c0.73066,-0.51756 2.03974,-0.7763 3.92725,-0.7763h0.91332c1.79618,0 2.42029,0.70021 1.87227,2.10063c-0.27399,0.76109 -1.03508,1.70486 -2.28328,2.83126c-1.24819,1.09597 -2.90735,2.95303 -4.97755,5.57121c-2.07017,2.61818 -3.10526,4.32301 -3.10526,5.11453c0,1.64398 0.77631,3.18138 2.32895,4.61226c0.36534,0.30442 0.47188,0.63929 0.31966,1.00462c-0.1218,0.36533 -0.44146,0.59366 -0.95898,0.685l-3.56193,0.63932c-1.00466,0.15213 -1.76575,0.04558 -2.28328,-0.31966c-0.51752,-0.39576 -1.17206,-1.33954 -1.96361,-2.83126l-0.7763,-1.41566l-7.21519,27.7647c-0.36533,1.36996 -1.30908,2.05496 -2.83126,2.05496h-2.69428c-1.70484,0 -2.38983,-0.71542 -2.05495,-2.14626l11.41641,-43.47371c0.33488,-1.24819 1.20252,-1.87231 2.60294,-1.87231h2.87694c0.82198,0 1.36999,0.15223 1.64398,0.45665c0.27399,0.27399 0.3196,0.7763 0.13685,1.50697z"/><path d="M433.82723,347.78192c7.00206,-8.52423 12.64939,-15.72418 16.94195,-21.59984c-1.55264,-6.42365 -3.36403,-13.13649 -5.43423,-20.13855c-0.82198,-2.28328 -0.31962,-3.42492 1.50698,-3.42492h2.60294c1.36996,0 2.26806,0.71542 2.69428,2.1463c1.61352,5.6321 3.02916,10.85322 4.24692,15.66334c2.83126,-4.23167 5.31243,-8.14369 7.44349,-11.73608c2.13105,-3.59235 3.25747,-5.44944 3.37928,-5.57121c0.33488,-0.33487 1.01987,-0.50232 2.05495,-0.50232h3.19659c1.67441,0 1.8266,1.11122 0.45664,3.33361c-3.31836,5.69297 -8.23503,13.04515 -14.74999,22.05652c1.43084,6.27142 2.69425,12.98426 3.79025,20.13854c0.18268,1.21776 -0.30442,1.8723 -1.4613,1.96362l-2.83129,0.27402c-0.88286,0.1218 -1.47651,0.00003 -1.78096,-0.36531c-0.30442,-0.36533 -0.60887,-1.20252 -0.91332,-2.51162c-0.66975,-4.29256 -1.47651,-8.73734 -2.42025,-13.33435c-4.84055,6.14962 -7.82406,9.89419 -8.95049,11.23373c-1.09596,1.33953 -1.76572,2.17675 -2.00928,2.51162c-0.24353,0.30442 -0.41097,0.50231 -0.50231,0.59366c-0.06088,0.09124 -0.21311,0.25868 -0.45664,0.50231c-0.21311,0.21311 -0.39579,0.36533 -0.54802,0.45667c-0.1218,0.09124 -0.30445,0.19777 -0.54798,0.31963c-0.42622,0.21311 -0.92853,0.31966 -1.50697,0.31966h-2.69425c-0.88289,0 -1.4613,-0.25878 -1.73529,-0.7763c-0.30445,-0.51752 -0.22839,-1.03508 0.2282,-1.55264z"/><path d="M334.17731,339.56546c4.29256,-6.75852 6.54541,-14.21725 6.75852,-22.37618c0.09134,-3.65323 -0.10656,-6.10395 -0.59366,-7.35214c-0.45665,-1.24819 -1.38521,-1.88752 -2.78559,-1.91797c-1.40042,-0.06088 -2.67903,0.59365 -3.83591,1.96361c-1.12642,1.33953 -2.2224,3.1205 -3.28794,5.34289c-2.83126,5.8452 -4.35344,12.40582 -4.56655,19.6819c-0.12176,5.6321 0.85243,8.52424 2.9226,8.67646c1.82664,0.06088 3.62281,-1.27862 5.38855,-4.01856zM318.28567,335.82082c0.30445,-8.40247 2.03974,-15.63288 5.20587,-21.69119c1.36996,-2.67903 2.49638,-4.61222 3.37928,-5.79953c0.88286,-1.21776 1.9484,-2.42029 3.19659,-3.6076c2.58773,-2.46596 5.70819,-3.66848 9.36146,-3.6076c3.13571,0.15223 5.57121,1.72008 7.3065,4.70356c1.27865,2.03974 1.82663,5.44944 1.64395,10.22911c-0.15222,4.74923 -0.95899,9.40713 -2.42028,13.97368c-1.43085,4.53613 -3.04437,8.32637 -4.84055,11.37077c-3.59235,5.99743 -8.17415,8.90478 -13.74536,8.72213c-2.03974,-0.09143 -3.88158,-0.95907 -5.52553,-2.60294c-1.09596,-1.03508 -1.99407,-2.5573 -2.69428,-4.56658c-0.66975,-2.03971 -0.95899,-4.41433 -0.86764,-7.12382z"/><path d="M425.31051,340.18894c4.29256,-6.75852 6.54541,-14.21724 6.75851,-22.37618c0.09134,-3.65323 -0.10655,-6.10395 -0.59366,-7.35214c-0.45664,-1.24819 -1.38521,-1.88752 -2.78559,-1.91798c-1.40042,-0.06088 -2.67903,0.59366 -3.83591,1.96362c-1.12643,1.33954 -2.2224,3.1205 -3.28794,5.34289c-2.83126,5.8452 -4.35344,12.40583 -4.56655,19.6819c-0.12176,5.63209 0.85243,8.52423 2.9226,8.67646c1.82664,0.06089 3.62281,-1.27862 5.38856,-4.01857zM409.41886,336.44431c0.30445,-8.40247 2.03974,-15.63288 5.20587,-21.69118c1.36996,-2.67903 2.49639,-4.61222 3.37928,-5.79953c0.88286,-1.21776 1.9484,-2.42029 3.1966,-3.6076c2.58772,-2.46596 5.70819,-3.66848 9.36145,-3.6076c3.13571,0.15223 5.57121,1.72008 7.3065,4.70357c1.27865,2.03974 1.82664,5.44944 1.64396,10.2291c-0.15222,4.74923 -0.95899,9.40713 -2.42029,13.97368c-1.43084,4.53613 -3.04437,8.32638 -4.84055,11.37078c-3.59235,5.99742 -8.17414,8.90478 -13.74535,8.72213c-2.03974,-0.09144 -3.88159,-0.95908 -5.52554,-2.60294c-1.09596,-1.03509 -1.99407,-2.5573 -2.69428,-4.56658c-0.66975,-2.03971 -0.95898,-4.41432 -0.86765,-7.12382z"/></g></g></g></svg>