<svg version="1.1" xmlns="http://www.w3.org/2000/svg" xmlns:xlink="http://www.w3.org/1999/xlink" width="103.91092" height="249.12938" viewBox="0,0,103.91092,249.12938"><g transform="translate(-184.94954,-56.61003)"><g data-paper-data="{&quot;isPaintingLayer&quot;:true}" fill-rule="nonzero" stroke-linejoin="miter" stroke-miterlimit="10" stroke-dasharray="" stroke-dashoffset="0" style="mix-blend-mode: normal"><path d="M198.51065,102.59253c0.32085,-2.27063 -0.15994,-41.67317 34.29068,-43.07382c40.82685,-0.87652 37.55203,33.84533 39.33684,42.70843c-0.22537,0.64041 -0.37237,1.32275 -0.42781,2.04345c-0.07541,0.43928 -0.12216,0.88836 -0.13826,1.34523c-0.71333,2.85332 0.21879,5.72101 -0.00631,8.66456c-0.10948,1.43166 -1.09045,3.095 -1.39564,4.46833c-0.64305,2.89373 0.3343,8.59694 1.77789,12.08199c-0.04981,1.79546 -0.23025,3.85878 -0.61323,6.19362c-1.48946,9.48098 -6.29088,24.72543 -6.29088,24.72543l-1.10136,-2.34735c0,0 -0.97498,2.19794 -2.05933,3.33274c-1.08436,1.13479 -3.27839,2.91273 -3.27839,2.91273l-0.08776,-3.70421c0,0 -6.73091,10.01795 -23.21527,9.87154c-15.54594,-0.25547 -24.85588,-9.6752 -24.85588,-9.6752l-0.86078,3.90484c0,0 -1.07854,-2.52849 -2.18173,-5.85988c-0.7256,-2.19117 -2.12562,-4.87452 -2.12562,-4.87452l-0.09451,3.55803c0,0 -1.6514,-3.94004 -3.11909,-8.40148c-1.41052,-4.28765 -2.63227,-9.05687 -2.98016,-11.27316c-0.70988,-4.5224 -1.00361,-8.12722 -1.00361,-8.12722l-0.98531,6.61795c0,0 -1.93654,-8.53207 -1.64446,-14.09336c0.29208,-5.5613 2.73913,-18.72805 3.05998,-20.99868z" fill="#000000" stroke="none" stroke-width="1.5" stroke-linecap="butt"/><path d="M201.03043,304.39162c0,0 -0.63536,-94.38387 -0.79335,-118.01201c-0.05451,-8.15261 8.18688,-36.76129 40.20201,-36.9211c31.60235,-0.15775 39.85672,29.48704 39.84884,36.89673c-0.07659,46.24274 0.65429,117.98648 0.65429,117.98648l-10.49667,0.09614l-0.15882,-114.84311c0,0 0.07549,-3.0993 -2.81625,-3.15415c-3.43441,-0.06514 -2.94538,3.11562 -2.94538,3.11562l0.20548,114.86995l-48.21366,0.07222l-0.30539,-115.23309c0,0 0.27949,-2.919 -2.8856,-2.93443c-3.11083,-0.01515 -2.81569,2.90899 -2.81569,2.90899l0.35311,115.0668z" fill="#ffffff" stroke="#000000" stroke-width="2" stroke-linecap="butt"/><path d="M255.6276,200.33383c-0.57113,0 -1.03411,-0.46299 -1.03411,-1.03411c0,-0.57113 0.46299,-1.03413 1.03411,-1.03413c0.57113,0 1.03411,0.463 1.03411,1.03413c0,0.57113 -0.46299,1.03411 -1.03411,1.03411z" fill="#000000" stroke="none" stroke-width="1.5" stroke-linecap="butt"/><path d="M250.36774,204.56942c-4.4635,-0.31439 -6.55245,-1.79392 -6.16985,-2.58011c0.11788,-0.24224 2.84645,1.06355 6.97038,1.3048c6.40897,0.37493 8.51033,-0.63173 8.51033,-0.63173v1.34616c0,0 -2.4135,1.04672 -9.31086,0.56089z" fill="#000000" stroke="#000000" stroke-width="0" stroke-linecap="butt"/><path d="M222.55497,199.29972c0,-0.57113 0.46299,-1.03413 1.03411,-1.03413c0.57113,0 1.03413,0.463 1.03413,1.03413c0,0.57113 -0.463,1.03411 -1.03413,1.03411c-0.57113,0 -1.03411,-0.46299 -1.03411,-1.03411z" fill="#000000" stroke="none" stroke-width="1.5" stroke-linecap="butt"/><path d="M228.84898,204.56942c-6.89736,0.48585 -9.31086,-0.56089 -9.31086,-0.56089v-1.34616c0,0 2.10136,1.00666 8.51033,0.63173c4.12393,-0.24126 6.85251,-1.54704 6.97039,-1.3048c0.3826,0.78618 -1.70634,2.26571 -6.16985,2.58011z" fill="#000000" stroke="#000000" stroke-width="0" stroke-linecap="butt"/><path d="M216.2278,300.25873c0,0 -6.39538,1.64097 -11.70016,2.06535c-5.30478,0.42438 -12.11603,-0.03844 -12.11603,-0.03844c0,0 -1.29783,-17.35229 -1.29109,-24.72678c0.00674,-7.37449 1.0087,-13.77904 1.33094,-18.84925c0.35427,-5.57422 2.34415,-13.91147 3.12064,-18.12932c1.53031,-8.31265 0.13235,-8.83528 1.12335,-17.25744c2.20496,-18.73918 0.71762,-24.8883 3.01633,-41.43897c2.29871,-16.55067 16.00929,-26.04248 16.00929,-26.04248z" fill="#b31212" stroke="#000000" stroke-width="0" stroke-linecap="round"/><path d="M265.62048,155.95515c0,0 13.52856,7.50317 15.79674,24.08278c2.26819,16.57961 2.33345,12.77255 2.86294,23.1472c0.32265,6.32201 -0.71045,13.26168 0.11335,20.36947c1.83056,15.79414 3.13689,24.6575 4.18764,40.52478c0.60462,9.13022 0.03932,23.8553 0.03932,23.8553c0,0 -6.39829,2.13648 -10.95517,1.05373c-4.55688,-1.08274 -12.54483,-6.63748 -12.54483,-6.63748z" data-paper-data="{&quot;index&quot;:null}" fill="#b31212" stroke="#000000" stroke-width="0" stroke-linecap="round"/><path d="M240.12944,261.12113c-0.81895,0 -1.48284,-0.66389 -1.48284,-1.48284c0,-0.81895 0.66389,-1.48284 1.48284,-1.48284c0.81895,0 1.48284,0.66389 1.48284,1.48284c0,0.81895 -0.66389,1.48284 -1.48284,1.48284z" data-paper-data="{&quot;index&quot;:null}" fill="#000000" stroke="none" stroke-width="1.5" stroke-linecap="butt"/><path d="M215.73282,305.7394c0,0 0.25,-34.30793 0.25,-48.59729c0,-11.27549 -0.25,-30.25919 -0.25,-30.25919c0,0 -4.32064,-11.45078 -4.83334,-20.98347c-0.5,-9.29647 4.83334,-49.9222 4.83334,-49.9222c0,0 2.7276,-2.38861 4.75045,-3.80483c2.02285,-1.41622 5.27722,-2.84617 5.27722,-2.84617c0,0 -2.17329,5.77819 -0.3562,11.2736c1.65341,5.00039 6.91176,9.76666 14.28179,9.73263c7.42656,-0.03429 13.19413,-4.70739 15.10215,-9.63672c2.13815,-5.52388 -0.0589,-11.36952 -0.0589,-11.36952c0,0 3.99239,1.5426 6.29133,2.99117c2.29894,1.44856 4.85053,3.65983 4.85053,3.65983c0,0 5.40682,39.9879 4.83333,50.18465c-0.5726,10.18093 -4.83333,20.97102 -4.83333,20.97102c0,0 -0.5,18.61675 -0.5,29.75919c0,14.27546 0.5,48.84731 0.5,48.84731z" fill="#740c0c" stroke="#000000" stroke-width="0" stroke-linecap="butt"/><path d="M223.1563,157.16249c0,0.5 -0.5,0.5 -0.5,0.5h-0.32461c-0.08769,1.23348 -0.00055,2.55134 0.10542,3.82683c0.3151,-0.18162 0.64871,-0.3506 0.99558,-0.52404c0,0 0.44721,-0.22361 0.67082,0.22361c0.22361,0.44721 -0.22361,0.67082 -0.22361,0.67082c-0.47397,0.23698 -0.93676,0.45512 -1.34942,0.72845c0.06874,0.82187 0.12581,1.60894 0.12581,2.32434c-0.06006,0.99407 1.29529,2.44378 1.88667,3.18301c0.17613,0.22016 0.35909,0.44996 0.54882,0.68522c0.04578,-0.10891 0.06929,-0.2304 0.06451,-0.36823c0,0 0,-0.5 0.5,-0.5c0.5,0 0.5,0.5 0.5,0.5c-0.01129,0.51898 -0.19479,0.86147 -0.45414,1.11111c1.26074,1.49856 2.77905,3.04162 4.54278,3.64167c-0.04843,-0.50781 -0.08863,-1.01511 -0.08863,-1.50278c0,0 0,-0.5 0.5,-0.5c0.5,0 0.5,0.5 0.5,0.5c0,0.58839 0.04015,1.16425 0.08847,1.73225c0.17335,0.02048 0.34882,0.03113 0.52641,0.03113c0.77335,0.38668 1.3945,0.1033 2.21521,0.24308c1.7998,0.30653 3.15439,1.5652 5.07358,1.25268c-0.23371,-0.68849 -0.37134,-1.35371 -0.62801,-2.10102c0,0 -0.15811,-0.47434 0.31623,-0.63246c0.47434,-0.15811 0.63246,0.31623 0.63246,0.31623c0.26604,0.81829 0.388,1.47884 0.65499,2.20056c1.76724,-0.48245 3.448,-1.36787 5.23476,-1.52362c0.55077,-0.27003 1.18189,-0.40491 1.83494,-0.50311c0.02993,-0.33228 0.05098,-0.66971 0.05098,-1.01571c0,0 0,-0.5 0.5,-0.5c0.5,0 0.5,0.5 0.5,0.5c0,0.29082 -0.02025,0.58613 -0.0493,0.88192c0.83819,-0.10956 1.66402,-0.24037 2.35796,-0.59386c2.08438,-1.0618 3.17614,-3.56882 5.22843,-4.71076c-0.09607,-0.81822 -0.28408,-1.64878 -0.28709,-2.3273c0,0 0,-0.5 0.5,-0.5c0.5,0 0.5,0.5 0.5,0.5c-0.002,0.36976 0.0323,0.74789 0.07786,1.12973c0.93893,-2.25054 1.84901,-4.71861 2.28537,-7.11346c-0.25555,-0.10837 -0.5126,-0.20743 -0.77135,-0.29193c0,0 -0.47434,-0.15811 -0.31623,-0.63246c0.15811,-0.47434 0.63246,-0.31623 0.63246,-0.31623c0.21399,0.07256 0.42734,0.15318 0.63987,0.23995c0.16355,-0.81672 0.34976,-1.79265 0.12057,-2.5156c-0.23673,0 -0.46437,0 -0.66856,0c0,0 -0.5,0 -0.5,-0.5c0,-0.5 0.5,-0.5 0.5,-0.5c0.11704,0 0.23407,0 0.35111,0c-0.06958,-0.52215 -0.03256,-1.03261 -0.29833,-1.52639l-0.05279,-0.47361c0,0 0,-0.5 0.5,-0.5c0.5,0 0.5,0.5 0.5,0.5l-0.05279,0.02639c0.32217,0.67763 0.16669,1.3367 0.38064,1.97361c0.22405,0 0.44809,0 0.67214,0h0.25c0,0 0.5,0 0.5,0.5c0,0.5 -0.5,0.5 -0.5,0.5c-0.17389,0 -0.3648,0 -0.56384,0c0.09967,0.59896 -0.08413,1.07311 -0.19262,1.83009c-0.04921,0.34333 -0.10182,0.68803 -0.15826,1.03348c0.64272,0.30311 1.27555,0.64173 1.8931,0.96153l0.44213,0.65441c0,0 0.27049,0.42052 -0.15002,0.69101c-0.42052,0.27049 -0.69101,-0.15002 -0.69101,-0.15002l-0.26902,-0.45116c-0.46384,-0.22049 -0.93083,-0.46171 -1.4023,-0.68954c-0.54649,2.94327 -1.39765,5.89603 -2.80462,8.47377c-0.02578,0.01388 -0.05142,0.02792 -0.07693,0.04213c0.03969,0.71487 -0.01552,1.41768 -0.32941,2.07792l0.05279,0.02639c0,0 0,0.5 -0.5,0.5c-0.5,0 -0.5,-0.5 -0.5,-0.5l0.05279,-0.47361c0.15987,-0.29704 0.24176,-0.63125 0.27348,-0.98611c-1.71952,1.37657 -2.86791,3.4264 -4.88492,4.42165c-0.84189,0.41541 -1.85646,0.52401 -2.85465,0.65516c-0.05629,0.47753 -0.10193,0.94436 -0.08669,1.3829l-0.75,0.5c0,0 -0.5,0 -0.5,-0.5c0,-0.26366 0.13903,-0.38829 0.27047,-0.4472c0.01757,-0.26117 0.04375,-0.52167 0.07221,-0.78326c-0.51836,0.09851 -1.0137,0.23541 -1.45676,0.46163c-1.71003,0.14906 -3.32073,0.94987 -5.00079,1.45184c0.07809,0.09914 0.25413,0.38484 -0.03157,0.67054c-0.35355,0.35355 -0.70711,0 -0.70711,0l-0.34366,-0.37995c-0.00306,-0.00613 -0.00611,-0.01225 -0.00915,-0.01837c-0.071,0.01365 -0.14217,0.02644 -0.21354,0.03831c-2.09869,0.3489 -3.4731,-0.93629 -5.41018,-1.25c-0.81286,-0.13164 -1.50615,0.1324 -2.28479,-0.25692c-0.06997,0 -0.13965,-0.00154 -0.20905,-0.00457c0.02298,0.27522 0.04336,0.54921 0.05736,0.82252c0.13027,0.05962 0.26657,0.18438 0.26657,0.44543c0,0.5 -0.5,0.5 -0.5,0.5l-0.75,-0.5c0.01548,-0.44563 -0.01333,-0.92197 -0.05627,-1.41099c-2.16049,-0.53311 -4.01492,-2.42132 -5.50473,-4.19842c-0.46554,0.2189 -0.89823,0.40795 -0.99179,0.83302l-0.69721,0.27639c0,0 -0.5,0 -0.5,-0.5c0,-0.5 0.5,-0.5 0.5,-0.5l-0.10881,0.15249c0.3093,-0.38064 0.85134,-0.60039 1.30849,-0.85591c-0.20326,-0.25043 -0.39877,-0.4951 -0.58636,-0.72959c-0.82163,-1.02704 -2.068,-2.45454 -2.11333,-3.81699c0,-0.47489 -0.01827,-0.96375 -0.04571,-1.46199c-0.09438,0.13268 -0.18048,0.2771 -0.25707,0.4356l-0.34366,0.37995c0,0 -0.35355,0.35355 -0.70711,0c-0.35355,-0.35355 0,-0.70711 0,-0.70711l0.15634,-0.12005c0.28483,-0.55556 0.64581,-0.97637 1.06372,-1.32505c-0.104,-1.45366 -0.21745,-2.95049 -0.13149,-4.38506c-0.4237,0.08003 -0.78571,0.22674 -1.3269,0.40805c0,0 -0.47434,0.15811 -0.63246,-0.31623c-0.15811,-0.47434 0.31623,-0.63246 0.31623,-0.63246c0.66432,-0.22021 1.14875,-0.40359 1.74279,-0.48315c0.12122,-0.87346 0.33984,-1.71273 0.70676,-2.49214c0.02778,-0.06372 0.06845,-0.12053 0.11872,-0.16713c0.10498,-0.10496 0.28692,-0.20988 0.54585,-0.08897c0.01117,0.00506 0.02213,0.01052 0.03285,0.01636c0.25352,0.13427 0.27938,0.34293 0.25859,0.49025c-0.00727,0.07197 -0.02981,0.13943 -0.06432,0.1991c-0.31963,0.60245 -0.5216,1.27883 -0.64178,2.00002h0.20866c0,0 0.5,0 0.5,0.5z" fill="#660a0a" stroke="none" stroke-width="0.5" stroke-linecap="butt"/><path d="M202.52226,244.08044c-0.5,0 -0.5,-0.5 -0.5,-0.5l0.05279,-0.47361c0.37049,-0.74097 0.69497,-1.4851 1.04018,-2.22598c-0.92909,-0.88284 -2.25813,-1.24412 -3.42276,-1.81919c-0.05525,0.12983 -0.11592,0.25791 -0.18359,0.38365l0.01337,0.38513c0,0 0,0.5 -0.5,0.5c-0.5,0 -0.5,-0.5 -0.5,-0.5l0.01337,-0.61488c0.10484,-0.22051 0.19613,-0.44348 0.27885,-0.66784c-0.02843,-0.02024 -0.05663,-0.04079 -0.08458,-0.06166c-0.93254,-0.69627 -1.73968,-1.73056 -2.56119,-2.55207c0,0 -0.35356,-0.35355 0,-0.7071c0.35356,-0.35356 0.7071,0 0.7071,0c0.73563,0.73563 1.55968,1.31977 2.40618,1.85268c0.15241,-0.49926 0.31547,-0.99403 0.54306,-1.47273c0,0 0.2236,-0.44721 0.67082,-0.2236c0.44721,0.2236 0.2236,0.67082 0.2236,0.67082c-0.26226,0.48726 -0.41619,1.01934 -0.5642,1.55804c1.20013,0.71604 2.40005,1.39861 3.41674,2.32586c0.23632,-0.46453 0.49216,-0.92669 0.78422,-1.38486c0,0 0.27735,-0.41602 0.69338,-0.13867c0.41602,0.27735 0.13868,0.69337 0.13868,0.69337c-0.33696,0.47565 -0.63102,1.01272 -0.90332,1.57194c0.62894,0.7519 1.15124,1.62161 1.84085,2.29715c0.5921,0.60189 1.03151,1.73091 1.82531,2.1945c0.28206,-0.70774 0.595,-1.40392 0.57113,-2.09095c0,0 0,-0.5 0.5,-0.5c0.5,0 0.5,0.5 0.5,0.5c-0.01773,0.81473 -0.42645,1.5693 -0.7162,2.34302c1.11329,0.18124 2.31987,0.15597 3.4662,0.26137c0,-0.29953 0,-0.58701 0,-0.85439c0,0 0,-0.5 0.5,-0.5c0.5,0 0.5,0.5 0.5,0.5c0,0.33049 0,0.66096 0,0.99145c0.95826,0.18568 1.83581,0.54735 2.53038,1.30973c-0.029,0.31027 -0.04383,0.62465 -0.04383,0.9425c0,0.2389 0.00838,0.47585 0.02485,0.71056l-0.2086,-0.23062c-0.51424,-1.06411 -1.34162,-1.55502 -2.30279,-1.78629c0,0.68756 0,1.37513 0,2.06269v0.5c0,0 0,0.5 -0.5,0.5c-0.5,0 -0.5,-0.5 -0.5,-0.5c0,-0.79862 0,-1.77662 0,-2.71911c-1.24005,-0.11184 -2.58723,0.00083 -3.72908,-0.20837c-0.01804,0.14075 -0.02593,0.2831 -0.02092,0.42748l-0.39644,0.60355c0,0 -0.35355,0.35356 -0.7071,0c-0.35356,-0.35356 0,-0.7071 0,-0.7071l0.10355,0.10356c0.00526,-0.24161 0.04524,-0.48175 0.10645,-0.72048c-1.00266,-0.53376 -1.42017,-1.65224 -2.20999,-2.42597c-0.59274,-0.60254 -1.06632,-1.33315 -1.59519,-2.00417c-0.28648,0.64472 -0.56106,1.28826 -0.85405,1.87423l0.05279,0.0264c0,0 0,0.5 -0.5,0.5z" fill="#990f0f" stroke="none" stroke-width="0.5" stroke-linecap="butt"/><path d="M280.36343,187.15211c-0.5,0 -0.5,-0.5 -0.5,-0.5v-0.25c0,-1.03073 -0.12181,-1.86095 -0.37191,-2.61611c-0.86183,0.73135 -1.86919,1.36569 -2.78855,2.03579c0.46611,0.66959 0.86253,1.36693 1.14708,1.96544l0.01337,0.61488c0,0 0,0.5 -0.5,0.5c-0.5,0 -0.5,-0.5 -0.5,-0.5l0.01338,-0.38513c-0.23136,-0.42987 -0.56693,-1.01231 -0.95711,-1.59054c-0.5512,0.45714 -1.03606,0.94595 -1.39024,1.50301c-0.34656,0.51697 -0.68382,1.11528 -1.04415,1.71514c0.22819,0.4849 0.36695,0.99388 0.37812,1.50751v0.25c0,0 0,0.5 -0.5,0.5c-0.5,0 -0.5,-0.5 -0.5,-0.5v-0.25c0.00527,-0.15157 -0.01028,-0.30719 -0.04367,-0.46479c-0.55169,0.79466 -1.18398,1.5025 -1.98272,1.912l-0.5,0.25c0,0 -0.17907,0.08953 -0.36724,0.04198c-0.02713,-0.30787 -0.06821,-0.61174 -0.1226,-0.91096c0.02567,-0.01696 0.04263,-0.02545 0.04263,-0.02545l0.5,-0.25c0.78969,-0.38163 1.42228,-1.19753 1.97328,-2.07841c-0.55933,-0.88899 -1.48289,-1.69227 -2.22328,-2.02716c0,0 -0.44721,-0.2236 -0.22361,-0.67082c0.22361,-0.44721 0.67082,-0.22361 0.67082,-0.22361c0.82986,0.44053 1.69251,1.15019 2.32432,1.99484c0.27438,-0.48043 0.53232,-0.94203 0.78604,-1.32498c0.39188,-0.5676 1.01307,-1.10257 1.72617,-1.63638c-0.49062,-0.63225 -1.02708,-1.17499 -1.53375,-1.38905c0,0 -0.44721,-0.2236 -0.22361,-0.67082c0.22361,-0.44721 0.67082,-0.22361 0.67082,-0.22361c0.65659,0.35819 1.3031,0.98995 1.87827,1.7114c1.0034,-0.70787 2.08137,-1.43324 2.9192,-2.24817c-0.3904,-0.79232 -0.9413,-1.5534 -1.66151,-2.45366c0,0 -0.31235,-0.39043 0.07809,-0.70279c0.39044,-0.31235 0.70278,0.07809 0.70278,0.07809c0.65422,0.81777 1.18262,1.54619 1.58836,2.28294c0.49719,-0.66536 0.79987,-1.39511 0.77121,-2.2206c0,0 0,-0.5 0.5,-0.5c0.5,0 0.5,0.5 0.5,0.5c-0.02822,1.29733 -0.56133,2.29215 -1.33501,3.13472c0.39221,0.97395 0.58501,2.02716 0.58501,3.36528v0.25c0,0 0,0.5 -0.5,0.5z" fill="#990f0f" stroke="none" stroke-width="0.5" stroke-linecap="butt"/><path d="M233.50879,226.44992c0,0 4.78181,-2.83333 8,-2.83333c3.21819,0 7.5,2.83333 7.5,2.83333c0,0 -4.56653,-1.08333 -7.5,-1.08333c-2.93347,0 -8,1.08333 -8,1.08333z" fill="#660a0a" stroke="#000000" stroke-width="0" stroke-linecap="round"/><g><path d="M207.71283,115.20177c-0.57709,-7.29323 0.335,-17.15448 0.335,-17.15448c0,0 3.41059,-0.04124 13.91429,-3.14424c8.0696,-2.38394 20.54731,-9.48722 20.54731,-9.48722c0,0 -2.16005,3.00503 -3.40781,4.46015c-1.32651,1.54696 -3.99292,4.56297 -3.99292,4.56297c0,0 7.838,-1.66761 14.67476,-4.72931c8.56837,-3.53575 10.59252,-6.05309 12.95042,-4.5927c2.7829,1.72362 1.03006,23.1827 0.71846,28.74062c-0.42163,5.66922 -2.53327,9.49969 -3.15031,12.52053c-0.61704,3.02084 -0.4096,6.13662 -2.20622,16.0397c-1.12121,6.18021 -4.16183,8.92466 -10.01942,14.66081c-5.85759,5.73616 -9.05378,9.25275 -13.01359,9.32173c-3.81077,0.06639 -8.93565,-5.1002 -13.93542,-10.38244c-5.32393,-5.62474 -8.87489,-8.47713 -9.71551,-15.13975c-0.75707,-6.00039 -0.77653,-9.90853 -1.12266,-15.24835c-0.25298,-3.90273 -2.26119,-6.44504 -2.57636,-10.42801z" fill="#ffffff" stroke="#000000" stroke-width="1.5" stroke-linecap="butt"/><path d="M255.78283,100.08141c0,0 1.52429,0.31807 4.2558,1.11029c2.49492,0.72361 4.44935,1.74403 4.44935,1.74403l0.1951,1.17035c0,0 -7.24963,-3.12997 -15.1158,-2.4706c-6.2896,0.52724 -9.96319,2.8124 -9.96319,2.8124l0.04575,-4.17683c0,0 3.12748,-1.70421 7.86366,-1.85557c4.90428,-0.15672 8.09084,0.59125 8.09084,0.59125z" data-paper-data="{&quot;index&quot;:null}" fill="#000000" stroke="none" stroke-width="1.5" stroke-linecap="butt"/><path d="M243.0187,143.06895c0.5704,0.21186 3.08357,1.39942 6.02385,2.59586c2.9637,1.20597 7.21362,2.29294 7.19412,2.4605c-0.02476,0.21265 -10.43477,0.22694 -13.67937,0.63224c-2.71902,0.33964 -6.68867,0.70564 -6.68867,0.70564c0,0 -7.10401,-1.16169 -13.27235,-2.44521c-4.94371,-1.02869 -10.39929,-1.66108 -10.40995,-1.75461c-0.01439,-0.12613 3.86835,-0.71071 6.82417,-1.39467c1.14585,-0.49661 5.43971,-1.48513 5.43971,-1.48513c0,0 4.95585,-0.27766 7.60826,0.579c2.84203,0.91791 2.83546,2.44556 3.0831,2.46906c0,0 1.18436,-1.74932 2.36886,-2.10461c1.18451,-0.35528 5.08219,-0.41633 5.50828,-0.25808z" fill="#b3b3b3" stroke="#000000" stroke-width="1.4" stroke-linecap="butt"/><path d="M224.37071,147.6225c5.09114,1.02674 11.91756,2.80736 11.91756,2.80736c0,0 5.78976,-1.55585 8.44678,-1.8344c2.05992,-0.21596 11.216,-0.70654 11.26026,-0.33377c0.04328,0.36447 -9.03119,12.90033 -21.14808,12.44714c-13.76954,-0.43578 -22.86459,-15.13559 -22.82675,-15.30472c0.03784,-0.16913 7.2591,1.19165 12.35024,2.2184z" fill="#b3b3b3" stroke="#000000" stroke-width="1.9" stroke-linecap="butt"/><path d="M235.34499,144.62885c-1.03376,0 -3.5381,-3.26042 -3.7867,-5.3637c-0.22243,-1.88186 1.31512,-3.82799 3.7867,-3.82799c2.47159,0 4.2021,0.49077 4.02999,4.18853c-0.14607,3.13818 -1.55841,5.00317 -4.02999,5.00317z" fill="#b3b3b3" stroke="#000000" stroke-width="1.15" stroke-linecap="butt"/><path d="M238.94708,114.53514c0,0 0.1026,3.96976 0.00576,7.12662c-0.19174,6.25113 -1.08147,27.7607 -1.08147,27.7607l-2.98167,0.00864c0,0 -0.80294,-4.17274 -1.12322,-9.49979c-0.43353,-7.21063 -0.4495,-16.29321 -0.76344,-19.63229c-0.29758,-3.16513 -0.89593,-5.71453 -0.89593,-5.71453" fill="#b3b3b3" stroke="#000000" stroke-width="1.3" stroke-linecap="round"/><path d="M209.41249,125.32499c0,0 -4.93211,-3.51705 -6.16417,-8.97502c-1.29636,-5.74284 -1.46118,-9.7328 0.48013,-9.99193c1.94131,-0.25915 2.70321,2.37692 3.73262,8.35569c1.0294,5.97877 1.95143,10.61127 1.95143,10.61127z" data-paper-data="{&quot;index&quot;:null}" fill="#ffffff" stroke="#000000" stroke-width="1" stroke-linecap="butt"/><path d="M209.20988,121.37743c0,0 -3.56385,-2.92338 -4.31816,-8.45061c-0.42079,-3.08327 2.15675,-2.28016 2.15675,-2.28016" fill="none" stroke="#000000" stroke-width="0.25" stroke-linecap="round"/><path d="M212.2233,114.72153c0.07093,-4.89188 4.83834,-8.93609 10.21137,-8.8582c5.37302,0.0779 9.02724,4.2484 8.95632,9.14029c-0.07093,4.89188 -4.12352,8.79439 -9.49655,8.7165c-5.37302,-0.0779 -9.74207,-4.1067 -9.67114,-8.99859z" fill="#ffffff" stroke="#000000" stroke-width="1.4" stroke-linecap="butt"/><path d="M216.66094,114.83946c0.03999,-2.75843 2.30855,-4.96213 5.06696,-4.92214c2.75843,0.03999 4.96213,2.30855 4.92214,5.06696c-0.03999,2.75843 -2.30854,4.96213 -5.06696,4.92214c-2.75843,-0.03999 -4.96213,-2.30855 -4.92214,-5.06696z" fill="#000000" stroke="none" stroke-width="1.5" stroke-linecap="butt"/><path d="M239.27958,114.72225c0.20353,-4.88817 4.45264,-8.85847 9.77048,-8.85847c5.31783,0 9.27453,3.96607 9.27453,8.85847c0,4.8924 -3.88585,9.07104 -9.69964,9.14188c-5.52997,0.06739 -9.55792,-4.03692 -9.34537,-9.14188z" fill="#ffffff" stroke="#000000" stroke-width="1.4" stroke-linecap="butt"/><path d="M243.88233,114.80781c0,-2.81845 2.2848,-5.10325 5.10325,-5.10325c2.81845,0 5.10325,2.2848 5.10325,5.10325c0,2.81845 -2.28479,5.10325 -5.10325,5.10325c-2.81845,0 -5.10325,-2.2848 -5.10325,-5.10325z" fill="#000000" stroke="none" stroke-width="1.5" stroke-linecap="butt"/><path d="M212.15487,114.18935c0,0 0.06357,-9.01512 10.60111,-8.8249c9.47101,0.16586 9.55554,9.40723 9.55554,9.40723z" fill="#ffffff" stroke="#000000" stroke-width="1.15" stroke-linecap="butt"/><path d="M238.90193,114.32024c0,0 -0.24686,-9.4582 11.19813,-9.1032c9.71427,0.33347 9.54677,9.65229 9.54677,9.65229z" fill="#ffffff" stroke="#000000" stroke-width="1.15" stroke-linecap="butt"/><path d="M215.68471,104.17768c0,0 3.36963,-1.819 8.03244,-2.28178c5.16698,-0.51283 7.76823,-0.06628 7.76823,-0.06628l0.29508,4.13747c0,0 -3.83554,-0.68065 -8.01795,-0.52113c-5.59346,0.21333 -6.64488,1.43293 -10.89774,1.89119c-3.64408,0.39266 -6.73723,0.15884 -6.73723,0.15884l-0.02589,-1.23155c0,0 3.59517,0.07398 5.23371,-0.06836c1.35239,-0.11749 3.9757,-0.93808 3.9757,-0.93808z" fill="#000000" stroke="none" stroke-width="1.5" stroke-linecap="butt"/><path d="M263.64564,114.71373c1.0294,-5.97877 1.7913,-8.61483 3.73262,-8.35569c1.94131,0.25914 1.77649,4.24909 0.48013,9.99193c-1.23206,5.45797 -6.16417,8.97502 -6.16417,8.97502c0,0 0.92203,-4.6325 1.95143,-10.61127z" data-paper-data="{&quot;index&quot;:null}" fill="#ffffff" stroke="#000000" stroke-width="1" stroke-linecap="butt"/><path d="M264.05818,110.64667c0,0 2.57754,-0.80312 2.15675,2.28016c-0.75431,5.52723 -4.31816,8.45061 -4.31816,8.45061" data-paper-data="{&quot;index&quot;:null}" fill="none" stroke="#000000" stroke-width="0.25" stroke-linecap="round"/><path d="M211.83922,115.32653l-3,-1.5h3z" fill="#000000" stroke="#000000" stroke-width="0" stroke-linecap="round"/><path d="M258.93922,114.99319h3.4l-3.4,1.5z" data-paper-data="{&quot;index&quot;:null}" fill="#000000" stroke="#000000" stroke-width="0" stroke-linecap="round"/><path d="M223.26848,155.64452c0,0 -0.90418,-0.59204 -1.90953,-1.37467c-1.47119,-1.14527 -3.17672,-2.69867 -3.88358,-3.40216c-1.3003,-1.29411 -3.58189,-4.18745 -3.58189,-4.18745c0,0 8.80374,1.61158 12.74707,2.46979c3.5437,0.77123 9.59239,2.32145 9.59239,2.32145c0,0 5.11369,-1.38151 7.97482,-1.78504c3.12197,-0.44033 10.29287,-0.63119 10.29287,-0.63119c0,0 -2.31049,2.53037 -3.30265,3.42364c-0.32305,0.29085 -1.2701,1.13084 -2.24982,1.88929c-0.95514,0.73943 -1.94753,1.40135 -1.94753,1.40135z" fill="#b3b3b3" stroke="none" stroke-width="0" stroke-linecap="butt"/></g><path d="M254.90371,300.14148c0,0.5 -0.5,0.5 -0.5,0.5l-0.62833,-0.01675c-0.22851,-0.12567 -0.47204,-0.2565 -0.71961,-0.39536c-0.0893,1.63819 -0.15205,3.27669 -0.15205,4.91211c0,0 0,0.5 -0.5,0.5c-0.5,0 -0.5,-0.5 -0.5,-0.5c0,-1.82198 0.09431,-3.65215 0.21631,-5.48273c-0.9096,-0.61975 -1.67936,-1.40675 -1.71631,-2.51727c0,0 0,-0.5 0.5,-0.5c0.5,0 0.5,0.5 0.5,0.5c-0.03104,0.51367 0.32214,0.96965 0.7964,1.36142c0.15659,-2.1931 0.33278,-4.38443 0.41394,-6.56063c-0.55246,0.14932 -1.06464,0.35428 -1.43299,0.61523c0,0 -0.41602,0.27735 -0.69337,-0.13868c-0.27735,-0.41602 0.13867,-0.69338 0.13867,-0.69338c0.55955,-0.35668 1.27393,-0.6213 2.01829,-0.79982c0.01526,-0.67987 0.01946,-1.35806 0.00906,-2.03415c0,-1.62085 -0.06475,-3.23295 -0.12834,-4.84243c-0.74614,-0.36752 -1.46772,-0.78837 -2.14901,-1.24154c0,0 -0.41602,-0.27735 -0.13867,-0.69338c0.27735,-0.41602 0.69337,-0.13868 0.69337,-0.13868c0.49516,0.3309 1.01451,0.64448 1.5502,0.93035c-0.04322,-1.17127 -0.07754,-2.34193 -0.07754,-3.51432c0,-0.6427 -0.33745,-2.97681 0.09438,-3.54236c0.58448,-0.76547 2.71957,-0.7069 3.59453,-0.70389c0.3725,-0.09459 0.73909,-0.19434 1.10071,-0.2991c-0.02691,-0.32081 -0.03962,-0.64044 -0.03962,-0.95465c0,0 0,-0.5 0.5,-0.5c0.5,0 0.5,0.5 0.5,0.5c0,0.2128 0.0051,0.43255 0.01686,0.65586c1.27441,-0.41017 2.49511,-0.88331 3.70584,-1.41146c-0.07876,-0.49494 -0.21714,-0.99498 -0.2227,-1.49439c0,0 0,-0.5 0.5,-0.5c0.5,0 0.5,0.5 0.5,0.5c-0.00603,0.39258 0.04364,0.75385 0.09761,1.10275c0.72294,-0.33155 1.44608,-0.68211 2.17879,-1.04996l0.12005,-0.15634c0,0 0.35356,-0.35355 0.70711,0c0.35355,0.35355 0,0.70711 0,0.70711l-0.37995,0.34366c-0.84202,0.41908 -1.67169,0.81776 -2.50236,1.19248c0.01277,0.42264 -0.04657,0.85549 -0.27403,1.33391l0.05279,0.02639c0,0 0,0.5 -0.5,0.5c-0.5,0 -0.5,-0.5 -0.5,-0.5l0.05278,-0.47361c0.07994,-0.14853 0.13467,-0.29811 0.16995,-0.4486c-1.17602,0.50079 -2.36466,0.95108 -3.60336,1.34092c0.10273,0.66095 0.28231,1.30858 0.57784,1.85768l0.05279,0.47361c0,0 0,0.5 -0.5,0.5c-0.5,0 -0.5,-0.5 -0.5,-0.5l0.05278,-0.02639c-0.29845,-0.62774 -0.50367,-1.31673 -0.63188,-2.02133c-0.3647,0.1033 -0.73434,0.20137 -1.10982,0.29397c-0.46982,0.00151 -2.65282,-0.05937 -2.90547,0.2961c-0.23689,0.3333 0.09438,2.52986 0.09438,2.95765c0,1.33893 0.04478,2.67588 0.09645,4.01412c0.4315,0.19297 0.86998,0.36512 1.31167,0.51154l0.44544,0.37079c0,0 0.35356,0.35355 0,0.70711c-0.35356,0.35355 -0.70711,0 -0.70711,0l-0.05456,-0.12921c-0.31958,-0.10706 -0.63729,-0.22622 -0.95205,-0.356c0.05718,1.45653 0.11016,2.91568 0.11016,4.38166c-0.00686,0.61599 -0.02201,1.23316 -0.04348,1.85132c0.44871,-0.06347 0.88889,-0.09682 1.29348,-0.10132l0.60356,0.39645c0,0 0.35356,0.35355 0,0.70711c-0.35356,0.35355 -0.70711,0 -0.70711,0l0.10356,-0.10355c-0.3894,-0.00599 -0.85482,0.02758 -1.33333,0.10091c-0.10966,2.45315 -0.30144,4.92029 -0.45124,7.38984c0.34415,0.20517 0.67312,0.38111 0.9129,0.52599l0.37167,-0.01675c0,0 0.5,0 0.5,0.5z" fill="#660a0a" stroke="none" stroke-width="0.5" stroke-linecap="butt"/><path d="M228.65546,180.62188c0.44721,0.2236 0.2236,0.67082 0.2236,0.67082l-0.25,0.5c-0.12283,0.24565 -0.23786,0.49371 -0.34923,0.74275c0.97233,-0.23695 1.91115,-0.53557 2.78715,-0.95298c1.16235,-0.02528 4.57298,-0.58328 5.46843,0.13307c0.13062,0.10449 0.1966,0.25025 0.2202,0.41709c0.26689,-0.12279 0.53195,-0.25814 0.79539,-0.41046l0.79566,-0.14576c0,0 0.49269,-0.0852 0.57789,0.40749c0.0852,0.49268 -0.40749,0.57789 -0.40749,0.57789l-0.62232,0.09945c-0.44519,0.26538 -0.89931,0.47837 -1.36097,0.6622c-0.04853,0.14273 -0.09202,0.26749 -0.11529,0.36054c-0.52082,2.0829 -0.74016,4.52522 -1.63942,6.53985c0.12205,0.03922 0.24732,0.08669 0.37641,0.14807l0.5,0.25c0,0 0.44721,0.2236 0.2236,0.67082c-0.2236,0.44721 -0.67082,0.22361 -0.67082,0.22361l-0.5,-0.25c-0.11184,-0.06019 -0.22167,-0.11023 -0.3299,-0.15347c-0.46536,1.20322 -0.72574,2.75044 -1.07893,4.21489c0.59503,0.17174 1.19422,0.24137 1.88244,0.24137h0.25c0,0 0.5,0 0.5,0.5c0,0.5 -0.5,0.5 -0.5,0.5h-0.25c-0.77412,0 -1.45975,-0.08338 -2.13653,-0.27651c-0.33845,1.16196 -0.78574,2.20226 -1.50993,2.88006c-0.18567,0.17378 -0.4703,0.32173 -0.81539,0.44992c0.0482,0.0617 0.09562,0.12549 0.14208,0.19178l0.26698,0.53114c0,0 0.22361,0.44722 -0.2236,0.67082c-0.44721,0.2236 -0.67082,-0.22361 -0.67082,-0.22361l-0.23303,-0.46886c-0.09899,-0.14536 -0.2035,-0.27827 -0.31153,-0.40356c-1.20728,0.2804 -2.63105,0.44278 -3.36912,0.62908c-0.85022,0.2807 -1.70029,0.52716 -2.55025,0.75653c-0.21177,0.59802 -0.38231,1.21444 -0.5952,1.84259l0.00635,0.42062c0,0 0,0.5 -0.5,0.5c-0.5,0 -0.5,-0.5 -0.5,-0.5l0.00634,-0.57938c0.15171,-0.47027 0.28751,-0.93089 0.43197,-1.3822c-1.74224,0.4457 -3.48421,0.85199 -5.2265,1.36635c-0.55156,0.16284 -1.25214,0.69761 -1.92597,0.93473c-0.12085,0.21202 -0.23412,0.42413 -0.33863,0.63411l-0.25,0.5c0,0 -0.2236,0.44721 -0.67082,0.22361c-0.44721,-0.2236 -0.2236,-0.67082 -0.2236,-0.67082l0.25,-0.5c0.03559,-0.07089 0.07201,-0.1418 0.10924,-0.21268c-0.11832,-0.06983 -0.23127,-0.16824 -0.33736,-0.30085c-0.58537,-0.73172 -0.0745,-3.85802 -0.07297,-4.72162c-0.12838,-0.75376 -0.19786,-1.5267 -0.21434,-2.30647c-0.41076,-0.13367 -0.8159,-0.31502 -1.26098,-0.53756c0,0 -0.44721,-0.22361 -0.2236,-0.67082c0.2236,-0.44721 0.67082,-0.22361 0.67082,-0.22361c0.29429,0.14714 0.5614,0.27325 0.82317,0.37613c0.05961,-1.55507 0.31759,-3.11514 0.72773,-4.58354c0.3979,-1.42455 1.10664,-2.73571 1.37201,-4.17103c-0.10984,-0.08376 -0.23157,-0.16017 -0.37013,-0.22713c0,0 -0.44721,-0.22361 -0.2236,-0.67082c0.2236,-0.44721 0.67082,-0.22361 0.67082,-0.22361c0.00906,0.00465 0.01807,0.00932 0.02701,0.01401c-0.00007,-0.02222 -0.00027,-0.04449 -0.00061,-0.0668c0,0 0,-0.5 0.5,-0.5c0.5,0 0.5,0.5 0.5,0.5c-0.00202,0.18122 -0.00824,0.36118 -0.01829,0.54c0.61602,-0.40075 1.11906,-0.89678 1.79861,-1.23916c0.47646,-0.24006 0.97119,-0.44345 1.4795,-0.61928c0.0303,-0.38626 0.10772,-0.76553 0.29296,-1.15517c0,0 0.2236,-0.44721 0.67082,-0.22361c0.44721,0.2236 0.2236,0.67082 0.2236,0.67082c-0.06785,0.12606 -0.11621,0.25616 -0.15023,0.38931c1.88643,-0.51451 3.90825,-0.7512 5.84807,-1.13381c0.21018,-0.48666 0.41892,-0.97508 0.65774,-1.45271l0.25,-0.5c0,0 0.2236,-0.44721 0.67082,-0.22361zM227.37907,184.5427c0,0 -0.2236,0.44721 -0.67082,0.22361c-0.44721,-0.2236 -0.2236,-0.67082 -0.2236,-0.67082c0.01905,-0.03787 0.0379,-0.07582 0.05658,-0.11384c-1.802,0.31216 -3.66062,0.53121 -5.37707,1.02389c0.00786,0.18786 0.0177,0.3765 0.0177,0.56356v0.25c0,0 0,0.5 -0.5,0.5c-0.5,0 -0.5,-0.5 -0.5,-0.5v-0.25c0,-0.08169 -0.00073,-0.16242 -0.00174,-0.24229c-0.35168,0.13037 -0.69518,0.27634 -1.02858,0.44145c-0.66125,0.32745 -1.17366,0.83043 -1.78768,1.23233c0.12779,0.15469 0.26419,0.3108 0.42155,0.46496l0.25,0.25c0,0 0.35356,0.35356 0,0.70711c-0.35356,0.35356 -0.7071,0 -0.7071,0l-0.25,-0.25c-0.13411,-0.13632 -0.2505,-0.27638 -0.35936,-0.41587c-0.47517,2.71984 -1.59918,5.24604 -1.87199,8.02961c0.18309,0.02162 0.3762,0.03271 0.5849,0.03271h0.25c0,0 0.5,0 0.5,0.5c0,0.5 -0.5,0.5 -0.5,0.5h-0.25c-0.22621,0 -0.43931,-0.01144 -0.64349,-0.03373c-0.01146,0.64643 0.02998,1.30884 0.14178,1.99248c0.00229,1.39604 -0.07054,2.83102 -0.07291,4.20988c0.5684,-0.91381 1.25032,-1.78953 1.97106,-2.52219c0,0 0.35355,-0.35356 0.7071,0c0.35356,0.35356 0,0.70711 0,0.70711c-0.31933,0.31282 -0.63107,0.6647 -0.92674,1.03968c0.76765,-0.29815 1.59604,-0.52596 2.36932,-0.74679c1.34199,-0.38324 2.70039,-0.68968 4.06088,-1.02911c0.1954,-0.47555 0.42703,-0.9403 0.72697,-1.39469c0,0 0.27735,-0.41603 0.69338,-0.13868c0.41602,0.27735 0.13868,0.69338 0.13868,0.69338c-0.11453,0.16985 -0.21749,0.34202 -0.31127,0.51635c0.58619,-0.15937 1.17195,-0.33109 1.75615,-0.52396c0.44026,-0.10893 1.71809,-0.27387 2.84988,-0.49254c-0.21852,-0.22426 -0.4323,-0.46265 -0.6268,-0.74985c0,0 -0.27735,-0.41602 0.13868,-0.69338c0.41602,-0.27735 0.69338,0.13868 0.69338,0.13868c0.27166,0.41535 0.58737,0.73188 0.90538,1.05017c0.40402,-0.11492 0.70846,-0.24045 0.82504,-0.37638c0.57551,-0.67103 0.95623,-1.55451 1.25267,-2.52413c-0.12316,-0.05438 -0.24724,-0.1127 -0.37273,-0.1751c0,0 -0.44721,-0.22361 -0.2236,-0.67082c0.2236,-0.44721 0.67082,-0.22361 0.67082,-0.22361c0.06497,0.03268 0.1294,0.06403 0.19339,0.09408c0.35281,-1.41143 0.61212,-2.90987 1.07724,-4.15311c-0.36559,-0.11808 -0.72558,-0.27991 -1.09779,-0.6402c0,0 -0.35356,-0.35356 0,-0.70711c0.35356,-0.35356 0.7071,0 0.7071,0c0.25173,0.26336 0.50438,0.40123 0.76618,0.49326c0.66439,-1.39983 0.79225,-3.005 1.14246,-4.4994c0.13889,-0.59268 0.28829,-1.16388 0.43112,-1.72708c-0.58613,0.18765 -1.18207,0.35997 -1.78519,0.56112c0,0 -0.47434,0.15812 -0.63246,-0.31623c-0.15812,-0.47434 0.31623,-0.63245 0.31623,-0.63245c0.9124,-0.30399 1.79646,-0.54665 2.65952,-0.87098c-0.01162,-0.03258 -0.04418,-0.05112 -0.10496,-0.05112c-1.46427,0 -3.02077,0.18554 -4.53157,0.13307c-1.08358,0.57645 -2.29048,0.93114 -3.54883,1.19665c-0.11782,0.26546 -0.23909,0.52947 -0.36883,0.79033z" fill="#660a0a" stroke="none" stroke-width="0.5" stroke-linecap="butt"/><g stroke-width="0" stroke-linecap="butt"><path d="M188.9372,145.02471l2.51659,-21.88604l-0.71593,-0.03537l7.28286,-57.17316c0,0 0.5253,-5.36816 3.67492,-7.67152c3.14962,-2.30336 8.89406,-1.52033 8.89406,-1.52033l50.99202,3.23827c0,0 5.79734,-0.05007 8.63029,2.63322c2.83295,2.68329 2.67495,8.07478 2.67495,8.07478l-0.05779,57.44967l-0.73212,-0.05463l-0.09812,22.21998z" data-paper-data="{&quot;index&quot;:null}" fill="#808080" stroke="#000000"/><path d="M210.95558,124.24716l5.90961,-66.75968l35.26231,2.23935l-1.91767,67.01319z" fill="#878787" stroke="none"/><path d="M189.06182,145.16621l2.51658,-21.88604l80.64327,4.94093l-0.09812,22.21998z" data-paper-data="{&quot;index&quot;:null}" fill="#757575" stroke="#000000"/><g fill="#8b8b8b" stroke="none"><path d="M228.57219,95.27c-0.10005,1.57553 -1.09771,2.79455 -2.22832,2.72275c-1.13061,-0.0718 -1.96605,-1.40723 -1.86599,-2.98276c0.10005,-1.57553 1.09771,-2.79454 2.22832,-2.72274c1.13061,0.0718 1.96605,1.40722 1.86599,2.98275z"/><path d="M238.06467,95.87283c-0.10005,1.57553 -1.09771,2.79454 -2.22832,2.72274c-1.13061,-0.0718 -1.96606,-1.40722 -1.866,-2.98275c0.10005,-1.57553 1.09772,-2.79454 2.22833,-2.72274c1.13061,0.0718 1.96605,1.40722 1.86599,2.98275z"/><path d="M247.78867,96.49036c-0.10005,1.57553 -1.09771,2.79454 -2.22833,2.72274c-1.13061,-0.0718 -1.96606,-1.40722 -1.866,-2.98275c0.10005,-1.57553 1.09771,-2.79454 2.22833,-2.72274c1.13061,0.0718 1.96606,1.40722 1.866,2.98275z"/><path d="M201.02086,93.52035c-0.10005,1.57553 -1.09771,2.79454 -2.22833,2.72274c-1.13061,-0.0718 -1.96606,-1.40722 -1.866,-2.98275c0.10005,-1.57553 1.09771,-2.79454 2.22833,-2.72274c1.13061,0.0718 1.96606,1.40722 1.866,2.98275z"/><path d="M210.51333,94.12317c-0.10005,1.57553 -1.09771,2.79454 -2.22832,2.72274c-1.13061,-0.0718 -1.96606,-1.40722 -1.866,-2.98275c0.10005,-1.57553 1.09771,-2.79454 2.22833,-2.72274c1.13061,0.0718 1.96605,1.40722 1.86599,2.98275z"/><path d="M220.23733,94.7407c-0.10005,1.57553 -1.09771,2.79454 -2.22832,2.72274c-1.13061,-0.0718 -1.96606,-1.40722 -1.866,-2.98275c0.10005,-1.57553 1.09772,-2.79454 2.22833,-2.72274c1.13061,0.0718 1.96605,1.40722 1.86599,2.98275z"/><path d="M256.81809,97.06377c-0.10005,1.57553 -1.0977,2.79454 -2.22832,2.72274c-1.13062,-0.0718 -1.96606,-1.40722 -1.866,-2.98275c0.10005,-1.57553 1.09771,-2.79454 2.22833,-2.72274c1.13062,0.0718 1.96605,1.40722 1.86599,2.98275z"/><path d="M266.54211,97.6813c-0.10005,1.57553 -1.09771,2.79454 -2.22832,2.72274c-1.13062,-0.0718 -1.96606,-1.40722 -1.866,-2.98275c0.10005,-1.57553 1.09771,-2.79454 2.22833,-2.72274c1.13062,0.0718 1.96605,1.40722 1.86599,2.98275z"/><path d="M232.79505,101.98273c-0.10005,1.57553 -1.09771,2.79455 -2.22832,2.72275c-1.13061,-0.0718 -1.96605,-1.40723 -1.86599,-2.98276c0.10005,-1.57553 1.09771,-2.79454 2.22832,-2.72274c1.13061,0.0718 1.96605,1.40722 1.86599,2.98275z"/><path d="M242.28753,102.58555c-0.10005,1.57553 -1.09771,2.79455 -2.22833,2.72275c-1.13061,-0.0718 -1.96605,-1.40723 -1.86599,-2.98276c0.10005,-1.57553 1.09771,-2.79454 2.22832,-2.72274c1.13061,0.0718 1.96606,1.40722 1.866,2.98275z"/><path d="M252.01154,103.20308c-0.10005,1.57553 -1.09771,2.79455 -2.22833,2.72275c-1.13061,-0.0718 -1.96605,-1.40723 -1.86599,-2.98276c0.10005,-1.57553 1.09771,-2.79454 2.22832,-2.72274c1.13062,0.0718 1.96606,1.40722 1.866,2.98275z"/><path d="M205.24371,100.23307c-0.10005,1.57553 -1.09771,2.79455 -2.22833,2.72275c-1.13061,-0.0718 -1.96606,-1.40723 -1.866,-2.98276c0.10005,-1.57553 1.09771,-2.79454 2.22833,-2.72274c1.13061,0.0718 1.96606,1.40722 1.866,2.98275z"/><path d="M214.73619,100.83589c-0.10005,1.57553 -1.09771,2.79455 -2.22832,2.72275c-1.13061,-0.0718 -1.96606,-1.40723 -1.866,-2.98276c0.10005,-1.57553 1.09772,-2.79454 2.22833,-2.72274c1.13061,0.0718 1.96605,1.40722 1.86599,2.98275z"/><path d="M224.46019,101.45342c-0.10005,1.57553 -1.09771,2.79455 -2.22832,2.72275c-1.13061,-0.0718 -1.96606,-1.40723 -1.866,-2.98276c0.10005,-1.57553 1.09772,-2.79454 2.22833,-2.72274c1.13061,0.0718 1.96605,1.40722 1.86599,2.98275z"/><path d="M261.04097,103.77649c-0.10005,1.57553 -1.0977,2.79455 -2.22832,2.72275c-1.13062,-0.0718 -1.96606,-1.40723 -1.866,-2.98276c0.10005,-1.57553 1.09772,-2.79454 2.22833,-2.72274c1.13062,0.0718 1.96605,1.40722 1.86599,2.98275z"/><path d="M270.76495,104.39402c-0.10005,1.57553 -1.09771,2.79455 -2.22832,2.72275c-1.13062,-0.0718 -1.96606,-1.40723 -1.866,-2.98276c0.10005,-1.57553 1.09771,-2.79454 2.22833,-2.72274c1.13062,0.0718 1.96605,1.40722 1.86599,2.98275z"/><path d="M227.78714,107.63189c-0.10005,1.57553 -1.09771,2.79454 -2.22832,2.72274c-1.13061,-0.0718 -1.96606,-1.40722 -1.866,-2.98275c0.10005,-1.57553 1.09771,-2.79454 2.22833,-2.72274c1.13061,0.0718 1.96605,1.40722 1.86599,2.98275z"/><path d="M237.27963,108.23472c-0.10005,1.57553 -1.09771,2.79454 -2.22832,2.72274c-1.13061,-0.0718 -1.96606,-1.40722 -1.866,-2.98275c0.10005,-1.57553 1.09772,-2.79454 2.22833,-2.72274c1.13061,0.0718 1.96605,1.40722 1.86599,2.98275z"/><path d="M247.00363,108.85224c-0.10005,1.57553 -1.09771,2.79454 -2.22833,2.72274c-1.13061,-0.0718 -1.96606,-1.40722 -1.866,-2.98275c0.10005,-1.57553 1.09771,-2.79454 2.22833,-2.72274c1.13061,0.0718 1.96606,1.40722 1.866,2.98275z"/><path d="M200.23581,105.88224c-0.10005,1.57553 -1.09771,2.79454 -2.22833,2.72274c-1.13061,-0.0718 -1.96606,-1.40722 -1.866,-2.98275c0.10005,-1.57553 1.09771,-2.79454 2.22833,-2.72274c1.13061,0.0718 1.96606,1.40722 1.866,2.98275z"/><path d="M209.72829,106.48506c-0.10005,1.57553 -1.09771,2.79454 -2.22832,2.72274c-1.13061,-0.0718 -1.96606,-1.40722 -1.866,-2.98275c0.10005,-1.57553 1.09771,-2.79454 2.22833,-2.72274c1.13061,0.0718 1.96605,1.40722 1.86599,2.98275z"/><path d="M219.45229,107.10259c-0.10005,1.57553 -1.09771,2.79454 -2.22832,2.72274c-1.13061,-0.0718 -1.96606,-1.40722 -1.866,-2.98275c0.10005,-1.57553 1.09772,-2.79454 2.22833,-2.72274c1.13061,0.0718 1.96605,1.40722 1.86599,2.98275z"/><path d="M256.03304,109.42566c-0.10005,1.57553 -1.0977,2.79454 -2.22832,2.72274c-1.13062,-0.0718 -1.96606,-1.40722 -1.866,-2.98275c0.10005,-1.57553 1.09771,-2.79454 2.22833,-2.72274c1.13062,0.0718 1.96605,1.40722 1.86599,2.98275z"/><path d="M265.75706,110.04319c-0.10005,1.57553 -1.09771,2.79454 -2.22832,2.72274c-1.13062,-0.0718 -1.96606,-1.40722 -1.866,-2.98275c0.10005,-1.57553 1.09771,-2.79454 2.22833,-2.72274c1.13062,0.0718 1.96605,1.40722 1.86599,2.98275z"/><path d="M232.01,114.34462c-0.10005,1.57553 -1.09771,2.79454 -2.22832,2.72274c-1.13061,-0.0718 -1.96605,-1.40722 -1.86599,-2.98275c0.10005,-1.57553 1.09771,-2.79454 2.22832,-2.72274c1.13061,0.0718 1.96605,1.40722 1.86599,2.98275z"/><path d="M241.50248,114.94745c-0.10005,1.57553 -1.09771,2.79454 -2.22833,2.72274c-1.13061,-0.0718 -1.96605,-1.40722 -1.86599,-2.98275c0.10005,-1.57553 1.09771,-2.79454 2.22832,-2.72274c1.13061,0.0718 1.96606,1.40722 1.866,2.98275z"/><path d="M251.22649,115.56497c-0.10005,1.57553 -1.09771,2.79454 -2.22833,2.72274c-1.13061,-0.0718 -1.96605,-1.40722 -1.86599,-2.98275c0.10005,-1.57553 1.09771,-2.79454 2.22832,-2.72274c1.13062,0.0718 1.96606,1.40722 1.866,2.98275z"/><path d="M204.45866,112.59497c-0.10005,1.57553 -1.09771,2.79454 -2.22833,2.72274c-1.13061,-0.0718 -1.96606,-1.40722 -1.866,-2.98275c0.10005,-1.57553 1.09771,-2.79454 2.22833,-2.72274c1.13061,0.0718 1.96606,1.40722 1.866,2.98275z"/><path d="M213.95114,113.19779c-0.10005,1.57553 -1.09771,2.79454 -2.22832,2.72274c-1.13061,-0.0718 -1.96606,-1.40722 -1.866,-2.98275c0.10005,-1.57553 1.09772,-2.79454 2.22833,-2.72274c1.13061,0.0718 1.96605,1.40722 1.86599,2.98275z"/><path d="M223.67514,113.81532c-0.10005,1.57553 -1.09771,2.79454 -2.22832,2.72274c-1.13061,-0.0718 -1.96606,-1.40722 -1.866,-2.98275c0.10005,-1.57553 1.09772,-2.79454 2.22833,-2.72274c1.13061,0.0718 1.96605,1.40722 1.86599,2.98275z"/><path d="M260.25592,116.13839c-0.10005,1.57553 -1.0977,2.79454 -2.22832,2.72274c-1.13062,-0.0718 -1.96606,-1.40722 -1.866,-2.98275c0.10005,-1.57553 1.09772,-2.79454 2.22833,-2.72274c1.13062,0.0718 1.96605,1.40722 1.86599,2.98275z"/><path d="M269.9799,116.75592c-0.10005,1.57553 -1.09771,2.79454 -2.22832,2.72274c-1.13062,-0.0718 -1.96606,-1.40722 -1.866,-2.98275c0.10005,-1.57553 1.09771,-2.79454 2.22833,-2.72274c1.13062,0.0718 1.96605,1.40722 1.86599,2.98275z"/><path d="M229.98625,69.34287c-0.10005,1.57553 -1.09771,2.79454 -2.22832,2.72274c-1.13061,-0.0718 -1.96606,-1.40722 -1.866,-2.98275c0.10005,-1.57553 1.09772,-2.79454 2.22833,-2.72274c1.13061,0.0718 1.96605,1.40722 1.86599,2.98275z"/><path d="M239.47873,69.9457c-0.10005,1.57553 -1.09771,2.79454 -2.22832,2.72274c-1.13061,-0.0718 -1.96606,-1.40722 -1.866,-2.98275c0.10005,-1.57553 1.09771,-2.79454 2.22833,-2.72274c1.13061,0.0718 1.96605,1.40722 1.86599,2.98275z"/><path d="M249.20273,70.56322c-0.10005,1.57553 -1.09771,2.79454 -2.22832,2.72274c-1.13061,-0.0718 -1.96606,-1.40722 -1.866,-2.98275c0.10005,-1.57553 1.09771,-2.79454 2.22833,-2.72274c1.13061,0.0718 1.96605,1.40722 1.86599,2.98275z"/><path d="M202.4349,67.59321c-0.10005,1.57553 -1.09771,2.79454 -2.22832,2.72274c-1.13061,-0.0718 -1.96606,-1.40722 -1.866,-2.98275c0.10005,-1.57553 1.09771,-2.79454 2.22833,-2.72274c1.13061,0.0718 1.96605,1.40722 1.86599,2.98275z"/><path d="M211.92738,68.19604c-0.10005,1.57553 -1.09771,2.79454 -2.22832,2.72274c-1.13061,-0.0718 -1.96605,-1.40722 -1.86599,-2.98275c0.10005,-1.57553 1.09771,-2.79454 2.22832,-2.72274c1.13061,0.0718 1.96605,1.40722 1.86599,2.98275z"/><path d="M221.65138,68.81356c-0.10005,1.57553 -1.09771,2.79454 -2.22832,2.72274c-1.13061,-0.0718 -1.96606,-1.40722 -1.866,-2.98275c0.10005,-1.57553 1.09771,-2.79454 2.22833,-2.72274c1.13061,0.0718 1.96605,1.40722 1.86599,2.98275z"/><path d="M258.23216,71.13664c-0.10005,1.57553 -1.0977,2.79454 -2.22832,2.72274c-1.13062,-0.0718 -1.96606,-1.40722 -1.866,-2.98275c0.10005,-1.57553 1.09771,-2.79454 2.22833,-2.72274c1.13062,0.0718 1.96605,1.40722 1.86599,2.98275z"/><path d="M267.95616,71.75416c-0.10005,1.57553 -1.09771,2.79454 -2.22832,2.72274c-1.13062,-0.0718 -1.96606,-1.40722 -1.866,-2.98275c0.10005,-1.57553 1.09771,-2.79454 2.22833,-2.72274c1.13062,0.0718 1.96605,1.40722 1.86599,2.98275z"/><path d="M234.2091,76.05559c-0.10005,1.57553 -1.09771,2.79454 -2.22832,2.72274c-1.13061,-0.0718 -1.96606,-1.40722 -1.866,-2.98275c0.10005,-1.57553 1.09772,-2.79454 2.22833,-2.72274c1.13061,0.0718 1.96605,1.40722 1.86599,2.98275z"/><path d="M243.70158,76.65841c-0.10005,1.57553 -1.09771,2.79454 -2.22832,2.72274c-1.13061,-0.0718 -1.96606,-1.40722 -1.866,-2.98275c0.10005,-1.57553 1.09771,-2.79454 2.22833,-2.72274c1.13061,0.0718 1.96605,1.40722 1.86599,2.98275z"/><path d="M253.42558,77.27594c-0.10005,1.57553 -1.09771,2.79454 -2.22832,2.72274c-1.13061,-0.0718 -1.96605,-1.40722 -1.86599,-2.98275c0.10005,-1.57553 1.09771,-2.79454 2.22832,-2.72274c1.13062,0.0718 1.96605,1.40722 1.86599,2.98275z"/><path d="M206.65776,74.30593c-0.10005,1.57553 -1.09771,2.79454 -2.22832,2.72274c-1.13061,-0.0718 -1.96606,-1.40722 -1.866,-2.98275c0.10005,-1.57553 1.09771,-2.79454 2.22833,-2.72274c1.13061,0.0718 1.96605,1.40722 1.86599,2.98275z"/><path d="M216.15024,74.90876c-0.10005,1.57553 -1.09771,2.79454 -2.22832,2.72274c-1.13061,-0.0718 -1.96605,-1.40722 -1.86599,-2.98275c0.10005,-1.57553 1.09771,-2.79454 2.22832,-2.72274c1.13061,0.0718 1.96605,1.40722 1.86599,2.98275z"/><path d="M225.87424,75.52628c-0.10005,1.57553 -1.09771,2.79454 -2.22832,2.72274c-1.13061,-0.0718 -1.96605,-1.40722 -1.86599,-2.98275c0.10005,-1.57553 1.09771,-2.79454 2.22832,-2.72274c1.13061,0.0718 1.96605,1.40722 1.86599,2.98275z"/><path d="M262.45501,77.84936c-0.10005,1.57553 -1.09771,2.79454 -2.22832,2.72274c-1.13062,-0.0718 -1.96606,-1.40722 -1.866,-2.98275c0.10005,-1.57553 1.09771,-2.79454 2.22833,-2.72274c1.13062,0.0718 1.96605,1.40722 1.86599,2.98275z"/><path d="M272.179,78.46688c-0.10005,1.57553 -1.0977,2.79454 -2.22831,2.72274c-1.13062,-0.0718 -1.96606,-1.40722 -1.866,-2.98275c0.10005,-1.57553 1.09771,-2.79454 2.22833,-2.72274c1.13062,0.0718 1.96604,1.40722 1.86598,2.98275z"/><path d="M229.20121,81.70473c-0.10005,1.57553 -1.09771,2.79454 -2.22832,2.72274c-1.13061,-0.0718 -1.96606,-1.40722 -1.866,-2.98275c0.10005,-1.57553 1.09772,-2.79455 2.22833,-2.72275c1.13061,0.0718 1.96605,1.40723 1.86599,2.98276z"/><path d="M238.69368,82.30755c-0.10005,1.57553 -1.09771,2.79454 -2.22832,2.72274c-1.13061,-0.0718 -1.96606,-1.40722 -1.866,-2.98275c0.10005,-1.57553 1.09771,-2.79455 2.22833,-2.72275c1.13061,0.0718 1.96605,1.40723 1.86599,2.98276z"/><path d="M248.41768,82.92508c-0.10005,1.57553 -1.09771,2.79454 -2.22832,2.72274c-1.13061,-0.0718 -1.96606,-1.40722 -1.866,-2.98275c0.10005,-1.57553 1.09771,-2.79455 2.22833,-2.72275c1.13061,0.0718 1.96605,1.40723 1.86599,2.98276z"/><path d="M201.64986,79.95507c-0.10005,1.57553 -1.09771,2.79454 -2.22832,2.72274c-1.13061,-0.0718 -1.96606,-1.40722 -1.866,-2.98275c0.10005,-1.57553 1.09771,-2.79455 2.22833,-2.72275c1.13061,0.0718 1.96605,1.40723 1.86599,2.98276z"/><path d="M211.14233,80.55789c-0.10005,1.57553 -1.09771,2.79454 -2.22832,2.72274c-1.13061,-0.0718 -1.96605,-1.40722 -1.86599,-2.98275c0.10005,-1.57553 1.09771,-2.79455 2.22832,-2.72275c1.13061,0.0718 1.96605,1.40723 1.86599,2.98276z"/><path d="M220.86634,81.17542c-0.10005,1.57553 -1.09771,2.79454 -2.22832,2.72274c-1.13061,-0.0718 -1.96606,-1.40722 -1.866,-2.98275c0.10005,-1.57553 1.09771,-2.79455 2.22833,-2.72275c1.13061,0.0718 1.96605,1.40723 1.86599,2.98276z"/><path d="M257.44712,83.4985c-0.10005,1.57553 -1.0977,2.79454 -2.22832,2.72274c-1.13062,-0.0718 -1.96606,-1.40722 -1.866,-2.98275c0.10005,-1.57553 1.09771,-2.79455 2.22833,-2.72275c1.13062,0.0718 1.96605,1.40723 1.86599,2.98276z"/><path d="M267.17112,84.11602c-0.10005,1.57553 -1.09771,2.79454 -2.22832,2.72274c-1.13062,-0.0718 -1.96606,-1.40722 -1.866,-2.98275c0.10005,-1.57553 1.09771,-2.79455 2.22833,-2.72275c1.13062,0.0718 1.96605,1.40723 1.86599,2.98276z"/><path d="M233.42405,88.4175c-0.10005,1.57553 -1.09771,2.79454 -2.22832,2.72274c-1.13061,-0.0718 -1.96606,-1.40722 -1.866,-2.98275c0.10005,-1.57553 1.09772,-2.79454 2.22833,-2.72274c1.13061,0.0718 1.96605,1.40722 1.86599,2.98275z"/><path d="M242.91653,89.02032c-0.10005,1.57553 -1.09771,2.79454 -2.22832,2.72274c-1.13061,-0.0718 -1.96606,-1.40722 -1.866,-2.98275c0.10005,-1.57553 1.09771,-2.79454 2.22833,-2.72274c1.13061,0.0718 1.96605,1.40722 1.86599,2.98275z"/><path d="M252.64053,89.63785c-0.10005,1.57553 -1.09771,2.79454 -2.22832,2.72274c-1.13061,-0.0718 -1.96605,-1.40722 -1.86599,-2.98275c0.10005,-1.57553 1.09771,-2.79454 2.22832,-2.72274c1.13062,0.0718 1.96605,1.40722 1.86599,2.98275z"/><path d="M205.87272,86.66784c-0.10005,1.57553 -1.09771,2.79454 -2.22832,2.72274c-1.13061,-0.0718 -1.96606,-1.40722 -1.866,-2.98275c0.10005,-1.57553 1.09771,-2.79454 2.22833,-2.72274c1.13061,0.0718 1.96605,1.40722 1.86599,2.98275z"/><path d="M215.36519,87.27067c-0.10005,1.57553 -1.09771,2.79454 -2.22832,2.72274c-1.13061,-0.0718 -1.96605,-1.40722 -1.86599,-2.98275c0.10005,-1.57553 1.09771,-2.79454 2.22832,-2.72274c1.13061,0.0718 1.96605,1.40722 1.86599,2.98275z"/><path d="M225.0892,87.88819c-0.10005,1.57553 -1.09771,2.79454 -2.22832,2.72274c-1.13061,-0.0718 -1.96605,-1.40722 -1.86599,-2.98275c0.10005,-1.57553 1.09771,-2.79454 2.22832,-2.72274c1.13061,0.0718 1.96605,1.40722 1.86599,2.98275z"/><path d="M261.66997,90.21127c-0.10005,1.57553 -1.09771,2.79454 -2.22832,2.72274c-1.13062,-0.0718 -1.96606,-1.40722 -1.866,-2.98275c0.10005,-1.57553 1.09771,-2.79454 2.22833,-2.72274c1.13062,0.0718 1.96605,1.40722 1.86599,2.98275z"/><path d="M271.39396,90.82879c-0.10005,1.57553 -1.0977,2.79454 -2.22831,2.72274c-1.13062,-0.0718 -1.96606,-1.40722 -1.866,-2.98275c0.10005,-1.57553 1.09771,-2.79454 2.22833,-2.72274c1.13062,0.0718 1.96604,1.40722 1.86598,2.98275z"/></g><g fill="#7b7b7b" stroke="none"><path d="M228.61444,94.60468c-0.10005,1.57553 -1.09771,2.79455 -2.22832,2.72275c-1.13061,-0.0718 -1.96605,-1.40723 -1.86599,-2.98276c0.10005,-1.57553 1.09771,-2.79454 2.22832,-2.72274c1.13061,0.0718 1.96605,1.40722 1.86599,2.98275z"/><path d="M238.10692,95.2075c-0.10005,1.57553 -1.09771,2.79454 -2.22832,2.72274c-1.13061,-0.0718 -1.96606,-1.40722 -1.866,-2.98275c0.10005,-1.57553 1.09772,-2.79454 2.22833,-2.72274c1.13061,0.0718 1.96605,1.40722 1.86599,2.98275z"/><path d="M247.83093,95.82503c-0.10005,1.57553 -1.09771,2.79454 -2.22833,2.72274c-1.13061,-0.0718 -1.96606,-1.40722 -1.866,-2.98275c0.10005,-1.57553 1.09771,-2.79454 2.22833,-2.72274c1.13061,0.0718 1.96606,1.40722 1.866,2.98275z"/><path d="M201.06311,92.85502c-0.10005,1.57553 -1.09771,2.79454 -2.22833,2.72274c-1.13061,-0.0718 -1.96606,-1.40722 -1.866,-2.98275c0.10005,-1.57553 1.09771,-2.79454 2.22833,-2.72274c1.13061,0.0718 1.96606,1.40722 1.866,2.98275z"/><path d="M210.55559,93.45784c-0.10005,1.57553 -1.09771,2.79454 -2.22832,2.72274c-1.13061,-0.0718 -1.96606,-1.40722 -1.866,-2.98275c0.10005,-1.57553 1.09771,-2.79454 2.22833,-2.72274c1.13061,0.0718 1.96605,1.40722 1.86599,2.98275z"/><path d="M220.27959,94.07537c-0.10005,1.57553 -1.09771,2.79454 -2.22832,2.72274c-1.13061,-0.0718 -1.96606,-1.40722 -1.866,-2.98275c0.10005,-1.57553 1.09772,-2.79454 2.22833,-2.72274c1.13061,0.0718 1.96605,1.40722 1.86599,2.98275z"/><path d="M256.86034,96.39844c-0.10005,1.57553 -1.0977,2.79454 -2.22832,2.72274c-1.13062,-0.0718 -1.96606,-1.40722 -1.866,-2.98275c0.10005,-1.57553 1.09771,-2.79454 2.22833,-2.72274c1.13062,0.0718 1.96605,1.40722 1.86599,2.98275z"/><path d="M266.58436,97.01597c-0.10005,1.57553 -1.09771,2.79454 -2.22832,2.72274c-1.13062,-0.0718 -1.96606,-1.40722 -1.866,-2.98275c0.10005,-1.57553 1.09771,-2.79454 2.22833,-2.72274c1.13062,0.0718 1.96605,1.40722 1.86599,2.98275z"/><path d="M232.8373,101.31741c-0.10005,1.57553 -1.09771,2.79454 -2.22832,2.72274c-1.13061,-0.0718 -1.96605,-1.40722 -1.86599,-2.98275c0.10005,-1.57553 1.09771,-2.79454 2.22832,-2.72274c1.13061,0.0718 1.96605,1.40722 1.86599,2.98275z"/><path d="M242.32978,101.92023c-0.10005,1.57553 -1.09771,2.79454 -2.22833,2.72274c-1.13061,-0.0718 -1.96605,-1.40722 -1.86599,-2.98275c0.10005,-1.57553 1.09771,-2.79454 2.22832,-2.72274c1.13061,0.0718 1.96606,1.40722 1.866,2.98275z"/><path d="M252.05379,102.53776c-0.10005,1.57553 -1.09771,2.79454 -2.22833,2.72274c-1.13061,-0.0718 -1.96605,-1.40722 -1.86599,-2.98275c0.10005,-1.57553 1.09771,-2.79454 2.22832,-2.72274c1.13062,0.0718 1.96606,1.40722 1.866,2.98275z"/><path d="M205.28596,99.56775c-0.10005,1.57553 -1.09771,2.79454 -2.22833,2.72274c-1.13061,-0.0718 -1.96606,-1.40722 -1.866,-2.98275c0.10005,-1.57553 1.09771,-2.79454 2.22833,-2.72274c1.13061,0.0718 1.96606,1.40722 1.866,2.98275z"/><path d="M214.77844,100.17057c-0.10005,1.57553 -1.09771,2.79454 -2.22832,2.72274c-1.13061,-0.0718 -1.96606,-1.40722 -1.866,-2.98275c0.10005,-1.57553 1.09772,-2.79454 2.22833,-2.72274c1.13061,0.0718 1.96605,1.40722 1.86599,2.98275z"/><path d="M224.50244,100.7881c-0.10005,1.57553 -1.09771,2.79454 -2.22832,2.72274c-1.13061,-0.0718 -1.96606,-1.40722 -1.866,-2.98275c0.10005,-1.57553 1.09772,-2.79454 2.22833,-2.72274c1.13061,0.0718 1.96605,1.40722 1.86599,2.98275z"/><path d="M261.08322,103.11117c-0.10005,1.57553 -1.0977,2.79454 -2.22832,2.72274c-1.13062,-0.0718 -1.96606,-1.40722 -1.866,-2.98275c0.10005,-1.57553 1.09772,-2.79454 2.22833,-2.72274c1.13062,0.0718 1.96605,1.40722 1.86599,2.98275z"/><path d="M270.8072,103.7287c-0.10005,1.57553 -1.09771,2.79454 -2.22832,2.72274c-1.13062,-0.0718 -1.96606,-1.40722 -1.866,-2.98275c0.10005,-1.57553 1.09771,-2.79454 2.22833,-2.72274c1.13062,0.0718 1.96605,1.40722 1.86599,2.98275z"/><path d="M227.82939,106.96655c-0.10005,1.57553 -1.09771,2.79454 -2.22832,2.72274c-1.13061,-0.0718 -1.96606,-1.40722 -1.866,-2.98275c0.10005,-1.57553 1.09771,-2.79454 2.22833,-2.72274c1.13061,0.0718 1.96605,1.40722 1.86599,2.98275z"/><path d="M237.32188,107.56938c-0.10005,1.57553 -1.09771,2.79454 -2.22832,2.72274c-1.13061,-0.0718 -1.96606,-1.40722 -1.866,-2.98275c0.10005,-1.57553 1.09772,-2.79454 2.22833,-2.72274c1.13061,0.0718 1.96605,1.40722 1.86599,2.98275z"/><path d="M247.04588,108.1869c-0.10005,1.57553 -1.09771,2.79454 -2.22833,2.72274c-1.13061,-0.0718 -1.96606,-1.40722 -1.866,-2.98275c0.10005,-1.57553 1.09771,-2.79454 2.22833,-2.72274c1.13061,0.0718 1.96606,1.40722 1.866,2.98275z"/><path d="M200.27806,105.2169c-0.10005,1.57553 -1.09771,2.79454 -2.22833,2.72274c-1.13061,-0.0718 -1.96606,-1.40722 -1.866,-2.98275c0.10005,-1.57553 1.09771,-2.79454 2.22833,-2.72274c1.13061,0.0718 1.96606,1.40722 1.866,2.98275z"/><path d="M209.77054,105.81972c-0.10005,1.57553 -1.09771,2.79454 -2.22832,2.72274c-1.13061,-0.0718 -1.96606,-1.40722 -1.866,-2.98275c0.10005,-1.57553 1.09771,-2.79454 2.22833,-2.72274c1.13061,0.0718 1.96605,1.40722 1.86599,2.98275z"/><path d="M219.49454,106.43725c-0.10005,1.57553 -1.09771,2.79454 -2.22832,2.72274c-1.13061,-0.0718 -1.96606,-1.40722 -1.866,-2.98275c0.10005,-1.57553 1.09772,-2.79454 2.22833,-2.72274c1.13061,0.0718 1.96605,1.40722 1.86599,2.98275z"/><path d="M256.07529,108.76032c-0.10005,1.57553 -1.0977,2.79454 -2.22832,2.72274c-1.13062,-0.0718 -1.96606,-1.40722 -1.866,-2.98275c0.10005,-1.57553 1.09771,-2.79454 2.22833,-2.72274c1.13062,0.0718 1.96605,1.40722 1.86599,2.98275z"/><path d="M265.79931,109.37785c-0.10005,1.57553 -1.09771,2.79454 -2.22832,2.72274c-1.13062,-0.0718 -1.96606,-1.40722 -1.866,-2.98275c0.10005,-1.57553 1.09771,-2.79454 2.22833,-2.72274c1.13062,0.0718 1.96605,1.40722 1.86599,2.98275z"/><path d="M232.05225,113.6793c-0.10005,1.57553 -1.09771,2.79454 -2.22832,2.72274c-1.13061,-0.0718 -1.96605,-1.40722 -1.86599,-2.98275c0.10005,-1.57553 1.09771,-2.79454 2.22832,-2.72274c1.13061,0.0718 1.96605,1.40722 1.86599,2.98275z"/><path d="M241.54473,114.28213c-0.10005,1.57553 -1.09771,2.79454 -2.22833,2.72274c-1.13061,-0.0718 -1.96605,-1.40722 -1.86599,-2.98275c0.10005,-1.57553 1.09771,-2.79454 2.22832,-2.72274c1.13061,0.0718 1.96606,1.40722 1.866,2.98275z"/><path d="M251.26874,114.89965c-0.10005,1.57553 -1.09771,2.79454 -2.22833,2.72274c-1.13061,-0.0718 -1.96605,-1.40722 -1.86599,-2.98275c0.10005,-1.57553 1.09771,-2.79454 2.22832,-2.72274c1.13062,0.0718 1.96606,1.40722 1.866,2.98275z"/><path d="M204.50091,111.92965c-0.10005,1.57553 -1.09771,2.79454 -2.22833,2.72274c-1.13061,-0.0718 -1.96606,-1.40722 -1.866,-2.98275c0.10005,-1.57553 1.09771,-2.79454 2.22833,-2.72274c1.13061,0.0718 1.96606,1.40722 1.866,2.98275z"/><path d="M213.99339,112.53247c-0.10005,1.57553 -1.09771,2.79454 -2.22832,2.72274c-1.13061,-0.0718 -1.96606,-1.40722 -1.866,-2.98275c0.10005,-1.57553 1.09772,-2.79454 2.22833,-2.72274c1.13061,0.0718 1.96605,1.40722 1.86599,2.98275z"/><path d="M223.71739,113.15c-0.10005,1.57553 -1.09771,2.79454 -2.22832,2.72274c-1.13061,-0.0718 -1.96606,-1.40722 -1.866,-2.98275c0.10005,-1.57553 1.09772,-2.79454 2.22833,-2.72274c1.13061,0.0718 1.96605,1.40722 1.86599,2.98275z"/><path d="M260.29817,115.47307c-0.10005,1.57553 -1.0977,2.79454 -2.22832,2.72274c-1.13062,-0.0718 -1.96606,-1.40722 -1.866,-2.98275c0.10005,-1.57553 1.09772,-2.79454 2.22833,-2.72274c1.13062,0.0718 1.96605,1.40722 1.86599,2.98275z"/><path d="M270.02215,116.0906c-0.10005,1.57553 -1.09771,2.79454 -2.22832,2.72274c-1.13062,-0.0718 -1.96606,-1.40722 -1.866,-2.98275c0.10005,-1.57553 1.09771,-2.79454 2.22833,-2.72274c1.13062,0.0718 1.96605,1.40722 1.86599,2.98275z"/><path d="M230.0285,68.67751c-0.10005,1.57553 -1.09771,2.79454 -2.22832,2.72274c-1.13061,-0.0718 -1.96606,-1.40722 -1.866,-2.98275c0.10005,-1.57553 1.09772,-2.79454 2.22833,-2.72274c1.13061,0.0718 1.96605,1.40722 1.86599,2.98275z"/><path d="M239.52098,69.28034c-0.10005,1.57553 -1.09771,2.79454 -2.22832,2.72274c-1.13061,-0.0718 -1.96606,-1.40722 -1.866,-2.98275c0.10005,-1.57553 1.09771,-2.79454 2.22833,-2.72274c1.13061,0.0718 1.96605,1.40722 1.86599,2.98275z"/><path d="M249.24498,69.89786c-0.10005,1.57553 -1.09771,2.79454 -2.22832,2.72274c-1.13061,-0.0718 -1.96606,-1.40722 -1.866,-2.98275c0.10005,-1.57553 1.09771,-2.79454 2.22833,-2.72274c1.13061,0.0718 1.96605,1.40722 1.86599,2.98275z"/><path d="M202.47715,66.92785c-0.10005,1.57553 -1.09771,2.79454 -2.22832,2.72274c-1.13061,-0.0718 -1.96606,-1.40722 -1.866,-2.98275c0.10005,-1.57553 1.09771,-2.79454 2.22833,-2.72274c1.13061,0.0718 1.96605,1.40722 1.86599,2.98275z"/><path d="M211.96963,67.53068c-0.10005,1.57553 -1.09771,2.79454 -2.22832,2.72274c-1.13061,-0.0718 -1.96605,-1.40722 -1.86599,-2.98275c0.10005,-1.57553 1.09771,-2.79454 2.22832,-2.72274c1.13061,0.0718 1.96605,1.40722 1.86599,2.98275z"/><path d="M221.69363,68.1482c-0.10005,1.57553 -1.09771,2.79454 -2.22832,2.72274c-1.13061,-0.0718 -1.96606,-1.40722 -1.866,-2.98275c0.10005,-1.57553 1.09771,-2.79454 2.22833,-2.72274c1.13061,0.0718 1.96605,1.40722 1.86599,2.98275z"/><path d="M258.27441,70.47128c-0.10005,1.57553 -1.0977,2.79454 -2.22832,2.72274c-1.13062,-0.0718 -1.96606,-1.40722 -1.866,-2.98275c0.10005,-1.57553 1.09771,-2.79454 2.22833,-2.72274c1.13062,0.0718 1.96605,1.40722 1.86599,2.98275z"/><path d="M267.99842,71.08881c-0.10005,1.57553 -1.09771,2.79454 -2.22832,2.72274c-1.13062,-0.0718 -1.96606,-1.40722 -1.866,-2.98275c0.10005,-1.57553 1.09771,-2.79454 2.22833,-2.72274c1.13062,0.0718 1.96605,1.40722 1.86599,2.98275z"/><path d="M234.25135,75.39028c-0.10005,1.57553 -1.09771,2.79454 -2.22832,2.72274c-1.13061,-0.0718 -1.96606,-1.40722 -1.866,-2.98275c0.10005,-1.57553 1.09772,-2.79454 2.22833,-2.72274c1.13061,0.0718 1.96605,1.40722 1.86599,2.98275z"/><path d="M243.74383,75.99311c-0.10005,1.57553 -1.09771,2.79454 -2.22832,2.72274c-1.13061,-0.0718 -1.96606,-1.40722 -1.866,-2.98275c0.10005,-1.57553 1.09771,-2.79454 2.22833,-2.72274c1.13061,0.0718 1.96605,1.40722 1.86599,2.98275z"/><path d="M253.46783,76.61063c-0.10005,1.57553 -1.09771,2.79454 -2.22832,2.72274c-1.13061,-0.0718 -1.96605,-1.40722 -1.86599,-2.98275c0.10005,-1.57553 1.09771,-2.79454 2.22832,-2.72274c1.13062,0.0718 1.96605,1.40722 1.86599,2.98275z"/><path d="M206.70001,73.64062c-0.10005,1.57553 -1.09771,2.79454 -2.22832,2.72274c-1.13061,-0.0718 -1.96606,-1.40722 -1.866,-2.98275c0.10005,-1.57553 1.09771,-2.79454 2.22833,-2.72274c1.13061,0.0718 1.96605,1.40722 1.86599,2.98275z"/><path d="M216.19249,74.24345c-0.10005,1.57553 -1.09771,2.79454 -2.22832,2.72274c-1.13061,-0.0718 -1.96605,-1.40722 -1.86599,-2.98275c0.10005,-1.57553 1.09771,-2.79454 2.22832,-2.72274c1.13061,0.0718 1.96605,1.40722 1.86599,2.98275z"/><path d="M225.91649,74.86097c-0.10005,1.57553 -1.09771,2.79454 -2.22832,2.72274c-1.13061,-0.0718 -1.96605,-1.40722 -1.86599,-2.98275c0.10005,-1.57553 1.09771,-2.79454 2.22832,-2.72274c1.13061,0.0718 1.96605,1.40722 1.86599,2.98275z"/><path d="M262.49726,77.18405c-0.10005,1.57553 -1.09771,2.79454 -2.22832,2.72274c-1.13062,-0.0718 -1.96606,-1.40722 -1.866,-2.98275c0.10005,-1.57553 1.09771,-2.79454 2.22833,-2.72274c1.13062,0.0718 1.96605,1.40722 1.86599,2.98275z"/><path d="M272.22126,77.80157c-0.10005,1.57553 -1.0977,2.79454 -2.22831,2.72274c-1.13062,-0.0718 -1.96606,-1.40722 -1.866,-2.98275c0.10005,-1.57553 1.09771,-2.79454 2.22833,-2.72274c1.13062,0.0718 1.96604,1.40722 1.86598,2.98275z"/><path d="M229.24346,81.03943c-0.10005,1.57553 -1.09771,2.79454 -2.22832,2.72274c-1.13061,-0.0718 -1.96606,-1.40722 -1.866,-2.98275c0.10005,-1.57553 1.09772,-2.79454 2.22833,-2.72274c1.13061,0.0718 1.96605,1.40722 1.86599,2.98275z"/><path d="M238.73593,81.64225c-0.10005,1.57553 -1.09771,2.79454 -2.22832,2.72274c-1.13061,-0.0718 -1.96606,-1.40722 -1.866,-2.98275c0.10005,-1.57553 1.09771,-2.79454 2.22833,-2.72274c1.13061,0.0718 1.96605,1.40722 1.86599,2.98275z"/><path d="M248.45993,82.25978c-0.10005,1.57553 -1.09771,2.79454 -2.22832,2.72274c-1.13061,-0.0718 -1.96606,-1.40722 -1.866,-2.98275c0.10005,-1.57553 1.09771,-2.79454 2.22833,-2.72274c1.13061,0.0718 1.96605,1.40722 1.86599,2.98275z"/><path d="M201.69211,79.28977c-0.10005,1.57553 -1.09771,2.79454 -2.22832,2.72274c-1.13061,-0.0718 -1.96606,-1.40722 -1.866,-2.98275c0.10005,-1.57553 1.09771,-2.79454 2.22833,-2.72274c1.13061,0.0718 1.96605,1.40722 1.86599,2.98275z"/><path d="M211.18458,79.89259c-0.10005,1.57553 -1.09771,2.79454 -2.22832,2.72274c-1.13061,-0.0718 -1.96605,-1.40722 -1.86599,-2.98275c0.10005,-1.57553 1.09771,-2.79454 2.22832,-2.72274c1.13061,0.0718 1.96605,1.40722 1.86599,2.98275z"/><path d="M220.90859,80.51012c-0.10005,1.57553 -1.09771,2.79454 -2.22832,2.72274c-1.13061,-0.0718 -1.96606,-1.40722 -1.866,-2.98275c0.10005,-1.57553 1.09771,-2.79454 2.22833,-2.72274c1.13061,0.0718 1.96605,1.40722 1.86599,2.98275z"/><path d="M257.48937,82.8332c-0.10005,1.57553 -1.0977,2.79454 -2.22832,2.72274c-1.13062,-0.0718 -1.96606,-1.40722 -1.866,-2.98275c0.10005,-1.57553 1.09771,-2.79454 2.22833,-2.72274c1.13062,0.0718 1.96605,1.40722 1.86599,2.98275z"/><path d="M267.21337,83.45072c-0.10005,1.57553 -1.09771,2.79454 -2.22832,2.72274c-1.13062,-0.0718 -1.96606,-1.40722 -1.866,-2.98275c0.10005,-1.57553 1.09771,-2.79454 2.22833,-2.72274c1.13062,0.0718 1.96605,1.40722 1.86599,2.98275z"/><path d="M233.46631,87.75217c-0.10005,1.57553 -1.09771,2.79454 -2.22832,2.72274c-1.13061,-0.0718 -1.96606,-1.40722 -1.866,-2.98275c0.10005,-1.57553 1.09772,-2.79454 2.22833,-2.72274c1.13061,0.0718 1.96605,1.40722 1.86599,2.98275z"/><path d="M242.95878,88.35499c-0.10005,1.57553 -1.09771,2.79454 -2.22832,2.72274c-1.13061,-0.0718 -1.96606,-1.40722 -1.866,-2.98275c0.10005,-1.57553 1.09771,-2.79454 2.22833,-2.72274c1.13061,0.0718 1.96605,1.40722 1.86599,2.98275z"/><path d="M252.68279,88.97252c-0.10005,1.57553 -1.09771,2.79454 -2.22832,2.72274c-1.13061,-0.0718 -1.96605,-1.40722 -1.86599,-2.98275c0.10005,-1.57553 1.09771,-2.79454 2.22832,-2.72274c1.13062,0.0718 1.96605,1.40722 1.86599,2.98275z"/><path d="M205.91497,86.00251c-0.10005,1.57553 -1.09771,2.79454 -2.22832,2.72274c-1.13061,-0.0718 -1.96606,-1.40722 -1.866,-2.98275c0.10005,-1.57553 1.09771,-2.79454 2.22833,-2.72274c1.13061,0.0718 1.96605,1.40722 1.86599,2.98275z"/><path d="M215.40745,86.60534c-0.10005,1.57553 -1.09771,2.79454 -2.22832,2.72274c-1.13061,-0.0718 -1.96605,-1.40722 -1.86599,-2.98275c0.10005,-1.57553 1.09771,-2.79454 2.22832,-2.72274c1.13061,0.0718 1.96605,1.40722 1.86599,2.98275z"/><path d="M225.13145,87.22286c-0.10005,1.57553 -1.09771,2.79454 -2.22832,2.72274c-1.13061,-0.0718 -1.96605,-1.40722 -1.86599,-2.98275c0.10005,-1.57553 1.09771,-2.79454 2.22832,-2.72274c1.13061,0.0718 1.96605,1.40722 1.86599,2.98275z"/><path d="M261.71222,89.54594c-0.10005,1.57553 -1.09771,2.79454 -2.22832,2.72274c-1.13062,-0.0718 -1.96606,-1.40722 -1.866,-2.98275c0.10005,-1.57553 1.09771,-2.79454 2.22833,-2.72274c1.13062,0.0718 1.96605,1.40722 1.86599,2.98275z"/><path d="M271.43621,90.16346c-0.10005,1.57553 -1.0977,2.79454 -2.22831,2.72274c-1.13062,-0.0718 -1.96606,-1.40722 -1.866,-2.98275c0.10005,-1.57553 1.09771,-2.79454 2.22833,-2.72274c1.13062,0.0718 1.96604,1.40722 1.86598,2.98275z"/></g><path d="M184.94954,152.00198l0.50702,-7.98392l90.48439,5.74624l-0.50702,7.98392z" fill="#808080" stroke="none"/><path d="M205.12911,153.01871l0.4859,-7.65125l47.9035,3.04213l-0.4859,7.65125z" fill="#878787" stroke="none"/><path d="M190.1811,132.22435l1.57261,-8.98506l80.17184,5.09134l0.42337,9.11182c0,0 -26.35923,-3.87838 -39.74032,-4.72816c-13.98178,-0.88792 -42.42749,-0.48994 -42.42749,-0.48994z" fill="#6f6f6f" stroke="none"/></g></g></g></svg>