<svg version="1.1" xmlns="http://www.w3.org/2000/svg" xmlns:xlink="http://www.w3.org/1999/xlink" width="34.17311" height="34.17311" viewBox="0,0,34.17311,34.17311"><g transform="translate(-222.91345,-162.91345)"><g data-paper-data="{&quot;isPaintingLayer&quot;:true}" stroke-miterlimit="10" stroke-dasharray="" stroke-dashoffset="0" style="mix-blend-mode: normal"><path d="M229.98311,162.91345h20.03379c3.9166,0 7.06966,3.15307 7.06966,7.06966v20.03379c0,3.91659 -3.15306,7.06966 -7.06966,7.06966h-20.03379c-3.91659,0 -7.06966,-3.15307 -7.06966,-7.06966v-20.03379c0,-3.91659 3.15307,-7.06966 7.06966,-7.06966z" fill="#760c0c" fill-rule="evenodd" stroke="none" stroke-width="4.43922" stroke-linecap="round" stroke-linejoin="round"/><g fill-rule="nonzero" stroke-width="0" stroke-linejoin="miter"><g><g stroke="#000000" stroke-linecap="round"><path d="M250.84558,192.9713c0,0 -7.26553,-6.78326 -11.15881,-9.66634c-3.78386,-2.80204 -10.97529,-6.18804 -10.97529,-6.18804c0,0 3.26534,-4.72657 8.24233,-6.84182c3.41389,-1.45092 7.63314,-1.6732 12.15631,1.70139c4.56694,3.40725 5.56,7.71839 5.19439,11.54632c-0.4932,5.16391 -3.45893,9.44848 -3.45893,9.44848z" fill="#000000"/><path d="M227.07528,177.74905c0,0 -1.79262,-1.0276 -1.38999,-1.46285c1.24346,-1.40607 3.6074,0.07944 3.6074,0.07944c0,0 4.58714,-5.6569 9.75144,-6.77592c5.1643,-1.11903 8.40814,1.27249 8.40814,1.27249c0,0 -5.10558,0.99496 -8.05406,3.02486c-2.89122,1.99049 -5.56739,5.29449 -5.56739,5.29449l18.00189,12.27141c0,0 -0.24001,0.56481 -0.46063,0.88753c-0.22062,0.32272 -0.63504,0.71525 -0.63504,0.71525z" fill="#9b0f0f"/></g><path d="M235.38063,175.63709c-1.96554,1.64183 -4.27718,2.24862 -4.95707,1.31145c-0.67988,-0.93716 0.44854,-2.83608 2.41408,-4.47791c1.96554,-1.64183 4.91113,-2.68459 5.59102,-1.74742c0.67988,0.93716 -1.08249,3.27206 -3.04803,4.91389z" fill="#000000" stroke="none" stroke-linecap="butt"/></g><g stroke="none" stroke-linecap="butt"><g><path d="M228.82463,172.86391c0.00305,-0.20185 -0.09498,-1.5082 3.00334,-3.92313c3.3515,-2.61226 4.4698,-2.00586 4.73396,-1.74495c0.26822,0.26493 2.04948,2.95695 2.04948,2.95695c0,0 0.41194,1.37438 -2.54563,3.97922c-2.43074,2.14085 -4.72393,2.15745 -4.72393,2.15745c0,0 -2.52209,-3.10149 -2.51721,-3.42555z" fill="#9b0f0f"/><path d="M233.14132,170.80565c-1.72052,1.33445 -3.33539,2.02444 -3.47239,1.63763c-0.13627,-0.38476 1.01063,-1.82228 2.73115,-3.15672c1.72052,-1.33445 3.34429,-2.08595 3.49939,-1.67573c0.16115,0.4262 -1.03765,1.86037 -2.75816,3.19482z" fill="#000000"/></g></g></g></g></g></svg>