<svg version="1.1" xmlns="http://www.w3.org/2000/svg" xmlns:xlink="http://www.w3.org/1999/xlink" width="218.12386" height="296.26471" viewBox="0,0,218.12386,296.26471"><defs><linearGradient x1="240.3487" y1="63.79707" x2="240.3487" y2="157.79707" gradientUnits="userSpaceOnUse" id="color-1"><stop offset="0" stop-color="#0c0c0c"/><stop offset="1" stop-color="#4b4b4b"/></linearGradient></defs><g transform="translate(-75.22484,-58.29707)"><g data-paper-data="{&quot;isPaintingLayer&quot;:true}" fill-rule="nonzero" stroke-linejoin="miter" stroke-miterlimit="10" stroke-dasharray="" stroke-dashoffset="0" style="mix-blend-mode: normal"><path d="M204.1914,336.74423v-15.30586h15.19421v15.30586z" fill="#da1616" stroke="none" stroke-width="0" stroke-linecap="butt"/><path d="M219.28384,336.74423v-15.30586h15.19421v15.30586z" fill="#c01313" stroke="none" stroke-width="0" stroke-linecap="butt"/><path d="M234.37632,336.74423v-15.30586h15.19422v15.30586z" fill="#b31212" stroke="none" stroke-width="0" stroke-linecap="butt"/><path d="M249.46882,336.74423v-15.30586h15.19421v15.30586z" fill="#990f0f" stroke="none" stroke-width="0" stroke-linecap="butt"/><path d="M264.44705,336.74423v-15.30586h15.19421v15.30586z" fill="#740c0c" stroke="none" stroke-width="0" stroke-linecap="butt"/><path d="M204.51531,354.56178v-15.30586h15.19421v15.30586z" fill="#8b8b8b" stroke="none" stroke-width="0" stroke-linecap="butt"/><path d="M219.60779,354.56178v-15.30586h15.19421v15.30586z" fill="#666666" stroke="none" stroke-width="0" stroke-linecap="butt"/><path d="M234.70028,354.56178v-15.30586h15.19422v15.30586z" fill="#4b4b4b" stroke="none" stroke-width="0" stroke-linecap="butt"/><path d="M249.79278,354.56178v-15.30586h15.19421v15.30586z" fill="#2b2b2b" stroke="none" stroke-width="0" stroke-linecap="butt"/><path d="M264.75194,354.56178v-15.30586h15.19421v15.30586z" fill="#0c0c0c" stroke="none" stroke-width="0" stroke-linecap="butt"/><g stroke="none" stroke-width="0" stroke-linecap="butt"><path d="M164.10974,144.14734c0,4.69442 -2.23857,8.5 -5,8.5c-2.76143,0 -5,-3.80558 -5,-8.5c0,-4.69442 2.23857,-8.5 5,-8.5c2.76143,0 5,3.80558 5,8.5z" fill="#000000"/><path d="M161.93327,144.31401c0,3.12962 -1.22902,5.66666 -2.74509,5.66666c-1.51608,0 -2.7451,-2.53705 -2.7451,-5.66666c0,-3.12962 1.22903,-5.66666 2.7451,-5.66666c1.51608,0 2.74509,2.53705 2.74509,5.66666z" fill="#fdfdfd"/></g><g stroke="none" stroke-width="0" stroke-linecap="butt"><path d="M181.35974,144.14734c0,4.69442 -2.23857,8.5 -5,8.5c-2.76143,0 -5,-3.80558 -5,-8.5c0,-4.69442 2.23857,-8.5 5,-8.5c2.76143,0 5,3.80558 5,8.5z" fill="#740c0c"/><path d="M179.18327,144.31401c0,3.12962 -1.22902,5.66666 -2.74509,5.66666c-1.51608,0 -2.7451,-2.53705 -2.7451,-5.66666c0,-3.12962 1.22903,-5.66666 2.7451,-5.66666c1.51608,0 2.74509,2.53705 2.74509,5.66666z" fill="#fdfdfd"/></g><path d="M109.22484,98.31777c0,8.74451 -9.16344,15.83334 -18,15.83334c-8.83656,0 -16,-7.08882 -16,-15.83334c0,-1.97907 0.36693,-3.60016 1.03713,-4.92392c0,0 5.71107,0.591 12.37883,1.39011c9.35118,1.1207 20.58404,2.65071 20.58404,3.53381z" fill="#efefef" stroke="none" stroke-width="0" stroke-linecap="butt"/><path d="M152.72484,96.81777c0,8.74451 -9.16344,15.83334 -18,15.83334c-8.83656,0 -16,-7.08882 -16,-15.83334c0,-12.45565 6.53258,-22.87363 18.91597,-21.53381c14.44783,1.56318 15.08404,20.65071 15.08404,21.53381z" fill="#efefef" stroke="none" stroke-width="0" stroke-linecap="butt"/><g stroke="none" stroke-width="0" stroke-linecap="butt"><path d="M164.69307,161.73067c0,4.69442 -2.23857,8.5 -5,8.5c-2.76143,0 -5,-3.80558 -5,-8.5c0,-2.14897 0.4691,-4.11169 1.24273,-5.60834c0.0808,0.00559 0.16038,0.0119 0.23853,0.01915c2.19325,0.20329 4.80525,0.35649 7.34996,0.12718c0.72948,1.47718 1.16879,3.38238 1.16879,5.46201z" fill="#000000"/><path d="M162.5166,161.89734c0,3.12962 -1.22902,5.66666 -2.74509,5.66666c-1.51608,0 -2.7451,-2.53705 -2.7451,-5.66666c0,-2.73131 0.9361,-5.01127 2.18213,-5.54738c0.39313,0.01566 0.79157,0.02639 1.19336,0.03085c1.21223,0.58803 2.1147,2.83472 2.1147,5.51653z" fill="#fdfdfd"/></g><g stroke="none" stroke-width="0" stroke-linecap="butt"><path d="M181.35974,162.14734c0,4.69442 -2.23857,8.5 -5,8.5c-2.76143,0 -5,-3.80558 -5,-8.5c0,-1.83665 0.34266,-3.53725 0.92523,-4.92712c0.10163,0.00305 0.20365,0.00459 0.30603,0.00459c2.45515,0.29785 5.19892,0.25446 7.66175,-0.41186c0.69242,1.45854 1.107,3.31416 1.107,5.33439z" fill="#740c0c"/><path d="M179.18327,162.31401c0,3.12962 -1.22902,5.66666 -2.74509,5.66666c-1.51608,0 -2.7451,-2.53705 -2.7451,-5.66666c0,-2.10302 0.55497,-3.93846 1.37907,-4.91632c0.87266,0.01505 1.75699,-0.01935 2.63106,-0.11409c0.87944,0.94434 1.48006,2.84258 1.48006,5.03041z" fill="#fdfdfd"/></g><path d="M203.29452,305.39158c0,0 -0.59799,-94.38387 -0.74669,-118.01201c-0.05131,-8.15261 7.7053,-37.76129 37.83719,-37.9211c29.74339,-0.15775 37.51221,30.48704 37.5048,37.89673c-0.07209,46.24274 0.6158,117.98648 0.6158,117.98648l-9.87922,0.09614l-0.14947,-114.84311c0,0 0.07105,-4.0993 -2.65059,-4.15415c-3.23239,-0.06514 -2.77212,4.11562 -2.77212,4.11562l0.19339,114.86995l-45.37756,0.07222l-0.28742,-115.23309c0,0 0.26305,-3.919 -2.71586,-3.93443c-2.92784,-0.01515 -2.65006,3.90899 -2.65006,3.90899l0.33234,115.0668z" fill="#000000" stroke="#000000" stroke-width="2" stroke-linecap="butt"/><path d="M255.35878,160.07112l-15.05882,69l-17.41177,-71z" fill="#990f0f" stroke="none" stroke-width="0" stroke-linecap="round"/><path d="M237.45874,177.28177l-4.18824,-15.9289l13.17648,0.30244l-3.52941,15.62646l2.82278,26.49317l-4.94043,32.54459l-6.52846,-33.34716z" fill="#740c0c" stroke="none" stroke-width="0" stroke-linecap="butt"/><path d="M215.09286,307.32269l0.47059,-121.18818l-7.52941,-21.50163c0,0 3.54903,-5.14072 6.03954,-7.09727c1.99795,-1.56959 11.04818,-3.73903 11.04818,-3.73903l15.2767,63.24994l14.58577,-63.10592c0,0 8.6481,2.08417 10.52907,3.75966c2.09674,1.86769 5.7098,6.93262 5.7098,6.93262l-6.11765,22.01059l0.94118,120.67923z" fill="#0c0c0c" stroke="none" stroke-width="0" stroke-linecap="butt"/><path d="M215.09285,307.32269l0.47058,-121.18818l-7.52941,-21.50163c0,0 3.54904,-5.14072 6.03953,-7.09726c1.99795,-1.5696 11.04819,-3.73904 11.04819,-3.73904l15.2767,64.25815l1.77993,89.26797z" fill="#151515" stroke="none" stroke-width="0" stroke-linecap="butt"/><path d="M237.81908,253.28779c-0.77077,0 -1.39561,-0.66389 -1.39561,-1.48284c0,-0.81895 0.62484,-1.48284 1.39561,-1.48284c0.77077,0 1.39561,0.66389 1.39561,1.48284c0,0.81895 -0.62484,1.48284 -1.39561,1.48284z" data-paper-data="{&quot;index&quot;:null}" fill="#b31212" stroke="none" stroke-width="1.5" stroke-linecap="butt"/><path d="M238.21124,282.12113c-0.77077,0 -1.39561,-0.66389 -1.39561,-1.48284c0,-0.81895 0.62484,-1.48284 1.39561,-1.48284c0.77077,0 1.39562,0.66389 1.39562,1.48284c0,0.81895 -0.62484,1.48284 -1.39562,1.48284z" data-paper-data="{&quot;index&quot;:null}" fill="#990f0f" stroke="none" stroke-width="1.5" stroke-linecap="butt"/><path d="M237.42692,225.45446c-0.77077,0 -1.39562,-0.66389 -1.39562,-1.48284c0,-0.81895 0.62484,-1.48284 1.39562,-1.48284c0.77077,0 1.39561,0.66389 1.39561,1.48284c0,0.81895 -0.62484,1.48284 -1.39561,1.48284z" data-paper-data="{&quot;index&quot;:null}" fill="#c01313" stroke="none" stroke-width="1.5" stroke-linecap="butt"/><path d="M227.22595,159.19738l12.86275,56.5l-21.01961,-33.5l6.90196,-3.66667l-10.35294,-11.33333z" fill="#232323" stroke="#000000" stroke-width="0" stroke-linecap="round"/><path d="M265.18674,166.19738l-10.35294,11.33333l6.90197,3.66667l-21.01961,34l12.86274,-57z" data-paper-data="{&quot;index&quot;:null}" fill="#151515" stroke="#000000" stroke-width="0" stroke-linecap="round"/><path d="M270.57909,164.03869c0,0 11.05936,14.21286 12.43361,25.65066c2.94944,24.54792 4.50756,117.34934 4.50756,117.34934h-24.47059c0,0 0.08807,-114.83662 0.47059,-122c0.38252,-7.16338 7.05883,-21 7.05883,-21z" data-paper-data="{&quot;index&quot;:null}" fill="#000000" stroke="#000000" stroke-width="0.5" stroke-linecap="round"/><path d="M215.52026,185.03869c0.38252,7.16337 0.47059,122 0.47059,122h-24.47059c0,0 1.55812,-92.80142 4.50756,-117.34934c1.37425,-11.4378 12.43362,-25.65066 12.43362,-25.65066c0,0 6.67631,13.83663 7.05883,21z" fill="#000000" stroke="#000000" stroke-width="0.5" stroke-linecap="round"/><path d="M187.8487,111.04707c0,-29.13302 23.61698,-52.75 52.75,-52.75c29.13302,0 52.75,23.61698 52.75,52.75c0,29.13302 -23.61698,52.75 -52.75,52.75c-29.13302,0 -52.75,-23.61698 -52.75,-52.75z" fill="#2b2b2b" stroke="none" stroke-width="NaN" stroke-linecap="butt"/><path d="M193.3487,110.79707c0,-25.95738 21.04262,-47 47,-47c25.95738,0 47,21.04262 47,47c0,25.95739 -21.04261,47 -47,47c-25.95738,0 -47,-21.04261 -47,-47z" fill="url(#color-1)" stroke="none" stroke-width="NaN" stroke-linecap="butt"/><path d="M196.3487,110.79707c0,-24.30053 19.69947,-44 44,-44c24.30053,0 44,19.69947 44,44c0,24.30053 -19.69947,44 -44,44c-24.30053,0 -44,-19.69947 -44,-44z" fill="#da1616" stroke="none" stroke-width="NaN" stroke-linecap="butt"/><path d="M208.8487,110.79707c0,-17.39697 14.10303,-31.5 31.5,-31.5c17.39697,0 31.5,14.10303 31.5,31.5c0,17.39697 -14.10303,31.5 -31.5,31.5c-17.39697,0 -31.5,-14.10303 -31.5,-31.5z" fill="#c01313" stroke="none" stroke-width="NaN" stroke-linecap="butt"/><path d="M236.22484,111.31777c0,8.74451 -9.16344,15.83334 -18,15.83334c-8.83656,0 -16,-7.08882 -16,-15.83334c0,-1.97907 0.36693,-3.60016 1.03713,-4.92392c0,0 5.71108,0.591 12.37884,1.39011c9.35118,1.1207 20.58404,2.65071 20.58404,3.53381z" fill="#efefef" stroke="none" stroke-width="0" stroke-linecap="butt"/><g stroke="none" stroke-width="0" stroke-linecap="butt"><path d="M225.60974,112.23068c0,4.69442 -2.23857,8.5 -5,8.5c-2.76143,0 -5,-3.80558 -5,-8.5c0,-1.38361 0.19447,-2.69001 0.53946,-3.84452c0.97303,0.31579 2.01145,0.48645 3.08973,0.48645c0.39999,0 0.7945,-0.02348 1.18222,-0.06915c0.89371,0.26196 1.83934,0.40248 2.81778,0.40248c0.6844,0 1.35274,-0.06875 1.9985,-0.19973c0.23998,0.99434 0.37231,2.08313 0.37231,3.22446z" fill="#000000"/><path d="M223.43327,112.39735c0,3.12962 -1.22902,5.66666 -2.74509,5.66666c-1.51608,0 -2.7451,-2.53705 -2.7451,-5.66666c0,-1.34313 0.22637,-2.5771 0.60464,-3.54824c0.22839,0.01559 0.45888,0.02351 0.69121,0.02351c0.39999,0 0.7945,-0.02348 1.18222,-0.06915c0.80715,0.23659 1.65663,0.37412 2.53439,0.39854c0.30142,0.90968 0.47772,2.01001 0.47772,3.19534z" fill="#fdfdfd"/></g><path d="M276.85438,106.39385c0.6702,1.32376 1.03713,2.94485 1.03713,4.92392c0,8.74451 -7.16345,15.83334 -16,15.83334c-8.83656,0 -18,-7.08882 -18,-15.83334c0,-1.51279 32.96287,-4.92392 32.96287,-4.92392z" data-paper-data="{&quot;index&quot;:null}" fill="#efefef" stroke="none" stroke-width="0" stroke-linecap="butt"/><g data-paper-data="{&quot;index&quot;:null}" stroke="none" stroke-width="0" stroke-linecap="butt"><path d="M253.31539,109.33955c0.64576,0.13098 1.3141,0.19973 1.9985,0.19973c0.97844,0 1.92406,-0.14052 2.81778,-0.40248c0.38772,0.04566 0.78223,0.06915 1.18223,0.06915c1.07828,0 2.1167,-0.17066 3.08973,-0.48646c0.34499,1.15451 0.53946,2.4609 0.53946,3.84452c0,4.69442 -2.23858,8.5 -5,8.5c-2.76143,0 -5,-3.80558 -5,-8.5c0,-1.14133 0.13233,-2.23012 0.37231,-3.22446z" fill="#740c0c"/><path d="M255.59727,109.53535c0.87776,-0.02442 1.72724,-0.16196 2.53439,-0.39855c0.38772,0.04566 0.78223,0.06915 1.18223,0.06915c0.23234,0 0.46283,-0.00793 0.69121,-0.02352c0.37827,0.97114 0.60464,2.20512 0.60464,3.54825c0,3.12962 -1.22902,5.66666 -2.7451,5.66666c-1.51608,0 -2.7451,-2.53705 -2.7451,-5.66666c0,-1.18533 0.1763,-2.28566 0.47773,-3.19533z" fill="#fdfdfd"/></g><path d="M239.43075,112.33289l-40.99447,-4.79156l-1.02138,-4.74211l43.70495,8.06843z" fill="#740c0c" stroke="#000000" stroke-width="0" stroke-linecap="round"/><path d="M238.74823,110.86765l43.70495,-8.06843l-1.02137,4.74211l-40.99447,4.79156z" data-paper-data="{&quot;index&quot;:null}" fill="#000000" stroke="#000000" stroke-width="0" stroke-linecap="round"/><path d="M237.51536,111.46374c0,-1.38071 1.11929,-2.5 2.5,-2.5c1.38071,0 2.5,1.11929 2.5,2.5c0,1.38071 -1.11929,2.5 -2.5,2.5c-1.38071,0 -2.5,-1.11929 -2.5,-2.5z" fill="#000000" stroke="none" stroke-width="NaN" stroke-linecap="butt"/><path d="M222.02355,150.76073l6.29999,-12.925l22.66668,0.025l6.76667,13.53333c0,0 -5.85259,3.30262 -17.80406,3.51502c-11.03738,0.19616 -17.92927,-4.14835 -17.92927,-4.14835z" fill="#000000" stroke="#000000" stroke-width="0" stroke-linecap="round"/><path d="M222.02355,150.76073l6.29999,-12.925l22.66668,0.025l6.76667,13.53333c0,0 -5.85259,3.30262 -17.80406,3.51502c-11.03738,0.19616 -17.92927,-4.14835 -17.92927,-4.14835z" fill="#740c0c" stroke="#000000" stroke-width="0" stroke-linecap="round"/><g stroke="none" stroke-width="0" stroke-linecap="butt"><path d="M165.10974,179.73068c0,4.69442 -2.23857,8.5 -5,8.5c-2.76143,0 -5,-3.80558 -5,-8.5c0,-1.38361 0.19447,-2.69001 0.53946,-3.84452c0.97303,0.31579 2.01145,0.48645 3.08973,0.48645c0.39999,0 0.7945,-0.02348 1.18222,-0.06915c0.89371,0.26196 1.83934,0.40248 2.81778,0.40248c0.6844,0 1.35274,-0.06875 1.9985,-0.19973c0.23998,0.99434 0.37231,2.08313 0.37231,3.22446z" fill="#000000"/><path d="M162.93327,179.89735c0,3.12962 -1.22902,5.66666 -2.74509,5.66666c-1.51608,0 -2.7451,-2.53705 -2.7451,-5.66666c0,-1.34313 0.22637,-2.5771 0.60464,-3.54824c0.22839,0.01559 0.45888,0.02351 0.69121,0.02351c0.39999,0 0.7945,-0.02348 1.18222,-0.06915c0.80715,0.23659 1.65663,0.37412 2.53439,0.39854c0.30142,0.90968 0.47772,2.01001 0.47772,3.19534z" fill="#fdfdfd"/></g><g data-paper-data="{&quot;index&quot;:null}" stroke="none" stroke-width="0" stroke-linecap="butt"><path d="M170.81539,177.33955c0.64576,0.13098 1.3141,0.19973 1.9985,0.19973c0.97844,0 1.92406,-0.14052 2.81778,-0.40248c0.38772,0.04566 0.78223,0.06915 1.18223,0.06915c1.07828,0 2.1167,-0.17066 3.08973,-0.48646c0.34499,1.15451 0.53946,2.4609 0.53946,3.84452c0,4.69442 -2.23858,8.5 -5,8.5c-2.76143,0 -5,-3.80558 -5,-8.5c0,-1.14133 0.13233,-2.23012 0.37231,-3.22446z" fill="#740c0c"/><path d="M173.09727,177.53535c0.87776,-0.02442 1.72724,-0.16196 2.53439,-0.39855c0.38772,0.04566 0.78223,0.06915 1.18223,0.06915c0.23234,0 0.46283,-0.00793 0.69121,-0.02352c0.37827,0.97114 0.60464,2.20512 0.60464,3.54825c0,3.12962 -1.22902,5.66666 -2.7451,5.66666c-1.51608,0 -2.7451,-2.53705 -2.7451,-5.66666c0,-1.18533 0.1763,-2.28566 0.47773,-3.19533z" fill="#fdfdfd"/></g></g></g></svg>