<svg version="1.1" xmlns="http://www.w3.org/2000/svg" xmlns:xlink="http://www.w3.org/1999/xlink" width="43.72956" height="43.72956" viewBox="0,0,43.72956,43.72956"><defs><linearGradient x1="240" y1="165.79063" x2="240" y2="194.20937" gradientUnits="userSpaceOnUse" id="color-1"><stop offset="0" stop-color="#000000"/><stop offset="1" stop-color="#250404"/></linearGradient><linearGradient x1="240.00004" y1="172.65483" x2="240.00004" y2="187.34518" gradientUnits="userSpaceOnUse" id="color-2"><stop offset="0" stop-color="#ffcdcd"/><stop offset="1" stop-color="#ff7d7d"/></linearGradient><linearGradient x1="240.00005" y1="172.65484" x2="240.00005" y2="187.34519" gradientUnits="userSpaceOnUse" id="color-3"><stop offset="0" stop-color="#ffcdcd"/><stop offset="1" stop-color="#ff7d7d"/></linearGradient></defs><g transform="translate(-218.13522,-158.13522)"><g data-paper-data="{&quot;isPaintingLayer&quot;:true}" fill-rule="nonzero" stroke-linejoin="miter" stroke-miterlimit="10" stroke-dasharray="" stroke-dashoffset="0" style="mix-blend-mode: normal"><path d="M218.13522,180c0,-12.07558 9.7892,-21.86478 21.86478,-21.86478c12.07558,0 21.86478,9.7892 21.86478,21.86478c0,12.07558 -9.7892,21.86478 -21.86478,21.86478c-12.07558,0 -21.86478,-9.7892 -21.86478,-21.86478z" fill="#730c0c" stroke="none" stroke-width="0.5" stroke-linecap="butt"/><path d="M225.79063,180c0,-7.84762 6.36175,-14.20937 14.20937,-14.20937c7.84762,0 14.20937,6.36175 14.20937,14.20937c0,7.84762 -6.36175,14.20937 -14.20937,14.20937c-7.84762,0 -14.20937,-6.36175 -14.20937,-14.20937z" fill="url(#color-1)" stroke="none" stroke-width="0.5" stroke-linecap="butt"/><path d="M247.34521,187.34518l-14.69035,-14.69035" fill="none" stroke="url(#color-2)" stroke-width="2" stroke-linecap="round"/><path d="M232.65487,187.34519l14.69035,-14.69035" data-paper-data="{&quot;index&quot;:null}" fill="none" stroke="url(#color-3)" stroke-width="2" stroke-linecap="round"/></g></g></svg>