<svg version="1.1" xmlns="http://www.w3.org/2000/svg" xmlns:xlink="http://www.w3.org/1999/xlink" width="35.2443" height="35.24395" viewBox="0,0,35.2443,35.24395"><g transform="translate(-222.91345,-162.91346)"><g data-paper-data="{&quot;isPaintingLayer&quot;:true}" stroke="none" stroke-miterlimit="10" stroke-dasharray="" stroke-dashoffset="0" style="mix-blend-mode: normal"><path d="M258.15774,170.42695v20.49804c0,4.00745 -3.22497,7.23243 -7.23242,7.23243h-20.5c-3.66107,0 -6.66147,-2.69385 -7.1543,-6.21484c0.7952,3.03475 3.54108,5.26367 6.83204,5.26367h20.0332c3.9166,0 7.07032,-3.15372 7.07032,-7.07031v-20.03321c0,-3.2976 -2.23906,-6.0451 -5.28321,-6.83398c3.52994,0.48496 6.23438,3.49081 6.23438,7.15821z" fill-opacity="0.29839" fill="#000000" fill-rule="evenodd" stroke-width="4.54219" stroke-linecap="round" stroke-linejoin="round"/><path d="M229.98311,162.91346h20.03379c3.9166,0 7.06966,3.15307 7.06966,7.06966v20.03379c0,3.91659 -3.15306,7.06966 -7.06966,7.06966h-20.03379c-3.91659,0 -7.06966,-3.15307 -7.06966,-7.06966v-20.03379c0,-3.91659 3.15307,-7.06966 7.06966,-7.06966z" fill="#760c0c" fill-rule="evenodd" stroke-width="4.43922" stroke-linecap="round" stroke-linejoin="round"/><g fill-rule="nonzero" stroke-width="0" stroke-linecap="butt" stroke-linejoin="miter"><path d="M225.15437,177.87914l7.99847,-11.22106l21.6928,15.46282l-7.99847,11.22106z" fill="#9b0f0f"/><path d="M229.37589,180.78415l5.58623,-7.83694l0.3351,0.23886l-5.58624,7.83694z" fill="#9b0f0f"/><path d="M235.78132,185.23591l5.58624,-7.83694l0.3351,0.23886l-5.58624,7.83694z" fill="#9b0f0f"/><path d="M242.33904,190.06485l5.58624,-7.83694l0.33509,0.23886l-5.58624,7.83695z" fill="#9b0f0f"/><path d="M232.51224,174.06306l3.96775,-5.56635l2.57654,1.83658l-3.96775,5.56635z" fill="#000000"/><path d="M238.90651,178.58443l3.96775,-5.56636l2.57654,1.83658l-3.96775,5.56636z" fill="#000000"/><path d="M245.55013,183.28353l3.96774,-5.56636l2.57654,1.83658l-3.96775,5.56636z" fill="#000000"/></g></g></g></svg>