<svg version="1.1" xmlns="http://www.w3.org/2000/svg" xmlns:xlink="http://www.w3.org/1999/xlink" width="34.17311" height="34.17311" viewBox="0,0,34.17311,34.17311"><g transform="translate(-222.91345,-162.91345)"><g data-paper-data="{&quot;isPaintingLayer&quot;:true}" stroke="none" stroke-miterlimit="10" stroke-dasharray="" stroke-dashoffset="0" style="mix-blend-mode: normal"><path d="M229.98311,162.91345h20.03379c3.9166,0 7.06966,3.15307 7.06966,7.06966v20.03379c0,3.91659 -3.15306,7.06966 -7.06966,7.06966h-20.03379c-3.91659,0 -7.06966,-3.15307 -7.06966,-7.06966v-20.03379c0,-3.91659 3.15307,-7.06966 7.06966,-7.06966z" fill="#760c0c" fill-rule="evenodd" stroke-width="4.43922" stroke-linecap="round" stroke-linejoin="round"/><path d="M251.94157,180c0,6.66177 -5.34642,12.06219 -11.94157,12.06219c-6.59515,0 -11.94157,-5.40043 -11.94157,-12.06219c0,-6.66177 5.34642,-12.06219 11.94157,-12.06219c6.59515,0 11.94157,5.40043 11.94157,12.06219z" fill="#9b0f0f" fill-rule="nonzero" stroke-width="NaN" stroke-linecap="butt" stroke-linejoin="miter"/><path d="M242.23507,181.45283c-2.57765,3.96551 -6.90232,5.72734 -6.90232,5.72734c0,0 -0.14546,-4.66751 2.43219,-8.63301c2.57765,-3.96551 6.90232,-5.72734 6.90232,-5.72734c0,0 0.14546,4.66751 -2.43219,8.63301z" fill="#000000" fill-rule="nonzero" stroke-width="NaN" stroke-linecap="butt" stroke-linejoin="miter"/></g></g></svg>