<svg version="1.1" xmlns="http://www.w3.org/2000/svg" xmlns:xlink="http://www.w3.org/1999/xlink" width="89.94688" height="250.79263" viewBox="0,0,89.94688,250.79263"><g transform="translate(-195.92696,-55.50539)"><g data-paper-data="{&quot;isPaintingLayer&quot;:true}" fill-rule="nonzero" stroke-linecap="butt" stroke-linejoin="miter" stroke-miterlimit="10" stroke-dasharray="" stroke-dashoffset="0" style="mix-blend-mode: normal"><g fill="#000000" stroke="none"><g><path d="M200.76552,131.30686c0,0 -1.62712,-7.46661 -1.34484,-12.27905c0.28228,-4.81244 2.74778,-11.63886 2.74778,-11.63886l4.52697,4.80393c0,0 -2.51106,6.5564 -3.37423,9.83633c-0.83587,3.17618 -2.55569,9.27765 -2.55569,9.27765z" data-paper-data="{&quot;index&quot;:null}" stroke-width="0"/><path d="M195.92697,103.88011c0,0 6.16329,-5.92187 6.29161,-6.78761c0.21016,-1.41795 0.09242,-16.73106 8.77413,-28.37322c2.24333,-3.00831 6.40752,-3.7715 9.9834,-5.98652c3.35702,-2.07946 6.03732,-5.67579 10.83785,-6.53823c1.98632,-0.35685 4.10737,-0.58805 6.37237,-0.67585c16.03361,-0.32818 25.2492,5.47373 31.01993,11.65247c10.29453,11.02238 8.89871,26.15378 10.51095,30.53783c3.44981,9.38084 6.15664,17.40016 6.15664,17.40016c0,0 -2.76715,-2.05351 -4.0797,-3.13397c-1.2242,-1.00773 -3.80143,-3.14585 -3.80143,-3.14585c0,0 3.09111,10.3481 1.31092,20.69498c-1.5623,9.48098 -7.29782,17.22543 -7.29782,17.22543l-1.15522,-2.34735c0,0 -1.02266,2.19794 -2.16005,3.33274c-1.1374,1.13479 -3.43873,2.91273 -3.43873,2.91273l-0.09205,-3.70421c0,0 -7.0601,11.01795 -24.35066,10.87154c-16.30625,-0.25547 -26.07151,-10.6752 -26.07151,-10.6752l-0.1162,2.65484c0,0 -3.89477,-3.29276 -6.18145,-9.70754c-2.72545,-7.64567 -4.47651,-8.95674 -5.57279,-14.9099c-1.09628,-5.95316 -1.2322,-22.0435 -1.2322,-22.0435c0,0 -1.36165,0.66163 -3.33013,0.79513c-1.24776,0.08463 -2.37785,-0.0489 -2.37785,-0.0489z" stroke-width="1.5"/><path d="M207.07706,142.55627c0,0 -2.83183,-5.10841 -3.66745,-8.6953c-0.83562,-3.58689 -0.43091,-8.89684 -0.43091,-8.89684l5.81609,-0.33946c0,0 -1.12457,6.2805 -1.24605,9.31556c-0.11764,2.93906 -0.47168,8.61604 -0.47168,8.61604z" stroke-width="0"/><path d="M196.96067,117.10183c0,0 0.3522,-6.44398 1.26187,-9.27003c0.90415,-2.80889 5.3282,-10.62056 5.3282,-10.62056l-0.26083,9.91502c0,0 -0.60308,0.13857 -2.07352,2.71464c-1.42393,2.49459 -4.25572,7.26094 -4.25572,7.26094z" data-paper-data="{&quot;index&quot;:null}" stroke-width="0"/><path d="M196.4878,98.32645c0,0 3.11884,-3.05544 4.32282,-4.54156c1.0216,-1.26102 2.4442,-3.81128 2.4442,-3.81128l3.69079,2.99007c0,0 -2.75635,2.4414 -4.50868,3.34c-1.7334,0.88889 -5.94913,2.02278 -5.94913,2.02278z" stroke-width="0"/><path d="M198.20743,91.21408c0,0 2.49059,-2.05441 3.54178,-3.13275c0.89196,-0.915 2.3665,-2.92811 2.3665,-2.92811l1.0139,3.71456c0,0 -2.12533,1.57476 -3.28522,1.96791c-1.14737,0.3889 -3.63696,0.37839 -3.63696,0.37839z" stroke-width="0"/></g><path d="M276.54856,131.97723c-0.5922,-2.9792 -2.68019,-9.00826 -2.68019,-9.00826l5.79809,-3.81955c0,0 1.82571,7.29673 1.53474,12.01479c-0.29097,4.71806 -2.84621,9.25075 -2.84621,9.25075c0,0 -1.23296,-5.55276 -1.80643,-8.43774z" data-paper-data="{&quot;index&quot;:null}" stroke-width="0"/><path d="M279.19185,119.06204c-1.65442,-3.17478 -5.84351,-9.77979 -5.84351,-9.77979l6.06795,-2.26705c0,0 3.53864,6.20851 4.26118,10.53738c0.72254,4.32887 -0.84503,9.9294 -0.84503,9.9294c0,0 -1.98616,-5.24516 -3.64058,-8.41994z" data-paper-data="{&quot;index&quot;:null}" stroke-width="0"/><path d="M279.24647,98.05367c-1.75233,-0.8986 -4.50868,-3.34 -4.50868,-3.34l3.69079,-2.99007c0,0 1.42259,2.55027 2.4442,3.81128c1.20398,1.48613 4.32282,4.54156 4.32282,4.54156c0,0 -4.21573,-1.13389 -5.94913,-2.02278z" data-paper-data="{&quot;index&quot;:null}" stroke-width="0"/><path d="M280.22995,91.83569c-1.24367,-0.39315 -3.52252,-1.96791 -3.52252,-1.96791l1.08714,-3.71456c0,0 1.58105,2.01311 2.53744,2.92811c1.12712,1.07834 3.7976,3.13275 3.7976,3.13275c0,0 -2.66942,0.01051 -3.89966,-0.37839z" data-paper-data="{&quot;index&quot;:null}" stroke-width="0"/></g><path d="M202.03045,304.39161c0,0 -1.63536,-94.38387 -1.79335,-118.01201c-0.05451,-8.15261 8.18688,-36.76129 40.20201,-36.9211c31.60235,-0.15775 39.85672,29.48704 39.84884,36.89673c-0.07659,46.24274 -0.34571,117.98648 -0.34571,117.98648l-10.49667,0.09614l0.84118,-114.84311c0,0 0.07549,-3.0993 -2.81625,-3.15415c-3.43441,-0.06514 -2.94538,3.11562 -2.94538,3.11562l0.20548,114.86995l-48.21366,0.07222l-0.30539,-115.23309c0,0 0.27949,-2.919 -2.8856,-2.93443c-3.11083,-0.01515 -2.81569,2.90899 -2.81569,2.90899l1.35311,115.0668z" fill="#000000" stroke="#000000" stroke-width="2"/><path d="M255.62763,200.33378c-0.57113,0 -1.03411,-0.46299 -1.03411,-1.03411c0,-0.57113 0.46299,-1.03413 1.03411,-1.03413c0.57113,0 1.03411,0.463 1.03411,1.03413c0,0.57113 -0.46299,1.03411 -1.03411,1.03411z" fill="#000000" stroke="none" stroke-width="1.5"/><path d="M250.36775,204.56939c-4.4635,-0.31439 -6.55245,-1.79392 -6.16985,-2.58011c0.11788,-0.24224 2.84645,1.06355 6.97038,1.3048c6.40897,0.37493 8.51033,-0.63173 8.51033,-0.63173v1.34616c0,0 -2.4135,1.04672 -9.31086,0.56089z" fill="#000000" stroke="#000000" stroke-width="0"/><path d="M222.55499,199.29967c0,-0.57113 0.46299,-1.03413 1.03411,-1.03413c0.57113,0 1.03413,0.463 1.03413,1.03413c0,0.57113 -0.463,1.03411 -1.03413,1.03411c-0.57113,0 -1.03411,-0.46299 -1.03411,-1.03411z" fill="#000000" stroke="none" stroke-width="1.5"/><path d="M228.84899,204.56939c-6.89736,0.48585 -9.31086,-0.56089 -9.31086,-0.56089v-1.34616c0,0 2.10136,1.00666 8.51033,0.63173c4.12393,-0.24126 6.85251,-1.54704 6.97039,-1.3048c0.3826,0.78618 -1.70634,2.26571 -6.16985,2.58011z" fill="#000000" stroke="#000000" stroke-width="0"/><path d="M240.12945,261.12113c-0.81895,0 -1.48284,-0.66389 -1.48284,-1.48284c0,-0.81895 0.66389,-1.48284 1.48284,-1.48284c0.81895,0 1.48284,0.66389 1.48284,1.48284c0,0.81895 -0.66389,1.48284 -1.48284,1.48284z" data-paper-data="{&quot;index&quot;:null}" fill="#000000" stroke="none" stroke-width="1.5"/><path d="M216.06618,304.40603v-119.20147v-28.32657c0,0 2.67319,-2.35297 4.6557,-3.74807c1.98251,-1.3951 5.17197,-2.80371 5.17197,-2.80371h28.39106c0,0 3.91276,1.51959 6.16585,2.94655c2.25309,1.42695 4.75379,3.60523 4.75379,3.60523v28.83138v118.69667z" fill="#000000" stroke="#000000" stroke-width="2"/><path d="M212.71285,115.20173c-0.57709,-7.29323 0.335,-17.15448 0.335,-17.15448c0,0 3.41059,-0.04124 13.91429,-3.14424c8.0696,-2.38394 20.54731,-9.48722 20.54731,-9.48722c0,0 -2.16005,3.00503 -3.40781,4.46015c-1.32651,1.54696 -3.99292,4.56297 -3.99292,4.56297c0,0 7.838,-1.66761 14.67476,-4.72931c8.56837,-3.53575 10.59252,-6.05309 12.95042,-4.5927c2.7829,1.72362 1.03006,23.1827 0.71846,28.74062c-0.42163,5.66922 -2.53327,9.49969 -3.15031,12.52053c-0.61704,3.02084 -0.4096,6.13662 -2.20622,16.0397c-1.12121,6.18021 -4.16183,8.92466 -10.01942,14.66081c-5.85759,5.73616 -9.05378,9.25275 -13.01359,9.32173c-3.81077,0.06639 -8.93565,-5.1002 -13.93542,-10.38244c-5.32393,-5.62474 -8.87489,-8.47713 -9.71551,-15.13975c-0.75707,-6.00039 -0.77653,-9.90853 -1.12266,-15.24835c-0.25298,-3.90273 -2.26119,-6.44504 -2.57636,-10.42801z" fill="#000000" stroke="#000000" stroke-width="1.5"/><path d="M217.2233,114.72149c0.07093,-4.89188 4.83834,-8.93609 10.21137,-8.8582c5.37302,0.0779 9.02724,4.2484 8.95632,9.14029c-0.07093,4.89188 -4.12352,8.79439 -9.49655,8.7165c-5.37302,-0.0779 -9.74207,-4.1067 -9.67114,-8.99859z" fill="#ffffff" stroke="#000000" stroke-width="1.4"/><path d="M221.66095,114.83943c0.03999,-2.75843 2.30855,-4.96213 5.06696,-4.92214c2.75843,0.03999 4.96213,2.30855 4.92214,5.06696c-0.03999,2.75843 -2.30854,4.96213 -5.06696,4.92214c-2.75843,-0.03999 -4.96213,-2.30855 -4.92214,-5.06696z" fill="#000000" stroke="none" stroke-width="1.5"/><path d="M244.27959,114.72222c0.20353,-2.2215 5.23408,-5.35847 9.77048,-5.35847c4.5364,0 9.27453,3.13273 9.27453,5.35847c0,4.8924 -3.88585,7.32104 -9.69964,7.39188c-5.52997,0.06739 -9.55792,-2.28692 -9.34537,-7.39188z" fill="#ffffff" stroke="#000000" stroke-width="1.4"/><path d="M251.13233,116.43277c0,-2.19713 1.78112,-3.97825 3.97825,-3.97825c2.19713,0 3.97825,1.78112 3.97825,3.97825c0,2.19713 -1.78111,3.97825 -3.97825,3.97825c-2.19713,0 -3.97825,-1.78112 -3.97825,-3.97825z" fill="#8b8b8b" stroke="none" stroke-width="1.5"/><path d="M199.84873,254.46514c0,0 -1.5,-9.2993 -1.5,-15.001c0,-4.75233 -0.85903,-14.18454 -0.72679,-21.9869c0.1168,-6.89188 1.72679,-12.5121 1.72679,-12.5121c0,0 0.57501,2.53778 2.36354,3.19792c0.84196,0.31077 4.64673,0.70343 9.8026,1.71138c8.84591,1.72934 21.66892,4.29805 30.32934,4.3496c7.22795,0.04302 16.08185,-1.72023 23.3445,-3.10321c7.23261,-1.37725 12.88711,-2.37323 13.7861,-2.81604c1.54027,-0.75868 2.37392,-2.83966 2.37392,-2.83966c0,0 2.5,7.61444 2.5,12.999c0,4.73956 -0.78774,14.46569 -1.05453,22.46483c-0.23056,6.913 -1.44547,12.53617 -1.44547,12.53617c0,0 -5.69621,1.85055 -13.38833,4.21323c-7.77191,2.38719 -17.58137,5.28677 -25.61167,5.28677c-9.88808,0 -23.81414,-3.13826 -32.99347,-5.91172c-5.65356,-1.70817 -9.50653,-2.58829 -9.50653,-2.58829z" fill="#990f0f" stroke="none" stroke-width="0"/><path d="M199.8533,300.03264c0,0 -1.50195,-14.93951 -1.50328,-19.70731c-0.00111,-3.97394 -0.86236,-11.86097 -0.73195,-18.38539c0.11519,-5.76307 1.72386,-10.46319 1.72386,-10.46319c0,0 0.5756,2.12195 2.36428,2.67346c0.84203,0.25963 4.64689,0.58691 9.803,1.42832c8.84631,1.44361 21.66993,3.58798 30.33036,3.62866c7.22796,0.03395 16.08144,-1.44298 23.34377,-2.60147c7.23228,-1.15369 12.88656,-1.98812 13.78544,-2.35866c1.54009,-0.63485 2.37325,-2.3752 2.37325,-2.3752c0,0 2.50179,6.36655 2.50305,10.86915c0.00111,3.96326 -0.78435,12.09653 -1.04926,18.78554c-0.22894,5.78077 -1.44253,10.48324 -1.44253,10.48324c0,0 -5.69578,4.21571 -13.38734,6.19355c-7.77135,1.99836 -17.58012,8.09243 -25.61043,8.09468c-9.88808,0.00277 -23.81511,-2.7871 -32.99509,-5.10371c-5.65396,-1.4268 -9.50713,-1.16168 -9.50713,-1.16168z" fill="#740c0c" stroke="none" stroke-width="0"/><path d="M198.73628,208.90039c0,0 -1.62038,-14.78528 -1.09745,-22.57122c0.46191,-6.87738 4.35143,-12.40988 4.35143,-12.40988c0,0 -0.88618,2.5634 0.86703,3.31231c0.82533,0.35255 3.93899,0.93533 9.03789,2.2003c7.82009,1.94007 15.17038,4.24674 22.22632,6.42073c9.7881,3.01578 16.34311,5.5451 25.46675,4.42033c3.23435,-0.39873 4.01584,-1.83595 6.95437,-3.83494c2.47935,-1.68662 9.73717,-3.86922 12.80644,-5.19434c1.57634,-0.68057 0.51319,-2.71717 0.51319,-2.71717c0,0 4.11541,7.73012 3.84567,13.10792c-0.23743,4.73361 -1.85721,16.01669 -1.85721,16.01669c0,0 -8.29946,13.03017 -15.24925,15.03724c-6.94979,2.00707 -19.29169,-1.45121 -31.51102,-3.16957c-12.21934,-1.71836 -16.96036,-4.66065 -25.98923,-7.89046c-9.02887,-3.22981 -10.36493,-2.72794 -10.36493,-2.72794z" fill="#b31212" stroke="none" stroke-width="0"/><path d="M207.56583,164.23931c0,0 0.95723,-2.77656 1.23528,-5.87682c0.23116,-2.57747 -0.23874,-5.37867 0.01194,-6.99412c0.23526,-1.5161 -1.28251,-3.66134 -1.57333,-6.56653c-0.19286,-1.92664 0.62612,-6.19586 0.62612,-6.19586c0,0 1.02504,1.60381 1.17691,1.75046c0.78989,0.76279 9.16148,0.03343 12.07261,-1.105c4.10776,-1.60639 11.02578,-5.7184 19.28381,-6.01213c8.25803,-0.29373 10.98542,3.31552 17.93452,6.18833c4.55612,1.88353 14.52428,2.4105 15.64952,1.79607c0.9584,-0.52333 2.84929,-2.95107 2.84929,-2.95107c0,0 0.12415,2.23611 -0.45388,3.74761c-0.60224,1.57477 -1.9154,3.24848 -2.31693,4.33464c-0.89028,2.40827 -0.06284,3.93603 -0.35181,6.46927c-0.28896,2.53324 -1.45819,4.20719 -1.17658,6.92952c0.3048,2.94656 1.03253,5.48562 1.03253,5.48562c0,0 -3.19941,-1.01695 -7.73118,-0.20236c-7.61351,1.36852 -18.98758,4.86903 -25.26882,4.86903c-5.5132,0 -15.52779,-3.52348 -23.0838,-5.11132c-5.64395,-1.18604 -9.9162,-0.55534 -9.9162,-0.55534z" fill="#4b4b4b" stroke="none" stroke-width="0"/><g stroke="none" stroke-width="0"><g><path d="M237.45177,124.27201v-1.79202h7.27778v1.79202z" fill="#666666"/><path d="M237.45177,123.35771v-0.87772h7.27779v0.87772z" fill="#8b8b8b"/></g><g><path d="M215.73903,128.35331l-1.7557,-5.59428l0.00685,-1.75809h25.80339l0.04289,1.84503l-1.68431,5.50734z" fill="#2b2b2b"/><path d="M224.36763,128.35331l-4.67095,-5.52993l-5.71335,0.02259l0.04289,-1.84503h25.8034l0.00685,1.75809l-11.16424,0.09186l3.60854,5.50243z" fill="#4b4b4b"/></g><g><path d="M244.00096,128.35331l-1.6843,-5.50734l0.04289,-1.84503h25.8034l0.00685,1.75809l-1.7557,5.59428z" fill="#2b2b2b"/><path d="M252.70097,128.35331l-4.67096,-5.52993l-5.71335,0.02259l0.04289,-1.84503h25.8034l0.00685,1.75809l-11.16424,0.09186l3.60854,5.50244z" fill="#4b4b4b"/></g></g><path d="M205.17437,181.00304c0,0 0,-0.25 0.25,-0.25c0.12873,0 0.19118,0.06628 0.22147,0.13059l0.04538,-0.11736c0.03471,-0.09637 0.12695,-0.16528 0.23528,-0.16528c0.13648,0 0.24742,0.10937 0.24995,0.24525l0.00212,0.09755c0.27064,-0.51529 0.67194,-1.08951 1.21428,-0.24925c0.33611,0.52073 -0.4655,1.61592 -0.68282,2.06969c-0.7947,1.65941 -0.68888,3.39063 -1.05715,5.09766c0.00392,0.02325 0.00791,0.04651 0.01199,0.06979l-0.01782,0.02005l0.0189,-0.00029l0.00006,0.00396h0.008l-0.00038,0.49998c0,0.00001 0,0.00001 0,0.00002c-0.0001,0.13798 -0.112,0.24981 -0.25,0.24981c-0.13696,0 -0.24819,-0.11012 -0.24998,-0.24665l-0.00741,-0.48459c-0.41413,-2.36224 0.00812,-4.59631 0.00812,-6.97093z" fill="#990f0f" stroke="none" stroke-width="0.5"/><path d="M207.97759,186.35021c0.08,-0.38083 0.25328,-0.56162 0.54014,-0.82644l0.18742,-0.32633c0.04252,-0.07729 0.12474,-0.12967 0.21919,-0.12967c0.13807,0 0.25,0.11193 0.25,0.25c0,0.00001 0,0.00004 0,0.00005l-0.00008,0.49999h-0.00004l0.00004,0.00016c-0.00024,0.16717 -0.00047,0.33434 -0.00071,0.50151c-0.00917,0.71583 -0.68156,2.72338 -0.22038,3.32914c0.34416,0.45205 0.85915,0.45986 0.95529,1.216c0.13588,1.0687 -1.01402,2.93475 -1.82943,4.09094l0.02633,0.01115l-0.19272,0.4551c-0.03669,0.09246 -0.12694,0.15783 -0.23246,0.15783c-0.13807,0 -0.25,-0.11193 -0.25,-0.25c0,-0.00325 0.00006,-0.0065 0.00018,-0.00972l0.01674,-0.49839l0.00352,0.00012l-0.00284,-0.01213c0.13977,-1.02086 1.74716,-2.83097 0.65247,-2.41817l-0.26409,0.22134c-0.04361,0.03706 -0.1001,0.05943 -0.16181,0.05943c-0.13807,0 -0.25,-0.11193 -0.25,-0.25v-0.00001v-0.5h0.00001h-0.00001c0.00001,-1.76677 -0.2618,-3.91522 0.5264,-5.53087c0,0 0.00895,-0.01789 0.02684,-0.04102z" fill="#990f0f" stroke="none" stroke-width="0.5"/><path d="M205.01463,195.17304l0.40741,-0.23342c0.20227,0.41994 0.55828,1.33647 -0.04485,1.14702l-0.00297,0.0072l0.02454,0.04909l-0.0026,0.0013l0.00469,0.00298c0.00026,0.00162 0.00052,0.00325 0.00078,0.00488l0.00123,-0.00056l0.20635,0.45543l-0.12572,0.05696c0.01343,0.08393 0.02685,0.16785 0.04028,0.25178l-0.22178,-0.12607l-0.09728,0.09728c-0.11785,-0.11785 -0.58926,-0.58926 -0.70711,-0.70711c0,0 -0.17677,-0.17678 0,-0.35356c0.0745,-0.0745 0.14901,-0.08621 0.21028,-0.07481c0.02543,-0.1111 0.12489,-0.19398 0.2437,-0.19398c0.03584,0 0.06992,0.00754 0.10074,0.02112l0.2099,0.08683c-0.01181,-0.03878 -0.04398,-0.09303 -0.08687,-0.16184c-0.0097,-0.00028 -0.01978,-0.00102 -0.03024,-0.00226c-0.24828,-0.02927 -0.21902,-0.27755 -0.21902,-0.27755l0.0619,-0.03547c-0.00456,-0.00859 -0.00911,-0.01727 -0.01365,-0.02605z" fill="#990f0f" stroke="none" stroke-width="0.5"/><path d="M277.19907,219.70667c0.01918,-0.29509 0.0641,-0.60709 0.17741,-0.68331c0.24297,-0.16342 0.71856,0.38038 0.86891,0.12912c0.55536,-0.92808 -0.50471,-5.26479 1.64923,-3.98357c0.09792,2.03558 0.47928,6.59963 -0.61372,8.90403c0.35793,0.59733 0.39346,2.76157 0.39346,3.23644c0,2.84133 0.61885,6.63931 -0.04487,9.50481l0.04239,0.00099l-0.0116,0.49914c-0.00271,0.13573 -0.11358,0.24491 -0.24995,0.24491c-0.13095,0 -0.23838,-0.10067 -0.24912,-0.22885l-0.0066,-0.06906c-0.10604,3.12941 -0.6572,6.62848 -1.84211,9.45363c-0.21283,0.50744 -0.68653,2.22935 -1.58384,1.27139c-0.34584,-0.36921 0.15646,-1.71592 0.19674,-2.15525c0.19182,-2.09208 0.23846,-4.37267 0.26734,-6.46602c0.19324,-3.49965 0.58657,-6.96167 0.93334,-10.45218c0.29431,-2.94353 -0.20173,-5.99407 -0.20173,-8.95706c0,0 0,-0.25 0.25,-0.25c0.00853,0 0.01676,0.00029 0.02471,0.00085z" fill="#740c0c" stroke="none" stroke-width="0.5"/><path d="M272.35711,229.96271c-0.18521,-1.64291 -0.66684,-3.12351 -0.01011,-4.6454l-0.05883,-0.01815l0.14571,-0.47237c0.02971,-0.10488 0.12616,-0.18173 0.24056,-0.18173c0.13804,0 0.24995,0.11187 0.25,0.2499l0.00021,0.4999c0.00032,0.20874 -0.04542,0.61981 -0.07802,1.04042c0.02808,0.38367 0.04323,0.80708 0.05119,1.23986c0.29191,0.49853 0.61209,-1.67765 1.16,-1.41888c0.22526,0.10638 0.1165,1.46935 0.11645,1.71144c-0.00015,0.79583 -1.03096,6.36739 -2.18248,5.37574c-0.45366,-0.39067 0.18257,-2.56581 0.18257,-3.13761c0,0 0,-0.20287 0.18275,-0.24311z" fill="#740c0c" stroke="none" stroke-width="0.5"/><path d="M273.92446,236.70582c0.25,0.0001 0.2499,0.2501 0.2499,0.2501l-0.00012,0.2921c-0.00081,0.2739 0.04152,0.50895 0.02146,0.70843c0.22866,0.0138 0.22867,0.24937 0.22867,0.24937c0,0.16666 0,0.33334 0,0.5v0.5c0,0.13807 -0.11193,0.25 -0.25,0.25c-0.0998,0 -0.18594,-0.05848 -0.22602,-0.14305l-0.19027,-0.38052c-0.02433,0.0079 -0.0503,0.01216 -0.07726,0.01216c-0.13807,0 -0.25,-0.11193 -0.25,-0.25c0,-0.04189 0.0103,-0.08136 0.0285,-0.11604l0.17801,-0.35711c0.0247,-0.3201 0.03597,-0.63684 0.03692,-0.97469l0.00011,-0.29085c0,0 0.0001,-0.25 0.2501,-0.2499z" fill="#740c0c" stroke="none" stroke-width="0.5"/><path d="M207.93984,251.11925c0.08657,-0.23453 0.3211,-0.14796 0.3211,-0.14796l0.44357,0.23602c0.04522,0.09062 0.0899,0.177 0.13257,0.26067c0.02505,-0.00771 0.05394,-0.01216 0.08729,-0.01216c0.25,0 0.25,0.25 0.25,0.25c-0.00458,0.30326 0.07913,0.61307 0.21548,0.88399l-0.00971,0.05214l0.01756,-0.00083l0.02376,0.4976c0.00025,0.00455 0.00037,0.00914 0.00037,0.01375c0,0.13807 -0.11193,0.25 -0.25,0.25c-0.09589,0 -0.17917,-0.05399 -0.22111,-0.13323l-0.23988,-0.43299l0.10649,-0.059c-0.20937,-0.41396 -0.30325,-0.83179 -0.5602,-1.34669l-0.16932,0.00979c0,0 -0.23453,-0.08657 -0.14796,-0.3211z" fill="#740c0c" stroke="none" stroke-width="0.5"/><path d="M254.37842,263.16065c-0.12183,-0.2183 0.09647,-0.34013 0.09647,-0.34013l0.10362,-0.05783c0.14194,-0.07921 0.6865,-0.27592 1.26734,-0.4101c0.02031,-0.03904 0.05565,-0.07626 0.11442,-0.10486c0.00598,-0.003 0.0121,-0.00578 0.01834,-0.00831c0.11583,-0.04865 0.19853,-0.01106 0.25103,0.03576c0.26937,-0.04561 0.5292,-0.06914 0.74262,-0.05249c0.0372,-0.02839 0.08272,-0.04663 0.13257,-0.05039l0.47316,-0.03793c0.03746,-0.01079 0.0733,-0.02013 0.10757,-0.02805c0.64979,-0.24466 1.40756,-0.41256 1.98503,-0.38246c0.74012,-0.25028 1.45897,-0.4505 2.12352,-0.49851c0.12482,-0.07426 0.24667,-0.15775 0.36461,-0.25367l0.07838,0.01148l-0.00212,-0.02931l0.46461,-0.03372l0.39457,-0.20882c0.03278,-0.01827 0.07019,-0.0294 0.11022,-0.03123c0.13793,-0.00627 0.25483,0.10046 0.2611,0.23839c0.00367,0.0806 -0.03125,0.154 -0.08843,0.20236l-0.37689,0.32477l-0.00556,-0.00645l-0.01446,0.022c-0.22842,0.12801 -0.45563,0.2443 -0.68211,0.3505c0.00032,0.00055 0.00065,0.0011 0.00096,0.00166c0.12742,0.22456 -0.85273,1.24872 -1.5932,2.00534c-0.27637,1.06169 -0.88766,2.23855 -1.53458,1.94795c-0.13885,-0.06237 -0.45431,-1.78654 -0.66122,-2.66713c-0.12016,0.02511 -0.24035,0.04894 -0.36034,0.07154c-0.16417,0.39887 -0.4109,0.84251 -0.62926,1.21438l-0.03277,0.12101c0.14707,0.67031 0.1764,1.91564 0.04126,2.73855c0.01484,0.19256 0.02603,0.38515 0.03357,0.57758l-0.02841,0.03987l0.01739,0.00597l-0.1603,0.46744c-0.03078,0.09703 -0.1194,0.16927 -0.22701,0.17416c-0.13793,0.00627 -0.25483,-0.10046 -0.2611,-0.23839c-0.00128,-0.02826 0.00217,-0.05563 0.00967,-0.08134l0.12721,-0.47751l0.02568,0.00684c-0.08051,-1.3614 -0.32842,-2.72688 -0.77405,-4.02076l-0.37906,0.03c-0.00322,0.00027 -0.00644,0.00047 -0.00969,0.00063c-0.13793,0.00627 -0.25483,-0.10046 -0.2611,-0.23838c-0.00007,-0.00139 -0.00011,-0.00277 -0.00016,-0.00414c-0.15424,0.01036 -0.30442,0.01877 -0.4498,0.02538v0v0v0v0l-0.49948,0.02271c-0.13793,0.00627 -0.25483,-0.10046 -0.2611,-0.23839c-0.00096,-0.02114 0.00073,-0.04179 0.00478,-0.06162c-0.02052,-0.01869 -0.04,-0.043 -0.05748,-0.07434zM261.63335,262.11093c-0.12992,0.04827 -0.26221,0.09216 -0.39383,0.13195c-0.14159,0.06463 -0.28648,0.12631 -0.43413,0.18514c0.01114,0.02656 0.02053,0.05663 0.02819,0.08988c0.07882,-0.06185 0.16042,-0.11366 0.24285,-0.15269c0.20362,-0.09639 0.69642,-0.00472 0.63823,-0.22237c-0.00472,-0.01766 -0.03443,-0.02766 -0.0813,-0.03192zM259.47021,263.10558c-0.15888,-0.05261 -0.30414,-0.08959 -0.44178,-0.11132c0.18773,0.42124 0.17742,0.97772 0.1889,1.45344l0.09407,-0.0145c-0.05625,-0.51609 0.02688,-1.00585 0.15882,-1.32762zM259.39579,265.31987c0.00977,0.01119 0.05869,-0.05793 0.12443,-0.16413c-0.12188,-0.00327 -0.22362,-0.09453 -0.24056,-0.21473l-0.05915,-0.38362c0.0116,0.33059 0.04316,0.61116 0.17528,0.76248zM255.4933,262.98719c0.15188,-0.04515 0.31761,-0.08245 0.48233,-0.11401c-0.02336,-0.05527 -0.0471,-0.11037 -0.07125,-0.1653c-0.25454,0.07843 -0.50329,0.18874 -0.73299,0.30481c0.10626,-0.00489 0.2136,-0.01351 0.32191,-0.0255zM256.47906,262.78076c0.06123,-0.06097 0.13747,-0.12285 0.22605,-0.18451c-0.09943,-0.00655 -0.20011,-0.00389 -0.30123,0.00635c0.02549,0.05919 0.05054,0.11858 0.07518,0.17816zM260.14215,263.48508c-0.01018,0.00117 -0.02013,0.00213 -0.02985,0.00286c0.00095,0.01153 0.00187,0.02322 0.00275,0.03504c0.00901,-0.01266 0.01803,-0.0253 0.0271,-0.03791zM257.2038,263.91634c0.05398,-0.16886 0.13421,-0.34402 0.2205,-0.51049c-0.08467,0.04555 -0.17329,0.09458 -0.26659,0.14704c-0.00423,0.11701 0.01018,0.23874 0.04609,0.36345zM259.68003,263.9117c-0.00003,0.0016 -0.00006,0.00318 -0.00009,0.00478l0.00276,-0.00155zM259.66847,264.15996c0.02513,-0.03393 0.05001,-0.0682 0.0747,-0.10273l-0.06386,-0.11372c-0.00191,0.07291 -0.0054,0.14578 -0.01084,0.21645z" fill="#000000" stroke="none" stroke-width="0.5"/><path d="M259.8718,271.74054l-0.39465,-0.06576c0.07454,-0.14907 0.14907,-0.29815 0.22361,-0.44722c0,0 0.11181,-0.22361 0.33541,-0.11181c0.22361,0.11181 0.11181,0.33541 0.11181,0.33541c-0.00204,0.00408 -0.00408,0.00817 -0.00612,0.01225c0.10978,0.17066 -0.05212,0.31345 -0.05212,0.31345l-0.09656,-0.0161c-0.02294,0.04587 -0.04587,0.09175 -0.06881,0.13761z" fill="#000000" stroke="none" stroke-width="0.5"/><path d="M214.35218,293.85001c0.23935,-0.07219 0.31154,0.16716 0.31154,0.16716l0.06961,0.23082c0.19206,0.6368 0.525,1.37517 0.8636,2.1529c0.06278,0.06001 0.07466,0.14659 0.07691,0.17722c0.54688,1.26488 1.08181,2.62012 1.03544,3.80385c0.05981,0.12391 0.12193,0.24292 0.18666,0.35599l-0.01185,0.06078l0.02136,-0.00075l0.01756,0.4983c0.00014,0.00338 0.0002,0.00678 0.0002,0.01019c0,0.13807 -0.11193,0.25 -0.25,0.25c-0.09742,0 -0.18183,-0.05572 -0.22308,-0.13703l-0.23265,-0.43671l0.11723,-0.06245c-0.0907,-0.19849 -0.15724,-0.40505 -0.20813,-0.61674c-0.33475,-0.75266 -0.59679,-1.66136 -0.84475,-2.50876c-0.03574,-0.02485 -0.06469,-0.05878 -0.08349,-0.09846l-0.22118,-0.44237l0.09614,-0.04807c-0.08089,-0.17642 -0.13519,-0.36174 -0.14609,-0.55124l-0.00255,-0.05336c0,0 -0.00022,-0.00458 0.00002,-0.01254c-0.00147,-0.05094 0.00911,-0.11718 0.06015,-0.17028c0.01895,-0.02241 0.04382,-0.04241 0.07648,-0.05671c-0.31661,-0.60309 -0.5711,-1.18831 -0.80667,-1.96938l-0.06962,-0.23082c0,0 -0.07218,-0.23935 0.16717,-0.31153z" fill="#000000" stroke="none" stroke-width="0.5"/><path d="M211.93909,294.33893c-0.24956,0.01473 -0.2643,-0.23484 -0.2643,-0.23484l-0.00802,-0.13581c-0.08214,-1.46575 -0.63251,-2.9085 -0.98495,-4.31828c0,0 -0.06063,-0.24253 0.18191,-0.30316c0.24254,-0.06063 0.30317,0.1819 0.30317,0.1819c0.36066,1.44262 0.90652,2.91069 0.99901,4.41009l0.00802,0.13582c0,0 0.01472,0.24957 -0.23484,0.2643z" fill="#000000" stroke="none" stroke-width="0.5"/><path d="M213.42437,289.58936c0,-0.13807 0.11193,-0.25 0.25,-0.25c0.13807,0 0.25,0.11193 0.25,0.25c0,0.13807 -0.11193,0.25 -0.25,0.25c-0.13807,0 -0.25,-0.11193 -0.25,-0.25z" fill="#000000" stroke="none" stroke-width="0.5"/><path d="M216.64133,241.63549c1.46228,1.06905 2.89505,2.13913 4.55951,3.0658c0.36506,0.20325 1.64733,0.82981 1.50526,1.26749c-0.11043,0.34024 -0.90274,0.32128 -1.21211,0.34252c-2.93083,-1.2775 -6.61296,-2.48557 -8.94028,-4.50824c-0.56159,-0.50062 -1.13406,-0.8356 -1.72414,-1.21312c0.57023,0.82018 0.86702,1.94861 0.81297,2.59628l-0.06999,0.03647l0.02288,0.01665l-0.33605,0.2577c-0.04973,0.03886 -0.12342,0.0598 -0.20317,0.05206c-0.13523,-0.01311 -0.23752,-0.1038 -0.23132,-0.20381l0.01309,-0.23252c-0.53007,-1.2509 -1.8835,-2.06216 -2.74981,-3.2031c-0.26693,-0.35155 -0.72995,-1.24335 -1.19606,-1.45874c-0.45297,-0.20932 0.10007,0.76319 0.07227,1.16274l0.24657,0.27595c0.03201,0.03521 0.04912,0.07791 0.04482,0.12222c-0.00988,0.10192 -0.1293,0.17374 -0.26673,0.16042c-0.06835,-0.00663 -0.12828,-0.03307 -0.17004,-0.07052c-0.00001,-0.00001 -0.00004,-0.00003 -0.00005,-0.00004l-0.32807,-0.29414l0.04113,-0.02496l-0.01419,-0.01588l0.03893,-0.01838c-0.00941,-0.00758 -0.01877,-0.01519 -0.02806,-0.02284l-0.04575,-0.01534c0.00028,-0.00721 0.00042,-0.01475 0.00042,-0.0226c-1.27991,-1.08963 -1.48219,-2.85869 -1.81191,-4.21561c-0.07862,-0.32352 -0.72458,-1.39567 -0.22104,-1.64032c0.52613,-0.25562 1.1623,0.34036 1.34757,0.6137c0.30224,-0.61388 -1.65471,-1.74866 -1.55911,-2.70104l-0.21276,-0.29622c-0.02376,-0.03196 -0.03586,-0.06883 -0.03217,-0.10688c0.00988,-0.10192 0.1293,-0.17374 0.26673,-0.16041c0.03426,0.00332 0.06639,0.01162 0.09519,0.02379l0.44468,0.1783l-0.02836,0.04276c2.68115,0.88471 5.33471,3.35066 7.09402,4.91295c0.01712,0.01544 0.03423,0.03088 0.05134,0.04633c-0.29818,-0.73899 -0.52213,-1.73495 -0.75807,-2.18417l0.00258,-0.02322l-0.00859,0.0005l-0.06642,-0.36723c-0.00287,-0.0138 -0.00373,-0.02797 -0.00234,-0.04231c0.00988,-0.10192 0.1293,-0.17374 0.26673,-0.16041c0.06356,0.00617 0.11984,0.02946 0.161,0.06281l0.34859,0.27983l-0.07247,0.04979c0.67088,0.55638 1.06897,1.29478 1.70585,1.90037c1.3724,1.30497 2.96731,2.44912 4.38679,3.7314c0.63165,0.61386 4.22628,1.25761 3.93511,2.32919c-0.44313,1.63083 -3.9943,-0.01123 -5.17493,-0.32595z" fill="#740c0c" stroke="none" stroke-width="0.5"/><path d="M255.18387,214.15577c1.25129,-0.86773 2.48553,-1.7702 3.68816,-2.71457c1.21584,-0.55722 2.40622,-2.68512 3.67289,-4.39749c-2.53431,1.6573 -4.70276,3.81631 -7.78836,4.47529c-0.61706,-0.07388 -1.28443,0.08868 -0.42487,-0.84592c2.03181,-2.20921 5.0022,-3.72989 7.02426,-6.11822c1.35176,-1.57802 2.86718,-3.02703 4.16484,-4.67103c1.09812,-2.29326 2.68874,-4.18494 3.55991,-6.69954c0.31494,-0.51654 1.48809,-3.08988 2.22317,-2.98264c0.76297,0.11131 0.49171,1.22204 0.46585,1.66245c-0.10353,1.7624 -0.85168,3.74884 -2.01814,5.10732c-0.37349,1.16691 -1.53443,2.2785 -2.25566,3.28275c-0.32062,0.44644 -0.61653,0.73866 -1.005,1.13307c-0.13981,0.14194 -0.51938,0.56706 -0.33317,0.49623c0.67537,-0.25689 1.14326,-0.87962 1.87514,-1.194c0.5376,-0.23093 0.8451,-0.22235 1.34944,-0.58867c0.55765,-0.09601 2.35634,-1.43297 2.56619,-0.25952c0.12556,0.70208 -0.71196,1.24293 -1.15962,1.79815c-1.20553,1.49518 -2.33785,3.36379 -3.77503,4.65032c-1.49829,1.33875 -2.92413,2.7217 -4.41093,3.99078c-1.09682,0.93619 -1.89136,2.60718 -3.44312,2.90136c-2.10618,0.96894 -4.24871,2.10328 -6.36585,3.16108c-0.57079,0.37151 -1.14141,0.7388 -1.7095,1.10355l-0.37954,0.30739c-0.04657,0.03803 -0.10694,0.05947 -0.17171,0.05592c-0.13787,-0.00754 -0.24351,-0.12541 -0.23597,-0.26328c0.00179,-0.03268 0.00977,-0.06355 0.02276,-0.09153l0.1975,-0.45306l0.14002,0.06104c0.71514,-1.23463 2.6323,-2.16576 4.52635,-2.90721z" fill="#990f0f" stroke="none" stroke-width="0.5"/><path d="M220.9002,150.34266c-1.30634,-0.42241 -2.60239,-0.82184 -3.83316,-1.44389c-0.5933,-0.14685 -1.12438,-0.27077 -1.65526,-0.46431c-0.25449,-0.01335 -0.5074,-0.02015 -0.75801,-0.02015c0,0 -0.25,0 -0.25,-0.25c0,-0.03161 0.004,-0.05921 0.01098,-0.08334h-0.26098c-0.13807,0 -0.25,-0.11193 -0.25,-0.25c0,-0.0998 0.05848,-0.18595 0.14304,-0.22603l0.32849,-0.16424l0.04889,0.09778c1.38202,-0.64228 3.66018,0.18766 5.43105,1.2152c0.89515,0.28072 1.76325,0.62447 2.57593,1.01982c0.33495,0.16747 1.60086,0.56447 1.2686,1.18891c-0.10455,0.19649 -0.47677,0.14878 -0.84453,0.04582l0.01989,0.03978c0.01829,0.03474 0.02864,0.07432 0.02864,0.11631c0,0.13807 -0.11193,0.25 -0.25,0.25c-0.0998,0 -0.18594,-0.05848 -0.22602,-0.14305l-0.11745,-0.23488c-0.443,-0.24386 -0.92006,-0.47209 -1.4101,-0.69371zM221.54556,152.31427c0.08868,0.07375 0.17177,0.14598 0.24868,0.21622c0.20883,0.07269 0.45744,0.1593 0.69078,0.24293c-0.13834,-0.07551 -0.2473,-0.13763 -0.27533,-0.15164c-0.21738,-0.10648 -0.43895,-0.20905 -0.66413,-0.3075zM219.98211,151.85435c0.03435,0.0116 0.06867,0.02326 0.10298,0.03498c-0.17875,-0.10868 -0.36152,-0.21329 -0.54647,-0.31349c-0.095,-0.0288 -0.19028,-0.05687 -0.28582,-0.08418c0.22796,0.1122 0.47575,0.23503 0.72932,0.3627z" fill="#2b2b2b" stroke="none" stroke-width="0.5"/><path d="M211.24266,149.93683c0.03683,-0.1892 0.24444,-0.1892 0.24444,-0.1892c0.53506,0.00642 1.34112,0.0405 1.61115,0.5h0.22218c0.13807,0 0.25,0.11193 0.25,0.25c0,0.0998 -0.05848,0.18595 -0.14305,0.22603l-0.32849,0.16424l-0.06498,-0.12995c-1.33307,0.49556 -3.1566,-0.62055 -1.79127,-0.82112z" fill="#2b2b2b" stroke="none" stroke-width="0.5"/><path d="M253.13769,163.48462c0.09494,-0.03168 0.1946,-0.05765 0.29822,-0.07858c1.48401,-0.66146 3.71689,-0.71679 5.33113,-1.25413c0.41769,-0.13904 1.32555,-0.89018 1.72006,-0.83761c1.32256,0.17625 0.08588,0.81426 0.07905,1.1795c0.9424,-1.00865 2.79231,-0.98173 4.01422,-1.33515c1.22719,-0.35494 2.19412,-1.21975 3.37804,-1.59927l-0.02472,-0.07414l0.46881,-0.15626c0.02642,-0.0095 0.0549,-0.01468 0.08459,-0.01468c0.13807,0 0.25,0.11193 0.25,0.25c0,0.04199 -0.01036,0.08156 -0.02864,0.1163l-0.16442,0.32883l-0.02613,-0.01306l-0.0207,0.07804c-0.98694,0.49347 -1.83464,1.52488 -2.9412,2.0632c-1.67818,0.55909 -4.24322,3.01613 -6.27482,2.84779c-0.41089,0.01713 -0.75993,0.07729 -1.12742,0.06273v0.0995h-0.33333c-0.13807,0 -0.25,-0.11193 -0.25,-0.25c0,-0.0998 0.05848,-0.18594 0.14304,-0.22602l0.2768,-0.1384c0.08167,-0.11832 0.28098,-0.2453 0.48094,-0.34766c-1.20587,0.24491 -3.87639,0.10797 -5.17489,-0.20987c-0.10307,0.00177 -0.20616,0.00352 -0.30923,0.00529h-0.33334c-0.13807,0 -0.25,-0.11193 -0.25,-0.25c0,-0.13807 0.11193,-0.25 0.25,-0.25h0.33334c0.0502,0.00122 0.1004,0.00243 0.15059,0.00365z" fill="#2b2b2b" stroke="none" stroke-width="0.5"/><path d="M267.41046,157.41341c0.0076,-0.0176 -0.03972,0.01059 -0.1205,0.06621c0.01495,0.00974 0.0288,0.02103 0.04132,0.03365c0.03831,-0.03572 0.06589,-0.0691 0.07918,-0.09985zM265.83655,158.1101c-0.05771,0.00615 -0.12532,-0.00976 -0.19292,-0.07736c-0.17678,-0.17677 0,-0.35355 0,-0.35355l0.23164,-0.2135c0.20794,-0.09996 0.37599,-0.16111 0.52578,-0.18489c0.52994,-0.59517 1.1974,-0.92557 1.496,0.01772c0.13981,0.44166 -0.30972,0.68426 -0.75552,0.75293c-0.02392,0.01874 -0.04266,0.02811 -0.04266,0.02811c-0.11111,0.05555 -0.22222,0.11112 -0.33333,0.16667l-0.00887,0.00443c-1.19498,1.06476 -1.27375,0.56373 -0.92013,-0.14058z" fill="#2b2b2b" stroke="none" stroke-width="0.5"/><path d="M264.61575,159.69191c0.04215,-0.24642 0.28858,-0.20427 0.28858,-0.20427l0.17303,0.08069c0.02651,-0.01318 0.06773,-0.02917 0.11482,-0.03145c0.06412,-0.0031 0.13914,0.01927 0.20261,0.10895c0.08605,0.12156 0.04841,0.22197 0.00392,0.28328c-0.01711,0.0256 -0.03874,0.04765 -0.06354,0.0652l-0.38477,0.27236l-0.00171,-0.00243l-0.03284,0.02293l-0.03884,0.00991l0.00144,0.00478l-0.35184,0.10661c-0.03733,0.01217 -0.07808,0.01571 -0.11946,0.00863c-0.1361,-0.02328 -0.22755,-0.15248 -0.20427,-0.28857c0.01683,-0.09837 0.089,-0.17343 0.1791,-0.19868l0.25373,-0.07688c-0.02119,-0.04034 -0.03162,-0.09289 -0.01995,-0.16108z" fill="#2b2b2b" stroke="none" stroke-width="0.5"/><path d="M225.76162,162.60667c-0.82166,0.6181 -2.7793,1.52727 -3.49733,0.39414c-0.70065,-1.10569 -0.41718,-3.67981 1.16537,-3.67981c0.34222,-0.10527 0.17026,-0.89932 0.59267,-1.13602c0.7417,-0.4156 1.40882,0.81786 1.76287,1.16666c0.06576,0.06479 0.84264,-0.37067 0.86856,-0.37067c0.52686,0 1.92256,0.85868 1.91667,1.41666c-0.00339,0.32071 -0.3054,0.70899 -0.60863,0.70116l0.09072,0.03927c0.01804,1.58525 -1.19801,1.81643 -2.2909,1.46861z" fill="#2b2b2b" stroke="none" stroke-width="0.5"/><path d="M269.29158,149.09286c-0.86396,0.13924 -1.73451,-1.3165 -0.38898,-1.7577c0,0 0.24003,-0.06988 0.30991,0.17015c0.01141,0.0392 0.01456,0.07385 0.01184,0.10441l0.11653,-0.03393c0.06143,-0.01789 0.12968,-0.01233 0.1902,0.02089c0.12103,0.06645 0.16528,0.21843 0.09883,0.33946l-0.02913,0.05306c0.52545,0.33871 0.63286,0.95184 -0.3092,1.10366zM268.56049,148.09064c0.08715,-0.09215 0.22312,-0.17146 0.37057,-0.23614l-0.00299,-0.01028c-0.32727,0.08922 -0.41155,0.17324 -0.36758,0.24642z" fill="#2b2b2b" stroke="none" stroke-width="0.5"/><path d="M249.39372,149.90046c-0.04124,-1.09637 0.18655,-2.48689 0.48108,-3.88274c0.01605,-0.71947 0.00225,-1.45023 -0.02723,-2.19588c-0.07761,-1.96302 -0.48815,-3.64825 -0.84963,-5.47813c-0.016,1.49296 -0.10953,2.99451 -0.38177,4.29465l0.0014,0.03118l0.00209,-0.00008l0.0158,0.39969c0.00545,0.13796 -0.07821,0.25329 -0.18687,0.25758c-0.10828,0.00428 -0.20052,-0.1033 -0.20657,-0.24058l-0.01883,-0.42052c-0.17574,-1.51063 -0.29614,-3.38564 -0.73034,-5.00368c-0.55897,-2.08297 -1.43108,-3.74827 -1.43108,-3.74827c0,0 2.01307,0.41986 3.02228,0.82753c1.00229,0.40487 3.01237,1.61014 3.01237,1.61014c0,0 -0.66838,4.15167 -0.81967,5.12198c-0.32256,2.06875 -0.45998,6.72042 -1.50367,8.55098c-0.01797,0.07103 -0.03652,0.142 -0.05566,0.2129l0.0055,0.40209c0.00232,0.13476 -0.08031,0.24617 -0.18708,0.25039c-0.10866,0.0043 -0.20117,-0.10406 -0.20663,-0.24203l-0.01975,-0.49961l0.01953,-0.00077c0.02239,-0.08221 0.04396,-0.16447 0.06473,-0.2468z" fill="#2b2b2b" stroke="none" stroke-width="0.5"/></g></g></svg>