<svg version="1.1" xmlns="http://www.w3.org/2000/svg" xmlns:xlink="http://www.w3.org/1999/xlink" width="98.41734" height="251.74334" viewBox="0,0,98.41734,251.74334"><defs><linearGradient x1="240.00138" y1="108.28139" x2="240.00138" y2="156.28134" gradientUnits="userSpaceOnUse" id="color-1"><stop offset="0" stop-color="#1d1d1d"/><stop offset="1" stop-color="#4b4b4b"/></linearGradient></defs><g transform="translate(-191.28421,-54.42172)"><g data-paper-data="{&quot;isPaintingLayer&quot;:true}" fill-rule="nonzero" stroke-linejoin="miter" stroke-miterlimit="10" stroke-dasharray="" stroke-dashoffset="0" style="mix-blend-mode: normal"><g><path d="M270.1107,130.33301c0,0 10.92173,12.90149 7.66667,19c-3.35784,6.29109 -17.33333,10.66667 -17.33333,10.66667l-39.676,1.66666c0,0 -15.41161,-7.23482 -17.66666,-14c-2.25506,-6.76518 8,-15 8,-15" data-paper-data="{&quot;index&quot;:null}" fill="none" stroke="#740c0c" stroke-width="4" stroke-linecap="round"/><path d="M201.0305,304.39162c0,0 -0.63536,-94.38387 -0.79335,-118.01201c-0.05451,-8.15261 8.18688,-36.76129 40.20201,-36.9211c31.60235,-0.15775 39.85672,29.48704 39.84884,36.89673c-0.07659,46.24274 0.65429,117.98648 0.65429,117.98648l-10.49667,0.09614l-0.15882,-114.84311c0,0 0.07549,-3.0993 -2.81625,-3.15415c-3.43441,-0.06514 -2.94538,3.11562 -2.94538,3.11562l0.20548,116.53662l-48.21366,0.07222l-0.30539,-116.89975c0,0 0.27949,-2.919 -2.8856,-2.93443c-3.11083,-0.01515 -2.81569,2.90899 -2.81569,2.90899l0.35311,115.0668z" fill="#2b2b2b" stroke="#000000" stroke-width="0" stroke-linecap="butt"/><path d="M234.97981,306.02092v-56l12.64583,-7.5v63.5z" fill="#4b4b4b" stroke="none" stroke-width="0" stroke-linecap="butt"/><path d="M270.6175,162.19574c0,0 10.93956,10.073 12.5,18c0.66021,3.35387 1.31909,26.92973 2.65294,52.40262c0.83842,16.01144 2.39719,32.46995 2.97176,46.07296c0.67183,15.90556 0.6253,27.02443 0.6253,27.02443l-23.75,-0.18655l1.03583,-116.17775z" data-paper-data="{&quot;index&quot;:null}" fill="#0c0c0c" stroke="#000000" stroke-width="0" stroke-linecap="round"/><path d="M276.33065,168.45621c0,0 -2.83671,26.20567 -4.66649,36.04073c-1.71884,9.23873 -6.00018,22.79261 -6.00018,22.79261l5.16666,-64.83334c0,0 2.33455,1.8641 3.22975,2.86462c0.98508,1.10097 2.27025,3.13538 2.27025,3.13538z" data-paper-data="{&quot;index&quot;:null}" fill="#000000" stroke="#000000" stroke-width="0" stroke-linecap="round"/><path d="M214.73224,255.84966v-31.5h51.75v20.5c0,0 -6.42097,0.74278 -13.36842,2.68506c-6.28518,1.75713 -13.41047,4.67753 -17.75191,5.61853c-7.41097,1.60632 -20.62967,2.69641 -20.62967,2.69641z" fill="#990f0f" stroke="none" stroke-width="0" stroke-linecap="butt"/><path d="M214.33242,189.33147l1.03583,116.17775l-23.75,0.18655c0,0 -0.04654,-11.11887 0.62529,-27.02443c0.57457,-13.603 2.13334,-30.06151 2.97176,-46.07295c1.33385,-25.47289 1.99273,-49.04874 2.65294,-52.40262c1.56043,-7.927 12.5,-18 12.5,-18z" fill="#0c0c0c" stroke="#000000" stroke-width="0" stroke-linecap="round"/><path d="M213.83288,224.37133l-5.1,-62.82657l14.66101,-12.96845h33.14106l14.3363,11.96845l-3.75,64.16472l-25.57147,7.07206z" fill="#740c0c" stroke="#000000" stroke-width="0" stroke-linecap="butt"/><path d="M214.86984,242.60844l0.4984,62.90082l-24.08334,0.18655c0,0 -0.04654,-11.11887 0.62529,-27.02443c0.29065,-6.88103 1.77228,-19.04438 2.43314,-28.41531c0.51917,-7.36181 0.27656,-13.00022 0.27656,-13.00022c0,0 0.18094,-3.10813 0.26207,-4.65742z" fill="#740c0c" stroke="#000000" stroke-width="0" stroke-linecap="round"/><path d="M286.10381,232.93172c0.08112,1.54928 0.26207,4.65742 0.26207,4.65742c0,0 -0.24262,5.63841 0.27655,13.00021c0.66086,9.37093 2.1425,21.53429 2.43314,28.41531c0.67183,15.90556 0.62529,27.02443 0.62529,27.02443l-24.08333,-0.18655l0.4984,-62.56749z" data-paper-data="{&quot;index&quot;:null}" fill="#740c0c" stroke="#000000" stroke-width="0" stroke-linecap="round"/><path d="M208.98287,161.46137l14.66101,-12.63512h33.14106l14.00297,11.80178l-19.19569,33.6044l-22.74147,0.48081z" fill="#990f0f" stroke="#000000" stroke-width="0" stroke-linecap="butt"/><path d="M273.73931,305.81083c0,0 0.19517,-10.70285 -0.31775,-22.65303c-0.47835,-11.1447 -1.65941,-23.37426 -1.86102,-29.01916c-0.21481,-6.01476 -0.15456,-13.66114 -0.15456,-13.66114l12.66667,-6.33333c0,0 -0.30739,9.3672 -0.0379,16.64337c0.23545,6.35713 1.546,19.50294 2.14645,31.35112c0.63682,12.56589 0.55811,23.67217 0.55811,23.67217z" data-paper-data="{&quot;index&quot;:null}" fill="#990f0f" stroke="none" stroke-width="0" stroke-linecap="butt"/><path d="M194.73463,305.47749c0,0 -0.07871,-11.10628 0.55811,-23.67217c0.60045,-11.84818 1.91101,-24.99399 2.14646,-31.35112c0.26949,-7.27617 -0.0379,-16.64338 -0.0379,-16.64338l12.66667,6.33333c0,0 0.06025,7.64638 -0.15456,13.66114c-0.20161,5.6449 -1.38267,17.87446 -1.86102,29.01916c-0.51292,11.95018 -0.31775,22.65303 -0.31775,22.65303z" fill="#990f0f" stroke="none" stroke-width="0" stroke-linecap="butt"/><path d="M203.66398,169.70621c0,0 1.28518,-2.03441 2.27026,-3.13538c0.89519,-1.00052 3.22974,-2.86462 3.22974,-2.86462l5.16667,64.83333c0,0 -4.28134,-13.55387 -6.00017,-22.7926c-1.82978,-9.83506 -4.66649,-36.04073 -4.66649,-36.04073z" fill="#000000" stroke="#000000" stroke-width="0" stroke-linecap="round"/></g><path d="M202.2186,95.59255c0.25102,-1.69366 -1.46576,-23.21161 13.40374,-34.61902c0.64307,-0.49334 2.10363,-0.97172 2.10363,-0.97172c0,0 14.44393,-1.67235 22.46038,-1.98307c9.82599,-0.20112 16.00904,-2.48806 24.04964,3.16344c15.06672,10.58996 15.82055,29.97153 15.48124,35.02685c-0.37799,5.63151 -0.78601,12.45234 -0.06866,20.46083c0.30383,3.39199 0.34005,7.37333 -0.34491,11.3545c-1.5623,9.48098 -7.29782,17.22543 -7.29782,17.22543l-1.15522,-2.34735c0,0 -1.02266,2.19794 -2.16005,3.33274c-1.1374,1.13479 -3.43873,2.91273 -3.43873,2.91273l-0.09205,-3.70421c0,0 -7.0601,11.01795 -24.35066,10.87154c-16.30625,-0.25547 -26.07151,-10.6752 -26.07151,-10.6752l-0.1162,2.65484c0,0 -3.89477,-3.29276 -6.18145,-9.70754c-1.26387,-3.5455 -2.9565,-8.1355 -2.9565,-8.1355c0,0 -0.10818,1.55386 -0.07507,2.43336c0.0392,1.04143 0.29509,3.4119 0.29509,3.4119c0,0 -1.73295,-2.28046 -2.38548,-3.57557c-0.70441,-1.39808 -1.69723,-4.52766 -1.69723,-4.52766l-1.11627,2.105c0,0 -0.96383,-2.79457 -0.94448,-4.28995c0.02121,-1.63869 1.06668,-5.15166 1.06668,-5.15166l1.11584,-19.4164l-1.39889,3.77263c0,0 -0.70052,-3.29165 -0.26535,-4.88675c0.56976,-2.08844 2.14029,-4.73418 2.14029,-4.73418z" fill="#000000" stroke="none" stroke-width="1.5" stroke-linecap="butt"/><path d="M199.7145,121.52825c0,0 -0.36496,-5.83132 -0.00754,-9.53544c0.35742,-3.70413 1.84088,-9.46456 1.84088,-9.46456l12.03333,-14.25001l52.19379,-0.389l14.24662,11.6561c0,0 1.31563,6.62501 1.35517,10.91867c0.03954,4.29367 -1.16143,10.11577 -1.16143,10.11577l-18.86768,-6.97427l-43.66648,-0.41061z" fill="#740c0c" stroke="none" stroke-width="0" stroke-linecap="butt"/><path d="M219.00953,155.69785l-7.36109,-40.72914l-1.00347,-38.59235l6.04903,-16.34546l8.38773,-5.60918l28.99932,0.24009l8.27961,4.6638l6.02772,15.51122l-1.11489,40.65523l-7.22754,39.68648l-8.13546,5.60327l-25.16639,-0.0906z" fill="#2b2b2b" stroke="none" stroke-width="0" stroke-linecap="butt"/><path d="M230.27222,156.28134l0.25,-47.99999h18.95833l0.25,47.99999z" fill="#0c0c0c" stroke="url(#color-1)" stroke-width="1.5" stroke-linecap="butt"/><path d="M225.51022,85.97644c4.6653,-0.046 9.33477,8.46863 9.33477,8.46863c0,0 -4.94913,7.48374 -9.67989,7.53038c-4.73076,0.04664 -10.00144,-7.33635 -10.00144,-7.33635c0,0 5.68126,-8.61666 10.34656,-8.66266z" data-paper-data="{&quot;index&quot;:null}" fill="#000000" stroke="#000000" stroke-width="0" stroke-linecap="butt"/><g stroke="none" stroke-width="0" stroke-linecap="butt"><path d="M232.40033,94.05309c0,3.71183 -3.00901,6.72083 -6.72083,6.72083c-3.71183,0 -6.72083,-3.00901 -6.72083,-6.72083c0,-3.71183 3.00901,-6.72083 6.72083,-6.72083c3.71183,0 6.72083,3.00901 6.72083,6.72083z" fill="#740c0c"/><path d="M230.62501,94.05308c0,2.73134 -2.21419,4.94552 -4.94552,4.94552c-2.73134,0 -4.94551,-2.21419 -4.94551,-4.94552c0,-2.73134 2.21418,-4.94551 4.94551,-4.94551c2.73134,0 4.94552,2.21419 4.94552,4.94551z" fill="#990f0f"/><g fill="#b31212"><path d="M227.92069,96.95239l-5.39043,-5.37259l0.65521,-0.65737l5.39044,5.37259z"/><path d="M228.71477,91.72033l-5.40727,5.35565l-0.65312,-0.65942l5.40726,-5.35565z"/></g></g><path d="M264.84497,94.3891c0,0 -5.27067,7.38299 -10.00143,7.33635c-4.73076,-0.04664 -9.6799,-7.53038 -9.6799,-7.53038c0,0 4.66946,-8.51463 9.33477,-8.46863c4.6653,0.046 10.34656,8.66266 10.34656,8.66266z" data-paper-data="{&quot;index&quot;:null}" fill="#000000" stroke="#000000" stroke-width="0" stroke-linecap="butt"/><g stroke="none" stroke-width="0" stroke-linecap="butt"><path d="M261.40033,93.80726c0,3.71412 -3.01088,6.725 -6.725,6.725c-3.71412,0 -6.725,-3.01088 -6.725,-6.725c0,-3.71412 3.01088,-6.725 6.725,-6.725c3.71412,0 6.725,3.01088 6.725,6.725z" fill="#740c0c"/><path d="M259.62388,93.80725c0,2.73303 -2.21557,4.94858 -4.94858,4.94858c-2.73303,0 -4.94857,-2.21557 -4.94857,-4.94858c0,-2.73303 2.21554,-4.94857 4.94857,-4.94857c2.73303,0 4.94858,2.21557 4.94858,4.94857z" fill="#990f0f"/><g fill="#b31212"><path d="M256.91791,96.70836l-5.39376,-5.37593l0.6556,-0.65779l5.3938,5.37593z"/><path d="M257.71243,91.47304l-5.41063,5.35898l-0.65353,-0.65983l5.41062,-5.35898z"/></g></g><path d="M216.69399,60.3642l8.38773,-5.60919l28.99932,0.24009l8.27961,4.6638l6.02772,15.76122l-14.28895,-3.59364l-28.62611,-0.16183l-14.82834,4.29501z" fill="#3c3c3c" stroke="none" stroke-width="0" stroke-linecap="butt"/><path d="M211.73882,115.98149l5.33334,5l-2.66667,4.5l1.16667,1.83334l-1.16667,2.66666z" fill="#990f0f" stroke="#000000" stroke-width="0" stroke-linecap="round"/><path d="M264.57215,130.14817l-1.16667,-2.66666l1.16667,-1.83333l-2.66667,-4.5l5.33333,-5z" data-paper-data="{&quot;index&quot;:null}" fill="#990f0f" stroke="#000000" stroke-width="0" stroke-linecap="round"/><path d="M215.27315,126.31292c0,-13.54046 10.9767,-24.51716 24.51717,-24.51716c13.54047,0 24.51718,10.97671 24.51718,24.51717c0,13.54046 -10.97671,24.51719 -24.51718,24.51719c-13.54047,0 -24.51717,-10.97672 -24.51717,-24.51718z" fill="#4b4b4b" stroke="none" stroke-width="0" stroke-linecap="butt"/><g stroke="none" stroke-width="0" stroke-linecap="butt"><path d="M219.61744,126.4065c0,-11.00962 8.92505,-19.93467 19.93468,-19.93467c11.00962,0 19.93466,8.92505 19.93466,19.93467c0,11.00962 -8.92505,19.93467 -19.93466,19.93467c-11.00962,0 -19.93468,-8.92505 -19.93468,-19.93467z" fill="#990f0f"/><path d="M222.04603,124.58507c0,-9.66835 7.83774,-17.50608 17.50609,-17.50608c9.66835,0 17.50607,7.83773 17.50607,17.50608c0,9.66835 -7.83772,17.50608 -17.50607,17.50608c-9.66835,0 -17.50609,-7.83773 -17.50609,-17.50608z" fill="#b31212"/></g></g></g></svg>