<svg version="1.1" xmlns="http://www.w3.org/2000/svg" xmlns:xlink="http://www.w3.org/1999/xlink" width="92.56159" height="257.41158" viewBox="0,0,92.56159,257.41158"><defs><linearGradient x1="239.84452" y1="70.03803" x2="239.84452" y2="134.1974" gradientUnits="userSpaceOnUse" id="color-1"><stop offset="0" stop-color="#262626"/><stop offset="1" stop-color="#424242"/></linearGradient></defs><g transform="translate(-194.40899,-53.3875)"><g data-paper-data="{&quot;isPaintingLayer&quot;:true}" fill-rule="nonzero" stroke-linecap="butt" stroke-linejoin="miter" stroke-miterlimit="10" stroke-dasharray="" stroke-dashoffset="0" style="mix-blend-mode: normal"><path d="M194.40899,306.61251v-253.22501h91.18203v253.22501z" fill-opacity="0.01" fill="#000000" stroke="none" stroke-width="0"/><path d="M199.9097,308.39162c0,0 0.99658,-20.01353 0.39036,-40.57359c-0.40544,-13.75042 -2.57155,-33.53443 -3.17955,-47.92178c-0.70417,-16.66317 0.16961,-26.45289 0.11664,-34.04003c-0.03177,-4.55045 2.60117,-16.39261 10.63844,-25.23776c3.75469,-4.1321 15.08166,-10.24379 15.08166,-10.24379c0,0 7.82422,7.07158 10.33221,10.92121c2.64269,4.05639 6.47432,15.8293 6.47432,15.8293c0,0 3.71976,-11.89613 6.82968,-15.90354c3.00271,-3.86925 10.18617,-10.74099 10.18617,-10.74099c0,0 12.31756,7.31345 16.13462,12.18496c6.71994,8.57631 9.00683,18.82317 9.00257,22.66592c-0.01876,10.84544 1.21559,18.5757 0.88497,30.96803c-0.45629,17.10268 -4.03632,37.51406 -4.26186,52.01998c-0.31684,20.37759 1.40235,40.02153 1.40235,40.02153z" fill="#990f0f" stroke="#000000" stroke-width="0"/><path d="M239.76376,177.62521c0,0 3.71976,-11.89613 6.82968,-15.90354c3.00271,-3.86925 10.18617,-10.74099 10.18617,-10.74099c0,0 12.31756,7.31345 16.13462,12.18496c6.71994,8.57631 9.00683,18.82317 9.00257,22.66592c-0.01876,10.84544 1.21559,18.5757 0.88497,30.96803c-0.45629,17.10268 -3.53632,38.51406 -3.76186,53.01998c-0.31684,20.37759 0.90235,39.02153 0.90235,39.02153l-42.02089,0.02654z" fill="#8d0e0e" stroke="#000000" stroke-width="0"/><path d="M225.36588,165.69205v-25.37695h29.5v25.37695c0,0 -4.39516,11.90968 -15.0103,11.98969c-9.57638,0.07218 -14.4897,-11.98969 -14.4897,-11.98969z" fill="#252525" stroke="none" stroke-width="0"/><path d="M280.0105,119.35748v-31.24306h4.94939l2.01069,31.24306z" fill="#292929" stroke="none" stroke-width="NaN"/><path d="M196.73252,141.65024v-78.41699h86.7309v78.417z" fill="#353535" stroke="none" stroke-width="NaN"/><path d="M203.35478,134.1974v-64.15936h72.97946v64.15936z" fill="#0c0c0c" stroke="url(#color-1)" stroke-width="2"/><g fill="#161616" stroke="none" stroke-width="0.5"><path d="M206.20546,119.07039c0,-0.89436 0.72501,-1.61937 1.61936,-1.61937c0.89435,0 1.61936,0.72502 1.61936,1.61937c0,0.89436 -0.72501,1.61936 -1.61936,1.61936c-0.89435,0 -1.61936,-0.725 -1.61936,-1.61936z"/><path d="M211.60337,119.07039c0,-0.89436 0.72501,-1.61937 1.61937,-1.61937c0.89435,0 1.61937,0.72502 1.61937,1.61937c0,0.89436 -0.72502,1.61936 -1.61937,1.61936c-0.89435,0 -1.61937,-0.725 -1.61937,-1.61936z"/><path d="M216.93377,119.07039c0,-0.89436 0.72501,-1.61937 1.61936,-1.61937c0.89435,0 1.61936,0.72502 1.61936,1.61937c0,0.89436 -0.72501,1.61936 -1.61936,1.61936c-0.89435,0 -1.61936,-0.725 -1.61936,-1.61936z"/><path d="M222.33162,119.07039c0,-0.89436 0.72501,-1.61937 1.61936,-1.61937c0.89435,0 1.61936,0.72502 1.61936,1.61937c0,0.89436 -0.72501,1.61936 -1.61936,1.61936c-0.89435,0 -1.61936,-0.725 -1.61936,-1.61936z"/><path d="M227.45963,119.07039c0,-0.89436 0.72502,-1.61937 1.61937,-1.61937c0.89435,0 1.61936,0.72502 1.61936,1.61937c0,0.89436 -0.72501,1.61936 -1.61936,1.61936c-0.89435,0 -1.61937,-0.725 -1.61937,-1.61936z"/><path d="M232.8575,119.07039c0,-0.89436 0.72501,-1.61937 1.61936,-1.61937c0.89435,0 1.61936,0.72502 1.61936,1.61937c0,0.89436 -0.72501,1.61936 -1.61936,1.61936c-0.89435,0 -1.61936,-0.725 -1.61936,-1.61936z"/><path d="M238.18791,119.07039c0,-0.89436 0.72501,-1.61937 1.61936,-1.61937c0.89435,0 1.61937,0.72502 1.61937,1.61937c0,0.89436 -0.72501,1.61936 -1.61937,1.61936c-0.89435,0 -1.61936,-0.725 -1.61936,-1.61936z"/><path d="M243.58576,119.07039c0,-0.89436 0.72501,-1.61937 1.61936,-1.61937c0.89435,0 1.61936,0.72502 1.61936,1.61937c0,0.89436 -0.72501,1.61936 -1.61936,1.61936c-0.89435,0 -1.61936,-0.725 -1.61936,-1.61936z"/><path d="M248.91621,119.07039c0,-0.89436 0.72501,-1.61937 1.61936,-1.61937c0.89435,0 1.61936,0.72502 1.61936,1.61937c0,0.89436 -0.72501,1.61936 -1.61936,1.61936c-0.89435,0 -1.61936,-0.725 -1.61936,-1.61936z"/><path d="M254.31407,119.07039c0,-0.89436 0.72501,-1.61937 1.61937,-1.61937c0.89436,0 1.61936,0.72502 1.61936,1.61937c0,0.89436 -0.725,1.61936 -1.61936,1.61936c-0.89435,0 -1.61937,-0.725 -1.61937,-1.61936z"/><path d="M259.64448,119.07039c0,-0.89436 0.725,-1.61937 1.61936,-1.61937c0.89436,0 1.61937,0.72502 1.61937,1.61937c0,0.89436 -0.72501,1.61936 -1.61937,1.61936c-0.89436,0 -1.61936,-0.725 -1.61936,-1.61936z"/><path d="M265.04233,119.07039c0,-0.89436 0.72501,-1.61937 1.61937,-1.61937c0.89436,0 1.61936,0.72502 1.61936,1.61937c0,0.89436 -0.72501,1.61936 -1.61936,1.61936c-0.89436,0 -1.61937,-0.725 -1.61937,-1.61936z"/><path d="M270.40232,119.07039c0,-0.89436 0.72501,-1.61937 1.61936,-1.61937c0.89436,0 1.61936,0.72502 1.61936,1.61937c0,0.89436 -0.725,1.61936 -1.61936,1.61936c-0.89436,0 -1.61936,-0.725 -1.61936,-1.61936z"/><path d=""/><path d="M206.20546,114.2123c0,-0.89436 0.72501,-1.61936 1.61936,-1.61936c0.89435,0 1.61936,0.72501 1.61936,1.61936c0,0.89436 -0.72501,1.61937 -1.61936,1.61937c-0.89435,0 -1.61936,-0.72501 -1.61936,-1.61937z"/><path d="M211.60337,114.2123c0,-0.89436 0.72501,-1.61936 1.61937,-1.61936c0.89435,0 1.61937,0.72501 1.61937,1.61936c0,0.89436 -0.72502,1.61937 -1.61937,1.61937c-0.89435,0 -1.61937,-0.72501 -1.61937,-1.61937z"/><path d="M216.93377,114.2123c0,-0.89436 0.72501,-1.61936 1.61936,-1.61936c0.89435,0 1.61936,0.72501 1.61936,1.61936c0,0.89436 -0.72501,1.61937 -1.61936,1.61937c-0.89435,0 -1.61936,-0.72501 -1.61936,-1.61937z"/><path d="M222.33162,114.2123c0,-0.89436 0.72501,-1.61936 1.61936,-1.61936c0.89435,0 1.61936,0.72501 1.61936,1.61936c0,0.89436 -0.72501,1.61937 -1.61936,1.61937c-0.89435,0 -1.61936,-0.72501 -1.61936,-1.61937z"/><path d="M227.45963,114.2123c0,-0.89436 0.72502,-1.61936 1.61937,-1.61936c0.89435,0 1.61936,0.72501 1.61936,1.61936c0,0.89436 -0.72501,1.61937 -1.61936,1.61937c-0.89435,0 -1.61937,-0.72501 -1.61937,-1.61937z"/><path d="M232.8575,114.2123c0,-0.89436 0.72501,-1.61936 1.61936,-1.61936c0.89435,0 1.61936,0.72501 1.61936,1.61936c0,0.89436 -0.72501,1.61937 -1.61936,1.61937c-0.89435,0 -1.61936,-0.72501 -1.61936,-1.61937z"/><path d="M238.18791,114.2123c0,-0.89436 0.72501,-1.61936 1.61936,-1.61936c0.89435,0 1.61937,0.72501 1.61937,1.61936c0,0.89436 -0.72501,1.61937 -1.61937,1.61937c-0.89435,0 -1.61936,-0.72501 -1.61936,-1.61937z"/><path d="M243.58576,114.2123c0,-0.89436 0.72501,-1.61936 1.61936,-1.61936c0.89435,0 1.61936,0.72501 1.61936,1.61936c0,0.89436 -0.72501,1.61937 -1.61936,1.61937c-0.89435,0 -1.61936,-0.72501 -1.61936,-1.61937z"/><path d="M248.91621,114.2123c0,-0.89436 0.72501,-1.61936 1.61936,-1.61936c0.89435,0 1.61936,0.72501 1.61936,1.61936c0,0.89436 -0.72501,1.61937 -1.61936,1.61937c-0.89435,0 -1.61936,-0.72501 -1.61936,-1.61937z"/><path d="M254.31407,114.2123c0,-0.89436 0.72501,-1.61936 1.61937,-1.61936c0.89436,0 1.61936,0.72501 1.61936,1.61936c0,0.89436 -0.725,1.61937 -1.61936,1.61937c-0.89435,0 -1.61937,-0.72501 -1.61937,-1.61937z"/><path d="M259.64448,114.2123c0,-0.89436 0.725,-1.61936 1.61936,-1.61936c0.89436,0 1.61937,0.72501 1.61937,1.61936c0,0.89436 -0.72501,1.61937 -1.61937,1.61937c-0.89436,0 -1.61936,-0.72501 -1.61936,-1.61937z"/><path d="M265.04233,114.2123c0,-0.89436 0.72501,-1.61936 1.61937,-1.61936c0.89436,0 1.61937,0.72501 1.61937,1.61936c0,0.89436 -0.72501,1.61937 -1.61937,1.61937c-0.89436,0 -1.61937,-0.72501 -1.61937,-1.61937z"/><path d="M270.40232,114.2123c0,-0.89436 0.72501,-1.61936 1.61936,-1.61936c0.89436,0 1.61936,0.72501 1.61936,1.61936c0,0.89436 -0.725,1.61937 -1.61936,1.61937c-0.89436,0 -1.61936,-0.72501 -1.61936,-1.61937z"/><path d=""/><path d="M206.20546,128.78658c0,-0.89436 0.72501,-1.61936 1.61936,-1.61936c0.89435,0 1.61936,0.72501 1.61936,1.61936c0,0.89435 -0.72501,1.61936 -1.61936,1.61936c-0.89435,0 -1.61936,-0.72501 -1.61936,-1.61936z"/><path d="M211.60337,128.78658c0,-0.89436 0.72501,-1.61936 1.61937,-1.61936c0.89435,0 1.61937,0.72501 1.61937,1.61936c0,0.89435 -0.72502,1.61936 -1.61937,1.61936c-0.89435,0 -1.61937,-0.72501 -1.61937,-1.61936z"/><path d="M216.93377,128.78658c0,-0.89436 0.72501,-1.61936 1.61936,-1.61936c0.89435,0 1.61936,0.72501 1.61936,1.61936c0,0.89435 -0.72501,1.61936 -1.61936,1.61936c-0.89435,0 -1.61936,-0.72501 -1.61936,-1.61936z"/><path d="M222.33162,128.78658c0,-0.89436 0.72501,-1.61936 1.61936,-1.61936c0.89435,0 1.61936,0.72501 1.61936,1.61936c0,0.89435 -0.72501,1.61936 -1.61936,1.61936c-0.89435,0 -1.61936,-0.72501 -1.61936,-1.61936z"/><path d="M227.45963,128.78658c0,-0.89436 0.72502,-1.61936 1.61937,-1.61936c0.89435,0 1.61936,0.72501 1.61936,1.61936c0,0.89435 -0.72501,1.61936 -1.61936,1.61936c-0.89435,0 -1.61937,-0.72501 -1.61937,-1.61936z"/><path d="M232.8575,128.78658c0,-0.89436 0.72501,-1.61936 1.61936,-1.61936c0.89435,0 1.61936,0.72501 1.61936,1.61936c0,0.89435 -0.72501,1.61936 -1.61936,1.61936c-0.89435,0 -1.61936,-0.72501 -1.61936,-1.61936z"/><path d="M238.18791,128.78658c0,-0.89436 0.72501,-1.61936 1.61936,-1.61936c0.89435,0 1.61937,0.72501 1.61937,1.61936c0,0.89435 -0.72501,1.61936 -1.61937,1.61936c-0.89435,0 -1.61936,-0.72501 -1.61936,-1.61936z"/><path d="M243.58576,128.78658c0,-0.89436 0.72501,-1.61936 1.61936,-1.61936c0.89435,0 1.61936,0.72501 1.61936,1.61936c0,0.89435 -0.72501,1.61936 -1.61936,1.61936c-0.89435,0 -1.61936,-0.72501 -1.61936,-1.61936z"/><path d="M248.91621,128.78658c0,-0.89436 0.72501,-1.61936 1.61936,-1.61936c0.89435,0 1.61936,0.72501 1.61936,1.61936c0,0.89435 -0.72501,1.61936 -1.61936,1.61936c-0.89435,0 -1.61936,-0.72501 -1.61936,-1.61936z"/><path d="M254.31407,128.78658c0,-0.89436 0.72501,-1.61936 1.61937,-1.61936c0.89436,0 1.61936,0.72501 1.61936,1.61936c0,0.89435 -0.725,1.61936 -1.61936,1.61936c-0.89435,0 -1.61937,-0.72501 -1.61937,-1.61936z"/><path d="M259.64448,128.78658c0,-0.89436 0.725,-1.61936 1.61936,-1.61936c0.89436,0 1.61937,0.72501 1.61937,1.61936c0,0.89435 -0.72501,1.61936 -1.61937,1.61936c-0.89436,0 -1.61936,-0.72501 -1.61936,-1.61936z"/><path d="M265.04233,128.78658c0,-0.89436 0.72501,-1.61936 1.61937,-1.61936c0.89436,0 1.61936,0.72501 1.61936,1.61936c0,0.89435 -0.72501,1.61936 -1.61936,1.61936c-0.89436,0 -1.61937,-0.72501 -1.61937,-1.61936z"/><path d="M270.40232,128.78658c0,-0.89436 0.72501,-1.61936 1.61936,-1.61936c0.89436,0 1.61936,0.72501 1.61936,1.61936c0,0.89435 -0.725,1.61936 -1.61936,1.61936c-0.89436,0 -1.61936,-0.72501 -1.61936,-1.61936z"/><path d=""/><path d="M206.20546,123.92848c0,-0.89436 0.72501,-1.61937 1.61936,-1.61937c0.89435,0 1.61936,0.72501 1.61936,1.61937c0,0.89436 -0.72501,1.61936 -1.61936,1.61936c-0.89435,0 -1.61936,-0.725 -1.61936,-1.61936z"/><path d="M211.60337,123.92848c0,-0.89436 0.72501,-1.61937 1.61937,-1.61937c0.89435,0 1.61937,0.72501 1.61937,1.61937c0,0.89436 -0.72502,1.61936 -1.61937,1.61936c-0.89435,0 -1.61937,-0.725 -1.61937,-1.61936z"/><path d="M216.93377,123.92848c0,-0.89436 0.72501,-1.61937 1.61936,-1.61937c0.89435,0 1.61936,0.72501 1.61936,1.61937c0,0.89436 -0.72501,1.61936 -1.61936,1.61936c-0.89435,0 -1.61936,-0.725 -1.61936,-1.61936z"/><path d="M222.33162,123.92848c0,-0.89436 0.72501,-1.61937 1.61936,-1.61937c0.89435,0 1.61936,0.72501 1.61936,1.61937c0,0.89436 -0.72501,1.61936 -1.61936,1.61936c-0.89435,0 -1.61936,-0.725 -1.61936,-1.61936z"/><path d="M227.45963,123.92848c0,-0.89436 0.72502,-1.61937 1.61937,-1.61937c0.89435,0 1.61936,0.72501 1.61936,1.61937c0,0.89436 -0.72501,1.61936 -1.61936,1.61936c-0.89435,0 -1.61937,-0.725 -1.61937,-1.61936z"/><path d="M232.8575,123.92848c0,-0.89436 0.72501,-1.61937 1.61936,-1.61937c0.89435,0 1.61936,0.72501 1.61936,1.61937c0,0.89436 -0.72501,1.61936 -1.61936,1.61936c-0.89435,0 -1.61936,-0.725 -1.61936,-1.61936z"/><path d="M238.18791,123.92848c0,-0.89436 0.72501,-1.61937 1.61936,-1.61937c0.89435,0 1.61937,0.72501 1.61937,1.61937c0,0.89436 -0.72501,1.61936 -1.61937,1.61936c-0.89435,0 -1.61936,-0.725 -1.61936,-1.61936z"/><path d="M243.58576,123.92848c0,-0.89436 0.72501,-1.61937 1.61936,-1.61937c0.89435,0 1.61936,0.72501 1.61936,1.61937c0,0.89436 -0.72501,1.61936 -1.61936,1.61936c-0.89435,0 -1.61936,-0.725 -1.61936,-1.61936z"/><path d="M248.91621,123.92848c0,-0.89436 0.72501,-1.61937 1.61936,-1.61937c0.89435,0 1.61936,0.72501 1.61936,1.61937c0,0.89436 -0.72501,1.61936 -1.61936,1.61936c-0.89435,0 -1.61936,-0.725 -1.61936,-1.61936z"/><path d="M254.31407,123.92848c0,-0.89436 0.72501,-1.61937 1.61937,-1.61937c0.89436,0 1.61936,0.72501 1.61936,1.61937c0,0.89436 -0.725,1.61936 -1.61936,1.61936c-0.89435,0 -1.61937,-0.725 -1.61937,-1.61936z"/><path d="M259.64448,123.92848c0,-0.89436 0.725,-1.61937 1.61936,-1.61937c0.89436,0 1.61937,0.72501 1.61937,1.61937c0,0.89436 -0.72501,1.61936 -1.61937,1.61936c-0.89436,0 -1.61936,-0.725 -1.61936,-1.61936z"/><path d="M265.04233,123.92848c0,-0.89436 0.72501,-1.61937 1.61937,-1.61937c0.89436,0 1.61937,0.72501 1.61937,1.61937c0,0.89436 -0.72501,1.61936 -1.61937,1.61936c-0.89436,0 -1.61937,-0.725 -1.61937,-1.61936z"/><path d="M270.40232,123.92848c0,-0.89436 0.72501,-1.61937 1.61936,-1.61937c0.89436,0 1.61936,0.72501 1.61936,1.61937c0,0.89436 -0.725,1.61936 -1.61936,1.61936c-0.89436,0 -1.61936,-0.725 -1.61936,-1.61936z"/><path d=""/><path d="M206.20546,109.1518c0,-0.89436 0.72501,-1.61936 1.61936,-1.61936c0.89435,0 1.61936,0.72501 1.61936,1.61936c0,0.89436 -0.72501,1.61936 -1.61936,1.61936c-0.89435,0 -1.61936,-0.725 -1.61936,-1.61936z"/><path d="M211.60337,109.1518c0,-0.89436 0.72501,-1.61936 1.61937,-1.61936c0.89435,0 1.61937,0.72501 1.61937,1.61936c0,0.89436 -0.72502,1.61936 -1.61937,1.61936c-0.89435,0 -1.61937,-0.725 -1.61937,-1.61936z"/><path d="M216.93377,109.1518c0,-0.89436 0.72501,-1.61936 1.61936,-1.61936c0.89435,0 1.61936,0.72501 1.61936,1.61936c0,0.89436 -0.72501,1.61936 -1.61936,1.61936c-0.89435,0 -1.61936,-0.725 -1.61936,-1.61936z"/><path d="M222.33162,109.1518c0,-0.89436 0.72501,-1.61936 1.61936,-1.61936c0.89435,0 1.61936,0.72501 1.61936,1.61936c0,0.89436 -0.72501,1.61936 -1.61936,1.61936c-0.89435,0 -1.61936,-0.725 -1.61936,-1.61936z"/><path d="M227.45963,109.1518c0,-0.89436 0.72502,-1.61936 1.61937,-1.61936c0.89435,0 1.61936,0.72501 1.61936,1.61936c0,0.89436 -0.72501,1.61936 -1.61936,1.61936c-0.89435,0 -1.61937,-0.725 -1.61937,-1.61936z"/><path d="M232.8575,109.1518c0,-0.89436 0.72501,-1.61936 1.61936,-1.61936c0.89435,0 1.61936,0.72501 1.61936,1.61936c0,0.89436 -0.72501,1.61936 -1.61936,1.61936c-0.89435,0 -1.61936,-0.725 -1.61936,-1.61936z"/><path d="M238.18791,109.1518c0,-0.89436 0.72501,-1.61936 1.61936,-1.61936c0.89435,0 1.61937,0.72501 1.61937,1.61936c0,0.89436 -0.72501,1.61936 -1.61937,1.61936c-0.89435,0 -1.61936,-0.725 -1.61936,-1.61936z"/><path d="M243.58576,109.1518c0,-0.89436 0.72501,-1.61936 1.61936,-1.61936c0.89435,0 1.61936,0.72501 1.61936,1.61936c0,0.89436 -0.72501,1.61936 -1.61936,1.61936c-0.89435,0 -1.61936,-0.725 -1.61936,-1.61936z"/><path d="M248.91621,109.1518c0,-0.89436 0.72501,-1.61936 1.61936,-1.61936c0.89435,0 1.61936,0.72501 1.61936,1.61936c0,0.89436 -0.72501,1.61936 -1.61936,1.61936c-0.89435,0 -1.61936,-0.725 -1.61936,-1.61936z"/><path d="M254.31407,109.1518c0,-0.89436 0.72501,-1.61936 1.61937,-1.61936c0.89436,0 1.61936,0.72501 1.61936,1.61936c0,0.89436 -0.725,1.61936 -1.61936,1.61936c-0.89435,0 -1.61937,-0.725 -1.61937,-1.61936z"/><path d="M259.64448,109.1518c0,-0.89436 0.725,-1.61936 1.61936,-1.61936c0.89436,0 1.61937,0.72501 1.61937,1.61936c0,0.89436 -0.72501,1.61936 -1.61937,1.61936c-0.89436,0 -1.61936,-0.725 -1.61936,-1.61936z"/><path d="M265.04233,109.1518c0,-0.89436 0.72501,-1.61936 1.61937,-1.61936c0.89436,0 1.61936,0.72501 1.61936,1.61936c0,0.89436 -0.72501,1.61936 -1.61936,1.61936c-0.89436,0 -1.61937,-0.725 -1.61937,-1.61936z"/><path d="M270.40232,109.1518c0,-0.89436 0.72501,-1.61936 1.61936,-1.61936c0.89436,0 1.61936,0.72501 1.61936,1.61936c0,0.89436 -0.725,1.61936 -1.61936,1.61936c-0.89436,0 -1.61936,-0.725 -1.61936,-1.61936z"/><path d=""/><path d="M206.20546,104.29369c0,-0.89436 0.72501,-1.61936 1.61936,-1.61936c0.89435,0 1.61936,0.725 1.61936,1.61936c0,0.89436 -0.72501,1.61936 -1.61936,1.61936c-0.89435,0 -1.61936,-0.72501 -1.61936,-1.61936z"/><path d="M211.60337,104.29369c0,-0.89436 0.72501,-1.61936 1.61937,-1.61936c0.89435,0 1.61937,0.725 1.61937,1.61936c0,0.89436 -0.72502,1.61936 -1.61937,1.61936c-0.89435,0 -1.61937,-0.72501 -1.61937,-1.61936z"/><path d="M216.93377,104.29369c0,-0.89436 0.72501,-1.61936 1.61936,-1.61936c0.89435,0 1.61936,0.725 1.61936,1.61936c0,0.89436 -0.72501,1.61936 -1.61936,1.61936c-0.89435,0 -1.61936,-0.72501 -1.61936,-1.61936z"/><path d="M222.33162,104.29369c0,-0.89436 0.72501,-1.61936 1.61936,-1.61936c0.89435,0 1.61936,0.725 1.61936,1.61936c0,0.89436 -0.72501,1.61936 -1.61936,1.61936c-0.89435,0 -1.61936,-0.72501 -1.61936,-1.61936z"/><path d="M227.45963,104.29369c0,-0.89436 0.72502,-1.61936 1.61937,-1.61936c0.89435,0 1.61936,0.725 1.61936,1.61936c0,0.89436 -0.72501,1.61936 -1.61936,1.61936c-0.89435,0 -1.61937,-0.72501 -1.61937,-1.61936z"/><path d="M232.8575,104.29369c0,-0.89436 0.72501,-1.61936 1.61936,-1.61936c0.89435,0 1.61936,0.725 1.61936,1.61936c0,0.89436 -0.72501,1.61936 -1.61936,1.61936c-0.89435,0 -1.61936,-0.72501 -1.61936,-1.61936z"/><path d="M238.18791,104.29369c0,-0.89436 0.72501,-1.61936 1.61936,-1.61936c0.89435,0 1.61937,0.725 1.61937,1.61936c0,0.89436 -0.72501,1.61936 -1.61937,1.61936c-0.89435,0 -1.61936,-0.72501 -1.61936,-1.61936z"/><path d="M243.58576,104.29369c0,-0.89436 0.72501,-1.61936 1.61936,-1.61936c0.89435,0 1.61936,0.725 1.61936,1.61936c0,0.89436 -0.72501,1.61936 -1.61936,1.61936c-0.89435,0 -1.61936,-0.72501 -1.61936,-1.61936z"/><path d="M248.91621,104.29369c0,-0.89436 0.72501,-1.61936 1.61936,-1.61936c0.89435,0 1.61936,0.725 1.61936,1.61936c0,0.89436 -0.72501,1.61936 -1.61936,1.61936c-0.89435,0 -1.61936,-0.72501 -1.61936,-1.61936z"/><path d="M254.31407,104.29369c0,-0.89436 0.72501,-1.61936 1.61937,-1.61936c0.89436,0 1.61936,0.725 1.61936,1.61936c0,0.89436 -0.725,1.61936 -1.61936,1.61936c-0.89435,0 -1.61937,-0.72501 -1.61937,-1.61936z"/><path d="M259.64448,104.29369c0,-0.89436 0.725,-1.61936 1.61936,-1.61936c0.89436,0 1.61937,0.725 1.61937,1.61936c0,0.89436 -0.72501,1.61936 -1.61937,1.61936c-0.89436,0 -1.61936,-0.72501 -1.61936,-1.61936z"/><path d="M265.04233,104.29369c0,-0.89436 0.72501,-1.61936 1.61937,-1.61936c0.89436,0 1.61937,0.725 1.61937,1.61936c0,0.89436 -0.72501,1.61936 -1.61937,1.61936c-0.89436,0 -1.61937,-0.72501 -1.61937,-1.61936z"/><path d="M270.40232,104.29369c0,-0.89436 0.72501,-1.61936 1.61936,-1.61936c0.89436,0 1.61936,0.725 1.61936,1.61936c0,0.89436 -0.725,1.61936 -1.61936,1.61936c-0.89436,0 -1.61936,-0.72501 -1.61936,-1.61936z"/><path d=""/><path d="M206.20546,89.65193c0,-0.89436 0.72501,-1.61937 1.61936,-1.61937c0.89435,0 1.61936,0.72501 1.61936,1.61937c0,0.89436 -0.72501,1.61936 -1.61936,1.61936c-0.89435,0 -1.61936,-0.72501 -1.61936,-1.61936z"/><path d="M211.60337,89.65193c0,-0.89436 0.72501,-1.61937 1.61937,-1.61937c0.89435,0 1.61937,0.72501 1.61937,1.61937c0,0.89436 -0.72502,1.61936 -1.61937,1.61936c-0.89435,0 -1.61937,-0.72501 -1.61937,-1.61936z"/><path d="M216.93377,89.65193c0,-0.89436 0.72501,-1.61937 1.61936,-1.61937c0.89435,0 1.61936,0.72501 1.61936,1.61937c0,0.89436 -0.72501,1.61936 -1.61936,1.61936c-0.89435,0 -1.61936,-0.72501 -1.61936,-1.61936z"/><path d="M222.33162,89.65193c0,-0.89436 0.72501,-1.61937 1.61936,-1.61937c0.89435,0 1.61936,0.72501 1.61936,1.61937c0,0.89436 -0.72501,1.61936 -1.61936,1.61936c-0.89435,0 -1.61936,-0.72501 -1.61936,-1.61936z"/><path d="M227.45963,89.65193c0,-0.89436 0.72502,-1.61937 1.61937,-1.61937c0.89435,0 1.61936,0.72501 1.61936,1.61937c0,0.89436 -0.72501,1.61936 -1.61936,1.61936c-0.89435,0 -1.61937,-0.72501 -1.61937,-1.61936z"/><path d="M232.8575,89.65193c0,-0.89436 0.72501,-1.61937 1.61936,-1.61937c0.89435,0 1.61936,0.72501 1.61936,1.61937c0,0.89436 -0.72501,1.61936 -1.61936,1.61936c-0.89435,0 -1.61936,-0.72501 -1.61936,-1.61936z"/><path d="M238.18791,89.65193c0,-0.89436 0.72501,-1.61937 1.61936,-1.61937c0.89435,0 1.61937,0.72501 1.61937,1.61937c0,0.89436 -0.72501,1.61936 -1.61937,1.61936c-0.89435,0 -1.61936,-0.72501 -1.61936,-1.61936z"/><path d="M243.58576,89.65193c0,-0.89436 0.72501,-1.61937 1.61936,-1.61937c0.89435,0 1.61936,0.72501 1.61936,1.61937c0,0.89436 -0.72501,1.61936 -1.61936,1.61936c-0.89435,0 -1.61936,-0.72501 -1.61936,-1.61936z"/><path d="M248.91621,89.65193c0,-0.89436 0.72501,-1.61937 1.61936,-1.61937c0.89435,0 1.61936,0.72501 1.61936,1.61937c0,0.89436 -0.72501,1.61936 -1.61936,1.61936c-0.89435,0 -1.61936,-0.72501 -1.61936,-1.61936z"/><path d="M254.31407,89.65193c0,-0.89436 0.72501,-1.61937 1.61937,-1.61937c0.89436,0 1.61936,0.72501 1.61936,1.61937c0,0.89436 -0.725,1.61936 -1.61936,1.61936c-0.89435,0 -1.61937,-0.72501 -1.61937,-1.61936z"/><path d="M259.64448,89.65193c0,-0.89436 0.725,-1.61937 1.61936,-1.61937c0.89436,0 1.61937,0.72501 1.61937,1.61937c0,0.89436 -0.72501,1.61936 -1.61937,1.61936c-0.89436,0 -1.61936,-0.72501 -1.61936,-1.61936z"/><path d="M265.04233,89.65193c0,-0.89436 0.72501,-1.61937 1.61937,-1.61937c0.89436,0 1.61936,0.72501 1.61936,1.61937c0,0.89436 -0.72501,1.61936 -1.61936,1.61936c-0.89436,0 -1.61937,-0.72501 -1.61937,-1.61936z"/><path d="M270.40232,89.65193c0,-0.89436 0.72501,-1.61937 1.61936,-1.61937c0.89436,0 1.61936,0.72501 1.61936,1.61937c0,0.89436 -0.725,1.61936 -1.61936,1.61936c-0.89436,0 -1.61936,-0.72501 -1.61936,-1.61936z"/><path d=""/><path d="M206.20546,84.79386c0,-0.89436 0.72501,-1.61937 1.61936,-1.61937c0.89435,0 1.61936,0.72501 1.61936,1.61937c0,0.89436 -0.72501,1.61936 -1.61936,1.61936c-0.89435,0 -1.61936,-0.725 -1.61936,-1.61936z"/><path d="M211.60337,84.79386c0,-0.89436 0.72501,-1.61937 1.61937,-1.61937c0.89435,0 1.61937,0.72501 1.61937,1.61937c0,0.89436 -0.72502,1.61936 -1.61937,1.61936c-0.89435,0 -1.61937,-0.725 -1.61937,-1.61936z"/><path d="M216.93377,84.79386c0,-0.89436 0.72501,-1.61937 1.61936,-1.61937c0.89435,0 1.61936,0.72501 1.61936,1.61937c0,0.89436 -0.72501,1.61936 -1.61936,1.61936c-0.89435,0 -1.61936,-0.725 -1.61936,-1.61936z"/><path d="M222.33162,84.79386c0,-0.89436 0.72501,-1.61937 1.61936,-1.61937c0.89435,0 1.61936,0.72501 1.61936,1.61937c0,0.89436 -0.72501,1.61936 -1.61936,1.61936c-0.89435,0 -1.61936,-0.725 -1.61936,-1.61936z"/><path d="M227.45963,84.79386c0,-0.89436 0.72502,-1.61937 1.61937,-1.61937c0.89435,0 1.61936,0.72501 1.61936,1.61937c0,0.89436 -0.72501,1.61936 -1.61936,1.61936c-0.89435,0 -1.61937,-0.725 -1.61937,-1.61936z"/><path d="M232.8575,84.79386c0,-0.89436 0.72501,-1.61937 1.61936,-1.61937c0.89435,0 1.61936,0.72501 1.61936,1.61937c0,0.89436 -0.72501,1.61936 -1.61936,1.61936c-0.89435,0 -1.61936,-0.725 -1.61936,-1.61936z"/><path d="M238.18791,84.79386c0,-0.89436 0.72501,-1.61937 1.61936,-1.61937c0.89435,0 1.61937,0.72501 1.61937,1.61937c0,0.89436 -0.72501,1.61936 -1.61937,1.61936c-0.89435,0 -1.61936,-0.725 -1.61936,-1.61936z"/><path d="M243.58576,84.79386c0,-0.89436 0.72501,-1.61937 1.61936,-1.61937c0.89435,0 1.61936,0.72501 1.61936,1.61937c0,0.89436 -0.72501,1.61936 -1.61936,1.61936c-0.89435,0 -1.61936,-0.725 -1.61936,-1.61936z"/><path d="M248.91621,84.79386c0,-0.89436 0.72501,-1.61937 1.61936,-1.61937c0.89435,0 1.61936,0.72501 1.61936,1.61937c0,0.89436 -0.72501,1.61936 -1.61936,1.61936c-0.89435,0 -1.61936,-0.725 -1.61936,-1.61936z"/><path d="M254.31407,84.79386c0,-0.89436 0.72501,-1.61937 1.61937,-1.61937c0.89436,0 1.61936,0.72501 1.61936,1.61937c0,0.89436 -0.725,1.61936 -1.61936,1.61936c-0.89435,0 -1.61937,-0.725 -1.61937,-1.61936z"/><path d="M259.64448,84.79386c0,-0.89436 0.725,-1.61937 1.61936,-1.61937c0.89436,0 1.61937,0.72501 1.61937,1.61937c0,0.89436 -0.72501,1.61936 -1.61937,1.61936c-0.89436,0 -1.61936,-0.725 -1.61936,-1.61936z"/><path d="M265.04233,84.79386c0,-0.89436 0.72501,-1.61937 1.61937,-1.61937c0.89436,0 1.61937,0.72501 1.61937,1.61937c0,0.89436 -0.72501,1.61936 -1.61937,1.61936c-0.89436,0 -1.61937,-0.725 -1.61937,-1.61936z"/><path d="M270.40232,84.79386c0,-0.89436 0.72501,-1.61937 1.61936,-1.61937c0.89436,0 1.61936,0.72501 1.61936,1.61937c0,0.89436 -0.725,1.61936 -1.61936,1.61936c-0.89436,0 -1.61936,-0.725 -1.61936,-1.61936z"/><path d=""/><path d="M206.20546,99.36813c0,-0.89436 0.72501,-1.61937 1.61936,-1.61937c0.89435,0 1.61936,0.72501 1.61936,1.61937c0,0.89436 -0.72501,1.61936 -1.61936,1.61936c-0.89435,0 -1.61936,-0.72501 -1.61936,-1.61936z"/><path d="M211.60337,99.36813c0,-0.89436 0.72501,-1.61937 1.61937,-1.61937c0.89435,0 1.61937,0.72501 1.61937,1.61937c0,0.89436 -0.72502,1.61936 -1.61937,1.61936c-0.89435,0 -1.61937,-0.72501 -1.61937,-1.61936z"/><path d="M216.93377,99.36813c0,-0.89436 0.72501,-1.61937 1.61936,-1.61937c0.89435,0 1.61936,0.72501 1.61936,1.61937c0,0.89436 -0.72501,1.61936 -1.61936,1.61936c-0.89435,0 -1.61936,-0.72501 -1.61936,-1.61936z"/><path d="M222.33162,99.36813c0,-0.89436 0.72501,-1.61937 1.61936,-1.61937c0.89435,0 1.61936,0.72501 1.61936,1.61937c0,0.89436 -0.72501,1.61936 -1.61936,1.61936c-0.89435,0 -1.61936,-0.72501 -1.61936,-1.61936z"/><path d="M227.45963,99.36813c0,-0.89436 0.72502,-1.61937 1.61937,-1.61937c0.89435,0 1.61936,0.72501 1.61936,1.61937c0,0.89436 -0.72501,1.61936 -1.61936,1.61936c-0.89435,0 -1.61937,-0.72501 -1.61937,-1.61936z"/><path d="M232.8575,99.36813c0,-0.89436 0.72501,-1.61937 1.61936,-1.61937c0.89435,0 1.61936,0.72501 1.61936,1.61937c0,0.89436 -0.72501,1.61936 -1.61936,1.61936c-0.89435,0 -1.61936,-0.72501 -1.61936,-1.61936z"/><path d="M238.18791,99.36813c0,-0.89436 0.72501,-1.61937 1.61936,-1.61937c0.89435,0 1.61937,0.72501 1.61937,1.61937c0,0.89436 -0.72501,1.61936 -1.61937,1.61936c-0.89435,0 -1.61936,-0.72501 -1.61936,-1.61936z"/><path d="M243.58576,99.36813c0,-0.89436 0.72501,-1.61937 1.61936,-1.61937c0.89435,0 1.61936,0.72501 1.61936,1.61937c0,0.89436 -0.72501,1.61936 -1.61936,1.61936c-0.89435,0 -1.61936,-0.72501 -1.61936,-1.61936z"/><path d="M248.91621,99.36813c0,-0.89436 0.72501,-1.61937 1.61936,-1.61937c0.89435,0 1.61936,0.72501 1.61936,1.61937c0,0.89436 -0.72501,1.61936 -1.61936,1.61936c-0.89435,0 -1.61936,-0.72501 -1.61936,-1.61936z"/><path d="M254.31407,99.36813c0,-0.89436 0.72501,-1.61937 1.61937,-1.61937c0.89436,0 1.61936,0.72501 1.61936,1.61937c0,0.89436 -0.725,1.61936 -1.61936,1.61936c-0.89435,0 -1.61937,-0.72501 -1.61937,-1.61936z"/><path d="M259.64448,99.36813c0,-0.89436 0.725,-1.61937 1.61936,-1.61937c0.89436,0 1.61937,0.72501 1.61937,1.61937c0,0.89436 -0.72501,1.61936 -1.61937,1.61936c-0.89436,0 -1.61936,-0.72501 -1.61936,-1.61936z"/><path d="M265.04233,99.36813c0,-0.89436 0.72501,-1.61937 1.61937,-1.61937c0.89436,0 1.61936,0.72501 1.61936,1.61937c0,0.89436 -0.72501,1.61936 -1.61936,1.61936c-0.89436,0 -1.61937,-0.72501 -1.61937,-1.61936z"/><path d="M270.40232,99.36813c0,-0.89436 0.72501,-1.61937 1.61936,-1.61937c0.89436,0 1.61936,0.72501 1.61936,1.61937c0,0.89436 -0.725,1.61936 -1.61936,1.61936c-0.89436,0 -1.61936,-0.72501 -1.61936,-1.61936z"/><path d=""/><path d="M206.20546,94.51003c0,-0.89436 0.72501,-1.61937 1.61936,-1.61937c0.89435,0 1.61936,0.72502 1.61936,1.61937c0,0.89436 -0.72501,1.61936 -1.61936,1.61936c-0.89435,0 -1.61936,-0.725 -1.61936,-1.61936z"/><path d="M211.60337,94.51003c0,-0.89436 0.72501,-1.61937 1.61937,-1.61937c0.89435,0 1.61937,0.72502 1.61937,1.61937c0,0.89436 -0.72502,1.61936 -1.61937,1.61936c-0.89435,0 -1.61937,-0.725 -1.61937,-1.61936z"/><path d="M216.93377,94.51003c0,-0.89436 0.72501,-1.61937 1.61936,-1.61937c0.89435,0 1.61936,0.72502 1.61936,1.61937c0,0.89436 -0.72501,1.61936 -1.61936,1.61936c-0.89435,0 -1.61936,-0.725 -1.61936,-1.61936z"/><path d="M222.33162,94.51003c0,-0.89436 0.72501,-1.61937 1.61936,-1.61937c0.89435,0 1.61936,0.72502 1.61936,1.61937c0,0.89436 -0.72501,1.61936 -1.61936,1.61936c-0.89435,0 -1.61936,-0.725 -1.61936,-1.61936z"/><path d="M227.45963,94.51003c0,-0.89436 0.72502,-1.61937 1.61937,-1.61937c0.89435,0 1.61936,0.72502 1.61936,1.61937c0,0.89436 -0.72501,1.61936 -1.61936,1.61936c-0.89435,0 -1.61937,-0.725 -1.61937,-1.61936z"/><path d="M232.8575,94.51003c0,-0.89436 0.72501,-1.61937 1.61936,-1.61937c0.89435,0 1.61936,0.72502 1.61936,1.61937c0,0.89436 -0.72501,1.61936 -1.61936,1.61936c-0.89435,0 -1.61936,-0.725 -1.61936,-1.61936z"/><path d="M238.18791,94.51003c0,-0.89436 0.72501,-1.61937 1.61936,-1.61937c0.89435,0 1.61937,0.72502 1.61937,1.61937c0,0.89436 -0.72501,1.61936 -1.61937,1.61936c-0.89435,0 -1.61936,-0.725 -1.61936,-1.61936z"/><path d="M243.58576,94.51003c0,-0.89436 0.72501,-1.61937 1.61936,-1.61937c0.89435,0 1.61936,0.72502 1.61936,1.61937c0,0.89436 -0.72501,1.61936 -1.61936,1.61936c-0.89435,0 -1.61936,-0.725 -1.61936,-1.61936z"/><path d="M248.91621,94.51003c0,-0.89436 0.72501,-1.61937 1.61936,-1.61937c0.89435,0 1.61936,0.72502 1.61936,1.61937c0,0.89436 -0.72501,1.61936 -1.61936,1.61936c-0.89435,0 -1.61936,-0.725 -1.61936,-1.61936z"/><path d="M254.31407,94.51003c0,-0.89436 0.72501,-1.61937 1.61937,-1.61937c0.89436,0 1.61936,0.72502 1.61936,1.61937c0,0.89436 -0.725,1.61936 -1.61936,1.61936c-0.89435,0 -1.61937,-0.725 -1.61937,-1.61936z"/><path d="M259.64448,94.51003c0,-0.89436 0.725,-1.61937 1.61936,-1.61937c0.89436,0 1.61937,0.72502 1.61937,1.61937c0,0.89436 -0.72501,1.61936 -1.61937,1.61936c-0.89436,0 -1.61936,-0.725 -1.61936,-1.61936z"/><path d="M265.04233,94.51003c0,-0.89436 0.72501,-1.61937 1.61937,-1.61937c0.89436,0 1.61937,0.72502 1.61937,1.61937c0,0.89436 -0.72501,1.61936 -1.61937,1.61936c-0.89436,0 -1.61937,-0.725 -1.61937,-1.61936z"/><path d="M270.40232,94.51003c0,-0.89436 0.72501,-1.61937 1.61936,-1.61937c0.89436,0 1.61936,0.72502 1.61936,1.61937c0,0.89436 -0.725,1.61936 -1.61936,1.61936c-0.89436,0 -1.61936,-0.725 -1.61936,-1.61936z"/><path d=""/><path d="M206.20546,79.73333c0,-0.89436 0.72501,-1.61936 1.61936,-1.61936c0.89435,0 1.61936,0.725 1.61936,1.61936c0,0.89436 -0.72501,1.61936 -1.61936,1.61936c-0.89435,0 -1.61936,-0.725 -1.61936,-1.61936z"/><path d="M211.60337,79.73333c0,-0.89436 0.72501,-1.61936 1.61937,-1.61936c0.89435,0 1.61937,0.725 1.61937,1.61936c0,0.89436 -0.72502,1.61936 -1.61937,1.61936c-0.89435,0 -1.61937,-0.725 -1.61937,-1.61936z"/><path d="M216.93377,79.73333c0,-0.89436 0.72501,-1.61936 1.61936,-1.61936c0.89435,0 1.61936,0.725 1.61936,1.61936c0,0.89436 -0.72501,1.61936 -1.61936,1.61936c-0.89435,0 -1.61936,-0.725 -1.61936,-1.61936z"/><path d="M222.33162,79.73333c0,-0.89436 0.72501,-1.61936 1.61936,-1.61936c0.89435,0 1.61936,0.725 1.61936,1.61936c0,0.89436 -0.72501,1.61936 -1.61936,1.61936c-0.89435,0 -1.61936,-0.725 -1.61936,-1.61936z"/><path d="M227.45963,79.73333c0,-0.89436 0.72502,-1.61936 1.61937,-1.61936c0.89435,0 1.61936,0.725 1.61936,1.61936c0,0.89436 -0.72501,1.61936 -1.61936,1.61936c-0.89435,0 -1.61937,-0.725 -1.61937,-1.61936z"/><path d="M232.8575,79.73333c0,-0.89436 0.72501,-1.61936 1.61936,-1.61936c0.89435,0 1.61936,0.725 1.61936,1.61936c0,0.89436 -0.72501,1.61936 -1.61936,1.61936c-0.89435,0 -1.61936,-0.725 -1.61936,-1.61936z"/><path d="M238.18791,79.73333c0,-0.89436 0.72501,-1.61936 1.61936,-1.61936c0.89435,0 1.61937,0.725 1.61937,1.61936c0,0.89436 -0.72501,1.61936 -1.61937,1.61936c-0.89435,0 -1.61936,-0.725 -1.61936,-1.61936z"/><path d="M243.58576,79.73333c0,-0.89436 0.72501,-1.61936 1.61936,-1.61936c0.89435,0 1.61936,0.725 1.61936,1.61936c0,0.89436 -0.72501,1.61936 -1.61936,1.61936c-0.89435,0 -1.61936,-0.725 -1.61936,-1.61936z"/><path d="M248.91621,79.73333c0,-0.89436 0.72501,-1.61936 1.61936,-1.61936c0.89435,0 1.61936,0.725 1.61936,1.61936c0,0.89436 -0.72501,1.61936 -1.61936,1.61936c-0.89435,0 -1.61936,-0.725 -1.61936,-1.61936z"/><path d="M254.31407,79.73333c0,-0.89436 0.72501,-1.61936 1.61937,-1.61936c0.89436,0 1.61936,0.725 1.61936,1.61936c0,0.89436 -0.725,1.61936 -1.61936,1.61936c-0.89435,0 -1.61937,-0.725 -1.61937,-1.61936z"/><path d="M259.64448,79.73333c0,-0.89436 0.725,-1.61936 1.61936,-1.61936c0.89436,0 1.61937,0.725 1.61937,1.61936c0,0.89436 -0.72501,1.61936 -1.61937,1.61936c-0.89436,0 -1.61936,-0.725 -1.61936,-1.61936z"/><path d="M265.04233,79.73333c0,-0.89436 0.72501,-1.61936 1.61937,-1.61936c0.89436,0 1.61936,0.725 1.61936,1.61936c0,0.89436 -0.72501,1.61936 -1.61936,1.61936c-0.89436,0 -1.61937,-0.725 -1.61937,-1.61936z"/><path d="M270.40232,79.73333c0,-0.89436 0.72501,-1.61936 1.61936,-1.61936c0.89436,0 1.61936,0.725 1.61936,1.61936c0,0.89436 -0.725,1.61936 -1.61936,1.61936c-0.89436,0 -1.61936,-0.725 -1.61936,-1.61936z"/><path d=""/><path d="M206.20546,74.87524c0,-0.89436 0.72501,-1.61936 1.61936,-1.61936c0.89435,0 1.61936,0.72501 1.61936,1.61936c0,0.89436 -0.72501,1.61936 -1.61936,1.61936c-0.89435,0 -1.61936,-0.725 -1.61936,-1.61936z"/><path d="M211.60337,74.87524c0,-0.89436 0.72501,-1.61936 1.61937,-1.61936c0.89435,0 1.61937,0.72501 1.61937,1.61936c0,0.89436 -0.72502,1.61936 -1.61937,1.61936c-0.89435,0 -1.61937,-0.725 -1.61937,-1.61936z"/><path d="M216.93377,74.87524c0,-0.89436 0.72501,-1.61936 1.61936,-1.61936c0.89435,0 1.61936,0.72501 1.61936,1.61936c0,0.89436 -0.72501,1.61936 -1.61936,1.61936c-0.89435,0 -1.61936,-0.725 -1.61936,-1.61936z"/><path d="M222.33162,74.87524c0,-0.89436 0.72501,-1.61936 1.61936,-1.61936c0.89435,0 1.61936,0.72501 1.61936,1.61936c0,0.89436 -0.72501,1.61936 -1.61936,1.61936c-0.89435,0 -1.61936,-0.725 -1.61936,-1.61936z"/><path d="M227.45963,74.87524c0,-0.89436 0.72502,-1.61936 1.61937,-1.61936c0.89435,0 1.61936,0.72501 1.61936,1.61936c0,0.89436 -0.72501,1.61936 -1.61936,1.61936c-0.89435,0 -1.61937,-0.725 -1.61937,-1.61936z"/><path d="M232.8575,74.87524c0,-0.89436 0.72501,-1.61936 1.61936,-1.61936c0.89435,0 1.61936,0.72501 1.61936,1.61936c0,0.89436 -0.72501,1.61936 -1.61936,1.61936c-0.89435,0 -1.61936,-0.725 -1.61936,-1.61936z"/><path d="M238.18791,74.87524c0,-0.89436 0.72501,-1.61936 1.61936,-1.61936c0.89435,0 1.61937,0.72501 1.61937,1.61936c0,0.89436 -0.72501,1.61936 -1.61937,1.61936c-0.89435,0 -1.61936,-0.725 -1.61936,-1.61936z"/><path d="M243.58576,74.87524c0,-0.89436 0.72501,-1.61936 1.61936,-1.61936c0.89435,0 1.61936,0.72501 1.61936,1.61936c0,0.89436 -0.72501,1.61936 -1.61936,1.61936c-0.89435,0 -1.61936,-0.725 -1.61936,-1.61936z"/><path d="M248.91621,74.87524c0,-0.89436 0.72501,-1.61936 1.61936,-1.61936c0.89435,0 1.61936,0.72501 1.61936,1.61936c0,0.89436 -0.72501,1.61936 -1.61936,1.61936c-0.89435,0 -1.61936,-0.725 -1.61936,-1.61936z"/><path d="M254.31407,74.87524c0,-0.89436 0.72501,-1.61936 1.61937,-1.61936c0.89436,0 1.61936,0.72501 1.61936,1.61936c0,0.89436 -0.725,1.61936 -1.61936,1.61936c-0.89435,0 -1.61937,-0.725 -1.61937,-1.61936z"/><path d="M259.64448,74.87524c0,-0.89436 0.725,-1.61936 1.61936,-1.61936c0.89436,0 1.61937,0.72501 1.61937,1.61936c0,0.89436 -0.72501,1.61936 -1.61937,1.61936c-0.89436,0 -1.61936,-0.725 -1.61936,-1.61936z"/><path d="M265.04233,74.87524c0,-0.89436 0.72501,-1.61936 1.61937,-1.61936c0.89436,0 1.61937,0.72501 1.61937,1.61936c0,0.89436 -0.72501,1.61936 -1.61937,1.61936c-0.89436,0 -1.61937,-0.725 -1.61937,-1.61936z"/><path d="M270.40232,74.87524c0,-0.89436 0.72501,-1.61936 1.61936,-1.61936c0.89436,0 1.61936,0.72501 1.61936,1.61936c0,0.89436 -0.725,1.61936 -1.61936,1.61936c-0.89436,0 -1.61936,-0.725 -1.61936,-1.61936z"/><path d=""/></g><path d="M248.88633,223.51044c0.54316,1.06091 1.07414,2.23578 1.09792,3.18228c0.04431,1.76412 -0.83127,3.64173 -1.01359,5.40981c-0.36364,3.48299 -0.52358,8.97826 -0.89373,12.46013c-0.41341,3.86173 1.65063,6.43594 1.5823,10.09009c-0.06861,3.42458 -1.23494,7.00543 -1.97502,10.33634c-0.31455,3.40899 -1.00439,6.97158 -0.60046,10.39463c0.41195,3.5166 0.93377,6.80664 2.74188,9.91911c1.43518,2.49114 -0.27975,9.24106 -1.61703,11.75243c0.64575,1.07738 1.17856,2.26733 1.67392,3.32531c0.80731,2.56316 4.10295,9.29034 4.10295,9.29034c0,0 -15.81754,3.90003 -19.9554,-2.80247c-0.04077,-1.15202 -0.84329,-2.20102 -1.00274,-3.36703c-0.24724,-1.808 -0.33535,-3.66221 -0.33535,-5.49389c0,0 0,-0.01412 0.00335,-0.03563c-0.84242,-3.2296 0.54255,-9.39308 1.28067,-12.91759c0.99207,-4.07526 -1.22232,-6.09117 -2.11557,-9.83524c-0.00854,-3.49397 1.48587,-6.89397 2.72071,-10.16121c0.37416,-0.80519 1.24318,-2.74203 0.76321,-3.61202c-0.99531,-1.80411 -2.86198,-3.70621 -2.77883,-5.86522c0.28537,-1.90155 2.19352,-2.98763 3.17793,-4.5111c0.87698,-1.35723 1.35043,-3.02982 1.78927,-4.56394c0.39907,-1.91732 1.26216,-6.34169 0.97353,-8.31282c-0.17307,-1.18197 -1.03803,-2.48549 -1.3486,-3.70426c-0.99643,-3.31394 1.06858,-6.97394 0.99576,-10.37025c-0.09976,-1.21143 -0.74376,-2.15815 -0.95326,-3.29472c-0.35619,-1.93237 0.28906,-5.15475 0.78919,-7.03048c1.84036,-6.90223 1.61781,-9.19667 0.45881,-16.24539c-0.53581,-3.25859 -0.24762,-7.24931 0.18259,-10.519c1.06728,-8.04661 -1.27109,-13.26926 2.14715,-20.6315c0.61253,-1.25339 2.18109,-1.47434 2.42562,-2.8262c0.44676,-2.46994 -0.67971,-4.3299 1.42367,-6.19136c4.49951,-0.55693 4.04366,-4.62309 6.55918,-7.23794c0.52863,-0.5095 3.07556,-1.32184 3.07556,-1.32184l0.49399,-1.73406c0,0 1.90235,0.89057 4.03636,1.84133c1.69706,0.75609 3.74467,1.37931 5.17832,2.07777c0.45461,0.22448 1.96462,1.2219 2.04312,1.78057c0.09483,0.6749 -1.00497,1.47172 -0.93376,2.2945c0.14688,1.69717 2.54181,2.72561 3.80539,3.3705c0.96386,0.48552 4.08732,0.87171 3.82452,2.26945c-0.36824,1.95848 -3.3811,2.10462 -2.8776,4.54633c0.23293,1.25432 0.85835,2.74391 0.55314,4.04026c-0.53143,2.25721 -3.43771,2.77775 -4.63528,4.51259c-1.6865,2.40816 0.93913,3.182 0.30355,5.80657c-0.33778,1.39486 -1.60829,2.21446 -2.40758,3.24604c-2.22185,2.83961 -2.58107,6.24891 -2.58293,9.73948c-0.09981,2.93929 -4.42366,4.93424 -5.98408,7.94923c-0.63305,1.25878 -0.77596,2.74903 -1.01092,4.13023l0.25786,0.331c0.0339,0.04266 0.05414,0.09666 0.05414,0.15538c0,0.13693 -0.11009,0.24815 -0.24658,0.24998l-0.44339,0.00692c-1.1173,0.26839 -2.24373,0.63324 -3.31799,1.11175c0.45078,1.86318 1.75843,1.52701 0.5401,3.54176c-1.68942,2.78843 0.92425,4.11221 1.65151,6.53927c0.27236,0.90895 -0.5372,2.17466 -0.87275,3.0157c-0.83537,1.15238 -1.93779,2.49424 -2.80471,3.86808z" data-paper-data="{&quot;index&quot;:null}" fill="#b31212" stroke="none" stroke-width="0.5"/><path d="M227.22818,218.97569c-0.33554,-0.84104 -1.14511,-2.10675 -0.87274,-3.0157c0.72726,-2.42706 3.34093,-3.75085 1.65151,-6.53928c-1.21834,-2.01475 0.08931,-1.67858 0.5401,-3.54176c-1.07426,-0.4785 -2.20069,-0.84336 -3.31799,-1.11175l-0.44339,-0.00692c-0.1365,-0.00183 -0.24659,-0.11305 -0.24659,-0.24998c0,-0.05872 0.02025,-0.11272 0.05414,-0.15539l0.25786,-0.331c-0.23496,-1.38121 -0.37787,-2.87144 -1.01092,-4.13023c-1.56042,-3.01499 -5.88428,-5.00994 -5.98408,-7.94923c-0.00186,-3.49056 -0.36109,-6.89988 -2.58293,-9.73948c-0.7993,-1.03158 -2.0698,-1.85118 -2.40758,-3.24604c-0.63558,-2.62457 1.99005,-3.3984 0.30355,-5.80657c-1.19757,-1.73484 -4.10385,-2.25537 -4.63528,-4.51259c-0.30521,-1.29635 0.3202,-2.78594 0.55314,-4.04027c0.5035,-2.44172 -2.50936,-2.58786 -2.87759,-4.54633c-0.2628,-1.39774 2.86066,-1.78393 3.82452,-2.26945c1.26358,-0.64489 3.65851,-1.67333 3.80539,-3.3705c0.07121,-0.82278 -1.0286,-1.6196 -0.93376,-2.2945c0.0785,-0.55867 1.58851,-1.5561 2.04313,-1.78057c1.64055,-0.79926 4.19161,-1.35307 6.40024,-1.91891c1.84265,-0.47208 3.89795,-1.02854 3.89795,-1.02854l0.75341,1.29571c0,0 1.30699,0.37828 1.73263,0.78853c2.51552,2.61486 2.05967,6.68102 6.55918,7.23795c2.10338,1.86146 0.97691,3.72142 1.42367,6.19136c0.24452,1.35186 1.81309,1.57281 2.42562,2.82619c3.41823,7.36226 1.07985,12.58489 2.14715,20.6315c0.43021,3.26969 0.7184,7.26041 0.1826,10.519c-1.15903,7.04881 -1.38156,9.34308 0.45882,16.2454c0.50013,1.87572 1.14537,5.09811 0.78918,7.03048c-0.2095,1.13657 -0.85349,2.08328 -0.95326,3.29472c-0.07282,3.39631 1.99219,7.05631 0.99575,10.37024c-0.31057,1.21877 -1.17553,2.52229 -1.3486,3.70426c-0.28862,1.97113 0.57446,6.3955 0.97353,8.31282c0.43885,1.53412 0.91228,3.20671 1.78927,4.56394c0.9844,1.52347 2.89256,2.60955 3.17793,4.5111c0.08315,2.15902 -1.78352,4.06111 -2.77883,5.86522c-0.47997,0.86999 0.38906,2.80683 0.76321,3.61202c1.23485,3.26724 2.72926,6.66724 2.72071,10.16121c-0.89325,3.74408 -3.10764,5.75999 -2.11557,9.83524c0.73812,3.52451 1.1231,9.688 0.28067,12.9176c0.00335,0.02152 0.00335,0.03563 0.00335,0.03563c0,1.83168 -0.0881,3.68589 -0.33535,5.49389c-0.15945,1.166 -0.96196,2.215 -1.00274,3.36702c-0.44667,0.7235 -0.37843,1.77648 -1.09475,2.33855c-2.52425,1.9807 -5.11168,0.37215 -7.83826,0.51426c-3.0455,0.14352 -7.81094,1.30065 -10.52239,-0.05034c-0.56837,-0.72429 -0.87001,-1.13829 -0.4401,-2.0647c0.434,-0.93523 1.40557,-1.49308 1.99872,-2.29519c1.17469,-1.5885 1.48208,-3.14537 2.04432,-4.93046c0.49536,-1.05798 1.02817,-2.24793 1.67392,-3.32532c-1.33728,-2.51137 -2.05221,-9.26128 -0.61703,-11.75243c1.80811,-3.11248 2.32994,-6.40251 2.74189,-9.91911c0.40393,-3.42305 -0.28592,-6.98564 -0.60047,-10.39463c-0.74009,-3.33092 -1.90642,-6.91176 -1.97502,-10.33634c-0.06833,-3.65415 1.99572,-6.22835 1.58231,-10.09009c-0.37015,-3.48186 -0.53009,-8.97714 -0.89373,-12.46013c-0.18232,-1.76808 -1.05789,-3.64569 -1.01358,-5.40981c0.02377,-0.9465 0.55476,-2.12137 1.09791,-3.18228c-0.86693,-1.37384 -1.96934,-2.71571 -2.80472,-3.86808z" fill="#c01313" stroke="none" stroke-width="0.5"/><path d="" fill="#da1616" stroke="none" stroke-width="0.5"/><path d="" fill="#da1616" stroke="none" stroke-width="0.5"/><path d="" fill="#da1616" stroke="none" stroke-width="0.5"/><path d="" fill="#da1616" stroke="none" stroke-width="0.5"/><path d="" fill="#da1616" stroke="none" stroke-width="0.5"/><path d="" fill="#da1616" stroke="none" stroke-width="0.5"/><path d="" fill="#da1616" stroke="none" stroke-width="0.5"/><path d="" fill="#da1616" stroke="none" stroke-width="0.5"/><path d="" fill="#da1616" stroke="none" stroke-width="0.5"/><path d="" fill="#da1616" stroke="none" stroke-width="0.5"/><path d="" fill="#da1616" stroke="none" stroke-width="0.5"/><path d="" fill="#da1616" stroke="none" stroke-width="0.5"/><path d="" fill="#da1616" stroke="none" stroke-width="0.5"/><path d="" fill="#da1616" stroke="none" stroke-width="0.5"/><path d="" fill="#da1616" stroke="none" stroke-width="0.5"/><path d="" fill="#da1616" stroke="none" stroke-width="0.5"/><path d="" fill="#da1616" stroke="none" stroke-width="0.5"/><path d="" fill="#da1616" stroke="none" stroke-width="0.5"/><path d="" fill="#da1616" stroke="none" stroke-width="0.5"/><path d="" fill="#da1616" stroke="none" stroke-width="0.5"/><path d="" fill="#da1616" stroke="none" stroke-width="0.5"/><path d="" fill="#da1616" stroke="none" stroke-width="0.5"/><path d="" fill="#da1616" stroke="none" stroke-width="0.5"/><path d="" fill="#da1616" stroke="none" stroke-width="0.5"/><path d="" fill="#da1616" stroke="none" stroke-width="0.5"/><path d="" fill="#da1616" stroke="none" stroke-width="0.5"/><path d="" fill="#da1616" stroke="none" stroke-width="0.5"/><path d="" fill="#da1616" stroke="none" stroke-width="0.5"/><path d="" fill="#da1616" stroke="none" stroke-width="0.5"/><path d="" fill="#da1616" stroke="none" stroke-width="0.5"/><path d="" fill="#da1616" stroke="none" stroke-width="0.5"/><path d="" fill="#da1616" stroke="none" stroke-width="0.5"/><path d="" fill="#da1616" stroke="none" stroke-width="0.5"/><path d="" fill="#da1616" stroke="none" stroke-width="0.5"/><path d="" fill="#da1616" stroke="none" stroke-width="0.5"/><path d="" fill="#da1616" stroke="none" stroke-width="0.5"/><path d="" fill="#da1616" stroke="none" stroke-width="0.5"/><path d="" fill="#da1616" stroke="none" stroke-width="0.5"/><path d="" fill="#da1616" stroke="none" stroke-width="0.5"/><path d="" fill="#da1616" stroke="none" stroke-width="0.5"/><path d="" fill="#da1616" stroke="none" stroke-width="0.5"/><path d="" fill="#da1616" stroke="none" stroke-width="0.5"/><path d="" fill="#da1616" stroke="none" stroke-width="0.5"/><path d="" fill="#da1616" stroke="none" stroke-width="0.5"/><path d="" fill="#da1616" stroke="none" stroke-width="0.5"/><path d="" fill="#da1616" stroke="none" stroke-width="0.5"/><path d="" fill="#da1616" stroke="none" stroke-width="0.5"/><path d="" fill="#da1616" stroke="none" stroke-width="0.5"/><path d="" fill="#da1616" stroke="none" stroke-width="0.5"/><path d="" fill="#da1616" stroke="none" stroke-width="0.5"/><path d="" fill="#da1616" stroke="none" stroke-width="0.5"/><path d="" fill="#da1616" stroke="none" stroke-width="0.5"/><path d="" fill="#da1616" stroke="none" stroke-width="0.5"/><path d="" fill="#da1616" stroke="none" stroke-width="0.5"/><path d="" fill="#da1616" stroke="none" stroke-width="0.5"/><path d="" fill="#da1616" stroke="none" stroke-width="0.5"/><path d="" fill="#da1616" stroke="none" stroke-width="0.5"/><path d="" fill="#da1616" stroke="none" stroke-width="0.5"/><path d="" fill="#da1616" stroke="none" stroke-width="0.5"/><path d="" fill="#da1616" stroke="none" stroke-width="0.5"/><path d="" fill="#da1616" stroke="none" stroke-width="0.5"/><path d="" fill="#da1616" stroke="none" stroke-width="0.5"/><path d="" fill="#da1616" stroke="none" stroke-width="0.5"/><path d="" fill="#da1616" stroke="none" stroke-width="0.5"/><path d="" fill="#da1616" stroke="none" stroke-width="0.5"/><path d="" fill="#da1616" stroke="none" stroke-width="0.5"/><path d="" fill="#da1616" stroke="none" stroke-width="0.5"/><path d="" fill="#da1616" stroke="none" stroke-width="0.5"/><path d="" fill="#da1616" stroke="none" stroke-width="0.5"/><path d="" fill="#da1616" stroke="none" stroke-width="0.5"/><path d="" fill="#da1616" stroke="none" stroke-width="0.5"/><path d="" fill="#da1616" stroke="none" stroke-width="0.5"/><path d="" fill="#da1616" stroke="none" stroke-width="0.5"/><path d="" fill="#da1616" stroke="none" stroke-width="0.5"/><path d="" fill="#da1616" stroke="none" stroke-width="0.5"/><path d="" fill="#da1616" stroke="none" stroke-width="0.5"/><path d="" fill="#da1616" stroke="none" stroke-width="0.5"/><path d="" fill="#da1616" stroke="none" stroke-width="0.5"/><path d="" fill="#da1616" stroke="none" stroke-width="0.5"/><path d="" fill="#da1616" stroke="none" stroke-width="0.5"/><path d="" fill="#da1616" stroke="none" stroke-width="0.5"/><path d="" fill="#da1616" stroke="none" stroke-width="0.5"/><path d="" fill="#da1616" stroke="none" stroke-width="0.5"/><path d="" fill="#da1616" stroke="none" stroke-width="0.5"/><path d="" fill="#da1616" stroke="none" stroke-width="0.5"/><path d="" fill="#da1616" stroke="none" stroke-width="0.5"/><path d="" fill="#da1616" stroke="none" stroke-width="0.5"/><path d="" fill="#da1616" stroke="none" stroke-width="0.5"/><path d="" fill="#da1616" stroke="none" stroke-width="0.5"/><path d="" fill="#da1616" stroke="none" stroke-width="0.5"/><path d="" fill="#da1616" stroke="none" stroke-width="0.5"/><path d="" fill="#da1616" stroke="none" stroke-width="0.5"/><path d="" fill="#da1616" stroke="none" stroke-width="0.5"/><path d="" fill="#da1616" stroke="none" stroke-width="0.5"/><path d="" fill="#da1616" stroke="none" stroke-width="0.5"/><path d="" fill="#da1616" stroke="none" stroke-width="0.5"/><path d="" fill="#da1616" stroke="none" stroke-width="0.5"/><path d="" fill="#da1616" stroke="none" stroke-width="0.5"/><path d="" fill="#da1616" stroke="none" stroke-width="0.5"/><path d="" fill="#da1616" stroke="none" stroke-width="0.5"/><path d="" fill="#da1616" stroke="none" stroke-width="0.5"/><path d="" fill="#da1616" stroke="none" stroke-width="0.5"/><path d="" fill="#da1616" stroke="none" stroke-width="0.5"/><path d="" fill="#da1616" stroke="none" stroke-width="0.5"/><path d="" fill="#da1616" stroke="none" stroke-width="0.5"/><path d="" fill="#da1616" stroke="none" stroke-width="0.5"/><path d="" fill="#da1616" stroke="none" stroke-width="0.5"/><path d="" fill="#da1616" stroke="none" stroke-width="0.5"/><path d="" fill="#da1616" stroke="none" stroke-width="0.5"/><path d="" fill="#da1616" stroke="none" stroke-width="0.5"/><path d="" fill="#da1616" stroke="none" stroke-width="0.5"/><path d="" fill="#da1616" stroke="none" stroke-width="0.5"/><path d="" fill="#da1616" stroke="none" stroke-width="0.5"/><path d="" fill="#da1616" stroke="none" stroke-width="0.5"/><path d="" fill="#da1616" stroke="none" stroke-width="0.5"/><path d="" fill="#da1616" stroke="none" stroke-width="0.5"/><path d="" fill="#da1616" stroke="none" stroke-width="0.5"/><path d="" fill="#da1616" stroke="none" stroke-width="0.5"/><path d="" fill="#da1616" stroke="none" stroke-width="0.5"/><path d="" fill="#da1616" stroke="none" stroke-width="0.5"/><path d="" fill="#da1616" stroke="none" stroke-width="0.5"/><path d="" fill="#da1616" stroke="none" stroke-width="0.5"/><path d="" fill="#da1616" stroke="none" stroke-width="0.5"/><path d="" fill="#da1616" stroke="none" stroke-width="0.5"/><path d="" fill="#da1616" stroke="none" stroke-width="0.5"/><path d="" fill="#da1616" stroke="none" stroke-width="0.5"/><path d="" fill="#da1616" stroke="none" stroke-width="0.5"/><path d="" fill="#da1616" stroke="none" stroke-width="0.5"/><path d="" fill="#da1616" stroke="none" stroke-width="0.5"/><path d="" fill="#da1616" stroke="none" stroke-width="0.5"/><path d="" fill="#da1616" stroke="none" stroke-width="0.5"/><path d="" fill="#da1616" stroke="none" stroke-width="0.5"/><path d="" fill="#da1616" stroke="none" stroke-width="0.5"/><path d="" fill="#da1616" stroke="none" stroke-width="0.5"/><path d="" fill="#da1616" stroke="none" stroke-width="0.5"/><path d="" fill="#da1616" stroke="none" stroke-width="0.5"/><path d="" fill="#da1616" stroke="none" stroke-width="0.5"/><path d="" fill="#da1616" stroke="none" stroke-width="0.5"/><path d="" fill="#da1616" stroke="none" stroke-width="0.5"/><path d="" fill="#da1616" stroke="none" stroke-width="0.5"/><path d="" fill="#da1616" stroke="none" stroke-width="0.5"/><path d="" fill="#da1616" stroke="none" stroke-width="0.5"/><g fill="#da1616" stroke="none" stroke-width="0.5"><path d="M248.9191,108.98234c0,-0.89436 0.72501,-1.61936 1.61936,-1.61936c0.89435,0 1.61936,0.72501 1.61936,1.61936c0,0.89436 -0.72501,1.61936 -1.61936,1.61936c-0.89435,0 -1.61936,-0.725 -1.61936,-1.61936z"/><path d="M254.24951,108.98234c0,-0.89436 0.72501,-1.61936 1.61936,-1.61936c0.89435,0 1.61936,0.72501 1.61936,1.61936c0,0.89436 -0.72501,1.61936 -1.61936,1.61936c-0.89435,0 -1.61936,-0.725 -1.61936,-1.61936z"/><path d="M248.9191,104.12424c0,-0.89436 0.72501,-1.61936 1.61936,-1.61936c0.89435,0 1.61936,0.725 1.61936,1.61936c0,0.89436 -0.72501,1.61936 -1.61936,1.61936c-0.89435,0 -1.61936,-0.72501 -1.61936,-1.61936z"/><path d="M254.24951,104.12424c0,-0.89436 0.72501,-1.61936 1.61936,-1.61936c0.89435,0 1.61936,0.725 1.61936,1.61936c0,0.89436 -0.72501,1.61936 -1.61936,1.61936c-0.89435,0 -1.61936,-0.72501 -1.61936,-1.61936z"/><path d="M248.9191,89.48248c0,-0.89436 0.72501,-1.61937 1.61936,-1.61937c0.89435,0 1.61936,0.72501 1.61936,1.61937c0,0.89436 -0.72501,1.61936 -1.61936,1.61936c-0.89435,0 -1.61936,-0.72501 -1.61936,-1.61936z"/><path d="M254.24951,89.48248c0,-0.89436 0.72501,-1.61937 1.61936,-1.61937c0.89435,0 1.61936,0.72501 1.61936,1.61937c0,0.89436 -0.72501,1.61936 -1.61936,1.61936c-0.89435,0 -1.61936,-0.72501 -1.61936,-1.61936z"/><path d="M259.64739,89.48248c0,-0.89436 0.72501,-1.61937 1.61937,-1.61937c0.89436,0 1.61936,0.72501 1.61936,1.61937c0,0.56524 -0.28959,1.06283 -0.7285,1.35251c-0.32143,0.04988 -0.62937,0.14057 -0.91834,0.26663c-0.88169,-0.01466 -1.5919,-0.73396 -1.5919,-1.61913z"/><path d="M248.9191,84.6244c0,-0.89436 0.72501,-1.61937 1.61936,-1.61937c0.89435,0 1.61936,0.72501 1.61936,1.61937c0,0.89436 -0.72501,1.61936 -1.61936,1.61936c-0.89435,0 -1.61936,-0.725 -1.61936,-1.61936z"/><path d="M254.24951,84.6244c0,-0.89436 0.72501,-1.61937 1.61936,-1.61937c0.89435,0 1.61936,0.72501 1.61936,1.61937c0,0.89436 -0.72501,1.61936 -1.61936,1.61936c-0.89435,0 -1.61936,-0.725 -1.61936,-1.61936z"/><path d="M248.9191,99.19868c0,-0.89436 0.72501,-1.61937 1.61936,-1.61937c0.89435,0 1.61936,0.72501 1.61936,1.61937c0,0.89436 -0.72501,1.61936 -1.61936,1.61936c-0.89435,0 -1.61936,-0.72501 -1.61936,-1.61936z"/><path d="M254.24951,99.19868c0,-0.89436 0.72501,-1.61937 1.61936,-1.61937c0.89435,0 1.61936,0.72501 1.61936,1.61937c0,0.89436 -0.72501,1.61936 -1.61936,1.61936c-0.89435,0 -1.61936,-0.72501 -1.61936,-1.61936z"/><path d="M248.9191,94.34058c0,-0.89436 0.72501,-1.61936 1.61936,-1.61936c0.89435,0 1.61936,0.72502 1.61936,1.61936c0,0.89436 -0.72501,1.61936 -1.61936,1.61936c-0.89435,0 -1.61936,-0.725 -1.61936,-1.61936z"/><path d="M254.24951,94.34058c0,-0.89436 0.72501,-1.61936 1.61936,-1.61936c0.89435,0 1.61936,0.72502 1.61936,1.61936c0,0.89436 -0.72501,1.61936 -1.61936,1.61936c-0.89435,0 -1.61936,-0.725 -1.61936,-1.61936z"/></g><g fill="#da1616" stroke="none" stroke-width="0.5"><path d="M222.30404,108.89902c0,-0.89436 0.72502,-1.61936 1.61937,-1.61936c0.89435,0 1.61937,0.72501 1.61937,1.61936c0,0.89436 -0.72501,1.61936 -1.61937,1.61936c-0.89435,0 -1.61937,-0.725 -1.61937,-1.61936z"/><path d="M227.70196,108.89902c0,-0.89436 0.72501,-1.61936 1.61936,-1.61936c0.89435,0 1.61936,0.72501 1.61936,1.61936c0,0.89436 -0.72501,1.61936 -1.61936,1.61936c-0.89435,0 -1.61936,-0.725 -1.61936,-1.61936z"/><path d="M222.30404,104.04091c0,-0.89436 0.72502,-1.61936 1.61937,-1.61936c0.89435,0 1.61937,0.725 1.61937,1.61936c0,0.89436 -0.72501,1.61936 -1.61937,1.61936c-0.89435,0 -1.61937,-0.72501 -1.61937,-1.61936z"/><path d="M227.70196,104.04091c0,-0.89436 0.72501,-1.61936 1.61936,-1.61936c0.89435,0 1.61936,0.725 1.61936,1.61936c0,0.89436 -0.72501,1.61936 -1.61936,1.61936c-0.89435,0 -1.61936,-0.72501 -1.61936,-1.61936z"/><path d="M217.17609,89.39916c0,-0.89436 0.72501,-1.61937 1.61936,-1.61937c0.89435,0 1.61936,0.72501 1.61936,1.61937c0,0.89436 -0.72501,1.61936 -1.61936,1.61936c-0.89435,0 -1.61936,-0.72501 -1.61936,-1.61936z"/><path d="M222.30404,89.39916c0,-0.89436 0.72502,-1.61937 1.61937,-1.61937c0.89435,0 1.61937,0.72501 1.61937,1.61937c0,0.89436 -0.72501,1.61936 -1.61937,1.61936c-0.89435,0 -1.61937,-0.72501 -1.61937,-1.61936z"/><path d="M227.70196,89.39916c0,-0.89436 0.72501,-1.61937 1.61936,-1.61937c0.89435,0 1.61936,0.72501 1.61936,1.61937c0,0.89436 -0.72501,1.61936 -1.61936,1.61936c-0.89435,0 -1.61936,-0.72501 -1.61936,-1.61936z"/><path d="M222.30404,84.54108c0,-0.89436 0.72502,-1.61937 1.61937,-1.61937c0.89435,0 1.61937,0.72501 1.61937,1.61937c0,0.89436 -0.72501,1.61936 -1.61937,1.61936c-0.89435,0 -1.61937,-0.725 -1.61937,-1.61936z"/><path d="M227.70196,84.54108c0,-0.89436 0.72501,-1.61937 1.61936,-1.61937c0.89435,0 1.61936,0.72501 1.61936,1.61937c0,0.89436 -0.72501,1.61936 -1.61936,1.61936c-0.89435,0 -1.61936,-0.725 -1.61936,-1.61936z"/><path d="M222.30404,99.11535c0,-0.89436 0.72502,-1.61937 1.61937,-1.61937c0.89435,0 1.61937,0.72501 1.61937,1.61937c0,0.89436 -0.72501,1.61936 -1.61937,1.61936c-0.89435,0 -1.61937,-0.72501 -1.61937,-1.61936z"/><path d="M227.70196,99.11535c0,-0.89436 0.72501,-1.61937 1.61936,-1.61937c0.89435,0 1.61936,0.72501 1.61936,1.61937c0,0.89436 -0.72501,1.61936 -1.61936,1.61936c-0.89435,0 -1.61936,-0.72501 -1.61936,-1.61936z"/><path d="M222.30404,94.25725c0,-0.89436 0.72502,-1.61936 1.61937,-1.61936c0.89435,0 1.61937,0.72502 1.61937,1.61936c0,0.89436 -0.72501,1.61936 -1.61937,1.61936c-0.89435,0 -1.61937,-0.725 -1.61937,-1.61936z"/><path d="M227.70196,94.25725c0,-0.89436 0.72501,-1.61936 1.61936,-1.61936c0.89435,0 1.61936,0.72502 1.61936,1.61936c0,0.89436 -0.72501,1.61936 -1.61936,1.61936c-0.89435,0 -1.61936,-0.725 -1.61936,-1.61936z"/></g><g fill="#da1616" stroke="none" stroke-width="0.5"><path d="M243.70062,123.98512c0,-0.89436 0.72502,-1.61936 1.61937,-1.61936c0.89435,0 1.61937,0.72501 1.61937,1.61936c0,0.89436 -0.72501,1.61936 -1.61937,1.61936c-0.89435,0 -1.61937,-0.72501 -1.61937,-1.61936z"/><path d=""/><path d=""/><path d=""/><path d=""/><path d=""/><path d=""/><path d=""/><path d=""/><path d=""/><path d="M233.0596,124.01002c0,-0.89436 0.72502,-1.61937 1.61937,-1.61937c0.89435,0 1.61936,0.72502 1.61936,1.61937c0,0.89436 -0.72501,1.61936 -1.61936,1.61936c-0.89435,0 -1.61937,-0.72501 -1.61937,-1.61936z"/><path d="M238.45751,124.01002c0,-0.89436 0.72501,-1.61937 1.61936,-1.61937c0.89435,0 1.61936,0.72502 1.61936,1.61937c0,0.89436 -0.72501,1.61936 -1.61936,1.61936c-0.89435,0 -1.61936,-0.72501 -1.61936,-1.61936z"/></g><g fill="#da1616" stroke="none" stroke-width="0.5"><path d=""/><path d=""/><path d=""/><path d=""/><path d=""/><path d=""/><path d=""/><path d=""/><path d=""/><path d=""/><path d="M248.85963,119.21002c0,-0.89435 0.72502,-1.61936 1.61937,-1.61936c0.89435,0 1.61936,0.72502 1.61936,1.61936c0,0.89435 -0.72501,1.61936 -1.61936,1.61936c-0.89435,0 -1.61937,-0.725 -1.61937,-1.61936z"/><path d="M254.25748,119.21002c0,-0.89435 0.72501,-1.61936 1.61936,-1.61936c0.89435,0 1.61936,0.72502 1.61936,1.61936c0,0.89435 -0.72501,1.61936 -1.61936,1.61936c-0.89436,0 -1.61936,-0.725 -1.61936,-1.61936z"/></g><g fill="#da1616" stroke="none" stroke-width="0.5"><path d=""/><path d=""/><path d=""/><path d=""/><path d=""/><path d=""/><path d=""/><path d=""/><path d=""/><path d=""/><path d="M222.25963,119.01002c0,-0.89436 0.72501,-1.61937 1.61937,-1.61937c0.89435,0 1.61937,0.72502 1.61937,1.61937c0,0.89436 -0.72501,1.61936 -1.61937,1.61936c-0.89435,0 -1.61937,-0.725 -1.61937,-1.61936z"/><path d="M227.65748,119.01002c0,-0.89436 0.72501,-1.61937 1.61936,-1.61937c0.89435,0 1.61936,0.72502 1.61936,1.61937c0,0.89436 -0.72501,1.61936 -1.61936,1.61936c-0.89435,0 -1.61936,-0.725 -1.61936,-1.61936z"/></g></g></g></svg>