<svg version="1.1" xmlns="http://www.w3.org/2000/svg" xmlns:xlink="http://www.w3.org/1999/xlink" width="90.33334" height="300.49082" viewBox="0,0,90.33334,300.49082"><g transform="translate(-196.94307,-54.07097)"><g data-paper-data="{&quot;isPaintingLayer&quot;:true}" fill-rule="nonzero" stroke-linecap="butt" stroke-linejoin="miter" stroke-miterlimit="10" stroke-dasharray="" stroke-dashoffset="0" style="mix-blend-mode: normal"><path d="M199.69068,153.82813v-99h82v99z" fill="#000000" stroke="none" stroke-width="0"/><path d="M201.03041,304.3916c0,0 -0.63536,-94.38387 -0.79335,-118.01201c-0.05451,-8.15261 8.18688,-36.76129 40.20201,-36.9211c31.60235,-0.15775 39.85672,29.48704 39.84884,36.89673c-0.07659,46.24274 0.65429,117.98648 0.65429,117.98648l-10.49667,0.09614l-0.15882,-114.84311c0,0 0.07549,-3.0993 -2.81625,-3.15415c-3.43441,-0.06514 -2.94538,3.11562 -2.94538,3.11562l0.20548,114.86995l-48.21366,0.07222l-0.30539,-115.23309c0,0 0.27949,-2.919 -2.8856,-2.93443c-3.11083,-0.01515 -2.81569,2.90899 -2.81569,2.90899l0.35311,115.0668z" fill="#ffffff" stroke="#000000" stroke-width="2"/><path d="M255.62758,200.33379c-0.57113,0 -1.03411,-0.46299 -1.03411,-1.03411c0,-0.57113 0.46299,-1.03413 1.03411,-1.03413c0.57113,0 1.03411,0.463 1.03411,1.03413c0,0.57113 -0.46299,1.03411 -1.03411,1.03411z" fill="#000000" stroke="none" stroke-width="1.5"/><path d="M250.36771,204.56938c-4.4635,-0.31439 -6.55245,-1.79392 -6.16985,-2.58011c0.11788,-0.24224 2.84645,1.06355 6.97038,1.3048c6.40897,0.37493 8.51033,-0.63173 8.51033,-0.63173v1.34616c0,0 -2.4135,1.04672 -9.31086,0.56089z" fill="#000000" stroke="#000000" stroke-width="0"/><path d="M222.55495,199.29968c0,-0.57113 0.46299,-1.03413 1.03411,-1.03413c0.57113,0 1.03413,0.463 1.03413,1.03413c0,0.57113 -0.463,1.03411 -1.03413,1.03411c-0.57113,0 -1.03411,-0.46299 -1.03411,-1.03411z" fill="#000000" stroke="none" stroke-width="1.5"/><path d="M228.84895,204.56938c-6.89736,0.48585 -9.31086,-0.56089 -9.31086,-0.56089v-1.34616c0,0 2.10136,1.00666 8.51033,0.63173c4.12393,-0.24126 6.85251,-1.54704 6.97039,-1.3048c0.3826,0.78618 -1.70634,2.26571 -6.16985,2.58011z" fill="#000000" stroke="#000000" stroke-width="0"/><path d="M240.12941,261.12113c-0.81895,0 -1.48284,-0.66389 -1.48284,-1.48284c0,-0.81895 0.66389,-1.48284 1.48284,-1.48284c0.81895,0 1.48284,0.66389 1.48284,1.48284c0,0.81895 -0.66389,1.48284 -1.48284,1.48284z" data-paper-data="{&quot;index&quot;:null}" fill="#000000" stroke="none" stroke-width="1.5"/><path d="M216.06614,304.40603v-119.20147c0,0 0.75721,-9.73105 0.75721,-14.63937c0,-4.498 -0.75721,-13.6872 -0.75721,-13.6872c0,0 2.67319,-2.35297 4.6557,-3.74807c1.98251,-1.3951 5.17197,-2.80371 5.17197,-2.80371c0,0 -0.6016,40.10902 14.55952,40.03867c15.43477,-0.07162 13.83154,-40.03867 13.83154,-40.03867c0,0 3.91276,1.51959 6.16585,2.94655c2.25309,1.42695 4.75379,3.60523 4.75379,3.60523c0,0 -0.75721,9.42463 -0.75721,14.19201c0,4.84193 0.75721,14.63937 0.75721,14.63937v118.69667z" fill="#ffffff" stroke="#000000" stroke-width="2"/><path d="M204.1914,336.74425v-15.30586h15.19421v15.30586z" fill="#da1616" stroke="none" stroke-width="0"/><path d="M219.28384,336.74425v-15.30586h15.19421v15.30586z" fill="#c01313" stroke="none" stroke-width="0"/><path d="M234.37632,336.74425v-15.30586h15.19422v15.30586z" fill="#b31212" stroke="none" stroke-width="0"/><path d="M249.46882,336.74425v-15.30586h15.19421v15.30586z" fill="#990f0f" stroke="none" stroke-width="0"/><path d="M264.44705,336.74425v-15.30586h15.19421v15.30586z" fill="#740c0c" stroke="none" stroke-width="0"/><path d="M204.51531,354.5618v-15.30586h15.19421v15.30586z" fill="#8b8b8b" stroke="none" stroke-width="0"/><path d="M219.60779,354.5618v-15.30586h15.19421v15.30586z" fill="#666666" stroke="none" stroke-width="0"/><path d="M234.70028,354.5618v-15.30586h15.19422v15.30586z" fill="#4b4b4b" stroke="none" stroke-width="0"/><path d="M249.79278,354.5618v-15.30586h15.19421v15.30586z" fill="#2b2b2b" stroke="none" stroke-width="0"/><path d="M229.57664,116.90442c0,6.90356 -5.59644,12.5 -12.5,12.5c-6.90356,0 -12.5,-5.59644 -12.5,-12.5c0,-6.90356 5.59644,-12.5 12.5,-12.5c6.90356,0 12.5,5.59644 12.5,12.5z" fill="#ffffff" stroke="none" stroke-width="0"/><path d="M264.75194,354.5618v-15.30586h15.19421v15.30586z" fill="#0c0c0c" stroke="none" stroke-width="0"/><path d="M226.57664,116.90442c0,6.35128 -5.14873,11.5 -11.5,11.5c-6.35127,0 -11.5,-5.14872 -11.5,-11.5c0,-6.35128 5.14873,-11.5 11.5,-11.5c6.35127,0 11.5,5.14872 11.5,11.5z" fill="#000000" stroke="none" stroke-width="0"/><path d="M197.94308,155.07098v-25h63v25z" fill="#990f0f" stroke="none" stroke-width="0"/><path d="M266.37664,91.90442c0,6.90356 -5.59644,12.5 -12.5,12.5c-6.90356,0 -12.5,-5.59644 -12.5,-12.5c0,-6.90356 5.59644,-12.5 12.5,-12.5c6.90356,0 12.5,5.59644 12.5,12.5z" fill="#ffffff" stroke="none" stroke-width="0"/><path d="M267.37664,91.90442c0,6.35128 -5.14873,11.5 -11.5,11.5c-6.35127,0 -11.5,-5.14872 -11.5,-11.5c0,-6.35128 5.14873,-11.5 11.5,-11.5c6.35128,0 11.5,5.14872 11.5,11.5z" fill="#000000" stroke="none" stroke-width="0"/><path d="M231.60974,129.73764v-25h52.33334v25z" fill="#990f0f" stroke="none" stroke-width="0"/><path d="M261.27641,155.07098v-25h21.66667v25z" fill="#990f0f" stroke="none" stroke-width="0"/><path d="M196.94308,104.40431v-25h43.66667v25z" fill="#990f0f" stroke="none" stroke-width="0"/><path d="M265.94308,104.40431v-25h21.33333v25z" fill="#990f0f" stroke="none" stroke-width="0"/><path d="M197.27641,79.07098v-25h26.33334v25z" fill="#990f0f" stroke="none" stroke-width="0"/><path d="M224.27641,79.07098v-25h63v25z" fill="#990f0f" stroke="none" stroke-width="0"/></g></g></svg>