<svg version="1.1" xmlns="http://www.w3.org/2000/svg" xmlns:xlink="http://www.w3.org/1999/xlink" width="251.99133" height="261.59139" viewBox="0,0,251.99133,261.59139"><defs><linearGradient x1="170.75749" y1="72.67734" x2="170.75749" y2="174.99225" gradientUnits="userSpaceOnUse" id="color-1"><stop offset="0" stop-color="#666666"/><stop offset="1" stop-color="#484848"/></linearGradient><linearGradient x1="170.79763" y1="163.60051" x2="170.79763" y2="169.70711" gradientUnits="userSpaceOnUse" id="color-2"><stop offset="0" stop-color="#484848"/><stop offset="1" stop-color="#656565"/></linearGradient><linearGradient x1="168.53258" y1="167.28298" x2="168.53258" y2="310.17159" gradientUnits="userSpaceOnUse" id="color-3"><stop offset="0" stop-color="#666666"/><stop offset="1" stop-color="#484848"/></linearGradient></defs><g transform="translate(-114.00434,-49.20431)"><g data-paper-data="{&quot;isPaintingLayer&quot;:true}" fill-rule="nonzero" stroke-linejoin="miter" stroke-miterlimit="10" stroke-dasharray="" stroke-dashoffset="0" style="mix-blend-mode: normal"><path d="M127.49529,121.05574c0,0 6.16329,-5.92187 6.29161,-6.78761c0.33654,-2.27063 -0.16776,-40.17317 35.96775,-41.57382c44.63633,-0.91362 39.01489,35.34872 41.53088,42.1903c3.44981,9.38084 6.15664,17.40016 6.15664,17.40016c0,0 -2.76715,-2.05351 -4.0797,-3.13397c-1.2242,-1.00773 -3.80143,-3.14585 -3.80143,-3.14585c0,0 3.09111,10.3481 1.31092,20.69498c-1.5623,9.48098 -7.29782,17.22543 -7.29782,17.22543l-1.15522,-2.34735c0,0 -1.02266,2.19794 -2.16005,3.33274c-1.1374,1.13479 -3.43873,2.91273 -3.43873,2.91273l-0.09205,-3.70421c0,0 -7.0601,11.01795 -24.35066,10.87154c-16.30625,-0.25547 -26.07151,-10.6752 -26.07151,-10.6752l-0.1162,2.65484c0,0 -3.89477,-3.29276 -6.18145,-9.70754c-2.72545,-7.64567 -3.23946,-12.24324 -3.23946,-12.24324c0,0 -2.33908,1.89916 -5.71704,2.7744c-4.23278,1.09673 -6.94665,0.34526 -6.94665,0.34526c0,0 3.60795,-2.71717 5.58396,-4.76989c1.76007,-1.8284 2.64658,-3.37722 2.64658,-3.37722c0,0 -2.10758,1.0847 -4.23277,1.61795c-2.21739,0.5564 -4.03008,0.53093 -4.03008,0.53093c0,0 4.97492,-5.03728 7.03074,-10.87429c1.94102,-5.51108 2.09972,-10.95731 2.09972,-10.95731c0,0 -1.36165,0.66163 -3.33013,0.79513c-1.24776,0.08463 -2.37785,-0.0489 -2.37785,-0.0489z" fill="url(#color-1)" stroke="none" stroke-width="1.5" stroke-linecap="butt"/><path d="M138.33702,169.70711c0,0 2.1889,-1.14804 1.66602,-2.04455c-0.52287,-0.89651 -5.22758,-4.06205 -5.22758,-4.06205h72.04433c0,0 -6.44152,3.76989 -6.67562,4.12254c-0.76342,1.14993 1.79677,1.98406 1.79677,1.98406z" fill="url(#color-2)" stroke="none" stroke-width="0" stroke-linecap="butt"/><path d="M220.64345,189.84537c-0.04639,2.34739 -2.38427,6.82027 -2.38427,6.82027c-0.6096,0.77436 -1.67145,-0.13007 -2.13699,-0.30298c-0.62133,-0.23078 -1.95309,-3.0869 -2.15884,-3.7624c-1.09968,-3.61012 -0.10116,-8.51341 0.37732,-12.20209c0.28084,-2.13786 -0.26178,-9.04264 1.99887,-9.82655c-0.05069,-0.08064 -0.08481,-0.1892 -0.08481,-0.33529c0,-0.56838 0.51633,-0.56838 0.51633,-0.56838c2.94601,0.17853 2.71633,4.55438 3.7953,6.52173c0.89083,1.6243 2.1424,2.17012 2.1424,4.27746c0,3.13127 -0.92894,6.21329 -2.10723,9.15074c0.04195,0.12088 0.04195,0.2275 0.04195,0.2275z" fill="#666666" stroke="none" stroke-width="0.5" stroke-linecap="butt"/><path d="M203.22339,236.75233v-41.69595h16.30238v41.69595z" fill="#870d0d" stroke="none" stroke-width="0" stroke-linecap="butt"/><path d="M199.55859,308.71239v-72.20832h24.26918v72.20832z" fill="#7b0c0c" stroke="none" stroke-width="0" stroke-linecap="butt"/><path d="M205.54103,235.75176c0.07409,-0.01976 0.12908,-0.01976 0.12908,-0.01976c4.43606,0 8.73819,-0.28419 13.16621,-0.28419c1.33033,0 4.27196,-0.07978 5.27016,1.01903c0.28688,0.31581 0.79035,1.62026 0.19496,1.99975c-0.67785,0.43206 -1.78404,-0.65296 -2.44989,-0.75262c-1.67372,-0.25052 -4.08062,-0.04356 -5.29495,1.321c-0.87778,0.43586 -0.99687,1.27992 -2.22765,0.94465c-1.03272,-0.28131 -1.86629,-1.24789 -2.89918,-0.40798c-0.45462,0.3697 -0.77008,8.2019 -2.51051,3.66699c-1.30738,-0.71961 -0.5864,-2.06581 -1.34458,-3.19565c-1.03226,-1.53828 -2.75625,-1.70729 -2.93723,-3.74261l0.77449,-0.56837c0,0 0.05499,0 0.12908,0.01976z" fill="#666666" stroke="none" stroke-width="0.5" stroke-linecap="butt"/><path d="M123.76805,169.39143c0.14727,0.00251 0.29454,0.00502 0.44181,0.00752c2.83958,1.52724 6.07774,5.5666 6.83791,8.94825c0.48857,2.17342 -0.07758,5.061 -0.24486,7.26041c-0.01298,3.01185 -0.23992,6.0146 -0.8003,8.96883c-0.20078,1.05842 -0.36292,2.77965 -1.27902,3.44315c-0.58152,0.42117 -1.89713,-0.34758 -2.46288,-0.52698c-1.38589,-0.43945 -3.30315,-0.48246 -4.6684,0.01851c-1.15414,0.01413 -1.81398,-0.24685 -2.36685,-1.48029c-0.5825,-1.29954 -0.24124,-3.23365 -0.54181,-4.63395c-0.67554,-3.14733 -2.62148,-4.96657 -2.58084,-8.50624c0.85756,-1.89055 1.81465,-3.24965 2.05245,-5.36484c0.15944,-1.41821 -0.63559,-2.88904 -0.23985,-4.32033c0.70644,-2.55509 3.37737,-3.05901 5.17041,-4.04593c0,0 0.44809,-0.24664 0.6822,0.23187z" fill="#666666" stroke="none" stroke-width="0.5" stroke-linecap="butt"/><path d="M118.41465,238.77901v-43.11688h16.30238v43.11688z" fill="#870d0d" stroke="none" stroke-width="0" stroke-linecap="butt"/><path d="M115.7825,309.29945v-72.20832h24.26919v72.20832z" fill="#7b0c0c" stroke="none" stroke-width="0" stroke-linecap="butt"/><path d="M127.00813,242.56716c-0.39211,-0.45633 -0.25322,-1.4981 -0.12375,-2.47241c-0.47082,0.68388 -1.07353,1.25581 -1.3837,1.30582c-0.59226,0.09548 -0.91363,-0.16199 -1.08028,-0.59144c-0.14857,-0.14365 -0.21782,-0.42737 -0.15718,-0.90071c-0.01076,-0.24796 -0.00515,-0.50832 0.00724,-0.76615h-0.32957c-0.55184,1.78195 -0.89609,3.74653 -0.89609,5.53018c-0.33337,0.75113 -1.09632,2.35211 -2.15841,1.40807c-0.46287,-0.41144 -0.03288,-0.95505 -0.13741,-1.40807c-0.31239,-1.35383 -0.68279,-4.31636 -1.41155,-5.41246c-0.39669,-0.59666 -1.4068,0.53535 -2.06529,0c-0.52729,-0.42868 0.24135,-1.09365 -0.66755,-0.97029c-1.35355,0 -4.21865,-1.49376 -1.40943,-2.25831c2.47159,-0.67265 5.82147,-0.01521 8.37977,-0.01521c1.7187,0 3.52879,-0.64131 5.24593,-0.27685c1.09093,0.23155 2.52438,0.96365 3.77128,0.91835c0.18959,-0.09737 0.37751,-0.19577 0.56201,-0.29731l0.12398,-0.17772c0,0 0.3651,-0.4019 0.73018,0c0.04705,0.0518 0.08199,0.1036 0.10714,0.15456c0.09084,0.04323 0.17941,0.12689 0.24775,0.27735c0.23091,0.50838 -0.2309,0.76256 -0.2309,0.76256c-0.35395,0.18525 -0.7156,0.29172 -1.08171,0.3403c-1.38878,0.90676 -2.44618,2.11177 -3.68916,2.96349c-0.14919,0.10223 -0.29157,0.16794 -0.42602,0.20286c-0.14264,1.43117 -0.59408,3.23487 -1.92725,1.68337z" fill="#666666" stroke="none" stroke-width="0.5" stroke-linecap="butt"/><path d="M205.05653,225.32846v27.62915h-53.70743v-27.62915z" data-paper-data="{&quot;index&quot;:null}" fill="#990f0f" stroke="none" stroke-width="0" stroke-linecap="butt"/><path d="M184.82951,253.50731v27.62915h-45.25435v-27.62915z" data-paper-data="{&quot;index&quot;:null}" fill="#b31212" stroke="none" stroke-width="0" stroke-linecap="butt"/><path d="M203.54706,253.50731v27.62915h-18.08372v-27.62915z" data-paper-data="{&quot;index&quot;:null}" fill="#990f0f" stroke="none" stroke-width="0" stroke-linecap="butt"/><path d="M122.06521,196.01283v-27.62915h47.36761v27.62915z" data-paper-data="{&quot;index&quot;:null}" fill="#b31212" stroke="none" stroke-width="0" stroke-linecap="butt"/><path d="M185.28235,196.95391v27.62915h-53.70743v-27.62915z" data-paper-data="{&quot;index&quot;:null}" fill="#990f0f" stroke="none" stroke-width="0" stroke-linecap="butt"/><path d="M150.71528,225.32846v27.62915h-18.08371v-27.62915z" data-paper-data="{&quot;index&quot;:null}" fill="#b31212" stroke="none" stroke-width="0" stroke-linecap="butt"/><path d="M203.9999,197.1496v27.62915h-18.08372v-27.62915z" data-paper-data="{&quot;index&quot;:null}" fill="#740c0c" stroke="none" stroke-width="0" stroke-linecap="butt"/><path d="M170.06665,196.01283v-27.62915h47.36761v27.62915z" data-paper-data="{&quot;index&quot;:null}" fill="#990f0f" stroke="none" stroke-width="0" stroke-linecap="butt"/><path d="M211.69824,281.68616v27.62915h-41.39088v-27.62915z" data-paper-data="{&quot;index&quot;:null}" fill="#740c0c" stroke="none" stroke-width="0" stroke-linecap="butt"/><path d="M169.79589,281.68616v27.62915h-41.39087v-27.62915z" data-paper-data="{&quot;index&quot;:null}" fill="#990f0f" stroke="none" stroke-width="0" stroke-linecap="butt"/><path d="M171.07745,290.21851v0.46964c-0.02851,3.89307 0.36228,7.78484 0.36228,11.7412c0,1.81358 0.48564,5.10704 -0.24878,6.64888c-0.31727,0.66608 -1.57995,1.55583 -2.15451,0.81095c-0.48983,-0.63499 -0.02178,-1.32592 0.05436,-1.91811c0.31084,-2.41775 -0.00585,-4.74205 -0.00585,-7.1855c0.0196,-5.01041 0.05463,-10.17767 -0.71575,-15.14843c0,0 -0.03641,-0.23598 0.05394,-0.43597c-0.55813,-0.43497 -1.92905,-1.56068 -2.26685,-1.44553c-0.76347,0.26024 -1.09806,0.94048 -2.05975,0.93905c-0.93294,-0.00141 -1.87905,-0.88456 -2.76526,-1.17308c-2.31493,-0.00993 -4.57565,-1.0923 -6.9644,-0.70294c-1.90774,0.31096 -4.02962,0.87451 -5.84103,0.94216c-2.42389,-0.01593 -4.53552,-0.40458 -6.95576,-0.94688c-1.49057,-0.33399 -3.24753,0.24638 -4.70958,-0.23483c-1.25122,-0.41182 -1.11601,-1.42228 -0.39569,-2.44243c1.3141,-1.12987 2.75437,-0.83753 4.27212,-0.83753l0.5648,0.29679c0,0 0.08096,0.05247 0.15239,0.15744c3.88745,-0.05223 7.71092,-0.21943 11.60015,-0.21943c5.31355,0.00479 10.60693,0.35066 15.88583,-0.63277c4.91921,-0.37091 9.4493,2.07781 14.36414,2.04171c0.16683,0.00269 0.32674,-0.02112 0.48179,-0.0647c0.03449,-0.78421 0.30165,-2.093 0.33673,-2.44953c0.30168,-3.06681 -0.00339,-6.46378 -0.00339,-9.55606c0,-4.44934 0.60606,-9.78674 -0.3939,-14.10141c-1.10898,-0.35712 -2.1708,-0.60771 -2.8259,-0.27223c-2.15197,1.10203 -4.70289,1.21229 -7.06979,1.1949c-3.92816,-1.25293 -9.86453,-2.4061 -13.76565,-0.72349c-5.1075,1.65508 -10.50823,-1.82323 -15.46796,-0.21581c-2.25198,0 -5.07243,2.45788 -6.43791,-1.02459l-0.04781,-0.73218c0,0 0.00001,-0.31886 0.18127,-0.48659c0.00862,-0.57014 0.4527,-0.57011 0.4527,-0.57011c3.53992,0 7.02876,-0.39317 10.59593,-0.46005c-0.00523,-0.38829 0.00062,-0.78156 0.00062,-1.15354c0,-4.56563 0.86772,-8.9753 0.36341,-13.57816c0.03333,-4.61707 -0.39615,-8.77716 -3.46113,-10.60894c-0.74559,0.08242 -1.46452,0.13902 -2.13724,0.13902c-2.33165,-1.00757 -6.82834,-0.92267 -9.29129,-0.46646c-1.27113,0.23546 -2.15998,1.73446 -2.91613,0.29336c-0.91379,-1.21474 -2.29876,-3.35388 -0.61335,-4.68116c0.17576,-0.13841 1.95922,-0.27298 2.14312,-0.29676c1.94676,-0.25172 4.57367,-0.37907 6.45821,0.23171c5.07452,0.02879 10.15727,0.62248 15.312,-0.23799c5.53058,0.01008 11.13681,0.46109 16.7261,0.46988c4.14376,0.76463 8.34388,-0.04991 12.37942,1.57688c0.16269,-0.62259 0.36058,-1.27203 0.35869,-1.70933c-0.01262,-2.89349 -0.35445,-5.81369 -0.36228,-8.68849c0,-4.87858 1.06472,-9.41137 -0.11478,-14.20213c-2.26851,-0.15971 -4.65132,-0.74663 -6.859,-0.74663c-4.87227,0 -9.59251,-0.70448 -14.49101,-0.70448c-3.15055,-0.00405 -6.11091,0.86239 -9.20987,1.17298c-1.96952,0.19738 -3.72656,-0.70334 -5.6434,-0.70334c-4.62414,0 -9.0717,-0.24703 -13.73799,-0.23329c-0.34543,0.08949 -1.97428,0.61132 -2.30613,0.45242c-1.39468,-0.66781 -0.4456,-3.15074 0.64744,-3.27184c2.65687,-0.29434 5.37121,0.94272 8.07865,-0.22724c2.75777,-0.03394 5.55662,-0.03218 8.27906,0.46647c0.89438,0.16382 1.66039,0.64186 2.58918,0.47283c0.97952,-0.17827 1.76745,-0.93429 2.7896,-0.94686c4.10955,0 8.91083,1.6831 12.78822,0.00757c3.2803,-0.04036 0.8301,-8.43992 1.07218,-10.99863c0.11162,-1.17966 0.36029,-2.31692 0.36228,-3.52234c0.37721,-1.95609 0.89947,-8.97071 -0.5217,-10.85084c-0.11914,-0.01428 -0.26065,-0.08722 -0.3424,-0.32525c-0.14955,-0.09397 -0.31504,-0.14327 -0.49783,-0.14113c0,0 -0.45284,0 -0.45284,-0.58707c0,-0.58706 0.45284,-0.58706 0.45284,-0.58706c0.49741,0.00474 0.89795,0.11261 1.2193,0.30237l0.08661,-0.03742c1.11579,-0.46764 1.76011,-0.37418 2.7161,0.51475c0.13915,2.5489 -0.33401,5.0062 -0.30859,7.56081c0.0415,4.16658 0.5433,8.24754 0.5433,12.44139c0,0.93962 -0.85667,5.22133 -0.31377,5.92514c0.25341,0.32852 1.52098,0.06288 1.85344,0.06288c1.86603,0 3.67746,0.46749 5.50527,0.47693c2.33501,0.98146 5.32673,0.66445 7.66243,0.23193c2.09592,-0.38811 4.2557,0.30634 6.35052,-0.23637c3.08334,0.00665 5.7572,0.14341 8.79456,0.70602c1.13106,0.2095 2.20291,-0.7622 3.27768,-0.46647c1.51036,0.41558 1.40965,2.60708 -0.07255,2.81031c-1.35468,0 -2.59655,0.45908 -3.92969,0.70008c-3.07943,0.55671 -6.23451,-0.46523 -9.29334,-0.46523c-1.14725,0 -2.18198,0.23609 -3.2465,0.45205c-0.52103,2.99542 -0.8291,5.9532 -0.8291,9.09574c0,4.97054 0.45166,9.9528 0.53144,14.97642c3.52621,1.09506 8.12035,0.87419 11.69534,0.87419c1.87345,0 4.94222,-0.59228 6.57789,0.79217c0.66483,0.5627 0.8987,3.28303 -0.13402,3.65378c-0.34367,0.1234 -1.23232,-1.23548 -1.57097,-1.45294c-0.84495,-0.54256 -1.79229,-0.40995 -2.69923,-0.40995c-2.14056,0 -4.286,0.04714 -6.42238,0.09977c-0.91978,1.18125 -2.02436,2.21667 -3.35905,2.23309c-1.45682,0 -2.21588,1.70654 -3.44161,1.64377c-1.61409,-0.08268 -1.16546,-2.89381 -2.10412,-3.66281c-0.00738,0.02585 -0.01626,0.05242 -0.02678,0.07969c-0.20253,0.52508 -0.60756,0.26255 -0.60756,0.26255l-0.30295,-0.20298c-2.22988,-1.00128 -4.04744,-0.23455 -6.34566,0.02864c-2.32299,0.26602 -4.63025,-0.45537 -6.97067,-0.47257c-4.65213,-1.50772 -8.85105,1.62399 -13.48832,0.9891c-1.23861,-0.17071 -2.35405,-0.66402 -3.55581,-0.99227c-0.28484,-0.0778 -0.57891,-0.1381 -0.88064,-0.18335c-0.08322,0.09369 -0.17159,0.13187 -0.17159,0.13187l-0.54341,0.23482c-0.90977,0.35955 -1.00138,1.49712 -1.1453,2.5898c-0.42401,3.21919 -0.16599,6.21856 -0.17868,9.46202c0.77129,3.99956 0.36566,7.938 0.36566,12.04774c0,0.44431 0.02898,0.93481 0.03829,1.41768c4.72159,0.12868 9.98787,0.44415 14.40641,-1.01063c1.58982,-0.50371 3.23643,0.22671 4.85614,0.26737c3.8816,0.09744 7.85925,0.00041 11.76425,-0.00014c5.0918,0 10.29539,0.99079 15.42172,0.94021c1.65282,0.23646 4.93135,-0.95731 6.37171,0.32159c1.20801,1.07258 -0.11591,3.58465 -1.22087,3.88864c-1.00525,0.27654 -3.08314,-0.92359 -4.2702,-0.92359c-1.05813,-0.01703 -2.01578,0.93065 -3.07935,0.93929c-1.20068,0.00977 -2.52675,-0.45027 -3.69528,-0.71205c-1.96537,-0.44032 -3.96646,0.47724 -5.90501,0.47724c-0.21612,0 -0.46017,-0.03383 -0.72417,-0.09076c0.33105,1.87755 0.09019,4.08607 0.09019,5.98557c0,5.76237 -0.15437,11.44571 -0.18453,17.07041c0.04626,0.23978 0.05753,0.50887 0.03922,0.78863c0.11843,-0.03732 0.24033,-0.06538 0.36644,-0.08176c3.46942,-0.4505 7.22791,0.16359 10.73769,0.16359c3.00679,0 5.48878,-0.30163 8.38927,1.02696l0.05455,0.12002l0.02758,-0.03577l0.36227,0.46964c0.08194,0.10624 0.13264,0.253 0.13264,0.41512c0,0.32423 -0.20274,0.58705 -0.45284,0.58705h-0.54341v-0.1299c-1.0619,0.1323 -2.09608,-0.08362 -3.18792,0.12234c-3.06291,0.57775 -5.82916,1.18532 -8.97641,1.18058c-2.39048,-0.38441 -5.06883,-0.94048 -7.47682,-0.26909c-1.33201,0.37138 -2.4811,1.25027 -3.85138,1.43994c-1.27764,0.17684 -2.48493,-0.47945 -3.72271,-0.46811c-1.91666,-0.49666 -4.62951,-0.84543 -6.41938,0.38483c-0.47963,0.32966 -0.84609,2.22968 -1.05083,3.85669c0.0402,0.44918 0.02919,0.91678 -0.04021,1.3999c0.40012,0.04369 0.40011,0.58425 0.40011,0.58425zM169.43142,286.64966c0.08427,0.66253 0.15555,1.32697 0.21592,1.99281c-0.0388,-0.66622 -0.0502,-1.36978 -0.21592,-1.99281z" fill="url(#color-3)" stroke="none" stroke-width="0.5" stroke-linecap="butt"/><path d="M132.56183,163.52403v-90.92804h75.31413v90.92804z" data-paper-data="{&quot;index&quot;:null}" fill="#000000" stroke="none" stroke-width="0" stroke-linecap="butt"/><path d="M160.01105,129.6109c0,6.34068 -5.14014,11.48082 -11.48082,11.48082c-6.34068,0 -11.48082,-5.14014 -11.48082,-11.48082c0,-6.34068 5.14014,-11.48082 11.48082,-11.48082c6.34068,0 11.48082,5.14014 11.48082,11.48082z" data-paper-data="{&quot;index&quot;:null}" fill="#ffffff" stroke="none" stroke-width="0" stroke-linecap="butt"/><path d="M162.34259,129.3609c0,5.83343 -4.72894,10.56234 -10.56234,10.56234c-5.83342,0 -10.56234,-4.72893 -10.56234,-10.56234c0,-5.83343 4.72893,-10.56234 10.56234,-10.56234c5.83342,0 10.56234,4.72892 10.56234,10.56234z" data-paper-data="{&quot;index&quot;:null}" fill="#000000" stroke="none" stroke-width="0" stroke-linecap="butt"/><path d="M130.95673,164.66555v-22.96162h57.86331v22.96162z" data-paper-data="{&quot;index&quot;:null}" fill="#990f0f" stroke="none" stroke-width="0" stroke-linecap="butt"/><path d="M193.81057,106.64928c0,6.34068 -5.14014,11.48082 -11.48082,11.48082c-6.34068,0 -11.48081,-5.14014 -11.48081,-11.48082c0,-6.34068 5.14014,-11.48082 11.48081,-11.48082c6.34068,0 11.48082,5.14014 11.48082,11.48082z" data-paper-data="{&quot;index&quot;:null}" fill="#ffffff" stroke="none" stroke-width="0" stroke-linecap="butt"/><path d="M195.89211,106.64928c0,5.83343 -4.72893,10.56234 -10.56234,10.56234c-5.83342,0 -10.56234,-4.72892 -10.56234,-10.56234c0,-5.83343 4.72893,-10.56234 10.56234,-10.56234c5.83343,0 10.56234,4.72892 10.56234,10.56234z" data-paper-data="{&quot;index&quot;:null}" fill="#000000" stroke="none" stroke-width="0" stroke-linecap="butt"/><path d="M161.87838,141.39775v-22.96162h48.06634v22.96162z" data-paper-data="{&quot;index&quot;:null}" fill="#b31212" stroke="none" stroke-width="0" stroke-linecap="butt"/><path d="M189.12618,164.66555v-22.96162h20.35931v22.96162z" data-paper-data="{&quot;index&quot;:null}" fill="#740c0c" stroke="none" stroke-width="0" stroke-linecap="butt"/><path d="M130.03827,118.12998v-22.96162h40.10632v22.96162z" data-paper-data="{&quot;index&quot;:null}" fill="#990f0f" stroke="none" stroke-width="0" stroke-linecap="butt"/><path d="M192.95312,118.12998v-22.96162h20.51238v22.96162z" data-paper-data="{&quot;index&quot;:null}" fill="#740c0c" stroke="none" stroke-width="0" stroke-linecap="butt"/><path d="M130.34442,94.8622v-22.96162h24.18625v22.96162z" data-paper-data="{&quot;index&quot;:null}" fill="#b31212" stroke="none" stroke-width="0" stroke-linecap="butt"/><path d="M155.14297,94.8622v-22.96162h57.86331v22.96162z" data-paper-data="{&quot;index&quot;:null}" fill="#990f0f" stroke="none" stroke-width="0" stroke-linecap="butt"/><path d="M152.20099,72.39101h-0.24885c-0.25362,0 -0.45923,-0.20561 -0.45923,-0.45923c0,-0.25362 0.2056,-0.45923 0.45923,-0.45923h0.29046c0.01618,-0.02293 0.03394,-0.04509 0.05332,-0.06639c0.18603,-0.20433 1.34643,-0.08667 1.64622,-0.08667c0,0 0.09443,0 0.19766,0.04282c0.49158,-0.28516 1.09246,-0.17917 1.68322,-0.17356l0.06322,0.04299l0.00845,-0.02535l0.54103,0.18033c0.18766,0.0577 0.32405,0.23244 0.32405,0.43902c0,0.20658 -0.13641,0.3813 -0.32405,0.43901l-0.24609,0.08204c-1.19443,1.3557 -0.80935,3.15416 -0.53794,5.09987c0.28391,2.03539 0.01228,4.3369 0,6.3927c-0.07225,0.21676 -0.13065,0.44313 -0.17687,0.67703c0.06672,0.79936 0.00424,1.90962 -0.09713,2.86759c0.09282,1.163 0.29628,2.32007 0.45769,3.28858c0.01404,0.08425 0.03385,0.19251 0.05691,0.31882c0.16272,0.25388 0.21092,0.6198 0.16584,0.98772c0.0882,0.61057 0.15102,1.28689 0.08299,1.7809c0.09482,0.01856 0.19187,0.03649 0.29164,0.05318c3.11766,0.52169 6.88286,0.54514 10.02956,0.54514c2.24738,0.00293 4.40846,-0.86291 6.68651,-0.54514c2.68103,0.37397 5.25799,0.72885 8.00893,0.72885c4.02291,0.04995 8.88907,-0.13796 12.8024,-1.09873c2.20125,0.01027 4.23834,-1.01842 6.53062,-0.73598c2.35514,0.29019 4.52338,0.91414 6.90655,0.91713c1.61138,-0.20306 4.5054,-0.65479 5.96444,0.2514c1.00991,0.62723 1.1178,2.97602 -0.42513,3.05419c-1.57775,0.07996 -2.76005,-1.75556 -4.70246,-1.1081c-1.89981,0 -3.83377,0.83637 -5.71193,1.10465c-0.37766,0.05394 -0.75754,0.08096 -1.13894,0.08767c-0.67944,0.72187 -1.59813,0.8996 -2.56972,1.22345c-0.97321,0.31295 -1.60309,-0.40364 -2.38043,-0.28664c-0.98951,0.14893 -2.0277,2.89483 -3.44723,1.70649c-0.55829,-0.46737 -0.15711,-2.6204 -1.01952,-2.79304c-3.32619,0.42133 -6.84718,0.24921 -10.25759,0.24921c-4.63988,-0.03226 -9.0805,-1.41807 -13.70341,-1.47549c-4.06651,1.37444 -8.41586,0.7671 -12.82193,0.73477c-0.89183,-0.332 -2.7082,0.20574 -3.71043,0.36739c-2.58084,0.41625 -6.23207,0.40271 -8.66866,-0.38503c-3.39485,-1.17587 -8.83259,-0.05331 -12.36419,-0.09717c-1.40704,0.42714 -1.43739,-1.69167 -0.38439,-2.14271c1.053,-0.45104 4.44752,0.20658 6.39099,-0.11862c1.44075,-0.24108 2.49673,-0.87003 4.00468,-0.36739c4.01461,0 8.80931,1.33506 12.68283,0.06503c-0.15888,-0.21098 -0.25126,-0.46686 -0.21237,-0.69346c0.2084,-1.21409 0.5256,-2.39853 0.80769,-3.60834c0.01053,-0.30075 0.02871,-0.60391 0.05071,-0.90831c-0.11307,-1.30921 -0.14333,-2.57153 -0.14333,-3.98384c0.00866,-0.30065 0.0828,-0.66188 0.21179,-0.95991c-0.05109,-0.27328 -0.11854,-0.54147 -0.20587,-0.80347l0.01947,-0.07357h-0.02541v-0.55107c0,-0.0931 0.0277,-0.17972 0.07531,-0.25208c-0.01683,-0.0515 -0.03408,-0.10275 -0.05175,-0.15378c-0.52667,-1.62904 -1.02726,-5.65469 -0.56238,-8.23482c-0.38512,-0.21685 -0.73701,-0.64591 -0.89718,-1.08085zM155.33187,93.26012c-0.01372,0.00706 -0.02761,0.01372 -0.04166,0.01996v0.16727c0.01521,-0.0621 0.02907,-0.12451 0.04166,-0.18723z" data-paper-data="{&quot;index&quot;:null}" fill="#666666" stroke="none" stroke-width="0.5" stroke-linecap="butt"/><path d="M191.08147,123.1014c-1.53956,0.01848 -2.81625,-1.96164 -3.53526,-0.83858c-0.27323,0.54645 -0.61744,1.00539 -0.91847,1.53077c-0.23255,0.40587 -0.51102,0.78696 -0.81565,1.14193c-3.056,3.56109 -3.49167,-3.22743 -5.50015,-4.51111c-0.8084,-0.59565 -0.83098,0.27266 -1.73526,0.2302c-0.49076,-0.02304 -0.82447,-0.53961 -1.19723,-0.85966c-1.23071,-1.05672 -3.86333,-0.89334 -5.27373,-0.53175c0,0 -0.39133,0.09783 -0.53217,-0.25664c-1.29832,0.30052 -2.50798,0.77783 -3.87602,1.15863c-0.62703,0.17454 -1.19891,0.02781 -1.76688,-0.13024c-0.07827,0.14146 -0.22901,0.23728 -0.40214,0.23728h-0.40255c-1.99141,0.70347 -1.8353,1.99441 -2.5956,3.13649c-0.0144,0.13099 -0.0343,0.2615 -0.06618,0.38152l0.02134,0.02134l-0.03855,0.03855c-0.04782,0.15393 -0.11859,0.28654 -0.22737,0.37471c-0.29187,0.23655 -0.68481,0.55211 -1.04088,0.4323c-0.49847,-0.16772 -0.31512,-3.24518 -0.25734,-4.44241c-0.18598,-0.41889 -0.4789,-0.79752 -0.93993,-1.2054l-0.40505,-0.13501c-0.18766,-0.05772 -0.32405,-0.23244 -0.32405,-0.43902c0,-0.20658 0.13641,-0.3813 0.32405,-0.43902l0.4492,-0.14973l0.0091,0.02727l0.06257,-0.0449c0.43174,-0.00154 0.78263,0.05747 1.1338,0.15685c3.61552,-1.14643 6.70155,-0.0052 10.37466,-0.0052c0.12951,0 0.25898,-0.00015 0.38842,-0.00045c0.63421,-0.11419 1.29322,-0.18323 1.99958,-0.18323c0.68212,0.00297 1.40649,0.05486 2.15827,0.13343c2.88553,-0.05438 5.76881,-0.13343 8.67962,-0.13343c3.0152,0 6.2556,-0.59652 9.24077,-0.18024c0.85489,0.11923 1.66483,0.33674 2.4975,0.45869c1.73796,-0.32624 3.4794,-0.26679 5.31158,-0.2464l0.19476,0.06263c2.75088,-0.2858 5.5168,-0.68582 8.23812,-0.62603c0.95945,0.64723 1.18921,1.32715 0.65011,1.76935c0.0036,0.00836 0.00705,0.01683 0.01035,0.02536c0.51142,1.31998 -0.66194,1.32354 -1.24988,0.6674c-0.09259,-0.01668 -0.24307,-0.06596 -0.32396,-0.21157c-3.05032,0.39692 -6.30666,-0.13425 -9.24926,0.84663c-1.67318,0.01588 -3.34576,0.02419 -5.01326,-0.0424c-1.12392,0.81261 -2.69627,2.76478 -4.05694,2.78112zM182.76089,118.72735c1.0885,0.07479 2.15063,0.08232 3.14758,-0.03572c-0.36212,0.01485 -0.7214,0.02371 -1.07688,0.02371c-0.69167,0 -1.38178,0.00445 -2.07071,0.01199z" data-paper-data="{&quot;index&quot;:null}" fill="#565656" stroke="none" stroke-width="0.5" stroke-linecap="butt"/><path d="M165.25511,144.72545c0.01182,0.82038 -0.16027,1.52145 -1.30679,1.45177c-1.49191,-0.09066 -1.08029,-1.2512 -0.9009,-2.2581c-0.85429,0.12301 -1.91459,-0.04232 -2.6215,-0.04232c-1.10169,0 -2.19419,-0.02092 -3.28199,-0.04865l-0.02286,0.02229c-1.66181,2.20908 -2.54083,0.74409 -4.45969,1.55612c-0.33098,0.91216 -1.68114,1.14471 -2.2826,0.22196c-0.31379,-0.48141 0.12308,-1.10301 0.1028,-1.53343c-0.00743,-0.1575 -0.06947,-0.29067 -0.17487,-0.40272c-4.14751,0.02262 -8.20477,1.00974 -12.39054,0.17284c-2.03968,-0.69165 -4.11352,0.55242 -6.14637,0.56267c-1.24839,0.0063 -2.13578,-0.14241 -1.58761,-1.39995c-0.01487,-0.01234 -0.02296,-0.02041 -0.02296,-0.02041c-1.13434,-1.56425 0.80565,-1.70243 1.97796,-1.70243c2.67947,0 5.30914,-0.17777 7.97237,-0.17777c2.54023,0.91372 6.57495,-0.55701 9.29477,-0.55701c1.26203,0 3.02986,0.59303 4.15139,0.18963c2.33539,-0.01397 5.10492,0.91256 7.36517,0.54859c2.41022,-0.38812 4.75579,-0.73821 7.22014,-0.73821c5.26553,0 10.40502,0.55107 15.6139,0.55107c4.77164,0 9.48701,-0.73477 14.32806,-0.73477c3.16155,0 6.64686,-0.6878 9.80928,-0.17777c1.42111,0.2292 2.84067,0.52546 2.92242,2.09858c-1.17912,1.24781 -1.82666,0.51984 -3.25324,0.27756c-3.15704,-0.53618 -6.50709,1.93345 -9.55204,0.91846c-1.58999,0.01973 -6.06879,-0.5913 -7.91708,0.56204v0.08683c-0.02068,2.8182 0.01282,5.63614 -0.00344,8.50599c-0.72704,2.95498 0.00344,5.5602 0.00344,8.57746c0,1.47417 0.69373,3.76571 0.69373,3.76571l-4.4646,0.04377c0,0 1.26607,-2.96594 1.3888,-3.69934c0.37847,-2.2618 0.17775,-4.77744 0.17775,-7.09047c0,-3.52719 0.57987,-7.21079 -0.28641,-10.60533c-0.00241,-0.00125 -0.00479,-0.00247 -0.0072,-0.00371c-0.6135,-0.31412 -1.51424,-0.137 -2.18625,-0.137c-1.90833,0 -4.5975,-0.476 -6.41118,0.137c-1.75527,1.1702 -3.9734,0.84671 -5.95235,0.59434c-2.07074,-0.26407 -4.19215,-0.3939 -6.30517,-0.54804c-0.51766,0.23567 -0.97018,0.76038 -1.48433,1.03275z" data-paper-data="{&quot;index&quot;:null}" fill="#484848" stroke="none" stroke-width="0.5" stroke-linecap="butt"/><path d="M274.35217,310.7957v-253.22501h91.18203v253.22501z" fill-opacity="0.01" fill="#000000" stroke="none" stroke-width="0" stroke-linecap="butt"/><path d="M351.31372,127.88235l5.96978,-13.36138c0,0 -0.47197,11.28842 -0.37017,17.00857c0.11262,6.32805 2.79954,15.15197 2.79954,15.15197c0,0 -5.67971,-3.79233 -7.08402,-7.29369c-1.40431,-3.50136 -1.31514,-11.50547 -1.31514,-11.50547z" data-paper-data="{&quot;index&quot;:null}" fill="#000000" stroke="none" stroke-width="0" stroke-linecap="butt"/><path d="M286.89662,139.3878c-1.40431,3.50137 -7.08402,7.29369 -7.08402,7.29369c0,0 2.68693,-8.82392 2.79955,-15.15197c0.1018,-5.72015 -0.37017,-17.00857 -0.37017,-17.00857l5.96978,13.36138c0,0 0.08917,8.0041 -1.31513,11.50547z" data-paper-data="{&quot;index&quot;:null}" fill="#000000" stroke="none" stroke-width="0" stroke-linecap="butt"/><path d="M282.92472,127.71904c-1.7657,3.33376 -7.81365,6.50601 -7.81365,6.50601c0,0 3.60244,-8.49139 4.38173,-14.77228c0.70443,-5.67752 1.42545,-16.95277 1.42545,-16.95277l4.52753,13.9164c0,0 -0.75536,7.96888 -2.52106,11.30264z" data-paper-data="{&quot;index&quot;:null}" fill="#000000" stroke="none" stroke-width="0" stroke-linecap="butt"/><path d="M354.61106,117.4164l4.52753,-13.9164c0,0 0.72103,11.27525 1.42545,16.95277c0.77929,6.2809 4.38173,14.77228 4.38173,14.77228c0,0 -6.04795,-3.17225 -7.81365,-6.50601c-1.7657,-3.33376 -2.52106,-11.30264 -2.52106,-11.30264z" fill="#000000" stroke="none" stroke-width="0" stroke-linecap="butt"/><path d="M280.09886,308.57479c0,0 -0.63536,-94.38387 -0.79335,-118.01201c-0.05451,-8.15261 8.18688,-36.76129 40.20201,-36.9211c31.60235,-0.15775 39.85672,29.48704 39.84884,36.89673c-0.07659,46.24274 0.65429,117.98648 0.65429,117.98648l-10.49667,0.09614l-0.15882,-114.84311c0,0 0.07549,-3.0993 -2.81625,-3.15415c-3.43441,-0.06514 -2.94538,3.11562 -2.94538,3.11562l0.20548,114.86995l-48.21366,0.07222l-0.30539,-115.23309c0,0 0.27949,-2.919 -2.8856,-2.93443c-3.11083,-0.01515 -2.81569,2.90899 -2.81569,2.90899l0.35311,115.0668z" fill="#ffffff" stroke="#000000" stroke-width="2" stroke-linecap="butt"/><path d="M334.69605,204.51697c-0.57113,0 -1.03411,-0.46299 -1.03411,-1.03411c0,-0.57113 0.46299,-1.03413 1.03411,-1.03413c0.57113,0 1.03411,0.463 1.03411,1.03413c0,0.57113 -0.46299,1.03411 -1.03411,1.03411z" fill="#000000" stroke="none" stroke-width="1.5" stroke-linecap="butt"/><path d="M329.43616,208.75258c-4.4635,-0.31439 -6.55245,-1.79392 -6.16985,-2.58011c0.11788,-0.24224 2.84645,1.06355 6.97038,1.3048c6.40897,0.37493 8.51033,-0.63173 8.51033,-0.63173v1.34616c0,0 -2.4135,1.04672 -9.31086,0.56089z" fill="#000000" stroke="#000000" stroke-width="0" stroke-linecap="butt"/><path d="M301.6234,203.48286c0,-0.57113 0.46299,-1.03413 1.03411,-1.03413c0.57113,0 1.03413,0.463 1.03413,1.03413c0,0.57113 -0.463,1.03411 -1.03413,1.03411c-0.57113,0 -1.03411,-0.46299 -1.03411,-1.03411z" fill="#000000" stroke="none" stroke-width="1.5" stroke-linecap="butt"/><path d="M307.9174,208.75258c-6.89736,0.48585 -9.31086,-0.56089 -9.31086,-0.56089v-1.34616c0,0 2.10136,1.00666 8.51033,0.63173c4.12393,-0.24126 6.85251,-1.54704 6.97039,-1.3048c0.3826,0.78618 -1.70634,2.26571 -6.16985,2.58011z" fill="#000000" stroke="#000000" stroke-width="0" stroke-linecap="butt"/><path d="M319.19786,265.3043c-0.81895,0 -1.48284,-0.66389 -1.48284,-1.48284c0,-0.81895 0.66389,-1.48284 1.48284,-1.48284c0.81895,0 1.48284,0.66389 1.48284,1.48284c0,0.81895 -0.66389,1.48284 -1.48284,1.48284z" data-paper-data="{&quot;index&quot;:null}" fill="#000000" stroke="none" stroke-width="1.5" stroke-linecap="butt"/><path d="M294.46792,295.5892v-137.52804l10.09434,-3.55178c0,0 -0.61793,29.10902 14.95458,29.03867c15.85358,-0.07162 14.20685,-29.03867 14.20685,-29.03867l11.21593,4.05178v143.02805c0,0 -10.48719,-0.11402 -13.79683,-0.81553c-1.97511,-0.41864 -4.21712,-3.00272 -4.21712,-3.00272c0,0 -1.85772,2.82827 -4.28495,2.57511c-3.83201,-0.39968 -9.08352,-4.00235 -10.68537,-4.4527c-2.79497,-0.7858 -3.99179,-4.69982 -3.99179,-4.69982c0,0 -0.94646,3.81191 -3.09201,4.51074c-2.33667,0.76107 -10.40363,-0.11508 -10.40363,-0.11508z" fill="#b31212" stroke="none" stroke-width="2" stroke-linecap="butt"/><path d="M297.46792,274.04983c0,0 0.732,-15.24168 0.78152,-26.79614c0.03428,-7.99823 -0.33092,-22.78958 -0.38381,-38.09551c-0.08704,-25.18524 0.10229,-51.76369 0.10229,-51.76369l4.59434,-3.55178c0,0 -4.61793,33.44235 16.95458,33.03867c21.57251,-0.40368 18.20685,-33.03867 18.20685,-33.03867l4.71593,4.05178c0,0 -0.04093,26.88179 -0.34674,52.25564c-0.18752,15.55888 -0.68263,30.55077 -0.71659,38.43029c-0.04561,10.57989 0.56334,25.30274 0.56334,25.30274c0,0 -15.44558,-0.60878 -22.97689,-0.58056c-7.28436,0.0273 -21.49481,0.74722 -21.49481,0.74722z" fill="#8b8b8b" stroke="none" stroke-width="2" stroke-linecap="butt"/><path d="M281.28699,101.27569c0.33654,-2.27063 -0.16776,-40.17317 35.96775,-41.57382c29.74097,-0.60874 41.94178,27.3417 42.13973,46.64398c0.07927,7.72949 -2.24222,17.26476 -4.02241,27.61164c-4.1896,18.60647 -16.62773,28.45699 -36.24453,28.29088c-14.89689,-0.23339 -26.36654,-5.44417 -31.36916,-18.2279c-2.46238,-6.90768 -4.82503,-11.77095 -5.92261,-19.02069c-1.09758,-7.24974 -0.54876,-23.72409 -0.54876,-23.72409z" fill="#000000" stroke="none" stroke-width="1.5" stroke-linecap="butt"/><path d="M291.78126,119.38492c-0.57709,-7.29323 0.335,-17.15448 0.335,-17.15448c0,0 3.41059,-0.04124 13.91429,-3.14424c8.0696,-2.38394 20.54731,-9.48722 20.54731,-9.48722c0,0 -2.16005,3.00503 -3.40781,4.46015c-1.32651,1.54696 -3.99292,4.56297 -3.99292,4.56297c0,0 7.838,-1.66761 14.67476,-4.72931c8.56837,-3.53575 10.59252,-0.30309 12.95042,1.1573c2.7829,1.72362 1.03006,17.4327 0.71846,22.99062c-0.42163,5.66922 -2.53327,9.49969 -3.15031,12.52053c-0.61704,3.02084 -0.4096,6.13662 -2.20622,16.0397c-1.12121,6.18021 -4.16183,8.92466 -10.01942,14.66081c-5.85759,5.73616 -9.05378,9.25275 -13.01359,9.32173c-3.81077,0.06639 -8.93565,-5.1002 -13.93542,-10.38244c-5.32393,-5.62474 -8.87489,-8.47713 -9.71551,-15.13975c-0.75707,-6.00039 -0.77653,-9.90853 -1.12266,-15.24835c-0.25298,-3.90273 -2.26119,-6.44504 -2.57636,-10.42801z" fill="#ffffff" stroke="#000000" stroke-width="1.5" stroke-linecap="butt"/><g stroke="none" stroke-linecap="butt"><path d="M341.16253,150.09743c0,0 -1.94993,10.72863 -9.79316,15.71827c-2.78198,1.76981 -7.442,2.12337 -12.18145,2.05758c-5.92626,-0.08226 -10.66676,-1.69031 -13.86105,-3.93256c-7.82377,-5.49196 -8.30719,-15.12178 -8.30719,-15.12178c0,0 5.89394,-4.54099 13.37297,-4.85581c5.2276,-0.3036 9.85425,4.10644 9.85425,4.10644c0,0 2.3305,-3.79714 9.42767,-2.7178c6.37141,0.96896 11.48795,4.74567 11.48795,4.74567z" fill="#000000" stroke-width="0"/><path d="M332.84457,147.78435c4.84935,1.53774 4.6273,2.4002 -0.85729,2.98417c-1.94817,0.19469 -5.2375,0.49348 -6.71984,0.68812l-6.27931,-0.82185l1.33529,-0.84018c2.71053,-3.02167 5.49074,-4.30717 12.52114,-2.01026z" data-paper-data="{&quot;noHover&quot;:false,&quot;origItem&quot;:[&quot;Path&quot;,{&quot;applyMatrix&quot;:true,&quot;segments&quot;:[[[429.93415,305.67568],[0,-1.32458],[0,0]],[429.93415,306.54352],[[430.95759,306.42172],[0,0],[0.54688,-0.07612]],[[433.27009,306.14766],[-0.71874,0.07614],[2.02344,-0.22838]],[[433.57477,305.0743],[1.78908,0.60138],[-2.59374,-0.89828]]],&quot;closed&quot;:true,&quot;fillColor&quot;:[0,0,0]}]}" fill="#ffffff" stroke-width="0.5"/><path d="M304.72403,146.63915c5.42105,-1.01222 8.24009,-1.00532 10.82354,0.0069c1.22819,0.50609 4.98269,3.1043 5.17328,3.68827c0.33881,0.81758 -2.66423,0.70597 -4.90888,0.70597c-3.49403,0 -11.50711,-1.63286 -13.49766,-2.78132c-1.41874,-0.77866 -1.21139,-0.91909 2.40971,-1.61987z" data-paper-data="{&quot;noHover&quot;:false,&quot;origItem&quot;:[&quot;Path&quot;,{&quot;applyMatrix&quot;:true,&quot;segments&quot;:[[[423.38725,304.62518],[0,0],[-1.33594,0.27406]],[[422.50443,305.22658],[-0.52342,-0.30452],[0.73438,0.44914]],[[427.29349,306.2695],[-1.28906,0],[0.82812,0]],[[428.16849,305.87364],[0.125,0.31974],[-0.07032,-0.22838]],[[428.02787,305.24942],[0,0.1218],[0,-0.15224]],[[427.19193,304.6252],[0.45312,0.19792],[-0.95312,-0.39586]],[[423.38725,304.6252],[2,-0.39586],[0,0]]],&quot;closed&quot;:true,&quot;fillColor&quot;:[0,0,0]}]}" fill="#ffffff" stroke-width="0.5"/><path d="M323.90473,152.90162c5.08223,0.05835 5.54818,0.14826 3.59996,0.73222c-2.71053,0.75917 -14.41173,0.22942 -16.67757,-0.7244c-1.29173,-0.58397 -0.82413,-0.72261 2.52169,-0.41117c2.26583,0.19469 7.31598,0.32546 10.55592,0.40335z" data-paper-data="{&quot;noHover&quot;:false,&quot;origItem&quot;:[&quot;Path&quot;,{&quot;applyMatrix&quot;:true,&quot;segments&quot;:[[[426.57475,306.89362],[0.83594,0.07614],[-1.23438,-0.1218]],[[425.64507,307.04588],[-0.47656,-0.22838],[0.83594,0.37302]],[[431.59819,307.31992],[-1,0.2969],[0.71876,-0.22838]],[[430.27007,307.04588],[1.875,0.02282],[-1.19532,-0.03046]]],&quot;closed&quot;:true,&quot;fillColor&quot;:[0,0,0]}]}" fill="#ffffff" stroke-width="0.5"/><path d="M326.02279,155.83743c-1.8,1.03166 -9.8384,1.03163 -12.14658,-0.00002c-1.567,-0.62289 -0.53047,-1.01391 5.86469,-1.01391c6.11988,0 7.44656,0.39104 6.28189,1.01393z" data-paper-data="{&quot;noHover&quot;:false,&quot;origItem&quot;:[&quot;Path&quot;,{&quot;applyMatrix&quot;:true,&quot;segments&quot;:[[[428.84035,307.89094],[2.25782,0],[-2.35938,0]],[[426.77003,308.18782],[-0.57812,-0.2436],[0.85156,0.40346]],[[431.05129,308.18782],[-0.66408,0.40346],[0.42968,-0.2436]]],&quot;closed&quot;:true,&quot;fillColor&quot;:[0,0,0]}]}" fill="#ffffff" stroke-width="0.5"/><path d="M298.90635,148.92278c0.21175,0 1.78865,0.65207 2.95331,1.21655c1.10112,0.58397 4.48167,2.64959 7.50981,4.61557c0,0 2.95284,2.91105 5.41992,3.44663c2.46708,0.53558 7.43134,1.0749 10.56853,0.02432c2.49688,-0.83615 5.04069,-3.23437 5.04069,-3.23437c7.41161,-4.82745 9.44732,-5.1775 8.15559,-1.42068c-1.22819,3.69842 -5.33321,8.53834 -8.82723,10.25129c-2.8376,1.40155 -4.28252,1.6536 -10.55061,1.6536c-10.58796,0 -13.95894,-2.01918 -18.21533,-10.42824c-1.79996,-3.69842 -2.62642,-6.12472 -2.05466,-6.12472z" data-paper-data="{&quot;noHover&quot;:false,&quot;origItem&quot;:[&quot;Path&quot;,{&quot;applyMatrix&quot;:true,&quot;segments&quot;:[[[421.23883,305.52346],[0,0],[-0.21094,0]],[[422.00445,307.89096],[-0.66406,-1.44638],[1.57032,3.28862]],[[428.62163,311.8571],[-3.90624,0],[2.3125,0]],[[432.43413,311.2557],[-1.04688,0.54812],[1.28906,-0.6699]],[[435.67631,307.32002],[-0.45312,1.44638],[0.47656,-1.46922]],[[432.86381,307.83768],[2.73438,-1.88792],[0,0]],[431.00443,309.13942],[426.91069,309.13942],[[424.91069,307.73872],[0,0],[-1.11718,-0.76886]],[[422.14507,305.91932],[0.40624,0.22838],[-0.42968,-0.22076]],[[421.23883,305.52348],[0.07812,0],[0,0]]],&quot;closed&quot;:true,&quot;fillColor&quot;:[0,0,0]}]}" fill="#ffffff" stroke-width="0.5"/></g><path d="M339.8512,106.76457c0,0 1.52429,0.31807 4.2558,1.11029c2.49492,0.72361 4.44935,1.74403 4.44935,1.74403l0.1951,1.17035c0,0 -7.24963,-3.12997 -15.1158,-2.4706c-6.2896,0.52724 -9.96319,2.8124 -9.96319,2.8124l0.04575,-4.17683c0,0 3.12748,-1.70421 7.86366,-1.85557c4.90428,-0.15672 8.09084,0.59125 8.09084,0.59125z" data-paper-data="{&quot;index&quot;:null}" fill="#000000" stroke="none" stroke-width="1.5" stroke-linecap="butt"/><path d="M319.41341,148.81201c-1.03376,0 -3.5381,-3.26042 -3.7867,-5.3637c-0.22243,-1.88186 1.31512,-3.82799 3.7867,-3.82799c2.47159,0 4.2021,0.49077 4.02999,4.18853c-0.14607,3.13818 -1.55841,5.00317 -4.02999,5.00317z" fill="#ffffff" stroke="#000000" stroke-width="1.15" stroke-linecap="butt"/><path d="M323.0155,118.9183c0,0 0.1026,3.96976 0.00576,7.12662c-0.19174,6.25113 -1.08147,27.7607 -1.08147,27.7607l-2.98167,0.00864c0,0 -0.80294,-4.17274 -1.12322,-9.49979c-0.43353,-7.21063 -0.4495,-16.29321 -0.76344,-19.63229c-0.29758,-3.16513 -0.89593,-5.71453 -0.89593,-5.71453" fill="#ffffff" stroke="#000000" stroke-width="1.3" stroke-linecap="round"/><path d="M293.48092,129.50814c0,0 -4.93211,-3.51705 -6.16417,-8.97502c-1.29636,-5.74284 -1.46118,-9.7328 0.48013,-9.99193c1.94131,-0.25915 2.70321,2.37692 3.73262,8.35569c1.0294,5.97877 1.95143,10.61127 1.95143,10.61127z" data-paper-data="{&quot;index&quot;:null}" fill="#ffffff" stroke="#000000" stroke-width="1" stroke-linecap="butt"/><path d="M293.27831,125.56058c0,0 -3.56385,-2.92338 -4.31816,-8.45061c-0.42079,-3.08327 2.15675,-2.28016 2.15675,-2.28016" fill="none" stroke="#000000" stroke-width="0.25" stroke-linecap="round"/><path d="M296.29173,118.90468c0.07093,-4.89188 4.83834,-8.93609 10.21137,-8.8582c5.37302,0.0779 9.02724,4.2484 8.95632,9.14029c-0.07093,4.89188 -4.12352,8.79439 -9.49655,8.7165c-5.37302,-0.0779 -9.74207,-4.1067 -9.67114,-8.99859z" fill="#ffffff" stroke="#000000" stroke-width="1.4" stroke-linecap="butt"/><path d="M297.34612,118.95088c0.0474,-3.26924 2.73604,-5.88103 6.00527,-5.83363c3.26925,0.0474 5.88103,2.73604 5.83363,6.00527c-0.0474,3.26924 -2.73603,5.88103 -6.00527,5.83363c-3.26925,-0.0474 -5.88103,-2.73604 -5.83363,-6.00527z" fill="#000000" stroke="none" stroke-width="1.5" stroke-linecap="butt"/><path d="M323.34801,118.90542c0.20353,-4.88817 4.45264,-8.85847 9.77048,-8.85847c5.31783,0 9.27453,3.96607 9.27453,8.85847c0,4.8924 -3.88585,9.07104 -9.69964,9.14188c-5.52997,0.06739 -9.55792,-4.03692 -9.34537,-9.14188z" fill="#ffffff" stroke="#000000" stroke-width="1.4" stroke-linecap="butt"/><path d="M323.45072,118.63976c0,-4.49832 3.6466,-8.14492 8.14492,-8.14492c4.49832,0 8.14492,3.6466 8.14492,8.14492c0,4.49832 -3.64658,8.14492 -8.14492,8.14492c-4.49832,0 -8.14492,-3.6466 -8.14492,-8.14492z" fill="#000000" stroke="none" stroke-width="1.5" stroke-linecap="butt"/><path d="M296.2233,118.3725c0,0 0.06357,-9.01512 10.60111,-8.8249c9.47101,0.16586 9.55554,9.40723 9.55554,9.40723z" fill="#ffffff" stroke="#000000" stroke-width="1.15" stroke-linecap="butt"/><path d="M322.97036,118.5034c0,0 -0.24686,-9.4582 11.19813,-9.1032c9.71427,0.33347 9.54677,9.65229 9.54677,9.65229z" fill="#ffffff" stroke="#000000" stroke-width="1.15" stroke-linecap="butt"/><path d="M299.75313,108.36084c0,0 3.36963,-1.819 8.03244,-2.28178c5.16698,-0.51283 7.76823,-0.06628 7.76823,-0.06628l0.29508,4.13747c0,0 -3.83554,-0.68065 -8.01795,-0.52113c-5.59346,0.21333 -6.64488,1.43293 -10.89774,1.89119c-3.64408,0.39266 -6.73723,0.15884 -6.73723,0.15884l-0.02589,-1.23155c0,0 3.59517,0.07398 5.23371,-0.06836c1.35239,-0.11749 3.9757,-0.93808 3.9757,-0.93808z" fill="#000000" stroke="none" stroke-width="1.5" stroke-linecap="butt"/><path d="M347.71402,118.89687c1.0294,-5.97877 1.7913,-8.61483 3.73262,-8.35569c1.94131,0.25914 1.77649,4.24909 0.48013,9.99193c-1.23206,5.45797 -6.16417,8.97502 -6.16417,8.97502c0,0 0.92203,-4.6325 1.95143,-10.61127z" data-paper-data="{&quot;index&quot;:null}" fill="#ffffff" stroke="#000000" stroke-width="1" stroke-linecap="butt"/><path d="M348.12655,114.82981c0,0 2.57754,-0.80312 2.15675,2.28016c-0.75431,5.52723 -4.31816,8.45061 -4.31816,8.45061" data-paper-data="{&quot;index&quot;:null}" fill="none" stroke="#000000" stroke-width="0.25" stroke-linecap="round"/><path d="M275.91713,284.51335c0,0 -1.76537,-93.78521 1,-104.5c3.61868,-14.02102 18,-22 18,-22v128c0,0 -3.92096,-0.08909 -4.19627,-0.60568c-0.18338,-0.3441 -0.28149,-1.54004 -0.52258,-2.78424c-0.31482,-1.62467 -0.75589,-3.33162 -0.75589,-3.33162c0,0 -0.11438,1.2241 -0.45165,2.60005c-0.43583,1.77808 -1.1322,3.80975 -1.27057,3.78114c-0.63751,-0.13184 -2.81587,0.14428 -3.38742,0.10246c-3.44382,-0.25199 -8.41561,-1.26212 -8.41561,-1.26212z" fill="#990f0f" stroke="none" stroke-width="2" stroke-linecap="butt"/><path d="M355.27965,286.44216c-0.06936,0.00507 -0.20649,-1.02809 -0.51352,-2.14214c-0.35815,-1.29955 -0.88738,-2.70915 -0.88738,-2.70915c0,0 -0.17117,1.03704 -0.33158,1.52945c-0.14982,0.45989 -0.60128,1.83412 -0.60128,1.83412c0,0 -0.13957,-2.28864 -0.39006,-3.23607c-0.27072,-1.02395 -1.1783,-3.1959 -1.1783,-3.1959c0,0 0.00099,1.73432 0.00161,2.81972c0.00085,1.48295 0.00301,5.26359 0.00301,5.26359l-6.6869,0.07426v-128c0,0 14.38132,7.97898 18,22c1.20903,4.68456 1.55514,51.90996 1.55514,51.90996c0,0 -2.38261,1.31818 -3.5376,1.35124c-1.10852,0.03172 -3.25865,-1.15675 -3.25865,-1.15675c0,0 2.06097,4.38166 3.13664,5.88566c1.13948,1.59322 3.51982,3.42145 3.51982,3.42145l-0.41535,43.08844c0,0 -4.97179,1.01013 -8.41561,1.26212z" data-paper-data="{&quot;index&quot;:null}" fill="#990f0f" stroke="none" stroke-width="2" stroke-linecap="butt"/><path d="M292.74277,97.4577c0,0 19.44077,-10.14593 28.7538,-10.45532c11.72685,-0.38958 27.2462,7.28032 27.2462,7.28032c0,0 -0.03213,8.16603 -0.28816,12.09507c-0.24332,3.73394 -0.70434,9.96886 -1.21184,13.17369c-0.5075,3.20483 -2.14625,8.03251 -2.14625,8.03251c0,0 0.49154,-9.85527 -0.69162,-11.00804c-1.75108,-1.7061 -4.77641,-3.51825 -6.33436,-4.44759c-0.56437,-0.33666 -1.69567,0.25666 -2.16666,1.09826c-0.72229,1.29064 -0.66414,3.16521 -0.66414,3.16521c0,0 -2.8031,-1.48353 -4.82127,-2.92658c-2.12655,-1.52055 -3.4919,-2.99616 -4.23822,-2.64388c-5.03228,2.37532 -8.29463,8.82357 -8.29463,8.82357c0,0 0.63586,-6.7518 -3.65776,-9.00545c-0.69664,-0.36566 -1.9076,1.27958 -4.0297,3.1005c-0.87853,0.75385 -2.88441,1.38661 -3.79621,2.07046c-1.50297,1.12723 -1.75031,2.13364 -1.75031,2.13364c0,0 -0.81008,-1.18061 -1.07625,-2.47772c-0.17628,-0.85906 0.36719,-1.76922 -0.18854,-2.42135c-0.74884,-0.87874 -3.0557,-0.85853 -3.54746,-0.57972c-1.34853,0.76457 -3.52907,2.49248 -5.00903,4.21713c-2.80912,3.27356 -0.96465,10.8242 -0.96465,10.8242c0,0 -1.87767,-3.581 -2.41983,-8.15593c-0.56353,-4.75526 0.20861,-10.53075 0.26349,-11.59066c0.17185,-3.31929 1.03339,-10.30232 1.03339,-10.30232z" fill="#000000" stroke="#e10000" stroke-width="0" stroke-linecap="round"/><path d="M334.56804,136.3353c1.36312,-1.12417 2.22609,-0.36824 2.46553,0.62391c0.44129,-0.32901 1.02188,-0.43864 1.74819,-0.23059c0.24771,0.07096 0.49724,0.11621 0.72504,0.16445c-0.0614,-0.1409 -0.03069,-0.32417 0.19361,-0.60159c0.25661,-0.31738 1.39816,0.24161 1.43346,-0.21399c0.05555,-0.71679 -1.05362,-2.03046 -0.80268,-2.40733c0.35952,-0.53993 1.47241,0.05205 2.14896,0.18818c-0.0019,-0.04528 -0.00367,-0.09115 -0.00527,-0.13745c-0.01934,-0.04588 -0.03017,-0.1053 -0.00501,-0.16911c-0.02005,-0.82656 0.02682,-1.72264 0.36669,-1.7925c0.8185,-0.16826 0.38488,1.9265 0.38488,1.9265c0,0 -0.42034,4.01509 -0.69307,6.07561c-0.28241,2.13364 -1.0845,6.51451 -1.0845,6.51451c0,0 -0.95761,0.03887 -2.18266,-0.38156c-0.22716,-0.07796 -0.44327,-0.17991 -0.6481,-0.30269c-1.24048,0.56452 -3.26241,0.81353 -3.30323,-1.063c0.00742,-0.67441 -1.31364,-0.25903 -1.96394,-0.42118c-1.44414,-0.36008 -2.20925,-1.60181 -1.86395,-3.04667c-1.12423,-0.65035 -2.05976,-1.63455 -0.47586,-2.31678c-0.29818,-0.9424 -1.73505,-0.76788 -2.16667,-1.51407c-0.74998,-1.2966 2.05332,-1.32267 2.67713,-1.11474c0.94016,0 1.77317,0.33316 2.57125,0.75779c0.13384,-0.19398 0.28103,-0.37343 0.4802,-0.53769zM335.93178,137.61207c-0.0169,0.01239 -0.03397,0.0246 -0.05118,0.03663c0.0326,0.00934 0.06347,0.01673 0.09268,0.02232c-0.00116,-0.01733 -0.00261,-0.03464 -0.00433,-0.05195c-0.00769,-0.00408 -0.01538,-0.00815 -0.02309,-0.01222c-0.00467,0.00172 -0.00936,0.00346 -0.01407,0.00521z" fill="#740c0c" stroke="none" stroke-width="0.5" stroke-linecap="butt"/><path d="M337.78449,131.73008c0.10125,-0.03704 0.20447,0.01457 0.20447,0.01457l0.39831,0.2135c1.55341,3.01534 -4.07382,2.38693 -1.85355,0.16667c0.24788,-0.24788 0.58816,-0.38344 0.89831,-0.54683c0,0 0.22361,-0.1118 0.33541,0.1118c0.00693,0.01386 0.01257,0.02729 0.01706,0.0403z" fill="#740c0c" stroke="none" stroke-width="0.5" stroke-linecap="butt"/><path d="M340.22728,131.86369c0.02969,0 0.05817,0.00518 0.08459,0.01467l0.3278,0.10927c0,0 0.17496,0.05832 0.17425,0.22506l0.17018,0.08509c0.08456,0.04009 0.14304,0.12623 0.14304,0.22603c0,0.10424 -0.06379,0.19357 -0.15447,0.2311l-0.35375,0.15581l-0.01326,-0.0301l-0.07588,0.05104c-0.32548,-0.12365 -0.70188,-0.39468 -0.73598,-0.74118c0,0 0,-0.25 0.25,-0.25c0.00107,0 0.00214,0 0.0032,0.00001c0.04549,-0.04734 0.10944,-0.07679 0.18028,-0.07679z" fill="#740c0c" stroke="none" stroke-width="0.5" stroke-linecap="butt"/><path d="M329.56197,141.87649c0.17079,-0.09241 0.37847,-0.11422 0.56218,-0.07684c0.0188,0.00271 0.03687,0.00699 0.05402,0.01289c0.3486,0.09585 0.58249,0.41353 0.24704,0.86783c-0.56828,0.76961 -1.58437,0.23509 -1.17228,-0.68022c0,0 0.10302,-0.20603 0.30905,-0.12367z" fill="#740c0c" stroke="none" stroke-width="0.5" stroke-linecap="butt"/><path d="M299.2948,127.99436c0,0.05981 -0.01431,0.10531 -0.03608,0.13992c0.33776,0.04968 0.70473,0.01565 0.97822,-0.05477l0.03008,0.00772v-0.00953h0.33333c0.13807,0 0.25,0.11193 0.25,0.25c0,0.04223 -0.01047,0.08202 -0.02896,0.1169c0.22875,0.40057 1.78341,0.65797 1.19986,1.5904c-0.47679,0.76183 -2.80714,3.23481 -3.33434,1.99941c0,-2.13175 -0.44106,1.87662 -1.08656,1.87662c-0.94821,0 -0.29535,-2.81098 -0.13566,-3.29005c-0.00154,-0.93922 -0.96773,-1.58146 -0.88543,-2.1285c0.26052,-1.73161 1.41254,-0.73775 2.35442,-0.74812h0.11111c0,0 0.25,0 0.25,0.25z" fill="#b31212" stroke="none" stroke-width="0.5" stroke-linecap="butt"/><path d="M295.71008,125.10478c0.1118,-0.22361 0.33541,-0.1118 0.33541,-0.1118l0.2872,0.15794c0.29944,0.3016 0.37114,0.54079 0.34208,0.7037l0.06104,0.04069c0.06893,0.04451 0.11455,0.12201 0.11455,0.21016c0,0.13807 -0.11193,0.25 -0.25,0.25c-0.02969,0 -0.05817,-0.00518 -0.08459,-0.01467l-0.3278,-0.10927c0,0 -0.2204,-0.07347 -0.16545,-0.29123l-0.10193,-0.3058c-0.0095,-0.02642 -0.01467,-0.0549 -0.01467,-0.08459c0,-0.02473 0.00359,-0.04862 0.01028,-0.07118l-0.0943,-0.03855c0,0 -0.22361,-0.1118 -0.1118,-0.33541z" fill="#b31212" stroke="none" stroke-width="0.5" stroke-linecap="butt"/><path d="M295.01702,123.21658c0,-0.13807 0.11193,-0.25 0.25,-0.25c0.13807,0 0.25,0.11193 0.25,0.25c0,0.13807 -0.11193,0.25 -0.25,0.25c-0.13807,0 -0.25,-0.11193 -0.25,-0.25z" fill="#b31212" stroke="none" stroke-width="0.5" stroke-linecap="butt"/><path d="M298.86803,134.03981l0.13975,-0.13266c0.01646,-0.01707 0.03293,-0.03414 0.04939,-0.0512c0.44239,-1.09156 1.45286,0.15447 0.37069,0.62094l0.02933,0.08798l-0.3278,0.10927c-0.02642,0.0095 -0.0549,0.01467 -0.08459,0.01467c-0.13807,0 -0.25,-0.11193 -0.25,-0.25c0,-0.02969 0.00518,-0.05817 0.01467,-0.08459l0.00851,-0.02552c-0.08606,-0.15278 0.05004,-0.28888 0.05004,-0.28888z" fill="#b31212" stroke="none" stroke-width="0.5" stroke-linecap="butt"/><path d="M300.35035,132.66103c0,-0.16072 0.10333,-0.21812 0.17713,-0.23862c0.01931,-0.05793 0.03862,-0.11585 0.05793,-0.17378c0,0 0.07906,-0.23717 0.31623,-0.15811c0.23717,0.07906 0.15811,0.31623 0.15811,0.31623c-0.03704,0.11111 -0.07407,0.22222 -0.11111,0.33333l-0.34828,0.17094c0,0 -0.25,0 -0.25,-0.25z" fill="#b31212" stroke="none" stroke-width="0.5" stroke-linecap="butt"/><path d="M287.66267,75.99753c0,0 -2.90899,-20.6961 6.18466,-24.73863c14.20045,-6.31272 23.51035,3.53818 38.4378,7.85956c14.3259,4.14722 32.65928,0.16255 33.66993,15.04238c0.7125,10.49026 -8.18466,19.23864 -8.18466,19.23864c0,0 -7.78743,0.84199 -19.13495,-1.97466c-5.44456,-1.35143 -16.70948,-5.90804 -27.11115,-9.11485c-12.49851,-3.85326 -23.86163,-6.31243 -23.86163,-6.31243z" fill="#b31212" stroke="none" stroke-width="0" stroke-linecap="butt"/><path d="M287.46267,76.19754c0,0 10.79859,0.52465 24.47984,3.48181c15.40729,3.33024 22.67744,6.23103 37.75482,2.98379c15.07738,-3.24724 14.39486,-14.21533 14.39486,-14.21533c0,0 1.4597,2.92166 1.66287,5.91303c0.7125,10.49026 -8.18466,19.23864 -8.18466,19.23864c0,0 -7.78743,0.84199 -19.13495,-1.97466c-5.44456,-1.35143 -16.70948,-5.90804 -27.11115,-9.11485c-12.49851,-3.85326 -23.86163,-6.31243 -23.86163,-6.31243z" fill="#990f0f" stroke="none" stroke-width="0" stroke-linecap="butt"/><path d="M335.51434,62.00843c-0.20963,0.6939 -1.77247,0.83563 -3.4907,0.31655c-1.71823,-0.51908 -2.94119,-1.50239 -2.73157,-2.19629c0.20962,-0.6939 1.77247,-0.16896 3.4907,0.35012c1.71823,0.51908 2.94119,0.83572 2.73157,1.52962z" fill="#990f0f" stroke="none" stroke-width="0" stroke-linecap="butt"/><path d="M330.65105,61.00201c0,0 4.54975,-4.4076 6.82923,-5.95618c1.82225,-1.23797 5.78556,-2.61385 5.78556,-2.61385l1.49261,3.39673c0,0 -4.33639,0.07766 -6.42971,1.12815c-2.26081,1.13455 -6.34973,4.53058 -6.34973,4.53058z" fill="#740c0c" stroke="none" stroke-width="0" stroke-linecap="butt"/><path d="M317.77904,150.40602c0,0 -0.11927,0.3904 -0.46542,0.34589c-0.43548,-0.05599 -0.6332,-2.5901 -0.6332,-2.5901c0,0 -0.31975,0.52143 -0.6241,0.38114c-0.47598,-0.21942 -0.33983,-1.12905 -0.37006,-1.73757c-0.03662,-0.73722 -0.17989,-1.40538 -0.17989,-1.40538c0,0 0.632,0.96382 0.94953,1.41851c0.31958,0.45763 1.0795,1.3185 1.0795,1.3185z" fill="#990f0f" stroke="none" stroke-width="0.5" stroke-linecap="butt"/><path d="M316.05798,149.48755c-0.03331,-0.19601 0.02997,-0.37025 0.14134,-0.38918c0.11137,-0.01892 0.22866,0.12463 0.26197,0.32064c0.03331,0.19601 -0.02997,0.37026 -0.14134,0.38918c-0.11137,0.01892 -0.22866,-0.12464 -0.26197,-0.32065z" fill="#990f0f" stroke="none" stroke-width="0.5" stroke-linecap="butt"/><path d="M315.60688,148.79513c-0.00091,-0.08477 0.03739,-0.15391 0.08555,-0.15443c0.04817,-0.00052 0.08795,0.06778 0.08887,0.15255c0.00091,0.08477 -0.03738,0.15391 -0.08555,0.15443c-0.04817,0.00052 -0.08796,-0.06778 -0.08887,-0.15255z" fill="#990f0f" stroke="none" stroke-width="0.5" stroke-linecap="butt"/><path d="M345.70686,286.65853c0,0 2.90522,-0.99061 3.1741,-1.98129c0.80676,-2.97249 2.20469,-17.83688 2.20469,-17.83688l1.95454,12.16666l1.33333,-4.06061c0,0 2.3262,7.43353 3.43902,8.86495c1.32101,1.69921 4.60644,1.66535 4.60644,1.66535c0,0 -4.60526,0.61237 -4.99506,0.65546c-0.55539,0.0614 -2.02009,0.22332 -2.02009,0.22332c0,0 -0.44064,-1.86736 -0.7285,-2.73095c-0.25975,-0.77925 -0.92302,-2.13269 -0.92302,-2.13269c0,0 0.00708,0.69275 -0.12577,1.40721c-0.13286,0.71445 -0.55605,1.80491 -0.55605,1.80491c0,0 -0.22893,-1.8467 -0.51452,-2.84627c-0.34092,-1.19323 -1.21275,-3.47191 -1.21275,-3.47191l0.01515,8.12122c0,0 -2.06683,0.14632 -3.04197,0.17246c-0.90317,0.02422 -2.60955,-0.02094 -2.60955,-0.02094z" fill="#740c0c" stroke="#000000" stroke-width="0" stroke-linecap="round"/><path d="M284.43685,285.70382c0,0 1.60878,-0.54615 2.57109,-1.70838c0.69072,-0.83421 0.77904,-1.97907 0.95299,-2.68727c0.57102,-2.32489 1.69815,-8.27102 1.69815,-8.27102c0,0 1.39748,6.14339 1.84733,8.49491c0.14208,0.74269 0.20519,2.47182 0.72496,3.29926c0.64876,1.03278 1.76103,1.09473 1.76103,1.09473l-3.11111,-0.11112c0,0 -0.44752,-2.21101 -0.681,-3.30659c-0.24721,-1.15999 -0.76344,-3.47118 -0.76344,-3.47118c0,0 -0.23906,1.91104 -0.48564,2.93259c-0.26984,1.1179 -1.06992,3.51186 -1.06992,3.51186c0,0 -1.25242,0.19191 -1.84555,0.23018c-0.55208,0.03562 -1.5989,-0.00796 -1.5989,-0.00796z" fill="#740c0c" stroke="#000000" stroke-width="0" stroke-linecap="round"/><path d="M364.058,243.52611c0,0 -4.00935,-3.72825 -6.00154,-6.40946c-2.03711,-2.74168 -7.453,-10.68145 -7.453,-10.68145c0,0 6.89951,5.52656 9.17308,6.0448c1.62799,0.37109 4.37238,0.22793 4.37238,0.22793c0,0 -2.36828,1.05821 -3.44127,1.08802c-1.10771,0.03077 -3.10418,-0.9062 -3.10418,-0.9062l6.63637,9.45455z" fill="#740c0c" stroke="#000000" stroke-width="0" stroke-linecap="round"/><path d="M351.72697,224.69517c0.07491,0.11299 0.12662,0.24015 0.16192,0.37341l0.06374,-0.02124l0.08907,0.26719c0.0095,0.02642 0.01468,0.0549 0.01468,0.08459c0,0.13807 -0.11193,0.25 -0.25,0.25c-0.05253,0 -0.10128,-0.0162 -0.14152,-0.04388l-0.26988,-0.17992l0.00456,-0.00684l-0.02438,-0.00783c-0.15503,-0.16011 -0.27683,-0.3588 -0.3514,-0.56883c0,0 -0.06843,-0.2053 0.11304,-0.29755c0.04358,-0.0733 0.12358,-0.12241 0.21504,-0.12241c0.06903,0 0.13153,0.02799 0.17677,0.07323l0.18182,0.18182l-0.00721,0.00721z" fill="#740c0c" stroke="none" stroke-width="0.5" stroke-linecap="butt"/><path d="M352.46544,227.03548c0,-0.13807 0.11193,-0.25 0.25,-0.25c0.13807,0 0.25,0.11193 0.25,0.25c0,0.13807 -0.11193,0.25 -0.25,0.25c-0.13807,0 -0.25,-0.11193 -0.25,-0.25z" fill="#740c0c" stroke="none" stroke-width="0.5" stroke-linecap="butt"/><path d="M358.16967,280.81777c0.39184,0.61507 0.18032,1.01463 -0.10113,1.02542c-0.03638,0.04578 -0.09564,0.08308 -0.1922,0.08308c-0.25,0 -0.25,-0.25 -0.25,-0.25l0.00246,-0.19828c-0.04506,-0.10777 -0.07836,-0.24098 -0.09347,-0.40171h-0.009v-0.3c0,-0.13807 0.11193,-0.25 0.25,-0.25c0.06903,0 0.13154,0.02799 0.17678,0.07322l0.2,0.2l-0.00581,0.00582z" fill="#740c0c" stroke="none" stroke-width="0.5" stroke-linecap="butt"/><path d="M356.32632,279.47627c0,-0.13807 0.11193,-0.25 0.25,-0.25c0.13807,0 0.25,0.11193 0.25,0.25c0,0.13807 -0.11193,0.25 -0.25,0.25c-0.13807,0 -0.25,-0.11193 -0.25,-0.25z" fill="#740c0c" stroke="none" stroke-width="0.5" stroke-linecap="butt"/><path d="M347.82493,283.71266c0,-0.13807 0.11193,-0.25 0.25,-0.25c0.13807,0 0.25,0.11193 0.25,0.25c0,0.13807 -0.11193,0.25 -0.25,0.25c-0.13807,0 -0.25,-0.11193 -0.25,-0.25z" fill="#740c0c" stroke="none" stroke-width="0.5" stroke-linecap="butt"/><path d="M350.79933,262.2025c0.22361,-0.11181 0.33541,0.1118 0.33541,0.1118l0.1264,0.31181c0,0.44126 0.02064,0.67951 -0.08923,0.95359l0.0764,0.02546l-0.09818,0.29453c-0.03141,0.10215 -0.12653,0.17642 -0.23899,0.17642c-0.13807,0 -0.25,-0.11193 -0.25,-0.25c0,-0.25847 0,-0.73962 0,-1.05975c-0.02297,-0.0378 -0.03621,-0.08219 -0.03621,-0.12966c0,-0.05385 0.01703,-0.10372 0.04599,-0.14452c-0.01975,-0.07137 -0.0322,-0.20937 0.12842,-0.28968z" fill="#740c0c" stroke="none" stroke-width="0.5" stroke-linecap="butt"/><path d="M351.46114,266.32611c0,-0.13807 0.11193,-0.25 0.25,-0.25c0.13807,0 0.25,0.11193 0.25,0.25c0,0.13807 -0.11193,0.25 -0.25,0.25c-0.13807,0 -0.25,-0.11193 -0.25,-0.25z" fill="#740c0c" stroke="none" stroke-width="0.5" stroke-linecap="butt"/><path d="M289.86824,271.3082l-0.00647,0.22467c-0.01838,0.01677 -0.03676,0.03354 -0.05514,0.05031l0.02388,0.01592l-0.19785,0.29677c-0.04451,0.06892 -0.12201,0.11455 -0.21016,0.11455c-0.13807,0 -0.25,-0.11193 -0.25,-0.25v-0.3c0.00279,-0.49194 0.03206,-0.68879 0.25367,-0.8445l-0.04234,-0.06351l0.29716,-0.1981c0.04024,-0.02768 0.08899,-0.04388 0.14152,-0.04388c0.13807,0 0.25,0.11193 0.25,0.25c0,0.02969 -0.00517,0.05818 -0.01467,0.08459l-0.09588,0.28762c-0.03124,0.12519 -0.06247,0.25037 -0.0937,0.37556z" fill="#740c0c" stroke="none" stroke-width="0.5" stroke-linecap="butt"/><path d="M290.77257,273.35683c0.00116,-0.03058 0.01763,-0.24641 0.24991,-0.24641c0.25,0 0.25,0.25 0.25,0.25v0.5v0c0,0.13807 -0.11193,0.25 -0.25,0.25c-0.11246,0 -0.20758,-0.07426 -0.239,-0.17641l-0.09817,-0.29453c0,0 -0.06165,-0.18496 0.08726,-0.28265z" fill="#740c0c" stroke="none" stroke-width="0.5" stroke-linecap="butt"/><path d="M290.17248,264.96042c0,-0.13807 0.11193,-0.25 0.25,-0.25c0.13807,0 0.25,0.11193 0.25,0.25c0,0.13807 -0.11193,0.25 -0.25,0.25c-0.13807,0 -0.25,-0.11193 -0.25,-0.25z" fill="#740c0c" stroke="none" stroke-width="0.5" stroke-linecap="butt"/><path d="M285.42248,283.11042c0.25,0 0.25,0.25 0.25,0.25l-0.07322,0.27677c-0.4357,0.4357 -1.05248,0.38455 -0.91644,0.10884c-0.04123,-0.10101 0.00829,-0.19137 0.04012,-0.23492l-0.03914,-0.05872l0.29716,-0.1981c0.04024,-0.02768 0.08899,-0.04389 0.14152,-0.04389c0.03035,0 0.05943,0.00541 0.08635,0.01532c0.03278,-0.05911 0.09511,-0.11532 0.21365,-0.11532z" fill="#740c0c" stroke="none" stroke-width="0.5" stroke-linecap="butt"/><path d="M286.87249,282.86042c0,-0.13807 0.11193,-0.25 0.25,-0.25c0.13807,0 0.25,0.11193 0.25,0.25c0,0.13807 -0.11193,0.25 -0.25,0.25c-0.13807,0 -0.25,-0.11193 -0.25,-0.25z" fill="#740c0c" stroke="none" stroke-width="0.5" stroke-linecap="butt"/><path d="M297.46792,274.04983c0,0 0.732,-15.24168 0.78152,-26.79614c0.03428,-7.99823 -0.38381,-38.09551 -0.38381,-38.09551c0,0 7.38882,24.17734 21.65121,24.2232c14.712,0.04731 22.57603,-23.23125 22.57603,-23.23125c0,0 -0.68263,30.55077 -0.71659,38.43029c-0.04561,10.57989 0.56334,25.30274 0.56334,25.30274c0,0 -15.44558,-0.60878 -22.97689,-0.58056c-7.28436,0.0273 -21.49481,0.74722 -21.49481,0.74722z" fill="#666666" stroke="none" stroke-width="2" stroke-linecap="butt"/><path d="M325.32613,259.64589c-1.5241,0.91944 -1.78143,-1.90884 -1.78143,-2.61266c0,-1.86354 0.3007,-6.29514 -1.4618,-7.1764c0,0 -0.21489,-0.10745 -0.11802,-0.32234c-0.27896,0.07267 -0.54397,0.2181 -0.78238,0.41659c0.03941,1.06921 0.0622,2.13493 0.0622,3.18438c0,2.93367 0.6368,8.20152 -1.80996,10.34677c-2.54069,-1.03908 -1.89005,-6.65094 -1.89005,-9.24677c0,-2.7386 0,-5.4772 0,-8.2158c-2.21646,0.31933 -4.21529,0.81728 -4.44273,-2.88288c-0.43756,-1.35039 0.09805,-3.24341 -0.75351,-4.39748c-0.85467,-1.15829 -3.46972,-1.22414 -4.74605,-1.95498c-0.79782,-1.5321 -1.68714,-3.79066 -0.77929,-5.51102c0.60109,-1.13907 3.35002,-1.90934 4.47508,-2.47239c1.74572,-1.11372 5.94877,-2.78523 6.65722,-4.83789c0.20929,-0.6064 -0.09368,-1.19961 0.21597,-1.83996c1.20066,-2.34955 2.78734,-2.34091 4.55951,-2.01794c-0.12147,-0.29968 -0.2481,-0.61615 -0.36717,-0.97398c-0.38499,-0.79454 -1.0586,-3.22776 -0.0647,-3.72664c0.69576,-0.34923 2.04406,0.91239 2.47206,0.01916c0.53416,-1.11477 -0.54587,-2.33109 0.47894,-3.39209c2.08372,-0.99053 5.13701,1.94654 6.37864,3.50746c0.50251,0.63173 0.76883,1.952 1.46612,2.26276c3.00844,0.08646 8.45337,-0.17569 7.5549,4.21108c-0.64673,3.12272 -1.77588,6.83655 -2.80823,9.86264c0.00607,0.67701 -0.28303,2.10906 0.03147,2.70503c1.36918,2.59455 3.54682,3.32482 1.48327,6.47192c-1.07204,1.784 -2.07294,2.2298 -3.85886,2.81095c-0.6591,0.21447 -0.99569,4.24312 -1.15015,4.93819c-0.86326,3.87067 -3.08961,6.52056 -7.04972,5.25976c-2.39523,1.20857 0.01923,4.38366 -1.97136,5.58452z" fill="#740c0c" stroke="none" stroke-width="0.5" stroke-linecap="butt"/><path d="M332.34918,210.89876c0.15244,-2.32065 3.94914,-0.60611 4.13241,1.18855c0.4203,1.27251 -0.1905,1.18636 -0.91491,1.90562c-2.08425,2.06945 -4.06757,-1.7638 -3.2175,-3.09417z" fill="#740c0c" stroke="none" stroke-width="0.5" stroke-linecap="butt"/><path d="M330.4427,208.36484c0.202,0.02975 0.202,0.24663 0.202,0.24663v0.2c-0.03036,2.07706 -3.39834,0.79466 -0.56181,-0.6236c0,0 0.2236,-0.11181 0.33541,0.1118c0.01145,0.0229 0.01938,0.04463 0.02439,0.06518z" fill="#740c0c" stroke="none" stroke-width="0.5" stroke-linecap="butt"/><path d="M337.43203,245.23327c1.52345,-0.51063 2.19029,1.34335 1.58628,2.5925c-0.39404,0.74382 -2.47593,2.98635 -3.43627,1.61963c-0.81817,-1.1644 0.49248,-3.81975 1.50086,-4.35504c0,0 0.22361,-0.1118 0.33541,0.1118c0.00531,0.01062 0.00987,0.02099 0.01372,0.03111z" fill="#740c0c" stroke="none" stroke-width="0.5" stroke-linecap="butt"/><path d="M339.43349,242.42297c0.17611,-0.12853 0.35026,-0.18657 0.49265,-0.12168c0.82956,0.37804 0.32236,1.04487 -0.31609,1.45458c-0.23052,0.4329 -0.60099,0.82616 -0.98218,0.35082c-0.24131,-0.02796 -0.29434,-0.25119 0.08787,-0.78151c0.00696,-0.01379 0.01408,-0.02763 0.02137,-0.04148c0.03194,-0.2879 0.11827,-0.62842 0.234,-0.88155c0,0 0.11181,-0.22361 0.33541,-0.11181c0.07252,0.03626 0.10976,0.08428 0.12698,0.13262z" fill="#740c0c" stroke="none" stroke-width="0.5" stroke-linecap="butt"/><path d="M340.09413,244.68022c0.02988,-0.01129 0.06574,-0.01753 0.10877,-0.01612c0.24986,0.0082 0.24167,0.25806 0.24167,0.25806l-0.01949,0.47886c-0.00873,0.01203 -0.01745,0.02407 -0.02618,0.0361l0.01363,0.00545l-0.18354,0.45883c-0.03545,0.09495 -0.12697,0.16256 -0.23428,0.16256c-0.13807,0 -0.25,-0.11193 -0.25,-0.25c0,-0.13333 0,-0.76666 0,-0.9c0,0 0,-0.25 0.25,-0.25c0.03888,0 0.07171,0.00605 0.09943,0.01626z" fill="#740c0c" stroke="none" stroke-width="0.5" stroke-linecap="butt"/><path d="M299.18153,176.79433c-0.10684,-0.34231 -0.2952,-0.66627 -0.30331,-1.03933c0.01181,-0.76341 1.02095,-1.69875 1.60254,-0.71376c0.37392,0.63328 0.02285,1.40845 0.25343,1.99309c0.47747,1.21066 1.39403,1.56321 1.39403,3.09567c0,1.03055 -0.05612,1.94282 0.46267,2.86857c0.65885,1.17568 2.16233,1.06749 2.16233,2.88143c0,2.04864 3.25372,3.59078 0.97068,5.73097c-2.8593,0.08755 -1.97418,-4.63734 -2.88652,-0.59441c-1.84499,3.59764 -2.45916,-1.42604 -2.45916,-3.26156c0,-1.69161 -1.22012,-2.406 -1.61831,-3.94256c-0.22593,-0.87186 0.11831,-1.56573 0.11831,-2.43244c0,-1.76154 -0.72718,-3.14392 0.30331,-4.58567z" fill="#740c0c" stroke="none" stroke-width="0.5" stroke-linecap="butt"/><path d="M303.57358,182.1207c-0.03952,-0.01977 -0.08022,-0.04105 -0.12212,-0.06391c-0.17842,-0.32704 -0.28843,-0.59048 -0.34494,-0.79901c-0.02768,-0.00383 -0.05771,-0.01298 -0.09008,-0.02916c-0.2236,-0.11181 -0.11181,-0.33541 -0.11181,-0.33541l0.01541,-0.02826c-0.15869,-0.38332 -0.19425,-0.75169 0.07676,-0.9476c0.93269,-0.67422 2.33584,2.10596 1.43459,2.38952c-0.01486,0.01209 -0.03043,0.02402 -0.04672,0.0358c-0.09923,0.07173 -0.1889,0.11551 -0.26989,0.13613c-0.03358,0.01677 -0.07146,0.0262 -0.11155,0.0262c-0.05003,0 -0.09662,-0.0147 -0.13571,-0.04001c-0.12759,-0.05432 -0.223,-0.1829 -0.29394,-0.3443zM303.85551,181.5195c0.00588,0.00602 0.01175,0.01203 0.0176,0.01801c-0.00622,-0.02066 -0.01254,-0.04146 -0.01896,-0.0623c0.00026,0.01483 0.0007,0.02961 0.00136,0.04429z" fill="#740c0c" stroke="none" stroke-width="0.5" stroke-linecap="butt"/><path d="M304.34668,183.23708c0.11238,-0.10549 0.22052,-0.07665 0.28692,-0.03903c0.17883,-0.1568 0.34427,0.01945 0.34427,0.01945l0.18759,0.19985c0.06546,0.06687 0.09052,0.16792 0.05598,0.26156c-0.03454,0.09364 -0.11922,0.15421 -0.21242,0.16256l-0.27242,0.03017l-0.00514,-0.04644c-0.03629,0.01083 -0.07259,0.02168 -0.10889,0.03251l-0.28706,-0.26725c0,0 -0.1711,-0.18228 0.01118,-0.35337z" fill="#740c0c" stroke="none" stroke-width="0.5" stroke-linecap="butt"/></g></g></svg>