<svg version="1.1" xmlns="http://www.w3.org/2000/svg" xmlns:xlink="http://www.w3.org/1999/xlink" width="110.57501" height="238.54532" viewBox="0,0,110.57501,238.54532"><defs><linearGradient x1="237.75495" y1="70.00284" x2="239.65133" y2="172.30017" gradientUnits="userSpaceOnUse" id="color-1"><stop offset="0" stop-color="#666666"/><stop offset="1" stop-color="#484848"/></linearGradient><linearGradient x1="239.72926" y1="160.91735" x2="239.72926" y2="167.02395" gradientUnits="userSpaceOnUse" id="color-2"><stop offset="0" stop-color="#484848"/><stop offset="1" stop-color="#656565"/></linearGradient><linearGradient x1="238.46421" y1="164.09982" x2="238.46421" y2="306.98843" gradientUnits="userSpaceOnUse" id="color-3"><stop offset="0" stop-color="#666666"/><stop offset="1" stop-color="#484848"/></linearGradient></defs><g transform="translate(-183.93598,-68.44314)"><g data-paper-data="{&quot;isPaintingLayer&quot;:true}" fill-rule="nonzero" stroke="none" stroke-linecap="butt" stroke-linejoin="miter" stroke-miterlimit="10" stroke-dasharray="" stroke-dashoffset="0" style="mix-blend-mode: normal"><path d="M195.39686,119.17478c0,0 6.05247,-6.03509 6.16472,-6.90306c0.2944,-2.27648 -0.91233,-40.16316 35.19101,-42.23333c44.61173,-1.74078 39.66337,34.61952 42.30573,41.41329c3.62309,9.31529 6.47809,17.28306 6.47809,17.28306c0,0 -2.80474,-2.00187 -4.13709,-3.05782c-1.24267,-0.98487 -3.85908,-3.07485 -3.85908,-3.07485c0,0 3.28238,10.28903 1.69427,20.66713c-1.3863,9.50831 -6.9773,17.35773 -6.9773,17.35773l-1.19853,-2.32554c0,0 -0.98175,2.21652 -2.09791,3.3722c-1.11617,1.15568 -3.38415,2.97597 -3.38415,2.97597l-0.16069,-3.70187c0,0 -6.85467,11.14691 -24.14498,11.321c-16.30818,0.04681 -26.26489,-10.19014 -26.26489,-10.19014l-0.06697,2.65654c0,0 -3.95513,-3.22001 -6.36031,-9.5913c-2.86669,-7.59384 -3.46583,-12.18109 -3.46583,-12.18109c0,0 -2.30348,1.94219 -5.66464,2.87989c-4.21173,1.17499 -6.93906,0.47395 -6.93906,0.47395c0,0 3.55697,-2.78358 5.49459,-4.87257c1.72588,-1.86071 2.58353,-3.42569 2.58353,-3.42569c0,0 -2.08711,1.12358 -4.20205,1.69613c-2.2067,0.5974 -4.01955,0.60554 -4.01955,0.60554c0,0 4.8807,-5.12862 6.82798,-11.00273c1.83854,-5.54611 1.89627,-10.99435 1.89627,-10.99435c0,0 -1.34915,0.68675 -3.31482,0.85672c-1.24598,0.10774 -2.37835,-0.00482 -2.37835,-0.00482z" fill="url(#color-1)" stroke-width="1.5"/><path d="M207.26865,167.02395c0,0 2.1889,-1.14804 1.66602,-2.04455c-0.52287,-0.89651 -5.22758,-4.06205 -5.22758,-4.06205h72.04433c0,0 -6.44152,3.76989 -6.67562,4.12254c-0.76342,1.14993 1.79677,1.98406 1.79677,1.98406z" fill="url(#color-2)" stroke-width="0"/><path d="M290.57508,186.66221c-0.04639,2.34739 -2.38427,6.82027 -2.38427,6.82027c-0.6096,0.77436 -1.67145,-0.13007 -2.13699,-0.30298c-0.62133,-0.23078 -1.95309,-3.0869 -2.15884,-3.7624c-1.09968,-3.61012 -0.10116,-8.51341 0.37732,-12.20209c0.28084,-2.13786 -0.26178,-9.04264 1.99887,-9.82655c-0.05069,-0.08064 -0.08481,-0.1892 -0.08481,-0.33529c0,-0.56838 0.51633,-0.56838 0.51633,-0.56838c2.94601,0.17853 2.71633,4.55438 3.7953,6.52173c0.89083,1.6243 2.1424,2.17012 2.1424,4.27746c0,3.13127 -0.92894,6.21329 -2.10723,9.15074c0.04195,0.12088 0.04195,0.2275 0.04195,0.2275z" fill="#666666" stroke-width="0.5"/><path d="M273.15502,233.56917v-41.69595h16.30238v41.69595z" fill="#870d0d" stroke-width="0"/><path d="M269.49022,305.52923v-72.20832h24.26918v72.20832z" fill="#7b0c0c" stroke-width="0"/><path d="M275.47266,232.5686c0.07409,-0.01976 0.12908,-0.01976 0.12908,-0.01976c4.43606,0 8.73819,-0.28419 13.16621,-0.28419c1.33033,0 4.27196,-0.07978 5.27016,1.01903c0.28688,0.31581 0.79035,1.62026 0.19496,1.99975c-0.67785,0.43206 -1.78404,-0.65296 -2.44989,-0.75262c-1.67372,-0.25052 -4.08062,-0.04356 -5.29495,1.321c-0.87778,0.43586 -0.99687,1.27992 -2.22765,0.94465c-1.03272,-0.28131 -1.86629,-1.24789 -2.89918,-0.40798c-0.45462,0.3697 -0.77008,8.2019 -2.51051,3.66699c-1.30738,-0.71961 -0.5864,-2.06581 -1.34458,-3.19565c-1.03226,-1.53828 -2.75625,-1.70729 -2.93723,-3.74261l0.77449,-0.56837c0,0 0.05499,0 0.12908,0.01976z" fill="#666666" stroke-width="0.5"/><path d="M193.69968,166.20827c0.14727,0.00251 0.29454,0.00502 0.44181,0.00752c2.83958,1.52724 6.07774,5.5666 6.83791,8.94825c0.48857,2.17342 -0.07758,5.061 -0.24486,7.26041c-0.01298,3.01185 -0.23992,6.0146 -0.8003,8.96883c-0.20078,1.05842 -0.36292,2.77965 -1.27902,3.44315c-0.58152,0.42117 -1.89713,-0.34758 -2.46288,-0.52698c-1.38589,-0.43945 -3.30315,-0.48246 -4.6684,0.01851c-1.15414,0.01413 -1.81398,-0.24685 -2.36685,-1.48029c-0.5825,-1.29954 -0.24124,-3.23365 -0.54181,-4.63395c-0.67554,-3.14733 -2.62148,-4.96657 -2.58084,-8.50624c0.85756,-1.89055 1.81465,-3.24965 2.05245,-5.36484c0.15944,-1.41821 -0.63559,-2.88904 -0.23985,-4.32033c0.70644,-2.55509 3.37737,-3.05901 5.17041,-4.04593c0,0 0.44809,-0.24664 0.6822,0.23187z" fill="#666666" stroke-width="0.5"/><path d="M188.34628,235.59585v-43.11688h16.30238v43.11688z" fill="#870d0d" stroke-width="0"/><path d="M185.71413,306.11629v-72.20832h24.26919v72.20832z" fill="#7b0c0c" stroke-width="0"/><path d="M196.93976,239.384c-0.39211,-0.45633 -0.25322,-1.4981 -0.12375,-2.47241c-0.47082,0.68388 -1.07353,1.25581 -1.3837,1.30582c-0.59226,0.09548 -0.91363,-0.16199 -1.08028,-0.59144c-0.14857,-0.14365 -0.21782,-0.42737 -0.15718,-0.90071c-0.01076,-0.24796 -0.00515,-0.50832 0.00724,-0.76615h-0.32957c-0.55184,1.78195 -0.89609,3.74653 -0.89609,5.53018c-0.33337,0.75113 -1.09632,2.35211 -2.15841,1.40807c-0.46287,-0.41144 -0.03288,-0.95505 -0.13741,-1.40807c-0.31239,-1.35383 -0.68279,-4.31636 -1.41155,-5.41246c-0.39669,-0.59666 -1.4068,0.53535 -2.06529,0c-0.52729,-0.42868 0.24135,-1.09365 -0.66755,-0.97029c-1.35355,0 -4.21865,-1.49376 -1.40943,-2.25831c2.47159,-0.67265 5.82147,-0.01521 8.37977,-0.01521c1.7187,0 3.52879,-0.64131 5.24593,-0.27685c1.09093,0.23155 2.52438,0.96365 3.77128,0.91835c0.18959,-0.09737 0.37751,-0.19577 0.56201,-0.29731l0.12398,-0.17772c0,0 0.3651,-0.4019 0.73018,0c0.04705,0.0518 0.08199,0.1036 0.10714,0.15456c0.09084,0.04323 0.17941,0.12689 0.24775,0.27735c0.23091,0.50838 -0.2309,0.76256 -0.2309,0.76256c-0.35395,0.18525 -0.7156,0.29172 -1.08171,0.3403c-1.38878,0.90676 -2.44618,2.11177 -3.68916,2.96349c-0.14919,0.10223 -0.29157,0.16794 -0.42602,0.20286c-0.14264,1.43117 -0.59408,3.23487 -1.92725,1.68337z" fill="#666666" stroke-width="0.5"/><path d="M274.98816,222.1453v27.62915h-53.70743v-27.62915z" data-paper-data="{&quot;index&quot;:null}" fill="#990f0f" stroke-width="0"/><path d="M254.76114,250.32415v27.62915h-45.25435v-27.62915z" data-paper-data="{&quot;index&quot;:null}" fill="#b31212" stroke-width="0"/><path d="M273.47869,250.32415v27.62915h-18.08372v-27.62915z" data-paper-data="{&quot;index&quot;:null}" fill="#990f0f" stroke-width="0"/><path d="M191.99684,192.82967v-27.62915h47.36761v27.62915z" data-paper-data="{&quot;index&quot;:null}" fill="#b31212" stroke-width="0"/><path d="M255.21398,193.77075v27.62915h-53.70743v-27.62915z" data-paper-data="{&quot;index&quot;:null}" fill="#990f0f" stroke-width="0"/><path d="M220.64691,222.1453v27.62915h-18.08371v-27.62915z" data-paper-data="{&quot;index&quot;:null}" fill="#b31212" stroke-width="0"/><path d="M273.93153,193.96644v27.62915h-18.08372v-27.62915z" data-paper-data="{&quot;index&quot;:null}" fill="#740c0c" stroke-width="0"/><path d="M239.99828,192.82967v-27.62915h47.36761v27.62915z" data-paper-data="{&quot;index&quot;:null}" fill="#990f0f" stroke-width="0"/><path d="M281.62987,278.503v27.62915h-41.39088v-27.62915z" data-paper-data="{&quot;index&quot;:null}" fill="#740c0c" stroke-width="0"/><path d="M239.72752,278.503v27.62915h-41.39087v-27.62915z" data-paper-data="{&quot;index&quot;:null}" fill="#990f0f" stroke-width="0"/><path d="M241.00908,287.03535v0.46964c-0.02851,3.89307 0.36228,7.78484 0.36228,11.7412c0,1.81358 0.48564,5.10704 -0.24878,6.64888c-0.31727,0.66608 -1.57995,1.55583 -2.15451,0.81095c-0.48983,-0.63499 -0.02178,-1.32592 0.05436,-1.91811c0.31084,-2.41775 -0.00585,-4.74205 -0.00585,-7.1855c0.0196,-5.01041 0.05463,-10.17767 -0.71575,-15.14843c0,0 -0.03641,-0.23598 0.05394,-0.43597c-0.55813,-0.43497 -1.92905,-1.56068 -2.26685,-1.44553c-0.76347,0.26024 -1.09806,0.94048 -2.05975,0.93905c-0.93294,-0.00141 -1.87905,-0.88456 -2.76526,-1.17308c-2.31493,-0.00993 -4.57565,-1.0923 -6.9644,-0.70294c-1.90774,0.31096 -4.02962,0.87451 -5.84103,0.94216c-2.42389,-0.01593 -4.53552,-0.40458 -6.95576,-0.94688c-1.49057,-0.33399 -3.24753,0.24638 -4.70958,-0.23483c-1.25122,-0.41182 -1.11601,-1.42228 -0.39569,-2.44243c1.3141,-1.12987 2.75437,-0.83753 4.27212,-0.83753l0.5648,0.29679c0,0 0.08096,0.05247 0.15239,0.15744c3.88745,-0.05223 7.71092,-0.21943 11.60015,-0.21943c5.31355,0.00479 10.60693,0.35066 15.88583,-0.63277c4.91921,-0.37091 9.4493,2.07781 14.36414,2.04171c0.16683,0.00269 0.32674,-0.02112 0.48179,-0.0647c0.03449,-0.78421 0.30165,-2.093 0.33673,-2.44953c0.30168,-3.06681 -0.00339,-6.46378 -0.00339,-9.55606c0,-4.44934 0.60606,-9.78674 -0.3939,-14.10141c-1.10898,-0.35712 -2.1708,-0.60771 -2.8259,-0.27223c-2.15197,1.10203 -4.70289,1.21229 -7.06979,1.1949c-3.92816,-1.25293 -9.86453,-2.4061 -13.76565,-0.72349c-5.1075,1.65508 -10.50823,-1.82323 -15.46796,-0.21581c-2.25198,0 -5.07243,2.45788 -6.43791,-1.02459l-0.04781,-0.73218c0,0 0.00001,-0.31886 0.18127,-0.48659c0.00862,-0.57014 0.4527,-0.57011 0.4527,-0.57011c3.53992,0 7.02876,-0.39317 10.59593,-0.46005c-0.00523,-0.38829 0.00062,-0.78156 0.00062,-1.15354c0,-4.56563 0.86772,-8.9753 0.36341,-13.57816c0.03333,-4.61707 -0.39615,-8.77716 -3.46113,-10.60894c-0.74559,0.08242 -1.46452,0.13902 -2.13724,0.13902c-2.33165,-1.00757 -6.82834,-0.92267 -9.29129,-0.46646c-1.27113,0.23546 -2.15998,1.73446 -2.91613,0.29336c-0.91379,-1.21474 -2.29876,-3.35388 -0.61335,-4.68116c0.17576,-0.13841 1.95922,-0.27298 2.14312,-0.29676c1.94676,-0.25172 4.57367,-0.37907 6.45821,0.23171c5.07452,0.02879 10.15727,0.62248 15.312,-0.23799c5.53058,0.01008 11.13681,0.46109 16.7261,0.46988c4.14376,0.76463 8.34388,-0.04991 12.37942,1.57688c0.16269,-0.62259 0.36058,-1.27203 0.35869,-1.70933c-0.01262,-2.89349 -0.35445,-5.81369 -0.36228,-8.68849c0,-4.87858 1.06472,-9.41137 -0.11478,-14.20213c-2.26851,-0.15971 -4.65132,-0.74663 -6.859,-0.74663c-4.87227,0 -9.59251,-0.70448 -14.49101,-0.70448c-3.15055,-0.00405 -6.11091,0.86239 -9.20987,1.17298c-1.96952,0.19738 -3.72656,-0.70334 -5.6434,-0.70334c-4.62414,0 -9.0717,-0.24703 -13.73799,-0.23329c-0.34543,0.08949 -1.97428,0.61132 -2.30613,0.45242c-1.39468,-0.66781 -0.4456,-3.15074 0.64744,-3.27184c2.65687,-0.29434 5.37121,0.94272 8.07865,-0.22724c2.75777,-0.03394 5.55662,-0.03218 8.27906,0.46647c0.89438,0.16382 1.66039,0.64186 2.58918,0.47283c0.97952,-0.17827 1.76745,-0.93429 2.7896,-0.94686c4.10955,0 8.91083,1.6831 12.78822,0.00757c3.2803,-0.04036 0.8301,-8.43992 1.07218,-10.99863c0.11162,-1.17966 0.36029,-2.31692 0.36228,-3.52234c0.37721,-1.95609 0.89947,-8.97071 -0.5217,-10.85084c-0.11914,-0.01428 -0.26065,-0.08722 -0.3424,-0.32525c-0.14955,-0.09397 -0.31504,-0.14327 -0.49783,-0.14113c0,0 -0.45284,0 -0.45284,-0.58707c0,-0.58706 0.45284,-0.58706 0.45284,-0.58706c0.49741,0.00474 0.89795,0.11261 1.2193,0.30237l0.08661,-0.03742c1.11579,-0.46764 1.76011,-0.37418 2.7161,0.51475c0.13915,2.5489 -0.33401,5.0062 -0.30859,7.56081c0.0415,4.16658 0.5433,8.24754 0.5433,12.44139c0,0.93962 -0.85667,5.22133 -0.31377,5.92514c0.25341,0.32852 1.52098,0.06288 1.85344,0.06288c1.86603,0 3.67746,0.46749 5.50527,0.47693c2.33501,0.98146 5.32673,0.66445 7.66243,0.23193c2.09592,-0.38811 4.2557,0.30634 6.35052,-0.23637c3.08334,0.00665 5.7572,0.14341 8.79456,0.70602c1.13106,0.2095 2.20291,-0.7622 3.27768,-0.46647c1.51036,0.41558 1.40965,2.60708 -0.07255,2.81031c-1.35468,0 -2.59655,0.45908 -3.92969,0.70008c-3.07943,0.55671 -6.23451,-0.46523 -9.29334,-0.46523c-1.14725,0 -2.18198,0.23609 -3.2465,0.45205c-0.52103,2.99542 -0.8291,5.9532 -0.8291,9.09574c0,4.97054 0.45166,9.9528 0.53144,14.97642c3.52621,1.09506 8.12035,0.87419 11.69534,0.87419c1.87345,0 4.94222,-0.59228 6.57789,0.79217c0.66483,0.5627 0.8987,3.28303 -0.13402,3.65378c-0.34367,0.1234 -1.23232,-1.23548 -1.57097,-1.45294c-0.84495,-0.54256 -1.79229,-0.40995 -2.69923,-0.40995c-2.14056,0 -4.286,0.04714 -6.42238,0.09977c-0.91978,1.18125 -2.02436,2.21667 -3.35905,2.23309c-1.45682,0 -2.21588,1.70654 -3.44161,1.64377c-1.61409,-0.08268 -1.16546,-2.89381 -2.10412,-3.66281c-0.00738,0.02585 -0.01626,0.05242 -0.02678,0.07969c-0.20253,0.52508 -0.60756,0.26255 -0.60756,0.26255l-0.30295,-0.20298c-2.22988,-1.00128 -4.04744,-0.23455 -6.34566,0.02864c-2.32299,0.26602 -4.63025,-0.45537 -6.97067,-0.47257c-4.65213,-1.50772 -8.85105,1.62399 -13.48832,0.9891c-1.23861,-0.17071 -2.35405,-0.66402 -3.55581,-0.99227c-0.28484,-0.0778 -0.57891,-0.1381 -0.88064,-0.18335c-0.08322,0.09369 -0.17159,0.13187 -0.17159,0.13187l-0.54341,0.23482c-0.90977,0.35955 -1.00138,1.49712 -1.1453,2.5898c-0.42401,3.21919 -0.16599,6.21856 -0.17868,9.46202c0.77129,3.99956 0.36566,7.938 0.36566,12.04774c0,0.44431 0.02898,0.93481 0.03829,1.41768c4.72159,0.12868 9.98787,0.44415 14.40641,-1.01063c1.58982,-0.50371 3.23643,0.22671 4.85614,0.26737c3.8816,0.09744 7.85925,0.00041 11.76425,-0.00014c5.0918,0 10.29539,0.99079 15.42172,0.94021c1.65282,0.23646 4.93135,-0.95731 6.37171,0.32159c1.20801,1.07258 -0.11591,3.58465 -1.22087,3.88864c-1.00525,0.27654 -3.08314,-0.92359 -4.2702,-0.92359c-1.05813,-0.01703 -2.01578,0.93065 -3.07935,0.93929c-1.20068,0.00977 -2.52675,-0.45027 -3.69528,-0.71205c-1.96537,-0.44032 -3.96646,0.47724 -5.90501,0.47724c-0.21612,0 -0.46017,-0.03383 -0.72417,-0.09076c0.33105,1.87755 0.09019,4.08607 0.09019,5.98557c0,5.76237 -0.15437,11.44571 -0.18453,17.07041c0.04626,0.23978 0.05753,0.50887 0.03922,0.78863c0.11843,-0.03732 0.24033,-0.06538 0.36644,-0.08176c3.46942,-0.4505 7.22791,0.16359 10.73769,0.16359c3.00679,0 5.48878,-0.30163 8.38927,1.02696l0.05455,0.12002l0.02758,-0.03577l0.36227,0.46964c0.08194,0.10624 0.13264,0.253 0.13264,0.41512c0,0.32423 -0.20274,0.58705 -0.45284,0.58705h-0.54341v-0.1299c-1.0619,0.1323 -2.09608,-0.08362 -3.18792,0.12234c-3.06291,0.57775 -5.82916,1.18532 -8.97641,1.18058c-2.39048,-0.38441 -5.06883,-0.94048 -7.47682,-0.26909c-1.33201,0.37138 -2.4811,1.25027 -3.85138,1.43994c-1.27764,0.17684 -2.48493,-0.47945 -3.72271,-0.46811c-1.91666,-0.49666 -4.62951,-0.84543 -6.41938,0.38483c-0.47963,0.32966 -0.84609,2.22968 -1.05083,3.85669c0.0402,0.44918 0.02919,0.91678 -0.04021,1.3999c0.40012,0.04369 0.40011,0.58425 0.40011,0.58425zM239.36305,283.4665c0.08427,0.66253 0.15555,1.32697 0.21592,1.99281c-0.0388,-0.66622 -0.0502,-1.36978 -0.21592,-1.99281z" fill="url(#color-3)" stroke-width="0.5"/><path d="M201.24967,161.54187l-1.68532,-90.91242l75.30119,-1.39592l1.68532,90.91242z" data-paper-data="{&quot;index&quot;:null}" fill="#000000" stroke-width="0"/><path d="M228.06561,127.1258c0.11752,6.33959 -4.92646,11.57412 -11.26605,11.69164c-6.33959,0.11752 -11.57412,-4.92646 -11.69164,-11.26605c-0.11752,-6.33959 4.92646,-11.57412 11.26605,-11.69164c6.33959,-0.11752 11.57412,4.92646 11.69164,11.26605z" data-paper-data="{&quot;index&quot;:null}" fill="#ffffff" stroke-width="0"/><path d="M228.1286,126.12446c0.10812,5.83243 -4.53236,10.64818 -10.36476,10.7563c-5.83242,0.10812 -10.64817,-4.53235 -10.7563,-10.36476c-0.10812,-5.83243 4.53235,-10.64817 10.36476,-10.7563c5.83242,-0.10812 10.64817,4.53234 10.7563,10.36476z" data-paper-data="{&quot;index&quot;:null}" fill="#000000" stroke-width="0"/><path d="M199.666,162.71294l-0.42559,-22.95768l57.85337,-1.07248l0.42559,22.95768z" data-paper-data="{&quot;index&quot;:null}" fill="#990f0f" stroke-width="0"/><path d="M261.43373,103.54166c0.11752,6.33959 -4.92646,11.57412 -11.26605,11.69164c-6.33959,0.11752 -11.57411,-4.92646 -11.69163,-11.26605c-0.11752,-6.33959 4.92646,-11.57412 11.26604,-11.69164c6.33959,-0.11752 11.57412,4.92646 11.69164,11.26605z" data-paper-data="{&quot;index&quot;:null}" fill="#ffffff" stroke-width="0"/><path d="M259.53414,104.57705c0.10812,5.83243 -4.53235,10.64817 -10.36476,10.7563c-5.83242,0.10812 -10.64817,-4.53234 -10.7563,-10.36476c-0.10812,-5.83243 4.53235,-10.64817 10.36476,-10.7563c5.83243,-0.10812 10.64817,4.53234 10.7563,10.36476z" data-paper-data="{&quot;index&quot;:null}" fill="#000000" stroke-width="0"/><path d="M230.15108,138.87601l-0.42559,-22.95768l48.05808,-0.89089l0.42559,22.95768z" data-paper-data="{&quot;index&quot;:null}" fill="#b31212" stroke-width="0"/><path d="M257.82546,161.63479l-0.42559,-22.95768l20.35581,-0.37735l0.42559,22.95768z" data-paper-data="{&quot;index&quot;:null}" fill="#740c0c" stroke-width="0"/><path d="M197.88518,116.20239l-0.42559,-22.95768l40.09943,-0.74336l0.42559,22.95768z" data-paper-data="{&quot;index&quot;:null}" fill="#990f0f" stroke-width="0"/><path d="M260.78922,115.03628l-0.42559,-22.95768l20.50886,-0.38019l0.42559,22.95768z" data-paper-data="{&quot;index&quot;:null}" fill="#740c0c" stroke-width="0"/><path d="M197.76002,92.93293l-0.42559,-22.95768l24.1821,-0.44828l0.42559,22.95768z" data-paper-data="{&quot;index&quot;:null}" fill="#b31212" stroke-width="0"/><path d="M222.55431,92.4733l-0.42559,-22.95768l57.85337,-1.07248l0.42559,22.95768z" data-paper-data="{&quot;index&quot;:null}" fill="#990f0f" stroke-width="0"/><path d="M219.19633,70.0605l-0.24881,0.00461c-0.25358,0.0047 -0.46296,-0.19706 -0.46766,-0.45064c-0.0047,-0.25358 0.19705,-0.46296 0.45064,-0.46766l0.29041,-0.00538c0.01575,-0.02323 0.0331,-0.04571 0.05208,-0.06737c0.18221,-0.20774 1.34459,-0.11161 1.64433,-0.11717c0,0 0.09441,-0.00175 0.19842,0.03915c0.48621,-0.29422 1.08895,-0.19939 1.67971,-0.20473l0.06401,0.04181l0.00798,-0.0255l0.54428,0.17027c0.1887,0.05421 0.3283,0.22639 0.33213,0.43294c0.00383,0.20654 -0.12932,0.38376 -0.31586,0.44494l-0.24453,0.08659c-1.1691,1.37761 -0.75075,3.16862 -0.44332,5.10896c0.32159,2.02978 0.09266,4.33593 0.11849,6.3916c-0.06822,0.21806 -0.12241,0.44548 -0.16429,0.68019c0.08152,0.79799 0.03963,1.90921 -0.04396,2.8689c0.11436,1.16108 0.33923,2.31418 0.51856,3.27953c0.0156,0.08398 0.03741,0.19185 0.06281,0.31771c0.1674,0.25082 0.22237,0.61578 0.18412,0.98448c0.0995,0.60883 0.17485,1.28387 0.11598,1.77906c0.09515,0.0168 0.19251,0.03293 0.29258,0.04777c3.12679,0.46382 6.89178,0.41747 10.03794,0.35915c2.24705,-0.03872 4.39171,-0.94447 6.67526,-0.66898c2.6875,0.32421 5.2706,0.63127 8.02106,0.58028c4.02314,-0.02462 8.88499,-0.30269 12.77984,-1.33583c2.20106,-0.03053 4.21874,-1.0968 6.51586,-0.8569c2.36011,0.24649 4.53955,0.83014 6.92236,0.78896c1.60734,-0.23289 4.49249,-0.73818 5.96808,0.14081c1.02136,0.6084 1.17277,2.95479 -0.36845,3.06154c-1.576,0.10919 -2.79211,-1.7041 -4.72219,-1.02075c-1.89948,0.03521 -3.81761,0.90728 -5.69047,1.21033c-0.3766,0.06093 -0.75591,0.09499 -1.13712,0.10876c-0.66594,0.73434 -1.58118,0.92907 -2.5466,1.27087c-0.96724,0.33093 -1.6103,-0.37386 -2.38533,-0.24247c-0.98658,0.16724 -1.9737,2.93192 -3.41501,1.77009c-0.56686,-0.45694 -0.20565,-2.61704 -1.07111,-2.77366c-3.31781,0.48291 -6.84138,0.37608 -10.25121,0.43929c-4.63968,0.05374 -9.10522,-1.24952 -13.7284,-1.22125c-4.04034,1.44958 -8.4002,0.92295 -12.80611,0.97229c-0.89783,-0.31541 -2.70392,0.2559 -3.70298,0.4361c-2.57268,0.46401 -6.22354,0.51815 -8.67431,-0.22429c-3.41606,-1.11275 -8.83206,0.11041 -12.36387,0.13201c-1.39888,0.45315 -1.4685,-1.66474 -0.42404,-2.13522c1.04446,-0.47048 4.45058,0.12411 6.38769,-0.23705c1.43603,-0.26774 2.48018,-0.91616 3.99718,-0.44155c4.01392,-0.07441 8.83254,1.17155 12.68186,-0.17005c-0.16276,-0.208 -0.25987,-0.46212 -0.22519,-0.6894c0.18586,-1.21774 0.48105,-2.40786 0.74067,-3.62269c0.00495,-0.30089 0.01751,-0.60434 0.03387,-0.90909c-0.13732,-1.30689 -0.19097,-2.56843 -0.21714,-3.9805c0.00309,-0.30076 0.07052,-0.6633 0.19396,-0.96367c-0.05615,-0.27229 -0.12856,-0.53918 -0.22073,-0.79952l0.0181,-0.07392l-0.02541,0.00047l-0.01021,-0.55098c-0.00173,-0.09308 0.02436,-0.1802 0.07062,-0.25343c-0.01778,-0.05118 -0.03598,-0.1021 -0.05459,-0.15279c-0.55677,-1.619 -1.13189,-5.63468 -0.71491,-8.22298c-0.38907,-0.20967 -0.74886,-0.63214 -0.91706,-1.06404zM222.71348,90.86799c-0.01359,0.00731 -0.02735,0.01423 -0.04128,0.02073l0.0031,0.16724c0.01406,-0.06237 0.02676,-0.12503 0.03818,-0.18797z" data-paper-data="{&quot;index&quot;:null}" fill="#666666" stroke-width="0.5"/><path d="M259.01004,120.04154c-1.53895,0.04701 -2.85212,-1.9091 -3.5502,-0.77291c-0.26305,0.55142 -0.5987,1.01666 -0.88994,1.54753c-0.22499,0.41011 -0.49635,0.7963 -0.79434,1.15685c-2.98947,3.61712 -3.55089,-3.16216 -5.58282,-4.40839c-0.8193,-0.58056 -0.82578,0.28802 -1.7307,0.26232c-0.4911,-0.01394 -0.83433,-0.52424 -1.21296,-0.83732c-1.25008,-1.03373 -3.87922,-0.82158 -5.28268,-0.43391c0,0 -0.38945,0.10507 -0.53684,-0.24673c-1.29253,0.32453 -2.49313,0.82418 -3.85388,1.23027c-0.62369,0.18613 -1.19819,0.05003 -1.76899,-0.09747c-0.07563,0.14289 -0.22457,0.24148 -0.39767,0.24469l-0.40248,0.00746c-1.97803,0.74026 -1.79802,2.02808 -2.53702,3.18406c-0.01197,0.13123 -0.02945,0.26209 -0.0591,0.38268l0.02173,0.02094l-0.03783,0.03926c-0.04496,0.15479 -0.11326,0.28869 -0.22039,0.37886c-0.28744,0.24192 -0.67446,0.56471 -1.03269,0.45152c-0.50149,-0.15845 -0.37521,-3.23878 -0.33963,-4.43688c-0.19371,-0.41537 -0.4936,-0.78851 -0.96211,-1.18777l-0.40748,-0.12748c-0.1887,-0.05423 -0.3283,-0.22639 -0.33213,-0.43294c-0.00383,-0.20654 0.12932,-0.38376 0.31586,-0.44495l0.44635,-0.15803l0.0096,0.0271l0.06173,-0.04605c0.43164,-0.00954 0.78356,0.04295 1.13651,0.13581c3.59365,-1.21325 6.7003,-0.12941 10.37278,-0.19749c0.12949,-0.0024 0.25893,-0.00495 0.38834,-0.00765c0.63198,-0.12593 1.2896,-0.20717 1.99584,-0.22026c0.68206,-0.00967 1.40727,0.02878 2.16037,0.0934c2.88403,-0.10785 5.76535,-0.24033 8.67566,-0.29428c3.01468,-0.05589 6.24347,-0.71236 9.23584,-0.35148c0.85695,0.10336 1.67079,0.30583 2.50557,0.41232c1.73161,-0.3584 3.47386,-0.33123 5.3061,-0.34481l0.19589,0.05901c2.74511,-0.33674 5.50314,-0.78795 8.2251,-0.77861c0.97128,0.62934 1.2136,1.30488 0.68279,1.757c0.00375,0.00829 0.00736,0.0167 0.01082,0.02516c0.5358,1.31027 -0.63729,1.33558 -1.2373,0.69045c-0.09288,-0.01496 -0.24425,-0.06144 -0.32783,-0.20553c-3.04244,0.45339 -6.30806,-0.01733 -9.23198,1.01792c-1.6726,0.04689 -3.34474,0.0862 -5.01318,0.05053c-1.10867,0.8333 -2.64456,2.81428 -4.0047,2.85584zM250.60981,115.82246c1.0897,0.0546 2.15179,0.04244 3.14638,-0.09405c-0.36178,0.02156 -0.72084,0.03708 -1.07626,0.04367c-0.69155,0.01282 -1.38146,0.03006 -2.07013,0.05037z" data-paper-data="{&quot;index&quot;:null}" fill="#565656" stroke-width="0.5"/><path d="M233.58892,142.14056c0.02702,0.82002 -0.13204,1.52416 -1.27966,1.47574c-1.49333,-0.06299 -1.1033,-1.23096 -0.9426,-2.24101c-0.85186,0.13882 -1.91505,-0.00683 -2.62183,0.00628c-1.1015,0.02042 -2.1942,0.01975 -3.28233,0.01219l-0.02244,0.02271c-1.62058,2.2395 -2.5266,0.79106 -4.43008,1.63851c-0.31402,0.91814 -1.65963,1.17567 -2.27809,0.26423c-0.32266,-0.47551 0.10261,-1.1051 0.07436,-1.53507c-0.01035,-0.15734 -0.07485,-0.28933 -0.1823,-0.39941c-4.14638,0.09949 -8.18465,1.16164 -12.38521,0.40247c-2.05215,-0.65373 -4.10257,0.62857 -6.13489,0.67649c-1.24806,0.02944 -2.13805,-0.1028 -1.61328,-1.37028c-0.0151,-0.01206 -0.02333,-0.01998 -0.02333,-0.01998c-1.16314,-1.54296 0.77396,-1.71707 1.94607,-1.7388c2.67901,-0.04966 5.30493,-0.27614 7.96771,-0.3255c2.55673,0.86648 6.5635,-0.67878 9.28285,-0.72919c1.26181,-0.02339 3.04033,0.53677 4.15419,0.11265c2.33473,-0.05725 5.12096,0.81779 7.37407,0.41198c2.40261,-0.43273 4.74129,-0.82623 7.20522,-0.87191c5.26463,-0.09759 10.41345,0.35812 15.62143,0.26158c4.77082,-0.08844 9.47176,-0.91048 14.31198,-1.00021c3.16101,-0.0586 6.63297,-0.81088 9.8043,-0.35955c1.42511,0.20282 2.84992,0.47272 2.96081,2.04405c-1.15579,1.26945 -1.81671,0.55361 -3.24754,0.33781c-3.16644,-0.47757 -6.47014,2.05372 -9.53338,1.09535c-1.58935,0.0492 -6.07871,-0.47872 -7.9053,0.70868l0.00161,0.08682c0.03156,2.8181 0.11728,5.63493 0.15422,8.50459c-0.67215,2.96795 0.1065,5.55918 0.16242,8.57592c0.02732,1.47392 0.76341,3.75221 0.76341,3.75221l-4.46302,0.12651c0,0 1.21088,-2.9889 1.32,-3.72445c0.33648,-2.26843 0.08917,-4.77991 0.0463,-7.09255c-0.06538,-3.52658 0.44612,-7.2203 -0.48293,-10.5982c-0.00243,-0.00121 -0.00483,-0.00238 -0.00727,-0.00358c-0.61922,-0.3027 -1.51652,-0.10891 -2.18841,-0.09646c-1.908,0.03537 -4.60553,-0.3907 -6.40754,0.25581c-1.73328,1.20253 -3.95702,0.92021 -5.94031,0.70456c-2.07528,-0.22564 -4.19873,-0.31613 -6.31424,-0.43108c-0.5132,0.24522 -0.95592,0.77823 -1.46493,1.06008z" data-paper-data="{&quot;index&quot;:null}" fill="#484848" stroke-width="0.5"/></g></g></svg>