<svg version="1.1" xmlns="http://www.w3.org/2000/svg" xmlns:xlink="http://www.w3.org/1999/xlink" width="273.33885" height="425.86416" viewBox="0,0,273.33885,425.86416"><g transform="translate(-108.69643,117.4821)"><g data-paper-data="{&quot;isPaintingLayer&quot;:true}" fill-rule="nonzero" stroke="none" stroke-linecap="butt" stroke-linejoin="miter" stroke-miterlimit="10" stroke-dasharray="" stroke-dashoffset="0" style="mix-blend-mode: normal"><path d="M291.85548,67.22031c-1.54061,6.51683 -5.94838,11.05299 -9.84504,10.1318c-3.89666,-0.92119 -5.80662,-6.95089 -4.26601,-13.46771c1.54061,-6.51683 5.94838,-11.05299 9.84504,-10.1318c3.89666,0.92119 5.80662,6.95089 4.26601,13.46771z" fill="#990f0f" stroke-width="0"/><path d="M233.27887,243.10542c-0.22719,6.83075 -4.49092,12.23247 -9.5233,12.06509c-5.03238,-0.16738 -8.92776,-5.84048 -8.70056,-12.67123c0.22719,-6.83075 4.49092,-12.23247 9.5233,-12.06509c5.03238,0.16738 8.92776,5.84048 8.70056,12.67123z" fill="#990f0f" stroke-width="0"/><path d="M213.57239,308.38205c0,0 5.03138,-34.85736 5.87617,-60.95168c0.23635,-7.30034 2.67032,-22.10604 2.16591,-39.95313c-0.88108,-31.17402 -5.5997,-71.62754 -9.88075,-97.57046c-4.93218,-29.88881 -10.53334,-35.91825 -21.22842,-56.98438c-10.69508,-21.06613 -34.12232,-49.08554 -34.12232,-49.08554l31.64426,17.58729c0,0 9.89593,22.03669 15.93368,29.43911c5.02727,6.16354 17.81975,11.94331 17.81975,11.94331c0,0 5.53579,-29.15783 7.01738,-41.79478c1.17806,-10.04804 1.17216,-28.05634 1.17216,-28.05634l14.17077,-7.34963c0,0 -1.5433,15.9496 1.73648,31.97143c4.51627,22.06215 14.59318,46.05354 17.96531,44.96232c14.33751,-4.63961 23.67368,-35.58202 30.70422,-39.79078c4.97683,-2.97932 7.79273,-33.35136 7.79273,-33.35136l11.48265,-2.77947c0,0 4.74255,19.37504 -1.39794,35.27666c-5.89874,15.27555 -22.61236,26.65107 -26.26309,47.82853c-1.75609,10.18685 -4.75872,20.78688 -6.04069,31.55392c-5.49,46.10935 -8.55287,95.28142 -8.11369,128.18214c0.13407,10.04353 2.86152,18.57076 3.07069,25.03168c0.79683,24.61251 4.74472,53.89118 4.74472,53.89118z" fill="#000000" stroke-width="NaN"/><path d="M225.09121,217.10152c-1.59679,-20.80731 -4.98806,-56.86444 -5.09977,-77.17869c-0.07732,-14.06134 3.23974,-14.06892 2.31245,-23.03528c-0.52477,-5.07424 -5.54679,-3.80909 -6.07017,-6.98077c-4.93218,-29.88881 -15.03333,-35.41825 -25.72842,-56.48438c-3.81659,-7.51754 -14.67067,-23.61972 -14.67067,-23.61972l11.19261,6.62147c0,0 8.39593,10.03669 14.43368,17.43912c5.02727,6.16354 20.31975,9.44331 20.31975,9.44331l2.28862,-12.43295c0,0 7.80186,6.51461 11.83465,5.22991c4.21662,-1.34326 12.93816,-13.12163 12.93816,-13.12163c0,0 2.69881,8.93311 4.54013,12.79229c2.72587,5.71307 9.64308,8.19169 10.96055,7.76536c14.33751,-4.6396 23.17368,-36.08202 30.20422,-40.29078c1.44094,-0.8626 3.76349,-8.07463 3.76349,-8.07463c0,0 9.9701,5.45494 7.84451,10.17659c-7.23874,16.07974 -21.61719,26.68637 -24.49365,43.37238c-1.75608,10.18685 -3.75872,22.78689 -5.0407,33.55392c-2.59733,21.81442 -15.27053,40.70244 -17.84686,61.72263c-1.20192,9.80643 6.00719,12.34157 7.83531,21.96727c2.53606,13.35324 0.2634,33.41854 0.39787,43.49224c0.2409,18.04618 -20.95682,38.12848 -20.95682,38.12848c0,0 -10.19321,-4.28619 -13.51809,-2.8611c-3.0771,1.31889 -6.40791,11.22184 -6.41759,11.25063c0.00108,-0.05003 0.76423,-35.58331 -1.02326,-58.87567zM238.17435,219.11952c5.52285,0 8.25,-4.47715 8.25,-10c0,-5.52285 -2.72715,-10 -8.25,-10c-5.52285,0 -9,4.46686 -9,10c0,5.53314 3.47715,10 9,10z" fill="#0c0c0c" stroke-width="NaN"/><path d="M226.11445,275.97725c0,0 0.00001,-0.00002 0.00002,-0.00006c0,0.00004 0,0.00005 0,0.00005z" fill="#0c0c0c" stroke-width="NaN"/><path d="M263.91623,25.5199c0,0 -12.14543,11.79729 -21.00706,17.95905c-2.18221,1.51735 -17.67168,9.61959 -17.67168,9.61959c0,0 1.17389,-6.57925 -0.35788,-10.29703c-1.53177,-3.71778 -8.075,-10.17048 -8.075,-10.17048c0,0 -14.8571,4.30433 -22.46924,6.08561c-7.61214,1.78128 -17.00793,1.89721 -17.00793,1.89721c0,0 3.6844,-9.6421 -0.04953,-11.87408c-9.45637,-5.65259 -19.03457,0.24534 -27.13655,-7.22008c-2.56304,-2.36167 -6.92028,-5.08946 -9.18007,-7.49781c-3.70568,-3.9493 -8.52755,-7.54882 -8.52755,-7.54882c0,0 -4.8314,0.95157 -6.13675,1.17301c-2.46665,0.41845 -8.09184,-1.91403 -8.09184,-1.91403c0,0 1.95183,-3.68832 2.67492,-5.87884c1.18905,-3.6021 1.56033,-9.5179 1.56033,-9.5179c0,0 -3.32345,-1.31285 -6.48699,-1.40481c-3.16354,-0.09196 -6.70882,1.02122 -6.70882,1.02122c0,0 -1.06246,-12.76833 -0.22906,-17.9375c1.94947,-12.09152 4.7201,-18.78315 10.90607,-29.35382c2.13361,-3.64594 1.57145,-18.8211 11.15184,-20.81823c2.25434,-0.46994 4.48374,-1.11978 6.49804,-2.05211c2.04027,-0.94435 4.97173,-4.46005 4.79849,-6.39392c-0.22696,-2.53361 -4.7964,-5.27455 -4.7964,-5.27455c0,0 4.80519,-1.51006 6.11758,-2.35883c5.59511,-3.61856 13.57969,-9.00443 20.9738,-9.16022c5.87802,-0.01932 9.35482,0.55614 15.01706,-1.0145c5.66224,-1.57064 18.75286,-7.86085 27.17373,-10.68877c16.98316,-5.70333 28.19365,-0.21346 44.80541,6.49513c9.13467,3.68902 16.55123,2.82169 24.3621,3.27612c6.01215,0.34978 12.25791,2.09397 19.70059,3.54506c4.78039,0.93203 8.12526,-0.85974 13.48831,-2.54426c3.93869,-1.23713 10.80846,-2.4164 10.80846,-2.4164c0,0 -1.23679,3.64678 -0.64148,5.81605c1.13556,4.13789 4.59033,6.06303 7.27831,8.77015c2.87806,2.89855 5.09669,6.40076 9.55035,5.27271c3.99943,-1.013 11.71088,-2.54089 11.71088,-2.54089c0,0 -2.11772,7.03075 -1.30638,10.25783c0.73395,2.91927 3.81919,6.21246 5.47233,9.13358c2.54907,4.50424 3.75961,8.12383 3.75961,8.12383c0,0 9.67246,-3.13437 16.14076,-3.69232c4.80357,-0.41435 9.40635,0.50316 9.40635,0.50316c0,0 -6.07237,9.44656 -7.26302,16.3129c-1.28864,7.43143 1.98294,18.86813 1.98294,18.86813c0,0 1.94191,-0.8745 2.82053,-1.35217c0.99034,-0.5384 2.82656,-1.71788 2.82656,-1.71788c0,0 1.25022,11.26513 -1.56204,17.58869c-3.54343,7.96763 -9.14416,15.91917 -15.77132,19.95198c-6.17115,3.75532 -17.99802,-1.12984 -17.99802,-1.12984c0,0 -1.12559,4.23816 -2.74896,6.76579c-3.19925,4.98132 -9.45178,9.08618 -15.239,12.16163c-1.45347,0.57991 -6.65843,2.85532 -7.97793,2.26601c-0.38224,-0.17071 -0.01607,-3.38018 -1.08733,-6.65661c-1.14923,-3.5149 -3.72644,-7.10687 -3.72644,-7.10687c0,0 -20.34388,10.49093 -34.01121,15.68089c-9.82861,3.73226 -17.71986,-1.01176 -17.71986,-1.01176z" fill="#740c0c" stroke-width="0.5"/><path d="M224.00956,110.14315c0.66748,7.49522 -3.36241,13.97836 -9.00102,14.4805c-5.63861,0.50214 -10.7507,-5.16687 -11.41818,-12.66209c-0.66748,-7.49522 3.36241,-13.97836 9.00102,-14.4805c5.63861,-0.50214 10.7507,5.16687 11.41818,12.66209z" fill="#990f0f" stroke-width="0"/><path d="M282.51785,158.26202c-0.58023,8.46908 -6.63267,14.90496 -13.5185,14.37495c-6.88583,-0.53001 -11.99752,-7.82521 -11.41728,-16.29429c0.58023,-8.46908 6.63267,-14.90496 13.5185,-14.37495c6.88583,0.53001 11.99752,7.82521 11.41728,16.29429z" fill="#990f0f" stroke-width="0"/><path d="M246.70873,206.90701c-0.38117,5.71726 -4.75064,10.08131 -9.75949,9.74737c-5.00885,-0.33394 -8.76032,-5.23941 -8.37915,-10.95667c0.38117,-5.71726 4.75064,-10.08131 9.75949,-9.74737c5.00885,0.33394 8.76032,5.23941 8.37915,10.95667z" fill="#990f0f" stroke-width="0"/><path d="M276.33534,260.92199c0.98851,8.85056 -4.74557,16.75529 -12.80745,17.65572c-8.06187,0.90043 -15.39866,-5.54443 -16.38717,-14.39499c-0.98851,-8.85056 4.74557,-16.75529 12.80745,-17.65572c8.06187,-0.90043 15.39866,5.54443 16.38717,14.39499z" fill="#990f0f" stroke-width="0"/><path d="M213.89423,111.05272c0.14709,2.94184 -1.29871,5.40493 -3.2293,5.50146c-1.93058,0.09653 -3.61487,-2.21005 -3.76197,-5.1519c-0.14709,-2.94184 1.29871,-5.40493 3.2293,-5.50146c1.93058,-0.09653 3.61487,2.21005 3.76197,5.1519z" fill="#000000" stroke-width="0"/><path d="M279.52829,159.51461c-0.43647,4.45729 -3.16154,7.83844 -6.08664,7.55201c-2.92509,-0.28643 -4.94254,-4.13197 -4.50607,-8.58926c0.43647,-4.45729 3.16154,-7.83843 6.08664,-7.55201c2.92509,0.28643 4.94254,4.13196 4.50607,8.58925z" fill="#000000" stroke-width="0"/><path d="M274.86989,262.66164c0.16264,7.41003 -5.2553,13.34486 -12.10131,13.25581c-6.84602,-0.08905 -12.52768,-6.16826 -12.69032,-13.57829c-0.16264,-7.41003 5.25529,-13.34485 12.10131,-13.2558c6.84602,0.08905 12.52768,6.16825 12.69032,13.57828z" fill="#000000" stroke-width="0"/><path d="M240.25731,205.93523c0.00972,2.39398 -1.4802,4.3163 -3.32784,4.29362c-1.84764,-0.02268 -3.35333,-1.98177 -3.36306,-4.37575c-0.00972,-2.39398 1.4802,-4.31629 3.32784,-4.29362c1.84764,0.02268 3.35333,1.98176 3.36306,4.37574z" fill="#000000" stroke-width="0"/></g></g></svg>