<svg version="1.1" xmlns="http://www.w3.org/2000/svg" xmlns:xlink="http://www.w3.org/1999/xlink" width="94.75963" height="253.22501" viewBox="0,0,94.75963,253.22501"><defs><linearGradient x1="240.5686" y1="182.17728" x2="240.5686" y2="304.2093" gradientUnits="userSpaceOnUse" id="color-1"><stop offset="0" stop-color="#990f0f"/><stop offset="1" stop-color="#990f0f" stop-opacity="0"/></linearGradient></defs><g transform="translate(-192.50447,-60.38752)"><g data-paper-data="{&quot;isPaintingLayer&quot;:true}" fill-rule="nonzero" stroke-linejoin="miter" stroke-miterlimit="10" stroke-dasharray="" stroke-dashoffset="0" style="mix-blend-mode: normal"><path d="M195.28376,313.61253v-253.22501h91.18203v253.22501z" fill-opacity="0.01" fill="#000000" stroke="none" stroke-width="0" stroke-linecap="butt"/><path d="M200.65856,249.12413c0,0 -0.34752,-51.6856 -0.42147,-62.7445c-0.05451,-8.15261 8.18688,-36.76129 40.20201,-36.9211c31.60235,-0.15775 39.85672,29.48704 39.84884,36.89673c-0.03202,19.33453 0.21496,61.26969 0.21496,61.26969l-10.13246,2.49522l-0.0837,-60.52539c0,0 0.07549,-3.0993 -2.81625,-3.15415c-3.43441,-0.06514 -2.94538,3.11562 -2.94538,3.11562c0,0 0.38124,27.68618 0.09034,50.91762c-0.11025,8.80464 -1.17341,16.96941 -1.13794,22.74459c0.09652,15.71668 1.75308,41.20774 1.75308,41.20774l-49.21366,0.07222c0,0 1.04187,-24.7934 1.06804,-40.2908c0.01061,-6.28306 -1.06227,-15.45322 -1.16994,-25.23874c-0.25454,-23.13238 0.2965,-49.70355 0.2965,-49.70355c0,0 0.27949,-2.919 -2.8856,-2.93443c-3.11083,-0.01515 -2.81569,2.90899 -2.81569,2.90899l0.19141,62.37452z" fill="#ffffff" stroke="#000000" stroke-width="2" stroke-linecap="butt"/><path d="M255.62761,200.33383c-0.57113,0 -1.03411,-0.46299 -1.03411,-1.03411c0,-0.57113 0.46299,-1.03413 1.03411,-1.03413c0.57113,0 1.03411,0.463 1.03411,1.03413c0,0.57113 -0.46299,1.03411 -1.03411,1.03411z" fill="#000000" stroke="none" stroke-width="1.5" stroke-linecap="butt"/><path d="M250.36775,204.56942c-4.4635,-0.31439 -6.55245,-1.79392 -6.16985,-2.58011c0.11788,-0.24224 2.84645,1.06355 6.97038,1.3048c6.40897,0.37493 8.51033,-0.63173 8.51033,-0.63173v1.34616c0,0 -2.4135,1.04672 -9.31086,0.56089z" fill="#000000" stroke="#000000" stroke-width="0" stroke-linecap="butt"/><path d="M222.55498,199.29972c0,-0.57113 0.46299,-1.03413 1.03411,-1.03413c0.57113,0 1.03413,0.463 1.03413,1.03413c0,0.57113 -0.463,1.03411 -1.03413,1.03411c-0.57113,0 -1.03411,-0.46299 -1.03411,-1.03411z" fill="#000000" stroke="none" stroke-width="1.5" stroke-linecap="butt"/><path d="M228.849,204.56942c-6.89736,0.48585 -9.31086,-0.56089 -9.31086,-0.56089v-1.34616c0,0 2.10136,1.00666 8.51033,0.63173c4.12393,-0.24126 6.85251,-1.54704 6.97039,-1.3048c0.3826,0.78618 -1.70634,2.26571 -6.16985,2.58011z" fill="#000000" stroke="#000000" stroke-width="0" stroke-linecap="butt"/><path d="M240.12946,261.12113c-0.81895,0 -1.48284,-0.66389 -1.48284,-1.48284c0,-0.81895 0.66389,-1.48284 1.48284,-1.48284c0.81895,0 1.48284,0.66389 1.48284,1.48284c0,0.81895 -0.66389,1.48284 -1.48284,1.48284z" data-paper-data="{&quot;index&quot;:null}" fill="#000000" stroke="none" stroke-width="1.5" stroke-linecap="butt"/><path d="M212.06617,304.40603c0,0 0.90983,-28.11333 1.46459,-44.64532c0.34518,-10.28651 -1.35184,-23.32051 -1.65544,-38.15605c-0.33838,-16.5353 0.69085,-34.4001 0.69085,-34.4001l3.5,-31.32657c0,0 2.67319,-1.35297 4.6557,-2.74807c1.98251,-1.3951 5.17197,-2.80371 5.17197,-2.80371c0,0 -2.93285,6.1796 -1.25992,9.32472c2.68414,5.04621 15.81944,15.38062 15.81944,15.38062c0,0 12.69182,-9.24983 15.22319,-14.2593c1.88732,-3.73492 -1.39165,-10.44603 -1.39165,-10.44603c0,0 3.91276,1.51959 6.16585,2.94655c2.25309,1.42695 4.75379,3.60523 4.75379,3.60523l1,29.33138c0,0 2.38623,16.33153 2.85457,34.14396c0.37992,14.44959 -1.18613,29.70272 -0.86049,39.36566c0.56495,16.76454 1.00592,44.68705 1.00592,44.68705z" fill="#b31212" stroke="none" stroke-width="2" stroke-linecap="butt"/><path d="M219.7641,275.61708c0,0 -12.7554,-5.84923 -17.58629,-13.59721c-4.83089,-7.74798 -6.57609,-15.72476 -8.6191,-23.46349c-1.3605,-5.15345 -0.12035,-22.20374 1.58519,-34.28471c1.654,-11.71586 3.36505,-21.57243 4.62019,-24.65458c2.43034,-5.96794 6.05049,-13.57551 9.23286,-17.51475c3.67556,-4.54971 8.01714,-6.48525 8.01714,-6.48525c0,0 -0.55529,8.22594 -0.97495,17.01889c-0.58892,12.33927 -2.40307,28.74909 -2.91485,36.35429c-0.47415,7.04592 -1.07655,16.94635 -1.07655,16.94635c0,0 2.86977,13.7991 4.5297,15.94063c1.7416,2.24689 5.68666,5.23985 5.68666,5.23985z" fill="#740c0c" stroke="none" stroke-width="2" stroke-linecap="butt"/><path d="M258.02387,247.1171c0,0 4.84717,-2.4829 6.66017,-5.25254c1.813,-2.76964 3.63368,-16.80624 3.63368,-16.80624c0,0 -0.69979,-10.31783 -1.15404,-17.06804c-0.51178,-7.6052 -2.32594,-24.01501 -2.91485,-36.35429c-0.41967,-8.79295 -0.72495,-16.26889 -0.72495,-16.26889c0,0 4.76579,2.45604 8.92627,7.87319c2.87308,3.7409 5.93439,10.12342 8.07373,15.37681c1.25515,3.08216 2.96619,12.93873 4.62019,24.65458c1.70554,12.08097 2.84326,29.00889 1.58519,39.78471c-0.79552,6.81392 -5.03181,16.77849 -9.8742,22.71734c-7.44856,9.13513 -16.33119,12.84336 -16.33119,12.84336z" data-paper-data="{&quot;index&quot;:null}" fill="#740c0c" stroke="none" stroke-width="2" stroke-linecap="butt"/><path d="M195.92695,109.38013c0,0 6.16329,-5.92187 6.29161,-6.78761c0.33654,-2.27063 -0.16776,-40.17317 35.96775,-41.57382c44.63633,-0.91362 39.01489,35.34872 41.53088,42.1903c1.15526,3.14143 2.16881,6.13017 2.67344,8.7162c1.00229,5.1363 0.7332,8.68396 0.7332,8.68396c0,0 -1.36543,-1.95383 -2.3297,-3.13397c-0.96427,-1.18014 -2.80143,-3.14585 -2.80143,-3.14585c0,0 2.69111,9.5481 1.11092,19.89498c-1.58503,10.37857 -1.59643,8.49369 -2.85668,12.5406c-0.68451,2.19812 -1.51281,3.00827 -1.51281,3.00827l-0.66814,-1.61139c0,0 -0.35528,1.27188 -0.6889,1.93389c-0.35211,0.69867 -1.37129,2.15407 -1.37129,2.15407l-1.15522,-2.34735c0,0 -1.02266,2.19794 -2.16005,3.33274c-1.1374,1.13479 -3.43873,2.91273 -3.43873,2.91273l-0.09205,-3.70421c0,0 -7.0601,11.01795 -24.35066,10.87154c-16.30625,-0.25547 -26.07151,-10.6752 -26.07151,-10.6752l-0.1162,2.65484l-2.7297,-3.83041c0,0 -0.36141,0.65251 -0.48944,0.98629c-0.132,0.34413 -0.29103,1.04837 -0.29103,1.04837c0,0 -2.39383,-3.50892 -3.44906,-6.74513c-1.65068,-5.06237 -2.46168,-8.08521 -2.46168,-13.40991c0,0 -2.33908,1.89916 -5.71704,2.7744c-4.23278,1.09673 -6.94665,0.34526 -6.94665,0.34526c0,0 3.60795,-2.71717 5.58396,-4.76989c1.76007,-1.8284 2.64658,-3.37722 2.64658,-3.37722c0,0 -2.10758,1.0847 -4.23277,1.61795c-2.21739,0.5564 -4.03008,0.53093 -4.03008,0.53093c0,0 4.97492,-5.03728 7.03074,-10.87429c1.94102,-5.51108 2.09972,-10.95731 2.09972,-10.95731c0,0 -1.36165,0.66163 -3.33013,0.79513c-1.24776,0.08463 -2.37785,-0.0489 -2.37785,-0.0489z" fill="#000000" stroke="none" stroke-width="1.5" stroke-linecap="butt"/><path d="M272.51631,157.15515c4.65148,3.41744 0.70338,7.15605 0.70338,7.15605c0,0 -2.74889,-3.23397 -4.47957,-4.60502c-1.39666,-1.10644 -10.83304,5.90749 -14.69097,10.04023c-4.09507,4.38677 -13.66279,12.76479 -13.66279,12.76479c0,0 -8.9097,-6.99967 -12.90853,-11.32205c-4.05835,-4.3867 -14.17044,-12.48362 -15.60013,-11.12415c-1.58045,1.50283 -4.74134,4.7462 -4.74134,4.7462c0,0 -1.69347,-5.57353 5.56222,-10.88073c4.88117,-3.57035 19.24463,-3.91602 28.18778,-4.11927c12.16509,-0.27647 26.26548,3.40267 31.62995,7.34395z" fill="#bf1313" stroke="#000000" stroke-width="0" stroke-linecap="round"/><path d="M265.56368,155.5317c2.474,1.31224 0.57832,1.80964 -0.96416,3.04074c-1.30769,1.0437 -8.05099,3.59948 -11.48796,6.25751c-7.51421,5.81122 -16.18317,6.77183 -23.67199,0.92792c-3.61552,-2.82137 -11.87561,-6.55483 -13.89792,-7.15466c-2.02231,-0.59983 -2.08135,-2.46024 0.73131,-3.94551c4.34856,-2.29632 17.14475,-2.51863 25.11207,-2.64936c10.8377,-0.17783 21.70464,2.21113 24.17865,3.52336z" fill="#740c0c" stroke="#000000" stroke-width="0" stroke-linecap="round"/><path d="M212.71284,120.70176c-0.57709,-7.29323 0.335,-17.15448 0.335,-17.15448c0,0 3.41059,-0.04124 13.91429,-3.14424c8.0696,-2.38394 20.54731,-9.48722 20.54731,-9.48722c0,0 -2.16005,3.00503 -3.40781,4.46015c-1.32651,1.54696 -3.99292,4.56297 -3.99292,4.56297c0,0 7.838,-1.66761 14.67476,-4.72931c8.56837,-3.53575 10.59252,-6.05309 12.95042,-4.5927c2.7829,1.72362 1.03006,23.1827 0.71846,28.74062c-0.42163,5.66922 -2.53327,9.49969 -3.15031,12.52053c-0.61704,3.02084 -0.4096,6.13662 -2.20622,16.0397c-1.12121,6.18021 -4.16183,8.92466 -10.01942,14.66081c-5.85759,5.73616 -9.05378,9.25275 -13.01359,9.32173c-3.81077,0.06639 -8.93565,-5.1002 -13.93542,-10.38244c-5.32393,-5.62474 -8.87489,-8.47713 -9.71551,-15.13975c-0.75707,-6.00039 -0.77653,-9.90853 -1.12266,-15.24835c-0.25298,-3.90273 -2.26119,-6.44504 -2.57636,-10.42801z" fill="#ffffff" stroke="#000000" stroke-width="1.5" stroke-linecap="butt"/><g stroke="none" stroke-linecap="butt"><path d="M256.09843,157.57861c0,0 -0.8542,0.27654 -1.05557,1.54286c-0.66357,4.17254 -0.85974,13.11986 -14.87092,13.0062c-12.39211,-0.34845 -13.95028,-8.75973 -15.29736,-13.5057c-0.47179,-1.66217 -1.60306,-2.48275 -1.60306,-2.48275c0,0 9.88951,-9.71704 12.03838,-9.94624c4.51113,-0.48119 5.89481,2.53052 5.89481,2.53052c0,0 2.08889,-3.74253 6.88595,-1.76486c2.66367,1.09814 8.00777,10.61997 8.00777,10.61997z" fill="#000000" stroke-width="0"/><path d="M250.63954,152.39452l2.18465,3.93267l-3.23919,0.27461c-2.81721,0.20897 -3.64155,-0.10193 -4.89594,-1.79473c-0.70674,-0.96173 -4.78776,-2.6601 -4.08928,-3.25195c3.30192,-2.79786 3.58099,-3.68211 5.85457,-3.38589c1.06928,0.1254 2.54009,1.55029 4.18519,4.22529z" data-paper-data="{&quot;noHover&quot;:false,&quot;origItem&quot;:[&quot;Path&quot;,{&quot;applyMatrix&quot;:true,&quot;segments&quot;:[[[909.31653,350.43747],[0.40624,0.04568],[-1.21874,-0.15224]],[[908.69153,352.70601],[-0.92188,-1.20278],[0.47656,0.61662]],[[910.43371,353.32263],[-1.0703,0.07612],[0,0]],[911.62121,353.25411],[[910.76965,351.88385],[0,0],[-0.625,-0.9744]]],&quot;closed&quot;:true,&quot;fillColor&quot;:[0,0,0]}]}" fill="#ffffff" stroke-width="0.5"/><path d="M240.8428,151.50165c0.55565,0.81466 -1.8869,1.59089 -2.51688,2.34757c-0.94595,1.17031 -2.19501,1.52517 -6.32835,1.52517l-5.04865,-0.1318l3.21751,-3.54663c3.7015,-3.90802 7.80429,-5.33721 10.67638,-0.19431z" data-paper-data="{&quot;noHover&quot;:false,&quot;origItem&quot;:[&quot;Path&quot;,{&quot;applyMatrix&quot;:true,&quot;segments&quot;:[[[903.19153,351.63263],[1.40626,-1.42354],[0,0]],[901.95715,352.87347],[[903.81653,352.87347],[0,0],[1.57032,0]],[[906.09779,352.37865],[-0.35938,0.4263],[0.42968,-0.49482]],[[906.05091,351.18349],[0.47656,0.6699],[-0.75782,-1.07336]]],&quot;closed&quot;:true,&quot;fillColor&quot;:[0,0,0]}]}" fill="#ffffff" stroke-width="0.5"/><path d="M229.52245,156.68935c2.17974,0.27167 4.606,0.69612 5.36685,1.05142c0.74026,0.27167 1.8042,1.51062 2.37995,2.59737c1.62452,3.49008 5.89131,3.98684 7.26909,0.62216c0.82255,-1.96447 2.81605,-2.63942 6.76429,-2.36775l2.88531,0.22994l-1.36863,3.74388c-1.99466,5.55903 -3.81053,6.76992 -11.0901,7.0416c-5.32603,0.20897 -6.68436,-0.10893 -9.19313,-1.46735c-2.44707,-1.35842 -3.0466,-2.38131 -4.8768,-6.74911l-2.03532,-5.15844l3.89843,0.45624z" data-paper-data="{&quot;noHover&quot;:false,&quot;origItem&quot;:[&quot;Path&quot;,{&quot;applyMatrix&quot;:true,&quot;segments&quot;:[[902.93373,353.49771],[901.45717,353.32263],[[902.23843,355.17247],[0,0],[0.69532,1.59102]],[[904.07437,357.56281],[-0.92968,-0.49482],[0.95312,0.49482]],[[907.45719,358.05763],[-2.02344,0.07612],[2.76562,-0.09896]],[[911.59781,355.59117],[-0.7578,2.02494],[0,0]],[912.12125,354.25137],[[911.02749,354.17525],[0,0],[-1.5,-0.09896]],[[908.64467,354.96695],[0.3125,-0.71558],[-0.52344,1.22562]],[[905.86343,354.84515],[0.61718,1.2713],[-0.21874,-0.39586]],[[904.95719,353.90119],[0.28124,0.09896],[-0.28906,-0.12942]],[[902.93375,353.49773],[0.82812,0.09896],[0,0]]],&quot;closed&quot;:true,&quot;fillColor&quot;:[0,0,0]}]}" fill="#ffffff" stroke-width="0.5"/></g><path d="M261.01822,109.22751c0,0 1.41291,0.65446 3.89457,2.04374c2.26671,1.26896 3.93983,2.70483 3.93983,2.70483l-0.07456,1.18415c0,0 -6.35424,-4.68801 -14.1658,-5.8242c-6.24594,-0.90845 -10.34106,0.48697 -10.34106,0.48697l0.98891,-4.05833c0,0 3.43181,-0.95298 8.07957,-0.0296c4.81272,0.95616 7.74765,2.40522 7.74765,2.40522z" data-paper-data="{&quot;index&quot;:null}" fill="#000000" stroke="none" stroke-width="1.5" stroke-linecap="butt"/><path d="M244.46924,122.88342c1.66625,4.01698 5.84063,6.61798 10.37646,6.09793c4.53582,-0.52005 8.01318,-3.99835 8.72703,-8.28821c0.21869,0.64779 0.37276,1.32838 0.45379,2.03509c0.61861,5.39545 -3.25379,10.27082 -8.64925,10.88943c-5.39545,0.61861 -10.27082,-3.25379 -10.88943,-8.64925c-0.08103,-0.70671 -0.085,-1.40451 -0.0186,-2.08498z" data-paper-data="{&quot;index&quot;:null}" fill="#b7b7b7" stroke="none" stroke-width="0" stroke-linecap="butt"/><path d="M240.345,150.12885c-1.03376,0 -3.5381,-3.26042 -3.7867,-5.3637c-0.22243,-1.88186 1.31512,-3.82799 3.7867,-3.82799c2.47159,0 4.2021,0.49077 4.02999,4.18853c-0.14607,3.13818 -1.55841,5.00317 -4.02999,5.00317z" fill="#ffffff" stroke="#000000" stroke-width="1.15" stroke-linecap="butt"/><path d="M243.94709,120.03513c0,0 0.1026,3.96976 0.00576,7.12662c-0.19174,6.25113 -1.08147,27.7607 -1.08147,27.7607l-2.98167,0.00864c0,0 -0.80294,-4.17274 -1.12322,-9.49979c-0.43353,-7.21063 -0.4495,-16.29321 -0.76344,-19.63229c-0.29758,-3.16513 -0.89593,-5.71453 -0.89593,-5.71453" fill="#ffffff" stroke="#000000" stroke-width="1.3" stroke-linecap="round"/><path d="M236.4318,124.64108c-0.35515,5.41918 -5.03616,9.52438 -10.45533,9.16923c-5.41918,-0.35515 -9.52438,-5.03616 -9.16923,-10.45533c0.04652,-0.70983 0.16725,-1.3971 0.35415,-2.05477c0.92188,4.25001 4.5645,7.55487 9.12027,7.85343c4.55577,0.29856 8.59854,-2.50263 10.06721,-6.59597c0.09946,0.67643 0.12947,1.37359 0.08295,2.08341z" fill="#b7b7b7" stroke="none" stroke-width="0" stroke-linecap="butt"/><path d="M214.41251,130.82498c0,0 -4.93211,-3.51705 -6.16417,-8.97502c-1.29636,-5.74284 -1.46118,-9.7328 0.48013,-9.99193c1.94131,-0.25915 2.70321,2.37692 3.73262,8.35569c1.0294,5.97877 1.95143,10.61127 1.95143,10.61127z" data-paper-data="{&quot;index&quot;:null}" fill="#ffffff" stroke="#000000" stroke-width="1" stroke-linecap="butt"/><path d="M214.20989,126.87742c0,0 -3.56385,-2.92338 -4.31816,-8.45061c-0.42079,-3.08327 2.15675,-2.28016 2.15675,-2.28016" fill="none" stroke="#000000" stroke-width="0.25" stroke-linecap="round"/><path d="M217.22332,120.22151c0.07093,-4.89188 4.83834,-8.93609 10.21137,-8.8582c5.37302,0.0779 9.02724,4.2484 8.95632,9.14029c-0.07093,4.89188 -4.12352,8.79439 -9.49655,8.7165c-5.37302,-0.0779 -9.74207,-4.1067 -9.67114,-8.99859z" fill="#ffffff" stroke="#000000" stroke-width="1.4" stroke-linecap="butt"/><path d="M222.69658,120.56563c0.03341,-2.30481 1.92892,-4.14612 4.23371,-4.11271c2.30481,0.03341 4.14612,1.92892 4.11271,4.23371c-0.03341,2.30481 -1.92891,4.14612 -4.23371,4.11271c-2.30481,-0.03341 -4.14612,-1.92892 -4.11271,-4.23371z" fill="#000000" stroke="none" stroke-width="1.5" stroke-linecap="butt"/><path d="M244.2796,120.22223c0.20353,-4.88817 4.45264,-8.85847 9.77048,-8.85847c5.31783,0 9.27453,3.96607 9.27453,8.85847c0,4.8924 -3.88585,9.07104 -9.69964,9.14188c-5.52997,0.06739 -9.55792,-4.03692 -9.34537,-9.14188z" fill="#ffffff" stroke="#000000" stroke-width="1.4" stroke-linecap="butt"/><path d="M249.73948,120.3078c0,-2.34506 1.90104,-4.24611 4.24611,-4.24611c2.34506,0 4.24611,1.90104 4.24611,4.24611c0,2.34506 -1.90104,4.24611 -4.24611,4.24611c-2.34506,0 -4.24611,-1.90104 -4.24611,-4.24611z" fill="#000000" stroke="none" stroke-width="1.5" stroke-linecap="butt"/><path d="M217.15489,119.68934c0,0 0.06357,-9.01512 10.60111,-8.8249c9.47101,0.16586 9.55554,9.40723 9.55554,9.40723c0,0 -2.30335,7.70564 -9.97335,7.7918c-7.91988,0.08897 -10.1833,-8.37413 -10.1833,-8.37413z" fill="#ffffff" stroke="#000000" stroke-width="1.15" stroke-linecap="butt"/><path d="M243.90195,119.82023c0,0 -0.24686,-9.4582 11.19813,-9.1032c9.71427,0.33347 9.04677,9.65229 9.04677,9.65229c0,0 -2.83825,7.75559 -10.29694,7.89837c-7.71084,0.1476 -9.94796,-8.44746 -9.94796,-8.44746z" fill="#ffffff" stroke="#000000" stroke-width="1.15" stroke-linecap="butt"/><path d="M220.65971,109.94045c0,0 3.21291,-2.08336 7.82359,-2.91856c0.83017,-0.15038 2.66822,-0.37687 2.66822,-0.37687l0.79236,1.56956l0.32174,-1.67095l3.95557,-0.21075l0.62592,4.10048c0,0 -3.87777,-0.37088 -8.03392,0.12351c-5.55834,0.66118 -6.50857,1.96117 -10.71099,2.75899c-3.60085,0.68362 -6.7028,0.6986 -6.7028,0.6986l-0.12457,-1.2255c0,0 3.58953,-0.21455 5.21137,-0.48783c1.33861,-0.22556 3.88767,-1.25387 3.88767,-1.25387z" fill="#000000" stroke="none" stroke-width="1.5" stroke-linecap="butt"/><path d="M268.64563,120.21372c1.0294,-5.97877 1.7913,-8.61483 3.73262,-8.35569c1.94131,0.25914 1.77649,4.24909 0.48013,9.99193c-1.23206,5.45797 -6.16417,8.97502 -6.16417,8.97502c0,0 0.92203,-4.6325 1.95143,-10.61127z" data-paper-data="{&quot;index&quot;:null}" fill="#ffffff" stroke="#000000" stroke-width="1" stroke-linecap="butt"/><path d="M269.05818,116.14665c0,0 2.57754,-0.80312 2.15675,2.28016c-0.75431,5.52723 -4.31816,8.45061 -4.31816,8.45061" data-paper-data="{&quot;index&quot;:null}" fill="none" stroke="#000000" stroke-width="0.25" stroke-linecap="round"/><path d="M263.26788,136.38144c0.73935,-0.80826 2.25127,1.3586 1.12963,2.30842c0.09461,0.72999 -0.54156,1.65971 -0.75784,2.59062c0.11616,1.16915 0.07478,2.37022 -0.23662,3.31904v0.43943c0,0.27614 -0.22386,0.5 -0.5,0.5c-0.00176,0 -0.00353,-0.00001 -0.00529,-0.00003c0.16677,0.67245 0.34034,1.25839 0.47963,1.67525c0,0 0.15811,0.47434 -0.31623,0.63246c-0.11352,0.03784 -0.20892,0.03946 -0.28839,0.02002c-0.05511,0.45104 -0.25133,0.68398 -0.63445,0.85855l0.04208,0.06311l-0.49431,0.32954c-0.08048,0.05536 -0.17797,0.08777 -0.28304,0.08777c-0.27614,0 -0.5,-0.22386 -0.5,-0.5c0,-0.10506 0.03241,-0.20256 0.08777,-0.28304l0.26485,-0.39728c-0.03588,-0.57762 -0.09698,-1.13689 -0.1393,-1.70521c-0.18523,-0.47887 -0.39,-0.95435 -0.37962,-1.46699c0.01501,-0.74107 0.6647,-1.01795 0.85442,-1.6257c0.00823,-0.02635 0.0163,-0.05272 0.02421,-0.07911c-0.03664,-0.67078 -0.04567,-1.36302 -0.04567,-2.10933c0,-0.55131 -0.36182,-1.95481 -0.1075,-2.4026c0.19577,-0.3447 0.61639,-0.54444 1.04976,-0.6846c0.06191,-0.51557 0.28884,-1.07344 0.47505,-1.35682c0,0 0.10427,-0.15641 0.28085,-0.21349z" fill="#000000" stroke="none" stroke-width="0.5" stroke-linecap="butt"/><path d="M259.73641,146.7056c0,-0.27614 0.22386,-0.5 0.5,-0.5c0.27614,0 0.5,0.22386 0.5,0.5c0,0.27614 -0.22386,0.5 -0.5,0.5c-0.27614,0 -0.5,-0.22386 -0.5,-0.5z" fill="#000000" stroke="none" stroke-width="0.5" stroke-linecap="butt"/><path d="M260.58952,135.37993c-0.06653,-0.1989 0.03299,-0.39794 0.03299,-0.39794l0.77199,-0.58407c1.17608,0.6221 0.96732,1.4871 -0.32478,1.64101c0,0 -0.5,0 -0.5,-0.5c0,-0.05989 0.00717,-0.1126 0.0198,-0.159z" fill="#000000" stroke="none" stroke-width="0.5" stroke-linecap="butt"/><path d="M238.01621,125.79684c-0.22361,-0.44721 0.22361,-0.67082 0.22361,-0.67082l0.0933,0.02701c0.27221,-0.13593 -0.59941,-0.77658 -0.85714,-1.15959c0,0 -0.27735,-0.41603 0.13868,-0.69338c0.41603,-0.27735 0.69338,0.13868 0.69338,0.13868c0.61891,0.93895 1.43979,1.07088 0.85714,2.26899l-0.47813,0.31272c0,0 -0.44721,0.22361 -0.67082,-0.22361z" fill="#000000" stroke="none" stroke-width="0.5" stroke-linecap="butt"/><path d="M240.38536,182.50694l0.50054,-0.32967l0.28846,122.03205l-1.21153,-121.95512z" fill="url(#color-1)" stroke="#000000" stroke-width="0" stroke-linecap="round"/><path d="M218.62186,280.13543l3.14473,-35.66667c0,0 11.40944,-1.66667 17.4659,-1.66667c6.56481,0 20.52094,1.66667 20.52094,1.66667l2.86842,35c0,0 -15.27797,2.23148 -22.7287,2.34437c-7.20789,0.10921 -21.2713,-1.67771 -21.2713,-1.67771z" fill="#990f0f" stroke="none" stroke-width="2" stroke-linecap="butt"/></g></g></svg>