<svg version="1.1" xmlns="http://www.w3.org/2000/svg" xmlns:xlink="http://www.w3.org/1999/xlink" width="34.17311" height="34.17311" viewBox="0,0,34.17311,34.17311"><g transform="translate(-222.91345,-162.91345)"><g data-paper-data="{&quot;isPaintingLayer&quot;:true}" stroke="none" stroke-miterlimit="10" stroke-dasharray="" stroke-dashoffset="0" style="mix-blend-mode: normal"><path d="M229.98311,162.91345h20.03379c3.9166,0 7.06966,3.15307 7.06966,7.06966v20.03379c0,3.91659 -3.15306,7.06966 -7.06966,7.06966h-20.03379c-3.91659,0 -7.06966,-3.15307 -7.06966,-7.06966v-20.03379c0,-3.91659 3.15307,-7.06966 7.06966,-7.06966z" fill="#760c0c" fill-rule="evenodd" stroke-width="4.43922" stroke-linecap="round" stroke-linejoin="round"/><g fill-rule="nonzero" stroke-width="0" stroke-linecap="butt" stroke-linejoin="miter"><path d="M251.39916,183.30847c-2.4432,8.7507 -19.24712,8.50716 -19.24712,8.50716c0,0 -7.70761,-15.23364 -1.62225,-21.52812c6.29222,-6.50842 11.70718,3.91307 11.70718,3.91307c0,0 11.90698,-0.72297 9.16219,9.10788z" fill="#9b0f0f"/><path d="M232.07446,191.61129l4.74208,-7.36834l-0.38927,-3.43822l5.67279,-6.91907l0.11534,0.30278l0.36339,0.01218l-5.648,6.86685l0.29963,3.28995l-4.87956,7.49389l-0.24573,-0.06718z" fill="#000000"/><path d="M239.68023,180.2316c-0.31141,0.35408 -0.71093,0.50316 -0.89232,0.33301c-0.1814,-0.17016 -0.07602,-0.59513 0.23539,-0.94921c0.31141,-0.35408 0.71093,-0.50316 0.89232,-0.33301c0.1814,0.17016 0.07602,0.59513 -0.23539,0.94921z" fill="#000000"/><path d="M235.74194,184.73612c-0.2313,0.41091 -0.59125,0.63955 -0.80397,0.51065c-0.21273,-0.12889 -0.19767,-0.56648 0.03364,-0.97739c0.2313,-0.41091 0.59125,-0.63955 0.80397,-0.51065c0.21273,0.12889 0.19767,0.56648 -0.03364,0.97739z" fill="#000000"/></g></g></g></svg>