<svg version="1.1" xmlns="http://www.w3.org/2000/svg" xmlns:xlink="http://www.w3.org/1999/xlink" width="116.79681" height="242.43666" viewBox="0,0,116.79681,242.43666"><defs><linearGradient x1="240.97421" y1="164.99812" x2="240.97421" y2="211.66479" gradientUnits="userSpaceOnUse" id="color-1"><stop offset="0" stop-color="#1b1b1b"/><stop offset="1" stop-color="#313131"/></linearGradient><linearGradient x1="241.09873" y1="74.17679" x2="241.09873" y2="140.37834" gradientUnits="userSpaceOnUse" id="color-2"><stop offset="0" stop-color="#202020"/><stop offset="1" stop-color="#323232"/></linearGradient></defs><g transform="translate(-183.67183,-66.27132)"><g data-paper-data="{&quot;isPaintingLayer&quot;:true}" fill-rule="nonzero" stroke-linejoin="miter" stroke-miterlimit="10" stroke-dasharray="" stroke-dashoffset="0" style="mix-blend-mode: normal"><path d="M243.90497,147.86875h36l13.33333,71.83334l-45,40.83333z" data-paper-data="{&quot;index&quot;:null}" fill="#0c0c0c" stroke="none" stroke-width="0" stroke-linecap="butt"/><path d="M234.7383,261.86875l-46,-43l13.66667,-72.5h36z" fill="#0c0c0c" stroke="none" stroke-width="0" stroke-linecap="butt"/><path d="M240.18481,215.32146l49.58333,10.33333l-49,48l-48,-47.99999z" fill="#b31212" stroke="#000000" stroke-width="0" stroke-linecap="round"/><path d="M231.18426,308.70798v-155h19.66667v155z" fill="#810d0d" stroke="none" stroke-width="0" stroke-linecap="butt"/><path d="M212.10944,231.12043v-92h58v92z" fill="#232323" stroke="none" stroke-width="0" stroke-linecap="butt"/><path d="M218.47421,211.66479v-46.66667h45v46.66667z" fill="#0c0c0c" stroke="url(#color-1)" stroke-width="2" stroke-linecap="butt"/><path d="M219.77611,248.97436v-18h43.33333v18z" fill="#660a0a" stroke="none" stroke-width="0" stroke-linecap="butt"/><path d="M281.66723,152.49833c0,0 -6.3451,14.48976 -15.11279,21.35647c-8.2643,6.47245 -16.99153,16.86297 -25.9204,16.84154c-8.18338,-0.01964 -16.57613,-9.90529 -24.09215,-15.911c-9.20539,-7.35561 -15.62468,-21.03701 -15.62468,-21.03701" fill="none" stroke="#740c0c" stroke-width="3.5" stroke-linecap="round"/><path d="M240.74101,188.87397c-16.87227,-0.65525 -53.47635,-24.83582 -55.31918,-41.17576c-1.86728,-16.55667 41.12971,-27.87922 54.52174,-28.21094c12.39251,-0.30696 59.09437,12.34257 58.77342,28.21094c-0.35291,17.44846 -40.64722,41.84874 -57.97598,41.17576z" data-paper-data="{&quot;index&quot;:null}" fill="none" stroke="#740c0c" stroke-width="3.5" stroke-linecap="round"/><path d="M195.20255,139.97481v-15.75h91.5v15.75z" fill="#1d1d1d" stroke="none" stroke-width="0" stroke-linecap="butt"/><path d="M197.45837,148.69237v-82.42105h55.82107l6.28571,0.57143l4.57143,-0.57143h20.3218v82.42105z" fill="#2b2b2b" stroke="none" stroke-width="0" stroke-linecap="butt"/><path d="M206.09872,140.37834v-66.20155h70v66.20155z" fill="url(#color-2)" stroke="none" stroke-width="0" stroke-linecap="butt"/><path d="M208.84872,137.87834v-61h64.5v61z" fill="#0c0c0c" stroke="none" stroke-width="0" stroke-linecap="butt"/><g fill="#b31212" stroke="none" stroke-width="0" stroke-linecap="butt"><path d="M222.71735,112.51247v-20.5h8.31081v20.5z"/><path d="M219.4741,111.51247v-18.5h15v18.5z"/></g><g fill="#b31212" stroke="none" stroke-width="0" stroke-linecap="butt"><path d="M250.46735,112.76247v-20.5h8.31081v20.5z"/><path d="M247.2241,111.76247v-18.5h15v18.5z"/></g><path d="M208.77159,125.4529v-2.5h64.75v2.5z" fill="#b31212" stroke="none" stroke-width="0" stroke-linecap="butt"/><path d="M259.85085,68.90686l-0.14285,-1.90476l4.71429,-0.71429z" fill="#3c3c3c" stroke="none" stroke-width="0.5" stroke-linecap="round"/><g stroke="none" stroke-width="0" stroke-linecap="butt"><path d="M256.63669,182.11079c2.79769,11.06271 -15.67021,21.28344 -15.67021,21.28344c0,0 -17.90743,-11.79456 -15.20246,-22.45286c2.79692,-11.02059 15.20246,-3.04049 15.20246,-3.04049c0,0 12.5272,-8.21835 15.67021,4.2099z" fill="#990f0f"/><path d="M240.75439,203.21993l0.57069,-10.99055l-2.56985,-3.50468l1.86551,-11.08165l0.31466,0.25805l0.40369,-0.2135l-1.87107,11.00925l2.37962,3.399l-0.64219,11.21317l-0.30977,0.08012z" fill="#740c0c"/><path d="M241.94325,186.07006c-0.11848,0.58027 -0.4609,0.99208 -0.7648,0.91982c-0.3039,-0.07227 -0.45424,-0.60125 -0.33576,-1.18151c0.11848,-0.58027 0.4609,-0.99208 0.7648,-0.91982c0.3039,0.07227 0.45424,0.60125 0.33576,1.18151z" fill="#740c0c"/><path d="M240.46156,193.43751c0.00431,0.59222 -0.24535,1.06604 -0.55765,1.0583c-0.31229,-0.00774 -0.56895,-0.49411 -0.57325,-1.08633c-0.00431,-0.59222 0.24535,-1.06604 0.55765,-1.0583c0.31229,0.00774 0.56895,0.49411 0.57325,1.08633z" fill="#740c0c"/><path d="M238.75832,179.59895c-0.15386,1.85368 -2.74134,3.15199 -5.77932,2.89982c-3.03797,-0.25215 -5.37602,-1.95926 -5.22217,-3.81294c0.15386,-1.85368 2.74134,-3.15199 5.77932,-2.89982c3.03797,0.25215 5.37602,1.95926 5.22217,3.81294z" fill="#b31212"/><path d="M253.25686,178.56366c0.15775,1.74018 -2.02634,3.36046 -4.8783,3.61899c-2.85196,0.25853 -5.29181,-0.94257 -5.44957,-2.68275c-0.15775,-1.74018 2.02634,-3.36046 4.8783,-3.61899c2.85196,-0.25853 5.29181,0.94257 5.44957,2.68276z" fill="#b31212"/></g></g></g></svg>