<svg version="1.1" xmlns="http://www.w3.org/2000/svg" xmlns:xlink="http://www.w3.org/1999/xlink" width="116.79681" height="283.75271" viewBox="0,0,116.79681,283.75271"><defs><linearGradient x1="240.9742" y1="164.99812" x2="240.9742" y2="211.66479" gradientUnits="userSpaceOnUse" id="color-1"><stop offset="0" stop-color="#1b1b1b"/><stop offset="1" stop-color="#313131"/></linearGradient><linearGradient x1="241.09872" y1="74.17679" x2="241.09872" y2="140.37834" gradientUnits="userSpaceOnUse" id="color-2"><stop offset="0" stop-color="#202020"/><stop offset="1" stop-color="#323232"/></linearGradient></defs><g transform="translate(-183.67181,-66.27132)"><g data-paper-data="{&quot;isPaintingLayer&quot;:true}" fill-rule="nonzero" stroke-linejoin="miter" stroke-miterlimit="10" stroke-dasharray="" stroke-dashoffset="0" style="mix-blend-mode: normal"><path d="M201.88491,332.20644v-15.30586h15.19421v15.30586z" fill="#da1616" stroke="none" stroke-width="0" stroke-linecap="butt"/><path d="M216.97737,332.20644v-15.30586h15.19421v15.30586z" fill="#c01313" stroke="none" stroke-width="0" stroke-linecap="butt"/><path d="M232.06985,332.20644v-15.30586h15.19422v15.30586z" fill="#b31212" stroke="none" stroke-width="0" stroke-linecap="butt"/><path d="M247.16235,332.20644v-15.30586h15.19421v15.30586z" fill="#990f0f" stroke="none" stroke-width="0" stroke-linecap="butt"/><path d="M262.14054,332.20644v-15.30586h15.19421v15.30586z" fill="#740c0c" stroke="none" stroke-width="0" stroke-linecap="butt"/><path d="M202.20884,350.02403v-15.30586h15.19421v15.30586z" fill="#8b8b8b" stroke="none" stroke-width="0" stroke-linecap="butt"/><path d="M217.30132,350.02403v-15.30586h15.19421v15.30586z" fill="#666666" stroke="none" stroke-width="0" stroke-linecap="butt"/><path d="M232.39381,350.02403v-15.30586h15.19422v15.30586z" fill="#4b4b4b" stroke="none" stroke-width="0" stroke-linecap="butt"/><path d="M247.48631,350.02403v-15.30586h15.19421v15.30586z" fill="#2b2b2b" stroke="none" stroke-width="0" stroke-linecap="butt"/><path d="M262.44543,350.02403v-15.30586h15.19421v15.30586z" fill="#0c0c0c" stroke="none" stroke-width="0" stroke-linecap="butt"/><path d="M243.90496,147.86875h36l13.33333,71.83334l-45,40.83333z" data-paper-data="{&quot;index&quot;:null}" fill="#0c0c0c" stroke="none" stroke-width="0" stroke-linecap="butt"/><path d="M234.73829,261.86875l-46,-43l13.66667,-72.5h36z" fill="#0c0c0c" stroke="none" stroke-width="0" stroke-linecap="butt"/><path d="M240.1848,215.32146l49.58333,10.33333l-49,48l-48,-48z" fill="#b31212" stroke="#000000" stroke-width="0" stroke-linecap="round"/><path d="M231.18425,308.70798v-155h19.66667v155z" fill="#810d0d" stroke="none" stroke-width="0" stroke-linecap="butt"/><path d="M212.10943,231.12043v-92h58v92z" fill="#232323" stroke="none" stroke-width="0" stroke-linecap="butt"/><path d="M218.4742,211.66479v-46.66667h45v46.66667z" fill="#0c0c0c" stroke="url(#color-1)" stroke-width="2" stroke-linecap="butt"/><path d="M219.7761,248.97436v-18h43.33333v18z" fill="#660a0a" stroke="none" stroke-width="0" stroke-linecap="butt"/><path d="M281.66722,152.49833c0,0 -6.3451,14.48976 -15.11279,21.35647c-8.2643,6.47245 -16.99153,16.86297 -25.9204,16.84154c-8.18338,-0.01964 -16.57613,-9.90529 -24.09215,-15.911c-9.20539,-7.35561 -15.62468,-21.03701 -15.62468,-21.03701" fill="none" stroke="#740c0c" stroke-width="3.5" stroke-linecap="round"/><path d="M240.741,188.87397c-16.87227,-0.65525 -53.47635,-24.83582 -55.31918,-41.17576c-1.86728,-16.55667 41.12971,-27.87922 54.52174,-28.21094c12.39251,-0.30696 59.09437,12.34257 58.77342,28.21094c-0.35291,17.44846 -40.64722,41.84874 -57.97598,41.17576z" data-paper-data="{&quot;index&quot;:null}" fill="none" stroke="#740c0c" stroke-width="3.5" stroke-linecap="round"/><path d="M195.20254,139.97481v-15.75h91.5v15.75z" fill="#1d1d1d" stroke="none" stroke-width="0" stroke-linecap="butt"/><path d="M197.45836,148.69237v-82.42105h55.82107l6.28571,0.57143l4.57143,-0.57143h20.3218v82.42105z" fill="#2b2b2b" stroke="none" stroke-width="0" stroke-linecap="butt"/><path d="M206.09871,140.37834v-66.20155h70v66.20155z" fill="url(#color-2)" stroke="none" stroke-width="0" stroke-linecap="butt"/><path d="M208.84871,137.87834v-61h64.5v61z" fill="#0c0c0c" stroke="none" stroke-width="0" stroke-linecap="butt"/><g fill="#b31212" stroke="none" stroke-width="0" stroke-linecap="butt"><path d="M222.71734,112.51247v-20.5h8.31081v20.5z"/><path d="M219.47409,111.51247v-18.5h15v18.5z"/></g><g fill="#b31212" stroke="none" stroke-width="0" stroke-linecap="butt"><path d="M250.46734,112.76247v-20.5h8.31081v20.5z"/><path d="M247.22409,111.76247v-18.5h15v18.5z"/></g><path d="M208.77158,125.4529v-2.5h64.75v2.5z" fill="#b31212" stroke="none" stroke-width="0" stroke-linecap="butt"/><path d="M259.85083,68.90686l-0.14285,-1.90476l4.71429,-0.71429z" fill="#3c3c3c" stroke="none" stroke-width="0.5" stroke-linecap="round"/><g stroke="none" stroke-width="0" stroke-linecap="butt"><path d="M257.43407,181.24454c2.99047,11.82501 -16.75,22.75 -16.75,22.75c0,0 -19.14136,-12.60728 -16.25,-24c2.98964,-11.77997 16.25,-3.25 16.25,-3.25c0,0 13.3904,-8.78465 16.75,4.5z" fill="#990f0f"/><path d="M240.45738,203.80822l0.61002,-11.74787l-2.74692,-3.74618l1.99405,-11.84524l0.33634,0.27583l0.43151,-0.22821l-2,11.76786l2.54359,3.63321l-0.68645,11.98583l-0.33111,0.08563z" fill="#740c0c"/><path d="M241.72815,185.47663c-0.12664,0.62025 -0.49265,1.06044 -0.8175,0.9832c-0.32485,-0.07725 -0.48554,-0.64268 -0.3589,-1.26293c0.12664,-0.62025 0.49265,-1.06044 0.8175,-0.9832c0.32485,0.07725 0.48554,0.64268 0.3589,1.26293z" fill="#740c0c"/><path d="M240.14436,193.35174c0.00461,0.63303 -0.26226,1.1395 -0.59608,1.13123c-0.33381,-0.00827 -0.60815,-0.52815 -0.61276,-1.16118c-0.00461,-0.63303 0.26226,-1.1395 0.59608,-1.13123c0.33381,0.00827 0.60815,0.52815 0.61276,1.16118z" fill="#740c0c"/><path d="M238.32377,178.55962c-0.16446,1.98141 -2.93024,3.36917 -6.17756,3.09964c-3.24731,-0.26953 -5.74646,-2.09427 -5.58201,-4.07568c0.16446,-1.98141 2.93024,-3.36917 6.17756,-3.09964c3.24731,0.26953 5.74646,2.09427 5.58201,4.07568z" fill="#b31212"/><path d="M253.82133,177.45298c0.16862,1.86009 -2.16597,3.59201 -5.21445,3.86836c-3.04848,0.27635 -5.65645,-1.00753 -5.82507,-2.86761c-0.16862,-1.86009 2.16597,-3.59202 5.21445,-3.86836c3.04848,-0.27635 5.65645,1.00753 5.82507,2.86762z" fill="#b31212"/></g></g></g></svg>