<svg version="1.1" xmlns="http://www.w3.org/2000/svg" xmlns:xlink="http://www.w3.org/1999/xlink" width="95.4309" height="330.28436" viewBox="0,0,95.4309,330.28436"><g transform="translate(-192.53676,-19.73967)"><g data-paper-data="{&quot;isPaintingLayer&quot;:true}" fill-rule="nonzero" stroke-linejoin="miter" stroke-miterlimit="10" stroke-dasharray="" stroke-dashoffset="0" style="mix-blend-mode: normal"><path d="M194.409,306.61251v-253.22501h91.18203v253.22501z" fill-opacity="0.01" fill="#000000" stroke="none" stroke-width="0" stroke-linecap="butt"/><path d="M201.03042,304.39159c0,0 -0.63536,-94.38387 -0.79335,-118.01201c-0.05451,-8.15261 8.18688,-36.76129 40.20201,-36.9211c31.60235,-0.15775 39.85672,29.48704 39.84884,36.89673c-0.07659,46.24274 0.65429,117.98648 0.65429,117.98648l-10.49667,0.09614l-0.15882,-114.84311c0,0 0.07549,-3.0993 -2.81625,-3.15415c-3.43441,-0.06514 -2.94538,3.11562 -2.94538,3.11562l0.20548,114.86995l-48.21366,0.07222l-0.30539,-115.23309c0,0 0.27949,-2.919 -2.8856,-2.93443c-3.11083,-0.01515 -2.81569,2.90899 -2.81569,2.90899l0.35311,115.0668z" fill="#ffffff" stroke="#000000" stroke-width="2" stroke-linecap="butt"/><g data-paper-data="{&quot;index&quot;:null}" stroke-width="0"><path d="M278.28388,250.84658c-3.15678,0.36832 -9.61598,0.39596 -9.61598,0.39596l-1.58333,-93.83333c0,0 11.49361,8.17316 14.91667,20.69053c2.96904,10.85714 5.33333,70.96486 5.33333,70.96486c0,0 -5.9881,1.42464 -9.05068,1.78198z" fill="#990f0f" stroke="none" stroke-linecap="butt"/><path d="M278.03388,250.84658c-3.15678,0.36832 -9.61598,0.39596 -9.61598,0.39596l-0.10451,-6.19352c0,0 6.64612,0.34233 9.82328,0.11555c2.99385,-0.2137 8.72244,-1.43933 8.72244,-1.43933l0.22546,5.33936c0,0 -5.9881,1.42464 -9.05068,1.78198z" fill="#740c0c" stroke="none" stroke-linecap="butt"/><path d="M285.14734,208.59203c0.4508,7.36365 1.03931,22.42151 1.03931,22.42151l-8,-20.69052l5.33333,-22.86847c0,0 1.18966,13.98779 1.62736,21.13749z" fill="#740c0c" stroke="#000000" stroke-linecap="round"/></g><path d="M255.6276,200.33379c-0.57113,0 -1.03411,-0.46299 -1.03411,-1.03411c0,-0.57113 0.46299,-1.03413 1.03411,-1.03413c0.57113,0 1.03411,0.463 1.03411,1.03413c0,0.57113 -0.46299,1.03411 -1.03411,1.03411z" fill="#000000" stroke="none" stroke-width="1.5" stroke-linecap="butt"/><g stroke-width="0"><path d="M193.4179,249.39793c0,0 2.36429,-60.10772 5.33333,-70.96486c3.42306,-12.51737 14.91667,-20.69052 14.91667,-20.69052l-1.58333,93.83333c0,0 -6.4592,-0.02764 -9.61598,-0.39596c-3.06259,-0.35733 -9.05068,-1.78198 -9.05068,-1.78198z" fill="#990f0f" stroke="none" stroke-linecap="butt"/><path d="M193.6679,249.39793l0.22546,-5.33936c0,0 5.72859,1.22563 8.72243,1.43933c3.17716,0.22679 9.82328,-0.11555 9.82328,-0.11555l-0.10451,6.19352c0,0 -6.4592,-0.02764 -9.61598,-0.39596c-3.06259,-0.35733 -9.05068,-1.78198 -9.05068,-1.78198z" fill="#740c0c" stroke="none" stroke-linecap="butt"/><path d="M197.23248,187.78788l5.33333,22.86847l-8,20.69052c0,0 0.5885,-15.05785 1.0393,-22.4215c0.4377,-7.1497 1.62736,-21.13749 1.62736,-21.13749z" fill="#740c0c" stroke="#000000" stroke-linecap="round"/></g><path d="M250.36773,204.56938c-4.4635,-0.31439 -6.55245,-1.79392 -6.16985,-2.58011c0.11788,-0.24224 2.84645,1.06355 6.97038,1.3048c6.40897,0.37493 8.51033,-0.63173 8.51033,-0.63173v1.34616c0,0 -2.4135,1.04672 -9.31086,0.56089z" fill="#000000" stroke="#000000" stroke-width="0" stroke-linecap="butt"/><path d="M222.55496,199.29968c0,-0.57113 0.46299,-1.03413 1.03411,-1.03413c0.57113,0 1.03413,0.463 1.03413,1.03413c0,0.57113 -0.463,1.03411 -1.03413,1.03411c-0.57113,0 -1.03411,-0.46299 -1.03411,-1.03411z" fill="#000000" stroke="none" stroke-width="1.5" stroke-linecap="butt"/><path d="M228.84899,204.56938c-6.89736,0.48585 -9.31086,-0.56089 -9.31086,-0.56089v-1.34616c0,0 2.10136,1.00666 8.51033,0.63173c4.12393,-0.24126 6.85251,-1.54704 6.97039,-1.3048c0.3826,0.78618 -1.70634,2.26571 -6.16985,2.58011z" fill="#000000" stroke="#000000" stroke-width="0" stroke-linecap="butt"/><path d="M240.12945,261.12113c-0.81895,0 -1.48284,-0.66389 -1.48284,-1.48284c0,-0.81895 0.66389,-1.48284 1.48284,-1.48284c0.81895,0 1.48284,0.66389 1.48284,1.48284c0,0.81895 -0.66389,1.48284 -1.48284,1.48284z" data-paper-data="{&quot;index&quot;:null}" fill="#000000" stroke="none" stroke-width="1.5" stroke-linecap="butt"/><path d="M214.06615,305.57271c0,0 -3.69417,-94.7135 -4.43924,-119.64103c-0.33464,-11.1961 0.60591,-25.33719 0.60591,-25.33719c0,0 12.03141,-16.47253 29.96533,-16.74418c18.83174,-0.28525 31.3397,17.25065 31.3397,17.25065c0,0 0.20756,11.43658 -0.1896,22.19493c-0.90814,24.60018 -4.14373,122.27684 -4.14373,122.27684z" fill="#2b2b2b" stroke="#000000" stroke-width="0" stroke-linecap="butt"/><path d="M263.31282,151.30561c0,0 5.79176,0.463 10.39686,-7.83003c4.1722,-7.51344 3.10314,-20.22741 3.10314,-20.22741l6.25,-2.04054c0,0 1.26506,17.59013 -3.86805,26.49186c-6.30235,10.92939 -15.88195,11.25814 -15.88195,11.25814z" data-paper-data="{&quot;index&quot;:null}" fill="#740c0c" stroke="none" stroke-width="0" stroke-linecap="butt"/><path d="M219.45073,159.95764c0,0 -9.57961,-0.32875 -15.88195,-11.25814c-5.13311,-8.90173 -3.86805,-26.49186 -3.86805,-26.49186l6.25,2.04054c0,0 -1.06907,12.71396 3.10313,20.2274c4.6051,8.29303 10.39687,7.83003 10.39687,7.83003z" fill="#740c0c" stroke="none" stroke-width="0" stroke-linecap="butt"/><path d="M263.59262,151.30561c0,0 5.79177,0.463 10.39687,-7.83003c4.1722,-7.51344 3.10313,-20.2274 3.10313,-20.2274c0,0 4.00001,15.1989 -0.81805,23.05132c-4.8481,7.90137 -12.68195,8.65814 -12.68195,8.65814z" data-paper-data="{&quot;index&quot;:null}" fill="#8d0e0e" stroke="none" stroke-width="0" stroke-linecap="butt"/><g data-paper-data="{&quot;index&quot;:null}" stroke="none" stroke-width="0" stroke-linecap="butt"><g><path d="M234.28389,108.7771v-66.36774l-4.64954,-22.66968h22.33333l-4.64954,22.66968v66.36774z" fill="#580909"/><path d="M238.54483,108.7771v-66.36774l-4.20874,-22.66968h13.22369l-4.20875,22.66968v66.36774z" fill="#740c0c"/></g><path d="M241.00052,104.35217c5.72087,0 10.35855,4.67028 10.35855,10.43137c0,5.76109 -4.63768,10.43138 -10.35855,10.43138c-5.72087,0 -10.35855,-4.67029 -10.35855,-10.43138c0,-5.76109 4.63768,-10.43137 10.35855,-10.43137z" fill="#0c0c0c"/></g><path d="M219.25073,155.75764c0,0 -7.83385,-0.75677 -12.68195,-8.65814c-4.81806,-7.85242 -0.81805,-23.05132 -0.81805,-23.05132c0,0 -1.06907,12.71396 3.10313,20.2274c4.6051,8.29303 10.39687,7.83003 10.39687,7.83003z" fill="#8d0e0e" stroke="none" stroke-width="0" stroke-linecap="butt"/><g data-paper-data="{&quot;index&quot;:null}" stroke="none" stroke-width="0" stroke-linecap="butt"><g><path d="M270.28388,109.11043v-61.03441l-4.64954,-22.66968h22.33333l-4.64954,22.66968v61.03441z" fill="#580909"/><path d="M274.54482,109.11043v-61.03441l-4.20874,-22.66968h13.22368l-4.20875,22.66968v61.03441z" fill="#740c0c"/></g><path d="M277.0005,104.6855c5.72087,0 10.35855,4.67028 10.35855,10.43137c0,5.76109 -4.63768,10.43137 -10.35855,10.43137c-5.72087,0 -10.35855,-4.67028 -10.35855,-10.43137c0,-5.76109 4.63769,-10.43137 10.35855,-10.43137z" fill="#0c0c0c"/></g><g stroke="none" stroke-width="0" stroke-linecap="butt"><g><path d="M198.45054,109.7771v-61.03441l-4.64954,-22.66968h22.33333l-4.64954,22.66968v61.03441z" fill="#580909"/><path d="M202.41767,109.7771v-61.03441l-4.20875,-22.66968h13.22368l-4.20874,22.66968v61.03441z" fill="#740c0c"/></g><path d="M215.12671,115.78354c0,5.76109 -4.63768,10.43137 -10.35855,10.43137c-5.72087,0 -10.35855,-4.67028 -10.35855,-10.43137c0,-5.76109 4.63768,-10.43137 10.35855,-10.43137c5.72087,0 10.35855,4.67028 10.35855,10.43137z" fill="#0c0c0c"/></g><path d="M195.92694,103.88011c0,0 6.16329,-5.92187 6.29161,-6.78761c0.33654,-2.27063 -0.16776,-40.17317 35.96775,-41.57382c44.63633,-0.91362 39.01489,35.34872 41.53088,42.1903c3.44981,9.38084 6.15664,17.40016 6.15664,17.40016c0,0 -2.76715,-2.05351 -4.0797,-3.13397c-1.2242,-1.00773 -3.80143,-5.39585 -3.80143,-5.39585c0,0 0.18206,0.74202 0.43238,2.0138c0.06022,0.30596 -0.32006,0.75368 -0.25353,1.118c0.26603,1.45675 0.88085,11.62024 1.07697,12.35486c0.13258,0.49663 0.51598,-0.50233 0.49488,2.21059c-0.0174,2.23817 -0.0652,3.07057 -0.43978,5.24773c-1.5623,9.48098 -7.29782,17.22543 -7.29782,17.22543l-1.15522,-2.34735c0,0 -1.02266,2.19794 -2.16005,3.33274c-1.1374,1.13479 -3.43873,2.91273 -3.43873,2.91273l-0.09205,-3.70421c0,0 -7.0601,11.01795 -24.35066,10.87154c-16.30625,-0.25547 -26.07151,-10.6752 -26.07151,-10.6752l-0.1162,2.65484c0,0 -3.89477,-3.29276 -6.18145,-9.70754c-2.72545,-7.64567 -3.23946,-12.24324 -3.23946,-12.24324c0,0 -2.33908,1.89916 -5.71704,2.7744c-4.23278,1.09673 -6.94665,0.34526 -6.94665,0.34526c0,0 3.60795,-2.71717 5.58396,-4.76989c1.76007,-1.8284 2.64658,-3.37722 2.64658,-3.37722c0,0 1.07157,-0.79104 1.18551,-1.5457c0.41587,-2.75432 0.39622,-9.13101 0.52192,-11.98252c0.01679,-0.38098 -0.32527,-0.79227 -0.352,-1.21524c-0.14516,-2.29739 -0.48783,-4.93925 -0.48783,-4.93925c0,0 -1.36165,0.66163 -3.33013,0.79513c-1.24776,0.08463 -2.37785,-0.0489 -2.37785,-0.0489z" fill="#000000" stroke="none" stroke-width="1.5" stroke-linecap="butt"/><path d="M212.71282,115.20174c-0.57709,-7.29323 0.335,-17.15448 0.335,-17.15448c0,0 3.41059,-0.04124 13.91429,-3.14424c8.0696,-2.38394 20.54731,-9.48722 20.54731,-9.48722c0,0 -2.16005,3.00503 -3.40781,4.46015c-1.32651,1.54696 -3.99292,4.56297 -3.99292,4.56297c0,0 7.838,-1.66761 14.67476,-4.72931c8.56837,-3.53575 10.59252,-6.05309 12.95042,-4.5927c2.7829,1.72362 1.03006,23.1827 0.71846,28.74062c-0.42163,5.66922 -2.53327,9.49969 -3.15031,12.52053c-0.61704,3.02084 -0.4096,6.13662 -2.20622,16.0397c-1.12121,6.18021 -4.16183,8.92466 -10.01942,14.66081c-5.85759,5.73616 -9.05378,9.25275 -13.01359,9.32173c-3.81077,0.06639 -8.93565,-5.1002 -13.93542,-10.38244c-5.32393,-5.62474 -8.87489,-8.47713 -9.71551,-15.13975c-0.75707,-6.00039 -0.77653,-9.90853 -1.12266,-15.24835c-0.25298,-3.90273 -2.26119,-6.44504 -2.57636,-10.42801z" fill="#ffffff" stroke="#000000" stroke-width="1.5" stroke-linecap="butt"/><path d="M260.78283,100.08137c0,0 1.52429,0.31807 4.2558,1.11029c2.49492,0.72361 4.44935,1.74403 4.44935,1.74403l0.1951,1.17035c0,0 -7.24963,-3.12997 -15.1158,-2.4706c-6.2896,0.52724 -9.96319,2.8124 -9.96319,2.8124l0.04575,-4.17683c0,0 3.12748,-1.70421 7.86366,-1.85557c4.90428,-0.15672 8.09084,0.59125 8.09084,0.59125z" data-paper-data="{&quot;index&quot;:null}" fill="#000000" stroke="none" stroke-width="1.5" stroke-linecap="butt"/><path d="M248.01869,143.06893c0.5704,0.21186 3.08357,1.39942 6.02385,2.59586c2.9637,1.20597 7.21362,2.29294 7.19412,2.4605c-0.02476,0.21265 -10.43477,0.22694 -13.67937,0.63224c-2.71902,0.33964 -6.68867,0.70564 -6.68867,0.70564c0,0 -7.10401,-1.16169 -13.27235,-2.44521c-4.94371,-1.02869 -10.39929,-1.66108 -10.40995,-1.75461c-0.01439,-0.12613 3.86835,-0.71071 6.82417,-1.39467c1.14585,-0.49661 5.43971,-1.48513 5.43971,-1.48513c0,0 4.95585,-0.27766 7.60826,0.579c2.84203,0.91791 2.83546,2.44556 3.0831,2.46906c0,0 1.18436,-1.74932 2.36886,-2.10461c1.18451,-0.35528 5.08219,-0.41633 5.50828,-0.25808z" fill="#ffffff" stroke="#000000" stroke-width="1.4" stroke-linecap="butt"/><path d="M229.37071,147.62252c5.09114,1.02674 11.91756,2.80736 11.91756,2.80736c0,0 5.78976,-1.55585 8.44678,-1.8344c2.05992,-0.21596 11.216,-0.70654 11.26026,-0.33377c0.04328,0.36447 -9.03119,12.90033 -21.14808,12.44714c-13.76954,-0.43578 -22.86459,-15.13559 -22.82675,-15.30472c0.03784,-0.16913 7.2591,1.19165 12.35024,2.2184z" fill="#ffffff" stroke="#000000" stroke-width="1.9" stroke-linecap="butt"/><path d="M240.34498,144.62883c-1.03376,0 -3.5381,-3.26042 -3.7867,-5.3637c-0.22243,-1.88186 1.31512,-3.82799 3.7867,-3.82799c2.47159,0 4.2021,0.49077 4.02999,4.18853c-0.14607,3.13818 -1.55841,5.00317 -4.02999,5.00317z" fill="#ffffff" stroke="#000000" stroke-width="1.15" stroke-linecap="butt"/><path d="M243.94707,114.53511c0,0 0.1026,3.96976 0.00576,7.12662c-0.19174,6.25113 -1.08147,27.7607 -1.08147,27.7607l-2.98167,0.00864c0,0 -0.80294,-4.17274 -1.12322,-9.49979c-0.43353,-7.21063 -0.4495,-16.29321 -0.76344,-19.63229c-0.29758,-3.16513 -0.89593,-5.71453 -0.89593,-5.71453" fill="#ffffff" stroke="#000000" stroke-width="1.3" stroke-linecap="round"/><path d="M214.41249,125.32495c0,0 -4.93211,-3.51705 -6.16417,-8.97502c-1.29636,-5.74284 -1.46118,-9.7328 0.48013,-9.99193c1.94131,-0.25915 2.70321,2.37692 3.73262,8.35569c1.0294,5.97877 1.95143,10.61127 1.95143,10.61127z" data-paper-data="{&quot;index&quot;:null}" fill="#ffffff" stroke="#000000" stroke-width="1" stroke-linecap="butt"/><path d="M214.20987,121.37739c0,0 -3.56385,-2.92338 -4.31816,-8.45061c-0.42079,-3.08327 2.15675,-2.28016 2.15675,-2.28016" fill="none" stroke="#000000" stroke-width="0.25" stroke-linecap="round"/><path d="M217.2233,114.72149c0.07093,-4.89188 4.83834,-8.93609 10.21137,-8.8582c5.37302,0.0779 9.02724,4.2484 8.95632,9.14029c-0.07093,4.89188 -4.12352,8.79439 -9.49655,8.7165c-5.37302,-0.0779 -9.74207,-4.1067 -9.67114,-8.99859z" fill="#ffffff" stroke="#000000" stroke-width="1.4" stroke-linecap="butt"/><path d="M221.66095,114.83943c0.03999,-2.75843 2.30855,-4.96213 5.06696,-4.92214c2.75843,0.03999 4.96213,2.30855 4.92214,5.06696c-0.03999,2.75843 -2.30854,4.96213 -5.06696,4.92214c-2.75843,-0.03999 -4.96213,-2.30855 -4.92214,-5.06696z" fill="#000000" stroke="#990f0f" stroke-width="1.5" stroke-linecap="butt"/><path d="M244.27959,114.72222c0.20353,-4.88817 4.45264,-8.85847 9.77048,-8.85847c5.31783,0 9.27453,3.96607 9.27453,8.85847c0,4.8924 -3.88585,9.07104 -9.69964,9.14188c-5.52997,0.06739 -9.55792,-4.03692 -9.34537,-9.14188z" fill="#ffffff" stroke="#000000" stroke-width="1.4" stroke-linecap="butt"/><path d="M248.88232,114.80777c0,-2.81845 2.2848,-5.10325 5.10325,-5.10325c2.81845,0 5.10325,2.2848 5.10325,5.10325c0,2.81845 -2.28479,5.10325 -5.10325,5.10325c-2.81845,0 -5.10325,-2.2848 -5.10325,-5.10325z" fill="#000000" stroke="#990f0f" stroke-width="1.5" stroke-linecap="butt"/><path d="M217.15488,114.18931c0,0 0.06357,-9.01512 10.60111,-8.8249c9.47101,0.16586 9.55554,9.40723 9.55554,9.40723z" fill="#ffffff" stroke="#000000" stroke-width="1.15" stroke-linecap="butt"/><path d="M243.90193,114.32021c0,0 -0.24686,-9.4582 11.19813,-9.1032c9.71427,0.33347 9.54677,9.65229 9.54677,9.65229z" fill="#ffffff" stroke="#000000" stroke-width="1.15" stroke-linecap="butt"/><path d="M220.6847,101.64432c0,0 3.36963,-1.819 8.03244,-2.28178c5.16698,-0.51283 7.76823,-0.06628 7.76823,-0.06628l0.29508,4.13747c0,0 -3.83554,-0.68065 -8.01795,-0.52113c-5.59346,0.21333 -6.64488,1.43293 -10.89774,1.89119c-3.64408,0.39266 -6.73723,0.15884 -6.73723,0.15884l-0.02589,-1.23155c0,0 3.59517,0.07398 5.23371,-0.06836c1.35239,-0.11749 3.9757,-0.93808 3.9757,-0.93808z" fill="#000000" stroke="none" stroke-width="1.5" stroke-linecap="butt"/><path d="M268.64564,114.71369c1.0294,-5.97877 1.7913,-8.61483 3.73262,-8.35569c1.94131,0.25914 1.77649,4.24909 0.48013,9.99193c-1.23206,5.45797 -6.16417,8.97502 -6.16417,8.97502c0,0 0.92203,-4.6325 1.95143,-10.61127z" data-paper-data="{&quot;index&quot;:null}" fill="#ffffff" stroke="#000000" stroke-width="1" stroke-linecap="butt"/><path d="M269.05818,110.64663c0,0 2.57754,-0.80312 2.15675,2.28016c-0.75431,5.52723 -4.31816,8.45061 -4.31816,8.45061" data-paper-data="{&quot;index&quot;:null}" fill="none" stroke="#000000" stroke-width="0.25" stroke-linecap="round"/><path d="M202.88491,332.20644v-15.30586h15.19421v15.30586z" fill="#da1616" stroke="none" stroke-width="0" stroke-linecap="butt"/><path d="M217.97738,332.20644v-15.30586h15.19421v15.30586z" fill="#c01313" stroke="none" stroke-width="0" stroke-linecap="butt"/><path d="M233.06985,332.20644v-15.30586h15.19422v15.30586z" fill="#b31212" stroke="none" stroke-width="0" stroke-linecap="butt"/><path d="M248.16236,332.20644v-15.30586h15.19421v15.30586z" fill="#990f0f" stroke="none" stroke-width="0" stroke-linecap="butt"/><path d="M263.14054,332.20644v-15.30586h15.19421v15.30586z" fill="#740c0c" stroke="none" stroke-width="0" stroke-linecap="butt"/><path d="M203.20885,350.02404v-15.30586h15.19421v15.30586z" fill="#8b8b8b" stroke="none" stroke-width="0" stroke-linecap="butt"/><path d="M218.30133,350.02404v-15.30586h15.19421v15.30586z" fill="#666666" stroke="none" stroke-width="0" stroke-linecap="butt"/><path d="M233.39381,350.02404v-15.30586h15.19422v15.30586z" fill="#4b4b4b" stroke="none" stroke-width="0" stroke-linecap="butt"/><path d="M248.48631,350.02404v-15.30586h15.19421v15.30586z" fill="#2b2b2b" stroke="none" stroke-width="0" stroke-linecap="butt"/><path d="M201.39663,121.87704c0,0 0.19444,-4.34742 0.19444,-6.74382c0,-2.16296 0.58333,-6.00618 0.58333,-6.00618l76.19444,0.47222c0,0 1.02778,4.5892 1.02778,6.95062c0,2.30382 0.08333,5.82715 0.08333,5.82715z" fill="#2b2b2b" stroke="none" stroke-width="0" stroke-linecap="butt"/><path d="M263.44543,350.02404v-15.30586h15.19421v15.30586z" fill="#0c0c0c" stroke="none" stroke-width="0" stroke-linecap="butt"/><g stroke-width="0" stroke-linecap="butt"><path d="M275.60074,99.75322l-5.05,31.6h-25.25l-4.45,-3.2l-4.2,3.2h-25l-5.05,-31.6z" data-paper-data="{&quot;index&quot;:null}" fill="#740c0c" stroke="#000000"/><path d="M215.65075,131.31989l4.74202,-31.43333h25.46667l-5.00869,28.23333l-4.2,3.2z" fill="#990f0f" stroke="none"/></g><path d="M216.89563,167.05939l-3.3084,-29.2265l3.26319,-2.10684l20.57798,-2.2l3.49514,0.852l3.62089,-0.75728l19.44243,2.10528l3.26319,1.85684l-2.77769,29.4765l-24.12516,4.66667z" fill="#0c0c0c" stroke="none" stroke-width="0" stroke-linecap="butt"/><path d="M258.78184,158.31295c0,9.05747 -8.10364,16.4 -18.1,16.4c-9.99635,0 -18.1,-7.34253 -18.1,-16.4c0,-9.05747 8.10365,-16.4 18.1,-16.4c9.99635,0 18.1,7.34253 18.1,16.4z" fill="#b31212" stroke="none" stroke-width="0" stroke-linecap="butt"/><path d="M255.83899,155.22964c0,6.76549 -6.82181,12.25 -15.23693,12.25c-8.41512,0 -15.23693,-5.48451 -15.23693,-12.25c0,-6.76549 6.82181,-12.25 15.23693,-12.25c8.41512,0 15.23693,5.48451 15.23693,12.25z" fill="#980f0f" stroke="none" stroke-width="0" stroke-linecap="butt"/><path d="M208.69292,209.5291l32.33333,6.33333l31,-6.33333c0,0 0.41398,7.50116 0.17788,12.2446c-0.38358,7.70654 -2.26018,29.59072 -2.26018,29.59072l-29.9467,6.52136l-29.03037,-6.47784c0,0 -1.73022,-22.65656 -2.14911,-30.37115c-0.25785,-4.74872 -0.12485,-11.50769 -0.12485,-11.50769z" fill="#1b1b1b" stroke="#000000" stroke-width="0" stroke-linecap="round"/><path d="M208.02625,244.86243l32.08333,8.26697l32.75,-8.26697c0,0 -0.2379,17.20216 -0.84484,26.50093c-0.3976,6.09161 -1.76992,16.16782 -2.55292,24.82632c-0.80687,8.92244 -1.0189,10.33942 -1.0189,10.33942h-55.66666c0,0 -0.32946,-2.64569 -1.22352,-12.49543c-0.7472,-8.23174 -2.03952,-17.30444 -2.43051,-22.8743c-0.68472,-9.75435 -1.09597,-26.29694 -1.09597,-26.29694z" fill="#0c0c0c" stroke="#000000" stroke-width="0" stroke-linecap="round"/><path d="M230.58792,190.43258l10,-10l10,10l-10,10z" fill="#c01313" stroke="none" stroke-width="0" stroke-linecap="butt"/><path d="M213.7539,137.99955l3.26319,-2.10684l20.57798,-2.2l3.49514,0.852l3.62089,-0.75728l19.44243,2.10528l3.26319,1.85684l-26.7631,1.87468z" fill="#191919" stroke="none" stroke-width="0" stroke-linecap="butt"/></g></g></svg>