<svg version="1.1" xmlns="http://www.w3.org/2000/svg" xmlns:xlink="http://www.w3.org/1999/xlink" width="98.87219" height="309.47556" viewBox="0,0,98.87219,309.47556"><g transform="translate(-188.92117,-40.54847)"><g data-paper-data="{&quot;isPaintingLayer&quot;:true}" fill-rule="nonzero" stroke-linejoin="miter" stroke-miterlimit="10" stroke-dasharray="" stroke-dashoffset="0" style="mix-blend-mode: normal"><path d="M201.9138,106.22218c0,0 -13.8466,-7.11079 -11.17102,-17.99996c2.36746,-9.63514 16.88811,-10.58853 16.88811,-10.58853z" fill="#1f1f1f" stroke="#000000" stroke-width="0" stroke-linecap="round"/><path d="M201.03042,304.39158c0,0 -0.63536,-94.38387 -0.79335,-118.01201c-0.05451,-8.15261 8.18688,-36.76129 40.20201,-36.9211c31.60235,-0.15775 39.85672,29.48704 39.84884,36.89673c-0.07659,46.24274 0.65429,117.98648 0.65429,117.98648l-10.49667,0.09614l-0.15882,-114.84311c0,0 0.07549,-3.0993 -2.81625,-3.15415c-3.43441,-0.06514 -2.94538,3.11562 -2.94538,3.11562l0.20548,114.86995l-48.21366,0.07222l-0.30539,-115.23309c0,0 0.27949,-2.919 -2.8856,-2.93443c-3.11083,-0.01515 -2.81569,2.90899 -2.81569,2.90899l0.35311,115.0668z" fill="#ffffff" stroke="#000000" stroke-width="2" stroke-linecap="butt"/><path d="M255.6276,200.33378c-0.57113,0 -1.03411,-0.46299 -1.03411,-1.03411c0,-0.57113 0.46299,-1.03413 1.03411,-1.03413c0.57113,0 1.03411,0.463 1.03411,1.03413c0,0.57113 -0.46299,1.03411 -1.03411,1.03411z" fill="#000000" stroke="none" stroke-width="1.5" stroke-linecap="butt"/><path d="M250.36773,204.56937c-4.4635,-0.31439 -6.55245,-1.79392 -6.16985,-2.58011c0.11788,-0.24224 2.84645,1.06355 6.97038,1.3048c6.40897,0.37493 8.51033,-0.63173 8.51033,-0.63173v1.34616c0,0 -2.4135,1.04672 -9.31086,0.56089z" fill="#000000" stroke="#000000" stroke-width="0" stroke-linecap="butt"/><path d="M222.55496,199.29967c0,-0.57113 0.46299,-1.03413 1.03411,-1.03413c0.57113,0 1.03413,0.463 1.03413,1.03413c0,0.57113 -0.463,1.03411 -1.03413,1.03411c-0.57113,0 -1.03411,-0.46299 -1.03411,-1.03411z" fill="#000000" stroke="none" stroke-width="1.5" stroke-linecap="butt"/><path d="M228.84898,204.56937c-6.89736,0.48585 -9.31086,-0.56089 -9.31086,-0.56089v-1.34616c0,0 2.10136,1.00666 8.51033,0.63173c4.12393,-0.24126 6.85251,-1.54704 6.97039,-1.3048c0.3826,0.78618 -1.70634,2.26571 -6.16985,2.58011z" fill="#000000" stroke="#000000" stroke-width="0" stroke-linecap="butt"/><path d="M240.12944,261.12113c-0.81895,0 -1.48284,-0.66389 -1.48284,-1.48284c0,-0.81895 0.66389,-1.48284 1.48284,-1.48284c0.81895,0 1.48284,0.66389 1.48284,1.48284c0,0.81895 -0.66389,1.48284 -1.48284,1.48284z" data-paper-data="{&quot;index&quot;:null}" fill="#000000" stroke="none" stroke-width="1.5" stroke-linecap="butt"/><path d="M215.06615,304.40603v-119.20147l1,-28.32657c0,0 2.67319,-2.35297 4.6557,-3.74807c1.98251,-1.3951 5.17197,-2.80371 5.17197,-2.80371c0,0 -0.6016,26.60902 14.55952,26.53867c15.43477,-0.07162 13.83154,-26.53867 13.83154,-26.53867c0,0 3.91276,1.51959 6.16585,2.94655c2.25309,1.42695 4.75379,3.60523 4.75379,3.60523l1,28.83138v118.69667z" fill="#b31212" stroke="#000000" stroke-width="0" stroke-linecap="butt"/><path d="M195.92694,103.8801c0,0 6.16329,-5.92187 6.29161,-6.78761c0.33654,-2.27063 -0.16776,-40.17317 35.96775,-41.57382c44.63633,-0.91362 41.63786,39.57384 41.53088,42.1903c-0.12621,3.08674 -1.67116,16.20909 -2.86095,27.73798c-0.14335,1.38903 2.67491,2.75491 2.44738,4.07734c-1.5623,9.48098 -7.29782,17.22543 -7.29782,17.22543l-1.15522,-2.34735c0,0 -1.02266,2.19794 -2.16005,3.33274c-1.1374,1.13479 -3.43873,2.91273 -3.43873,2.91273l-0.09205,-3.70421c0,0 -7.0601,11.01795 -24.35066,10.87154c-16.30625,-0.25547 -26.07151,-10.6752 -26.07151,-10.6752l-0.1162,2.65484c0,0 -3.89477,-3.29276 -6.18145,-9.70754c-2.72545,-7.64567 -3.23946,-12.24324 -3.23946,-12.24324c0,0 -2.33908,1.89916 -5.71704,2.7744c-4.23278,1.09673 -6.94665,0.34526 -6.94665,0.34526c0,0 3.60795,-2.71717 5.58396,-4.76989c1.76007,-1.8284 2.64658,-3.37722 2.64658,-3.37722c0,0 -2.10758,1.0847 -4.23277,1.61795c-2.21739,0.5564 -4.03008,0.53093 -4.03008,0.53093c0,0 4.97492,-5.03728 7.03074,-10.87429c1.94102,-5.51108 2.09972,-10.95731 2.09972,-10.95731c0,0 -1.36165,0.66163 -3.33013,0.79513c-1.24776,0.08463 -2.37785,-0.0489 -2.37785,-0.0489z" fill="#000000" stroke="none" stroke-width="1.5" stroke-linecap="butt"/><path d="M212.71282,115.20173c-0.57709,-7.29323 0.335,-17.15448 0.335,-17.15448c0,0 3.41059,-0.04124 13.91429,-3.14424c8.0696,-2.38394 20.54731,-9.48722 20.54731,-9.48722c0,0 -2.16005,3.00503 -3.40781,4.46015c-1.32651,1.54696 -3.99292,4.56297 -3.99292,4.56297c0,0 7.838,-1.66761 14.67476,-4.72931c8.56837,-3.53575 10.59252,-6.05309 12.95042,-4.5927c2.7829,1.72362 1.03006,23.1827 0.71846,28.74062c-0.42163,5.66922 -2.53327,9.49969 -3.15031,12.52053c-0.61704,3.02084 -0.4096,6.13662 -2.20622,16.0397c-1.12121,6.18021 -4.16183,8.92466 -10.01942,14.66081c-5.85759,5.73616 -9.05378,9.25275 -13.01359,9.32173c-3.81077,0.06639 -8.93565,-5.1002 -13.93542,-10.38244c-5.32393,-5.62474 -8.87489,-8.47713 -9.71551,-15.13975c-0.75707,-6.00039 -0.77653,-9.90853 -1.12266,-15.24835c-0.25298,-3.90273 -2.26119,-6.44504 -2.57636,-10.42801z" fill="#ffffff" stroke="#000000" stroke-width="1.5" stroke-linecap="butt"/><path d="M260.84992,103.28003c0,0 1.50487,0.4 4.18956,1.33871c2.45216,0.85741 4.34857,1.98199 4.34857,1.98199l0.13155,1.17918c0,0 -7.06984,-3.51727 -14.96015,-3.28407c-6.3089,0.18649 -10.10065,2.26973 -10.10065,2.26973l0.27146,-4.16825c0,0 3.21503,-1.53266 7.95247,-1.42779c4.90558,0.10861 8.04705,1.02773 8.04705,1.02773z" data-paper-data="{&quot;index&quot;:null}" fill="#000000" stroke="none" stroke-width="1.5" stroke-linecap="butt"/><path d="M248.01869,143.06892c0.5704,0.21186 3.08357,1.39942 6.02385,2.59586c2.9637,1.20597 7.21362,2.29294 7.19412,2.4605c-0.02476,0.21265 -10.43477,0.22694 -13.67937,0.63224c-2.71902,0.33964 -6.68867,0.70564 -6.68867,0.70564c0,0 -7.10401,-1.16169 -13.27235,-2.44521c-4.94371,-1.02869 -10.39929,-1.66108 -10.40995,-1.75461c-0.01439,-0.12613 3.86835,-0.71071 6.82417,-1.39467c1.14585,-0.49661 5.43971,-1.48513 5.43971,-1.48513c0,0 4.95585,-0.27766 7.60826,0.579c2.84203,0.91791 2.83546,2.44556 3.0831,2.46906c0,0 1.18436,-1.74932 2.36886,-2.10461c1.18451,-0.35528 5.08219,-0.41633 5.50828,-0.25808z" fill="#ffffff" stroke="#000000" stroke-width="1.4" stroke-linecap="butt"/><path d="M229.37071,147.6225c5.09114,1.02674 11.91756,2.80736 11.91756,2.80736c0,0 5.78976,-1.55585 8.44678,-1.8344c2.05992,-0.21596 11.216,-0.70654 11.26026,-0.33377c0.04328,0.36447 -9.03119,12.90033 -21.14808,12.44714c-13.76954,-0.43578 -22.86459,-15.13559 -22.82675,-15.30472c0.03784,-0.16913 7.2591,1.19165 12.35024,2.2184z" fill="#ffffff" stroke="#000000" stroke-width="1.9" stroke-linecap="butt"/><path d="M240.34498,144.62882c-1.03376,0 -3.5381,-3.26042 -3.7867,-5.3637c-0.22243,-1.88186 1.31512,-3.82799 3.7867,-3.82799c2.47159,0 4.2021,0.49077 4.02999,4.18853c-0.14607,3.13818 -1.55841,5.00317 -4.02999,5.00317z" fill="#ffffff" stroke="#000000" stroke-width="1.15" stroke-linecap="butt"/><path d="M243.94707,114.5351c0,0 0.1026,3.96976 0.00576,7.12662c-0.19174,6.25113 -1.08147,27.7607 -1.08147,27.7607l-2.98167,0.00864c0,0 -0.80294,-4.17274 -1.12322,-9.49979c-0.43353,-7.21063 -0.4495,-16.29321 -0.76344,-19.63229c-0.29758,-3.16513 -0.89593,-5.71453 -0.89593,-5.71453" fill="#ffffff" stroke="#000000" stroke-width="1.3" stroke-linecap="round"/><path d="M214.41249,125.32494c0,0 -4.93211,-3.51705 -6.16417,-8.97502c-1.29636,-5.74284 -1.46118,-9.7328 0.48013,-9.99193c1.94131,-0.25915 2.70321,2.37692 3.73262,8.35569c1.0294,5.97877 1.95143,10.61127 1.95143,10.61127z" data-paper-data="{&quot;index&quot;:null}" fill="#ffffff" stroke="#000000" stroke-width="1" stroke-linecap="butt"/><path d="M214.20987,121.37738c0,0 -3.56385,-2.92338 -4.31816,-8.45061c-0.42079,-3.08327 2.15675,-2.28016 2.15675,-2.28016" fill="none" stroke="#000000" stroke-width="0.25" stroke-linecap="round"/><path d="M217.22329,114.72148c0.07093,-4.89188 4.83834,-8.93609 10.21137,-8.8582c5.37302,0.0779 9.02724,4.2484 8.95632,9.14029c-0.07093,4.89188 -4.12352,8.79439 -9.49655,8.7165c-5.37302,-0.0779 -9.74207,-4.1067 -9.67114,-8.99859z" fill="#ffffff" stroke="#000000" stroke-width="1.4" stroke-linecap="butt"/><path d="M221.66094,114.83942c0.03999,-2.75843 2.30855,-4.96213 5.06696,-4.92214c2.75843,0.03999 4.96213,2.30855 4.92214,5.06696c-0.03999,2.75843 -2.30854,4.96213 -5.06696,4.92214c-2.75843,-0.03999 -4.96213,-2.30855 -4.92214,-5.06696z" fill="#000000" stroke="none" stroke-width="1.5" stroke-linecap="butt"/><path d="M244.27958,114.72221c0.20353,-4.88817 4.45264,-8.85847 9.77048,-8.85847c5.31783,0 9.27453,3.96607 9.27453,8.85847c0,4.8924 -3.88585,9.07104 -9.69964,9.14188c-5.52997,0.06739 -9.55792,-4.03692 -9.34537,-9.14188z" fill="#ffffff" stroke="#000000" stroke-width="1.4" stroke-linecap="butt"/><path d="M248.88232,112.00775c0,-2.81845 2.2848,-5.10325 5.10325,-5.10325c2.81845,0 5.10325,2.2848 5.10325,5.10325c0,2.81845 -2.28479,5.10325 -5.10325,5.10325c-2.81845,0 -5.10325,-2.2848 -5.10325,-5.10325z" fill="#000000" stroke="none" stroke-width="1.5" stroke-linecap="butt"/><path d="M217.15487,114.1893c0,0 0.06357,-9.01512 10.60111,-8.8249c9.47101,0.16586 9.55554,9.40723 9.55554,9.40723c0,0 -4.24408,-4.11062 -9.94121,-4.05713c-5.89573,0.05535 -10.21544,3.4748 -10.21544,3.4748z" fill="#ffffff" stroke="#000000" stroke-width="1.15" stroke-linecap="butt"/><path d="M262.59645,138.85447c0,0 -5.08476,2.83245 -6.83334,3c-0.96473,0.09244 -4.62517,-3.12605 -7.68812,-5.91961c-1.99188,-1.8167 -3.81188,-3.5804 -3.81188,-3.5804l0.06603,-9.18358l-1.09149,0.22987l-0.36282,8.44697l-3.69505,-0.65992c0,0 -0.09161,-4.72243 -0.53638,-9.71112c-0.32492,-3.64441 -0.87156,-7.43091 -1.21362,-9.6222c-0.5748,-3.68237 -9.49999,-16.46435 -9.49999,-16.46435l7.16666,-2.66666l15.33334,35.5l13.83333,-2.83333c0,0 -0.61611,7.67015 -0.92085,10.13203c-0.17476,1.41186 -0.74582,3.33231 -0.74582,3.33231z" fill="#e4e4e4" stroke="#000000" stroke-width="0" stroke-linecap="round"/><path d="M243.90192,114.3202c0,0 -0.24686,-9.4582 11.19813,-9.1032c9.71427,0.33347 9.54677,9.65229 9.54677,9.65229z" fill="#ffffff" stroke="#000000" stroke-width="1.15" stroke-linecap="butt"/><path d="M220.6847,104.17764c0,0 3.36963,-1.819 8.03244,-2.28178c5.16698,-0.51283 7.76823,-0.06628 7.76823,-0.06628l0.29508,4.13747c0,0 -3.83554,-0.68065 -8.01795,-0.52113c-5.59346,0.21333 -6.64488,1.43293 -10.89774,1.89119c-3.64408,0.39266 -6.73723,0.15884 -6.73723,0.15884l-0.02589,-1.23155c0,0 3.59517,0.07398 5.23371,-0.06836c1.35239,-0.11749 3.9757,-0.93808 3.9757,-0.93808z" fill="#000000" stroke="none" stroke-width="1.5" stroke-linecap="butt"/><path d="M268.64564,114.71368c1.0294,-5.97877 1.7913,-8.61483 3.73262,-8.35569c1.94131,0.25914 1.77649,4.24909 0.48013,9.99193c-1.23206,5.45797 -6.16417,8.97502 -6.16417,8.97502c0,0 0.92203,-4.6325 1.95143,-10.61127z" data-paper-data="{&quot;index&quot;:null}" fill="#ffffff" stroke="#000000" stroke-width="1" stroke-linecap="butt"/><path d="M269.05818,110.64662c0,0 2.57754,-0.80312 2.15675,2.28016c-0.75431,5.52723 -4.31816,8.45061 -4.31816,8.45061" data-paper-data="{&quot;index&quot;:null}" fill="none" stroke="#000000" stroke-width="0.25" stroke-linecap="round"/><path d="M202.88491,332.20644v-15.30586h15.19421v15.30586z" fill="#da1616" stroke="none" stroke-width="0" stroke-linecap="butt"/><path d="M217.97737,332.20644v-15.30586h15.19421v15.30586z" fill="#c01313" stroke="none" stroke-width="0" stroke-linecap="butt"/><path d="M233.06985,332.20644v-15.30586h15.19422v15.30586z" fill="#b31212" stroke="none" stroke-width="0" stroke-linecap="butt"/><path d="M248.16235,332.20644v-15.30586h15.19421v15.30586z" fill="#990f0f" stroke="none" stroke-width="0" stroke-linecap="butt"/><path d="M263.14054,332.20644v-15.30586h15.19421v15.30586z" fill="#740c0c" stroke="none" stroke-width="0" stroke-linecap="butt"/><path d="M203.20884,350.02403v-15.30586h15.19421v15.30586z" fill="#8b8b8b" stroke="none" stroke-width="0" stroke-linecap="butt"/><path d="M218.30132,350.02403v-15.30586h15.19421v15.30586z" fill="#666666" stroke="none" stroke-width="0" stroke-linecap="butt"/><path d="M233.39381,350.02403v-15.30586h15.19422v15.30586z" fill="#4b4b4b" stroke="none" stroke-width="0" stroke-linecap="butt"/><path d="M248.48631,350.02403v-15.30586h15.19421v15.30586z" fill="#2b2b2b" stroke="none" stroke-width="0" stroke-linecap="butt"/><path d="M263.44543,350.02403v-15.30586h15.19421v15.30586z" fill="#0c0c0c" stroke="none" stroke-width="0" stroke-linecap="butt"/><path d="M226.97031,119.61856c5.69713,0.05349 10.14121,-5.25713 10.14121,-5.25713c0,0 -0.68452,9.43769 -10.35554,9.40723c-9.27103,-0.0292 -9.80111,-8.8249 -9.80111,-8.8249c0,0 4.11971,4.61944 10.01544,4.6748z" data-paper-data="{&quot;index&quot;:null}" fill="#ffffff" stroke="#000000" stroke-width="1.15" stroke-linecap="butt"/><path d="M243.11003,52.94917c0,0 5.75642,0.72074 9.38928,1.49114c2.25835,0.47892 6.11502,2.1478 9.67699,3.01439c4.36293,1.06146 8.28373,1.29447 8.28373,1.29447c0,0 3.00297,3.25248 4.63094,4.88021c1.62995,1.6297 5.14282,4.89208 5.14282,4.89208c0,0 0.38441,2.32032 1.88446,6.2926c0.59803,1.58365 0.96445,3.23121 1.51885,4.74187c0.55923,1.52381 1.30536,2.90835 1.65587,3.94756c1.15312,3.41881 2.5004,9.14569 2.5004,9.14569c0,0 -0.51904,1.95662 -0.89762,4.43271c-0.47777,3.12483 -0.88,7.07698 -1.3861,8.96789c-0.86741,3.24084 -2.54526,5.75965 -2.54526,5.75965c0,0 0.03852,3.09834 -0.2393,5.69185c-0.23046,2.15133 -1.25657,4.47134 -1.49552,5.75965c-0.34882,1.88069 -1.61953,5.2337 -1.61953,5.2337c0,0 -1.00116,-0.42908 -1.64043,-0.38538c-0.99998,0.06836 -1.90369,0.63586 -2.76042,0.76567c-1.34281,0.20345 -3.84915,0.32425 -3.84915,0.32425l-2.77282,0.86888l-1.3479,-1.40732l-1.03919,-1.20257l0.44083,1.51153c0,0 -0.25633,1.2418 -0.27386,1.40726c-0.29433,2.77865 -2.57926,2.45844 -5.09952,3.9243c-2.67674,1.55687 -5.74087,3.81458 -5.74087,3.81458c0,0 -0.76177,-2.8713 -3.33356,-4.06928c-1.75471,-0.81737 -3.90947,-3.5871 -5.07185,-4.14408c-2.37415,-1.13762 -6.26126,-3.11998 -6.26126,-3.11998l-1.6295,-17.38805l-6.8705,-18.94528c0,0 -0.26481,-3.30354 -1.75803,-5.64193c-1.3189,-2.0654 -4.066,-2.60302 -5.02712,-3.89408c-1.49583,-2.00933 -4.38152,-5.46399 -4.38152,-5.46399c0,0 1.25291,-1.61146 1.87002,-4.34238c0.57174,-2.53011 0.49151,-6.12735 0.9502,-7.70763c0.6378,-2.19732 2.34644,-5.74999 2.34644,-5.74999c0,0 6.63589,-2.11201 9.60067,-2.94392c2.55844,-0.71789 7.14933,-1.75608 7.14933,-1.75608z" fill="#4b4b4b" stroke="#f60000" stroke-width="0" stroke-linecap="round"/><path d="M248.87707,93.16918l3.27273,13.81818l11.63637,5.09091l10.09091,-8.90909l-2.63637,-12.45454z" fill="#444444" stroke="none" stroke-width="0.5" stroke-linecap="round"/><path d="M258.50688,84.17446l-9.81091,8.52595l3.2926,12.22838l11.03329,3.87519l9.53358,-7.39661l-1.56838,-12.79587z" fill="#b31212" stroke="#000000" stroke-width="0" stroke-linecap="round"/><path d="M260.02553,86.67446l-7.81922,6.79511l2.62418,9.74591l8.79343,3.08849l7.59818,-5.89503l-1.24998,-10.1982z" fill="#c01313" stroke="#000000" stroke-width="0" stroke-linecap="round"/><path d="M248.66374,92.68287l3.35039,0.82721l1.31628,4.13946l-0.6886,-4.25768l7.12391,-6.3227l2.83134,0.58038l-2.93227,-1.02836l-1.18023,-2.40498z" fill="#da1616" stroke="#000000" stroke-width="0" stroke-linecap="round"/><path d="M271.2303,100.39933l-7.96429,5.83928l-0.25,2.5l9.625,-7.41071z" fill="#990f0f" stroke="#000000" stroke-width="0" stroke-linecap="round"/><path d="M279.45431,122.45503l0.18181,5.63636l0.90909,-2.72727z" fill="#444444" stroke="none" stroke-width="0.5" stroke-linecap="round"/><path d="M282.36169,119.53406l-2.9798,2.63925l1.10679,3.91631l3.32034,-1.95815z" fill="#c01313" stroke="none" stroke-width="0.5" stroke-linecap="round"/><path d="M245.45431,116.43988l7.68182,5.63636l4.73485,-8.12878l-1.05303,-0.6894l-10.75803,2.3577z" fill="#444444" stroke="none" stroke-width="0.5" stroke-linecap="round"/><path d="M264.2898,59.43807l4.87879,-0.61364l-3.63637,-0.46969z" fill="#444444" stroke="none" stroke-width="0.5" stroke-linecap="round"/><path d="M236.41074,74.51382l3.93939,2.93939l2.15152,-4.57576l-0.54546,-0.36364l-5.19285,1.44251z" fill="#444444" stroke="none" stroke-width="0.5" stroke-linecap="round"/><path d="M238.66397,70.14869l-2.59184,4.17574l3.88776,1.87188l2.23186,-3.81576z" fill="#b31212" stroke="none" stroke-width="0.5" stroke-linecap="round"/><path d="M261.11517,57.9191l3.0942,1.46567l3.17564,-0.40713l-2.93135,-1.79139z" fill="#c01313" stroke="none" stroke-width="0.5" stroke-linecap="round"/><path d="M275.29364,83.4398l4.23636,4.16363l2.12727,-5.52728l-1,-0.54546z" fill="#444444" stroke="none" stroke-width="0.5" stroke-linecap="round"/><path d="M276.90377,78.16872l-1.76965,5.09969l3.9458,3.01142l2.57181,-4.45122z" fill="#c01313" stroke="none" stroke-width="0.5" stroke-linecap="round"/><path d="M250.33913,109.10183l-5.12017,7.21863l7.46198,4.59108l4.39961,-7.79568z" fill="#b31212" stroke="none" stroke-width="0.5" stroke-linecap="round"/><path d="M261.37827,57.97996h3.1875l2.5,0.8125l-2.5,-1.6875z" fill="#da1616" stroke="#000000" stroke-width="0" stroke-linecap="round"/><path d="M276.92034,78.25459l3.0625,2.375l-1.9375,-0.6875l-2.8125,3.4375z" fill="#da1616" stroke="#000000" stroke-width="0" stroke-linecap="round"/><path d="M250.67581,110.64729l-3.44327,4.94985l5.1351,3.49503l3.34928,-5.57095z" fill="#c01313" stroke="none" stroke-width="0.5" stroke-linecap="round"/><path d="M245.19749,116.37591l5.16996,-7.24609l0.24711,1.29544l0.96179,0.74658l-0.91846,-0.36274l-3.21858,4.56354l0.51714,0.70916l-0.87251,-0.55469z" fill="#da1616" stroke="#000000" stroke-width="0" stroke-linecap="round"/><path d="M279.31514,122.29205l3.01667,-2.66666l0.65,2.08333l-0.91667,-0.66667z" fill="#da1616" stroke="#000000" stroke-width="0" stroke-linecap="round"/><path d="M236.06871,74.30957l2.6,-4.13333l2.2,1.33333h-1.73333z" fill="#c01313" stroke="#000000" stroke-width="0" stroke-linecap="round"/><path d="M225.27727,63.55135c0.60816,-2.92341 1.89794,-5.2709 1.89794,-5.2709c0,0 4.95391,-1.64142 8.19078,-2.45124c3.23687,-0.80982 7.76429,-2.10303 7.76429,-2.10303c0,0 6.20011,0.9774 8.93369,1.52489c2.44555,0.4898 6.9501,2.10626 6.9501,2.10626c0,0 1.21902,0.96095 2.73571,1.68599c1.77153,0.84687 3.94917,1.47597 5.0647,1.46212c1.66118,0 3.35735,-1.077 3.35735,-1.077c0,0 3.02444,3.61051 4.56002,5.26887c1.39124,1.50247 4.26327,3.72414 4.26327,3.72414c0,0 -1.5178,1.30826 -1.91955,1.48024c-1.50221,0.00341 -4.6203,-1.11325 -6.06975,-0.43431c-2.48241,1.16278 -0.60803,6.96094 -0.75051,8.97399c-0.77651,0.57536 -1.41355,0.54591 -2.17797,0.9894c-0.78986,0.45825 -0.65476,1.61934 -1.35937,2.17202c-1.32963,1.04293 -2.77059,-0.27125 -3.85423,-0.29978c-0.13599,-0.00358 -1.32878,0.73307 -1.76918,0.79598c-1.43164,0.20449 -3.10381,-0.13774 -4.52137,-0.31807c-2.92183,-0.37846 -3.25345,1.13367 -5.18654,2.54636c-1.16911,0.85438 -2.89763,0.60052 -4.10931,1.30349c-0.77788,0.4513 -1.00675,1.97797 -1.30931,2.72823c-0.52984,0.21259 -1.60611,0.31236 -2.05005,0.6438c-0.69656,0.52004 -0.60276,3.21314 -0.60343,3.98421c-0.00465,5.38857 -3.83506,13.23029 -3.83506,13.23029c0,0 -1.57199,-3.55564 -3.08274,-7.73798c-0.94257,-2.6094 -2.20263,-5.3199 -2.88146,-7.70587c-0.66866,-2.35018 -1.10934,-4.42906 -2.65436,-6.84303c-1.54503,-2.41397 -2.36974,-1.4763 -3.70932,-2.84965c-0.69764,-0.71523 -1.75366,-2.13507 -2.74248,-3.33162c-0.90986,-1.10101 -2.03472,-2.26295 -2.03472,-2.26295c0,0 1.44082,-2.73653 1.90265,-4.47603c0.64551,-2.43134 0.39205,-4.53539 1.00021,-7.4588zM241.21448,79.65543l2.125,-6.875l-4.625,-3.375l-3.5,5.25z" fill="#515151" stroke="none" stroke-width="0.5" stroke-linecap="butt"/><path fill="#565656" stroke="none" stroke-width="0.5" stroke-linecap="butt"/><path d="M255.67572,57.44462c-0.02607,-0.02947 -0.05594,-0.05803 -0.0898,-0.08564z" fill="#565656" stroke="none" stroke-width="0.5" stroke-linecap="butt"/><path d="M275.91418,61.98564c0,0 -3.53855,-10.59809 -15.48857,-16.89231c-6.85919,-3.61283 -17.00862,-5.78681 -29.52919,-3.77788c-9.44908,1.51611 -14.82235,6.06285 -19.928,10.71073c-12.13831,11.04998 -11.14592,26.19828 -11.14592,26.19828c0,0 21.07083,-8.06083 34.26855,-10.69221c13.57939,-2.70747 41.82314,-5.5466 41.82314,-5.5466z" fill="#3f3f3f" stroke="#000000" stroke-width="0" stroke-linecap="round"/><path d="M277.48321,65.41774c0,0 -59.13409,4.96428 -75.88315,16.27954c-15.96673,10.78673 0.12057,21.8499 0.12057,21.8499c0,0 -0.18387,1.95933 -0.3243,2.74424c-0.10552,0.58979 -0.44388,1.54946 -0.44388,1.54946c0,0 -23.24279,-15.17407 -5.11737,-28.8917c1.31605,-0.996 4.14358,-2.82376 4.14358,-2.82376c0,0 -0.04906,-10.44837 7.24301,-20.17887c6.98764,-9.32428 19.63506,-13.66786 19.63506,-13.66786c0,0 -8.85786,7.95591 -12.01919,15.33447c-3.07102,7.16777 -1.49272,14.37737 -1.49272,14.37737c0,0 17.1848,-4.58305 27.16856,-6.22837c10.83187,-1.78509 35.48601,-4.09711 35.48601,-4.09711c0,0 0.82861,1.12609 1.09165,1.72416c0.28531,0.64871 0.39217,2.02853 0.39217,2.02853z" fill="#2f2f2f" stroke="#000000" stroke-width="0" stroke-linecap="round"/><path d="M195.48028,69.77782c-0.24935,-0.32199 -2.08386,-2.27844 0.67494,-9.44309c2.98424,-7.75012 5.84762,-8.00255 6.6727,-7.87638c0.83777,0.12811 7.68856,2.13625 7.68856,2.13625c0,0 2.40033,2.03933 0.14545,9.35157c-1.85323,6.00972 -5.91502,7.88665 -5.91502,7.88665c0,0 -8.86631,-1.53807 -9.26663,-2.055z" fill="#303030" stroke="none" stroke-width="0" stroke-linecap="butt"/><path d="M195.59139,69.77782c-0.18409,-0.23771 -1.23211,-1.36624 -0.65808,-4.82354c0.20352,-1.22576 0.61093,-2.74424 1.33302,-4.61954c2.98424,-7.75012 5.84762,-8.00255 6.6727,-7.87638c3.5752,0.54671 8.5041,3.67071 8.5041,3.67071c0,0 0.36482,1.7795 0.26283,3.21162c-0.06975,0.97937 -0.25663,2.1409 -0.61904,3.51133l-8.24437,-2.65471c0,0 -1.3933,4.20875 -3.00635,6.48443c-2.12783,3.00194 -4.16755,3.19583 -4.2448,3.09607z" fill="#3f3f3f" stroke="none" stroke-width="0" stroke-linecap="butt"/><path d="M201.16372,61.83904c-1.51424,3.98129 -3.839,6.78873 -4.75152,6.29107c-0.90768,-0.49502 -0.77844,-4.05433 0.7358,-8.03562c1.51424,-3.98129 3.75908,-6.89955 4.74775,-6.38191c1.02714,0.53778 0.78222,4.14516 -0.73202,8.12646z" fill="#1f1f1f" stroke="none" stroke-width="0" stroke-linecap="butt"/><path d="M201.08568,61.85819c-1.5403,3.9682 -3.69681,6.80462 -4.44248,6.34212c-0.74173,-0.46005 -0.40737,-3.97042 1.13294,-7.93861c1.5403,-3.9682 3.63574,-6.91137 4.44499,-6.43149c0.84074,0.49856 0.40485,4.05978 -1.13545,8.02797z" fill="#da1616" stroke="none" stroke-width="0" stroke-linecap="butt"/></g></g></svg>