<svg version="1.1" xmlns="http://www.w3.org/2000/svg" xmlns:xlink="http://www.w3.org/1999/xlink" width="34.17311" height="34.17311" viewBox="0,0,34.17311,34.17311"><g transform="translate(-222.91348,-162.9135)"><g data-paper-data="{&quot;isPaintingLayer&quot;:true}" stroke-miterlimit="10" stroke-dasharray="" stroke-dashoffset="0" style="mix-blend-mode: normal"><path d="M229.98315,162.9135h20.03378c3.9166,0 7.06966,3.15307 7.06966,7.06966v20.03379c0,3.91659 -3.15306,7.06966 -7.06966,7.06966h-20.03378c-3.91659,0 -7.06967,-3.15307 -7.06967,-7.06966v-20.03379c0,-3.91659 3.15308,-7.06966 7.06967,-7.06966z" fill-opacity="0.09677" fill="#191919" fill-rule="evenodd" stroke="none" stroke-width="4.43922" stroke-linecap="round" stroke-linejoin="round"/><g fill-rule="nonzero" stroke-width="0" stroke-linecap="butt" stroke-linejoin="miter"><path d="M227.58344,181.0587l3.25793,-4.00819l-0.13704,-0.09729l8.6508,-10.38125c0,0 0.78092,-0.99472 1.69395,-1.05269c0.91303,-0.05797 1.94961,0.82135 1.94961,0.82135l9.66975,7.07177c0,0 1.15212,0.72134 1.37358,1.609c0.22146,0.88766 -0.48981,1.93332 -0.48981,1.93332l-7.2577,11.34722l-0.13781,-0.10314l-2.82205,4.37924z" data-paper-data="{&quot;index&quot;:null}" fill="#ffffff" stroke="#000000"/><path d="M227.59022,181.10238l3.25793,-4.00819l15.31534,11.14828l-2.82205,4.37924z" data-paper-data="{&quot;index&quot;:null}" fill="#bfbfbf" stroke="#000000"/><path d="M225.91525,181.93473l1.10724,-1.51401l17.15879,12.54873l-1.10724,1.51401z" fill="#ffffff" stroke="none"/></g></g></g></svg>