<svg version="1.1" xmlns="http://www.w3.org/2000/svg" xmlns:xlink="http://www.w3.org/1999/xlink" width="110.57501" height="237.94774" viewBox="0,0,110.57501,237.94774"><defs><linearGradient x1="245.17142" y1="71.01599" x2="242.16234" y2="173.28664" gradientUnits="userSpaceOnUse" id="color-1"><stop offset="0" stop-color="#666666"/><stop offset="1" stop-color="#484848"/></linearGradient><linearGradient x1="240.72926" y1="160.41735" x2="240.72926" y2="166.52395" gradientUnits="userSpaceOnUse" id="color-2"><stop offset="0" stop-color="#484848"/><stop offset="1" stop-color="#656565"/></linearGradient><linearGradient x1="238.46421" y1="164.09982" x2="238.46421" y2="306.98843" gradientUnits="userSpaceOnUse" id="color-3"><stop offset="0" stop-color="#666666"/><stop offset="1" stop-color="#484848"/></linearGradient></defs><g transform="translate(-183.93597,-69.04071)"><g data-paper-data="{&quot;isPaintingLayer&quot;:true}" fill-rule="nonzero" stroke="none" stroke-linecap="butt" stroke-linejoin="miter" stroke-miterlimit="10" stroke-dasharray="" stroke-dashoffset="0" style="mix-blend-mode: normal"><path d="M200.50513,118.10112c0,0 6.33479,-5.73805 6.48851,-6.59964c0.40317,-2.25975 1.0138,-40.16073 37.17487,-40.49803c44.64389,0.39953 37.95841,36.48085 40.2721,43.39347c3.17243,9.47824 5.64224,17.5737 5.64224,17.5737c0,0 -2.70556,-2.134 -3.98577,-3.2526c-1.19403,-1.0433 -3.70727,-3.25629 -3.70727,-3.25629c0,0 2.78544,10.43453 0.70172,20.72458c-1.84046,9.43093 -7.80126,17.00335 -7.80126,17.00335l-1.08568,-2.38031c0,0 -1.08686,2.16691 -2.25713,3.26777c-1.17028,1.10085 -3.52291,2.81034 -3.52291,2.81034l0.01693,-3.70531c0,0 -7.38108,10.80555 -24.65986,10.15069c-16.29168,-0.73492 -25.74628,-11.43734 -25.74628,-11.43734l-0.19423,2.65027c0,0 -3.79625,-3.40588 -5.89328,-9.88514c-2.49941,-7.72252 -2.87799,-12.33322 -2.87799,-12.33322c0,0 -2.39392,1.82955 -5.79616,2.60506c-4.2632,0.97177 -6.9538,0.14081 -6.9538,0.14081c0,0 3.6863,-2.60989 5.72183,-4.6036c1.81308,-1.77585 2.74476,-3.29792 2.74476,-3.29792c0,0 -2.13857,1.02225 -4.27852,1.49276c-2.23279,0.49095 -4.04395,0.41218 -4.04395,0.41218c0,0 5.12091,-4.88879 7.34751,-10.66281c2.10226,-5.45161 2.42107,-10.89082 2.42107,-10.89082c0,0 -1.38052,0.6213 -3.35207,0.69685c-1.24971,0.0479 -2.37538,-0.11881 -2.37538,-0.11881z" fill="url(#color-1)" stroke-width="1.5"/><path d="M208.26865,166.52395c0,0 2.1889,-1.14804 1.66602,-2.04455c-0.52287,-0.89651 -5.22758,-4.06205 -5.22758,-4.06205h72.04433c0,0 -6.44152,3.76989 -6.67562,4.12254c-0.76342,1.14993 1.79677,1.98406 1.79677,1.98406z" fill="url(#color-2)" stroke-width="0"/><path d="M290.57508,186.66221c-0.04639,2.34739 -2.38427,6.82027 -2.38427,6.82027c-0.6096,0.77436 -1.67145,-0.13007 -2.13699,-0.30298c-0.62133,-0.23078 -1.95309,-3.0869 -2.15884,-3.7624c-1.09968,-3.61012 -0.10116,-8.51341 0.37732,-12.20209c0.28084,-2.13786 -0.26178,-9.04264 1.99887,-9.82655c-0.05069,-0.08064 -0.08481,-0.1892 -0.08481,-0.33529c0,-0.56838 0.51633,-0.56838 0.51633,-0.56838c2.94601,0.17853 2.71633,4.55438 3.7953,6.52173c0.89083,1.6243 2.1424,2.17012 2.1424,4.27746c0,3.13127 -0.92894,6.21329 -2.10723,9.15074c0.04195,0.12088 0.04195,0.2275 0.04195,0.2275z" fill="#666666" stroke-width="0.5"/><path d="M273.15502,233.56917v-41.69595h16.30238v41.69595z" fill="#870d0d" stroke-width="0"/><path d="M269.49022,305.52923v-72.20832h24.26918v72.20832z" fill="#7b0c0c" stroke-width="0"/><path d="M275.47266,232.5686c0.07409,-0.01976 0.12908,-0.01976 0.12908,-0.01976c4.43606,0 8.73819,-0.28419 13.16621,-0.28419c1.33033,0 4.27196,-0.07978 5.27016,1.01903c0.28688,0.31581 0.79035,1.62026 0.19496,1.99975c-0.67785,0.43206 -1.78404,-0.65296 -2.44989,-0.75262c-1.67372,-0.25052 -4.08062,-0.04356 -5.29495,1.321c-0.87778,0.43586 -0.99687,1.27992 -2.22765,0.94465c-1.03272,-0.28131 -1.86629,-1.24789 -2.89918,-0.40798c-0.45462,0.3697 -0.77008,8.2019 -2.51051,3.66699c-1.30738,-0.71961 -0.5864,-2.06581 -1.34458,-3.19565c-1.03226,-1.53828 -2.75625,-1.70729 -2.93723,-3.74261l0.77449,-0.56837c0,0 0.05499,0 0.12908,0.01976z" fill="#666666" stroke-width="0.5"/><path d="M193.69968,166.20827c0.14727,0.00251 0.29454,0.00502 0.44181,0.00752c2.83958,1.52724 6.07774,5.5666 6.83791,8.94825c0.48857,2.17342 -0.07758,5.061 -0.24486,7.26041c-0.01298,3.01185 -0.23992,6.0146 -0.8003,8.96883c-0.20078,1.05842 -0.36292,2.77965 -1.27902,3.44315c-0.58152,0.42117 -1.89713,-0.34758 -2.46288,-0.52698c-1.38589,-0.43945 -3.30315,-0.48246 -4.6684,0.01851c-1.15414,0.01413 -1.81398,-0.24685 -2.36685,-1.48029c-0.5825,-1.29954 -0.24124,-3.23365 -0.54181,-4.63395c-0.67554,-3.14733 -2.62148,-4.96657 -2.58084,-8.50624c0.85756,-1.89055 1.81465,-3.24965 2.05245,-5.36484c0.15944,-1.41821 -0.63559,-2.88904 -0.23985,-4.32033c0.70644,-2.55509 3.37737,-3.05901 5.17041,-4.04593c0,0 0.44809,-0.24664 0.6822,0.23187z" fill="#666666" stroke-width="0.5"/><path d="M188.34628,235.59585v-43.11688h16.30238v43.11688z" fill="#870d0d" stroke-width="0"/><path d="M185.71413,306.11629v-72.20832h24.26919v72.20832z" fill="#7b0c0c" stroke-width="0"/><path d="M196.93976,239.384c-0.39211,-0.45633 -0.25322,-1.4981 -0.12375,-2.47241c-0.47082,0.68388 -1.07353,1.25581 -1.3837,1.30582c-0.59226,0.09548 -0.91363,-0.16199 -1.08028,-0.59144c-0.14857,-0.14365 -0.21782,-0.42737 -0.15718,-0.90071c-0.01076,-0.24796 -0.00515,-0.50832 0.00724,-0.76615h-0.32957c-0.55184,1.78195 -0.89609,3.74653 -0.89609,5.53018c-0.33337,0.75113 -1.09632,2.35211 -2.15841,1.40807c-0.46287,-0.41144 -0.03288,-0.95505 -0.13741,-1.40807c-0.31239,-1.35383 -0.68279,-4.31636 -1.41155,-5.41246c-0.39669,-0.59666 -1.4068,0.53535 -2.06529,0c-0.52729,-0.42868 0.24135,-1.09365 -0.66755,-0.97029c-1.35355,0 -4.21865,-1.49376 -1.40943,-2.25831c2.47159,-0.67265 5.82147,-0.01521 8.37977,-0.01521c1.7187,0 3.52879,-0.64131 5.24593,-0.27685c1.09093,0.23155 2.52438,0.96365 3.77128,0.91835c0.18959,-0.09737 0.37751,-0.19577 0.56201,-0.29731l0.12398,-0.17772c0,0 0.3651,-0.4019 0.73018,0c0.04705,0.0518 0.08199,0.1036 0.10714,0.15456c0.09084,0.04323 0.17941,0.12689 0.24775,0.27735c0.23091,0.50838 -0.2309,0.76256 -0.2309,0.76256c-0.35395,0.18525 -0.7156,0.29172 -1.08171,0.3403c-1.38878,0.90676 -2.44618,2.11177 -3.68916,2.96349c-0.14919,0.10223 -0.29157,0.16794 -0.42602,0.20286c-0.14264,1.43117 -0.59408,3.23487 -1.92725,1.68337z" fill="#666666" stroke-width="0.5"/><path d="M274.98816,222.1453v27.62915h-53.70743v-27.62915z" data-paper-data="{&quot;index&quot;:null}" fill="#990f0f" stroke-width="0"/><path d="M254.76114,250.32415v27.62915h-45.25435v-27.62915z" data-paper-data="{&quot;index&quot;:null}" fill="#b31212" stroke-width="0"/><path d="M273.47869,250.32415v27.62915h-18.08372v-27.62915z" data-paper-data="{&quot;index&quot;:null}" fill="#990f0f" stroke-width="0"/><path d="M191.99684,192.82967v-27.62915h47.36761v27.62915z" data-paper-data="{&quot;index&quot;:null}" fill="#b31212" stroke-width="0"/><path d="M255.21398,193.77075v27.62915h-53.70743v-27.62915z" data-paper-data="{&quot;index&quot;:null}" fill="#990f0f" stroke-width="0"/><path d="M220.64691,222.1453v27.62915h-18.08371v-27.62915z" data-paper-data="{&quot;index&quot;:null}" fill="#b31212" stroke-width="0"/><path d="M273.93153,193.96644v27.62915h-18.08372v-27.62915z" data-paper-data="{&quot;index&quot;:null}" fill="#740c0c" stroke-width="0"/><path d="M239.99828,192.82967v-27.62915h47.36761v27.62915z" data-paper-data="{&quot;index&quot;:null}" fill="#990f0f" stroke-width="0"/><path d="M281.62987,278.503v27.62915h-41.39088v-27.62915z" data-paper-data="{&quot;index&quot;:null}" fill="#740c0c" stroke-width="0"/><path d="M239.72752,278.503v27.62915h-41.39087v-27.62915z" data-paper-data="{&quot;index&quot;:null}" fill="#990f0f" stroke-width="0"/><path d="M241.00908,287.03535v0.46964c-0.02851,3.89307 0.36228,7.78484 0.36228,11.7412c0,1.81358 0.48564,5.10704 -0.24878,6.64888c-0.31727,0.66608 -1.57995,1.55583 -2.15451,0.81095c-0.48983,-0.63499 -0.02178,-1.32592 0.05436,-1.91811c0.31084,-2.41775 -0.00585,-4.74205 -0.00585,-7.1855c0.0196,-5.01041 0.05463,-10.17767 -0.71575,-15.14843c0,0 -0.03641,-0.23598 0.05394,-0.43597c-0.55813,-0.43497 -1.92905,-1.56068 -2.26685,-1.44553c-0.76347,0.26024 -1.09806,0.94048 -2.05975,0.93905c-0.93294,-0.00141 -1.87905,-0.88456 -2.76526,-1.17308c-2.31493,-0.00993 -4.57565,-1.0923 -6.9644,-0.70294c-1.90774,0.31096 -4.02962,0.87451 -5.84103,0.94216c-2.42389,-0.01593 -4.53552,-0.40458 -6.95576,-0.94688c-1.49057,-0.33399 -3.24753,0.24638 -4.70958,-0.23483c-1.25122,-0.41182 -1.11601,-1.42228 -0.39569,-2.44243c1.3141,-1.12987 2.75437,-0.83753 4.27212,-0.83753l0.5648,0.29679c0,0 0.08096,0.05247 0.15239,0.15744c3.88745,-0.05223 7.71092,-0.21943 11.60015,-0.21943c5.31355,0.00479 10.60693,0.35066 15.88583,-0.63277c4.91921,-0.37091 9.4493,2.07781 14.36414,2.04171c0.16683,0.00269 0.32674,-0.02112 0.48179,-0.0647c0.03449,-0.78421 0.30165,-2.093 0.33673,-2.44953c0.30168,-3.06681 -0.00339,-6.46378 -0.00339,-9.55606c0,-4.44934 0.60606,-9.78674 -0.3939,-14.10141c-1.10898,-0.35712 -2.1708,-0.60771 -2.8259,-0.27223c-2.15197,1.10203 -4.70289,1.21229 -7.06979,1.1949c-3.92816,-1.25293 -9.86453,-2.4061 -13.76565,-0.72349c-5.1075,1.65508 -10.50823,-1.82323 -15.46796,-0.21581c-2.25198,0 -5.07243,2.45788 -6.43791,-1.02459l-0.04781,-0.73218c0,0 0.00001,-0.31886 0.18127,-0.48659c0.00862,-0.57014 0.4527,-0.57011 0.4527,-0.57011c3.53992,0 7.02876,-0.39317 10.59593,-0.46005c-0.00523,-0.38829 0.00062,-0.78156 0.00062,-1.15354c0,-4.56563 0.86772,-8.9753 0.36341,-13.57816c0.03333,-4.61707 -0.39615,-8.77716 -3.46113,-10.60894c-0.74559,0.08242 -1.46452,0.13902 -2.13724,0.13902c-2.33165,-1.00757 -6.82834,-0.92267 -9.29129,-0.46646c-1.27113,0.23546 -2.15998,1.73446 -2.91613,0.29336c-0.91379,-1.21474 -2.29876,-3.35388 -0.61335,-4.68116c0.17576,-0.13841 1.95922,-0.27298 2.14312,-0.29676c1.94676,-0.25172 4.57367,-0.37907 6.45821,0.23171c5.07452,0.02879 10.15727,0.62248 15.312,-0.23799c5.53058,0.01008 11.13681,0.46109 16.7261,0.46988c4.14376,0.76463 8.34388,-0.04991 12.37942,1.57688c0.16269,-0.62259 0.36058,-1.27203 0.35869,-1.70933c-0.01262,-2.89349 -0.35445,-5.81369 -0.36228,-8.68849c0,-4.87858 1.06472,-9.41137 -0.11478,-14.20213c-2.26851,-0.15971 -4.65132,-0.74663 -6.859,-0.74663c-4.87227,0 -9.59251,-0.70448 -14.49101,-0.70448c-3.15055,-0.00405 -6.11091,0.86239 -9.20987,1.17298c-1.96952,0.19738 -3.72656,-0.70334 -5.6434,-0.70334c-4.62414,0 -9.0717,-0.24703 -13.73799,-0.23329c-0.34543,0.08949 -1.97428,0.61132 -2.30613,0.45242c-1.39468,-0.66781 -0.4456,-3.15074 0.64744,-3.27184c2.65687,-0.29434 5.37121,0.94272 8.07865,-0.22724c2.75777,-0.03394 5.55662,-0.03218 8.27906,0.46647c0.89438,0.16382 1.66039,0.64186 2.58918,0.47283c0.97952,-0.17827 1.76745,-0.93429 2.7896,-0.94686c4.10955,0 8.91083,1.6831 12.78822,0.00757c3.2803,-0.04036 0.8301,-8.43992 1.07218,-10.99863c0.11162,-1.17966 0.36029,-2.31692 0.36228,-3.52234c0.37721,-1.95609 0.89947,-8.97071 -0.5217,-10.85084c-0.11914,-0.01428 -0.26065,-0.08722 -0.3424,-0.32525c-0.14955,-0.09397 -0.31504,-0.14327 -0.49783,-0.14113c0,0 -0.45284,0 -0.45284,-0.58707c0,-0.58706 0.45284,-0.58706 0.45284,-0.58706c0.49741,0.00474 0.89795,0.11261 1.2193,0.30237l0.08661,-0.03742c1.11579,-0.46764 1.76011,-0.37418 2.7161,0.51475c0.13915,2.5489 -0.33401,5.0062 -0.30859,7.56081c0.0415,4.16658 0.5433,8.24754 0.5433,12.44139c0,0.93962 -0.85667,5.22133 -0.31377,5.92514c0.25341,0.32852 1.52098,0.06288 1.85344,0.06288c1.86603,0 3.67746,0.46749 5.50527,0.47693c2.33501,0.98146 5.32673,0.66445 7.66243,0.23193c2.09592,-0.38811 4.2557,0.30634 6.35052,-0.23637c3.08334,0.00665 5.7572,0.14341 8.79456,0.70602c1.13106,0.2095 2.20291,-0.7622 3.27768,-0.46647c1.51036,0.41558 1.40965,2.60708 -0.07255,2.81031c-1.35468,0 -2.59655,0.45908 -3.92969,0.70008c-3.07943,0.55671 -6.23451,-0.46523 -9.29334,-0.46523c-1.14725,0 -2.18198,0.23609 -3.2465,0.45205c-0.52103,2.99542 -0.8291,5.9532 -0.8291,9.09574c0,4.97054 0.45166,9.9528 0.53144,14.97642c3.52621,1.09506 8.12035,0.87419 11.69534,0.87419c1.87345,0 4.94222,-0.59228 6.57789,0.79217c0.66483,0.5627 0.8987,3.28303 -0.13402,3.65378c-0.34367,0.1234 -1.23232,-1.23548 -1.57097,-1.45294c-0.84495,-0.54256 -1.79229,-0.40995 -2.69923,-0.40995c-2.14056,0 -4.286,0.04714 -6.42238,0.09977c-0.91978,1.18125 -2.02436,2.21667 -3.35905,2.23309c-1.45682,0 -2.21588,1.70654 -3.44161,1.64377c-1.61409,-0.08268 -1.16546,-2.89381 -2.10412,-3.66281c-0.00738,0.02585 -0.01626,0.05242 -0.02678,0.07969c-0.20253,0.52508 -0.60756,0.26255 -0.60756,0.26255l-0.30295,-0.20298c-2.22988,-1.00128 -4.04744,-0.23455 -6.34566,0.02864c-2.32299,0.26602 -4.63025,-0.45537 -6.97067,-0.47257c-4.65213,-1.50772 -8.85105,1.62399 -13.48832,0.9891c-1.23861,-0.17071 -2.35405,-0.66402 -3.55581,-0.99227c-0.28484,-0.0778 -0.57891,-0.1381 -0.88064,-0.18335c-0.08322,0.09369 -0.17159,0.13187 -0.17159,0.13187l-0.54341,0.23482c-0.90977,0.35955 -1.00138,1.49712 -1.1453,2.5898c-0.42401,3.21919 -0.16599,6.21856 -0.17868,9.46202c0.77129,3.99956 0.36566,7.938 0.36566,12.04774c0,0.44431 0.02898,0.93481 0.03829,1.41768c4.72159,0.12868 9.98787,0.44415 14.40641,-1.01063c1.58982,-0.50371 3.23643,0.22671 4.85614,0.26737c3.8816,0.09744 7.85925,0.00041 11.76425,-0.00014c5.0918,0 10.29539,0.99079 15.42172,0.94021c1.65282,0.23646 4.93135,-0.95731 6.37171,0.32159c1.20801,1.07258 -0.11591,3.58465 -1.22087,3.88864c-1.00525,0.27654 -3.08314,-0.92359 -4.2702,-0.92359c-1.05813,-0.01703 -2.01578,0.93065 -3.07935,0.93929c-1.20068,0.00977 -2.52675,-0.45027 -3.69528,-0.71205c-1.96537,-0.44032 -3.96646,0.47724 -5.90501,0.47724c-0.21612,0 -0.46017,-0.03383 -0.72417,-0.09076c0.33105,1.87755 0.09019,4.08607 0.09019,5.98557c0,5.76237 -0.15437,11.44571 -0.18453,17.07041c0.04626,0.23978 0.05753,0.50887 0.03922,0.78863c0.11843,-0.03732 0.24033,-0.06538 0.36644,-0.08176c3.46942,-0.4505 7.22791,0.16359 10.73769,0.16359c3.00679,0 5.48878,-0.30163 8.38927,1.02696l0.05455,0.12002l0.02758,-0.03577l0.36227,0.46964c0.08194,0.10624 0.13264,0.253 0.13264,0.41512c0,0.32423 -0.20274,0.58705 -0.45284,0.58705h-0.54341v-0.1299c-1.0619,0.1323 -2.09608,-0.08362 -3.18792,0.12234c-3.06291,0.57775 -5.82916,1.18532 -8.97641,1.18058c-2.39048,-0.38441 -5.06883,-0.94048 -7.47682,-0.26909c-1.33201,0.37138 -2.4811,1.25027 -3.85138,1.43994c-1.27764,0.17684 -2.48493,-0.47945 -3.72271,-0.46811c-1.91666,-0.49666 -4.62951,-0.84543 -6.41938,0.38483c-0.47963,0.32966 -0.84609,2.22968 -1.05083,3.85669c0.0402,0.44918 0.02919,0.91678 -0.04021,1.3999c0.40012,0.04369 0.40011,0.58425 0.40011,0.58425zM239.36305,283.4665c0.08427,0.66253 0.15555,1.32697 0.21592,1.99281c-0.0388,-0.66622 -0.0502,-1.36978 -0.21592,-1.99281z" fill="url(#color-3)" stroke-width="0.5"/><path d="M204.32048,160.70005l2.67419,-90.88871l75.28155,2.21498l-2.67419,90.88871z" data-paper-data="{&quot;index&quot;:null}" fill="#000000" stroke-width="0"/><path d="M232.75521,127.60887c-0.18648,6.33794 -5.47557,11.32468 -11.8135,11.1382c-6.33794,-0.18648 -11.32468,-5.47557 -11.1382,-11.8135c0.18648,-6.33794 5.47557,-11.32468 11.8135,-11.1382c6.33794,0.18648 11.32468,5.47557 11.1382,11.8135z" data-paper-data="{&quot;index&quot;:null}" fill="#ffffff" stroke-width="0"/><path d="M231.32266,128.06693c-0.17156,5.83091 -5.03753,10.41869 -10.86841,10.24713c-5.8309,-0.17156 -10.41869,-5.03752 -10.24713,-10.86841c0.17156,-5.83091 5.03752,-10.41869 10.86841,-10.24713c5.8309,0.17156 10.41869,5.03751 10.24713,10.86841z" data-paper-data="{&quot;index&quot;:null}" fill="#000000" stroke-width="0"/><path d="M202.68251,161.79387l0.6753,-22.95169l57.83828,1.70175l-0.6753,22.95169z" data-paper-data="{&quot;index&quot;:null}" fill="#990f0f" stroke-width="0"/><path d="M267.21541,105.65122c-0.18648,6.33794 -5.47557,11.32468 -11.8135,11.1382c-6.33794,-0.18648 -11.32467,-5.47557 -11.13819,-11.8135c0.18648,-6.33794 5.47557,-11.32468 11.81349,-11.1382c6.33794,0.18648 11.32468,5.47557 11.1382,11.8135z" data-paper-data="{&quot;index&quot;:null}" fill="#ffffff" stroke-width="0"/><path d="M266.79713,105.63891c-0.17156,5.83091 -5.03752,10.41869 -10.86841,10.24713c-5.8309,-0.17156 -10.41869,-5.03751 -10.24713,-10.86841c0.17156,-5.83091 5.03752,-10.41869 10.86841,-10.24713c5.83091,0.17156 10.41869,5.03751 10.24713,10.86841z" data-paper-data="{&quot;index&quot;:null}" fill="#000000" stroke-width="0"/><path d="M234.27509,139.44554l0.6753,-22.95169l48.04555,1.41363l-0.6753,22.95169z" data-paper-data="{&quot;index&quot;:null}" fill="#b31212" stroke-width="0"/><path d="M260.82679,163.50463l0.6753,-22.95169l20.3505,0.59877l-0.6753,22.95169z" data-paper-data="{&quot;index&quot;:null}" fill="#740c0c" stroke-width="0"/><path d="M203.13305,115.25142l0.6753,-22.95169l40.08897,1.17952l-0.6753,22.95169z" data-paper-data="{&quot;index&quot;:null}" fill="#990f0f" stroke-width="0"/><path d="M266.02069,117.10174l0.6753,-22.95169l20.50351,0.60327l-0.6753,22.95169z" data-paper-data="{&quot;index&quot;:null}" fill="#740c0c" stroke-width="0"/><path d="M204.12337,92.00271l0.6753,-22.95169l24.17579,0.71132l-0.6753,22.95169z" data-paper-data="{&quot;index&quot;:null}" fill="#b31212" stroke-width="0"/><path d="M228.9112,92.73203l0.6753,-22.95169l57.83828,1.70175l-0.6753,22.95169z" data-paper-data="{&quot;index&quot;:null}" fill="#990f0f" stroke-width="0"/><path d="M226.63136,70.18404l-0.24874,-0.00732c-0.25351,-0.00746 -0.45298,-0.21903 -0.44553,-0.47254c0.00746,-0.25351 0.21902,-0.45298 0.47254,-0.44553l0.29033,0.00854c0.01685,-0.02244 0.03525,-0.04407 0.05525,-0.06479c0.19196,-0.19877 1.3484,-0.04703 1.64806,-0.03822c0,0 0.09439,0.00278 0.19632,0.04861c0.49975,-0.27058 1.09726,-0.14696 1.6876,-0.12398l0.06193,0.04483l0.00919,-0.02509l0.53549,0.19616c0.18588,0.06319 0.31707,0.24187 0.311,0.44836c-0.00608,0.20649 -0.14756,0.37712 -0.33682,0.42929l-0.2484,0.07477c-1.23378,1.31999 -0.90176,3.12899 -0.68769,5.08184c0.22393,2.04286 -0.11527,4.33539 -0.18801,6.38993c-0.07859,0.21454 -0.14363,0.4391 -0.1967,0.67154c0.04318,0.80098 -0.05192,1.90892 -0.18142,2.86349c0.05858,1.16523 0.22792,2.32778 0.36078,3.30062c0.01156,0.08463 0.02817,0.19342 0.04751,0.32036c0.15518,0.25856 0.1926,0.62574 0.13672,0.99217c0.07021,0.6129 0.11311,1.29077 0.03058,1.78257c0.09423,0.02134 0.19071,0.04212 0.28995,0.06173c3.10097,0.61315 6.86385,0.74733 10.00919,0.83987c2.24632,0.06902 4.43193,-0.73288 6.69965,-0.34825c2.66887,0.45266 5.23428,0.88317 7.98403,0.96408c4.0197,0.16824 8.88928,0.12353 12.82918,-0.72174c2.2,0.075 4.26646,-0.89333 6.54944,-0.5436c2.34559,0.35933 4.49454,1.04678 6.87659,1.11985c1.61665,-0.15558 4.52271,-0.522 5.95447,0.4267c0.99103,0.65666 1.02979,3.00761 -0.51477,3.04037c-1.57942,0.03352 -2.70723,-1.83597 -4.66784,-1.24592c-1.89899,-0.05587 -3.85671,0.72326 -5.74195,0.93618c-0.37908,0.04281 -0.75959,0.05865 -1.14103,0.05414c-0.70038,0.70158 -1.6239,0.85221 -2.60459,1.14735c-0.98199,0.28419 -1.59053,-0.45061 -2.37097,-0.35652c-0.99346,0.11976 -2.11196,2.83394 -3.49593,1.60437c-0.5443,-0.48359 -0.07998,-2.62389 -0.93694,-2.82182c-3.33714,0.32332 -6.85155,0.04773 -10.26048,-0.05257c-4.63692,-0.1687 -9.03487,-1.68451 -13.65409,-1.87787c-4.10517,1.25425 -8.43478,0.51926 -12.83799,0.35736c-0.88168,-0.35809 -2.71308,0.126 -3.71963,0.25811c-2.59197,0.34017 -6.24122,0.21925 -8.65359,-0.63981c-3.3588,-1.2752 -8.8272,-0.31305 -12.35598,-0.46076c-1.41899,0.38557 -1.38702,-1.73321 -0.32121,-2.15309c1.06581,-0.41988 4.43952,0.33729 6.39171,0.06939c1.44722,-0.1986 2.52124,-0.79623 4.01375,-0.24945c4.01287,0.11807 8.76624,1.59356 12.67543,0.438c-0.15261,-0.21556 -0.23742,-0.47405 -0.19188,-0.69941c0.24402,-1.20744 0.59591,-2.38203 0.91346,-3.58303c0.01937,-0.30031 0.04646,-0.6028 0.0774,-0.90643c-0.07452,-1.31197 -0.06764,-2.57463 -0.0261,-3.98633c0.0175,-0.30027 0.10223,-0.65916 0.23993,-0.95327c-0.04303,-0.27466 -0.10256,-0.54472 -0.18215,-0.80918l0.02163,-0.07297l-0.0254,-0.00075l0.01621,-0.55083c0.00274,-0.09306 0.03297,-0.17883 0.08269,-0.24976c-0.01531,-0.05197 -0.03104,-0.10371 -0.0472,-0.15524c-0.47853,-1.64382 -0.86051,-5.68246 -0.31995,-8.2478c-0.37858,-0.22808 -0.7177,-0.66731 -0.865,-1.10677zM229.14713,91.1362c-0.01392,0.00665 -0.028,0.0129 -0.04223,0.01873l-0.00492,0.1672c0.01703,-0.06163 0.03272,-0.1236 0.04715,-0.18592z" data-paper-data="{&quot;index&quot;:null}" fill="#666666" stroke-width="0.5"/><path d="M264.00364,122.01596c-1.53944,-0.02681 -2.75734,-2.04362 -3.50907,-0.94219c-0.28918,0.53818 -0.64674,0.9868 -0.96309,1.5031c-0.24439,0.39886 -0.53394,0.77159 -0.84888,1.11745c-3.15941,3.46967 -3.39524,-3.32872 -5.3651,-4.67092c-0.79053,-0.61917 -0.83864,0.2481 -1.74128,0.17907c-0.48987,-0.03746 -0.80824,-0.56362 -1.17143,-0.8945c-1.1991,-1.09246 -3.83539,-1.00657 -5.25581,-0.68662c0,0 -0.39404,0.08628 -0.52439,-0.27218c-1.3066,0.26221 -2.52977,0.70373 -3.90842,1.04414c-0.63189,0.15602 -1.19921,-0.00746 -1.76229,-0.18215c-0.0824,0.1391 -0.23589,0.23044 -0.40894,0.22535l-0.40238,-0.01184c-2.01124,0.6446 -1.89316,1.93957 -2.68672,3.0588c-0.01825,0.13051 -0.04198,0.26038 -0.07737,0.37941l0.0207,0.02196l-0.03967,0.0374c-0.05233,0.15246 -0.12697,0.28293 -0.23829,0.36786c-0.2987,0.22786 -0.70075,0.53173 -1.05314,0.4015c-0.49332,-0.18231 -0.21954,-3.25304 -0.12658,-4.44806c-0.17358,-0.42418 -0.45524,-0.81126 -0.90407,-1.23252l-0.4009,-0.14686c-0.18588,-0.06321 -0.31707,-0.24187 -0.311,-0.44836c0.00608,-0.20649 0.14756,-0.37712 0.33682,-0.4293l0.45341,-0.13645l0.00829,0.02753l0.06386,-0.04304c0.4316,0.01116 0.7806,0.08046 1.1287,0.19013c3.64767,-1.0396 6.6988,0.19189 10.37033,0.29992c0.12945,0.00381 0.25887,0.00747 0.38827,0.01097c0.63729,-0.09549 1.29805,-0.14512 2.0041,-0.12434c0.68174,0.02303 1.40427,0.0962 2.15341,0.19685c2.88588,0.03051 5.77024,0.03629 8.67979,0.12189c3.0139,0.08868 6.27044,-0.41229 9.24207,0.09161c0.85101,0.14432 1.65421,0.38556 2.48293,0.53194c1.7468,-0.27499 3.48574,-0.16435 5.31653,-0.09008l0.19283,0.06833c2.7581,-0.20477 5.53458,-0.52327 8.25297,-0.38348c0.94,0.67517 1.14966,1.36155 0.59779,1.7877c0.00335,0.00846 0.00655,0.01703 0.0096,0.02565c0.47238,1.33445 -0.70058,1.3035 -1.26897,0.63035c-0.09206,-0.0194 -0.24102,-0.07308 -0.3176,-0.22101c-3.06067,0.30704 -6.29998,-0.31967 -9.27016,0.57424c-1.67292,-0.03333 -3.34502,-0.07422 -5.00984,-0.18982c-1.14733,0.7792 -2.77642,2.68429 -4.13698,2.6606zM255.8153,117.3991c1.08583,0.10677 2.14728,0.14553 3.14727,0.05687c-0.3624,0.00419 -0.72179,0.00248 -1.07711,-0.00797c-0.69137,-0.02034 -1.38131,-0.03619 -2.07017,-0.04891z" data-paper-data="{&quot;index&quot;:null}" fill="#565656" stroke-width="0.5"/><path d="M237.5525,142.87111c-0.01231,0.82037 -0.20495,1.51608 -1.34892,1.41271c-1.4886,-0.1345 -1.04303,-1.28243 -0.8341,-2.28362c-0.85754,0.09783 -1.91252,-0.09861 -2.61912,-0.1194c-1.10121,-0.0324 -2.19263,-0.08544 -3.27914,-0.14515l-0.02351,0.02161c-1.72606,2.15925 -2.56161,0.66904 -4.50353,1.42429c-0.35766,0.90203 -1.71408,1.09477 -2.28814,0.15473c-0.2995,-0.49043 0.15547,-1.09891 0.14785,-1.52974c-0.00279,-0.15765 -0.06089,-0.29259 -0.16295,-0.40769c-4.14638,-0.09937 -8.23092,0.768 -12.39026,-0.19164c-2.01846,-0.75134 -4.12799,0.4312 -6.16026,0.38166c-1.24804,-0.03042 -2.13067,-0.20516 -1.54575,-1.44604c-0.0145,-0.01277 -0.02235,-0.02108 -0.02235,-0.02108c-1.08784,-1.59693 0.85537,-1.678 2.02717,-1.64352c2.67831,0.0788 5.31207,-0.02155 7.97415,0.05677c2.51226,0.98803 6.58849,-0.3634 9.30713,-0.28341c1.26148,0.03712 3.01111,0.68188 4.14402,0.31164c2.33479,0.05472 5.07587,1.0623 7.34585,0.76496c2.42059,-0.31707 4.77544,-0.59802 7.23873,-0.52555c5.26325,0.15486 10.38431,0.85684 15.59094,1.01004c4.76958,0.14033 9.50452,-0.45544 14.34347,-0.31307c3.16018,0.09298 6.66421,-0.49202 9.81027,0.1108c1.41375,0.2709 2.82399,0.60878 2.85944,2.18362c-1.21531,1.21259 -1.84116,0.46589 -3.26,0.18176c-3.13991,-0.6288 -6.56114,1.74124 -9.57492,0.63714c-1.58988,-0.02704 -6.04877,-0.76953 -7.93018,0.32896l-0.00255,0.08679c-0.10355,2.81637 -0.15294,5.63408 -0.2536,8.50221c-0.81363,2.93232 -0.16009,5.5579 -0.24882,8.57385c-0.04336,1.47353 0.58268,3.78448 0.58268,3.78448l-4.46396,-0.08755c0,0 1.35275,-2.92742 1.497,-3.6569c0.44483,-2.24969 0.31818,-4.77015 0.3862,-7.08218c0.10373,-3.52566 0.79169,-7.19062 0.02562,-10.60917c-0.00237,-0.00132 -0.00472,-0.00261 -0.00709,-0.00392c-0.604,-0.33203 -1.50956,-0.18147 -2.18128,-0.20124c-1.9075,-0.05612 -4.58151,-0.61101 -6.41244,-0.05161c-1.78893,1.11807 -3.99658,0.72949 -5.96725,0.41902c-2.06208,-0.32486 -4.17875,-0.51702 -6.28632,-0.73324c-0.52437,0.22034 -0.99212,0.73152 -1.51406,0.98865z" data-paper-data="{&quot;index&quot;:null}" fill="#484848" stroke-width="0.5"/></g></g></svg>