<svg version="1.1" xmlns="http://www.w3.org/2000/svg" xmlns:xlink="http://www.w3.org/1999/xlink" width="93.6371" height="317.21614" viewBox="0,0,93.6371,317.21614"><defs><linearGradient x1="240.58961" y1="149.45638" x2="240.58961" y2="304.39158" gradientUnits="userSpaceOnUse" id="color-1"><stop offset="0" stop-color="#da1616"/><stop offset="1" stop-color="#a71111"/></linearGradient></defs><g transform="translate(-192.50444,-32.80784)"><g data-paper-data="{&quot;isPaintingLayer&quot;:true}" fill-rule="nonzero" stroke-linejoin="miter" stroke-miterlimit="10" stroke-dasharray="" stroke-dashoffset="0" style="mix-blend-mode: normal"><path d="M204.67435,153.52164l2.5,-7.25l3.75,-0.25l7.25,3l49.5,-4l10.75,-7.75l4.25,2.75l-0.5,4.5l-2.25,-0.75l-2.5,3.25l-14,12c0,0 -21.79227,3.63966 -32.09121,2.6755c-9.14758,-0.85637 -26.65879,-8.1755 -26.65879,-8.1755z" fill="#0c0c0c" stroke="#000000" stroke-width="0.5" stroke-linecap="round"/><g stroke="none" stroke-width="0" stroke-linecap="butt"><g><path d="M267.90736,57.30784c0,13.53098 -11.0138,24.5 -24.6,24.5c-13.5862,0 -24.6,-10.96902 -24.6,-24.5c0,-13.53098 11.0138,-24.5 24.6,-24.5c13.5862,0 24.6,10.96902 24.6,24.5z" fill="#c01313"/><path d="M262.6199,56.4734c0,10.82478 -8.68568,19.6 -19.4,19.6c-10.71432,0 -19.4,-8.77522 -19.4,-19.6c0,-10.82478 8.68568,-19.6 19.4,-19.6c10.71432,0 19.4,8.77522 19.4,19.6z" fill="#da1616"/></g><path d="M238.24458,36.34272c0.2424,1.10481 -2.39076,3.81408 -5.88132,6.05133c-3.49056,2.23724 -6.51673,3.15526 -6.75913,2.05045c-0.2424,-1.10481 2.39076,-3.81408 5.88132,-6.05133c3.49056,-2.23724 6.51673,-3.15526 6.75913,-2.05045z" fill="#ffffff"/></g><path d="M199.1964,117.68894c0,0 3.46448,-6.48669 8.69464,-13.62567c4.53465,-6.18963 10.72764,-12.86962 13.06706,-16.23731c2.81174,-4.0476 4.57163,-15.7619 4.57163,-15.7619c0,0 5.5622,-1.38717 7.43938,-1.60745c2.30791,-0.27083 9.05138,-0.90567 9.05138,-0.90567l6.51529,9.04669l3.21448,-5.03557l7.44613,3.29135c0,0 0.49469,7.54425 1.84085,10.47944c0.67248,1.46628 1.93891,5.31415 4.0942,9.12547c2.02489,3.58073 4.91255,7.07006 6.46852,10.30714c2.04767,4.26002 3.97972,8.54095 5.14957,11.50226c1.65002,4.17677 2.11353,6.22713 2.11353,6.22713c0,0 -13.48063,0.64133 -22.63989,-0.14114c-14.68754,-1.25476 -57.02678,-6.66478 -57.02678,-6.66478z" fill="#2b2b2b" stroke="none" stroke-width="0" stroke-linecap="butt"/><path d="M251.82769,74.1723l1,19.40948l-4.33333,-14.8722z" fill="#3a3a3a" stroke="#000000" stroke-width="0" stroke-linecap="round"/><path d="M198.52973,116.52228c0,0 2.04362,-2.24738 3.13322,-4.01253c1.06925,-1.7322 3.84447,-5.14808 3.84447,-5.14808c0,0 6.68721,3.18536 11.29847,3.80504c1.91178,0.25691 8.71889,0.3898 15.25792,1.40602c2.56185,0.39813 6.75214,0.45621 10.32446,1.04481c4.65983,0.76779 9.31034,2.21299 13.20754,2.9227c3.88318,0.70716 7.01966,0.68053 8.01038,0.51168c0.85336,-0.14544 2.10041,-4.82399 2.11975,-9.80539c0.0224,-5.77399 -1.26116,-11.95487 -1.26116,-11.95487c0,0 4.91255,7.07006 6.46852,10.30713c2.04767,4.26002 3.97972,8.54095 5.14957,11.50226c1.65002,4.17677 2.11353,6.22713 2.11353,6.22713c0,0 -13.48063,0.64132 -22.63989,-0.14115c-14.68754,-1.25476 -57.02678,-6.66477 -57.02678,-6.66477z" fill="#232323" stroke="none" stroke-width="0" stroke-linecap="butt"/><path d="M251.42769,89.43765l-8.93333,-19.30864l6,8.31834z" fill="#171717" stroke="#000000" stroke-width="0" stroke-linecap="round"/><path d="M222.68484,93.94633c-0.5,0 -0.5,-0.37811 -0.5,-0.37811l0.01493,-0.24294c0.06834,-0.20633 0.13667,-0.41265 0.20501,-0.61899c1.36756,-3.1025 4.0042,-5.60638 5.40572,-8.78593c0,0 0.15811,-0.3587 0.63246,-0.23914c0.47434,0.11956 0.31623,0.47827 0.31623,0.47827c-1.39698,3.16924 -4.03703,5.67911 -5.39428,8.75822c-0.065,0.19698 -0.12999,0.39397 -0.19499,0.59096l0.01493,0.05953c0,0 0,0.37811 -0.5,0.37811z" fill="#171717" stroke="none" stroke-width="0.5" stroke-linecap="butt"/><path d="M267.28484,115.45631c-0.5,0 -0.5,-0.37811 -0.5,-0.37811v-0.45373c0.00593,-1.14534 -0.44218,-2.29523 -0.77116,-3.41457c-1.0677,-3.64508 -3.82855,-6.96248 -5.40318,-10.53143c0,0 -0.15811,-0.35871 0.31623,-0.47828c0.47434,-0.11956 0.63246,0.23914 0.63246,0.23914c1.58473,3.5984 4.34687,6.9296 5.43068,10.60653c0.34631,1.17866 0.78944,2.37223 0.79498,3.57861v0.45373c0,0 0,0.37811 -0.5,0.37811z" fill="#171717" stroke="none" stroke-width="0.5" stroke-linecap="butt"/><path d="M256.88484,116.96874c-0.5,0 -0.5,-0.37811 -0.5,-0.37811v-0.45373c0,-0.92771 -0.19319,-1.81332 -0.2,-2.72237c0,0 0,-0.37811 0.5,-0.37811c0.5,0 0.5,0.37811 0.5,0.37811c-0.00826,0.89839 0.2,1.8023 0.2,2.72237v0.45373c0,0 0,0.37811 -0.5,0.37811z" fill="#171717" stroke="none" stroke-width="0.5" stroke-linecap="butt"/><path d="M241.98484,85.88837c0,0.37811 -0.5,0.37811 -0.5,0.37811l-0.04189,-0.01941c-2.28717,0.57653 -2.85673,0.785 -4.00533,-0.94582c0,0 -0.22361,-0.33818 0.22361,-0.50728c0.44721,-0.16909 0.67082,0.16909 0.67082,0.16909c0.24913,0.37807 0.1093,1.17392 0.66766,1.16228c0.55602,-0.01158 1.56451,-0.4539 2.12701,-0.59569l0.35811,-0.0194c0,0 0.5,0 0.5,0.37811z" fill="#171717" stroke="none" stroke-width="0.5" stroke-linecap="butt"/><path d="M210.80749,109.19186c-0.41603,-0.20973 -0.13868,-0.52434 -0.13868,-0.52434l0.36687,-0.41012c0.28303,-0.65922 0.68846,-1.26537 0.97482,-1.9196c0,0 0.15811,-0.35871 0.63246,-0.23914c0.47434,0.11956 0.31623,0.47828 0.31623,0.47828c-0.30369,0.68466 -0.71606,1.32595 -1.02518,2.01271l-0.43313,0.49734c0,0 -0.27735,0.31461 -0.69338,0.10487z" fill="#171717" stroke="none" stroke-width="0.5" stroke-linecap="butt"/><path d="M221.76009,113.62945c-0.48419,-0.09434 -0.35944,-0.46049 -0.35944,-0.46049l0.24515,-0.71924c0.38686,-0.97255 0.79131,-1.93751 1.21601,-2.90099c1.82972,-4.15099 5.07164,-7.96848 7.36345,-12.01238c0,0 0.19696,-0.34753 0.65653,-0.19859c0.45957,0.14894 0.26261,0.49648 0.26261,0.49648c-2.2804,4.02376 -5.51378,7.82438 -7.33391,11.95362c-0.41947,0.95163 -0.81916,1.90466 -1.20152,2.86518l-0.23995,0.70458c0,0 -0.12475,0.36616 -0.60894,0.27182z" fill="#171717" stroke="none" stroke-width="0.5" stroke-linecap="butt"/><path d="M242.06729,95.49205c-0.49969,-0.01327 -0.48214,-0.39115 -0.48214,-0.39115l0.0005,-0.01075c0.04351,-0.91026 0.19919,-1.78457 0.19919,-2.69834c0,0 0,-0.37811 0.5,-0.37811c0.5,0 0.5,0.37811 0.5,0.37811c0,0.92268 -0.15849,1.80676 -0.19981,2.72489l-0.0005,0.01075c0,0 -0.01755,0.37787 -0.51724,0.3646z" fill="#171717" stroke="none" stroke-width="0.5" stroke-linecap="butt"/><path d="M260.43839,85.62101c0.35355,0.26736 0,0.53473 0,0.53473l-0.75355,0.41323c-0.73018,-0.40041 -1.11836,-0.6664 -1.61603,-1.22707c0,0 -0.27735,-0.31461 0.13868,-0.52434c0.41603,-0.20973 0.69338,0.10487 0.69338,0.10487c0.24206,0.27675 0.70625,0.56945 0.78397,0.89033l0.04645,-0.19174c0,0 0.35355,-0.26736 0.70711,0z" fill="#171717" stroke="none" stroke-width="0.5" stroke-linecap="butt"/><path d="M247.03815,110.26484c-0.43491,-0.18655 -0.18822,-0.51543 -0.18822,-0.51543l0.18355,-0.20168c0.78015,-3.24654 1.07176,-6.65314 1.55441,-9.93803c0,0 0.05522,-0.37579 0.55216,-0.33404c0.49694,0.04176 0.44173,0.41755 0.44173,0.41755c-0.48522,3.30234 -0.78418,6.72461 -1.56432,9.98935l-0.29771,0.43995c0,0 -0.24669,0.32888 -0.68159,0.14234z" fill="#171717" stroke="none" stroke-width="0.5" stroke-linecap="butt"/><path d="M234.48484,118.02744c-0.5,0 -0.5,-0.3781 -0.5,-0.3781v-0.45373c0.0108,-1.44069 0.76847,-2.71949 1.02347,-4.14064c0.47109,-2.62543 0.77875,-5.46485 0.77653,-8.11002c0,0 0,-0.37811 0.5,-0.37811c0.5,0 0.5,0.37811 0.5,0.37811c-0.00215,2.67999 -0.30773,5.55204 -0.78562,8.21177c-0.24821,1.38147 -1.02721,2.64316 -1.01438,4.03889v0.45373c0,0 0,0.3781 -0.5,0.3781z" fill="#171717" stroke="none" stroke-width="0.5" stroke-linecap="butt"/><path d="M255.20755,77.85552c0.49893,1.24912 -1.47615,1.97856 -2.8602,1.3347c-0.56027,0.92287 -1.8971,2.92864 -2.35488,2.86545c-1.05166,-0.1452 -1.98355,-3.67715 -2.32552,-4.55211c-0.73874,-0.511 -1.62287,-0.93424 -2.31315,-1.1445c-0.85939,-1.65162 -2.00875,-1.35906 -3.8025,-1.03965c-1.59716,0.28441 -3.77558,0.42161 -5.22427,0.9607c-1.52173,0.56628 -2.14492,1.51708 -4.08254,1.04068c-0.25975,-0.19062 -0.82131,-0.94883 -1.12848,-1.03101c-2.08963,-0.55908 -3.2289,1.44895 -4.49166,2.21171c-1.02382,0.61843 -2.42819,0.81483 -2.99554,-0.33407c-0.29979,-0.6071 0.18845,-1.32109 0.17855,-1.92448c0.01826,-1.11211 -1.29333,-2.62792 -0.76194,-3.62328c1.04716,-1.96148 4.76817,-2.67108 7.18185,-2.64841c3.78474,-0.95403 7.401,-0.91629 11.26598,-0.91256c0.14294,-0.15103 0.41412,-0.15102 0.41412,-0.15102h0.2c0.92824,0 1.75489,-0.01724 2.66109,0.15408c4.95971,0 8.56287,2.0781 13.0787,3.18834c3.15041,0.5956 4.95231,5.29458 4.96021,7.62268c0.00338,0.99542 0.2294,1.91971 -0.74645,2.68725c-0.7382,0.55384 -1.34008,1.06275 -2.17888,0.2339c-0.76181,-0.75277 0.09375,-2.08788 -0.57203,-2.69164c-0.43638,-0.39574 -1.54804,-0.63551 -2.11964,-0.99581c-0.6434,-0.40554 -1.22267,-1.30515 -1.99304,-1.8633c0.12,0.18948 0.11,0.40292 0.01023,0.61234zM250.25349,80.90856c0.00481,-0.0178 0.00984,-0.03601 0.01506,-0.05457l-0.02026,0.04597c0.00175,0.00288 0.00348,0.00574 0.0052,0.0086z" fill="#b31212" stroke="none" stroke-width="0.5" stroke-linecap="butt"/><path d="M242.98614,77.23437c0.02318,-0.03835 0.04992,-0.07548 0.08038,-0.11114c1.34619,-1.57591 3.77144,0.38481 2.66616,1.73838c-1.34167,1.64306 -3.1162,-0.04018 -3.12533,-1.25749c0,0 0,-0.31422 0.37878,-0.36977z" fill="#b31212" stroke="none" stroke-width="0.5" stroke-linecap="butt"/><path d="M261.39538,85.6951l0.26553,0.11127c0.50378,0.39624 1.33873,2.42549 -0.46843,2.14778c-0.75166,-0.11551 -0.78973,-1.34598 -0.78689,-1.95628c-0.01034,-0.03898 -0.01151,-0.08231 0.00108,-0.12996c0.00037,-0.03638 0.00068,-0.06881 0.00068,-0.09666c0,0 0,-0.3781 0.5,-0.3781c0.35587,0 0.45845,0.19154 0.48802,0.30196z" fill="#b31212" stroke="none" stroke-width="0.5" stroke-linecap="butt"/><path d="M228.40736,79.03985c0.25143,-0.04102 0.45355,0.11183 0.45355,0.11183l0.26247,0.62834c-0.17982,0.19102 -0.43798,0.3355 -0.72905,0.4413l0.07114,0.16139l-0.58893,0.14845c-0.05284,0.01437 -0.1098,0.02219 -0.16919,0.02219c-0.27614,0 -0.5,-0.16929 -0.5,-0.37811c0,-0.0449 0.01035,-0.08799 0.02935,-0.12794l0.19631,-0.44535l0.03668,0.00925l0.01233,-0.08846c0.15726,-0.12368 0.31451,-0.24738 0.47177,-0.37107c0,0 0.20213,-0.15285 0.45355,-0.11183z" fill="#b31212" stroke="none" stroke-width="0.5" stroke-linecap="butt"/><path d="M201.03042,304.39158c0,0 -0.63536,-94.38387 -0.79335,-118.01201c-0.02304,-3.44635 6.80641,-9.49693 9.77867,-17.34287c2.0881,-5.51198 -1.14608,-12.92296 4.76494,-16.5656c5.57892,-3.43798 16.68478,-2.96784 25.6584,-3.01263c9.72072,-0.04853 21.48239,0.72271 27.22403,4.79925c12.9246,9.17641 12.63027,26.96697 12.62481,32.09748c-0.07659,46.24274 0.65429,117.98648 0.65429,117.98648z" fill="url(#color-1)" stroke="#000000" stroke-width="0" stroke-linecap="butt"/><path d="M279.30359,129.52427c-1.5623,9.48098 -7.29782,17.22543 -7.29782,17.22543l-1.15522,-2.34735c0,0 -1.02266,2.19794 -2.16005,3.33274c-1.1374,1.13479 -3.43873,2.91273 -3.43873,2.91273l-0.09205,-3.70421c0,0 -7.0601,11.01795 -24.35066,10.87154c-16.30625,-0.25547 -26.07151,-10.6752 -26.07151,-10.6752l-0.1162,2.65484c0,0 -3.89477,-3.29276 -6.18145,-9.70754c-2.72545,-7.64567 -3.23946,-12.24324 -3.23946,-12.24324c0,0 -2.33908,1.89916 -5.71704,2.7744c-4.23278,1.09673 -6.94665,0.34526 -6.94665,0.34526c0,0 3.60795,-2.71717 5.58396,-4.76989c1.76007,-1.8284 2.64658,-3.37722 2.64658,-3.37722c0,0 -2.10758,1.0847 -4.23277,1.61795c-2.21739,0.5564 -4.03008,0.53093 -4.03008,0.53093c0,0 2.73667,-2.77098 4.98929,-6.58403c2.45587,-0.31323 4.96107,-0.30047 7.42549,-0.57429c3.5148,-0.39053 5.27833,-0.92507 8.77817,-0.92507c0.05375,0 0.10758,-0.00085 0.16147,-0.00247c0.14466,0.26574 0.26644,0.55862 0.49864,0.73589c3.67595,2.80635 6.12499,4.24229 10.73807,5.13746c4.1868,0.81244 9.32035,0.12913 13.60183,0.12913c2,0 4.01886,0.27402 6,0c0.14564,-0.02014 -0.02325,-0.50583 0.10215,-0.42908c2.27669,1.39331 4.75822,2.4728 7.29602,3.29996c4.33121,0.12153 9.12375,0.4862 13.42663,0.09505c3.76479,-0.34224 7.40551,-1.57833 11.16057,-2.01459c1.04008,-0.12083 2.09699,-0.18888 3.16434,-0.22092c-0.03809,1.92117 -0.20023,3.91651 -0.54352,5.9118z" fill="#000000" stroke="none" stroke-width="1.5" stroke-linecap="butt"/><path d="" fill="#000000" stroke="none" stroke-width="1.5" stroke-linecap="butt"/><path d="M265.30202,126.37804c-0.61704,3.02084 -0.4096,6.13662 -2.20622,16.0397c-1.12121,6.18021 -4.16183,8.92466 -10.01942,14.66081c-5.85759,5.73616 -9.05378,9.25275 -13.01359,9.32173c-3.81077,0.06639 -8.93565,-5.1002 -13.93542,-10.38244c-5.32393,-5.62474 -8.87489,-8.47713 -9.71551,-15.13975c-0.75707,-6.00039 -0.77653,-9.90853 -1.12266,-15.24835c-0.21541,-3.32303 -1.70333,-5.65977 -2.33516,-8.73933c0.23936,-0.00548 0.4867,-0.00835 0.74336,-0.00835c0.05375,0 0.10758,-0.00085 0.16147,-0.00247c0.14466,0.26574 0.26644,0.55862 0.49864,0.73589c3.67595,2.80635 6.12499,4.24229 10.73807,5.13746c4.1868,0.81244 9.32035,0.12913 13.60183,0.12913c2,0 4.01886,0.27402 6,0c0.14564,-0.02014 -0.02325,-0.50583 0.10215,-0.42908c2.27669,1.39331 4.75822,2.4728 7.29602,3.29996c4.29714,0.12058 9.04838,0.48049 13.32501,0.10414c-0.04393,0.17637 -0.08364,0.34997 -0.11857,0.52097z" fill="#ffffff" stroke="#000000" stroke-width="1.5" stroke-linecap="butt"/><path d="" fill="#ffffff" stroke="#000000" stroke-width="1.5" stroke-linecap="butt"/><path d="" fill="#ffffff" stroke="#000000" stroke-width="1.5" stroke-linecap="butt"/><path d="" data-paper-data="{&quot;index&quot;:null}" fill="#000000" stroke="none" stroke-width="1.5" stroke-linecap="butt"/><path d="M248.01869,143.06891c0.5704,0.21186 3.08357,1.39942 6.02385,2.59586c2.9637,1.20597 7.21362,2.29294 7.19412,2.4605c-0.02476,0.21265 -10.43477,0.22694 -13.67937,0.63224c-2.71902,0.33964 -6.68867,0.70564 -6.68867,0.70564c0,0 -7.10401,-1.16169 -13.27235,-2.44521c-4.94371,-1.02869 -10.39929,-1.66108 -10.40995,-1.75461c-0.01439,-0.12613 3.86835,-0.71071 6.82417,-1.39467c1.14585,-0.49661 5.43971,-1.48513 5.43971,-1.48513c0,0 4.95585,-0.27766 7.60826,0.579c2.84203,0.91791 2.83546,2.44556 3.0831,2.46906c0,0 1.18436,-1.74932 2.36886,-2.10461c1.18451,-0.35528 5.08219,-0.41633 5.50828,-0.25808z" fill="#ffffff" stroke="#000000" stroke-width="1.4" stroke-linecap="butt"/><path d="M229.3707,147.62249c5.09114,1.02674 11.91756,2.80736 11.91756,2.80736c0,0 5.78976,-1.55585 8.44678,-1.8344c2.05992,-0.21596 11.216,-0.70654 11.26026,-0.33377c0.04328,0.36447 -9.03119,12.90033 -21.14808,12.44714c-13.76954,-0.43578 -22.86459,-15.13559 -22.82675,-15.30472c0.03784,-0.16913 7.2591,1.19165 12.35024,2.2184z" fill="#ffffff" stroke="#000000" stroke-width="1.9" stroke-linecap="butt"/><path d="M240.34498,144.62881c-1.03376,0 -3.5381,-3.26042 -3.7867,-5.3637c-0.22243,-1.88186 1.31512,-3.82799 3.7867,-3.82799c2.47159,0 4.2021,0.49077 4.02999,4.18853c-0.14607,3.13818 -1.55841,5.00317 -4.02999,5.00317z" fill="#ffffff" stroke="#000000" stroke-width="1.15" stroke-linecap="butt"/><path d="M242.87136,149.42241l-2.98167,0.00864c0,0 -0.80294,-4.17274 -1.12322,-9.49979c-0.34805,-5.78896 -0.42698,-12.78448 -0.60702,-17.04582c0.1807,-0.00221 0.36007,-0.00338 0.53795,-0.00338c1.7358,0 3.48581,0.20641 5.21303,0.0818c-0.25432,7.4867 -1.03908,26.45856 -1.03908,26.45856z" fill="#ffffff" stroke="#000000" stroke-width="1.3" stroke-linecap="round"/><path d="M214.41248,125.32493c0,0 -4.35606,-3.10627 -5.90327,-8.01059c1.38026,-0.20528 2.66431,-0.37681 4.33249,-0.42115c0.86553,4.88838 1.57079,8.43175 1.57079,8.43175z" data-paper-data="{&quot;index&quot;:null}" fill="#ffffff" stroke="#000000" stroke-width="1" stroke-linecap="butt"/><path d="M214.20987,121.37737c0,0 -1.82859,-1.49997 -3.14335,-4.38247" fill="none" stroke="#000000" stroke-width="0.25" stroke-linecap="round"/><path d="M226.89443,123.72006c-2.48286,-0.03599 -4.75134,-0.91564 -6.46639,-2.33426c1.35721,0.57451 2.84313,1.01311 4.66753,1.36713c1.66986,0.32403 3.49032,0.41013 5.34725,0.39655c-1.08595,0.38567 -2.2804,0.58896 -3.5484,0.57058z" fill="#ffffff" stroke="#000000" stroke-width="1.4" stroke-linecap="butt"/><path d="" fill="#000000" stroke="none" stroke-width="1.5" stroke-linecap="butt"/><path d="" fill="#ffffff" stroke="#000000" stroke-width="1.4" stroke-linecap="butt"/><path d="" fill="#000000" stroke="none" stroke-width="1.5" stroke-linecap="butt"/><path d="" fill="#ffffff" stroke="#000000" stroke-width="1.15" stroke-linecap="butt"/><path d="" fill="#ffffff" stroke="#000000" stroke-width="1.15" stroke-linecap="butt"/><path d="" fill="#000000" stroke="none" stroke-width="1.5" stroke-linecap="butt"/><path d="" data-paper-data="{&quot;index&quot;:null}" fill="#ffffff" stroke="#000000" stroke-width="1" stroke-linecap="butt"/><path d="M203.88485,332.20642v-15.30586h15.19421v15.30586z" fill="#da1616" stroke="none" stroke-width="0" stroke-linecap="butt"/><path d="M218.97731,332.20642v-15.30586h15.19421v15.30586z" fill="#c01313" stroke="none" stroke-width="0" stroke-linecap="butt"/><path d="M234.06979,332.20642v-15.30586h15.19422v15.30586z" fill="#b31212" stroke="none" stroke-width="0" stroke-linecap="butt"/><path d="M249.16229,332.20642v-15.30586h15.19421v15.30586z" fill="#990f0f" stroke="none" stroke-width="0" stroke-linecap="butt"/><path d="M264.14053,332.20642v-15.30586h15.19421v15.30586z" fill="#740c0c" stroke="none" stroke-width="0" stroke-linecap="butt"/><path d="M204.20878,350.02398v-15.30586h15.19421v15.30586z" fill="#8b8b8b" stroke="none" stroke-width="0" stroke-linecap="butt"/><path d="M219.30126,350.02398v-15.30586h15.19421v15.30586z" fill="#666666" stroke="none" stroke-width="0" stroke-linecap="butt"/><path d="M234.39375,350.02398v-15.30586h15.19422v15.30586z" fill="#4b4b4b" stroke="none" stroke-width="0" stroke-linecap="butt"/><path d="M249.48625,350.02398v-15.30586h15.19421v15.30586z" fill="#2b2b2b" stroke="none" stroke-width="0" stroke-linecap="butt"/><path d="M264.44542,350.02398v-15.30586h15.19421v15.30586z" fill="#0c0c0c" stroke="none" stroke-width="0" stroke-linecap="butt"/><path d="M222.88347,125.98609c-0.73712,0.33097 -0.45865,4.11647 -2.63868,2.26693c-0.57496,-0.4878 -0.63,-2.01352 -0.73999,-2.67347c-0.08462,-0.50768 -0.15937,-1.00391 -0.24703,-1.49016l-0.19483,-0.1325c-1.82568,-0.91284 -3.08246,-2.20986 -4.50313,-3.66239c-5.09657,-2.4691 -11.68275,0.72353 -16.84001,-1.31208c0,0 -0.44706,-0.17883 -0.48148,-0.60812c-0.05647,-0.15452 -0.05647,-0.28824 -0.05647,-0.28824c0.01069,-1.34776 -0.56263,-2.38876 0.34157,-3.63853c1.04815,-1.44872 1.71046,-0.49382 2.72942,-0.70729c0.73702,-0.1544 1.11017,-1.07214 1.80857,-1.35372c1.64267,-0.66227 2.70176,-0.20772 4.24276,0.16961c1.4676,0.35936 2.99234,-0.59182 4.58041,-0.20435c4.11481,0.6858 7.8318,1.29871 11.3398,3.38483c0.15213,-0.00011 0.2663,0.03794 0.2663,0.03794c3.01557,1.00603 5.1935,0.23284 8.23673,0.56517c3.1876,0.3481 6.0442,0.60643 9.2,0.6c5.10765,1.03483 10.15836,3.75391 15.29842,4.61642c3.35711,0.56333 7.27933,0.37238 10.68954,0.38249c3.18324,0.53054 6.82461,1.12531 10.06423,0.8011c0.7585,-0.07591 3.30877,-0.98183 3.9873,-0.53504c1.21244,0.79837 0.94837,1.86335 0.26243,2.76194c-1.42597,1.86804 -4.36343,2.00464 -6.41358,2.2332c-3.41165,0.10716 -6.73819,0.98642 -10.15062,1.03615c-3.87041,0.0564 -7.71667,-0.59991 -11.61161,-0.59991c-2.81411,0 -4.34247,-0.90108 -6.86021,-1.84659c-2.88057,-1.08177 -5.92463,-0.95342 -8.93979,-0.95342h-0.30841c-3.49149,0.85956 -6.70612,0.93218 -9.96933,0.52848c-1.00678,0.85043 -2.26604,1.58003 -3.0923,0.62154zM220.9519,127.54591c0.2302,0.41063 0.62257,-0.73799 0.76639,-1.18624c0.19747,-0.61544 0.77947,-1.14946 1.39494,-1.34683c0.46807,0.4172 0.97019,0.38797 1.45789,0.15008c-1.35316,-0.2199 -2.72249,-0.51315 -4.13074,-0.858c-0.12095,0.09637 -0.24841,0.13413 -0.36701,0.14016c0.14629,1.07156 0.33201,2.12592 0.87853,3.10083z" fill="#740c0c" stroke="none" stroke-width="0.5" stroke-linecap="butt"/><path d="M279.59344,126.87671c0.04138,-0.00845 0.07955,-0.02414 0.11478,-0.04592c-0.13867,-0.05602 -0.24648,-0.17242 -0.29083,-0.31661l-0.02463,-0.07389c-0.06919,0.29307 -0.05131,0.48792 0.20067,0.43643zM279.39644,124.4745c0.01641,-0.1243 0.08531,-0.2597 0.27535,-0.35472c0.44722,-0.22361 0.67082,0.22361 0.67082,0.22361l0.25279,0.62361c-0.00005,0.00926 -0.00017,0.01851 -0.00036,0.02775c0.64418,1.20827 0.86957,3.37117 -1.1977,2.86254c-1.3947,-0.34315 -0.59188,-2.08046 -0.60194,-2.89029c0,0 0,-0.5 0.5,-0.5c0.03625,0 0.06986,0.00263 0.10104,0.0075z" fill="#740c0c" stroke="none" stroke-width="0.5" stroke-linecap="butt"/><path d="M263.73907,132.51306c1.16029,0.26154 0.86875,2.57978 -0.12879,2.74057c-1.255,0.20228 -1.33265,-0.61559 -1.15589,-1.44378c-0.05899,-0.12257 -0.05899,-0.24284 -0.05899,-0.24284l0.22265,-0.81602c0.06349,-0.03299 0.12518,-0.0626 0.1851,-0.08895c0.0062,-0.01824 0.01218,-0.03597 0.0179,-0.05314c0,0 0.15812,-0.47434 0.63245,-0.31623c0.1503,0.0501 0.2371,0.13195 0.28555,0.2204z" fill="#740c0c" stroke="none" stroke-width="0.5" stroke-linecap="butt"/><path d="M272.0954,127.067c0.8732,0.01085 1.21685,-0.28621 1.8,-0.36965v-0.23034h0.6c0.27614,0 0.5,0.22386 0.5,0.5c0,0.13807 -0.05597,0.26307 -0.14645,0.35355l-0.4,0.4c-1.08546,1.08546 -1.92416,1.42733 -2.9777,0.6602c-1.14905,1.96568 -3.65125,4.3279 -5.67935,2.7836c-1.06005,-0.80718 -1.1809,-2.46942 -1.57085,-3.63924c0,0 -0.15811,-0.47434 0.31623,-0.63245c0.47434,-0.15811 0.63245,0.31623 0.63245,0.31623c0.3279,0.98368 0.4095,2.44127 1.22915,3.16076c1.44706,1.27023 3.61644,-1.36988 4.38601,-2.82836c0.00308,-0.10156 0.04381,-0.2147 0.15695,-0.32784c0.00065,-0.00065 0.0013,-0.0013 0.00195,-0.00194c0.0231,-0.05396 0.04319,-0.10486 0.06009,-0.15227c-0.00558,-0.02989 -0.00849,-0.06072 -0.00849,-0.09223c0,-0.06319 0.01173,-0.12365 0.03312,-0.17932c0.04874,-0.14343 0.16918,-0.32068 0.46688,-0.32068c0.29771,0 0.41815,0.17726 0.46688,0.32068c0.02139,0.05566 0.03312,0.11612 0.03312,0.17932c0,0.02451 -0.00177,0.04861 -0.00518,0.07218l-0.00199,0.02782z" fill="#740c0c" stroke="none" stroke-width="0.5" stroke-linecap="butt"/><path d="M248.03746,130.67709c0.09437,-1.00033 1.26467,-1.81562 2.11543,-1.54414c2.3162,-0.86606 1.92699,5.33238 -1.44883,3.69599c-1.00863,-0.48892 -1.0858,-1.39712 -0.6666,-2.15185z" fill="#740c0c" stroke="none" stroke-width="0.5" stroke-linecap="butt"/><path d="M246.94994,127.53187c0.13017,0.03188 0.27542,0.10454 0.43782,0.22951c0.42336,0.32579 0.49994,0.65448 0.37981,0.9399c-0.00755,0.24201 -0.25332,0.49968 -0.88082,0.72767c-0.03513,0.01277 -0.06937,0.02469 -0.10272,0.03579c-0.02878,0.14553 -0.13034,0.40227 -0.48862,0.40227c-0.32683,0 -0.44002,-0.21364 -0.47923,-0.36162c-0.14275,-0.04634 -0.25753,-0.12651 -0.32639,-0.24603c-0.64102,-1.11273 -0.0468,-1.48417 0.69505,-1.45804c0.05323,-0.07156 0.10632,-0.13515 0.15701,-0.18787c0,0 0.29045,-0.29045 0.60809,-0.08158z" fill="#740c0c" stroke="none" stroke-width="0.5" stroke-linecap="butt"/><path d="M243.20989,124.25447c0.03268,-0.14745 0.13908,-0.38747 0.48551,-0.38747c0.5,0 0.5,0.5 0.5,0.5c0,0.03368 0.00005,0.06735 0.00016,0.10103c0.48911,0.13483 0.97233,0.30566 1.40493,0.47861l0.01618,-0.06472l0.78985,0.19747c0.22266,0.05053 0.38888,0.24966 0.38888,0.48761c0,0.1763 -0.09126,0.3313 -0.22911,0.42033l-0.59355,0.3957l-0.01113,-0.01669l-0.04655,0.04982c-0.38128,0.09688 -0.77903,-0.19141 -1.17041,-0.15159c-0.18998,0.01933 -0.34973,0.09872 -0.49173,0.21477c0.11451,2.32111 0.35814,4.63632 0.336,6.96775l-0.0468,0.06882l0.0276,0.0092l-0.19635,0.58906c-0.06284,0.20431 -0.25307,0.35283 -0.47799,0.35283c-0.22492,0 -0.41515,-0.14852 -0.47799,-0.35283l-0.19635,-0.58906l0.19479,-0.06493c-0.38206,-0.87044 -0.87441,-2.09193 -1.05368,-2.81113c-0.06477,-0.01786 -0.12427,-0.04843 -0.17566,-0.08885c-0.19513,0.18431 -0.44482,0.33805 -0.60599,0.29342c-0.34824,-0.09644 -0.40186,-0.60335 -0.55947,-0.92851c-0.57094,-1.17795 -0.37636,-2.72909 -0.8,-4l-0.1963,-0.58893c-0.01899,-0.05284 -0.02935,-0.1098 -0.02935,-0.16918c0,-0.27614 0.22386,-0.5 0.5,-0.5c0.17631,0 0.3313,0.09125 0.42033,0.2291l0.01689,0.02533c0.36554,-0.7022 1.26672,-0.81692 2.27727,-0.66697zM243.22868,127.77767c0.05639,0.39247 0.10398,0.78688 0.13542,1.12938c0.00959,0.01411 0.01917,0.02822 0.02873,0.04236c-0.02526,-0.38628 -0.05039,-0.77253 -0.07381,-1.15879l-0.05257,-0.05258c-0.01245,0.01343 -0.02504,0.02664 -0.03776,0.03963zM244.22536,125.85016c0.11783,-0.04266 0.23731,-0.08035 0.35334,-0.1136c-0.11892,-0.02232 -0.23927,-0.05042 -0.36036,-0.08244c0.00221,0.06535 0.00454,0.1307 0.00702,0.19604z" fill="#740c0c" stroke="none" stroke-width="0.5" stroke-linecap="butt"/><path d="M265.54055,129.06335c-0.15046,0.01527 -0.41034,-0.01077 -0.5195,-0.33824c-0.15812,-0.47434 0.31623,-0.63245 0.31623,-0.63245c0.9665,-0.32216 4.89235,-2.03831 5.60533,-0.54927c0.46897,0.97943 -0.68791,1.31156 -1.02189,1.88648c-1.17053,2.01499 -1.91885,1.8189 -3.88819,1.16246c-0.55572,-0.5881 -0.65967,-1.10482 -0.49198,-1.52897zM269.94004,127.92746c0.07757,0.12708 0.07676,0.24912 0.04858,0.34911c0.12866,-0.09671 0.18011,-0.19002 0.05957,-0.28596c-0.03134,-0.02495 -0.06754,-0.0459 -0.10815,-0.06315zM266.77834,129.21583l0.01706,0.05118h0.01c-0.00369,-0.01815 -0.00638,-0.03665 -0.00804,-0.05545c-0.00639,0.00141 -0.01273,0.00283 -0.01902,0.00428z" fill="#740c0c" stroke="none" stroke-width="0.5" stroke-linecap="butt"/><path d="M219.27953,125.167c0,-0.5 0.5,-0.5 0.5,-0.5h0.2c0.09276,0.00864 0.20466,-0.01788 0.32975,-0.0648c-0.16252,-0.05271 -0.32507,-0.1066 -0.48786,-0.16087c0,0 -0.47434,-0.15811 -0.31623,-0.63245c0.15812,-0.47434 0.63245,-0.31623 0.63245,-0.31623c0.56139,0.18713 1.11227,0.36458 1.66926,0.50288c0.1842,-0.01941 0.35708,0.00859 0.5066,0.11375c0.1493,0.02974 0.29939,0.05609 0.45058,0.07851c0.33145,-0.07005 0.60531,-0.03145 0.84825,0.08032c0.08195,0.00316 0.16437,0.00497 0.24729,0.00534l0.05021,0.10263l0.02781,-0.08343l0.58907,0.19635c0.20431,0.06284 0.35282,0.25307 0.35282,0.47799c0,0.27614 -0.22386,0.5 -0.5,0.5c-0.05938,0 -0.11635,-0.01035 -0.16919,-0.02935l-0.53113,-0.17705c-0.16036,0.00026 -0.31944,-0.00522 -0.47742,-0.01581c-0.32895,0.05656 -0.67095,0.07021 -0.99694,0.58507c-0.26582,0.41984 0.10144,1.64586 -0.27177,1.89069c-1.38409,0.90798 -1.51086,-0.34864 -1.46675,-1.30584c-0.10986,-0.07823 -0.20898,-0.19434 -0.29243,-0.35536c-0.04829,-0.09319 -0.06688,-0.1912 -0.06598,-0.29236h-0.0284v-0.10766c-0.03347,0.00348 -0.06682,0.00607 -0.1,0.00767h-0.2c0,0 -0.5,0 -0.5,-0.5zM221.27871,125.27203c0.05366,-0.03647 0.09864,-0.06648 0.13556,-0.09071c-0.0318,0.0182 -0.06856,0.03862 -0.10958,0.06052l-0.02855,0.02855z" fill="#740c0c" stroke="none" stroke-width="0.5" stroke-linecap="butt"/><path d="M211.83942,124.81277c-0.5,0 -0.5,-0.5 -0.5,-0.5v-0.2c0,-0.68103 -1.02043,-1.93373 -1.61463,-2.98689c-0.15969,0.16835 -0.39601,0.22379 -0.7103,0.08628c-0.02154,-0.00105 -0.04271,-0.00348 -0.06345,-0.00718c-1.44545,0.48252 -1.48059,-0.33032 -0.96273,-1.21909c-0.2515,-0.16052 -0.49207,-0.33855 -0.70466,-0.51736l-0.19779,0.19779l-0.4,-0.4c-0.09048,-0.09048 -0.14644,-0.21549 -0.14644,-0.35356c0,-0.0308 0.00279,-0.06095 0.00812,-0.09022c-1.42471,0.32591 -3.66921,0.81341 -4.36495,0.57685l-0.12715,0.19071l-0.01147,-0.00765l0.00362,0.01909c-0.21419,0.28499 -0.46437,0.54692 -0.73925,0.78014l0.08463,0.08463l-0.4,0.4c-0.09048,0.09048 -0.21548,0.14644 -0.35355,0.14644c-0.27614,0 -0.5,-0.22386 -0.5,-0.5v-0.55353c-0.2339,-1.16736 -1.24769,-1.06284 -2.10348,-0.63987l-0.1762,0.2643c-0.08902,0.13785 -0.24402,0.2291 -0.42032,0.2291c-0.2442,0 -0.44751,-0.17507 -0.49128,-0.40654c-0.20905,0.15391 -0.5335,0.22899 -0.77158,0.33186l0.03754,-1.28819c0.41889,-0.43569 0.84442,-0.86333 1.27177,-1.29068c0,0 0.35355,-0.35356 0.70711,0c0.35356,0.35356 0,0.7071 0,0.7071c-0.02545,0.02545 -0.0509,0.05092 -0.07634,0.07638c0.78389,-0.09139 2.20607,0.82675 2.78969,1.53253c0.09531,-0.16061 0.22443,-0.31718 0.32282,-0.44844l0.38995,-0.58492c0.08902,-0.13785 0.24402,-0.2291 0.42033,-0.2291c0.13646,0 0.26016,0.05468 0.35038,0.1433c0.28365,-0.02932 0.69072,-0.29268 0.98325,-0.33888c0.67031,-0.10587 1.25638,0.51561 1.98628,0.40203c0.68869,-0.10717 1.39317,-0.73784 2.04465,-0.80519c0.64666,-0.06685 1.25069,0.35912 1.81191,0.98414c0.06299,-0.04819 0.12144,-0.08799 0.17257,-0.11785c0.83233,-0.48616 1.36449,-0.55179 1.95218,-0.37261l0.01627,-0.08134l0.9715,0.1943c0.2337,0.04197 0.41102,0.24633 0.41102,0.49211c0,0.27614 -0.22386,0.5 -0.5,0.5h-0.53973c-0.83929,0.28196 -0.61952,1.30764 -0.2522,2.29916c0.08829,0.15677 0.17201,0.31449 0.25023,0.47169l0.18891,-0.09445l0.39551,0.791c0.03658,0.06948 0.05728,0.14862 0.05728,0.2326c0,0.13281 -0.05178,0.25352 -0.13625,0.34306c0.08754,0.31229 0.13625,0.60294 0.13625,0.85694v0.2c0,0 0,0.5 -0.5,0.5z" fill="#740c0c" stroke="none" stroke-width="0.5" stroke-linecap="butt"/><path d="M199.11813,196.93743l0.5,-15.5l6,-14.25l-1.25,-13.5l5.25,-1l8,2.25l-3.5,-10.25l13.25,11l11.25,-0.25l7.25,2l1.25,2.25l1,-2.25l11.5,-4l2.5,2.5l8,-8.75l8,-1l-1.5,11l4.75,9.75l-1.25,5.75l2.75,10l-2.5,13l-21.25,-5l-3.25,-4.25l-1,2.5l-1.75,-1l-1,3.5l-15.75,0.25l-10.25,8.75l-15.75,-1.5l-7.5,9.5l-3.5,-1.75z" fill="#2b2b2b" stroke="#000000" stroke-width="0" stroke-linecap="round"/><path d="M280.36813,198.17439l-24.5,-3l-2.5,11l11.5,6.75l15.75,-5.25z" fill="#2b2b2b" stroke="#000000" stroke-width="0" stroke-linecap="round"/><path d="M235.61813,201.67439l-11.5,8.25l6.5,13l10,3.75l12.75,-11.75l-5,-5.5l2.75,-11.5l-9.75,0.75l-1.5,2z" fill="#2b2b2b" stroke="#000000" stroke-width="0" stroke-linecap="round"/><path d="M200.11813,214.92439l14,0.5l3.5,-3l4.25,14.25l-3.25,5l4.75,6.5l1.5,10l-8.25,5.75l-5.25,-1.75l-10.75,3.75l-1.25,-20.5l1.25,-12.25l-1.25,-4z" fill="#2b2b2b" stroke="#000000" stroke-width="0" stroke-linecap="round"/><path d="M281.89155,259.17505l-12,-9.5l-20.25,2.75l-2.75,8l-8.5,4.75l-1.25,6.5l3.5,5.5l4.75,0.75l12.25,18.5l5.75,-1l2,3.25l13.5,-1.75l3,2.5l4.25,-7.5l-3.5,-20.75l1,-4.75z" fill="#2b2b2b" stroke="#000000" stroke-width="0" stroke-linecap="round"/></g></g></svg>