<svg version="1.1" xmlns="http://www.w3.org/2000/svg" xmlns:xlink="http://www.w3.org/1999/xlink" width="35.2443" height="35.24396" viewBox="0,0,35.2443,35.24396"><g transform="translate(-222.91345,-162.91345)"><g data-paper-data="{&quot;isPaintingLayer&quot;:true}" stroke="none" stroke-miterlimit="10" stroke-dasharray="" stroke-dashoffset="0" style="mix-blend-mode: normal"><path d="M258.15774,170.42694v20.49804c0,4.00745 -3.22497,7.23243 -7.23242,7.23243h-20.5c-3.66107,0 -6.66147,-2.69385 -7.1543,-6.21484c0.7952,3.03475 3.54108,5.26367 6.83204,5.26367h20.0332c3.9166,0 7.07032,-3.15372 7.07032,-7.07031v-20.03321c0,-3.2976 -2.23906,-6.0451 -5.28321,-6.83398c3.52994,0.48496 6.23438,3.49081 6.23438,7.15821z" fill-opacity="0.29839" fill="#000000" fill-rule="evenodd" stroke-width="4.54219" stroke-linecap="round" stroke-linejoin="round"/><path d="M229.98311,162.91345h20.03379c3.9166,0 7.06966,3.15307 7.06966,7.06966v20.03379c0,3.91659 -3.15306,7.06966 -7.06966,7.06966h-20.03379c-3.91659,0 -7.06966,-3.15307 -7.06966,-7.06966v-20.03379c0,-3.91659 3.15307,-7.06966 7.06966,-7.06966z" fill="#760c0c" fill-rule="evenodd" stroke-width="4.43922" stroke-linecap="round" stroke-linejoin="round"/><g fill-rule="nonzero" stroke-width="0" stroke-linecap="butt" stroke-linejoin="miter"><path d="M226.51432,178.53952c0,0 0.7312,-8.88328 4.18392,-9.83403c5.39169,-1.48466 7.75865,3.38703 12.51164,6.40446c4.56146,2.89584 11.17463,2.7194 10.27866,9.01845c-0.63165,4.44082 -4.40992,7.37368 -4.40992,7.37368c0,0 -2.73806,-0.28044 -6.39028,-2.37854c-1.75234,-1.00666 -5.23101,-3.82504 -8.52664,-6.00937c-3.95998,-2.62465 -7.64739,-4.57466 -7.64739,-4.57466z" fill="#9b0f0f"/><path d="M242.49285,175.76426c0,0 1.92657,-1.47218 2.83675,-1.93413c0.72761,-0.36929 2.20018,-0.6224 2.20018,-0.6224l0.22777,1.54038c0,0 -1.49201,-0.3196 -2.29682,-0.05065c-0.8692,0.29048 -2.55347,1.37743 -2.55347,1.37743z" fill="#000000"/></g></g></g></svg>