<svg version="1.1" xmlns="http://www.w3.org/2000/svg" xmlns:xlink="http://www.w3.org/1999/xlink" width="116.36995" height="254.94364" viewBox="0,0,116.36995,254.94364"><g transform="translate(-181.73901,-50.02147)"><g data-paper-data="{&quot;isPaintingLayer&quot;:true}" fill-rule="nonzero" stroke-linejoin="miter" stroke-miterlimit="10" stroke-dasharray="" stroke-dashoffset="0" style="mix-blend-mode: normal"><g data-paper-data="{&quot;index&quot;:null}" stroke-width="0"><path d="M283.49161,100.16058l5.62858,-1.44119l0.63027,-48.69788l6.97862,56.18978l-15.23347,6.9779z" fill="#b31212" stroke="#000000" stroke-linecap="round"/><path d="M276.67159,87.77367c5.4893,0.32537 9.52394,8.43928 9.0116,18.12294c-0.51234,9.68366 -5.37763,17.27004 -10.86693,16.94467c-5.48931,-0.32537 -9.52394,-8.43927 -9.0116,-18.12293c0.51234,-9.68366 5.37763,-17.27005 10.86693,-16.94468z" fill="#990f0f" stroke="none" stroke-linecap="butt"/><path d="M276.86492,88.645c3.65496,0 6.61788,4.63625 6.61788,10.35536c0,5.7191 -2.96292,10.35536 -6.61788,10.35536c-3.65496,0 -6.61788,-4.63625 -6.61788,-10.35536c0,-5.7191 2.96292,-10.35536 6.61788,-10.35536z" fill="#b31212" stroke="none" stroke-linecap="butt"/><path d="M289.53448,74.40529l0.21599,-23.85507l3.27432,29.16734z" fill="#740c0c" stroke="#000000" stroke-linecap="round"/></g><path d="" fill="#000000" stroke="none" stroke-width="1.5" stroke-linecap="butt"/><path d="" fill="#ffffff" stroke="#000000" stroke-width="1.5" stroke-linecap="butt"/><path d="" fill="#ffffff" stroke="#000000" stroke-width="1.5" stroke-linecap="butt"/><path d="" data-paper-data="{&quot;index&quot;:null}" fill="#000000" stroke="none" stroke-width="1.5" stroke-linecap="butt"/><path d="" fill="#000000" stroke="none" stroke-width="1.5" stroke-linecap="butt"/><path d="" fill="#ffffff" stroke="#000000" stroke-width="1.4" stroke-linecap="butt"/><path d="" fill="#000000" stroke="none" stroke-width="1.5" stroke-linecap="butt"/><path d="" fill="#ffffff" stroke="#000000" stroke-width="1.15" stroke-linecap="butt"/><path d="" fill="#ffffff" stroke="#000000" stroke-width="1.15" stroke-linecap="butt"/><path d="" fill="#000000" stroke="none" stroke-width="1.5" stroke-linecap="butt"/><path d="" data-paper-data="{&quot;index&quot;:null}" fill="#ffffff" stroke="#000000" stroke-width="1" stroke-linecap="butt"/><path d="M271.9122,304.87014l-0.43584,-136.98694h18.89747l1.74237,56.96395l1.58593,0.08428l0.00219,79.93871z" data-paper-data="{&quot;index&quot;:null}" fill="#740c0c" stroke="none" stroke-width="NaN" stroke-linecap="butt"/><path d="M284.162,154.28215c7.70269,0 13.94696,9.39625 13.94696,20.9871c0,11.59086 -6.24427,19.51866 -13.94696,19.51866c-7.70269,0 -13.94696,-7.9278 -13.94696,-19.51866c0,-11.59086 6.24427,-20.9871 13.94696,-20.9871z" data-paper-data="{&quot;index&quot;:null}" fill="#990f0f" stroke="none" stroke-width="0" stroke-linecap="butt"/><path d="M296.95829,183.63984c0,0 -0.10682,0.52539 -0.21491,0.80425c-0.11716,0.30223 -0.46306,0.94468 -0.46306,0.94468c0,0 -4.223,-3.64046 -5.74114,-6.40527c-2.07956,-3.78724 -5.59076,-14.23206 -5.59076,-14.23206l0.48427,-0.81617c0,0 4.29073,10.82657 6.37519,14.39023c1.65987,2.83776 5.15042,5.31432 5.15042,5.31432z" data-paper-data="{&quot;index&quot;:null}" fill="#7e0d0d" stroke="#7e0d0d" stroke-width="0" stroke-linecap="round"/><path d="M292.19509,224.90834l-19.05254,1.04936l0.49811,-1.34917l18.40224,-1.64899z" data-paper-data="{&quot;index&quot;:null}" fill="#420707" stroke="#000000" stroke-width="0" stroke-linecap="round"/><path d="M273.85454,252.5647v-4.897h19.7582v4.897z" data-paper-data="{&quot;index&quot;:null}" fill="#510909" stroke="none" stroke-width="0" stroke-linecap="butt"/><path d="M272.69228,268.42431v-10.14377h20.92044v10.14377z" data-paper-data="{&quot;index&quot;:null}" fill="#420707" stroke="none" stroke-width="0" stroke-linecap="butt"/><path d="M271.99494,300.60447v-25.5343h21.50156v25.5343z" data-paper-data="{&quot;index&quot;:null}" fill="#380606" stroke="none" stroke-width="0" stroke-linecap="butt"/><path d="M186.14366,304.87014l0.00219,-79.93871l1.58593,-0.08428l1.74237,-56.96395h18.89747l-0.43584,136.98694z" fill="#740c0c" stroke="none" stroke-width="NaN" stroke-linecap="butt"/><path d="M209.63293,175.26928c0,11.59086 -6.24427,19.51866 -13.94696,19.51866c-7.70269,0 -13.94696,-7.9278 -13.94696,-19.51866c0,-11.59086 6.24427,-20.9871 13.94696,-20.9871c7.70269,0 13.94696,9.39625 13.94696,20.9871z" fill="#990f0f" stroke="none" stroke-width="0" stroke-linecap="butt"/><path d="M182.88965,183.63984c0,0 3.49056,-2.47656 5.15042,-5.31432c2.08446,-3.56365 6.37519,-14.39023 6.37519,-14.39023l0.48427,0.81617c0,0 -3.5112,10.44482 -5.59076,14.23206c-1.51815,2.7648 -5.74114,6.40527 -5.74114,6.40527c0,0 -0.34589,-0.64245 -0.46306,-0.94468c-0.1081,-0.27885 -0.21491,-0.80425 -0.21491,-0.80425z" fill="#7e0d0d" stroke="#7e0d0d" stroke-width="0" stroke-linecap="round"/><path d="M187.80504,222.9595l18.40224,1.64899l0.49811,1.34917l-19.05254,-1.04936z" fill="#420707" stroke="#000000" stroke-width="0" stroke-linecap="round"/><path d="M186.23528,252.56468v-4.897h19.7582v4.897z" fill="#510909" stroke="none" stroke-width="0" stroke-linecap="butt"/><path d="M186.23528,268.42431v-10.14377h20.92044v10.14377z" fill="#420707" stroke="none" stroke-width="0" stroke-linecap="butt"/><path d="M186.3515,300.60447v-25.5343h21.50156v25.5343z" fill="#380606" stroke="none" stroke-width="0" stroke-linecap="butt"/><path d="M206.2301,304.96511l-1.09625,-63.07364l-2.89794,-37.60497l74.79383,-1.04936l-2.86629,38.97729l-0.81718,62.75068z" fill="#b31212" stroke="none" stroke-width="0" stroke-linecap="butt"/><path d="M203.41167,228.06709l-2.13296,-24.13031l76.12716,-1.04936l-2.04562,24.46626l-10.25465,6.11946l-25.24635,-5.68912l-23.8377,5.38208z" fill="#990f0f" stroke="none" stroke-width="0" stroke-linecap="butt"/><path d="M239.76473,214.52492l-25.22968,2.90698l-20.67908,-9.4601l-0.58112,-54.78399l6.07078,-5.26843l40.41909,-7.46941l40.09741,7.77403l6.1019,4.96383l-0.58112,54.78399l-20.67907,9.4601z" fill="#666666" stroke="#000000" stroke-width="0" stroke-linecap="butt"/><path d="M193.27486,153.6644l6.07078,-5.26843l40.41909,-7.46941l40.09741,7.77403l6.1019,4.96383l-46.31972,9.4442z" fill="#727272" stroke="#000000" stroke-width="0" stroke-linecap="butt"/><g stroke-width="0"><path d="M197.49431,113.18915l-15.23347,-6.9779l6.97862,-56.18978l0.63027,48.69788l5.62858,1.44119z" fill="#b31212" stroke="#000000" stroke-linecap="round"/><path d="M213.18522,104.71833c0.51234,9.68366 -3.52229,17.79756 -9.0116,18.12293c-5.4893,0.32537 -10.35459,-7.26101 -10.86693,-16.94467c-0.51234,-9.68366 3.5223,-17.79757 9.0116,-18.12294c5.4893,-0.32537 10.35459,7.26102 10.86693,16.94468z" fill="#990f0f" stroke="none" stroke-linecap="butt"/><path d="M208.74288,99.00039c0,5.71911 -2.96292,10.35536 -6.61788,10.35536c-3.65496,0 -6.61788,-4.63626 -6.61788,-10.35536c0,-5.71911 2.96292,-10.35536 6.61788,-10.35536c3.65496,0 6.61788,4.63626 6.61788,10.35536z" fill="#b31212" stroke="none" stroke-linecap="butt"/><path d="M185.96512,79.71756l3.27432,-29.16734l0.21599,23.85507z" fill="#740c0c" stroke="#000000" stroke-linecap="round"/></g><path d="M204.29465,152.68642l-3.19043,-90.1125l38.2562,-6.36089l38.88535,7.42103l-3.7307,89.05236l-34.51227,7.42103z" fill="#666666" stroke="none" stroke-width="0" stroke-linecap="butt"/><path d="M239.36045,56.21302l38.88535,7.42103l-3.7307,89.05236l-34.51227,7.42103z" fill="#515151" stroke="none" stroke-width="0" stroke-linecap="butt"/><path d="M209.65854,148.10746l-2.70587,-79.84771l32.55972,-5.6363l32.86549,6.5757l-3.16408,78.90832l-29.2705,6.57569z" fill="#0c0c0c" stroke="none" stroke-width="0" stroke-linecap="butt"/><path d="M209.65854,148.10746l-2.70587,-79.84771l32.80422,-5.6363l0.18641,92.05971z" fill="#191919" stroke="none" stroke-width="0" stroke-linecap="butt"/><path d="M233.51115,110.4588c0,0 -6.02194,1.21446 -10.7631,-1.40688c-4.74115,-2.62136 -6.40614,-8.08587 -6.40614,-8.08587c0,0 6.02194,-0.88112 10.7631,1.74023c4.74116,2.62135 6.40614,7.75252 6.40614,7.75252z" fill="#331717" stroke="none" stroke-width="0" stroke-linecap="butt"/><path d="M263.23598,100.966c0,0 -1.66499,5.13118 -6.40615,7.75254c-4.74115,2.62136 -10.76309,1.74022 -10.76309,1.74022c0,0 1.66499,-5.13117 6.40615,-7.75253c4.74115,-2.62136 10.7631,-1.74023 10.7631,-1.74023z" data-paper-data="{&quot;index&quot;:null}" fill="#331717" stroke="none" stroke-width="0" stroke-linecap="butt"/><g fill="#331717" stroke="none" stroke-width="0" stroke-linecap="butt"><path d="M245.7068,89.55536l-14.99748,-16.88428l2.31829,-2.09408l14.99748,16.88428z"/><path d="M231.01536,87.30501l14.99748,-16.88428l2.31829,2.09408l-14.99748,16.88429z" data-paper-data="{&quot;index&quot;:null}"/></g><path d="M222.17313,139.12939l17.75157,-5.00156l17.34038,5.00156l-17.41822,-1.55659z" fill="#331717" stroke="none" stroke-width="0" stroke-linecap="butt"/><path d="M214.8182,217.38443l24.64285,-20.76191l25.14286,21l-25.28571,-2.80952z" fill="#585858" stroke="#000000" stroke-width="0" stroke-linecap="round"/></g></g></svg>