<svg version="1.1" xmlns="http://www.w3.org/2000/svg" xmlns:xlink="http://www.w3.org/1999/xlink" width="34.17311" height="34.17311" viewBox="0,0,34.17311,34.17311"><g transform="translate(-222.91352,-162.9135)"><g data-paper-data="{&quot;isPaintingLayer&quot;:true}" stroke-miterlimit="10" stroke-dasharray="" stroke-dashoffset="0" style="mix-blend-mode: normal"><path d="M229.98319,162.9135h20.03378c3.9166,0 7.06966,3.15307 7.06966,7.06966v20.03379c0,3.91659 -3.15306,7.06966 -7.06966,7.06966h-20.03378c-3.91659,0 -7.06967,-3.15307 -7.06967,-7.06966v-20.03379c0,-3.91659 3.15308,-7.06966 7.06967,-7.06966z" fill-opacity="0.09677" fill="#191919" fill-rule="evenodd" stroke="none" stroke-width="4.43922" stroke-linecap="round" stroke-linejoin="round"/><g fill-rule="nonzero" stroke-linejoin="miter"><path d="M229.10852,173.34351c3.67628,-6.01519 11.53277,-7.91127 17.54797,-4.23499c6.01519,3.67628 7.91127,11.53277 4.23499,17.54797c-3.67628,6.01519 -11.53277,7.91127 -17.54797,4.23499c-6.01519,-3.67628 -7.91127,-11.53277 -4.23499,-17.54797z" fill="#bfbfbf" stroke="none" stroke-width="NaN" stroke-linecap="butt"/><path d="M230.89509,174.3645c3.06647,-5.01742 9.61975,-6.59897 14.63717,-3.5325c5.01742,3.06647 6.59897,9.61975 3.5325,14.63717c-3.06647,5.01742 -9.61975,6.59897 -14.63717,3.5325c-5.01742,-3.06647 -6.59897,-9.61975 -3.5325,-14.63717z" fill="#ffffff" stroke="none" stroke-width="NaN" stroke-linecap="butt"/><path d="M239.68324,179.79813l4.36192,-8.98459l1.16488,0.14457l-5.32664,9.34271z" fill="#bfbfbf" stroke="#000000" stroke-width="0" stroke-linecap="round"/><path d="M239.65868,179.62375l9.79005,4.45132l-0.85937,0.79957l-8.7984,-4.72622z" data-paper-data="{&quot;index&quot;:null}" fill="#bfbfbf" stroke="#000000" stroke-width="0" stroke-linecap="round"/><path d="M239.31079,179.69695c0.17423,-0.28508 0.54658,-0.37494 0.83166,-0.20071c0.28508,0.17423 0.37494,0.54658 0.20071,0.83166c-0.17423,0.28508 -0.54658,0.37494 -0.83166,0.20071c-0.28508,-0.17423 -0.37494,-0.54658 -0.20071,-0.83166z" fill="#bfbfbf" stroke="none" stroke-width="NaN" stroke-linecap="butt"/></g></g></g></svg>