<svg version="1.1" xmlns="http://www.w3.org/2000/svg" xmlns:xlink="http://www.w3.org/1999/xlink" width="100.149" height="251.13315" viewBox="0,0,100.149,251.13315"><g transform="translate(-191.12052,-54.60626)"><g data-paper-data="{&quot;isPaintingLayer&quot;:true}" fill-rule="nonzero" stroke-linejoin="miter" stroke-miterlimit="10" stroke-dasharray="" stroke-dashoffset="0" style="mix-blend-mode: normal"><path d="M210.20123,99.55554c0.60745,-2.21127 5.14939,-41.35411 39.49782,-38.35528c42.32484,4.51418 32.19926,41.28631 33.70697,48.37769c0.33046,1.55427 0.41825,3.58305 0.38046,5.90951c-1.1876,4.26726 -3.59587,7.90081 -4.16862,12.25309c-0.11843,-0.06908 -0.19302,-0.06865 -0.19302,-0.06865c0,0 0.05966,0.19352 0.13496,0.57717c-0.02315,0.23955 -0.04053,0.48137 -0.05166,0.72568c-0.06445,1.41506 -0.25895,4.59066 0.00612,7.47401c-0.27172,1.88432 -0.73003,4.06468 -1.4677,6.53393c-2.68495,9.21404 -9.38899,23.72275 -9.38899,23.72275l-0.7934,-2.46851c0,0 -1.247,2.05585 -2.46706,3.04329c-1.22007,0.98743 -3.62269,2.47143 -3.62269,2.47143l0.38477,-3.68522c0,0 -7.9521,9.07902 -24.28355,6.83414c-15.38678,-2.23352 -23.42107,-12.76236 -23.42107,-12.76236l-1.35114,3.76339c0,0 -0.74769,-2.64527 -1.41757,-6.09004c-0.44059,-2.26574 -1.48743,-5.10556 -1.48743,-5.10556l-0.54694,3.51701c0,0 -1.13609,-4.11829 -2.02356,-8.73034c-0.8529,-4.43239 -1.45723,-9.31838 -1.51999,-11.56093c-0.12807,-4.57598 0.03975,-8.18886 0.03975,-8.18886l-1.82023,6.43854c0,0 -0.83401,-8.70924 0.16405,-14.18803c0.99806,-5.4788 5.10227,-18.22662 5.70972,-20.43789z" fill="#000000" stroke="none" stroke-width="1.5" stroke-linecap="butt"/><path d="M201.03045,304.39162c0,0 -0.63536,-94.38387 -0.79335,-118.01201c-0.05451,-8.15261 8.18688,-36.76129 40.20201,-36.9211c31.60235,-0.15775 39.85672,29.48704 39.84884,36.89673c-0.07659,46.24274 0.65429,117.98648 0.65429,117.98648l-10.49667,0.09614l-0.15882,-114.84311c0,0 0.07549,-3.0993 -2.81625,-3.15415c-3.43441,-0.06514 -2.94538,3.11562 -2.94538,3.11562l0.20548,114.86995l-48.21366,0.07222l-0.30539,-115.23309c0,0 0.27949,-2.919 -2.8856,-2.93443c-3.11083,-0.01515 -2.81569,2.90899 -2.81569,2.90899l0.35311,115.0668z" fill="#ffffff" stroke="#000000" stroke-width="2" stroke-linecap="butt"/><path d="M255.62762,200.33385c-0.57113,0 -1.03411,-0.46299 -1.03411,-1.03411c0,-0.57113 0.46299,-1.03413 1.03411,-1.03413c0.57113,0 1.03411,0.463 1.03411,1.03413c0,0.57113 -0.46299,1.03411 -1.03411,1.03411z" fill="#000000" stroke="none" stroke-width="1.5" stroke-linecap="butt"/><path d="M250.36776,204.56944c-4.4635,-0.31439 -6.55245,-1.79392 -6.16985,-2.58011c0.11788,-0.24224 2.84645,1.06355 6.97038,1.3048c6.40897,0.37493 8.51033,-0.63173 8.51033,-0.63173v1.34616c0,0 -2.4135,1.04672 -9.31086,0.56089z" fill="#000000" stroke="#000000" stroke-width="0" stroke-linecap="butt"/><path d="M222.55499,199.29974c0,-0.57113 0.46299,-1.03413 1.03411,-1.03413c0.57113,0 1.03413,0.463 1.03413,1.03413c0,0.57113 -0.463,1.03411 -1.03413,1.03411c-0.57113,0 -1.03411,-0.46299 -1.03411,-1.03411z" fill="#000000" stroke="none" stroke-width="1.5" stroke-linecap="butt"/><path d="M228.849,204.56944c-6.89736,0.48585 -9.31086,-0.56089 -9.31086,-0.56089v-1.34616c0,0 2.10136,1.00666 8.51033,0.63173c4.12393,-0.24126 6.85251,-1.54704 6.97039,-1.3048c0.3826,0.78618 -1.70634,2.26571 -6.16985,2.58011z" fill="#000000" stroke="#000000" stroke-width="0" stroke-linecap="butt"/><path d="M216.22782,300.25874c0,0 -6.39538,1.64097 -11.70016,2.06535c-5.30478,0.42438 -12.11603,-0.03844 -12.11603,-0.03844c0,0 -1.29783,-17.35229 -1.29109,-24.72678c0.00674,-7.37449 1.0087,-13.77904 1.33094,-18.84925c0.35427,-5.57422 2.34415,-13.91147 3.12064,-18.12932c1.53031,-8.31265 0.13235,-8.83528 1.12335,-17.25744c2.20496,-18.73918 0.71762,-24.8883 3.01633,-41.43897c2.29871,-16.55067 16.00929,-26.04248 16.00929,-26.04248z" fill="#b31212" stroke="#000000" stroke-width="0" stroke-linecap="round"/><path d="M265.62048,155.95514c0,0 13.52856,7.50317 15.79674,24.08278c2.26819,16.57961 2.33345,12.77255 2.86294,23.1472c0.32265,6.32201 -0.71045,13.26168 0.11335,20.36947c1.83056,15.79414 3.13689,24.6575 4.18764,40.52478c0.60462,9.13022 0.03932,23.8553 0.03932,23.8553c0,0 -6.39829,2.13648 -10.95517,1.05373c-4.55688,-1.08274 -12.54483,-6.63748 -12.54483,-6.63748z" data-paper-data="{&quot;index&quot;:null}" fill="#b31212" stroke="#000000" stroke-width="0" stroke-linecap="round"/><path d="M240.12946,261.12113c-0.81895,0 -1.48284,-0.66389 -1.48284,-1.48284c0,-0.81895 0.66389,-1.48284 1.48284,-1.48284c0.81895,0 1.48284,0.66389 1.48284,1.48284c0,0.81895 -0.66389,1.48284 -1.48284,1.48284z" data-paper-data="{&quot;index&quot;:null}" fill="#000000" stroke="none" stroke-width="1.5" stroke-linecap="butt"/><path d="M215.73284,305.7394c0,0 0.25,-34.30793 0.25,-48.59729c0,-11.27549 -0.25,-30.25919 -0.25,-30.25919c0,0 -4.32064,-11.45078 -4.83334,-20.98347c-0.5,-9.29647 4.83334,-49.9222 4.83334,-49.9222c0,0 2.7276,-2.38861 4.75045,-3.80483c2.02285,-1.41622 5.27722,-2.84617 5.27722,-2.84617c0,0 -2.17329,5.77819 -0.3562,11.2736c1.65341,5.00039 6.91176,9.76666 14.28179,9.73263c7.42656,-0.03429 13.19413,-4.70739 15.10215,-9.63672c2.13815,-5.52388 -0.0589,-11.36952 -0.0589,-11.36952c0,0 3.99239,1.5426 6.29133,2.99117c2.29894,1.44856 4.85053,3.65983 4.85053,3.65983c0,0 5.40682,39.9879 4.83333,50.18465c-0.5726,10.18093 -4.83333,20.97102 -4.83333,20.97102c0,0 -0.5,18.61675 -0.5,29.75919c0,14.27546 0.5,48.84731 0.5,48.84731z" fill="#740c0c" stroke="#000000" stroke-width="0" stroke-linecap="butt"/><path d="M223.15632,157.16251c0,0.5 -0.5,0.5 -0.5,0.5h-0.32461c-0.08769,1.23348 -0.00055,2.55134 0.10542,3.82683c0.3151,-0.18162 0.64871,-0.3506 0.99558,-0.52404c0,0 0.44721,-0.22361 0.67082,0.22361c0.22361,0.44721 -0.22361,0.67082 -0.22361,0.67082c-0.47397,0.23698 -0.93676,0.45512 -1.34942,0.72845c0.06874,0.82187 0.12581,1.60894 0.12581,2.32434c-0.06006,0.99407 1.29529,2.44378 1.88667,3.18301c0.17613,0.22016 0.35909,0.44996 0.54882,0.68522c0.04578,-0.10891 0.06929,-0.2304 0.06451,-0.36823c0,0 0,-0.5 0.5,-0.5c0.5,0 0.5,0.5 0.5,0.5c-0.01129,0.51898 -0.19479,0.86147 -0.45414,1.11111c1.26074,1.49856 2.77905,3.04162 4.54278,3.64167c-0.04843,-0.50781 -0.08863,-1.01511 -0.08863,-1.50278c0,0 0,-0.5 0.5,-0.5c0.5,0 0.5,0.5 0.5,0.5c0,0.58839 0.04015,1.16425 0.08847,1.73225c0.17335,0.02048 0.34882,0.03113 0.52641,0.03113c0.77335,0.38668 1.3945,0.1033 2.21521,0.24308c1.7998,0.30653 3.15439,1.5652 5.07358,1.25268c-0.23371,-0.68849 -0.37134,-1.35371 -0.62801,-2.10102c0,0 -0.15811,-0.47434 0.31623,-0.63246c0.47434,-0.15811 0.63246,0.31623 0.63246,0.31623c0.26604,0.81829 0.388,1.47884 0.65499,2.20056c1.76724,-0.48245 3.448,-1.36787 5.23476,-1.52362c0.55077,-0.27003 1.18189,-0.40491 1.83494,-0.50311c0.02993,-0.33228 0.05098,-0.66971 0.05098,-1.01571c0,0 0,-0.5 0.5,-0.5c0.5,0 0.5,0.5 0.5,0.5c0,0.29082 -0.02025,0.58613 -0.0493,0.88192c0.83819,-0.10956 1.66402,-0.24037 2.35796,-0.59386c2.08438,-1.0618 3.17614,-3.56882 5.22843,-4.71076c-0.09607,-0.81822 -0.28408,-1.64878 -0.28709,-2.3273c0,0 0,-0.5 0.5,-0.5c0.5,0 0.5,0.5 0.5,0.5c-0.002,0.36976 0.0323,0.74789 0.07786,1.12973c0.93893,-2.25054 1.84901,-4.71861 2.28537,-7.11346c-0.25555,-0.10837 -0.5126,-0.20743 -0.77135,-0.29193c0,0 -0.47434,-0.15811 -0.31623,-0.63246c0.15811,-0.47434 0.63246,-0.31623 0.63246,-0.31623c0.21399,0.07256 0.42734,0.15318 0.63987,0.23995c0.16355,-0.81672 0.34976,-1.79265 0.12057,-2.5156c-0.23673,0 -0.46437,0 -0.66856,0c0,0 -0.5,0 -0.5,-0.5c0,-0.5 0.5,-0.5 0.5,-0.5c0.11704,0 0.23407,0 0.35111,0c-0.06958,-0.52215 -0.03256,-1.03261 -0.29833,-1.52639l-0.05279,-0.47361c0,0 0,-0.5 0.5,-0.5c0.5,0 0.5,0.5 0.5,0.5l-0.05279,0.02639c0.32217,0.67763 0.16669,1.3367 0.38064,1.97361c0.22405,0 0.44809,0 0.67214,0h0.25c0,0 0.5,0 0.5,0.5c0,0.5 -0.5,0.5 -0.5,0.5c-0.17389,0 -0.3648,0 -0.56384,0c0.09967,0.59896 -0.08413,1.07311 -0.19262,1.83009c-0.04921,0.34333 -0.10182,0.68803 -0.15826,1.03348c0.64272,0.30311 1.27555,0.64173 1.8931,0.96153l0.44213,0.65441c0,0 0.27049,0.42052 -0.15002,0.69101c-0.42052,0.27049 -0.69101,-0.15002 -0.69101,-0.15002l-0.26902,-0.45116c-0.46384,-0.22049 -0.93083,-0.46171 -1.4023,-0.68954c-0.54649,2.94327 -1.39765,5.89603 -2.80462,8.47377c-0.02578,0.01388 -0.05142,0.02792 -0.07693,0.04213c0.03969,0.71487 -0.01552,1.41768 -0.32941,2.07792l0.05279,0.02639c0,0 0,0.5 -0.5,0.5c-0.5,0 -0.5,-0.5 -0.5,-0.5l0.05279,-0.47361c0.15987,-0.29704 0.24176,-0.63125 0.27348,-0.98611c-1.71952,1.37657 -2.86791,3.4264 -4.88492,4.42165c-0.84189,0.41541 -1.85646,0.52401 -2.85465,0.65516c-0.05629,0.47753 -0.10193,0.94436 -0.08669,1.3829l-0.75,0.5c0,0 -0.5,0 -0.5,-0.5c0,-0.26366 0.13903,-0.38829 0.27047,-0.4472c0.01757,-0.26117 0.04375,-0.52167 0.07221,-0.78326c-0.51836,0.09851 -1.0137,0.23541 -1.45676,0.46163c-1.71003,0.14906 -3.32073,0.94987 -5.00079,1.45184c0.07809,0.09914 0.25413,0.38484 -0.03157,0.67054c-0.35355,0.35355 -0.70711,0 -0.70711,0l-0.34366,-0.37995c-0.00306,-0.00613 -0.00611,-0.01225 -0.00915,-0.01837c-0.071,0.01365 -0.14217,0.02644 -0.21354,0.03831c-2.09869,0.3489 -3.4731,-0.93629 -5.41018,-1.25c-0.81286,-0.13164 -1.50615,0.1324 -2.28479,-0.25692c-0.06997,0 -0.13965,-0.00154 -0.20905,-0.00457c0.02298,0.27522 0.04336,0.54921 0.05736,0.82252c0.13027,0.05962 0.26657,0.18438 0.26657,0.44543c0,0.5 -0.5,0.5 -0.5,0.5l-0.75,-0.5c0.01548,-0.44563 -0.01333,-0.92197 -0.05627,-1.41099c-2.16049,-0.53311 -4.01492,-2.42132 -5.50473,-4.19842c-0.46554,0.2189 -0.89823,0.40795 -0.99179,0.83302l-0.69721,0.27639c0,0 -0.5,0 -0.5,-0.5c0,-0.5 0.5,-0.5 0.5,-0.5l-0.10881,0.15249c0.3093,-0.38064 0.85134,-0.60039 1.30849,-0.85591c-0.20326,-0.25043 -0.39877,-0.4951 -0.58636,-0.72959c-0.82163,-1.02704 -2.068,-2.45454 -2.11333,-3.81699c0,-0.47489 -0.01827,-0.96375 -0.04571,-1.46199c-0.09438,0.13268 -0.18048,0.2771 -0.25707,0.4356l-0.34366,0.37995c0,0 -0.35355,0.35355 -0.70711,0c-0.35355,-0.35355 0,-0.70711 0,-0.70711l0.15634,-0.12005c0.28483,-0.55556 0.64581,-0.97637 1.06372,-1.32505c-0.104,-1.45366 -0.21745,-2.95049 -0.13149,-4.38506c-0.4237,0.08003 -0.78571,0.22674 -1.3269,0.40805c0,0 -0.47434,0.15811 -0.63246,-0.31623c-0.15811,-0.47434 0.31623,-0.63246 0.31623,-0.63246c0.66432,-0.22021 1.14875,-0.40359 1.74279,-0.48315c0.12122,-0.87346 0.33984,-1.71273 0.70676,-2.49214c0.02778,-0.06372 0.06845,-0.12053 0.11872,-0.16713c0.10498,-0.10496 0.28692,-0.20988 0.54585,-0.08897c0.01117,0.00506 0.02213,0.01052 0.03285,0.01636c0.25352,0.13427 0.27938,0.34293 0.25859,0.49025c-0.00727,0.07197 -0.02981,0.13943 -0.06432,0.1991c-0.31963,0.60245 -0.5216,1.27883 -0.64178,2.00002h0.20866c0,0 0.5,0 0.5,0.5z" fill="#660a0a" stroke="none" stroke-width="0.5" stroke-linecap="butt"/><path d="M202.52228,244.08046c-0.5,0 -0.5,-0.5 -0.5,-0.5l0.05279,-0.47361c0.37049,-0.74097 0.69497,-1.4851 1.04018,-2.22598c-0.92909,-0.88284 -2.25813,-1.24412 -3.42276,-1.81919c-0.05525,0.12983 -0.11592,0.25791 -0.18359,0.38365l0.01337,0.38513c0,0 0,0.5 -0.5,0.5c-0.5,0 -0.5,-0.5 -0.5,-0.5l0.01337,-0.61488c0.10484,-0.22051 0.19613,-0.44348 0.27885,-0.66784c-0.02843,-0.02024 -0.05663,-0.04079 -0.08458,-0.06166c-0.93254,-0.69627 -1.73968,-1.73056 -2.56119,-2.55207c0,0 -0.35356,-0.35355 0,-0.7071c0.35356,-0.35356 0.7071,0 0.7071,0c0.73563,0.73563 1.55968,1.31977 2.40618,1.85268c0.15241,-0.49926 0.31547,-0.99403 0.54306,-1.47273c0,0 0.2236,-0.44721 0.67082,-0.2236c0.44721,0.2236 0.2236,0.67082 0.2236,0.67082c-0.26226,0.48726 -0.41619,1.01934 -0.5642,1.55804c1.20013,0.71604 2.40005,1.39861 3.41674,2.32586c0.23632,-0.46453 0.49216,-0.92669 0.78422,-1.38486c0,0 0.27735,-0.41602 0.69338,-0.13867c0.41602,0.27735 0.13868,0.69337 0.13868,0.69337c-0.33696,0.47565 -0.63102,1.01272 -0.90332,1.57194c0.62894,0.7519 1.15124,1.62161 1.84085,2.29715c0.5921,0.60189 1.03151,1.73091 1.82531,2.1945c0.28206,-0.70774 0.595,-1.40392 0.57113,-2.09095c0,0 0,-0.5 0.5,-0.5c0.5,0 0.5,0.5 0.5,0.5c-0.01773,0.81473 -0.42645,1.5693 -0.7162,2.34302c1.11329,0.18124 2.31987,0.15597 3.4662,0.26137c0,-0.29953 0,-0.58701 0,-0.85439c0,0 0,-0.5 0.5,-0.5c0.5,0 0.5,0.5 0.5,0.5c0,0.33049 0,0.66096 0,0.99145c0.95826,0.18568 1.83581,0.54735 2.53038,1.30973c-0.029,0.31027 -0.04383,0.62465 -0.04383,0.9425c0,0.2389 0.00838,0.47585 0.02485,0.71056l-0.2086,-0.23062c-0.51424,-1.06411 -1.34162,-1.55502 -2.30279,-1.78629c0,0.68756 0,1.37513 0,2.06269v0.5c0,0 0,0.5 -0.5,0.5c-0.5,0 -0.5,-0.5 -0.5,-0.5c0,-0.79862 0,-1.77662 0,-2.71911c-1.24005,-0.11184 -2.58723,0.00083 -3.72908,-0.20837c-0.01804,0.14075 -0.02593,0.2831 -0.02092,0.42748l-0.39644,0.60355c0,0 -0.35355,0.35356 -0.7071,0c-0.35356,-0.35356 0,-0.7071 0,-0.7071l0.10355,0.10356c0.00526,-0.24161 0.04524,-0.48175 0.10645,-0.72048c-1.00266,-0.53376 -1.42017,-1.65224 -2.20999,-2.42597c-0.59274,-0.60254 -1.06632,-1.33315 -1.59519,-2.00417c-0.28648,0.64472 -0.56106,1.28826 -0.85405,1.87423l0.05279,0.0264c0,0 0,0.5 -0.5,0.5z" fill="#990f0f" stroke="none" stroke-width="0.5" stroke-linecap="butt"/><path d="M280.36343,187.15213c-0.5,0 -0.5,-0.5 -0.5,-0.5v-0.25c0,-1.03073 -0.12181,-1.86095 -0.37191,-2.61611c-0.86183,0.73135 -1.86919,1.36569 -2.78855,2.03579c0.46611,0.66959 0.86253,1.36693 1.14708,1.96544l0.01337,0.61488c0,0 0,0.5 -0.5,0.5c-0.5,0 -0.5,-0.5 -0.5,-0.5l0.01338,-0.38513c-0.23136,-0.42987 -0.56693,-1.01231 -0.95711,-1.59054c-0.5512,0.45714 -1.03606,0.94595 -1.39024,1.50301c-0.34656,0.51697 -0.68382,1.11528 -1.04415,1.71514c0.22819,0.4849 0.36695,0.99388 0.37812,1.50751v0.25c0,0 0,0.5 -0.5,0.5c-0.5,0 -0.5,-0.5 -0.5,-0.5v-0.25c0.00527,-0.15157 -0.01028,-0.30719 -0.04367,-0.46479c-0.55169,0.79466 -1.18398,1.5025 -1.98272,1.912l-0.5,0.25c0,0 -0.17907,0.08953 -0.36724,0.04198c-0.02713,-0.30787 -0.06821,-0.61174 -0.1226,-0.91096c0.02567,-0.01696 0.04263,-0.02545 0.04263,-0.02545l0.5,-0.25c0.78969,-0.38163 1.42228,-1.19753 1.97328,-2.07841c-0.55933,-0.88899 -1.48289,-1.69227 -2.22328,-2.02716c0,0 -0.44721,-0.2236 -0.22361,-0.67082c0.22361,-0.44721 0.67082,-0.22361 0.67082,-0.22361c0.82986,0.44053 1.69251,1.15019 2.32432,1.99484c0.27438,-0.48043 0.53232,-0.94203 0.78604,-1.32498c0.39188,-0.5676 1.01307,-1.10257 1.72617,-1.63638c-0.49062,-0.63225 -1.02708,-1.17499 -1.53375,-1.38905c0,0 -0.44721,-0.2236 -0.22361,-0.67082c0.22361,-0.44721 0.67082,-0.22361 0.67082,-0.22361c0.65659,0.35819 1.3031,0.98995 1.87827,1.7114c1.0034,-0.70787 2.08137,-1.43324 2.9192,-2.24817c-0.3904,-0.79232 -0.9413,-1.5534 -1.66151,-2.45366c0,0 -0.31235,-0.39043 0.07809,-0.70279c0.39044,-0.31235 0.70278,0.07809 0.70278,0.07809c0.65422,0.81777 1.18262,1.54619 1.58836,2.28294c0.49719,-0.66536 0.79987,-1.39511 0.77121,-2.2206c0,0 0,-0.5 0.5,-0.5c0.5,0 0.5,0.5 0.5,0.5c-0.02822,1.29733 -0.56133,2.29215 -1.33501,3.13472c0.39221,0.97395 0.58501,2.02716 0.58501,3.36528v0.25c0,0 0,0.5 -0.5,0.5z" fill="#990f0f" stroke="none" stroke-width="0.5" stroke-linecap="butt"/><path d="M233.50881,226.44993c0,0 4.78181,-2.83333 8,-2.83333c3.21819,0 7.5,2.83333 7.5,2.83333c0,0 -4.56653,-1.08333 -7.5,-1.08333c-2.93347,0 -8,1.08333 -8,1.08333z" fill="#660a0a" stroke="#000000" stroke-width="0" stroke-linecap="round"/><g><path d="M217.72238,113.23418c0.35657,-7.30733 2.51729,-16.97209 2.51729,-16.97209c0,0 3.38806,0.39351 14.20145,-1.34633c8.30752,-1.33667 21.58836,-6.79278 21.58836,-6.79278c0,0 -2.52522,2.70542 -3.94816,3.98976c-1.51275,1.3654 -4.5416,4.01721 -4.5416,4.01721c0,0 7.98657,-0.65568 15.15762,-2.82162c8.94894,-2.41557 11.27724,-4.65459 13.42992,-2.90576c2.54069,2.06405 -1.93118,23.12508 -2.94817,28.59804c-1.1403,5.56934 -3.72264,9.09964 -4.71943,12.01729c-0.99679,2.91764 -1.1879,6.03446 -4.23127,15.62804c-1.89927,5.98706 -5.26469,8.32186 -11.8052,13.26519c-6.54051,4.94334 -10.15859,8.02418 -14.09493,7.58823c-3.78819,-0.41954 -8.21324,-6.19682 -12.49947,-12.07287c-4.56413,-6.25705 -7.72285,-9.5385 -7.70798,-16.25393c0.01338,-6.04795 0.49187,-9.92673 0.82871,-15.26715c0.24618,-3.90316 -1.42185,-6.68056 -1.22713,-10.67123z" fill="#ffffff" stroke="#000000" stroke-width="1.5" stroke-linecap="butt"/><path d="M267.32677,104.35979c0,0 1.47136,0.50963 4.07972,1.64332c2.38243,1.0355 4.19097,2.29655 4.19097,2.29655l0.04444,1.18567c0,0 -6.79191,-4.02788 -14.67799,-4.37582c-6.30553,-0.27818 -10.24026,1.52045 -10.24026,1.52045l0.57739,-4.13698c0,0 3.31908,-1.29197 8.03596,-0.83884c4.8843,0.46923 7.94963,1.61699 7.94963,1.61699z" data-paper-data="{&quot;index&quot;:null}" fill="#000000" stroke="none" stroke-width="1.5" stroke-linecap="butt"/><path d="M249.19116,145.3714c0.53877,0.28279 2.88021,1.78078 5.64414,3.34199c2.78595,1.57364 6.86281,3.19308 6.82212,3.35679c-0.05164,0.20776 -10.37868,-1.10402 -13.64848,-1.11529c-2.74013,-0.00946 -6.72407,-0.15206 -6.72407,-0.15206c0,0 -6.89818,-2.05709 -12.85279,-4.11583c-4.77242,-1.65001 -10.10301,-2.97214 -10.10167,-3.06626c0.00179,-0.12694 3.92737,-0.2122 6.94623,-0.5141c1.19977,-0.34661 5.58457,-0.78016 5.58457,-0.78016c0,0 4.95085,0.35584 7.47254,1.54337c2.70196,1.27243 2.50087,2.7868 2.7435,2.84165c0,0 1.39753,-1.58422 2.61764,-1.78574c1.22012,-0.20151 5.09382,0.23439 5.49629,0.44563z" fill="#b3b3b3" stroke="#000000" stroke-width="1.4" stroke-linecap="butt"/><path d="M230.11506,147.5126c4.91889,1.66685 11.46291,4.30247 11.46291,4.30247c0,0 5.94077,-0.80572 8.61163,-0.74357c2.07065,0.04818 11.21464,0.72783 11.21106,1.1032c-0.0035,0.36701 -10.60078,11.64493 -22.56125,9.65207c-13.60188,-2.1861 -20.75049,-17.92464 -20.69142,-18.08757c0.05907,-0.16293 7.04819,2.10656 11.96708,3.77342z" fill="#b3b3b3" stroke="#000000" stroke-width="1.9" stroke-linecap="butt"/><path d="M241.38126,145.94116c-1.02534,-0.13167 -3.09399,-3.68452 -3.07267,-5.80234c0.01908,-1.89486 1.79199,-3.6293 4.24344,-3.31449c2.45146,0.31481 4.10536,1.02201 3.46366,4.66773c-0.5446,3.09401 -2.18298,4.76392 -4.63443,4.44911z" fill="#b3b3b3" stroke="#000000" stroke-width="1.15" stroke-linecap="butt"/><path d="M248.78714,116.55138c0,0 -0.40388,3.95049 -0.90202,7.06931c-0.9864,6.17579 -4.60862,27.39684 -4.60862,27.39684l-2.95848,-0.37121c0,0 -0.26491,-4.24103 0.09594,-9.56548c0.48844,-7.20712 1.62947,-16.21775 1.7434,-19.56962c0.108,-3.17725 -0.16076,-5.7821 -0.16076,-5.7821" fill="#b3b3b3" stroke="#000000" stroke-width="1.3" stroke-linecap="round"/><path d="M218.11878,123.49144c0,0 -4.44396,-4.11662 -4.97079,-9.68707c-0.55432,-5.86119 -0.20958,-9.83964 1.74892,-9.84939c1.95851,-0.00977 2.37844,2.70188 2.63793,8.76307c0.25948,6.06119 0.58395,10.7734 0.58395,10.7734z" data-paper-data="{&quot;index&quot;:null}" fill="#ffffff" stroke="#000000" stroke-width="1" stroke-linecap="butt"/><path d="M218.42063,119.55022c0,0 -3.16246,-3.35351 -3.20661,-8.9318c-0.02464,-3.11175 2.42961,-1.98688 2.42961,-1.98688" fill="none" stroke="#000000" stroke-width="0.25" stroke-linecap="round"/><path d="M222.25728,113.33236c0.69345,-4.843 5.93715,-8.24703 11.25649,-7.4854c5.31933,0.76164 8.41258,5.36362 7.71914,10.20663c-0.69345,4.843 -5.2101,8.19753 -10.52945,7.4359c-5.31933,-0.76164 -9.13964,-5.31413 -8.44619,-10.15714z" fill="#ffffff" stroke="#000000" stroke-width="1.4" stroke-linecap="butt"/><path d="M226.64376,114.01457c0.39101,-2.73087 2.92179,-4.62767 5.65264,-4.23666c2.73087,0.39101 4.62767,2.92179 4.23666,5.65264c-0.39101,2.73087 -2.92178,4.62767 -5.65264,4.23666c-2.73087,-0.39101 -4.62767,-2.92179 -4.23666,-5.65264z" fill="#000000" stroke="none" stroke-width="1.5" stroke-linecap="butt"/><path d="M249.0931,116.77931c0.82449,-4.82243 5.5447,-8.21917 10.81923,-7.54182c5.27452,0.67735 8.69382,5.11509 8.07066,9.96764c-0.62316,4.85255 -5.0096,8.5022 -10.78506,7.83195c-5.49351,-0.63753 -8.96588,-5.22146 -8.10482,-10.25777z" fill="#ffffff" stroke="#000000" stroke-width="1.4" stroke-linecap="butt"/><path d="M253.64746,117.45044c0.35899,-2.79549 2.91621,-4.77066 5.7117,-4.41167c2.79549,0.35899 4.77066,2.91621 4.41167,5.7117c-0.35899,2.79549 -2.9162,4.77066 -5.7117,4.41167c-2.79549,-0.35899 -4.77066,-2.91621 -4.41167,-5.7117z" fill="#000000" stroke="none" stroke-width="1.5" stroke-linecap="butt"/><path d="M222.2572,112.7958c0,0 1.21133,-8.93359 11.63882,-7.40273c9.37274,1.37086 8.27948,10.54772 8.27948,10.54772z" fill="#ffffff" stroke="#000000" stroke-width="1.15" stroke-linecap="butt"/><path d="M248.76973,116.33248c0,0 0.95987,-9.41261 12.26642,-7.60272c9.59267,1.56809 8.23957,10.78967 8.23957,10.78967z" fill="#ffffff" stroke="#000000" stroke-width="1.15" stroke-linecap="butt"/><path d="M227.0335,103.31528c0,0 3.57388,-1.37498 8.25765,-1.24008c5.19022,0.14948 7.7134,0.92372 7.7134,0.92372l-0.23432,4.14136c0,0 -3.7176,-1.16365 -7.88627,-1.53815c-5.57507,-0.50086 -6.77327,0.57488 -11.04986,0.48771c-3.66441,-0.0747 -6.70259,-0.70059 -6.70259,-0.70059l0.13119,-1.22482c0,0 3.55646,0.5313 5.19979,0.59883c1.35634,0.05572 4.0628,-0.42404 4.0628,-0.42404z" fill="#000000" stroke="none" stroke-width="1.5" stroke-linecap="butt"/><path d="M273.26178,119.87444c1.78255,-5.79895 2.87401,-8.3165 4.76651,-7.8122c1.89249,0.5043 1.2208,4.44076 -0.79648,9.9717c-1.91722,5.25658 -7.25714,8.11677 -7.25714,8.11677c0,0 1.50457,-4.47733 3.28712,-10.27628z" data-paper-data="{&quot;index&quot;:null}" fill="#ffffff" stroke="#000000" stroke-width="1" stroke-linecap="butt"/><path d="M274.18899,115.89305c0,0 2.65884,-0.46827 1.84875,2.5363c-1.45219,5.38613 -5.35937,7.83176 -5.35937,7.83176" data-paper-data="{&quot;index&quot;:null}" fill="none" stroke="#000000" stroke-width="0.25" stroke-linecap="round"/><path d="M221.79927,113.88352l-2.78451,-1.8699l2.97556,0.38212z" fill="#000000" stroke="#000000" stroke-width="0" stroke-linecap="round"/><path d="M268.55809,119.55215l3.37231,0.43307l-3.56337,1.05471z" data-paper-data="{&quot;index&quot;:null}" fill="#000000" stroke="#000000" stroke-width="0" stroke-linecap="round"/><path d="M228.00002,155.32889c0,0 -0.82141,-0.70239 -1.71888,-1.6067c-1.31333,-1.32333 -2.80711,-3.08132 -3.4186,-3.86911c-1.12487,-1.44919 -3.01935,-4.60958 -3.01935,-4.60958c0,0 8.52676,2.71981 12.32866,4.0733c3.4166,1.21632 9.21857,3.52435 9.21857,3.52435c0,0 5.24801,-0.71891 8.13723,-0.75472c3.15263,-0.03909 10.28943,0.68498 10.28943,0.68498c0,0 -2.61397,2.21547 -3.71183,2.97509c-0.35747,0.24733 -1.40379,0.95985 -2.47214,1.58734c-1.04154,0.61175 -2.11016,1.14187 -2.11016,1.14187z" fill="#b3b3b3" stroke="none" stroke-width="0" stroke-linecap="butt"/></g><g stroke-width="0" stroke-linecap="butt"><path d="M196.19532,138.97473l6.01765,-21.19245l-0.70082,-0.15052l16.41943,-55.24683c0,0 1.38524,-5.21289 4.86547,-6.97743c3.48023,-1.76455 9.02283,-0.06419 9.02283,-0.06419l49.79992,11.4298c0,0 5.72934,0.88673 8.09183,3.99226c2.36249,3.10553 1.33595,8.40074 1.33595,8.40074l-9.33383,56.6864l-0.71369,-0.17213l-3.68485,21.91254z" data-paper-data="{&quot;index&quot;:null}" fill="#808080" stroke="#000000"/><path d="M221.27984,122.02531l16.61221,-64.92929l34.43794,7.904l-12.71358,65.82408z" fill="#878787" stroke="none"/><path d="M196.29546,139.13448l6.01764,-21.19245l78.7871,17.89811l-3.68485,21.91254z" data-paper-data="{&quot;index&quot;:null}" fill="#757575" stroke="#000000"/><g fill="#8b8b8b" stroke="none"><path d="M243.3444,96.27311c-0.35315,1.5387 -1.53456,2.58062 -2.63874,2.32719c-1.10418,-0.25343 -1.71301,-1.70623 -1.35986,-3.24493c0.35315,-1.5387 1.53456,-2.58061 2.63874,-2.32718c1.10418,0.25343 1.71301,1.70622 1.35986,3.24492z"/><path d="M252.61497,98.40085c-0.35315,1.5387 -1.53456,2.58061 -2.63874,2.32718c-1.10418,-0.25343 -1.71302,-1.70622 -1.35987,-3.24492c0.35315,-1.5387 1.53457,-2.58061 2.63875,-2.32718c1.10418,0.25343 1.71301,1.70622 1.35986,3.24492z"/><path d="M262.11163,100.58047c-0.35315,1.5387 -1.53455,2.58061 -2.63874,2.32719c-1.10418,-0.25343 -1.71303,-1.70623 -1.35987,-3.24493c0.35315,-1.5387 1.53456,-2.58061 2.63875,-2.32718c1.10418,0.25343 1.71302,1.70622 1.35987,3.24492z"/><path d="M216.43716,90.09751c-0.35315,1.5387 -1.53455,2.58061 -2.63874,2.32719c-1.10418,-0.25343 -1.71303,-1.70623 -1.35987,-3.24493c0.35315,-1.5387 1.53456,-2.58061 2.63875,-2.32718c1.10418,0.25343 1.71302,1.70622 1.35987,3.24492z"/><path d="M225.70773,92.22524c-0.35315,1.5387 -1.53456,2.58061 -2.63874,2.32719c-1.10418,-0.25343 -1.71302,-1.70622 -1.35987,-3.24492c0.35315,-1.5387 1.53455,-2.58061 2.63874,-2.32719c1.10418,0.25343 1.71302,1.70622 1.35986,3.24492z"/><path d="M235.2044,94.40487c-0.35315,1.5387 -1.53456,2.58061 -2.63874,2.32718c-1.10418,-0.25343 -1.71302,-1.70622 -1.35987,-3.24492c0.35315,-1.5387 1.53457,-2.58061 2.63875,-2.32718c1.10418,0.25343 1.71301,1.70622 1.35986,3.24492z"/><path d="M270.92996,102.6044c-0.35315,1.5387 -1.53455,2.58061 -2.63874,2.32718c-1.10419,-0.25343 -1.71302,-1.70622 -1.35987,-3.24492c0.35315,-1.5387 1.53456,-2.58061 2.63875,-2.32718c1.10419,0.25343 1.71301,1.70622 1.35986,3.24492z"/><path d="M280.42665,104.78403c-0.35315,1.5387 -1.53456,2.58061 -2.63874,2.32718c-1.10419,-0.25343 -1.71302,-1.70622 -1.35987,-3.24492c0.35315,-1.5387 1.53456,-2.58061 2.63875,-2.32718c1.10419,0.25343 1.71301,1.70622 1.35986,3.24492z"/><path d="M246.42789,103.57964c-0.35315,1.5387 -1.53456,2.58062 -2.63874,2.32719c-1.10418,-0.25343 -1.71301,-1.70623 -1.35986,-3.24493c0.35315,-1.5387 1.53456,-2.58061 2.63874,-2.32718c1.10418,0.25343 1.71301,1.70622 1.35986,3.24492z"/><path d="M255.69845,105.70737c-0.35315,1.5387 -1.53456,2.58062 -2.63875,2.32719c-1.10418,-0.25343 -1.71301,-1.70623 -1.35986,-3.24493c0.35315,-1.5387 1.53456,-2.58061 2.63874,-2.32718c1.10418,0.25343 1.71303,1.70623 1.35987,3.24492z"/><path d="M265.19514,107.88699c-0.35315,1.5387 -1.53456,2.58062 -2.63875,2.3272c-1.10418,-0.25343 -1.71301,-1.70623 -1.35986,-3.24493c0.35315,-1.5387 1.53455,-2.58061 2.63873,-2.32719c1.10419,0.25343 1.71303,1.70623 1.35987,3.24492z"/><path d="M219.52065,97.40403c-0.35315,1.5387 -1.53456,2.58062 -2.63875,2.32719c-1.10418,-0.25343 -1.71302,-1.70623 -1.35987,-3.24493c0.35315,-1.5387 1.53455,-2.58061 2.63874,-2.32718c1.10418,0.25343 1.71303,1.70623 1.35987,3.24492z"/><path d="M228.79121,99.53176c-0.35315,1.5387 -1.53456,2.58062 -2.63874,2.3272c-1.10418,-0.25343 -1.71302,-1.70624 -1.35986,-3.24494c0.35315,-1.5387 1.53457,-2.58061 2.63875,-2.32718c1.10418,0.25343 1.71301,1.70622 1.35986,3.24492z"/><path d="M238.28788,101.71139c-0.35315,1.5387 -1.53456,2.58062 -2.63874,2.32719c-1.10418,-0.25343 -1.71302,-1.70623 -1.35987,-3.24493c0.35315,-1.5387 1.53457,-2.58061 2.63875,-2.32718c1.10418,0.25343 1.71301,1.70622 1.35986,3.24492z"/><path d="M274.01347,109.91093c-0.35315,1.5387 -1.53455,2.58062 -2.63874,2.3272c-1.10419,-0.25343 -1.71302,-1.70623 -1.35987,-3.24493c0.35315,-1.5387 1.53457,-2.58061 2.63875,-2.32719c1.10419,0.25343 1.71301,1.70622 1.35986,3.24492z"/><path d="M283.51012,112.09054c-0.35315,1.5387 -1.53456,2.58062 -2.63873,2.3272c-1.10419,-0.25343 -1.71302,-1.70624 -1.35987,-3.24493c0.35315,-1.5387 1.53456,-2.58061 2.63875,-2.32719c1.10419,0.25343 1.71301,1.70622 1.35986,3.24492z"/><path d="M240.57349,108.346c-0.35315,1.5387 -1.53456,2.58061 -2.63874,2.32719c-1.10418,-0.25343 -1.71302,-1.70622 -1.35987,-3.24492c0.35315,-1.5387 1.53455,-2.58061 2.63874,-2.32719c1.10418,0.25343 1.71302,1.70622 1.35986,3.24492z"/><path d="M249.84406,110.47374c-0.35315,1.5387 -1.53456,2.58061 -2.63874,2.32718c-1.10418,-0.25343 -1.71302,-1.70622 -1.35987,-3.24492c0.35315,-1.5387 1.53457,-2.58061 2.63875,-2.32718c1.10418,0.25343 1.71301,1.70622 1.35986,3.24492z"/><path d="M259.34073,112.65336c-0.35315,1.5387 -1.53455,2.58061 -2.63874,2.32718c-1.10418,-0.25343 -1.71303,-1.70623 -1.35987,-3.24492c0.35315,-1.5387 1.53456,-2.58061 2.63875,-2.32718c1.10418,0.25343 1.71302,1.70622 1.35987,3.24492z"/><path d="M213.66626,102.17041c-0.35315,1.5387 -1.53455,2.58061 -2.63874,2.32718c-1.10418,-0.25343 -1.71303,-1.70623 -1.35987,-3.24492c0.35315,-1.5387 1.53456,-2.58061 2.63875,-2.32718c1.10418,0.25343 1.71302,1.70622 1.35987,3.24492z"/><path d="M222.93683,104.29813c-0.35315,1.5387 -1.53456,2.58061 -2.63874,2.32718c-1.10418,-0.25343 -1.71302,-1.70622 -1.35987,-3.24492c0.35315,-1.5387 1.53455,-2.58061 2.63874,-2.32718c1.10418,0.25343 1.71302,1.70622 1.35986,3.24492z"/><path d="M232.4335,106.47776c-0.35315,1.5387 -1.53456,2.58061 -2.63874,2.32719c-1.10418,-0.25343 -1.71302,-1.70622 -1.35987,-3.24492c0.35315,-1.5387 1.53457,-2.58061 2.63875,-2.32719c1.10418,0.25343 1.71301,1.70622 1.35986,3.24492z"/><path d="M268.15906,114.67729c-0.35315,1.5387 -1.53455,2.58061 -2.63874,2.32719c-1.10419,-0.25343 -1.71302,-1.70622 -1.35987,-3.24492c0.35315,-1.5387 1.53456,-2.58061 2.63875,-2.32719c1.10419,0.25343 1.71301,1.70622 1.35986,3.24492z"/><path d="M277.65575,116.85692c-0.35315,1.5387 -1.53456,2.58061 -2.63874,2.32719c-1.10419,-0.25343 -1.71302,-1.70622 -1.35987,-3.24492c0.35315,-1.5387 1.53456,-2.58061 2.63875,-2.32719c1.10419,0.25343 1.71301,1.70622 1.35986,3.24492z"/><path d="M243.65699,115.65253c-0.35315,1.5387 -1.53456,2.58061 -2.63874,2.32719c-1.10418,-0.25343 -1.71301,-1.70622 -1.35986,-3.24492c0.35315,-1.5387 1.53456,-2.58061 2.63874,-2.32719c1.10418,0.25343 1.71301,1.70622 1.35986,3.24492z"/><path d="M252.92755,117.78026c-0.35315,1.5387 -1.53455,2.58061 -2.63874,2.32719c-1.10418,-0.25343 -1.71302,-1.70622 -1.35986,-3.24492c0.35315,-1.5387 1.53456,-2.58061 2.63874,-2.32719c1.10418,0.25343 1.71302,1.70622 1.35987,3.24492z"/><path d="M262.42422,119.95989c-0.35315,1.5387 -1.53455,2.58061 -2.63874,2.32718c-1.10418,-0.25343 -1.71302,-1.70622 -1.35986,-3.24492c0.35315,-1.5387 1.53456,-2.58061 2.63874,-2.32718c1.10419,0.25343 1.71302,1.70622 1.35987,3.24492z"/><path d="M216.74975,109.47694c-0.35315,1.5387 -1.53456,2.58061 -2.63875,2.32718c-1.10418,-0.25343 -1.71303,-1.70623 -1.35987,-3.24492c0.35315,-1.5387 1.53456,-2.58061 2.63875,-2.32718c1.10418,0.25343 1.71303,1.70623 1.35987,3.24492z"/><path d="M226.02031,111.60466c-0.35315,1.5387 -1.53456,2.58061 -2.63874,2.32718c-1.10418,-0.25343 -1.71302,-1.70622 -1.35987,-3.24492c0.35315,-1.5387 1.53457,-2.58061 2.63875,-2.32718c1.10418,0.25343 1.71301,1.70622 1.35986,3.24492z"/><path d="M235.51698,113.78429c-0.35315,1.5387 -1.53456,2.58061 -2.63874,2.32718c-1.10418,-0.25343 -1.71302,-1.70622 -1.35987,-3.24492c0.35315,-1.5387 1.53457,-2.58061 2.63875,-2.32718c1.10418,0.25343 1.71301,1.70622 1.35986,3.24492z"/><path d="M271.24257,121.98383c-0.35315,1.5387 -1.53455,2.58061 -2.63874,2.32718c-1.10419,-0.25343 -1.71302,-1.70622 -1.35987,-3.24492c0.35315,-1.5387 1.53457,-2.58061 2.63875,-2.32718c1.10419,0.25343 1.71301,1.70622 1.35986,3.24492z"/><path d="M280.73922,124.16345c-0.35315,1.5387 -1.53456,2.58061 -2.63874,2.32718c-1.10419,-0.25343 -1.71302,-1.70622 -1.35987,-3.24492c0.35315,-1.5387 1.53456,-2.58061 2.63875,-2.32718c1.10419,0.25343 1.71301,1.70622 1.35986,3.24492z"/><path d="M248.92654,70.91458c-0.35315,1.5387 -1.53456,2.58061 -2.63874,2.32718c-1.10418,-0.25343 -1.71302,-1.70622 -1.35987,-3.24492c0.35315,-1.5387 1.53456,-2.58061 2.63874,-2.32718c1.10418,0.25343 1.71302,1.70622 1.35986,3.24492z"/><path d="M258.1971,73.04231c-0.35315,1.5387 -1.53456,2.58061 -2.63874,2.32718c-1.10418,-0.25343 -1.71302,-1.70622 -1.35987,-3.24492c0.35315,-1.5387 1.53456,-2.58061 2.63875,-2.32718c1.10418,0.25343 1.71301,1.70622 1.35986,3.24492z"/><path d="M267.69377,75.22193c-0.35315,1.5387 -1.53456,2.58061 -2.63874,2.32719c-1.10418,-0.25343 -1.71302,-1.70623 -1.35987,-3.24493c0.35315,-1.5387 1.53456,-2.58061 2.63875,-2.32718c1.10418,0.25343 1.71301,1.70622 1.35986,3.24492z"/><path d="M222.01929,64.73896c-0.35315,1.5387 -1.53456,2.58061 -2.63874,2.32718c-1.10418,-0.25343 -1.71302,-1.70622 -1.35987,-3.24492c0.35315,-1.5387 1.53456,-2.58061 2.63875,-2.32718c1.10418,0.25343 1.71301,1.70622 1.35986,3.24492z"/><path d="M231.28985,66.8667c-0.35315,1.5387 -1.53456,2.58061 -2.63874,2.32718c-1.10418,-0.25343 -1.71302,-1.70622 -1.35986,-3.24492c0.35315,-1.5387 1.53456,-2.58061 2.63874,-2.32718c1.10418,0.25343 1.71302,1.70622 1.35986,3.24492z"/><path d="M240.78652,69.04632c-0.35315,1.5387 -1.53456,2.58061 -2.63874,2.32719c-1.10418,-0.25343 -1.71302,-1.70622 -1.35987,-3.24492c0.35315,-1.5387 1.53455,-2.58061 2.63874,-2.32719c1.10418,0.25343 1.71302,1.70622 1.35986,3.24492z"/><path d="M276.51211,77.24586c-0.35315,1.5387 -1.53455,2.58061 -2.63874,2.32718c-1.10419,-0.25343 -1.71302,-1.70622 -1.35987,-3.24492c0.35315,-1.5387 1.53455,-2.58061 2.63874,-2.32718c1.10419,0.25343 1.71302,1.70622 1.35986,3.24492z"/><path d="M286.00878,79.42548c-0.35315,1.5387 -1.53456,2.58061 -2.63874,2.32718c-1.10419,-0.25343 -1.71302,-1.70622 -1.35987,-3.24492c0.35315,-1.5387 1.53456,-2.58061 2.63875,-2.32718c1.10419,0.25343 1.71301,1.70622 1.35986,3.24492z"/><path d="M252.01002,78.2211c-0.35315,1.5387 -1.53456,2.58061 -2.63874,2.32718c-1.10418,-0.25343 -1.71302,-1.70622 -1.35987,-3.24492c0.35315,-1.5387 1.53457,-2.58061 2.63875,-2.32718c1.10418,0.25343 1.71301,1.70622 1.35986,3.24492z"/><path d="M261.28058,80.34882c-0.35315,1.5387 -1.53455,2.58061 -2.63873,2.32718c-1.10418,-0.25343 -1.71303,-1.70623 -1.35987,-3.24492c0.35315,-1.5387 1.53456,-2.58061 2.63875,-2.32718c1.10418,0.25343 1.71301,1.70622 1.35986,3.24492z"/><path d="M270.77725,82.52845c-0.35315,1.5387 -1.53455,2.58061 -2.63873,2.32718c-1.10418,-0.25343 -1.71302,-1.70622 -1.35986,-3.24492c0.35315,-1.5387 1.53456,-2.58061 2.63874,-2.32718c1.10419,0.25343 1.71301,1.70622 1.35986,3.24492z"/><path d="M225.10278,72.04549c-0.35315,1.5387 -1.53456,2.58061 -2.63874,2.32718c-1.10418,-0.25343 -1.71302,-1.70622 -1.35987,-3.24492c0.35315,-1.5387 1.53455,-2.58061 2.63874,-2.32718c1.10418,0.25343 1.71302,1.70622 1.35986,3.24492z"/><path d="M234.37334,74.17322c-0.35315,1.5387 -1.53456,2.58061 -2.63874,2.32718c-1.10418,-0.25343 -1.71301,-1.70622 -1.35986,-3.24492c0.35315,-1.5387 1.53456,-2.58061 2.63874,-2.32718c1.10418,0.25343 1.71301,1.70622 1.35986,3.24492z"/><path d="M243.87001,76.35284c-0.35315,1.5387 -1.53456,2.58061 -2.63874,2.32719c-1.10418,-0.25343 -1.71301,-1.70622 -1.35986,-3.24492c0.35315,-1.5387 1.53456,-2.58061 2.63874,-2.32719c1.10418,0.25343 1.71301,1.70622 1.35986,3.24492z"/><path d="M279.59559,84.55238c-0.35315,1.5387 -1.53456,2.58061 -2.63874,2.32718c-1.10419,-0.25343 -1.71302,-1.70622 -1.35987,-3.24492c0.35315,-1.5387 1.53456,-2.58061 2.63875,-2.32718c1.10419,0.25343 1.71301,1.70622 1.35986,3.24492z"/><path d="M289.09226,86.732c-0.35315,1.5387 -1.53455,2.58061 -2.63873,2.32719c-1.10419,-0.25343 -1.71302,-1.70622 -1.35987,-3.24492c0.35315,-1.5387 1.53456,-2.58061 2.63875,-2.32719c1.10419,0.25343 1.713,1.70622 1.35985,3.24492z"/><path d="M246.15564,82.98743c-0.35315,1.5387 -1.53456,2.58061 -2.63874,2.32719c-1.10418,-0.25343 -1.71302,-1.70622 -1.35987,-3.24492c0.35315,-1.5387 1.53457,-2.58062 2.63875,-2.3272c1.10418,0.25343 1.71301,1.70623 1.35986,3.24493z"/><path d="M255.4262,85.11516c-0.35315,1.5387 -1.53455,2.58061 -2.63873,2.32719c-1.10418,-0.25343 -1.71303,-1.70623 -1.35987,-3.24492c0.35315,-1.5387 1.53456,-2.58062 2.63875,-2.3272c1.10418,0.25343 1.71301,1.70623 1.35986,3.24493z"/><path d="M264.92287,87.29479c-0.35315,1.5387 -1.53456,2.58061 -2.63874,2.32718c-1.10418,-0.25343 -1.71302,-1.70622 -1.35987,-3.24492c0.35315,-1.5387 1.53455,-2.58062 2.63874,-2.32719c1.10418,0.25343 1.71301,1.70623 1.35986,3.24493z"/><path d="M219.24839,76.81183c-0.35315,1.5387 -1.53456,2.58061 -2.63874,2.32718c-1.10418,-0.25343 -1.71302,-1.70622 -1.35987,-3.24492c0.35315,-1.5387 1.53456,-2.58062 2.63875,-2.32719c1.10418,0.25343 1.71301,1.70623 1.35986,3.24493z"/><path d="M228.51895,78.93956c-0.35315,1.5387 -1.53456,2.58061 -2.63874,2.32719c-1.10418,-0.25343 -1.71301,-1.70622 -1.35986,-3.24492c0.35315,-1.5387 1.53456,-2.58062 2.63874,-2.3272c1.10418,0.25343 1.71301,1.70623 1.35986,3.24493z"/><path d="M238.01562,81.11918c-0.35315,1.5387 -1.53455,2.58061 -2.63873,2.32718c-1.10418,-0.25343 -1.71303,-1.70623 -1.35987,-3.24492c0.35315,-1.5387 1.53456,-2.58062 2.63875,-2.32719c1.10418,0.25343 1.71301,1.70623 1.35986,3.24493z"/><path d="M273.7412,89.31873c-0.35315,1.5387 -1.53455,2.58061 -2.63874,2.32718c-1.10419,-0.25343 -1.71302,-1.70622 -1.35987,-3.24492c0.35315,-1.5387 1.53456,-2.58062 2.63875,-2.32719c1.10419,0.25343 1.71301,1.70623 1.35986,3.24493z"/><path d="M283.23787,91.49835c-0.35315,1.5387 -1.53455,2.58061 -2.63873,2.32719c-1.10419,-0.25343 -1.71303,-1.70623 -1.35987,-3.24493c0.35315,-1.5387 1.53456,-2.58062 2.63875,-2.32719c1.10419,0.25343 1.71301,1.70623 1.35986,3.24493z"/><path d="M249.23912,90.294c-0.35315,1.5387 -1.53456,2.58061 -2.63874,2.32719c-1.10418,-0.25343 -1.71303,-1.70623 -1.35987,-3.24493c0.35315,-1.5387 1.53457,-2.58061 2.63875,-2.32718c1.10418,0.25343 1.71302,1.70622 1.35986,3.24492z"/><path d="M258.50968,92.42173c-0.35315,1.5387 -1.53456,2.58061 -2.63874,2.32718c-1.10418,-0.25343 -1.71302,-1.70622 -1.35987,-3.24492c0.35315,-1.5387 1.53456,-2.58061 2.63875,-2.32718c1.10418,0.25343 1.71301,1.70622 1.35986,3.24492z"/><path d="M268.00635,94.60136c-0.35315,1.5387 -1.53456,2.58061 -2.63874,2.32718c-1.10418,-0.25343 -1.71301,-1.70622 -1.35986,-3.24492c0.35315,-1.5387 1.53456,-2.58061 2.63874,-2.32718c1.10419,0.25343 1.71301,1.70622 1.35986,3.24492z"/><path d="M222.33187,84.1184c-0.35315,1.5387 -1.53456,2.58061 -2.63874,2.32719c-1.10418,-0.25343 -1.71302,-1.70622 -1.35987,-3.24492c0.35315,-1.5387 1.53456,-2.58061 2.63875,-2.32719c1.10418,0.25343 1.71301,1.70622 1.35986,3.24492z"/><path d="M231.60243,86.24613c-0.35315,1.5387 -1.53455,2.58061 -2.63873,2.32719c-1.10418,-0.25343 -1.71302,-1.70622 -1.35986,-3.24492c0.35315,-1.5387 1.53456,-2.58061 2.63874,-2.32719c1.10418,0.25343 1.71301,1.70622 1.35986,3.24492z"/><path d="M241.09911,88.42576c-0.35315,1.5387 -1.53456,2.58061 -2.63874,2.32718c-1.10418,-0.25343 -1.71301,-1.70622 -1.35986,-3.24492c0.35315,-1.5387 1.53455,-2.58061 2.63873,-2.32718c1.10418,0.25343 1.71302,1.70622 1.35986,3.24492z"/><path d="M276.82469,96.62529c-0.35315,1.5387 -1.53456,2.58061 -2.63874,2.32719c-1.10419,-0.25343 -1.71302,-1.70622 -1.35987,-3.24492c0.35315,-1.5387 1.53455,-2.58061 2.63874,-2.32719c1.10419,0.25343 1.71302,1.70622 1.35986,3.24492z"/><path d="M286.32135,98.80492c-0.35315,1.5387 -1.53455,2.58061 -2.63873,2.32718c-1.10419,-0.25343 -1.71302,-1.70622 -1.35987,-3.24492c0.35315,-1.5387 1.53455,-2.58061 2.63874,-2.32718c1.10419,0.25343 1.71301,1.70622 1.35985,3.24492z"/></g><g fill="#7b7b7b" stroke="none"><path d="M243.49353,95.62334c-0.35315,1.5387 -1.53456,2.58062 -2.63874,2.3272c-1.10418,-0.25343 -1.71301,-1.70623 -1.35986,-3.24493c0.35315,-1.5387 1.53455,-2.58061 2.63873,-2.32719c1.10418,0.25343 1.71302,1.70622 1.35986,3.24492z"/><path d="M252.7641,97.75107c-0.35315,1.5387 -1.53456,2.58061 -2.63874,2.32719c-1.10418,-0.25343 -1.71302,-1.70623 -1.35987,-3.24493c0.35315,-1.5387 1.53457,-2.58061 2.63875,-2.32718c1.10418,0.25343 1.71301,1.70622 1.35986,3.24492z"/><path d="M262.26077,99.9307c-0.35315,1.5387 -1.53456,2.58061 -2.63875,2.32718c-1.10418,-0.25343 -1.71302,-1.70622 -1.35987,-3.24492c0.35315,-1.5387 1.53456,-2.58061 2.63875,-2.32718c1.10418,0.25343 1.71302,1.70622 1.35987,3.24492z"/><path d="M216.5863,89.44774c-0.35315,1.5387 -1.53455,2.58061 -2.63874,2.32718c-1.10418,-0.25343 -1.71303,-1.70623 -1.35987,-3.24492c0.35315,-1.5387 1.53456,-2.58061 2.63875,-2.32719c1.10418,0.25343 1.71302,1.70623 1.35987,3.24493z"/><path d="M225.85686,91.57547c-0.35315,1.5387 -1.53456,2.58061 -2.63874,2.32718c-1.10418,-0.25343 -1.71302,-1.70622 -1.35987,-3.24492c0.35315,-1.5387 1.53455,-2.58061 2.63874,-2.32718c1.10418,0.25343 1.71302,1.70622 1.35986,3.24492z"/><path d="M235.35353,93.75509c-0.35315,1.5387 -1.53456,2.58061 -2.63874,2.32718c-1.10418,-0.25343 -1.71302,-1.70622 -1.35987,-3.24492c0.35315,-1.5387 1.53456,-2.58061 2.63874,-2.32718c1.10418,0.25343 1.71302,1.70622 1.35986,3.24492z"/><path d="M271.07909,101.95463c-0.35315,1.5387 -1.53455,2.58061 -2.63874,2.32719c-1.10419,-0.25343 -1.71302,-1.70623 -1.35987,-3.24493c0.35315,-1.5387 1.53455,-2.58061 2.63874,-2.32718c1.10419,0.25343 1.71302,1.70622 1.35986,3.24492z"/><path d="M280.57578,104.13425c-0.35315,1.5387 -1.53456,2.58061 -2.63874,2.32718c-1.10419,-0.25343 -1.71302,-1.70622 -1.35987,-3.24492c0.35315,-1.5387 1.53456,-2.58061 2.63875,-2.32718c1.10419,0.25343 1.71301,1.70622 1.35986,3.24492z"/><path d="M246.57702,102.92987c-0.35315,1.5387 -1.53456,2.58061 -2.63874,2.32719c-1.10418,-0.25343 -1.71301,-1.70622 -1.35986,-3.24492c0.35315,-1.5387 1.53456,-2.58061 2.63874,-2.32719c1.10418,0.25343 1.71301,1.70622 1.35986,3.24492z"/><path d="M255.84758,105.0576c-0.35315,1.5387 -1.53456,2.58061 -2.63875,2.32718c-1.10418,-0.25343 -1.71301,-1.70622 -1.35986,-3.24492c0.35315,-1.5387 1.53456,-2.58061 2.63874,-2.32718c1.10418,0.25343 1.71302,1.70622 1.35987,3.24492z"/><path d="M265.34425,107.23723c-0.35315,1.5387 -1.53455,2.58061 -2.63874,2.32718c-1.10418,-0.25343 -1.71302,-1.70622 -1.35986,-3.24492c0.35315,-1.5387 1.53456,-2.58061 2.63874,-2.32718c1.10419,0.25343 1.71302,1.70622 1.35987,3.24492z"/><path d="M219.66978,96.75427c-0.35315,1.5387 -1.53456,2.58061 -2.63875,2.32719c-1.10418,-0.25343 -1.71303,-1.70623 -1.35987,-3.24493c0.35315,-1.5387 1.53456,-2.58061 2.63875,-2.32718c1.10418,0.25343 1.71303,1.70623 1.35987,3.24492z"/><path d="M228.94034,98.882c-0.35315,1.5387 -1.53456,2.58061 -2.63874,2.32719c-1.10418,-0.25343 -1.71302,-1.70622 -1.35987,-3.24492c0.35315,-1.5387 1.53456,-2.58061 2.63874,-2.32719c1.10418,0.25343 1.71302,1.70622 1.35986,3.24492z"/><path d="M238.43701,101.06162c-0.35315,1.5387 -1.53456,2.58061 -2.63874,2.32718c-1.10418,-0.25343 -1.71302,-1.70622 -1.35987,-3.24492c0.35315,-1.5387 1.53457,-2.58061 2.63875,-2.32718c1.10418,0.25343 1.71301,1.70622 1.35986,3.24492z"/><path d="M274.1626,109.26116c-0.35315,1.5387 -1.53455,2.58061 -2.63874,2.32718c-1.10419,-0.25343 -1.71302,-1.70622 -1.35987,-3.24492c0.35315,-1.5387 1.53457,-2.58061 2.63875,-2.32718c1.10419,0.25343 1.71301,1.70622 1.35986,3.24492z"/><path d="M283.65925,111.44078c-0.35315,1.5387 -1.53456,2.58061 -2.63874,2.32718c-1.10419,-0.25343 -1.71302,-1.70622 -1.35987,-3.24492c0.35315,-1.5387 1.53456,-2.58061 2.63875,-2.32718c1.10419,0.25343 1.71301,1.70622 1.35986,3.24492z"/><path d="M240.72263,107.69622c-0.35315,1.5387 -1.53456,2.58061 -2.63874,2.32718c-1.10418,-0.25343 -1.71302,-1.70622 -1.35987,-3.24492c0.35315,-1.5387 1.53456,-2.58061 2.63875,-2.32718c1.10418,0.25343 1.71301,1.70622 1.35986,3.24492z"/><path d="M249.9932,109.82395c-0.35315,1.5387 -1.53456,2.58061 -2.63874,2.32718c-1.10418,-0.25343 -1.71302,-1.70622 -1.35987,-3.24492c0.35315,-1.5387 1.53457,-2.58061 2.63875,-2.32718c1.10418,0.25343 1.71301,1.70622 1.35986,3.24492z"/><path d="M259.48987,112.00357c-0.35315,1.5387 -1.53455,2.58061 -2.63874,2.32718c-1.10418,-0.25343 -1.71303,-1.70623 -1.35987,-3.24492c0.35315,-1.5387 1.53456,-2.58061 2.63875,-2.32718c1.10418,0.25343 1.71302,1.70622 1.35987,3.24492z"/><path d="M213.8154,101.52062c-0.35315,1.5387 -1.53455,2.58061 -2.63874,2.32718c-1.10418,-0.25343 -1.71303,-1.70623 -1.35987,-3.24492c0.35315,-1.5387 1.53456,-2.58061 2.63875,-2.32718c1.10418,0.25343 1.71302,1.70622 1.35987,3.24492z"/><path d="M223.08596,103.64835c-0.35315,1.5387 -1.53456,2.58061 -2.63874,2.32719c-1.10418,-0.25343 -1.71302,-1.70623 -1.35987,-3.24493c0.35315,-1.5387 1.53455,-2.58061 2.63874,-2.32718c1.10418,0.25343 1.71302,1.70622 1.35986,3.24492z"/><path d="M232.58263,105.82797c-0.35315,1.5387 -1.53456,2.58061 -2.63874,2.32718c-1.10418,-0.25343 -1.71302,-1.70622 -1.35987,-3.24492c0.35315,-1.5387 1.53457,-2.58061 2.63875,-2.32718c1.10418,0.25343 1.71301,1.70622 1.35986,3.24492z"/><path d="M268.30818,114.02751c-0.35315,1.5387 -1.53455,2.58061 -2.63874,2.32718c-1.10419,-0.25343 -1.71302,-1.70622 -1.35987,-3.24492c0.35315,-1.5387 1.53456,-2.58061 2.63875,-2.32718c1.10419,0.25343 1.71301,1.70622 1.35986,3.24492z"/><path d="M277.80487,116.20714c-0.35315,1.5387 -1.53456,2.58061 -2.63874,2.32718c-1.10419,-0.25343 -1.71302,-1.70622 -1.35987,-3.24492c0.35315,-1.5387 1.53456,-2.58061 2.63875,-2.32718c1.10419,0.25343 1.71301,1.70622 1.35986,3.24492z"/><path d="M243.80612,115.00277c-0.35315,1.5387 -1.53456,2.58061 -2.63874,2.32718c-1.10418,-0.25343 -1.71301,-1.70622 -1.35986,-3.24492c0.35315,-1.5387 1.53455,-2.58061 2.63873,-2.32718c1.10418,0.25343 1.71302,1.70622 1.35986,3.24492z"/><path d="M253.07668,117.1305c-0.35315,1.5387 -1.53456,2.58061 -2.63875,2.32718c-1.10418,-0.25343 -1.71301,-1.70622 -1.35986,-3.24492c0.35315,-1.5387 1.53456,-2.58061 2.63874,-2.32719c1.10418,0.25343 1.71302,1.70623 1.35987,3.24493z"/><path d="M262.57336,119.31012c-0.35315,1.5387 -1.53456,2.58061 -2.63875,2.32718c-1.10418,-0.25343 -1.71301,-1.70622 -1.35986,-3.24492c0.35315,-1.5387 1.53456,-2.58061 2.63874,-2.32718c1.10419,0.25343 1.71302,1.70622 1.35987,3.24492z"/><path d="M216.89887,108.82717c-0.35315,1.5387 -1.53455,2.58061 -2.63874,2.32718c-1.10418,-0.25343 -1.71303,-1.70623 -1.35987,-3.24492c0.35315,-1.5387 1.53456,-2.58061 2.63875,-2.32718c1.10418,0.25343 1.71302,1.70622 1.35987,3.24492z"/><path d="M226.16944,110.9549c-0.35315,1.5387 -1.53456,2.58061 -2.63874,2.32718c-1.10418,-0.25343 -1.71303,-1.70623 -1.35987,-3.24492c0.35315,-1.5387 1.53457,-2.58061 2.63875,-2.32718c1.10418,0.25343 1.71302,1.70622 1.35986,3.24492z"/><path d="M235.66611,113.13452c-0.35315,1.5387 -1.53456,2.58061 -2.63874,2.32719c-1.10418,-0.25343 -1.71302,-1.70622 -1.35987,-3.24492c0.35315,-1.5387 1.53456,-2.58061 2.63874,-2.32719c1.10418,0.25343 1.71302,1.70622 1.35986,3.24492z"/><path d="M271.3917,121.33406c-0.35315,1.5387 -1.53455,2.58061 -2.63874,2.32719c-1.10419,-0.25343 -1.71302,-1.70623 -1.35987,-3.24493c0.35315,-1.5387 1.53456,-2.58061 2.63874,-2.32718c1.10419,0.25343 1.71302,1.70622 1.35986,3.24492z"/><path d="M280.88835,123.51368c-0.35315,1.5387 -1.53456,2.58061 -2.63874,2.32719c-1.10419,-0.25343 -1.71302,-1.70623 -1.35987,-3.24493c0.35315,-1.5387 1.53456,-2.58061 2.63875,-2.32718c1.10419,0.25343 1.71301,1.70622 1.35986,3.24492z"/><path d="M249.07568,70.26477c-0.35315,1.5387 -1.53456,2.58061 -2.63874,2.32719c-1.10418,-0.25343 -1.71302,-1.70623 -1.35987,-3.24493c0.35315,-1.5387 1.53457,-2.58061 2.63875,-2.32718c1.10418,0.25343 1.71301,1.70622 1.35986,3.24492z"/><path d="M258.34623,72.3925c-0.35315,1.5387 -1.53455,2.58061 -2.63873,2.32718c-1.10418,-0.25343 -1.71303,-1.70623 -1.35987,-3.24492c0.35315,-1.5387 1.53456,-2.58061 2.63875,-2.32718c1.10418,0.25343 1.71301,1.70622 1.35986,3.24492z"/><path d="M267.8429,74.57213c-0.35315,1.5387 -1.53456,2.58061 -2.63874,2.32718c-1.10418,-0.25343 -1.71302,-1.70622 -1.35987,-3.24492c0.35315,-1.5387 1.53455,-2.58061 2.63874,-2.32718c1.10418,0.25343 1.71302,1.70622 1.35986,3.24492z"/><path d="M222.16843,64.08916c-0.35315,1.5387 -1.53456,2.58061 -2.63874,2.32719c-1.10418,-0.25343 -1.71302,-1.70623 -1.35987,-3.24493c0.35315,-1.5387 1.53455,-2.58061 2.63874,-2.32718c1.10418,0.25343 1.71302,1.70622 1.35986,3.24492z"/><path d="M231.43899,66.21689c-0.35315,1.5387 -1.53456,2.58061 -2.63874,2.32719c-1.10418,-0.25343 -1.71301,-1.70622 -1.35986,-3.24492c0.35315,-1.5387 1.53456,-2.58061 2.63874,-2.32719c1.10418,0.25343 1.71301,1.70622 1.35986,3.24492z"/><path d="M240.93566,68.39651c-0.35315,1.5387 -1.53456,2.58061 -2.63874,2.32718c-1.10418,-0.25343 -1.71302,-1.70622 -1.35987,-3.24492c0.35315,-1.5387 1.53456,-2.58061 2.63875,-2.32718c1.10418,0.25343 1.71301,1.70622 1.35986,3.24492z"/><path d="M276.66125,76.59606c-0.35315,1.5387 -1.53455,2.58061 -2.63874,2.32719c-1.10419,-0.25343 -1.71302,-1.70622 -1.35987,-3.24492c0.35315,-1.5387 1.53456,-2.58061 2.63875,-2.32719c1.10419,0.25343 1.71301,1.70622 1.35986,3.24492z"/><path d="M286.15792,78.77568c-0.35315,1.5387 -1.53455,2.58061 -2.63873,2.32718c-1.10419,-0.25343 -1.71303,-1.70623 -1.35987,-3.24492c0.35315,-1.5387 1.53456,-2.58061 2.63875,-2.32718c1.10419,0.25343 1.71301,1.70622 1.35986,3.24492z"/><path d="M252.15915,77.57134c-0.35315,1.5387 -1.53455,2.58061 -2.63873,2.32718c-1.10418,-0.25343 -1.71303,-1.70623 -1.35987,-3.24492c0.35315,-1.5387 1.53457,-2.58061 2.63875,-2.32718c1.10418,0.25343 1.71301,1.70622 1.35986,3.24492z"/><path d="M261.42971,79.69907c-0.35315,1.5387 -1.53456,2.58061 -2.63874,2.32718c-1.10418,-0.25343 -1.71302,-1.70622 -1.35987,-3.24492c0.35315,-1.5387 1.53455,-2.58061 2.63874,-2.32718c1.10418,0.25343 1.71302,1.70622 1.35986,3.24492z"/><path d="M270.92638,81.87869c-0.35315,1.5387 -1.53456,2.58061 -2.63874,2.32719c-1.10418,-0.25343 -1.71301,-1.70622 -1.35986,-3.24492c0.35315,-1.5387 1.53456,-2.58061 2.63874,-2.32719c1.10419,0.25343 1.71301,1.70622 1.35986,3.24492z"/><path d="M225.25191,71.39574c-0.35315,1.5387 -1.53456,2.58061 -2.63874,2.32719c-1.10418,-0.25343 -1.71302,-1.70623 -1.35987,-3.24493c0.35315,-1.5387 1.53456,-2.58061 2.63875,-2.32718c1.10418,0.25343 1.71301,1.70622 1.35986,3.24492z"/><path d="M234.52247,73.52346c-0.35315,1.5387 -1.53455,2.58061 -2.63873,2.32719c-1.10418,-0.25343 -1.71302,-1.70622 -1.35986,-3.24492c0.35315,-1.5387 1.53456,-2.58061 2.63874,-2.32719c1.10418,0.25343 1.71301,1.70622 1.35986,3.24492z"/><path d="M244.01915,75.70309c-0.35315,1.5387 -1.53456,2.58061 -2.63874,2.32718c-1.10418,-0.25343 -1.71301,-1.70622 -1.35986,-3.24492c0.35315,-1.5387 1.53455,-2.58061 2.63873,-2.32718c1.10418,0.25343 1.71302,1.70622 1.35986,3.24492z"/><path d="M279.74473,83.90263c-0.35315,1.5387 -1.53456,2.58061 -2.63874,2.32719c-1.10419,-0.25343 -1.71303,-1.70623 -1.35987,-3.24493c0.35315,-1.5387 1.53456,-2.58061 2.63875,-2.32718c1.10419,0.25343 1.71302,1.70622 1.35986,3.24492z"/><path d="M289.24138,86.08225c-0.35315,1.5387 -1.53455,2.58061 -2.63873,2.32719c-1.10419,-0.25343 -1.71302,-1.70622 -1.35987,-3.24492c0.35315,-1.5387 1.53455,-2.58061 2.63874,-2.32718c1.10419,0.25343 1.71301,1.70622 1.35985,3.24491z"/><path d="M246.30476,82.33768c-0.35315,1.5387 -1.53455,2.58061 -2.63873,2.32718c-1.10418,-0.25343 -1.71303,-1.70623 -1.35987,-3.24492c0.35315,-1.5387 1.53457,-2.58061 2.63875,-2.32718c1.10418,0.25343 1.71301,1.70622 1.35986,3.24492z"/><path d="M255.57533,84.46542c-0.35315,1.5387 -1.53456,2.58061 -2.63874,2.32718c-1.10418,-0.25343 -1.71302,-1.70622 -1.35987,-3.24492c0.35315,-1.5387 1.53455,-2.58061 2.63874,-2.32718c1.10418,0.25343 1.71302,1.70622 1.35986,3.24492z"/><path d="M265.072,86.64504c-0.35315,1.5387 -1.53456,2.58061 -2.63874,2.32718c-1.10418,-0.25343 -1.71302,-1.70622 -1.35987,-3.24492c0.35315,-1.5387 1.53456,-2.58061 2.63875,-2.32718c1.10418,0.25343 1.71301,1.70622 1.35986,3.24492z"/><path d="M219.39752,76.16209c-0.35315,1.5387 -1.53456,2.58061 -2.63874,2.32718c-1.10418,-0.25343 -1.71302,-1.70622 -1.35987,-3.24492c0.35315,-1.5387 1.53456,-2.58061 2.63875,-2.32718c1.10418,0.25343 1.71301,1.70622 1.35986,3.24492z"/><path d="M228.66808,78.28982c-0.35315,1.5387 -1.53455,2.58061 -2.63873,2.32718c-1.10418,-0.25343 -1.71302,-1.70622 -1.35986,-3.24492c0.35315,-1.5387 1.53456,-2.58061 2.63874,-2.32718c1.10418,0.25343 1.71301,1.70622 1.35986,3.24492z"/><path d="M238.16475,80.46944c-0.35315,1.5387 -1.53456,2.58061 -2.63874,2.32719c-1.10418,-0.25343 -1.71303,-1.70623 -1.35987,-3.24493c0.35315,-1.5387 1.53456,-2.58061 2.63875,-2.32718c1.10418,0.25343 1.71302,1.70622 1.35986,3.24492z"/><path d="M273.89034,88.66898c-0.35315,1.5387 -1.53454,2.58061 -2.63873,2.32718c-1.10419,-0.25343 -1.71303,-1.70623 -1.35987,-3.24492c0.35315,-1.5387 1.53456,-2.58061 2.63875,-2.32718c1.10419,0.25343 1.71301,1.70622 1.35986,3.24492z"/><path d="M283.38701,90.8486c-0.35315,1.5387 -1.53456,2.58061 -2.63874,2.32719c-1.10419,-0.25343 -1.71302,-1.70622 -1.35987,-3.24492c0.35315,-1.5387 1.53455,-2.58061 2.63874,-2.32719c1.10419,0.25343 1.71302,1.70622 1.35986,3.24492z"/><path d="M249.38824,89.64423c-0.35315,1.5387 -1.53455,2.58061 -2.63873,2.32719c-1.10418,-0.25343 -1.71303,-1.70623 -1.35987,-3.24492c0.35315,-1.5387 1.53457,-2.58061 2.63875,-2.32719c1.10418,0.25343 1.71301,1.70622 1.35986,3.24492z"/><path d="M258.6588,91.77195c-0.35315,1.5387 -1.53456,2.58061 -2.63874,2.32719c-1.10418,-0.25343 -1.71302,-1.70622 -1.35987,-3.24492c0.35315,-1.5387 1.53455,-2.58061 2.63874,-2.32719c1.10418,0.25343 1.71302,1.70622 1.35986,3.24492z"/><path d="M268.15548,93.95158c-0.35315,1.5387 -1.53456,2.58061 -2.63874,2.32718c-1.10418,-0.25343 -1.71301,-1.70622 -1.35986,-3.24492c0.35315,-1.5387 1.53456,-2.58061 2.63874,-2.32718c1.10419,0.25343 1.71301,1.70622 1.35986,3.24492z"/><path d="M222.48101,83.46863c-0.35315,1.5387 -1.53456,2.58061 -2.63874,2.32718c-1.10418,-0.25343 -1.71302,-1.70622 -1.35987,-3.24492c0.35315,-1.5387 1.53456,-2.58061 2.63875,-2.32718c1.10418,0.25343 1.71301,1.70622 1.35986,3.24492z"/><path d="M231.75157,85.59636c-0.35315,1.5387 -1.53455,2.58061 -2.63873,2.32718c-1.10418,-0.25343 -1.71302,-1.70622 -1.35986,-3.24492c0.35315,-1.5387 1.53456,-2.58061 2.63874,-2.32718c1.10418,0.25343 1.71301,1.70622 1.35986,3.24492z"/><path d="M241.24824,87.77598c-0.35315,1.5387 -1.53456,2.58061 -2.63874,2.32719c-1.10418,-0.25343 -1.71302,-1.70622 -1.35986,-3.24492c0.35315,-1.5387 1.53456,-2.58061 2.63874,-2.32719c1.10418,0.25343 1.71302,1.70622 1.35986,3.24492z"/><path d="M276.97382,95.97552c-0.35315,1.5387 -1.53455,2.58061 -2.63873,2.32718c-1.10419,-0.25343 -1.71303,-1.70623 -1.35987,-3.24492c0.35315,-1.5387 1.53456,-2.58061 2.63875,-2.32718c1.10419,0.25343 1.71301,1.70622 1.35986,3.24492z"/><path d="M286.47048,98.15514c-0.35315,1.5387 -1.53455,2.58061 -2.63873,2.32719c-1.10419,-0.25343 -1.71302,-1.70623 -1.35987,-3.24493c0.35315,-1.5387 1.53455,-2.58061 2.63874,-2.32718c1.10419,0.25343 1.71301,1.70622 1.35985,3.24492z"/></g><path d="M191.13333,145.2165l1.78959,-7.79726l88.36904,20.28197l-1.78959,7.79727z" fill="#808080" stroke="none"/><path d="M210.88389,149.47842l1.71502,-7.47237l46.78361,10.73752l-1.71502,7.47237z" fill="#878787" stroke="none"/><path d="M199.48987,126.54322l3.00285,-8.61321l78.29757,17.97043l-1.05354,9.0606c0,0 -25.38703,-8.08389 -38.4553,-11.08325c-13.65491,-3.134 -41.79158,-7.33457 -41.79158,-7.33457z" fill="#6f6f6f" stroke="none"/></g><path d="M254.90373,300.1415c0,0.5 -0.5,0.5 -0.5,0.5l-0.62833,-0.01675c-0.22851,-0.12567 -0.47204,-0.2565 -0.71961,-0.39536c-0.0893,1.63819 -0.15205,3.27669 -0.15205,4.91211c0,0 0,0.5 -0.5,0.5c-0.5,0 -0.5,-0.5 -0.5,-0.5c0,-1.82198 0.09431,-3.65215 0.21631,-5.48273c-0.9096,-0.61975 -1.67936,-1.40675 -1.71631,-2.51727c0,0 0,-0.5 0.5,-0.5c0.5,0 0.5,0.5 0.5,0.5c-0.03104,0.51367 0.32214,0.96965 0.7964,1.36142c0.15659,-2.1931 0.33278,-4.38443 0.41394,-6.56063c-0.55246,0.14932 -1.06464,0.35428 -1.43299,0.61523c0,0 -0.41602,0.27735 -0.69337,-0.13868c-0.27735,-0.41602 0.13867,-0.69338 0.13867,-0.69338c0.55955,-0.35668 1.27393,-0.6213 2.01829,-0.79982c0.01526,-0.67987 0.01946,-1.35806 0.00906,-2.03415c0,-1.62085 -0.06475,-3.23295 -0.12834,-4.84243c-0.74614,-0.36752 -1.46772,-0.78837 -2.14901,-1.24154c0,0 -0.41602,-0.27735 -0.13867,-0.69338c0.27735,-0.41602 0.69337,-0.13868 0.69337,-0.13868c0.49516,0.3309 1.01451,0.64448 1.5502,0.93035c-0.04322,-1.17127 -0.07754,-2.34193 -0.07754,-3.51432c0,-0.6427 -0.33745,-2.97681 0.09438,-3.54236c0.58448,-0.76547 2.71957,-0.7069 3.59453,-0.70389c0.3725,-0.09459 0.73909,-0.19434 1.10071,-0.2991c-0.02691,-0.32081 -0.03962,-0.64044 -0.03962,-0.95465c0,0 0,-0.5 0.5,-0.5c0.5,0 0.5,0.5 0.5,0.5c0,0.2128 0.0051,0.43255 0.01686,0.65586c1.27441,-0.41017 2.49511,-0.88331 3.70584,-1.41146c-0.07876,-0.49494 -0.21714,-0.99498 -0.2227,-1.49439c0,0 0,-0.5 0.5,-0.5c0.5,0 0.5,0.5 0.5,0.5c-0.00603,0.39258 0.04364,0.75385 0.09761,1.10275c0.72294,-0.33155 1.44608,-0.68211 2.17879,-1.04996l0.12005,-0.15634c0,0 0.35356,-0.35355 0.70711,0c0.35355,0.35355 0,0.70711 0,0.70711l-0.37995,0.34366c-0.84202,0.41908 -1.67169,0.81776 -2.50236,1.19248c0.01277,0.42264 -0.04657,0.85549 -0.27403,1.33391l0.05279,0.02639c0,0 0,0.5 -0.5,0.5c-0.5,0 -0.5,-0.5 -0.5,-0.5l0.05278,-0.47361c0.07994,-0.14853 0.13467,-0.29811 0.16995,-0.4486c-1.17602,0.50079 -2.36466,0.95108 -3.60336,1.34092c0.10273,0.66095 0.28231,1.30858 0.57784,1.85768l0.05279,0.47361c0,0 0,0.5 -0.5,0.5c-0.5,0 -0.5,-0.5 -0.5,-0.5l0.05278,-0.02639c-0.29845,-0.62774 -0.50367,-1.31673 -0.63188,-2.02133c-0.3647,0.1033 -0.73434,0.20137 -1.10982,0.29397c-0.46982,0.00151 -2.65282,-0.05937 -2.90547,0.2961c-0.23689,0.3333 0.09438,2.52986 0.09438,2.95765c0,1.33893 0.04478,2.67588 0.09645,4.01412c0.4315,0.19297 0.86998,0.36512 1.31167,0.51154l0.44544,0.37079c0,0 0.35356,0.35355 0,0.70711c-0.35356,0.35355 -0.70711,0 -0.70711,0l-0.05456,-0.12921c-0.31958,-0.10706 -0.63729,-0.22622 -0.95205,-0.356c0.05718,1.45653 0.11016,2.91568 0.11016,4.38166c-0.00686,0.61599 -0.02201,1.23316 -0.04348,1.85132c0.44871,-0.06347 0.88889,-0.09682 1.29348,-0.10132l0.60356,0.39645c0,0 0.35356,0.35355 0,0.70711c-0.35356,0.35355 -0.70711,0 -0.70711,0l0.10356,-0.10355c-0.3894,-0.00599 -0.85482,0.02758 -1.33333,0.10091c-0.10966,2.45315 -0.30144,4.92029 -0.45124,7.38984c0.34415,0.20517 0.67312,0.38111 0.9129,0.52599l0.37167,-0.01675c0,0 0.5,0 0.5,0.5z" fill="#660a0a" stroke="none" stroke-width="0.5" stroke-linecap="butt"/><path d="M228.65548,180.6219c0.44721,0.22361 0.22361,0.67082 0.22361,0.67082l-0.25,0.5c-0.12283,0.24566 -0.23787,0.4937 -0.34924,0.74275c0.97233,-0.23696 1.91115,-0.53557 2.78715,-0.95298c1.16235,-0.02528 4.57298,-0.58329 5.46843,0.13307c0.13062,0.1045 0.1966,0.25025 0.22021,0.41709c0.26689,-0.12279 0.53194,-0.25814 0.79538,-0.41046l0.79566,-0.14576c0,0 0.49269,-0.0852 0.57789,0.40749c0.0852,0.49269 -0.40749,0.57789 -0.40749,0.57789l-0.62233,0.09945c-0.44519,0.26538 -0.89931,0.47837 -1.36096,0.66219c-0.04853,0.14274 -0.09202,0.2675 -0.11529,0.36054c-0.52082,2.08289 -0.74016,4.52522 -1.63942,6.53984c0.12204,0.03922 0.24732,0.08669 0.3764,0.14807l0.5,0.25c0,0 0.44721,0.22361 0.22361,0.67082c-0.22361,0.44721 -0.67082,0.22361 -0.67082,0.22361l-0.5,-0.25c-0.11184,-0.06019 -0.22168,-0.11023 -0.3299,-0.15347c-0.46536,1.20322 -0.72574,2.75044 -1.07893,4.21488c0.59503,0.17174 1.19422,0.24137 1.88244,0.24137h0.25c0,0 0.5,0 0.5,0.5c0,0.5 -0.5,0.5 -0.5,0.5h-0.25c-0.77412,0 -1.45975,-0.08338 -2.13652,-0.27651c-0.33845,1.16196 -0.78574,2.20226 -1.50992,2.88006c-0.18567,0.17378 -0.4703,0.32173 -0.8154,0.44992c0.0482,0.0617 0.09562,0.12549 0.14208,0.19178l0.26698,0.53114c0,0 0.22361,0.44721 -0.22361,0.67082c-0.44721,0.22361 -0.67082,-0.22361 -0.67082,-0.22361l-0.23302,-0.46886c-0.09899,-0.14536 -0.20351,-0.27827 -0.31153,-0.40356c-1.20727,0.2804 -2.63105,0.44278 -3.36913,0.62908c-0.85022,0.28069 -1.70028,0.52717 -2.55025,0.75654c-0.21177,0.59802 -0.38231,1.21444 -0.5952,1.84259l0.00634,0.42062c0,0 0,0.5 -0.5,0.5c-0.5,0 -0.5,-0.5 -0.5,-0.5l0.00634,-0.57938c0.15172,-0.47026 0.28751,-0.93089 0.43197,-1.3822c-1.74224,0.4457 -3.48422,0.85199 -5.2265,1.36636c-0.55156,0.16283 -1.25214,0.69761 -1.92597,0.93473c-0.12085,0.21202 -0.23412,0.42413 -0.33863,0.63411l-0.25,0.5c0,0 -0.22361,0.44721 -0.67082,0.22361c-0.44721,-0.22361 -0.22361,-0.67082 -0.22361,-0.67082l0.25,-0.5c0.03559,-0.07089 0.07201,-0.14179 0.10924,-0.21268c-0.11832,-0.06983 -0.23127,-0.16824 -0.33736,-0.30085c-0.58537,-0.73172 -0.07451,-3.85803 -0.07297,-4.72163c-0.12838,-0.75376 -0.19786,-1.5267 -0.21434,-2.30647c-0.41076,-0.13367 -0.8159,-0.31502 -1.26097,-0.53756c0,0 -0.44721,-0.22361 -0.22361,-0.67082c0.22361,-0.44721 0.67082,-0.22361 0.67082,-0.22361c0.29429,0.14714 0.56139,0.27325 0.82317,0.37613c0.05961,-1.55508 0.31758,-3.11514 0.72773,-4.58354c0.3979,-1.42456 1.10664,-2.73571 1.37201,-4.17103c-0.10984,-0.08377 -0.23157,-0.16017 -0.37012,-0.22713c0,0 -0.44721,-0.22361 -0.22361,-0.67082c0.22361,-0.44721 0.67082,-0.22361 0.67082,-0.22361c0.00906,0.00465 0.01807,0.00932 0.02701,0.01401c-0.00007,-0.02223 -0.00027,-0.04449 -0.00061,-0.0668c0,0 0,-0.5 0.5,-0.5c0.5,0 0.5,0.5 0.5,0.5c-0.00202,0.18122 -0.00824,0.36118 -0.01829,0.54c0.61602,-0.40075 1.11906,-0.89679 1.79861,-1.23916c0.47647,-0.24006 0.97119,-0.44345 1.4795,-0.61928c0.0303,-0.38626 0.10772,-0.76554 0.29296,-1.15517c0,0 0.22361,-0.44721 0.67082,-0.22361c0.44721,0.22361 0.22361,0.67082 0.22361,0.67082c-0.06785,0.12606 -0.11622,0.25616 -0.15023,0.3893c1.88643,-0.51451 3.90825,-0.7512 5.84807,-1.13381c0.21018,-0.48666 0.41892,-0.97508 0.65774,-1.45271l0.25,-0.5c0,0 0.22361,-0.44721 0.67082,-0.22361zM227.37909,184.54271c0,0 -0.22361,0.44721 -0.67082,0.22361c-0.44721,-0.22361 -0.22361,-0.67082 -0.22361,-0.67082c0.01905,-0.03787 0.0379,-0.07582 0.05659,-0.11384c-1.802,0.31216 -3.66062,0.53121 -5.37707,1.02389c0.00785,0.18786 0.0177,0.37649 0.0177,0.56356v0.25c0,0 0,0.5 -0.5,0.5c-0.5,0 -0.5,-0.5 -0.5,-0.5v-0.25c0,-0.08169 -0.00073,-0.16241 -0.00175,-0.24229c-0.35168,0.13037 -0.69517,0.27634 -1.02858,0.44145c-0.66125,0.32745 -1.17366,0.83043 -1.78768,1.23233c0.12779,0.15468 0.26419,0.3108 0.42156,0.46496l0.25,0.25c0,0 0.35355,0.35355 0,0.70711c-0.35355,0.35355 -0.70711,0 -0.70711,0l-0.25,-0.25c-0.1341,-0.13632 -0.2505,-0.27638 -0.35936,-0.41587c-0.47517,2.71985 -1.59918,5.24604 -1.87199,8.02961c0.18308,0.02162 0.3762,0.03271 0.5849,0.03271h0.25c0,0 0.5,0 0.5,0.5c0,0.5 -0.5,0.5 -0.5,0.5h-0.25c-0.22621,0 -0.43931,-0.01144 -0.64349,-0.03373c-0.01146,0.64643 0.02997,1.30884 0.14179,1.99248c0.00228,1.39604 -0.07054,2.83102 -0.07291,4.20988c0.56839,-0.91381 1.25032,-1.78953 1.97106,-2.52219c0,0 0.35355,-0.35355 0.70711,0c0.35355,0.35355 0,0.70711 0,0.70711c-0.31933,0.31282 -0.63106,0.6647 -0.92674,1.03968c0.76765,-0.29815 1.59604,-0.52596 2.36931,-0.74679c1.34199,-0.38324 2.7004,-0.68967 4.06089,-1.0291c0.19541,-0.47555 0.42703,-0.94031 0.72696,-1.39469c0,0 0.27735,-0.41603 0.69338,-0.13868c0.41603,0.27735 0.13868,0.69338 0.13868,0.69338c-0.11453,0.16984 -0.21749,0.34202 -0.31127,0.51635c0.58619,-0.15937 1.17196,-0.33109 1.75615,-0.52396c0.44025,-0.10893 1.7181,-0.27387 2.84988,-0.49254c-0.21852,-0.22426 -0.4323,-0.46265 -0.6268,-0.74985c0,0 -0.27735,-0.41603 0.13868,-0.69338c0.41603,-0.27735 0.69338,0.13868 0.69338,0.13868c0.27166,0.41534 0.58737,0.73188 0.90538,1.05018c0.40403,-0.11492 0.70846,-0.24045 0.82504,-0.37638c0.57551,-0.67103 0.95624,-1.55451 1.25267,-2.52413c-0.12316,-0.05438 -0.24725,-0.1127 -0.37272,-0.17511c0,0 -0.44721,-0.22361 -0.22361,-0.67082c0.22361,-0.44721 0.67082,-0.22361 0.67082,-0.22361c0.06497,0.03268 0.1294,0.06403 0.1934,0.09409c0.35282,-1.41142 0.61211,-2.90987 1.07724,-4.15311c-0.36559,-0.11808 -0.72558,-0.27992 -1.09779,-0.64021c0,0 -0.35355,-0.35355 0,-0.70711c0.35355,-0.35355 0.70711,0 0.70711,0c0.25173,0.26336 0.50438,0.40122 0.76617,0.49326c0.66439,-1.39983 0.79224,-3.00499 1.14245,-4.4994c0.13889,-0.59268 0.28829,-1.16389 0.43113,-1.72708c-0.58613,0.18765 -1.18208,0.35998 -1.78519,0.56112c0,0 -0.47434,0.15811 -0.63246,-0.31623c-0.15811,-0.47434 0.31623,-0.63246 0.31623,-0.63246c0.9124,-0.30398 1.79646,-0.54664 2.65952,-0.87098c-0.01162,-0.03257 -0.04418,-0.05113 -0.10496,-0.05113c-1.46427,0 -3.02077,0.18554 -4.53157,0.13307c-1.08358,0.57645 -2.29048,0.93114 -3.54884,1.19665c-0.11781,0.26546 -0.23908,0.52947 -0.36883,0.79033z" fill="#660a0a" stroke="none" stroke-width="0.5" stroke-linecap="butt"/></g></g></svg>