<svg version="1.1" xmlns="http://www.w3.org/2000/svg" xmlns:xlink="http://www.w3.org/1999/xlink" width="34.17311" height="34.17311" viewBox="0,0,34.17311,34.17311"><g transform="translate(-222.91348,-162.9135)"><g data-paper-data="{&quot;isPaintingLayer&quot;:true}" stroke="none" stroke-miterlimit="10" stroke-dasharray="" stroke-dashoffset="0" style="mix-blend-mode: normal"><path d="M229.98315,162.9135h20.03378c3.9166,0 7.06966,3.15307 7.06966,7.06966v20.03379c0,3.91659 -3.15306,7.06966 -7.06966,7.06966h-20.03378c-3.91659,0 -7.06967,-3.15307 -7.06967,-7.06966v-20.03379c0,-3.91659 3.15308,-7.06966 7.06967,-7.06966z" fill-opacity="0.09677" fill="#191919" fill-rule="evenodd" stroke-width="4.43922" stroke-linecap="round" stroke-linejoin="round"/><g fill-rule="nonzero" stroke-width="0" stroke-linecap="butt" stroke-linejoin="miter"><path d="M239.57318,191.86414c-0.79882,-1.75967 -0.60004,-3.69046 0.49975,-4.18974c1.0998,-0.49928 2.68413,0.62206 3.48296,2.38173c0.79882,1.75967 -0.27374,4.68758 -0.27374,4.68758c0,0 -2.91014,-1.1199 -3.70897,-2.87957z" fill="#bfbfbf"/><path d="M242.53598,190.68029c-1.47749,-1.24563 -2.1277,-3.0745 -1.34918,-3.99793c0.77853,-0.92343 2.69099,-0.59174 4.16847,0.6539c1.47749,1.24563 1.76717,4.35034 1.76717,4.35034c0,0 -3.10898,0.23933 -4.58646,-1.00631z" fill="#ffffff"/><path d="M226.6139,185.89414l5.42159,-6.49694c0,0 2.17633,1.18027 3.3996,2.20106c1.04739,0.87403 3.14164,2.83865 4.60707,4.24199c1.04301,0.99882 1.93972,1.85703 1.93972,1.85703l-5.65025,6.30614c0,0 -2.19282,-1.19404 -3.05662,-1.91486c-0.79468,-0.66314 -2.59054,-1.87241 -3.94969,-3.15189c-1.5956,-1.50208 -2.71143,-3.04253 -2.71143,-3.04253z" fill="#ffffff"/><path d="M231.38775,179.48914c0,0 1.09698,-1.46921 2.03567,-2.36752c1.20334,-1.15157 3.93407,-4.51978 3.93407,-4.51978l11.19185,7.64386c0,0 -1.56831,2.21743 -2.52566,3.40495c-0.46274,0.574 -1.18804,1.42777 -1.88202,2.23447c-0.99492,1.15654 -1.92542,2.21635 -1.92542,2.21635c0,0 -2.24994,-0.81829 -3.40748,-1.73893c-0.39395,-0.31332 -1.40763,-1.27295 -2.06385,-1.80337c-0.97289,-0.78636 -1.67964,-1.23349 -2.62977,-2.13205c-1.63714,-1.54828 -2.7274,-2.93798 -2.7274,-2.93798z" fill="#bfbfbf"/><path d="M236.88987,172.67838l6.19361,-7.42209c0,0 2.21483,2.57126 3.66988,3.96507c0.69118,0.66208 1.98421,1.38981 3.07755,2.35986c1.86897,1.65819 3.55521,3.54413 3.55521,3.54413l-5.25525,6.29761c0,0 -1.34299,-1.33037 -3.07267,-2.5631c-1.39261,-0.9925 -3.10923,-1.83381 -4.01602,-2.53922c-1.6186,-1.25914 -4.15231,-3.64226 -4.15231,-3.64226z" fill="#ffffff"/></g></g></g></svg>