<svg version="1.1" xmlns="http://www.w3.org/2000/svg" xmlns:xlink="http://www.w3.org/1999/xlink" width="111.69991" height="261.01158" viewBox="0,0,111.69991,261.01158"><g transform="translate(-185.13257,-44.93961)"><g data-paper-data="{&quot;isPaintingLayer&quot;:true}" fill-rule="nonzero" stroke-linejoin="miter" stroke-miterlimit="10" stroke-dasharray="" stroke-dashoffset="0" style="mix-blend-mode: normal"><path d="M271.97857,300.93685c0,0 -0.32367,1.73288 -1.38459,2.2761c-1.06093,0.54322 -3.03601,-0.01265 -3.03601,-0.01265c0,0 1.46028,-1.798 2.18856,-3.07878c0.72827,-1.28078 1.53021,-3.46121 1.53021,-3.46121c0,0 -0.68536,-8.46625 -1.08889,-11.55c-0.26488,-2.0242 -1.31005,-3.4819 -1.41951,-3.90774c-0.49253,-1.91598 0.21024,-5.66562 0.21024,-5.66562c0,0 -1.38148,1.69436 -1.80725,2.51275c-0.40669,0.78172 -0.69275,2.29264 -0.69275,2.29264c0,0 -0.44474,-4.43806 -0.41703,-6.66429c0.02784,-2.23588 0.8337,-6.72215 0.8337,-6.72215c0,0 -1.00113,1.01654 -1.43304,1.60106c-0.52284,0.70758 -1.48363,2.34622 -1.48363,2.34622c0,0 0.61919,-4.22567 1.23627,-6.55557c0.45501,-1.71794 1.22484,-4.78126 1.89028,-6.73601c0.36505,-1.07234 0.87345,-1.81106 0.87345,-1.81106l-3.33333,2.91756c0,0 0.48419,-3.72601 1.33757,-6.30232c0.33614,-1.0148 1.86583,-5.0943 1.86583,-5.0943c0,0 -1.27467,0.17319 -1.91577,0.38978c-0.64618,0.2183 -1.94621,0.91493 -1.94621,0.91493c0,0 1.41216,-3.41588 2.37022,-4.86007c0.48976,-0.73827 1.77378,-2.99795 2.60275,-5.68767c1.66843,-5.41349 3.01895,-12.56901 3.01895,-12.56901z" data-paper-data="{&quot;index&quot;:null}" fill="#000000" stroke="#000000" stroke-width="0" stroke-linecap="round"/><path d="M209.47864,230.75946c0,0 1.35052,6.65059 3.01895,11.68206c0.82897,2.49992 2.11299,4.60014 2.60275,5.28632c0.95806,1.34229 2.37022,4.51712 2.37022,4.51712c0,0 -1.30003,-0.64747 -1.9462,-0.85036c-0.64111,-0.2013 -1.91577,-0.36228 -1.91577,-0.36228c0,0 1.52969,3.79164 1.86583,4.73483c0.85337,2.39451 1.33757,5.85759 1.33757,5.85759l-3.33333,-2.71168c0,0 0.5084,0.6866 0.87345,1.68327c0.66545,1.81682 1.43527,4.66397 1.89028,6.26068c0.61709,2.16549 1.23628,6.09297 1.23628,6.09297c0,0 -0.9608,-1.52301 -1.48364,-2.18066c-0.43191,-0.54327 -1.43303,-1.48807 -1.43303,-1.48807c0,0 0.80586,4.16969 0.8337,6.24779c0.02772,2.06914 -0.41702,6.19402 -0.41702,6.19402c0,0 -0.28606,-1.40429 -0.69275,-2.13086c-0.42577,-0.76064 -1.80725,-2.33544 -1.80725,-2.33544c0,0 0.70276,3.48505 0.21023,5.26583c-0.10947,0.39578 -1.15463,1.75063 -1.41951,3.63199c-0.40354,2.86615 -1.08889,10.73497 -1.08889,10.73497c0,0 0.80194,2.02658 1.53021,3.21697c0.72827,1.1904 2.18855,2.86151 2.18855,2.86151c0,0 -1.97507,0.51665 -3.036,0.01176c-1.06093,-0.50489 -1.38459,-2.11549 -1.38459,-2.11549z" data-paper-data="{&quot;index&quot;:null}" fill="#000000" stroke="#000000" stroke-width="0" stroke-linecap="round"/><path d="M285.97857,229.50946c0,0 1.35051,7.01781 3.01894,12.32711c0.82897,2.63796 2.11299,4.85415 2.60275,5.57821c0.95806,1.4164 2.37022,4.76654 2.37022,4.76654c0,0 -1.30003,-0.68322 -1.94621,-0.89732c-0.6411,-0.21242 -1.91577,-0.38228 -1.91577,-0.38228c0,0 1.52969,4.001 1.86583,4.99627c0.85338,2.52673 1.33757,6.18103 1.33757,6.18103l-3.33333,-2.86141c0,0 0.5084,0.72451 0.87345,1.77621c0.66544,1.91713 1.43527,4.9215 1.89028,6.60637c0.61708,2.28506 1.23628,6.42941 1.23628,6.42941c0,0 -0.9608,-1.6071 -1.48363,-2.30106c-0.4319,-0.57327 -1.43304,-1.57025 -1.43304,-1.57025c0,0 0.80585,4.39993 0.83369,6.59277c0.02772,2.18338 -0.41702,6.53604 -0.41702,6.53604c0,0 -0.28606,-1.48184 -0.69275,-2.24852c-0.42577,-0.80264 -1.80725,-2.46439 -1.80725,-2.46439c0,0 0.70276,3.67749 0.21024,5.55659c-0.10947,0.41764 -1.15463,1.84729 -1.41951,3.83254c-0.40353,3.02441 -1.0889,11.32772 -1.0889,11.32772c0,0 0.80194,2.13848 1.53021,3.39461c0.72827,1.25612 2.18856,3.01952 2.18856,3.01952c0,0 -1.97508,0.54518 -3.036,0.01241c-1.06093,-0.53276 -1.38459,-2.2323 -1.38459,-2.2323z" data-paper-data="{&quot;index&quot;:null}" fill="#000000" stroke="#000000" stroke-width="0" stroke-linecap="round"/><path d="M195.47861,298.17877c0,0 -0.32367,1.73844 -1.3846,2.2834c-1.06093,0.54497 -3.036,-0.01269 -3.036,-0.01269c0,0 1.46029,-1.80377 2.18856,-3.08865c0.72827,-1.28488 1.53021,-3.47232 1.53021,-3.47232c0,0 -0.68536,-8.49341 -1.0889,-11.58705c-0.26488,-2.03069 -1.31004,-3.49308 -1.41951,-3.92028c-0.49252,-1.92212 0.21024,-5.68379 0.21024,-5.68379c0,0 -1.38148,1.69979 -1.80725,2.5208c-0.40669,0.78424 -0.69275,2.3 -0.69275,2.3c0,0 -0.44474,-4.4523 -0.41702,-6.68567c0.02784,-2.24305 0.83369,-6.74371 0.83369,-6.74371c0,0 -1.00112,1.01981 -1.43303,1.6062c-0.52284,0.70986 -1.48363,2.35375 -1.48363,2.35375c0,0 0.61918,-4.23923 1.23627,-6.5766c0.455,-1.72345 1.22483,-4.7966 1.89028,-6.75762c0.36505,-1.07577 0.87345,-1.81687 0.87345,-1.81687l-3.33333,2.92692c0,0 0.4842,-3.73795 1.33757,-6.32253c0.33614,-1.01806 1.86583,-5.11065 1.86583,-5.11065c0,0 -1.27466,0.17375 -1.91577,0.39103c-0.64618,0.219 -1.94621,0.91787 -1.94621,0.91787c0,0 1.41216,-3.42683 2.37022,-4.87566c0.48976,-0.74064 1.77378,-3.00756 2.60275,-5.70591c1.66843,-5.43085 3.01895,-12.60932 3.01895,-12.60932z" fill="#000000" stroke="#000000" stroke-width="0" stroke-linecap="round"/><path d="M196.03059,304.39162c0,0 -0.63536,-101.38988 -0.79335,-125.01802c-0.05451,-8.15261 13.18688,-35.76129 45.20201,-35.9211c31.60235,-0.15775 44.85672,28.48704 44.84884,35.89673c-0.07659,46.24274 0.65429,124.99249 0.65429,124.99249l-15.49667,0.09614l-0.15882,-121.84912l-5.31625,-3.15415c0,0 0.37014,20.101 0.3562,33.38422c-0.00978,9.32336 -1.16134,27.20607 -1.72221,44.46949c-0.78012,24.01221 -1.04056,47.13787 -1.04056,47.13787l-42.71366,0.07222c0,0 -0.76177,-23.0202 -2.00635,-46.90363c-0.93127,-17.87109 -2.42628,-36.22551 -2.47621,-45.78058c-0.06739,-12.89748 0.95823,-32.48932 0.95823,-32.48932l-5.81569,2.90899l0.35311,122.07281z" fill="#000000" stroke="#000000" stroke-width="2" stroke-linecap="butt"/><path d="M217.15228,175.07418v-14c0,0 15.04214,5.5 22.5,5.5c7.37453,0 22,-5.5 22,-5.5v15.5c0,0 -14.62547,5 -22,5c-7.45786,0 -22.5,-6.5 -22.5,-6.5z" fill="#990f0f" stroke="none" stroke-width="0" stroke-linecap="butt"/><path d="M188.84708,236.03686c0,0 2.44073,-12.22824 2.88127,-20.16598c0.44054,-7.93774 0.29637,-30.80954 0.2589,-36.4139c-0.06499,-9.71921 8.18425,-19.4827 14.57495,-25.17951c6.68191,-5.95639 16.37627,-10.50707 16.37627,-10.50707l16.75079,61.76549l18.41681,-63.11225c0,0 10.07214,6.13574 14.82784,12.03495c4.7557,5.89921 14.6055,15.28659 14.60419,24.97403c-0.00096,7.0587 -0.46944,22.09814 0.5674,35.42967c1.04714,13.46381 3.59972,25.18566 3.59972,25.18566c0,0 -11.69132,5.40633 -25.15264,13.60438c-8.23625,5.01594 -25.0053,15.54099 -25.0053,15.54099c0,0 -17.6373,-9.53537 -27.13235,-16.17017c-12.66471,-8.84965 -25.56785,-16.98628 -25.56785,-16.98628z" fill="#4b4b4b" stroke="none" stroke-width="0" stroke-linecap="butt"/><path d="M212.96163,152.27874l9.97685,-4.67504c0,0 4.53468,14.21741 6.96155,22.56236c3.02422,10.399 9.78924,35.03646 9.78924,35.03646c0,0 6.36662,-22.67835 9.60914,-32.93913c2.844,-8.99966 8.60766,-25.33979 8.60766,-25.33979l10.51028,5.5539c0,0 -10.37752,26.27376 -15.43368,38.3022c-4.50289,10.71223 -13.43626,30.37844 -13.43626,30.37844c0,0 -8.0411,-19.10665 -12.12539,-29.68878c-4.69258,-12.15816 -14.45939,-39.19062 -14.45939,-39.19062z" fill="#2b2b2b" stroke="none" stroke-width="0" stroke-linecap="butt"/><g stroke="#000000" stroke-width="0" stroke-linecap="butt"><path d="M188.1076,294.77986v-12.78717h29.10326v12.78717z" fill="#8b0e0e"/><path d="M198.45539,295.29643v-13.64812h8.66631v13.64812z" fill="#ae1111"/><path d="M211.51954,295.29643v-13.64812h8.6663v13.64812z" fill="#9b1010"/><path d="M185.39127,295.12424v-13.64812h8.6663v13.64812z" fill="#9b1010"/><path d="M185.13258,295.12424v-13.64812h4.78587v13.64812z" fill="#ae1111"/><path d="M216.04671,295.29643v-13.64812h4.78587v13.64812z" fill="#ae1111"/></g><g data-paper-data="{&quot;index&quot;:null}" stroke="#000000" stroke-width="0" stroke-linecap="butt"><path d="M264.75432,295.77986v-12.78717h29.10326v12.78717z" fill="#8b0e0e"/><path d="M274.84335,296.29643v-13.64812h8.6663v13.64812z" fill="#ae1111"/><path d="M261.77931,296.29643v-13.64812h8.66631v13.64812z" fill="#9b1010"/><path d="M287.90747,296.12424v-13.64812h8.66631v13.64812z" fill="#9b1010"/><path d="M292.04661,296.12424v-13.64812h4.78587v13.64812z" fill="#ae1111"/><path d="M261.13248,296.29643v-13.64812h4.78587v13.64812z" fill="#ae1111"/></g><path d="M188.84708,235.90353c0,0 1.09445,-5.07537 1.66302,-8.34847c0.56857,-3.2731 1.28415,-8.61749 1.28415,-8.61749c0,0 15.28187,8.27277 24.23684,14.90958c8.95497,6.63681 24.77654,18.31577 24.77654,18.31577c0,0 14.05284,-10.42546 23.46556,-17.57289c9.41272,-7.14743 23.89351,-15.66835 23.89351,-15.66835c0,0 0.6179,6.51871 1.31379,10.64718c0.69589,4.12848 2.22474,10.34575 2.22474,10.34575c0,0 -11.69132,5.40633 -25.15264,13.60438c-8.23625,5.01594 -25.0053,15.54099 -25.0053,15.54099c0,0 -17.6373,-9.53537 -27.13235,-16.17017c-12.66471,-8.84965 -25.56785,-16.98628 -25.56785,-16.98628z" fill="#2b2b2b" stroke="none" stroke-width="0" stroke-linecap="butt"/><path d="M257.71119,202.7076c0.13577,-1.23759 0.44943,-2.40292 0.90909,-3.46822l-2.24845,-2.4008l4.3389,-5.01156l2.24311,2.39509c1.14585,-0.67879 2.41755,-1.11548 3.75359,-1.2566l0.7095,-3.4644l6.10435,1.5418l-0.70652,3.44993c1.24314,0.82649 2.30262,1.93952 3.1137,3.24726l3.20855,-1.12648l1.88707,6.62888l-3.33274,1.17009c-0.00982,0.32761 -0.03268,0.65751 -0.06905,0.98905c-0.12705,1.15818 -0.40991,2.25304 -0.82241,3.26189l2.51641,2.68693l-4.3389,5.01157l-2.41926,-2.58321c-1.22917,0.76399 -2.61039,1.2461 -4.06502,1.37795l-0.72643,3.54716l-6.10435,-1.54182l0.74196,-3.62296c-1.14095,-0.78185 -2.12263,-1.80712 -2.89354,-3.00282l-2.95963,1.03909l-1.88707,-6.6289l2.97363,-1.044c0.0053,-0.39512 0.02953,-0.79381 0.07353,-1.19492zM267.14806,208.78206c2.27515,0.30783 4.34423,-1.49087 4.62142,-4.01753c0.27719,-2.52665 -1.34247,-4.82446 -3.61762,-5.1323c-2.27515,-0.30784 -4.34424,1.49087 -4.62143,4.01753c-0.2772,2.52665 1.34248,4.82447 3.61763,5.1323z" fill="#404040" stroke="none" stroke-width="0.5" stroke-linecap="butt"/><path d="M272.65386,198.0345c-0.33541,-0.67082 0.33541,-1.00623 0.33541,-1.00623l0.06459,0.13541c0.46717,-0.92702 1.0491,-1.68563 1.67082,-2.51459c0,0 0.45,-0.6 1.05,-0.15c0.6,0.45 0.15,1.05 0.15,1.05c-0.56727,0.75637 -1.10915,1.4376 -1.52918,2.28541l-0.73541,0.53541c0,0 -0.67082,0.33541 -1.00623,-0.33541z" fill="#2b2b2b" stroke="none" stroke-width="0.5" stroke-linecap="butt"/><path d="M270.65999,217.16991c-0.67082,0.33541 -1.00623,-0.33541 -1.00623,-0.33541l-0.38664,-0.77451c-0.35807,-0.59679 -0.70175,-1.20319 -1.01337,-1.8255c0,0 -0.33541,-0.67082 0.33541,-1.00623c0.67082,-0.33541 1.00623,0.33541 1.00623,0.33541c0.30228,0.60553 0.63843,1.19417 0.98663,1.77451l0.41336,0.82549c0,0 0.33541,0.67082 -0.33541,1.00623z" fill="#2b2b2b" stroke="none" stroke-width="0.5" stroke-linecap="butt"/><path d="M256.37667,200.95297c0.37742,-0.64812 1.02554,-0.2707 1.02554,-0.2707l0.51849,0.30194c0.40976,0.24299 0.8563,0.43093 1.31483,0.56015c0,0 0.7203,0.20896 0.51134,0.92926c-0.20896,0.7203 -0.92926,0.51134 -0.92926,0.51134c-0.57384,-0.1703 -1.1326,-0.40656 -1.65175,-0.70452l-0.51849,-0.30194c0,0 -0.64812,-0.37742 -0.2707,-1.02554z" fill="#2b2b2b" stroke="none" stroke-width="0.5" stroke-linecap="butt"/><path d="M260.25498,195.42942c-0.53033,0.53033 -1.06066,0 -1.06066,0l-0.11967,-0.13033c-0.46609,-0.35193 -0.96209,-0.66991 -1.48541,-0.92918c0,0 -0.67082,-0.33541 -0.33541,-1.00623c0.33541,-0.67082 1.00623,-0.33541 1.00623,-0.33541c0.60174,0.30325 1.17437,0.66805 1.71459,1.07082l0.28033,0.26967c0,0 0.53033,0.53033 0,1.06066z" fill="#2b2b2b" stroke="none" stroke-width="0.5" stroke-linecap="butt"/><path d="M255.99436,211.62942c-0.53033,-0.53033 0,-1.06066 0,-1.06066c0.2,-0.2 1,-1 1.2,-1.2c0,0 0.53033,-0.53033 1.06066,0c0.53033,0.53033 0,1.06066 0,1.06066c-0.2,0.2 -0.4,0.4 -0.6,0.6l-0.6,0.6c0,0 -0.53033,0.53033 -1.06066,0z" fill="#2b2b2b" stroke="none" stroke-width="0.5" stroke-linecap="butt"/><path d="M279.23609,207.53626c-0.23717,0.71151 -0.94868,0.47434 -0.94868,0.47434l-0.54474,-0.18391c-0.46127,-0.11908 -0.94172,-0.18139 -1.41809,-0.1776c0,0 -0.75,0 -0.75,-0.75c0,-0.75 0.75,-0.75 0.75,-0.75c0.59857,0.00377 1.20031,0.08079 1.7819,0.2224l0.65527,0.21609c0,0 0.71151,0.23717 0.47434,0.94868z" fill="#2b2b2b" stroke="none" stroke-width="0.5" stroke-linecap="butt"/><path d="M269.32464,192.24909c-0.75,0 -0.75,-0.75 -0.75,-0.75c0,-0.53333 0,-1.86667 0,-2.4c0,0 0,-0.75 0.75,-0.75c0.75,0 0.75,0.75 0.75,0.75c0,0.53333 0,1.06667 0,1.6v0.8c0,0 0,0.75 -0.75,0.75z" fill="#2b2b2b" stroke="none" stroke-width="0.5" stroke-linecap="butt"/><path d="M261.59425,218.62942c-0.53033,-0.53033 0,-1.06066 0,-1.06066l0.13033,-0.11967c0.30529,-0.39261 0.56239,-0.84689 0.67239,-1.3319c0,0 0.1819,-0.72761 0.90951,-0.54571c0.72761,0.1819 0.54571,0.90951 0.54571,0.90951c-0.17889,0.67183 -0.51768,1.30656 -0.92761,1.8681l-0.26967,0.28033c0,0 -0.53033,0.53033 -1.06066,0z" fill="#2b2b2b" stroke="none" stroke-width="0.5" stroke-linecap="butt"/><path d="M282.23618,201.93626c-0.23717,0.71151 -0.94868,0.47434 -0.94868,0.47434l-0.54473,-0.18391c-0.53333,-0.13333 -1.06667,-0.26667 -1.6,-0.4c0,0 -0.72761,-0.1819 -0.54571,-0.90951c0.1819,-0.72761 0.90951,-0.54571 0.90951,-0.54571c0.53333,0.13333 1.06667,0.26667 1.6,0.4l0.65527,0.21609c0,0 0.71151,0.23717 0.47434,0.94868z" fill="#2b2b2b" stroke="none" stroke-width="0.5" stroke-linecap="butt"/><path d="M280.63615,212.93626c-0.23717,0.71151 -0.94868,0.47434 -0.94868,0.47434l-0.50992,-0.17608c-0.66667,-0.13333 -1.33333,-0.26667 -2,-0.4c0,0 -0.73544,-0.14709 -0.58835,-0.88252c0.14709,-0.73544 0.88252,-0.58835 0.88252,-0.58835c0.66667,0.13333 1.33333,0.26667 2,0.4l0.69008,0.22392c0,0 0.71151,0.23717 0.47434,0.94868z" fill="#2b2b2b" stroke="none" stroke-width="0.5" stroke-linecap="butt"/><path d="" fill="#000000" stroke="none" stroke-width="1.5" stroke-linecap="butt"/><path d="" fill="#ffffff" stroke="#000000" stroke-width="1.5" stroke-linecap="butt"/><path d="" fill="#ffffff" stroke="#000000" stroke-width="1.5" stroke-linecap="butt"/><path d="" data-paper-data="{&quot;index&quot;:null}" fill="#000000" stroke="none" stroke-width="1.5" stroke-linecap="butt"/><path d="" fill="#000000" stroke="none" stroke-width="1.5" stroke-linecap="butt"/><path d="" fill="#ffffff" stroke="#000000" stroke-width="1.4" stroke-linecap="butt"/><path d="" fill="#000000" stroke="none" stroke-width="1.5" stroke-linecap="butt"/><path d="" fill="#ffffff" stroke="#000000" stroke-width="1.15" stroke-linecap="butt"/><path d="" fill="#ffffff" stroke="#000000" stroke-width="1.15" stroke-linecap="butt"/><path d="" fill="#000000" stroke="none" stroke-width="1.5" stroke-linecap="butt"/><path d="" data-paper-data="{&quot;index&quot;:null}" fill="#ffffff" stroke="#000000" stroke-width="1" stroke-linecap="butt"/><path d="M185.64879,109.95232c0,0 3.4604,-4.93616 6.08375,-9.16872c2.62335,-4.23256 5.39772,-8.92191 6.18036,-10.61845c1.37025,-2.97025 -1.76158,-42.04806 35.76194,-45.07094c46.38313,-2.87922 41.96977,35.32417 44.85654,42.3779c1.43701,3.51126 1.74766,7.82699 3.55133,12.97594c1.80367,5.14896 5.97015,14.20502 5.97015,14.20502c0,0 -3.77367,-1.90965 -5.37963,-2.77102c-1.60597,-0.86137 -4.27806,-2.40896 -4.27806,-2.40896c0,0 0.85183,2.0295 1.29499,8.44692c0.46525,6.73728 0.39574,14.26964 0.88688,16.72777c0.9441,4.72528 2.67338,9.28173 2.67338,9.28173c0,0 -3.38637,-1.59184 -4.46182,-2.44009c-1.1202,-0.88357 -2.13063,-2.75969 -2.13063,-2.75969c0,0 -0.60234,5.13693 -1.44024,8.31664c-0.8379,3.17971 -2.25473,5.7053 -2.25473,5.7053l-1.2941,-2.40756c0,0 -0.97667,2.34497 -2.11466,3.58193c-1.13801,1.23695 -4.24556,4.488 -4.24556,4.488c0,0 0.36286,-1.48301 0.44735,-2.28738c0.09508,-0.90518 0.09513,-2.87708 0.09513,-2.87708c0,0 -1.25296,2.75634 -2.3927,4.30091c-1.13975,1.54456 -4.34301,4.82715 -4.34301,4.82715c0,0 0.45862,-2.4797 0.35613,-4.07019c-0.10249,-1.59048 -0.78121,-2.52616 -0.78121,-2.52616c0,0 -0.79041,4.0917 -1.678,6.09677c-0.85226,1.92526 -3.54585,5.70395 -3.54585,5.70395c0,0 0.16729,-2.67921 -0.21702,-4.90147c-0.23956,-1.38528 -1.52927,-2.689 -1.52927,-2.689c0,0 -0.21186,4.02669 -0.71442,6.43401c-0.50256,2.40732 -2.07386,6.92232 -2.07386,6.92232c0,0 -1.12606,-3.79682 -2.45719,-5.64644c-0.44361,-0.6164 -1.98882,-2.23881 -1.98882,-2.23881c0,0 -0.51474,3.54226 -1.05043,5.38732c-0.56133,1.93333 -2.2442,5.96025 -2.2442,5.96025c0,0 -2.40324,-5.31222 -3.03427,-7.50844c-0.48914,-1.7024 -0.43581,-4.56891 -0.43581,-4.56891c0,0 -0.68662,1.75781 -1.21791,2.66917c-1.22709,2.10492 -2.25571,6.77075 -2.25571,6.77075c0,0 -2.46659,-6.25943 -3.00751,-7.91102c-0.76335,-2.33078 -0.17302,-4.55568 -0.17302,-4.55568c0,0 -0.93236,1.79533 -1.30958,3.18775c-0.37722,1.39241 -0.7193,6.19932 -0.7193,6.19932c0,0 -1.93282,-4.52782 -2.70932,-6.68313c-0.72504,-2.01247 -1.80591,-5.84964 -1.80591,-5.84964c0,0 -0.27414,2.14601 -0.19297,3.32712c0.08117,1.1811 0.68729,3.52831 0.68729,3.52831c0,0 -3.44078,-4.51284 -3.89943,-5.13094c-0.78432,-1.05698 -2.20717,-5.19118 -2.20717,-5.19118c0,0 -0.16184,1.63538 -0.11352,2.68133c0.04834,1.04595 0.42929,4.1515 0.42929,4.1515c0,0 -2.33122,-1.71217 -3.57816,-3.0656c-1.24693,-1.35342 -2.22552,-3.23374 -2.22552,-3.23374l-0.01596,2.78422c0,0 -4.23969,-4.84953 -6.87114,-11.46634c-1.25308,-3.1509 -2.99095,-10.72488 -2.99095,-10.72488c0,0 -0.68154,1.41076 -2.37798,4.11379c-1.69645,2.70302 -6.67823,6.24661 -6.67823,6.24661c0,0 1.62623,-6.30549 2.11266,-10.42952c0.48644,-4.12403 0.61422,-9.23468 0.61422,-9.23468c0,0 -1.83807,3.183 -3.46527,4.48117c-1.62718,1.29817 -5.99442,1.88587 -5.99442,1.88587c0,0 4.16196,-8.19333 6.03245,-14.05911c1.38701,-4.34961 2.98254,-13.61819 2.98254,-13.61819c0,0 -2.18486,1.33777 -3.54922,2.2476c-2.12623,1.4179 -7.57271,2.09866 -7.57271,2.09866z" data-paper-data="{&quot;index&quot;:null}" fill="#000000" stroke="none" stroke-width="1.5" stroke-linecap="butt"/><path d="M211.29577,79.94315c-0.43157,-1.68446 -0.56985,-3.37519 -0.44673,-5.01817l-4.46165,-1.85335l3.71976,-8.95472l4.45104,1.84894c1.30922,-1.52716 2.9228,-2.81063 4.77909,-3.74625l-0.73279,-4.90085l9.58997,-1.43393l0.72975,4.88035c2.21282,0.37388 4.30594,1.22351 6.13934,2.46595l4.05861,-3.27029l6.08394,7.55044l-4.21568,3.39688c0.15193,0.43118 0.28621,0.87271 0.40183,1.32397c0.40388,1.57635 0.55087,3.1582 0.46718,4.70127l4.99338,2.07424l-3.71977,8.95472l-4.80062,-1.99416c-1.38627,1.68479 -3.13484,3.08894 -5.16689,4.0793l0.7503,5.01789l-9.58997,1.43392l-0.76631,-5.12514c-2.04274,-0.37341 -3.97908,-1.15283 -5.69773,-2.27232l-3.74373,3.01661l-6.08394,-7.55045l3.76142,-3.03086c-0.19269,-0.51637 -0.35991,-1.04804 -0.49978,-1.59396zM227.99257,82.52207c3.43899,-0.88112 5.51257,-4.38324 4.63146,-7.82225c-0.88112,-3.43899 -4.38326,-5.51258 -7.82225,-4.63146c-3.43899,0.88112 -5.51258,4.38325 -4.63146,7.82224c0.8811,3.43898 4.38325,5.51259 7.82225,4.63148z" fill="#c11313" stroke="none" stroke-width="0.5" stroke-linecap="butt"/><path d="M243.65764,97.44913c0.41611,-1.15532 1.0061,-2.19793 1.72982,-3.10897l-1.87134,-2.85277l5.72565,-3.75585l1.86689,2.84599c1.37073,-0.37281 2.82259,-0.4825 4.27825,-0.2927l1.51614,-3.15389l6.17154,2.96677l-1.5098,3.1407c1.14445,1.0963 2.03025,2.42303 2.60847,3.87625l3.6685,-0.30047l0.559,6.82473l-3.8105,0.3121c-0.08229,0.31217 -0.17902,0.62341 -0.29049,0.93292c-0.3894,1.08118 -0.93108,2.06362 -1.59213,2.93193l2.09436,3.19278l-5.72566,3.75586l-2.01351,-3.06953c-1.47827,0.43434 -3.05688,0.56099 -4.63695,0.33343l-1.55233,3.22921l-6.17153,-2.96678l1.58551,-3.29823c-1.04526,-1.02855 -1.86731,-2.25208 -2.42725,-3.58792l-3.38391,0.27716l-0.55899,-6.82474l3.39989,-0.27847c0.09226,-0.37812 0.2055,-0.75506 0.34037,-1.1295zM252.38915,105.57968c2.35867,0.84955 4.95948,-0.37386 5.80901,-2.73255c0.84954,-2.35868 -0.37385,-4.95946 -2.73255,-5.80901c-2.35868,-0.84955 -4.95947,0.37385 -5.80901,2.73255c-0.84955,2.35868 0.37384,4.95947 2.73253,5.80902z" fill="#b31212" stroke="none" stroke-width="0.5" stroke-linecap="butt"/><path d="M238.83268,134.7687c0.49509,-1.59258 1.23286,-3.04272 2.16003,-4.32234l-2.71067,-3.75813l7.54275,-5.4404l2.70423,3.7492c1.83739,-0.58829 3.80071,-0.82444 5.7872,-0.65449l1.86742,-4.37045l8.5521,3.65413l-1.8596,4.35219c1.61877,1.41864 2.90042,3.1655 3.77236,5.10247l4.95943,-0.62835l1.16896,9.2263l-5.15139,0.65268c-0.09288,0.42853 -0.20537,0.85663 -0.338,1.28327c-0.46331,1.4904 -1.13918,2.85599 -1.98389,4.07387l3.03371,4.20603l-7.54277,5.44041l-2.9166,-4.04366c-1.97961,0.67823 -4.11386,0.94502 -6.27145,0.7313l-1.91201,4.47485l-8.55211,-3.65415l1.95289,-4.57048c-1.48012,-1.33269 -2.66909,-2.94332 -3.50918,-4.72215l-4.57467,0.5796l-1.16897,-9.22633l4.5963,-0.58235c0.10246,-0.51859 0.23343,-1.03684 0.39388,-1.55299zM251.16884,145.2752c3.2514,1.01079 6.70661,-0.80558 7.71741,-4.05699c1.01079,-3.2514 -0.80557,-6.70662 -4.05699,-7.71742c-3.25141,-1.01081 -6.70662,0.80557 -7.71742,4.05699c-1.0108,3.2514 0.8056,6.70662 4.057,7.71742z" fill="#8b0e0e" stroke="none" stroke-width="0.5" stroke-linecap="butt"/><path d="M208.56192,122.31912c-0.42862,-1.35636 -0.618,-2.7311 -0.59172,-4.07866l-3.72804,-1.31217l2.63359,-7.48234l3.71918,1.30905c1.00035,-1.30655 2.2603,-2.42783 3.73425,-3.27597l-0.82003,-3.96988l7.76828,-1.60468l0.81663,3.9533c1.82433,0.20538 3.57239,0.80475 5.12608,1.73671l3.16726,-2.85464l5.31064,5.89223l-3.28985,2.96511c0.1436,0.34531 0.27323,0.69989 0.38808,1.06325c0.40113,1.26931 0.59269,2.55472 0.5941,3.81888l4.17235,1.46854l-2.63359,7.48235l-4.01128,-1.41186c-1.05615,1.43879 -2.42094,2.66474 -4.03598,3.5655l0.83965,4.0647l-7.76828,1.60468l-0.85758,-4.15158c-1.6854,-0.21267 -3.30222,-0.76179 -4.75661,-1.59854l-2.92154,2.63318l-5.31063,-5.89224l2.93535,-2.6456c-0.18074,-0.41305 -0.34133,-0.83978 -0.48027,-1.27938zM222.31642,123.67092c2.76916,-0.87513 4.30454,-3.82939 3.42944,-6.59852c-0.87512,-2.76915 -3.82938,-4.30458 -6.59852,-3.42944c-2.76916,0.87513 -4.30457,3.82939 -3.42945,6.59853c0.87511,2.76915 3.8294,4.30457 6.59854,3.42943z" fill="#9f1010" stroke="none" stroke-width="0.5" stroke-linecap="butt"/></g></g></svg>