<svg version="1.1" xmlns="http://www.w3.org/2000/svg" xmlns:xlink="http://www.w3.org/1999/xlink" width="105.5" height="242.99162" viewBox="0,0,105.5,242.99162"><defs><linearGradient x1="240.3487" y1="69.79707" x2="240.3487" y2="163.79707" gradientUnits="userSpaceOnUse" id="color-1"><stop offset="0" stop-color="#0c0c0c"/><stop offset="1" stop-color="#4b4b4b"/></linearGradient></defs><g transform="translate(-187.8487,-64.29707)"><g data-paper-data="{&quot;isPaintingLayer&quot;:true}" fill-rule="nonzero" stroke-linejoin="miter" stroke-miterlimit="10" stroke-dasharray="" stroke-dashoffset="0" style="mix-blend-mode: normal"><path d="M203.29452,305.39158c0,0 -0.59799,-94.38387 -0.74669,-118.01201c-0.05131,-8.15261 7.7053,-37.76129 37.83719,-37.9211c29.74339,-0.15775 37.51221,30.48704 37.5048,37.89673c-0.07209,46.24274 0.6158,117.98648 0.6158,117.98648l-9.87922,0.09614l-0.14947,-114.84311c0,0 0.07105,-4.0993 -2.65059,-4.15415c-3.23239,-0.06514 -2.77212,4.11562 -2.77212,4.11562l0.19339,114.86995l-45.37756,0.07222l-0.28742,-115.23309c0,0 0.26305,-3.919 -2.71586,-3.93443c-2.92784,-0.01515 -2.65006,3.90899 -2.65006,3.90899l0.33234,115.0668z" fill="#000000" stroke="#000000" stroke-width="2" stroke-linecap="butt"/><path d="M255.35878,160.07112l-15.05882,69l-17.41177,-71z" fill="#990f0f" stroke="none" stroke-width="0" stroke-linecap="round"/><path d="M237.45874,177.28177l-4.18824,-15.9289l13.17648,0.30244l-3.52941,15.62646l2.82278,26.49317l-4.94043,32.54459l-6.52846,-33.34716z" fill="#740c0c" stroke="none" stroke-width="0" stroke-linecap="butt"/><path d="M215.09286,306.07269l0.47059,-120.20147l-7.52941,-21.32657c0,0 3.54903,-5.09886 6.03954,-7.03948c1.99795,-1.55681 11.04818,-3.70859 11.04818,-3.70859l15.2767,62.73496l14.58577,-62.59212c0,0 8.6481,2.0672 10.52907,3.72905c2.09674,1.85248 5.7098,6.87618 5.7098,6.87618l-6.11765,21.83138l0.94118,119.69667z" fill="#0c0c0c" stroke="none" stroke-width="0" stroke-linecap="butt"/><path d="M215.09285,306.07269l0.47058,-120.20147l-7.52941,-21.32657c0,0 3.54904,-5.09886 6.03953,-7.03947c1.99795,-1.55682 11.04819,-3.7086 11.04819,-3.7086l15.2767,63.73496l1.77993,88.54116z" fill="#151515" stroke="none" stroke-width="0" stroke-linecap="butt"/><path d="M237.81908,253.28779c-0.77077,0 -1.39561,-0.66389 -1.39561,-1.48284c0,-0.81895 0.62484,-1.48284 1.39561,-1.48284c0.77077,0 1.39561,0.66389 1.39561,1.48284c0,0.81895 -0.62484,1.48284 -1.39561,1.48284z" data-paper-data="{&quot;index&quot;:null}" fill="#b31212" stroke="none" stroke-width="1.5" stroke-linecap="butt"/><path d="M238.21124,282.12113c-0.77077,0 -1.39561,-0.66389 -1.39561,-1.48284c0,-0.81895 0.62484,-1.48284 1.39561,-1.48284c0.77077,0 1.39562,0.66389 1.39562,1.48284c0,0.81895 -0.62484,1.48284 -1.39562,1.48284z" data-paper-data="{&quot;index&quot;:null}" fill="#990f0f" stroke="none" stroke-width="1.5" stroke-linecap="butt"/><path d="M237.42692,225.45446c-0.77077,0 -1.39562,-0.66389 -1.39562,-1.48284c0,-0.81895 0.62484,-1.48284 1.39562,-1.48284c0.77077,0 1.39561,0.66389 1.39561,1.48284c0,0.81895 -0.62484,1.48284 -1.39561,1.48284z" data-paper-data="{&quot;index&quot;:null}" fill="#c01313" stroke="none" stroke-width="1.5" stroke-linecap="butt"/><path d="M227.22595,159.19738l12.86275,56.5l-21.01961,-33.5l6.90196,-3.66667l-10.35294,-11.33333z" fill="#232323" stroke="#000000" stroke-width="0" stroke-linecap="round"/><path d="M265.18674,166.19738l-10.35294,11.33333l6.90197,3.66667l-21.01961,34l12.86274,-57z" data-paper-data="{&quot;index&quot;:null}" fill="#151515" stroke="#000000" stroke-width="0" stroke-linecap="round"/><path d="M270.57909,164.03869c0,0 11.05936,14.21286 12.43361,25.65066c2.94944,24.54792 4.50756,117.34934 4.50756,117.34934h-24.47059c0,0 0.08807,-114.83662 0.47059,-122c0.38252,-7.16338 7.05883,-21 7.05883,-21z" data-paper-data="{&quot;index&quot;:null}" fill="#000000" stroke="#000000" stroke-width="0.5" stroke-linecap="round"/><path d="M215.52026,185.03869c0.38252,7.16337 0.47059,122 0.47059,122h-24.47059c0,0 1.55812,-92.80142 4.50756,-117.34934c1.37425,-11.4378 12.43362,-25.65066 12.43362,-25.65066c0,0 6.67631,13.83663 7.05883,21z" fill="#000000" stroke="#000000" stroke-width="0.5" stroke-linecap="round"/><path d="M187.8487,117.04707c0,-29.13302 23.61698,-52.75 52.75,-52.75c29.13302,0 52.75,23.61698 52.75,52.75c0,29.13302 -23.61698,52.75 -52.75,52.75c-29.13302,0 -52.75,-23.61698 -52.75,-52.75z" fill="#2b2b2b" stroke="none" stroke-width="NaN" stroke-linecap="butt"/><path d="M193.3487,116.79707c0,-25.95738 21.04262,-47 47,-47c25.95738,0 47,21.04262 47,47c0,25.95739 -21.04261,47 -47,47c-25.95738,0 -47,-21.04261 -47,-47z" fill="url(#color-1)" stroke="none" stroke-width="NaN" stroke-linecap="butt"/><path d="M196.3487,116.79707c0,-24.30053 19.69947,-44 44,-44c24.30053,0 44,19.69947 44,44c0,24.30053 -19.69947,44 -44,44c-24.30053,0 -44,-19.69947 -44,-44z" fill="#da1616" stroke="none" stroke-width="NaN" stroke-linecap="butt"/><path d="M208.8487,116.79707c0,-17.39697 14.10303,-31.5 31.5,-31.5c17.39697,0 31.5,14.10303 31.5,31.5c0,17.39697 -14.10303,31.5 -31.5,31.5c-17.39697,0 -31.5,-14.10303 -31.5,-31.5z" fill="#c01313" stroke="none" stroke-width="NaN" stroke-linecap="butt"/><path d="M236.22484,117.31777c0,8.74451 -9.16344,15.83334 -18,15.83334c-8.83656,0 -16,-7.08882 -16,-15.83334c0,-0.71486 0.14062,-2.00731 0.14062,-2.00731l33.33265,0.78857c0,0 0.52673,0.49285 0.52673,1.21873z" fill="#efefef" stroke="none" stroke-width="0" stroke-linecap="butt"/><g stroke="none" stroke-width="0" stroke-linecap="butt"><path d="M220.35974,118.23068c0,4.69442 -2.23857,8.5 -5,8.5c-2.76143,0 -5,-3.80558 -5,-8.5c0,-0.84156 0.07194,-1.65456 0.20594,-2.42218c0.84899,0.23433 1.74327,0.35952 2.66678,0.35952c0.91429,0 1.79992,-0.1227 2.64133,-0.35253c1.31985,0.76867 2.83167,1.24382 4.44603,1.33603c0.02634,0.35341 0.03992,0.71359 0.03992,1.07915z" fill="#000000"/><path d="M218.18327,118.39735c0,3.12962 -1.22902,5.66666 -2.74509,5.66666c-1.51608,0 -2.7451,-2.53705 -2.7451,-5.66666c0,-0.79341 0.07899,-1.54873 0.22162,-2.23429c0.10552,0.00329 0.21144,0.00495 0.31776,0.00495c0.91429,0 1.79992,-0.1227 2.64133,-0.35253c0.68374,0.3982 1.41899,0.71763 2.19334,0.94586c0.07554,0.51798 0.11613,1.0672 0.11613,1.636z" fill="#fdfdfd"/></g><path d="M277.10438,115.14385c0.6702,1.32376 0.78713,0.19485 0.78713,2.17392c0,8.74451 -7.16345,15.83334 -16,15.83334c-8.83656,0 -18,-7.08882 -18,-15.83334c0,-0.27298 2.8327,-0.7232 2.8327,-0.7232c0,0 6.46131,0.35812 10.52055,0.16429c5.57713,-0.26632 19.85962,-1.61501 19.85962,-1.61501z" data-paper-data="{&quot;index&quot;:null}" fill="#efefef" stroke="none" stroke-width="0" stroke-linecap="butt"/><g data-paper-data="{&quot;index&quot;:null}" stroke="none" stroke-width="0" stroke-linecap="butt"><path d="M258.69309,118.56401c0,4.69442 -2.23858,8.5 -5,8.5c-2.76143,0 -5,-3.80558 -5,-8.5c0,-0.74518 0.05641,-1.46797 0.16236,-2.15669c0.45014,0.062 0.90983,0.09403 1.37701,0.09403c0.8891,0 1.75109,-0.11603 2.57167,-0.33378c0.03163,0.00029 0.0633,0.00044 0.095,0.00044c0.63351,0 1.25325,-0.05891 1.85406,-0.17155c0.9892,0.32757 2.04686,0.50488 3.14594,0.50488c0.21591,0 0.43022,-0.00684 0.64273,-0.02032c0.09877,0.66652 0.15123,1.36433 0.15123,2.08298z" fill="#740c0c"/><path d="M256.35974,118.73068c0,3.12962 -1.22902,5.66666 -2.7451,5.66666c-1.51608,0 -2.7451,-2.53705 -2.7451,-5.66666c0,-0.80576 0.08147,-1.57224 0.22833,-2.26626c0.58456,-0.05011 1.15477,-0.15051 1.70626,-0.29685c0.03163,0.00029 0.0633,0.00044 0.095,0.00044c0.63351,0 1.25325,-0.05891 1.85406,-0.17155c0.43777,0.14497 0.88894,0.2605 1.35118,0.34427c0.16387,0.7262 0.25537,1.53601 0.25537,2.38994z" fill="#fdfdfd"/></g><path d="M239.85353,118.07677l-41.27343,0.09973l-1.57609,-4.58768l44.35309,2.83289z" fill="#740c0c" stroke="#000000" stroke-width="0" stroke-linecap="round"/><path d="M238.51913,116.56321l44.32196,-3.28426l-1.52929,4.60348l-41.2723,0.32044z" data-paper-data="{&quot;index&quot;:null}" fill="#000000" stroke="#000000" stroke-width="0" stroke-linecap="round"/><path d="M237.51536,117.46374c0,-1.38071 1.11929,-2.5 2.5,-2.5c1.38071,0 2.5,1.11929 2.5,2.5c0,1.38071 -1.11929,2.5 -2.5,2.5c-1.38071,0 -2.5,-1.11929 -2.5,-2.5z" fill="#000000" stroke="none" stroke-width="NaN" stroke-linecap="butt"/><path d="M222.02355,156.76073l6.29999,-12.925l22.66668,0.025l6.76667,13.53333c0,0 -5.85259,3.30262 -17.80406,3.51502c-11.03738,0.19616 -17.92927,-4.14835 -17.92927,-4.14835z" fill="#000000" stroke="#000000" stroke-width="0" stroke-linecap="round"/><path d="M222.02355,156.76073l6.29999,-10.925l22.66668,0.025l6.76667,11.53333c0,0 -5.85259,3.30262 -17.80406,3.51502c-11.03738,0.19616 -17.92927,-4.14835 -17.92927,-4.14835z" fill="#740c0c" stroke="#000000" stroke-width="0" stroke-linecap="round"/></g></g></svg>