<svg version="1.1" xmlns="http://www.w3.org/2000/svg" xmlns:xlink="http://www.w3.org/1999/xlink" width="93.96126" height="253.22501" viewBox="0,0,93.96126,253.22501"><g transform="translate(-192.5045,-53.38752)"><g data-paper-data="{&quot;isPaintingLayer&quot;:true}" fill-rule="nonzero" stroke-linejoin="miter" stroke-miterlimit="10" stroke-dasharray="" stroke-dashoffset="0" style="mix-blend-mode: normal"><g><path d="M195.28374,306.61253v-253.22501h91.18203v253.22501z" fill-opacity="0.01" fill="#000000" stroke="none" stroke-width="0" stroke-linecap="butt"/><path d="M201.03043,304.39161c0,0 -0.63536,-94.38387 -0.79335,-118.01201c-0.05451,-8.15261 8.18688,-36.76129 40.20201,-36.9211c31.60235,-0.15775 39.85672,29.48704 39.84884,36.89673c-0.07659,46.24274 0.65429,117.98648 0.65429,117.98648l-10.49667,0.09614l-0.15882,-114.84311c0,0 0.07549,-3.0993 -2.81625,-3.15415c-3.43441,-0.06514 -2.94538,3.11562 -2.94538,3.11562l0.20548,114.86995l-48.21366,0.07222l-0.30539,-115.23309c0,0 0.27949,-2.919 -2.8856,-2.93443c-3.11083,-0.01515 -2.81569,2.90899 -2.81569,2.90899l0.35311,115.0668z" fill="#ffffff" stroke="#000000" stroke-width="2" stroke-linecap="butt"/><path d="M255.6276,200.33383c-0.57113,0 -1.03411,-0.46299 -1.03411,-1.03411c0,-0.57113 0.46299,-1.03413 1.03411,-1.03413c0.57113,0 1.03411,0.463 1.03411,1.03413c0,0.57113 -0.46299,1.03411 -1.03411,1.03411z" fill="#000000" stroke="none" stroke-width="1.5" stroke-linecap="butt"/><path d="M250.36773,204.56942c-4.4635,-0.31439 -6.55245,-1.79392 -6.16985,-2.58011c0.11788,-0.24224 2.84645,1.06355 6.97038,1.3048c6.40897,0.37493 8.51033,-0.63173 8.51033,-0.63173v1.34616c0,0 -2.4135,1.04672 -9.31086,0.56089z" fill="#000000" stroke="#000000" stroke-width="0" stroke-linecap="butt"/><path d="M222.55497,199.29972c0,-0.57113 0.46299,-1.03413 1.03411,-1.03413c0.57113,0 1.03413,0.463 1.03413,1.03413c0,0.57113 -0.463,1.03411 -1.03413,1.03411c-0.57113,0 -1.03411,-0.46299 -1.03411,-1.03411z" fill="#000000" stroke="none" stroke-width="1.5" stroke-linecap="butt"/><path d="M228.84897,204.56942c-6.89736,0.48585 -9.31086,-0.56089 -9.31086,-0.56089v-1.34616c0,0 2.10136,1.00666 8.51033,0.63173c4.12393,-0.24126 6.85251,-1.54704 6.97039,-1.3048c0.3826,0.78618 -1.70634,2.26571 -6.16985,2.58011z" fill="#000000" stroke="#000000" stroke-width="0" stroke-linecap="butt"/><path d="M240.12943,261.12113c-0.81895,0 -1.48284,-0.66389 -1.48284,-1.48284c0,-0.81895 0.66389,-1.48284 1.48284,-1.48284c0.81895,0 1.48284,0.66389 1.48284,1.48284c0,0.81895 -0.66389,1.48284 -1.48284,1.48284z" data-paper-data="{&quot;index&quot;:null}" fill="#000000" stroke="none" stroke-width="1.5" stroke-linecap="butt"/><path d="M198.06616,305.90603c0,0 -1.78313,-111.21405 1.59783,-125.39398c1.83969,-7.71575 5.37516,-16.25757 11.46167,-21.86788c6.11033,-5.63226 14.76817,-8.31795 14.76817,-8.31795h28.39106c0,0 9.64779,3.10724 16.89548,10.0136c6.10783,5.82017 9.93151,14.77596 10.65442,22.45493c1.12949,11.99781 0.86974,123.1113 0.86974,123.1113z" fill="#0c0c0c" stroke="#000000" stroke-width="0" stroke-linecap="butt"/><path d="M198.06616,305.90603l-0.25688,-104.42606c0,0 5.99774,27.30888 8.46187,39.54889c2.13515,10.60589 5.47785,29.69373 5.47785,29.69373l10.79066,-46.84922l17.37998,50.74154l18.81238,-49.72897l9.71378,45.27897c0,0 2.83101,-16.13154 4.82526,-25.78936c2.55605,-12.37853 9.24826,-42.36636 9.24826,-42.36636l0.1852,103.89684z" fill="#990f0f" stroke="#000000" stroke-width="0" stroke-linecap="butt"/><path d="M198.06616,305.90603l-0.25688,-72.92606c0,0 4.21524,13.39077 6.31536,20.96016c2.48227,8.9468 7.62436,29.28246 7.62436,29.28246l10.79066,-41.34922l17.37998,45.40821l18.81238,-46.72897l9.71378,40.77897c0,0 4.68449,-17.73989 7.11889,-26.06975c2.24069,-7.66703 6.95463,-22.08597 6.95463,-22.08597l0.1852,72.73017z" fill="#740c0c" stroke="#000000" stroke-width="0" stroke-linecap="butt"/><path d="M226.29924,201.94071c0,-7.24874 5.87626,-13.125 13.125,-13.125c7.24874,0 13.125,5.87626 13.125,13.125c0,7.24874 -5.87626,13.125 -13.125,13.125c-7.24874,0 -13.125,-5.87626 -13.125,-13.125z" fill="#4b4b4b" stroke="none" stroke-width="0.5" stroke-linecap="butt"/><path d="M201.39381,180.41455c1.43437,-6.52516 4.22575,-11.35542 6.23473,-10.78869c2.00897,0.56672 2.47479,6.31584 1.04042,12.84099c-1.43437,6.52516 -4.22576,11.35542 -6.23473,10.7887c-2.00897,-0.56672 -2.47478,-6.31584 -1.04041,-12.841z" fill="#2b2b2b" stroke="none" stroke-width="0.5" stroke-linecap="butt"/><path d="M278.38073,192.26019c-2.14438,0.57443 -5.04652,-4.25167 -6.4821,-10.77938c-1.43558,-6.52771 -0.86099,-12.28514 1.2834,-12.85957c2.14438,-0.57443 5.04653,4.25167 6.48211,10.77938c1.43558,6.52771 0.86098,12.28514 -1.2834,12.85957z" fill="#2b2b2b" stroke="none" stroke-width="0.5" stroke-linecap="butt"/><g><path d="M261.67431,153.5539c0,0 8.96312,8.36675 8.78118,9.63487c-0.14077,0.98119 -6.62065,7.23363 -10.98599,13.64883c-5.56902,8.1841 -10.14077,16.79604 -20.12777,16.82686c-6.91553,0.02134 -14.11327,-8.49754 -19.63366,-15.70083c-5.27142,-6.87844 -9.01336,-12.41992 -9.51962,-13.87212c-0.99624,-2.85773 8.64009,-10.27794 8.64009,-10.27794" fill="none" stroke="#740c0c" stroke-width="4" stroke-linecap="round"/><g stroke="none" stroke-width="0.5" stroke-linecap="butt"><path d="M224.28095,191.82178c0,-8.31792 6.74302,-15.06094 15.06094,-15.06094c8.31792,0 15.06094,6.74302 15.06094,15.06094c0,8.31792 -6.74302,15.06093 -15.06093,15.06093c-8.31792,0 -15.06093,-6.74301 -15.06093,-15.06093z" fill="#990f0f"/><path d="M226.32807,189.48221c0,-6.7028 5.82648,-12.13648 13.01381,-12.13648c7.18733,0 13.01382,5.43368 13.01382,12.13648c0,6.7028 -5.82649,12.13648 -13.01382,12.13648c-7.18733,0 -13.01381,-5.43368 -13.01381,-12.13648z" fill="#b31212"/><path d="M244.67505,179.752c0.71656,-0.86313 2.4056,-0.64288 3.77257,0.49195c1.36697,1.13483 1.89424,2.7545 1.17768,3.61764c-0.71656,0.86313 -2.40559,0.64288 -3.77257,-0.49195c-1.36697,-1.13483 -1.89425,-2.7545 -1.17769,-3.61764z" fill="#0c0c0c"/><path d="M227.26295,187.1358c1.24241,-0.10436 2.28123,1.51023 2.32027,3.6063c0.03904,2.09607 -0.93649,3.87985 -2.1789,3.98422c-1.24241,0.10436 -2.28123,-1.51023 -2.32027,-3.6063c-0.03904,-2.09607 0.93649,-3.87985 2.1789,-3.98422z" fill="#0c0c0c"/><path d="M235.30446,204.29446c0.33464,-0.41608 1.31215,-0.4778 2.18333,-0.13785c0.87118,0.33995 1.30613,0.95282 0.97149,1.3689c-0.33464,0.41608 -1.31215,0.4778 -2.18333,0.13786c-0.87118,-0.33995 -1.30613,-0.95283 -0.97149,-1.36891z" data-paper-data="{&quot;index&quot;:null}" fill="#0c0c0c"/><path d="M234.14792,179.7322c-0.60414,0.24366 -1.23154,0.10842 -1.40135,-0.3021c-0.16981,-0.41052 0.18226,-0.94084 0.78639,-1.1845c0.60414,-0.24366 1.23154,-0.10842 1.40135,0.3021c0.16981,0.41052 -0.18226,0.94084 -0.7864,1.1845z" data-paper-data="{&quot;index&quot;:null}" fill="#0c0c0c"/><path d="M238.63225,192.35955c1.19488,-3.67646 4.77222,-5.76043 7.99021,-4.65469c3.21799,1.10575 4.85804,4.98248 3.66316,8.65894c-1.19488,3.67646 -4.77222,5.76043 -7.99021,4.65469c-3.21799,-1.10575 -4.85804,-4.98248 -3.66316,-8.65894z" fill="#0c0c0c"/><path d="M254.15044,193.16626c-0.06367,0.53786 -0.36158,1.0206 -0.66541,1.07824c-0.30383,0.05764 -0.49852,-0.33166 -0.43485,-0.86952c0.06367,-0.53786 0.36158,-1.0206 0.66541,-1.07824c0.30383,-0.05764 0.49852,0.33166 0.43485,0.86951z" data-paper-data="{&quot;index&quot;:null}" fill="#0c0c0c"/></g><g stroke="none" stroke-width="0.5" stroke-linecap="butt"><g><path d="M263.90533,163.77433c0,-3.08891 2.50406,-5.59297 5.59297,-5.59297c3.08891,0 5.59298,2.50406 5.59298,5.59297c0,3.08891 -2.50407,5.59297 -5.59298,5.59297c-3.08891,0 -5.59297,-2.50406 -5.59297,-5.59297z" fill="#990f0f"/><path d="M264.66553,162.90552c0,-2.48913 2.1637,-4.50696 4.83276,-4.50696c2.66906,0 4.83276,2.01783 4.83276,4.50696c0,2.48913 -2.1637,4.50696 -4.83276,4.50696c-2.66906,0 -4.83276,-2.01783 -4.83276,-4.50696z" fill="#b31212"/><path d="M271.4788,159.29214c0.2661,-0.32053 0.89333,-0.23873 1.40096,0.18269c0.50763,0.42142 0.70345,1.0229 0.43735,1.34343c-0.2661,0.32053 -0.89334,0.23874 -1.40097,-0.18268c-0.50763,-0.42142 -0.70344,-1.02291 -0.43734,-1.34344z" fill="#0c0c0c"/><path d="M265.01272,162.03419c0.46137,-0.03876 0.84715,0.56084 0.86165,1.33922c0.0145,0.77838 -0.34778,1.44081 -0.80915,1.47956c-0.46137,0.03876 -0.84715,-0.56084 -0.86165,-1.33922c-0.0145,-0.77838 0.34778,-1.4408 0.80915,-1.47956z" fill="#0c0c0c"/><path d="M267.99897,168.40615c0.12427,-0.15452 0.48728,-0.17744 0.8108,-0.0512c0.32352,0.12624 0.48503,0.35384 0.36076,0.50835c-0.12427,0.15452 -0.48727,0.17743 -0.81079,0.05119c-0.32352,-0.12624 -0.48504,-0.35384 -0.36077,-0.50835z" data-paper-data="{&quot;index&quot;:null}" fill="#0c0c0c"/><path d="M267.56949,159.2848c-0.22435,0.09049 -0.45734,0.04026 -0.5204,-0.11219c-0.06306,-0.15245 0.06768,-0.34939 0.29203,-0.43987c0.22435,-0.09049 0.45734,-0.04026 0.5204,0.11219c0.06306,0.15245 -0.06768,0.34939 -0.29203,0.43988z" data-paper-data="{&quot;index&quot;:null}" fill="#0c0c0c"/><path d="M269.23478,163.97404c0.44372,-1.36527 1.7722,-2.13918 2.96722,-1.72855c1.19502,0.41063 1.80406,1.85028 1.36034,3.21555c-0.44372,1.36527 -1.7722,2.13917 -2.96722,1.72854c-1.19502,-0.41063 -1.80406,-1.85027 -1.36034,-3.21555z" fill="#0c0c0c"/><path d="M274.99755,164.27363c-0.02364,0.19974 -0.13428,0.37901 -0.24711,0.40041c-0.11283,0.0214 -0.18513,-0.12316 -0.16148,-0.3229c0.02364,-0.19974 0.13428,-0.37901 0.2471,-0.40041c0.11283,-0.0214 0.18513,0.12316 0.16149,0.32289z" data-paper-data="{&quot;index&quot;:null}" fill="#0c0c0c"/></g><path d="M269.65236,158.21772c0,0 2.14656,-0.01528 3.62968,1.4525c1.08263,1.07143 1.89299,2.41109 1.89299,4.07017c0,1.80083 -0.91384,3.21161 -2.10109,4.32579c-1.27875,1.20004 -3.26817,1.19687 -3.26817,1.19687z" fill="#000000"/></g><g stroke="none" stroke-width="0.5" stroke-linecap="butt"><g><path d="M205.86074,163.4406c0,-3.08891 2.50407,-5.59297 5.59298,-5.59297c3.08891,0 5.59297,2.50406 5.59297,5.59297c0,3.08891 -2.50406,5.59297 -5.59297,5.59297c-3.08891,0 -5.59298,-2.50406 -5.59298,-5.59297z" fill="#990f0f"/><path d="M206.62096,162.57179c0,-2.48913 2.1637,-4.50696 4.83276,-4.50696c2.66906,0 4.83276,2.01783 4.83276,4.50696c0,2.48913 -2.1637,4.50696 -4.83276,4.50696c-2.66906,0 -4.83276,-2.01783 -4.83276,-4.50696z" fill="#b31212"/><path d="M213.43422,158.95842c0.2661,-0.32053 0.89333,-0.23874 1.40096,0.18269c0.50763,0.42142 0.70344,1.0229 0.43734,1.34343c-0.2661,0.32053 -0.89333,0.23874 -1.40096,-0.18268c-0.50763,-0.42142 -0.70344,-1.02291 -0.43734,-1.34343z" fill="#0c0c0c"/><path d="M206.96813,161.70046c0.46138,-0.03876 0.84715,0.56084 0.86164,1.33922c0.0145,0.77838 -0.34777,1.44081 -0.80915,1.47956c-0.46138,0.03876 -0.84715,-0.56084 -0.86164,-1.33922c-0.0145,-0.77838 0.34777,-1.4408 0.80915,-1.47956z" fill="#0c0c0c"/><path d="M209.95439,168.07242c0.12427,-0.15452 0.48728,-0.17744 0.8108,-0.0512c0.32352,0.12624 0.48504,0.35384 0.36077,0.50835c-0.12427,0.15452 -0.48728,0.17744 -0.8108,0.0512c-0.32352,-0.12624 -0.48504,-0.35384 -0.36077,-0.50835z" data-paper-data="{&quot;index&quot;:null}" fill="#0c0c0c"/><path d="M209.5249,158.95108c-0.22435,0.09049 -0.45734,0.04026 -0.5204,-0.11218c-0.06306,-0.15245 0.06769,-0.34939 0.29203,-0.43987c0.22435,-0.09049 0.45734,-0.04026 0.5204,0.11219c0.06306,0.15245 -0.06769,0.34938 -0.29203,0.43987z" data-paper-data="{&quot;index&quot;:null}" fill="#0c0c0c"/><path d="M211.19019,163.6403c0.44373,-1.36527 1.77219,-2.13917 2.96721,-1.72854c1.19502,0.41063 1.80407,1.85028 1.36034,3.21555c-0.44373,1.36527 -1.7722,2.13917 -2.96722,1.72854c-1.19502,-0.41063 -1.80406,-1.85028 -1.36033,-3.21555z" fill="#0c0c0c"/><path d="M216.95297,163.9399c-0.02364,0.19974 -0.13428,0.37901 -0.24711,0.40041c-0.11283,0.0214 -0.18512,-0.12317 -0.16148,-0.3229c0.02364,-0.19974 0.13428,-0.37901 0.24711,-0.40041c0.11283,-0.0214 0.18513,0.12316 0.16148,0.3229z" data-paper-data="{&quot;index&quot;:null}" fill="#0c0c0c"/></g><path d="M211.19424,168.92931c0,0 -1.98941,0.00317 -3.26816,-1.19687c-1.18725,-1.11418 -2.10109,-2.52497 -2.10109,-4.32579c0,-1.65908 0.81036,-2.99873 1.89299,-4.07016c1.48311,-1.46778 3.62967,-1.4525 3.62967,-1.4525z" data-paper-data="{&quot;index&quot;:null}" fill="#000000"/></g><g stroke="none" stroke-width="0.5" stroke-linecap="butt"><g><path d="M216.37233,152.68362c0,-2.52188 2.04439,-4.56627 4.56628,-4.56627c2.52188,0 4.56628,2.04439 4.56628,4.56627c0,2.52188 -2.0444,4.56628 -4.56628,4.56628c-2.52188,0 -4.56628,-2.04439 -4.56628,-4.56628z" fill="#990f0f"/><path d="M216.99299,151.9743c0,-2.0322 1.76651,-3.67962 3.94562,-3.67962c2.1791,0 3.94562,1.64742 3.94562,3.67962c0,2.0322 -1.76651,3.67962 -3.94562,3.67962c-2.1791,0 -3.94562,-1.64742 -3.94562,-3.67962z" fill="#b31212"/><path d="M222.55555,149.02424c0.21725,-0.26169 0.72935,-0.19492 1.1438,0.14915c0.41445,0.34407 0.57431,0.83513 0.35706,1.09682c-0.21725,0.26169 -0.72934,0.19492 -1.14379,-0.14915c-0.41445,-0.34407 -0.57431,-0.83513 -0.35706,-1.09682z" fill="#0c0c0c"/><path d="M217.27643,151.2629c0.37668,-0.03164 0.69164,0.45789 0.70347,1.09339c0.01183,0.6355 -0.28394,1.17632 -0.66062,1.20796c-0.37668,0.03164 -0.69164,-0.45789 -0.70347,-1.09339c-0.01183,-0.6355 0.28394,-1.17632 0.66062,-1.20796z" fill="#0c0c0c"/><path d="M219.71451,156.46517c0.10146,-0.12615 0.39783,-0.14487 0.66196,-0.0418c0.26413,0.10306 0.39601,0.28889 0.29454,0.41504c-0.10146,0.12615 -0.39783,0.14486 -0.66196,0.04179c-0.26413,-0.10306 -0.396,-0.28888 -0.29454,-0.41503z" data-paper-data="{&quot;index&quot;:null}" fill="#0c0c0c"/><path d="M219.36386,149.01824c-0.18317,0.07387 -0.37339,0.03287 -0.42487,-0.09159c-0.05149,-0.12446 0.05526,-0.28525 0.23843,-0.35913c0.18317,-0.07387 0.37338,-0.03287 0.42487,0.09159c0.05149,0.12446 -0.05526,0.28525 -0.23842,0.35913z" data-paper-data="{&quot;index&quot;:null}" fill="#0c0c0c"/><path d="M220.72345,152.84668c0.36227,-1.11465 1.44688,-1.74648 2.42253,-1.41124c0.97565,0.33524 1.47289,1.51062 1.11062,2.62528c-0.36227,1.11465 -1.44687,1.74648 -2.42252,1.41124c-0.97565,-0.33524 -1.47289,-1.51063 -1.11062,-2.62528z" fill="#0c0c0c"/><path d="M225.42836,153.09125c-0.01931,0.16307 -0.10963,0.30944 -0.20174,0.32691c-0.09212,0.01747 -0.15115,-0.10055 -0.13184,-0.26362c0.01931,-0.16307 0.10963,-0.30944 0.20175,-0.32691c0.09212,-0.01747 0.15114,0.10055 0.13184,0.26362z" data-paper-data="{&quot;index&quot;:null}" fill="#0c0c0c"/></g><path d="M220.59943,157.16475c-2.48519,-0.15765 -4.38362,-2.01869 -4.38362,-4.50887c0,-2.49018 2.02524,-4.32843 4.50887,-4.50887c0.86198,-0.06262 3.06854,2.01869 3.06854,4.50887c0,2.49018 -2.20656,4.57149 -3.19379,4.50887z" data-paper-data="{&quot;index&quot;:null}" fill="#000000"/></g><g stroke="none" stroke-width="0.5" stroke-linecap="butt"><g><path d="M255.07046,152.76501c0,-2.52188 2.04439,-4.56627 4.56628,-4.56627c2.52188,0 4.56628,2.04439 4.56628,4.56627c0,2.52188 -2.04439,4.56628 -4.56628,4.56628c-2.52188,0 -4.56628,-2.0444 -4.56628,-4.56628z" fill="#990f0f"/><path d="M255.69112,152.05569c0,-2.0322 1.76651,-3.67962 3.94562,-3.67962c2.1791,0 3.94562,1.64742 3.94562,3.67962c0,2.0322 -1.76652,3.67963 -3.94562,3.67963c-2.1791,0 -3.94562,-1.64743 -3.94562,-3.67963z" fill="#b31212"/><path d="M261.25368,149.10563c0.21725,-0.26169 0.72935,-0.19492 1.1438,0.14915c0.41445,0.34407 0.5743,0.83514 0.35706,1.09682c-0.21725,0.26169 -0.72934,0.19491 -1.14379,-0.14916c-0.41445,-0.34407 -0.57431,-0.83513 -0.35706,-1.09682z" fill="#0c0c0c"/><path d="M255.97456,151.34429c0.37668,-0.03164 0.69164,0.45789 0.70347,1.09339c0.01184,0.6355 -0.28393,1.17632 -0.66062,1.20796c-0.37668,0.03164 -0.69164,-0.45788 -0.70347,-1.09338c-0.01183,-0.6355 0.28394,-1.17632 0.66062,-1.20797z" fill="#0c0c0c"/><path d="M258.41264,156.54656c0.10146,-0.12615 0.39783,-0.14486 0.66196,-0.0418c0.26413,0.10306 0.396,0.28888 0.29454,0.41503c-0.10146,0.12615 -0.39783,0.14487 -0.66196,0.0418c-0.26413,-0.10306 -0.396,-0.28889 -0.29454,-0.41504z" data-paper-data="{&quot;index&quot;:null}" fill="#0c0c0c"/><path d="M258.062,149.09963c-0.18316,0.07387 -0.37339,0.03287 -0.42488,-0.09159c-0.05149,-0.12446 0.05526,-0.28525 0.23843,-0.35913c0.18316,-0.07387 0.37339,-0.03287 0.42488,0.09159c0.05149,0.12446 -0.05526,0.28525 -0.23843,0.35913z" data-paper-data="{&quot;index&quot;:null}" fill="#0c0c0c"/><path d="M259.42157,152.92807c0.36227,-1.11465 1.44688,-1.74648 2.42253,-1.41124c0.97566,0.33524 1.47289,1.51062 1.11062,2.62527c-0.36227,1.11465 -1.44687,1.74649 -2.42253,1.41124c-0.97566,-0.33524 -1.47289,-1.51062 -1.11062,-2.62528z" fill="#0c0c0c"/><path d="M264.12649,153.17264c-0.0193,0.16307 -0.10963,0.30944 -0.20175,0.32691c-0.09211,0.01747 -0.15114,-0.10056 -0.13184,-0.26363c0.0193,-0.16307 0.10963,-0.30944 0.20175,-0.32691c0.09211,-0.01747 0.15114,0.10056 0.13184,0.26363z" data-paper-data="{&quot;index&quot;:null}" fill="#0c0c0c"/></g><path d="M256.7202,152.73727c0,-2.49018 2.20656,-4.57149 3.06853,-4.50887c2.48363,0.18044 4.50888,2.01869 4.50888,4.50887c0,2.49018 -1.89844,4.35123 -4.38363,4.50887c-0.98723,0.06262 -3.19379,-2.01869 -3.19379,-4.50887z" fill="#000000"/></g><g stroke="none" stroke-width="0.5" stroke-linecap="butt"><g><path d="M252.52196,176.89431c0,-3.87012 3.13736,-7.00747 7.00748,-7.00747c3.87012,0 7.00748,3.13735 7.00748,7.00748c0,3.87012 -3.13736,7.00747 -7.00747,7.00747c-3.87012,0 -7.00748,-3.13735 -7.00748,-7.00747z" fill="#990f0f"/><path d="M253.47444,175.80576c0,-3.11864 2.71092,-5.64679 6.055,-5.64679c3.34409,0 6.055,2.52815 6.055,5.64679c0,3.11864 -2.71092,5.64681 -6.055,5.64681c-3.34409,0 -6.055,-2.52817 -6.055,-5.6468z" fill="#b31212"/><path d="M262.01083,171.27854c0.33339,-0.40159 1.11926,-0.29912 1.75528,0.22889c0.63602,0.52801 0.88134,1.28161 0.54795,1.6832c-0.33339,0.40159 -1.11926,0.29912 -1.75528,-0.22889c-0.63602,-0.52801 -0.88134,-1.28161 -0.54794,-1.6832z" fill="#0c0c0c"/><path d="M253.90941,174.71406c0.57806,-0.04855 1.0614,0.70268 1.07957,1.67792c0.01817,0.97525 -0.43573,1.8052 -1.01379,1.85376c-0.57806,0.04855 -1.0614,-0.70268 -1.07956,-1.67793c-0.01817,-0.97525 0.43573,-1.8052 1.01379,-1.85375z" fill="#0c0c0c"/><path d="M257.65092,182.69755c0.1557,-0.19359 0.61051,-0.22232 1.01585,-0.06414c0.40534,0.15817 0.60771,0.44333 0.45201,0.63692c-0.1557,0.19359 -0.61051,0.22231 -1.01585,0.06414c-0.40534,-0.15817 -0.60771,-0.44333 -0.45201,-0.63692z" data-paper-data="{&quot;index&quot;:null}" fill="#0c0c0c"/><path d="M257.11282,171.26933c-0.28109,0.11337 -0.57301,0.05044 -0.65202,-0.14056c-0.07901,-0.191 0.08479,-0.43775 0.36588,-0.55112c0.28109,-0.11337 0.57301,-0.05044 0.65202,0.14056c0.07901,0.191 -0.08479,0.43775 -0.36588,0.55112z" data-paper-data="{&quot;index&quot;:null}" fill="#0c0c0c"/><path d="M259.19926,177.14451c0.55595,-1.71057 2.22039,-2.68019 3.71764,-2.16571c1.49725,0.51448 2.26033,2.31823 1.70438,4.02879c-0.55595,1.71057 -2.22039,2.68018 -3.71765,2.16571c-1.49725,-0.51448 -2.26032,-2.31822 -1.70437,-4.02879z" fill="#0c0c0c"/><path d="M266.41949,177.5199c-0.02963,0.25025 -0.16824,0.47486 -0.3096,0.50168c-0.14137,0.02681 -0.23195,-0.15432 -0.20232,-0.40457c0.02963,-0.25025 0.16823,-0.47486 0.3096,-0.50168c0.14137,-0.02681 0.23195,0.15432 0.20233,0.40457z" data-paper-data="{&quot;index&quot;:null}" fill="#0c0c0c"/></g><path d="M259.68636,169.93237c0,0 2.68944,-0.01916 4.54764,1.81984c1.35643,1.34241 2.37174,3.02087 2.37174,5.09954c0,2.25627 -1.14495,4.02386 -2.63247,5.41982c-1.60215,1.50355 -4.09472,1.49956 -4.09472,1.49956c0,0 4.07855,-2.21875 4.07644,-6.8172c-0.00212,-4.59844 -4.26863,-7.02156 -4.26863,-7.02156z" fill="#000000"/></g><g stroke="none" stroke-width="0.5" stroke-linecap="butt"><g><path d="M212.14798,176.73412c0,-3.87012 3.13736,-7.00747 7.00748,-7.00747c3.87012,0 7.00748,3.13736 7.00748,7.00748c0,3.87012 -3.13736,7.00748 -7.00747,7.00748c-3.87012,0 -7.00747,-3.13736 -7.00747,-7.00747z" fill="#990f0f"/><path d="M213.10045,175.64561c0,-3.11864 2.71092,-5.64679 6.055,-5.64679c3.34409,0 6.055,2.52815 6.055,5.64679c0,3.11864 -2.71092,5.6468 -6.055,5.6468c-3.34409,0 -6.055,-2.52816 -6.055,-5.6468z" fill="#b31212"/><path d="M221.63684,171.11839c0.33339,-0.40159 1.11926,-0.29912 1.75528,0.22889c0.63602,0.52801 0.88134,1.2816 0.54794,1.6832c-0.33339,0.40159 -1.11926,0.29912 -1.75528,-0.22889c-0.63602,-0.52801 -0.88134,-1.2816 -0.54794,-1.6832z" fill="#0c0c0c"/><path d="M213.53543,174.55387c0.57806,-0.04855 1.0614,0.70267 1.07957,1.67792c0.01817,0.97525 -0.43573,1.8052 -1.01379,1.85376c-0.57806,0.04855 -1.0614,-0.70267 -1.07956,-1.67792c-0.01817,-0.97525 0.43573,-1.8052 1.01379,-1.85376z" fill="#0c0c0c"/><path d="M217.27694,182.53738c0.1557,-0.19359 0.61051,-0.22231 1.01585,-0.06414c0.40534,0.15817 0.60771,0.44332 0.45201,0.63691c-0.1557,0.19359 -0.61051,0.22232 -1.01585,0.06414c-0.40534,-0.15817 -0.60771,-0.44333 -0.45201,-0.63692z" data-paper-data="{&quot;index&quot;:null}" fill="#0c0c0c"/><path d="M216.73883,171.10918c-0.28109,0.11337 -0.573,0.05044 -0.65202,-0.14056c-0.07901,-0.191 0.0848,-0.43774 0.36589,-0.55111c0.28109,-0.11337 0.573,-0.05044 0.65202,0.14056c0.07901,0.191 -0.0848,0.43775 -0.36589,0.55112z" data-paper-data="{&quot;index&quot;:null}" fill="#0c0c0c"/><path d="M218.82528,176.98437c0.55595,-1.71057 2.22039,-2.68019 3.71764,-2.16571c1.49725,0.51448 2.26032,2.31823 1.70437,4.02879c-0.55595,1.71057 -2.22039,2.68018 -3.71764,2.16571c-1.49725,-0.51448 -2.26032,-2.31822 -1.70437,-4.02878z" fill="#0c0c0c"/><path d="M226.0455,177.35972c-0.02963,0.25025 -0.16823,0.47486 -0.3096,0.50168c-0.14137,0.02681 -0.23195,-0.15431 -0.20233,-0.40456c0.02963,-0.25025 0.16823,-0.47486 0.3096,-0.50168c0.14137,-0.02681 0.23195,0.15431 0.20233,0.40456z" data-paper-data="{&quot;index&quot;:null}" fill="#0c0c0c"/></g><path d="M218.86648,183.61096c0,0 -2.49255,0.00399 -4.09471,-1.49956c-1.48752,-1.39596 -2.63246,-3.16354 -2.63246,-5.41981c0,-2.07867 1.01531,-3.75713 2.37174,-5.09954c1.8582,-1.839 4.54764,-1.81984 4.54764,-1.81984c0,0 -4.34425,2.22388 -4.27631,6.93286c0.074,5.12908 4.0841,6.9059 4.0841,6.9059z" data-paper-data="{&quot;index&quot;:null}" fill="#000000"/></g></g></g><path d="M195.92698,106.24433c0,0 6.16329,-6.21126 6.29161,-7.11931c0.14903,-1.05462 0.13317,-13.10446 3.20701,-22.24646c3.86764,-11.50288 12.62682,-22.54047 32.76074,-23.35902c20.13392,-0.81855 33.18401,9.58963 37.30476,20.58029c3.6596,9.76068 3.04269,22.2965 4.22612,25.67179c3.44981,9.83927 6.15664,18.25048 6.15664,18.25048c0,0 -2.76715,-2.15386 -4.0797,-3.28712c-1.2242,-1.05698 -3.80143,-3.29958 -3.80143,-3.29958c0,0 3.09111,10.8538 1.31092,21.70632c-1.5623,9.9443 -7.29782,18.06721 -7.29782,18.06721l-1.15522,-2.46206c0,0 -1.02266,2.30535 -2.16005,3.49561c-1.1374,1.19025 -3.43873,3.05507 -3.43873,3.05507l-0.09205,-3.88523c0,0 -7.0601,11.55638 -24.35066,11.40282c-16.30625,-0.26795 -26.07151,-11.19688 -26.07151,-11.19688l-0.1162,2.78458c0,0 -3.89477,-3.45367 -6.18145,-10.18194c-2.72545,-8.0193 -3.23946,-12.84155 -3.23946,-12.84155c0,0 -2.33908,1.99197 -5.71704,2.90998c-4.23278,1.15033 -6.94665,0.36213 -6.94665,0.36213c0,0 3.60795,-2.84995 5.58396,-5.00299c1.76007,-1.91775 2.64658,-3.54226 2.64658,-3.54226c0,0 -2.10758,1.13771 -4.23277,1.69702c-2.21739,0.58359 -4.03008,0.55688 -4.03008,0.55688c0,0 4.97492,-5.28345 7.03074,-11.4057c1.94102,-5.7804 2.09972,-11.49278 2.09972,-11.49278c0,0 -1.36165,0.69396 -3.33013,0.83399c-1.24776,0.08877 -2.37785,-0.05129 -2.37785,-0.05129z" fill="#000000" stroke="none" stroke-width="1.5" stroke-linecap="butt"/><path d="M212.71287,113.20174c-0.57709,-7.29323 0.335,-17.15448 0.335,-17.15448c0,0 3.41059,-0.04124 13.91429,-3.14424c8.0696,-2.38394 20.54731,-9.48722 20.54731,-9.48722c0,0 -2.16005,3.00503 -3.40781,4.46015c-1.32651,1.54696 -3.99292,4.56297 -3.99292,4.56297c0,0 7.838,-1.66761 14.67476,-4.72931c8.56837,-3.53575 10.59252,-6.05309 12.95042,-4.5927c2.7829,1.72362 1.03006,23.1827 0.71846,28.74062c-0.42163,5.66922 -2.53327,9.49969 -3.15031,12.52053c-0.61704,3.02084 -0.4096,6.13662 -2.20622,16.0397c-1.12121,6.18021 -4.16183,8.92466 -10.01942,14.66081c-5.85759,5.73616 -9.05378,9.25275 -13.01359,9.32173c-3.81077,0.06639 -8.93565,-5.1002 -13.93542,-10.38244c-5.32393,-5.62474 -8.87489,-8.47713 -9.71551,-15.13975c-0.75707,-6.00039 -0.77653,-9.90853 -1.12266,-15.24835c-0.25298,-3.90273 -2.26119,-6.44504 -2.57636,-10.42801z" fill="#ffffff" stroke="#000000" stroke-width="1.5" stroke-linecap="butt"/><path d="M260.82453,99.9632c0,0 2.59198,0.60415 4.19862,1.15942c1.60665,0.55527 4.36597,1.80059 4.36597,1.80059l0.22668,2.42482c0,0 -7.11495,-3.42513 -15.00156,-3.08944c-6.30595,0.26844 -10.0703,2.40077 -10.0703,2.40077l0.02574,-7.16531c0,0 4.86113,-0.70948 7.98911,-0.65777c3.12798,0.05171 8.0677,1.04784 8.0677,1.04784z" data-paper-data="{&quot;index&quot;:null}" fill="#000000" stroke="none" stroke-width="1.5" stroke-linecap="butt"/><path d="M248.01874,141.06894c0.5704,0.21186 3.08357,1.39942 6.02385,2.59586c2.9637,1.20597 7.21362,2.29294 7.19412,2.4605c-0.02476,0.21265 -10.43477,0.22694 -13.67937,0.63224c-2.71902,0.33964 -6.68867,0.70564 -6.68867,0.70564c0,0 -7.10401,-1.16169 -13.27235,-2.44521c-4.94371,-1.02869 -10.39929,-1.66108 -10.40995,-1.75461c-0.01439,-0.12613 3.86835,-0.71071 6.82417,-1.39467c1.14585,-0.49661 5.43971,-1.48513 5.43971,-1.48513c0,0 4.95585,-0.27766 7.60826,0.579c2.84203,0.91791 2.83546,2.44556 3.0831,2.46906c0,0 1.18436,-1.74932 2.36886,-2.10461c1.18451,-0.35528 5.08219,-0.41633 5.50828,-0.25808z" fill="#ffffff" stroke="#000000" stroke-width="1.4" stroke-linecap="butt"/><path d="M229.37075,145.6225c5.09114,1.02674 11.91756,2.80736 11.91756,2.80736c0,0 5.78976,-1.55585 8.44678,-1.8344c2.05992,-0.21596 11.216,-0.70654 11.26026,-0.33377c0.04328,0.36447 -9.03119,12.90033 -21.14808,12.44714c-13.76954,-0.43578 -22.86459,-15.13559 -22.82675,-15.30472c0.03784,-0.16913 7.2591,1.19165 12.35024,2.2184z" fill="#ffffff" stroke="#000000" stroke-width="1.9" stroke-linecap="butt"/><path d="M240.34502,142.62885c-1.03376,0 -3.5381,-3.26042 -3.7867,-5.3637c-0.22243,-1.88186 1.31512,-3.82799 3.7867,-3.82799c2.47159,0 4.2021,0.49077 4.02999,4.18853c-0.14607,3.13818 -1.55841,5.00317 -4.02999,5.00317z" fill="#ffffff" stroke="#000000" stroke-width="1.15" stroke-linecap="butt"/><path d="M243.94712,112.53513c0,0 0.1026,3.96976 0.00576,7.12662c-0.19174,6.25113 -1.08147,27.7607 -1.08147,27.7607l-2.98167,0.00864c0,0 -0.80294,-4.17274 -1.12322,-9.49979c-0.43353,-7.21063 -0.4495,-16.29321 -0.76344,-19.63229c-0.29758,-3.16513 -0.89593,-5.71453 -0.89593,-5.71453" fill="#ffffff" stroke="#000000" stroke-width="1.3" stroke-linecap="round"/><path d="M214.41252,123.32498c0,0 -4.93211,-3.51705 -6.16417,-8.97502c-1.29636,-5.74284 -1.46118,-9.7328 0.48013,-9.99193c1.94131,-0.25915 2.70321,2.37692 3.73262,8.35569c1.0294,5.97877 1.95143,10.61127 1.95143,10.61127z" data-paper-data="{&quot;index&quot;:null}" fill="#ffffff" stroke="#000000" stroke-width="1" stroke-linecap="butt"/><path d="M221.38902,131.17215c-1.88431,0.28288 -3.71317,-1.49497 -4.08487,-3.97096c-0.3717,-2.47599 0.85449,-4.71249 2.7388,-4.99537c1.88431,-0.28288 3.71317,1.49498 4.08487,3.97096c0.3717,2.47598 -0.85449,4.71248 -2.7388,4.99536z" fill="#2b2b2b" stroke="none" stroke-width="0.5" stroke-linecap="butt"/><path d="M214.20992,119.37742c0,0 -3.56385,-2.92338 -4.31816,-8.45061c-0.42079,-3.08327 2.15675,-2.28016 2.15675,-2.28016" fill="none" stroke="#000000" stroke-width="0.25" stroke-linecap="round"/><path d="M217.22333,112.72151c0.07093,-4.89188 4.83834,-8.93609 10.21137,-8.8582c5.37302,0.0779 9.02724,4.2484 8.95632,9.14029c-0.07093,4.89188 -4.12352,8.79439 -9.49655,8.7165c-5.37302,-0.0779 -9.74207,-4.1067 -9.67114,-8.99859z" fill="#990f0f" stroke="#000000" stroke-width="1.4" stroke-linecap="butt"/><path d="M221.91095,112.71625c0.03899,-2.6894 2.25078,-4.83795 4.94016,-4.79897c2.6894,0.03899 4.83795,2.25078 4.79897,4.94016c-0.03899,2.6894 -2.25077,4.83795 -4.94016,4.79897c-2.6894,-0.03899 -4.83795,-2.25078 -4.79897,-4.94016z" fill="#ffffff" stroke="#990f0f" stroke-width="0" stroke-linecap="butt"/><path d="M244.2796,112.72223c0.20353,-4.88817 4.45264,-8.85847 9.77048,-8.85847c5.31783,0 9.27453,3.96607 9.27453,8.85847c0,4.8924 -3.88585,9.07104 -9.69964,9.14188c-5.52997,0.06739 -9.55792,-4.03692 -9.34537,-9.14188z" fill="#ffffff" stroke="#000000" stroke-width="1.4" stroke-linecap="butt"/><path d="M248.88236,112.8078c0,-2.81845 2.2848,-5.10325 5.10325,-5.10325c2.81845,0 5.10325,2.2848 5.10325,5.10325c0,2.81845 -2.28479,5.10325 -5.10325,5.10325c-2.81845,0 -5.10325,-2.2848 -5.10325,-5.10325z" fill="#000000" stroke="none" stroke-width="1.5" stroke-linecap="butt"/><path d="M217.15488,112.18934c0,0 0.06357,-9.01512 10.60111,-8.8249c9.47101,0.16586 9.55554,9.40723 9.55554,9.40723z" fill="#2b2b2b" stroke="#000000" stroke-width="1.15" stroke-linecap="butt"/><path d="M243.90196,112.32023c0,0 -0.24686,-9.4582 11.19813,-9.1032c9.71427,0.33347 9.54677,9.65229 9.54677,9.65229z" fill="#2b2b2b" stroke="#000000" stroke-width="1.15" stroke-linecap="butt"/><path d="M220.72813,99.47766c0,0 3.42402,-1.44647 8.10048,-1.74079c4.67647,-0.29433 7.79262,-0.53561 7.79262,-0.53561l0.06454,6.39396c0,0 -3.8085,-0.81853 -7.99394,-0.80994c-5.59751,0.01148 -6.69223,1.19236 -10.95885,1.49696c-3.65587,0.26099 -6.73858,-0.08423 -6.73858,-0.08423l0.06361,-2.48087c0,0 3.59017,0.20359 5.23277,0.12042c1.64261,-0.08316 3.99793,-0.54426 3.99793,-0.54426z" fill="#000000" stroke="none" stroke-width="1.5" stroke-linecap="butt"/><path d="M268.64563,112.71371c1.0294,-5.97877 1.7913,-8.61483 3.73262,-8.35569c1.94131,0.25914 1.77649,4.24909 0.48013,9.99193c-1.23206,5.45797 -6.16417,8.97502 -6.16417,8.97502c0,0 0.92203,-4.6325 1.95143,-10.61127z" data-paper-data="{&quot;index&quot;:null}" fill="#ffffff" stroke="#000000" stroke-width="1" stroke-linecap="butt"/><path d="M269.05818,108.64665c0,0 2.57754,-0.80312 2.15675,2.28016c-0.75431,5.52723 -4.31816,8.45061 -4.31816,8.45061" data-paper-data="{&quot;index&quot;:null}" fill="none" stroke="#000000" stroke-width="0.25" stroke-linecap="round"/><path d="M225.03122,125.24215c0.08237,-1.02091 0.77898,-1.79771 1.55593,-1.73502c0.77695,0.06269 1.34002,0.94111 1.25765,1.96202c-0.08237,1.02091 -0.77898,1.7977 -1.55593,1.73502c-0.77695,-0.06268 -1.34002,-0.94111 -1.25765,-1.96202z" fill="#2b2b2b" stroke="none" stroke-width="0.5" stroke-linecap="butt"/><path d="M230.6589,141.84287c-2.26134,0.48193 -3.71707,1.71586 -6.03479,2.25352c-3.67098,0.85158 -7.30171,-1.88 -7.30171,-1.88c0,0 3.09022,-1.43384 6.19231,-3.12633c2.61752,-1.4281 4.94183,-3.86507 7.14102,-4.37367c2.19919,-0.5086 5.60539,1.42584 5.60539,1.42584c0,0 0.53761,3.12028 1.5631,3.46693c1.00033,0.33815 0.98229,-2.25964 0.98229,-2.25964l-0.95078,3.26687c0,0 -4.93549,0.74455 -7.19683,1.22648z" fill="#000000" stroke="#000000" stroke-width="0" stroke-linecap="round"/><path d="M243.25574,141.01639l0.62065,-5.18116c0,0 4.07398,-1.95796 6.57935,-1.16884c2.50537,0.78912 4.5235,4.06224 7.14102,5.49035c3.10209,1.69249 5.85898,3.25965 5.85898,3.25965c0,0 -2.13073,2.86492 -5.80171,2.01334c-2.31772,-0.53766 -4.94012,-2.70492 -7.20146,-3.18685c-2.26134,-0.48193 -7.19683,-1.22648 -7.19683,-1.22648z" data-paper-data="{&quot;index&quot;:null}" fill="#000000" stroke="#000000" stroke-width="0" stroke-linecap="round"/></g></g></svg>