<svg version="1.1" xmlns="http://www.w3.org/2000/svg" xmlns:xlink="http://www.w3.org/1999/xlink" width="94.83014" height="253.43862" viewBox="0,0,94.83014,253.43862"><defs><linearGradient x1="241.08794" y1="182.43259" x2="241.08794" y2="202.43259" gradientUnits="userSpaceOnUse" id="color-1"><stop offset="0" stop-color="#990f0f"/><stop offset="1" stop-color="#c01313"/></linearGradient><linearGradient x1="241.08794" y1="182.43259" x2="241.08794" y2="202.43259" gradientUnits="userSpaceOnUse" id="color-2"><stop offset="0" stop-color="#1b1b1b"/><stop offset="1" stop-color="#383838"/></linearGradient><linearGradient x1="251.54937" y1="49.9239" x2="251.54937" y2="56.6739" gradientUnits="userSpaceOnUse" id="color-3"><stop offset="0" stop-color="#1b1b1b"/><stop offset="1" stop-color="#383838"/></linearGradient></defs><g transform="translate(-192.50446,-53.17389)"><g data-paper-data="{&quot;isPaintingLayer&quot;:true}" fill-rule="nonzero" stroke-linejoin="miter" stroke-miterlimit="10" stroke-dasharray="" stroke-dashoffset="0" style="mix-blend-mode: normal"><path d="M194.40903,306.61251v-253.22501h91.18203v253.22501z" fill-opacity="0.01" fill="#000000" stroke="none" stroke-width="0" stroke-linecap="butt"/><path d="M195.92694,103.88011c0,0 6.16329,-5.92187 6.29161,-6.78761c0.33654,-2.27063 -0.16776,-40.17317 35.96775,-41.57382c44.63633,-0.91362 39.01489,35.34872 41.53088,42.1903c3.44981,9.38084 6.15664,17.40016 6.15664,17.40016c0,0 -2.76715,-2.05351 -4.0797,-3.13397c-1.2242,-1.00773 -3.80143,-3.14585 -3.80143,-3.14585c0,0 3.09111,10.3481 1.31092,20.69498c-1.5623,9.48098 -7.29782,17.22543 -7.29782,17.22543l-1.15522,-2.34735c0,0 -1.02266,2.19794 -2.16005,3.33274c-1.1374,1.13479 -3.43873,2.91273 -3.43873,2.91273l-0.09205,-3.70421c0,0 -7.0601,11.01795 -24.35066,10.87154c-16.30625,-0.25547 -26.07151,-10.6752 -26.07151,-10.6752l-0.1162,2.65484c0,0 -3.89477,-3.29276 -6.18145,-9.70754c-2.72545,-7.64567 -3.23946,-12.24324 -3.23946,-12.24324c0,0 -2.33908,1.89916 -5.71704,2.7744c-4.23278,1.09673 -6.94665,0.34526 -6.94665,0.34526c0,0 3.60795,-2.71717 5.58396,-4.76989c1.76007,-1.8284 2.64658,-3.37722 2.64658,-3.37722c0,0 -2.10758,1.0847 -4.23277,1.61795c-2.21739,0.5564 -4.03008,0.53093 -4.03008,0.53093c0,0 4.97492,-5.03728 7.03074,-10.87429c1.94102,-5.51108 2.09972,-10.95731 2.09972,-10.95731c0,0 -1.36165,0.66163 -3.33013,0.79513c-1.24776,0.08463 -2.37785,-0.0489 -2.37785,-0.0489z" fill="#000000" stroke="none" stroke-width="1.5" stroke-linecap="butt"/><path d="M201.03045,304.3916c0,0 -0.63536,-94.38387 -0.79335,-118.01201c-0.05451,-8.15261 8.18688,-36.76129 40.20201,-36.9211c31.60235,-0.15775 39.85672,29.48704 39.84884,36.89673c-0.07659,46.24274 0.65429,117.98648 0.65429,117.98648l-10.49667,0.09614l-0.15882,-114.84311c0,0 0.07549,-3.0993 -2.81625,-3.15415c-3.43441,-0.06514 -2.94538,3.11562 -2.94538,3.11562l0.20548,114.86995l-48.21366,0.07222l-0.30539,-115.23309c0,0 0.27949,-2.919 -2.8856,-2.93443c-3.11083,-0.01515 -2.81569,2.90899 -2.81569,2.90899l0.35311,115.0668z" fill="#ffffff" stroke="#000000" stroke-width="2" stroke-linecap="butt"/><g data-paper-data="{&quot;index&quot;:null}" stroke-width="0"><path d="M278.28391,250.84659c-3.15678,0.36832 -9.61598,0.39596 -9.61598,0.39596l-1.58333,-93.83333c0,0 11.49361,8.17316 14.91667,20.69053c2.96904,10.85714 5.33333,70.96486 5.33333,70.96486c0,0 -5.9881,1.42464 -9.05068,1.78198z" fill="#990f0f" stroke="none" stroke-linecap="butt"/><path d="M278.03391,250.84659c-3.15678,0.36832 -9.61598,0.39596 -9.61598,0.39596l-0.10451,-6.19352c0,0 6.64612,0.34233 9.82328,0.11555c2.99385,-0.2137 8.72244,-1.43933 8.72244,-1.43933l0.22546,5.33936c0,0 -5.9881,1.42464 -9.05068,1.78198z" fill="#740c0c" stroke="none" stroke-linecap="butt"/><path d="M285.14734,208.59204c0.4508,7.36365 1.03931,22.42151 1.03931,22.42151l-8,-20.69052l5.33333,-22.86847c0,0 1.18966,13.98779 1.62736,21.13749z" fill="#740c0c" stroke="#000000" stroke-linecap="round"/></g><path d="M255.62763,200.3338c-0.57113,0 -1.03411,-0.46299 -1.03411,-1.03411c0,-0.57113 0.46299,-1.03413 1.03411,-1.03413c0.57113,0 1.03411,0.463 1.03411,1.03413c0,0.57113 -0.46299,1.03411 -1.03411,1.03411z" fill="#000000" stroke="none" stroke-width="1.5" stroke-linecap="butt"/><g stroke-width="0"><path d="M193.41793,249.39794c0,0 2.36429,-60.10772 5.33333,-70.96486c3.42306,-12.51737 14.91667,-20.69052 14.91667,-20.69052l-1.58333,93.83333c0,0 -6.4592,-0.02764 -9.61598,-0.39596c-3.06259,-0.35733 -9.05068,-1.78198 -9.05068,-1.78198z" fill="#990f0f" stroke="none" stroke-linecap="butt"/><path d="M193.66793,249.39794l0.22546,-5.33936c0,0 5.72859,1.22563 8.72243,1.43933c3.17716,0.22679 9.82328,-0.11555 9.82328,-0.11555l-0.10451,6.19352c0,0 -6.4592,-0.02764 -9.61598,-0.39596c-3.06259,-0.35733 -9.05068,-1.78198 -9.05068,-1.78198z" fill="#740c0c" stroke="none" stroke-linecap="butt"/><path d="M197.23251,187.78789l5.33333,22.86847l-8,20.69052c0,0 0.5885,-15.05785 1.0393,-22.4215c0.4377,-7.1497 1.62736,-21.13749 1.62736,-21.13749z" fill="#740c0c" stroke="#000000" stroke-linecap="round"/></g><path d="M250.36776,204.56939c-4.4635,-0.31439 -6.55245,-1.79392 -6.16985,-2.58011c0.11788,-0.24224 2.84645,1.06355 6.97038,1.3048c6.40897,0.37493 8.51033,-0.63173 8.51033,-0.63173v1.34616c0,0 -2.4135,1.04672 -9.31086,0.56089z" fill="#000000" stroke="#000000" stroke-width="0" stroke-linecap="butt"/><path d="M222.55499,199.29969c0,-0.57113 0.46299,-1.03413 1.03411,-1.03413c0.57113,0 1.03413,0.463 1.03413,1.03413c0,0.57113 -0.463,1.03411 -1.03413,1.03411c-0.57113,0 -1.03411,-0.46299 -1.03411,-1.03411z" fill="#000000" stroke="none" stroke-width="1.5" stroke-linecap="butt"/><path d="M228.84902,204.56939c-6.89736,0.48585 -9.31086,-0.56089 -9.31086,-0.56089v-1.34616c0,0 2.10136,1.00666 8.51033,0.63173c4.12393,-0.24126 6.85251,-1.54704 6.97039,-1.3048c0.3826,0.78618 -1.70634,2.26571 -6.16985,2.58011z" fill="#000000" stroke="#000000" stroke-width="0" stroke-linecap="butt"/><path d="M240.12948,261.12113c-0.81895,0 -1.48284,-0.66389 -1.48284,-1.48284c0,-0.81895 0.66389,-1.48284 1.48284,-1.48284c0.81895,0 1.48284,0.66389 1.48284,1.48284c0,0.81895 -0.66389,1.48284 -1.48284,1.48284z" data-paper-data="{&quot;index&quot;:null}" fill="#000000" stroke="none" stroke-width="1.5" stroke-linecap="butt"/><path d="M214.06618,305.57272c0,0 -3.69417,-94.7135 -4.43924,-119.64103c-0.33464,-11.1961 0.60591,-25.33719 0.60591,-25.33719c0,0 12.03141,-16.47253 29.96533,-16.74418c18.83174,-0.28525 31.3397,17.25065 31.3397,17.25065c0,0 0.20756,11.43658 -0.1896,22.19493c-0.90814,24.60018 -4.14373,122.27684 -4.14373,122.27684z" fill="#2b2b2b" stroke="#000000" stroke-width="0" stroke-linecap="butt"/><path d="M212.71285,115.20175c-0.57709,-7.29323 0.335,-17.15448 0.335,-17.15448c0,0 3.41059,-0.04124 13.91429,-3.14424c8.0696,-2.38394 20.54731,-9.48722 20.54731,-9.48722c0,0 -2.16005,3.00503 -3.40781,4.46015c-1.32651,1.54696 -3.99292,4.56297 -3.99292,4.56297c0,0 7.838,-1.66761 14.67476,-4.72931c8.56837,-3.53575 10.59252,-6.05309 12.95042,-4.5927c2.7829,1.72362 1.03006,23.1827 0.71846,28.74062c-0.42163,5.66922 -2.53327,9.49969 -3.15031,12.52053c-0.61704,3.02084 -0.4096,6.13662 -2.20622,16.0397c-1.12121,6.18021 -4.16183,8.92466 -10.01942,14.66081c-5.85759,5.73616 -9.05378,9.25275 -13.01359,9.32173c-3.81077,0.06639 -8.93565,-5.1002 -13.93542,-10.38244c-5.32393,-5.62474 -8.87489,-8.47713 -9.71551,-15.13975c-0.75707,-6.00039 -0.77653,-9.90853 -1.12266,-15.24835c-0.25298,-3.90273 -2.26119,-6.44504 -2.57636,-10.42801z" fill="#ffffff" stroke="#000000" stroke-width="1.5" stroke-linecap="butt"/><path d="M260.77899,103.32096c0,0 1.52519,0.3137 4.25896,1.0981c2.49698,0.71646 4.45433,1.73128 4.45433,1.73128l0.19845,1.16979c0,0 -7.25856,-3.1092 -15.12281,-2.4273c-6.28806,0.54525 -9.9551,2.84092 -9.9551,2.84092l0.03379,-4.17694c0,0 3.12259,-1.71316 7.85831,-1.87808c4.90381,-0.17076 8.0925,0.56808 8.0925,0.56808z" data-paper-data="{&quot;index&quot;:null}" fill="#000000" stroke="none" stroke-width="1.5" stroke-linecap="butt"/><path d="M248.01872,143.06894c0.5704,0.21186 3.08357,1.39942 6.02385,2.59586c2.9637,1.20597 7.21362,2.29294 7.19412,2.4605c-0.02476,0.21265 -10.43477,0.22694 -13.67937,0.63224c-2.71902,0.33964 -6.68867,0.70564 -6.68867,0.70564c0,0 -7.10401,-1.16169 -13.27235,-2.44521c-4.94371,-1.02869 -10.39929,-1.66108 -10.40995,-1.75461c-0.01439,-0.12613 3.86835,-0.71071 6.82417,-1.39467c1.14585,-0.49661 5.43971,-1.48513 5.43971,-1.48513c0,0 4.95585,-0.27766 7.60826,0.579c2.84203,0.91791 2.83546,2.44556 3.0831,2.46906c0,0 1.18436,-1.74932 2.36886,-2.10461c1.18451,-0.35528 5.08219,-0.41633 5.50828,-0.25808z" fill="#ffffff" stroke="#000000" stroke-width="1.4" stroke-linecap="butt"/><path d="M229.37074,147.62253c5.09114,1.02674 11.91756,2.80736 11.91756,2.80736c0,0 5.78976,-1.55585 8.44678,-1.8344c2.05992,-0.21596 11.216,-0.70654 11.26026,-0.33377c0.04328,0.36447 -9.03119,12.90033 -21.14808,12.44714c-13.76954,-0.43578 -22.86459,-15.13559 -22.82675,-15.30472c0.03784,-0.16913 7.2591,1.19165 12.35024,2.2184z" fill="#ffffff" stroke="#000000" stroke-width="1.9" stroke-linecap="butt"/><path d="M240.34501,144.62883c-1.03376,0 -3.5381,-3.26042 -3.7867,-5.3637c-0.22243,-1.88186 1.31512,-3.82799 3.7867,-3.82799c2.47159,0 4.2021,0.49077 4.02999,4.18853c-0.14607,3.13818 -1.55841,5.00317 -4.02999,5.00317z" fill="#ffffff" stroke="#000000" stroke-width="1.15" stroke-linecap="butt"/><path d="M243.9471,114.53512c0,0 0.1026,3.96976 0.00576,7.12662c-0.19174,6.25113 -1.08147,27.7607 -1.08147,27.7607l-2.98167,0.00864c0,0 -0.80294,-4.17274 -1.12322,-9.49979c-0.43353,-7.21063 -0.4495,-16.29321 -0.76344,-19.63229c-0.29758,-3.16513 -0.89593,-5.71453 -0.89593,-5.71453" fill="#ffffff" stroke="#000000" stroke-width="1.3" stroke-linecap="round"/><path d="M214.41252,125.32496c0,0 -4.93211,-3.51705 -6.16417,-8.97502c-1.29636,-5.74284 -1.46118,-9.7328 0.48013,-9.99193c1.94131,-0.25915 2.70321,2.37692 3.73262,8.35569c1.0294,5.97877 1.95143,10.61127 1.95143,10.61127z" data-paper-data="{&quot;index&quot;:null}" fill="#ffffff" stroke="#000000" stroke-width="1" stroke-linecap="butt"/><path d="M214.2099,121.3774c0,0 -3.56385,-2.92338 -4.31816,-8.45061c-0.42079,-3.08327 2.15675,-2.28016 2.15675,-2.28016" fill="none" stroke="#000000" stroke-width="0.25" stroke-linecap="round"/><path d="M217.22333,114.7215c0.07093,-4.89188 4.83834,-8.93609 10.21137,-8.8582c5.37302,0.0779 9.02724,4.2484 8.95632,9.14029c-0.07093,4.89188 -4.12352,8.79439 -9.49655,8.7165c-5.37302,-0.0779 -9.74207,-4.1067 -9.67114,-8.99859z" fill="#ffffff" stroke="#000000" stroke-width="1.4" stroke-linecap="butt"/><path d="M220.66098,114.83944c0.03999,-2.75843 2.30855,-4.96213 5.06696,-4.92214c2.75843,0.03999 4.96213,2.30855 4.92214,5.06696c-0.03999,2.75843 -2.30854,4.96213 -5.06696,4.92214c-2.75843,-0.03999 -4.96213,-2.30855 -4.92214,-5.06696z" fill="#000000" stroke="#990f0f" stroke-width="1.5" stroke-linecap="butt"/><path d="M244.27962,114.72223c0.20353,-4.88817 4.45264,-8.85847 9.77048,-8.85847c5.31783,0 9.27453,3.96607 9.27453,8.85847c0,4.8924 -3.88585,9.07104 -9.69964,9.14188c-5.52997,0.06739 -9.55792,-4.03692 -9.34537,-9.14188z" fill="#ffffff" stroke="#000000" stroke-width="1.4" stroke-linecap="butt"/><path d="M247.88235,114.80778c0,-2.81845 2.2848,-5.10325 5.10325,-5.10325c2.81845,0 5.10325,2.2848 5.10325,5.10325c0,2.81845 -2.28479,5.10325 -5.10325,5.10325c-2.81845,0 -5.10325,-2.2848 -5.10325,-5.10325z" fill="#000000" stroke="#990f0f" stroke-width="1.5" stroke-linecap="butt"/><path d="M217.15491,114.18932c0,0 0.06357,-9.01512 10.60111,-8.8249c9.47101,0.16586 9.55554,9.40723 9.55554,9.40723c0,0 -6.16442,0.32191 -9.40408,0.22831c-3.46416,-0.10008 -10.75257,-0.81064 -10.75257,-0.81064z" fill="#ffffff" stroke="#000000" stroke-width="1.15" stroke-linecap="butt"/><path d="M243.90196,114.32022c0,0 -0.24686,-9.4582 11.19813,-9.1032c9.71427,0.33347 9.54677,9.65229 9.54677,9.65229c0,0 -7.21805,0.30895 -10.73361,0.2159c-3.39521,-0.08987 -10.01129,-0.76499 -10.01129,-0.76499z" fill="#ffffff" stroke="#000000" stroke-width="1.15" stroke-linecap="butt"/><path d="M220.769,103.22166c0,0 3.57879,-1.36215 8.26205,-1.21043c5.18965,0.16811 7.71003,0.9514 7.71003,0.9514l-0.24919,4.14049c0,0 -3.7134,-1.17699 -7.88069,-1.56645c-5.57324,-0.52087 -6.77529,0.55057 -11.05154,0.44805c-3.66412,-0.08785 -6.70003,-0.72465 -6.70003,-0.72465l0.13558,-1.22434c0,0 3.55453,0.54407 5.19761,0.61749c1.35613,0.06059 4.0643,-0.40946 4.0643,-0.40946z" fill="#000000" stroke="none" stroke-width="1.5" stroke-linecap="butt"/><path d="M268.64567,114.7137c1.0294,-5.97877 1.7913,-8.61483 3.73262,-8.35569c1.94131,0.25914 1.77649,4.24909 0.48013,9.99193c-1.23206,5.45797 -6.16417,8.97502 -6.16417,8.97502c0,0 0.92203,-4.6325 1.95143,-10.61127z" data-paper-data="{&quot;index&quot;:null}" fill="#ffffff" stroke="#000000" stroke-width="1" stroke-linecap="butt"/><path d="M269.05818,110.64664c0,0 2.57754,-0.80312 2.15675,2.28016c-0.75431,5.52723 -4.31816,8.45061 -4.31816,8.45061" data-paper-data="{&quot;index&quot;:null}" fill="none" stroke="#000000" stroke-width="0.25" stroke-linecap="round"/><path d="M208.69295,209.52911l32.33333,6.33333l31,-6.33333c0,0 0.41398,7.50116 0.17788,12.2446c-0.38358,7.70654 -2.26018,29.59072 -2.26018,29.59072l-29.9467,6.52136l-29.03037,-6.47784c0,0 -1.73022,-22.65656 -2.14911,-30.37115c-0.25785,-4.74872 -0.12485,-11.50769 -0.12485,-11.50769z" fill="#1b1b1b" stroke="#000000" stroke-width="0" stroke-linecap="round"/><path d="M208.02628,244.86244l32.08333,8.26697l32.75,-8.26697c0,0 -0.2379,17.20216 -0.84484,26.50093c-0.3976,6.09161 -1.76992,16.16782 -2.55292,24.82632c-0.80687,8.92244 -1.0189,10.33942 -1.0189,10.33942h-55.66666c0,0 -0.32946,-2.64569 -1.22352,-12.49543c-0.7472,-8.23174 -2.03952,-17.30444 -2.43051,-22.8743c-0.68472,-9.75435 -1.09597,-26.29694 -1.09597,-26.29694z" fill="#0c0c0c" stroke="#000000" stroke-width="0" stroke-linecap="round"/><path d="M231.08794,192.43259l10,-10l10,10l-10,10z" fill="url(#color-1)" stroke="url(#color-2)" stroke-width="1.5" stroke-linecap="butt"/><path d="M240.42437,56.1739c0,0 2.65024,-0.47863 5.77133,-0.77643c3.17578,-0.30301 6.83906,-0.42763 8.69383,-0.70585c2.6351,-0.39527 6.78484,-1.51773 6.78484,-1.51773c0,0 -1.30305,2.18514 -2.50804,3.23297c-1.205,1.04782 -3.24196,1.76703 -3.24196,1.76703z" fill="#000000" stroke="url(#color-3)" stroke-width="0" stroke-linecap="round"/></g></g></svg>