<svg version="1.1" xmlns="http://www.w3.org/2000/svg" xmlns:xlink="http://www.w3.org/1999/xlink" width="98.41735" height="301.1742" viewBox="0,0,98.41735,301.1742"><defs><linearGradient x1="240.00138" y1="109.78137" x2="240.00138" y2="157.78134" gradientUnits="userSpaceOnUse" id="color-1"><stop offset="0" stop-color="#1d1d1d"/><stop offset="1" stop-color="#4b4b4b"/></linearGradient></defs><g transform="translate(-191.28418,-53.38752)"><g data-paper-data="{&quot;isPaintingLayer&quot;:true}" fill-rule="nonzero" stroke-linejoin="miter" stroke-miterlimit="10" stroke-dasharray="" stroke-dashoffset="0" style="mix-blend-mode: normal"><path d="M195.28377,306.61253v-253.22501h91.18203v253.22501z" fill-opacity="0.01" fill="#000000" stroke="none" stroke-width="0" stroke-linecap="butt"/><path d="M201.03047,304.39162c0,0 -0.63536,-94.38387 -0.79335,-118.01201c-0.05451,-8.15261 8.18688,-36.76129 40.20201,-36.9211c31.60235,-0.15775 39.85672,29.48704 39.84884,36.89673c-0.07659,46.24274 0.65429,117.98648 0.65429,117.98648l-10.49667,0.09614l-0.15882,-114.84311c0,0 0.07549,-3.0993 -2.81625,-3.15415c-3.43441,-0.06514 -2.94538,3.11562 -2.94538,3.11562l0.20548,114.86995l-48.21366,0.07222l-0.30539,-115.23309c0,0 0.27949,-2.919 -2.8856,-2.93443c-3.11083,-0.01515 -2.81569,2.90899 -2.81569,2.90899l0.35311,115.0668z" fill="#2b2b2b" stroke="#000000" stroke-width="2" stroke-linecap="butt"/><path d="M270.6175,162.19572c0,0 10.93956,10.073 12.5,18c0.66021,3.35387 1.31909,26.92973 2.65294,52.40262c0.83842,16.01144 2.39719,32.46995 2.97176,46.07296c0.67183,15.90556 0.6253,27.02443 0.6253,27.02443l-23.75,-0.18655l1.03583,-116.17775z" data-paper-data="{&quot;index&quot;:null}" fill="#0c0c0c" stroke="#000000" stroke-width="0" stroke-linecap="round"/><path d="M215.23225,255.84958v-31.5h50.75v20.5c0,0 -5.92097,0.74278 -12.86842,2.68506c-6.28518,1.75713 -13.41047,4.67753 -17.75191,5.61853c-7.41097,1.60632 -20.12967,2.69641 -20.12967,2.69641z" fill="#990f0f" stroke="none" stroke-width="0" stroke-linecap="butt"/><path d="M214.33238,189.33143l1.03583,116.17775l-23.75,0.18655c0,0 -0.04654,-11.11887 0.62529,-27.02443c0.57457,-13.603 2.13334,-30.06151 2.97176,-46.07295c1.33385,-25.47289 1.99273,-49.04874 2.65294,-52.40262c1.56043,-7.927 12.5,-18 12.5,-18z" fill="#0c0c0c" stroke="#000000" stroke-width="0" stroke-linecap="round"/><path d="M255.62764,200.33383c-0.57113,0 -1.03411,-0.46299 -1.03411,-1.03411c0,-0.57113 0.46299,-1.03413 1.03411,-1.03413c0.57113,0 1.03411,0.463 1.03411,1.03413c0,0.57113 -0.46299,1.03411 -1.03411,1.03411z" fill="#000000" stroke="none" stroke-width="1.5" stroke-linecap="butt"/><path d="M250.36776,204.56944c-4.4635,-0.31439 -6.55245,-1.79392 -6.16985,-2.58011c0.11788,-0.24224 2.84645,1.06355 6.97038,1.3048c6.40897,0.37493 8.51033,-0.63173 8.51033,-0.63173v1.34616c0,0 -2.4135,1.04672 -9.31086,0.56089z" fill="#000000" stroke="#000000" stroke-width="0" stroke-linecap="butt"/><path d="M222.55501,199.29972c0,-0.57113 0.46299,-1.03413 1.03411,-1.03413c0.57113,0 1.03413,0.463 1.03413,1.03413c0,0.57113 -0.463,1.03411 -1.03413,1.03411c-0.57113,0 -1.03411,-0.46299 -1.03411,-1.03411z" fill="#000000" stroke="none" stroke-width="1.5" stroke-linecap="butt"/><path d="M228.849,204.56944c-6.89736,0.48585 -9.31086,-0.56089 -9.31086,-0.56089v-1.34616c0,0 2.10136,1.00666 8.51033,0.63173c4.12393,-0.24126 6.85251,-1.54704 6.97039,-1.3048c0.3826,0.78618 -1.70634,2.26571 -6.16985,2.58011z" fill="#000000" stroke="#000000" stroke-width="0" stroke-linecap="butt"/><path d="M214.48287,224.87126l-5.75,-63.32657l14.66101,-12.96845h33.14106l14.3363,11.96845l-3.75,64.16472l-25.57147,7.07206z" fill="#740c0c" stroke="#000000" stroke-width="0" stroke-linecap="butt"/><path d="M202.21859,97.09253c0.25102,-1.69366 -1.46576,-23.21161 13.40374,-34.61902c0.64307,-0.49334 2.10363,-0.97172 2.10363,-0.97172c0,0 14.44393,-1.67235 22.46038,-1.98307c9.82599,-0.20112 16.00904,-2.48806 24.04964,3.16344c15.06672,10.58996 15.82055,29.97153 15.48124,35.02685c-0.37799,5.63151 -0.78601,12.45234 -0.06866,20.46083c0.30383,3.39199 0.34005,7.37333 -0.34491,11.3545c-1.5623,9.48098 -7.29782,17.22543 -7.29782,17.22543l-1.15522,-2.34735c0,0 -1.02266,2.19794 -2.16005,3.33274c-1.1374,1.13479 -3.43873,2.91273 -3.43873,2.91273l-0.09205,-3.70421c0,0 -7.0601,11.01795 -24.35066,10.87154c-16.30625,-0.25547 -26.07151,-10.6752 -26.07151,-10.6752l-0.1162,2.65484c0,0 -3.89477,-3.29276 -6.18145,-9.70754c-1.26387,-3.5455 -2.9565,-8.1355 -2.9565,-8.1355c0,0 -0.10818,1.55386 -0.07507,2.43336c0.0392,1.04143 0.29509,3.4119 0.29509,3.4119c0,0 -1.73295,-2.28046 -2.38548,-3.57557c-0.70441,-1.39808 -1.69723,-4.52766 -1.69723,-4.52766l-1.11627,2.105c0,0 -0.96383,-2.79457 -0.94448,-4.28995c0.02121,-1.63869 1.06668,-5.15166 1.06668,-5.15166l1.11584,-19.4164l-1.39889,3.77263c0,0 -0.70052,-3.29165 -0.26535,-4.88675c0.56976,-2.08844 2.14029,-4.73418 2.14029,-4.73418z" fill="#000000" stroke="none" stroke-width="1.5" stroke-linecap="butt"/><path d="M204.19136,336.74419v-15.30586h15.19421v15.30586z" fill="#da1616" stroke="none" stroke-width="0" stroke-linecap="butt"/><path d="M219.28383,336.74419v-15.30586h15.19421v15.30586z" fill="#c01313" stroke="none" stroke-width="0" stroke-linecap="butt"/><path d="M234.37631,336.74419v-15.30586h15.19422v15.30586z" fill="#b31212" stroke="none" stroke-width="0" stroke-linecap="butt"/><path d="M249.46881,336.74419v-15.30586h15.19421v15.30586z" fill="#990f0f" stroke="none" stroke-width="0" stroke-linecap="butt"/><path d="M264.44705,336.74419v-15.30586h15.19421v15.30586z" fill="#740c0c" stroke="none" stroke-width="0" stroke-linecap="butt"/><path d="M204.5153,354.56173v-15.30586h15.19421v15.30586z" fill="#8b8b8b" stroke="none" stroke-width="0" stroke-linecap="butt"/><path d="M219.60778,354.56173v-15.30586h15.19421v15.30586z" fill="#666666" stroke="none" stroke-width="0" stroke-linecap="butt"/><path d="M234.70027,354.56173v-15.30586h15.19422v15.30586z" fill="#4b4b4b" stroke="none" stroke-width="0" stroke-linecap="butt"/><path d="M249.79277,354.56173v-15.30586h15.19421v15.30586z" fill="#2b2b2b" stroke="none" stroke-width="0" stroke-linecap="butt"/><path d="M264.75194,354.56173v-15.30586h15.19421v15.30586z" fill="#0c0c0c" stroke="none" stroke-width="0" stroke-linecap="butt"/><path d="M199.71451,123.02824c0,0 -0.36496,-5.83132 -0.00754,-9.53544c0.35742,-3.70413 1.84088,-9.46456 1.84088,-9.46456l12.03333,-14.25001l52.19379,-0.389l14.24662,11.6561c0,0 1.31563,6.62501 1.35517,10.91867c0.03954,4.29367 -1.16143,10.11577 -1.16143,10.11577l-18.86768,-6.97427l-43.66648,-0.41061z" fill="#740c0c" stroke="none" stroke-width="0" stroke-linecap="butt"/><path d="M208.98287,161.79468l14.66101,-12.96845h33.14106l14.3363,11.96845l-19.52902,33.43773l-22.74147,0.48081z" fill="#990f0f" stroke="#000000" stroke-width="0" stroke-linecap="butt"/><path d="M219.00952,157.1978l-7.36109,-40.72914l-1.00347,-31.84235l6.04903,-23.09546l8.38773,-5.60918l28.99932,0.24009l8.27961,4.6638l6.02772,23.26122l-1.11489,32.90523l-7.22754,39.68648l-8.13546,5.60327l-25.16639,-0.0906z" fill="#2b2b2b" stroke="none" stroke-width="0" stroke-linecap="butt"/><path d="M230.27221,157.78134l0.25,-47.99999h18.95833l0.25,47.99999z" fill="#0c0c0c" stroke="url(#color-1)" stroke-width="1.5" stroke-linecap="butt"/><path d="M225.51021,88.97642c4.6653,-0.046 9.33477,7.46863 9.33477,7.46863c0,0 -4.94913,6.48374 -9.67989,6.53038c-4.73076,0.04664 -10.00144,-6.33635 -10.00144,-6.33635c0,0 5.68126,-7.61666 10.34656,-7.66266z" data-paper-data="{&quot;index&quot;:null}" fill="#000000" stroke="#000000" stroke-width="0" stroke-linecap="butt"/><g stroke="none" stroke-width="0" stroke-linecap="butt"><path d="M230.74199,96.11558c0,2.76143 -2.23857,5 -5,5c-2.76143,0 -5,-2.23857 -5,-5c0,-2.76143 2.23857,-5 5,-5c2.76143,0 5,2.23857 5,5z" fill="#740c0c"/><path d="M229.42123,96.11557c0,2.03199 -1.64726,3.67925 -3.67925,3.67925c-2.03199,0 -3.67924,-1.64726 -3.67924,-3.67925c0,-2.03199 1.64725,-3.67924 3.67924,-3.67924c2.03199,0 3.67925,1.64726 3.67925,3.67924z" fill="#990f0f"/><g fill="#b31212"><path d="M227.40935,98.27252l-4.01024,-3.99697l0.48744,-0.48906l4.01025,3.99697z"/><path d="M228.0001,94.3801l-4.02277,3.98437l-0.48589,-0.49058l4.02276,-3.98437z"/></g></g><path d="M214.53647,249.60836l0.4984,55.90082l-23.75,0.18655c0,0 -0.04654,-11.11887 0.62529,-27.02443c0.29065,-6.88103 1.77228,-19.04438 2.43314,-28.41531c0.51917,-7.36181 0.27656,-13.00022 0.27656,-13.00022c0,0 0.18094,-3.10813 0.26207,-4.65742z" fill="#740c0c" stroke="#000000" stroke-width="0" stroke-linecap="round"/><path d="M286.10379,232.26501c0.08112,1.54928 0.26207,4.65742 0.26207,4.65742c0,0 -0.24262,5.63841 0.27655,13.00021c0.66086,9.37093 2.1425,21.53429 2.43314,28.41531c0.67183,15.90556 0.62529,27.02443 0.62529,27.02443l-23.75,-0.18655l0.4984,-55.90082z" data-paper-data="{&quot;index&quot;:null}" fill="#740c0c" stroke="#000000" stroke-width="0" stroke-linecap="round"/><path d="M264.84497,96.38908c0,0 -5.27067,6.38299 -10.00143,6.33635c-4.73076,-0.04664 -9.6799,-6.53038 -9.6799,-6.53038c0,0 4.66946,-7.51463 9.33477,-7.46863c4.6653,0.046 10.34656,7.66266 10.34656,7.66266z" data-paper-data="{&quot;index&quot;:null}" fill="#000000" stroke="#000000" stroke-width="0" stroke-linecap="butt"/><g stroke="none" stroke-width="0" stroke-linecap="butt"><path d="M259.74198,95.86558c0,2.76143 -2.23857,5 -5,5c-2.76143,0 -5,-2.23857 -5,-5c0,-2.76143 2.23857,-5 5,-5c2.76143,0 5,2.23857 5,5z" fill="#740c0c"/><path d="M258.42122,95.86557c0,2.03199 -1.64726,3.67925 -3.67925,3.67925c-2.03199,0 -3.67924,-1.64726 -3.67924,-3.67925c0,-2.03199 1.64725,-3.67924 3.67924,-3.67924c2.03199,0 3.67925,1.64726 3.67925,3.67924z" fill="#990f0f"/><g fill="#b31212"><path d="M256.40934,98.02252l-4.01024,-3.99697l0.48744,-0.48906l4.01025,3.99697z"/><path d="M257.00007,94.1301l-4.02277,3.98437l-0.48589,-0.49058l4.02276,-3.98437z"/></g></g><path d="M216.69399,61.8642l8.38773,-5.60919l28.99932,0.24009l8.27961,4.6638l6.02772,23.26122l-14.78895,-5.59364l-28.12611,0.33817l-14.82834,5.79501z" fill="#4b4b4b" stroke="none" stroke-width="0" stroke-linecap="butt"/><g stroke="none" stroke-width="0" stroke-linecap="butt"><g><g><path d="M228.01357,189.4625l2.95879,-41.54819c0,0 3.27434,-5.58302 9.06132,-5.58302c6.15683,0 9.06133,5.58302 9.06133,5.58302l2.9588,41.54819z" fill="#2b2b2b"/><path d="M229.53344,168.49984l1.14565,-16.08751c0,0 5.39572,-3.8177 9.13552,-3.89717c3.7398,-0.07947 9.54542,3.50021 9.54542,3.50021l1.1621,16.3185c0,0 -6.33288,-2.98874 -10.54864,-2.95565c-4.21576,0.03309 -10.44004,3.12162 -10.44004,3.12162z" fill="#0c0c0c"/></g><g><path d="M215.84297,189.03504c0,-6.7965 11.00187,-12.30615 24.57338,-12.30615c13.57151,0 24.46084,5.50965 24.46084,12.30615c0,1.81322 0.06193,6.6053 0.06193,6.6053c0,0 -14.57195,5.70085 -24.52275,5.70085c-10.50175,0 -24.48297,-6.46679 -24.48297,-6.46679c0,0 -0.09039,-4.30207 -0.09039,-5.83938z" fill="#4b4b4b"/><path d="M215.95525,195.20955c0,-6.7965 10.97671,-12.30615 24.51718,-12.30615c13.54046,0 24.51717,5.50965 24.51717,12.30615c0,6.7965 -10.97671,12.30616 -24.51717,12.30616c-13.54046,0 -24.51717,-5.50966 -24.51717,-12.30616z" fill="#373737"/></g></g><g><path d="M222.31849,199.05574c0,-6.55828 8.25348,-11.31335 18.43467,-11.31335c10.1812,0 18.43467,4.75508 18.43467,11.31335c0,6.55828 -8.25347,11.87481 -18.43467,11.87481c-10.18119,0 -18.43467,-5.31654 -18.43467,-11.87481z" fill="#990f0f"/><path d="M224.56434,196.21485c0,-4.92283 7.24797,-8.35211 16.18882,-8.35211c8.94085,0 16.18882,3.42928 16.18882,8.35211c0,4.92283 -7.24797,8.91356 -16.18882,8.91356c-8.94085,0 -16.18882,-3.99073 -16.18882,-8.91356z" fill="#b31212"/></g></g></g></g></svg>