<svg version="1.1" xmlns="http://www.w3.org/2000/svg" xmlns:xlink="http://www.w3.org/1999/xlink" width="34.17311" height="34.17311" viewBox="0,0,34.17311,34.17311"><g transform="translate(-222.91348,-162.9135)"><g data-paper-data="{&quot;isPaintingLayer&quot;:true}" stroke="none" stroke-miterlimit="10" stroke-dasharray="" stroke-dashoffset="0" style="mix-blend-mode: normal"><path d="M229.98315,162.9135h20.03378c3.9166,0 7.06966,3.15307 7.06966,7.06966v20.03379c0,3.91659 -3.15306,7.06966 -7.06966,7.06966h-20.03378c-3.91659,0 -7.06967,-3.15307 -7.06967,-7.06966v-20.03379c0,-3.91659 3.15308,-7.06966 7.06967,-7.06966z" fill-opacity="0.09677" fill="#191919" fill-rule="evenodd" stroke-width="4.43922" stroke-linecap="round" stroke-linejoin="round"/><g fill-rule="nonzero" stroke-width="0.5" stroke-linecap="butt" stroke-linejoin="miter"><path d="M231.65569,177.45411c0.3573,-1.02937 0.86008,-1.96653 1.47449,-2.7934l-1.55545,-2.43073l3.9442,-4.2728l0.89467,0.75885l1.55175,2.42495c1.15506,-0.37954 2.37668,-0.53138 3.59958,-0.42066l1.2951,-2.82464l4.24242,1.69779l0.92846,0.66817l-1.28968,2.81284c0.9554,0.9178 1.69182,2.04767 2.16877,3.30025l2.12539,-1.1113l0.96148,0.7072l0.42648,5.96516l-3.20635,0.41976c-0.0712,0.27699 -0.15451,0.5537 -0.25023,0.82946c-0.33437,0.9633 -0.79615,1.84587 -1.3576,2.63286l1.74081,2.72041l-4.83886,3.51395l-0.85919,-0.55999l-0.81442,-2.05541c-1.24589,0.43762 -2.57419,0.6092 -3.90146,0.47013l-1.32604,2.8921l-5.17087,-2.36598l-0.9032,-0.76575l2.25758,-2.18815c-0.87242,-0.86218 -1.5559,-1.90395 -2.01825,-3.05429l-2.8474,0.37277l-0.89084,-0.66049l0.46437,-5.30468l2.86085,-0.37452c0.08002,-0.33522 0.17763,-0.67022 0.29343,-1.00383zM238.94636,184.25163c1.97806,0.65484 4.17296,-0.51795 4.90242,-2.61952c0.72947,-2.10156 -0.28272,-4.33607 -2.26078,-4.99092c-1.97806,-0.65484 -4.17296,0.51795 -4.90242,2.61951c-0.72948,2.10155 0.28271,4.33607 2.26077,4.99092z" fill="#bfbfbf"/><path d="M230.73093,176.75939c0.3573,-1.02937 0.86008,-1.96654 1.47449,-2.79341l-1.55544,-2.43072l4.83886,-3.51395l1.55174,2.42495c1.15506,-0.37954 2.37668,-0.53139 3.59958,-0.42066l1.29511,-2.82465l5.17088,2.36597l-1.28968,2.81283c0.9554,0.9178 1.69181,2.04769 2.16877,3.30026l3.08687,-0.4041l0.42648,5.96515l-3.20634,0.41977c-0.0712,0.27699 -0.15452,0.5537 -0.25024,0.82946c-0.33436,0.9633 -0.79615,1.84587 -1.3576,2.63286l1.74081,2.72042l-4.83885,3.51394l-1.67362,-2.61541c-1.24589,0.43763 -2.5742,0.6092 -3.90147,0.47013l-1.32603,2.89209l-5.17087,-2.36597l1.35439,-2.9539c-0.87243,-0.86218 -1.5559,-1.90395 -2.01825,-3.05429l-2.84739,0.37277l-0.42648,-5.96517l2.86085,-0.37453c0.08002,-0.33522 0.17764,-0.67021 0.29343,-1.00382zM238.02161,183.55691c1.97806,0.65484 4.17296,-0.51796 4.90243,-2.61952c0.72947,-2.10156 -0.28272,-4.33607 -2.26078,-4.99092c-1.97806,-0.65484 -4.17296,0.51795 -4.90242,2.61951c-0.72948,2.10155 0.28271,4.33607 2.26077,4.99093z" fill="#ffffff"/></g></g></g></svg>