<svg version="1.1" xmlns="http://www.w3.org/2000/svg" xmlns:xlink="http://www.w3.org/1999/xlink" width="91.64354" height="259.59139" viewBox="0,0,91.64354,259.59139"><g transform="translate(-195.28381,-47.02114)"><g data-paper-data="{&quot;isPaintingLayer&quot;:true}" fill-rule="nonzero" stroke-linejoin="miter" stroke-miterlimit="10" stroke-dasharray="" stroke-dashoffset="0" style="mix-blend-mode: normal"><g><path d="M195.28382,306.61253v-253.22501h91.18203v253.22501z" fill-opacity="0.01" fill="#000000" stroke="none" stroke-width="0" stroke-linecap="butt"/><path d="M201.0305,304.39162c0,0 -0.63536,-94.38387 -0.79335,-118.01201c-0.05451,-8.15261 8.18688,-36.76129 40.20201,-36.9211c31.60235,-0.15775 39.85672,29.48704 39.84884,36.89673c-0.07659,46.24274 0.65429,117.98648 0.65429,117.98648l-10.49667,0.09614l-0.15882,-114.84311c0,0 0.07549,-3.0993 -2.81625,-3.15415c-3.43441,-0.06514 -2.94538,3.11562 -2.94538,3.11562l0.20548,114.86995l-48.21366,0.07222l-0.30539,-115.23309c0,0 0.27949,-2.919 -2.8856,-2.93443c-3.11083,-0.01515 -2.81569,2.90899 -2.81569,2.90899l0.35311,115.0668z" fill="#ffffff" stroke="#000000" stroke-width="2" stroke-linecap="butt"/><path d="M255.6277,200.3338c-0.57113,0 -1.03411,-0.46299 -1.03411,-1.03411c0,-0.57113 0.46299,-1.03413 1.03411,-1.03413c0.57113,0 1.03411,0.463 1.03411,1.03413c0,0.57113 -0.46299,1.03411 -1.03411,1.03411z" fill="#000000" stroke="none" stroke-width="1.5" stroke-linecap="butt"/><path d="M250.36781,204.56941c-4.4635,-0.31439 -6.55245,-1.79392 -6.16985,-2.58011c0.11788,-0.24224 2.84645,1.06355 6.97038,1.3048c6.40897,0.37493 8.51033,-0.63173 8.51033,-0.63173v1.34616c0,0 -2.4135,1.04672 -9.31086,0.56089z" fill="#000000" stroke="#000000" stroke-width="0" stroke-linecap="butt"/><path d="M222.55504,199.29969c0,-0.57113 0.46299,-1.03413 1.03411,-1.03413c0.57113,0 1.03413,0.463 1.03413,1.03413c0,0.57113 -0.463,1.03411 -1.03413,1.03411c-0.57113,0 -1.03411,-0.46299 -1.03411,-1.03411z" fill="#000000" stroke="none" stroke-width="1.5" stroke-linecap="butt"/><path d="M228.84906,204.56941c-6.89736,0.48585 -9.31086,-0.56089 -9.31086,-0.56089v-1.34616c0,0 2.10136,1.00666 8.51033,0.63173c4.12393,-0.24126 6.85251,-1.54704 6.97039,-1.3048c0.3826,0.78618 -1.70634,2.26571 -6.16985,2.58011z" fill="#000000" stroke="#000000" stroke-width="0" stroke-linecap="butt"/><path d="M240.12952,261.12113c-0.81895,0 -1.48284,-0.66389 -1.48284,-1.48284c0,-0.81895 0.66389,-1.48284 1.48284,-1.48284c0.81895,0 1.48284,0.66389 1.48284,1.48284c0,0.81895 -0.66389,1.48284 -1.48284,1.48284z" data-paper-data="{&quot;index&quot;:null}" fill="#000000" stroke="none" stroke-width="1.5" stroke-linecap="butt"/><path d="M215.39957,291.40603v-137.52804l10.09434,-3.55178c0,0 -0.61793,29.10902 14.95458,29.03867c15.85358,-0.07162 14.20685,-29.03867 14.20685,-29.03867l11.21593,4.05178v143.02805c0,0 -10.48719,-0.11402 -13.79683,-0.81553c-1.97511,-0.41864 -4.21712,-3.00272 -4.21712,-3.00272c0,0 -1.85772,2.82827 -4.28495,2.57511c-3.83201,-0.39968 -9.08352,-4.00235 -10.68537,-4.4527c-2.79497,-0.7858 -3.99179,-4.69982 -3.99179,-4.69982c0,0 -0.94646,3.81191 -3.09201,4.51074c-2.33667,0.76107 -10.40363,-0.11508 -10.40363,-0.11508z" fill="#b31212" stroke="none" stroke-width="2" stroke-linecap="butt"/><path d="M218.39957,269.86667c0,0 0.732,-15.24168 0.78152,-26.79614c0.03428,-7.99823 -0.33092,-22.78958 -0.38381,-38.09551c-0.08704,-25.18524 0.10229,-51.76369 0.10229,-51.76369l4.59434,-3.55178c0,0 -4.61793,33.44235 16.95458,33.03867c21.57251,-0.40368 18.20685,-33.03867 18.20685,-33.03867l4.71593,4.05178c0,0 -0.04093,26.88179 -0.34674,52.25564c-0.18752,15.55888 -0.68263,30.55077 -0.71659,38.43029c-0.04561,10.57989 0.56334,25.30274 0.56334,25.30274c0,0 -15.44558,-0.60878 -22.97689,-0.58056c-7.28436,0.0273 -21.49481,0.74722 -21.49481,0.74722z" fill="#8b8b8b" stroke="none" stroke-width="2" stroke-linecap="butt"/><path d="M196.84879,280.33018c0,0 -1.76537,-93.78521 1,-104.5c3.61868,-14.02102 18,-22 18,-22v128c0,0 -3.92096,-0.08909 -4.19627,-0.60568c-0.18338,-0.3441 -0.28149,-1.54004 -0.52258,-2.78424c-0.31482,-1.62467 -0.75589,-3.33162 -0.75589,-3.33162c0,0 -0.11438,1.2241 -0.45165,2.60005c-0.43583,1.77808 -1.1322,3.80975 -1.27057,3.78114c-0.63751,-0.13184 -2.81587,0.14428 -3.38742,0.10246c-3.44382,-0.25199 -8.41561,-1.26212 -8.41561,-1.26212z" fill="#990f0f" stroke="none" stroke-width="2" stroke-linecap="butt"/><path d="M276.21128,282.25899c-0.06936,0.00507 -0.20649,-1.02809 -0.51352,-2.14214c-0.35815,-1.29955 -0.88738,-2.70915 -0.88738,-2.70915c0,0 -0.17117,1.03704 -0.33158,1.52945c-0.14982,0.45989 -0.60128,1.83412 -0.60128,1.83412c0,0 -0.13957,-2.28864 -0.39006,-3.23607c-0.27072,-1.02395 -1.1783,-3.1959 -1.1783,-3.1959c0,0 0.00099,1.73432 0.00161,2.81972c0.00085,1.48295 0.00301,5.26359 0.00301,5.26359l-6.6869,0.07426v-128c0,0 14.38132,7.97898 18,22c1.20903,4.68456 1.55514,51.90996 1.55514,51.90996c0,0 -2.38261,1.31818 -3.5376,1.35124c-1.10852,0.03172 -3.25865,-1.15675 -3.25865,-1.15675c0,0 2.06097,4.38166 3.13664,5.88566c1.13948,1.59322 3.51982,3.42145 3.51982,3.42145l-0.41535,43.08844c0,0 -4.97179,1.01013 -8.41561,1.26212z" data-paper-data="{&quot;index&quot;:null}" fill="#990f0f" stroke="none" stroke-width="2" stroke-linecap="butt"/><path d="M266.63849,282.47537c0,0 2.90522,-0.99061 3.1741,-1.98129c0.80676,-2.97249 2.20469,-17.83688 2.20469,-17.83688l1.95454,12.16666l1.33333,-4.06061c0,0 2.3262,7.43353 3.43902,8.86495c1.32101,1.69921 4.60644,1.66535 4.60644,1.66535c0,0 -4.60526,0.61237 -4.99506,0.65546c-0.55539,0.0614 -2.02009,0.22332 -2.02009,0.22332c0,0 -0.44064,-1.86736 -0.7285,-2.73095c-0.25975,-0.77925 -0.92302,-2.13269 -0.92302,-2.13269c0,0 0.00708,0.69275 -0.12577,1.40721c-0.13286,0.71445 -0.55605,1.80491 -0.55605,1.80491c0,0 -0.22893,-1.8467 -0.51452,-2.84627c-0.34092,-1.19323 -1.21275,-3.47191 -1.21275,-3.47191l0.01515,8.12122c0,0 -2.06683,0.14632 -3.04197,0.17246c-0.90317,0.02422 -2.60955,-0.02094 -2.60955,-0.02094z" fill="#740c0c" stroke="#000000" stroke-width="0" stroke-linecap="round"/><path d="M205.36851,281.52065c0,0 1.60878,-0.54615 2.57109,-1.70838c0.69072,-0.83421 0.77904,-1.97907 0.95299,-2.68727c0.57102,-2.32489 1.69815,-8.27102 1.69815,-8.27102c0,0 1.39748,6.14339 1.84733,8.49491c0.14208,0.74269 0.20519,2.47182 0.72496,3.29926c0.64876,1.03278 1.76103,1.09473 1.76103,1.09473l-3.11111,-0.11112c0,0 -0.44752,-2.21101 -0.681,-3.30659c-0.24721,-1.15999 -0.76344,-3.47118 -0.76344,-3.47118c0,0 -0.23906,1.91104 -0.48564,2.93259c-0.26984,1.1179 -1.06992,3.51186 -1.06992,3.51186c0,0 -1.25242,0.19191 -1.84555,0.23018c-0.55208,0.03562 -1.5989,-0.00796 -1.5989,-0.00796z" fill="#740c0c" stroke="#000000" stroke-width="0" stroke-linecap="round"/><path d="M284.98964,239.34294c0,0 -4.00935,-3.72825 -6.00154,-6.40946c-2.03711,-2.74168 -7.453,-10.68145 -7.453,-10.68145c0,0 6.89951,5.52656 9.17308,6.0448c1.62799,0.37109 4.37238,0.22793 4.37238,0.22793c0,0 -2.36828,1.05821 -3.44127,1.08802c-1.10771,0.03077 -3.10418,-0.9062 -3.10418,-0.9062l6.63637,9.45455z" fill="#740c0c" stroke="#000000" stroke-width="0" stroke-linecap="round"/><path d="M272.65861,220.512c0.07491,0.11299 0.12662,0.24015 0.16192,0.37341l0.06374,-0.02124l0.08907,0.26719c0.0095,0.02642 0.01468,0.0549 0.01468,0.08459c0,0.13807 -0.11193,0.25 -0.25,0.25c-0.05253,0 -0.10128,-0.0162 -0.14152,-0.04388l-0.26988,-0.17992l0.00456,-0.00684l-0.02438,-0.00783c-0.15503,-0.16011 -0.27683,-0.3588 -0.3514,-0.56883c0,0 -0.06843,-0.2053 0.11304,-0.29755c0.04358,-0.0733 0.12358,-0.12241 0.21504,-0.12241c0.06903,0 0.13153,0.02799 0.17677,0.07323l0.18182,0.18182l-0.00721,0.00721z" fill="#740c0c" stroke="none" stroke-width="0.5" stroke-linecap="butt"/><path d="M273.39707,222.85231c0,-0.13807 0.11193,-0.25 0.25,-0.25c0.13807,0 0.25,0.11193 0.25,0.25c0,0.13807 -0.11193,0.25 -0.25,0.25c-0.13807,0 -0.25,-0.11193 -0.25,-0.25z" fill="#740c0c" stroke="none" stroke-width="0.5" stroke-linecap="butt"/><path d="M279.10131,276.6346c0.39184,0.61507 0.18032,1.01463 -0.10113,1.02542c-0.03638,0.04578 -0.09564,0.08308 -0.1922,0.08308c-0.25,0 -0.25,-0.25 -0.25,-0.25l0.00246,-0.19828c-0.04506,-0.10777 -0.07836,-0.24098 -0.09347,-0.40171h-0.009v-0.3c0,-0.13807 0.11193,-0.25 0.25,-0.25c0.06903,0 0.13154,0.02799 0.17678,0.07322l0.2,0.2l-0.00581,0.00582z" fill="#740c0c" stroke="none" stroke-width="0.5" stroke-linecap="butt"/><path d="M277.25795,275.2931c0,-0.13807 0.11193,-0.25 0.25,-0.25c0.13807,0 0.25,0.11193 0.25,0.25c0,0.13807 -0.11193,0.25 -0.25,0.25c-0.13807,0 -0.25,-0.11193 -0.25,-0.25z" fill="#740c0c" stroke="none" stroke-width="0.5" stroke-linecap="butt"/><path d="M268.75657,279.52949c0,-0.13807 0.11193,-0.25 0.25,-0.25c0.13807,0 0.25,0.11193 0.25,0.25c0,0.13807 -0.11193,0.25 -0.25,0.25c-0.13807,0 -0.25,-0.11193 -0.25,-0.25z" fill="#740c0c" stroke="none" stroke-width="0.5" stroke-linecap="butt"/><path d="M271.73097,258.01933c0.22361,-0.11181 0.33541,0.1118 0.33541,0.1118l0.1264,0.31181c0,0.44126 0.02064,0.67951 -0.08923,0.95359l0.0764,0.02546l-0.09818,0.29453c-0.03141,0.10215 -0.12653,0.17642 -0.23899,0.17642c-0.13807,0 -0.25,-0.11193 -0.25,-0.25c0,-0.25847 0,-0.73962 0,-1.05975c-0.02297,-0.0378 -0.03621,-0.08219 -0.03621,-0.12966c0,-0.05385 0.01703,-0.10372 0.04599,-0.14452c-0.01975,-0.07137 -0.0322,-0.20937 0.12842,-0.28968z" fill="#740c0c" stroke="none" stroke-width="0.5" stroke-linecap="butt"/><path d="M272.39277,262.14294c0,-0.13807 0.11193,-0.25 0.25,-0.25c0.13807,0 0.25,0.11193 0.25,0.25c0,0.13807 -0.11193,0.25 -0.25,0.25c-0.13807,0 -0.25,-0.11193 -0.25,-0.25z" fill="#740c0c" stroke="none" stroke-width="0.5" stroke-linecap="butt"/><path d="M210.79989,267.12503l-0.00647,0.22467c-0.01838,0.01677 -0.03676,0.03354 -0.05514,0.05031l0.02388,0.01592l-0.19785,0.29677c-0.04451,0.06892 -0.12201,0.11455 -0.21016,0.11455c-0.13807,0 -0.25,-0.11193 -0.25,-0.25v-0.3c0.00279,-0.49194 0.03206,-0.68879 0.25367,-0.8445l-0.04234,-0.06351l0.29716,-0.1981c0.04024,-0.02768 0.08899,-0.04388 0.14152,-0.04388c0.13807,0 0.25,0.11193 0.25,0.25c0,0.02969 -0.00517,0.05818 -0.01467,0.08459l-0.09588,0.28762c-0.03124,0.12519 -0.06247,0.25037 -0.0937,0.37556z" fill="#740c0c" stroke="none" stroke-width="0.5" stroke-linecap="butt"/><path d="M211.70421,269.17366c0.00116,-0.03058 0.01763,-0.24641 0.24991,-0.24641c0.25,0 0.25,0.25 0.25,0.25v0.5v0c0,0.13807 -0.11193,0.25 -0.25,0.25c-0.11246,0 -0.20758,-0.07426 -0.239,-0.17641l-0.09817,-0.29453c0,0 -0.06165,-0.18496 0.08726,-0.28265z" fill="#740c0c" stroke="none" stroke-width="0.5" stroke-linecap="butt"/><path d="M211.10412,260.77725c0,-0.13807 0.11193,-0.25 0.25,-0.25c0.13807,0 0.25,0.11193 0.25,0.25c0,0.13807 -0.11193,0.25 -0.25,0.25c-0.13807,0 -0.25,-0.11193 -0.25,-0.25z" fill="#740c0c" stroke="none" stroke-width="0.5" stroke-linecap="butt"/><path d="M206.35412,278.92725c0.25,0 0.25,0.25 0.25,0.25l-0.07322,0.27677c-0.4357,0.4357 -1.05248,0.38455 -0.91644,0.10884c-0.04123,-0.10101 0.00829,-0.19137 0.04012,-0.23492l-0.03914,-0.05872l0.29716,-0.1981c0.04024,-0.02768 0.08899,-0.04389 0.14152,-0.04389c0.03035,0 0.05943,0.00541 0.08635,0.01532c0.03278,-0.05911 0.09511,-0.11532 0.21365,-0.11532z" fill="#740c0c" stroke="none" stroke-width="0.5" stroke-linecap="butt"/><path d="M207.80414,278.67725c0,-0.13807 0.11193,-0.25 0.25,-0.25c0.13807,0 0.25,0.11193 0.25,0.25c0,0.13807 -0.11193,0.25 -0.25,0.25c-0.13807,0 -0.25,-0.11193 -0.25,-0.25z" fill="#740c0c" stroke="none" stroke-width="0.5" stroke-linecap="butt"/><path d="M218.39957,269.86667c0,0 0.732,-15.24168 0.78152,-26.79614c0.03428,-7.99823 -0.38381,-38.09551 -0.38381,-38.09551c0,0 7.38882,24.17734 21.65121,24.2232c14.712,0.04731 22.57603,-23.23125 22.57603,-23.23125c0,0 -0.68263,30.55077 -0.71659,38.43029c-0.04561,10.57989 0.56334,25.30274 0.56334,25.30274c0,0 -15.44558,-0.60878 -22.97689,-0.58056c-7.28436,0.0273 -21.49481,0.74722 -21.49481,0.74722z" fill="#666666" stroke="none" stroke-width="2" stroke-linecap="butt"/><path d="M246.25777,255.46272c-1.5241,0.91944 -1.78143,-1.90884 -1.78143,-2.61266c0,-1.86354 0.3007,-6.29514 -1.4618,-7.1764c0,0 -0.21489,-0.10745 -0.11802,-0.32234c-0.27896,0.07267 -0.54397,0.2181 -0.78238,0.41659c0.03941,1.06921 0.0622,2.13493 0.0622,3.18438c0,2.93367 0.6368,8.20152 -1.80996,10.34677c-2.54069,-1.03908 -1.89005,-6.65094 -1.89005,-9.24677c0,-2.7386 0,-5.4772 0,-8.2158c-2.21646,0.31933 -4.21529,0.81728 -4.44273,-2.88288c-0.43756,-1.35039 0.09805,-3.24341 -0.75351,-4.39748c-0.85467,-1.15829 -3.46972,-1.22414 -4.74605,-1.95498c-0.79782,-1.5321 -1.68714,-3.79066 -0.77929,-5.51102c0.60109,-1.13907 3.35002,-1.90934 4.47508,-2.47239c1.74572,-1.11372 5.94877,-2.78523 6.65722,-4.83789c0.20929,-0.6064 -0.09368,-1.19961 0.21597,-1.83996c1.20066,-2.34955 2.78734,-2.34091 4.55951,-2.01794c-0.12147,-0.29968 -0.2481,-0.61615 -0.36717,-0.97398c-0.38499,-0.79454 -1.0586,-3.22776 -0.0647,-3.72664c0.69576,-0.34923 2.04406,0.91239 2.47206,0.01916c0.53416,-1.11477 -0.54587,-2.33109 0.47894,-3.39209c2.08372,-0.99053 5.13701,1.94654 6.37864,3.50746c0.50251,0.63173 0.76883,1.952 1.46612,2.26276c3.00844,0.08646 8.45337,-0.17569 7.5549,4.21108c-0.64673,3.12272 -1.77588,6.83655 -2.80823,9.86264c0.00607,0.67701 -0.28303,2.10906 0.03147,2.70503c1.36918,2.59455 3.54682,3.32482 1.48327,6.47192c-1.07204,1.784 -2.07294,2.2298 -3.85886,2.81095c-0.6591,0.21447 -0.99569,4.24312 -1.15015,4.93819c-0.86326,3.87067 -3.08961,6.52056 -7.04972,5.25976c-2.39523,1.20857 0.01923,4.38366 -1.97136,5.58452z" fill="#740c0c" stroke="none" stroke-width="0.5" stroke-linecap="butt"/><path d="M253.28083,206.71559c0.15244,-2.32065 3.94914,-0.60611 4.13241,1.18855c0.4203,1.27251 -0.1905,1.18636 -0.91491,1.90562c-2.08425,2.06945 -4.06757,-1.7638 -3.2175,-3.09417z" fill="#740c0c" stroke="none" stroke-width="0.5" stroke-linecap="butt"/><path d="M251.37434,204.18167c0.202,0.02975 0.202,0.24663 0.202,0.24663v0.2c-0.03036,2.07706 -3.39834,0.79466 -0.56181,-0.6236c0,0 0.2236,-0.11181 0.33541,0.1118c0.01145,0.0229 0.01938,0.04463 0.02439,0.06518z" fill="#740c0c" stroke="none" stroke-width="0.5" stroke-linecap="butt"/><path d="M258.36367,241.0501c1.52345,-0.51063 2.19029,1.34335 1.58628,2.5925c-0.39404,0.74382 -2.47593,2.98635 -3.43627,1.61963c-0.81817,-1.1644 0.49248,-3.81975 1.50086,-4.35504c0,0 0.22361,-0.1118 0.33541,0.1118c0.00531,0.01062 0.00987,0.02099 0.01372,0.03111z" fill="#740c0c" stroke="none" stroke-width="0.5" stroke-linecap="butt"/><path d="M260.36512,238.2398c0.17611,-0.12853 0.35026,-0.18657 0.49265,-0.12168c0.82956,0.37804 0.32236,1.04487 -0.31609,1.45458c-0.23052,0.4329 -0.60099,0.82616 -0.98218,0.35082c-0.24131,-0.02796 -0.29434,-0.25119 0.08787,-0.78151c0.00696,-0.01379 0.01408,-0.02763 0.02137,-0.04148c0.03194,-0.2879 0.11827,-0.62842 0.234,-0.88155c0,0 0.11181,-0.22361 0.33541,-0.11181c0.07252,0.03626 0.10976,0.08428 0.12698,0.13262z" fill="#740c0c" stroke="none" stroke-width="0.5" stroke-linecap="butt"/><path d="M261.02576,240.49705c0.02988,-0.01129 0.06574,-0.01753 0.10877,-0.01612c0.24986,0.0082 0.24167,0.25806 0.24167,0.25806l-0.01949,0.47886c-0.00873,0.01203 -0.01745,0.02407 -0.02618,0.0361l0.01363,0.00545l-0.18354,0.45883c-0.03545,0.09495 -0.12697,0.16256 -0.23428,0.16256c-0.13807,0 -0.25,-0.11193 -0.25,-0.25c0,-0.13333 0,-0.76666 0,-0.9c0,0 0,-0.25 0.25,-0.25c0.03888,0 0.07171,0.00605 0.09943,0.01626z" fill="#740c0c" stroke="none" stroke-width="0.5" stroke-linecap="butt"/><path d="M220.11317,172.61116c-0.10684,-0.34231 -0.2952,-0.66627 -0.30331,-1.03933c0.01181,-0.76341 1.02095,-1.69875 1.60254,-0.71376c0.37392,0.63328 0.02285,1.40845 0.25343,1.99309c0.47747,1.21066 1.39403,1.56321 1.39403,3.09567c0,1.03055 -0.05612,1.94282 0.46267,2.86857c0.65885,1.17568 2.16233,1.06749 2.16233,2.88143c0,2.04864 3.25372,3.59078 0.97068,5.73097c-2.8593,0.08755 -1.97418,-4.63734 -2.88652,-0.59441c-1.84499,3.59764 -2.45916,-1.42604 -2.45916,-3.26156c0,-1.69161 -1.22012,-2.406 -1.61831,-3.94256c-0.22593,-0.87186 0.11831,-1.56573 0.11831,-2.43244c0,-1.76154 -0.72718,-3.14392 0.30331,-4.58567z" fill="#740c0c" stroke="none" stroke-width="0.5" stroke-linecap="butt"/><path d="M224.50523,177.93753c-0.03952,-0.01977 -0.08022,-0.04105 -0.12212,-0.06391c-0.17842,-0.32704 -0.28843,-0.59048 -0.34494,-0.79901c-0.02768,-0.00383 -0.05771,-0.01298 -0.09008,-0.02916c-0.2236,-0.11181 -0.11181,-0.33541 -0.11181,-0.33541l0.01541,-0.02826c-0.15869,-0.38332 -0.19425,-0.75169 0.07676,-0.9476c0.93269,-0.67422 2.33584,2.10596 1.43459,2.38952c-0.01486,0.01209 -0.03043,0.02402 -0.04672,0.0358c-0.09923,0.07173 -0.1889,0.11551 -0.26989,0.13613c-0.03358,0.01677 -0.07146,0.0262 -0.11155,0.0262c-0.05003,0 -0.09662,-0.0147 -0.13571,-0.04001c-0.12759,-0.05432 -0.223,-0.1829 -0.29394,-0.3443zM224.78715,177.33633c0.00588,0.00602 0.01175,0.01203 0.0176,0.01801c-0.00622,-0.02066 -0.01254,-0.04146 -0.01896,-0.0623c0.00026,0.01483 0.0007,0.02961 0.00136,0.04429z" fill="#740c0c" stroke="none" stroke-width="0.5" stroke-linecap="butt"/><path d="M225.27832,179.0539c0.11238,-0.10549 0.22052,-0.07665 0.28692,-0.03903c0.17883,-0.15681 0.34427,0.01945 0.34427,0.01945l0.18759,0.19985c0.06546,0.06687 0.09052,0.16793 0.05598,0.26156c-0.03454,0.09363 -0.11922,0.15422 -0.21242,0.16256l-0.27243,0.03017l-0.00514,-0.04644c-0.0363,0.01083 -0.07259,0.02167 -0.10889,0.03251l-0.28705,-0.26724c0,0 -0.1711,-0.18228 0.01118,-0.35338z" fill="#740c0c" stroke="none" stroke-width="0.5" stroke-linecap="butt"/></g><path d="M272.24535,125.69918l5.96978,-13.36138c0,0 -0.47197,11.28842 -0.37017,17.00857c0.11262,6.32805 2.79954,15.15197 2.79954,15.15197c0,0 -5.67971,-3.79233 -7.08402,-7.29369c-1.40431,-3.50136 -1.31514,-11.50547 -1.31514,-11.50547z" data-paper-data="{&quot;index&quot;:null}" fill="#000000" stroke="none" stroke-width="0" stroke-linecap="butt"/><path d="M207.82831,137.20464c-1.40431,3.50137 -7.08402,7.29369 -7.08402,7.29369c0,0 2.68693,-8.82392 2.79955,-15.15197c0.1018,-5.72015 -0.37017,-17.00857 -0.37017,-17.00857l5.96978,13.36138c0,0 0.08917,8.0041 -1.31513,11.50547z" data-paper-data="{&quot;index&quot;:null}" fill="#000000" stroke="none" stroke-width="0" stroke-linecap="butt"/><path d="M204.10635,125.53587c-1.7657,3.33376 -7.81365,6.50601 -7.81365,6.50601c0,0 3.60244,-8.49139 4.38173,-14.77228c0.70443,-5.67752 1.42545,-16.95277 1.42545,-16.95277l4.52753,13.9164c0,0 -0.75536,7.96888 -2.52106,11.30264z" data-paper-data="{&quot;index&quot;:null}" fill="#000000" stroke="none" stroke-width="0" stroke-linecap="butt"/><path d="M275.54269,115.23323l4.52753,-13.9164c0,0 0.72103,11.27525 1.42545,16.95277c0.77929,6.2809 4.38173,14.77228 4.38173,14.77228c0,0 -6.04795,-3.17225 -7.81365,-6.50601c-1.7657,-3.33376 -2.52106,-11.30264 -2.52106,-11.30264z" fill="#000000" stroke="none" stroke-width="0" stroke-linecap="butt"/><path d="M202.21862,99.09252c0.33654,-2.27063 -0.16776,-40.17317 35.96775,-41.57382c29.74097,-0.60874 41.94178,27.3417 42.13973,46.64398c0.07927,7.72949 -2.24222,17.26476 -4.02241,27.61164c-4.1896,18.60647 -16.62773,28.45699 -36.24453,28.29088c-14.89689,-0.23339 -26.36654,-5.44417 -31.36916,-18.2279c-2.46238,-6.90768 -4.82503,-11.77095 -5.92261,-19.02069c-1.09758,-7.24974 -0.54876,-23.72409 -0.54876,-23.72409z" fill="#000000" stroke="none" stroke-width="1.5" stroke-linecap="butt"/><path d="M212.71289,117.20175c-0.57709,-7.29323 0.335,-17.15448 0.335,-17.15448c0,0 3.41059,-0.04124 13.91429,-3.14424c8.0696,-2.38394 20.54731,-9.48722 20.54731,-9.48722c0,0 -2.16005,3.00503 -3.40781,4.46015c-1.32651,1.54696 -3.99292,4.56297 -3.99292,4.56297c0,0 7.838,-1.66761 14.67476,-4.72931c8.56837,-3.53575 10.59252,-0.30309 12.95042,1.1573c2.7829,1.72362 1.03006,17.4327 0.71846,22.99062c-0.42163,5.66922 -2.53327,9.49969 -3.15031,12.52053c-0.61704,3.02084 -0.4096,6.13662 -2.20622,16.0397c-1.12121,6.18021 -4.16183,8.92466 -10.01942,14.66081c-5.85759,5.73616 -9.05378,9.25275 -13.01359,9.32173c-3.81077,0.06639 -8.93565,-5.1002 -13.93542,-10.38244c-5.32393,-5.62474 -8.87489,-8.47713 -9.71551,-15.13975c-0.75707,-6.00039 -0.77653,-9.90853 -1.12266,-15.24835c-0.25298,-3.90273 -2.26119,-6.44504 -2.57636,-10.42801z" fill="#ffffff" stroke="#000000" stroke-width="1.5" stroke-linecap="butt"/><g stroke="none" stroke-linecap="butt"><path d="M260.68478,152.16153c0,0 1.58842,9.32496 -21.05272,9.69785c-20.40662,0.33606 -19.84969,-10.56958 -19.84969,-10.56958c0,0 10.71087,-8.97091 14.91813,-8.63769c1.14509,0.09068 5.51914,2.90374 5.51914,2.90374c0,0 4.07404,-3.69015 9.78299,-2.30106c3.72369,0.90606 10.68215,8.90673 10.68215,8.90673z" fill="#000000" stroke-width="0"/><path d="M235.76626,144.848c0.86841,0.36496 4.80315,1.19667 5.13398,1.98138c0.68236,1.31393 -2.41629,1.32796 -5.82795,2.29515c-4.15599,1.1862 -13.28167,1.88654 -12.26848,0.93763c0.88911,-0.83941 10.38146,-5.93464 10.93974,-5.93464c0,0 1.19564,0.35549 2.02271,0.72049z" data-paper-data="{&quot;noHover&quot;:false,&quot;origItem&quot;:[&quot;Path&quot;,{&quot;applyMatrix&quot;:true,&quot;segments&quot;:[[[118.01187,438.36228],[0,0],[-0.21094,0]],[[114.03531,440.90486],[0.33594,-0.35016],[-0.38282,0.39584]],[[118.48843,440.509],[-1.5703,0.49482],[1.28906,-0.40346]],[[119.58999,439.51176],[0.25782,0.5481],[-0.125,-0.32734]],[[118.75405,438.63632],[0.32812,0.15224],[-0.3125,-0.15226]],[[118.01187,438.36226],[0.10156,0],[0,0]]],&quot;closed&quot;:true,&quot;fillColor&quot;:[0,0,0]}]}" fill="#ffffff" stroke-width="0.5"/><path d="M247.4842,144.33303c0.70299,0 3.43198,1.63752 5.64441,3.4259l3.93897,3.39996l-2.87116,0.04929c-1.63344,0 -5.09226,-0.69119 -7.34602,-1.58541c-3.2256,-1.20442 -6.89512,-1.67707 -6.64703,-2.51654c2.23495,-1.25916 5.33715,-2.7184 7.28079,-2.77316z" data-paper-data="{&quot;noHover&quot;:false,&quot;origItem&quot;:[&quot;Path&quot;,{&quot;applyMatrix&quot;:true,&quot;segments&quot;:[[[123.32437,438.63632],[0,0],[-0.73438,0.02284]],[[121.70719,439.63356],[0.11718,-0.52526],[-0.09374,0.35018]],[[123.11345,440.70692],[-1.21876,-0.50242],[0.85156,0.37302]],[[125.73063,441.35398],[-0.61718,0],[0,0]],[126.80095,441.35398],[[125.30095,439.98372],[0,0],[-0.83594,-0.74602]],[[123.32439,438.6363],[0.26562,0],[0,0]]],&quot;closed&quot;:true,&quot;fillColor&quot;:[0,0,0]}]}" fill="#ffffff" stroke-width="0.5"/><path d="M246.07777,151.41568c1.05452,0.8212 1.05185,0.92416 0.05936,0.6139c-0.64096,-0.18248 -4.18228,-0.33878 -7.13904,-0.41175c-6.43051,-0.05475 -5.18302,-1.27192 1.37151,-1.34494c2.83274,-0.05475 4.81906,0.4858 5.70816,1.14279z" data-paper-data="{&quot;noHover&quot;:false,&quot;origItem&quot;:[&quot;Path&quot;,{&quot;applyMatrix&quot;:true,&quot;segments&quot;:[[[120.61343,441.12562],[1.07032,-0.02284],[-2.47656,0.03046]],[[120.16031,441.57476],[-2.4297,-0.02284],[1.11718,0.03044]],[[122.66031,441.74984],[-0.24218,-0.07612],[0.375,0.12942]],[[122.63687,441.50624],[0.39844,0.34256],[-0.33594,-0.27406]]],&quot;closed&quot;:true,&quot;fillColor&quot;:[0,0,0]}]}" fill="#ffffff" stroke-width="0.5"/><path d="M239.65414,153.14508c7.05082,0.41975 11.64897,0.60631 12.3933,0.24131c0.64102,-0.365 2.46126,-0.59928 4.03266,-0.59928l2.97896,0.00733l-1.19596,1.94175c-0.70299,1.0767 -2.34057,2.63238 -3.72592,3.39882c-2.3365,1.25917 -3.19537,1.50834 -13.71984,1.39883c-10.79325,-0.18248 -11.38705,-0.44346 -14.28183,-2.06763c-1.69548,-0.89422 -3.47459,-2.55899 -4.03287,-3.52617l-1.00897,-1.86679l3.7233,0.34066c2.00566,0.18248 8.77888,0.42093 14.83716,0.73118z" data-paper-data="{&quot;noHover&quot;:false,&quot;origItem&quot;:[&quot;Path&quot;,{&quot;applyMatrix&quot;:true,&quot;segments&quot;:[[[114.80093,441.94778],[0.75782,0.07612],[0,0]],[113.39469,441.80314],[[113.77751,442.572],[0,0],[0.21094,0.40346]],[[115.30095,444.01838],[-0.64062,-0.37302],[1.09376,0.67752]],[[120.59001,444.79486],[-4.07812,-0.07612],[3.97656,0.04568]],[[125.68377,444.29244],[-0.88282,0.52526],[0.52344,-0.31972]],[[127.09001,442.89934],[-0.26562,0.44914],[0,0]],[127.54313,442.10002],[[126.41813,442.10002],[0,0],[-0.59374,0]],[[124.89469,442.35124],[0.2422,-0.15226],[-0.28124,0.15226]],[[120.32437,442.3284],[2.66408,0.1751],[-2.28906,-0.12942]]],&quot;closed&quot;:true,&quot;fillColor&quot;:[0,0,0]}]}" fill="#ffffff" stroke-width="0.5"/></g><path d="M260.78283,104.5814c0,0 1.52429,0.31807 4.2558,1.11029c2.49492,0.72361 4.44935,1.74403 4.44935,1.74403l0.1951,1.17035c0,0 -7.24963,-3.12997 -15.1158,-2.4706c-6.2896,0.52724 -9.96319,2.8124 -9.96319,2.8124l0.04575,-4.17683c0,0 3.12748,-1.70421 7.86366,-1.85557c4.90428,-0.15672 8.09084,0.59125 8.09084,0.59125z" data-paper-data="{&quot;index&quot;:null}" fill="#000000" stroke="none" stroke-width="1.5" stroke-linecap="butt"/><path d="M240.34505,146.62884c-1.03376,0 -3.5381,-3.26042 -3.7867,-5.3637c-0.22243,-1.88186 1.31512,-3.82799 3.7867,-3.82799c2.47159,0 4.2021,0.49077 4.02999,4.18853c-0.14607,3.13818 -1.55841,5.00317 -4.02999,5.00317z" fill="#ffffff" stroke="#000000" stroke-width="1.15" stroke-linecap="butt"/><path d="M243.94713,116.73513c0,0 0.1026,3.96976 0.00576,7.12662c-0.19174,6.25113 -1.08147,27.7607 -1.08147,27.7607l-2.98167,0.00864c0,0 -0.80294,-4.17274 -1.12322,-9.49979c-0.43353,-7.21063 -0.4495,-16.29321 -0.76344,-19.63229c-0.29758,-3.16513 -0.89593,-5.71453 -0.89593,-5.71453" fill="#ffffff" stroke="#000000" stroke-width="1.3" stroke-linecap="round"/><path d="M214.41257,127.32497c0,0 -4.93211,-3.51705 -6.16417,-8.97502c-1.29636,-5.74284 -1.46118,-9.7328 0.48013,-9.99193c1.94131,-0.25915 2.70321,2.37692 3.73262,8.35569c1.0294,5.97877 1.95143,10.61127 1.95143,10.61127z" data-paper-data="{&quot;index&quot;:null}" fill="#ffffff" stroke="#000000" stroke-width="1" stroke-linecap="butt"/><path d="M214.20994,123.37741c0,0 -3.56385,-2.92338 -4.31816,-8.45061c-0.42079,-3.08327 2.15675,-2.28016 2.15675,-2.28016" fill="none" stroke="#000000" stroke-width="0.25" stroke-linecap="round"/><path d="M217.22337,116.72151c0.07093,-4.89188 4.83834,-8.93609 10.21137,-8.8582c5.37302,0.0779 9.02724,4.2484 8.95632,9.14029c-0.07093,4.89188 -4.12352,8.79439 -9.49655,8.7165c-5.37302,-0.0779 -9.74207,-4.1067 -9.67114,-8.99859z" fill="#ffffff" stroke="#000000" stroke-width="1.4" stroke-linecap="butt"/><path d="M221.11109,116.76772c0.0474,-3.26924 2.73604,-5.88103 6.00527,-5.83363c3.26925,0.0474 5.88103,2.73604 5.83363,6.00527c-0.0474,3.26924 -2.73603,5.88103 -6.00527,5.83363c-3.26925,-0.0474 -5.88103,-2.73604 -5.83363,-6.00527z" fill="#000000" stroke="none" stroke-width="1.5" stroke-linecap="butt"/><path d="M244.27969,116.72225c0.20353,-4.88817 4.45264,-8.85847 9.77048,-8.85847c5.31783,0 9.27453,3.96607 9.27453,8.85847c0,4.8924 -3.88585,9.07104 -9.69964,9.14188c-5.52997,0.06739 -9.55792,-4.03692 -9.34537,-9.14188z" fill="#ffffff" stroke="#000000" stroke-width="1.4" stroke-linecap="butt"/><path d="M245.54903,116.45659c0,-4.49832 3.6466,-8.14492 8.14492,-8.14492c4.49832,0 8.14492,3.6466 8.14492,8.14492c0,4.49832 -3.64658,8.14492 -8.14492,8.14492c-4.49832,0 -8.14492,-3.6466 -8.14492,-8.14492z" fill="#000000" stroke="none" stroke-width="1.5" stroke-linecap="butt"/><path d="M217.15496,116.18933c0,0 0.06357,-9.01512 10.60111,-8.8249c9.47101,0.16586 9.55554,9.40723 9.55554,9.40723z" fill="#ffffff" stroke="#000000" stroke-width="1.15" stroke-linecap="butt"/><path d="M243.902,116.32023c0,0 -0.24686,-9.4582 11.19813,-9.1032c9.71427,0.33347 9.54677,9.65229 9.54677,9.65229z" fill="#ffffff" stroke="#000000" stroke-width="1.15" stroke-linecap="butt"/><path d="M220.68477,106.17767c0,0 3.36963,-1.819 8.03244,-2.28178c5.16698,-0.51283 7.76823,-0.06628 7.76823,-0.06628l0.29508,4.13747c0,0 -3.83554,-0.68065 -8.01795,-0.52113c-5.59346,0.21333 -6.64488,1.43293 -10.89774,1.89119c-3.64408,0.39266 -6.73723,0.15884 -6.73723,0.15884l-0.02589,-1.23155c0,0 3.59517,0.07398 5.23371,-0.06836c1.35239,-0.11749 3.9757,-0.93808 3.9757,-0.93808z" fill="#000000" stroke="none" stroke-width="1.5" stroke-linecap="butt"/><path d="M268.64565,116.7137c1.0294,-5.97877 1.7913,-8.61483 3.73262,-8.35569c1.94131,0.25914 1.77649,4.24909 0.48013,9.99193c-1.23206,5.45797 -6.16417,8.97502 -6.16417,8.97502c0,0 0.92203,-4.6325 1.95143,-10.61127z" data-paper-data="{&quot;index&quot;:null}" fill="#ffffff" stroke="#000000" stroke-width="1" stroke-linecap="butt"/><path d="M269.05818,112.64664c0,0 2.57754,-0.80312 2.15675,2.28016c-0.75431,5.52723 -4.31816,8.45061 -4.31816,8.45061" data-paper-data="{&quot;index&quot;:null}" fill="none" stroke="#000000" stroke-width="0.25" stroke-linecap="round"/><path d="M213.6744,95.27453c0,0 19.44077,-10.14593 28.7538,-10.45532c11.72685,-0.38958 27.2462,7.28032 27.2462,7.28032c0,0 -0.03213,8.16603 -0.28816,12.09507c-0.24332,3.73394 -0.70434,9.96886 -1.21184,13.17369c-0.5075,3.20483 -2.14625,8.03251 -2.14625,8.03251c0,0 0.49154,-9.85527 -0.69162,-11.00804c-1.75108,-1.7061 -4.77641,-3.51825 -6.33436,-4.44759c-0.56437,-0.33666 -1.69567,0.25666 -2.16666,1.09826c-0.72229,1.29064 -0.66414,3.16521 -0.66414,3.16521c0,0 -2.8031,-1.48353 -4.82127,-2.92658c-2.12655,-1.52055 -3.4919,-2.99616 -4.23822,-2.64388c-5.03228,2.37532 -8.29463,8.82357 -8.29463,8.82357c0,0 0.63586,-6.7518 -3.65776,-9.00545c-0.69664,-0.36566 -1.9076,1.27958 -4.0297,3.1005c-0.87853,0.75385 -2.88441,1.38661 -3.79621,2.07046c-1.50297,1.12723 -1.75031,2.13364 -1.75031,2.13364c0,0 -0.81008,-1.18061 -1.07625,-2.47772c-0.17628,-0.85906 0.36719,-1.76922 -0.18854,-2.42135c-0.74884,-0.87874 -3.0557,-0.85853 -3.54746,-0.57972c-1.34853,0.76457 -3.52907,2.49248 -5.00903,4.21713c-2.80912,3.27356 -0.96465,10.8242 -0.96465,10.8242c0,0 -1.87767,-3.581 -2.41983,-8.15593c-0.56353,-4.75526 0.20861,-10.53075 0.26349,-11.59066c0.17185,-3.31929 1.03339,-10.30232 1.03339,-10.30232z" fill="#000000" stroke="#e10000" stroke-width="0" stroke-linecap="round"/><path d="M255.49969,134.15213c1.36312,-1.12417 2.22609,-0.36824 2.46553,0.62391c0.44129,-0.32901 1.02188,-0.43864 1.74819,-0.23059c0.24771,0.07096 0.49724,0.11621 0.72504,0.16445c-0.0614,-0.1409 -0.03069,-0.32417 0.19361,-0.60159c0.25661,-0.31738 1.39816,0.24161 1.43346,-0.21399c0.05555,-0.71679 -1.05362,-2.03046 -0.80268,-2.40733c0.35952,-0.53993 1.47241,0.05205 2.14896,0.18818c-0.0019,-0.04528 -0.00367,-0.09115 -0.00527,-0.13745c-0.01934,-0.04588 -0.03017,-0.1053 -0.00501,-0.16911c-0.02005,-0.82656 0.02682,-1.72264 0.36669,-1.7925c0.8185,-0.16826 0.38488,1.9265 0.38488,1.9265c0,0 -0.42034,4.01509 -0.69307,6.07561c-0.28241,2.13364 -1.0845,6.51451 -1.0845,6.51451c0,0 -0.95761,0.03887 -2.18266,-0.38156c-0.22716,-0.07796 -0.44327,-0.17991 -0.6481,-0.30269c-1.24048,0.56452 -3.26241,0.81353 -3.30323,-1.063c0.00742,-0.67441 -1.31364,-0.25903 -1.96394,-0.42118c-1.44414,-0.36008 -2.20925,-1.60181 -1.86395,-3.04667c-1.12423,-0.65035 -2.05976,-1.63455 -0.47586,-2.31678c-0.29818,-0.9424 -1.73505,-0.76788 -2.16667,-1.51407c-0.74998,-1.2966 2.05332,-1.32267 2.67713,-1.11474c0.94016,0 1.77317,0.33316 2.57125,0.75779c0.13384,-0.19398 0.28103,-0.37343 0.4802,-0.53769zM256.86341,135.4289c-0.0169,0.01239 -0.03397,0.0246 -0.05118,0.03663c0.0326,0.00934 0.06347,0.01673 0.09268,0.02232c-0.00116,-0.01733 -0.00261,-0.03464 -0.00433,-0.05195c-0.00769,-0.00408 -0.01538,-0.00815 -0.02309,-0.01222c-0.00467,0.00172 -0.00936,0.00346 -0.01407,0.00521z" fill="#740c0c" stroke="none" stroke-width="0.5" stroke-linecap="butt"/><path d="M258.71612,129.54691c0.10125,-0.03704 0.20447,0.01457 0.20447,0.01457l0.39831,0.2135c1.55341,3.01534 -4.07382,2.38693 -1.85355,0.16667c0.24788,-0.24788 0.58816,-0.38344 0.89831,-0.54683c0,0 0.22361,-0.1118 0.33541,0.1118c0.00693,0.01386 0.01257,0.02729 0.01706,0.0403z" fill="#740c0c" stroke="none" stroke-width="0.5" stroke-linecap="butt"/><path d="M261.15891,129.68052c0.02969,0 0.05817,0.00518 0.08459,0.01467l0.3278,0.10927c0,0 0.17496,0.05832 0.17425,0.22506l0.17018,0.08509c0.08456,0.04009 0.14304,0.12623 0.14304,0.22603c0,0.10424 -0.06379,0.19357 -0.15447,0.2311l-0.35375,0.15581l-0.01326,-0.0301l-0.07588,0.05104c-0.32548,-0.12365 -0.70188,-0.39468 -0.73598,-0.74118c0,0 0,-0.25 0.25,-0.25c0.00107,0 0.00214,0 0.0032,0.00001c0.04549,-0.04734 0.10944,-0.07679 0.18028,-0.07679z" fill="#740c0c" stroke="none" stroke-width="0.5" stroke-linecap="butt"/><path d="M250.4936,139.69332c0.17079,-0.09241 0.37847,-0.11422 0.56218,-0.07684c0.0188,0.00271 0.03687,0.00699 0.05402,0.01289c0.3486,0.09585 0.58249,0.41353 0.24704,0.86783c-0.56828,0.76961 -1.58437,0.23509 -1.17228,-0.68022c0,0 0.10302,-0.20603 0.30905,-0.12367z" fill="#740c0c" stroke="none" stroke-width="0.5" stroke-linecap="butt"/><path d="M220.22643,125.81119c0,0.05981 -0.01431,0.10531 -0.03608,0.13992c0.33776,0.04968 0.70473,0.01565 0.97822,-0.05477l0.03008,0.00772v-0.00953h0.33333c0.13807,0 0.25,0.11193 0.25,0.25c0,0.04223 -0.01047,0.08202 -0.02896,0.1169c0.22875,0.40057 1.78341,0.65797 1.19986,1.5904c-0.47679,0.76183 -2.80714,3.23481 -3.33434,1.99941c0,-2.13175 -0.44106,1.87662 -1.08656,1.87662c-0.94821,0 -0.29535,-2.81098 -0.13566,-3.29005c-0.00154,-0.93922 -0.96773,-1.58146 -0.88543,-2.1285c0.26052,-1.73161 1.41254,-0.73775 2.35442,-0.74812h0.11111c0,0 0.25,0 0.25,0.25z" fill="#b31212" stroke="none" stroke-width="0.5" stroke-linecap="butt"/><path d="M216.64171,122.92161c0.1118,-0.22361 0.33541,-0.1118 0.33541,-0.1118l0.2872,0.15794c0.29944,0.3016 0.37114,0.54079 0.34208,0.7037l0.06104,0.04069c0.06893,0.04451 0.11455,0.12201 0.11455,0.21016c0,0.13807 -0.11193,0.25 -0.25,0.25c-0.02969,0 -0.05817,-0.00518 -0.08459,-0.01467l-0.3278,-0.10927c0,0 -0.2204,-0.07347 -0.16545,-0.29123l-0.10193,-0.3058c-0.0095,-0.02642 -0.01467,-0.0549 -0.01467,-0.08459c0,-0.02473 0.00359,-0.04862 0.01028,-0.07118l-0.0943,-0.03855c0,0 -0.22361,-0.1118 -0.1118,-0.33541z" fill="#b31212" stroke="none" stroke-width="0.5" stroke-linecap="butt"/><path d="M215.94865,121.03341c0,-0.13807 0.11193,-0.25 0.25,-0.25c0.13807,0 0.25,0.11193 0.25,0.25c0,0.13807 -0.11193,0.25 -0.25,0.25c-0.13807,0 -0.25,-0.11193 -0.25,-0.25z" fill="#b31212" stroke="none" stroke-width="0.5" stroke-linecap="butt"/><path d="M219.79966,131.85664l0.13975,-0.13266c0.01646,-0.01707 0.03293,-0.03414 0.04939,-0.0512c0.44239,-1.09156 1.45286,0.15447 0.37069,0.62094l0.02933,0.08798l-0.3278,0.10927c-0.02642,0.0095 -0.0549,0.01467 -0.08459,0.01467c-0.13807,0 -0.25,-0.11193 -0.25,-0.25c0,-0.02969 0.00518,-0.05817 0.01467,-0.08459l0.00851,-0.02552c-0.08606,-0.15278 0.05004,-0.28888 0.05004,-0.28888z" fill="#b31212" stroke="none" stroke-width="0.5" stroke-linecap="butt"/><path d="M221.28202,130.47786c0,-0.16072 0.10333,-0.21812 0.17713,-0.23862c0.01931,-0.05793 0.03862,-0.11585 0.05793,-0.17378c0,0 0.07906,-0.23717 0.31623,-0.15811c0.23717,0.07906 0.15811,0.31623 0.15811,0.31623c-0.03704,0.11111 -0.07407,0.22222 -0.11111,0.33333l-0.34828,0.17094c0,0 -0.25,0 -0.25,-0.25z" fill="#b31212" stroke="none" stroke-width="0.5" stroke-linecap="butt"/><path d="M208.59434,73.81436c0,0 -2.90899,-20.6961 6.18466,-24.73863c14.20045,-6.31272 23.51035,3.53818 38.4378,7.85956c14.3259,4.14722 32.65928,0.16255 33.66993,15.04238c0.7125,10.49026 -8.18466,19.23864 -8.18466,19.23864c0,0 -7.78743,0.84199 -19.13495,-1.97466c-5.44456,-1.35143 -16.70948,-5.90804 -27.11115,-9.11485c-12.49851,-3.85326 -23.86163,-6.31243 -23.86163,-6.31243z" fill="#b31212" stroke="none" stroke-width="0" stroke-linecap="butt"/><path d="M208.3943,74.01437c0,0 10.79859,0.52465 24.47984,3.48181c15.40729,3.33024 22.67744,6.23103 37.75482,2.98379c15.07738,-3.24724 14.39486,-14.21533 14.39486,-14.21533c0,0 1.4597,2.92166 1.66287,5.91303c0.7125,10.49026 -8.18466,19.23864 -8.18466,19.23864c0,0 -7.78743,0.84199 -19.13495,-1.97466c-5.44456,-1.35143 -16.70948,-5.90804 -27.11115,-9.11485c-12.49851,-3.85326 -23.86163,-6.31243 -23.86163,-6.31243z" fill="#990f0f" stroke="none" stroke-width="0" stroke-linecap="butt"/><path d="M256.44597,59.82526c-0.20963,0.6939 -1.77247,0.83563 -3.4907,0.31655c-1.71823,-0.51908 -2.94119,-1.50239 -2.73157,-2.19629c0.20962,-0.6939 1.77247,-0.16896 3.4907,0.35012c1.71823,0.51908 2.94119,0.83572 2.73157,1.52962z" fill="#990f0f" stroke="none" stroke-width="0" stroke-linecap="butt"/><path d="M251.5827,58.81884c0,0 4.54975,-4.4076 6.82923,-5.95618c1.82225,-1.23797 5.78556,-2.61385 5.78556,-2.61385l1.49261,3.39673c0,0 -4.33639,0.07766 -6.42971,1.12815c-2.26081,1.13455 -6.34973,4.53058 -6.34973,4.53058z" fill="#740c0c" stroke="none" stroke-width="0" stroke-linecap="butt"/><path d="M238.71067,148.22285c0,0 -0.11927,0.3904 -0.46542,0.34589c-0.43548,-0.05599 -0.6332,-2.5901 -0.6332,-2.5901c0,0 -0.31975,0.52143 -0.6241,0.38114c-0.47598,-0.21942 -0.33983,-1.12905 -0.37006,-1.73757c-0.03662,-0.73722 -0.17989,-1.40538 -0.17989,-1.40538c0,0 0.632,0.96382 0.94953,1.41851c0.31958,0.45763 1.0795,1.3185 1.0795,1.3185z" fill="#990f0f" stroke="none" stroke-width="0.5" stroke-linecap="butt"/><path d="M236.98966,147.30438c-0.03331,-0.19601 0.02997,-0.37025 0.14134,-0.38918c0.11137,-0.01892 0.22866,0.12463 0.26197,0.32064c0.03331,0.19601 -0.02997,0.37026 -0.14134,0.38918c-0.11137,0.01892 -0.22866,-0.12464 -0.26197,-0.32065z" fill="#990f0f" stroke="none" stroke-width="0.5" stroke-linecap="butt"/><path d="M236.53855,146.61196c-0.00091,-0.08477 0.03739,-0.15391 0.08555,-0.15443c0.04817,-0.00052 0.08795,0.06778 0.08887,0.15255c0.00091,0.08477 -0.03738,0.15391 -0.08555,0.15443c-0.04817,0.00052 -0.08796,-0.06778 -0.08887,-0.15255z" fill="#990f0f" stroke="none" stroke-width="0.5" stroke-linecap="butt"/></g></g></svg>