<svg version="1.1" xmlns="http://www.w3.org/2000/svg" xmlns:xlink="http://www.w3.org/1999/xlink" width="34.17311" height="34.17311" viewBox="0,0,34.17311,34.17311"><g transform="translate(-222.91345,-162.91345)"><g data-paper-data="{&quot;isPaintingLayer&quot;:true}" stroke-miterlimit="10" stroke-dasharray="" stroke-dashoffset="0" style="mix-blend-mode: normal"><path d="M229.98311,162.91345h20.03379c3.9166,0 7.06966,3.15307 7.06966,7.06966v20.03379c0,3.91659 -3.15306,7.06966 -7.06966,7.06966h-20.03379c-3.91659,0 -7.06966,-3.15307 -7.06966,-7.06966v-20.03379c0,-3.91659 3.15307,-7.06966 7.06966,-7.06966z" fill="#760c0c" fill-rule="evenodd" stroke="none" stroke-width="4.43922" stroke-linecap="round" stroke-linejoin="round"/><path d="M227.58344,181.05871l3.25793,-4.00819l-0.13704,-0.09729l8.6508,-10.38125c0,0 0.78092,-0.99472 1.69395,-1.05269c0.91303,-0.05797 1.94961,0.82135 1.94961,0.82135l9.66975,7.07177c0,0 1.15212,0.72134 1.37358,1.609c0.22146,0.88766 -0.48981,1.93332 -0.48981,1.93332l-7.2577,11.34722l-0.13781,-0.10314l-2.82205,4.37924z" data-paper-data="{&quot;index&quot;:null}" fill="#9b0f0f" fill-rule="nonzero" stroke="#000000" stroke-width="0" stroke-linecap="butt" stroke-linejoin="miter"/><path d="M227.59022,181.10239l3.25793,-4.00819l15.31534,11.14828l-2.82205,4.37924z" data-paper-data="{&quot;index&quot;:null}" fill="#000000" fill-rule="nonzero" stroke="#000000" stroke-width="0" stroke-linecap="butt" stroke-linejoin="miter"/><g fill="#9b0f0f" fill-rule="nonzero" stroke="none" stroke-width="0" stroke-linecap="butt" stroke-linejoin="miter"><path d="M241.69269,176.22432c-0.2185,0.29877 -0.56944,0.41387 -0.78384,0.25707c-0.2144,-0.1568 -0.21108,-0.52611 0.00742,-0.82488c0.2185,-0.29877 0.56944,-0.41386 0.78384,-0.25707c0.2144,0.1568 0.21108,0.52611 -0.00742,0.82488z"/><path d="M243.49277,177.54077c-0.2185,0.29877 -0.56944,0.41386 -0.78384,0.25707c-0.2144,-0.1568 -0.21108,-0.52611 0.00742,-0.82488c0.2185,-0.29877 0.56944,-0.41386 0.78384,-0.25706c0.2144,0.1568 0.21108,0.52611 -0.00742,0.82488z"/><path d="M245.33676,178.88933c-0.2185,0.29877 -0.56944,0.41386 -0.78384,0.25706c-0.2144,-0.1568 -0.21108,-0.52611 0.00742,-0.82488c0.2185,-0.29877 0.56944,-0.41386 0.78384,-0.25706c0.2144,0.1568 0.21108,0.52611 -0.00742,0.82488z"/><path d="M236.46806,172.40339c-0.2185,0.29877 -0.56944,0.41386 -0.78384,0.25706c-0.2144,-0.1568 -0.21108,-0.52611 0.00742,-0.82488c0.2185,-0.29877 0.56944,-0.41386 0.78384,-0.25706c0.2144,0.1568 0.21108,0.52611 -0.00742,0.82488z"/><path d="M238.26814,173.71985c-0.2185,0.29877 -0.56944,0.41386 -0.78384,0.25707c-0.2144,-0.1568 -0.21108,-0.52611 0.00742,-0.82488c0.2185,-0.29877 0.56944,-0.41386 0.78384,-0.25706c0.2144,0.1568 0.21108,0.52611 -0.00742,0.82488z"/><path d="M240.11213,175.06841c-0.2185,0.29877 -0.56944,0.41386 -0.78384,0.25707c-0.2144,-0.1568 -0.21108,-0.52611 0.00742,-0.82488c0.2185,-0.29877 0.56944,-0.41386 0.78384,-0.25706c0.2144,0.1568 0.21108,0.52611 -0.00742,0.82488z"/><path d="M247.04903,180.14157c-0.2185,0.29877 -0.56943,0.41386 -0.78384,0.25707c-0.2144,-0.1568 -0.21108,-0.52611 0.00742,-0.82488c0.2185,-0.29877 0.56944,-0.41386 0.78384,-0.25706c0.2144,0.1568 0.21108,0.52611 -0.00742,0.82488z"/><path d="M248.89302,181.49013c-0.2185,0.29877 -0.56944,0.41386 -0.78384,0.25707c-0.2144,-0.1568 -0.21108,-0.52611 0.00742,-0.82488c0.2185,-0.29877 0.56944,-0.41386 0.78384,-0.25706c0.2144,0.1568 0.21108,0.52611 -0.00742,0.82488z"/><path d="M241.68061,178.08368c-0.2185,0.29877 -0.56944,0.41387 -0.78384,0.25707c-0.2144,-0.1568 -0.21108,-0.52611 0.00742,-0.82488c0.2185,-0.29877 0.56944,-0.41386 0.78384,-0.25707c0.2144,0.1568 0.21108,0.52611 -0.00742,0.82488z"/><path d="M243.4807,179.40013c-0.2185,0.29877 -0.56944,0.41387 -0.78384,0.25707c-0.2144,-0.1568 -0.21108,-0.52611 0.00742,-0.82488c0.2185,-0.29877 0.56944,-0.41386 0.78384,-0.25707c0.2144,0.1568 0.21108,0.52611 -0.00742,0.82488z"/><path d="M245.32469,180.7487c-0.2185,0.29877 -0.56944,0.41387 -0.78384,0.25707c-0.2144,-0.1568 -0.21108,-0.52611 0.00742,-0.82488c0.2185,-0.29877 0.56944,-0.41386 0.78384,-0.25707c0.2144,0.1568 0.21108,0.52611 -0.00742,0.82488z"/><path d="M236.45598,174.26275c-0.2185,0.29877 -0.56944,0.41387 -0.78384,0.25707c-0.2144,-0.1568 -0.21108,-0.52611 0.00742,-0.82488c0.2185,-0.29877 0.56944,-0.41386 0.78384,-0.25706c0.2144,0.1568 0.21108,0.52611 -0.00742,0.82488z"/><path d="M238.25607,175.5792c-0.2185,0.29877 -0.56944,0.41387 -0.78384,0.25707c-0.2144,-0.1568 -0.21108,-0.52611 0.00742,-0.82488c0.2185,-0.29877 0.56944,-0.41386 0.78384,-0.25706c0.2144,0.1568 0.21108,0.52611 -0.00742,0.82488z"/><path d="M240.10005,176.92777c-0.2185,0.29877 -0.56944,0.41387 -0.78384,0.25707c-0.2144,-0.1568 -0.21108,-0.52611 0.00742,-0.82488c0.2185,-0.29877 0.56944,-0.41386 0.78384,-0.25706c0.2144,0.1568 0.21108,0.52611 -0.00742,0.82488z"/><path d="M247.03696,182.00093c-0.2185,0.29877 -0.56944,0.41387 -0.78384,0.25707c-0.2144,-0.1568 -0.21108,-0.52611 0.00742,-0.82488c0.2185,-0.29877 0.56944,-0.41386 0.78384,-0.25706c0.2144,0.1568 0.21108,0.52611 -0.00742,0.82488z"/><path d="M248.88094,183.34949c-0.2185,0.29877 -0.56944,0.41387 -0.78384,0.25707c-0.2144,-0.1568 -0.21108,-0.52611 0.00742,-0.82488c0.2185,-0.29877 0.56944,-0.41386 0.78384,-0.25706c0.2144,0.1568 0.21108,0.52611 -0.00742,0.82488z"/><path d="M239.97829,178.56853c-0.2185,0.29877 -0.56944,0.41386 -0.78384,0.25707c-0.2144,-0.1568 -0.21108,-0.52611 0.00742,-0.82488c0.2185,-0.29877 0.56944,-0.41386 0.78384,-0.25706c0.2144,0.1568 0.21108,0.52611 -0.00742,0.82488z"/><path d="M241.77838,179.88499c-0.2185,0.29877 -0.56944,0.41386 -0.78384,0.25707c-0.2144,-0.1568 -0.21108,-0.52611 0.00742,-0.82488c0.2185,-0.29877 0.56944,-0.41386 0.78384,-0.25706c0.2144,0.1568 0.21108,0.52611 -0.00742,0.82488z"/><path d="M243.62237,181.23355c-0.2185,0.29877 -0.56944,0.41386 -0.78384,0.25706c-0.2144,-0.1568 -0.21108,-0.52611 0.00742,-0.82488c0.2185,-0.29877 0.56944,-0.41386 0.78384,-0.25706c0.2144,0.1568 0.21108,0.52611 -0.00742,0.82488z"/><path d="M234.75366,174.74761c-0.2185,0.29877 -0.56944,0.41386 -0.78384,0.25706c-0.2144,-0.1568 -0.21108,-0.52611 0.00742,-0.82488c0.2185,-0.29877 0.56944,-0.41386 0.78384,-0.25706c0.2144,0.1568 0.21108,0.52611 -0.00742,0.82488z"/><path d="M236.55375,176.06406c-0.2185,0.29877 -0.56944,0.41386 -0.78384,0.25707c-0.2144,-0.1568 -0.21108,-0.52611 0.00742,-0.82488c0.2185,-0.29877 0.56944,-0.41386 0.78384,-0.25706c0.2144,0.1568 0.21108,0.52611 -0.00742,0.82488z"/><path d="M238.39773,177.41262c-0.2185,0.29877 -0.56944,0.41386 -0.78384,0.25707c-0.2144,-0.1568 -0.21108,-0.52611 0.00742,-0.82488c0.2185,-0.29877 0.56944,-0.41386 0.78384,-0.25706c0.2144,0.1568 0.21108,0.52611 -0.00742,0.82488z"/><path d="M245.33464,182.48579c-0.2185,0.29877 -0.56943,0.41386 -0.78384,0.25707c-0.2144,-0.1568 -0.21108,-0.52611 0.00742,-0.82488c0.2185,-0.29877 0.56944,-0.41386 0.78384,-0.25706c0.2144,0.1568 0.21108,0.52611 -0.00742,0.82488z"/><path d="M247.17863,183.83435c-0.2185,0.29877 -0.56944,0.41386 -0.78384,0.25707c-0.2144,-0.1568 -0.21108,-0.52611 0.00742,-0.82488c0.2185,-0.29877 0.56944,-0.41386 0.78384,-0.25706c0.2144,0.1568 0.21108,0.52611 -0.00742,0.82488z"/><path d="M239.96622,180.4279c-0.2185,0.29877 -0.56944,0.41386 -0.78384,0.25707c-0.2144,-0.1568 -0.21108,-0.52611 0.00742,-0.82488c0.2185,-0.29877 0.56944,-0.41386 0.78384,-0.25707c0.2144,0.1568 0.21108,0.52611 -0.00742,0.82488z"/><path d="M241.7663,181.74435c-0.2185,0.29877 -0.56944,0.41386 -0.78384,0.25706c-0.2144,-0.1568 -0.21108,-0.52611 0.00742,-0.82488c0.2185,-0.29877 0.56944,-0.41386 0.78384,-0.25707c0.2144,0.1568 0.21108,0.52611 -0.00742,0.82488z"/><path d="M243.61029,183.09291c-0.2185,0.29877 -0.56944,0.41386 -0.78384,0.25706c-0.2144,-0.1568 -0.21108,-0.52611 0.00742,-0.82488c0.2185,-0.29877 0.56944,-0.41386 0.78384,-0.25707c0.2144,0.1568 0.21108,0.52611 -0.00742,0.82488z"/><path d="M234.74159,176.60697c-0.2185,0.29877 -0.56944,0.41386 -0.78384,0.25706c-0.2144,-0.1568 -0.21108,-0.52611 0.00742,-0.82488c0.2185,-0.29877 0.56944,-0.41386 0.78384,-0.25706c0.2144,0.1568 0.21108,0.52611 -0.00742,0.82488z"/><path d="M236.54167,177.92342c-0.2185,0.29877 -0.56944,0.41386 -0.78384,0.25707c-0.2144,-0.1568 -0.21108,-0.52611 0.00742,-0.82488c0.2185,-0.29877 0.56944,-0.41386 0.78384,-0.25706c0.2144,0.1568 0.21108,0.52611 -0.00742,0.82488z"/><path d="M238.38566,179.27199c-0.2185,0.29877 -0.56944,0.41386 -0.78384,0.25707c-0.2144,-0.1568 -0.21108,-0.52611 0.00742,-0.82488c0.2185,-0.29877 0.56944,-0.41386 0.78384,-0.25706c0.2144,0.1568 0.21108,0.52611 -0.00742,0.82488z"/><path d="M245.32256,184.34515c-0.2185,0.29877 -0.56943,0.41386 -0.78384,0.25707c-0.2144,-0.1568 -0.21108,-0.52611 0.00742,-0.82488c0.2185,-0.29877 0.56944,-0.41386 0.78384,-0.25706c0.2144,0.1568 0.21108,0.52611 -0.00742,0.82488z"/><path d="M247.16655,185.69371c-0.2185,0.29877 -0.56944,0.41386 -0.78384,0.25707c-0.2144,-0.1568 -0.21108,-0.52611 0.00742,-0.82488c0.2185,-0.29877 0.56944,-0.41386 0.78384,-0.25706c0.2144,0.1568 0.21108,0.52611 -0.00742,0.82488z"/><path d="M245.24242,171.27837c-0.2185,0.29877 -0.56944,0.41386 -0.78384,0.25707c-0.2144,-0.1568 -0.21108,-0.52611 0.00742,-0.82488c0.2185,-0.29877 0.56944,-0.41386 0.78384,-0.25706c0.2144,0.1568 0.21108,0.52611 -0.00742,0.82488z"/><path d="M247.04251,172.59482c-0.2185,0.29877 -0.56944,0.41386 -0.78384,0.25707c-0.2144,-0.1568 -0.21108,-0.52611 0.00742,-0.82488c0.2185,-0.29877 0.56944,-0.41386 0.78384,-0.25706c0.2144,0.1568 0.21108,0.52611 -0.00742,0.82488z"/><path d="M248.88649,173.94338c-0.2185,0.29877 -0.56944,0.41386 -0.78384,0.25707c-0.2144,-0.1568 -0.21108,-0.52611 0.00742,-0.82488c0.2185,-0.29877 0.56944,-0.41386 0.78384,-0.25706c0.2144,0.1568 0.21108,0.52611 -0.00742,0.82488z"/><path d="M240.01779,167.45744c-0.2185,0.29877 -0.56944,0.41386 -0.78384,0.25707c-0.2144,-0.1568 -0.21108,-0.52611 0.00742,-0.82488c0.2185,-0.29877 0.56944,-0.41386 0.78384,-0.25706c0.2144,0.1568 0.21108,0.52611 -0.00742,0.82488z"/><path d="M241.81787,168.77389c-0.2185,0.29877 -0.56944,0.41386 -0.78384,0.25707c-0.2144,-0.1568 -0.21108,-0.52611 0.00742,-0.82488c0.2185,-0.29877 0.56944,-0.41386 0.78384,-0.25707c0.2144,0.1568 0.21108,0.52611 -0.00742,0.82488z"/><path d="M243.66186,170.12246c-0.2185,0.29877 -0.56944,0.41386 -0.78384,0.25707c-0.2144,-0.1568 -0.21108,-0.52611 0.00742,-0.82488c0.2185,-0.29877 0.56944,-0.41386 0.78384,-0.25706c0.2144,0.1568 0.21108,0.52611 -0.00742,0.82488z"/><path d="M250.59877,175.19562c-0.2185,0.29877 -0.56943,0.41386 -0.78384,0.25707c-0.2144,-0.1568 -0.21108,-0.52611 0.00742,-0.82488c0.2185,-0.29877 0.56944,-0.41386 0.78384,-0.25706c0.2144,0.1568 0.21108,0.52611 -0.00742,0.82488z"/><path d="M252.44276,176.54418c-0.2185,0.29877 -0.56944,0.41386 -0.78384,0.25707c-0.2144,-0.1568 -0.21108,-0.52611 0.00742,-0.82488c0.2185,-0.29877 0.56944,-0.41386 0.78384,-0.25706c0.2144,0.1568 0.21108,0.52611 -0.00742,0.82488z"/><path d="M245.23035,173.13773c-0.2185,0.29877 -0.56944,0.41386 -0.78384,0.25707c-0.2144,-0.1568 -0.21108,-0.52611 0.00742,-0.82488c0.2185,-0.29877 0.56944,-0.41386 0.78384,-0.25706c0.2144,0.1568 0.21108,0.52611 -0.00742,0.82488z"/><path d="M247.03043,174.45418c-0.2185,0.29877 -0.56944,0.41386 -0.78384,0.25707c-0.2144,-0.1568 -0.21108,-0.52611 0.00742,-0.82488c0.2185,-0.29877 0.56944,-0.41386 0.78384,-0.25706c0.2144,0.1568 0.21108,0.52611 -0.00742,0.82488z"/><path d="M248.87442,175.80274c-0.2185,0.29877 -0.56944,0.41386 -0.78384,0.25707c-0.2144,-0.1568 -0.21108,-0.52611 0.00742,-0.82488c0.2185,-0.29877 0.56944,-0.41386 0.78384,-0.25707c0.2144,0.1568 0.21108,0.52611 -0.00742,0.82488z"/><path d="M240.00571,169.3168c-0.2185,0.29877 -0.56944,0.41386 -0.78384,0.25707c-0.2144,-0.1568 -0.21108,-0.52611 0.00742,-0.82488c0.2185,-0.29877 0.56944,-0.41386 0.78384,-0.25706c0.2144,0.1568 0.21108,0.52611 -0.00742,0.82488z"/><path d="M241.8058,170.63325c-0.2185,0.29877 -0.56944,0.41386 -0.78384,0.25707c-0.2144,-0.1568 -0.21108,-0.52611 0.00742,-0.82488c0.2185,-0.29877 0.56944,-0.41386 0.78384,-0.25707c0.2144,0.1568 0.21108,0.52611 -0.00742,0.82488z"/><path d="M243.64979,171.98182c-0.2185,0.29877 -0.56944,0.41386 -0.78384,0.25707c-0.2144,-0.1568 -0.21108,-0.52611 0.00742,-0.82488c0.2185,-0.29877 0.56944,-0.41386 0.78384,-0.25707c0.2144,0.1568 0.21108,0.52611 -0.00742,0.82488z"/><path d="M250.58669,177.05498c-0.2185,0.29877 -0.56944,0.41386 -0.78384,0.25707c-0.2144,-0.1568 -0.21108,-0.52611 0.00742,-0.82488c0.2185,-0.29877 0.56944,-0.41386 0.78384,-0.25706c0.2144,0.1568 0.21108,0.52611 -0.00742,0.82488z"/><path d="M252.43068,178.40354c-0.2185,0.29877 -0.56943,0.41386 -0.78384,0.25707c-0.2144,-0.1568 -0.21108,-0.52611 0.00742,-0.82488c0.2185,-0.29877 0.56944,-0.41386 0.78384,-0.25706c0.2144,0.1568 0.21108,0.52611 -0.00742,0.82488z"/><path d="M243.52803,173.62258c-0.2185,0.29877 -0.56944,0.41386 -0.78384,0.25707c-0.2144,-0.1568 -0.21108,-0.52611 0.00742,-0.82488c0.2185,-0.29877 0.56944,-0.41386 0.78384,-0.25707c0.2144,0.1568 0.21108,0.52611 -0.00742,0.82488z"/><path d="M245.32812,174.93903c-0.2185,0.29877 -0.56944,0.41386 -0.78384,0.25707c-0.2144,-0.1568 -0.21108,-0.52611 0.00742,-0.82488c0.2185,-0.29877 0.56944,-0.41387 0.78384,-0.25707c0.2144,0.1568 0.21108,0.52611 -0.00742,0.82488z"/><path d="M247.1721,176.2876c-0.2185,0.29877 -0.56944,0.41386 -0.78384,0.25707c-0.2144,-0.1568 -0.21108,-0.52611 0.00742,-0.82488c0.2185,-0.29877 0.56944,-0.41387 0.78384,-0.25707c0.2144,0.1568 0.21108,0.52611 -0.00742,0.82488z"/><path d="M238.3034,169.80165c-0.2185,0.29877 -0.56944,0.41386 -0.78384,0.25707c-0.2144,-0.1568 -0.21108,-0.52611 0.00742,-0.82488c0.2185,-0.29877 0.56944,-0.41387 0.78384,-0.25707c0.2144,0.1568 0.21108,0.52611 -0.00742,0.82488z"/><path d="M240.10348,171.11811c-0.2185,0.29877 -0.56944,0.41386 -0.78384,0.25707c-0.2144,-0.1568 -0.21108,-0.52611 0.00742,-0.82488c0.2185,-0.29877 0.56944,-0.41387 0.78384,-0.25707c0.2144,0.1568 0.21108,0.52611 -0.00742,0.82488z"/><path d="M241.94747,172.46667c-0.2185,0.29877 -0.56944,0.41386 -0.78384,0.25707c-0.2144,-0.1568 -0.21108,-0.52611 0.00742,-0.82488c0.2185,-0.29877 0.56944,-0.41387 0.78384,-0.25707c0.2144,0.1568 0.21108,0.52611 -0.00742,0.82488z"/><path d="M248.88438,177.53983c-0.2185,0.29877 -0.56943,0.41386 -0.78384,0.25707c-0.2144,-0.1568 -0.21108,-0.52611 0.00742,-0.82488c0.2185,-0.29877 0.56944,-0.41387 0.78384,-0.25707c0.2144,0.1568 0.21108,0.52611 -0.00742,0.82488z"/><path d="M250.72837,178.8884c-0.2185,0.29877 -0.56944,0.41386 -0.78384,0.25707c-0.2144,-0.1568 -0.21108,-0.52611 0.00742,-0.82488c0.2185,-0.29877 0.56944,-0.41387 0.78384,-0.25707c0.2144,0.1568 0.21108,0.52611 -0.00742,0.82488z"/><path d="M243.51595,175.48195c-0.2185,0.29877 -0.56944,0.41386 -0.78384,0.25707c-0.2144,-0.1568 -0.21108,-0.52611 0.00742,-0.82488c0.2185,-0.29877 0.56944,-0.41386 0.78384,-0.25706c0.2144,0.1568 0.21108,0.52611 -0.00742,0.82488z"/><path d="M245.31603,176.7984c-0.2185,0.29877 -0.56944,0.41386 -0.78384,0.25707c-0.2144,-0.1568 -0.21108,-0.52611 0.00742,-0.82488c0.2185,-0.29877 0.56944,-0.41386 0.78384,-0.25706c0.2144,0.1568 0.21108,0.52611 -0.00742,0.82488z"/><path d="M247.16002,178.14696c-0.2185,0.29877 -0.56944,0.41386 -0.78384,0.25707c-0.2144,-0.1568 -0.21108,-0.52611 0.00742,-0.82488c0.2185,-0.29877 0.56944,-0.41386 0.78384,-0.25707c0.2144,0.1568 0.21108,0.52611 -0.00742,0.82488z"/><path d="M238.29132,171.66102c-0.2185,0.29877 -0.56944,0.41386 -0.78384,0.25707c-0.2144,-0.1568 -0.21108,-0.52611 0.00742,-0.82488c0.2185,-0.29877 0.56944,-0.41386 0.78384,-0.25706c0.2144,0.1568 0.21108,0.52611 -0.00742,0.82488z"/><path d="M240.0914,172.97747c-0.2185,0.29877 -0.56944,0.41386 -0.78384,0.25707c-0.2144,-0.1568 -0.21108,-0.52611 0.00742,-0.82488c0.2185,-0.29877 0.56944,-0.41386 0.78384,-0.25707c0.2144,0.1568 0.21108,0.52611 -0.00742,0.82488z"/><path d="M241.93539,174.32604c-0.2185,0.29877 -0.56944,0.41386 -0.78384,0.25707c-0.2144,-0.1568 -0.21108,-0.52611 0.00742,-0.82488c0.2185,-0.29877 0.56944,-0.41386 0.78384,-0.25707c0.2144,0.1568 0.21108,0.52611 -0.00742,0.82488z"/><path d="M248.87229,179.3992c-0.2185,0.29877 -0.56944,0.41386 -0.78384,0.25707c-0.2144,-0.1568 -0.21108,-0.52611 0.00742,-0.82488c0.2185,-0.29877 0.56944,-0.41386 0.78384,-0.25706c0.2144,0.1568 0.21108,0.52611 -0.00742,0.82488z"/><path d="M250.71628,180.74776c-0.2185,0.29877 -0.56943,0.41386 -0.78384,0.25707c-0.2144,-0.1568 -0.21108,-0.52611 0.00742,-0.82488c0.2185,-0.29877 0.56944,-0.41386 0.78384,-0.25706c0.2144,0.1568 0.21108,0.52611 -0.00742,0.82488z"/></g><g fill="#000000" fill-rule="nonzero" stroke="none" stroke-width="0" stroke-linecap="butt" stroke-linejoin="miter"><path d="M241.78496,176.09815c-0.2185,0.29877 -0.56944,0.41387 -0.78384,0.25707c-0.2144,-0.1568 -0.21108,-0.52611 0.00742,-0.82488c0.2185,-0.29877 0.56944,-0.41386 0.78384,-0.25707c0.2144,0.1568 0.21108,0.52611 -0.00742,0.82488z"/><path d="M243.58504,177.4146c-0.2185,0.29877 -0.56944,0.41386 -0.78384,0.25707c-0.2144,-0.1568 -0.21108,-0.52611 0.00742,-0.82488c0.2185,-0.29877 0.56944,-0.41386 0.78384,-0.25706c0.2144,0.1568 0.21108,0.52611 -0.00742,0.82488z"/><path d="M245.42903,178.76317c-0.2185,0.29877 -0.56944,0.41386 -0.78384,0.25706c-0.2144,-0.1568 -0.21108,-0.52611 0.00742,-0.82488c0.2185,-0.29877 0.56944,-0.41386 0.78384,-0.25706c0.2144,0.1568 0.21108,0.52611 -0.00742,0.82488z"/><path d="M236.56033,172.27722c-0.2185,0.29877 -0.56944,0.41386 -0.78384,0.25706c-0.2144,-0.1568 -0.21108,-0.52611 0.00742,-0.82488c0.2185,-0.29877 0.56944,-0.41386 0.78384,-0.25706c0.2144,0.1568 0.21108,0.52611 -0.00742,0.82488z"/><path d="M238.36041,173.59368c-0.2185,0.29877 -0.56944,0.41386 -0.78384,0.25707c-0.2144,-0.1568 -0.21108,-0.52611 0.00742,-0.82488c0.2185,-0.29877 0.56944,-0.41386 0.78384,-0.25706c0.2144,0.1568 0.21108,0.52611 -0.00742,0.82488z"/><path d="M240.2044,174.94224c-0.2185,0.29877 -0.56944,0.41386 -0.78384,0.25707c-0.2144,-0.1568 -0.21108,-0.52611 0.00742,-0.82488c0.2185,-0.29877 0.56944,-0.41386 0.78384,-0.25706c0.2144,0.1568 0.21108,0.52611 -0.00742,0.82488z"/><path d="M247.1413,180.0154c-0.2185,0.29877 -0.56943,0.41386 -0.78384,0.25707c-0.2144,-0.1568 -0.21108,-0.52611 0.00742,-0.82488c0.2185,-0.29877 0.56944,-0.41386 0.78384,-0.25706c0.2144,0.1568 0.21108,0.52611 -0.00742,0.82488z"/><path d="M248.98529,181.36397c-0.2185,0.29877 -0.56944,0.41386 -0.78384,0.25707c-0.2144,-0.1568 -0.21108,-0.52611 0.00742,-0.82488c0.2185,-0.29877 0.56944,-0.41386 0.78384,-0.25706c0.2144,0.1568 0.21108,0.52611 -0.00742,0.82488z"/><path d="M241.77288,177.95751c-0.2185,0.29877 -0.56944,0.41386 -0.78384,0.25707c-0.2144,-0.1568 -0.21108,-0.52611 0.00742,-0.82488c0.2185,-0.29877 0.56944,-0.41386 0.78384,-0.25707c0.2144,0.1568 0.21108,0.52611 -0.00742,0.82488z"/><path d="M243.57297,179.27397c-0.2185,0.29877 -0.56944,0.41386 -0.78384,0.25706c-0.2144,-0.1568 -0.21108,-0.52611 0.00742,-0.82488c0.2185,-0.29877 0.56944,-0.41386 0.78384,-0.25707c0.2144,0.1568 0.21108,0.52611 -0.00742,0.82488z"/><path d="M245.41696,180.62253c-0.2185,0.29877 -0.56944,0.41386 -0.78384,0.25706c-0.2144,-0.1568 -0.21108,-0.52611 0.00742,-0.82488c0.2185,-0.29877 0.56944,-0.41386 0.78384,-0.25707c0.2144,0.1568 0.21108,0.52611 -0.00742,0.82488z"/><path d="M236.54825,174.13658c-0.2185,0.29877 -0.56944,0.41386 -0.78384,0.25706c-0.2144,-0.1568 -0.21108,-0.52611 0.00742,-0.82488c0.2185,-0.29877 0.56944,-0.41386 0.78384,-0.25706c0.2144,0.1568 0.21108,0.52611 -0.00742,0.82488z"/><path d="M238.34833,175.45304c-0.2185,0.29877 -0.56944,0.41386 -0.78384,0.25707c-0.2144,-0.1568 -0.21108,-0.52611 0.00742,-0.82488c0.2185,-0.29877 0.56944,-0.41386 0.78384,-0.25706c0.2144,0.1568 0.21108,0.52611 -0.00742,0.82488z"/><path d="M240.19232,176.8016c-0.2185,0.29877 -0.56944,0.41386 -0.78384,0.25707c-0.2144,-0.1568 -0.21108,-0.52611 0.00742,-0.82488c0.2185,-0.29877 0.56944,-0.41386 0.78384,-0.25706c0.2144,0.1568 0.21108,0.52611 -0.00742,0.82488z"/><path d="M247.12923,181.87477c-0.2185,0.29877 -0.56943,0.41386 -0.78384,0.25707c-0.2144,-0.1568 -0.21108,-0.52611 0.00742,-0.82488c0.2185,-0.29877 0.56944,-0.41386 0.78384,-0.25706c0.2144,0.1568 0.21108,0.52611 -0.00742,0.82488z"/><path d="M248.97321,183.22333c-0.2185,0.29877 -0.56944,0.41386 -0.78384,0.25707c-0.2144,-0.1568 -0.21108,-0.52611 0.00742,-0.82488c0.2185,-0.29877 0.56944,-0.41386 0.78384,-0.25706c0.2144,0.1568 0.21108,0.52611 -0.00742,0.82488z"/><path d="M240.07057,178.44236c-0.2185,0.29877 -0.56944,0.41386 -0.78384,0.25707c-0.2144,-0.1568 -0.21108,-0.52611 0.00742,-0.82488c0.2185,-0.29877 0.56944,-0.41386 0.78384,-0.25706c0.2144,0.1568 0.21108,0.52611 -0.00742,0.82488z"/><path d="M241.87065,179.75882c-0.2185,0.29877 -0.56944,0.41386 -0.78384,0.25707c-0.2144,-0.1568 -0.21108,-0.52611 0.00742,-0.82488c0.2185,-0.29877 0.56944,-0.41386 0.78384,-0.25706c0.2144,0.1568 0.21108,0.52611 -0.00742,0.82488z"/><path d="M243.71464,181.10738c-0.2185,0.29877 -0.56944,0.41386 -0.78384,0.25706c-0.2144,-0.1568 -0.21108,-0.52611 0.00742,-0.82488c0.2185,-0.29877 0.56944,-0.41386 0.78384,-0.25706c0.2144,0.1568 0.21108,0.52611 -0.00742,0.82488z"/><path d="M234.84594,174.62144c-0.2185,0.29877 -0.56944,0.41386 -0.78384,0.25706c-0.2144,-0.1568 -0.21108,-0.52611 0.00742,-0.82488c0.2185,-0.29877 0.56944,-0.41386 0.78384,-0.25706c0.2144,0.1568 0.21108,0.52611 -0.00742,0.82488z"/><path d="M236.64602,175.93789c-0.2185,0.29877 -0.56944,0.41386 -0.78384,0.25707c-0.2144,-0.1568 -0.21108,-0.52611 0.00742,-0.82488c0.2185,-0.29877 0.56944,-0.41386 0.78384,-0.25706c0.2144,0.1568 0.21108,0.52611 -0.00742,0.82488z"/><path d="M238.49001,177.28645c-0.2185,0.29877 -0.56944,0.41386 -0.78384,0.25707c-0.2144,-0.1568 -0.21108,-0.52611 0.00742,-0.82488c0.2185,-0.29877 0.56944,-0.41386 0.78384,-0.25706c0.2144,0.1568 0.21108,0.52611 -0.00742,0.82488z"/><path d="M245.42691,182.35962c-0.2185,0.29877 -0.56943,0.41386 -0.78384,0.25707c-0.2144,-0.1568 -0.21108,-0.52611 0.00742,-0.82488c0.2185,-0.29877 0.56944,-0.41386 0.78384,-0.25706c0.2144,0.1568 0.21108,0.52611 -0.00742,0.82488z"/><path d="M247.2709,183.70818c-0.2185,0.29877 -0.56944,0.41386 -0.78384,0.25707c-0.2144,-0.1568 -0.21108,-0.52611 0.00742,-0.82488c0.2185,-0.29877 0.56944,-0.41386 0.78384,-0.25706c0.2144,0.1568 0.21108,0.52611 -0.00742,0.82488z"/><path d="M240.05849,180.30173c-0.2185,0.29877 -0.56944,0.41386 -0.78384,0.25707c-0.2144,-0.1568 -0.21108,-0.52611 0.00742,-0.82488c0.2185,-0.29877 0.56944,-0.41386 0.78384,-0.25707c0.2144,0.1568 0.21108,0.52611 -0.00742,0.82488z"/><path d="M241.85857,181.61818c-0.2185,0.29877 -0.56944,0.41386 -0.78384,0.25706c-0.2144,-0.1568 -0.21108,-0.52611 0.00742,-0.82488c0.2185,-0.29877 0.56944,-0.41386 0.78384,-0.25707c0.2144,0.1568 0.21108,0.52611 -0.00742,0.82488z"/><path d="M243.70256,182.96675c-0.2185,0.29877 -0.56944,0.41386 -0.78384,0.25706c-0.2144,-0.1568 -0.21108,-0.52611 0.00742,-0.82488c0.2185,-0.29877 0.56944,-0.41386 0.78384,-0.25707c0.2144,0.1568 0.21108,0.52611 -0.00742,0.82488z"/><path d="M234.83386,176.4808c-0.2185,0.29877 -0.56944,0.41386 -0.78384,0.25706c-0.2144,-0.1568 -0.21108,-0.52611 0.00742,-0.82488c0.2185,-0.29877 0.56944,-0.41386 0.78384,-0.25706c0.2144,0.1568 0.21108,0.52611 -0.00742,0.82488z"/><path d="M236.63394,177.79726c-0.2185,0.29877 -0.56944,0.41386 -0.78384,0.25707c-0.2144,-0.1568 -0.21108,-0.52611 0.00742,-0.82488c0.2185,-0.29877 0.56944,-0.41386 0.78384,-0.25706c0.2144,0.1568 0.21108,0.52611 -0.00742,0.82488z"/><path d="M238.47793,179.14582c-0.2185,0.29877 -0.56944,0.41386 -0.78384,0.25707c-0.2144,-0.1568 -0.21108,-0.52611 0.00742,-0.82488c0.2185,-0.29877 0.56944,-0.41386 0.78384,-0.25706c0.2144,0.1568 0.21108,0.52611 -0.00742,0.82488z"/><path d="M245.41483,184.21898c-0.2185,0.29877 -0.56943,0.41386 -0.78384,0.25707c-0.2144,-0.1568 -0.21108,-0.52611 0.00742,-0.82488c0.2185,-0.29877 0.56944,-0.41386 0.78384,-0.25706c0.2144,0.1568 0.21108,0.52611 -0.00742,0.82488z"/><path d="M247.25882,185.56754c-0.2185,0.29877 -0.56944,0.41386 -0.78384,0.25707c-0.2144,-0.1568 -0.21108,-0.52611 0.00742,-0.82488c0.2185,-0.29877 0.56944,-0.41386 0.78384,-0.25706c0.2144,0.1568 0.21108,0.52611 -0.00742,0.82488z"/><path d="M245.3347,171.15219c-0.2185,0.29877 -0.56944,0.41386 -0.78384,0.25707c-0.2144,-0.1568 -0.21108,-0.52611 0.00742,-0.82488c0.2185,-0.29877 0.56944,-0.41386 0.78384,-0.25706c0.2144,0.1568 0.21108,0.52611 -0.00742,0.82488z"/><path d="M247.13478,172.46865c-0.2185,0.29877 -0.56944,0.41386 -0.78384,0.25707c-0.2144,-0.1568 -0.21108,-0.52611 0.00742,-0.82488c0.2185,-0.29877 0.56944,-0.41386 0.78384,-0.25706c0.2144,0.1568 0.21108,0.52611 -0.00742,0.82488z"/><path d="M248.97877,173.81721c-0.2185,0.29877 -0.56944,0.41386 -0.78384,0.25707c-0.2144,-0.1568 -0.21108,-0.52611 0.00742,-0.82488c0.2185,-0.29877 0.56944,-0.41386 0.78384,-0.25706c0.2144,0.1568 0.21108,0.52611 -0.00742,0.82488z"/><path d="M240.11006,167.33127c-0.2185,0.29877 -0.56944,0.41386 -0.78384,0.25707c-0.2144,-0.1568 -0.21108,-0.52611 0.00742,-0.82488c0.2185,-0.29877 0.56944,-0.41386 0.78384,-0.25706c0.2144,0.1568 0.21108,0.52611 -0.00742,0.82488z"/><path d="M241.91015,168.64772c-0.2185,0.29877 -0.56944,0.41386 -0.78384,0.25707c-0.2144,-0.1568 -0.21108,-0.52611 0.00742,-0.82488c0.2185,-0.29877 0.56944,-0.41386 0.78384,-0.25707c0.2144,0.1568 0.21108,0.52611 -0.00742,0.82488z"/><path d="M243.75413,169.99628c-0.2185,0.29877 -0.56944,0.41386 -0.78384,0.25707c-0.2144,-0.1568 -0.21108,-0.52611 0.00742,-0.82488c0.2185,-0.29877 0.56944,-0.41386 0.78384,-0.25706c0.2144,0.1568 0.21108,0.52611 -0.00742,0.82488z"/><path d="M250.69104,175.06945c-0.2185,0.29877 -0.56943,0.41386 -0.78384,0.25707c-0.2144,-0.1568 -0.21108,-0.52611 0.00742,-0.82488c0.2185,-0.29877 0.56944,-0.41386 0.78384,-0.25706c0.2144,0.1568 0.21108,0.52611 -0.00742,0.82488z"/><path d="M252.53503,176.41801c-0.2185,0.29877 -0.56944,0.41386 -0.78384,0.25707c-0.2144,-0.1568 -0.21108,-0.52611 0.00742,-0.82488c0.2185,-0.29877 0.56944,-0.41386 0.78384,-0.25706c0.2144,0.1568 0.21108,0.52611 -0.00742,0.82488z"/><path d="M245.32261,173.01156c-0.2185,0.29877 -0.56944,0.41386 -0.78384,0.25707c-0.2144,-0.1568 -0.21108,-0.52611 0.00742,-0.82488c0.2185,-0.29877 0.56944,-0.41386 0.78384,-0.25706c0.2144,0.1568 0.21108,0.52611 -0.00742,0.82488z"/><path d="M247.1227,174.32802c-0.2185,0.29877 -0.56944,0.41386 -0.78384,0.25707c-0.2144,-0.1568 -0.21108,-0.52611 0.00742,-0.82488c0.2185,-0.29877 0.56944,-0.41386 0.78384,-0.25706c0.2144,0.1568 0.21108,0.52611 -0.00742,0.82488z"/><path d="M248.96669,175.67658c-0.2185,0.29877 -0.56944,0.41386 -0.78384,0.25707c-0.2144,-0.1568 -0.21108,-0.52611 0.00742,-0.82488c0.2185,-0.29877 0.56944,-0.41386 0.78384,-0.25707c0.2144,0.1568 0.21108,0.52611 -0.00742,0.82488z"/><path d="M240.09798,169.19064c-0.2185,0.29877 -0.56944,0.41386 -0.78384,0.25707c-0.2144,-0.1568 -0.21108,-0.52611 0.00742,-0.82488c0.2185,-0.29877 0.56944,-0.41386 0.78384,-0.25706c0.2144,0.1568 0.21108,0.52611 -0.00742,0.82488z"/><path d="M241.89807,170.50709c-0.2185,0.29877 -0.56944,0.41386 -0.78384,0.25707c-0.2144,-0.1568 -0.21108,-0.52611 0.00742,-0.82488c0.2185,-0.29877 0.56944,-0.41386 0.78384,-0.25707c0.2144,0.1568 0.21108,0.52611 -0.00742,0.82488z"/><path d="M243.74205,171.85565c-0.2185,0.29877 -0.56944,0.41386 -0.78384,0.25707c-0.2144,-0.1568 -0.21108,-0.52611 0.00742,-0.82488c0.2185,-0.29877 0.56944,-0.41386 0.78384,-0.25707c0.2144,0.1568 0.21108,0.52611 -0.00742,0.82488z"/><path d="M250.67896,176.92882c-0.2185,0.29877 -0.56944,0.41386 -0.78384,0.25707c-0.2144,-0.1568 -0.21108,-0.52611 0.00742,-0.82488c0.2185,-0.29877 0.56944,-0.41386 0.78384,-0.25706c0.2144,0.1568 0.21108,0.52611 -0.00742,0.82488z"/><path d="M252.52295,178.27738c-0.2185,0.29877 -0.56943,0.41386 -0.78384,0.25707c-0.2144,-0.1568 -0.21108,-0.52611 0.00742,-0.82488c0.2185,-0.29877 0.56944,-0.41386 0.78384,-0.25706c0.2144,0.1568 0.21108,0.52611 -0.00742,0.82488z"/><path d="M243.6203,173.49642c-0.2185,0.29877 -0.56944,0.41386 -0.78384,0.25707c-0.2144,-0.1568 -0.21108,-0.52611 0.00742,-0.82488c0.2185,-0.29877 0.56944,-0.41386 0.78384,-0.25706c0.2144,0.1568 0.21108,0.52611 -0.00742,0.82488z"/><path d="M245.42038,174.81287c-0.2185,0.29877 -0.56944,0.41386 -0.78384,0.25707c-0.2144,-0.1568 -0.21108,-0.52611 0.00742,-0.82488c0.2185,-0.29877 0.56944,-0.41386 0.78384,-0.25706c0.2144,0.1568 0.21108,0.52611 -0.00742,0.82488z"/><path d="M247.26437,176.16143c-0.2185,0.29877 -0.56944,0.41386 -0.78384,0.25707c-0.2144,-0.1568 -0.21108,-0.52611 0.00742,-0.82488c0.2185,-0.29877 0.56944,-0.41386 0.78384,-0.25706c0.2144,0.1568 0.21108,0.52611 -0.00742,0.82488z"/><path d="M238.39567,169.67549c-0.2185,0.29877 -0.56944,0.41386 -0.78384,0.25707c-0.2144,-0.1568 -0.21108,-0.52611 0.00742,-0.82488c0.2185,-0.29877 0.56944,-0.41386 0.78384,-0.25706c0.2144,0.1568 0.21108,0.52611 -0.00742,0.82488z"/><path d="M240.19575,170.99194c-0.2185,0.29877 -0.56944,0.41386 -0.78384,0.25707c-0.2144,-0.1568 -0.21108,-0.52611 0.00742,-0.82488c0.2185,-0.29877 0.56944,-0.41386 0.78384,-0.25707c0.2144,0.1568 0.21108,0.52611 -0.00742,0.82488z"/><path d="M242.03974,172.3405c-0.2185,0.29877 -0.56944,0.41386 -0.78384,0.25707c-0.2144,-0.1568 -0.21108,-0.52611 0.00742,-0.82488c0.2185,-0.29877 0.56944,-0.41386 0.78384,-0.25706c0.2144,0.1568 0.21108,0.52611 -0.00742,0.82488z"/><path d="M248.97664,177.41367c-0.2185,0.29877 -0.56943,0.41386 -0.78384,0.25707c-0.2144,-0.1568 -0.21108,-0.52611 0.00742,-0.82488c0.2185,-0.29877 0.56944,-0.41386 0.78384,-0.25706c0.2144,0.1568 0.21108,0.52611 -0.00742,0.82488z"/><path d="M250.82063,178.76223c-0.2185,0.29877 -0.56944,0.41386 -0.78384,0.25707c-0.2144,-0.1568 -0.21108,-0.52611 0.00742,-0.82488c0.2185,-0.29877 0.56944,-0.41386 0.78384,-0.25706c0.2144,0.1568 0.21108,0.52611 -0.00742,0.82488z"/><path d="M243.60822,175.35578c-0.2185,0.29877 -0.56944,0.41386 -0.78384,0.25707c-0.2144,-0.1568 -0.21108,-0.52611 0.00742,-0.82488c0.2185,-0.29877 0.56944,-0.41386 0.78384,-0.25706c0.2144,0.1568 0.21108,0.52611 -0.00742,0.82488z"/><path d="M245.4083,176.67223c-0.2185,0.29877 -0.56944,0.41386 -0.78384,0.25707c-0.2144,-0.1568 -0.21108,-0.52611 0.00742,-0.82488c0.2185,-0.29877 0.56944,-0.41386 0.78384,-0.25706c0.2144,0.1568 0.21108,0.52611 -0.00742,0.82488z"/><path d="M247.25229,178.0208c-0.2185,0.29877 -0.56944,0.41386 -0.78384,0.25707c-0.2144,-0.1568 -0.21108,-0.52611 0.00742,-0.82488c0.2185,-0.29877 0.56944,-0.41386 0.78384,-0.25707c0.2144,0.1568 0.21108,0.52611 -0.00742,0.82488z"/><path d="M238.38359,171.53485c-0.2185,0.29877 -0.56944,0.41386 -0.78384,0.25707c-0.2144,-0.1568 -0.21108,-0.52611 0.00742,-0.82488c0.2185,-0.29877 0.56944,-0.41386 0.78384,-0.25706c0.2144,0.1568 0.21108,0.52611 -0.00742,0.82488z"/><path d="M240.18367,172.85131c-0.2185,0.29877 -0.56944,0.41386 -0.78384,0.25707c-0.2144,-0.1568 -0.21108,-0.52611 0.00742,-0.82488c0.2185,-0.29877 0.56944,-0.41386 0.78384,-0.25707c0.2144,0.1568 0.21108,0.52611 -0.00742,0.82488z"/><path d="M242.02766,174.19987c-0.2185,0.29877 -0.56944,0.41386 -0.78384,0.25707c-0.2144,-0.1568 -0.21108,-0.52611 0.00742,-0.82488c0.2185,-0.29877 0.56944,-0.41386 0.78384,-0.25707c0.2144,0.1568 0.21108,0.52611 -0.00742,0.82488z"/><path d="M248.96456,179.27303c-0.2185,0.29877 -0.56944,0.41386 -0.78384,0.25707c-0.2144,-0.1568 -0.21108,-0.52611 0.00742,-0.82488c0.2185,-0.29877 0.56944,-0.41386 0.78384,-0.25706c0.2144,0.1568 0.21108,0.52611 -0.00742,0.82488z"/><path d="M250.80855,180.62159c-0.2185,0.29877 -0.56943,0.41386 -0.78384,0.25707c-0.2144,-0.1568 -0.21108,-0.52611 0.00742,-0.82488c0.2185,-0.29877 0.56944,-0.41386 0.78384,-0.25706c0.2144,0.1568 0.21108,0.52611 -0.00742,0.82488z"/></g><path d="M225.91525,181.93474l1.10724,-1.51401l17.15879,12.54873l-1.10724,1.51401z" fill="#9b0f0f" fill-rule="nonzero" stroke="none" stroke-width="0" stroke-linecap="butt" stroke-linejoin="miter"/></g></g></svg>