<svg version="1.1" xmlns="http://www.w3.org/2000/svg" xmlns:xlink="http://www.w3.org/1999/xlink" width="105.93407" height="313.10442" viewBox="0,0,105.93407,313.10442"><defs><radialGradient cx="240.12427" cy="124.03908" r="14.92029" gradientUnits="userSpaceOnUse" id="color-1"><stop offset="0" stop-color="#da1616"/><stop offset="1" stop-color="#990f0f"/></radialGradient></defs><g transform="translate(-188.70981,-36.91965)"><g data-paper-data="{&quot;isPaintingLayer&quot;:true}" fill-rule="nonzero" stroke-linejoin="miter" stroke-miterlimit="10" stroke-dasharray="" stroke-dashoffset="0" style="mix-blend-mode: normal"><path d="M195.28374,306.61253v-253.22501h91.18203v253.22501z" fill-opacity="0.01" fill="#000000" stroke="none" stroke-width="0" stroke-linecap="butt"/><path d="M266.51281,73.40724c0,0 11.51983,-6.38166 14.74578,-10.44722c3.11415,-3.92467 7.98002,-26.04036 7.98002,-26.04036c0,0 2.77817,6.8035 4.35106,15.27084c0.12225,0.65812 -0.3141,3.43069 -0.3141,3.43069c0,0 1.02893,1.18824 1.15132,2.52172c0.54969,5.98904 0.15708,12.20125 -2.36846,17.10044c-7.24318,14.05073 -16.16443,19.37529 -16.16443,19.37529z" data-paper-data="{&quot;index&quot;:null}" fill="#2b2b2b" stroke="#000000" stroke-width="0" stroke-linecap="round"/><path d="M205.73524,95.67915c0,0 -8.61446,-5.80783 -15.07275,-20.23617c-6.38303,-14.26018 4.92632,-38.1102 4.92632,-38.1102c0,0 3.64041,22.35014 6.53367,26.44037c2.99712,4.23707 14.14799,11.24353 14.14799,11.24353z" fill="#2b2b2b" stroke="#000000" stroke-width="0" stroke-linecap="round"/><path d="M209.73433,72.72401c5.88143,-8.43255 13.73361,-16.54867 28.45197,-17.20276c2.87948,-0.06757 5.55564,0.03803 8.04155,0.29818c4.01492,0.42017 6.92523,0.48078 10.89855,2.27596c3.97332,1.79518 11.65839,7.41021 15.50889,9.65518c2.28494,1.33219 5.46129,2.57107 5.46129,2.57107c0,0 -1.76761,1.11756 -3.03444,1.44242c-1.26684,0.32485 -2.527,-0.0163 -2.527,-0.0163c0,0 4.10602,5.86287 5.48998,12.6325c0.71341,3.48959 1.42786,7.4802 2.09808,11.6246c0.15159,0.93735 2.54752,6.97521 3.84646,11.98161c1.18774,4.57782 0.96103,9.72796 0.96103,9.72796c0,0 -0.72443,-1.84273 -1.23485,-2.87045c-0.51042,-1.02773 -1.37718,-2.05329 -1.37718,-2.05329c0,0 0.8795,6.11217 1.17161,9.96693c0.37383,4.93325 -0.27554,8.15461 -0.27554,8.15461c0,0 -1.08453,-3.20284 -1.62347,-4.58245c-0.44381,-1.13608 -1.38058,-3.10739 -1.38058,-3.10739c0,0 -0.72367,11.483 -1.57375,17.14776c-1.5623,10.87013 -6.63115,19.74928 -6.63115,19.74928l-1.15522,-2.69127c0,0 -1.02266,2.51997 -2.16005,3.82104c-1.1374,1.30106 -3.43873,3.3395 -3.43873,3.3395l-0.09205,-4.24695c0,0 -7.0601,12.63229 -24.35066,12.46443c-16.30625,-0.2929 -26.07151,-12.23932 -26.07151,-12.23932l-0.1162,3.04383c0,0 -3.89477,-3.77522 -6.18145,-11.12989c-2.47788,-7.96965 -4.83928,-19.13237 -4.83928,-19.13237c0,0 -0.7017,1.83305 -0.90426,3.78667c-0.23042,2.2224 -0.57217,5.215 -0.57217,5.215c0,0 -2.27741,-6.42283 -2.68108,-10.76875c-0.40366,-4.34593 0.71498,-10.39864 0.71498,-10.39864c0,0 -0.81932,0.87113 -1.24084,1.5266c-0.42151,0.65547 -1.11295,2.13361 -1.11295,2.13361c0,0 -0.08659,-6.07141 0.33834,-10.83052c0.16959,-1.89939 0.59241,-6.67747 1.59685,-12.56909c0.78377,-4.59726 3.56973,-14.98718 3.56973,-14.98718c0,0 -1.16002,0.69592 -1.8137,1.26074c-0.65368,0.56482 -1.87897,1.93 -1.87897,1.93c0,0 0.11886,-4.26543 2.98502,-7.91488c2.99366,-3.81181 6.748,-8.45633 7.13274,-9.00794z" fill="#000000" stroke="none" stroke-width="1.5" stroke-linecap="butt"/><path d="M201.03043,304.39162c0,0 -0.63536,-94.38387 -0.79335,-118.01201c-0.05451,-8.15261 8.18688,-36.76129 40.20201,-36.9211c31.60235,-0.15775 39.85672,29.48704 39.84884,36.89673c-0.07659,46.24274 0.65429,117.98648 0.65429,117.98648l-10.49667,0.09614l-0.15882,-114.84311c0,0 0.07549,-3.0993 -2.81625,-3.15415c-3.43441,-0.06514 -2.94538,3.11562 -2.94538,3.11562l0.20548,114.86995l-48.21366,0.07222l-0.30539,-115.23309c0,0 0.27949,-2.919 -2.8856,-2.93443c-3.11083,-0.01515 -2.81569,2.90899 -2.81569,2.90899l0.35311,115.0668z" fill="#ffffff" stroke="#000000" stroke-width="2" stroke-linecap="butt"/><path d="M255.6276,200.33383c-0.57113,0 -1.03411,-0.46299 -1.03411,-1.03411c0,-0.57113 0.46299,-1.03413 1.03411,-1.03413c0.57113,0 1.03411,0.463 1.03411,1.03413c0,0.57113 -0.46299,1.03411 -1.03411,1.03411z" fill="#000000" stroke="none" stroke-width="1.5" stroke-linecap="butt"/><path d="M250.36773,204.56942c-4.4635,-0.31439 -6.55245,-1.79392 -6.16985,-2.58011c0.11788,-0.24224 2.84645,1.06355 6.97038,1.3048c6.40897,0.37493 8.51033,-0.63173 8.51033,-0.63173v1.34616c0,0 -2.4135,1.04672 -9.31086,0.56089z" fill="#000000" stroke="#000000" stroke-width="0" stroke-linecap="butt"/><path d="M222.55497,199.29972c0,-0.57113 0.46299,-1.03413 1.03411,-1.03413c0.57113,0 1.03413,0.463 1.03413,1.03413c0,0.57113 -0.463,1.03411 -1.03413,1.03411c-0.57113,0 -1.03411,-0.46299 -1.03411,-1.03411z" fill="#000000" stroke="none" stroke-width="1.5" stroke-linecap="butt"/><path d="M228.84897,204.56942c-6.89736,0.48585 -9.31086,-0.56089 -9.31086,-0.56089v-1.34616c0,0 2.10136,1.00666 8.51033,0.63173c4.12393,-0.24126 6.85251,-1.54704 6.97039,-1.3048c0.3826,0.78618 -1.70634,2.26571 -6.16985,2.58011z" fill="#000000" stroke="#000000" stroke-width="0" stroke-linecap="butt"/><path d="M240.12943,261.12113c-0.81895,0 -1.48284,-0.66389 -1.48284,-1.48284c0,-0.81895 0.66389,-1.48284 1.48284,-1.48284c0.81895,0 1.48284,0.66389 1.48284,1.48284c0,0.81895 -0.66389,1.48284 -1.48284,1.48284z" data-paper-data="{&quot;index&quot;:null}" fill="#000000" stroke="none" stroke-width="1.5" stroke-linecap="butt"/><path d="M215.20626,244.60761c0,0 -0.53572,-45.43154 -1.28481,-57.90288c-0.75787,-12.6174 -6.0456,-23.32114 -6.0456,-23.32114l7.73495,-8.0405l10.71777,16.28379c0,0 5.38149,10.29027 13.87845,10.20614c8.27072,-0.08189 15.01103,-10.20614 15.01103,-10.20614l8.98226,-16.93561l8.97732,9.3255c0,0 -4.84825,11.41933 -6.04573,21.809c-1.7033,14.77844 -1.70506,59.17982 -1.70506,59.17982l1.00247,31.29579c0,0 -15.65793,-5.91649 -26.0781,-8.21171c-10.42017,-2.29523 -25.87295,-3.23143 -25.87295,-3.23143z" fill="#990f0f" stroke="none" stroke-width="0" stroke-linecap="butt"/><path d="M215.06852,244.86441c0,0 -0.01136,-6.85746 -0.49623,-9.83226c-0.407,-2.49703 -3.59945,-13.73813 -3.98997,-25.2389c-0.39729,-11.70011 6.24105,-24.04526 6.24105,-39.22802c0,-4.498 -0.75721,-14.68578 -0.75721,-14.68578c0,0 2.67319,-2.35297 4.6557,-3.74807c1.98251,-1.3951 5.17197,-2.80371 5.17197,-2.80371c0,0 0.09466,9.42791 1.92292,18.70655c1.77474,9.00698 5.16866,17.87332 12.6366,17.83867c7.63494,-0.03543 10.83829,-9.55258 12.38497,-18.74497c1.52465,-9.06145 1.44657,-17.80025 1.44657,-17.80025c0,0 3.91276,1.51959 6.16585,2.94655c2.25309,1.42695 4.75379,3.60523 4.75379,3.60523c0,0 -0.75721,10.42321 -0.75721,15.19059c0,14.81211 4.92791,25.03907 5.6419,38.15809c0.74602,13.70752 -2.88069,23.15256 -3.29711,25.88716c-0.39169,2.57219 -0.92249,9.74912 -0.92249,9.74912c0,0 -16.79354,-2.49116 -24.8268,-2.49116c-8.33506,0 -25.9743,2.49116 -25.9743,2.49116z" fill="#0e0e0e" stroke="#000000" stroke-width="0" stroke-linecap="butt"/><path d="M213.29871,98.28976c0,0 4.54702,1.47017 7.47391,0.9566c2.92688,-0.51357 10.36298,-3.47333 10.36298,-3.47333c0,0 -0.00802,1.50032 -0.26399,2.2576c-0.25922,0.76689 -1.28173,2.31526 -1.28173,2.31526c0,0 4.84387,-1.10851 10.48095,-3.00304c9.89099,-3.3242 15.1175,-5.98701 15.1175,-5.98701l-3.41297,4.248c0,0 4.01142,-0.5439 8.012,-2.14569c3.9465,-1.58014 7.88245,-3.72198 7.94652,-3.34387c0.14166,0.8361 0.53006,18.18536 0.21846,23.74328c-0.42163,5.66922 -1.70033,9.33322 -2.31737,12.35406c-0.61704,3.02084 -0.84452,8.77735 -2.54034,14.70795c-1.69582,5.9306 -4.16065,10.42288 -10.01824,16.15903c-5.85759,5.73616 -9.05378,8.25275 -13.01359,8.32173c-3.81077,0.06639 -8.93565,-4.1002 -13.93542,-9.38244c-5.32393,-5.62474 -6.4118,-8.68059 -8.71551,-15.13975c-2.30371,-6.45916 -1.77653,-9.90853 -2.12266,-15.24835c-0.25298,-3.90273 -1.76119,-6.44504 -2.07636,-10.42801c-0.31517,-3.98297 0.08586,-16.91202 0.08586,-16.91202z" fill="#f1f1f1" stroke="#000000" stroke-width="1.5" stroke-linecap="butt"/><path d="M214.41248,125.32499c0,0 -4.93211,-3.51705 -6.16417,-8.97502c-1.29636,-5.74284 -1.46118,-9.7328 0.48013,-9.99193c1.94131,-0.25915 2.70321,2.37692 3.73262,8.35569c1.0294,5.97877 1.95143,10.61127 1.95143,10.61127z" data-paper-data="{&quot;index&quot;:null}" fill="#d7d7d7" stroke="#000000" stroke-width="1" stroke-linecap="butt"/><path d="M214.20988,121.37743c0,0 -3.56385,-2.92338 -4.31816,-8.45061c-0.42079,-3.08327 2.15675,-2.28016 2.15675,-2.28016" fill="none" stroke="#000000" stroke-width="0.25" stroke-linecap="round"/><path d="M268.64564,114.71372c1.0294,-5.97877 1.7913,-8.61483 3.73262,-8.35569c1.94131,0.25914 1.77649,4.24909 0.48013,9.99193c-1.23206,5.45797 -6.16417,8.97502 -6.16417,8.97502c0,0 0.92203,-4.6325 1.95143,-10.61127z" data-paper-data="{&quot;index&quot;:null}" fill="#d7d7d7" stroke="#000000" stroke-width="1" stroke-linecap="butt"/><path d="M269.05818,110.64666c0,0 2.57754,-0.80312 2.15675,2.28016c-0.75431,5.52723 -4.31816,8.45061 -4.31816,8.45061" data-paper-data="{&quot;index&quot;:null}" fill="none" stroke="#000000" stroke-width="0.25" stroke-linecap="round"/><path d="M202.88498,332.20644v-15.30586h15.19421v15.30586z" fill="#da1616" stroke="none" stroke-width="0" stroke-linecap="butt"/><path d="M217.97744,332.20644v-15.30586h15.19421v15.30586z" fill="#c01313" stroke="none" stroke-width="0" stroke-linecap="butt"/><path d="M233.06992,332.20644v-15.30586h15.19422v15.30586z" fill="#b31212" stroke="none" stroke-width="0" stroke-linecap="butt"/><path d="M248.16242,332.20644v-15.30586h15.19421v15.30586z" fill="#990f0f" stroke="none" stroke-width="0" stroke-linecap="butt"/><path d="M214.09344,99.17542c0,0 4.43123,1.44972 7.28359,0.94329c2.85235,-0.50642 10.09909,-3.42501 10.09909,-3.42501c0,0 -1.60782,1.47945 -1.85727,2.22619c-0.25262,0.75622 -2.04909,2.28306 -2.04909,2.28306c0,0 7.12052,-1.0931 12.61406,-2.96127c9.63912,-3.27796 13.53254,-5.90373 13.53254,-5.90373l-3.92606,4.18891c0,0 5.70927,-0.53633 9.60798,-2.11584c3.846,-1.55816 7.68173,-3.6702 7.74417,-3.29735c0.07065,0.4219 0.20425,5.10777 0.2772,10.31759c0.04005,2.86002 0.14653,7.02851 0.05988,10.05323c-0.06396,2.2327 -0.32418,3.84219 -0.32418,3.84219c0,0 -14.64033,-5.34646 -27.23974,-4.94054c-12.30939,0.39657 -25.90583,5.46606 -25.90583,5.46606c0,0 -0.13459,-4.72259 -0.10054,-7.82152c0.04874,-4.43623 0.1842,-8.85524 0.1842,-8.85524z" fill="#d7d7d7" stroke="#ff0000" stroke-width="0" stroke-linecap="butt"/><path d="M263.14054,332.20644v-15.30586h15.19421v15.30586z" fill="#740c0c" stroke="none" stroke-width="0" stroke-linecap="butt"/><path d="M203.20891,350.02407v-15.30586h15.19421v15.30586z" fill="#8b8b8b" stroke="none" stroke-width="0" stroke-linecap="butt"/><path d="M218.30139,350.02407v-15.30586h15.19421v15.30586z" fill="#666666" stroke="none" stroke-width="0" stroke-linecap="butt"/><path d="M233.39388,350.02407v-15.30586h15.19422v15.30586z" fill="#4b4b4b" stroke="none" stroke-width="0" stroke-linecap="butt"/><path d="M248.48638,350.02407v-15.30586h15.19421v15.30586z" fill="#2b2b2b" stroke="none" stroke-width="0" stroke-linecap="butt"/><path d="M263.44543,350.02407v-15.30586h15.19421v15.30586z" fill="#0c0c0c" stroke="none" stroke-width="0" stroke-linecap="butt"/><path d="M240.47059,84.79031c0,0 18.65545,24.76144 15.35154,46.95424c-3.38611,22.74497 -15.64149,32.15726 -15.64149,32.15726c0,0 -13.67222,-13.26879 -16.51841,-35.06403c-2.61793,-20.04735 16.80837,-44.04746 16.80837,-44.04746z" fill="#000000" stroke="none" stroke-width="1.5" stroke-linecap="butt"/><path d="M239.76923,109.37112c8.3649,-0.03703 15.38415,6.97944 15.27376,15.01605c-0.11039,8.03661 -6.41895,14.28133 -14.78295,14.31983c-8.36489,0.0385 -14.73813,-5.91979 -15.05473,-14.78327c-0.35252,-9.86915 6.19902,-14.51558 14.56392,-14.55261z" fill="url(#color-1)" stroke="#000000" stroke-width="1.4" stroke-linecap="butt"/><path d="M243.31479,123.83267c-0.02148,5.66132 -3.24707,10.26522 -3.24707,10.26522c0,0 -3.44033,-4.73801 -3.41885,-10.3993c0.02148,-5.66129 3.49665,-10.10206 3.49665,-10.10206c0,0 3.19075,4.57482 3.16927,10.23614z" fill="#000000" stroke="none" stroke-width="1.5" stroke-linecap="butt"/><path d="M199.63522,305.43372c0,0 0.31037,-4.5577 0.11443,-9.44966c-0.15057,-3.75916 -0.80413,-7.7157 -0.88264,-9.95321c-0.09849,-2.80681 -0.72648,-8.99632 -0.72648,-8.99632h14.44871v28.3992z" fill="#990f0f" stroke="none" stroke-width="0" stroke-linecap="butt"/><path d="M269.15662,305.45232v-28.3992h14.44871c0,0 -0.628,6.1895 -0.72648,8.99632c-0.07851,2.23751 -0.73207,6.19405 -0.88264,9.95322c-0.19594,4.89197 0.11443,9.44966 0.11443,9.44966z" data-paper-data="{&quot;index&quot;:null}" fill="#990f0f" stroke="none" stroke-width="0" stroke-linecap="butt"/><path d="M223.51779,122.48758l4.28904,2.11661l-4.29729,1.87065c0,0 -0.1079,-1.31414 -0.10646,-1.97133c0.00129,-0.59079 0.11471,-2.01592 0.11471,-2.01592z" fill="#666666" stroke="#000000" stroke-width="0" stroke-linecap="round"/><path d="M255.75845,119.2274c0.0956,0.6502 0.17711,1.96625 0.17711,1.96625l-4.52358,-1.27142l3.94408,-2.67352c0,0 0.31645,1.39417 0.40239,1.97869z" data-paper-data="{&quot;index&quot;:null}" fill="#666666" stroke="#000000" stroke-width="0" stroke-linecap="round"/><path d="M256.02207,130.37545c-0.10333,0.64902 -0.4193,1.92917 -0.4193,1.92917l-3.9474,-2.49183l4.57477,-1.44577c0,0 -0.11518,1.42499 -0.20807,2.00843z" data-paper-data="{&quot;index&quot;:null}" fill="#666666" stroke="#000000" stroke-width="0" stroke-linecap="round"/><path d="M224.40067,133.52489l4.70808,0.95885l-3.64929,2.88527c0,0 -0.45555,-1.23737 -0.62998,-1.87099c-0.15681,-0.5696 -0.4288,-1.97312 -0.4288,-1.97312z" data-paper-data="{&quot;index&quot;:null}" fill="#666666" stroke="#000000" stroke-width="0" stroke-linecap="round"/><path d="M227.8385,144.12291l4.78942,0.43302l-3.29005,3.2616c0,0 -0.59659,-1.17588 -0.84364,-1.78487c-0.22209,-0.54746 -0.65573,-1.90975 -0.65573,-1.90975z" data-paper-data="{&quot;index&quot;:null}" fill="#4b4b4b" stroke="#000000" stroke-width="0" stroke-linecap="round"/><path d="M232.30265,153.43481l4.78544,-0.72292l-2.58527,4.04821c0,0 -0.81728,-1.03475 -1.17985,-1.58287c-0.32594,-0.49275 -1.02032,-1.74242 -1.02032,-1.74242z" data-paper-data="{&quot;index&quot;:null}" fill="#4b4b4b" stroke="#000000" stroke-width="0" stroke-linecap="round"/><path d="M253.87666,140.81561c-0.15608,0.63839 -0.57573,1.88839 -0.57573,1.88839l-3.73113,-3.03599l4.67855,-0.83708c0,0 -0.23138,1.41079 -0.37169,1.98468z" data-paper-data="{&quot;index&quot;:null}" fill="#4b4b4b" stroke="#000000" stroke-width="0" stroke-linecap="round"/><path d="M249.67223,151.39065c-0.30025,0.5846 -0.99908,1.70274 -0.99908,1.70274l-2.98782,-3.76913l4.80994,0.22255c0,0 -0.55311,1.3183 -0.82303,1.84383z" data-paper-data="{&quot;index&quot;:null}" fill="#4b4b4b" stroke="#000000" stroke-width="0" stroke-linecap="round"/><path d="M226.06843,110.85047l3.51426,3.1841l-4.66339,0.63399c0,0 0.27275,-1.29005 0.46223,-1.91933c0.17033,-0.56571 0.6869,-1.89876 0.6869,-1.89876z" data-paper-data="{&quot;index&quot;:null}" fill="#8b8b8b" stroke="#000000" stroke-width="0" stroke-linecap="round"/><path d="M252.6297,107.57504c0.24092,0.61144 0.61949,1.87449 0.61949,1.87449l-4.70072,-0.26653l3.23952,-3.44335c0,0 0.62513,1.28572 0.84171,1.83539z" data-paper-data="{&quot;index&quot;:null}" fill="#8b8b8b" stroke="#000000" stroke-width="0" stroke-linecap="round"/><path d="M230.52407,100.79271l2.96265,3.91544l-4.70797,-0.33044c0,0 0.47567,-1.22978 0.76341,-1.82063c0.25867,-0.53116 0.98191,-1.76437 0.98191,-1.76437z" data-paper-data="{&quot;index&quot;:null}" fill="#8b8b8b" stroke="#000000" stroke-width="0" stroke-linecap="round"/><path d="M248.26551,97.66424c0.28774,0.59085 0.76341,1.82063 0.76341,1.82063l-4.70797,0.33044l2.96265,-3.91544c0,0 0.72323,1.2332 0.9819,1.76436z" data-paper-data="{&quot;index&quot;:null}" fill="#8b8b8b" stroke="#000000" stroke-width="0" stroke-linecap="round"/><path d="M219.7649,133.85897c0.55885,4.49744 -1.06507,8.41611 -1.06507,8.41611c0,0 -1.61248,-3.75835 -2.20807,-6.72887c-0.59559,-2.97052 -0.29932,-3.97463 -0.35693,-6.06418c-0.05761,-2.08955 -0.17235,-3.99303 -0.17235,-3.99303c0,0 3.24356,3.87253 3.80242,8.36997z" fill="#990f0f" stroke="none" stroke-width="0" stroke-linecap="butt"/><path d="M264.99523,125.48902c0,0 -0.44768,1.90348 -0.50529,3.99303c-0.05761,2.08955 -0.09427,3.09366 -0.68986,6.06418c-0.59559,2.97052 -1.87514,6.72887 -1.87514,6.72887c0,0 -1.62392,-3.91867 -1.06507,-8.41611c0.55885,-4.49744 4.13536,-8.36997 4.13536,-8.36997z" data-paper-data="{&quot;index&quot;:null}" fill="#990f0f" stroke="none" stroke-width="0" stroke-linecap="butt"/><path d="M233.93752,231.01141c0,0 1.29623,-0.23781 2.64727,-0.88348c1.55927,-0.74518 3.57173,-1.91255 5.00659,-1.91255c1.42927,0 3.37085,1.1997 4.83803,1.95706c1.21772,0.62859 2.25135,0.83897 2.25135,0.83897c0,0 -1.21845,0.21055 -2.55901,0.04333c-1.58773,-0.19805 -3.54693,-0.77913 -4.53038,-0.77913c-0.99391,0 -3.05173,0.57781 -4.74068,0.77463c-1.44977,0.16895 -2.91318,-0.03883 -2.91318,-0.03883z" fill="#000000" stroke="none" stroke-width="0" stroke-linecap="butt"/><path d="M199.362,268.72794v-10h12.6v10z" fill="#2b2b2b" stroke="none" stroke-width="0" stroke-linecap="butt"/><path d="M293.57751,52.53711c0,0 -1.03334,1.2 -1.4,1.8c-0.36667,0.6 -0.8,1.8 -0.8,1.8l1.8,-0.5c0,0 0.18017,-0.6213 0.23183,-1.0217c0.07369,-0.57106 0.16817,-2.0783 0.16817,-2.0783z" fill="#212121" stroke="#000000" stroke-width="0" stroke-linecap="round"/></g></g></svg>