<svg version="1.1" xmlns="http://www.w3.org/2000/svg" xmlns:xlink="http://www.w3.org/1999/xlink" width="275.32619" height="434.37788" viewBox="0,0,275.32619,434.37788"><g transform="translate(-109.14311,125.99581)"><g data-paper-data="{&quot;isPaintingLayer&quot;:true}" fill-rule="nonzero" stroke="none" stroke-linecap="butt" stroke-linejoin="miter" stroke-miterlimit="10" stroke-dasharray="" stroke-dashoffset="0" style="mix-blend-mode: normal"><path d="M291.85548,67.22031c-1.54061,6.51683 -5.94838,11.05299 -9.84504,10.1318c-3.89666,-0.92119 -5.80662,-6.95089 -4.26601,-13.46771c1.54061,-6.51683 5.94838,-11.05299 9.84504,-10.1318c3.89666,0.92119 5.80662,6.95089 4.26601,13.46771z" fill="#990f0f" stroke-width="0"/><path d="M233.27887,243.10542c-0.22719,6.83075 -4.49092,12.23247 -9.5233,12.06509c-5.03238,-0.16738 -8.92776,-5.84048 -8.70056,-12.67123c0.22719,-6.83075 4.49092,-12.23247 9.5233,-12.06509c5.03238,0.16738 8.92776,5.84048 8.70056,12.67123z" fill="#990f0f" stroke-width="0"/><path d="M213.57239,308.38205c0,0 5.03138,-34.85736 5.87617,-60.95168c0.23635,-7.30034 2.67032,-22.10604 2.16591,-39.95313c-0.88108,-31.17402 -5.5997,-71.62754 -9.88075,-97.57046c-4.93218,-29.88881 -10.53334,-35.91825 -21.22842,-56.98438c-10.69508,-21.06613 -34.12232,-49.08554 -34.12232,-49.08554l31.64426,17.58729c0,0 9.89593,22.03669 15.93368,29.43911c5.02727,6.16354 17.81975,11.94331 17.81975,11.94331c0,0 5.53579,-29.15783 7.01738,-41.79478c1.17806,-10.04804 1.17216,-28.05634 1.17216,-28.05634l14.17077,-7.34963c0,0 -1.5433,15.9496 1.73648,31.97143c4.51627,22.06215 14.59318,46.05354 17.96531,44.96232c14.33751,-4.63961 23.67368,-35.58202 30.70422,-39.79078c4.97683,-2.97932 7.79273,-33.35136 7.79273,-33.35136l11.48265,-2.77947c0,0 4.74255,19.37504 -1.39794,35.27666c-5.89874,15.27555 -22.61236,26.65107 -26.26309,47.82853c-1.75609,10.18685 -4.75872,20.78688 -6.04069,31.55392c-5.49,46.10935 -8.55287,95.28142 -8.11369,128.18214c0.13407,10.04353 2.86152,18.57076 3.07069,25.03168c0.79683,24.61251 4.74472,53.89118 4.74472,53.89118z" fill="#000000" stroke-width="NaN"/><path d="M226.11447,275.97724c0,0 0.76549,-35.56695 -1.02326,-58.87572c-1.59679,-20.80731 -4.98806,-56.86444 -5.09977,-77.17869c-0.07732,-14.06134 3.23974,-14.06892 2.31245,-23.03528c-0.52477,-5.07424 -5.54679,-3.80909 -6.07017,-6.98077c-4.93218,-29.88881 -15.03333,-35.41825 -25.72842,-56.48438c-3.81659,-7.51754 -14.67067,-23.61972 -14.67067,-23.61972l11.19261,6.62147c0,0 8.39593,10.03669 14.43368,17.43912c5.02727,6.16354 20.31975,9.44331 20.31975,9.44331l2.28862,-12.43295c0,0 7.80186,6.51461 11.83465,5.22991c4.21662,-1.34326 12.93816,-13.12163 12.93816,-13.12163c0,0 2.69881,8.93311 4.54013,12.79229c2.72587,5.71307 9.64308,8.19169 10.96055,7.76536c14.33751,-4.6396 23.17368,-36.08202 30.20422,-40.29078c1.44094,-0.8626 3.76349,-8.07463 3.76349,-8.07463c0,0 9.9701,5.45494 7.84451,10.17659c-7.23874,16.07974 -21.61719,26.68637 -24.49365,43.37238c-1.75608,10.18685 -3.75872,22.78689 -5.0407,33.55392c-2.59733,21.81442 -15.27053,40.70244 -17.84686,61.72263c-1.20192,9.80643 6.00719,12.34157 7.83531,21.96727c2.53606,13.35324 0.2634,33.41854 0.39787,43.49224c0.2409,18.04618 -20.95682,38.12848 -20.95682,38.12848c0,0 -10.19321,-4.28619 -13.51809,-2.8611c-3.08158,1.32081 -6.41761,11.25069 -6.41761,11.25069z" fill="#0c0c0c" stroke-width="NaN"/><path d="M283.13459,21.10822c-2.80975,1.87586 -8.66865,7.18779 -13.00324,6.09937c-2.11654,-0.53147 -0.67496,-3.65586 -2.05624,-5.03786c-0.77198,-0.77238 -1.85754,-1.32458 -2.66039,-2.07325c-0.63091,0.46375 -1.26505,0.92479 -1.90349,1.38211c-5.08345,3.64131 -10.58346,6.9544 -15.07437,11.10726c-1.73241,1.602 -2.49115,3.7467 -4.0292,5.46968c-0.84158,0.94278 -2.20699,1.53136 -3.07879,2.4566c-2.17881,2.31237 -1.50172,3.67128 -4.384,5.79256c-0.05218,0.0384 -0.10484,0.0763 -0.15797,0.11373l0.01494,0.01188l-2.87935,2.29051c-0.39079,0.31088 -0.93067,0.50316 -1.527,0.50316c-1.19266,0 -2.15951,-0.76912 -2.15951,-1.71788v-1.83097c-4.1602,-3.82199 -6.52202,-9.28521 -9.35788,-13.79703c-0.9557,-1.52051 -0.82923,-3.69002 -2.575,-4.67048c-1.26203,-0.70879 -3.0785,0.2566 -4.62337,0.25656c-3.81977,-0.00008 -5.94132,0.12163 -9.67218,1.11469c-3.8139,0.15993 -7.55309,1.20848 -11.17369,2.21436c-1.25669,0.34914 -5.47716,2.47347 -6.50793,2.39721c-8.44412,-0.6247 -2.76143,-3.72919 -4.87447,-6.78674c-0.57716,-0.83515 -1.90772,-1.18679 -2.63611,-1.94345c-2.9528,-3.06739 -5.46888,-5.85182 -10.39129,-7.37706c-2.37609,-0.73624 -7.65445,0.47606 -9.36459,1.86106c-0.85905,0.69572 -0.72894,2.11054 -1.83136,2.5371c-4.05021,1.56714 -5.84384,-0.17524 -7.75544,-2.44726c-0.8428,-1.0017 -1.36299,-2.15315 -2.04448,-3.22972c-3.1546,-5.01503 -8.0672,-12.39589 -14.99596,-14.75472c-1.68468,-0.57353 -3.3314,0.95157 -4.63675,1.17301c-2.46665,0.41845 -6.54522,-0.01656 -8.09184,-1.91403c-2.27892,-2.79591 0.45183,-3.68832 1.17492,-5.87884c0.80903,-2.45088 -0.89716,-3.92431 -1.43967,-6.08214c-0.28234,-1.12301 0.19994,-2.3016 0,-3.43576c-0.42172,-2.39212 -1.94055,-2.24587 -3.48699,-1.40481l-1.09686,1.74509c-0.34627,0.58107 -1.09036,0.98291 -1.95245,0.98291c-1.19266,0 -2.15951,-0.76912 -2.15951,-1.71788v-1.9889c-2.96108,-4.82885 -1.06246,-10.76833 -0.22906,-15.9375c1.10935,-6.88071 2.25032,-13.84907 4.70896,-20.52594c1.10578,-3.00294 3.1821,-5.83286 4.19711,-8.82788c1.19438,-3.5243 -3.41673,-2.42748 -4.24717,-4.85816c-0.4177,-1.22259 1.03483,-2.39643 1.55224,-3.59464c2.44166,-3.96512 1.85702,-8.13462 6.43213,-10.94c3.61615,-2.21736 5.72132,-0.65552 9.41464,-1.42543c2.25434,-0.46994 4.48374,-1.11978 6.49804,-2.05211c2.04027,-0.94435 4.97173,-4.46005 4.79849,-6.39392c-0.22696,-2.53361 -4.37149,-1.6095 -2.7964,-5.27455c0.54715,-1.27315 2.80519,-1.51006 4.11758,-2.35883c5.59511,-3.61856 13.57969,-9.00443 20.9738,-9.16022c3.90074,-0.01282 7.48246,-0.92141 11.34633,-1.13941c1.22163,-0.06892 2.52795,0.47524 3.67073,0.12491c3.74397,-1.14774 5.66647,-5.88237 7.53292,-8.34317c0.82454,-1.0871 1.14138,-2.83936 2.6883,-3.15197c3.75625,-0.75908 4.60816,0.61934 5.43149,2.15058c3.42039,-3.16981 6.71159,-6.86228 12.68057,-6.81542c1.34959,0.01059 2.47151,0.86399 3.69202,1.32229c5.81379,2.18308 13.36252,5.73916 14.11387,11.35932c2.47123,-2.6957 2.75226,-6.35733 7.12873,-7.97416c3.5212,-1.30086 7.5226,1.1727 10.43021,2.3411c3.26349,1.31141 5.13201,3.64607 8.28103,4.91779c1.26706,0.5117 2.72297,0.68454 3.98576,1.20287c2.00718,0.82387 5.91188,3.76379 8.36254,4.00525c1.45713,0.14357 2.14072,-2.08342 2.3875,-2.48614c1.46104,-2.38433 0.16813,-7.66287 4.12797,-8.87823c1.2334,-0.37855 6.80684,2.22219 7.96799,2.72382c5.32006,3.95825 11.93423,6.23548 17.23093,10.25361c0.6472,0.49097 1.37739,0.91154 2.003,1.41992c0.61838,0.5025 0.84445,1.7014 1.72018,1.60558c0.78122,-0.08548 -0.07271,-1.3875 0.46695,-1.8449c2.32368,-1.9695 8.89017,-3.87675 12.07863,-4.9028c1.47958,-0.47613 3.04064,-1.69899 4.52801,-1.23846c4.4691,1.38376 2.26321,3.64678 2.85852,5.81605c0.52852,1.92589 2.5567,2.45875 3.96917,3.97124c2.63134,2.81767 4.82907,6.34018 7.31426,9.30423c1.34205,3.20978 4.56347,0.96209 7.71378,0.33558c0.93113,-0.18518 1.93818,0.14964 2.87935,0c1.40186,-0.22288 2.72283,-1.50865 4.0584,-1.10305c4.14957,1.26019 3.70294,6.88421 4.29819,9.2518c0.98186,3.90532 3.33248,7.55398 4.3489,11.57204c0.38394,1.51776 0.19083,4.45278 1.88304,5.68537c1.07256,0.78124 2.67977,-0.89965 4.02816,-1.33295c4.43508,-1.42521 7.31122,-2.31355 12.1126,-2.35937c1.46878,0.16772 3.35942,-0.33333 4.40635,0.50316c0.73731,0.5891 0.70951,5.2595 0.55359,6.23761c-0.54146,3.39655 -2.29174,6.69996 -2.81661,10.07529c-0.61642,3.96407 0.01618,8.38062 0.01618,12.38788c0,2.72003 0.13327,3.63262 1.21169,6.10326c0.19753,0.45253 -0.38023,1.27756 0.19105,1.42904c0.57128,0.15148 0.67738,-0.863 1.23069,-1.05205c1.58006,-0.53984 3.48096,-1.73974 4.98043,-1.07005c1.40279,0.62651 0.80921,2.48354 1.02419,3.75182c0.73681,4.34689 -0.80677,7.83564 -2.58623,11.83687c-3.15483,6.47054 -5.8876,12.86992 -11.06782,18.48763c-2.05074,2.22394 -6.02903,5.74902 -10.10057,5.75096c-0.78034,0.00037 -5.78969,-2.15333 -6.79718,-2.47691c-1.44429,-0.46387 -3.14518,-0.49885 -4.41586,-1.21541c-0.7982,-0.45012 -0.56175,-1.64048 -1.38791,-2.05746c-0.50454,-0.25465 0.25242,0.95712 0.12939,1.42226c-0.59312,2.2424 -1.61246,3.70583 -2.87835,5.67686c-3.19925,4.98132 -9.45178,9.08618 -15.239,12.16163c-1.45347,0.57991 -6.65843,2.85532 -7.97793,2.26601c-1.40279,-0.62651 -0.80921,-2.48354 -1.02419,-3.75182c-0.23442,-1.38301 0.50333,-2.83656 0.05777,-4.18632c-0.27254,-0.82563 -1.19965,-1.45851 -1.43967,-2.29051c-0.16819,-0.58299 0.58427,-1.24059 0.26475,-1.78205c-0.40829,-0.69189 -2.10826,-1.12856 -2.78638,-0.58708c-0.65505,0.52306 -0.37818,1.54477 -1.05532,2.04972c-1.5653,1.16724 -8.39293,3.09081 -9.98073,2.4636c-1.40834,-0.55632 -0.71039,-2.44209 -0.89682,-3.68412c-0.12871,-0.85748 -0.20107,-1.60372 -0.27525,-2.29073c-7.07595,5.46486 -14.12799,10.92872 -21.68915,15.97672z" fill="#740c0c" stroke-width="0.5"/><path d="M224.00956,110.14315c0.66748,7.49522 -3.36241,13.97836 -9.00102,14.4805c-5.63861,0.50214 -10.7507,-5.16687 -11.41818,-12.66209c-0.66748,-7.49522 3.36241,-13.97836 9.00102,-14.4805c5.63861,-0.50214 10.7507,5.16687 11.41818,12.66209z" fill="#990f0f" stroke-width="0"/><path d="M282.51785,158.26202c-0.58023,8.46908 -6.63267,14.90496 -13.5185,14.37495c-6.88583,-0.53001 -11.99752,-7.82521 -11.41728,-16.29429c0.58023,-8.46908 6.63267,-14.90496 13.5185,-14.37495c6.88583,0.53001 11.99752,7.82521 11.41728,16.29429z" fill="#990f0f" stroke-width="0"/><path d="M246.70873,206.90701c-0.38117,5.71726 -4.75064,10.08131 -9.75949,9.74737c-5.00885,-0.33394 -8.76032,-5.23941 -8.37915,-10.95667c0.38117,-5.71726 4.75064,-10.08131 9.75949,-9.74737c5.00885,0.33394 8.76032,5.23941 8.37915,10.95667z" fill="#990f0f" stroke-width="0"/><path d="M276.33534,260.92199c0.98851,8.85056 -4.74557,16.75529 -12.80745,17.65572c-8.06187,0.90043 -15.39866,-5.54443 -16.38717,-14.39499c-0.98851,-8.85056 4.74557,-16.75529 12.80745,-17.65572c8.06187,-0.90043 15.39866,5.54443 16.38717,14.39499z" fill="#990f0f" stroke-width="0"/><path d="M217.22532,111.44255c-0.18098,2.93995 -1.89172,5.22698 -3.82107,5.10821c-1.92934,-0.11876 -3.34667,-2.59834 -3.1657,-5.5383c0.18098,-2.93995 1.89172,-5.22698 3.82107,-5.10821c1.92934,0.11876 3.34667,2.59834 3.1657,5.5383z" fill="#000000" stroke-width="0"/><path d="M275.55357,157.30628c0.01938,4.47857 -2.34746,8.11948 -5.28653,8.1322c-2.93905,0.01272 -5.33736,-3.60755 -5.35675,-8.08612c-0.01938,-4.47857 2.34746,-8.11947 5.28653,-8.1322c2.93905,-0.01272 5.33736,3.60754 5.35675,8.08611z" fill="#000000" stroke-width="0"/><path d="M274.20322,262.66164c0.16264,7.41003 -5.2553,13.34486 -12.10131,13.25581c-6.84602,-0.08905 -12.52768,-6.16826 -12.69032,-13.57829c-0.16264,-7.41003 5.25529,-13.34485 12.10131,-13.2558c6.84602,0.08905 12.52768,6.16825 12.69032,13.57828z" fill="#000000" stroke-width="0"/><path d="M241.25731,205.93523c0.00972,2.39398 -1.4802,4.3163 -3.32784,4.29362c-1.84764,-0.02268 -3.35333,-1.98177 -3.36306,-4.37575c-0.00972,-2.39398 1.4802,-4.31629 3.32784,-4.29362c1.84764,0.02268 3.35333,1.98176 3.36306,4.37574z" fill="#000000" stroke-width="0"/></g></g></svg>