<svg version="1.1" xmlns="http://www.w3.org/2000/svg" xmlns:xlink="http://www.w3.org/1999/xlink" width="43.72956" height="43.72956" viewBox="0,0,43.72956,43.72956"><defs><linearGradient x1="240" y1="165.79063" x2="240" y2="194.20937" gradientUnits="userSpaceOnUse" id="color-1"><stop offset="0" stop-color="#000000"/><stop offset="1" stop-color="#250404"/></linearGradient><linearGradient x1="240" y1="172.76338" x2="240" y2="189.32219" gradientUnits="userSpaceOnUse" id="color-2"><stop offset="0" stop-color="#ffcdcd"/><stop offset="1" stop-color="#ff7d7d"/></linearGradient></defs><g transform="translate(-218.13522,-158.13522)"><g data-paper-data="{&quot;isPaintingLayer&quot;:true}" fill-rule="nonzero" stroke-linejoin="miter" stroke-miterlimit="10" stroke-dasharray="" stroke-dashoffset="0" style="mix-blend-mode: normal"><path d="M218.13522,180c0,-12.07558 9.7892,-21.86478 21.86478,-21.86478c12.07558,0 21.86478,9.7892 21.86478,21.86478c0,12.07558 -9.7892,21.86478 -21.86478,21.86478c-12.07558,0 -21.86478,-9.7892 -21.86478,-21.86478z" fill="#730c0c" stroke="none" stroke-width="0.5" stroke-linecap="butt"/><path d="M225.79063,180c0,-7.84762 6.36175,-14.20937 14.20937,-14.20937c7.84762,0 14.20937,6.36175 14.20937,14.20937c0,7.84762 -6.36175,14.20937 -14.20937,14.20937c-7.84762,0 -14.20937,-6.36175 -14.20937,-14.20937z" fill="url(#color-1)" stroke="none" stroke-width="0.5" stroke-linecap="butt"/><path d="M248.23772,179.78986c0,0 1.3446,4.87123 -3.7771,8.16126c-3.73639,2.40015 -8.01391,1.60269 -11.07918,-2.02819c-2.65356,-3.1432 -2.28306,-7.72916 0.74554,-10.88853c3.54567,-3.69877 8.86235,-1.76659 8.86235,-1.76659" fill="none" stroke="url(#color-2)" stroke-width="2" stroke-linecap="round"/><path d="M244.66783,170.6778c0,0 1.09997,0.76687 1.80158,2.78048c0.60007,1.72225 0.75269,3.39342 0.75269,3.39342c0,0 -1.0479,-0.64239 -2.85658,-0.87182c-2.28875,-0.29035 -3.51197,-0.13716 -3.51197,-0.13716z" fill="#ffcdcd" stroke="none" stroke-width="0" stroke-linecap="butt"/><path d="M244.51278,163.65168c0,-1.47608 1.19661,-2.67269 2.67269,-2.67269c1.47608,0 2.67268,1.19661 2.67268,2.67269c0,1.47608 -1.1966,2.67268 -2.67268,2.67268c-1.47608,0 -2.67269,-1.1966 -2.67269,-2.67268z" fill="#000000" stroke="none" stroke-width="0.5" stroke-linecap="butt"/><path d="M244.91953,196.21114c0,-1.47608 1.19661,-2.67269 2.67269,-2.67269c1.47608,0 2.67268,1.19661 2.67268,2.67269c0,1.47608 -1.1966,2.67268 -2.67268,2.67268c-1.47608,0 -2.67269,-1.1966 -2.67269,-2.67268z" fill="#d81616" stroke="none" stroke-width="0.5" stroke-linecap="butt"/><path d="M229.60872,163.62098c0,-1.47608 1.19661,-2.67269 2.67269,-2.67269c1.47608,0 2.67268,1.19661 2.67268,2.67269c0,1.47608 -1.1966,2.67268 -2.67268,2.67268c-1.47608,0 -2.67269,-1.1966 -2.67269,-2.67268z" fill="#d81616" stroke="none" stroke-width="0.5" stroke-linecap="butt"/><path d="M230.01548,196.18044c0,-1.47608 1.19661,-2.67269 2.67269,-2.67269c1.47608,0 2.67268,1.19661 2.67268,2.67269c0,1.47608 -1.1966,2.67268 -2.67268,2.67268c-1.47608,0 -2.67269,-1.1966 -2.67269,-2.67268z" fill="#d81616" stroke="none" stroke-width="0.5" stroke-linecap="butt"/><path d="M223.67178,175.24752c-1.4756,-0.03756 -2.64137,-1.26422 -2.60381,-2.73983c0.03756,-1.4756 1.26422,-2.64137 2.73983,-2.60381c1.4756,0.03756 2.64137,1.26422 2.60381,2.73982c-0.03756,1.4756 -1.26422,2.64137 -2.73982,2.60381z" fill="#d81616" stroke="none" stroke-width="0.5" stroke-linecap="butt"/><path d="M256.66892,175.63597c-1.4756,-0.03756 -2.64137,-1.26422 -2.60381,-2.73983c0.03756,-1.4756 1.26422,-2.64137 2.73983,-2.60381c1.4756,0.03756 2.64137,1.26422 2.60381,2.73982c-0.03756,1.4756 -1.26422,2.64137 -2.73982,2.60381z" fill="#000000" stroke="none" stroke-width="0.5" stroke-linecap="butt"/><path d="M223.4138,189.70766c-1.4756,-0.03756 -2.64137,-1.26422 -2.60381,-2.73983c0.03756,-1.4756 1.26422,-2.64137 2.73983,-2.60381c1.4756,0.03756 2.64137,1.26422 2.60381,2.73982c-0.03756,1.4756 -1.26422,2.64137 -2.73982,2.60381z" fill="#d81616" stroke="none" stroke-width="0.5" stroke-linecap="butt"/><path d="M256.19222,190.09612c-1.4756,-0.03756 -2.64137,-1.26422 -2.60381,-2.73983c0.03756,-1.4756 1.26422,-2.64137 2.73983,-2.60381c1.4756,0.03756 2.64137,1.26422 2.60381,2.73982c-0.03756,1.4756 -1.26422,2.64137 -2.73982,2.60381z" fill="#000000" stroke="none" stroke-width="0.5" stroke-linecap="butt"/><path d="M245.33158,162.83247c0,-0.85297 0.79019,-1.54444 1.76495,-1.54444c0.97475,0 1.76495,0.69147 1.76495,1.54444c0,0.85297 -0.7902,1.54443 -1.76495,1.54443c-0.97475,0 -1.76495,-0.69146 -1.76495,-1.54443z" fill="#330000" stroke="none" stroke-width="0.5" stroke-linecap="butt"/><path d="M254.90609,172.24113c0,-0.85297 0.79019,-1.54444 1.76495,-1.54444c0.97476,0 1.76495,0.69147 1.76495,1.54444c0,0.85297 -0.79019,1.54443 -1.76495,1.54443c-0.97475,0 -1.76495,-0.69146 -1.76495,-1.54443z" fill="#330000" stroke="none" stroke-width="0.5" stroke-linecap="butt"/><path d="M254.52303,186.72558c0,-0.85297 0.79019,-1.54444 1.76495,-1.54444c0.97476,0 1.76495,0.69147 1.76495,1.54444c0,0.85297 -0.7902,1.54443 -1.76495,1.54443c-0.97476,0 -1.76495,-0.69146 -1.76495,-1.54443z" fill="#330000" stroke="none" stroke-width="0.5" stroke-linecap="butt"/></g></g></svg>