<svg version="1.1" xmlns="http://www.w3.org/2000/svg" xmlns:xlink="http://www.w3.org/1999/xlink" width="34.17311" height="34.17311" viewBox="0,0,34.17311,34.17311"><g transform="translate(-222.91345,-162.91345)"><g data-paper-data="{&quot;isPaintingLayer&quot;:true}" stroke="none" stroke-miterlimit="10" stroke-dasharray="" stroke-dashoffset="0" style="mix-blend-mode: normal"><path d="M229.98311,162.91345h20.03379c3.9166,0 7.06966,3.15307 7.06966,7.06966v20.03379c0,3.91659 -3.15306,7.06966 -7.06966,7.06966h-20.03379c-3.91659,0 -7.06966,-3.15307 -7.06966,-7.06966v-20.03379c0,-3.91659 3.15307,-7.06966 7.06966,-7.06966z" fill="#760c0c" fill-rule="evenodd" stroke-width="4.43922" stroke-linecap="round" stroke-linejoin="round"/><g fill-rule="nonzero" stroke-width="0" stroke-linecap="butt" stroke-linejoin="miter"><path d="M225.15436,177.87913l7.99847,-11.22107l21.6928,15.46281l-7.99847,11.22107z" fill="#9b0f0f"/><path d="M229.37589,180.78414l5.58624,-7.83694l0.3351,0.23886l-5.58624,7.83694z" fill="#9b0f0f"/><path d="M235.78132,185.23591l5.58624,-7.83694l0.3351,0.23886l-5.58624,7.83694z" fill="#9b0f0f"/><path d="M242.33904,190.06483l5.58624,-7.83694l0.3351,0.23886l-5.58624,7.83694z" fill="#9b0f0f"/><path d="M232.51224,174.06305l3.96774,-5.56635l2.57654,1.83658l-3.96774,5.56635z" fill="#000000"/><path d="M238.90651,178.58442l3.96775,-5.56636l2.57654,1.83658l-3.96775,5.56636z" fill="#000000"/><path d="M245.55012,183.28352l3.96775,-5.56636l2.57654,1.83658l-3.96775,5.56636z" fill="#000000"/></g></g></g></svg>