<svg version="1.1" xmlns="http://www.w3.org/2000/svg" xmlns:xlink="http://www.w3.org/1999/xlink" width="110.6866" height="233.43666" viewBox="0,0,110.6866,233.43666"><defs><linearGradient x1="245.0987" y1="92.17679" x2="245.0987" y2="158.37834" gradientUnits="userSpaceOnUse" id="color-1"><stop offset="0" stop-color="#202020"/><stop offset="1" stop-color="#323232"/></linearGradient></defs><g transform="translate(-189.73917,-84.27132)"><g data-paper-data="{&quot;isPaintingLayer&quot;:true}" fill-rule="nonzero" stroke-linejoin="miter" stroke-miterlimit="10" stroke-dasharray="" stroke-dashoffset="0" style="mix-blend-mode: normal"><path d="M235.8509,317.70798v-146h19.66667v146z" fill="#2b2b2b" stroke="none" stroke-width="0" stroke-linecap="butt"/><path d="M216.10941,249.12043v-92h58v92z" fill="#2b2b2b" stroke="none" stroke-width="0" stroke-linecap="butt"/><path d="M222.47418,229.6648v-46.66666h45v46.66666z" fill="#0c0c0c" stroke="none" stroke-width="0" stroke-linecap="butt"/><path d="M204.18091,130.40146c0,0 -15.7288,28.82508 -12.16667,47.18186c3.71473,19.14319 28.41132,36.73169 53.15366,36.77577c24.91766,0.0444 49.88172,-17.59136 53.50787,-36.89678c3.12569,-16.641 -13.16666,-44.78231 -13.16666,-44.78231" fill="none" stroke="#740c0c" stroke-width="3.5" stroke-linecap="round"/><path d="M223.77608,266.97436v-18h43.33334v18z" fill="#2b2b2b" stroke="none" stroke-width="0" stroke-linecap="butt"/><path d="M204.18091,139.90146c0,0 -9.7288,14.82508 -6.16667,33.18186c3.64057,18.76102 21.43358,33.34503 45.67199,33.76172c25.40118,0.43668 46.29151,-14.19461 49.98954,-33.88273c3.12569,-16.641 -8.16666,-33.78231 -8.16666,-33.78231" fill="none" stroke="#740c0c" stroke-width="3.5" stroke-linecap="round"/><path d="M201.45835,166.69237v-82.42105h87v82.42105z" fill="#2b2b2b" stroke="none" stroke-width="0" stroke-linecap="butt"/><path d="M210.0987,158.37834v-66.20155h70v66.20155z" fill="url(#color-1)" stroke="none" stroke-width="0" stroke-linecap="butt"/><path d="M212.8487,155.87834v-61h64.5v61z" fill="#0c0c0c" stroke="none" stroke-width="0" stroke-linecap="butt"/><g stroke="none" stroke-width="0" stroke-linecap="butt"><path d="M261.43406,199.24454c2.99047,11.82501 -16.75,22.75 -16.75,22.75c0,0 -19.14136,-12.60728 -16.25,-24c2.98964,-11.77997 16.25,-3.25 16.25,-3.25c0,0 13.3904,-8.78465 16.75,4.5z" fill="#990f0f"/><path d="M244.45737,221.80822l0.61002,-11.74787l-2.74692,-3.74618l1.99405,-11.84524l0.33634,0.27583l0.43151,-0.22821l-2,11.76786l2.54359,3.63321l-0.68645,11.98583l-0.33111,0.08563z" fill="#740c0c"/><path d="M245.72814,203.47663c-0.12664,0.62025 -0.49265,1.06044 -0.8175,0.9832c-0.32485,-0.07725 -0.48554,-0.64268 -0.3589,-1.26293c0.12664,-0.62025 0.49265,-1.06044 0.8175,-0.9832c0.32485,0.07725 0.48554,0.64268 0.3589,1.26293z" fill="#740c0c"/><path d="M244.14435,211.35174c0.00461,0.63303 -0.26226,1.1395 -0.59608,1.13123c-0.33381,-0.00827 -0.60815,-0.52815 -0.61276,-1.16118c-0.00461,-0.63303 0.26226,-1.1395 0.59608,-1.13123c0.33381,0.00827 0.60815,0.52815 0.61276,1.16118z" fill="#740c0c"/><path d="M242.32376,196.55962c-0.16446,1.98141 -2.93024,3.36917 -6.17756,3.09964c-3.24731,-0.26953 -5.74646,-2.09427 -5.58201,-4.07568c0.16446,-1.98141 2.93024,-3.36917 6.17756,-3.09964c3.24731,0.26953 5.74646,2.09427 5.58201,4.07568z" fill="#b31212"/><path d="M257.82132,195.45298c0.16862,1.86009 -2.16597,3.59201 -5.21445,3.86836c-3.04848,0.27635 -5.65645,-1.00753 -5.82507,-2.86761c-0.16862,-1.86009 2.16597,-3.59202 5.21445,-3.86836c3.04848,-0.27635 5.65645,1.00753 5.82507,2.86762z" fill="#b31212"/></g></g></g></svg>