<svg version="1.1" xmlns="http://www.w3.org/2000/svg" xmlns:xlink="http://www.w3.org/1999/xlink" width="93.56936" height="252.89609" viewBox="0,0,93.56936,252.89609"><g transform="translate(-192.30455,-52.60376)"><g data-paper-data="{&quot;isPaintingLayer&quot;:true}" fill-rule="nonzero" stroke-linejoin="miter" stroke-miterlimit="10" stroke-dasharray="" stroke-dashoffset="0" style="mix-blend-mode: normal"><path d="M202.36149,93.55351c0.2238,-1.52366 10.77261,-22.6515 15.04515,-31.34303c0.79818,-1.62373 1.66994,-3.07152 1.66994,-3.07152c0,0 -1.66977,-0.54008 -3.18814,-1.60407c-1.56339,-1.09553 -4.00756,-4.93113 -4.00756,-4.93113c0,0 7.02268,1.39068 12.35413,1.64482c5.39256,0.25705 10.7094,-1.05129 13.95138,-1.22975c44.63633,-0.92186 39.01489,35.66771 41.53088,42.57103c3.44981,9.46549 6.15664,21.59328 6.15664,21.59328c0,0 -2.42802,-3.51099 -4.0797,-5.68481c-1.65168,-2.17382 -3.80143,-4.68777 -3.80143,-4.68777c0,0 2.20652,17.14019 2.02521,21.3103c-0.08215,1.88949 2.16507,6.73619 2.16507,6.73619c0,0 -1.45782,-0.24189 -2.55996,-0.83464c-1.14213,-0.61426 -2.02553,-1.47413 -2.02553,-1.47413c0,0 -0.54305,2.41205 -1.08273,3.52293c-0.13019,0.26799 -0.69425,0.80388 -1.28529,1.76182c-1.85903,3.01305 -5.11259,8.64523 -6.56146,13.08753c-0.29315,0.89882 -0.15824,2.07991 -0.45996,2.9674c-3.65841,10.76091 -8.92964,22.7426 -28.39896,23.26054c-21.07502,0.56065 -26.41272,-16.19151 -31.36916,-30.22119c-2.72545,-7.71466 -3.23946,-20.93043 -3.23946,-20.93043c0,0 -2.59205,3.53097 -5.71704,5.42109c-3.12499,1.69013 -6.94665,2.26733 -6.94665,2.26733c0,0 3.69299,-4.0264 5.58396,-6.72647c1.89097,-2.70007 2.64658,-5.02574 2.64658,-5.02574c0,0 -2.37689,2.01823 -4.23277,2.84518c-1.85588,0.82695 -4.23008,0.83662 -4.23008,0.83662c0,0 5.17492,-7.40349 7.23074,-13.29318c1.90618,-5.46102 1.50304,-12.37907 1.60644,-15.06901c0.10374,-2.69864 1.12396,-3.04698 1.21976,-3.69918z" fill="#000000" stroke="none" stroke-width="1.5" stroke-linecap="butt"/><path d="M201.0305,304.39158c0,0 -0.63536,-94.38387 -0.79335,-118.01201c-0.05451,-8.15261 8.18688,-36.76129 40.20201,-36.9211c31.60235,-0.15775 39.85672,29.48704 39.84884,36.89673c-0.07659,46.24274 0.65429,117.98648 0.65429,117.98648l-10.49667,0.09614l-0.15882,-114.84311c0,0 0.07549,-3.0993 -2.81625,-3.15415c-3.43441,-0.06514 -2.94538,3.11562 -2.94538,3.11562l0.20548,114.86995l-48.21366,0.07222l-0.30539,-115.23309c0,0 0.27949,-2.919 -2.8856,-2.93443c-3.11083,-0.01515 -2.81569,2.90899 -2.81569,2.90899l0.35311,115.0668z" fill="#ffffff" stroke="#000000" stroke-width="2" stroke-linecap="butt"/><path d="M212.45112,305.48937c0,0 0.00222,-7.4073 0.53259,-16.3988c0.43117,-7.3096 1.3838,-15.5814 1.57713,-22.45548c0.19293,-6.8598 0.79995,-31.35754 0.7406,-36.09886c-0.05935,-4.74132 -4.73716,-11.46548 -4.70643,-23.20976c0.03071,-11.74427 4.65982,-31.36082 4.74517,-35.68139c0.08535,-4.32074 0.50087,-15.01709 0.50087,-15.01709c0,0 2.71858,-2.35297 4.73476,-3.74807c2.01618,-1.3951 5.25979,-2.80371 5.25979,-2.80371c0,0 2.10999,26.25 14.2759,26.25c12.16591,0 14.59725,-26.25 14.59725,-26.25c0,0 3.9792,1.51959 6.27055,2.94655c2.29135,1.42695 4.83451,3.60523 4.83451,3.60523c0,0 -0.38092,9.81054 0.11441,15.57634c0.49533,5.7658 4.91501,21.29579 4.5354,36.1228c-0.37961,14.82701 -4.01521,18.9349 -4.0323,22.72934c-0.01706,3.78556 0.61442,26.79291 0.91832,36.57505c0.20796,6.69409 1.17401,14.93255 1.61768,22.01293c0.55275,8.82124 0.57541,15.84492 0.57541,15.84492z" data-paper-data="{&quot;index&quot;:null}" fill="#0d0c0c" stroke="#000000" stroke-width="0" stroke-linecap="butt"/><path d="M239.20923,259.63829c0,-0.81895 0.66389,-1.48284 1.48284,-1.48284c0.81895,0 1.48284,0.66389 1.48284,1.48284c0,0.81895 -0.66389,1.48284 -1.48284,1.48284c-0.81895,0 -1.48284,-0.66389 -1.48284,-1.48284z" data-paper-data="{&quot;index&quot;:null}" fill="#000000" stroke="none" stroke-width="1.5" stroke-linecap="butt"/><path d="M241.47673,121.43944c10.22341,0.05075 23.82539,1.9386 23.82539,1.9386c0,0 -0.4096,6.13662 -2.20622,16.0397c-1.12121,6.18021 -4.16183,8.92466 -10.01942,14.66081c-5.85759,5.73616 -9.05378,9.25275 -13.01359,9.32173c-3.81077,0.06639 -8.93565,-5.1002 -13.93542,-10.38244c-5.32393,-5.62474 -8.87489,-8.47713 -9.71551,-15.13975c-0.75707,-6.00039 -1.12266,-14.74835 -1.12266,-14.74835c0,0 15.96402,-1.74105 26.18743,-1.6903z" fill="#ffffff" stroke="#000000" stroke-width="1.5" stroke-linecap="butt"/><path d="M260.78283,98.08135c0,0 1.52429,0.31807 4.2558,1.11029c2.49492,0.72361 4.44935,1.74403 4.44935,1.74403l0.1951,1.17035c0,0 -7.24963,-3.12997 -15.1158,-2.4706c-6.2896,0.52724 -9.96319,2.8124 -9.96319,2.8124l0.04575,-4.17683c0,0 3.12748,-1.70421 7.86366,-1.85557c4.90428,-0.15672 8.09084,0.59125 8.09084,0.59125z" data-paper-data="{&quot;index&quot;:null}" fill="#2b0404" stroke="none" stroke-width="1.5" stroke-linecap="butt"/><path d="M248.0188,140.06891c0.5704,0.21186 3.08357,1.39942 6.02385,2.59586c2.9637,1.20597 7.21362,2.29294 7.19412,2.4605c-0.02476,0.21265 -10.43477,0.22694 -13.67937,0.63224c-2.71902,0.33964 -6.68867,0.70564 -6.68867,0.70564c0,0 -7.10401,-1.16169 -13.27235,-2.44521c-4.94371,-1.02869 -10.39929,-1.66108 -10.40995,-1.75461c-0.01439,-0.12613 3.86835,-0.71071 6.82417,-1.39467c1.14585,-0.49661 5.43971,-1.48513 5.43971,-1.48513c0,0 4.95585,-0.27766 7.60826,0.579c2.84203,0.91791 2.83546,2.44556 3.0831,2.46906c0,0 1.18436,-1.74932 2.36886,-2.10461c1.18451,-0.35528 5.08219,-0.41633 5.50828,-0.25808z" fill="#ffffff" stroke="#000000" stroke-width="1.4" stroke-linecap="butt"/><path d="M229.3708,144.6225c5.09114,1.02674 11.91756,2.80736 11.91756,2.80736c0,0 5.78976,-1.55585 8.44678,-1.8344c2.05992,-0.21596 11.216,-0.70654 11.26026,-0.33377c0.04328,0.36447 -9.03119,12.90033 -21.14808,12.44714c-13.76954,-0.43578 -22.86459,-15.13559 -22.82675,-15.30472c0.03784,-0.16913 7.2591,1.19165 12.35024,2.2184z" fill="#ffffff" stroke="#000000" stroke-width="1.9" stroke-linecap="butt"/><path d="M240.34509,141.62881c-1.03376,0 -3.5381,-3.26042 -3.7867,-5.3637c-0.22243,-1.88186 1.31512,-3.82799 3.7867,-3.82799c2.47159,0 4.2021,0.49077 4.02999,4.18853c-0.14607,3.13818 -1.55841,5.00317 -4.02999,5.00317z" fill="#ffffff" stroke="#000000" stroke-width="1.15" stroke-linecap="butt"/><path d="M243.95292,118.66171c-0.19174,6.25113 -1.08147,27.7607 -1.08147,27.7607l-2.98167,0.00864c0,0 -0.80294,-4.17274 -1.12322,-9.49979c-0.43353,-7.21063 -0.4495,-16.29321 -0.76344,-19.63229" fill="#ffffff" stroke="#000000" stroke-width="1.3" stroke-linecap="round"/><path d="M214.4126,122.32493c0,0 -4.93211,-3.51705 -6.16417,-8.97502c-1.29636,-5.74284 -1.46118,-9.7328 0.48013,-9.99193c1.94131,-0.25915 2.70321,2.37692 3.73262,8.35569c1.0294,5.97877 1.95143,10.61127 1.95143,10.61127z" data-paper-data="{&quot;index&quot;:null}" fill="#ffffff" stroke="#000000" stroke-width="1" stroke-linecap="butt"/><path d="M214.20998,118.37737c0,0 -3.56385,-2.92338 -4.31816,-8.45061c-0.42079,-3.08327 2.15675,-2.28016 2.15675,-2.28016" fill="none" stroke="#000000" stroke-width="0.25" stroke-linecap="round"/><path d="M244.27969,111.7222c0.20353,-4.88817 4.45264,-8.85847 9.77048,-8.85847c5.31783,0 9.27453,3.96607 9.27453,8.85847c0,4.8924 -3.88585,9.07104 -9.69964,9.14188c-5.52997,0.06739 -9.55792,-4.03692 -9.34537,-9.14188z" fill="#000000" stroke="#000000" stroke-width="1.4" stroke-linecap="butt"/><path d="M248.88243,111.80775c0,-2.81845 2.2848,-5.10325 5.10325,-5.10325c2.81845,0 5.10325,2.2848 5.10325,5.10325c0,2.81845 -2.28479,5.10325 -5.10325,5.10325c-2.81845,0 -5.10325,-2.2848 -5.10325,-5.10325z" fill="#ffffff" stroke="none" stroke-width="1.5" stroke-linecap="butt"/><path d="M243.90204,111.32019c0,0 -0.24686,-9.4582 11.19813,-9.1032c9.71427,0.33347 9.54677,9.65229 9.54677,9.65229c0,0 -6.78933,-1.51303 -10.22124,-1.60387c-3.48232,-0.09217 -10.52366,1.05478 -10.52366,1.05478z" fill="#740c0c" stroke="#000000" stroke-width="1.15" stroke-linecap="butt"/><path d="M268.64567,111.71367c1.0294,-5.97877 1.7913,-8.61483 3.73262,-8.35569c1.94131,0.25914 1.77649,4.24909 0.48013,9.99193c-1.23206,5.45797 -6.16417,8.97502 -6.16417,8.97502c0,0 0.92203,-4.6325 1.95143,-10.61127z" data-paper-data="{&quot;index&quot;:null}" fill="#ffffff" stroke="#000000" stroke-width="1" stroke-linecap="butt"/><path d="M269.05818,107.64661c0,0 2.57754,-0.80312 2.15675,2.28016c-0.75431,5.52723 -4.31816,8.45061 -4.31816,8.45061" data-paper-data="{&quot;index&quot;:null}" fill="none" stroke="#000000" stroke-width="0.25" stroke-linecap="round"/><path d="M282.72213,265.10314c0,0 -25.53615,15.01115 -41.68823,21.16967c-16.15207,6.15852 -42.22782,11.08031 -42.22782,11.08031l0.16913,-48.5c0,0 26.57996,-2.52914 40.16334,-5.52509c13.98618,-3.08479 42.58064,-12.72491 42.58064,-12.72491c0,0 -0.10204,2.642 0.15716,6.0196c0.27832,3.62683 0.922,8.10181 1.00814,11.06466c0.16796,5.77736 -0.16234,17.41574 -0.16234,17.41574z" data-paper-data="{&quot;index&quot;:null}" fill="#990f0f" stroke="none" stroke-width="0" stroke-linecap="butt"/><path d="M240.42023,286.53307v-43.6l0.8,-0.09091v43.41818z" data-paper-data="{&quot;index&quot;:null}" fill="#720b0b" stroke="none" stroke-width="0" stroke-linecap="butt"/><path d="M215.34878,293.5688l1.57143,-46.71906l0.8,-0.00758l-1.42857,46.39438z" data-paper-data="{&quot;index&quot;:null}" fill="#720b0b" stroke="none" stroke-width="0" stroke-linecap="butt"/><path d="M281.72033,237.21505c0,0 -38.61621,-11.15078 -53.43592,-18.20384c-12.41947,-5.91072 -29.56058,-20.29617 -29.56058,-20.29617c0,0 -0.75601,-9.36766 -0.09965,-14.65749c0.65636,-5.28983 3.10859,-10.59251 3.10859,-10.59251c0,0 22.00591,9.7343 34.0929,13.87804c14.09774,4.83309 46.14544,9.7053 46.14544,9.7053c0,0 0.5961,14.22755 0.5568,19.94829c-0.05424,7.89676 -0.80755,20.21838 -0.80755,20.21838z" data-paper-data="{&quot;index&quot;:null}" fill="#a61111" stroke="none" stroke-width="0" stroke-linecap="butt"/><path d="M264.37847,275.13307c0,0 -0.52386,-14.86055 -0.98635,-21.57328c-0.4048,-5.87536 -1.63865,-16.52672 -1.63865,-16.52672l0.8,-0.29091c0,0 1.26385,11.05071 1.67636,17.01856c0.45777,6.62255 0.94864,20.95744 0.94864,20.95744z" data-paper-data="{&quot;index&quot;:null}" fill="#720b0b" stroke="none" stroke-width="0" stroke-linecap="butt"/><path d="M262.12298,231.25476c-2.71864,-0.86086 -8.42995,-2.72377 -8.42995,-2.72377c0,0 0.85287,-12.77092 1.12702,-18.94408c0.26213,-5.90249 0.48344,-17.31927 0.48344,-17.31927c0,0 5.38983,1.08419 7.9791,1.57146c4.39607,0.8273 11.70331,2.07983 11.70331,2.07983l-1.47717,38.85741c0,0 -7.14358,-2.17829 -11.38574,-3.52159z" data-paper-data="{&quot;index&quot;:null}" fill="#d21515" stroke="none" stroke-width="0" stroke-linecap="butt"/><path d="M281.72033,237.21505c0,0 -1.91485,-0.55293 -5.05539,-1.49042c-0.80867,-0.2414 -2.65805,-0.79781 -2.65805,-0.79781c0,0 0.25394,-13.37844 0.30845,-19.94436c0.05318,-6.40554 0.01475,-18.98192 0.01475,-18.98192c0,0 2.77787,0.27154 3.48594,0.38712c2.59024,0.42282 4.15509,0.66072 4.15509,0.66072c0,0 0.5961,14.22755 0.5568,19.94829c-0.05424,7.89676 -0.80755,20.21838 -0.80755,20.21838z" data-paper-data="{&quot;index&quot;:null}" fill="#d21515" stroke="none" stroke-width="0" stroke-linecap="butt"/><path d="M239.49687,223.59958c-2.81878,-1.04349 -7.75432,-3.04479 -7.75432,-3.04479l2.82156,-33.65158c0,0 6.06828,1.96351 10.02658,2.95015c3.2162,0.80167 10.91971,2.30902 10.91971,2.30902l-2.01187,36.35267c0,0 -9.71018,-3.3268 -14.00165,-4.91547z" data-paper-data="{&quot;index&quot;:null}" fill="#d21515" stroke="none" stroke-width="0" stroke-linecap="butt"/><path d="M228.28444,219.01121c-3.01477,-1.4348 -6.30776,-3.36898 -9.56626,-5.47555c-1.60515,-1.0377 -4.75295,-3.19951 -4.75295,-3.19951c0,0 0.33278,-8.47638 0.59762,-13.19627c0.30656,-5.46329 1.13496,-17.68063 1.13496,-17.68063c0,0 6.86284,2.84471 10.3004,4.20464c2.85778,1.13056 8.09491,3.07166 8.09491,3.07166l-2.84662,33.60803c0,0 -2.05846,-0.90233 -2.96206,-1.33238z" data-paper-data="{&quot;index&quot;:null}" fill="#d21515" stroke="none" stroke-width="0" stroke-linecap="butt"/><path d="M206.21291,204.66298c-4.44816,-3.39592 -7.48905,-5.94794 -7.48905,-5.94794c0,0 -0.75601,-9.36766 -0.09965,-14.65749c0.65636,-5.28983 3.10859,-10.59251 3.10859,-10.59251c0,0 2.55531,1.13034 6.40269,2.78463c2.06339,0.88721 7.11019,3.02019 7.11019,3.02019l-1.76998,30.72357c0,0 -5.1098,-3.68677 -7.26279,-5.33045z" data-paper-data="{&quot;index&quot;:null}" fill="#d21515" stroke="none" stroke-width="0" stroke-linecap="butt"/><path d="M273.42017,234.73426c0,0 0.6,-14.37801 0.6,-21.13456c0,-6.22529 -0.6,-17.94163 -0.6,-17.94163l0.8,0.08409c0,0 0.6,12.28544 0.6,18.65755c0,6.69337 -0.6,20.58631 -0.6,20.58631z" data-paper-data="{&quot;index&quot;:null}" fill="#700b0b" stroke="none" stroke-width="0" stroke-linecap="butt"/><path d="M253.24166,228.43122c0,0 0.9064,-12.84946 1.15018,-19.03489c0.23182,-5.88202 0.27839,-17.21327 0.27839,-17.21327l0.8,0.24242c0,0 0.02983,10.47284 -0.17122,16.16084c-0.22485,6.36141 -1.11449,20.21393 -1.11449,20.21393z" data-paper-data="{&quot;index&quot;:null}" fill="#700b0b" stroke="none" stroke-width="0" stroke-linecap="butt"/><path d="M231.12259,220.10742l2.85715,-33.591l0.8,0.24242l-2.71428,33.86049z" data-paper-data="{&quot;index&quot;:null}" fill="#700b0b" stroke="none" stroke-width="0" stroke-linecap="butt"/><path d="M213.40831,209.55503c0,0 0.5068,-11.59025 1.00914,-16.85073c0.4424,-4.63271 1.848,-13.06885 1.848,-13.06885l0.8,0.24242c0,0 -1.44782,8.97089 -1.90086,13.76459c-0.49552,5.24326 -0.95628,16.46733 -0.95628,16.46733z" data-paper-data="{&quot;index&quot;:null}" fill="#700b0b" stroke="none" stroke-width="0" stroke-linecap="butt"/><path d="M218.71643,59.41702c0,0 6.09524,42.76573 25.25984,58.71478c17.36018,14.44738 32.07349,18.94595 32.07349,18.94595c0,0 -1.66523,5.36662 -3.25696,8.5717c-1.59173,3.20507 -4.10971,6.26164 -4.10971,6.26164c0,0 -24.09041,11.70064 -45.1258,-6.94738c-20.31043,-18.00534 -22.23324,-51.12296 -22.23324,-51.12296c0,0 1.61109,-10.27719 6.04044,-17.73121c4.19147,-7.05368 11.35194,-16.69251 11.35194,-16.69251z" fill="#b31212" stroke="none" stroke-width="0" stroke-linecap="butt"/><path d="M220.91362,142.30531l19.25231,-28.11303l0.42879,0.61465l-19.11186,27.97757z" fill="#800d0d" stroke="none" stroke-width="0" stroke-linecap="butt"/><path d="M207.87381,121.33704c0,0 7.99103,-9.06444 10.86489,-12.21944c3.1058,-3.40962 8.45208,-9.0378 10.68796,-11.38457c0.1441,0.26686 0.29998,0.52643 0.46694,0.77801c-2.09674,2.17889 -7.33605,7.6401 -10.42746,11.00842c-3.00412,3.27321 -11.3127,12.64207 -11.3127,12.64207z" fill="#800d0d" stroke="none" stroke-width="0" stroke-linecap="butt"/><path d="M201.69593,95.49215c0,0 8.17315,-6.91814 10.98453,-9.25205c2.88691,-2.3966 7.68501,-6.0413 10.20467,-7.93843c0.09253,0.24258 0.19424,0.48063 0.30469,0.71373c-2.39934,1.88034 -7.14254,5.61679 -10.03279,8.02128c-2.93072,2.43816 -11.58709,9.5498 -11.58709,9.5498z" fill="#740c0c" stroke="none" stroke-width="0" stroke-linecap="butt"/><path d="M240.13285,154.22026c0,0 6.35353,-9.73115 8.72039,-13.65194c2.70388,-4.47908 7.48532,-13.26233 7.48532,-13.26233l0.72611,0.40272c0,0 -4.6026,8.44185 -7.26191,12.8231c-2.31635,3.81622 -8.74628,13.63829 -8.74628,13.63829z" fill="#800d0d" stroke="none" stroke-width="0" stroke-linecap="butt"/><path d="M259.59938,154.70816c0,0 4.13786,-6.28441 5.89527,-9.75386c1.74217,-3.43938 4.60388,-10.27343 4.60388,-10.27343l0.67381,0.43946c0,0 -2.7656,6.61819 -4.4564,9.94304c-1.70155,3.34597 -5.72086,9.36979 -5.72086,9.36979z" fill="#800d0d" stroke="none" stroke-width="0" stroke-linecap="butt"/><path d="M224.42645,81.81449l-9.29481,7.4906l-2.4587,-7.77287l9.67867,-7.89193z" fill="#340606" stroke="#000000" stroke-width="0" stroke-linecap="round"/><path d="M231.86704,101.24437l-8.41593,8.45998l-3.51269,-6.85562l8.74028,-8.91077z" fill="#340606" stroke="#000000" stroke-width="0" stroke-linecap="round"/><path d="M242.87313,116.33057l-6.58684,9.95051l-4.85772,-4.53185l6.80535,-10.20654z" fill="#340606" stroke="#000000" stroke-width="0" stroke-linecap="round"/><path d="M259.18372,128.77165l-5.01552,10.10607l-5.51848,-2.87936l5.19443,-10.79118z" fill="#340606" stroke="#000000" stroke-width="0" stroke-linecap="round"/><path d="M273.7831,135.74684l-4.4884,9.11537l-5.73441,-1.84315l4.65491,-9.80789z" fill="#340606" stroke="#000000" stroke-width="0" stroke-linecap="round"/><path d="M229.5498,199.70553l1.70817,-14.21974l6.63441,1.92374l-1.70817,13.96974z" fill="#340606" stroke="none" stroke-width="0" stroke-linecap="butt"/><path d="M211.71645,191.53887l1.70817,-13.46974l6.63441,2.42374l-1.70817,13.71974z" fill="#340606" stroke="none" stroke-width="0" stroke-linecap="butt"/><path d="M251.29378,205.64325l0.4059,-14.31622l6.78205,1.31146l-0.4059,13.81622z" fill="#340606" stroke="none" stroke-width="0" stroke-linecap="butt"/><path d="M270.87703,208.72657l0.4059,-13.52793l6.78205,1.30535l-0.4059,12.20471z" data-paper-data="{&quot;index&quot;:null}" fill="#340606" stroke="none" stroke-width="0" stroke-linecap="butt"/><path d="M213.42444,263.18078v-16.44485l7.75,-0.80515v17.17647z" fill="#340606" stroke="none" stroke-width="0" stroke-linecap="butt"/><path d="M236.92444,259.68079v-16.63971l7.75,-1.36029v16.37132z" fill="#340606" stroke="none" stroke-width="0" stroke-linecap="butt"/><path d="M259.9244,253.18079v-16.14286l7.75,-2.35714v15.68254z" fill="#340606" stroke="none" stroke-width="0" stroke-linecap="butt"/><path d="M268.82966,300.42165v-16.625h13.5v16.625z" fill="#990f0f" stroke="none" stroke-width="0" stroke-linecap="butt"/><path d="M268.82966,300.29665v-8.4962l3.27102,-4.36242l3.41351,5.76885l3.57822,-4.10137l3.23725,4.98238v6.20876z" fill="#740c0c" stroke="none" stroke-width="0" stroke-linecap="butt"/></g></g></svg>