<svg version="1.1" xmlns="http://www.w3.org/2000/svg" xmlns:xlink="http://www.w3.org/1999/xlink" width="34.17311" height="34.17311" viewBox="0,0,34.17311,34.17311"><g transform="translate(-222.91348,-162.9135)"><g data-paper-data="{&quot;isPaintingLayer&quot;:true}" stroke="none" stroke-miterlimit="10" stroke-dasharray="" stroke-dashoffset="0" style="mix-blend-mode: normal"><path d="M229.98315,162.9135h20.03378c3.9166,0 7.06966,3.15307 7.06966,7.06966v20.03379c0,3.91659 -3.15306,7.06966 -7.06966,7.06966h-20.03378c-3.91659,0 -7.06967,-3.15307 -7.06967,-7.06966v-20.03379c0,-3.91659 3.15308,-7.06966 7.06967,-7.06966z" fill-opacity="0.09677" fill="#191919" fill-rule="evenodd" stroke-width="4.43922" stroke-linecap="round" stroke-linejoin="round"/><g fill-rule="nonzero" stroke-linecap="butt" stroke-linejoin="miter"><path d="M229.8156,172.66402l5.00879,-7.08198l13.42446,9.49457l-5.00879,7.08198z" fill="#ffffff" stroke-width="0"/><path d="M243.46825,182.26705l5.00879,-7.08198l6.47671,4.58071l-5.00879,7.08198z" fill="#ffffff" stroke-width="0"/><path d="M249.87327,187.13046l-5.00879,7.08198l-13.42446,-9.49457l5.0088,-7.08198z" data-paper-data="{&quot;index&quot;:null}" fill="#ffffff" stroke-width="0"/><path d="M236.22061,177.52743l-5.00879,7.08198l-6.47671,-4.58071l5.00879,-7.08197z" data-paper-data="{&quot;index&quot;:null}" fill="#ffffff" stroke-width="0"/><path d="M245.17714,183.12945c1.5593,1.10283 3.0473,2.34154 4.60674,3.49546l0.25368,0.07676c0.02398,0.00665 0.04724,0.01748 0.06873,0.03267c0.08355,0.05909 0.11381,0.16546 0.08017,0.25714c0.08588,0.05092 0.16051,0.14457 0.18196,0.3134c0.05846,0.46004 -0.39478,0.55819 -0.39478,0.55819l-0.47779,-0.035c-0.06173,-0.04366 -0.12346,-0.08732 -0.18519,-0.13098c-0.03837,0.00939 -0.07821,0.00891 -0.1155,-0.00229l-0.29345,-0.08022c-0.10414,-0.02931 -0.21211,-0.06422 -0.32057,-0.10497c-0.18825,-0.00977 -0.38316,-0.05758 -0.5292,-0.09619l-0.26817,-0.18584c0,0 -0.00049,-0.00035 -0.00141,-0.00105c-0.01414,-0.01044 -0.02801,-0.02121 -0.04167,-0.0323c-0.07216,-0.01736 -0.11678,-0.0517 -0.12057,-0.11206c-0.07188,-0.07572 -0.13602,-0.16019 -0.19367,-0.2493c-0.03447,-0.01189 -0.0564,-0.0274 -0.0564,-0.0274l-0.15604,-0.16008l-0.11416,-0.33718c-0.02107,-0.05929 -0.01713,-0.12858 0.01402,-0.19054c-1.50871,-1.11338 -2.98671,-2.25915 -4.47499,-3.3956c-0.03901,-0.01944 -0.07758,-0.04773 -0.1144,-0.08732c-0.20682,-0.1578 -0.41386,-0.3154 -0.62123,-0.47268l-0.15849,-0.11209c-0.18525,-0.04844 -0.37011,-0.09806 -0.5547,-0.14852c-1.39335,-0.39432 -1.87042,-1.73603 -3.05856,-2.28133c-0.43594,-0.20007 -0.88289,-0.27115 -1.29402,-0.38601c-0.41234,0.12678 -1.01322,0.31417 -1.26882,0.24045c-1.32038,1.69882 -2.22194,3.72346 -3.74347,5.2214l0.00072,0.01389c0,0 -0.27915,0.3947 -0.64097,0.13879c-0.36183,-0.25591 -0.08267,-0.6506 -0.08267,-0.6506l0.12283,-0.15876c1.63607,-1.58477 2.55251,-3.8161 4.04027,-5.5874c0.05334,-0.22619 0.10131,-0.44668 0.02775,-0.62065c-0.2589,-0.61224 -1.82159,-1.71964 -2.38676,-1.94127c-0.2594,0.05832 -0.55608,0.17735 -0.75221,-0.13635c-0.19726,-0.31553 0.26094,-0.49187 -0.06949,-0.79869c-0.46115,-0.42819 -3.89804,-1.80632 -2.38774,-2.32848c0.21604,-0.16257 0.46686,-0.038 0.46686,-0.038c3.38514,1.68848 5.74849,4.89118 9.20211,6.50435c1.19751,0.84216 2.36504,1.71495 3.52329,2.5969c2.13244,-1.42138 3.08991,-4.88382 4.9699,-6.73465c0,0 0.34469,-0.33684 0.64474,-0.0085c0.30005,0.32834 -0.04465,0.66519 -0.04465,0.66519c-1.75219,1.69724 -2.63114,4.45377 -4.33082,6.18125c-0.0433,0.20022 -0.04399,0.39617 -0.00457,0.59144c0.3595,0.25426 0.74075,0.52389 1.05337,0.745zM243.43022,182.52727c0.00753,0.00577 0.01507,0.01154 0.02261,0.01731c-0.00073,-0.0114 -0.00135,-0.02279 -0.00188,-0.0342c-0.00689,0.00565 -0.0138,0.01127 -0.02072,0.01689zM248.07476,187.25825c0.01847,0.00535 0.03709,0.01062 0.05586,0.01585c-0.13481,-0.09644 -0.26928,-0.19322 -0.40346,-0.29033c0.04155,0.04668 0.08745,0.08846 0.13875,0.12302c0.00148,0.00097 0.00225,0.00151 0.00225,0.00151c0,0 0.00019,0.00014 0.00056,0.00042zM235.79046,179.28786l-0.0241,-0.01704c-0.00696,0.00804 -0.0139,0.01608 -0.02084,0.02413c0.0146,-0.00208 0.0296,-0.00445 0.04493,-0.00709zM235.54676,178.19906c-0.0077,-0.00606 -0.0154,-0.01214 -0.0231,-0.0182c-0.00195,0.01581 -0.00404,0.03202 -0.00627,0.04857c0.00977,-0.01014 0.01955,-0.02027 0.02937,-0.03037zM236.26008,178.74131c-0.03163,0.03138 -0.063,0.06297 -0.09411,0.09477c0.05894,-0.00742 0.13302,-0.00878 0.21809,-0.00492c-0.04143,-0.02979 -0.08275,-0.05975 -0.12398,-0.08985z" fill="#bfbfbf" stroke-width="0.5"/></g></g></g></svg>