<svg version="1.1" xmlns="http://www.w3.org/2000/svg" xmlns:xlink="http://www.w3.org/1999/xlink" width="103.50001" height="262.94586" viewBox="0,0,103.50001,262.94586"><defs><linearGradient x1="239.08347" y1="43.66668" x2="239.08347" y2="131.40726" gradientUnits="userSpaceOnUse" id="color-1"><stop offset="0" stop-color="#b31212"/><stop offset="1" stop-color="#740c0c"/></linearGradient><linearGradient x1="238.58105" y1="104.20068" x2="238.58105" y2="70.5526" gradientUnits="userSpaceOnUse" id="color-2"><stop offset="0" stop-color="#b31212"/><stop offset="1" stop-color="#740c0c"/></linearGradient></defs><g transform="translate(-188.33348,-43.66667)"><g data-paper-data="{&quot;isPaintingLayer&quot;:true}" fill-rule="nonzero" stroke-linejoin="miter" stroke-miterlimit="10" stroke-dasharray="" stroke-dashoffset="0" style="mix-blend-mode: normal"><g><path d="M195.36715,306.61253v-253.22501h91.18203v253.22501z" fill-opacity="0.01" fill="#000000" stroke="none" stroke-width="0" stroke-linecap="butt"/><path d="M200.36384,304.39159c0,0 -0.63536,-94.38387 -0.79335,-118.01201c-0.05451,-8.15261 9.18688,-36.76129 41.20201,-36.9211c31.60235,-0.15775 40.85672,29.48704 40.84884,36.89673c-0.07659,46.24274 0.65429,117.98648 0.65429,117.98648z" fill="#740c0c" stroke="#000000" stroke-width="0" stroke-linecap="butt"/><path d="M210.87776,305.40603c0,0 0.00359,-12.94369 0.55882,-27.59544c0.66751,-17.61444 1.90965,-37.69754 1.94118,-40.72684c0.06342,-6.0933 -12.10373,-61.2438 -12.10373,-61.2438l13.55633,-35.51374h47.57142l16.92604,35.085c0,0 -11.28031,55.23478 -11.62585,61.67281c-0.21569,4.01875 1.06509,23.84688 1.80984,41.29389c0.60705,14.22117 0.69016,27.02813 0.69016,27.02813z" fill="#990f0f" stroke="#000000" stroke-width="0" stroke-linecap="butt"/><path d="M270.40137,171.04799c0,0 -8.3838,10.09563 -12.97442,15.90055c-5.55698,7.02689 -17.76801,25.56611 -17.76801,25.56611c0,0 -12.82073,-19.66224 -18.11841,-26.77133c-4.08154,-5.47711 -11.23916,-14.54533 -11.23916,-14.54533z" fill="#740c0c" stroke="#000000" stroke-width="0" stroke-linecap="round"/><path d="M262.5227,147.92572l-22.93182,61.98484l-23.06818,-61.98484z" fill="#0c0c0c" stroke="#000000" stroke-width="0" stroke-linecap="round"/><path d="M251.77273,158.25906l-6.51252,13.82185l2.0666,17.09733l-7.89498,20.30809l-8.23993,-20.66137l2.8712,-16.7254l-5.29037,-13.84051z" fill="#000000" stroke="#000000" stroke-width="0" stroke-linecap="round"/><path d="M216.98753,147.89971l22.58334,62.25c0,0 -13.05999,-20.64438 -18.5196,-27.88798c-3.48482,-4.62353 -11.06374,-11.76202 -11.06374,-11.76202c0,0 3.55885,-6.36479 4.66432,-9.99705c1.21711,-3.99907 2.33568,-12.60295 2.33568,-12.60295z" fill="#b31212" stroke="#000000" stroke-width="0" stroke-linecap="round"/><path d="M270.73751,170.79971c0,0 -9.10067,8.11362 -13.36752,13.41622c-5.7892,7.19449 -17.80673,25.79741 -17.80673,25.79741l22.92425,-62.61363c0,0 1.07931,8.75132 2.60912,12.77255c1.36894,3.59835 5.64088,10.62745 5.64088,10.62745z" data-paper-data="{&quot;index&quot;:null}" fill="#b31212" stroke="#000000" stroke-width="0" stroke-linecap="round"/><path d="M229.02273,305.48127l10.86685,-40.05555l10.63315,40.05555z" data-paper-data="{&quot;index&quot;:null}" fill="#0c0c0c" stroke="#000000" stroke-width="0" stroke-linecap="round"/><path d="M239.8393,265.46653c0,0 3.79793,-15.80483 3.76191,-19.58095c-0.03875,-4.06125 -4.33333,-34.61905 -4.33333,-34.61905l0.66647,-0.47303c0,0 4.97456,31.36375 4.9303,35.14799c-0.04426,3.78424 -4.68603,20.56767 -4.68603,20.56767l-0.3393,-1.04262z" fill="#740c0c" stroke="#000000" stroke-width="0" stroke-linecap="round"/><path d="M239.8112,245.2223c0,-1.28997 0.48929,-2.33571 1.09286,-2.33571c0.60357,0 1.09285,1.04573 1.09285,2.33571c0,1.28997 -0.48929,2.33572 -1.09285,2.33572c-0.60357,0 -1.09286,-1.04574 -1.09286,-2.33572z" fill="#0c0c0c" stroke="none" stroke-width="0.5" stroke-linecap="butt"/><path d="M229.02272,305.48127l10.86685,-40.05555l10.63315,40.05555c0,0 -8.87344,-22.4 -10.47782,-22.4c-1.76178,0 -11.02218,22.4 -11.02218,22.4z" data-paper-data="{&quot;index&quot;:null}" fill="#000000" stroke="#000000" stroke-width="0" stroke-linecap="round"/></g><path d="M195.92705,96.29861c0,0 6.16329,-6.0955 6.29161,-6.98663c0.33654,-2.33721 -0.16776,-41.3511 35.96775,-42.79282c44.63633,-0.94041 39.01489,36.38519 41.53088,43.42738c3.44981,9.6559 6.15664,17.91036 6.15664,17.91036c0,0 -2.76715,-2.11373 -4.0797,-3.22587c-1.2242,-1.03728 -3.80143,-3.23809 -3.80143,-3.23809c0,0 3.09111,10.65152 1.31092,21.30178c-1.5623,9.75897 -7.29782,17.7305 -7.29782,17.7305l-1.15522,-2.41618c0,0 -1.02266,2.26239 -2.16005,3.43046c-1.1374,1.16807 -3.43873,2.99813 -3.43873,2.99813l-0.09205,-3.81282l-10.08831,12.08666l-15.92768,2.42293l-14.39313,-2.88691l-10.01305,-11.42058l-0.1162,2.73269c0,0 -3.89477,-3.38931 -6.18145,-9.99218c-2.72545,-7.86985 -3.23946,-12.60223 -3.23946,-12.60223c0,0 -2.33908,1.95485 -5.71704,2.85575c-4.23278,1.12888 -6.94665,0.35538 -6.94665,0.35538c0,0 3.60795,-2.79684 5.58396,-4.90975c1.76007,-1.88201 2.64658,-3.47624 2.64658,-3.47624c0,0 -2.10758,1.11651 -4.23277,1.66539c-2.21739,0.57272 -4.03008,0.5465 -4.03008,0.5465c0,0 4.97492,-5.18498 7.03074,-11.19314c1.94102,-5.67267 2.09972,-11.27859 2.09972,-11.27859c0,0 -1.36165,0.68103 -3.33013,0.81844c-1.24776,0.08711 -2.37785,-0.05034 -2.37785,-0.05034z" fill="#330505" stroke="none" stroke-width="1.5" stroke-linecap="butt"/><path d="" fill="#ffffff" stroke="none" stroke-width="1.5" stroke-linecap="butt"/><g stroke="none" stroke-linecap="butt"><path d="M214.09108,131.40723l-25.7576,-43.65551l25.7576,-44.08505h51.25855l26.48386,43.91412l-26.48386,43.82645z" fill="url(#color-1)" stroke-width="NaN"/><path d="M216.00718,127.79716l-23.58157,-40.32891l23.58157,-40.33251h47.26146l24.24647,40.20419l-24.24646,40.45724z" fill="#990f0f" stroke-width="NaN"/></g><g stroke-linecap="butt"><path d="M197.36123,87.2948c0.07371,-5.13281 5.02806,-9.37621 10.61177,-9.29449c5.58371,0.08174 9.38122,4.45765 9.30752,9.59047c-0.07371,5.13281 -4.28522,9.22754 -9.86894,9.14581c-5.58371,-0.08174 -10.12408,-4.30897 -10.05035,-9.44179z" fill="#000000" stroke="#000000" stroke-width="1.4"/><path d="M202.30622,83.58521c0.04156,-2.89428 2.39907,-5.20652 5.26564,-5.16456c2.8666,0.04196 5.15671,2.42225 5.11515,5.31652c-0.04156,2.89428 -2.39906,5.20652 -5.26565,5.16457c-2.8666,-0.04196 -5.1567,-2.42226 -5.11514,-5.31652z" fill="#ffffff" stroke="none" stroke-width="1.5"/></g><g stroke-linecap="butt"><path d="M262.34019,86.61358c0.07371,-5.13281 5.02806,-9.37621 10.61178,-9.29449c5.58371,0.08174 9.38121,4.45764 9.30751,9.59047c-0.07371,5.13281 -4.28522,9.22754 -9.86893,9.14581c-5.58371,-0.08174 -10.12408,-4.30896 -10.05036,-9.44178z" fill="#000000" stroke="#000000" stroke-width="1.4"/><path d="M267.11846,82.90398c0.04156,-2.89428 2.39907,-5.20652 5.26565,-5.16456c2.8666,0.04196 5.1567,2.42225 5.11514,5.31652c-0.04156,2.89428 -2.39906,5.20652 -5.26565,5.16457c-2.8666,-0.04196 -5.1567,-2.42226 -5.11514,-5.31652z" fill="#ffffff" stroke="none" stroke-width="1.5"/></g><g stroke-linecap="butt"><path d="M213.43893,115.69286c0.07371,-5.13281 5.02806,-9.37621 10.61178,-9.2945c5.5837,0.08174 9.38121,4.45765 9.30751,9.59047c-0.07371,5.13281 -4.28522,9.22754 -9.86893,9.14581c-5.58371,-0.08175 -10.12408,-4.30896 -10.05036,-9.44179z" fill="#000000" stroke="#000000" stroke-width="1.4"/><path d="M218.2172,111.98326c0.04156,-2.89428 2.39907,-5.20652 5.26564,-5.16456c2.8666,0.04196 5.15671,2.42225 5.11515,5.31652c-0.04156,2.89428 -2.39906,5.20653 -5.26565,5.16457c-2.8666,-0.04196 -5.1567,-2.42226 -5.11514,-5.31652z" fill="#ffffff" stroke="none" stroke-width="1.5"/></g><g stroke-linecap="butt"><path d="M245.59261,115.69772c0.07371,-5.13281 5.02806,-9.37621 10.61178,-9.29449c5.58371,0.08174 9.38121,4.45764 9.30751,9.59047c-0.07371,5.1328 -4.28522,9.22754 -9.86894,9.14581c-5.5837,-0.08175 -10.12407,-4.30896 -10.05035,-9.44179z" fill="#000000" stroke="#000000" stroke-width="1.4"/><path d="M250.37092,111.98813c0.04156,-2.89428 2.39908,-5.20652 5.26564,-5.16456c2.8666,0.04196 5.1567,2.42225 5.11514,5.31652c-0.04156,2.89428 -2.39906,5.20653 -5.26565,5.16457c-2.8666,-0.04196 -5.1567,-2.42226 -5.11514,-5.31652z" fill="#ffffff" stroke="none" stroke-width="1.5"/></g><g stroke-linecap="butt"><path d="M213.77384,58.54399c0.07371,-5.13281 5.02806,-9.37621 10.61178,-9.29449c5.5837,0.08175 9.38121,4.45765 9.30751,9.59047c-0.07371,5.13281 -4.28521,9.22754 -9.86893,9.14581c-5.58371,-0.08174 -10.12408,-4.30897 -10.05036,-9.44179z" fill="#000000" stroke="#000000" stroke-width="1.4"/><path d="M218.8855,55.16773c0.04156,-2.89428 2.39908,-5.20652 5.26565,-5.16456c2.8666,0.04196 5.15671,2.42225 5.11515,5.31652c-0.04156,2.89428 -2.39906,5.20652 -5.26565,5.16457c-2.8666,-0.04196 -5.1567,-2.42226 -5.11514,-5.31653z" fill="#ffffff" stroke="none" stroke-width="1.5"/></g><g stroke-linecap="butt"><path d="M245.92758,58.54885c0.07371,-5.13281 5.02806,-9.37621 10.61177,-9.2945c5.58371,0.08174 9.38121,4.45765 9.30751,9.59048c-0.07371,5.13281 -4.28522,9.22754 -9.86893,9.14581c-5.5837,-0.08174 -10.12408,-4.30897 -10.05035,-9.44179z" fill="#000000" stroke="#000000" stroke-width="1.4"/><path d="M250.37257,54.83925c0.04156,-2.89429 2.39908,-5.20652 5.26565,-5.16456c2.8666,0.04196 5.1567,2.42225 5.11514,5.31652c-0.04156,2.89428 -2.39906,5.20652 -5.26565,5.16457c-2.8666,-0.04196 -5.1567,-2.42226 -5.11514,-5.31652z" fill="#ffffff" stroke="none" stroke-width="1.5"/></g><g stroke="none" stroke-linecap="butt"><path d="M249.27045,70.5526l10.15644,16.80724l-10.15644,16.84085h-19.6574l-9.87792,-17.03423l9.87792,-16.61384z" fill="url(#color-2)" stroke-width="NaN"/><path d="M247.52303,73.76858l8.32479,13.77617l-8.32479,13.80372h-16.11232l-8.09651,-13.96223l8.09651,-13.61766z" fill="#000000" stroke-width="NaN"/></g><g stroke="none" stroke-linecap="butt"><path d="M258.5528,143.09264l-5.69302,15.859l-12.5628,2.4835l-12.41073,-2.68371l-6.36296,-16.70291l13.46703,-7.50212l5.44289,3.23902l7.08845,-2.52943l11.03113,7.83659z" fill="#000000" stroke-width="0"/><path d="M223.00093,142.37957l11.85025,-6.56697l5.91682,3.02068l0.72053,1.44257z" data-paper-data="{&quot;noHover&quot;:false,&quot;origItem&quot;:[&quot;Path&quot;,{&quot;applyMatrix&quot;:true,&quot;segments&quot;:[[[332.0254,197.06293],[0.95313,-0.53669],[-1.05859,0.59758]],[[331.53713,197.74806],[-0.62891,0],[0.45313,0]],[[334.0254,197.29892],[-0.1289,0.09896],[0.02344,-0.02664]],[[333.87307,196.93732],[0.10547,0.17509],[-0.28906,-0.44914]]],&quot;closed&quot;:true,&quot;fillColor&quot;:[0,0,0]}]}" fill="#740c0c" stroke-width="0.5"/><path d="M256.76791,143.21767l-2.60927,0.00646l-15.49726,-3.62198l8.69666,-3.41294z" data-paper-data="{&quot;noHover&quot;:false,&quot;origItem&quot;:[&quot;Path&quot;,{&quot;applyMatrix&quot;:true,&quot;segments&quot;:[[[335.58448,196.62521],[0.21484,0],[-0.35547,0]],[[334.9087,197.16189],[-0.07422,-0.22457],[0.05859,0.21315]],[[337.13526,197.84702],[-0.48828,0.03806],[0,0]],[337.54932,197.80896],[[336.74073,197.21138],[0,0],[-0.51172,-0.3616]]],&quot;closed&quot;:true,&quot;fillColor&quot;:[0,0,0]}]}" fill="#740c0c" stroke-width="0.5"/></g></g></g></svg>