<svg version="1.1" xmlns="http://www.w3.org/2000/svg" xmlns:xlink="http://www.w3.org/1999/xlink" width="34.17311" height="34.17311" viewBox="0,0,34.17311,34.17311"><g transform="translate(-222.91345,-162.91345)"><g data-paper-data="{&quot;isPaintingLayer&quot;:true}" stroke-linecap="round" stroke-miterlimit="10" stroke-dasharray="" stroke-dashoffset="0" style="mix-blend-mode: normal"><path d="M229.98311,162.91345h20.03379c3.9166,0 7.06966,3.15307 7.06966,7.06966v20.03379c0,3.91659 -3.15306,7.06966 -7.06966,7.06966h-20.03379c-3.91659,0 -7.06966,-3.15307 -7.06966,-7.06966v-20.03379c0,-3.91659 3.15307,-7.06966 7.06966,-7.06966z" fill="#760c0c" fill-rule="evenodd" stroke="none" stroke-width="4.43922" stroke-linejoin="round"/><g fill-rule="nonzero" stroke="#000000" stroke-width="0" stroke-linejoin="miter"><path d="M251.84735,177.42887l-4.12367,11.93939l-11.5746,2.4105l-8.04607,-8.15766l2.36165,-12.18152l12.30454,-3.2854z" fill="#940f0f"/><path d="M236.18615,191.79644l0.6653,-2.64618l9.71025,-2.12257l1.08692,2.44331z" fill="#000000"/><path d="M230.49174,171.41062l12.17251,-3.20583l-0.31373,1.6526l0.99328,1.37122l-1.68318,-0.62673l-8.07874,2.31191l-0.93628,1.90217l-0.09485,-2.03643z" fill="#a91111"/></g></g></g></svg>