<svg version="1.1" xmlns="http://www.w3.org/2000/svg" xmlns:xlink="http://www.w3.org/1999/xlink" width="91.18203" height="296.63651" viewBox="0,0,91.18203,296.63651"><defs><radialGradient cx="240.02733" cy="123.29169" r="12.80492" gradientUnits="userSpaceOnUse" id="color-1"><stop offset="0" stop-color="#da1616"/><stop offset="1" stop-color="#990f0f"/></radialGradient></defs><g transform="translate(-195.28371,-53.38751)"><g data-paper-data="{&quot;isPaintingLayer&quot;:true}" fill-rule="nonzero" stroke-linejoin="miter" stroke-miterlimit="10" stroke-dasharray="" stroke-dashoffset="0" style="mix-blend-mode: normal"><path d="M195.28372,306.61253v-253.22501h91.18203v253.22501z" fill-opacity="0.01" fill="#000000" stroke="none" stroke-width="0" stroke-linecap="butt"/><path d="M209.73431,72.35822c5.88143,-8.25347 13.73361,-16.19724 28.45197,-16.83744c2.87948,-0.06614 5.55564,0.03722 8.04155,0.29185c4.01492,0.41125 6.92523,0.47057 10.89855,2.22763c3.97332,1.75706 11.65839,7.25285 15.50889,9.45014c2.28494,1.3039 5.46129,2.51647 5.46129,2.51647c0,0 -1.76761,1.09383 -3.03444,1.41179c-1.26684,0.31795 -2.527,-0.01596 -2.527,-0.01596c0,0 4.10602,5.73836 5.48998,12.36423c0.71341,3.41548 1.42786,7.32135 2.09808,11.37774c0.15159,0.91744 2.54752,6.82708 3.84646,11.72716c1.18774,4.4806 0.96103,9.52138 0.96103,9.52138c0,0 -0.72443,-1.8036 -1.23485,-2.80949c-0.51042,-1.0059 -1.37718,-2.00969 -1.37718,-2.00969c0,0 0.8795,5.98237 1.17161,9.75527c0.37383,4.82848 -0.27554,7.98144 -0.27554,7.98144c0,0 -1.08453,-3.13482 -1.62347,-4.48513c-0.44381,-1.11195 -1.38058,-3.0414 -1.38058,-3.0414c0,0 -0.72367,11.23914 -1.57375,16.7836c-1.5623,10.63929 -6.63115,19.32988 -6.63115,19.32988l-1.15522,-2.63412c0,0 -1.02266,2.46646 -2.16005,3.7399c-1.1374,1.27343 -3.43873,3.26858 -3.43873,3.26858l-0.09205,-4.15676c0,0 -7.0601,12.36402 -24.35066,12.19973c-16.30625,-0.28668 -26.07151,-11.9794 -26.07151,-11.9794l-0.1162,2.97919c0,0 -3.89477,-3.69505 -6.18145,-10.89353c-2.47788,-7.8004 -4.83928,-18.72607 -4.83928,-18.72607c0,0 -0.7017,1.79412 -0.90426,3.70625c-0.23042,2.17521 -0.57217,5.10425 -0.57217,5.10425c0,0 -2.27741,-6.28643 -2.68108,-10.54006c-0.40366,-4.25364 0.71498,-10.17781 0.71498,-10.17781c0,0 -0.81932,0.85263 -1.24084,1.49418c-0.42151,0.64155 -1.11295,2.0883 -1.11295,2.0883c0,0 -0.08659,-5.94248 0.33834,-10.60052c0.16959,-1.85906 0.59241,-6.53567 1.59685,-12.30217c0.78377,-4.49963 3.56973,-14.66891 3.56973,-14.66891c0,0 -1.16002,0.68114 -1.8137,1.23397c-0.65368,0.55283 -1.87897,1.88902 -1.87897,1.88902c0,0 0.11886,-4.17485 2.98502,-7.7468c2.99366,-3.73086 6.748,-8.27675 7.13274,-8.81665z" fill="#000000" stroke="none" stroke-width="1.5" stroke-linecap="butt"/><path d="M201.03041,304.39159c0,0 -0.63536,-94.38387 -0.79335,-118.01201c-0.05451,-8.15261 8.18688,-36.76129 40.20201,-36.9211c31.60235,-0.15775 39.85672,29.48704 39.84884,36.89673c-0.07659,46.24274 0.65429,117.98648 0.65429,117.98648l-10.49667,0.09614l-0.15882,-114.84311c0,0 0.07549,-3.0993 -2.81625,-3.15415c-3.43441,-0.06514 -2.94538,3.11562 -2.94538,3.11562l0.20548,114.86995l-48.21366,0.07222l-0.30539,-115.23309c0,0 0.27949,-2.919 -2.8856,-2.93443c-3.11083,-0.01515 -2.81569,2.90899 -2.81569,2.90899l0.35311,115.0668z" fill="#ffffff" stroke="#000000" stroke-width="2" stroke-linecap="butt"/><path d="M255.62758,200.33378c-0.57113,0 -1.03411,-0.46299 -1.03411,-1.03411c0,-0.57113 0.46299,-1.03413 1.03411,-1.03413c0.57113,0 1.03411,0.463 1.03411,1.03413c0,0.57113 -0.46299,1.03411 -1.03411,1.03411z" fill="#000000" stroke="none" stroke-width="1.5" stroke-linecap="butt"/><path d="M250.36771,204.56937c-4.4635,-0.31439 -6.55245,-1.79392 -6.16985,-2.58011c0.11788,-0.24224 2.84645,1.06355 6.97038,1.3048c6.40897,0.37493 8.51033,-0.63173 8.51033,-0.63173v1.34616c0,0 -2.4135,1.04672 -9.31086,0.56089z" fill="#000000" stroke="#000000" stroke-width="0" stroke-linecap="butt"/><path d="M222.55495,199.29967c0,-0.57113 0.46299,-1.03413 1.03411,-1.03413c0.57113,0 1.03413,0.463 1.03413,1.03413c0,0.57113 -0.463,1.03411 -1.03413,1.03411c-0.57113,0 -1.03411,-0.46299 -1.03411,-1.03411z" fill="#000000" stroke="none" stroke-width="1.5" stroke-linecap="butt"/><path d="M228.84895,204.56937c-6.89736,0.48585 -9.31086,-0.56089 -9.31086,-0.56089v-1.34616c0,0 2.10136,1.00666 8.51033,0.63173c4.12393,-0.24126 6.85251,-1.54704 6.97039,-1.3048c0.3826,0.78618 -1.70634,2.26571 -6.16985,2.58011z" fill="#000000" stroke="#000000" stroke-width="0" stroke-linecap="butt"/><path d="M240.12941,261.12113c-0.81895,0 -1.48284,-0.66389 -1.48284,-1.48284c0,-0.81895 0.66389,-1.48284 1.48284,-1.48284c0.81895,0 1.48284,0.66389 1.48284,1.48284c0,0.81895 -0.66389,1.48284 -1.48284,1.48284z" data-paper-data="{&quot;index&quot;:null}" fill="#000000" stroke="none" stroke-width="1.5" stroke-linecap="butt"/><path d="M216.06614,304.40603v-64.52398v-54.67749c0,0 0.75721,-9.73105 0.75721,-14.63937c0,-4.498 -0.75721,-13.6872 -0.75721,-13.6872c0,0 2.67319,-2.35297 4.6557,-3.74807c1.98251,-1.3951 5.17197,-2.80371 5.17197,-2.80371c0,0 -0.6016,40.10902 14.55952,40.03867c15.43477,-0.07162 13.83154,-40.03867 13.83154,-40.03867c0,0 3.91276,1.51959 6.16585,2.94655c2.25309,1.42695 4.75379,3.60523 4.75379,3.60523c0,0 -0.75721,9.42463 -0.75721,14.19201c0,4.84193 0.75721,14.63937 0.75721,14.63937v54.17268v64.52399z" fill="#ffffff" stroke="#000000" stroke-width="2" stroke-linecap="butt"/><path d="M213.79781,94.04724c0,0 4.28973,-0.0966 5.12602,0.452c1.48823,0.97628 -0.6284,5.73709 -0.6284,5.73709c0,0 6.89709,-0.83676 10.20019,-2.98206c3.83906,-2.49339 5.73829,-3.85052 11.49248,-5.80539c7.95202,-2.70153 15.88116,-0.28895 15.2002,-0.0931c-0.89791,1.15584 -3.41297,3.24977 -3.41297,3.24977c0,0 4.01142,-0.5439 8.012,-2.14569c3.9465,-1.58014 7.88245,-4.22109 7.94652,-3.84298c0.14166,0.8361 0.53006,19.6827 0.21846,25.24062c-0.42163,5.66922 -2.03327,9.49969 -2.65031,12.52053c-0.61704,3.02084 -1.4096,6.13662 -3.20622,16.0397c-1.12121,6.18021 -3.16183,8.92466 -9.01942,14.66081c-5.85759,5.73616 -9.05378,8.25275 -13.01359,8.32173c-3.81077,0.06639 -8.93565,-4.1002 -13.93542,-9.38244c-5.32393,-5.62474 -7.87489,-8.47713 -8.71551,-15.13975c-0.75707,-6.00039 -1.77653,-9.90853 -2.12266,-15.24835c-0.25298,-3.90273 -1.76119,-6.44504 -2.07636,-10.42801c-0.31517,-3.98297 0.58498,-21.15449 0.58498,-21.15449z" fill="#ffffff" stroke="#000000" stroke-width="1.5" stroke-linecap="butt"/><path d="M214.41246,125.32494c0,0 -4.93211,-3.51705 -6.16417,-8.97502c-1.29636,-5.74284 -1.46118,-9.7328 0.48013,-9.99193c1.94131,-0.25915 2.70321,2.37692 3.73262,8.35569c1.0294,5.97877 1.95143,10.61127 1.95143,10.61127z" data-paper-data="{&quot;index&quot;:null}" fill="#ffffff" stroke="#000000" stroke-width="1" stroke-linecap="butt"/><path d="M214.20986,121.37738c0,0 -3.56385,-2.92338 -4.31816,-8.45061c-0.42079,-3.08327 2.15675,-2.28016 2.15675,-2.28016" fill="none" stroke="#000000" stroke-width="0.25" stroke-linecap="round"/><path d="M268.64562,114.71367c1.0294,-5.97877 1.7913,-8.61483 3.73262,-8.35569c1.94131,0.25914 1.77649,4.24909 0.48013,9.99193c-1.23206,5.45797 -6.16417,8.97502 -6.16417,8.97502c0,0 0.92203,-4.6325 1.95143,-10.61127z" data-paper-data="{&quot;index&quot;:null}" fill="#ffffff" stroke="#000000" stroke-width="1" stroke-linecap="butt"/><path d="M269.05818,110.64661c0,0 2.57754,-0.80312 2.15675,2.28016c-0.75431,5.52723 -4.31816,8.45061 -4.31816,8.45061" data-paper-data="{&quot;index&quot;:null}" fill="none" stroke="#000000" stroke-width="0.25" stroke-linecap="round"/><path d="M202.88496,332.20644v-15.30586h15.19421v15.30586z" fill="#da1616" stroke="none" stroke-width="0" stroke-linecap="butt"/><path d="M217.97742,332.20644v-15.30586h15.19421v15.30586z" fill="#c01313" stroke="none" stroke-width="0" stroke-linecap="butt"/><path d="M233.0699,332.20644v-15.30586h15.19422v15.30586z" fill="#b31212" stroke="none" stroke-width="0" stroke-linecap="butt"/><path d="M248.1624,332.20644v-15.30586h15.19421v15.30586z" fill="#990f0f" stroke="none" stroke-width="0" stroke-linecap="butt"/><path d="M263.14054,332.20644v-15.30586h15.19421v15.30586z" fill="#740c0c" stroke="none" stroke-width="0" stroke-linecap="butt"/><path d="M203.20889,350.02402v-15.30586h15.19421v15.30586z" fill="#8b8b8b" stroke="none" stroke-width="0" stroke-linecap="butt"/><path d="M218.30137,350.02402v-15.30586h15.19421v15.30586z" fill="#666666" stroke="none" stroke-width="0" stroke-linecap="butt"/><path d="M233.39386,350.02402v-15.30586h15.19422v15.30586z" fill="#4b4b4b" stroke="none" stroke-width="0" stroke-linecap="butt"/><path d="M248.48636,350.02402v-15.30586h15.19421v15.30586z" fill="#2b2b2b" stroke="none" stroke-width="0" stroke-linecap="butt"/><path d="M263.44543,350.02402v-15.30586h15.19421v15.30586z" fill="#0c0c0c" stroke="none" stroke-width="0" stroke-linecap="butt"/><path d="M224.32613,125.3069c0.05974,-15.27332 16.14444,-37.52725 16.14444,-37.52725c0,0 14.91514,22.09363 14.85448,37.60196c-0.06066,15.50833 -15.14443,36.52723 -15.14443,36.52723c0,0 -15.91423,-21.32861 -15.85449,-36.60193z" fill="#000000" stroke="none" stroke-width="1.5" stroke-linecap="butt"/><path d="M227.22355,123.19789c0.09476,-6.53538 6.46385,-11.9383 13.64203,-11.83424c7.17817,0.10407 12.06007,5.67571 11.96533,12.2111c-0.09476,6.53537 -5.50888,11.74899 -12.68705,11.64493c-7.17817,-0.10407 -13.01506,-5.48641 -12.9203,-12.0218z" fill="url(#color-1)" stroke="#000000" stroke-width="1.4" stroke-linecap="butt"/><path d="M236.82582,123.35545c0.02802,-3.68516 3.55052,-6.57581 3.55052,-6.57581c0,0 3.47705,3.08414 3.44903,6.76928c-0.02802,3.68516 -3.55051,6.5758 -3.55051,6.5758c0,0 -3.47706,-3.08414 -3.44904,-6.76928z" fill="#000000" stroke="none" stroke-width="1.5" stroke-linecap="butt"/></g></g></svg>