<svg version="1.1" xmlns="http://www.w3.org/2000/svg" xmlns:xlink="http://www.w3.org/1999/xlink" width="34.17311" height="34.17311" viewBox="0,0,34.17311,34.17311"><g transform="translate(-222.91345,-162.91345)"><g data-paper-data="{&quot;isPaintingLayer&quot;:true}" stroke="none" stroke-miterlimit="10" stroke-dasharray="" stroke-dashoffset="0" style="mix-blend-mode: normal"><path d="M229.98311,162.91345h20.03379c3.9166,0 7.06966,3.15307 7.06966,7.06966v20.03379c0,3.91659 -3.15306,7.06966 -7.06966,7.06966h-20.03379c-3.91659,0 -7.06966,-3.15307 -7.06966,-7.06966v-20.03379c0,-3.91659 3.15307,-7.06966 7.06966,-7.06966z" fill="#760c0c" fill-rule="evenodd" stroke-width="4.43922" stroke-linecap="round" stroke-linejoin="round"/><g fill-rule="nonzero" stroke-width="0" stroke-linecap="butt" stroke-linejoin="miter"><path d="M239.57318,191.86414c-0.79883,-1.75967 -0.60005,-3.69047 0.49975,-4.18974c1.09979,-0.49927 2.68413,0.62206 3.48296,2.38173c0.79883,1.75967 -0.27374,4.68758 -0.27374,4.68758c0,0 -2.91014,-1.1199 -3.70897,-2.87957z" fill="#000000"/><path d="M242.53598,190.68029c-1.47749,-1.24564 -2.1277,-3.0745 -1.34918,-3.99792c0.77853,-0.92342 2.69098,-0.59174 4.16847,0.65389c1.47749,1.24564 1.76718,4.35034 1.76718,4.35034c0,0 -3.10899,0.23933 -4.58647,-1.00631z" fill="#9b0f0f"/><path d="M226.61389,185.89414l5.42159,-6.49694c0,0 2.17634,1.18027 3.3996,2.20107c1.04739,0.87403 3.14164,2.83865 4.60707,4.24199c1.04301,0.99882 1.93972,1.85703 1.93972,1.85703l-5.65024,6.30614c0,0 -2.19282,-1.19403 -3.05662,-1.91486c-0.79467,-0.66314 -2.59054,-1.87241 -3.94968,-3.15189c-1.5956,-1.50208 -2.71143,-3.04253 -2.71143,-3.04253z" fill="#9b0f0f"/><path d="M231.38774,179.48914c0,0 1.09698,-1.46921 2.03567,-2.36752c1.20333,-1.15157 3.93407,-4.51978 3.93407,-4.51978l11.19186,7.64386c0,0 -1.56831,2.21743 -2.52566,3.40495c-0.46274,0.574 -1.18805,1.42777 -1.88203,2.23447c-0.99492,1.15655 -1.92542,2.21635 -1.92542,2.21635c0,0 -2.24994,-0.8183 -3.40748,-1.73893c-0.39395,-0.31333 -1.40763,-1.27295 -2.06386,-1.80337c-0.97289,-0.78636 -1.67964,-1.23349 -2.62977,-2.13205c-1.63714,-1.54829 -2.7274,-2.93798 -2.7274,-2.93798z" fill="#000000"/><path d="M236.88987,172.67838l6.1936,-7.42208c0,0 2.21484,2.57126 3.66989,3.96507c0.69118,0.66209 1.98421,1.38982 3.07755,2.35986c1.86897,1.65819 3.55521,3.54412 3.55521,3.54412l-5.25525,6.29761c0,0 -1.34299,-1.33037 -3.07267,-2.5631c-1.39261,-0.9925 -3.10922,-1.83381 -4.01602,-2.53922c-1.6186,-1.25914 -4.15231,-3.64226 -4.15231,-3.64226z" fill="#9b0f0f"/></g></g></g></svg>