<svg version="1.1" xmlns="http://www.w3.org/2000/svg" xmlns:xlink="http://www.w3.org/1999/xlink" width="116.79681" height="242.43666" viewBox="0,0,116.79681,242.43666"><defs><linearGradient x1="240.97421" y1="164.99812" x2="240.97421" y2="211.66479" gradientUnits="userSpaceOnUse" id="color-1"><stop offset="0" stop-color="#1b1b1b"/><stop offset="1" stop-color="#313131"/></linearGradient><linearGradient x1="241.09873" y1="74.17679" x2="241.09873" y2="140.37834" gradientUnits="userSpaceOnUse" id="color-2"><stop offset="0" stop-color="#202020"/><stop offset="1" stop-color="#323232"/></linearGradient></defs><g transform="translate(-183.67183,-66.27132)"><g data-paper-data="{&quot;isPaintingLayer&quot;:true}" fill-rule="nonzero" stroke-linejoin="miter" stroke-miterlimit="10" stroke-dasharray="" stroke-dashoffset="0" style="mix-blend-mode: normal"><path d="M243.90497,147.86875h36l13.33333,71.83334l-45,40.83333z" data-paper-data="{&quot;index&quot;:null}" fill="#0c0c0c" stroke="none" stroke-width="0" stroke-linecap="butt"/><path d="M234.7383,261.86875l-46,-43l13.66667,-72.5h36z" fill="#0c0c0c" stroke="none" stroke-width="0" stroke-linecap="butt"/><path d="M240.18481,215.32146l49.58333,10.33333l-49,48l-48,-47.99999z" fill="#b31212" stroke="#000000" stroke-width="0" stroke-linecap="round"/><path d="M231.18426,308.70798v-155h19.66667v155z" fill="#810d0d" stroke="none" stroke-width="0" stroke-linecap="butt"/><path d="M212.10944,231.12043v-92h58v92z" fill="#232323" stroke="none" stroke-width="0" stroke-linecap="butt"/><path d="M218.47421,211.66479v-46.66667h45v46.66667z" fill="#0c0c0c" stroke="url(#color-1)" stroke-width="2" stroke-linecap="butt"/><path d="M219.77611,248.97436v-18h43.33333v18z" fill="#660a0a" stroke="none" stroke-width="0" stroke-linecap="butt"/><path d="M281.66723,152.49833c0,0 -6.3451,14.48976 -15.11279,21.35647c-8.2643,6.47245 -16.99153,16.86297 -25.9204,16.84154c-8.18338,-0.01964 -16.57613,-9.90529 -24.09215,-15.911c-9.20539,-7.35561 -15.62468,-21.03701 -15.62468,-21.03701" fill="none" stroke="#740c0c" stroke-width="3.5" stroke-linecap="round"/><path d="M240.74101,188.87397c-16.87227,-0.65525 -53.47635,-24.83582 -55.31918,-41.17576c-1.86728,-16.55667 41.12971,-27.87922 54.52174,-28.21094c12.39251,-0.30696 59.09437,12.34257 58.77342,28.21094c-0.35291,17.44846 -40.64722,41.84874 -57.97598,41.17576z" data-paper-data="{&quot;index&quot;:null}" fill="none" stroke="#740c0c" stroke-width="3.5" stroke-linecap="round"/><path d="M195.20255,139.97481v-15.75h91.5v15.75z" fill="#1d1d1d" stroke="none" stroke-width="0" stroke-linecap="butt"/><path d="M197.45837,148.69237v-82.42105h55.82107l6.28571,0.57143l4.57143,-0.57143h20.3218v82.42105z" fill="#2b2b2b" stroke="none" stroke-width="0" stroke-linecap="butt"/><path d="M206.09872,140.37834v-66.20155h70v66.20155z" fill="url(#color-2)" stroke="none" stroke-width="0" stroke-linecap="butt"/><path d="M208.84872,137.87834v-61h64.5v61z" fill="#0c0c0c" stroke="none" stroke-width="0" stroke-linecap="butt"/><g fill="#b31212" stroke="none" stroke-width="0" stroke-linecap="butt"><path d="M222.71735,114.01247v-20.5h8.31081v20.5z"/><path d="M219.4741,113.01247v-18.5h15v18.5z"/></g><g fill="#b31212" stroke="none" stroke-width="0" stroke-linecap="butt"><path d="M250.46735,114.26247v-20.5h8.31081v20.5z"/><path d="M247.2241,113.26247v-18.5h15v18.5z"/></g><path d="M208.77159,125.4529v-2.5c0,0 19.58067,-5.5 32.31289,-5.5c12.73222,0 32.43711,5.5 32.43711,5.5v2.5c0,0 -19.71473,-5 -32.43711,-5c-12.72238,0 -32.31289,5 -32.31289,5z" fill="#b31212" stroke="none" stroke-width="0" stroke-linecap="butt"/><path d="M259.85085,68.90686l-0.14285,-1.90476l4.71429,-0.71429z" fill="#3c3c3c" stroke="none" stroke-width="0.5" stroke-linecap="round"/><g stroke="none" stroke-width="0" stroke-linecap="butt"><path d="M260.28358,179.81971c3.47997,13.76062 -19.49177,26.4739 -19.49177,26.4739c0,0 -22.27457,-14.67094 -18.90993,-27.9285c3.47901,-13.70821 18.90993,-3.78199 18.90993,-3.78199c0,0 15.58224,-10.22259 19.49177,5.23659z" fill="#990f0f"/><path d="M240.52802,206.07679l0.70987,-13.67085l-3.19656,-4.35938l2.32045,-13.78416l0.39139,0.32098l0.50214,-0.26557l-2.32738,13.69411l2.95994,4.22792l-0.79881,13.94776l-0.38531,0.09965z" fill="#740c0c"/><path d="M242.0068,184.74454c-0.14737,0.72178 -0.57329,1.23402 -0.95131,1.14414c-0.37802,-0.08989 -0.56502,-0.74788 -0.41765,-1.46966c0.14737,-0.72178 0.57329,-1.23402 0.95131,-1.14414c0.37802,0.08989 0.56502,0.74788 0.41765,1.46966z" fill="#740c0c"/><path d="M240.16377,193.90871c0.00536,0.73665 -0.30519,1.32602 -0.69365,1.3164c-0.38845,-0.00962 -0.7077,-0.6146 -0.71306,-1.35125c-0.00536,-0.73665 0.30519,-1.32602 0.69365,-1.3164c0.38845,0.00962 0.7077,0.6146 0.71306,1.35125z" fill="#740c0c"/><path d="M238.04517,176.6953c-0.19138,2.30574 -3.40988,3.92066 -7.18875,3.60701c-3.77885,-0.31365 -6.68708,-2.43708 -6.49572,-4.74282c0.19138,-2.30574 3.40988,-3.92066 7.18875,-3.60701c3.77885,0.31365 6.68708,2.43708 6.49572,4.74282z" fill="#b31212"/><path d="M256.07948,175.40752c0.19622,2.16456 -2.52051,4.17998 -6.06799,4.50156c-3.54748,0.32159 -6.58234,-1.17245 -6.77856,-3.337c-0.19622,-2.16456 2.52051,-4.17999 6.06799,-4.50156c3.54748,-0.32159 6.58234,1.17245 6.77856,3.33701z" fill="#b31212"/></g></g></g></svg>