<svg version="1.1" xmlns="http://www.w3.org/2000/svg" xmlns:xlink="http://www.w3.org/1999/xlink" width="116.79681" height="242.43666" viewBox="0,0,116.79681,242.43666"><defs><linearGradient x1="240.97421" y1="164.99812" x2="240.97421" y2="211.66479" gradientUnits="userSpaceOnUse" id="color-1"><stop offset="0" stop-color="#1b1b1b"/><stop offset="1" stop-color="#313131"/></linearGradient><linearGradient x1="241.09873" y1="74.17679" x2="241.09873" y2="140.37834" gradientUnits="userSpaceOnUse" id="color-2"><stop offset="0" stop-color="#202020"/><stop offset="1" stop-color="#323232"/></linearGradient></defs><g transform="translate(-183.67183,-66.27132)"><g data-paper-data="{&quot;isPaintingLayer&quot;:true}" fill-rule="nonzero" stroke-linejoin="miter" stroke-miterlimit="10" stroke-dasharray="" stroke-dashoffset="0" style="mix-blend-mode: normal"><path d="M243.90497,147.86875h36l13.33333,71.83334l-45,40.83333z" data-paper-data="{&quot;index&quot;:null}" fill="#0c0c0c" stroke="none" stroke-width="0" stroke-linecap="butt"/><path d="M234.7383,261.86875l-46,-43l13.66667,-72.5h36z" fill="#0c0c0c" stroke="none" stroke-width="0" stroke-linecap="butt"/><path d="M240.18481,215.32146l49.58333,10.33333l-49,48l-48,-47.99999z" fill="#b31212" stroke="#000000" stroke-width="0" stroke-linecap="round"/><path d="M231.18426,308.70798v-155h19.66667v155z" fill="#810d0d" stroke="none" stroke-width="0" stroke-linecap="butt"/><path d="M212.10944,231.12043v-92h58v92z" fill="#232323" stroke="none" stroke-width="0" stroke-linecap="butt"/><path d="M218.47421,211.66479v-46.66667h45v46.66667z" fill="#0c0c0c" stroke="url(#color-1)" stroke-width="2" stroke-linecap="butt"/><path d="M219.77611,248.97436v-18h43.33333v18z" fill="#660a0a" stroke="none" stroke-width="0" stroke-linecap="butt"/><path d="M281.66723,152.49833c0,0 -6.3451,14.48976 -15.11279,21.35647c-8.2643,6.47245 -16.99153,16.86297 -25.9204,16.84154c-8.18338,-0.01964 -16.57613,-9.90529 -24.09215,-15.911c-9.20539,-7.35561 -15.62468,-21.03701 -15.62468,-21.03701" fill="none" stroke="#740c0c" stroke-width="3.5" stroke-linecap="round"/><path d="M240.74101,188.87397c-16.87227,-0.65525 -53.47635,-24.83582 -55.31918,-41.17576c-1.86728,-16.55667 41.12971,-27.87922 54.52174,-28.21094c12.39251,-0.30696 59.09437,12.34257 58.77342,28.21094c-0.35291,17.44846 -40.64722,41.84874 -57.97598,41.17576z" data-paper-data="{&quot;index&quot;:null}" fill="none" stroke="#740c0c" stroke-width="3.5" stroke-linecap="round"/><path d="M195.20255,139.97481v-15.75h91.5v15.75z" fill="#1d1d1d" stroke="none" stroke-width="0" stroke-linecap="butt"/><path d="M197.45837,148.69237v-82.42105h55.82107l6.28571,0.57143l4.57143,-0.57143h20.3218v82.42105z" fill="#2b2b2b" stroke="none" stroke-width="0" stroke-linecap="butt"/><path d="M206.09872,140.37834v-66.20155h70v66.20155z" fill="url(#color-2)" stroke="none" stroke-width="0" stroke-linecap="butt"/><path d="M208.84872,137.87834v-61h64.5v61z" fill="#0c0c0c" stroke="none" stroke-width="0" stroke-linecap="butt"/><g fill="#b31212" stroke="none" stroke-width="0" stroke-linecap="butt"><path d="M222.71735,113.51247v-20.5h8.31081v20.5z"/><path d="M219.4741,112.51247v-18.5h15v18.5z"/></g><g fill="#b31212" stroke="none" stroke-width="0" stroke-linecap="butt"><path d="M250.46735,113.76247v-20.5h8.31081v20.5z"/><path d="M247.2241,112.76247v-18.5h15v18.5z"/></g><path d="M208.77159,125.4529v-2.5c0,0 19.58067,-4 32.31289,-4c12.73222,0 32.43711,4 32.43711,4v2.5c0,0 -19.71473,-3.5 -32.43711,-3.5c-12.72238,0 -32.31289,3.5 -32.31289,3.5z" fill="#b31212" stroke="none" stroke-width="0" stroke-linecap="butt"/><path d="M259.85085,68.90686l-0.14285,-1.90476l4.71429,-0.71429z" fill="#3c3c3c" stroke="none" stroke-width="0.5" stroke-linecap="round"/><g stroke="none" stroke-width="0" stroke-linecap="butt"><path d="M259.20423,180.84319c3.27975,12.9689 -18.37031,24.95073 -18.37031,24.95073c0,0 -20.99301,-13.82685 -17.82195,-26.32164c3.27885,-12.91951 17.82195,-3.56439 17.82195,-3.56439c0,0 14.68572,-9.63443 18.37031,4.9353z" fill="#990f0f"/><path d="M240.5853,205.58958l0.66903,-12.8843l-3.01265,-4.10856l2.18694,-12.99109l0.36887,0.30251l0.47325,-0.25029l-2.19347,12.90622l2.78964,3.98467l-0.75285,13.14528l-0.36314,0.09392z" fill="#740c0c"/><path d="M241.979,185.48467c-0.13889,0.68025 -0.54031,1.16302 -0.89658,1.07831c-0.35627,-0.08472 -0.53251,-0.70485 -0.39362,-1.3851c0.13889,-0.68025 0.54031,-1.16302 0.89658,-1.07831c0.35627,0.08472 0.53251,0.70485 0.39362,1.3851z" fill="#740c0c"/><path d="M240.24201,194.12159c0.00505,0.69427 -0.28763,1.24973 -0.65374,1.24066c-0.3661,-0.00907 -0.66698,-0.57924 -0.67203,-1.27351c-0.00505,-0.69427 0.28763,-1.24973 0.65374,-1.24066c0.3661,0.00907 0.66698,0.57924 0.67203,1.27351z" fill="#740c0c"/><path d="M238.2453,177.89855c-0.18037,2.17308 -3.21369,3.69509 -6.77515,3.39948c-3.56143,-0.2956 -6.30234,-2.29686 -6.12199,-4.46994c0.18037,-2.17308 3.21369,-3.69509 6.77515,-3.39948c3.56143,0.2956 6.30234,2.29686 6.12199,4.46994z" fill="#b31212"/><path d="M255.24202,176.68486c0.18493,2.04002 -2.37549,3.93949 -5.71887,4.24256c-3.34338,0.30309 -6.20363,-1.10499 -6.38856,-3.14501c-0.18493,-2.04002 2.37549,-3.93949 5.71887,-4.24256c3.34338,-0.30309 6.20363,1.10499 6.38856,3.14502z" fill="#b31212"/></g></g></g></svg>