<svg version="1.1" xmlns="http://www.w3.org/2000/svg" xmlns:xlink="http://www.w3.org/1999/xlink" width="34.17311" height="34.17311" viewBox="0,0,34.17311,34.17311"><g transform="translate(-222.9135,-162.9135)"><g data-paper-data="{&quot;isPaintingLayer&quot;:true}" stroke="none" stroke-miterlimit="10" stroke-dasharray="" stroke-dashoffset="0" style="mix-blend-mode: normal"><path d="M229.98317,162.9135h20.03378c3.9166,0 7.06966,3.15307 7.06966,7.06966v20.03379c0,3.91659 -3.15306,7.06966 -7.06966,7.06966h-20.03378c-3.91659,0 -7.06967,-3.15307 -7.06967,-7.06966v-20.03379c0,-3.91659 3.15308,-7.06966 7.06967,-7.06966z" fill-opacity="0.09677" fill="#191919" fill-rule="evenodd" stroke-width="4.43922" stroke-linecap="round" stroke-linejoin="round"/><g fill-rule="nonzero" stroke-linecap="butt" stroke-linejoin="miter"><path d="M226.53045,192.56829c0,0 3.64421,-5.62363 4.90016,-7.90702c0.91242,-1.65885 2.74265,-7.32668 2.74265,-7.32668l1.58694,-0.07203l-0.79181,4.33396l4.001,-1.31131l3.88313,1.32337c0,0 -4.38136,2.98105 -5.43496,4.7142c-0.96285,1.58385 -2.00006,3.31007 -2.44344,4.11616c-1.25286,2.27778 -2.37845,5.02369 -2.37845,5.02369z" fill="#bfbfbf" stroke-width="0"/><path d="M233.32207,184.65294c-0.47189,0.85792 -1.33096,1.29129 -1.91879,0.96796c-0.58783,-0.32333 -0.68183,-1.28092 -0.20994,-2.13884c0.47189,-0.85792 1.33096,-1.29129 1.91879,-0.96796c0.58783,0.32333 0.68183,1.28092 0.20994,2.13884z" fill="#ffffff" stroke-width="0"/><path d="M235.88614,191.84457c-0.62918,1.14389 -1.82183,1.69574 -2.66386,1.23259c-0.84203,-0.46315 -1.01458,-1.76591 -0.3854,-2.9098c0.62918,-1.14389 1.82183,-1.69574 2.66386,-1.23259c0.84203,0.46315 1.01458,1.76591 0.3854,2.9098z" fill="#ffffff" stroke-width="0"/><path d="M228.762,191.03602c-0.34081,0.61961 -0.91331,0.95897 -1.27872,0.75798c-0.36541,-0.20099 -0.38535,-0.86621 -0.04455,-1.48582c0.34081,-0.61961 0.91331,-0.95897 1.27872,-0.75798c0.36541,0.20099 0.38535,0.86621 0.04455,1.48582z" fill="#ffffff" stroke-width="0"/><path d="M232.34513,183.97668c-0.2272,0.41307 -0.56594,0.66292 -0.75659,0.55806c-0.19065,-0.10486 -0.16101,-0.52473 0.06619,-0.9378c0.2272,-0.41307 0.56594,-0.66292 0.75659,-0.55806c0.19065,0.10486 0.16101,0.52473 -0.06619,0.9378z" fill="#bfbfbf" stroke-width="0"/><path d="M235.58265,191.71511c-0.35828,0.65138 -0.97071,1.00233 -1.3679,0.78386c-0.39718,-0.21847 -0.42872,-0.92362 -0.07044,-1.575c0.35828,-0.65138 0.97071,-1.00233 1.3679,-0.78386c0.39718,0.21847 0.42872,0.92362 0.07044,1.575z" fill="#bfbfbf" stroke-width="0"/><path d="M228.20249,190.6908c-0.1573,0.28597 -0.38784,0.46113 -0.51494,0.39122c-0.1271,-0.06991 -0.10262,-0.35841 0.05468,-0.64438c0.1573,-0.28597 0.38784,-0.46113 0.51494,-0.39122c0.1271,0.06991 0.10262,0.35841 -0.05468,0.64438z" fill="#bfbfbf" stroke-width="0"/><path d="M239.80422,180.98277c0,0 -1.50989,0.56759 -2.51378,0.75483c-0.24721,0.04611 -1.89528,0.12589 -1.89528,0.12589c0,0 0.36334,-0.5594 0.381,-0.97072c0.01765,-0.41132 -0.28381,-1.2937 -0.28381,-1.2937c0,0 -1.4422,-0.2451 -2.16417,-0.41002c-0.72197,-0.16492 -1.52986,-0.56169 -1.52986,-0.56169c0,0 0.70039,-0.73464 0.47039,-1.10364c-0.58249,-0.93451 -1.63709,-0.80283 -2.03133,-1.84676c-0.12472,-0.33024 -0.38818,-0.77228 -0.48511,-1.09369c-0.15894,-0.52708 -0.42729,-1.07013 -0.42729,-1.07013c0,0 -0.45108,-0.12128 -0.57153,-0.15735c-0.22761,-0.06817 -0.61527,-0.52852 -0.61527,-0.52852c0,0 0.31429,-0.25749 0.46367,-0.42933c0.24563,-0.28258 0.51385,-0.81525 0.51385,-0.81525c0,0 -0.23164,-0.26594 -0.49842,-0.41168c-0.26678,-0.14574 -0.61436,-0.19625 -0.61436,-0.19625c0,0 0.41954,-1.23053 0.69742,-1.6739c0.64998,-1.03711 1.15433,-1.53768 2.10571,-2.24996c0.32814,-0.24568 0.88666,-1.67777 1.78552,-1.4475c0.21151,0.05418 0.42808,0.0906 0.63755,0.09148c0.21217,0.00089 0.60332,-0.19809 0.66581,-0.38501c0.08187,-0.24488 -0.19922,-0.69732 -0.19922,-0.69732c0,0 0.47116,0.06834 0.61729,0.04652c0.62297,-0.093 1.52087,-0.2463 2.15922,0.05995c0.50329,0.25315 0.77752,0.45733 1.32438,0.55722c0.54685,0.09989 1.91742,0.08416 2.75036,0.18707c1.67988,0.20754 2.41883,1.20303 3.57083,2.54585c0.63348,0.73841 1.3022,0.97962 1.95179,1.36056c0.5,0.29321 0.96423,0.7259 1.54251,1.18332c0.37142,0.2938 0.72901,0.27266 1.25483,0.34901c0.38618,0.05607 1.02062,0.24464 1.02062,0.24464c0,0 -0.25151,0.28465 -0.28732,0.5117c-0.06832,0.4331 0.15008,0.76153 0.27167,1.12923c0.13019,0.39371 0.17987,0.81482 0.60571,0.90335c0.38241,0.0795 1.10274,0.27223 1.10274,0.27223c0,0 -0.46208,0.56035 -0.52171,0.8949c-0.05394,0.30264 0.07818,0.74195 0.10274,1.08462c0.03788,0.52839 -0.00331,0.91666 -0.00331,0.91666c0,0 0.95219,0.12877 1.52748,0.35756c0.42722,0.1699 0.78404,0.45466 0.78404,0.45466c0,0 -0.89673,0.61292 -1.27298,1.19823c-0.40722,0.63348 -0.58468,1.8363 -0.58468,1.8363c0,0 0.20098,0.00311 0.29518,-0.0031c0.10619,-0.00699 0.31031,-0.03677 0.31031,-0.03677c0,0 -0.3434,1.09923 -0.83659,1.56385c-0.62142,0.58542 -1.41807,1.08013 -2.14583,1.16679c-0.67768,0.0807 -1.4935,-0.88544 -1.4935,-0.88544c0,0 -0.26564,0.34433 -0.50546,0.5084c-0.47262,0.32333 -1.17123,0.43292 -1.78892,0.46721c-0.14744,-0.00924 -0.68337,-0.02392 -0.77262,-0.13582c-0.02586,-0.03241 0.13375,-0.31426 0.17312,-0.66466c0.04225,-0.3759 -0.0345,-0.82089 -0.0345,-0.82089c0,0 -2.15856,0.09081 -3.53445,-0.02053c-0.98944,-0.08007 -1.47444,-0.86241 -1.47444,-0.86241z" fill="#ffffff" stroke-width="0.5"/></g></g></g></svg>