<svg version="1.1" xmlns="http://www.w3.org/2000/svg" xmlns:xlink="http://www.w3.org/1999/xlink" width="35.2443" height="35.24396" viewBox="0,0,35.2443,35.24396"><g transform="translate(-222.91345,-162.91345)"><g data-paper-data="{&quot;isPaintingLayer&quot;:true}" stroke="none" stroke-miterlimit="10" stroke-dasharray="" stroke-dashoffset="0" style="mix-blend-mode: normal"><path d="M258.15774,170.42694v20.49804c0,4.00745 -3.22497,7.23243 -7.23242,7.23243h-20.5c-3.66107,0 -6.66147,-2.69385 -7.1543,-6.21484c0.7952,3.03475 3.54108,5.26367 6.83204,5.26367h20.0332c3.9166,0 7.07032,-3.15372 7.07032,-7.07031v-20.03321c0,-3.2976 -2.23906,-6.0451 -5.28321,-6.83398c3.52994,0.48496 6.23438,3.49081 6.23438,7.15821z" fill-opacity="0.29839" fill="#000000" fill-rule="evenodd" stroke-width="4.54219" stroke-linecap="round" stroke-linejoin="round"/><path d="M229.98311,162.91345h20.03379c3.9166,0 7.06966,3.15307 7.06966,7.06966v20.03379c0,3.91659 -3.15306,7.06966 -7.06966,7.06966h-20.03379c-3.91659,0 -7.06966,-3.15307 -7.06966,-7.06966v-20.03379c0,-3.91659 3.15307,-7.06966 7.06966,-7.06966z" fill="#760c0c" fill-rule="evenodd" stroke-width="4.43922" stroke-linecap="round" stroke-linejoin="round"/><g fill-rule="nonzero" stroke-width="0" stroke-linecap="butt" stroke-linejoin="miter"><g><g><path d="M235.60064,178.12413l10.54294,-11.80927c0,0 2.41595,-0.74105 4.51868,0.83696c2.23712,1.67887 2.0663,4.1048 2.0663,4.1048l-8.39275,13.4229z" fill="#9b0f0f"/><path d="M240.9298,172.17328l4.08225,-4.57255c0,0 2.85513,0.27931 4.23211,1.27496c1.37699,0.99565 2.64619,3.69849 2.64619,3.69849l-3.29634,5.27199c0,0 -1.47922,-2.82204 -3.01858,-3.96157c-1.53937,-1.13952 -4.6456,-1.71132 -4.6456,-1.71132z" fill="#000000"/></g><g><path d="M229.47254,176.68569c2.46976,-2.98354 8.20842,-2.61096 13.13972,1.08978c4.9313,3.70074 7.00275,9.1822 4.67718,12.28108c-3.48391,4.64237 -9.02012,2.00181 -13.09883,-1.05909c0,0 -8.98013,-7.16311 -4.71807,-12.31176z" fill="#000000"/><path d="M228.21582,178.4453c2.32557,-3.09887 8.19928,-2.61782 13.1193,1.07445c4.92002,3.69227 7.02322,9.19758 4.69764,12.29644c-2.32557,3.09887 -8.19927,2.61782 -13.11929,-1.07446c-4.92002,-3.69227 -7.02322,-9.19757 -4.69765,-12.29644z" fill="#9b0f0f"/></g></g><g><path d="M229.63963,181.3641c2.11274,-2.81527 6.64353,-2.60587 10.34294,0.17039c3.69941,2.77625 5.16653,7.06804 3.05379,9.88331c-2.11274,2.81527 -6.8244,2.84688 -10.52381,0.07063c-3.69941,-2.77625 -4.98566,-7.30906 -2.87292,-10.12432z" fill="#000000"/><path d="M231.192,180.99539c1.75116,-2.33346 5.60463,-1.98255 8.85335,0.45548c3.24872,2.43804 4.66243,6.03994 2.91128,8.37339c-1.75116,2.33346 -5.80436,2.24869 -9.05307,-0.18933c-3.24872,-2.43804 -4.46272,-6.30607 -2.71155,-8.63953z" fill="#9b0f0f"/></g></g></g></g></svg>