<svg version="1.1" xmlns="http://www.w3.org/2000/svg" xmlns:xlink="http://www.w3.org/1999/xlink" width="34.17311" height="34.17311" viewBox="0,0,34.17311,34.17311"><g transform="translate(-222.91347,-162.9135)"><g data-paper-data="{&quot;isPaintingLayer&quot;:true}" stroke-miterlimit="10" stroke-dasharray="" stroke-dashoffset="0" style="mix-blend-mode: normal"><path d="M229.98315,162.9135h20.03378c3.9166,0 7.06966,3.15307 7.06966,7.06966v20.03379c0,3.91659 -3.15306,7.06966 -7.06966,7.06966h-20.03378c-3.91659,0 -7.06967,-3.15307 -7.06967,-7.06966v-20.03379c0,-3.91659 3.15308,-7.06966 7.06967,-7.06966z" fill-opacity="0.09677" fill="#191919" fill-rule="evenodd" stroke="none" stroke-width="4.43922" stroke-linecap="round" stroke-linejoin="round"/><g fill-rule="nonzero" stroke-width="0" stroke-linejoin="miter"><g><path d="M246.32811,192.77328c0,0 -6.68637,-4.59301 -9.94327,-7.45643c-3.34759,-2.94314 -9.86722,-8.87126 -9.86722,-8.87126c0,0 6.59617,-7.28684 8.1258,-6.70598c0.7662,0.29097 6.27723,4.40254 10.14766,7.52933c3.87044,3.12678 9.47818,7.906 9.47818,7.906z" data-paper-data="{&quot;index&quot;:null}" fill="#bfbfbf" stroke="#000000" stroke-linecap="round"/><path d="M247.62717,186.89436l-15.84078,-13.35727c0,0 1.17455,-1.41511 1.75789,-2.08459c1.36139,-1.56244 7.00185,0.06226 10.59984,3.19728c3.59799,3.13501 6.57439,8.62019 5.213,10.18264c-1.36139,1.56244 -1.72995,2.06195 -1.72995,2.06195z" fill="#ffffff" stroke="none" stroke-linecap="butt"/><path d="M231.8159,166.78282c0,0 6.25978,6.27149 9.7032,9.81011c3.44343,3.53861 10.21785,9.82368 10.66973,10.5696c0.45188,0.74593 -5.8565,6.05465 -5.8565,6.05465c0,0 -7.54656,-5.29521 -11.0444,-8.05716c-3.40308,-2.68713 -9.5572,-8.30085 -9.5572,-8.30085z" fill="#ffffff" stroke="#000000" stroke-linecap="round"/></g><path d="M226.78809,175.15164l0.51376,-0.87889c0,0 6.16236,5.88589 9.62139,8.69588c3.59394,2.91958 11.45849,8.42348 11.45849,8.42348l-0.66808,0.57955c0,0 -7.90257,-5.50895 -11.3779,-8.30342c-3.5305,-2.83883 -9.54767,-8.5166 -9.54767,-8.5166z" fill="#bfbfbf" stroke="none" stroke-linecap="butt"/></g></g></g></svg>