<svg version="1.1" xmlns="http://www.w3.org/2000/svg" xmlns:xlink="http://www.w3.org/1999/xlink" width="34.17311" height="34.17311" viewBox="0,0,34.17311,34.17311"><g transform="translate(-222.91348,-162.9135)"><g data-paper-data="{&quot;isPaintingLayer&quot;:true}" stroke="none" stroke-miterlimit="10" stroke-dasharray="" stroke-dashoffset="0" style="mix-blend-mode: normal"><path d="M229.98315,162.9135h20.03378c3.9166,0 7.06966,3.15307 7.06966,7.06966v20.03379c0,3.91659 -3.15306,7.06966 -7.06966,7.06966h-20.03378c-3.91659,0 -7.06967,-3.15307 -7.06967,-7.06966v-20.03379c0,-3.91659 3.15308,-7.06966 7.06967,-7.06966z" fill-opacity="0.09677" fill="#191919" fill-rule="evenodd" stroke-width="4.43922" stroke-linecap="round" stroke-linejoin="round"/><path d="M251.94158,180c0,6.66177 -5.34643,12.0622 -11.94157,12.0622c-6.59515,0 -11.94157,-5.40043 -11.94157,-12.0622c0,-6.66177 5.34643,-12.0622 11.94158,-12.0622c6.59515,0 11.94158,5.40043 11.94158,12.0622z" fill="#ffffff" fill-rule="nonzero" stroke-width="NaN" stroke-linecap="butt" stroke-linejoin="miter"/><path d="M243.27368,180c0,1.82627 -1.46568,3.30674 -3.27368,3.30674c-1.808,0 -3.27368,-1.48048 -3.27368,-3.30674c0,-1.82627 1.46568,-3.30674 3.27368,-3.30674c1.808,0 3.27368,1.48048 3.27368,3.30674z" fill="#bfbfbf" fill-rule="nonzero" stroke-width="NaN" stroke-linecap="butt" stroke-linejoin="miter"/></g></g></svg>