<svg version="1.1" xmlns="http://www.w3.org/2000/svg" xmlns:xlink="http://www.w3.org/1999/xlink" width="520.64245" height="404.13325" viewBox="0,0,520.64245,404.13325"><defs><radialGradient cx="238.4985" cy="180.00003" r="258.06897" gradientUnits="userSpaceOnUse" id="color-1"><stop offset="0" stop-color="#a73232"/><stop offset="1" stop-color="#742323"/></radialGradient><linearGradient x1="375.04135" y1="232.36132" x2="375.04135" y2="375.66343" gradientUnits="userSpaceOnUse" id="color-2"><stop offset="0" stop-color="#990f0f"/><stop offset="1" stop-color="#990f0f" stop-opacity="0"/></linearGradient><linearGradient x1="242.48109" y1="38.01049" x2="242.48109" y2="165.45627" gradientUnits="userSpaceOnUse" id="color-3"><stop offset="0" stop-color="#0c0c0c"/><stop offset="1" stop-color="#4b4b4b"/></linearGradient><linearGradient x1="374.04135" y1="232.36132" x2="374.04135" y2="375.66343" gradientUnits="userSpaceOnUse" id="color-4"><stop offset="0" stop-color="#990f0f"/><stop offset="1" stop-color="#990f0f" stop-opacity="0"/></linearGradient><linearGradient x1="241.48109" y1="38.01049" x2="241.48109" y2="165.45627" gradientUnits="userSpaceOnUse" id="color-5"><stop offset="0" stop-color="#0c0c0c"/><stop offset="1" stop-color="#4b4b4b"/></linearGradient><linearGradient x1="101.27713" y1="144.82108" x2="101.27713" y2="200.87712" gradientUnits="userSpaceOnUse" id="color-6"><stop offset="0" stop-color="#1d1d1d"/><stop offset="1" stop-color="#4b4b4b"/></linearGradient><linearGradient x1="238.04414" y1="228.62174" x2="238.04414" y2="366.75988" gradientUnits="userSpaceOnUse" id="color-7"><stop offset="0" stop-color="#742323" stop-opacity="0"/><stop offset="1" stop-color="#742323"/></linearGradient></defs><g transform="translate(19.57047,20.61887)"><g data-paper-data="{&quot;isPaintingLayer&quot;:true}" fill-rule="nonzero" stroke-linejoin="miter" stroke-miterlimit="10" stroke-dasharray="" stroke-dashoffset="0" style="mix-blend-mode: normal"><path d="M-19.57047,380.61891v-401.23777h520.64245v401.23779z" data-paper-data="{&quot;index&quot;:null}" fill="url(#color-1)" stroke="none" stroke-width="NaN" stroke-linecap="butt"/><g><g stroke="#b03535" stroke-width="15"><g><path d="M332.67954,310.97692c0,0 -0.40809,-60.69436 -0.49494,-73.68081c-0.06401,-9.5736 9.61385,-43.16875 47.20918,-43.35642c37.11061,-0.18525 46.80371,34.62661 46.79446,43.32779c-0.0376,22.70453 0.25243,71.94894 0.25243,71.94894l-11.89854,2.93014l-0.09829,-71.0749c0,0 0.08865,-3.63951 -3.30712,-3.70392c-4.03303,-0.07649 -3.45876,3.65867 -3.45876,3.65867c0,0 0.44769,32.51186 0.10608,59.79252c-0.12946,10.33929 -1.37794,19.92716 -1.33628,26.70895c0.11334,18.45608 2.05864,48.39021 2.05864,48.39021l-57.79156,0.08481c0,0 1.22347,-29.11487 1.2542,-47.31345c0.01246,-7.37819 -1.24742,-18.1467 -1.37386,-29.63782c-0.29891,-27.16433 0.34818,-58.36683 0.34818,-58.36683c0,0 0.32821,-3.42778 -3.38856,-3.44589c-3.65304,-0.01779 -3.30646,3.41603 -3.30646,3.41603l0.22478,73.24635z" fill="#ffffff" stroke-linecap="butt"/><path d="M397.22965,253.68255c-0.67068,0 -1.21435,-0.54369 -1.21435,-1.21435c0,-0.67068 0.54369,-1.21438 1.21435,-1.21438c0.67068,0 1.21435,0.5437 1.21435,1.21438c0,0.67068 -0.54369,1.21435 -1.21435,1.21435z" fill="#000000" stroke-linecap="butt"/><path d="M391.053,258.65639c-5.24148,-0.36918 -7.69453,-2.1066 -7.24525,-3.02983c0.13843,-0.28447 3.34259,1.24892 8.18531,1.53223c7.52604,0.44028 9.99367,-0.74184 9.99367,-0.74184v1.58079c0,0 -2.83418,1.22916 -10.93374,0.65866z" fill="#000000" stroke-linecap="butt"/><path d="M358.39248,252.46818c0,-0.67068 0.54369,-1.21438 1.21435,-1.21438c0.67068,0 1.21438,0.5437 1.21438,1.21438c0,0.67068 -0.5437,1.21435 -1.21438,1.21435c-0.67068,0 -1.21435,-0.54369 -1.21435,-1.21435z" fill="#000000" stroke-linecap="butt"/><path d="M365.78353,258.65639c-8.09956,0.57054 -10.93374,-0.65866 -10.93374,-0.65866v-1.58079c0,0 2.46762,1.18212 9.99367,0.74184c4.84273,-0.28332 8.0469,-1.81669 8.18533,-1.53223c0.44928,0.92321 -2.00376,2.66062 -7.24525,3.02983z" fill="#000000" stroke-linecap="butt"/><path d="M379.03018,325.06502c-0.96169,0 -1.7413,-0.77961 -1.7413,-1.7413c0,-0.96169 0.77961,-1.7413 1.7413,-1.7413c0.96169,0 1.7413,0.77961 1.7413,1.7413c0,0.96169 -0.77961,1.7413 -1.7413,1.7413z" data-paper-data="{&quot;index&quot;:null}" fill="#000000" stroke-linecap="butt"/><path d="M346.07548,375.89445c0,0 1.06841,-33.01346 1.71986,-52.42695c0.40535,-12.07944 -1.58746,-27.38525 -1.94398,-44.80661c-0.39736,-19.41739 0.81126,-40.396 0.81126,-40.396l4.11005,-36.78676c0,0 3.13913,-1.58879 5.46718,-3.22706c2.32806,-1.63826 6.07344,-3.29239 6.07344,-3.29239c0,0 -3.44404,7.2567 -1.47953,10.95001c3.15198,5.92576 18.57675,18.06144 18.57675,18.06144c0,0 14.90399,-10.86206 17.87657,-16.74468c2.21628,-4.38591 -1.63421,-12.26676 -1.63421,-12.26676c0,0 4.59475,1.78446 7.24055,3.46013c2.6458,1.67566 5.58237,4.23362 5.58237,4.23362l1.1743,34.44381c0,0 2.80215,19.1781 3.35212,40.09522c0.44614,16.96814 -1.39287,34.87988 -1.01047,46.22706c0.66342,19.68658 1.18125,52.47597 1.18125,52.47597z" fill="#b31212" stroke-linecap="butt"/><path d="M355.11515,342.08761c0,0 -14.97866,-6.86875 -20.65156,-15.9672c-5.67291,-9.09845 -7.7223,-18.46557 -10.12141,-27.55316c-1.59764,-6.05169 -0.14132,-26.07383 1.86149,-40.26051c1.94229,-13.75792 3.95157,-25.33249 5.42549,-28.95185c2.85395,-7.00815 7.10508,-15.94171 10.84214,-20.56756c4.31621,-5.34272 9.41452,-7.61562 9.41452,-7.61562c0,0 -0.65208,9.65972 -1.14489,19.98527c-0.69156,14.48999 -2.82193,33.76003 -3.4229,42.6908c-0.5568,8.27402 -1.2642,19.90008 -1.2642,19.90008c0,0 3.36997,16.20427 5.31922,18.71907c2.04516,2.63853 6.67784,6.15315 6.67784,6.15315z" fill="#740c0c" stroke-linecap="butt"/><path d="M400.04356,308.62009c0,0 5.69203,-2.91566 7.82104,-6.16806c2.12901,-3.25238 4.26702,-19.73555 4.26702,-19.73555c0,0 -0.82177,-12.11622 -1.35519,-20.04298c-0.60098,-8.93077 -2.73135,-28.2008 -3.4229,-42.6908c-0.49282,-10.32556 -0.8513,-19.10454 -0.8513,-19.10454c0,0 5.59646,2.88412 10.48211,9.24548c3.37386,4.39293 6.96875,11.88792 9.48097,18.05697c1.47392,3.61938 3.48319,15.19394 5.42549,28.95185c2.00281,14.18668 3.33883,34.06511 1.86149,46.71915c-0.93418,8.00158 -5.90885,19.70296 -11.59526,26.67695c-8.74684,10.72738 -19.1777,15.08195 -19.1777,15.08195z" data-paper-data="{&quot;index&quot;:null}" fill="#740c0c" stroke-linecap="butt"/><path d="M327.12321,140.41704c0,0 7.23755,-6.95405 7.38824,-7.97068c0.3952,-2.6664 -0.197,-47.17532 42.23689,-48.8201c52.4164,-1.07286 45.81515,41.50997 48.76967,49.54403c1.35662,3.68897 2.54683,7.19865 3.13941,10.23542c1.17698,6.03155 0.861,10.19757 0.861,10.19757c0,0 -1.60342,-2.29438 -2.73576,-3.68022c-1.13234,-1.38584 -3.28972,-3.69416 -3.28972,-3.69416c0,0 3.16016,11.21233 1.30456,23.36266c-1.8613,12.18754 -1.87468,9.97413 -3.3546,14.72641c-0.80382,2.58125 -1.77649,3.5326 -1.77649,3.5326l-0.78459,-1.89226c0,0 -0.41721,1.49357 -0.80897,2.27097c-0.41348,0.82045 -1.61031,2.52952 -1.61031,2.52952l-1.35657,-2.75649c0,0 -1.20091,2.58103 -2.53654,3.91364c-1.33564,1.33258 -4.0381,3.42042 -4.0381,3.42042l-0.1081,-4.34985c0,0 -8.29067,12.93837 -28.59496,12.76644c-19.14842,-0.3 -30.61575,-12.53587 -30.61575,-12.53587l-0.13645,3.11757l-3.20549,-4.49805c0,0 -0.4244,0.76624 -0.57475,1.1582c-0.155,0.40412 -0.34175,1.2311 -0.34175,1.2311c0,0 -2.81107,-4.12052 -4.05022,-7.9208c-1.93839,-5.94474 -2.89075,-9.49446 -2.89075,-15.74724c0,0 -2.74678,2.23019 -6.71352,3.25797c-4.97055,1.28789 -12.66194,0.40544 -12.66194,0.40544c0,0 8.74131,-3.19077 11.06174,-5.60128c2.06685,-2.14709 3.10787,-3.96587 3.10787,-3.96587c0,0 -2.47493,1.27377 -4.97054,1.89995c-2.60388,0.65338 -9.23702,0.62348 -9.23702,0.62348c0,0 10.34655,-5.91528 12.76069,-12.76966c2.27934,-6.47166 2.4657,-12.86716 2.4657,-12.86716c0,0 -1.59898,0.77695 -3.91056,0.93372c-1.46524,0.09938 -2.79231,-0.05742 -2.79231,-0.05742z" fill="#000000" stroke-linecap="butt"/><path d="M417.06203,202.97785c5.46223,4.0131 0.82598,8.40334 0.82598,8.40334c0,0 -3.22801,-3.79765 -5.26035,-5.40767c-1.6401,-1.29929 -12.72123,6.93716 -17.25159,11.79023c-4.80884,5.15138 -16.0442,14.98969 -16.0442,14.98969c0,0 -10.46266,-8.2197 -15.15847,-13.29547c-4.76571,-5.1513 -16.64033,-14.65951 -18.31922,-13.06308c-1.85593,1.76478 -5.56775,5.57346 -5.56775,5.57346c0,0 -1.98864,-6.54499 6.53171,-12.77723c5.73196,-4.19266 22.59895,-4.59858 33.10088,-4.83725c14.28545,-0.32466 30.84353,3.99575 37.14302,8.624z" fill="#bf1313" stroke-linecap="round"/><path d="M408.89756,201.07143c2.90521,1.54097 0.67912,2.12506 -1.13222,3.57073c-1.53562,1.22562 -9.45427,4.22687 -13.4903,7.34819c-8.82393,6.82411 -19.00388,7.95215 -27.79799,1.08966c-4.2457,-3.31313 -13.94552,-7.69733 -16.32032,-8.40171c-2.3748,-0.70438 -2.44413,-2.88906 0.85878,-4.63321c5.10651,-2.69656 20.13306,-2.95763 29.48908,-3.11114c12.7267,-0.20883 25.48774,2.59653 28.39297,4.13748z" fill="#740c0c" stroke-linecap="round"/><path d="M346.83485,153.712c-0.67768,-8.56444 0.39339,-20.14449 0.39339,-20.14449c0,0 4.00505,-0.04843 16.33953,-3.69227c9.47612,-2.79946 24.12869,-11.14084 24.12869,-11.14084c0,0 -2.53654,3.5288 -4.00179,5.23755c-1.55772,1.81659 -4.68888,5.35829 -4.68888,5.35829c0,0 9.20415,-1.95828 17.23255,-5.55363c10.06183,-4.15203 12.43878,-7.10814 15.20767,-5.39321c3.26795,2.02404 1.2096,27.22343 0.84369,33.75008c-0.49512,6.65736 -2.97482,11.15547 -3.69941,14.70284c-0.72459,3.54737 -0.48099,7.20622 -2.59077,18.8354c-1.31663,7.25742 -4.88723,10.48022 -11.76579,17.21617c-6.87856,6.73596 -10.63184,10.8655 -15.28185,10.9465c-4.47499,0.07796 -10.49313,-5.98916 -16.36435,-12.19209c-6.25189,-6.60512 -10.42177,-9.95469 -11.40891,-17.77859c-0.88902,-7.04626 -0.91188,-11.63558 -1.31834,-17.90612c-0.29708,-4.58297 -2.65531,-7.56841 -3.02542,-12.2456z" fill="#ffffff" stroke-linecap="butt"/><path d="M403.43315,137.03374c0,0 1.73664,0.57238 4.81931,1.85741c2.81568,1.17374 4.9615,2.62243 4.9615,2.62243l0.07314,1.39138c0,0 -8.04604,-4.60932 -17.31176,-4.87843c-7.40866,-0.21516 -11.99689,1.9663 -11.99689,1.9663l0.60481,-4.86771c0,0 3.87431,-1.57567 9.42072,-1.12701c5.74327,0.4646 9.36277,1.75806 9.36277,1.75806z" data-paper-data="{&quot;index&quot;:null}" fill="#000000" stroke-linecap="butt"/><path d="M388.29451,186.43645c0.66982,0.24878 3.62103,1.64334 7.0738,3.04831c3.48027,1.41617 7.76637,3.63204 7.74347,3.8288c-0.02907,0.24972 -11.54896,-0.67294 -15.3591,-0.197c-3.19294,0.39884 -7.8545,0.82863 -7.8545,0.82863c0,0 -8.34223,-1.36417 -15.58571,-2.87141c-5.80539,-1.20799 -10.333,1.45486 -10.34551,1.34503c-0.0169,-0.14812 2.66373,-4.24006 6.13474,-5.04323c1.34557,-0.58317 6.38785,-1.74398 6.38785,-1.74398c0,0 5.81965,-0.32606 8.93437,0.67992c3.3374,1.0779 3.32968,2.87182 3.62049,2.89942c0,0 1.39079,-2.05423 2.78175,-2.47144c1.39097,-0.41721 5.96801,-0.48889 6.46837,-0.30306z" fill="#ffffff" stroke-linecap="butt"/><path d="M366.39621,191.78368c5.97852,1.2057 13.99478,3.29668 13.99478,3.29668c0,0 6.79891,-1.82704 9.91904,-2.15413c2.41896,-0.2536 12.70122,0.34461 12.75319,0.78235c0.05082,0.428 -10.1356,13.97455 -24.36445,13.44237c-16.16956,-0.51174 -24.91228,-14.89668 -24.86784,-15.09529c0.04444,-0.19861 6.58676,-1.47768 12.56528,-0.27197z" fill="#ffffff" stroke-linecap="butt"/><path d="M384.12637,156.27395c1.95667,4.71713 6.85864,7.77149 12.18507,7.1608c5.32641,-0.61069 9.40987,-4.69526 10.24815,-9.73284c0.25681,0.7607 0.43773,1.55992 0.53288,2.3898c0.72643,6.33588 -3.82093,12.06101 -10.15681,12.78744c-6.33588,0.72643 -12.06101,-3.82093 -12.78744,-10.15681c-0.09516,-0.82989 -0.09981,-1.64931 -0.02184,-2.44839z" data-paper-data="{&quot;index&quot;:null}" fill="#b7b7b7" stroke-linecap="butt"/><path d="M379.28329,188.26823c-1.21394,0 -4.15478,-3.82871 -4.44671,-6.29859c-0.2612,-2.20987 1.54435,-4.4952 4.44671,-4.4952c2.90239,0 4.93452,0.57631 4.73241,4.91859c-0.17153,3.68516 -1.83004,5.87521 -4.73241,5.87521z" fill="#ffffff" stroke-linecap="butt"/><path d="M383.51321,152.92917c0,0 0.12048,4.66168 0.00676,8.36879c-0.22516,7.34069 -1.26997,32.59937 -1.26997,32.59937l-3.50137,0.01014c0,0 -0.9429,-4.90005 -1.319,-11.1556c-0.50909,-8.46744 -0.52784,-19.1331 -0.8965,-23.05418c-0.34945,-3.71681 -1.05209,-6.71057 -1.05209,-6.71057" fill="#ffffff" stroke-linecap="round"/><path d="M374.68801,158.33794c-0.41706,6.36374 -5.91396,11.18447 -12.27769,10.76742c-6.36374,-0.41706 -11.18447,-5.91396 -10.76742,-12.27769c0.05462,-0.83356 0.1964,-1.64062 0.41587,-2.41292c1.08257,4.99079 5.36009,8.87168 10.70993,9.22227c5.34984,0.3506 10.09725,-2.93884 11.82192,-7.74564c0.11679,0.79433 0.15203,1.61301 0.09741,2.44654z" fill="#b7b7b7" stroke-linecap="butt"/><path d="M348.83079,165.59972c0,0 -5.79177,-4.13007 -7.23858,-10.53935c-1.52231,-6.74381 -1.71587,-11.42922 0.56382,-11.73351c2.27968,-0.30432 3.17438,2.79122 4.38321,9.81208c1.20882,7.02086 2.29156,12.46081 2.29156,12.46081z" data-paper-data="{&quot;index&quot;:null}" fill="#ffffff" stroke-linecap="butt"/><path d="M348.59285,160.96408c0,0 -4.18502,-3.43292 -5.07082,-9.92355c-0.49414,-3.62068 2.53267,-2.67759 2.53267,-2.67759" fill="none" stroke-linecap="round"/><path d="M352.13153,153.14807c0.0833,-5.74453 5.68166,-10.49364 11.99121,-10.40217c6.30954,0.09148 10.60068,4.9889 10.5174,10.73343c-0.0833,5.74453 -4.84225,10.32724 -11.15179,10.23578c-6.30954,-0.09148 -11.4401,-4.82249 -11.35682,-10.56703z" fill="#ffffff" stroke-linecap="butt"/><path d="M358.55877,153.55217c0.03923,-2.70654 2.26513,-4.86878 4.97164,-4.82955c2.70654,0.03923 4.86878,2.26513 4.82955,4.97164c-0.03923,2.70654 -2.26512,4.86878 -4.97164,4.82955c-2.70654,-0.03923 -4.86878,-2.26513 -4.82955,-4.97164z" fill="#000000" stroke-linecap="butt"/><path d="M383.90369,153.14891c0.23901,-5.74017 5.22873,-10.40249 11.47346,-10.40249c6.24473,0 10.89108,4.65735 10.89108,10.40249c0,5.74514 -4.56315,10.65212 -11.39028,10.7353c-6.49384,0.07914 -11.22386,-4.74055 -10.97426,-10.7353z" fill="#ffffff" stroke-linecap="butt"/><path d="M390.31522,153.24937c0,-2.75381 2.23239,-4.9862 4.9862,-4.9862c2.75381,0 4.9862,2.23239 4.9862,4.9862c0,2.75381 -2.23239,4.9862 -4.9862,4.9862c-2.75381,0 -4.9862,-2.23239 -4.9862,-4.9862z" fill="#000000" stroke-linecap="butt"/><path d="M352.05117,152.52311c0,0 0.07465,-10.58645 12.44888,-10.36307c11.12179,0.19477 11.22106,11.0469 11.22106,11.0469c0,0 -4.46673,-5.07156 -11.71169,-4.94168c-7.24497,0.12986 -11.95824,4.25786 -11.95824,4.25786z" fill="#ffffff" stroke-linecap="butt"/><path d="M383.46021,152.67683c0,0 -0.28988,-11.10676 13.14996,-10.68988c11.40746,0.3916 11.21076,11.33468 11.21076,11.33468c0,0 -5.09282,-5.32705 -12.09169,-5.40369c-6.99887,-0.07664 -12.26903,4.7589 -12.26903,4.7589z" fill="#ffffff" stroke-linecap="butt"/><path d="M356.17725,138.60288c0,0 3.84782,-2.32689 9.29026,-3.13729c0.97993,-0.14592 3.14563,-0.34402 3.14563,-0.34402l0.87218,1.87142l0.43921,-1.94937l4.6505,-0.1016l0.58356,4.83589c0,0 -4.53775,-0.5782 -9.43413,-0.15108c-6.5483,0.57123 -7.71152,2.06204 -12.67338,2.8436c-4.25159,0.66969 -7.89296,0.57296 -7.89296,0.57296l-0.10105,-1.44299c0,0 4.221,-0.11956 6.13467,-0.38054c1.57946,-0.21541 4.60924,-1.32844 4.60924,-1.32844z" fill="#000000" stroke-linecap="butt"/><path d="M412.51671,153.13892c1.20882,-7.02086 2.10352,-10.11639 4.38321,-9.81208c2.27968,0.30431 2.08613,4.98971 0.56382,11.73351c-1.4468,6.40929 -7.23858,10.53935 -7.23858,10.53935c0,0 1.08274,-5.43994 2.29156,-12.46081z" data-paper-data="{&quot;index&quot;:null}" fill="#ffffff" stroke-linecap="butt"/><path d="M413.00115,148.36297c0,0 3.0268,-0.9431 2.53267,2.67759c-0.88578,6.49062 -5.07082,9.92355 -5.07082,9.92355" data-paper-data="{&quot;index&quot;:null}" fill="none" stroke-linecap="round"/><path d="M406.20161,172.12464c0.86822,-0.94913 2.64366,1.59541 1.32652,2.71078c0.1111,0.85722 -0.63595,1.949 -0.88993,3.04216c0.13641,1.37293 0.08781,2.78334 -0.27786,3.89754v0.51603c0,0.32427 -0.26287,0.58715 -0.58715,0.58715c-0.00207,0 -0.00414,-0.00001 -0.00621,-0.00003c0.19583,0.78966 0.39967,1.47773 0.56323,1.96724c0,0 0.18567,0.55701 -0.37135,0.74269c-0.13331,0.04444 -0.24533,0.04634 -0.33866,0.02351c-0.06472,0.52965 -0.29513,0.8032 -0.74504,1.0082l0.04941,0.07411l-0.58046,0.38698c-0.09451,0.065 -0.20899,0.10307 -0.33237,0.10307c-0.32427,0 -0.58715,-0.26287 -0.58715,-0.58715c0,-0.12337 0.03806,-0.23787 0.10307,-0.33237l0.31101,-0.46653c-0.04214,-0.6783 -0.11388,-1.33505 -0.16358,-2.00243c-0.21752,-0.56234 -0.45798,-1.12069 -0.44579,-1.72268c0.01763,-0.87023 0.78055,-1.19538 1.00335,-1.90906c0.00966,-0.03095 0.01914,-0.06191 0.02843,-0.0929c-0.04303,-0.7877 -0.05363,-1.6006 -0.05363,-2.47699c0,-0.6474 -0.42489,-2.29553 -0.12624,-2.82137c0.22989,-0.40478 0.72382,-0.63933 1.23273,-0.80393c0.0727,-0.60543 0.33918,-1.26054 0.55785,-1.59331c0,0 0.12244,-0.18368 0.3298,-0.25071z" fill="#000000" stroke-linecap="butt"/><path d="M402.0546,184.24831c0,-0.32427 0.26287,-0.58715 0.58715,-0.58715c0.32427,0 0.58715,0.26287 0.58715,0.58715c0,0.32427 -0.26287,0.58715 -0.58715,0.58715c-0.32427,0 -0.58715,-0.26287 -0.58715,-0.58715z" fill="#000000" stroke-linecap="butt"/><path d="M403.05642,170.94858c-0.07813,-0.23356 0.03874,-0.4673 0.03874,-0.4673l0.90654,-0.68587c1.38107,0.73053 1.13593,1.7463 -0.38139,1.92703c0,0 -0.58715,0 -0.58715,-0.58715c0,-0.07033 0.00842,-0.13223 0.02325,-0.18671z" fill="#000000" stroke-linecap="butt"/><path d="M376.54859,159.69517c-0.26259,-0.52516 0.26259,-0.78774 0.26259,-0.78774l0.10957,0.03172c0.31966,-0.15962 -0.70389,-0.91194 -1.00654,-1.36171c0,0 -0.32569,-0.48854 0.16285,-0.81423c0.48854,-0.32569 0.81423,0.16285 0.81423,0.16285c0.72678,1.10261 1.69075,1.25754 1.00654,2.66448l-0.56147,0.36723c0,0 -0.52516,0.26259 -0.78774,-0.26259z" fill="#000000" stroke-linecap="butt"/><path d="M379.33069,232.74845l0.58778,-0.38713l0.33874,143.30213l-1.42269,-143.21179z" fill="url(#color-2)" stroke-linecap="round"/><path d="M353.77383,347.39353l3.69285,-41.88333c0,0 13.39809,-1.95717 20.51019,-1.95717c7.70905,0 24.09772,1.95717 24.09772,1.95717l3.36838,41.10047c0,0 -17.94091,2.62043 -26.69029,2.75299c-8.46422,0.12824 -24.97886,-1.97014 -24.97886,-1.97014z" fill="#990f0f" stroke-linecap="butt"/></g><g><path d="M192.24281,365.56582c0,0 -0.81076,-127.96622 -1.01237,-160.0014c-0.06957,-11.05336 10.44689,-51.19699 51.29989,-51.41366c40.32627,-0.21388 50.85928,41.33451 50.84923,51.38062c-0.09774,62.69619 0.83491,159.96678 0.83491,159.96678l-13.39431,0.13035l-0.20265,-155.70498c0,0 0.09633,-5.55786 -3.59369,-5.63222c-4.38249,-0.08832 -3.75846,5.57998 -3.75846,5.57998l0.2622,155.74137l-61.52317,0.09792l-0.38969,-156.23372c0,0 0.35664,-5.3134 -3.68218,-5.33432c-3.96958,-0.02054 -3.59297,5.29983 -3.59297,5.29983l0.45059,156.00826z" fill="#000000" stroke-linecap="butt"/><path d="M262.83186,168.53945l-20.41684,93.55062l-23.60698,-96.26223z" fill="#990f0f" stroke-linecap="round"/><path d="M238.56287,191.87376l-5.67844,-21.5965l17.86475,0.41005l-4.7852,21.18645l3.82714,35.9196l-6.69826,44.12415l-8.85133,-45.21228z" fill="#740c0c" stroke-linecap="butt"/><path d="M208.23907,366.48927l0.63803,-162.96988l-10.20842,-28.91469c0,0 4.8118,-6.91307 8.18844,-9.54417c2.70883,-2.11073 14.97919,-5.02813 14.97919,-5.02813l20.71224,85.05644l19.77548,-84.86277c0,0 11.72515,2.80272 14.27538,5.05587c2.84277,2.5116 7.74138,9.32277 7.74138,9.32277l-8.29435,29.59912l1.27606,162.28547z" fill="#0c0c0c" stroke-linecap="butt"/><path d="M208.23906,366.48927l0.63802,-162.96988l-10.20842,-28.91469c0,0 4.81181,-6.91307 8.18843,-9.54416c2.70883,-2.11075 14.9792,-5.02814 14.9792,-5.02814l20.71224,86.41224l2.41324,120.04464z" fill="#151515" stroke-linecap="butt"/><path d="M239.05142,294.9232c-1.04501,0 -1.89218,-0.90011 -1.89218,-2.01044c0,-1.11034 0.84716,-2.01044 1.89218,-2.01044c1.04501,0 1.89218,0.90011 1.89218,2.01044c0,1.11034 -0.84716,2.01044 -1.89218,2.01044z" data-paper-data="{&quot;index&quot;:null}" fill="#b31212" stroke-linecap="butt"/><path d="M239.58311,334.01556c-1.04501,0 -1.89218,-0.90011 -1.89218,-2.01044c0,-1.11034 0.84716,-2.01044 1.89218,-2.01044c1.04501,0 1.89219,0.90011 1.89219,2.01044c0,1.11034 -0.84716,2.01044 -1.89219,2.01044z" data-paper-data="{&quot;index&quot;:null}" fill="#990f0f" stroke-linecap="butt"/><path d="M238.51973,257.18656c-1.04501,0 -1.89219,-0.90011 -1.89219,-2.01044c0,-1.11034 0.84716,-2.01044 1.89219,-2.01044c1.04501,0 1.89218,0.90011 1.89218,2.01044c0,1.11034 -0.84716,2.01044 -1.89218,2.01044z" data-paper-data="{&quot;index&quot;:null}" fill="#c01313" stroke-linecap="butt"/><path d="M224.68919,167.35482l17.43939,76.60304l-28.49851,-45.4195l9.35772,-4.97129l-14.03658,-15.3658z" fill="#232323" stroke-linecap="round"/><path d="M276.15666,176.84547l-14.03658,15.3658l9.35773,4.97129l-28.49851,46.09741l17.43938,-77.28094z" data-paper-data="{&quot;index&quot;:null}" fill="#151515" stroke-linecap="round"/><path d="M283.46764,173.91871c0,0 14.99435,19.26988 16.85756,34.77732c3.99887,33.28222 6.11138,159.10294 6.11138,159.10294h-33.17737c0,0 0.11941,-155.69618 0.63803,-165.40834c0.51862,-9.71215 9.5704,-28.47193 9.5704,-28.47193z" data-paper-data="{&quot;index&quot;:null}" fill="#000000" stroke-linecap="round"/><path d="M208.81854,202.39063c0.51862,9.71214 0.63803,165.40834 0.63803,165.40834h-33.17737c0,0 2.11251,-125.82073 6.11138,-159.10294c1.86322,-15.50744 16.85758,-34.77732 16.85758,-34.77732c0,0 9.05178,18.75979 9.5704,28.47193z" fill="#000000" stroke-linecap="round"/><path d="M171.30128,102.07234c0,-39.49872 32.02004,-71.51877 71.51877,-71.51877c39.49872,0 71.51877,32.02004 71.51877,71.51877c0,39.49872 -32.02004,71.51877 -71.51877,71.51877c-39.49872,0 -71.51877,-32.02004 -71.51877,-71.51877z" fill="#2b2b2b" stroke-linecap="butt"/><path d="M178.75821,101.73338c0,-35.19317 28.52971,-63.72288 63.72288,-63.72288c35.19317,0 63.72288,28.52971 63.72288,63.72288c0,35.19319 -28.5297,63.72288 -63.72288,63.72288c-35.19317,0 -63.72288,-28.5297 -63.72288,-63.72288z" fill="url(#color-3)" stroke-linecap="butt"/><path d="M182.82563,101.73338c0,-32.94681 26.70866,-59.65547 59.65547,-59.65547c32.94681,0 59.65547,26.70866 59.65547,59.65547c0,32.94681 -26.70866,59.65547 -59.65547,59.65547c-32.94681,0 -59.65547,-26.70866 -59.65547,-59.65547z" fill="#da1616" stroke-linecap="butt"/><path d="M199.7732,101.73338c0,-23.58692 19.12097,-42.70789 42.70789,-42.70789c23.58692,0 42.70789,19.12097 42.70789,42.70789c0,23.58692 -19.12097,42.70789 -42.70789,42.70789c-23.58692,0 -42.70789,-19.12097 -42.70789,-42.70789z" fill="#c01313" stroke-linecap="butt"/><path d="M236.88994,102.43935c0,11.85586 -12.42385,21.46694 -24.40451,21.46694c-11.98066,0 -21.6929,-9.61106 -21.6929,-21.46694c0,-2.68324 0.49749,-4.88112 1.40615,-6.67588c0,0 7.74312,0.80128 16.78331,1.88472c12.67839,1.51945 27.90797,3.59385 27.90797,4.79116z" fill="#efefef" stroke-linecap="butt"/><g stroke-linecap="butt"><path d="M222.49792,103.67707c0,6.36472 -3.03507,11.52435 -6.77903,11.52435c-3.74396,0 -6.77903,-5.15963 -6.77903,-11.52435c0,-1.87591 0.26366,-3.64713 0.7314,-5.21242c1.31924,0.42815 2.72714,0.65953 4.18907,0.65953c0.54231,0 1.07719,-0.03183 1.60286,-0.09375c1.2117,0.35517 2.49379,0.54568 3.82036,0.54568c0.92791,0 1.83405,-0.09321 2.70958,-0.2708c0.32537,1.34813 0.50478,2.82432 0.50478,4.37174z" fill="#000000"/><path d="M219.54705,103.90306c0,4.24316 -1.66631,7.68289 -3.72181,7.68289c-2.05551,0 -3.72182,-3.43975 -3.72182,-7.68289c0,-1.82102 0.30691,-3.49405 0.81977,-4.81073c0.30965,0.02114 0.62215,0.03188 0.93715,0.03188c0.54231,0 1.07719,-0.03183 1.60286,-0.09375c1.09434,0.32077 2.24607,0.50723 3.43614,0.54034c0.40867,1.23335 0.6477,2.72518 0.6477,4.33226z" fill="#fdfdfd"/></g><path d="M291.97573,95.76347c0.90866,1.79476 1.40615,3.99265 1.40615,6.67588c0,11.85586 -9.71225,21.46694 -21.6929,21.46694c-11.98066,0 -24.40451,-9.61106 -24.40451,-21.46694c0,-2.05105 44.69126,-6.67588 44.69126,-6.67588z" data-paper-data="{&quot;index&quot;:null}" fill="#efefef" stroke-linecap="butt"/><g data-paper-data="{&quot;index&quot;:null}" stroke-linecap="butt"><path d="M260.06142,99.75726c0.87553,0.17758 1.78166,0.2708 2.70958,0.2708c1.32657,0 2.60865,-0.19052 3.82036,-0.54568c0.52567,0.06191 1.06055,0.09375 1.60287,0.09375c1.46194,0 2.86983,-0.23138 4.18907,-0.65955c0.46774,1.56529 0.7314,3.3365 0.7314,5.21242c0,6.36472 -3.03508,11.52435 -6.77903,11.52435c-3.74396,0 -6.77903,-5.15963 -6.77903,-11.52435c0,-1.54742 0.17941,-3.02361 0.50478,-4.37174z" fill="#740c0c"/><path d="M263.15521,100.02274c1.19007,-0.03311 2.3418,-0.21959 3.43614,-0.54036c0.52567,0.06191 1.06055,0.09375 1.60287,0.09375c0.31501,0 0.62751,-0.01075 0.93715,-0.03189c0.51286,1.31668 0.81977,2.98972 0.81977,4.81074c0,4.24316 -1.66631,7.68289 -3.72182,7.68289c-2.05551,0 -3.72182,-3.43975 -3.72182,-7.68289c0,-1.60708 0.23903,-3.09891 0.64771,-4.33225z" fill="#fdfdfd"/></g><path d="M241.23653,103.81565l-55.58055,-6.49643l-1.38479,-6.42938l59.25544,10.93923z" fill="#740c0c" stroke-linecap="round"/><path d="M240.31117,101.82907l59.25544,-10.93923l-1.38478,6.42938l-55.58055,6.49643z" data-paper-data="{&quot;index&quot;:null}" fill="#000000" stroke-linecap="round"/><path d="M238.63963,102.63726c0,-1.87197 1.51754,-3.38952 3.38952,-3.38952c1.87197,0 3.38952,1.51754 3.38952,3.38952c0,1.87197 -1.51754,3.38952 -3.38952,3.38952c-1.87197,0 -3.38952,-1.51754 -3.38952,-3.38952z" fill="#000000" stroke-linecap="butt"/><path d="M217.63574,155.91635l8.54156,-17.52379l30.73162,0.0339l9.17429,18.34857c0,0 -7.93498,4.47771 -24.13885,4.76569c-14.96455,0.26595 -24.30861,-5.62436 -24.30861,-5.62436z" fill="#000000" stroke-linecap="round"/><path d="M217.63574,155.91635l8.54156,-17.52379l30.73162,0.0339l9.17429,18.34857c0,0 -7.93498,4.47771 -24.13885,4.76569c-14.96455,0.26595 -24.30861,-5.62436 -24.30861,-5.62436z" fill="#740c0c" stroke-linecap="round"/></g><g><path d="M136.16139,169.10217c0,0 12.75463,15.06663 8.9533,22.1886c-3.92136,7.34687 -20.24223,12.45676 -20.24223,12.45676l-46.33447,1.94636c0,0 -17.998,-8.44898 -20.6315,-16.3495c-2.63351,-7.90052 9.34257,-17.51732 9.34257,-17.51732" data-paper-data="{&quot;index&quot;:null}" fill="none" stroke-linecap="round"/><g><g><path d="M55.48806,372.37153c0,0 -0.74199,-110.22348 -0.92649,-137.81693c-0.06366,-9.52079 9.56081,-42.93061 46.94876,-43.11724c36.90589,-0.18422 46.54552,34.43559 46.53632,43.08878c-0.08944,54.00325 0.76409,137.78711 0.76409,137.78711l-12.25823,0.11227l-0.18547,-134.11622c0,0 0.08816,-3.61943 -3.28888,-3.68348c-4.01078,-0.07607 -3.43968,3.63849 -3.43968,3.63849l0.23996,136.09393l-56.30493,0.08434l-0.35664,-136.51801c0,0 0.32639,-3.40887 -3.36986,-3.42689c-3.63289,-0.01769 -3.28822,3.39718 -3.28822,3.39718l0.41237,134.37745z" fill="#2b2b2b" stroke-linecap="butt"/><path d="M95.13477,374.27425v-65.39799l14.76807,-8.75866v74.15665z" fill="#4b4b4b" stroke-linecap="butt"/><path d="M136.75325,206.31216c0,0 12.77545,11.76346 14.59776,21.02078c0.77101,3.91672 1.54046,31.44911 3.09816,61.19689c0.97912,18.6985 2.79949,37.9191 3.47048,53.80498c0.78458,18.57485 0.73024,31.5597 0.73024,31.5597l-27.73575,-0.21786l1.20966,-135.67484z" data-paper-data="{&quot;index&quot;:null}" fill="#0c0c0c" stroke-linecap="round"/><path d="M71.48927,315.68313v-36.78637h60.43475v23.94033c0,0 -7.49854,0.86743 -15.61192,3.13567c-7.33997,2.05201 -15.66103,5.46252 -20.73106,6.56144c-8.65469,1.87589 -24.09177,3.14892 -24.09177,3.14892z" fill="#990f0f" stroke-linecap="butt"/><path d="M71.02231,238.00178l1.20966,135.67484l-27.73575,0.21786c0,0 -0.05435,-12.98485 0.73023,-31.5597c0.671,-15.88587 2.49136,-35.10647 3.47048,-53.80497c1.5577,-29.74778 2.32715,-57.28016 3.09816,-61.19689c1.8223,-9.25732 14.59776,-21.02078 14.59776,-21.02078z" fill="#0c0c0c" stroke-linecap="round"/><path d="M71.19804,279.50597l-6.71497,-73.95411l17.12144,-15.14483h38.70283l16.74223,13.97701l-4.37933,74.93292l-29.8629,8.2589z" fill="#740c0c" stroke-linecap="butt"/><path d="M71.26065,300.21976l0.58204,73.45691l-27.73575,0.21786c0,0 -0.05435,-12.98485 0.73023,-31.5597c0.33943,-8.03581 2.06971,-22.24043 2.84147,-33.184c0.6063,-8.59728 0.32297,-15.18193 0.32297,-15.18193c0,0 0.21131,-3.62974 0.30605,-5.43903z" fill="#740c0c" stroke-linecap="round"/><path d="M154.83849,288.14053c0.09473,1.80928 0.30605,5.43903 0.30605,5.43903c0,0 -0.28334,6.58465 0.32296,15.18192c0.77177,10.94357 2.50206,25.1482 2.84147,33.184c0.78458,18.57485 0.73023,31.5597 0.73023,31.5597l-27.73575,-0.21786l0.58204,-72.28909z" data-paper-data="{&quot;index&quot;:null}" fill="#740c0c" stroke-linecap="round"/></g><path d="M64.77502,205.8438l17.12144,-15.14483h38.70283l16.74223,13.97701l-22.8064,39.04929l-26.55797,0.5615z" fill="#990f0f" stroke-linecap="butt"/></g><path d="M56.87557,130.2833c0.29315,-1.97789 -1.71175,-27.10701 15.65317,-40.42883c0.75099,-0.57613 2.45666,-1.1348 2.45666,-1.1348c0,0 16.86793,-1.95301 26.22971,-2.31587c11.475,-0.23487 18.6957,-2.90561 28.08568,3.69433c17.59523,12.36718 18.47557,35.00139 18.07932,40.9051c-0.44142,6.5766 -0.91792,14.54211 -0.08018,23.89459c0.35482,3.96124 0.39712,8.61073 -0.40279,13.26003c-1.82449,11.07209 -8.52255,20.11622 -8.52255,20.11622l-1.34909,-2.74129c0,0 -1.19428,2.5668 -2.52255,3.89204c-1.32828,1.32523 -4.01582,3.40155 -4.01582,3.40155l-0.1075,-4.32585c0,0 -8.24493,12.867 -28.43722,12.69601c-19.04278,-0.29834 -30.44686,-12.46672 -30.44686,-12.46672l-0.1357,3.10038c0,0 -4.54839,-3.84535 -7.21883,-11.33667c-1.47597,-4.14051 -3.45266,-9.50081 -3.45266,-9.50081c0,0 -0.12633,1.81463 -0.08767,2.84173c0.04578,1.2162 0.34461,3.98449 0.34461,3.98449c0,0 -2.02378,-2.66317 -2.78581,-4.17563c-0.82262,-1.63271 -1.98206,-5.2875 -1.98206,-5.2875l-1.3036,2.45826c0,0 -1.12558,-3.26356 -1.10298,-5.00989c0.02477,-1.9137 1.24569,-6.01622 1.24569,-6.01622l1.3031,-22.67488l-1.63365,4.40576c0,0 -0.81808,-3.84406 -0.30988,-5.70685c0.66538,-2.43892 2.49948,-5.52868 2.49948,-5.52868z" fill="#000000" stroke-linecap="butt"/><path d="M53.95123,160.57155c0,0 -0.42621,-6.80994 -0.00881,-11.13569c0.4174,-4.32576 2.14982,-11.05291 2.14982,-11.05291l14.05278,-16.64146l60.95301,-0.45428l16.6375,13.61224c0,0 1.53642,7.73683 1.5826,12.75105c0.04618,5.01424 -1.35634,11.81341 -1.35634,11.81341l-22.03408,-8.1447l-50.99464,-0.47952z" fill="#740c0c" stroke-linecap="butt"/><path d="M76.48438,200.47552l-8.59644,-47.56435l-1.17187,-45.06896l7.06419,-19.08857l9.79537,-6.55052l33.86602,0.28038l9.6691,5.44648l7.0393,18.11433l-1.30199,47.47804l-8.44047,46.34671l-9.50076,6.54362l-29.38984,-0.1058z" fill="#2b2b2b" stroke-linecap="butt"/><path d="M89.63718,201.15693l0.29196,-56.05541h22.13994l0.29196,56.05541z" fill="#0c0c0c" stroke-linecap="butt"/><path d="M84.07602,120.22122c5.44824,-0.05372 10.90134,8.72202 10.90134,8.72202c0,0 -5.7797,7.57185 -11.30438,7.62632c-5.52468,0.05447 -11.67989,-7.39972 -11.67989,-7.39972c0,0 6.6347,-8.8949 12.08293,-8.94862z" data-paper-data="{&quot;index&quot;:null}" fill="#000000" stroke-linecap="butt"/><g stroke-linecap="butt"><path d="M90.18579,128.55847c0,3.22486 -2.61425,5.83911 -5.83911,5.83911c-3.22486,0 -5.83911,-2.61425 -5.83911,-5.83911c0,-3.22486 2.61425,-5.83911 5.83911,-5.83911c3.22486,0 5.83911,2.61425 5.83911,5.83911z" fill="#740c0c"/><path d="M88.64339,128.55846c0,2.373 -1.92371,4.29671 -4.29671,4.29671c-2.373,0 -4.29669,-1.92371 -4.29669,-4.29671c0,-2.373 1.92369,-4.29669 4.29669,-4.29669c2.373,0 4.29671,1.92371 4.29671,4.29669z" fill="#990f0f"/><g fill="#b31212"><path d="M86.29385,131.07741l-4.68324,-4.66775l0.56924,-0.57113l4.68325,4.66775z"/><path d="M86.98377,126.53175l-4.69788,4.65303l-0.56743,-0.57291l4.69786,-4.65303z"/></g></g><path d="M130.01197,128.87787c0,0 -6.1552,7.45419 -11.67988,7.39972c-5.52468,-0.05447 -11.30439,-7.62632 -11.30439,-7.62632c0,0 5.45309,-8.77574 10.90134,-8.72202c5.44824,0.05372 12.08293,8.94862 12.08293,8.94862z" data-paper-data="{&quot;index&quot;:null}" fill="#000000" stroke-linecap="butt"/><g stroke-linecap="butt"><path d="M124.05261,128.26654c0,3.22486 -2.61425,5.83911 -5.83911,5.83911c-3.22486,0 -5.83911,-2.61425 -5.83911,-5.83911c0,-3.22486 2.61425,-5.83911 5.83911,-5.83911c3.22486,0 5.83911,2.61425 5.83911,5.83911z" fill="#740c0c"/><path d="M122.51017,128.26648c0,2.373 -1.92371,4.29671 -4.29671,4.29671c-2.373,0 -4.29669,-1.92371 -4.29669,-4.29671c0,-2.373 1.92369,-4.29669 4.29669,-4.29669c2.373,0 4.29671,1.92371 4.29671,4.29669z" fill="#990f0f"/><g fill="#b31212"><path d="M120.16066,130.78545l-4.68324,-4.66775l0.56924,-0.57113l4.68325,4.66775z"/><path d="M120.85051,126.23978l-4.69788,4.65303l-0.56743,-0.57291l4.69786,-4.65303z"/></g></g><path d="M73.78024,89.14287l9.79537,-6.55053l33.86602,0.28038l9.6691,5.44648l7.0393,18.40629l-16.68694,-4.19673l-33.43018,-0.18899l-17.31685,5.0158z" fill="#3c3c3c" stroke-linecap="butt"/><path d="M67.99349,154.09392l6.22839,5.83911l-3.11419,5.2552l1.36246,2.14101l-1.36246,3.11418z" fill="#990f0f" stroke-linecap="round"/><path d="M129.69336,170.63806l-1.36246,-3.11418l1.36246,-2.141l-3.11419,-5.2552l6.22838,-5.83911z" data-paper-data="{&quot;index&quot;:null}" fill="#990f0f" stroke-linecap="round"/><g stroke-linecap="butt"><g><g><path d="M87.12771,229.79537l3.45534,-40.54785c0,0 3.82386,-5.25138 10.582,-5.25138c7.19006,0 10.58199,5.25138 10.58199,5.25138l3.45534,40.54785z" fill="#2b2b2b"/><path d="M88.90267,209.33743l1.33793,-15.70016c0,0 6.30121,-3.8311 10.66863,-3.90865c4.36742,-0.07757 11.14734,3.52126 11.14734,3.52126l1.35713,15.9256c0,0 -7.39567,-3.51984 -12.31893,-3.48755c-4.92325,0.0323 -12.19209,3.64951 -12.19209,3.64951z" fill="#0c0c0c"/></g><g><path d="M72.30859,236.29341c0.47442,-9.94505 12.84821,-18.03362 28.69731,-18.03362c15.8491,0 28.56588,8.07392 28.56588,18.03362c0,14.92049 -15.45701,18.03363 -28.56586,18.03363c0,0 -29.516,-0.87152 -28.6973,-18.03362z" fill="#4b4b4b"/><path d="M72.43974,241.85033c0,-9.9597 12.81883,-18.03362 28.63168,-18.03362c15.81284,0 28.63167,8.07393 28.63167,18.03363c0,9.9597 -12.81882,18.03363 -28.63167,18.03363c-15.81284,0 -28.63166,-8.07393 -28.63166,-18.03362z" fill="#373737"/></g></g><g><path d="M79.87081,245.65461c0,-9.0482 9.63859,-15.60857 21.5284,-15.60857c11.88982,0 21.5284,6.56038 21.5284,15.60858c0,9.0482 -9.63858,16.38319 -21.5284,16.38319c-11.88982,0 -21.5284,-7.33499 -21.5284,-16.38319z" fill="#990f0f"/><path d="M82.49362,242.50123c0,-7.49969 8.46433,-12.72402 18.90565,-12.72402c10.44131,0 18.90565,5.22433 18.90565,12.72402c0,7.49969 -8.46433,13.57938 -18.90565,13.57938c-10.44131,0 -18.90565,-6.07969 -18.90565,-13.57938z" fill="#b31212"/></g></g></g></g><g><path d="M325.36791,378.48553v-297.3619h107.07498v297.3619z" fill-opacity="0.01" fill="#000000" stroke="none" stroke-width="0" stroke-linecap="butt"/><path d="M331.67954,310.97692c0,0 -0.40809,-60.69436 -0.49494,-73.68081c-0.06401,-9.5736 9.61385,-43.16875 47.20918,-43.35642c37.11061,-0.18525 46.80371,34.62661 46.79446,43.32779c-0.0376,22.70453 0.25243,71.94894 0.25243,71.94894l-11.89854,2.93014l-0.09829,-71.0749c0,0 0.08865,-3.63951 -3.30712,-3.70392c-4.03303,-0.07649 -3.45876,3.65867 -3.45876,3.65867c0,0 0.44769,32.51186 0.10608,59.79252c-0.12946,10.33929 -1.37794,19.92716 -1.33628,26.70895c0.11334,18.45608 2.05864,48.39021 2.05864,48.39021l-57.79156,0.08481c0,0 1.22347,-29.11487 1.2542,-47.31345c0.01246,-7.37819 -1.24742,-18.1467 -1.37386,-29.63782c-0.29891,-27.16433 0.34818,-58.36683 0.34818,-58.36683c0,0 0.32821,-3.42778 -3.38856,-3.44589c-3.65304,-0.01779 -3.30646,3.41603 -3.30646,3.41603l0.22478,73.24635z" fill="#ffffff" stroke="#000000" stroke-width="2" stroke-linecap="butt"/><path d="M396.22965,253.68255c-0.67068,0 -1.21435,-0.54369 -1.21435,-1.21435c0,-0.67068 0.54369,-1.21438 1.21435,-1.21438c0.67068,0 1.21435,0.5437 1.21435,1.21438c0,0.67068 -0.54369,1.21435 -1.21435,1.21435z" fill="#000000" stroke="none" stroke-width="1.5" stroke-linecap="butt"/><path d="M390.053,258.65639c-5.24148,-0.36918 -7.69453,-2.1066 -7.24525,-3.02983c0.13843,-0.28447 3.34259,1.24892 8.18531,1.53223c7.52604,0.44028 9.99367,-0.74184 9.99367,-0.74184v1.58079c0,0 -2.83418,1.22916 -10.93374,0.65866z" fill="#000000" stroke="#000000" stroke-width="0" stroke-linecap="butt"/><path d="M357.39248,252.46818c0,-0.67068 0.54369,-1.21438 1.21435,-1.21438c0.67068,0 1.21438,0.5437 1.21438,1.21438c0,0.67068 -0.5437,1.21435 -1.21438,1.21435c-0.67068,0 -1.21435,-0.54369 -1.21435,-1.21435z" fill="#000000" stroke="none" stroke-width="1.5" stroke-linecap="butt"/><path d="M364.78354,258.65639c-8.09956,0.57054 -10.93374,-0.65866 -10.93374,-0.65866v-1.58079c0,0 2.46762,1.18212 9.99367,0.74184c4.84273,-0.28332 8.0469,-1.81669 8.18533,-1.53223c0.44928,0.92321 -2.00376,2.66062 -7.24525,3.02983z" fill="#000000" stroke="#000000" stroke-width="0" stroke-linecap="butt"/><path d="M378.03018,325.06502c-0.96169,0 -1.7413,-0.77961 -1.7413,-1.7413c0,-0.96169 0.77961,-1.7413 1.7413,-1.7413c0.96169,0 1.7413,0.77961 1.7413,1.7413c0,0.96169 -0.77961,1.7413 -1.7413,1.7413z" data-paper-data="{&quot;index&quot;:null}" fill="#000000" stroke="none" stroke-width="1.5" stroke-linecap="butt"/><path d="M345.07548,375.89445c0,0 1.06841,-33.01346 1.71986,-52.42695c0.40535,-12.07944 -1.58746,-27.38525 -1.94398,-44.80661c-0.39736,-19.41739 0.81126,-40.396 0.81126,-40.396l4.11005,-36.78676c0,0 3.13913,-1.58879 5.46718,-3.22706c2.32806,-1.63826 6.07344,-3.29239 6.07344,-3.29239c0,0 -3.44404,7.2567 -1.47953,10.95001c3.15198,5.92576 18.57675,18.06144 18.57675,18.06144c0,0 14.90399,-10.86206 17.87657,-16.74468c2.21628,-4.38591 -1.63421,-12.26676 -1.63421,-12.26676c0,0 4.59475,1.78446 7.24055,3.46013c2.6458,1.67566 5.58237,4.23362 5.58237,4.23362l1.1743,34.44381c0,0 2.80215,19.1781 3.35212,40.09522c0.44614,16.96814 -1.39287,34.87988 -1.01047,46.22706c0.66342,19.68658 1.18125,52.47597 1.18125,52.47597z" fill="#b31212" stroke="none" stroke-width="2" stroke-linecap="butt"/><path d="M354.11515,342.08761c0,0 -14.97866,-6.86875 -20.65156,-15.9672c-5.67291,-9.09845 -12.2268,-18.46557 -14.62591,-27.55316c-1.59764,-6.05169 4.36318,-26.07383 6.36599,-40.26051c1.94229,-13.75792 3.95157,-25.33249 5.42549,-28.95185c2.85395,-7.00815 7.10508,-15.94171 10.84214,-20.56756c4.31621,-5.34272 9.41452,-7.61562 9.41452,-7.61562c0,0 -0.65208,9.65972 -1.14489,19.98527c-0.69156,14.48999 -2.82193,33.76003 -3.4229,42.6908c-0.5568,8.27402 -1.2642,19.90008 -1.2642,19.90008c0,0 3.36997,16.20427 5.31922,18.71907c2.04516,2.63853 6.67784,6.15315 6.67784,6.15315z" fill="#740c0c" stroke="none" stroke-width="2" stroke-linecap="butt"/><path d="M399.04356,308.62009c0,0 5.69203,-2.91566 7.82104,-6.16806c2.12901,-3.25238 4.26702,-19.73555 4.26702,-19.73555c0,0 -0.82177,-12.11622 -1.35519,-20.04298c-0.60098,-8.93077 -2.73135,-28.2008 -3.4229,-42.6908c-0.49282,-10.32556 -0.8513,-19.10454 -0.8513,-19.10454c0,0 5.59646,2.88412 10.48211,9.24548c3.37386,4.39293 6.96875,11.88792 9.48097,18.05697c1.47392,3.61938 3.48319,15.19394 5.42549,28.95185c2.00281,14.18668 3.33883,34.06511 1.86149,46.71915c-0.93418,8.00158 -5.90885,19.70296 -11.59526,26.67695c-8.74684,10.72738 -19.1777,15.08195 -19.1777,15.08195z" data-paper-data="{&quot;index&quot;:null}" fill="#740c0c" stroke="none" stroke-width="2" stroke-linecap="butt"/><path d="M326.12322,140.41704c0,0 7.23755,-6.95405 7.38824,-7.97068c0.3952,-2.6664 -0.197,-47.17532 42.23689,-48.8201c52.4164,-1.07286 45.81515,41.50997 48.76967,49.54403c1.35662,3.68897 2.54683,7.19865 3.13941,10.23542c1.17698,6.03155 0.861,10.19757 0.861,10.19757c0,0 -1.60342,-2.29438 -2.73576,-3.68022c-1.13234,-1.38584 -3.28972,-3.69416 -3.28972,-3.69416c0,0 3.16016,11.21233 1.30456,23.36266c-1.8613,12.18754 -1.87468,9.97413 -3.3546,14.72641c-0.80382,2.58125 -1.77649,3.5326 -1.77649,3.5326l-0.78459,-1.89226c0,0 -0.41721,1.49357 -0.80897,2.27097c-0.41348,0.82045 -1.61031,2.52952 -1.61031,2.52952l-1.35657,-2.75649c0,0 -1.20091,2.58103 -2.53654,3.91364c-1.33564,1.33258 -4.0381,3.42042 -4.0381,3.42042l-0.1081,-4.34985c0,0 -8.29067,12.93837 -28.59496,12.76644c-19.14842,-0.3 -30.61575,-12.53587 -30.61575,-12.53587l-0.13645,3.11757l-3.20549,-4.49805c0,0 -0.4244,0.76624 -0.57475,1.1582c-0.155,0.40412 -0.34175,1.2311 -0.34175,1.2311c0,0 -2.81107,-4.12052 -4.05022,-7.9208c-1.93839,-5.94474 -2.89075,-9.49446 -2.89075,-15.74724c0,0 -2.74678,2.23019 -6.71352,3.25797c-4.97055,1.28789 -12.66194,0.40544 -12.66194,0.40544c0,0 8.74131,-3.19077 11.06174,-5.60128c2.06685,-2.14709 3.10787,-3.96587 3.10787,-3.96587c0,0 -2.47493,1.27377 -4.97054,1.89995c-2.60388,0.65338 -9.23702,0.62348 -9.23702,0.62348c0,0 10.34655,-5.91528 12.76069,-12.76966c2.27934,-6.47166 2.4657,-12.86716 2.4657,-12.86716c0,0 -1.59898,0.77695 -3.91056,0.93372c-1.46524,0.09938 -2.79231,-0.05742 -2.79231,-0.05742z" fill="#000000" stroke="none" stroke-width="1.5" stroke-linecap="butt"/><path d="M416.06204,202.97785c5.46223,4.0131 0.82598,8.40334 0.82598,8.40334c0,0 -3.22801,-3.79765 -5.26035,-5.40767c-1.6401,-1.29929 -12.72123,6.93716 -17.25159,11.79023c-4.80884,5.15138 -16.0442,14.98969 -16.0442,14.98969c0,0 -10.46266,-8.2197 -15.15847,-13.29547c-4.76571,-5.1513 -16.64033,-14.65951 -18.31922,-13.06308c-1.85593,1.76478 -5.56775,5.57346 -5.56775,5.57346c0,0 -1.98864,-6.54499 6.53171,-12.77723c5.73196,-4.19266 22.59895,-4.59858 33.10088,-4.83725c14.28545,-0.32466 30.84353,3.99575 37.14302,8.624z" fill="#bf1313" stroke="#000000" stroke-width="0" stroke-linecap="round"/><path d="M407.89756,201.07143c2.90521,1.54097 0.67912,2.12506 -1.13222,3.57073c-1.53562,1.22562 -9.45427,4.22687 -13.4903,7.34819c-8.82393,6.82411 -19.00388,7.95215 -27.79799,1.08966c-4.2457,-3.31313 -13.94552,-7.69733 -16.32032,-8.40171c-2.3748,-0.70438 -2.44413,-2.88906 0.85878,-4.63321c5.10651,-2.69656 20.13306,-2.95763 29.48908,-3.11114c12.7267,-0.20883 25.48774,2.59653 28.39297,4.13748z" fill="#740c0c" stroke="#000000" stroke-width="0" stroke-linecap="round"/><path d="M345.83486,153.712c-0.67768,-8.56444 0.39339,-20.14449 0.39339,-20.14449c0,0 4.00505,-0.04843 16.33953,-3.69227c9.47612,-2.79946 24.12869,-11.14084 24.12869,-11.14084c0,0 -2.53654,3.5288 -4.00179,5.23755c-1.55772,1.81659 -4.68888,5.35829 -4.68888,5.35829c0,0 9.20415,-1.95828 17.23255,-5.55363c10.06183,-4.15203 12.43878,-7.10814 15.20767,-5.39321c3.26795,2.02404 1.2096,27.22343 0.84369,33.75008c-0.49512,6.65736 -2.97482,11.15547 -3.69941,14.70284c-0.72459,3.54737 -0.48099,7.20622 -2.59077,18.8354c-1.31663,7.25742 -4.88723,10.48022 -11.76579,17.21617c-6.87856,6.73596 -10.63184,10.8655 -15.28185,10.9465c-4.47499,0.07796 -10.49313,-5.98916 -16.36435,-12.19209c-6.25189,-6.60512 -10.42177,-9.95469 -11.40891,-17.77859c-0.88902,-7.04626 -0.91188,-11.63558 -1.31834,-17.90612c-0.29708,-4.58297 -2.65531,-7.56841 -3.02542,-12.2456z" fill="#ffffff" stroke="#000000" stroke-width="1.5" stroke-linecap="butt"/><path d="M402.43315,137.03374c0,0 1.73664,0.57238 4.81931,1.85741c2.81568,1.17374 4.9615,2.62243 4.9615,2.62243l0.07314,1.39138c0,0 -8.04604,-4.60932 -17.31176,-4.87843c-7.40866,-0.21516 -11.99689,1.9663 -11.99689,1.9663l0.60481,-4.86771c0,0 3.87431,-1.57567 9.42072,-1.12701c5.74327,0.4646 9.36277,1.75806 9.36277,1.75806z" data-paper-data="{&quot;index&quot;:null}" fill="#000000" stroke="none" stroke-width="1.5" stroke-linecap="butt"/><path d="M387.29451,186.43645c0.66982,0.24878 3.62103,1.64334 7.0738,3.04831c3.48027,1.41617 7.76637,3.63204 7.74347,3.8288c-0.02907,0.24972 -11.54896,-0.67294 -15.3591,-0.197c-3.19294,0.39884 -7.8545,0.82863 -7.8545,0.82863c0,0 -8.34223,-1.36417 -15.58571,-2.87141c-5.80539,-1.20799 -10.333,1.45486 -10.34551,1.34503c-0.0169,-0.14812 2.66373,-4.24006 6.13474,-5.04323c1.34557,-0.58317 6.38785,-1.74398 6.38785,-1.74398c0,0 5.81965,-0.32606 8.93437,0.67992c3.3374,1.0779 3.32968,2.87182 3.62049,2.89942c0,0 1.39079,-2.05423 2.78175,-2.47144c1.39097,-0.41721 5.96801,-0.48889 6.46837,-0.30306z" fill="#ffffff" stroke="#000000" stroke-width="1.4" stroke-linecap="butt"/><path d="M365.39621,191.78368c5.97852,1.2057 13.99478,3.29668 13.99478,3.29668c0,0 6.79891,-1.82704 9.91904,-2.15413c2.41896,-0.2536 12.70122,0.34461 12.75319,0.78235c0.05082,0.428 -10.1356,13.97455 -24.36445,13.44237c-16.16956,-0.51174 -24.91228,-14.89668 -24.86784,-15.09529c0.04444,-0.19861 6.58676,-1.47768 12.56528,-0.27197z" fill="#ffffff" stroke="#000000" stroke-width="1.9" stroke-linecap="butt"/><path d="M383.12638,156.27395c1.95667,4.71713 6.85864,7.77149 12.18507,7.1608c5.32641,-0.61069 9.40987,-4.69526 10.24815,-9.73284c0.25681,0.7607 0.43773,1.55992 0.53288,2.3898c0.72643,6.33588 -3.82093,12.06101 -10.15681,12.78744c-6.33588,0.72643 -12.06101,-3.82093 -12.78744,-10.15681c-0.09516,-0.82989 -0.09981,-1.64931 -0.02184,-2.44839z" data-paper-data="{&quot;index&quot;:null}" fill="#b7b7b7" stroke="none" stroke-width="0" stroke-linecap="butt"/><path d="M378.28329,188.26823c-1.21394,0 -4.15478,-3.82871 -4.44671,-6.29859c-0.2612,-2.20987 1.54435,-4.4952 4.44671,-4.4952c2.90239,0 4.93452,0.57631 4.73241,4.91859c-0.17153,3.68516 -1.83004,5.87521 -4.73241,5.87521z" fill="#ffffff" stroke="#000000" stroke-width="1.15" stroke-linecap="butt"/><path d="M382.51322,152.92917c0,0 0.12048,4.66168 0.00676,8.36879c-0.22516,7.34069 -1.26997,32.59937 -1.26997,32.59937l-3.50137,0.01014c0,0 -0.9429,-4.90005 -1.319,-11.1556c-0.50909,-8.46744 -0.52784,-19.1331 -0.8965,-23.05418c-0.34945,-3.71681 -1.05209,-6.71057 -1.05209,-6.71057" fill="#ffffff" stroke="#000000" stroke-width="1.3" stroke-linecap="round"/><path d="M373.68802,158.33794c-0.41706,6.36374 -5.91396,11.18447 -12.27769,10.76742c-6.36374,-0.41706 -11.18447,-5.91396 -10.76742,-12.27769c0.05462,-0.83356 0.1964,-1.64062 0.41587,-2.41292c1.08257,4.99079 5.36009,8.87168 10.70993,9.22227c5.34984,0.3506 10.09725,-2.93884 11.82192,-7.74564c0.11679,0.79433 0.15203,1.61301 0.09741,2.44654z" fill="#b7b7b7" stroke="none" stroke-width="0" stroke-linecap="butt"/><path d="M347.83079,165.59972c0,0 -5.79177,-4.13007 -7.23858,-10.53935c-1.52231,-6.74381 -1.71587,-11.42922 0.56382,-11.73351c2.27968,-0.30432 3.17438,2.79122 4.38321,9.81208c1.20882,7.02086 2.29156,12.46081 2.29156,12.46081z" data-paper-data="{&quot;index&quot;:null}" fill="#ffffff" stroke="#000000" stroke-width="1" stroke-linecap="butt"/><path d="M347.59285,160.96408c0,0 -4.18502,-3.43292 -5.07082,-9.92355c-0.49414,-3.62068 2.53267,-2.67759 2.53267,-2.67759" fill="none" stroke="#000000" stroke-width="0.25" stroke-linecap="round"/><path d="M351.13153,153.14807c0.0833,-5.74453 5.68166,-10.49364 11.99121,-10.40217c6.30954,0.09148 10.60068,4.9889 10.5174,10.73343c-0.0833,5.74453 -4.84225,10.32724 -11.15179,10.23578c-6.30954,-0.09148 -11.4401,-4.82249 -11.35682,-10.56703z" fill="#ffffff" stroke="#000000" stroke-width="1.4" stroke-linecap="butt"/><path d="M357.55877,153.55217c0.03923,-2.70654 2.26513,-4.86878 4.97164,-4.82955c2.70654,0.03923 4.86878,2.26513 4.82955,4.97164c-0.03923,2.70654 -2.26512,4.86878 -4.97164,4.82955c-2.70654,-0.03923 -4.86878,-2.26513 -4.82955,-4.97164z" fill="#000000" stroke="none" stroke-width="1.5" stroke-linecap="butt"/><path d="M382.90369,153.14891c0.23901,-5.74017 5.22873,-10.40249 11.47346,-10.40249c6.24473,0 10.89108,4.65735 10.89108,10.40249c0,5.74514 -4.56315,10.65212 -11.39028,10.7353c-6.49384,0.07914 -11.22386,-4.74055 -10.97426,-10.7353z" fill="#ffffff" stroke="#000000" stroke-width="1.4" stroke-linecap="butt"/><path d="M389.31522,153.24937c0,-2.75381 2.23239,-4.9862 4.9862,-4.9862c2.75381,0 4.9862,2.23239 4.9862,4.9862c0,2.75381 -2.23239,4.9862 -4.9862,4.9862c-2.75381,0 -4.9862,-2.23239 -4.9862,-4.9862z" fill="#000000" stroke="none" stroke-width="1.5" stroke-linecap="butt"/><path d="M351.05117,152.52311c0,0 0.07465,-10.58645 12.44888,-10.36307c11.12179,0.19477 11.22106,11.0469 11.22106,11.0469c0,0 -4.46673,-5.07156 -11.71169,-4.94168c-7.24497,0.12986 -11.95824,4.25786 -11.95824,4.25786z" fill="#ffffff" stroke="#000000" stroke-width="1.15" stroke-linecap="butt"/><path d="M382.46021,152.67683c0,0 -0.28988,-11.10676 13.14996,-10.68988c11.40746,0.3916 11.21076,11.33468 11.21076,11.33468c0,0 -5.09282,-5.32705 -12.09169,-5.40369c-6.99887,-0.07664 -12.26903,4.7589 -12.26903,4.7589z" fill="#ffffff" stroke="#000000" stroke-width="1.15" stroke-linecap="butt"/><path d="M355.17725,138.60288c0,0 3.84782,-2.32689 9.29026,-3.13729c0.97993,-0.14592 3.14563,-0.34402 3.14563,-0.34402l0.87218,1.87142l0.43921,-1.94937l4.6505,-0.1016l0.58356,4.83589c0,0 -4.53775,-0.5782 -9.43413,-0.15108c-6.5483,0.57123 -7.71152,2.06204 -12.67338,2.8436c-4.25159,0.66969 -7.89296,0.57296 -7.89296,0.57296l-0.10105,-1.44299c0,0 4.221,-0.11956 6.13467,-0.38054c1.57946,-0.21541 4.60924,-1.32844 4.60924,-1.32844z" fill="#000000" stroke="none" stroke-width="1.5" stroke-linecap="butt"/><path d="M411.51671,153.13892c1.20882,-7.02086 2.10352,-10.11639 4.38321,-9.81208c2.27968,0.30431 2.08613,4.98971 0.56382,11.73351c-1.4468,6.40929 -7.23858,10.53935 -7.23858,10.53935c0,0 1.08274,-5.43994 2.29156,-12.46081z" data-paper-data="{&quot;index&quot;:null}" fill="#ffffff" stroke="#000000" stroke-width="1" stroke-linecap="butt"/><path d="M412.00116,148.36297c0,0 3.0268,-0.9431 2.53267,2.67759c-0.88578,6.49062 -5.07082,9.92355 -5.07082,9.92355" data-paper-data="{&quot;index&quot;:null}" fill="none" stroke="#000000" stroke-width="0.25" stroke-linecap="round"/><path d="M405.20161,172.12464c0.86822,-0.94913 2.64366,1.59541 1.32652,2.71078c0.1111,0.85722 -0.63595,1.949 -0.88993,3.04216c0.13641,1.37293 0.08781,2.78334 -0.27786,3.89754v0.51603c0,0.32427 -0.26287,0.58715 -0.58715,0.58715c-0.00207,0 -0.00414,-0.00001 -0.00621,-0.00003c0.19583,0.78966 0.39967,1.47773 0.56323,1.96724c0,0 0.18567,0.55701 -0.37135,0.74269c-0.13331,0.04444 -0.24533,0.04634 -0.33866,0.02351c-0.06472,0.52965 -0.29513,0.8032 -0.74504,1.0082l0.04941,0.07411l-0.58046,0.38698c-0.09451,0.065 -0.20899,0.10307 -0.33237,0.10307c-0.32427,0 -0.58715,-0.26287 -0.58715,-0.58715c0,-0.12337 0.03806,-0.23787 0.10307,-0.33237l0.31101,-0.46653c-0.04214,-0.6783 -0.11388,-1.33505 -0.16358,-2.00243c-0.21752,-0.56234 -0.45798,-1.12069 -0.44579,-1.72268c0.01763,-0.87023 0.78055,-1.19538 1.00335,-1.90906c0.00966,-0.03095 0.01914,-0.06191 0.02843,-0.0929c-0.04303,-0.7877 -0.05363,-1.6006 -0.05363,-2.47699c0,-0.6474 -0.42489,-2.29553 -0.12624,-2.82137c0.22989,-0.40478 0.72382,-0.63933 1.23273,-0.80393c0.0727,-0.60543 0.33918,-1.26054 0.55785,-1.59331c0,0 0.12244,-0.18368 0.3298,-0.25071z" fill="#000000" stroke="none" stroke-width="0.5" stroke-linecap="butt"/><path d="M401.05461,184.24831c0,-0.32427 0.26287,-0.58715 0.58715,-0.58715c0.32427,0 0.58715,0.26287 0.58715,0.58715c0,0.32427 -0.26287,0.58715 -0.58715,0.58715c-0.32427,0 -0.58715,-0.26287 -0.58715,-0.58715z" fill="#000000" stroke="none" stroke-width="0.5" stroke-linecap="butt"/><path d="M402.05642,170.94858c-0.07813,-0.23356 0.03874,-0.4673 0.03874,-0.4673l0.90654,-0.68587c1.38107,0.73053 1.13593,1.7463 -0.38139,1.92703c0,0 -0.58715,0 -0.58715,-0.58715c0,-0.07033 0.00842,-0.13223 0.02325,-0.18671z" fill="#000000" stroke="none" stroke-width="0.5" stroke-linecap="butt"/><path d="M375.54859,159.69517c-0.26259,-0.52516 0.26259,-0.78774 0.26259,-0.78774l0.10957,0.03172c0.31966,-0.15962 -0.70389,-0.91194 -1.00654,-1.36171c0,0 -0.32569,-0.48854 0.16285,-0.81423c0.48854,-0.32569 0.81423,0.16285 0.81423,0.16285c0.72678,1.10261 1.69075,1.25754 1.00654,2.66448l-0.56147,0.36723c0,0 -0.52516,0.26259 -0.78774,-0.26259z" fill="#000000" stroke="none" stroke-width="0.5" stroke-linecap="butt"/><path d="M378.33069,232.74845l0.58778,-0.38713l0.33874,143.30213l-1.42269,-143.21179z" fill="url(#color-4)" stroke="#000000" stroke-width="0" stroke-linecap="round"/><path d="M352.77383,347.39353l3.69285,-41.88333c0,0 13.39809,-1.95717 20.51019,-1.95717c7.70905,0 24.09772,1.95717 24.09772,1.95717l3.36838,41.10047c0,0 -17.94091,2.62043 -26.69029,2.75299c-8.46422,0.12824 -24.97886,-1.97014 -24.97886,-1.97014z" fill="#990f0f" stroke="none" stroke-width="2" stroke-linecap="butt"/></g><g><path d="M191.24281,365.56582c0,0 -0.81076,-127.96622 -1.01237,-160.0014c-0.06957,-11.05336 10.44689,-51.19699 51.29989,-51.41366c40.32627,-0.21388 50.85928,41.33451 50.84923,51.38062c-0.09774,62.69619 0.83491,159.96678 0.83491,159.96678l-13.39431,0.13035l-0.20265,-155.70498c0,0 0.09633,-5.55786 -3.59369,-5.63222c-4.38249,-0.08832 -3.75846,5.57998 -3.75846,5.57998l0.2622,155.74137l-61.52317,0.09792l-0.38969,-156.23372c0,0 0.35664,-5.3134 -3.68218,-5.33432c-3.96958,-0.02054 -3.59297,5.29983 -3.59297,5.29983l0.45059,156.00826z" fill="#000000" stroke="#000000" stroke-width="2" stroke-linecap="butt"/><path d="M261.83185,168.53945l-20.41684,93.55062l-23.60698,-96.26223z" fill="#990f0f" stroke="none" stroke-width="0" stroke-linecap="round"/><path d="M237.56287,191.87376l-5.67844,-21.5965l17.86475,0.41005l-4.7852,21.18645l3.82714,35.9196l-6.69826,44.12415l-8.85133,-45.21228z" fill="#740c0c" stroke="none" stroke-width="0" stroke-linecap="butt"/><path d="M207.23907,366.48927l0.63803,-162.96988l-10.20842,-28.91469c0,0 4.8118,-6.91307 8.18844,-9.54417c2.70883,-2.11073 14.97919,-5.02813 14.97919,-5.02813l20.71224,85.05644l19.77548,-84.86277c0,0 11.72515,2.80272 14.27538,5.05587c2.84277,2.5116 7.74138,9.32277 7.74138,9.32277l-8.29435,29.59912l1.27606,162.28547z" fill="#0c0c0c" stroke="none" stroke-width="0" stroke-linecap="butt"/><path d="M207.23906,366.48927l0.63802,-162.96988l-10.20842,-28.91469c0,0 4.81181,-6.91307 8.18843,-9.54416c2.70883,-2.11075 14.9792,-5.02814 14.9792,-5.02814l20.71224,86.41224l2.41324,120.04464z" fill="#151515" stroke="none" stroke-width="0" stroke-linecap="butt"/><path d="M238.05142,294.9232c-1.04501,0 -1.89218,-0.90011 -1.89218,-2.01044c0,-1.11034 0.84716,-2.01044 1.89218,-2.01044c1.04501,0 1.89218,0.90011 1.89218,2.01044c0,1.11034 -0.84716,2.01044 -1.89218,2.01044z" data-paper-data="{&quot;index&quot;:null}" fill="#b31212" stroke="none" stroke-width="1.5" stroke-linecap="butt"/><path d="M238.58311,334.01556c-1.04501,0 -1.89218,-0.90011 -1.89218,-2.01044c0,-1.11034 0.84716,-2.01044 1.89218,-2.01044c1.04501,0 1.89219,0.90011 1.89219,2.01044c0,1.11034 -0.84716,2.01044 -1.89219,2.01044z" data-paper-data="{&quot;index&quot;:null}" fill="#990f0f" stroke="none" stroke-width="1.5" stroke-linecap="butt"/><path d="M237.51973,257.18656c-1.04501,0 -1.89219,-0.90011 -1.89219,-2.01044c0,-1.11034 0.84716,-2.01044 1.89219,-2.01044c1.04501,0 1.89218,0.90011 1.89218,2.01044c0,1.11034 -0.84716,2.01044 -1.89218,2.01044z" data-paper-data="{&quot;index&quot;:null}" fill="#c01313" stroke="none" stroke-width="1.5" stroke-linecap="butt"/><path d="M223.68919,167.35482l17.43939,76.60304l-28.49851,-45.4195l9.35772,-4.97129l-14.03658,-15.3658z" fill="#232323" stroke="#000000" stroke-width="0" stroke-linecap="round"/><path d="M275.15666,176.84547l-14.03658,15.3658l9.35773,4.97129l-28.49851,46.09741l17.43938,-77.28094z" data-paper-data="{&quot;index&quot;:null}" fill="#151515" stroke="#000000" stroke-width="0" stroke-linecap="round"/><path d="M282.46764,173.91871c0,0 14.99435,19.26988 16.85756,34.77732c3.99887,33.28222 6.11138,159.10294 6.11138,159.10294h-33.17737c0,0 0.11941,-155.69618 0.63803,-165.40834c0.51862,-9.71215 9.5704,-28.47193 9.5704,-28.47193z" data-paper-data="{&quot;index&quot;:null}" fill="#000000" stroke="#000000" stroke-width="0.5" stroke-linecap="round"/><path d="M207.81854,202.39063c0.51862,9.71214 0.63803,165.40834 0.63803,165.40834h-33.17737c0,0 2.11251,-125.82073 6.11138,-159.10294c1.86322,-15.50744 16.85758,-34.77732 16.85758,-34.77732c0,0 9.05178,18.75979 9.5704,28.47193z" fill="#000000" stroke="#000000" stroke-width="0.5" stroke-linecap="round"/><path d="M170.30128,102.07234c0,-39.49872 32.02004,-71.51877 71.51877,-71.51877c39.49872,0 71.51877,32.02004 71.51877,71.51877c0,39.49872 -32.02004,71.51877 -71.51877,71.51877c-39.49872,0 -71.51877,-32.02004 -71.51877,-71.51877z" fill="#2b2b2b" stroke="none" stroke-width="NaN" stroke-linecap="butt"/><path d="M177.75821,101.73338c0,-35.19317 28.52971,-63.72288 63.72288,-63.72288c35.19317,0 63.72288,28.52971 63.72288,63.72288c0,35.19319 -28.5297,63.72288 -63.72288,63.72288c-35.19317,0 -63.72288,-28.5297 -63.72288,-63.72288z" fill="url(#color-5)" stroke="none" stroke-width="NaN" stroke-linecap="butt"/><path d="M181.82563,101.73338c0,-32.94681 26.70866,-59.65547 59.65547,-59.65547c32.94681,0 59.65547,26.70866 59.65547,59.65547c0,32.94681 -26.70866,59.65547 -59.65547,59.65547c-32.94681,0 -59.65547,-26.70866 -59.65547,-59.65547z" fill="#da1616" stroke="none" stroke-width="NaN" stroke-linecap="butt"/><path d="M198.7732,101.73338c0,-23.58692 19.12097,-42.70789 42.70789,-42.70789c23.58692,0 42.70789,19.12097 42.70789,42.70789c0,23.58692 -19.12097,42.70789 -42.70789,42.70789c-23.58692,0 -42.70789,-19.12097 -42.70789,-42.70789z" fill="#c01313" stroke="none" stroke-width="NaN" stroke-linecap="butt"/><path d="M235.88994,102.43935c0,11.85586 -12.42385,21.46694 -24.40451,21.46694c-11.98066,0 -21.6929,-9.61106 -21.6929,-21.46694c0,-2.68324 0.49749,-4.88112 1.40615,-6.67588c0,0 7.74312,0.80128 16.78331,1.88472c12.67839,1.51945 27.90797,3.59385 27.90797,4.79116z" fill="#efefef" stroke="none" stroke-width="0" stroke-linecap="butt"/><g stroke="none" stroke-width="0" stroke-linecap="butt"><path d="M221.49792,103.67707c0,6.36472 -3.03507,11.52435 -6.77903,11.52435c-3.74396,0 -6.77903,-5.15963 -6.77903,-11.52435c0,-1.87591 0.26366,-3.64713 0.7314,-5.21242c1.31924,0.42815 2.72714,0.65953 4.18907,0.65953c0.54231,0 1.07719,-0.03183 1.60286,-0.09375c1.2117,0.35517 2.49379,0.54568 3.82036,0.54568c0.92791,0 1.83405,-0.09321 2.70958,-0.2708c0.32537,1.34813 0.50478,2.82432 0.50478,4.37174z" fill="#000000"/><path d="M218.54705,103.90306c0,4.24316 -1.66631,7.68289 -3.72181,7.68289c-2.05551,0 -3.72182,-3.43975 -3.72182,-7.68289c0,-1.82102 0.30691,-3.49405 0.81977,-4.81073c0.30965,0.02114 0.62215,0.03188 0.93715,0.03188c0.54231,0 1.07719,-0.03183 1.60286,-0.09375c1.09434,0.32077 2.24607,0.50723 3.43614,0.54034c0.40867,1.23335 0.6477,2.72518 0.6477,4.33226z" fill="#fdfdfd"/></g><path d="M290.97572,95.76347c0.90866,1.79476 1.40615,3.99265 1.40615,6.67588c0,11.85586 -9.71225,21.46694 -21.6929,21.46694c-11.98066,0 -24.40451,-9.61106 -24.40451,-21.46694c0,-2.05105 44.69126,-6.67588 44.69126,-6.67588z" data-paper-data="{&quot;index&quot;:null}" fill="#efefef" stroke="none" stroke-width="0" stroke-linecap="butt"/><g data-paper-data="{&quot;index&quot;:null}" stroke="none" stroke-width="0" stroke-linecap="butt"><path d="M259.06141,99.75726c0.87553,0.17758 1.78166,0.2708 2.70958,0.2708c1.32657,0 2.60865,-0.19052 3.82036,-0.54568c0.52567,0.06191 1.06055,0.09375 1.60287,0.09375c1.46194,0 2.86983,-0.23138 4.18907,-0.65955c0.46774,1.56529 0.7314,3.3365 0.7314,5.21242c0,6.36472 -3.03508,11.52435 -6.77903,11.52435c-3.74396,0 -6.77903,-5.15963 -6.77903,-11.52435c0,-1.54742 0.17941,-3.02361 0.50478,-4.37174z" fill="#740c0c"/><path d="M262.1552,100.02274c1.19007,-0.03311 2.3418,-0.21959 3.43614,-0.54036c0.52567,0.06191 1.06055,0.09375 1.60287,0.09375c0.31501,0 0.62751,-0.01075 0.93715,-0.03189c0.51286,1.31668 0.81977,2.98972 0.81977,4.81074c0,4.24316 -1.66631,7.68289 -3.72182,7.68289c-2.05551,0 -3.72182,-3.43975 -3.72182,-7.68289c0,-1.60708 0.23903,-3.09891 0.64771,-4.33225z" fill="#fdfdfd"/></g><path d="M240.23653,103.81565l-55.58055,-6.49643l-1.38479,-6.42938l59.25544,10.93923z" fill="#740c0c" stroke="#000000" stroke-width="0" stroke-linecap="round"/><path d="M239.31117,101.82907l59.25544,-10.93923l-1.38478,6.42938l-55.58055,6.49643z" data-paper-data="{&quot;index&quot;:null}" fill="#000000" stroke="#000000" stroke-width="0" stroke-linecap="round"/><path d="M237.63963,102.63726c0,-1.87197 1.51754,-3.38952 3.38952,-3.38952c1.87197,0 3.38952,1.51754 3.38952,3.38952c0,1.87197 -1.51754,3.38952 -3.38952,3.38952c-1.87197,0 -3.38952,-1.51754 -3.38952,-3.38952z" fill="#000000" stroke="none" stroke-width="NaN" stroke-linecap="butt"/><path d="M216.63574,155.91635l8.54156,-17.52379l30.73162,0.0339l9.17429,18.34857c0,0 -7.93498,4.47771 -24.13885,4.76569c-14.96455,0.26595 -24.30861,-5.62436 -24.30861,-5.62436z" fill="#000000" stroke="#000000" stroke-width="0" stroke-linecap="round"/><path d="M216.63574,155.91635l8.54156,-17.52379l30.73162,0.0339l9.17429,18.34857c0,0 -7.93498,4.47771 -24.13885,4.76569c-14.96455,0.26595 -24.30861,-5.62436 -24.30861,-5.62436z" fill="#740c0c" stroke="#000000" stroke-width="0" stroke-linecap="round"/></g><g><g><path d="M136.43988,168.82195c0,0 12.7548,15.06683 8.95342,22.1889c-3.92141,7.34697 -20.2425,12.45693 -20.2425,12.45693l-46.33508,1.94639c0,0 -17.99824,-8.44909 -20.63177,-16.34972c-2.63354,-7.90062 9.34269,-17.51755 9.34269,-17.51755" data-paper-data="{&quot;index&quot;:null}" fill="none" stroke="#740c0c" stroke-width="4" stroke-linecap="round"/><path d="M55.7655,372.09397c0,0 -0.742,-110.22494 -0.92651,-137.81875c-0.06366,-9.52092 9.56094,-42.93118 46.94938,-43.11781c36.90638,-0.18422 46.54614,34.43605 46.53694,43.08935c-0.08945,54.00396 0.7641,137.78893 0.7641,137.78893l-12.2584,0.11228l-0.18547,-134.11799c0,0 0.08816,-3.61948 -3.28892,-3.68354c-4.01083,-0.07608 -3.43972,3.63854 -3.43972,3.63854l0.23997,136.09573l-56.30568,0.08434l-0.35665,-136.51981c0,0 0.32641,-3.40891 -3.3699,-3.42693c-3.63294,-0.0177 -3.28827,3.39722 -3.28827,3.39722l0.41238,134.37923z" fill="#2b2b2b" stroke="#000000" stroke-width="0" stroke-linecap="butt"/><path d="M95.41274,373.99673v-65.39885l14.76827,-8.75878v74.15763z" fill="#4b4b4b" stroke="none" stroke-width="0" stroke-linecap="butt"/><path d="M137.03174,206.03241c0,0 12.77562,11.76362 14.59796,21.02106c0.77102,3.91677 1.54048,31.44952 3.0982,61.1977c0.97914,18.69874 2.79952,37.91959 3.47053,53.80569c0.78459,18.57509 0.73025,31.56012 0.73025,31.56012l-27.73612,-0.21786l1.20968,-135.67663z" data-paper-data="{&quot;index&quot;:null}" fill="#0c0c0c" stroke="#000000" stroke-width="0" stroke-linecap="round"/><path d="M143.70377,213.34362c0,0 -3.31282,30.60394 -5.4497,42.08968c-2.00733,10.78932 -7.00723,26.61805 -7.00723,26.61805l6.03381,-75.71475c0,0 2.72638,2.17696 3.77182,3.3454c1.15041,1.28575 2.65129,3.66161 2.65129,3.66161z" data-paper-data="{&quot;index&quot;:null}" fill="#000000" stroke="#000000" stroke-width="0" stroke-linecap="round"/><path d="M71.76689,315.40489v-36.78686h60.43555v23.94065c0,0 -7.49865,0.86744 -15.61213,3.13571c-7.34006,2.05204 -15.66124,5.46259 -20.73133,6.56153c-8.6548,1.87592 -24.09208,3.14897 -24.09208,3.14897z" fill="#990f0f" stroke="none" stroke-width="0" stroke-linecap="butt"/><path d="M71.29996,237.72251l1.20968,135.67663l-27.73611,0.21786c0,0 -0.05436,-12.98503 0.73024,-31.56012c0.67101,-15.88608 2.49139,-35.10693 3.47053,-53.80567c1.55772,-29.74818 2.32719,-57.28092 3.0982,-61.1977c1.82232,-9.25744 14.59795,-21.02106 14.59795,-21.02106z" fill="#0c0c0c" stroke="#000000" stroke-width="0" stroke-linecap="round"/><path d="M70.71658,278.64334l-5.95597,-73.37117l17.12167,-15.14503h38.70334l16.74246,13.97719l-4.37939,74.93391l-29.8633,8.25901z" fill="#740c0c" stroke="#000000" stroke-width="0" stroke-linecap="butt"/><path d="M71.92758,299.94131l0.58205,73.45788l-28.1254,0.21786c0,0 -0.05436,-12.98503 0.73024,-31.56012c0.33943,-8.03592 2.06974,-22.24072 2.84151,-33.18444c0.6063,-8.59739 0.32298,-15.18214 0.32298,-15.18214c0,0 0.21131,-3.62978 0.30605,-5.4391z" fill="#740c0c" stroke="#000000" stroke-width="0" stroke-linecap="round"/><path d="M155.11722,288.64048c0.09473,1.8093 0.30605,5.4391 0.30605,5.4391c0,0 -0.28334,6.58474 0.32297,15.18212c0.77177,10.94371 2.50209,25.14853 2.84151,33.18444c0.78459,18.57509 0.73023,31.56012 0.73023,31.56012l-28.12539,-0.21786l0.58205,-73.0686z" data-paper-data="{&quot;index&quot;:null}" fill="#740c0c" stroke="#000000" stroke-width="0" stroke-linecap="round"/><path d="M65.05256,205.17479l17.12167,-14.75576h38.70335l16.35318,13.78256l-22.41743,39.24445l-26.55832,0.56151z" fill="#990f0f" stroke="#000000" stroke-width="0" stroke-linecap="butt"/><path d="M140.67751,373.75137c0,0 0.22792,-12.49918 -0.37108,-26.45504c-0.55864,-13.01519 -1.93792,-27.29732 -2.17337,-33.88964c-0.25087,-7.02425 -0.1805,-15.95398 -0.1805,-15.95398l14.7926,-7.39629c0,0 -0.35898,10.93935 -0.04426,19.43673c0.27497,7.42409 1.80548,22.77625 2.5067,36.61299c0.7437,14.67491 0.65178,27.64522 0.65178,27.64522z" data-paper-data="{&quot;index&quot;:null}" fill="#990f0f" stroke="none" stroke-width="0" stroke-linecap="butt"/><path d="M48.41295,373.36209c0,0 -0.09192,-12.97032 0.65178,-27.64522c0.70123,-13.83674 2.23175,-29.18889 2.50671,-36.61298c0.31472,-8.49738 -0.04426,-19.43675 -0.04426,-19.43675l14.7926,7.3963c0,0 0.07036,8.92973 -0.1805,15.95398c-0.23545,6.59232 -1.61473,20.87444 -2.17336,33.88964c-0.59901,13.95586 -0.37108,26.45504 -0.37108,26.45504z" fill="#990f0f" stroke="none" stroke-width="0" stroke-linecap="butt"/><path d="M58.84097,214.80342c0,0 1.50089,-2.37586 2.6513,-3.66162c1.04544,-1.16844 3.77181,-3.3454 3.77181,-3.3454l6.03383,75.71473c0,0 -4.9999,-15.8287 -7.00722,-26.61803c-2.13688,-11.48575 -5.44969,-42.08968 -5.44969,-42.08968z" fill="#000000" stroke="#000000" stroke-width="0" stroke-linecap="round"/></g><g><g><g><g><g stroke="none" stroke-linecap="butt"><g><path d="M57.15303,130.00258c0.29315,-1.97792 -1.71177,-27.10737 15.65337,-40.42936c0.751,-0.57614 2.45669,-1.13481 2.45669,-1.13481c0,0 16.86815,-1.95303 26.23005,-2.3159c11.47515,-0.23488 18.69594,-2.90565 28.08605,3.69438c17.59546,12.36735 18.47582,35.00185 18.07956,40.90564c-0.44143,6.57668 -0.91793,14.54229 -0.08019,23.8949c0.35483,3.96129 0.39712,8.61084 -0.40279,13.2602c-1.82451,11.07224 -8.52267,20.11649 -8.52267,20.11649l-1.3491,-2.74132c0,0 -1.1943,2.56683 -2.52259,3.8921c-1.32829,1.32525 -4.01587,3.40159 -4.01587,3.40159l-0.1075,-4.32591c0,0 -8.24505,12.86717 -28.4376,12.69618c-19.04304,-0.29835 -30.44726,-12.46689 -30.44726,-12.46689l-0.13571,3.10042c0,0 -4.54846,-3.8454 -7.21892,-11.33682c-1.47599,-4.14057 -3.45271,-9.50093 -3.45271,-9.50093c0,0 -0.12633,1.81466 -0.08767,2.84177c0.04578,1.21622 0.34462,3.98454 0.34462,3.98454c0,0 -2.0238,-2.66321 -2.78585,-4.17568c-0.82263,-1.63273 -1.98209,-5.28757 -1.98209,-5.28757l-1.30362,2.4583c0,0 -1.1256,-3.2636 -1.103,-5.00996c0.02477,-1.91372 1.24571,-6.0163 1.24571,-6.0163l1.30312,-22.67518l-1.63367,4.40582c0,0 -0.81809,-3.84411 -0.30989,-5.70693c0.66539,-2.43895 2.49951,-5.52874 2.49951,-5.52874z" fill="#000000" stroke-width="1.5"/><path d="M54.22862,160.29126c0,0 -0.42621,-6.81003 -0.00881,-11.13584c0.41741,-4.32582 2.14984,-11.05306 2.14984,-11.05306l14.05297,-16.64168l60.95382,-0.45429l16.63772,13.61242c0,0 1.53644,7.73693 1.58262,12.75123c0.04618,5.01431 -1.35636,11.81356 -1.35636,11.81356l-22.03437,-8.14481l-50.99531,-0.47952z" fill="#740c0c" stroke-width="0"/></g><path d="M76.76208,200.19566l-8.59655,-47.56499l-1.17189,-45.06956l7.06428,-19.08882l9.7955,-6.55061l33.86647,0.28039l9.66923,5.44655l7.0394,18.11458l-1.30201,47.47866l-8.44058,46.34733l-9.50089,6.5437l-29.39023,-0.10581z" fill="#2b2b2b" stroke-width="0"/><path d="M74.0579,88.86164l9.7955,-6.55062l33.86646,0.28038l9.66924,5.44656l7.03939,18.40653l-16.68716,-4.19679l-33.43062,-0.18899l-17.31708,5.01587z" fill="#3c3c3c" stroke-width="0"/></g><path d="M129.97181,170.35787l-1.36248,-3.11423l1.36248,-2.14103l-3.11424,-5.25527l6.22846,-5.83918z" data-paper-data="{&quot;index&quot;:null}" fill="#990f0f" stroke="#000000" stroke-width="0" stroke-linecap="round"/></g><path d="M68.27111,153.81355l6.22847,5.83918l-3.11424,5.25527l1.36248,2.14104l-1.36248,3.11422z" fill="#990f0f" stroke="#000000" stroke-width="0" stroke-linecap="round"/></g><path d="M84.35386,119.94037c5.44831,-0.05372 10.90148,8.72214 10.90148,8.72214c0,0 -5.77978,7.57195 -11.30453,7.62642c-5.52475,0.05447 -11.68005,-7.39982 -11.68005,-7.39982c0,0 6.63478,-8.89502 12.0831,-8.94873z" data-paper-data="{&quot;index&quot;:null}" fill="#000000" stroke="#000000" stroke-width="0" stroke-linecap="butt"/><path d="M130.29037,128.59715c0,0 -6.15528,7.45429 -11.68003,7.39982c-5.52475,-0.05447 -11.30454,-7.62642 -11.30454,-7.62642c0,0 5.45317,-8.77586 10.90149,-8.72214c5.44831,0.05372 12.08309,8.94873 12.08309,8.94873z" data-paper-data="{&quot;index&quot;:null}" fill="#000000" stroke="#000000" stroke-width="0" stroke-linecap="butt"/></g><path d="M89.91509,200.87712l0.29196,-56.05615h22.14023l0.29196,56.05615z" fill="#0c0c0c" stroke="url(#color-6)" stroke-width="1.5" stroke-linecap="butt"/></g><g stroke="none" stroke-width="0" stroke-linecap="butt"><path d="M90.46366,128.27775c0,3.2249 -2.61428,5.83918 -5.83918,5.83918c-3.2249,0 -5.83918,-2.61428 -5.83918,-5.83918c0,-3.2249 2.61428,-5.83919 5.83919,-5.83919c3.2249,0 5.83919,2.61429 5.83919,5.83919z" fill="#740c0c"/><path d="M88.92125,128.27774c0,2.37303 -1.92373,4.29676 -4.29676,4.29676c-2.37303,0 -4.29675,-1.92373 -4.29675,-4.29676c0,-2.37303 1.92372,-4.29676 4.29675,-4.29676c2.37303,0 4.29676,1.92374 4.29676,4.29676z" fill="#990f0f"/><g fill="#b31212"><path d="M86.57167,130.7967l-4.68331,-4.66781l0.56925,-0.57114l4.68332,4.66781z"/><path d="M87.26163,126.25098l-4.69794,4.65309l-0.56744,-0.57292l4.69792,-4.65309z"/></g></g><g stroke="none" stroke-width="0" stroke-linecap="butt"><path d="M124.33092,127.98579c0,3.2249 -2.61428,5.83919 -5.83918,5.83919c-3.2249,0 -5.83918,-2.61428 -5.83918,-5.83918c0,-3.2249 2.61428,-5.83918 5.83918,-5.83918c3.2249,0 5.83919,2.61428 5.83919,5.83918z" fill="#740c0c"/><path d="M122.78847,127.98578c0,2.37303 -1.92373,4.29676 -4.29676,4.29676c-2.37303,0 -4.29675,-1.92373 -4.29675,-4.29676c0,-2.37303 1.92372,-4.29675 4.29675,-4.29675c2.37303,0 4.29676,1.92373 4.29676,4.29675z" fill="#990f0f"/><g fill="#b31212"><path d="M120.43893,130.50474l-4.6833,-4.66781l0.56925,-0.57114l4.68331,4.66781z"/><path d="M121.12881,125.95902l-4.69794,4.6531l-0.56744,-0.57291l4.69792,-4.6531z"/></g></g><g stroke="none" stroke-width="0" stroke-linecap="butt"><g><g><path d="M87.40558,229.51596l3.45538,-40.54838c0,0 3.82391,-5.25145 10.58214,-5.25145c7.19016,0 10.58213,5.25145 10.58213,5.25145l3.45538,40.54838z" fill="#2b2b2b"/><path d="M89.18056,209.05773l1.33794,-15.70037c0,0 6.3013,-3.83115 10.66877,-3.9087c4.36747,-0.07757 11.14749,3.5213 11.14749,3.5213l1.35714,15.92581c0,0 -7.39577,-3.51988 -12.31909,-3.48759c-4.92332,0.0323 -12.19224,3.64956 -12.19224,3.64956z" fill="#0c0c0c"/></g><g><path d="M72.58625,236.01411c0.47442,-9.94518 12.84837,-18.03386 28.69769,-18.03386c15.84931,0 28.56626,8.07403 28.56626,18.03386c0,14.92069 -15.45722,18.03387 -28.56625,18.03387c0,0 -29.51639,-0.87153 -28.69768,-18.03386z" fill="#4b4b4b"/><path d="M72.71741,241.57106c0,-9.95983 12.81901,-18.03386 28.63206,-18.03386c15.81305,0 28.63205,8.07404 28.63205,18.03387c0,9.95983 -12.81899,18.03387 -28.63205,18.03387c-15.81305,0 -28.63203,-8.07404 -28.63203,-18.03386z" fill="#373737"/></g></g><g><path d="M80.14857,245.37541c0,-9.04832 9.63872,-15.60878 21.52868,-15.60878c11.88998,0 21.52868,6.56046 21.52868,15.60879c0,9.04832 -9.6387,16.38341 -21.52868,16.38341c-11.88998,0 -21.52868,-7.33509 -21.52868,-16.38341z" fill="#990f0f"/><path d="M82.7714,242.22201c0,-7.49979 8.46444,-12.72419 18.9059,-12.72419c10.44145,0 18.9059,5.2244 18.9059,12.72419c0,7.49979 -8.46445,13.57956 -18.9059,13.57956c-10.44145,0 -18.90589,-6.07977 -18.90589,-13.57956z" fill="#b31212"/></g></g></g></g><path d="M-14.20811,366.75988v-138.13814h509.00901v138.13814z" fill="url(#color-7)" stroke="none" stroke-width="0" stroke-linecap="butt"/><g fill="#c31e1e" stroke="#000000" stroke-width="0" stroke-linecap="butt"><path d="M201.69229,290.55565l6.10961,-0.28639c4.4231,-0.19092 7.81204,-2.10019 10.1668,-5.72776c2.25929,-3.46847 3.38893,-8.19389 3.38893,-14.17619c0,-1.68651 -0.57278,-3.10254 -1.71836,-4.24809c-1.11371,-1.14555 -2.67295,-1.73426 -4.67765,-1.76605c-2.00474,-0.03183 -4.18448,-0.06364 -6.53921,-0.09547zM200.45124,264.20788c-1.01827,0 -2.00471,0 -2.95934,0c-0.95463,0 -1.62287,-0.27049 -2.00473,-0.81142c-0.38186,-0.57277 -0.47734,-1.22512 -0.28643,-1.957l0.47734,-2.05244c0.12731,-0.57277 0.4296,-1.03417 0.9069,-1.3842c0.4773,-0.38186 0.9228,-0.57277 1.33646,-0.57277h16.61052c4.48674,0 8.08252,1.12965 10.7873,3.38893c2.70475,2.22746 4.05715,5.53684 4.05715,9.92814c0,4.3913 -0.84326,8.51207 -2.52975,12.3624c-1.65467,3.85033 -3.48439,6.60286 -5.4891,8.25754c-1.9729,1.62288 -3.48441,2.70479 -4.53448,3.24572c-1.0501,0.50913 -2.19566,0.97053 -3.43667,1.38419l4.48674,28.87747c0.35002,2.22746 -0.36595,3.34119 -2.14791,3.34119h-3.3412c-0.85916,0 -1.47966,-0.25455 -1.86152,-0.76369c-0.35002,-0.50913 -0.60457,-1.40012 -0.76368,-2.67294l-3.67532,-27.58874l-6.10961,0.09547l-7.35063,28.78202c-0.38186,1.43193 -1.3524,2.1479 -2.91164,2.1479h-2.81613c-0.79556,0 -1.36832,-0.28638 -1.71834,-0.85915c-0.35002,-0.60461 -0.42953,-1.32056 -0.23852,-2.14791z"/><path d="M294.90211,255.46997c0,0 -6.18915,21.47913 -18.56749,64.43734c1.87743,-1.40013 3.83442,-3.53211 5.87096,-6.39601c0.70004,-1.01827 1.5115,-1.24101 2.4343,-0.66824l2.33883,1.57514c1.01827,0.66825 1.17738,1.47967 0.4773,2.4343c-2.64114,3.15024 -5.09135,5.58454 -7.35063,7.30289c-2.25928,1.68651 -4.91633,2.8957 -7.97114,3.62759c-0.41366,0.09537 -0.79552,0.0317 -1.14555,-0.19094c-0.31822,-0.22274 -0.52504,-0.50914 -0.62051,-0.85917l-1.86153,-5.39366c-1.01827,1.43193 -2.29109,2.84799 -3.81849,4.24812c-1.49557,1.40013 -2.80026,2.10017 -3.91397,2.10017h-0.19091c-1.27282,0 -2.92753,-1.06601 -4.96407,-3.19801c-2.00471,-2.16381 -3.05482,-4.48673 -3.15029,-6.96877c-0.12727,-5.02771 1.30467,-11.69421 4.29584,-19.99946c2.99117,-8.33707 5.79139,-13.68299 8.40073,-16.03772c2.60931,-2.35476 5.74369,-3.53211 9.40308,-3.53211c2.19565,0 4.24809,0.57277 6.15735,1.71832l6.53921,-24.29524c0.38186,-1.43193 1.36829,-2.14792 2.95933,-2.14792h2.52977c1.87743,0 2.59341,0.74778 2.14792,2.24338zM279.24622,285.1588c-3.15028,-1.78199 -5.7755,-1.97293 -7.87567,-0.5728c-3.27756,2.22749 -6.45965,8.76668 -9.54629,19.61759c-2.19565,7.85977 -2.62521,12.64884 -1.28875,14.36715c0.70004,0.92283 1.63879,1.00234 2.81616,0.23852c3.05481,-1.9729 5.79138,-5.61638 8.20978,-10.93048c2.4502,-5.34593 5.01182,-12.91932 7.68477,-22.72015z"/><path d="M232.25946,307.54474c6.61874,-2.8639 11.12143,-6.74604 13.50799,-11.64647c1.20918,-2.51384 1.81379,-4.97993 1.81379,-7.39833c0,-2.4184 -0.70005,-3.62757 -2.10018,-3.62757c-3.05481,0 -5.69595,2.38656 -7.9234,7.15968c-2.19565,4.77315 -3.9617,9.94405 -5.2982,15.5127zM231.01844,313.9885c-0.4773,2.73661 -0.44549,4.66179 0.09548,5.77549c0.54097,1.08191 1.40013,1.76609 2.5775,2.05247c2.4184,-0.89099 5.37772,-3.3253 8.87803,-7.3029c0.60461,-0.60461 1.25692,-0.66827 1.95701,-0.19094l1.86152,1.14554c0.38186,0.22274 0.65232,0.57278 0.81143,1.05008c0.19091,0.4455 0.20685,0.81145 0.04774,1.09784c-1.20918,2.35473 -3.5003,4.8686 -6.8733,7.54155c-3.34119,2.64114 -6.03008,3.75485 -8.06662,3.34119c-4.61405,-1.1137 -7.31879,-3.53211 -8.11431,-7.25516c-0.60461,-2.95937 -0.49323,-6.92107 0.33412,-11.88511c0.85916,-4.96407 2.43429,-10.08725 4.72542,-15.36951c3.34119,-7.73249 7.20742,-12.61699 11.59872,-14.65353c3.46847,-1.62288 6.63465,-1.79788 9.49855,-0.52503c2.8957,1.27285 4.34357,4.43903 4.34357,9.49854c0,2.9275 -0.71598,5.8073 -2.14792,8.63936c-2.57751,5.05951 -7.12788,9.49854 -13.65116,13.31707c-2.54567,1.49557 -5.17089,2.73658 -7.87567,3.72305z"/></g></g></g></svg>